<?xml version="1.0" encoding="UTF-8" standalone="no"?>
<!DOCTYPE svg PUBLIC "-//W3C//DTD SVG 1.1//EN"
 "http://www.w3.org/Graphics/SVG/1.1/DTD/svg11.dtd">
<!-- Generated by graphviz version 2.43.0 (0)
 -->
<!-- Title: /home/runner/work/logger_system/logger_system/sources/logger/writers/base_writer.h Pages: 1 -->
<svg width="791pt" height="236pt"
 viewBox="0.00 0.00 790.50 236.00" xmlns="http://www.w3.org/2000/svg" xmlns:xlink="http://www.w3.org/1999/xlink">
<g id="graph0" class="graph" transform="scale(1 1) rotate(0) translate(4 232)">
<title>/home/runner/work/logger_system/logger_system/sources/logger/writers/base_writer.h</title>
<!-- Node1 -->
<g id="Node000001" class="node">
<title>Node1</title>
<g id="a_Node000001"><a xlink:title="Abstract base class for all log output writers.">
<polygon fill="#999999" stroke="#666666" points="463.5,-228 290.5,-228 290.5,-187 463.5,-187 463.5,-228"/>
<text text-anchor="start" x="298.5" y="-216" font-family="Helvetica,sans-Serif" font-size="10.00">/home/runner/work/logger</text>
<text text-anchor="start" x="298.5" y="-205" font-family="Helvetica,sans-Serif" font-size="10.00">_system/logger_system/sources</text>
<text text-anchor="middle" x="377" y="-194" font-family="Helvetica,sans-Serif" font-size="10.00">/logger/writers/base_writer.h</text>
</a>
</g>
</g>
<!-- Node2 -->
<g id="Node000002" class="node">
<title>Node2</title>
<g id="a_Node000002"><a xlink:title=" ">
<polygon fill="#e0e0e0" stroke="#999999" points="286,-24.5 242,-24.5 242,-5.5 286,-5.5 286,-24.5"/>
<text text-anchor="middle" x="264" y="-12.5" font-family="Helvetica,sans-Serif" font-size="10.00">string</text>
</a>
</g>
</g>
<!-- Node1&#45;&gt;Node2 -->
<g id="edge1_Node000001_Node000002" class="edge">
<title>Node1&#45;&gt;Node2</title>
<g id="a_edge1_Node000001_Node000002"><a xlink:title=" ">
<path fill="none" stroke="#63b8ff" d="M303.8,-186.91C286.54,-178.69 270.21,-167.15 260,-151 237.21,-114.96 248.82,-62 257.45,-34.34"/>
<polygon fill="#63b8ff" stroke="#63b8ff" points="260.8,-35.36 260.65,-24.77 254.16,-33.14 260.8,-35.36"/>
</a>
</g>
</g>
<!-- Node3 -->
<g id="Node000003" class="node">
<title>Node3</title>
<g id="a_Node000003"><a xlink:title=" ">
<polygon fill="#e0e0e0" stroke="#999999" points="357,-85 307,-85 307,-66 357,-66 357,-85"/>
<text text-anchor="middle" x="332" y="-73" font-family="Helvetica,sans-Serif" font-size="10.00">chrono</text>
</a>
</g>
</g>
<!-- Node1&#45;&gt;Node3 -->
<g id="edge2_Node000001_Node000003" class="edge">
<title>Node1&#45;&gt;Node3</title>
<g id="a_edge2_Node000001_Node000003"><a xlink:title=" ">
<path fill="none" stroke="#63b8ff" d="M391.78,-186.92C403.37,-168.97 415.75,-142.07 404,-121 395.84,-106.37 380.67,-95.94 366.34,-88.88"/>
<polygon fill="#63b8ff" stroke="#63b8ff" points="367.69,-85.64 357.14,-84.71 364.81,-92.02 367.69,-85.64"/>
</a>
</g>
</g>
<!-- Node4 -->
<g id="Node000004" class="node">
<title>Node4</title>
<g id="a_Node000004"><a xlink:title=" ">
<polygon fill="#e0e0e0" stroke="#999999" points="782.5,-85 625.5,-85 625.5,-66 782.5,-66 782.5,-85"/>
<text text-anchor="middle" x="704" y="-73" font-family="Helvetica,sans-Serif" font-size="10.00">interfaces/logger_interface.h</text>
</a>
</g>
</g>
<!-- Node1&#45;&gt;Node4 -->
<g id="edge3_Node000001_Node000004" class="edge">
<title>Node1&#45;&gt;Node4</title>
<g id="a_edge3_Node000001_Node000004"><a xlink:title=" ">
<path fill="none" stroke="#63b8ff" d="M463.72,-191.04C503.81,-182.16 551.43,-169.11 592,-151 627.61,-135.11 664.42,-108.25 685.71,-91.49"/>
<polygon fill="#63b8ff" stroke="#63b8ff" points="687.96,-94.17 693.58,-85.2 683.59,-88.71 687.96,-94.17"/>
</a>
</g>
</g>
<!-- Node5 -->
<g id="Node000005" class="node">
<title>Node5</title>
<g id="a_Node000005"><a xlink:href="error__codes_8h.html" target="_top" xlink:title=" ">
<polygon fill="white" stroke="#666666" points="213,-85 121,-85 121,-66 213,-66 213,-85"/>
<text text-anchor="middle" x="167" y="-73" font-family="Helvetica,sans-Serif" font-size="10.00">../error_codes.h</text>
</a>
</g>
</g>
<!-- Node1&#45;&gt;Node5 -->
<g id="edge4_Node000001_Node000005" class="edge">
<title>Node1&#45;&gt;Node5</title>
<g id="a_edge4_Node000001_Node000005"><a xlink:title=" ">
<path fill="none" stroke="#63b8ff" d="M300.21,-186.94C275.42,-178.38 248.75,-166.65 227,-151 205.59,-135.6 187.65,-110.63 177.12,-93.9"/>
<polygon fill="#63b8ff" stroke="#63b8ff" points="179.98,-91.86 171.8,-85.13 173.99,-95.49 179.98,-91.86"/>
</a>
</g>
</g>
<!-- Node9 -->
<g id="Node000009" class="node">
<title>Node9</title>
<g id="a_Node000009"><a xlink:href="log__writer__interface_8h.html" target="_top" xlink:title=" ">
<polygon fill="white" stroke="#666666" points="395,-151 269,-151 269,-121 395,-121 395,-151"/>
<text text-anchor="start" x="277" y="-139" font-family="Helvetica,sans-Serif" font-size="10.00">../interfaces/log_writer</text>
<text text-anchor="middle" x="332" y="-128" font-family="Helvetica,sans-Serif" font-size="10.00">_interface.h</text>
</a>
</g>
</g>
<!-- Node1&#45;&gt;Node9 -->
<g id="edge9_Node000001_Node000009" class="edge">
<title>Node1&#45;&gt;Node9</title>
<g id="a_edge9_Node000001_Node000009"><a xlink:title=" ">
<path fill="none" stroke="#63b8ff" d="M364.23,-186.77C358.75,-178.31 352.32,-168.38 346.65,-159.63"/>
<polygon fill="#63b8ff" stroke="#63b8ff" points="349.46,-157.53 341.09,-151.04 343.59,-161.33 349.46,-157.53"/>
</a>
</g>
</g>
<!-- Node10 -->
<g id="Node000010" class="node">
<title>Node10</title>
<g id="a_Node000010"><a xlink:href="log__entry_8h.html" target="_top" xlink:title="Data structures for representing log entries and source locations.">
<polygon fill="white" stroke="#666666" points="582.5,-145.5 451.5,-145.5 451.5,-126.5 582.5,-126.5 582.5,-145.5"/>
<text text-anchor="middle" x="517" y="-133.5" font-family="Helvetica,sans-Serif" font-size="10.00">../interfaces/log_entry.h</text>
</a>
</g>
</g>
<!-- Node1&#45;&gt;Node10 -->
<g id="edge13_Node000001_Node000010" class="edge">
<title>Node1&#45;&gt;Node10</title>
<g id="a_edge13_Node000001_Node000010"><a xlink:title=" ">
<path fill="none" stroke="#63b8ff" d="M416.37,-186.96C440.11,-175.17 469.7,-160.48 490.63,-150.09"/>
<polygon fill="#63b8ff" stroke="#63b8ff" points="492.47,-153.09 499.87,-145.5 489.36,-146.82 492.47,-153.09"/>
</a>
</g>
</g>
<!-- Node5&#45;&gt;Node2 -->
<g id="edge5_Node000005_Node000002" class="edge">
<title>Node5&#45;&gt;Node2</title>
<g id="a_edge5_Node000005_Node000002"><a xlink:title=" ">
<path fill="none" stroke="#63b8ff" d="M181.31,-65.87C197,-56.41 222.4,-41.09 240.91,-29.92"/>
<polygon fill="#63b8ff" stroke="#63b8ff" points="242.87,-32.83 249.63,-24.67 239.26,-26.83 242.87,-32.83"/>
</a>
</g>
</g>
<!-- Node6 -->
<g id="Node000006" class="node">
<title>Node6</title>
<g id="a_Node000006"><a xlink:title=" ">
<polygon fill="#e0e0e0" stroke="#999999" points="211.5,-24.5 146.5,-24.5 146.5,-5.5 211.5,-5.5 211.5,-24.5"/>
<text text-anchor="middle" x="179" y="-12.5" font-family="Helvetica,sans-Serif" font-size="10.00">stdexcept</text>
</a>
</g>
</g>
<!-- Node5&#45;&gt;Node6 -->
<g id="edge6_Node000005_Node000006" class="edge">
<title>Node5&#45;&gt;Node6</title>
<g id="a_edge6_Node000005_Node000006"><a xlink:title=" ">
<path fill="none" stroke="#63b8ff" d="M168.77,-65.87C170.45,-57.66 173.04,-45.04 175.19,-34.55"/>
<polygon fill="#63b8ff" stroke="#63b8ff" points="178.64,-35.17 177.22,-24.67 171.78,-33.76 178.64,-35.17"/>
</a>
</g>
</g>
<!-- Node7 -->
<g id="Node000007" class="node">
<title>Node7</title>
<g id="a_Node000007"><a xlink:title=" ">
<polygon fill="#e0e0e0" stroke="#999999" points="349.5,-24.5 304.5,-24.5 304.5,-5.5 349.5,-5.5 349.5,-24.5"/>
<text text-anchor="middle" x="327" y="-12.5" font-family="Helvetica,sans-Serif" font-size="10.00">utility</text>
</a>
</g>
</g>
<!-- Node5&#45;&gt;Node7 -->
<g id="edge7_Node000005_Node000007" class="edge">
<title>Node5&#45;&gt;Node7</title>
<g id="a_edge7_Node000005_Node000007"><a xlink:title=" ">
<path fill="none" stroke="#63b8ff" d="M193.7,-65.89C219.74,-57.34 260.39,-43.56 295,-30 296.21,-29.53 297.44,-29.04 298.67,-28.53"/>
<polygon fill="#63b8ff" stroke="#63b8ff" points="300.3,-31.65 308.15,-24.54 297.58,-25.2 300.3,-31.65"/>
</a>
</g>
</g>
<!-- Node8 -->
<g id="Node000008" class="node">
<title>Node8</title>
<g id="a_Node000008"><a xlink:title=" ">
<polygon fill="#e0e0e0" stroke="#999999" points="128,-30 0,-30 0,0 128,0 128,-30"/>
<text text-anchor="start" x="8" y="-18" font-family="Helvetica,sans-Serif" font-size="10.00">thread_base/sync/error</text>
<text text-anchor="middle" x="64" y="-7" font-family="Helvetica,sans-Serif" font-size="10.00">_handling.h</text>
</a>
</g>
</g>
<!-- Node5&#45;&gt;Node8 -->
<g id="edge8_Node000005_Node000008" class="edge">
<title>Node5&#45;&gt;Node8</title>
<g id="a_edge8_Node000005_Node000008"><a xlink:title=" ">
<path fill="none" stroke="#63b8ff" d="M151.8,-65.87C137.7,-57.86 116.2,-45.65 98.01,-35.31"/>
<polygon fill="#63b8ff" stroke="#63b8ff" points="99.28,-32.01 88.85,-30.11 95.82,-38.1 99.28,-32.01"/>
</a>
</g>
</g>
<!-- Node9&#45;&gt;Node2 -->
<g id="edge10_Node000009_Node000002" class="edge">
<title>Node9&#45;&gt;Node2</title>
<g id="a_edge10_Node000009_Node000002"><a xlink:title=" ">
<path fill="none" stroke="#63b8ff" d="M321.64,-120.9C314.6,-111.07 305.29,-97.52 298,-85 288.15,-68.1 278.45,-47.95 271.94,-33.81"/>
<polygon fill="#63b8ff" stroke="#63b8ff" points="275.13,-32.36 267.81,-24.7 268.75,-35.25 275.13,-32.36"/>
</a>
</g>
</g>
<!-- Node9&#45;&gt;Node3 -->
<g id="edge11_Node000009_Node000003" class="edge">
<title>Node9&#45;&gt;Node3</title>
<g id="a_edge11_Node000009_Node000003"><a xlink:title=" ">
<path fill="none" stroke="#63b8ff" d="M332,-120.84C332,-113.21 332,-103.7 332,-95.45"/>
<polygon fill="#63b8ff" stroke="#63b8ff" points="335.5,-95.27 332,-85.27 328.5,-95.27 335.5,-95.27"/>
</a>
</g>
</g>
<!-- Node9&#45;&gt;Node5 -->
<g id="edge12_Node000009_Node000005" class="edge">
<title>Node9&#45;&gt;Node5</title>
<g id="a_edge12_Node000009_Node000005"><a xlink:title=" ">
<path fill="none" stroke="#63b8ff" d="M292.48,-120.99C264.58,-111.1 227.59,-97.98 201,-88.56"/>
<polygon fill="#63b8ff" stroke="#63b8ff" points="201.96,-85.18 191.37,-85.14 199.62,-91.78 201.96,-85.18"/>
</a>
</g>
</g>
<!-- Node10&#45;&gt;Node2 -->
<g id="edge14_Node000010_Node000002" class="edge">
<title>Node10&#45;&gt;Node2</title>
<g id="a_edge14_Node000010_Node000002"><a xlink:title=" ">
<path fill="none" stroke="#63b8ff" d="M496.87,-126.43C474.17,-116.69 436.22,-100.17 404,-85 386.92,-76.96 382.92,-74.38 366,-66 340.52,-53.39 311.39,-39.12 290.8,-29.07"/>
<polygon fill="#63b8ff" stroke="#63b8ff" points="292.23,-25.87 281.71,-24.63 289.16,-32.16 292.23,-25.87"/>
</a>
</g>
</g>
<!-- Node10&#45;&gt;Node3 -->
<g id="edge15_Node000010_Node000003" class="edge">
<title>Node10&#45;&gt;Node3</title>
<g id="a_edge15_Node000010_Node000003"><a xlink:title=" ">
<path fill="none" stroke="#63b8ff" d="M490.1,-126.49C457.49,-116.18 402.47,-98.78 366.7,-87.47"/>
<polygon fill="#63b8ff" stroke="#63b8ff" points="367.74,-84.13 357.15,-84.45 365.63,-90.81 367.74,-84.13"/>
</a>
</g>
</g>
<!-- Node10&#45;&gt;Node4 -->
<g id="edge24_Node000010_Node000004" class="edge">
<title>Node10&#45;&gt;Node4</title>
<g id="a_edge24_Node000010_Node000004"><a xlink:title=" ">
<path fill="none" stroke="#63b8ff" d="M544.19,-126.49C576.6,-116.36 630.9,-99.37 667.08,-88.05"/>
<polygon fill="#63b8ff" stroke="#63b8ff" points="668.28,-91.34 676.78,-85.02 666.19,-84.66 668.28,-91.34"/>
</a>
</g>
</g>
<!-- Node11 -->
<g id="Node000011" class="node">
<title>Node11</title>
<g id="a_Node000011"><a xlink:title=" ">
<polygon fill="#e0e0e0" stroke="#999999" points="607,-85 551,-85 551,-66 607,-66 607,-85"/>
<text text-anchor="middle" x="579" y="-73" font-family="Helvetica,sans-Serif" font-size="10.00">optional</text>
</a>
</g>
</g>
<!-- Node10&#45;&gt;Node11 -->
<g id="edge16_Node000010_Node000011" class="edge">
<title>Node10&#45;&gt;Node11</title>
<g id="a_edge16_Node000010_Node000011"><a xlink:title=" ">
<path fill="none" stroke="#63b8ff" d="M526.15,-126.37C535.67,-117.38 550.8,-103.11 562.43,-92.14"/>
<polygon fill="#63b8ff" stroke="#63b8ff" points="564.94,-94.58 569.81,-85.17 560.14,-89.48 564.94,-94.58"/>
</a>
</g>
</g>
<!-- Node12 -->
<g id="Node000012" class="node">
<title>Node12</title>
<g id="a_Node000012"><a xlink:href="small__string_8h.html" target="_top" xlink:title=" ">
<polygon fill="white" stroke="#666666" points="532.5,-85 413.5,-85 413.5,-66 532.5,-66 532.5,-85"/>
<text text-anchor="middle" x="473" y="-73" font-family="Helvetica,sans-Serif" font-size="10.00">../core/small_string.h</text>
</a>
</g>
</g>
<!-- Node10&#45;&gt;Node12 -->
<g id="edge17_Node000010_Node000012" class="edge">
<title>Node10&#45;&gt;Node12</title>
<g id="a_edge17_Node000010_Node000012"><a xlink:title=" ">
<path fill="none" stroke="#63b8ff" d="M510.51,-126.37C504.01,-117.73 493.84,-104.2 485.72,-93.42"/>
<polygon fill="#63b8ff" stroke="#63b8ff" points="488.33,-91.06 479.52,-85.17 482.73,-95.26 488.33,-91.06"/>
</a>
</g>
</g>
<!-- Node12&#45;&gt;Node2 -->
<g id="edge19_Node000012_Node000002" class="edge">
<title>Node12&#45;&gt;Node2</title>
<g id="a_edge19_Node000012_Node000002"><a xlink:title=" ">
<path fill="none" stroke="#63b8ff" d="M429.93,-66C393.49,-58.27 340.13,-45.69 295,-30 293.61,-29.52 292.19,-28.99 290.76,-28.44"/>
<polygon fill="#63b8ff" stroke="#63b8ff" points="292.06,-25.19 281.48,-24.55 289.35,-31.65 292.06,-25.19"/>
</a>
</g>
</g>
<!-- Node12&#45;&gt;Node7 -->
<g id="edge23_Node000012_Node000007" class="edge">
<title>Node12&#45;&gt;Node7</title>
<g id="a_edge23_Node000012_Node000007"><a xlink:title=" ">
<path fill="none" stroke="#63b8ff" d="M450.18,-65.9C427.09,-57.13 390.41,-43 359,-30 357.83,-29.52 356.65,-29.02 355.45,-28.52"/>
<polygon fill="#63b8ff" stroke="#63b8ff" points="356.81,-25.29 346.24,-24.57 354.05,-31.72 356.81,-25.29"/>
</a>
</g>
</g>
<!-- Node13 -->
<g id="Node000013" class="node">
<title>Node13</title>
<g id="a_Node000013"><a xlink:title=" ">
<polygon fill="#e0e0e0" stroke="#999999" points="418,-24.5 368,-24.5 368,-5.5 418,-5.5 418,-24.5"/>
<text text-anchor="middle" x="393" y="-12.5" font-family="Helvetica,sans-Serif" font-size="10.00">cstring</text>
</a>
</g>
</g>
<!-- Node12&#45;&gt;Node13 -->
<g id="edge18_Node000012_Node000013" class="edge">
<title>Node12&#45;&gt;Node13</title>
<g id="a_edge18_Node000012_Node000013"><a xlink:title=" ">
<path fill="none" stroke="#63b8ff" d="M461.2,-65.87C448.55,-56.62 428.26,-41.78 413.09,-30.69"/>
<polygon fill="#63b8ff" stroke="#63b8ff" points="414.99,-27.74 404.85,-24.67 410.86,-33.4 414.99,-27.74"/>
</a>
</g>
</g>
<!-- Node14 -->
<g id="Node000014" class="node">
<title>Node14</title>
<g id="a_Node000014"><a xlink:title=" ">
<polygon fill="#e0e0e0" stroke="#999999" points="509.5,-24.5 436.5,-24.5 436.5,-5.5 509.5,-5.5 509.5,-24.5"/>
<text text-anchor="middle" x="473" y="-12.5" font-family="Helvetica,sans-Serif" font-size="10.00">string_view</text>
</a>
</g>
</g>
<!-- Node12&#45;&gt;Node14 -->
<g id="edge20_Node000012_Node000014" class="edge">
<title>Node12&#45;&gt;Node14</title>
<g id="a_edge20_Node000012_Node000014"><a xlink:title=" ">
<path fill="none" stroke="#63b8ff" d="M473,-65.87C473,-57.75 473,-45.31 473,-34.89"/>
<polygon fill="#63b8ff" stroke="#63b8ff" points="476.5,-34.67 473,-24.67 469.5,-34.67 476.5,-34.67"/>
</a>
</g>
</g>
<!-- Node15 -->
<g id="Node000015" class="node">
<title>Node15</title>
<g id="a_Node000015"><a xlink:title=" ">
<polygon fill="#e0e0e0" stroke="#999999" points="592,-24.5 528,-24.5 528,-5.5 592,-5.5 592,-24.5"/>
<text text-anchor="middle" x="560" y="-12.5" font-family="Helvetica,sans-Serif" font-size="10.00">algorithm</text>
</a>
</g>
</g>
<!-- Node12&#45;&gt;Node15 -->
<g id="edge21_Node000012_Node000015" class="edge">
<title>Node12&#45;&gt;Node15</title>
<g id="a_edge21_Node000012_Node000015"><a xlink:title=" ">
<path fill="none" stroke="#63b8ff" d="M485.84,-65.87C499.72,-56.54 522.07,-41.51 538.61,-30.38"/>
<polygon fill="#63b8ff" stroke="#63b8ff" points="540.76,-33.15 547.11,-24.67 536.86,-27.34 540.76,-33.15"/>
</a>
</g>
</g>
<!-- Node16 -->
<g id="Node000016" class="node">
<title>Node16</title>
<g id="a_Node000016"><a xlink:title=" ">
<polygon fill="#e0e0e0" stroke="#999999" points="668,-24.5 610,-24.5 610,-5.5 668,-5.5 668,-24.5"/>
<text text-anchor="middle" x="639" y="-12.5" font-family="Helvetica,sans-Serif" font-size="10.00">memory</text>
</a>
</g>
</g>
<!-- Node12&#45;&gt;Node16 -->
<g id="edge22_Node000012_Node000016" class="edge">
<title>Node12&#45;&gt;Node16</title>
<g id="a_edge22_Node000012_Node000016"><a xlink:title=" ">
<path fill="none" stroke="#63b8ff" d="M498.07,-65.94C523.91,-57.08 565.34,-42.77 601,-30 602.84,-29.34 604.72,-28.66 606.62,-27.97"/>
<polygon fill="#63b8ff" stroke="#63b8ff" points="607.92,-31.23 616.12,-24.51 605.52,-24.65 607.92,-31.23"/>
</a>
</g>
</g>
</g>
</svg>
