<?xml version="1.0" encoding="UTF-8" standalone="no"?>
<!DOCTYPE svg PUBLIC "-//W3C//DTD SVG 1.1//EN"
 "http://www.w3.org/Graphics/SVG/1.1/DTD/svg11.dtd">
<!-- Generated by graphviz version 2.43.0 (0)
 -->
<!-- Title: base_writer.h Pages: 1 -->
<svg width="566pt" height="203pt"
 viewBox="0.00 0.00 565.50 203.00" xmlns="http://www.w3.org/2000/svg" xmlns:xlink="http://www.w3.org/1999/xlink">
<g id="graph0" class="graph" transform="scale(1 1) rotate(0) translate(4 199)">
<title>base_writer.h</title>
<!-- Node1 -->
<g id="Node000001" class="node">
<title>Node1</title>
<g id="a_Node000001"><a xlink:title=" ">
<polygon fill="#999999" stroke="#666666" points="309,-195 227,-195 227,-176 309,-176 309,-195"/>
<text text-anchor="middle" x="268" y="-183" font-family="Helvetica,sans-Serif" font-size="10.00">base_writer.h</text>
</a>
</g>
</g>
<!-- Node2 -->
<g id="Node000002" class="node">
<title>Node2</title>
<g id="a_Node000002"><a xlink:title=" ">
<polygon fill="#e0e0e0" stroke="#999999" points="331,-19 287,-19 287,0 331,0 331,-19"/>
<text text-anchor="middle" x="309" y="-7" font-family="Helvetica,sans-Serif" font-size="10.00">string</text>
</a>
</g>
</g>
<!-- Node1&#45;&gt;Node2 -->
<g id="edge1_Node000001_Node000002" class="edge">
<title>Node1&#45;&gt;Node2</title>
<g id="a_edge1_Node000001_Node000002"><a xlink:title=" ">
<path fill="none" stroke="#63b8ff" d="M309.15,-180.69C335.87,-175.84 368.81,-164.85 386,-140 413.61,-100.08 360.74,-50 329.55,-25.45"/>
<polygon fill="#63b8ff" stroke="#63b8ff" points="331.49,-22.53 321.42,-19.24 327.24,-28.09 331.49,-22.53"/>
</a>
</g>
</g>
<!-- Node3 -->
<g id="Node000003" class="node">
<title>Node3</title>
<g id="a_Node000003"><a xlink:title=" ">
<polygon fill="#e0e0e0" stroke="#999999" points="265,-74 215,-74 215,-55 265,-55 265,-74"/>
<text text-anchor="middle" x="240" y="-62" font-family="Helvetica,sans-Serif" font-size="10.00">chrono</text>
</a>
</g>
</g>
<!-- Node1&#45;&gt;Node3 -->
<g id="edge2_Node000001_Node000003" class="edge">
<title>Node1&#45;&gt;Node3</title>
<g id="a_edge2_Node000001_Node000003"><a xlink:title=" ">
<path fill="none" stroke="#63b8ff" d="M261.19,-175.91C254.87,-167.36 245.88,-153.6 242,-140 236.8,-121.76 236.9,-99.97 237.93,-84.69"/>
<polygon fill="#63b8ff" stroke="#63b8ff" points="241.45,-84.7 238.84,-74.43 234.47,-84.09 241.45,-84.7"/>
</a>
</g>
</g>
<!-- Node4 -->
<g id="Node000004" class="node">
<title>Node4</title>
<g id="a_Node000004"><a xlink:href="logger__interface_8h.html" target="_top" xlink:title=" ">
<polygon fill="white" stroke="#666666" points="121,-74 7,-74 7,-55 121,-55 121,-74"/>
<text text-anchor="middle" x="64" y="-62" font-family="Helvetica,sans-Serif" font-size="10.00">../logger_interface.h</text>
</a>
</g>
</g>
<!-- Node1&#45;&gt;Node4 -->
<g id="edge3_Node000001_Node000004" class="edge">
<title>Node1&#45;&gt;Node4</title>
<g id="a_edge3_Node000001_Node000004"><a xlink:title=" ">
<path fill="none" stroke="#63b8ff" d="M226.91,-181.96C170.98,-177.54 75.37,-166.27 54,-140 41.18,-124.24 47.65,-100.09 54.69,-83.59"/>
<polygon fill="#63b8ff" stroke="#63b8ff" points="57.9,-84.99 58.98,-74.45 51.57,-82.02 57.9,-84.99"/>
</a>
</g>
</g>
<!-- Node7 -->
<g id="Node000007" class="node">
<title>Node7</title>
<g id="a_Node000007"><a xlink:href="error__codes_8h.html" target="_top" xlink:title=" ">
<polygon fill="white" stroke="#666666" points="502,-74 410,-74 410,-55 502,-55 502,-74"/>
<text text-anchor="middle" x="456" y="-62" font-family="Helvetica,sans-Serif" font-size="10.00">../error_codes.h</text>
</a>
</g>
</g>
<!-- Node1&#45;&gt;Node7 -->
<g id="edge7_Node000001_Node000007" class="edge">
<title>Node1&#45;&gt;Node7</title>
<g id="a_edge7_Node000001_Node000007"><a xlink:title=" ">
<path fill="none" stroke="#63b8ff" d="M309.07,-181.35C342.08,-176.89 387.91,-166.09 419,-140 436.24,-125.53 446.2,-101.07 451.36,-84.14"/>
<polygon fill="#63b8ff" stroke="#63b8ff" points="454.79,-84.86 454.08,-74.28 448.04,-82.99 454.79,-84.86"/>
</a>
</g>
</g>
<!-- Node11 -->
<g id="Node000011" class="node">
<title>Node11</title>
<g id="a_Node000011"><a xlink:href="log__writer__interface_8h.html" target="_top" xlink:title=" ">
<polygon fill="white" stroke="#666666" points="377,-140 251,-140 251,-110 377,-110 377,-140"/>
<text text-anchor="start" x="259" y="-128" font-family="Helvetica,sans-Serif" font-size="10.00">../interfaces/log_writer</text>
<text text-anchor="middle" x="314" y="-117" font-family="Helvetica,sans-Serif" font-size="10.00">_interface.h</text>
</a>
</g>
</g>
<!-- Node1&#45;&gt;Node11 -->
<g id="edge12_Node000001_Node000011" class="edge">
<title>Node1&#45;&gt;Node11</title>
<g id="a_edge12_Node000001_Node000011"><a xlink:title=" ">
<path fill="none" stroke="#63b8ff" d="M274.79,-175.87C280.51,-168.59 288.95,-157.85 296.54,-148.2"/>
<polygon fill="#63b8ff" stroke="#63b8ff" points="299.47,-150.14 302.9,-140.11 293.97,-145.81 299.47,-150.14"/>
</a>
</g>
</g>
<!-- Node12 -->
<g id="Node000012" class="node">
<title>Node12</title>
<g id="a_Node000012"><a xlink:href="log__entry_8h.html" target="_top" xlink:title=" ">
<polygon fill="white" stroke="#666666" points="194.5,-134.5 63.5,-134.5 63.5,-115.5 194.5,-115.5 194.5,-134.5"/>
<text text-anchor="middle" x="129" y="-122.5" font-family="Helvetica,sans-Serif" font-size="10.00">../interfaces/log_entry.h</text>
</a>
</g>
</g>
<!-- Node1&#45;&gt;Node12 -->
<g id="edge16_Node000001_Node000012" class="edge">
<title>Node1&#45;&gt;Node12</title>
<g id="a_edge16_Node000001_Node000012"><a xlink:title=" ">
<path fill="none" stroke="#63b8ff" d="M247.79,-175.99C224.32,-166.12 185.39,-149.73 158.54,-138.43"/>
<polygon fill="#63b8ff" stroke="#63b8ff" points="159.81,-135.17 149.24,-134.52 157.1,-141.62 159.81,-135.17"/>
</a>
</g>
</g>
<!-- Node4&#45;&gt;Node2 -->
<g id="edge6_Node000004_Node000002" class="edge">
<title>Node4&#45;&gt;Node2</title>
<g id="a_edge6_Node000004_Node000002"><a xlink:title=" ">
<path fill="none" stroke="#63b8ff" d="M103.36,-54.98C151.58,-44.56 232.32,-27.09 276.93,-17.44"/>
<polygon fill="#63b8ff" stroke="#63b8ff" points="277.9,-20.81 286.93,-15.27 276.42,-13.97 277.9,-20.81"/>
</a>
</g>
</g>
<!-- Node5 -->
<g id="Node000005" class="node">
<title>Node5</title>
<g id="a_Node000005"><a xlink:title=" ">
<polygon fill="#e0e0e0" stroke="#999999" points="58,-19 0,-19 0,0 58,0 58,-19"/>
<text text-anchor="middle" x="29" y="-7" font-family="Helvetica,sans-Serif" font-size="10.00">memory</text>
</a>
</g>
</g>
<!-- Node4&#45;&gt;Node5 -->
<g id="edge4_Node000004_Node000005" class="edge">
<title>Node4&#45;&gt;Node5</title>
<g id="a_edge4_Node000004_Node000005"><a xlink:title=" ">
<path fill="none" stroke="#63b8ff" d="M58.22,-54.75C53.38,-47.42 46.32,-36.73 40.36,-27.7"/>
<polygon fill="#63b8ff" stroke="#63b8ff" points="43.1,-25.5 34.67,-19.09 37.26,-29.36 43.1,-25.5"/>
</a>
</g>
</g>
<!-- Node6 -->
<g id="Node000006" class="node">
<title>Node6</title>
<g id="a_Node000006"><a xlink:title=" ">
<polygon fill="#e0e0e0" stroke="#999999" points="124,-19 76,-19 76,0 124,0 124,-19"/>
<text text-anchor="middle" x="100" y="-7" font-family="Helvetica,sans-Serif" font-size="10.00">mutex</text>
</a>
</g>
</g>
<!-- Node4&#45;&gt;Node6 -->
<g id="edge5_Node000004_Node000006" class="edge">
<title>Node4&#45;&gt;Node6</title>
<g id="a_edge5_Node000004_Node000006"><a xlink:title=" ">
<path fill="none" stroke="#63b8ff" d="M69.94,-54.75C74.98,-47.34 82.34,-36.5 88.51,-27.41"/>
<polygon fill="#63b8ff" stroke="#63b8ff" points="91.44,-29.33 94.17,-19.09 85.65,-25.39 91.44,-29.33"/>
</a>
</g>
</g>
<!-- Node7&#45;&gt;Node2 -->
<g id="edge8_Node000007_Node000002" class="edge">
<title>Node7&#45;&gt;Node2</title>
<g id="a_edge8_Node000007_Node000002"><a xlink:title=" ">
<path fill="none" stroke="#63b8ff" d="M432.38,-54.98C407.52,-46.02 368.23,-31.86 340.69,-21.92"/>
<polygon fill="#63b8ff" stroke="#63b8ff" points="341.71,-18.57 331.12,-18.47 339.34,-25.16 341.71,-18.57"/>
</a>
</g>
</g>
<!-- Node8 -->
<g id="Node000008" class="node">
<title>Node8</title>
<g id="a_Node000008"><a xlink:title=" ">
<polygon fill="#e0e0e0" stroke="#999999" points="488.5,-19 423.5,-19 423.5,0 488.5,0 488.5,-19"/>
<text text-anchor="middle" x="456" y="-7" font-family="Helvetica,sans-Serif" font-size="10.00">stdexcept</text>
</a>
</g>
</g>
<!-- Node7&#45;&gt;Node8 -->
<g id="edge9_Node000007_Node000008" class="edge">
<title>Node7&#45;&gt;Node8</title>
<g id="a_edge9_Node000007_Node000008"><a xlink:title=" ">
<path fill="none" stroke="#63b8ff" d="M456,-54.75C456,-47.8 456,-37.85 456,-29.13"/>
<polygon fill="#63b8ff" stroke="#63b8ff" points="459.5,-29.09 456,-19.09 452.5,-29.09 459.5,-29.09"/>
</a>
</g>
</g>
<!-- Node9 -->
<g id="Node000009" class="node">
<title>Node9</title>
<g id="a_Node000009"><a xlink:title=" ">
<polygon fill="#e0e0e0" stroke="#999999" points="405,-19 349,-19 349,0 405,0 405,-19"/>
<text text-anchor="middle" x="377" y="-7" font-family="Helvetica,sans-Serif" font-size="10.00">optional</text>
</a>
</g>
</g>
<!-- Node7&#45;&gt;Node9 -->
<g id="edge10_Node000007_Node000009" class="edge">
<title>Node7&#45;&gt;Node9</title>
<g id="a_edge10_Node000007_Node000009"><a xlink:title=" ">
<path fill="none" stroke="#63b8ff" d="M443.31,-54.98C431.17,-46.84 412.64,-34.41 398.25,-24.76"/>
<polygon fill="#63b8ff" stroke="#63b8ff" points="400.18,-21.84 389.92,-19.17 396.28,-27.65 400.18,-21.84"/>
</a>
</g>
</g>
<!-- Node10 -->
<g id="Node000010" class="node">
<title>Node10</title>
<g id="a_Node000010"><a xlink:title=" ">
<polygon fill="#e0e0e0" stroke="#999999" points="557.5,-19 506.5,-19 506.5,0 557.5,0 557.5,-19"/>
<text text-anchor="middle" x="532" y="-7" font-family="Helvetica,sans-Serif" font-size="10.00">variant</text>
</a>
</g>
</g>
<!-- Node7&#45;&gt;Node10 -->
<g id="edge11_Node000007_Node000010" class="edge">
<title>Node7&#45;&gt;Node10</title>
<g id="a_edge11_Node000007_Node000010"><a xlink:title=" ">
<path fill="none" stroke="#63b8ff" d="M468.21,-54.98C479.78,-46.92 497.38,-34.65 511.16,-25.03"/>
<polygon fill="#63b8ff" stroke="#63b8ff" points="513.37,-27.76 519.57,-19.17 509.36,-22.02 513.37,-27.76"/>
</a>
</g>
</g>
<!-- Node11&#45;&gt;Node2 -->
<g id="edge13_Node000011_Node000002" class="edge">
<title>Node11&#45;&gt;Node2</title>
<g id="a_edge13_Node000011_Node000002"><a xlink:title=" ">
<path fill="none" stroke="#63b8ff" d="M313.37,-109.63C312.47,-89.21 310.82,-51.81 309.83,-29.24"/>
<polygon fill="#63b8ff" stroke="#63b8ff" points="313.32,-29.07 309.38,-19.23 306.33,-29.37 313.32,-29.07"/>
</a>
</g>
</g>
<!-- Node11&#45;&gt;Node3 -->
<g id="edge14_Node000011_Node000003" class="edge">
<title>Node11&#45;&gt;Node3</title>
<g id="a_edge14_Node000011_Node000003"><a xlink:title=" ">
<path fill="none" stroke="#63b8ff" d="M296.09,-109.84C284.91,-101 270.52,-89.63 259.12,-80.62"/>
<polygon fill="#63b8ff" stroke="#63b8ff" points="261.1,-77.72 251.09,-74.27 256.76,-83.21 261.1,-77.72"/>
</a>
</g>
</g>
<!-- Node11&#45;&gt;Node7 -->
<g id="edge15_Node000011_Node000007" class="edge">
<title>Node11&#45;&gt;Node7</title>
<g id="a_edge15_Node000011_Node000007"><a xlink:title=" ">
<path fill="none" stroke="#63b8ff" d="M348.01,-109.99C371.6,-100.27 402.74,-87.44 425.52,-78.06"/>
<polygon fill="#63b8ff" stroke="#63b8ff" points="427.12,-81.18 435.03,-74.14 424.45,-74.71 427.12,-81.18"/>
</a>
</g>
</g>
<!-- Node12&#45;&gt;Node2 -->
<g id="edge17_Node000012_Node000002" class="edge">
<title>Node12&#45;&gt;Node2</title>
<g id="a_edge17_Node000012_Node000002"><a xlink:title=" ">
<path fill="none" stroke="#63b8ff" d="M132.2,-115.45C138.06,-100.91 151.89,-71.37 173,-55 203.42,-31.41 246.85,-20.07 276.39,-14.8"/>
<polygon fill="#63b8ff" stroke="#63b8ff" points="277.29,-18.2 286.59,-13.12 276.16,-11.29 277.29,-18.2"/>
</a>
</g>
</g>
<!-- Node12&#45;&gt;Node3 -->
<g id="edge18_Node000012_Node000003" class="edge">
<title>Node12&#45;&gt;Node3</title>
<g id="a_edge18_Node000012_Node000003"><a xlink:title=" ">
<path fill="none" stroke="#63b8ff" d="M145.38,-115.37C163.58,-105.78 193.2,-90.17 214.45,-78.97"/>
<polygon fill="#63b8ff" stroke="#63b8ff" points="216.34,-81.93 223.55,-74.17 213.08,-75.73 216.34,-81.93"/>
</a>
</g>
</g>
<!-- Node12&#45;&gt;Node4 -->
<g id="edge20_Node000012_Node000004" class="edge">
<title>Node12&#45;&gt;Node4</title>
<g id="a_edge20_Node000012_Node000004"><a xlink:title=" ">
<path fill="none" stroke="#63b8ff" d="M119.41,-115.37C109.42,-106.38 93.57,-92.11 81.37,-81.14"/>
<polygon fill="#63b8ff" stroke="#63b8ff" points="83.4,-78.26 73.63,-74.17 78.72,-83.46 83.4,-78.26"/>
</a>
</g>
</g>
<!-- Node12&#45;&gt;Node9 -->
<g id="edge19_Node000012_Node000009" class="edge">
<title>Node12&#45;&gt;Node9</title>
<g id="a_edge19_Node000012_Node000009"><a xlink:title=" ">
<path fill="none" stroke="#63b8ff" d="M136.12,-115.36C148.68,-100.69 176.27,-70.96 206,-55 217.74,-48.7 292.32,-30.45 339.02,-19.38"/>
<polygon fill="#63b8ff" stroke="#63b8ff" points="339.89,-22.77 348.82,-17.06 338.28,-15.96 339.89,-22.77"/>
</a>
</g>
</g>
</g>
</svg>
