<?xml version="1.0" encoding="UTF-8" standalone="no"?>
<!DOCTYPE svg PUBLIC "-//W3C//DTD SVG 1.1//EN"
 "http://www.w3.org/Graphics/SVG/1.1/DTD/svg11.dtd">
<!-- Generated by graphviz version 2.43.0 (0)
 -->
<!-- Title: base_writer.h Pages: 1 -->
<svg width="545pt" height="203pt"
 viewBox="0.00 0.00 544.50 203.00" xmlns="http://www.w3.org/2000/svg" xmlns:xlink="http://www.w3.org/1999/xlink">
<g id="graph0" class="graph" transform="scale(1 1) rotate(0) translate(4 199)">
<title>base_writer.h</title>
<!-- Node1 -->
<g id="Node000001" class="node">
<title>Node1</title>
<g id="a_Node000001"><a xlink:title=" ">
<polygon fill="#999999" stroke="#666666" points="303.5,-195 221.5,-195 221.5,-176 303.5,-176 303.5,-195"/>
<text text-anchor="middle" x="262.5" y="-183" font-family="Helvetica,sans-Serif" font-size="10.00">base_writer.h</text>
</a>
</g>
</g>
<!-- Node2 -->
<g id="Node000002" class="node">
<title>Node2</title>
<g id="a_Node000002"><a xlink:title=" ">
<polygon fill="#e0e0e0" stroke="#999999" points="333.5,-19 289.5,-19 289.5,0 333.5,0 333.5,-19"/>
<text text-anchor="middle" x="311.5" y="-7" font-family="Helvetica,sans-Serif" font-size="10.00">string</text>
</a>
</g>
</g>
<!-- Node1&#45;&gt;Node2 -->
<g id="edge1_Node000001_Node000002" class="edge">
<title>Node1&#45;&gt;Node2</title>
<g id="a_edge1_Node000001_Node000002"><a xlink:title=" ">
<path fill="none" stroke="#63b8ff" d="M303.5,-181.35C331.37,-176.82 366.34,-165.95 384.5,-140 411.97,-100.74 361.19,-50.31 331.22,-25.56"/>
<polygon fill="#63b8ff" stroke="#63b8ff" points="333.04,-22.54 323.05,-19.02 328.67,-28 333.04,-22.54"/>
</a>
</g>
</g>
<!-- Node3 -->
<g id="Node000003" class="node">
<title>Node3</title>
<g id="a_Node000003"><a xlink:title=" ">
<polygon fill="#e0e0e0" stroke="#999999" points="241.5,-74 191.5,-74 191.5,-55 241.5,-55 241.5,-74"/>
<text text-anchor="middle" x="216.5" y="-62" font-family="Helvetica,sans-Serif" font-size="10.00">chrono</text>
</a>
</g>
</g>
<!-- Node1&#45;&gt;Node3 -->
<g id="edge2_Node000001_Node000003" class="edge">
<title>Node1&#45;&gt;Node3</title>
<g id="a_edge2_Node000001_Node000003"><a xlink:title=" ">
<path fill="none" stroke="#63b8ff" d="M256.09,-175.72C250.02,-167.03 241.03,-153.16 235.5,-140 227.84,-121.76 222.68,-99.67 219.69,-84.3"/>
<polygon fill="#63b8ff" stroke="#63b8ff" points="223.06,-83.24 217.83,-74.03 216.17,-84.49 223.06,-83.24"/>
</a>
</g>
</g>
<!-- Node4 -->
<g id="Node000004" class="node">
<title>Node4</title>
<g id="a_Node000004"><a xlink:href="logger__interface_8h.html" target="_top" xlink:title=" ">
<polygon fill="white" stroke="#666666" points="533.5,-74 419.5,-74 419.5,-55 533.5,-55 533.5,-74"/>
<text text-anchor="middle" x="476.5" y="-62" font-family="Helvetica,sans-Serif" font-size="10.00">../logger_interface.h</text>
</a>
</g>
</g>
<!-- Node1&#45;&gt;Node4 -->
<g id="edge3_Node000001_Node000004" class="edge">
<title>Node1&#45;&gt;Node4</title>
<g id="a_edge3_Node000001_Node000004"><a xlink:title=" ">
<path fill="none" stroke="#63b8ff" d="M303.6,-179.74C336.65,-174.33 383.08,-163.06 417.5,-140 439.27,-125.41 456.74,-100.25 466.86,-83.25"/>
<polygon fill="#63b8ff" stroke="#63b8ff" points="470.04,-84.74 471.95,-74.32 463.96,-81.28 470.04,-84.74"/>
</a>
</g>
</g>
<!-- Node7 -->
<g id="Node000007" class="node">
<title>Node7</title>
<g id="a_Node000007"><a xlink:href="error__codes_8h.html" target="_top" xlink:title=" ">
<polygon fill="white" stroke="#666666" points="135.5,-74 43.5,-74 43.5,-55 135.5,-55 135.5,-74"/>
<text text-anchor="middle" x="89.5" y="-62" font-family="Helvetica,sans-Serif" font-size="10.00">../error_codes.h</text>
</a>
</g>
</g>
<!-- Node1&#45;&gt;Node7 -->
<g id="edge7_Node000001_Node000007" class="edge">
<title>Node1&#45;&gt;Node7</title>
<g id="a_edge7_Node000001_Node000007"><a xlink:title=" ">
<path fill="none" stroke="#63b8ff" d="M221.25,-181.76C166.23,-177.15 73.32,-165.7 52.5,-140 37.81,-121.87 56.4,-96.95 72.11,-81.03"/>
<polygon fill="#63b8ff" stroke="#63b8ff" points="74.64,-83.46 79.44,-74.01 69.8,-78.41 74.64,-83.46"/>
</a>
</g>
</g>
<!-- Node12 -->
<g id="Node000012" class="node">
<title>Node12</title>
<g id="a_Node000012"><a xlink:href="log__writer__interface_8h.html" target="_top" xlink:title=" ">
<polygon fill="white" stroke="#666666" points="187.5,-140 61.5,-140 61.5,-110 187.5,-110 187.5,-140"/>
<text text-anchor="start" x="69.5" y="-128" font-family="Helvetica,sans-Serif" font-size="10.00">../interfaces/log_writer</text>
<text text-anchor="middle" x="124.5" y="-117" font-family="Helvetica,sans-Serif" font-size="10.00">_interface.h</text>
</a>
</g>
</g>
<!-- Node1&#45;&gt;Node12 -->
<g id="edge13_Node000001_Node000012" class="edge">
<title>Node1&#45;&gt;Node12</title>
<g id="a_edge13_Node000001_Node000012"><a xlink:title=" ">
<path fill="none" stroke="#63b8ff" d="M242.43,-175.99C222.75,-167.65 192.11,-154.66 167,-144.02"/>
<polygon fill="#63b8ff" stroke="#63b8ff" points="168.25,-140.74 157.68,-140.06 165.52,-147.19 168.25,-140.74"/>
</a>
</g>
</g>
<!-- Node13 -->
<g id="Node000013" class="node">
<title>Node13</title>
<g id="a_Node000013"><a xlink:href="log__entry_8h.html" target="_top" xlink:title=" ">
<polygon fill="white" stroke="#666666" points="375,-134.5 244,-134.5 244,-115.5 375,-115.5 375,-134.5"/>
<text text-anchor="middle" x="309.5" y="-122.5" font-family="Helvetica,sans-Serif" font-size="10.00">../interfaces/log_entry.h</text>
</a>
</g>
</g>
<!-- Node1&#45;&gt;Node13 -->
<g id="edge17_Node000001_Node000013" class="edge">
<title>Node1&#45;&gt;Node13</title>
<g id="a_edge17_Node000001_Node000013"><a xlink:title=" ">
<path fill="none" stroke="#63b8ff" d="M269.44,-175.87C276.45,-167.14 287.46,-153.43 296.17,-142.59"/>
<polygon fill="#63b8ff" stroke="#63b8ff" points="299,-144.66 302.54,-134.67 293.54,-140.27 299,-144.66"/>
</a>
</g>
</g>
<!-- Node4&#45;&gt;Node2 -->
<g id="edge6_Node000004_Node000002" class="edge">
<title>Node4&#45;&gt;Node2</title>
<g id="a_edge6_Node000004_Node000002"><a xlink:title=" ">
<path fill="none" stroke="#63b8ff" d="M449.99,-54.98C421.02,-45.68 374.6,-30.77 343.59,-20.81"/>
<polygon fill="#63b8ff" stroke="#63b8ff" points="344.3,-17.36 333.71,-17.63 342.16,-24.03 344.3,-17.36"/>
</a>
</g>
</g>
<!-- Node5 -->
<g id="Node000005" class="node">
<title>Node5</title>
<g id="a_Node000005"><a xlink:title=" ">
<polygon fill="#e0e0e0" stroke="#999999" points="470.5,-19 412.5,-19 412.5,0 470.5,0 470.5,-19"/>
<text text-anchor="middle" x="441.5" y="-7" font-family="Helvetica,sans-Serif" font-size="10.00">memory</text>
</a>
</g>
</g>
<!-- Node4&#45;&gt;Node5 -->
<g id="edge4_Node000004_Node000005" class="edge">
<title>Node4&#45;&gt;Node5</title>
<g id="a_edge4_Node000004_Node000005"><a xlink:title=" ">
<path fill="none" stroke="#63b8ff" d="M470.72,-54.75C465.88,-47.42 458.82,-36.73 452.86,-27.7"/>
<polygon fill="#63b8ff" stroke="#63b8ff" points="455.6,-25.5 447.17,-19.09 449.76,-29.36 455.6,-25.5"/>
</a>
</g>
</g>
<!-- Node6 -->
<g id="Node000006" class="node">
<title>Node6</title>
<g id="a_Node000006"><a xlink:title=" ">
<polygon fill="#e0e0e0" stroke="#999999" points="536.5,-19 488.5,-19 488.5,0 536.5,0 536.5,-19"/>
<text text-anchor="middle" x="512.5" y="-7" font-family="Helvetica,sans-Serif" font-size="10.00">mutex</text>
</a>
</g>
</g>
<!-- Node4&#45;&gt;Node6 -->
<g id="edge5_Node000004_Node000006" class="edge">
<title>Node4&#45;&gt;Node6</title>
<g id="a_edge5_Node000004_Node000006"><a xlink:title=" ">
<path fill="none" stroke="#63b8ff" d="M482.44,-54.75C487.48,-47.34 494.84,-36.5 501.01,-27.41"/>
<polygon fill="#63b8ff" stroke="#63b8ff" points="503.94,-29.33 506.67,-19.09 498.15,-25.39 503.94,-29.33"/>
</a>
</g>
</g>
<!-- Node7&#45;&gt;Node2 -->
<g id="edge8_Node000007_Node000002" class="edge">
<title>Node7&#45;&gt;Node2</title>
<g id="a_edge8_Node000007_Node000002"><a xlink:title=" ">
<path fill="none" stroke="#63b8ff" d="M128.02,-54.99C164.63,-46.79 221.47,-33.8 279.48,-19.19"/>
<polygon fill="#63b8ff" stroke="#63b8ff" points="280.34,-22.58 289.18,-16.73 278.62,-15.79 280.34,-22.58"/>
</a>
</g>
</g>
<!-- Node8 -->
<g id="Node000008" class="node">
<title>Node8</title>
<g id="a_Node000008"><a xlink:title=" ">
<polygon fill="#e0e0e0" stroke="#999999" points="197,-19 132,-19 132,0 197,0 197,-19"/>
<text text-anchor="middle" x="164.5" y="-7" font-family="Helvetica,sans-Serif" font-size="10.00">stdexcept</text>
</a>
</g>
</g>
<!-- Node7&#45;&gt;Node8 -->
<g id="edge9_Node000007_Node000008" class="edge">
<title>Node7&#45;&gt;Node8</title>
<g id="a_edge9_Node000007_Node000008"><a xlink:title=" ">
<path fill="none" stroke="#63b8ff" d="M101.55,-54.98C112.96,-46.92 130.33,-34.65 143.93,-25.03"/>
<polygon fill="#63b8ff" stroke="#63b8ff" points="146.08,-27.8 152.23,-19.17 142.04,-22.08 146.08,-27.8"/>
</a>
</g>
</g>
<!-- Node9 -->
<g id="Node000009" class="node">
<title>Node9</title>
<g id="a_Node000009"><a xlink:title=" ">
<polygon fill="#e0e0e0" stroke="#999999" points="45,-19 0,-19 0,0 45,0 45,-19"/>
<text text-anchor="middle" x="22.5" y="-7" font-family="Helvetica,sans-Serif" font-size="10.00">utility</text>
</a>
</g>
</g>
<!-- Node7&#45;&gt;Node9 -->
<g id="edge10_Node000007_Node000009" class="edge">
<title>Node7&#45;&gt;Node9</title>
<g id="a_edge10_Node000007_Node000009"><a xlink:title=" ">
<path fill="none" stroke="#63b8ff" d="M78.74,-54.98C68.73,-47.07 53.61,-35.11 41.57,-25.58"/>
<polygon fill="#63b8ff" stroke="#63b8ff" points="43.47,-22.63 33.46,-19.17 39.13,-28.12 43.47,-22.63"/>
</a>
</g>
</g>
<!-- Node10 -->
<g id="Node000010" class="node">
<title>Node10</title>
<g id="a_Node000010"><a xlink:title=" ">
<polygon fill="#e0e0e0" stroke="#999999" points="271.5,-19 215.5,-19 215.5,0 271.5,0 271.5,-19"/>
<text text-anchor="middle" x="243.5" y="-7" font-family="Helvetica,sans-Serif" font-size="10.00">optional</text>
</a>
</g>
</g>
<!-- Node7&#45;&gt;Node10 -->
<g id="edge11_Node000007_Node000010" class="edge">
<title>Node7&#45;&gt;Node10</title>
<g id="a_edge11_Node000007_Node000010"><a xlink:title=" ">
<path fill="none" stroke="#63b8ff" d="M114.24,-54.98C139.87,-46.16 180.13,-32.31 208.91,-22.41"/>
<polygon fill="#63b8ff" stroke="#63b8ff" points="210.25,-25.65 218.56,-19.08 207.97,-19.03 210.25,-25.65"/>
</a>
</g>
</g>
<!-- Node11 -->
<g id="Node000011" class="node">
<title>Node11</title>
<g id="a_Node000011"><a xlink:title=" ">
<polygon fill="#e0e0e0" stroke="#999999" points="114,-19 63,-19 63,0 114,0 114,-19"/>
<text text-anchor="middle" x="88.5" y="-7" font-family="Helvetica,sans-Serif" font-size="10.00">variant</text>
</a>
</g>
</g>
<!-- Node7&#45;&gt;Node11 -->
<g id="edge12_Node000007_Node000011" class="edge">
<title>Node7&#45;&gt;Node11</title>
<g id="a_edge12_Node000007_Node000011"><a xlink:title=" ">
<path fill="none" stroke="#63b8ff" d="M89.33,-54.75C89.2,-47.8 89.02,-37.85 88.85,-29.13"/>
<polygon fill="#63b8ff" stroke="#63b8ff" points="92.35,-29.02 88.66,-19.09 85.35,-29.15 92.35,-29.02"/>
</a>
</g>
</g>
<!-- Node12&#45;&gt;Node2 -->
<g id="edge14_Node000012_Node000002" class="edge">
<title>Node12&#45;&gt;Node2</title>
<g id="a_edge14_Node000012_Node000002"><a xlink:title=" ">
<path fill="none" stroke="#63b8ff" d="M133.03,-109.87C143.06,-94.36 161.09,-69.71 182.5,-55 198.45,-44.04 246.55,-28.96 279.29,-19.47"/>
<polygon fill="#63b8ff" stroke="#63b8ff" points="280.67,-22.71 289.32,-16.59 278.74,-15.98 280.67,-22.71"/>
</a>
</g>
</g>
<!-- Node12&#45;&gt;Node3 -->
<g id="edge15_Node000012_Node000003" class="edge">
<title>Node12&#45;&gt;Node3</title>
<g id="a_edge15_Node000012_Node000003"><a xlink:title=" ">
<path fill="none" stroke="#63b8ff" d="M146.77,-109.84C161.17,-100.68 179.83,-88.82 194.23,-79.66"/>
<polygon fill="#63b8ff" stroke="#63b8ff" points="196.42,-82.41 202.98,-74.09 192.67,-76.51 196.42,-82.41"/>
</a>
</g>
</g>
<!-- Node12&#45;&gt;Node7 -->
<g id="edge16_Node000012_Node000007" class="edge">
<title>Node12&#45;&gt;Node7</title>
<g id="a_edge16_Node000012_Node000007"><a xlink:title=" ">
<path fill="none" stroke="#63b8ff" d="M116.03,-109.84C111.21,-101.78 105.13,-91.62 100,-83.06"/>
<polygon fill="#63b8ff" stroke="#63b8ff" points="102.88,-81.05 94.74,-74.27 96.88,-84.64 102.88,-81.05"/>
</a>
</g>
</g>
<!-- Node13&#45;&gt;Node2 -->
<g id="edge18_Node000013_Node000002" class="edge">
<title>Node13&#45;&gt;Node2</title>
<g id="a_edge18_Node000013_Node000002"><a xlink:title=" ">
<path fill="none" stroke="#63b8ff" d="M309.65,-115.47C309.97,-97.23 310.73,-54.07 311.17,-29.14"/>
<polygon fill="#63b8ff" stroke="#63b8ff" points="314.67,-29.19 311.35,-19.13 307.67,-29.07 314.67,-29.19"/>
</a>
</g>
</g>
<!-- Node13&#45;&gt;Node3 -->
<g id="edge19_Node000013_Node000003" class="edge">
<title>Node13&#45;&gt;Node3</title>
<g id="a_edge19_Node000013_Node000003"><a xlink:title=" ">
<path fill="none" stroke="#63b8ff" d="M295.78,-115.37C280.8,-105.95 256.61,-90.73 238.88,-79.58"/>
<polygon fill="#63b8ff" stroke="#63b8ff" points="240.61,-76.53 230.28,-74.17 236.88,-82.45 240.61,-76.53"/>
</a>
</g>
</g>
<!-- Node13&#45;&gt;Node4 -->
<g id="edge21_Node000013_Node000004" class="edge">
<title>Node13&#45;&gt;Node4</title>
<g id="a_edge21_Node000013_Node000004"><a xlink:title=" ">
<path fill="none" stroke="#63b8ff" d="M333.78,-115.49C362.48,-105.44 410.39,-88.66 442.7,-77.34"/>
<polygon fill="#63b8ff" stroke="#63b8ff" points="443.91,-80.63 452.19,-74.02 441.59,-74.02 443.91,-80.63"/>
</a>
</g>
</g>
<!-- Node13&#45;&gt;Node10 -->
<g id="edge20_Node000013_Node000010" class="edge">
<title>Node13&#45;&gt;Node10</title>
<g id="a_edge20_Node000013_Node000010"><a xlink:title=" ">
<path fill="none" stroke="#63b8ff" d="M304.54,-115.47C293.74,-96.9 267.93,-52.51 253.57,-27.82"/>
<polygon fill="#63b8ff" stroke="#63b8ff" points="256.57,-26.02 248.52,-19.13 250.52,-29.53 256.57,-26.02"/>
</a>
</g>
</g>
</g>
</svg>
