<?xml version="1.0" encoding="UTF-8" standalone="no"?>
<!DOCTYPE svg PUBLIC "-//W3C//DTD SVG 1.1//EN"
 "http://www.w3.org/Graphics/SVG/1.1/DTD/svg11.dtd">
<!-- Generated by graphviz version 2.43.0 (0)
 -->
<!-- Title: base_formatter.h Pages: 1 -->
<svg width="513pt" height="203pt"
 viewBox="0.00 0.00 513.00 203.00" xmlns="http://www.w3.org/2000/svg" xmlns:xlink="http://www.w3.org/1999/xlink">
<g id="graph0" class="graph" transform="scale(1 1) rotate(0) translate(4 199)">
<title>base_formatter.h</title>
<!-- Node1 -->
<g id="Node000001" class="node">
<title>Node1</title>
<g id="a_Node000001"><a xlink:title=" ">
<polygon fill="#999999" stroke="#666666" points="387,-195 287,-195 287,-176 387,-176 387,-195"/>
<text text-anchor="middle" x="337" y="-183" font-family="Helvetica,sans-Serif" font-size="10.00">base_formatter.h</text>
</a>
</g>
</g>
<!-- Node2 -->
<g id="Node000002" class="node">
<title>Node2</title>
<g id="a_Node000002"><a xlink:href="log__formatter__interface_8h.html" target="_top" xlink:title=" ">
<polygon fill="white" stroke="#666666" points="144,-85 0,-85 0,-55 144,-55 144,-85"/>
<text text-anchor="start" x="8" y="-73" font-family="Helvetica,sans-Serif" font-size="10.00">../interfaces/log_formatter</text>
<text text-anchor="middle" x="72" y="-62" font-family="Helvetica,sans-Serif" font-size="10.00">_interface.h</text>
</a>
</g>
</g>
<!-- Node1&#45;&gt;Node2 -->
<g id="edge1_Node000001_Node000002" class="edge">
<title>Node1&#45;&gt;Node2</title>
<g id="a_edge1_Node000001_Node000002"><a xlink:title=" ">
<path fill="none" stroke="#63b8ff" d="M286.64,-179.29C247.61,-173.69 193.09,-162.38 150,-140 127.18,-128.15 105.64,-108.17 91.01,-92.76"/>
<polygon fill="#63b8ff" stroke="#63b8ff" points="93.37,-90.15 84.01,-85.18 88.22,-94.9 93.37,-90.15"/>
</a>
</g>
</g>
<!-- Node4 -->
<g id="Node000004" class="node">
<title>Node4</title>
<g id="a_Node000004"><a xlink:href="log__entry_8h.html" target="_top" xlink:title=" ">
<polygon fill="white" stroke="#666666" points="290.5,-140 159.5,-140 159.5,-121 290.5,-121 290.5,-140"/>
<text text-anchor="middle" x="225" y="-128" font-family="Helvetica,sans-Serif" font-size="10.00">../interfaces/log_entry.h</text>
</a>
</g>
</g>
<!-- Node1&#45;&gt;Node4 -->
<g id="edge3_Node000001_Node000004" class="edge">
<title>Node1&#45;&gt;Node4</title>
<g id="a_edge3_Node000001_Node000004"><a xlink:title=" ">
<path fill="none" stroke="#63b8ff" d="M319.01,-175.98C301.07,-167.5 273.28,-154.35 252.57,-144.54"/>
<polygon fill="#63b8ff" stroke="#63b8ff" points="253.86,-141.28 243.32,-140.17 250.86,-147.61 253.86,-141.28"/>
</a>
</g>
</g>
<!-- Node10 -->
<g id="Node000010" class="node">
<title>Node10</title>
<g id="a_Node000010"><a xlink:title=" ">
<polygon fill="#e0e0e0" stroke="#999999" points="365,-140 309,-140 309,-121 365,-121 365,-140"/>
<text text-anchor="middle" x="337" y="-128" font-family="Helvetica,sans-Serif" font-size="10.00">sstream</text>
</a>
</g>
</g>
<!-- Node1&#45;&gt;Node10 -->
<g id="edge11_Node000001_Node000010" class="edge">
<title>Node1&#45;&gt;Node10</title>
<g id="a_edge11_Node000001_Node000010"><a xlink:title=" ">
<path fill="none" stroke="#63b8ff" d="M337,-175.75C337,-168.8 337,-158.85 337,-150.13"/>
<polygon fill="#63b8ff" stroke="#63b8ff" points="340.5,-150.09 337,-140.09 333.5,-150.09 340.5,-150.09"/>
</a>
</g>
</g>
<!-- Node11 -->
<g id="Node000011" class="node">
<title>Node11</title>
<g id="a_Node000011"><a xlink:title=" ">
<polygon fill="#e0e0e0" stroke="#999999" points="439,-140 383,-140 383,-121 439,-121 439,-140"/>
<text text-anchor="middle" x="411" y="-128" font-family="Helvetica,sans-Serif" font-size="10.00">iomanip</text>
</a>
</g>
</g>
<!-- Node1&#45;&gt;Node11 -->
<g id="edge12_Node000001_Node000011" class="edge">
<title>Node1&#45;&gt;Node11</title>
<g id="a_edge12_Node000001_Node000011"><a xlink:title=" ">
<path fill="none" stroke="#63b8ff" d="M348.89,-175.98C360.15,-167.92 377.29,-155.65 390.71,-146.03"/>
<polygon fill="#63b8ff" stroke="#63b8ff" points="392.8,-148.84 398.89,-140.17 388.73,-143.15 392.8,-148.84"/>
</a>
</g>
</g>
<!-- Node12 -->
<g id="Node000012" class="node">
<title>Node12</title>
<g id="a_Node000012"><a xlink:title=" ">
<polygon fill="#e0e0e0" stroke="#999999" points="505,-140 457,-140 457,-121 505,-121 505,-140"/>
<text text-anchor="middle" x="481" y="-128" font-family="Helvetica,sans-Serif" font-size="10.00">thread</text>
</a>
</g>
</g>
<!-- Node1&#45;&gt;Node12 -->
<g id="edge13_Node000001_Node000012" class="edge">
<title>Node1&#45;&gt;Node12</title>
<g id="a_edge13_Node000001_Node000012"><a xlink:title=" ">
<path fill="none" stroke="#63b8ff" d="M360.14,-175.98C383.82,-167.27 420.87,-153.63 447.71,-143.75"/>
<polygon fill="#63b8ff" stroke="#63b8ff" points="449.27,-146.91 457.44,-140.17 446.85,-140.34 449.27,-146.91"/>
</a>
</g>
</g>
<!-- Node3 -->
<g id="Node000003" class="node">
<title>Node3</title>
<g id="a_Node000003"><a xlink:title=" ">
<polygon fill="#e0e0e0" stroke="#999999" points="194,-19 150,-19 150,0 194,0 194,-19"/>
<text text-anchor="middle" x="172" y="-7" font-family="Helvetica,sans-Serif" font-size="10.00">string</text>
</a>
</g>
</g>
<!-- Node2&#45;&gt;Node3 -->
<g id="edge2_Node000002_Node000003" class="edge">
<title>Node2&#45;&gt;Node3</title>
<g id="a_edge2_Node000002_Node000003"><a xlink:title=" ">
<path fill="none" stroke="#63b8ff" d="M95.95,-54.99C111.89,-45.66 132.73,-33.47 148.56,-24.21"/>
<polygon fill="#63b8ff" stroke="#63b8ff" points="150.37,-27.21 157.23,-19.14 146.83,-21.17 150.37,-27.21"/>
</a>
</g>
</g>
<!-- Node4&#45;&gt;Node3 -->
<g id="edge4_Node000004_Node000003" class="edge">
<title>Node4&#45;&gt;Node3</title>
<g id="a_edge4_Node000004_Node000003"><a xlink:title=" ">
<path fill="none" stroke="#63b8ff" d="M216.52,-120.68C208.79,-112.19 197.61,-98.65 191,-85 182.29,-67.02 177.27,-44.6 174.6,-29.07"/>
<polygon fill="#63b8ff" stroke="#63b8ff" points="178.06,-28.49 173.06,-19.15 171.14,-29.57 178.06,-28.49"/>
</a>
</g>
</g>
<!-- Node5 -->
<g id="Node000005" class="node">
<title>Node5</title>
<g id="a_Node000005"><a xlink:title=" ">
<polygon fill="#e0e0e0" stroke="#999999" points="250,-79.5 200,-79.5 200,-60.5 250,-60.5 250,-79.5"/>
<text text-anchor="middle" x="225" y="-67.5" font-family="Helvetica,sans-Serif" font-size="10.00">chrono</text>
</a>
</g>
</g>
<!-- Node4&#45;&gt;Node5 -->
<g id="edge5_Node000004_Node000005" class="edge">
<title>Node4&#45;&gt;Node5</title>
<g id="a_edge5_Node000004_Node000005"><a xlink:title=" ">
<path fill="none" stroke="#63b8ff" d="M225,-120.87C225,-112.75 225,-100.31 225,-89.89"/>
<polygon fill="#63b8ff" stroke="#63b8ff" points="228.5,-89.67 225,-79.67 221.5,-89.67 228.5,-89.67"/>
</a>
</g>
</g>
<!-- Node6 -->
<g id="Node000006" class="node">
<title>Node6</title>
<g id="a_Node000006"><a xlink:title=" ">
<polygon fill="#e0e0e0" stroke="#999999" points="324,-79.5 268,-79.5 268,-60.5 324,-60.5 324,-79.5"/>
<text text-anchor="middle" x="296" y="-67.5" font-family="Helvetica,sans-Serif" font-size="10.00">optional</text>
</a>
</g>
</g>
<!-- Node4&#45;&gt;Node6 -->
<g id="edge6_Node000004_Node000006" class="edge">
<title>Node4&#45;&gt;Node6</title>
<g id="a_edge6_Node000004_Node000006"><a xlink:title=" ">
<path fill="none" stroke="#63b8ff" d="M235.48,-120.87C246.49,-111.8 264.04,-97.34 277.41,-86.32"/>
<polygon fill="#63b8ff" stroke="#63b8ff" points="279.99,-88.73 285.48,-79.67 275.54,-83.33 279.99,-88.73"/>
</a>
</g>
</g>
<!-- Node7 -->
<g id="Node000007" class="node">
<title>Node7</title>
<g id="a_Node000007"><a xlink:href="logger__interface_8h.html" target="_top" xlink:title=" ">
<polygon fill="white" stroke="#666666" points="456,-79.5 342,-79.5 342,-60.5 456,-60.5 456,-79.5"/>
<text text-anchor="middle" x="399" y="-67.5" font-family="Helvetica,sans-Serif" font-size="10.00">../logger_interface.h</text>
</a>
</g>
</g>
<!-- Node4&#45;&gt;Node7 -->
<g id="edge7_Node000004_Node000007" class="edge">
<title>Node4&#45;&gt;Node7</title>
<g id="a_edge7_Node000004_Node000007"><a xlink:title=" ">
<path fill="none" stroke="#63b8ff" d="M250.3,-120.99C280.2,-110.94 330.12,-94.16 363.78,-82.84"/>
<polygon fill="#63b8ff" stroke="#63b8ff" points="365.31,-86.02 373.67,-79.52 363.07,-79.39 365.31,-86.02"/>
</a>
</g>
</g>
<!-- Node7&#45;&gt;Node3 -->
<g id="edge10_Node000007_Node000003" class="edge">
<title>Node7&#45;&gt;Node3</title>
<g id="a_edge10_Node000007_Node000003"><a xlink:title=" ">
<path fill="none" stroke="#63b8ff" d="M365.99,-60.49C322.6,-49.31 246.86,-29.79 203.98,-18.74"/>
<polygon fill="#63b8ff" stroke="#63b8ff" points="204.64,-15.3 194.08,-16.19 202.89,-22.08 204.64,-15.3"/>
</a>
</g>
</g>
<!-- Node8 -->
<g id="Node000008" class="node">
<title>Node8</title>
<g id="a_Node000008"><a xlink:title=" ">
<polygon fill="#e0e0e0" stroke="#999999" points="392,-19 334,-19 334,0 392,0 392,-19"/>
<text text-anchor="middle" x="363" y="-7" font-family="Helvetica,sans-Serif" font-size="10.00">memory</text>
</a>
</g>
</g>
<!-- Node7&#45;&gt;Node8 -->
<g id="edge8_Node000007_Node000008" class="edge">
<title>Node7&#45;&gt;Node8</title>
<g id="a_edge8_Node000007_Node000008"><a xlink:title=" ">
<path fill="none" stroke="#63b8ff" d="M393.69,-60.37C388.42,-51.81 380.21,-38.47 373.61,-27.74"/>
<polygon fill="#63b8ff" stroke="#63b8ff" points="376.56,-25.85 368.33,-19.17 370.59,-29.52 376.56,-25.85"/>
</a>
</g>
</g>
<!-- Node9 -->
<g id="Node000009" class="node">
<title>Node9</title>
<g id="a_Node000009"><a xlink:title=" ">
<polygon fill="#e0e0e0" stroke="#999999" points="458,-19 410,-19 410,0 458,0 458,-19"/>
<text text-anchor="middle" x="434" y="-7" font-family="Helvetica,sans-Serif" font-size="10.00">mutex</text>
</a>
</g>
</g>
<!-- Node7&#45;&gt;Node9 -->
<g id="edge9_Node000007_Node000009" class="edge">
<title>Node7&#45;&gt;Node9</title>
<g id="a_edge9_Node000007_Node000009"><a xlink:title=" ">
<path fill="none" stroke="#63b8ff" d="M404.16,-60.37C409.23,-51.9 417.1,-38.74 423.49,-28.07"/>
<polygon fill="#63b8ff" stroke="#63b8ff" points="426.68,-29.55 428.81,-19.17 420.68,-25.95 426.68,-29.55"/>
</a>
</g>
</g>
</g>
</svg>
