<?xml version="1.0" encoding="UTF-8" standalone="no"?>
<!DOCTYPE svg PUBLIC "-//W3C//DTD SVG 1.1//EN"
 "http://www.w3.org/Graphics/SVG/1.1/DTD/svg11.dtd">
<!-- Generated by graphviz version 2.43.0 (0)
 -->
<!-- Title: base_formatter.h Pages: 1 -->
<svg width="782pt" height="203pt"
 viewBox="0.00 0.00 782.00 203.00" xmlns="http://www.w3.org/2000/svg" xmlns:xlink="http://www.w3.org/1999/xlink">
<g id="graph0" class="graph" transform="scale(1 1) rotate(0) translate(4 199)">
<title>base_formatter.h</title>
<!-- Node1 -->
<g id="Node000001" class="node">
<title>Node1</title>
<g id="a_Node000001"><a xlink:title=" ">
<polygon fill="#999999" stroke="#666666" points="656,-195 556,-195 556,-176 656,-176 656,-195"/>
<text text-anchor="middle" x="606" y="-183" font-family="Helvetica,sans-Serif" font-size="10.00">base_formatter.h</text>
</a>
</g>
</g>
<!-- Node2 -->
<g id="Node000002" class="node">
<title>Node2</title>
<g id="a_Node000002"><a xlink:href="log__formatter__interface_8h.html" target="_top" xlink:title=" ">
<polygon fill="white" stroke="#666666" points="694,-85 550,-85 550,-55 694,-55 694,-85"/>
<text text-anchor="start" x="558" y="-73" font-family="Helvetica,sans-Serif" font-size="10.00">../interfaces/log_formatter</text>
<text text-anchor="middle" x="622" y="-62" font-family="Helvetica,sans-Serif" font-size="10.00">_interface.h</text>
</a>
</g>
</g>
<!-- Node1&#45;&gt;Node2 -->
<g id="edge1_Node000001_Node000002" class="edge">
<title>Node1&#45;&gt;Node2</title>
<g id="a_edge1_Node000001_Node000002"><a xlink:title=" ">
<path fill="none" stroke="#63b8ff" d="M594.81,-175.81C580.93,-163.9 560.11,-141.62 569,-121 573.92,-109.59 582.87,-99.58 592.03,-91.56"/>
<polygon fill="#63b8ff" stroke="#63b8ff" points="594.48,-94.08 600.04,-85.06 590.07,-88.65 594.48,-94.08"/>
</a>
</g>
</g>
<!-- Node4 -->
<g id="Node000004" class="node">
<title>Node4</title>
<g id="a_Node000004"><a xlink:href="log__entry_8h.html" target="_top" xlink:title=" ">
<polygon fill="white" stroke="#666666" points="450.5,-140 319.5,-140 319.5,-121 450.5,-121 450.5,-140"/>
<text text-anchor="middle" x="385" y="-128" font-family="Helvetica,sans-Serif" font-size="10.00">../interfaces/log_entry.h</text>
</a>
</g>
</g>
<!-- Node1&#45;&gt;Node4 -->
<g id="edge3_Node000001_Node000004" class="edge">
<title>Node1&#45;&gt;Node4</title>
<g id="a_edge3_Node000001_Node000004"><a xlink:title=" ">
<path fill="none" stroke="#63b8ff" d="M570.49,-175.98C532.51,-166.87 472.13,-152.4 430.64,-142.45"/>
<polygon fill="#63b8ff" stroke="#63b8ff" points="431.33,-139.01 420.79,-140.08 429.69,-145.82 431.33,-139.01"/>
</a>
</g>
</g>
<!-- Node15 -->
<g id="Node000015" class="node">
<title>Node15</title>
<g id="a_Node000015"><a xlink:title=" ">
<polygon fill="#e0e0e0" stroke="#999999" points="634,-140 578,-140 578,-121 634,-121 634,-140"/>
<text text-anchor="middle" x="606" y="-128" font-family="Helvetica,sans-Serif" font-size="10.00">sstream</text>
</a>
</g>
</g>
<!-- Node1&#45;&gt;Node15 -->
<g id="edge18_Node000001_Node000015" class="edge">
<title>Node1&#45;&gt;Node15</title>
<g id="a_edge18_Node000001_Node000015"><a xlink:title=" ">
<path fill="none" stroke="#63b8ff" d="M606,-175.75C606,-168.8 606,-158.85 606,-150.13"/>
<polygon fill="#63b8ff" stroke="#63b8ff" points="609.5,-150.09 606,-140.09 602.5,-150.09 609.5,-150.09"/>
</a>
</g>
</g>
<!-- Node16 -->
<g id="Node000016" class="node">
<title>Node16</title>
<g id="a_Node000016"><a xlink:title=" ">
<polygon fill="#e0e0e0" stroke="#999999" points="708,-140 652,-140 652,-121 708,-121 708,-140"/>
<text text-anchor="middle" x="680" y="-128" font-family="Helvetica,sans-Serif" font-size="10.00">iomanip</text>
</a>
</g>
</g>
<!-- Node1&#45;&gt;Node16 -->
<g id="edge19_Node000001_Node000016" class="edge">
<title>Node1&#45;&gt;Node16</title>
<g id="a_edge19_Node000001_Node000016"><a xlink:title=" ">
<path fill="none" stroke="#63b8ff" d="M617.89,-175.98C629.15,-167.92 646.29,-155.65 659.71,-146.03"/>
<polygon fill="#63b8ff" stroke="#63b8ff" points="661.8,-148.84 667.89,-140.17 657.73,-143.15 661.8,-148.84"/>
</a>
</g>
</g>
<!-- Node17 -->
<g id="Node000017" class="node">
<title>Node17</title>
<g id="a_Node000017"><a xlink:title=" ">
<polygon fill="#e0e0e0" stroke="#999999" points="774,-140 726,-140 726,-121 774,-121 774,-140"/>
<text text-anchor="middle" x="750" y="-128" font-family="Helvetica,sans-Serif" font-size="10.00">thread</text>
</a>
</g>
</g>
<!-- Node1&#45;&gt;Node17 -->
<g id="edge20_Node000001_Node000017" class="edge">
<title>Node1&#45;&gt;Node17</title>
<g id="a_edge20_Node000001_Node000017"><a xlink:title=" ">
<path fill="none" stroke="#63b8ff" d="M629.14,-175.98C652.82,-167.27 689.87,-153.63 716.71,-143.75"/>
<polygon fill="#63b8ff" stroke="#63b8ff" points="718.27,-146.91 726.44,-140.17 715.85,-140.34 718.27,-146.91"/>
</a>
</g>
</g>
<!-- Node3 -->
<g id="Node000003" class="node">
<title>Node3</title>
<g id="a_Node000003"><a xlink:title=" ">
<polygon fill="#e0e0e0" stroke="#999999" points="534,-19 490,-19 490,0 534,0 534,-19"/>
<text text-anchor="middle" x="512" y="-7" font-family="Helvetica,sans-Serif" font-size="10.00">string</text>
</a>
</g>
</g>
<!-- Node2&#45;&gt;Node3 -->
<g id="edge2_Node000002_Node000003" class="edge">
<title>Node2&#45;&gt;Node3</title>
<g id="a_edge2_Node000002_Node000003"><a xlink:title=" ">
<path fill="none" stroke="#63b8ff" d="M595.65,-54.99C577.95,-45.58 554.77,-33.24 537.29,-23.95"/>
<polygon fill="#63b8ff" stroke="#63b8ff" points="538.72,-20.74 528.24,-19.14 535.43,-26.92 538.72,-20.74"/>
</a>
</g>
</g>
<!-- Node4&#45;&gt;Node3 -->
<g id="edge4_Node000004_Node000003" class="edge">
<title>Node4&#45;&gt;Node3</title>
<g id="a_edge4_Node000004_Node000003"><a xlink:title=" ">
<path fill="none" stroke="#63b8ff" d="M442.16,-120.99C464.48,-114.73 488.2,-103.86 503,-85 515.28,-69.34 516.11,-45.85 514.78,-29.44"/>
<polygon fill="#63b8ff" stroke="#63b8ff" points="518.25,-28.93 513.63,-19.4 511.29,-29.73 518.25,-28.93"/>
</a>
</g>
</g>
<!-- Node5 -->
<g id="Node000005" class="node">
<title>Node5</title>
<g id="a_Node000005"><a xlink:title=" ">
<polygon fill="#e0e0e0" stroke="#999999" points="288,-79.5 238,-79.5 238,-60.5 288,-60.5 288,-79.5"/>
<text text-anchor="middle" x="263" y="-67.5" font-family="Helvetica,sans-Serif" font-size="10.00">chrono</text>
</a>
</g>
</g>
<!-- Node4&#45;&gt;Node5 -->
<g id="edge5_Node000004_Node000005" class="edge">
<title>Node4&#45;&gt;Node5</title>
<g id="a_edge5_Node000004_Node000005"><a xlink:title=" ">
<path fill="none" stroke="#63b8ff" d="M367.26,-120.99C346.93,-111.25 313.39,-95.16 289.86,-83.88"/>
<polygon fill="#63b8ff" stroke="#63b8ff" points="291.29,-80.68 280.76,-79.52 288.26,-87 291.29,-80.68"/>
</a>
</g>
</g>
<!-- Node6 -->
<g id="Node000006" class="node">
<title>Node6</title>
<g id="a_Node000006"><a xlink:title=" ">
<polygon fill="#e0e0e0" stroke="#999999" points="362,-79.5 306,-79.5 306,-60.5 362,-60.5 362,-79.5"/>
<text text-anchor="middle" x="334" y="-67.5" font-family="Helvetica,sans-Serif" font-size="10.00">optional</text>
</a>
</g>
</g>
<!-- Node4&#45;&gt;Node6 -->
<g id="edge6_Node000004_Node000006" class="edge">
<title>Node4&#45;&gt;Node6</title>
<g id="a_edge6_Node000004_Node000006"><a xlink:title=" ">
<path fill="none" stroke="#63b8ff" d="M377.47,-120.87C369.79,-112.05 357.68,-98.16 348.19,-87.27"/>
<polygon fill="#63b8ff" stroke="#63b8ff" points="350.77,-84.91 341.56,-79.67 345.49,-89.51 350.77,-84.91"/>
</a>
</g>
</g>
<!-- Node7 -->
<g id="Node000007" class="node">
<title>Node7</title>
<g id="a_Node000007"><a xlink:href="small__string_8h.html" target="_top" xlink:title=" ">
<polygon fill="white" stroke="#666666" points="219.5,-79.5 100.5,-79.5 100.5,-60.5 219.5,-60.5 219.5,-79.5"/>
<text text-anchor="middle" x="160" y="-67.5" font-family="Helvetica,sans-Serif" font-size="10.00">../core/small_string.h</text>
</a>
</g>
</g>
<!-- Node4&#45;&gt;Node7 -->
<g id="edge7_Node000004_Node000007" class="edge">
<title>Node4&#45;&gt;Node7</title>
<g id="a_edge7_Node000004_Node000007"><a xlink:title=" ">
<path fill="none" stroke="#63b8ff" d="M352.28,-120.99C312.71,-110.7 245.99,-93.36 202.48,-82.04"/>
<polygon fill="#63b8ff" stroke="#63b8ff" points="203.32,-78.65 192.76,-79.52 201.55,-85.42 203.32,-78.65"/>
</a>
</g>
</g>
<!-- Node13 -->
<g id="Node000013" class="node">
<title>Node13</title>
<g id="a_Node000013"><a xlink:href="logger__interface_8h.html" target="_top" xlink:title=" ">
<polygon fill="white" stroke="#666666" points="494,-79.5 380,-79.5 380,-60.5 494,-60.5 494,-79.5"/>
<text text-anchor="middle" x="437" y="-67.5" font-family="Helvetica,sans-Serif" font-size="10.00">../logger_interface.h</text>
</a>
</g>
</g>
<!-- Node4&#45;&gt;Node13 -->
<g id="edge14_Node000004_Node000013" class="edge">
<title>Node4&#45;&gt;Node13</title>
<g id="a_edge14_Node000004_Node000013"><a xlink:title=" ">
<path fill="none" stroke="#63b8ff" d="M392.67,-120.87C400.51,-112.05 412.86,-98.16 422.54,-87.27"/>
<polygon fill="#63b8ff" stroke="#63b8ff" points="425.27,-89.47 429.3,-79.67 420.04,-84.82 425.27,-89.47"/>
</a>
</g>
</g>
<!-- Node7&#45;&gt;Node3 -->
<g id="edge9_Node000007_Node000003" class="edge">
<title>Node7&#45;&gt;Node3</title>
<g id="a_edge9_Node000007_Node000003"><a xlink:title=" ">
<path fill="none" stroke="#63b8ff" d="M200.43,-60.43C209.79,-58.55 219.73,-56.63 229,-55 335.66,-36.23 363.34,-37.75 470,-19 473.22,-18.43 476.58,-17.81 479.93,-17.17"/>
<polygon fill="#63b8ff" stroke="#63b8ff" points="480.68,-20.59 489.81,-15.21 479.32,-13.72 480.68,-20.59"/>
</a>
</g>
</g>
<!-- Node8 -->
<g id="Node000008" class="node">
<title>Node8</title>
<g id="a_Node000008"><a xlink:title=" ">
<polygon fill="#e0e0e0" stroke="#999999" points="196,-19 146,-19 146,0 196,0 196,-19"/>
<text text-anchor="middle" x="171" y="-7" font-family="Helvetica,sans-Serif" font-size="10.00">cstring</text>
</a>
</g>
</g>
<!-- Node7&#45;&gt;Node8 -->
<g id="edge8_Node000007_Node000008" class="edge">
<title>Node7&#45;&gt;Node8</title>
<g id="a_edge8_Node000007_Node000008"><a xlink:title=" ">
<path fill="none" stroke="#63b8ff" d="M161.62,-60.37C163.17,-52.16 165.54,-39.54 167.51,-29.05"/>
<polygon fill="#63b8ff" stroke="#63b8ff" points="170.96,-29.64 169.37,-19.17 164.08,-28.35 170.96,-29.64"/>
</a>
</g>
</g>
<!-- Node9 -->
<g id="Node000009" class="node">
<title>Node9</title>
<g id="a_Node000009"><a xlink:title=" ">
<polygon fill="#e0e0e0" stroke="#999999" points="287.5,-19 214.5,-19 214.5,0 287.5,0 287.5,-19"/>
<text text-anchor="middle" x="251" y="-7" font-family="Helvetica,sans-Serif" font-size="10.00">string_view</text>
</a>
</g>
</g>
<!-- Node7&#45;&gt;Node9 -->
<g id="edge10_Node000007_Node000009" class="edge">
<title>Node7&#45;&gt;Node9</title>
<g id="a_edge10_Node000007_Node000009"><a xlink:title=" ">
<path fill="none" stroke="#63b8ff" d="M173.43,-60.37C188.08,-50.95 211.76,-35.73 229.1,-24.58"/>
<polygon fill="#63b8ff" stroke="#63b8ff" points="231,-27.52 237.52,-19.17 227.21,-21.63 231,-27.52"/>
</a>
</g>
</g>
<!-- Node10 -->
<g id="Node000010" class="node">
<title>Node10</title>
<g id="a_Node000010"><a xlink:title=" ">
<polygon fill="#e0e0e0" stroke="#999999" points="64,-19 0,-19 0,0 64,0 64,-19"/>
<text text-anchor="middle" x="32" y="-7" font-family="Helvetica,sans-Serif" font-size="10.00">algorithm</text>
</a>
</g>
</g>
<!-- Node7&#45;&gt;Node10 -->
<g id="edge11_Node000007_Node000010" class="edge">
<title>Node7&#45;&gt;Node10</title>
<g id="a_edge11_Node000007_Node000010"><a xlink:title=" ">
<path fill="none" stroke="#63b8ff" d="M141.39,-60.49C119.96,-50.7 84.56,-34.52 59.85,-23.23"/>
<polygon fill="#63b8ff" stroke="#63b8ff" points="61.18,-19.99 50.63,-19.02 58.28,-26.36 61.18,-19.99"/>
</a>
</g>
</g>
<!-- Node11 -->
<g id="Node000011" class="node">
<title>Node11</title>
<g id="a_Node000011"><a xlink:title=" ">
<polygon fill="#e0e0e0" stroke="#999999" points="385,-19 327,-19 327,0 385,0 385,-19"/>
<text text-anchor="middle" x="356" y="-7" font-family="Helvetica,sans-Serif" font-size="10.00">memory</text>
</a>
</g>
</g>
<!-- Node7&#45;&gt;Node11 -->
<g id="edge12_Node000007_Node000011" class="edge">
<title>Node7&#45;&gt;Node11</title>
<g id="a_edge12_Node000007_Node000011"><a xlink:title=" ">
<path fill="none" stroke="#63b8ff" d="M188.5,-60.49C222.61,-50.31 279.87,-33.22 317.79,-21.9"/>
<polygon fill="#63b8ff" stroke="#63b8ff" points="318.88,-25.23 327.47,-19.02 316.88,-18.52 318.88,-25.23"/>
</a>
</g>
</g>
<!-- Node12 -->
<g id="Node000012" class="node">
<title>Node12</title>
<g id="a_Node000012"><a xlink:title=" ">
<polygon fill="#e0e0e0" stroke="#999999" points="127.5,-19 82.5,-19 82.5,0 127.5,0 127.5,-19"/>
<text text-anchor="middle" x="105" y="-7" font-family="Helvetica,sans-Serif" font-size="10.00">utility</text>
</a>
</g>
</g>
<!-- Node7&#45;&gt;Node12 -->
<g id="edge13_Node000007_Node000012" class="edge">
<title>Node7&#45;&gt;Node12</title>
<g id="a_edge13_Node000007_Node000012"><a xlink:title=" ">
<path fill="none" stroke="#63b8ff" d="M151.88,-60.37C143.6,-51.55 130.53,-37.66 120.3,-26.77"/>
<polygon fill="#63b8ff" stroke="#63b8ff" points="122.55,-24.06 113.15,-19.17 117.45,-28.85 122.55,-24.06"/>
</a>
</g>
</g>
<!-- Node13&#45;&gt;Node3 -->
<g id="edge17_Node000013_Node000003" class="edge">
<title>Node13&#45;&gt;Node3</title>
<g id="a_edge17_Node000013_Node000003"><a xlink:title=" ">
<path fill="none" stroke="#63b8ff" d="M448.07,-60.37C459.81,-51.21 478.59,-36.56 492.76,-25.51"/>
<polygon fill="#63b8ff" stroke="#63b8ff" points="495.16,-28.08 500.89,-19.17 490.85,-22.56 495.16,-28.08"/>
</a>
</g>
</g>
<!-- Node13&#45;&gt;Node11 -->
<g id="edge15_Node000013_Node000011" class="edge">
<title>Node13&#45;&gt;Node11</title>
<g id="a_edge15_Node000013_Node000011"><a xlink:title=" ">
<path fill="none" stroke="#63b8ff" d="M425.05,-60.37C412.25,-51.12 391.7,-36.28 376.35,-25.19"/>
<polygon fill="#63b8ff" stroke="#63b8ff" points="378.16,-22.18 368,-19.17 374.06,-27.86 378.16,-22.18"/>
</a>
</g>
</g>
<!-- Node14 -->
<g id="Node000014" class="node">
<title>Node14</title>
<g id="a_Node000014"><a xlink:title=" ">
<polygon fill="#e0e0e0" stroke="#999999" points="461,-19 413,-19 413,0 461,0 461,-19"/>
<text text-anchor="middle" x="437" y="-7" font-family="Helvetica,sans-Serif" font-size="10.00">mutex</text>
</a>
</g>
</g>
<!-- Node13&#45;&gt;Node14 -->
<g id="edge16_Node000013_Node000014" class="edge">
<title>Node13&#45;&gt;Node14</title>
<g id="a_edge16_Node000013_Node000014"><a xlink:title=" ">
<path fill="none" stroke="#63b8ff" d="M437,-60.37C437,-52.25 437,-39.81 437,-29.39"/>
<polygon fill="#63b8ff" stroke="#63b8ff" points="440.5,-29.17 437,-19.17 433.5,-29.17 440.5,-29.17"/>
</a>
</g>
</g>
</g>
</svg>
