<?xml version="1.0" encoding="UTF-8" standalone="no"?>
<!DOCTYPE svg PUBLIC "-//W3C//DTD SVG 1.1//EN"
 "http://www.w3.org/Graphics/SVG/1.1/DTD/svg11.dtd">
<!-- Generated by graphviz version 2.43.0 (0)
 -->
<!-- Title: /home/runner/work/logger_system/logger_system/sources/logger/formatters/base_formatter.h Pages: 1 -->
<svg width="645pt" height="225pt"
 viewBox="0.00 0.00 644.50 225.00" xmlns="http://www.w3.org/2000/svg" xmlns:xlink="http://www.w3.org/1999/xlink">
<g id="graph0" class="graph" transform="scale(1 1) rotate(0) translate(4 221)">
<title>/home/runner/work/logger_system/logger_system/sources/logger/formatters/base_formatter.h</title>
<!-- Node1 -->
<g id="Node000001" class="node">
<title>Node1</title>
<g id="a_Node000001"><a xlink:title=" ">
<polygon fill="#999999" stroke="#666666" points="467.5,-217 276.5,-217 276.5,-176 467.5,-176 467.5,-217"/>
<text text-anchor="start" x="284.5" y="-205" font-family="Helvetica,sans-Serif" font-size="10.00">/home/runner/work/logger</text>
<text text-anchor="start" x="284.5" y="-194" font-family="Helvetica,sans-Serif" font-size="10.00">_system/logger_system/sources</text>
<text text-anchor="middle" x="372" y="-183" font-family="Helvetica,sans-Serif" font-size="10.00">/logger/formatters/base_formatter.h</text>
</a>
</g>
</g>
<!-- Node2 -->
<g id="Node000002" class="node">
<title>Node2</title>
<g id="a_Node000002"><a xlink:href="log__formatter__interface_8h.html" target="_top" xlink:title=" ">
<polygon fill="white" stroke="#666666" points="144,-85 0,-85 0,-55 144,-55 144,-85"/>
<text text-anchor="start" x="8" y="-73" font-family="Helvetica,sans-Serif" font-size="10.00">../interfaces/log_formatter</text>
<text text-anchor="middle" x="72" y="-62" font-family="Helvetica,sans-Serif" font-size="10.00">_interface.h</text>
</a>
</g>
</g>
<!-- Node1&#45;&gt;Node2 -->
<g id="edge1_Node000001_Node000002" class="edge">
<title>Node1&#45;&gt;Node2</title>
<g id="a_edge1_Node000001_Node000002"><a xlink:title=" ">
<path fill="none" stroke="#63b8ff" d="M289.35,-175.94C256.21,-166.83 218.11,-154.72 185,-140 154.4,-126.4 122.04,-105.94 99.83,-90.82"/>
<polygon fill="#63b8ff" stroke="#63b8ff" points="101.77,-87.91 91.55,-85.12 97.8,-93.67 101.77,-87.91"/>
</a>
</g>
</g>
<!-- Node4 -->
<g id="Node000004" class="node">
<title>Node4</title>
<g id="a_Node000004"><a xlink:href="log__entry_8h.html" target="_top" xlink:title="Data structures for representing log entries and source locations.">
<polygon fill="white" stroke="#666666" points="325.5,-140 194.5,-140 194.5,-121 325.5,-121 325.5,-140"/>
<text text-anchor="middle" x="260" y="-128" font-family="Helvetica,sans-Serif" font-size="10.00">../interfaces/log_entry.h</text>
</a>
</g>
</g>
<!-- Node1&#45;&gt;Node4 -->
<g id="edge3_Node000001_Node000004" class="edge">
<title>Node1&#45;&gt;Node4</title>
<g id="a_edge3_Node000001_Node000004"><a xlink:title=" ">
<path fill="none" stroke="#63b8ff" d="M337.79,-175.95C320.42,-166.03 299.74,-154.21 284.07,-145.25"/>
<polygon fill="#63b8ff" stroke="#63b8ff" points="285.45,-142.01 275.04,-140.09 281.98,-148.09 285.45,-142.01"/>
</a>
</g>
</g>
<!-- Node14 -->
<g id="Node000014" class="node">
<title>Node14</title>
<g id="a_Node000014"><a xlink:title=" ">
<polygon fill="#e0e0e0" stroke="#999999" points="400,-140 344,-140 344,-121 400,-121 400,-140"/>
<text text-anchor="middle" x="372" y="-128" font-family="Helvetica,sans-Serif" font-size="10.00">sstream</text>
</a>
</g>
</g>
<!-- Node1&#45;&gt;Node14 -->
<g id="edge15_Node000001_Node000014" class="edge">
<title>Node1&#45;&gt;Node14</title>
<g id="a_edge15_Node000001_Node000014"><a xlink:title=" ">
<path fill="none" stroke="#63b8ff" d="M372,-175.95C372,-167.85 372,-158.5 372,-150.47"/>
<polygon fill="#63b8ff" stroke="#63b8ff" points="375.5,-150.26 372,-140.26 368.5,-150.26 375.5,-150.26"/>
</a>
</g>
</g>
<!-- Node15 -->
<g id="Node000015" class="node">
<title>Node15</title>
<g id="a_Node000015"><a xlink:title=" ">
<polygon fill="#e0e0e0" stroke="#999999" points="474,-140 418,-140 418,-121 474,-121 474,-140"/>
<text text-anchor="middle" x="446" y="-128" font-family="Helvetica,sans-Serif" font-size="10.00">iomanip</text>
</a>
</g>
</g>
<!-- Node1&#45;&gt;Node15 -->
<g id="edge16_Node000001_Node000015" class="edge">
<title>Node1&#45;&gt;Node15</title>
<g id="a_edge16_Node000001_Node000015"><a xlink:title=" ">
<path fill="none" stroke="#63b8ff" d="M394.6,-175.95C405.36,-166.65 418.05,-155.68 428.12,-146.96"/>
<polygon fill="#63b8ff" stroke="#63b8ff" points="430.6,-149.45 435.87,-140.26 426.02,-144.15 430.6,-149.45"/>
</a>
</g>
</g>
<!-- Node16 -->
<g id="Node000016" class="node">
<title>Node16</title>
<g id="a_Node000016"><a xlink:title=" ">
<polygon fill="#e0e0e0" stroke="#999999" points="540,-140 492,-140 492,-121 540,-121 540,-140"/>
<text text-anchor="middle" x="516" y="-128" font-family="Helvetica,sans-Serif" font-size="10.00">thread</text>
</a>
</g>
</g>
<!-- Node1&#45;&gt;Node16 -->
<g id="edge17_Node000001_Node000016" class="edge">
<title>Node1&#45;&gt;Node16</title>
<g id="a_edge17_Node000001_Node000016"><a xlink:title=" ">
<path fill="none" stroke="#63b8ff" d="M415.99,-175.95C439.16,-165.65 466.92,-153.31 487.3,-144.25"/>
<polygon fill="#63b8ff" stroke="#63b8ff" points="488.95,-147.35 496.67,-140.09 486.11,-140.95 488.95,-147.35"/>
</a>
</g>
</g>
<!-- Node3 -->
<g id="Node000003" class="node">
<title>Node3</title>
<g id="a_Node000003"><a xlink:title=" ">
<polygon fill="#e0e0e0" stroke="#999999" points="193,-19 149,-19 149,0 193,0 193,-19"/>
<text text-anchor="middle" x="171" y="-7" font-family="Helvetica,sans-Serif" font-size="10.00">string</text>
</a>
</g>
</g>
<!-- Node2&#45;&gt;Node3 -->
<g id="edge2_Node000002_Node000003" class="edge">
<title>Node2&#45;&gt;Node3</title>
<g id="a_edge2_Node000002_Node000003"><a xlink:title=" ">
<path fill="none" stroke="#63b8ff" d="M95.71,-54.99C111.35,-45.75 131.74,-33.7 147.36,-24.47"/>
<polygon fill="#63b8ff" stroke="#63b8ff" points="149.55,-27.24 156.38,-19.14 145.99,-21.21 149.55,-27.24"/>
</a>
</g>
</g>
<!-- Node4&#45;&gt;Node3 -->
<g id="edge4_Node000004_Node000003" class="edge">
<title>Node4&#45;&gt;Node3</title>
<g id="a_edge4_Node000004_Node000003"><a xlink:title=" ">
<path fill="none" stroke="#63b8ff" d="M238.88,-120.92C223.42,-113.59 203.1,-101.58 191,-85 179.06,-68.63 174.25,-45.59 172.31,-29.48"/>
<polygon fill="#63b8ff" stroke="#63b8ff" points="175.76,-28.8 171.34,-19.17 168.79,-29.45 175.76,-28.8"/>
</a>
</g>
</g>
<!-- Node5 -->
<g id="Node000005" class="node">
<title>Node5</title>
<g id="a_Node000005"><a xlink:title=" ">
<polygon fill="#e0e0e0" stroke="#999999" points="250,-79.5 200,-79.5 200,-60.5 250,-60.5 250,-79.5"/>
<text text-anchor="middle" x="225" y="-67.5" font-family="Helvetica,sans-Serif" font-size="10.00">chrono</text>
</a>
</g>
</g>
<!-- Node4&#45;&gt;Node5 -->
<g id="edge5_Node000004_Node000005" class="edge">
<title>Node4&#45;&gt;Node5</title>
<g id="a_edge5_Node000004_Node000005"><a xlink:title=" ">
<path fill="none" stroke="#63b8ff" d="M254.84,-120.87C249.77,-112.4 241.9,-99.24 235.51,-88.57"/>
<polygon fill="#63b8ff" stroke="#63b8ff" points="238.32,-86.45 230.19,-79.67 232.32,-90.05 238.32,-86.45"/>
</a>
</g>
</g>
<!-- Node6 -->
<g id="Node000006" class="node">
<title>Node6</title>
<g id="a_Node000006"><a xlink:title=" ">
<polygon fill="#e0e0e0" stroke="#999999" points="324,-79.5 268,-79.5 268,-60.5 324,-60.5 324,-79.5"/>
<text text-anchor="middle" x="296" y="-67.5" font-family="Helvetica,sans-Serif" font-size="10.00">optional</text>
</a>
</g>
</g>
<!-- Node4&#45;&gt;Node6 -->
<g id="edge6_Node000004_Node000006" class="edge">
<title>Node4&#45;&gt;Node6</title>
<g id="a_edge6_Node000004_Node000006"><a xlink:title=" ">
<path fill="none" stroke="#63b8ff" d="M265.31,-120.87C270.58,-112.31 278.79,-98.97 285.39,-88.24"/>
<polygon fill="#63b8ff" stroke="#63b8ff" points="288.41,-90.02 290.67,-79.67 282.44,-86.35 288.41,-90.02"/>
</a>
</g>
</g>
<!-- Node7 -->
<g id="Node000007" class="node">
<title>Node7</title>
<g id="a_Node000007"><a xlink:href="small__string_8h.html" target="_top" xlink:title=" ">
<polygon fill="white" stroke="#666666" points="461.5,-79.5 342.5,-79.5 342.5,-60.5 461.5,-60.5 461.5,-79.5"/>
<text text-anchor="middle" x="402" y="-67.5" font-family="Helvetica,sans-Serif" font-size="10.00">../core/small_string.h</text>
</a>
</g>
</g>
<!-- Node4&#45;&gt;Node7 -->
<g id="edge7_Node000004_Node000007" class="edge">
<title>Node4&#45;&gt;Node7</title>
<g id="a_edge7_Node000004_Node000007"><a xlink:title=" ">
<path fill="none" stroke="#63b8ff" d="M280.65,-120.99C304.63,-111.12 344.39,-94.73 371.83,-83.43"/>
<polygon fill="#63b8ff" stroke="#63b8ff" points="373.41,-86.56 381.33,-79.52 370.75,-80.09 373.41,-86.56"/>
</a>
</g>
</g>
<!-- Node13 -->
<g id="Node000013" class="node">
<title>Node13</title>
<g id="a_Node000013"><a xlink:title=" ">
<polygon fill="#e0e0e0" stroke="#999999" points="636.5,-79.5 479.5,-79.5 479.5,-60.5 636.5,-60.5 636.5,-79.5"/>
<text text-anchor="middle" x="558" y="-67.5" font-family="Helvetica,sans-Serif" font-size="10.00">interfaces/logger_interface.h</text>
</a>
</g>
</g>
<!-- Node4&#45;&gt;Node13 -->
<g id="edge14_Node000004_Node000013" class="edge">
<title>Node4&#45;&gt;Node13</title>
<g id="a_edge14_Node000004_Node000013"><a xlink:title=" ">
<path fill="none" stroke="#63b8ff" d="M303.33,-120.99C356.63,-110.53 447.09,-92.77 504.62,-81.48"/>
<polygon fill="#63b8ff" stroke="#63b8ff" points="505.48,-84.88 514.62,-79.52 504.13,-78.01 505.48,-84.88"/>
</a>
</g>
</g>
<!-- Node7&#45;&gt;Node3 -->
<g id="edge9_Node000007_Node000003" class="edge">
<title>Node7&#45;&gt;Node3</title>
<g id="a_edge9_Node000007_Node000003"><a xlink:title=" ">
<path fill="none" stroke="#63b8ff" d="M366.89,-60.48C328.86,-51.19 266.15,-35.71 203.05,-19.23"/>
<polygon fill="#63b8ff" stroke="#63b8ff" points="203.9,-15.84 193.33,-16.69 202.12,-22.61 203.9,-15.84"/>
</a>
</g>
</g>
<!-- Node8 -->
<g id="Node000008" class="node">
<title>Node8</title>
<g id="a_Node000008"><a xlink:title=" ">
<polygon fill="#e0e0e0" stroke="#999999" points="261,-19 211,-19 211,0 261,0 261,-19"/>
<text text-anchor="middle" x="236" y="-7" font-family="Helvetica,sans-Serif" font-size="10.00">cstring</text>
</a>
</g>
</g>
<!-- Node7&#45;&gt;Node8 -->
<g id="edge8_Node000007_Node000008" class="edge">
<title>Node7&#45;&gt;Node8</title>
<g id="a_edge8_Node000007_Node000008"><a xlink:title=" ">
<path fill="none" stroke="#63b8ff" d="M377.86,-60.49C349.46,-50.49 302.12,-33.8 270.01,-22.49"/>
<polygon fill="#63b8ff" stroke="#63b8ff" points="270.76,-19.04 260.17,-19.02 268.44,-25.64 270.76,-19.04"/>
</a>
</g>
</g>
<!-- Node9 -->
<g id="Node000009" class="node">
<title>Node9</title>
<g id="a_Node000009"><a xlink:title=" ">
<polygon fill="#e0e0e0" stroke="#999999" points="352.5,-19 279.5,-19 279.5,0 352.5,0 352.5,-19"/>
<text text-anchor="middle" x="316" y="-7" font-family="Helvetica,sans-Serif" font-size="10.00">string_view</text>
</a>
</g>
</g>
<!-- Node7&#45;&gt;Node9 -->
<g id="edge10_Node000007_Node000009" class="edge">
<title>Node7&#45;&gt;Node9</title>
<g id="a_edge10_Node000007_Node000009"><a xlink:title=" ">
<path fill="none" stroke="#63b8ff" d="M389.31,-60.37C375.59,-51.04 353.5,-36.01 337.15,-24.88"/>
<polygon fill="#63b8ff" stroke="#63b8ff" points="338.98,-21.9 328.74,-19.17 335.04,-27.69 338.98,-21.9"/>
</a>
</g>
</g>
<!-- Node10 -->
<g id="Node000010" class="node">
<title>Node10</title>
<g id="a_Node000010"><a xlink:title=" ">
<polygon fill="#e0e0e0" stroke="#999999" points="435,-19 371,-19 371,0 435,0 435,-19"/>
<text text-anchor="middle" x="403" y="-7" font-family="Helvetica,sans-Serif" font-size="10.00">algorithm</text>
</a>
</g>
</g>
<!-- Node7&#45;&gt;Node10 -->
<g id="edge11_Node000007_Node000010" class="edge">
<title>Node7&#45;&gt;Node10</title>
<g id="a_edge11_Node000007_Node000010"><a xlink:title=" ">
<path fill="none" stroke="#63b8ff" d="M402.15,-60.37C402.29,-52.25 402.5,-39.81 402.68,-29.39"/>
<polygon fill="#63b8ff" stroke="#63b8ff" points="406.18,-29.23 402.85,-19.17 399.18,-29.11 406.18,-29.23"/>
</a>
</g>
</g>
<!-- Node11 -->
<g id="Node000011" class="node">
<title>Node11</title>
<g id="a_Node000011"><a xlink:title=" ">
<polygon fill="#e0e0e0" stroke="#999999" points="511,-19 453,-19 453,0 511,0 511,-19"/>
<text text-anchor="middle" x="482" y="-7" font-family="Helvetica,sans-Serif" font-size="10.00">memory</text>
</a>
</g>
</g>
<!-- Node7&#45;&gt;Node11 -->
<g id="edge12_Node000007_Node000011" class="edge">
<title>Node7&#45;&gt;Node11</title>
<g id="a_edge12_Node000007_Node000011"><a xlink:title=" ">
<path fill="none" stroke="#63b8ff" d="M413.8,-60.37C426.45,-51.12 446.74,-36.28 461.91,-25.19"/>
<polygon fill="#63b8ff" stroke="#63b8ff" points="464.14,-27.9 470.15,-19.17 460.01,-22.24 464.14,-27.9"/>
</a>
</g>
</g>
<!-- Node12 -->
<g id="Node000012" class="node">
<title>Node12</title>
<g id="a_Node000012"><a xlink:title=" ">
<polygon fill="#e0e0e0" stroke="#999999" points="574.5,-19 529.5,-19 529.5,0 574.5,0 574.5,-19"/>
<text text-anchor="middle" x="552" y="-7" font-family="Helvetica,sans-Serif" font-size="10.00">utility</text>
</a>
</g>
</g>
<!-- Node7&#45;&gt;Node12 -->
<g id="edge13_Node000007_Node000012" class="edge">
<title>Node7&#45;&gt;Node12</title>
<g id="a_edge13_Node000007_Node000012"><a xlink:title=" ">
<path fill="none" stroke="#63b8ff" d="M423.81,-60.49C449.25,-50.57 491.51,-34.09 520.51,-22.78"/>
<polygon fill="#63b8ff" stroke="#63b8ff" points="522.12,-25.91 530.16,-19.02 519.57,-19.39 522.12,-25.91"/>
</a>
</g>
</g>
</g>
</svg>
