<?xml version="1.0" encoding="UTF-8" standalone="no"?>
<!DOCTYPE svg PUBLIC "-//W3C//DTD SVG 1.1//EN"
 "http://www.w3.org/Graphics/SVG/1.1/DTD/svg11.dtd">
<!-- Generated by graphviz version 2.43.0 (0)
 -->
<!-- Title: base_writer.h Pages: 1 -->
<svg width="727pt" height="203pt"
 viewBox="0.00 0.00 726.50 203.00" xmlns="http://www.w3.org/2000/svg" xmlns:xlink="http://www.w3.org/1999/xlink">
<g id="graph0" class="graph" transform="scale(1 1) rotate(0) translate(4 199)">
<title>base_writer.h</title>
<!-- Node1 -->
<g id="Node000001" class="node">
<title>Node1</title>
<g id="a_Node000001"><a xlink:title=" ">
<polygon fill="#999999" stroke="#666666" points="313.5,-195 231.5,-195 231.5,-176 313.5,-176 313.5,-195"/>
<text text-anchor="middle" x="272.5" y="-183" font-family="Helvetica,sans-Serif" font-size="10.00">base_writer.h</text>
</a>
</g>
</g>
<!-- Node2 -->
<g id="Node000002" class="node">
<title>Node2</title>
<g id="a_Node000002"><a xlink:title=" ">
<polygon fill="#e0e0e0" stroke="#999999" points="334.5,-19 290.5,-19 290.5,0 334.5,0 334.5,-19"/>
<text text-anchor="middle" x="312.5" y="-7" font-family="Helvetica,sans-Serif" font-size="10.00">string</text>
</a>
</g>
</g>
<!-- Node1&#45;&gt;Node2 -->
<g id="edge1_Node000001_Node000002" class="edge">
<title>Node1&#45;&gt;Node2</title>
<g id="a_edge1_Node000001_Node000002"><a xlink:title=" ">
<path fill="none" stroke="#63b8ff" d="M313.5,-181.35C341.37,-176.82 376.34,-165.95 394.5,-140 422.93,-99.37 366.52,-49.27 333.72,-25.02"/>
<polygon fill="#63b8ff" stroke="#63b8ff" points="335.73,-22.16 325.57,-19.16 331.65,-27.84 335.73,-22.16"/>
</a>
</g>
</g>
<!-- Node3 -->
<g id="Node000003" class="node">
<title>Node3</title>
<g id="a_Node000003"><a xlink:title=" ">
<polygon fill="#e0e0e0" stroke="#999999" points="253.5,-74 203.5,-74 203.5,-55 253.5,-55 253.5,-74"/>
<text text-anchor="middle" x="228.5" y="-62" font-family="Helvetica,sans-Serif" font-size="10.00">chrono</text>
</a>
</g>
</g>
<!-- Node1&#45;&gt;Node3 -->
<g id="edge2_Node000001_Node000003" class="edge">
<title>Node1&#45;&gt;Node3</title>
<g id="a_edge2_Node000001_Node000003"><a xlink:title=" ">
<path fill="none" stroke="#63b8ff" d="M266.02,-175.75C259.89,-167.08 250.86,-153.23 245.5,-140 238.12,-121.77 233.59,-99.68 231.08,-84.31"/>
<polygon fill="#63b8ff" stroke="#63b8ff" points="234.48,-83.41 229.54,-74.03 227.56,-84.44 234.48,-83.41"/>
</a>
</g>
</g>
<!-- Node4 -->
<g id="Node000004" class="node">
<title>Node4</title>
<g id="a_Node000004"><a xlink:href="logger__interface_8h.html" target="_top" xlink:title=" ">
<polygon fill="white" stroke="#666666" points="668.5,-74 554.5,-74 554.5,-55 668.5,-55 668.5,-74"/>
<text text-anchor="middle" x="611.5" y="-62" font-family="Helvetica,sans-Serif" font-size="10.00">../logger_interface.h</text>
</a>
</g>
</g>
<!-- Node1&#45;&gt;Node4 -->
<g id="edge3_Node000001_Node000004" class="edge">
<title>Node1&#45;&gt;Node4</title>
<g id="a_edge3_Node000001_Node000004"><a xlink:title=" ">
<path fill="none" stroke="#63b8ff" d="M306.08,-175.95C337.69,-167.65 386.21,-154.24 427.5,-140 483.49,-120.69 547.22,-93.73 583.07,-78.1"/>
<polygon fill="#63b8ff" stroke="#63b8ff" points="584.66,-81.22 592.41,-74.01 581.85,-74.81 584.66,-81.22"/>
</a>
</g>
</g>
<!-- Node7 -->
<g id="Node000007" class="node">
<title>Node7</title>
<g id="a_Node000007"><a xlink:href="error__codes_8h.html" target="_top" xlink:title=" ">
<polygon fill="white" stroke="#666666" points="147.5,-74 55.5,-74 55.5,-55 147.5,-55 147.5,-74"/>
<text text-anchor="middle" x="101.5" y="-62" font-family="Helvetica,sans-Serif" font-size="10.00">../error_codes.h</text>
</a>
</g>
</g>
<!-- Node1&#45;&gt;Node7 -->
<g id="edge7_Node000001_Node000007" class="edge">
<title>Node1&#45;&gt;Node7</title>
<g id="a_edge7_Node000001_Node000007"><a xlink:title=" ">
<path fill="none" stroke="#63b8ff" d="M231.25,-181.76C176.23,-177.15 83.32,-165.7 62.5,-140 47.73,-121.77 66.87,-97.07 83.17,-81.21"/>
<polygon fill="#63b8ff" stroke="#63b8ff" points="85.8,-83.55 90.78,-74.2 81.06,-78.4 85.8,-83.55"/>
</a>
</g>
</g>
<!-- Node12 -->
<g id="Node000012" class="node">
<title>Node12</title>
<g id="a_Node000012"><a xlink:href="log__writer__interface_8h.html" target="_top" xlink:title=" ">
<polygon fill="white" stroke="#666666" points="197.5,-140 71.5,-140 71.5,-110 197.5,-110 197.5,-140"/>
<text text-anchor="start" x="79.5" y="-128" font-family="Helvetica,sans-Serif" font-size="10.00">../interfaces/log_writer</text>
<text text-anchor="middle" x="134.5" y="-117" font-family="Helvetica,sans-Serif" font-size="10.00">_interface.h</text>
</a>
</g>
</g>
<!-- Node1&#45;&gt;Node12 -->
<g id="edge13_Node000001_Node000012" class="edge">
<title>Node1&#45;&gt;Node12</title>
<g id="a_edge13_Node000001_Node000012"><a xlink:title=" ">
<path fill="none" stroke="#63b8ff" d="M252.43,-175.99C232.75,-167.65 202.11,-154.66 177,-144.02"/>
<polygon fill="#63b8ff" stroke="#63b8ff" points="178.25,-140.74 167.68,-140.06 175.52,-147.19 178.25,-140.74"/>
</a>
</g>
</g>
<!-- Node13 -->
<g id="Node000013" class="node">
<title>Node13</title>
<g id="a_Node000013"><a xlink:href="log__entry_8h.html" target="_top" xlink:title=" ">
<polygon fill="white" stroke="#666666" points="385,-134.5 254,-134.5 254,-115.5 385,-115.5 385,-134.5"/>
<text text-anchor="middle" x="319.5" y="-122.5" font-family="Helvetica,sans-Serif" font-size="10.00">../interfaces/log_entry.h</text>
</a>
</g>
</g>
<!-- Node1&#45;&gt;Node13 -->
<g id="edge17_Node000001_Node000013" class="edge">
<title>Node1&#45;&gt;Node13</title>
<g id="a_edge17_Node000001_Node000013"><a xlink:title=" ">
<path fill="none" stroke="#63b8ff" d="M279.44,-175.87C286.45,-167.14 297.46,-153.43 306.17,-142.59"/>
<polygon fill="#63b8ff" stroke="#63b8ff" points="309,-144.66 312.54,-134.67 303.54,-140.27 309,-144.66"/>
</a>
</g>
</g>
<!-- Node4&#45;&gt;Node2 -->
<g id="edge6_Node000004_Node000002" class="edge">
<title>Node4&#45;&gt;Node2</title>
<g id="a_edge6_Node000004_Node000002"><a xlink:title=" ">
<path fill="none" stroke="#63b8ff" d="M554.43,-55.58C502.39,-48.01 423.22,-35.58 344.86,-18.88"/>
<polygon fill="#63b8ff" stroke="#63b8ff" points="345.33,-15.4 334.81,-16.72 343.85,-22.24 345.33,-15.4"/>
</a>
</g>
</g>
<!-- Node5 -->
<g id="Node000005" class="node">
<title>Node5</title>
<g id="a_Node000005"><a xlink:title=" ">
<polygon fill="#e0e0e0" stroke="#999999" points="652.5,-19 594.5,-19 594.5,0 652.5,0 652.5,-19"/>
<text text-anchor="middle" x="623.5" y="-7" font-family="Helvetica,sans-Serif" font-size="10.00">memory</text>
</a>
</g>
</g>
<!-- Node4&#45;&gt;Node5 -->
<g id="edge4_Node000004_Node000005" class="edge">
<title>Node4&#45;&gt;Node5</title>
<g id="a_edge4_Node000004_Node000005"><a xlink:title=" ">
<path fill="none" stroke="#63b8ff" d="M613.48,-54.75C615.07,-47.72 617.36,-37.62 619.35,-28.84"/>
<polygon fill="#63b8ff" stroke="#63b8ff" points="622.76,-29.62 621.56,-19.09 615.93,-28.07 622.76,-29.62"/>
</a>
</g>
</g>
<!-- Node6 -->
<g id="Node000006" class="node">
<title>Node6</title>
<g id="a_Node000006"><a xlink:title=" ">
<polygon fill="#e0e0e0" stroke="#999999" points="718.5,-19 670.5,-19 670.5,0 718.5,0 718.5,-19"/>
<text text-anchor="middle" x="694.5" y="-7" font-family="Helvetica,sans-Serif" font-size="10.00">mutex</text>
</a>
</g>
</g>
<!-- Node4&#45;&gt;Node6 -->
<g id="edge5_Node000004_Node000006" class="edge">
<title>Node4&#45;&gt;Node6</title>
<g id="a_edge5_Node000004_Node000006"><a xlink:title=" ">
<path fill="none" stroke="#63b8ff" d="M624.84,-54.98C637.59,-46.84 657.05,-34.41 672.17,-24.76"/>
<polygon fill="#63b8ff" stroke="#63b8ff" points="674.38,-27.5 680.92,-19.17 670.61,-21.6 674.38,-27.5"/>
</a>
</g>
</g>
<!-- Node7&#45;&gt;Node2 -->
<g id="edge8_Node000007_Node000002" class="edge">
<title>Node7&#45;&gt;Node2</title>
<g id="a_edge8_Node000007_Node000002"><a xlink:title=" ">
<path fill="none" stroke="#63b8ff" d="M137.09,-54.98C171.39,-46.71 225,-33.62 280.21,-19.29"/>
<polygon fill="#63b8ff" stroke="#63b8ff" points="281.37,-22.6 290.17,-16.7 279.61,-15.83 281.37,-22.6"/>
</a>
</g>
</g>
<!-- Node8 -->
<g id="Node000008" class="node">
<title>Node8</title>
<g id="a_Node000008"><a xlink:title=" ">
<polygon fill="#e0e0e0" stroke="#999999" points="134,-19 69,-19 69,0 134,0 134,-19"/>
<text text-anchor="middle" x="101.5" y="-7" font-family="Helvetica,sans-Serif" font-size="10.00">stdexcept</text>
</a>
</g>
</g>
<!-- Node7&#45;&gt;Node8 -->
<g id="edge9_Node000007_Node000008" class="edge">
<title>Node7&#45;&gt;Node8</title>
<g id="a_edge9_Node000007_Node000008"><a xlink:title=" ">
<path fill="none" stroke="#63b8ff" d="M101.5,-54.75C101.5,-47.8 101.5,-37.85 101.5,-29.13"/>
<polygon fill="#63b8ff" stroke="#63b8ff" points="105,-29.09 101.5,-19.09 98,-29.09 105,-29.09"/>
</a>
</g>
</g>
<!-- Node9 -->
<g id="Node000009" class="node">
<title>Node9</title>
<g id="a_Node000009"><a xlink:title=" ">
<polygon fill="#e0e0e0" stroke="#999999" points="272,-19 227,-19 227,0 272,0 272,-19"/>
<text text-anchor="middle" x="249.5" y="-7" font-family="Helvetica,sans-Serif" font-size="10.00">utility</text>
</a>
</g>
</g>
<!-- Node7&#45;&gt;Node9 -->
<g id="edge10_Node000007_Node000009" class="edge">
<title>Node7&#45;&gt;Node9</title>
<g id="a_edge10_Node000007_Node000009"><a xlink:title=" ">
<path fill="none" stroke="#63b8ff" d="M125.28,-54.98C150.17,-46.07 189.41,-32.02 217.11,-22.1"/>
<polygon fill="#63b8ff" stroke="#63b8ff" points="218.52,-25.31 226.75,-18.65 216.16,-18.72 218.52,-25.31"/>
</a>
</g>
</g>
<!-- Node10 -->
<g id="Node000010" class="node">
<title>Node10</title>
<g id="a_Node000010"><a xlink:title=" ">
<polygon fill="#e0e0e0" stroke="#999999" points="208.5,-19 152.5,-19 152.5,0 208.5,0 208.5,-19"/>
<text text-anchor="middle" x="180.5" y="-7" font-family="Helvetica,sans-Serif" font-size="10.00">optional</text>
</a>
</g>
</g>
<!-- Node7&#45;&gt;Node10 -->
<g id="edge11_Node000007_Node000010" class="edge">
<title>Node7&#45;&gt;Node10</title>
<g id="a_edge11_Node000007_Node000010"><a xlink:title=" ">
<path fill="none" stroke="#63b8ff" d="M114.19,-54.98C126.33,-46.84 144.86,-34.41 159.25,-24.76"/>
<polygon fill="#63b8ff" stroke="#63b8ff" points="161.22,-27.65 167.58,-19.17 157.32,-21.84 161.22,-27.65"/>
</a>
</g>
</g>
<!-- Node11 -->
<g id="Node000011" class="node">
<title>Node11</title>
<g id="a_Node000011"><a xlink:title=" ">
<polygon fill="#e0e0e0" stroke="#999999" points="51,-19 0,-19 0,0 51,0 51,-19"/>
<text text-anchor="middle" x="25.5" y="-7" font-family="Helvetica,sans-Serif" font-size="10.00">variant</text>
</a>
</g>
</g>
<!-- Node7&#45;&gt;Node11 -->
<g id="edge12_Node000007_Node000011" class="edge">
<title>Node7&#45;&gt;Node11</title>
<g id="a_edge12_Node000007_Node000011"><a xlink:title=" ">
<path fill="none" stroke="#63b8ff" d="M89.29,-54.98C77.72,-46.92 60.12,-34.65 46.34,-25.03"/>
<polygon fill="#63b8ff" stroke="#63b8ff" points="48.14,-22.02 37.93,-19.17 44.13,-27.76 48.14,-22.02"/>
</a>
</g>
</g>
<!-- Node12&#45;&gt;Node2 -->
<g id="edge14_Node000012_Node000002" class="edge">
<title>Node12&#45;&gt;Node2</title>
<g id="a_edge14_Node000012_Node000002"><a xlink:title=" ">
<path fill="none" stroke="#63b8ff" d="M143.51,-109.99C154.06,-94.59 172.87,-70.05 194.5,-55 208.79,-45.06 250.86,-30.3 280.68,-20.54"/>
<polygon fill="#63b8ff" stroke="#63b8ff" points="281.83,-23.85 290.27,-17.44 279.68,-17.19 281.83,-23.85"/>
</a>
</g>
</g>
<!-- Node12&#45;&gt;Node3 -->
<g id="edge15_Node000012_Node000003" class="edge">
<title>Node12&#45;&gt;Node3</title>
<g id="a_edge15_Node000012_Node000003"><a xlink:title=" ">
<path fill="none" stroke="#63b8ff" d="M157.25,-109.84C172.1,-100.6 191.4,-88.59 206.16,-79.4"/>
<polygon fill="#63b8ff" stroke="#63b8ff" points="208.05,-82.35 214.69,-74.09 204.35,-76.41 208.05,-82.35"/>
</a>
</g>
</g>
<!-- Node12&#45;&gt;Node7 -->
<g id="edge16_Node000012_Node000007" class="edge">
<title>Node12&#45;&gt;Node7</title>
<g id="a_edge16_Node000012_Node000007"><a xlink:title=" ">
<path fill="none" stroke="#63b8ff" d="M126.51,-109.84C121.97,-101.78 116.23,-91.62 111.4,-83.06"/>
<polygon fill="#63b8ff" stroke="#63b8ff" points="114.41,-81.26 106.44,-74.27 108.31,-84.7 114.41,-81.26"/>
</a>
</g>
</g>
<!-- Node13&#45;&gt;Node2 -->
<g id="edge18_Node000013_Node000002" class="edge">
<title>Node13&#45;&gt;Node2</title>
<g id="a_edge18_Node000013_Node000002"><a xlink:title=" ">
<path fill="none" stroke="#63b8ff" d="M318.97,-115.47C317.85,-97.23 315.19,-54.07 313.65,-29.14"/>
<polygon fill="#63b8ff" stroke="#63b8ff" points="317.14,-28.9 313.03,-19.13 310.15,-29.33 317.14,-28.9"/>
</a>
</g>
</g>
<!-- Node13&#45;&gt;Node3 -->
<g id="edge19_Node000013_Node000003" class="edge">
<title>Node13&#45;&gt;Node3</title>
<g id="a_edge19_Node000013_Node000003"><a xlink:title=" ">
<path fill="none" stroke="#63b8ff" d="M306.07,-115.37C291.42,-105.95 267.74,-90.73 250.4,-79.58"/>
<polygon fill="#63b8ff" stroke="#63b8ff" points="252.29,-76.63 241.98,-74.17 248.5,-82.52 252.29,-76.63"/>
</a>
</g>
</g>
<!-- Node13&#45;&gt;Node4 -->
<g id="edge28_Node000013_Node000004" class="edge">
<title>Node13&#45;&gt;Node4</title>
<g id="a_edge28_Node000013_Node000004"><a xlink:title=" ">
<path fill="none" stroke="#63b8ff" d="M361.96,-115.49C414.08,-105.05 502.46,-87.35 558.85,-76.05"/>
<polygon fill="#63b8ff" stroke="#63b8ff" points="559.87,-79.41 568.99,-74.02 558.5,-72.55 559.87,-79.41"/>
</a>
</g>
</g>
<!-- Node13&#45;&gt;Node10 -->
<g id="edge20_Node000013_Node000010" class="edge">
<title>Node13&#45;&gt;Node10</title>
<g id="a_edge20_Node000013_Node000010"><a xlink:title=" ">
<path fill="none" stroke="#63b8ff" d="M314.05,-115.46C304.79,-101.47 284.81,-73.37 262.5,-55 246.82,-42.09 226.83,-31.15 210.51,-23.35"/>
<polygon fill="#63b8ff" stroke="#63b8ff" points="211.93,-20.15 201.39,-19.13 208.99,-26.5 211.93,-20.15"/>
</a>
</g>
</g>
<!-- Node14 -->
<g id="Node000014" class="node">
<title>Node14</title>
<g id="a_Node000014"><a xlink:href="small__string_8h.html" target="_top" xlink:title=" ">
<polygon fill="white" stroke="#666666" points="536,-74 417,-74 417,-55 536,-55 536,-74"/>
<text text-anchor="middle" x="476.5" y="-62" font-family="Helvetica,sans-Serif" font-size="10.00">../core/small_string.h</text>
</a>
</g>
</g>
<!-- Node13&#45;&gt;Node14 -->
<g id="edge21_Node000013_Node000014" class="edge">
<title>Node13&#45;&gt;Node14</title>
<g id="a_edge21_Node000013_Node000014"><a xlink:title=" ">
<path fill="none" stroke="#63b8ff" d="M342.33,-115.49C369.07,-105.53 413.58,-88.95 443.94,-77.63"/>
<polygon fill="#63b8ff" stroke="#63b8ff" points="445.49,-80.79 453.64,-74.02 443.05,-74.23 445.49,-80.79"/>
</a>
</g>
</g>
<!-- Node14&#45;&gt;Node2 -->
<g id="edge23_Node000014_Node000002" class="edge">
<title>Node14&#45;&gt;Node2</title>
<g id="a_edge23_Node000014_Node000002"><a xlink:title=" ">
<path fill="none" stroke="#63b8ff" d="M450.15,-54.98C421.35,-45.68 375.22,-30.77 344.4,-20.81"/>
<polygon fill="#63b8ff" stroke="#63b8ff" points="345.17,-17.38 334.58,-17.63 343.02,-24.04 345.17,-17.38"/>
</a>
</g>
</g>
<!-- Node14&#45;&gt;Node5 -->
<g id="edge26_Node000014_Node000005" class="edge">
<title>Node14&#45;&gt;Node5</title>
<g id="a_edge26_Node000014_Node000005"><a xlink:title=" ">
<path fill="none" stroke="#63b8ff" d="M500.12,-54.98C524.4,-46.23 562.45,-32.51 589.87,-22.62"/>
<polygon fill="#63b8ff" stroke="#63b8ff" points="591.23,-25.85 599.45,-19.17 588.86,-19.27 591.23,-25.85"/>
</a>
</g>
</g>
<!-- Node14&#45;&gt;Node9 -->
<g id="edge27_Node000014_Node000009" class="edge">
<title>Node14&#45;&gt;Node9</title>
<g id="a_edge27_Node000014_Node000009"><a xlink:title=" ">
<path fill="none" stroke="#63b8ff" d="M437.19,-54.96C399.82,-46.74 341.8,-33.74 282.17,-19.1"/>
<polygon fill="#63b8ff" stroke="#63b8ff" points="282.75,-15.63 272.2,-16.64 281.07,-22.43 282.75,-15.63"/>
</a>
</g>
</g>
<!-- Node15 -->
<g id="Node000015" class="node">
<title>Node15</title>
<g id="a_Node000015"><a xlink:title=" ">
<polygon fill="#e0e0e0" stroke="#999999" points="576.5,-19 526.5,-19 526.5,0 576.5,0 576.5,-19"/>
<text text-anchor="middle" x="551.5" y="-7" font-family="Helvetica,sans-Serif" font-size="10.00">cstring</text>
</a>
</g>
</g>
<!-- Node14&#45;&gt;Node15 -->
<g id="edge22_Node000014_Node000015" class="edge">
<title>Node14&#45;&gt;Node15</title>
<g id="a_edge22_Node000014_Node000015"><a xlink:title=" ">
<path fill="none" stroke="#63b8ff" d="M488.55,-54.98C499.96,-46.92 517.33,-34.65 530.93,-25.03"/>
<polygon fill="#63b8ff" stroke="#63b8ff" points="533.08,-27.8 539.23,-19.17 529.04,-22.08 533.08,-27.8"/>
</a>
</g>
</g>
<!-- Node16 -->
<g id="Node000016" class="node">
<title>Node16</title>
<g id="a_Node000016"><a xlink:title=" ">
<polygon fill="#e0e0e0" stroke="#999999" points="426,-19 353,-19 353,0 426,0 426,-19"/>
<text text-anchor="middle" x="389.5" y="-7" font-family="Helvetica,sans-Serif" font-size="10.00">string_view</text>
</a>
</g>
</g>
<!-- Node14&#45;&gt;Node16 -->
<g id="edge24_Node000014_Node000016" class="edge">
<title>Node14&#45;&gt;Node16</title>
<g id="a_edge24_Node000014_Node000016"><a xlink:title=" ">
<path fill="none" stroke="#63b8ff" d="M462.52,-54.98C449.03,-46.77 428.37,-34.18 412.46,-24.49"/>
<polygon fill="#63b8ff" stroke="#63b8ff" points="414.09,-21.38 403.73,-19.17 410.45,-27.36 414.09,-21.38"/>
</a>
</g>
</g>
<!-- Node17 -->
<g id="Node000017" class="node">
<title>Node17</title>
<g id="a_Node000017"><a xlink:title=" ">
<polygon fill="#e0e0e0" stroke="#999999" points="508.5,-19 444.5,-19 444.5,0 508.5,0 508.5,-19"/>
<text text-anchor="middle" x="476.5" y="-7" font-family="Helvetica,sans-Serif" font-size="10.00">algorithm</text>
</a>
</g>
</g>
<!-- Node14&#45;&gt;Node17 -->
<g id="edge25_Node000014_Node000017" class="edge">
<title>Node14&#45;&gt;Node17</title>
<g id="a_edge25_Node000014_Node000017"><a xlink:title=" ">
<path fill="none" stroke="#63b8ff" d="M476.5,-54.75C476.5,-47.8 476.5,-37.85 476.5,-29.13"/>
<polygon fill="#63b8ff" stroke="#63b8ff" points="480,-29.09 476.5,-19.09 473,-29.09 480,-29.09"/>
</a>
</g>
</g>
</g>
</svg>
