<?xml version="1.0" encoding="UTF-8" standalone="no"?>
<!DOCTYPE svg PUBLIC "-//W3C//DTD SVG 1.1//EN"
 "http://www.w3.org/Graphics/SVG/1.1/DTD/svg11.dtd">
<!-- Generated by graphviz version 2.43.0 (0)
 -->
<!-- Title: base_writer.h Pages: 1 -->
<svg width="715pt" height="192pt"
 viewBox="0.00 0.00 714.50 192.00" xmlns="http://www.w3.org/2000/svg" xmlns:xlink="http://www.w3.org/1999/xlink">
<g id="graph0" class="graph" transform="scale(1 1) rotate(0) translate(4 188)">
<title>base_writer.h</title>
<!-- Node1 -->
<g id="Node000001" class="node">
<title>Node1</title>
<g id="a_Node000001"><a xlink:title=" ">
<polygon fill="#999999" stroke="#666666" points="446.5,-184 364.5,-184 364.5,-165 446.5,-165 446.5,-184"/>
<text text-anchor="middle" x="405.5" y="-172" font-family="Helvetica,sans-Serif" font-size="10.00">base_writer.h</text>
</a>
</g>
</g>
<!-- Node2 -->
<g id="Node000002" class="node">
<title>Node2</title>
<g id="a_Node000002"><a xlink:href="console__writer_8h.html" target="_top" xlink:title=" ">
<polygon fill="white" stroke="#666666" points="110.5,-129 14.5,-129 14.5,-110 110.5,-110 110.5,-129"/>
<text text-anchor="middle" x="62.5" y="-117" font-family="Helvetica,sans-Serif" font-size="10.00">console_writer.h</text>
</a>
</g>
</g>
<!-- Node1&#45;&gt;Node2 -->
<g id="edge1_Node000001_Node000002" class="edge">
<title>Node1&#45;&gt;Node2</title>
<g id="a_edge1_Node000001_Node000002"><a xlink:title=" ">
<path fill="none" stroke="#63b8ff" d="M354.33,-165.59C288.53,-155.43 175.1,-137.9 110.74,-127.95"/>
<polygon fill="#63b8ff" stroke="#63b8ff" points="354.05,-169.09 364.47,-167.16 355.12,-162.17 354.05,-169.09"/>
</a>
</g>
</g>
<!-- Node4 -->
<g id="Node000004" class="node">
<title>Node4</title>
<g id="a_Node000004"><a xlink:href="encrypted__writer_8h.html" target="_top" xlink:title=" ">
<polygon fill="white" stroke="#666666" points="241,-129 134,-129 134,-110 241,-110 241,-129"/>
<text text-anchor="middle" x="187.5" y="-117" font-family="Helvetica,sans-Serif" font-size="10.00">encrypted_writer.h</text>
</a>
</g>
</g>
<!-- Node1&#45;&gt;Node4 -->
<g id="edge3_Node000001_Node000004" class="edge">
<title>Node1&#45;&gt;Node4</title>
<g id="a_edge3_Node000001_Node000004"><a xlink:title=" ">
<path fill="none" stroke="#63b8ff" d="M360.52,-162.56C319.69,-152.64 260.3,-138.2 222.8,-129.08"/>
<polygon fill="#63b8ff" stroke="#63b8ff" points="359.93,-166.02 370.47,-164.98 361.58,-159.22 359.93,-166.02"/>
</a>
</g>
</g>
<!-- Node6 -->
<g id="Node000006" class="node">
<title>Node6</title>
<g id="a_Node000006"><a xlink:href="file__writer_8h.html" target="_top" xlink:title=" ">
<polygon fill="white" stroke="#666666" points="338.5,-129 264.5,-129 264.5,-110 338.5,-110 338.5,-129"/>
<text text-anchor="middle" x="301.5" y="-117" font-family="Helvetica,sans-Serif" font-size="10.00">file_writer.h</text>
</a>
</g>
</g>
<!-- Node1&#45;&gt;Node6 -->
<g id="edge5_Node000001_Node000006" class="edge">
<title>Node1&#45;&gt;Node6</title>
<g id="a_edge5_Node000001_Node000006"><a xlink:title=" ">
<path fill="none" stroke="#63b8ff" d="M379.73,-160.37C360.63,-150.63 335.13,-137.64 318.51,-129.17"/>
<polygon fill="#63b8ff" stroke="#63b8ff" points="378.29,-163.56 388.79,-164.98 381.47,-157.33 378.29,-163.56"/>
</a>
</g>
</g>
<!-- Node10 -->
<g id="Node000010" class="node">
<title>Node10</title>
<g id="a_Node000010"><a xlink:href="log__collector_8cpp.html" target="_top" xlink:title=" ">
<polygon fill="white" stroke="#666666" points="454.5,-129 356.5,-129 356.5,-110 454.5,-110 454.5,-129"/>
<text text-anchor="middle" x="405.5" y="-117" font-family="Helvetica,sans-Serif" font-size="10.00">log_collector.cpp</text>
</a>
</g>
</g>
<!-- Node1&#45;&gt;Node10 -->
<g id="edge9_Node000001_Node000010" class="edge">
<title>Node1&#45;&gt;Node10</title>
<g id="a_edge9_Node000001_Node000010"><a xlink:title=" ">
<path fill="none" stroke="#63b8ff" d="M405.5,-154.66C405.5,-145.93 405.5,-135.99 405.5,-129.09"/>
<polygon fill="#63b8ff" stroke="#63b8ff" points="402,-154.75 405.5,-164.75 409,-154.75 402,-154.75"/>
</a>
</g>
</g>
<!-- Node11 -->
<g id="Node000011" class="node">
<title>Node11</title>
<g id="a_Node000011"><a xlink:href="log__router_8h.html" target="_top" xlink:title=" ">
<polygon fill="white" stroke="#666666" points="546.5,-129 472.5,-129 472.5,-110 546.5,-110 546.5,-129"/>
<text text-anchor="middle" x="509.5" y="-117" font-family="Helvetica,sans-Serif" font-size="10.00">log_router.h</text>
</a>
</g>
</g>
<!-- Node1&#45;&gt;Node11 -->
<g id="edge10_Node000001_Node000011" class="edge">
<title>Node1&#45;&gt;Node11</title>
<g id="a_edge10_Node000001_Node000011"><a xlink:title=" ">
<path fill="none" stroke="#63b8ff" d="M431.27,-160.37C450.37,-150.63 475.87,-137.64 492.49,-129.17"/>
<polygon fill="#63b8ff" stroke="#63b8ff" points="429.53,-157.33 422.21,-164.98 432.71,-163.56 429.53,-157.33"/>
</a>
</g>
</g>
<!-- Node12 -->
<g id="Node000012" class="node">
<title>Node12</title>
<g id="a_Node000012"><a xlink:href="logger_8cpp.html" target="_top" xlink:title=" ">
<polygon fill="white" stroke="#666666" points="574,-74 507,-74 507,-55 574,-55 574,-74"/>
<text text-anchor="middle" x="540.5" y="-62" font-family="Helvetica,sans-Serif" font-size="10.00">logger.cpp</text>
</a>
</g>
</g>
<!-- Node1&#45;&gt;Node12 -->
<g id="edge12_Node000001_Node000012" class="edge">
<title>Node1&#45;&gt;Node12</title>
<g id="a_edge12_Node000001_Node000012"><a xlink:title=" ">
<path fill="none" stroke="#63b8ff" d="M456.96,-173.05C490.84,-169.72 532.97,-159.18 555.5,-129 567.83,-112.48 555.05,-87.35 546.63,-74.21"/>
<polygon fill="#63b8ff" stroke="#63b8ff" points="456.42,-169.58 446.73,-173.86 456.98,-176.56 456.42,-169.58"/>
</a>
</g>
</g>
<!-- Node13 -->
<g id="Node000013" class="node">
<title>Node13</title>
<g id="a_Node000013"><a xlink:href="network__writer_8h.html" target="_top" xlink:title=" ">
<polygon fill="white" stroke="#666666" points="700.5,-129 602.5,-129 602.5,-110 700.5,-110 700.5,-129"/>
<text text-anchor="middle" x="651.5" y="-117" font-family="Helvetica,sans-Serif" font-size="10.00">network_writer.h</text>
</a>
</g>
</g>
<!-- Node1&#45;&gt;Node13 -->
<g id="edge13_Node000001_Node000013" class="edge">
<title>Node1&#45;&gt;Node13</title>
<g id="a_edge13_Node000001_Node000013"><a xlink:title=" ">
<path fill="none" stroke="#63b8ff" d="M454.8,-162.88C500.91,-152.94 568.9,-138.3 611.67,-129.08"/>
<polygon fill="#63b8ff" stroke="#63b8ff" points="454.06,-159.46 445.02,-164.98 455.54,-166.3 454.06,-159.46"/>
</a>
</g>
</g>
<!-- Node3 -->
<g id="Node000003" class="node">
<title>Node3</title>
<g id="a_Node000003"><a xlink:href="console__writer_8cpp.html" target="_top" xlink:title=" ">
<polygon fill="white" stroke="#666666" points="107,-74 0,-74 0,-55 107,-55 107,-74"/>
<text text-anchor="middle" x="53.5" y="-62" font-family="Helvetica,sans-Serif" font-size="10.00">console_writer.cpp</text>
</a>
</g>
</g>
<!-- Node2&#45;&gt;Node3 -->
<g id="edge2_Node000002_Node000003" class="edge">
<title>Node2&#45;&gt;Node3</title>
<g id="a_edge2_Node000002_Node000003"><a xlink:title=" ">
<path fill="none" stroke="#63b8ff" d="M59.3,-99.66C57.82,-90.93 56.13,-80.99 54.96,-74.09"/>
<polygon fill="#63b8ff" stroke="#63b8ff" points="55.89,-100.48 61.01,-109.75 62.79,-99.3 55.89,-100.48"/>
</a>
</g>
</g>
<!-- Node5 -->
<g id="Node000005" class="node">
<title>Node5</title>
<g id="a_Node000005"><a xlink:href="encrypted__writer_8cpp.html" target="_top" xlink:title=" ">
<polygon fill="white" stroke="#666666" points="244,-74 125,-74 125,-55 244,-55 244,-74"/>
<text text-anchor="middle" x="184.5" y="-62" font-family="Helvetica,sans-Serif" font-size="10.00">encrypted_writer.cpp</text>
</a>
</g>
</g>
<!-- Node4&#45;&gt;Node5 -->
<g id="edge4_Node000004_Node000005" class="edge">
<title>Node4&#45;&gt;Node5</title>
<g id="a_edge4_Node000004_Node000005"><a xlink:title=" ">
<path fill="none" stroke="#63b8ff" d="M186.43,-99.66C185.94,-90.93 185.38,-80.99 184.99,-74.09"/>
<polygon fill="#63b8ff" stroke="#63b8ff" points="182.94,-99.96 187,-109.75 189.93,-99.57 182.94,-99.96"/>
</a>
</g>
</g>
<!-- Node7 -->
<g id="Node000007" class="node">
<title>Node7</title>
<g id="a_Node000007"><a xlink:href="file__writer_8cpp.html" target="_top" xlink:title=" ">
<polygon fill="white" stroke="#666666" points="347,-74 262,-74 262,-55 347,-55 347,-74"/>
<text text-anchor="middle" x="304.5" y="-62" font-family="Helvetica,sans-Serif" font-size="10.00">file_writer.cpp</text>
</a>
</g>
</g>
<!-- Node6&#45;&gt;Node7 -->
<g id="edge6_Node000006_Node000007" class="edge">
<title>Node6&#45;&gt;Node7</title>
<g id="a_edge6_Node000006_Node000007"><a xlink:title=" ">
<path fill="none" stroke="#63b8ff" d="M302.57,-99.66C303.06,-90.93 303.62,-80.99 304.01,-74.09"/>
<polygon fill="#63b8ff" stroke="#63b8ff" points="299.07,-99.57 302,-109.75 306.06,-99.96 299.07,-99.57"/>
</a>
</g>
</g>
<!-- Node8 -->
<g id="Node000008" class="node">
<title>Node8</title>
<g id="a_Node000008"><a xlink:href="rotating__file__writer_8h.html" target="_top" xlink:title=" ">
<polygon fill="white" stroke="#666666" points="482,-74 365,-74 365,-55 482,-55 482,-74"/>
<text text-anchor="middle" x="423.5" y="-62" font-family="Helvetica,sans-Serif" font-size="10.00">rotating_file_writer.h</text>
</a>
</g>
</g>
<!-- Node6&#45;&gt;Node8 -->
<g id="edge7_Node000006_Node000008" class="edge">
<title>Node6&#45;&gt;Node8</title>
<g id="a_edge7_Node000006_Node000008"><a xlink:title=" ">
<path fill="none" stroke="#63b8ff" d="M330.51,-105.9C353.04,-96.11 383.7,-82.79 403.54,-74.17"/>
<polygon fill="#63b8ff" stroke="#63b8ff" points="328.88,-102.79 321.1,-109.98 331.67,-109.21 328.88,-102.79"/>
</a>
</g>
</g>
<!-- Node9 -->
<g id="Node000009" class="node">
<title>Node9</title>
<g id="a_Node000009"><a xlink:href="rotating__file__writer_8cpp.html" target="_top" xlink:title=" ">
<polygon fill="white" stroke="#666666" points="487.5,-19 359.5,-19 359.5,0 487.5,0 487.5,-19"/>
<text text-anchor="middle" x="423.5" y="-7" font-family="Helvetica,sans-Serif" font-size="10.00">rotating_file_writer.cpp</text>
</a>
</g>
</g>
<!-- Node8&#45;&gt;Node9 -->
<g id="edge8_Node000008_Node000009" class="edge">
<title>Node8&#45;&gt;Node9</title>
<g id="a_edge8_Node000008_Node000009"><a xlink:title=" ">
<path fill="none" stroke="#63b8ff" d="M423.5,-44.66C423.5,-35.93 423.5,-25.99 423.5,-19.09"/>
<polygon fill="#63b8ff" stroke="#63b8ff" points="420,-44.75 423.5,-54.75 427,-44.75 420,-44.75"/>
</a>
</g>
</g>
<!-- Node11&#45;&gt;Node12 -->
<g id="edge11_Node000011_Node000012" class="edge">
<title>Node11&#45;&gt;Node12</title>
<g id="a_edge11_Node000011_Node000012"><a xlink:title=" ">
<path fill="none" stroke="#63b8ff" d="M519.68,-101.1C524.97,-92.04 531.22,-81.37 535.48,-74.09"/>
<polygon fill="#63b8ff" stroke="#63b8ff" points="516.65,-99.35 514.62,-109.75 522.69,-102.88 516.65,-99.35"/>
</a>
</g>
</g>
<!-- Node14 -->
<g id="Node000014" class="node">
<title>Node14</title>
<g id="a_Node000014"><a xlink:href="network__writer_8cpp.html" target="_top" xlink:title=" ">
<polygon fill="white" stroke="#666666" points="706.5,-74 596.5,-74 596.5,-55 706.5,-55 706.5,-74"/>
<text text-anchor="middle" x="651.5" y="-62" font-family="Helvetica,sans-Serif" font-size="10.00">network_writer.cpp</text>
</a>
</g>
</g>
<!-- Node13&#45;&gt;Node14 -->
<g id="edge14_Node000013_Node000014" class="edge">
<title>Node13&#45;&gt;Node14</title>
<g id="a_edge14_Node000013_Node000014"><a xlink:title=" ">
<path fill="none" stroke="#63b8ff" d="M651.5,-99.66C651.5,-90.93 651.5,-80.99 651.5,-74.09"/>
<polygon fill="#63b8ff" stroke="#63b8ff" points="648,-99.75 651.5,-109.75 655,-99.75 648,-99.75"/>
</a>
</g>
</g>
</g>
</svg>
