<?xml version="1.0" encoding="UTF-8" standalone="no"?>
<!DOCTYPE svg PUBLIC "-//W3C//DTD SVG 1.1//EN"
 "http://www.w3.org/Graphics/SVG/1.1/DTD/svg11.dtd">
<!-- Generated by graphviz version 2.43.0 (0)
 -->
<!-- Title: base_writer.h Pages: 1 -->
<svg width="477pt" height="203pt"
 viewBox="0.00 0.00 477.43 203.00" xmlns="http://www.w3.org/2000/svg" xmlns:xlink="http://www.w3.org/1999/xlink">
<g id="graph0" class="graph" transform="scale(1 1) rotate(0) translate(4 199)">
<title>base_writer.h</title>
<!-- Node1 -->
<g id="Node000001" class="node">
<title>Node1</title>
<g id="a_Node000001"><a xlink:title=" ">
<polygon fill="#999999" stroke="#666666" points="295,-195 213,-195 213,-176 295,-176 295,-195"/>
<text text-anchor="middle" x="254" y="-183" font-family="Helvetica,sans-Serif" font-size="10.00">base_writer.h</text>
</a>
</g>
</g>
<!-- Node2 -->
<g id="Node000002" class="node">
<title>Node2</title>
<g id="a_Node000002"><a xlink:title=" ">
<polygon fill="#e0e0e0" stroke="#999999" points="215,-19 171,-19 171,0 215,0 215,-19"/>
<text text-anchor="middle" x="193" y="-7" font-family="Helvetica,sans-Serif" font-size="10.00">string</text>
</a>
</g>
</g>
<!-- Node1&#45;&gt;Node2 -->
<g id="edge1_Node000001_Node000002" class="edge">
<title>Node1&#45;&gt;Node2</title>
<g id="a_edge1_Node000001_Node000002"><a xlink:title=" ">
<path fill="none" stroke="#63b8ff" d="M213,-181.35C185.13,-176.82 150.16,-165.95 132,-140 105.66,-102.35 149.18,-51.54 175.39,-26.22"/>
<polygon fill="#63b8ff" stroke="#63b8ff" points="177.96,-28.6 182.87,-19.22 173.18,-23.49 177.96,-28.6"/>
</a>
</g>
</g>
<!-- Node3 -->
<g id="Node000003" class="node">
<title>Node3</title>
<g id="a_Node000003"><a xlink:title=" ">
<polygon fill="#e0e0e0" stroke="#999999" points="309,-74 259,-74 259,-55 309,-55 309,-74"/>
<text text-anchor="middle" x="284" y="-62" font-family="Helvetica,sans-Serif" font-size="10.00">chrono</text>
</a>
</g>
</g>
<!-- Node1&#45;&gt;Node3 -->
<g id="edge2_Node000001_Node000003" class="edge">
<title>Node1&#45;&gt;Node3</title>
<g id="a_edge2_Node000001_Node000003"><a xlink:title=" ">
<path fill="none" stroke="#63b8ff" d="M261.33,-176C268.13,-167.52 277.82,-153.8 282,-140 287.5,-121.84 287.36,-100.05 286.23,-84.73"/>
<polygon fill="#63b8ff" stroke="#63b8ff" points="289.68,-84.08 285.25,-74.46 282.71,-84.74 289.68,-84.08"/>
</a>
</g>
</g>
<!-- Node4 -->
<g id="Node000004" class="node">
<title>Node4</title>
<g id="a_Node000004"><a xlink:href="logger__interface_8h.html" target="_top" xlink:title=" ">
<polygon fill="white" stroke="#666666" points="114,-74 0,-74 0,-55 114,-55 114,-74"/>
<text text-anchor="middle" x="57" y="-62" font-family="Helvetica,sans-Serif" font-size="10.00">../logger_interface.h</text>
</a>
</g>
</g>
<!-- Node1&#45;&gt;Node4 -->
<g id="edge3_Node000001_Node000004" class="edge">
<title>Node1&#45;&gt;Node4</title>
<g id="a_edge3_Node000001_Node000004"><a xlink:title=" ">
<path fill="none" stroke="#63b8ff" d="M212.9,-181.27C179.19,-176.76 131.85,-165.94 99,-140 80.84,-125.66 69.22,-101.16 62.92,-84.2"/>
<polygon fill="#63b8ff" stroke="#63b8ff" points="66.08,-82.64 59.52,-74.32 59.46,-84.91 66.08,-82.64"/>
</a>
</g>
</g>
<!-- Node7 -->
<g id="Node000007" class="node">
<title>Node7</title>
<g id="a_Node000007"><a xlink:href="error__codes_8h.html" target="_top" xlink:title=" ">
<polygon fill="white" stroke="#666666" points="457,-74 365,-74 365,-55 457,-55 457,-74"/>
<text text-anchor="middle" x="411" y="-62" font-family="Helvetica,sans-Serif" font-size="10.00">../error_codes.h</text>
</a>
</g>
</g>
<!-- Node1&#45;&gt;Node7 -->
<g id="edge7_Node000001_Node000007" class="edge">
<title>Node1&#45;&gt;Node7</title>
<g id="a_edge7_Node000001_Node000007"><a xlink:title=" ">
<path fill="none" stroke="#63b8ff" d="M295.25,-181.76C350.27,-177.15 443.18,-165.7 464,-140 472.39,-129.64 469.63,-122.08 464,-110 458.17,-97.49 446.91,-87.25 436.25,-79.76"/>
<polygon fill="#63b8ff" stroke="#63b8ff" points="437.88,-76.64 427.58,-74.13 434.06,-82.51 437.88,-76.64"/>
</a>
</g>
</g>
<!-- Node10 -->
<g id="Node000010" class="node">
<title>Node10</title>
<g id="a_Node000010"><a xlink:href="log__writer__interface_8h.html" target="_top" xlink:title=" ">
<polygon fill="white" stroke="#666666" points="455,-140 329,-140 329,-110 455,-110 455,-140"/>
<text text-anchor="start" x="337" y="-128" font-family="Helvetica,sans-Serif" font-size="10.00">../interfaces/log_writer</text>
<text text-anchor="middle" x="392" y="-117" font-family="Helvetica,sans-Serif" font-size="10.00">_interface.h</text>
</a>
</g>
</g>
<!-- Node1&#45;&gt;Node10 -->
<g id="edge11_Node000001_Node000010" class="edge">
<title>Node1&#45;&gt;Node10</title>
<g id="a_edge11_Node000001_Node000010"><a xlink:title=" ">
<path fill="none" stroke="#63b8ff" d="M274.07,-175.99C293.75,-167.65 324.39,-154.66 349.5,-144.02"/>
<polygon fill="#63b8ff" stroke="#63b8ff" points="350.98,-147.19 358.82,-140.06 348.25,-140.74 350.98,-147.19"/>
</a>
</g>
</g>
<!-- Node11 -->
<g id="Node000011" class="node">
<title>Node11</title>
<g id="a_Node000011"><a xlink:href="log__entry_8h.html" target="_top" xlink:title=" ">
<polygon fill="white" stroke="#666666" points="272.5,-134.5 141.5,-134.5 141.5,-115.5 272.5,-115.5 272.5,-134.5"/>
<text text-anchor="middle" x="207" y="-122.5" font-family="Helvetica,sans-Serif" font-size="10.00">../interfaces/log_entry.h</text>
</a>
</g>
</g>
<!-- Node1&#45;&gt;Node11 -->
<g id="edge15_Node000001_Node000011" class="edge">
<title>Node1&#45;&gt;Node11</title>
<g id="a_edge15_Node000001_Node000011"><a xlink:title=" ">
<path fill="none" stroke="#63b8ff" d="M247.06,-175.87C240.05,-167.14 229.04,-153.43 220.33,-142.59"/>
<polygon fill="#63b8ff" stroke="#63b8ff" points="222.96,-140.27 213.96,-134.67 217.5,-144.66 222.96,-140.27"/>
</a>
</g>
</g>
<!-- Node4&#45;&gt;Node2 -->
<g id="edge6_Node000004_Node000002" class="edge">
<title>Node4&#45;&gt;Node2</title>
<g id="a_edge6_Node000004_Node000002"><a xlink:title=" ">
<path fill="none" stroke="#63b8ff" d="M78.85,-54.98C101.12,-46.3 135.9,-32.75 161.22,-22.88"/>
<polygon fill="#63b8ff" stroke="#63b8ff" points="162.71,-26.06 170.75,-19.17 160.16,-19.54 162.71,-26.06"/>
</a>
</g>
</g>
<!-- Node5 -->
<g id="Node000005" class="node">
<title>Node5</title>
<g id="a_Node000005"><a xlink:title=" ">
<polygon fill="#e0e0e0" stroke="#999999" points="126,-19 68,-19 68,0 126,0 126,-19"/>
<text text-anchor="middle" x="97" y="-7" font-family="Helvetica,sans-Serif" font-size="10.00">memory</text>
</a>
</g>
</g>
<!-- Node4&#45;&gt;Node5 -->
<g id="edge4_Node000004_Node000005" class="edge">
<title>Node4&#45;&gt;Node5</title>
<g id="a_edge4_Node000004_Node000005"><a xlink:title=" ">
<path fill="none" stroke="#63b8ff" d="M63.61,-54.75C69.26,-47.26 77.54,-36.28 84.45,-27.13"/>
<polygon fill="#63b8ff" stroke="#63b8ff" points="87.29,-29.18 90.52,-19.09 81.7,-24.96 87.29,-29.18"/>
</a>
</g>
</g>
<!-- Node6 -->
<g id="Node000006" class="node">
<title>Node6</title>
<g id="a_Node000006"><a xlink:title=" ">
<polygon fill="#e0e0e0" stroke="#999999" points="50,-19 2,-19 2,0 50,0 50,-19"/>
<text text-anchor="middle" x="26" y="-7" font-family="Helvetica,sans-Serif" font-size="10.00">mutex</text>
</a>
</g>
</g>
<!-- Node4&#45;&gt;Node6 -->
<g id="edge5_Node000004_Node000006" class="edge">
<title>Node4&#45;&gt;Node6</title>
<g id="a_edge5_Node000004_Node000006"><a xlink:title=" ">
<path fill="none" stroke="#63b8ff" d="M51.88,-54.75C47.64,-47.49 41.47,-36.95 36.22,-27.98"/>
<polygon fill="#63b8ff" stroke="#63b8ff" points="39.09,-25.95 31.02,-19.09 33.05,-29.49 39.09,-25.95"/>
</a>
</g>
</g>
<!-- Node7&#45;&gt;Node2 -->
<g id="edge8_Node000007_Node000002" class="edge">
<title>Node7&#45;&gt;Node2</title>
<g id="a_edge8_Node000007_Node000002"><a xlink:title=" ">
<path fill="none" stroke="#63b8ff" d="M375.97,-54.98C334.34,-44.86 265.45,-28.11 225.14,-18.31"/>
<polygon fill="#63b8ff" stroke="#63b8ff" points="225.84,-14.88 215.29,-15.92 224.18,-21.68 225.84,-14.88"/>
</a>
</g>
</g>
<!-- Node8 -->
<g id="Node000008" class="node">
<title>Node8</title>
<g id="a_Node000008"><a xlink:title=" ">
<polygon fill="#e0e0e0" stroke="#999999" points="328,-19 272,-19 272,0 328,0 328,-19"/>
<text text-anchor="middle" x="300" y="-7" font-family="Helvetica,sans-Serif" font-size="10.00">optional</text>
</a>
</g>
</g>
<!-- Node7&#45;&gt;Node8 -->
<g id="edge9_Node000007_Node000008" class="edge">
<title>Node7&#45;&gt;Node8</title>
<g id="a_edge9_Node000007_Node000008"><a xlink:title=" ">
<path fill="none" stroke="#63b8ff" d="M393.17,-54.98C375.39,-46.5 347.85,-33.35 327.32,-23.54"/>
<polygon fill="#63b8ff" stroke="#63b8ff" points="328.69,-20.32 318.16,-19.17 325.67,-26.64 328.69,-20.32"/>
</a>
</g>
</g>
<!-- Node9 -->
<g id="Node000009" class="node">
<title>Node9</title>
<g id="a_Node000009"><a xlink:title=" ">
<polygon fill="#e0e0e0" stroke="#999999" points="436.5,-19 385.5,-19 385.5,0 436.5,0 436.5,-19"/>
<text text-anchor="middle" x="411" y="-7" font-family="Helvetica,sans-Serif" font-size="10.00">variant</text>
</a>
</g>
</g>
<!-- Node7&#45;&gt;Node9 -->
<g id="edge10_Node000007_Node000009" class="edge">
<title>Node7&#45;&gt;Node9</title>
<g id="a_edge10_Node000007_Node000009"><a xlink:title=" ">
<path fill="none" stroke="#63b8ff" d="M411,-54.75C411,-47.8 411,-37.85 411,-29.13"/>
<polygon fill="#63b8ff" stroke="#63b8ff" points="414.5,-29.09 411,-19.09 407.5,-29.09 414.5,-29.09"/>
</a>
</g>
</g>
<!-- Node10&#45;&gt;Node2 -->
<g id="edge12_Node000010_Node000002" class="edge">
<title>Node10&#45;&gt;Node2</title>
<g id="a_edge12_Node000010_Node000002"><a xlink:title=" ">
<path fill="none" stroke="#63b8ff" d="M379.98,-109.75C366.35,-94.37 342.77,-70.06 318,-55 288.81,-37.25 251.48,-25.13 225.25,-18.08"/>
<polygon fill="#63b8ff" stroke="#63b8ff" points="225.99,-14.65 215.43,-15.53 224.24,-21.43 225.99,-14.65"/>
</a>
</g>
</g>
<!-- Node10&#45;&gt;Node3 -->
<g id="edge13_Node000010_Node000003" class="edge">
<title>Node10&#45;&gt;Node3</title>
<g id="a_edge13_Node000010_Node000003"><a xlink:title=" ">
<path fill="none" stroke="#63b8ff" d="M366.13,-109.99C348.76,-100.58 325.99,-88.24 308.83,-78.95"/>
<polygon fill="#63b8ff" stroke="#63b8ff" points="310.41,-75.82 299.95,-74.14 307.08,-81.98 310.41,-75.82"/>
</a>
</g>
</g>
<!-- Node10&#45;&gt;Node7 -->
<g id="edge14_Node000010_Node000007" class="edge">
<title>Node10&#45;&gt;Node7</title>
<g id="a_edge14_Node000010_Node000007"><a xlink:title=" ">
<path fill="none" stroke="#63b8ff" d="M396.6,-109.84C399.13,-102.04 402.31,-92.27 405.03,-83.89"/>
<polygon fill="#63b8ff" stroke="#63b8ff" points="408.39,-84.86 408.15,-74.27 401.74,-82.7 408.39,-84.86"/>
</a>
</g>
</g>
<!-- Node11&#45;&gt;Node2 -->
<g id="edge16_Node000011_Node000002" class="edge">
<title>Node11&#45;&gt;Node2</title>
<g id="a_edge16_Node000011_Node000002"><a xlink:title=" ">
<path fill="none" stroke="#63b8ff" d="M205.95,-115.47C203.7,-97.23 198.37,-54.07 195.3,-29.14"/>
<polygon fill="#63b8ff" stroke="#63b8ff" points="198.76,-28.63 194.06,-19.13 191.82,-29.48 198.76,-28.63"/>
</a>
</g>
</g>
<!-- Node11&#45;&gt;Node3 -->
<g id="edge17_Node000011_Node000003" class="edge">
<title>Node11&#45;&gt;Node3</title>
<g id="a_edge17_Node000011_Node000003"><a xlink:title=" ">
<path fill="none" stroke="#63b8ff" d="M218.36,-115.37C230.42,-106.21 249.7,-91.56 264.25,-80.51"/>
<polygon fill="#63b8ff" stroke="#63b8ff" points="266.75,-83 272.59,-74.17 262.51,-77.43 266.75,-83"/>
</a>
</g>
</g>
<!-- Node11&#45;&gt;Node4 -->
<g id="edge19_Node000011_Node000004" class="edge">
<title>Node11&#45;&gt;Node4</title>
<g id="a_edge19_Node000011_Node000004"><a xlink:title=" ">
<path fill="none" stroke="#63b8ff" d="M185.19,-115.49C159.75,-105.57 117.49,-89.09 88.49,-77.78"/>
<polygon fill="#63b8ff" stroke="#63b8ff" points="89.43,-74.39 78.84,-74.02 86.88,-80.91 89.43,-74.39"/>
</a>
</g>
</g>
<!-- Node11&#45;&gt;Node8 -->
<g id="edge18_Node000011_Node000008" class="edge">
<title>Node11&#45;&gt;Node8</title>
<g id="a_edge18_Node000011_Node000008"><a xlink:title=" ">
<path fill="none" stroke="#63b8ff" d="M211.32,-115.41C218.37,-101.82 233.26,-74.86 250,-55 259.04,-44.28 270.66,-33.78 280.43,-25.67"/>
<polygon fill="#63b8ff" stroke="#63b8ff" points="282.84,-28.23 288.42,-19.22 278.44,-22.78 282.84,-28.23"/>
</a>
</g>
</g>
</g>
</svg>
