<?xml version="1.0" encoding="UTF-8" standalone="no"?>
<!DOCTYPE svg PUBLIC "-//W3C//DTD SVG 1.1//EN"
 "http://www.w3.org/Graphics/SVG/1.1/DTD/svg11.dtd">
<!-- Generated by graphviz version 2.43.0 (0)
 -->
<!-- Title: basic_monitor.h Pages: 1 -->
<svg width="690pt" height="192pt"
 viewBox="0.00 0.00 689.50 192.00" xmlns="http://www.w3.org/2000/svg" xmlns:xlink="http://www.w3.org/1999/xlink">
<g id="graph0" class="graph" transform="scale(1 1) rotate(0) translate(4 188)">
<title>basic_monitor.h</title>
<!-- Node1 -->
<g id="Node000001" class="node">
<title>Node1</title>
<g id="a_Node000001"><a xlink:title="Basic monitoring implementation with no external dependencies.">
<polygon fill="#999999" stroke="#666666" points="426.5,-184 332.5,-184 332.5,-165 426.5,-165 426.5,-184"/>
<text text-anchor="middle" x="379.5" y="-172" font-family="Helvetica,sans-Serif" font-size="10.00">basic_monitor.h</text>
</a>
</g>
</g>
<!-- Node2 -->
<g id="Node000002" class="node">
<title>Node2</title>
<g id="a_Node000002"><a xlink:href="monitoring__interface_8h.html" target="_top" xlink:title="Abstract interface for monitoring and metrics collection.">
<polygon fill="white" stroke="#666666" points="313.5,-129 185.5,-129 185.5,-110 313.5,-110 313.5,-129"/>
<text text-anchor="middle" x="249.5" y="-117" font-family="Helvetica,sans-Serif" font-size="10.00">monitoring_interface.h</text>
</a>
</g>
</g>
<!-- Node1&#45;&gt;Node2 -->
<g id="edge1_Node000001_Node000002" class="edge">
<title>Node1&#45;&gt;Node2</title>
<g id="a_edge1_Node000001_Node000002"><a xlink:title=" ">
<path fill="none" stroke="#63b8ff" d="M358.61,-164.98C337.42,-156.34 304.37,-142.87 280.2,-133.02"/>
<polygon fill="#63b8ff" stroke="#63b8ff" points="281.35,-129.7 270.77,-129.17 278.71,-136.19 281.35,-129.7"/>
</a>
</g>
</g>
<!-- Node4 -->
<g id="Node000004" class="node">
<title>Node4</title>
<g id="a_Node000004"><a xlink:title=" ">
<polygon fill="#e0e0e0" stroke="#999999" points="93,-74 0,-74 0,-55 93,-55 93,-74"/>
<text text-anchor="middle" x="46.5" y="-62" font-family="Helvetica,sans-Serif" font-size="10.00">unordered_map</text>
</a>
</g>
</g>
<!-- Node1&#45;&gt;Node4 -->
<g id="edge15_Node000001_Node000004" class="edge">
<title>Node1&#45;&gt;Node4</title>
<g id="a_edge15_Node000001_Node000004"><a xlink:title=" ">
<path fill="none" stroke="#63b8ff" d="M332.12,-168.81C285.69,-163.15 213.49,-151.43 154.5,-129 121.74,-116.54 87.43,-94.6 66.5,-80.06"/>
<polygon fill="#63b8ff" stroke="#63b8ff" points="68.32,-77.06 58.13,-74.14 64.28,-82.78 68.32,-77.06"/>
</a>
</g>
</g>
<!-- Node5 -->
<g id="Node000005" class="node">
<title>Node5</title>
<g id="a_Node000005"><a xlink:title=" ">
<polygon fill="#e0e0e0" stroke="#999999" points="158,-74 111,-74 111,-55 158,-55 158,-74"/>
<text text-anchor="middle" x="134.5" y="-62" font-family="Helvetica,sans-Serif" font-size="10.00">vector</text>
</a>
</g>
</g>
<!-- Node1&#45;&gt;Node5 -->
<g id="edge14_Node000001_Node000005" class="edge">
<title>Node1&#45;&gt;Node5</title>
<g id="a_edge14_Node000001_Node000005"><a xlink:title=" ">
<path fill="none" stroke="#63b8ff" d="M332.44,-173.03C288.56,-170.45 223.07,-160.93 176.5,-129 160.18,-117.81 148.59,-98 141.77,-83.47"/>
<polygon fill="#63b8ff" stroke="#63b8ff" points="144.86,-81.8 137.66,-74.03 138.44,-84.59 144.86,-81.8"/>
</a>
</g>
</g>
<!-- Node6 -->
<g id="Node000006" class="node">
<title>Node6</title>
<g id="a_Node000006"><a xlink:title=" ">
<polygon fill="#e0e0e0" stroke="#999999" points="374.5,-74 324.5,-74 324.5,-55 374.5,-55 374.5,-74"/>
<text text-anchor="middle" x="349.5" y="-62" font-family="Helvetica,sans-Serif" font-size="10.00">chrono</text>
</a>
</g>
</g>
<!-- Node1&#45;&gt;Node6 -->
<g id="edge16_Node000001_Node000006" class="edge">
<title>Node1&#45;&gt;Node6</title>
<g id="a_edge16_Node000001_Node000006"><a xlink:title=" ">
<path fill="none" stroke="#63b8ff" d="M376.56,-164.68C373.62,-155.73 369.03,-141.47 365.5,-129 361.24,-113.94 356.93,-96.71 353.86,-84.01"/>
<polygon fill="#63b8ff" stroke="#63b8ff" points="357.24,-83.08 351.52,-74.17 350.43,-84.71 357.24,-83.08"/>
</a>
</g>
</g>
<!-- Node7 -->
<g id="Node000007" class="node">
<title>Node7</title>
<g id="a_Node000007"><a xlink:title=" ">
<polygon fill="#e0e0e0" stroke="#999999" points="442.5,-74 392.5,-74 392.5,-55 442.5,-55 442.5,-74"/>
<text text-anchor="middle" x="417.5" y="-62" font-family="Helvetica,sans-Serif" font-size="10.00">atomic</text>
</a>
</g>
</g>
<!-- Node1&#45;&gt;Node7 -->
<g id="edge13_Node000001_Node000007" class="edge">
<title>Node1&#45;&gt;Node7</title>
<g id="a_edge13_Node000001_Node000007"><a xlink:title=" ">
<path fill="none" stroke="#63b8ff" d="M381.78,-164.77C385.07,-152.44 391.53,-129.26 398.5,-110 401.72,-101.11 405.77,-91.44 409.31,-83.39"/>
<polygon fill="#63b8ff" stroke="#63b8ff" points="412.52,-84.8 413.42,-74.25 406.13,-81.94 412.52,-84.8"/>
</a>
</g>
</g>
<!-- Node11 -->
<g id="Node000011" class="node">
<title>Node11</title>
<g id="a_Node000011"><a xlink:title=" ">
<polygon fill="#e0e0e0" stroke="#999999" points="455.5,-129 407.5,-129 407.5,-110 455.5,-110 455.5,-129"/>
<text text-anchor="middle" x="431.5" y="-117" font-family="Helvetica,sans-Serif" font-size="10.00">mutex</text>
</a>
</g>
</g>
<!-- Node1&#45;&gt;Node11 -->
<g id="edge11_Node000001_Node000011" class="edge">
<title>Node1&#45;&gt;Node11</title>
<g id="a_edge11_Node000001_Node000011"><a xlink:title=" ">
<path fill="none" stroke="#63b8ff" d="M388.09,-164.75C395.66,-157.03 406.88,-145.6 416.01,-136.28"/>
<polygon fill="#63b8ff" stroke="#63b8ff" points="418.57,-138.68 423.07,-129.09 413.57,-133.78 418.57,-138.68"/>
</a>
</g>
</g>
<!-- Node12 -->
<g id="Node000012" class="node">
<title>Node12</title>
<g id="a_Node000012"><a xlink:title=" ">
<polygon fill="#e0e0e0" stroke="#999999" points="531.5,-129 473.5,-129 473.5,-110 531.5,-110 531.5,-129"/>
<text text-anchor="middle" x="502.5" y="-117" font-family="Helvetica,sans-Serif" font-size="10.00">memory</text>
</a>
</g>
</g>
<!-- Node1&#45;&gt;Node12 -->
<g id="edge12_Node000001_Node000012" class="edge">
<title>Node1&#45;&gt;Node12</title>
<g id="a_edge12_Node000001_Node000012"><a xlink:title=" ">
<path fill="none" stroke="#63b8ff" d="M399.26,-164.98C419.23,-156.38 450.3,-142.99 473.15,-133.15"/>
<polygon fill="#63b8ff" stroke="#63b8ff" points="474.58,-136.34 482.38,-129.17 471.81,-129.91 474.58,-136.34"/>
</a>
</g>
</g>
<!-- Node13 -->
<g id="Node000013" class="node">
<title>Node13</title>
<g id="a_Node000013"><a xlink:title=" ">
<polygon fill="#e0e0e0" stroke="#999999" points="613.5,-129 549.5,-129 549.5,-110 613.5,-110 613.5,-129"/>
<text text-anchor="middle" x="581.5" y="-117" font-family="Helvetica,sans-Serif" font-size="10.00">algorithm</text>
</a>
</g>
</g>
<!-- Node1&#45;&gt;Node13 -->
<g id="edge17_Node000001_Node000013" class="edge">
<title>Node1&#45;&gt;Node13</title>
<g id="a_edge17_Node000001_Node000013"><a xlink:title=" ">
<path fill="none" stroke="#63b8ff" d="M411.95,-164.98C446.66,-155.88 501.81,-141.41 539.73,-131.46"/>
<polygon fill="#63b8ff" stroke="#63b8ff" points="540.68,-134.83 549.46,-128.91 538.9,-128.06 540.68,-134.83"/>
</a>
</g>
</g>
<!-- Node14 -->
<g id="Node000014" class="node">
<title>Node14</title>
<g id="a_Node000014"><a xlink:title=" ">
<polygon fill="#e0e0e0" stroke="#999999" points="681.5,-129 631.5,-129 631.5,-110 681.5,-110 681.5,-129"/>
<text text-anchor="middle" x="656.5" y="-117" font-family="Helvetica,sans-Serif" font-size="10.00">cstdint</text>
</a>
</g>
</g>
<!-- Node1&#45;&gt;Node14 -->
<g id="edge18_Node000001_Node000014" class="edge">
<title>Node1&#45;&gt;Node14</title>
<g id="a_edge18_Node000001_Node000014"><a xlink:title=" ">
<path fill="none" stroke="#63b8ff" d="M426.72,-165.77C473.7,-157.88 548.07,-144.83 621.42,-129.12"/>
<polygon fill="#63b8ff" stroke="#63b8ff" points="622.25,-132.52 631.29,-126.99 620.78,-125.68 622.25,-132.52"/>
</a>
</g>
</g>
<!-- Node3 -->
<g id="Node000003" class="node">
<title>Node3</title>
<g id="a_Node000003"><a xlink:title=" ">
<polygon fill="#e0e0e0" stroke="#999999" points="212.5,-19 168.5,-19 168.5,0 212.5,0 212.5,-19"/>
<text text-anchor="middle" x="190.5" y="-7" font-family="Helvetica,sans-Serif" font-size="10.00">string</text>
</a>
</g>
</g>
<!-- Node2&#45;&gt;Node3 -->
<g id="edge2_Node000002_Node000003" class="edge">
<title>Node2&#45;&gt;Node3</title>
<g id="a_edge2_Node000002_Node000003"><a xlink:title=" ">
<path fill="none" stroke="#63b8ff" d="M237.97,-109.91C227.88,-101.77 213.61,-88.64 205.5,-74 197.86,-60.2 194.09,-42.63 192.25,-29.47"/>
<polygon fill="#63b8ff" stroke="#63b8ff" points="195.69,-28.78 191.07,-19.25 188.74,-29.59 195.69,-28.78"/>
</a>
</g>
</g>
<!-- Node2&#45;&gt;Node4 -->
<g id="edge3_Node000002_Node000004" class="edge">
<title>Node2&#45;&gt;Node4</title>
<g id="a_edge3_Node000002_Node000004"><a xlink:title=" ">
<path fill="none" stroke="#63b8ff" d="M216.88,-109.98C182.21,-100.93 127.24,-86.58 89.15,-76.64"/>
<polygon fill="#63b8ff" stroke="#63b8ff" points="89.93,-73.22 79.37,-74.08 88.16,-79.99 89.93,-73.22"/>
</a>
</g>
</g>
<!-- Node2&#45;&gt;Node5 -->
<g id="edge4_Node000002_Node000005" class="edge">
<title>Node2&#45;&gt;Node5</title>
<g id="a_edge4_Node000002_Node000005"><a xlink:title=" ">
<path fill="none" stroke="#63b8ff" d="M231.02,-109.98C212.52,-101.46 183.82,-88.23 162.52,-78.41"/>
<polygon fill="#63b8ff" stroke="#63b8ff" points="163.86,-75.18 153.31,-74.17 160.93,-81.53 163.86,-75.18"/>
</a>
</g>
</g>
<!-- Node2&#45;&gt;Node6 -->
<g id="edge5_Node000002_Node000006" class="edge">
<title>Node2&#45;&gt;Node6</title>
<g id="a_edge5_Node000002_Node000006"><a xlink:title=" ">
<path fill="none" stroke="#63b8ff" d="M265.57,-109.98C281.36,-101.61 305.72,-88.7 324.13,-78.95"/>
<polygon fill="#63b8ff" stroke="#63b8ff" points="325.94,-81.95 333.14,-74.17 322.67,-75.76 325.94,-81.95"/>
</a>
</g>
</g>
<!-- Node2&#45;&gt;Node7 -->
<g id="edge6_Node000002_Node000007" class="edge">
<title>Node2&#45;&gt;Node7</title>
<g id="a_edge6_Node000002_Node000007"><a xlink:title=" ">
<path fill="none" stroke="#63b8ff" d="M276.49,-109.98C305.37,-100.88 351.26,-86.4 382.8,-76.45"/>
<polygon fill="#63b8ff" stroke="#63b8ff" points="384.01,-79.74 392.49,-73.39 381.9,-73.06 384.01,-79.74"/>
</a>
</g>
</g>
<!-- Node8 -->
<g id="Node000008" class="node">
<title>Node8</title>
<g id="a_Node000008"><a xlink:href="error__codes_8h.html" target="_top" xlink:title=" ">
<polygon fill="white" stroke="#666666" points="306.5,-74 214.5,-74 214.5,-55 306.5,-55 306.5,-74"/>
<text text-anchor="middle" x="260.5" y="-62" font-family="Helvetica,sans-Serif" font-size="10.00">../error_codes.h</text>
</a>
</g>
</g>
<!-- Node2&#45;&gt;Node8 -->
<g id="edge7_Node000002_Node000008" class="edge">
<title>Node2&#45;&gt;Node8</title>
<g id="a_edge7_Node000002_Node000008"><a xlink:title=" ">
<path fill="none" stroke="#63b8ff" d="M251.32,-109.75C252.76,-102.8 254.82,-92.85 256.63,-84.13"/>
<polygon fill="#63b8ff" stroke="#63b8ff" points="260.11,-84.59 258.72,-74.09 253.26,-83.17 260.11,-84.59"/>
</a>
</g>
</g>
<!-- Node8&#45;&gt;Node3 -->
<g id="edge8_Node000008_Node000003" class="edge">
<title>Node8&#45;&gt;Node3</title>
<g id="a_edge8_Node000008_Node000003"><a xlink:title=" ">
<path fill="none" stroke="#63b8ff" d="M249.25,-54.98C238.7,-47 222.7,-34.88 210.06,-25.31"/>
<polygon fill="#63b8ff" stroke="#63b8ff" points="212.04,-22.42 201.95,-19.17 207.81,-28 212.04,-22.42"/>
</a>
</g>
</g>
<!-- Node9 -->
<g id="Node000009" class="node">
<title>Node9</title>
<g id="a_Node000009"><a xlink:title=" ">
<polygon fill="#e0e0e0" stroke="#999999" points="358.5,-19 302.5,-19 302.5,0 358.5,0 358.5,-19"/>
<text text-anchor="middle" x="330.5" y="-7" font-family="Helvetica,sans-Serif" font-size="10.00">optional</text>
</a>
</g>
</g>
<!-- Node8&#45;&gt;Node9 -->
<g id="edge9_Node000008_Node000009" class="edge">
<title>Node8&#45;&gt;Node9</title>
<g id="a_edge9_Node000008_Node000009"><a xlink:title=" ">
<path fill="none" stroke="#63b8ff" d="M271.75,-54.98C282.3,-47 298.3,-34.88 310.94,-25.31"/>
<polygon fill="#63b8ff" stroke="#63b8ff" points="313.19,-28 319.05,-19.17 308.96,-22.42 313.19,-28"/>
</a>
</g>
</g>
<!-- Node10 -->
<g id="Node000010" class="node">
<title>Node10</title>
<g id="a_Node000010"><a xlink:title=" ">
<polygon fill="#e0e0e0" stroke="#999999" points="284,-19 233,-19 233,0 284,0 284,-19"/>
<text text-anchor="middle" x="258.5" y="-7" font-family="Helvetica,sans-Serif" font-size="10.00">variant</text>
</a>
</g>
</g>
<!-- Node8&#45;&gt;Node10 -->
<g id="edge10_Node000008_Node000010" class="edge">
<title>Node8&#45;&gt;Node10</title>
<g id="a_edge10_Node000008_Node000010"><a xlink:title=" ">
<path fill="none" stroke="#63b8ff" d="M260.17,-54.75C259.91,-47.8 259.53,-37.85 259.2,-29.13"/>
<polygon fill="#63b8ff" stroke="#63b8ff" points="262.7,-28.95 258.82,-19.09 255.7,-29.21 262.7,-28.95"/>
</a>
</g>
</g>
</g>
</svg>
