<?xml version="1.0" encoding="UTF-8" standalone="no"?>
<!DOCTYPE svg PUBLIC "-//W3C//DTD SVG 1.1//EN"
 "http://www.w3.org/Graphics/SVG/1.1/DTD/svg11.dtd">
<!-- Generated by graphviz version 2.43.0 (0)
 -->
<!-- Title: /home/runner/work/logger_system/logger_system/sources/logger/monitoring/basic_monitor.h Pages: 1 -->
<svg width="430pt" height="467pt"
 viewBox="0.00 0.00 430.00 467.00" xmlns="http://www.w3.org/2000/svg" xmlns:xlink="http://www.w3.org/1999/xlink">
<g id="graph0" class="graph" transform="scale(1 1) rotate(0) translate(4 463)">
<title>/home/runner/work/logger_system/logger_system/sources/logger/monitoring/basic_monitor.h</title>
<!-- Node1 -->
<g id="Node000001" class="node">
<title>Node1</title>
<g id="a_Node000001"><a xlink:title="Basic monitoring implementation with no external dependencies.">
<polygon fill="#999999" stroke="#666666" points="238,-459 51,-459 51,-418 238,-418 238,-459"/>
<text text-anchor="start" x="59" y="-447" font-family="Helvetica,sans-Serif" font-size="10.00">/home/runner/work/logger</text>
<text text-anchor="start" x="59" y="-436" font-family="Helvetica,sans-Serif" font-size="10.00">_system/logger_system/sources</text>
<text text-anchor="middle" x="144.5" y="-425" font-family="Helvetica,sans-Serif" font-size="10.00">/logger/monitoring/basic_monitor.h</text>
</a>
</g>
</g>
<!-- Node2 -->
<g id="Node000002" class="node">
<title>Node2</title>
<g id="a_Node000002"><a xlink:href="monitoring__factory_8h.html" target="_top" xlink:title="Factory for creating appropriate monitoring implementations.">
<polygon fill="white" stroke="#666666" points="231,-294 58,-294 58,-242 231,-242 231,-294"/>
<text text-anchor="start" x="66" y="-282" font-family="Helvetica,sans-Serif" font-size="10.00">/home/runner/work/logger</text>
<text text-anchor="start" x="66" y="-271" font-family="Helvetica,sans-Serif" font-size="10.00">_system/logger_system/sources</text>
<text text-anchor="start" x="66" y="-260" font-family="Helvetica,sans-Serif" font-size="10.00">/logger/monitoring/monitoring</text>
<text text-anchor="middle" x="144.5" y="-249" font-family="Helvetica,sans-Serif" font-size="10.00">_factory.h</text>
</a>
</g>
</g>
<!-- Node1&#45;&gt;Node2 -->
<g id="edge1_Node000001_Node000002" class="edge">
<title>Node1&#45;&gt;Node2</title>
<g id="a_edge1_Node000001_Node000002"><a xlink:title=" ">
<path fill="none" stroke="#63b8ff" d="M119.53,-409.94C113.41,-401.56 107.7,-391.92 104.5,-382 97.4,-360.01 97.89,-352.14 104.5,-330 108.34,-317.14 115.86,-304.47 123.35,-294.04"/>
<polygon fill="#63b8ff" stroke="#63b8ff" points="116.8,-412.14 125.7,-417.88 122.32,-407.84 116.8,-412.14"/>
</a>
</g>
</g>
<!-- Node7 -->
<g id="Node000007" class="node">
<title>Node7</title>
<g id="a_Node000007"><a xlink:href="thread__system__monitor__adapter_8h.html" target="_top" xlink:title="Adapter for thread_system&#39;s monitoring capabilities.">
<polygon fill="white" stroke="#666666" points="295.5,-382 113.5,-382 113.5,-330 295.5,-330 295.5,-382"/>
<text text-anchor="start" x="121.5" y="-370" font-family="Helvetica,sans-Serif" font-size="10.00">/home/runner/work/logger</text>
<text text-anchor="start" x="121.5" y="-359" font-family="Helvetica,sans-Serif" font-size="10.00">_system/logger_system/sources</text>
<text text-anchor="start" x="121.5" y="-348" font-family="Helvetica,sans-Serif" font-size="10.00">/logger/monitoring/thread_system</text>
<text text-anchor="middle" x="204.5" y="-337" font-family="Helvetica,sans-Serif" font-size="10.00">_monitor_adapter.h</text>
</a>
</g>
</g>
<!-- Node1&#45;&gt;Node7 -->
<g id="edge7_Node000001_Node000007" class="edge">
<title>Node1&#45;&gt;Node7</title>
<g id="a_edge7_Node000001_Node000007"><a xlink:title=" ">
<path fill="none" stroke="#63b8ff" d="M165.42,-409.43C172.04,-400.55 179.3,-390.81 185.75,-382.16"/>
<polygon fill="#63b8ff" stroke="#63b8ff" points="162.5,-407.49 159.33,-417.6 168.11,-411.67 162.5,-407.49"/>
</a>
</g>
</g>
<!-- Node3 -->
<g id="Node000003" class="node">
<title>Node3</title>
<g id="a_Node000003"><a xlink:href="logger_8h.html" target="_top" xlink:title="High&#45;performance, thread&#45;safe logging system with asynchronous capabilities.">
<polygon fill="white" stroke="#666666" points="231,-206 58,-206 58,-165 231,-165 231,-206"/>
<text text-anchor="start" x="66" y="-194" font-family="Helvetica,sans-Serif" font-size="10.00">/home/runner/work/logger</text>
<text text-anchor="start" x="66" y="-183" font-family="Helvetica,sans-Serif" font-size="10.00">_system/logger_system/sources</text>
<text text-anchor="middle" x="144.5" y="-172" font-family="Helvetica,sans-Serif" font-size="10.00">/logger/logger.h</text>
</a>
</g>
</g>
<!-- Node2&#45;&gt;Node3 -->
<g id="edge2_Node000002_Node000003" class="edge">
<title>Node2&#45;&gt;Node3</title>
<g id="a_edge2_Node000002_Node000003"><a xlink:title=" ">
<path fill="none" stroke="#63b8ff" d="M144.5,-231.87C144.5,-223.05 144.5,-213.9 144.5,-206.15"/>
<polygon fill="#63b8ff" stroke="#63b8ff" points="141,-231.97 144.5,-241.97 148,-231.97 141,-231.97"/>
</a>
</g>
</g>
<!-- Node4 -->
<g id="Node000004" class="node">
<title>Node4</title>
<g id="a_Node000004"><a xlink:href="logger__v1__compat_8h.html" target="_top" xlink:title="Compatibility wrapper for Logger System v1.x API.">
<polygon fill="white" stroke="#666666" points="173,-52 0,-52 0,0 173,0 173,-52"/>
<text text-anchor="start" x="8" y="-40" font-family="Helvetica,sans-Serif" font-size="10.00">/home/runner/work/logger</text>
<text text-anchor="start" x="8" y="-29" font-family="Helvetica,sans-Serif" font-size="10.00">_system/logger_system/sources</text>
<text text-anchor="start" x="8" y="-18" font-family="Helvetica,sans-Serif" font-size="10.00">/logger/compatibility/logger</text>
<text text-anchor="middle" x="86.5" y="-7" font-family="Helvetica,sans-Serif" font-size="10.00">_v1_compat.h</text>
</a>
</g>
</g>
<!-- Node3&#45;&gt;Node4 -->
<g id="edge3_Node000003_Node000004" class="edge">
<title>Node3&#45;&gt;Node4</title>
<g id="a_edge3_Node000003_Node000004"><a xlink:title=" ">
<path fill="none" stroke="#63b8ff" d="M80.09,-159.81C67.48,-151.92 55.89,-141.8 48.5,-129 34.33,-104.45 49.82,-73.65 65.06,-52.35"/>
<polygon fill="#63b8ff" stroke="#63b8ff" points="78.53,-162.95 88.94,-164.92 82.03,-156.89 78.53,-162.95"/>
</a>
</g>
</g>
<!-- Node5 -->
<g id="Node000005" class="node">
<title>Node5</title>
<g id="a_Node000005"><a xlink:href="logger__builder_8h.html" target="_top" xlink:title="Builder pattern implementation for flexible logger configuration.">
<polygon fill="white" stroke="#666666" points="231,-129 58,-129 58,-88 231,-88 231,-129"/>
<text text-anchor="start" x="66" y="-117" font-family="Helvetica,sans-Serif" font-size="10.00">/home/runner/work/logger</text>
<text text-anchor="start" x="66" y="-106" font-family="Helvetica,sans-Serif" font-size="10.00">_system/logger_system/sources</text>
<text text-anchor="middle" x="144.5" y="-95" font-family="Helvetica,sans-Serif" font-size="10.00">/logger/config/logger_builder.h</text>
</a>
</g>
</g>
<!-- Node3&#45;&gt;Node5 -->
<g id="edge4_Node000003_Node000005" class="edge">
<title>Node3&#45;&gt;Node5</title>
<g id="a_edge4_Node000003_Node000005"><a xlink:title=" ">
<path fill="none" stroke="#63b8ff" d="M144.5,-154.69C144.5,-146.08 144.5,-136.9 144.5,-129.07"/>
<polygon fill="#63b8ff" stroke="#63b8ff" points="141,-154.79 144.5,-164.79 148,-154.79 141,-154.79"/>
</a>
</g>
</g>
<!-- Node6 -->
<g id="Node000006" class="node">
<title>Node6</title>
<g id="a_Node000006"><a xlink:href="logger_8cpp.html" target="_top" xlink:title=" ">
<polygon fill="white" stroke="#666666" points="422,-129 249,-129 249,-88 422,-88 422,-129"/>
<text text-anchor="start" x="257" y="-117" font-family="Helvetica,sans-Serif" font-size="10.00">/home/runner/work/logger</text>
<text text-anchor="start" x="257" y="-106" font-family="Helvetica,sans-Serif" font-size="10.00">_system/logger_system/sources</text>
<text text-anchor="middle" x="335.5" y="-95" font-family="Helvetica,sans-Serif" font-size="10.00">/logger/logger.cpp</text>
</a>
</g>
</g>
<!-- Node3&#45;&gt;Node6 -->
<g id="edge6_Node000003_Node000006" class="edge">
<title>Node3&#45;&gt;Node6</title>
<g id="a_edge6_Node000003_Node000006"><a xlink:title=" ">
<path fill="none" stroke="#63b8ff" d="M203.67,-161.27C229.98,-150.94 260.62,-138.9 285.73,-129.04"/>
<polygon fill="#63b8ff" stroke="#63b8ff" points="202.21,-158.08 194.18,-164.99 204.77,-164.59 202.21,-158.08"/>
</a>
</g>
</g>
<!-- Node5&#45;&gt;Node4 -->
<g id="edge5_Node000005_Node000004" class="edge">
<title>Node5&#45;&gt;Node4</title>
<g id="a_edge5_Node000005_Node000004"><a xlink:title=" ">
<path fill="none" stroke="#63b8ff" d="M124.27,-79.43C117.88,-70.55 110.86,-60.81 104.62,-52.16"/>
<polygon fill="#63b8ff" stroke="#63b8ff" points="121.48,-81.53 130.16,-87.6 127.16,-77.44 121.48,-81.53"/>
</a>
</g>
</g>
<!-- Node7&#45;&gt;Node2 -->
<g id="edge8_Node000007_Node000002" class="edge">
<title>Node7&#45;&gt;Node2</title>
<g id="a_edge8_Node000007_Node000002"><a xlink:title=" ">
<path fill="none" stroke="#63b8ff" d="M180.95,-321.24C174.65,-312.22 167.96,-302.63 162.05,-294.16"/>
<polygon fill="#63b8ff" stroke="#63b8ff" points="178.23,-323.46 186.82,-329.66 183.97,-319.46 178.23,-323.46"/>
</a>
</g>
</g>
</g>
</svg>
