<?xml version="1.0" encoding="UTF-8" standalone="no"?>
<!DOCTYPE svg PUBLIC "-//W3C//DTD SVG 1.1//EN"
 "http://www.w3.org/Graphics/SVG/1.1/DTD/svg11.dtd">
<!-- Generated by graphviz version 2.43.0 (0)
 -->
<!-- Title: /home/runner/work/logger_system/logger_system/sources/logger/monitoring/basic_monitor.h Pages: 1 -->
<svg width="690pt" height="225pt"
 viewBox="0.00 0.00 689.50 225.00" xmlns="http://www.w3.org/2000/svg" xmlns:xlink="http://www.w3.org/1999/xlink">
<g id="graph0" class="graph" transform="scale(1 1) rotate(0) translate(4 221)">
<title>/home/runner/work/logger_system/logger_system/sources/logger/monitoring/basic_monitor.h</title>
<!-- Node1 -->
<g id="Node000001" class="node">
<title>Node1</title>
<g id="a_Node000001"><a xlink:title="Basic monitoring implementation with no external dependencies.">
<polygon fill="#999999" stroke="#666666" points="473,-217 286,-217 286,-176 473,-176 473,-217"/>
<text text-anchor="start" x="294" y="-205" font-family="Helvetica,sans-Serif" font-size="10.00">/home/runner/work/logger</text>
<text text-anchor="start" x="294" y="-194" font-family="Helvetica,sans-Serif" font-size="10.00">_system/logger_system/sources</text>
<text text-anchor="middle" x="379.5" y="-183" font-family="Helvetica,sans-Serif" font-size="10.00">/logger/monitoring/basic_monitor.h</text>
</a>
</g>
</g>
<!-- Node2 -->
<g id="Node000002" class="node">
<title>Node2</title>
<g id="a_Node000002"><a xlink:href="monitoring__interface_8h.html" target="_top" xlink:title="Abstract interface for monitoring and metrics collection.">
<polygon fill="white" stroke="#666666" points="313.5,-140 185.5,-140 185.5,-121 313.5,-121 313.5,-140"/>
<text text-anchor="middle" x="249.5" y="-128" font-family="Helvetica,sans-Serif" font-size="10.00">monitoring_interface.h</text>
</a>
</g>
</g>
<!-- Node1&#45;&gt;Node2 -->
<g id="edge1_Node000001_Node000002" class="edge">
<title>Node1&#45;&gt;Node2</title>
<g id="a_edge1_Node000001_Node000002"><a xlink:title=" ">
<path fill="none" stroke="#63b8ff" d="M339.79,-175.95C319.16,-165.79 294.49,-153.65 276.16,-144.63"/>
<polygon fill="#63b8ff" stroke="#63b8ff" points="277.47,-141.37 266.95,-140.09 274.38,-147.65 277.47,-141.37"/>
</a>
</g>
</g>
<!-- Node4 -->
<g id="Node000004" class="node">
<title>Node4</title>
<g id="a_Node000004"><a xlink:title=" ">
<polygon fill="#e0e0e0" stroke="#999999" points="93,-85 0,-85 0,-66 93,-66 93,-85"/>
<text text-anchor="middle" x="46.5" y="-73" font-family="Helvetica,sans-Serif" font-size="10.00">unordered_map</text>
</a>
</g>
</g>
<!-- Node1&#45;&gt;Node4 -->
<g id="edge16_Node000001_Node000004" class="edge">
<title>Node1&#45;&gt;Node4</title>
<g id="a_edge16_Node000001_Node000004"><a xlink:title=" ">
<path fill="none" stroke="#63b8ff" d="M285.81,-178.52C244.94,-169.53 196.99,-156.82 155.5,-140 122.97,-126.81 88.45,-105.25 67.18,-90.96"/>
<polygon fill="#63b8ff" stroke="#63b8ff" points="68.89,-87.89 58.65,-85.15 64.94,-93.68 68.89,-87.89"/>
</a>
</g>
</g>
<!-- Node5 -->
<g id="Node000005" class="node">
<title>Node5</title>
<g id="a_Node000005"><a xlink:title=" ">
<polygon fill="#e0e0e0" stroke="#999999" points="158,-85 111,-85 111,-66 158,-66 158,-85"/>
<text text-anchor="middle" x="134.5" y="-73" font-family="Helvetica,sans-Serif" font-size="10.00">vector</text>
</a>
</g>
</g>
<!-- Node1&#45;&gt;Node5 -->
<g id="edge15_Node000001_Node000005" class="edge">
<title>Node1&#45;&gt;Node5</title>
<g id="a_edge15_Node000001_Node000005"><a xlink:title=" ">
<path fill="none" stroke="#63b8ff" d="M285.94,-184.39C249.2,-176.51 208.31,-163.03 176.5,-140 160.65,-128.52 149.08,-109.08 142.15,-94.73"/>
<polygon fill="#63b8ff" stroke="#63b8ff" points="145.23,-93.03 137.92,-85.36 138.85,-95.91 145.23,-93.03"/>
</a>
</g>
</g>
<!-- Node6 -->
<g id="Node000006" class="node">
<title>Node6</title>
<g id="a_Node000006"><a xlink:title=" ">
<polygon fill="#e0e0e0" stroke="#999999" points="374.5,-85 324.5,-85 324.5,-66 374.5,-66 374.5,-85"/>
<text text-anchor="middle" x="349.5" y="-73" font-family="Helvetica,sans-Serif" font-size="10.00">chrono</text>
</a>
</g>
</g>
<!-- Node1&#45;&gt;Node6 -->
<g id="edge17_Node000001_Node000006" class="edge">
<title>Node1&#45;&gt;Node6</title>
<g id="a_edge17_Node000001_Node000006"><a xlink:title=" ">
<path fill="none" stroke="#63b8ff" d="M374.57,-175.98C371.89,-165.34 368.51,-151.95 365.5,-140 361.67,-124.82 357.34,-107.61 354.14,-94.93"/>
<polygon fill="#63b8ff" stroke="#63b8ff" points="357.51,-93.97 351.67,-85.13 350.72,-95.68 357.51,-93.97"/>
</a>
</g>
</g>
<!-- Node7 -->
<g id="Node000007" class="node">
<title>Node7</title>
<g id="a_Node000007"><a xlink:title=" ">
<polygon fill="#e0e0e0" stroke="#999999" points="442.5,-85 392.5,-85 392.5,-66 442.5,-66 442.5,-85"/>
<text text-anchor="middle" x="417.5" y="-73" font-family="Helvetica,sans-Serif" font-size="10.00">atomic</text>
</a>
</g>
</g>
<!-- Node1&#45;&gt;Node7 -->
<g id="edge14_Node000001_Node000007" class="edge">
<title>Node1&#45;&gt;Node7</title>
<g id="a_edge14_Node000001_Node000007"><a xlink:title=" ">
<path fill="none" stroke="#63b8ff" d="M383.62,-175.97C387.02,-160.8 392.29,-139.33 398.5,-121 401.53,-112.05 405.57,-102.37 409.14,-94.33"/>
<polygon fill="#63b8ff" stroke="#63b8ff" points="412.34,-95.76 413.31,-85.21 405.97,-92.85 412.34,-95.76"/>
</a>
</g>
</g>
<!-- Node12 -->
<g id="Node000012" class="node">
<title>Node12</title>
<g id="a_Node000012"><a xlink:title=" ">
<polygon fill="#e0e0e0" stroke="#999999" points="455.5,-140 407.5,-140 407.5,-121 455.5,-121 455.5,-140"/>
<text text-anchor="middle" x="431.5" y="-128" font-family="Helvetica,sans-Serif" font-size="10.00">mutex</text>
</a>
</g>
</g>
<!-- Node1&#45;&gt;Node12 -->
<g id="edge12_Node000001_Node000012" class="edge">
<title>Node1&#45;&gt;Node12</title>
<g id="a_edge12_Node000001_Node000012"><a xlink:title=" ">
<path fill="none" stroke="#63b8ff" d="M395.38,-175.95C402.57,-167.11 410.97,-156.77 417.86,-148.29"/>
<polygon fill="#63b8ff" stroke="#63b8ff" points="420.79,-150.23 424.38,-140.26 415.36,-145.81 420.79,-150.23"/>
</a>
</g>
</g>
<!-- Node13 -->
<g id="Node000013" class="node">
<title>Node13</title>
<g id="a_Node000013"><a xlink:title=" ">
<polygon fill="#e0e0e0" stroke="#999999" points="531.5,-140 473.5,-140 473.5,-121 531.5,-121 531.5,-140"/>
<text text-anchor="middle" x="502.5" y="-128" font-family="Helvetica,sans-Serif" font-size="10.00">memory</text>
</a>
</g>
</g>
<!-- Node1&#45;&gt;Node13 -->
<g id="edge13_Node000001_Node000013" class="edge">
<title>Node1&#45;&gt;Node13</title>
<g id="a_edge13_Node000001_Node000013"><a xlink:title=" ">
<path fill="none" stroke="#63b8ff" d="M417.07,-175.95C436.51,-165.84 459.71,-153.76 477.03,-144.75"/>
<polygon fill="#63b8ff" stroke="#63b8ff" points="478.73,-147.81 485.99,-140.09 475.5,-141.6 478.73,-147.81"/>
</a>
</g>
</g>
<!-- Node14 -->
<g id="Node000014" class="node">
<title>Node14</title>
<g id="a_Node000014"><a xlink:title=" ">
<polygon fill="#e0e0e0" stroke="#999999" points="613.5,-140 549.5,-140 549.5,-121 613.5,-121 613.5,-140"/>
<text text-anchor="middle" x="581.5" y="-128" font-family="Helvetica,sans-Serif" font-size="10.00">algorithm</text>
</a>
</g>
</g>
<!-- Node1&#45;&gt;Node14 -->
<g id="edge18_Node000001_Node000014" class="edge">
<title>Node1&#45;&gt;Node14</title>
<g id="a_edge18_Node000001_Node000014"><a xlink:title=" ">
<path fill="none" stroke="#63b8ff" d="M441.2,-175.95C475.14,-165.2 516.09,-152.22 544.97,-143.07"/>
<polygon fill="#63b8ff" stroke="#63b8ff" points="546.17,-146.36 554.65,-140.01 544.06,-139.69 546.17,-146.36"/>
</a>
</g>
</g>
<!-- Node15 -->
<g id="Node000015" class="node">
<title>Node15</title>
<g id="a_Node000015"><a xlink:title=" ">
<polygon fill="#e0e0e0" stroke="#999999" points="681.5,-140 631.5,-140 631.5,-121 681.5,-121 681.5,-140"/>
<text text-anchor="middle" x="656.5" y="-128" font-family="Helvetica,sans-Serif" font-size="10.00">cstdint</text>
</a>
</g>
</g>
<!-- Node1&#45;&gt;Node15 -->
<g id="edge19_Node000001_Node000015" class="edge">
<title>Node1&#45;&gt;Node15</title>
<g id="a_edge19_Node000001_Node000015"><a xlink:title=" ">
<path fill="none" stroke="#63b8ff" d="M467.05,-175.96C510.79,-166.09 564.77,-153.74 621.41,-140.23"/>
<polygon fill="#63b8ff" stroke="#63b8ff" points="622.35,-143.6 631.26,-137.87 620.72,-136.79 622.35,-143.6"/>
</a>
</g>
</g>
<!-- Node3 -->
<g id="Node000003" class="node">
<title>Node3</title>
<g id="a_Node000003"><a xlink:title=" ">
<polygon fill="#e0e0e0" stroke="#999999" points="208.5,-24.5 164.5,-24.5 164.5,-5.5 208.5,-5.5 208.5,-24.5"/>
<text text-anchor="middle" x="186.5" y="-12.5" font-family="Helvetica,sans-Serif" font-size="10.00">string</text>
</a>
</g>
</g>
<!-- Node2&#45;&gt;Node3 -->
<g id="edge2_Node000002_Node000003" class="edge">
<title>Node2&#45;&gt;Node3</title>
<g id="a_edge2_Node000002_Node000003"><a xlink:title=" ">
<path fill="none" stroke="#63b8ff" d="M238.1,-120.83C228.1,-112.65 213.87,-99.48 205.5,-85 196.47,-69.38 191.57,-49.29 189.02,-34.81"/>
<polygon fill="#63b8ff" stroke="#63b8ff" points="192.43,-33.96 187.45,-24.61 185.51,-35.02 192.43,-33.96"/>
</a>
</g>
</g>
<!-- Node2&#45;&gt;Node4 -->
<g id="edge3_Node000002_Node000004" class="edge">
<title>Node2&#45;&gt;Node4</title>
<g id="a_edge3_Node000002_Node000004"><a xlink:title=" ">
<path fill="none" stroke="#63b8ff" d="M216.88,-120.98C182.21,-111.93 127.24,-97.58 89.15,-87.64"/>
<polygon fill="#63b8ff" stroke="#63b8ff" points="89.93,-84.22 79.37,-85.08 88.16,-90.99 89.93,-84.22"/>
</a>
</g>
</g>
<!-- Node2&#45;&gt;Node5 -->
<g id="edge4_Node000002_Node000005" class="edge">
<title>Node2&#45;&gt;Node5</title>
<g id="a_edge4_Node000002_Node000005"><a xlink:title=" ">
<path fill="none" stroke="#63b8ff" d="M231.02,-120.98C212.52,-112.46 183.82,-99.23 162.52,-89.41"/>
<polygon fill="#63b8ff" stroke="#63b8ff" points="163.86,-86.18 153.31,-85.17 160.93,-92.53 163.86,-86.18"/>
</a>
</g>
</g>
<!-- Node2&#45;&gt;Node6 -->
<g id="edge5_Node000002_Node000006" class="edge">
<title>Node2&#45;&gt;Node6</title>
<g id="a_edge5_Node000002_Node000006"><a xlink:title=" ">
<path fill="none" stroke="#63b8ff" d="M265.57,-120.98C281.36,-112.61 305.72,-99.7 324.13,-89.95"/>
<polygon fill="#63b8ff" stroke="#63b8ff" points="325.94,-92.95 333.14,-85.17 322.67,-86.76 325.94,-92.95"/>
</a>
</g>
</g>
<!-- Node2&#45;&gt;Node7 -->
<g id="edge6_Node000002_Node000007" class="edge">
<title>Node2&#45;&gt;Node7</title>
<g id="a_edge6_Node000002_Node000007"><a xlink:title=" ">
<path fill="none" stroke="#63b8ff" d="M276.49,-120.98C305.37,-111.88 351.26,-97.4 382.8,-87.45"/>
<polygon fill="#63b8ff" stroke="#63b8ff" points="384.01,-90.74 392.49,-84.39 381.9,-84.06 384.01,-90.74"/>
</a>
</g>
</g>
<!-- Node8 -->
<g id="Node000008" class="node">
<title>Node8</title>
<g id="a_Node000008"><a xlink:href="error__codes_8h.html" target="_top" xlink:title=" ">
<polygon fill="white" stroke="#666666" points="306.5,-85 214.5,-85 214.5,-66 306.5,-66 306.5,-85"/>
<text text-anchor="middle" x="260.5" y="-73" font-family="Helvetica,sans-Serif" font-size="10.00">../error_codes.h</text>
</a>
</g>
</g>
<!-- Node2&#45;&gt;Node8 -->
<g id="edge7_Node000002_Node000008" class="edge">
<title>Node2&#45;&gt;Node8</title>
<g id="a_edge7_Node000002_Node000008"><a xlink:title=" ">
<path fill="none" stroke="#63b8ff" d="M251.32,-120.75C252.76,-113.8 254.82,-103.85 256.63,-95.13"/>
<polygon fill="#63b8ff" stroke="#63b8ff" points="260.11,-95.59 258.72,-85.09 253.26,-94.17 260.11,-95.59"/>
</a>
</g>
</g>
<!-- Node8&#45;&gt;Node3 -->
<g id="edge8_Node000008_Node000003" class="edge">
<title>Node8&#45;&gt;Node3</title>
<g id="a_edge8_Node000008_Node000003"><a xlink:title=" ">
<path fill="none" stroke="#63b8ff" d="M249.58,-65.87C237.99,-56.71 219.47,-42.06 205.48,-31.01"/>
<polygon fill="#63b8ff" stroke="#63b8ff" points="207.48,-28.12 197.46,-24.67 203.14,-33.61 207.48,-28.12"/>
</a>
</g>
</g>
<!-- Node9 -->
<g id="Node000009" class="node">
<title>Node9</title>
<g id="a_Node000009"><a xlink:title=" ">
<polygon fill="#e0e0e0" stroke="#999999" points="292,-24.5 227,-24.5 227,-5.5 292,-5.5 292,-24.5"/>
<text text-anchor="middle" x="259.5" y="-12.5" font-family="Helvetica,sans-Serif" font-size="10.00">stdexcept</text>
</a>
</g>
</g>
<!-- Node8&#45;&gt;Node9 -->
<g id="edge9_Node000008_Node000009" class="edge">
<title>Node8&#45;&gt;Node9</title>
<g id="a_edge9_Node000008_Node000009"><a xlink:title=" ">
<path fill="none" stroke="#63b8ff" d="M260.35,-65.87C260.21,-57.75 260,-45.31 259.82,-34.89"/>
<polygon fill="#63b8ff" stroke="#63b8ff" points="263.32,-34.61 259.65,-24.67 256.32,-34.73 263.32,-34.61"/>
</a>
</g>
</g>
<!-- Node10 -->
<g id="Node000010" class="node">
<title>Node10</title>
<g id="a_Node000010"><a xlink:title=" ">
<polygon fill="#e0e0e0" stroke="#999999" points="355,-24.5 310,-24.5 310,-5.5 355,-5.5 355,-24.5"/>
<text text-anchor="middle" x="332.5" y="-12.5" font-family="Helvetica,sans-Serif" font-size="10.00">utility</text>
</a>
</g>
</g>
<!-- Node8&#45;&gt;Node10 -->
<g id="edge10_Node000008_Node000010" class="edge">
<title>Node8&#45;&gt;Node10</title>
<g id="a_edge10_Node000008_Node000010"><a xlink:title=" ">
<path fill="none" stroke="#63b8ff" d="M271.12,-65.87C282.4,-56.71 300.42,-42.06 314.03,-31.01"/>
<polygon fill="#63b8ff" stroke="#63b8ff" points="316.28,-33.69 321.83,-24.67 311.86,-28.26 316.28,-33.69"/>
</a>
</g>
</g>
<!-- Node11 -->
<g id="Node000011" class="node">
<title>Node11</title>
<g id="a_Node000011"><a xlink:title=" ">
<polygon fill="#e0e0e0" stroke="#999999" points="501.5,-30 373.5,-30 373.5,0 501.5,0 501.5,-30"/>
<text text-anchor="start" x="381.5" y="-18" font-family="Helvetica,sans-Serif" font-size="10.00">thread_base/sync/error</text>
<text text-anchor="middle" x="437.5" y="-7" font-family="Helvetica,sans-Serif" font-size="10.00">_handling.h</text>
</a>
</g>
</g>
<!-- Node8&#45;&gt;Node11 -->
<g id="edge11_Node000008_Node000011" class="edge">
<title>Node8&#45;&gt;Node11</title>
<g id="a_edge11_Node000008_Node000011"><a xlink:title=" ">
<path fill="none" stroke="#63b8ff" d="M286.24,-65.99C312.04,-57.46 352.52,-44.09 385.11,-33.32"/>
<polygon fill="#63b8ff" stroke="#63b8ff" points="386.55,-36.53 394.95,-30.06 384.35,-29.88 386.55,-36.53"/>
</a>
</g>
</g>
</g>
</svg>
