<?xml version="1.0" encoding="UTF-8" standalone="no"?>
<!DOCTYPE svg PUBLIC "-//W3C//DTD SVG 1.1//EN"
 "http://www.w3.org/Graphics/SVG/1.1/DTD/svg11.dtd">
<!-- Generated by graphviz version 2.43.0 (0)
 -->
<!-- Title: batch_writer.cpp Pages: 1 -->
<svg width="755pt" height="313pt"
 viewBox="0.00 0.00 754.50 313.00" xmlns="http://www.w3.org/2000/svg" xmlns:xlink="http://www.w3.org/1999/xlink">
<g id="graph0" class="graph" transform="scale(1 1) rotate(0) translate(4 309)">
<title>batch_writer.cpp</title>
<!-- Node1 -->
<g id="Node000001" class="node">
<title>Node1</title>
<g id="a_Node000001"><a xlink:title=" ">
<polygon fill="#999999" stroke="#666666" points="471.5,-305 374.5,-305 374.5,-286 471.5,-286 471.5,-305"/>
<text text-anchor="middle" x="423" y="-293" font-family="Helvetica,sans-Serif" font-size="10.00">batch_writer.cpp</text>
</a>
</g>
</g>
<!-- Node2 -->
<g id="Node000002" class="node">
<title>Node2</title>
<g id="a_Node000002"><a xlink:href="batch__writer_8h.html" target="_top" xlink:title=" ">
<polygon fill="white" stroke="#666666" points="311,-250 225,-250 225,-231 311,-231 311,-250"/>
<text text-anchor="middle" x="268" y="-238" font-family="Helvetica,sans-Serif" font-size="10.00">batch_writer.h</text>
</a>
</g>
</g>
<!-- Node1&#45;&gt;Node2 -->
<g id="edge1_Node000001_Node000002" class="edge">
<title>Node1&#45;&gt;Node2</title>
<g id="a_edge1_Node000001_Node000002"><a xlink:title=" ">
<path fill="none" stroke="#63b8ff" d="M398.1,-285.98C372.3,-277.16 331.78,-263.31 302.82,-253.41"/>
<polygon fill="#63b8ff" stroke="#63b8ff" points="303.69,-250.01 293.1,-250.08 301.43,-256.63 303.69,-250.01"/>
</a>
</g>
</g>
<!-- Node19 -->
<g id="Node000019" class="node">
<title>Node19</title>
<g id="a_Node000019"><a xlink:title=" ">
<polygon fill="#e0e0e0" stroke="#999999" points="456,-19 392,-19 392,0 456,0 456,-19"/>
<text text-anchor="middle" x="424" y="-7" font-family="Helvetica,sans-Serif" font-size="10.00">algorithm</text>
</a>
</g>
</g>
<!-- Node1&#45;&gt;Node19 -->
<g id="edge37_Node000001_Node000019" class="edge">
<title>Node1&#45;&gt;Node19</title>
<g id="a_edge37_Node000001_Node000019"><a xlink:title=" ">
<path fill="none" stroke="#63b8ff" d="M443.31,-285.87C496.49,-261.91 633.06,-191.01 593,-110 568.55,-60.55 507.36,-33.84 465.73,-20.89"/>
<polygon fill="#63b8ff" stroke="#63b8ff" points="466.7,-17.53 456.12,-18.04 464.71,-24.24 466.7,-17.53"/>
</a>
</g>
</g>
<!-- Node3 -->
<g id="Node000003" class="node">
<title>Node3</title>
<g id="a_Node000003"><a xlink:href="base__writer_8h.html" target="_top" xlink:title=" ">
<polygon fill="white" stroke="#666666" points="464,-195 382,-195 382,-176 464,-176 464,-195"/>
<text text-anchor="middle" x="423" y="-183" font-family="Helvetica,sans-Serif" font-size="10.00">base_writer.h</text>
</a>
</g>
</g>
<!-- Node2&#45;&gt;Node3 -->
<g id="edge2_Node000002_Node000003" class="edge">
<title>Node2&#45;&gt;Node3</title>
<g id="a_edge2_Node000002_Node000003"><a xlink:title=" ">
<path fill="none" stroke="#63b8ff" d="M292.9,-230.98C318.7,-222.16 359.22,-208.31 388.18,-198.41"/>
<polygon fill="#63b8ff" stroke="#63b8ff" points="389.57,-201.63 397.9,-195.08 387.31,-195.01 389.57,-201.63"/>
</a>
</g>
</g>
<!-- Node5 -->
<g id="Node000005" class="node">
<title>Node5</title>
<g id="a_Node000005"><a xlink:title=" ">
<polygon fill="#e0e0e0" stroke="#999999" points="460,-74 410,-74 410,-55 460,-55 460,-74"/>
<text text-anchor="middle" x="435" y="-62" font-family="Helvetica,sans-Serif" font-size="10.00">chrono</text>
</a>
</g>
</g>
<!-- Node2&#45;&gt;Node5 -->
<g id="edge35_Node000002_Node000005" class="edge">
<title>Node2&#45;&gt;Node5</title>
<g id="a_edge35_Node000002_Node000005"><a xlink:title=" ">
<path fill="none" stroke="#63b8ff" d="M283.94,-230.92C298.21,-222.78 319.26,-209.65 335,-195 372.96,-159.66 407.64,-108.86 424.41,-82.63"/>
<polygon fill="#63b8ff" stroke="#63b8ff" points="427.38,-84.47 429.75,-74.15 421.46,-80.74 427.38,-84.47"/>
</a>
</g>
</g>
<!-- Node7 -->
<g id="Node000007" class="node">
<title>Node7</title>
<g id="a_Node000007"><a xlink:title=" ">
<polygon fill="#e0e0e0" stroke="#999999" points="150,-19 92,-19 92,0 150,0 150,-19"/>
<text text-anchor="middle" x="121" y="-7" font-family="Helvetica,sans-Serif" font-size="10.00">memory</text>
</a>
</g>
</g>
<!-- Node2&#45;&gt;Node7 -->
<g id="edge33_Node000002_Node000007" class="edge">
<title>Node2&#45;&gt;Node7</title>
<g id="a_edge33_Node000002_Node000007"><a xlink:title=" ">
<path fill="none" stroke="#63b8ff" d="M246.44,-231C200.43,-211.48 93.67,-158.53 55,-74 45.22,-52.62 68.76,-34.75 90.39,-23.47"/>
<polygon fill="#63b8ff" stroke="#63b8ff" points="91.99,-26.58 99.44,-19.05 88.92,-20.29 91.99,-26.58"/>
</a>
</g>
</g>
<!-- Node8 -->
<g id="Node000008" class="node">
<title>Node8</title>
<g id="a_Node000008"><a xlink:title=" ">
<polygon fill="#e0e0e0" stroke="#999999" points="48,-19 0,-19 0,0 48,0 48,-19"/>
<text text-anchor="middle" x="24" y="-7" font-family="Helvetica,sans-Serif" font-size="10.00">mutex</text>
</a>
</g>
</g>
<!-- Node2&#45;&gt;Node8 -->
<g id="edge34_Node000002_Node000008" class="edge">
<title>Node2&#45;&gt;Node8</title>
<g id="a_edge34_Node000002_Node000008"><a xlink:title=" ">
<path fill="none" stroke="#63b8ff" d="M229.78,-230.94C184.81,-218.78 111.42,-191.94 73,-140 47.36,-105.34 33.59,-55.67 27.65,-29.04"/>
<polygon fill="#63b8ff" stroke="#63b8ff" points="31.05,-28.22 25.57,-19.15 24.2,-29.66 31.05,-28.22"/>
</a>
</g>
</g>
<!-- Node15 -->
<g id="Node000015" class="node">
<title>Node15</title>
<g id="a_Node000015"><a xlink:href="log__entry_8h.html" target="_top" xlink:title=" ">
<polygon fill="white" stroke="#666666" points="325.5,-134.5 194.5,-134.5 194.5,-115.5 325.5,-115.5 325.5,-134.5"/>
<text text-anchor="middle" x="260" y="-122.5" font-family="Helvetica,sans-Serif" font-size="10.00">../interfaces/log_entry.h</text>
</a>
</g>
</g>
<!-- Node2&#45;&gt;Node15 -->
<g id="edge31_Node000002_Node000015" class="edge">
<title>Node2&#45;&gt;Node15</title>
<g id="a_edge31_Node000002_Node000015"><a xlink:title=" ">
<path fill="none" stroke="#63b8ff" d="M245.22,-230.89C229.97,-223.79 211.08,-212.08 202,-195 190.67,-173.7 214.03,-153.03 234.4,-139.95"/>
<polygon fill="#63b8ff" stroke="#63b8ff" points="236.38,-142.84 243.12,-134.67 232.76,-136.86 236.38,-142.84"/>
</a>
</g>
</g>
<!-- Node20 -->
<g id="Node000020" class="node">
<title>Node20</title>
<g id="a_Node000020"><a xlink:title=" ">
<polygon fill="#e0e0e0" stroke="#999999" points="257.5,-195 210.5,-195 210.5,-176 257.5,-176 257.5,-195"/>
<text text-anchor="middle" x="234" y="-183" font-family="Helvetica,sans-Serif" font-size="10.00">vector</text>
</a>
</g>
</g>
<!-- Node2&#45;&gt;Node20 -->
<g id="edge32_Node000002_Node000020" class="edge">
<title>Node2&#45;&gt;Node20</title>
<g id="a_edge32_Node000002_Node000020"><a xlink:title=" ">
<path fill="none" stroke="#63b8ff" d="M262.39,-230.75C257.68,-223.42 250.83,-212.73 245.03,-203.7"/>
<polygon fill="#63b8ff" stroke="#63b8ff" points="247.86,-201.62 239.51,-195.09 241.96,-205.4 247.86,-201.62"/>
</a>
</g>
</g>
<!-- Node21 -->
<g id="Node000021" class="node">
<title>Node21</title>
<g id="a_Node000021"><a xlink:title=" ">
<polygon fill="#e0e0e0" stroke="#999999" points="326,-195 276,-195 276,-176 326,-176 326,-195"/>
<text text-anchor="middle" x="301" y="-183" font-family="Helvetica,sans-Serif" font-size="10.00">atomic</text>
</a>
</g>
</g>
<!-- Node2&#45;&gt;Node21 -->
<g id="edge36_Node000002_Node000021" class="edge">
<title>Node2&#45;&gt;Node21</title>
<g id="a_edge36_Node000002_Node000021"><a xlink:title=" ">
<path fill="none" stroke="#63b8ff" d="M273.45,-230.75C278.01,-223.42 284.67,-212.73 290.29,-203.7"/>
<polygon fill="#63b8ff" stroke="#63b8ff" points="293.34,-205.43 295.65,-195.09 287.4,-201.73 293.34,-205.43"/>
</a>
</g>
</g>
<!-- Node4 -->
<g id="Node000004" class="node">
<title>Node4</title>
<g id="a_Node000004"><a xlink:title=" ">
<polygon fill="#e0e0e0" stroke="#999999" points="374,-19 330,-19 330,0 374,0 374,-19"/>
<text text-anchor="middle" x="352" y="-7" font-family="Helvetica,sans-Serif" font-size="10.00">string</text>
</a>
</g>
</g>
<!-- Node3&#45;&gt;Node4 -->
<g id="edge3_Node000003_Node000004" class="edge">
<title>Node3&#45;&gt;Node4</title>
<g id="a_edge3_Node000003_Node000004"><a xlink:title=" ">
<path fill="none" stroke="#63b8ff" d="M425.57,-175.59C429.77,-161.42 438.69,-133 449,-110 456.49,-93.3 464.41,-91.72 469,-74 471.12,-65.83 473.79,-61.95 469,-55 463.9,-47.6 416.55,-31.19 383.68,-20.5"/>
<polygon fill="#63b8ff" stroke="#63b8ff" points="384.6,-17.12 374,-17.38 382.45,-23.78 384.6,-17.12"/>
</a>
</g>
</g>
<!-- Node3&#45;&gt;Node5 -->
<g id="edge4_Node000003_Node000005" class="edge">
<title>Node3&#45;&gt;Node5</title>
<g id="a_edge4_Node000003_Node000005"><a xlink:title=" ">
<path fill="none" stroke="#63b8ff" d="M420.51,-175.69C416.92,-161.66 411.21,-133.42 416,-110 417.89,-100.74 421.79,-91.03 425.57,-83.04"/>
<polygon fill="#63b8ff" stroke="#63b8ff" points="428.74,-84.53 430.12,-74.02 422.49,-81.37 428.74,-84.53"/>
</a>
</g>
</g>
<!-- Node6 -->
<g id="Node000006" class="node">
<title>Node6</title>
<g id="a_Node000006"><a xlink:href="logger__interface_8h.html" target="_top" xlink:title=" ">
<polygon fill="white" stroke="#666666" points="178,-74 64,-74 64,-55 178,-55 178,-74"/>
<text text-anchor="middle" x="121" y="-62" font-family="Helvetica,sans-Serif" font-size="10.00">../logger_interface.h</text>
</a>
</g>
</g>
<!-- Node3&#45;&gt;Node6 -->
<g id="edge5_Node000003_Node000006" class="edge">
<title>Node3&#45;&gt;Node6</title>
<g id="a_edge5_Node000003_Node000006"><a xlink:title=" ">
<path fill="none" stroke="#63b8ff" d="M381.88,-180.07C323.17,-173.19 218.8,-158.76 186,-140 161.86,-126.2 142.24,-100.03 131.09,-82.67"/>
<polygon fill="#63b8ff" stroke="#63b8ff" points="134.02,-80.75 125.79,-74.07 128.06,-84.42 134.02,-80.75"/>
</a>
</g>
</g>
<!-- Node9 -->
<g id="Node000009" class="node">
<title>Node9</title>
<g id="a_Node000009"><a xlink:href="error__codes_8h.html" target="_top" xlink:title=" ">
<polygon fill="white" stroke="#666666" points="694,-74 602,-74 602,-55 694,-55 694,-74"/>
<text text-anchor="middle" x="648" y="-62" font-family="Helvetica,sans-Serif" font-size="10.00">../error_codes.h</text>
</a>
</g>
</g>
<!-- Node3&#45;&gt;Node9 -->
<g id="edge9_Node000003_Node000009" class="edge">
<title>Node3&#45;&gt;Node9</title>
<g id="a_edge9_Node000003_Node000009"><a xlink:title=" ">
<path fill="none" stroke="#63b8ff" d="M464.29,-181.44C500.83,-177.03 554.23,-166.27 593,-140 614.25,-125.6 630.39,-100.19 639.52,-83.09"/>
<polygon fill="#63b8ff" stroke="#63b8ff" points="642.67,-84.64 644.08,-74.14 636.43,-81.46 642.67,-84.64"/>
</a>
</g>
</g>
<!-- Node14 -->
<g id="Node000014" class="node">
<title>Node14</title>
<g id="a_Node000014"><a xlink:href="log__writer__interface_8h.html" target="_top" xlink:title=" ">
<polygon fill="white" stroke="#666666" points="584,-140 458,-140 458,-110 584,-110 584,-140"/>
<text text-anchor="start" x="466" y="-128" font-family="Helvetica,sans-Serif" font-size="10.00">../interfaces/log_writer</text>
<text text-anchor="middle" x="521" y="-117" font-family="Helvetica,sans-Serif" font-size="10.00">_interface.h</text>
</a>
</g>
</g>
<!-- Node3&#45;&gt;Node14 -->
<g id="edge15_Node000003_Node000014" class="edge">
<title>Node3&#45;&gt;Node14</title>
<g id="a_edge15_Node000003_Node000014"><a xlink:title=" ">
<path fill="none" stroke="#63b8ff" d="M437.46,-175.87C450.88,-167.86 471.33,-155.65 488.64,-145.31"/>
<polygon fill="#63b8ff" stroke="#63b8ff" points="490.56,-148.25 497.36,-140.11 486.97,-142.23 490.56,-148.25"/>
</a>
</g>
</g>
<!-- Node3&#45;&gt;Node15 -->
<g id="edge19_Node000003_Node000015" class="edge">
<title>Node3&#45;&gt;Node15</title>
<g id="a_edge19_Node000003_Node000015"><a xlink:title=" ">
<path fill="none" stroke="#63b8ff" d="M399.3,-175.99C371.41,-165.99 324.93,-149.3 293.4,-137.99"/>
<polygon fill="#63b8ff" stroke="#63b8ff" points="294.32,-134.6 283.73,-134.52 291.96,-141.19 294.32,-134.6"/>
</a>
</g>
</g>
<!-- Node6&#45;&gt;Node4 -->
<g id="edge8_Node000006_Node000004" class="edge">
<title>Node6&#45;&gt;Node4</title>
<g id="a_edge8_Node000006_Node000004"><a xlink:title=" ">
<path fill="none" stroke="#63b8ff" d="M161.51,-54.93C201.8,-46.3 265.32,-32.37 320,-19 320.1,-18.98 320.2,-18.95 320.3,-18.93"/>
<polygon fill="#63b8ff" stroke="#63b8ff" points="321.16,-22.32 330,-16.47 319.44,-15.53 321.16,-22.32"/>
</a>
</g>
</g>
<!-- Node6&#45;&gt;Node7 -->
<g id="edge6_Node000006_Node000007" class="edge">
<title>Node6&#45;&gt;Node7</title>
<g id="a_edge6_Node000006_Node000007"><a xlink:title=" ">
<path fill="none" stroke="#63b8ff" d="M121,-54.75C121,-47.8 121,-37.85 121,-29.13"/>
<polygon fill="#63b8ff" stroke="#63b8ff" points="124.5,-29.09 121,-19.09 117.5,-29.09 124.5,-29.09"/>
</a>
</g>
</g>
<!-- Node6&#45;&gt;Node8 -->
<g id="edge7_Node000006_Node000008" class="edge">
<title>Node6&#45;&gt;Node8</title>
<g id="a_edge7_Node000006_Node000008"><a xlink:title=" ">
<path fill="none" stroke="#63b8ff" d="M105.42,-54.98C90.23,-46.69 66.9,-33.94 49.1,-24.22"/>
<polygon fill="#63b8ff" stroke="#63b8ff" points="50.32,-20.89 39.87,-19.17 46.97,-27.04 50.32,-20.89"/>
</a>
</g>
</g>
<!-- Node9&#45;&gt;Node4 -->
<g id="edge10_Node000009_Node000004" class="edge">
<title>Node9&#45;&gt;Node4</title>
<g id="a_edge10_Node000009_Node000004"><a xlink:title=" ">
<path fill="none" stroke="#63b8ff" d="M601.77,-57.19C550.75,-49.9 466.02,-36.84 384.24,-19.09"/>
<polygon fill="#63b8ff" stroke="#63b8ff" points="384.8,-15.63 374.28,-16.9 383.3,-22.47 384.8,-15.63"/>
</a>
</g>
</g>
<!-- Node10 -->
<g id="Node000010" class="node">
<title>Node10</title>
<g id="a_Node000010"><a xlink:title=" ">
<polygon fill="#e0e0e0" stroke="#999999" points="677.5,-19 612.5,-19 612.5,0 677.5,0 677.5,-19"/>
<text text-anchor="middle" x="645" y="-7" font-family="Helvetica,sans-Serif" font-size="10.00">stdexcept</text>
</a>
</g>
</g>
<!-- Node9&#45;&gt;Node10 -->
<g id="edge11_Node000009_Node000010" class="edge">
<title>Node9&#45;&gt;Node10</title>
<g id="a_edge11_Node000009_Node000010"><a xlink:title=" ">
<path fill="none" stroke="#63b8ff" d="M647.5,-54.75C647.11,-47.8 646.55,-37.85 646.05,-29.13"/>
<polygon fill="#63b8ff" stroke="#63b8ff" points="649.55,-28.88 645.49,-19.09 642.56,-29.27 649.55,-28.88"/>
</a>
</g>
</g>
<!-- Node11 -->
<g id="Node000011" class="node">
<title>Node11</title>
<g id="a_Node000011"><a xlink:title=" ">
<polygon fill="#e0e0e0" stroke="#999999" points="519.5,-19 474.5,-19 474.5,0 519.5,0 519.5,-19"/>
<text text-anchor="middle" x="497" y="-7" font-family="Helvetica,sans-Serif" font-size="10.00">utility</text>
</a>
</g>
</g>
<!-- Node9&#45;&gt;Node11 -->
<g id="edge12_Node000009_Node000011" class="edge">
<title>Node9&#45;&gt;Node11</title>
<g id="a_edge12_Node000009_Node000011"><a xlink:title=" ">
<path fill="none" stroke="#63b8ff" d="M623.74,-54.98C598.09,-45.98 557.49,-31.73 529.18,-21.79"/>
<polygon fill="#63b8ff" stroke="#63b8ff" points="530.31,-18.48 519.72,-18.47 528,-25.09 530.31,-18.48"/>
</a>
</g>
</g>
<!-- Node12 -->
<g id="Node000012" class="node">
<title>Node12</title>
<g id="a_Node000012"><a xlink:title=" ">
<polygon fill="#e0e0e0" stroke="#999999" points="594,-19 538,-19 538,0 594,0 594,-19"/>
<text text-anchor="middle" x="566" y="-7" font-family="Helvetica,sans-Serif" font-size="10.00">optional</text>
</a>
</g>
</g>
<!-- Node9&#45;&gt;Node12 -->
<g id="edge13_Node000009_Node000012" class="edge">
<title>Node9&#45;&gt;Node12</title>
<g id="a_edge13_Node000009_Node000012"><a xlink:title=" ">
<path fill="none" stroke="#63b8ff" d="M634.83,-54.98C622.23,-46.84 603,-34.41 588.06,-24.76"/>
<polygon fill="#63b8ff" stroke="#63b8ff" points="589.71,-21.66 579.41,-19.17 585.91,-27.54 589.71,-21.66"/>
</a>
</g>
</g>
<!-- Node13 -->
<g id="Node000013" class="node">
<title>Node13</title>
<g id="a_Node000013"><a xlink:title=" ">
<polygon fill="#e0e0e0" stroke="#999999" points="746.5,-19 695.5,-19 695.5,0 746.5,0 746.5,-19"/>
<text text-anchor="middle" x="721" y="-7" font-family="Helvetica,sans-Serif" font-size="10.00">variant</text>
</a>
</g>
</g>
<!-- Node9&#45;&gt;Node13 -->
<g id="edge14_Node000009_Node000013" class="edge">
<title>Node9&#45;&gt;Node13</title>
<g id="a_edge14_Node000009_Node000013"><a xlink:title=" ">
<path fill="none" stroke="#63b8ff" d="M659.73,-54.98C670.73,-47 687.42,-34.88 700.6,-25.31"/>
<polygon fill="#63b8ff" stroke="#63b8ff" points="703.02,-27.88 709.06,-19.17 698.91,-22.21 703.02,-27.88"/>
</a>
</g>
</g>
<!-- Node14&#45;&gt;Node4 -->
<g id="edge16_Node000014_Node000004" class="edge">
<title>Node14&#45;&gt;Node4</title>
<g id="a_edge16_Node000014_Node000004"><a xlink:title=" ">
<path fill="none" stroke="#63b8ff" d="M520.96,-109.87C520.14,-94.37 516.44,-69.73 502,-55 499.87,-52.83 427.27,-31.91 383.87,-19.54"/>
<polygon fill="#63b8ff" stroke="#63b8ff" points="384.62,-16.11 374.05,-16.74 382.71,-22.85 384.62,-16.11"/>
</a>
</g>
</g>
<!-- Node14&#45;&gt;Node5 -->
<g id="edge17_Node000014_Node000005" class="edge">
<title>Node14&#45;&gt;Node5</title>
<g id="a_edge17_Node000014_Node000005"><a xlink:title=" ">
<path fill="none" stroke="#63b8ff" d="M500.18,-109.84C486.85,-100.77 469.61,-89.04 456.21,-79.92"/>
<polygon fill="#63b8ff" stroke="#63b8ff" points="457.87,-76.83 447.63,-74.09 453.93,-82.61 457.87,-76.83"/>
</a>
</g>
</g>
<!-- Node14&#45;&gt;Node9 -->
<g id="edge18_Node000014_Node000009" class="edge">
<title>Node14&#45;&gt;Node9</title>
<g id="a_edge18_Node000014_Node000009"><a xlink:title=" ">
<path fill="none" stroke="#63b8ff" d="M551.42,-109.99C572.23,-100.4 599.62,-87.79 619.91,-78.44"/>
<polygon fill="#63b8ff" stroke="#63b8ff" points="621.63,-81.5 629.24,-74.14 618.7,-75.14 621.63,-81.5"/>
</a>
</g>
</g>
<!-- Node15&#45;&gt;Node4 -->
<g id="edge20_Node000015_Node000004" class="edge">
<title>Node15&#45;&gt;Node4</title>
<g id="a_edge20_Node000015_Node000004"><a xlink:title=" ">
<path fill="none" stroke="#63b8ff" d="M275.23,-115.45C289.7,-106.67 311.23,-91.79 325,-74 335.42,-60.53 342.6,-42.43 346.92,-29.01"/>
<polygon fill="#63b8ff" stroke="#63b8ff" points="350.39,-29.61 349.88,-19.03 343.68,-27.62 350.39,-29.61"/>
</a>
</g>
</g>
<!-- Node15&#45;&gt;Node5 -->
<g id="edge21_Node000015_Node000005" class="edge">
<title>Node15&#45;&gt;Node5</title>
<g id="a_edge21_Node000015_Node000005"><a xlink:title=" ">
<path fill="none" stroke="#63b8ff" d="M285.45,-115.49C315.73,-105.37 366.45,-88.42 400.31,-77.1"/>
<polygon fill="#63b8ff" stroke="#63b8ff" points="401.43,-80.41 409.81,-73.92 399.21,-73.77 401.43,-80.41"/>
</a>
</g>
</g>
<!-- Node15&#45;&gt;Node6 -->
<g id="edge30_Node000015_Node000006" class="edge">
<title>Node15&#45;&gt;Node6</title>
<g id="a_edge30_Node000015_Node000006"><a xlink:title=" ">
<path fill="none" stroke="#63b8ff" d="M239.79,-115.49C216.32,-105.62 177.39,-89.23 150.54,-77.93"/>
<polygon fill="#63b8ff" stroke="#63b8ff" points="151.81,-74.67 141.24,-74.02 149.1,-81.12 151.81,-74.67"/>
</a>
</g>
</g>
<!-- Node15&#45;&gt;Node12 -->
<g id="edge22_Node000015_Node000012" class="edge">
<title>Node15&#45;&gt;Node12</title>
<g id="a_edge22_Node000015_Node000012"><a xlink:title=" ">
<path fill="none" stroke="#63b8ff" d="M275.22,-115.34C300.62,-101.17 353.55,-72.82 401,-55 424.11,-46.32 486.89,-30.12 528,-19.85"/>
<polygon fill="#63b8ff" stroke="#63b8ff" points="529.09,-23.18 537.95,-17.37 527.4,-16.39 529.09,-23.18"/>
</a>
</g>
</g>
<!-- Node16 -->
<g id="Node000016" class="node">
<title>Node16</title>
<g id="a_Node000016"><a xlink:href="small__string_8h.html" target="_top" xlink:title=" ">
<polygon fill="white" stroke="#666666" points="315.5,-74 196.5,-74 196.5,-55 315.5,-55 315.5,-74"/>
<text text-anchor="middle" x="256" y="-62" font-family="Helvetica,sans-Serif" font-size="10.00">../core/small_string.h</text>
</a>
</g>
</g>
<!-- Node15&#45;&gt;Node16 -->
<g id="edge23_Node000015_Node000016" class="edge">
<title>Node15&#45;&gt;Node16</title>
<g id="a_edge23_Node000015_Node000016"><a xlink:title=" ">
<path fill="none" stroke="#63b8ff" d="M259.41,-115.37C258.85,-107.25 258,-94.81 257.29,-84.39"/>
<polygon fill="#63b8ff" stroke="#63b8ff" points="260.77,-83.91 256.59,-74.17 253.78,-84.38 260.77,-83.91"/>
</a>
</g>
</g>
<!-- Node16&#45;&gt;Node4 -->
<g id="edge25_Node000016_Node000004" class="edge">
<title>Node16&#45;&gt;Node4</title>
<g id="a_edge25_Node000016_Node000004"><a xlink:title=" ">
<path fill="none" stroke="#63b8ff" d="M271.42,-54.98C286.45,-46.69 309.54,-33.94 327.16,-24.22"/>
<polygon fill="#63b8ff" stroke="#63b8ff" points="329.23,-27.07 336.3,-19.17 325.85,-20.94 329.23,-27.07"/>
</a>
</g>
</g>
<!-- Node16&#45;&gt;Node7 -->
<g id="edge28_Node000016_Node000007" class="edge">
<title>Node16&#45;&gt;Node7</title>
<g id="a_edge28_Node000016_Node000007"><a xlink:title=" ">
<path fill="none" stroke="#63b8ff" d="M234.31,-54.98C212.2,-46.3 177.68,-32.75 152.55,-22.88"/>
<polygon fill="#63b8ff" stroke="#63b8ff" points="153.67,-19.57 143.08,-19.17 151.11,-26.08 153.67,-19.57"/>
</a>
</g>
</g>
<!-- Node16&#45;&gt;Node11 -->
<g id="edge29_Node000016_Node000011" class="edge">
<title>Node16&#45;&gt;Node11</title>
<g id="a_edge29_Node000016_Node000011"><a xlink:title=" ">
<path fill="none" stroke="#63b8ff" d="M299.37,-54.92C339.59,-46.82 401.33,-34.02 464.21,-19.09"/>
<polygon fill="#63b8ff" stroke="#63b8ff" points="465.4,-22.4 474.31,-16.68 463.77,-15.6 465.4,-22.4"/>
</a>
</g>
</g>
<!-- Node17 -->
<g id="Node000017" class="node">
<title>Node17</title>
<g id="a_Node000017"><a xlink:title=" ">
<polygon fill="#e0e0e0" stroke="#999999" points="219,-19 169,-19 169,0 219,0 219,-19"/>
<text text-anchor="middle" x="194" y="-7" font-family="Helvetica,sans-Serif" font-size="10.00">cstring</text>
</a>
</g>
</g>
<!-- Node16&#45;&gt;Node17 -->
<g id="edge24_Node000016_Node000017" class="edge">
<title>Node16&#45;&gt;Node17</title>
<g id="a_edge24_Node000016_Node000017"><a xlink:title=" ">
<path fill="none" stroke="#63b8ff" d="M246.04,-54.98C236.87,-47.15 223.06,-35.34 211.97,-25.86"/>
<polygon fill="#63b8ff" stroke="#63b8ff" points="214.02,-23.01 204.14,-19.17 209.47,-28.33 214.02,-23.01"/>
</a>
</g>
</g>
<!-- Node18 -->
<g id="Node000018" class="node">
<title>Node18</title>
<g id="a_Node000018"><a xlink:title=" ">
<polygon fill="#e0e0e0" stroke="#999999" points="310.5,-19 237.5,-19 237.5,0 310.5,0 310.5,-19"/>
<text text-anchor="middle" x="274" y="-7" font-family="Helvetica,sans-Serif" font-size="10.00">string_view</text>
</a>
</g>
</g>
<!-- Node16&#45;&gt;Node18 -->
<g id="edge26_Node000016_Node000018" class="edge">
<title>Node16&#45;&gt;Node18</title>
<g id="a_edge26_Node000016_Node000018"><a xlink:title=" ">
<path fill="none" stroke="#63b8ff" d="M258.97,-54.75C261.36,-47.72 264.79,-37.62 267.77,-28.84"/>
<polygon fill="#63b8ff" stroke="#63b8ff" points="271.18,-29.68 271.08,-19.09 264.55,-27.43 271.18,-29.68"/>
</a>
</g>
</g>
<!-- Node16&#45;&gt;Node19 -->
<g id="edge27_Node000016_Node000019" class="edge">
<title>Node16&#45;&gt;Node19</title>
<g id="a_edge27_Node000016_Node000019"><a xlink:title=" ">
<path fill="none" stroke="#63b8ff" d="M282.99,-54.98C311.2,-46.09 355.64,-32.07 387.08,-22.15"/>
<polygon fill="#63b8ff" stroke="#63b8ff" points="388.31,-25.43 396.8,-19.08 386.21,-18.75 388.31,-25.43"/>
</a>
</g>
</g>
</g>
</svg>
