<?xml version="1.0" encoding="UTF-8" standalone="no"?>
<!DOCTYPE svg PUBLIC "-//W3C//DTD SVG 1.1//EN"
 "http://www.w3.org/Graphics/SVG/1.1/DTD/svg11.dtd">
<!-- Generated by graphviz version 2.43.0 (0)
 -->
<!-- Title: /home/runner/work/logger_system/logger_system/sources/logger/writers/batch_writer.h Pages: 1 -->
<svg width="1041pt" height="291pt"
 viewBox="0.00 0.00 1041.00 291.00" xmlns="http://www.w3.org/2000/svg" xmlns:xlink="http://www.w3.org/1999/xlink">
<g id="graph0" class="graph" transform="scale(1 1) rotate(0) translate(4 287)">
<title>/home/runner/work/logger_system/logger_system/sources/logger/writers/batch_writer.h</title>
<!-- Node1 -->
<g id="Node000001" class="node">
<title>Node1</title>
<g id="a_Node000001"><a xlink:title=" ">
<polygon fill="#999999" stroke="#666666" points="909.5,-283 736.5,-283 736.5,-242 909.5,-242 909.5,-283"/>
<text text-anchor="start" x="744.5" y="-271" font-family="Helvetica,sans-Serif" font-size="10.00">/home/runner/work/logger</text>
<text text-anchor="start" x="744.5" y="-260" font-family="Helvetica,sans-Serif" font-size="10.00">_system/logger_system/sources</text>
<text text-anchor="middle" x="823" y="-249" font-family="Helvetica,sans-Serif" font-size="10.00">/logger/writers/batch_writer.h</text>
</a>
</g>
</g>
<!-- Node2 -->
<g id="Node000002" class="node">
<title>Node2</title>
<g id="a_Node000002"><a xlink:href="base__writer_8h.html" target="_top" xlink:title="Abstract base class for all log output writers.">
<polygon fill="white" stroke="#666666" points="476,-206 394,-206 394,-187 476,-187 476,-206"/>
<text text-anchor="middle" x="435" y="-194" font-family="Helvetica,sans-Serif" font-size="10.00">base_writer.h</text>
</a>
</g>
</g>
<!-- Node1&#45;&gt;Node2 -->
<g id="edge1_Node000001_Node000002" class="edge">
<title>Node1&#45;&gt;Node2</title>
<g id="a_edge1_Node000001_Node000002"><a xlink:title=" ">
<path fill="none" stroke="#63b8ff" d="M736.41,-247.22C659.61,-234.55 550.02,-216.47 486.32,-205.97"/>
<polygon fill="#63b8ff" stroke="#63b8ff" points="486.56,-202.46 476.12,-204.28 485.42,-209.36 486.56,-202.46"/>
</a>
</g>
</g>
<!-- Node4 -->
<g id="Node000004" class="node">
<title>Node4</title>
<g id="a_Node000004"><a xlink:title=" ">
<polygon fill="#e0e0e0" stroke="#999999" points="369,-85 319,-85 319,-66 369,-66 369,-85"/>
<text text-anchor="middle" x="344" y="-73" font-family="Helvetica,sans-Serif" font-size="10.00">chrono</text>
</a>
</g>
</g>
<!-- Node1&#45;&gt;Node4 -->
<g id="edge30_Node000001_Node000004" class="edge">
<title>Node1&#45;&gt;Node4</title>
<g id="a_edge30_Node000001_Node000004"><a xlink:title=" ">
<path fill="none" stroke="#63b8ff" d="M770.41,-241.91C711.87,-220.03 614.49,-183.43 531,-151 475.91,-129.61 412.01,-103.97 374.97,-89.03"/>
<polygon fill="#63b8ff" stroke="#63b8ff" points="375.85,-85.61 365.27,-85.11 373.23,-92.1 375.85,-85.61"/>
</a>
</g>
</g>
<!-- Node11 -->
<g id="Node000011" class="node">
<title>Node11</title>
<g id="a_Node000011"><a xlink:href="log__entry_8h.html" target="_top" xlink:title="Data structures for representing log entries and source locations.">
<polygon fill="white" stroke="#666666" points="670.5,-145.5 539.5,-145.5 539.5,-126.5 670.5,-126.5 670.5,-145.5"/>
<text text-anchor="middle" x="605" y="-133.5" font-family="Helvetica,sans-Serif" font-size="10.00">../interfaces/log_entry.h</text>
</a>
</g>
</g>
<!-- Node1&#45;&gt;Node11 -->
<g id="edge26_Node000001_Node000011" class="edge">
<title>Node1&#45;&gt;Node11</title>
<g id="a_edge26_Node000001_Node000011"><a xlink:title=" ">
<path fill="none" stroke="#63b8ff" d="M788.46,-241.77C743.96,-216.36 667.77,-172.85 629.07,-150.75"/>
<polygon fill="#63b8ff" stroke="#63b8ff" points="630.5,-147.53 620.08,-145.61 627.03,-153.61 630.5,-147.53"/>
</a>
</g>
</g>
<!-- Node17 -->
<g id="Node000017" class="node">
<title>Node17</title>
<g id="a_Node000017"><a xlink:title=" ">
<polygon fill="#e0e0e0" stroke="#999999" points="852,-24.5 794,-24.5 794,-5.5 852,-5.5 852,-24.5"/>
<text text-anchor="middle" x="823" y="-12.5" font-family="Helvetica,sans-Serif" font-size="10.00">memory</text>
</a>
</g>
</g>
<!-- Node1&#45;&gt;Node17 -->
<g id="edge28_Node000001_Node000017" class="edge">
<title>Node1&#45;&gt;Node17</title>
<g id="a_edge28_Node000001_Node000017"><a xlink:title=" ">
<path fill="none" stroke="#63b8ff" d="M823,-241.82C823,-195.56 823,-80.36 823,-34.89"/>
<polygon fill="#63b8ff" stroke="#63b8ff" points="826.5,-34.69 823,-24.69 819.5,-34.69 826.5,-34.69"/>
</a>
</g>
</g>
<!-- Node18 -->
<g id="Node000018" class="node">
<title>Node18</title>
<g id="a_Node000018"><a xlink:title=" ">
<polygon fill="#e0e0e0" stroke="#999999" points="898.5,-206 851.5,-206 851.5,-187 898.5,-187 898.5,-206"/>
<text text-anchor="middle" x="875" y="-194" font-family="Helvetica,sans-Serif" font-size="10.00">vector</text>
</a>
</g>
</g>
<!-- Node1&#45;&gt;Node18 -->
<g id="edge27_Node000001_Node000018" class="edge">
<title>Node1&#45;&gt;Node18</title>
<g id="a_edge27_Node000001_Node000018"><a xlink:title=" ">
<path fill="none" stroke="#63b8ff" d="M838.88,-241.95C846.07,-233.11 854.47,-222.77 861.36,-214.29"/>
<polygon fill="#63b8ff" stroke="#63b8ff" points="864.29,-216.23 867.88,-206.26 858.86,-211.81 864.29,-216.23"/>
</a>
</g>
</g>
<!-- Node19 -->
<g id="Node000019" class="node">
<title>Node19</title>
<g id="a_Node000019"><a xlink:title=" ">
<polygon fill="#e0e0e0" stroke="#999999" points="965,-206 917,-206 917,-187 965,-187 965,-206"/>
<text text-anchor="middle" x="941" y="-194" font-family="Helvetica,sans-Serif" font-size="10.00">mutex</text>
</a>
</g>
</g>
<!-- Node1&#45;&gt;Node19 -->
<g id="edge29_Node000001_Node000019" class="edge">
<title>Node1&#45;&gt;Node19</title>
<g id="a_edge29_Node000001_Node000019"><a xlink:title=" ">
<path fill="none" stroke="#63b8ff" d="M859.05,-241.95C877.52,-231.93 899.54,-219.99 916.11,-211"/>
<polygon fill="#63b8ff" stroke="#63b8ff" points="918.04,-213.94 925.16,-206.09 914.7,-207.78 918.04,-213.94"/>
</a>
</g>
</g>
<!-- Node20 -->
<g id="Node000020" class="node">
<title>Node20</title>
<g id="a_Node000020"><a xlink:title=" ">
<polygon fill="#e0e0e0" stroke="#999999" points="1033,-206 983,-206 983,-187 1033,-187 1033,-206"/>
<text text-anchor="middle" x="1008" y="-194" font-family="Helvetica,sans-Serif" font-size="10.00">atomic</text>
</a>
</g>
</g>
<!-- Node1&#45;&gt;Node20 -->
<g id="edge31_Node000001_Node000020" class="edge">
<title>Node1&#45;&gt;Node20</title>
<g id="a_edge31_Node000001_Node000020"><a xlink:title=" ">
<path fill="none" stroke="#63b8ff" d="M879.51,-241.95C910.23,-231.32 947.22,-218.53 973.61,-209.4"/>
<polygon fill="#63b8ff" stroke="#63b8ff" points="974.86,-212.67 983.16,-206.09 972.57,-206.05 974.86,-212.67"/>
</a>
</g>
</g>
<!-- Node3 -->
<g id="Node000003" class="node">
<title>Node3</title>
<g id="a_Node000003"><a xlink:title=" ">
<polygon fill="#e0e0e0" stroke="#999999" points="337,-24.5 293,-24.5 293,-5.5 337,-5.5 337,-24.5"/>
<text text-anchor="middle" x="315" y="-12.5" font-family="Helvetica,sans-Serif" font-size="10.00">string</text>
</a>
</g>
</g>
<!-- Node2&#45;&gt;Node3 -->
<g id="edge2_Node000002_Node000003" class="edge">
<title>Node2&#45;&gt;Node3</title>
<g id="a_edge2_Node000002_Node000003"><a xlink:title=" ">
<path fill="none" stroke="#63b8ff" d="M393.81,-189.98C350.54,-183.24 286.73,-170.29 272,-151 244.25,-114.66 279.47,-59.92 300.84,-32.66"/>
<polygon fill="#63b8ff" stroke="#63b8ff" points="303.61,-34.8 307.2,-24.83 298.18,-30.39 303.61,-34.8"/>
</a>
</g>
</g>
<!-- Node2&#45;&gt;Node4 -->
<g id="edge3_Node000002_Node000004" class="edge">
<title>Node2&#45;&gt;Node4</title>
<g id="a_edge3_Node000002_Node000004"><a xlink:title=" ">
<path fill="none" stroke="#63b8ff" d="M434.83,-186.8C434.14,-171.92 430.85,-141.23 416,-121 405.87,-107.2 390.05,-96.75 375.82,-89.45"/>
<polygon fill="#63b8ff" stroke="#63b8ff" points="377.3,-86.28 366.77,-85.11 374.27,-92.59 377.3,-86.28"/>
</a>
</g>
</g>
<!-- Node5 -->
<g id="Node000005" class="node">
<title>Node5</title>
<g id="a_Node000005"><a xlink:title=" ">
<polygon fill="#e0e0e0" stroke="#999999" points="544.5,-85 387.5,-85 387.5,-66 544.5,-66 544.5,-85"/>
<text text-anchor="middle" x="466" y="-73" font-family="Helvetica,sans-Serif" font-size="10.00">interfaces/logger_interface.h</text>
</a>
</g>
</g>
<!-- Node2&#45;&gt;Node5 -->
<g id="edge4_Node000002_Node000005" class="edge">
<title>Node2&#45;&gt;Node5</title>
<g id="a_edge4_Node000002_Node000005"><a xlink:title=" ">
<path fill="none" stroke="#63b8ff" d="M438,-186.7C440.99,-177.76 445.61,-163.51 449,-151 454.09,-132.22 458.92,-110.52 462.13,-95.4"/>
<polygon fill="#63b8ff" stroke="#63b8ff" points="465.62,-95.78 464.24,-85.27 458.77,-94.35 465.62,-95.78"/>
</a>
</g>
</g>
<!-- Node6 -->
<g id="Node000006" class="node">
<title>Node6</title>
<g id="a_Node000006"><a xlink:href="error__codes_8h.html" target="_top" xlink:title=" ">
<polygon fill="white" stroke="#666666" points="225,-85 133,-85 133,-66 225,-66 225,-85"/>
<text text-anchor="middle" x="179" y="-73" font-family="Helvetica,sans-Serif" font-size="10.00">../error_codes.h</text>
</a>
</g>
</g>
<!-- Node2&#45;&gt;Node6 -->
<g id="edge5_Node000002_Node000006" class="edge">
<title>Node2&#45;&gt;Node6</title>
<g id="a_edge5_Node000002_Node000006"><a xlink:title=" ">
<path fill="none" stroke="#63b8ff" d="M393.75,-193.95C351.89,-190.68 286.66,-180.75 239,-151 216.51,-136.96 198.73,-111.45 188.54,-94.25"/>
<polygon fill="#63b8ff" stroke="#63b8ff" points="191.41,-92.2 183.44,-85.22 185.31,-95.65 191.41,-92.2"/>
</a>
</g>
</g>
<!-- Node10 -->
<g id="Node000010" class="node">
<title>Node10</title>
<g id="a_Node000010"><a xlink:href="log__writer__interface_8h.html" target="_top" xlink:title=" ">
<polygon fill="white" stroke="#666666" points="407,-151 281,-151 281,-121 407,-121 407,-151"/>
<text text-anchor="start" x="289" y="-139" font-family="Helvetica,sans-Serif" font-size="10.00">../interfaces/log_writer</text>
<text text-anchor="middle" x="344" y="-128" font-family="Helvetica,sans-Serif" font-size="10.00">_interface.h</text>
</a>
</g>
</g>
<!-- Node2&#45;&gt;Node10 -->
<g id="edge10_Node000002_Node000010" class="edge">
<title>Node2&#45;&gt;Node10</title>
<g id="a_edge10_Node000002_Node000010"><a xlink:title=" ">
<path fill="none" stroke="#63b8ff" d="M421.57,-186.87C409.23,-178.93 390.47,-166.87 374.49,-156.6"/>
<polygon fill="#63b8ff" stroke="#63b8ff" points="376.26,-153.58 365.96,-151.11 372.48,-159.47 376.26,-153.58"/>
</a>
</g>
</g>
<!-- Node2&#45;&gt;Node11 -->
<g id="edge14_Node000002_Node000011" class="edge">
<title>Node2&#45;&gt;Node11</title>
<g id="a_edge14_Node000002_Node000011"><a xlink:title=" ">
<path fill="none" stroke="#63b8ff" d="M459.72,-186.99C488.93,-176.94 537.7,-160.16 570.59,-148.84"/>
<polygon fill="#63b8ff" stroke="#63b8ff" points="571.93,-152.08 580.25,-145.52 569.66,-145.46 571.93,-152.08"/>
</a>
</g>
</g>
<!-- Node6&#45;&gt;Node3 -->
<g id="edge6_Node000006_Node000003" class="edge">
<title>Node6&#45;&gt;Node3</title>
<g id="a_edge6_Node000006_Node000003"><a xlink:title=" ">
<path fill="none" stroke="#63b8ff" d="M199.35,-65.85C220.33,-56.92 253.98,-42.56 283,-30 284,-29.57 285.02,-29.12 286.05,-28.68"/>
<polygon fill="#63b8ff" stroke="#63b8ff" points="287.61,-31.82 295.38,-24.61 284.81,-25.4 287.61,-31.82"/>
</a>
</g>
</g>
<!-- Node7 -->
<g id="Node000007" class="node">
<title>Node7</title>
<g id="a_Node000007"><a xlink:title=" ">
<polygon fill="#e0e0e0" stroke="#999999" points="211.5,-24.5 146.5,-24.5 146.5,-5.5 211.5,-5.5 211.5,-24.5"/>
<text text-anchor="middle" x="179" y="-12.5" font-family="Helvetica,sans-Serif" font-size="10.00">stdexcept</text>
</a>
</g>
</g>
<!-- Node6&#45;&gt;Node7 -->
<g id="edge7_Node000006_Node000007" class="edge">
<title>Node6&#45;&gt;Node7</title>
<g id="a_edge7_Node000006_Node000007"><a xlink:title=" ">
<path fill="none" stroke="#63b8ff" d="M179,-65.87C179,-57.75 179,-45.31 179,-34.89"/>
<polygon fill="#63b8ff" stroke="#63b8ff" points="182.5,-34.67 179,-24.67 175.5,-34.67 182.5,-34.67"/>
</a>
</g>
</g>
<!-- Node8 -->
<g id="Node000008" class="node">
<title>Node8</title>
<g id="a_Node000008"><a xlink:title=" ">
<polygon fill="#e0e0e0" stroke="#999999" points="274.5,-24.5 229.5,-24.5 229.5,-5.5 274.5,-5.5 274.5,-24.5"/>
<text text-anchor="middle" x="252" y="-12.5" font-family="Helvetica,sans-Serif" font-size="10.00">utility</text>
</a>
</g>
</g>
<!-- Node6&#45;&gt;Node8 -->
<g id="edge8_Node000006_Node000008" class="edge">
<title>Node6&#45;&gt;Node8</title>
<g id="a_edge8_Node000006_Node000008"><a xlink:title=" ">
<path fill="none" stroke="#63b8ff" d="M189.77,-65.87C201.2,-56.71 219.48,-42.06 233.28,-31.01"/>
<polygon fill="#63b8ff" stroke="#63b8ff" points="235.57,-33.65 241.18,-24.67 231.19,-28.19 235.57,-33.65"/>
</a>
</g>
</g>
<!-- Node9 -->
<g id="Node000009" class="node">
<title>Node9</title>
<g id="a_Node000009"><a xlink:title=" ">
<polygon fill="#e0e0e0" stroke="#999999" points="128,-30 0,-30 0,0 128,0 128,-30"/>
<text text-anchor="start" x="8" y="-18" font-family="Helvetica,sans-Serif" font-size="10.00">thread_base/sync/error</text>
<text text-anchor="middle" x="64" y="-7" font-family="Helvetica,sans-Serif" font-size="10.00">_handling.h</text>
</a>
</g>
</g>
<!-- Node6&#45;&gt;Node9 -->
<g id="edge9_Node000006_Node000009" class="edge">
<title>Node6&#45;&gt;Node9</title>
<g id="a_edge9_Node000006_Node000009"><a xlink:title=" ">
<path fill="none" stroke="#63b8ff" d="M162.03,-65.87C145.99,-57.71 121.4,-45.2 100.85,-34.75"/>
<polygon fill="#63b8ff" stroke="#63b8ff" points="102.25,-31.53 91.75,-30.11 99.07,-37.77 102.25,-31.53"/>
</a>
</g>
</g>
<!-- Node10&#45;&gt;Node3 -->
<g id="edge11_Node000010_Node000003" class="edge">
<title>Node10&#45;&gt;Node3</title>
<g id="a_edge11_Node000010_Node000003"><a xlink:title=" ">
<path fill="none" stroke="#63b8ff" d="M331.01,-120.92C323.26,-111.51 314.14,-98.44 310,-85 304.93,-68.51 307.12,-48.81 310.02,-34.69"/>
<polygon fill="#63b8ff" stroke="#63b8ff" points="313.48,-35.26 312.38,-24.73 306.67,-33.65 313.48,-35.26"/>
</a>
</g>
</g>
<!-- Node10&#45;&gt;Node4 -->
<g id="edge12_Node000010_Node000004" class="edge">
<title>Node10&#45;&gt;Node4</title>
<g id="a_edge12_Node000010_Node000004"><a xlink:title=" ">
<path fill="none" stroke="#63b8ff" d="M344,-120.84C344,-113.21 344,-103.7 344,-95.45"/>
<polygon fill="#63b8ff" stroke="#63b8ff" points="347.5,-95.27 344,-85.27 340.5,-95.27 347.5,-95.27"/>
</a>
</g>
</g>
<!-- Node10&#45;&gt;Node6 -->
<g id="edge13_Node000010_Node000006" class="edge">
<title>Node10&#45;&gt;Node6</title>
<g id="a_edge13_Node000010_Node000006"><a xlink:title=" ">
<path fill="none" stroke="#63b8ff" d="M304.48,-120.99C276.58,-111.1 239.59,-97.98 213,-88.56"/>
<polygon fill="#63b8ff" stroke="#63b8ff" points="213.96,-85.18 203.37,-85.14 211.62,-91.78 213.96,-85.18"/>
</a>
</g>
</g>
<!-- Node11&#45;&gt;Node3 -->
<g id="edge15_Node000011_Node000003" class="edge">
<title>Node11&#45;&gt;Node3</title>
<g id="a_edge15_Node000011_Node000003"><a xlink:title=" ">
<path fill="none" stroke="#63b8ff" d="M601.11,-126.18C594.03,-111.24 577.57,-81.12 554,-66 489.14,-24.41 395.91,-16.67 347.28,-15.68"/>
<polygon fill="#63b8ff" stroke="#63b8ff" points="347.09,-12.18 337.05,-15.56 347.01,-19.18 347.09,-12.18"/>
</a>
</g>
</g>
<!-- Node11&#45;&gt;Node4 -->
<g id="edge16_Node000011_Node000004" class="edge">
<title>Node11&#45;&gt;Node4</title>
<g id="a_edge16_Node000011_Node000004"><a xlink:title=" ">
<path fill="none" stroke="#63b8ff" d="M565.34,-126.48C520.17,-116.72 444.18,-100.12 379,-85 378.9,-84.98 378.8,-84.95 378.7,-84.93"/>
<polygon fill="#63b8ff" stroke="#63b8ff" points="379.76,-81.58 369.22,-82.69 378.15,-88.4 379.76,-81.58"/>
</a>
</g>
</g>
<!-- Node11&#45;&gt;Node5 -->
<g id="edge25_Node000011_Node000005" class="edge">
<title>Node11&#45;&gt;Node5</title>
<g id="a_edge25_Node000011_Node000005"><a xlink:title=" ">
<path fill="none" stroke="#63b8ff" d="M584.79,-126.49C561.32,-116.62 522.39,-100.23 495.54,-88.93"/>
<polygon fill="#63b8ff" stroke="#63b8ff" points="496.81,-85.67 486.24,-85.02 494.1,-92.12 496.81,-85.67"/>
</a>
</g>
</g>
<!-- Node12 -->
<g id="Node000012" class="node">
<title>Node12</title>
<g id="a_Node000012"><a xlink:title=" ">
<polygon fill="#e0e0e0" stroke="#999999" points="795,-85 739,-85 739,-66 795,-66 795,-85"/>
<text text-anchor="middle" x="767" y="-73" font-family="Helvetica,sans-Serif" font-size="10.00">optional</text>
</a>
</g>
</g>
<!-- Node11&#45;&gt;Node12 -->
<g id="edge17_Node000011_Node000012" class="edge">
<title>Node11&#45;&gt;Node12</title>
<g id="a_edge17_Node000011_Node000012"><a xlink:title=" ">
<path fill="none" stroke="#63b8ff" d="M628.56,-126.49C656.27,-116.49 702.47,-99.8 733.81,-88.49"/>
<polygon fill="#63b8ff" stroke="#63b8ff" points="735.2,-91.71 743.42,-85.02 732.82,-85.12 735.2,-91.71"/>
</a>
</g>
</g>
<!-- Node13 -->
<g id="Node000013" class="node">
<title>Node13</title>
<g id="a_Node000013"><a xlink:href="small__string_8h.html" target="_top" xlink:title=" ">
<polygon fill="white" stroke="#666666" points="720.5,-85 601.5,-85 601.5,-66 720.5,-66 720.5,-85"/>
<text text-anchor="middle" x="661" y="-73" font-family="Helvetica,sans-Serif" font-size="10.00">../core/small_string.h</text>
</a>
</g>
</g>
<!-- Node11&#45;&gt;Node13 -->
<g id="edge18_Node000011_Node000013" class="edge">
<title>Node11&#45;&gt;Node13</title>
<g id="a_edge18_Node000011_Node000013"><a xlink:title=" ">
<path fill="none" stroke="#63b8ff" d="M613.26,-126.37C621.78,-117.47 635.26,-103.39 645.73,-92.45"/>
<polygon fill="#63b8ff" stroke="#63b8ff" points="648.32,-94.81 652.7,-85.17 643.26,-89.97 648.32,-94.81"/>
</a>
</g>
</g>
<!-- Node13&#45;&gt;Node3 -->
<g id="edge20_Node000013_Node000003" class="edge">
<title>Node13&#45;&gt;Node3</title>
<g id="a_edge20_Node000013_Node000003"><a xlink:title=" ">
<path fill="none" stroke="#63b8ff" d="M610.69,-65.99C538.55,-53.8 407.77,-31.69 347.29,-21.46"/>
<polygon fill="#63b8ff" stroke="#63b8ff" points="347.62,-17.97 337.18,-19.75 346.46,-24.87 347.62,-17.97"/>
</a>
</g>
</g>
<!-- Node13&#45;&gt;Node8 -->
<g id="edge24_Node000013_Node000008" class="edge">
<title>Node13&#45;&gt;Node8</title>
<g id="a_edge24_Node000013_Node000008"><a xlink:title=" ">
<path fill="none" stroke="#63b8ff" d="M601.46,-69.62C510.76,-61.83 342.36,-45.83 284,-30 282.11,-29.49 280.19,-28.88 278.28,-28.22"/>
<polygon fill="#63b8ff" stroke="#63b8ff" points="279.52,-24.94 268.93,-24.52 276.94,-31.45 279.52,-24.94"/>
</a>
</g>
</g>
<!-- Node14 -->
<g id="Node000014" class="node">
<title>Node14</title>
<g id="a_Node000014"><a xlink:title=" ">
<polygon fill="#e0e0e0" stroke="#999999" points="602,-24.5 552,-24.5 552,-5.5 602,-5.5 602,-24.5"/>
<text text-anchor="middle" x="577" y="-12.5" font-family="Helvetica,sans-Serif" font-size="10.00">cstring</text>
</a>
</g>
</g>
<!-- Node13&#45;&gt;Node14 -->
<g id="edge19_Node000013_Node000014" class="edge">
<title>Node13&#45;&gt;Node14</title>
<g id="a_edge19_Node000013_Node000014"><a xlink:title=" ">
<path fill="none" stroke="#63b8ff" d="M648.61,-65.87C635.21,-56.54 613.62,-41.51 597.65,-30.38"/>
<polygon fill="#63b8ff" stroke="#63b8ff" points="599.65,-27.51 589.45,-24.67 595.65,-33.25 599.65,-27.51"/>
</a>
</g>
</g>
<!-- Node15 -->
<g id="Node000015" class="node">
<title>Node15</title>
<g id="a_Node000015"><a xlink:title=" ">
<polygon fill="#e0e0e0" stroke="#999999" points="693.5,-24.5 620.5,-24.5 620.5,-5.5 693.5,-5.5 693.5,-24.5"/>
<text text-anchor="middle" x="657" y="-12.5" font-family="Helvetica,sans-Serif" font-size="10.00">string_view</text>
</a>
</g>
</g>
<!-- Node13&#45;&gt;Node15 -->
<g id="edge21_Node000013_Node000015" class="edge">
<title>Node13&#45;&gt;Node15</title>
<g id="a_edge21_Node000013_Node000015"><a xlink:title=" ">
<path fill="none" stroke="#63b8ff" d="M660.41,-65.87C659.85,-57.75 659,-45.31 658.29,-34.89"/>
<polygon fill="#63b8ff" stroke="#63b8ff" points="661.77,-34.41 657.59,-24.67 654.78,-34.88 661.77,-34.41"/>
</a>
</g>
</g>
<!-- Node16 -->
<g id="Node000016" class="node">
<title>Node16</title>
<g id="a_Node000016"><a xlink:title=" ">
<polygon fill="#e0e0e0" stroke="#999999" points="776,-24.5 712,-24.5 712,-5.5 776,-5.5 776,-24.5"/>
<text text-anchor="middle" x="744" y="-12.5" font-family="Helvetica,sans-Serif" font-size="10.00">algorithm</text>
</a>
</g>
</g>
<!-- Node13&#45;&gt;Node16 -->
<g id="edge22_Node000013_Node000016" class="edge">
<title>Node13&#45;&gt;Node16</title>
<g id="a_edge22_Node000013_Node000016"><a xlink:title=" ">
<path fill="none" stroke="#63b8ff" d="M673.25,-65.87C686.36,-56.62 707.42,-41.78 723.15,-30.69"/>
<polygon fill="#63b8ff" stroke="#63b8ff" points="725.55,-33.29 731.7,-24.67 721.51,-27.57 725.55,-33.29"/>
</a>
</g>
</g>
<!-- Node13&#45;&gt;Node17 -->
<g id="edge23_Node000013_Node000017" class="edge">
<title>Node13&#45;&gt;Node17</title>
<g id="a_edge23_Node000013_Node000017"><a xlink:title=" ">
<path fill="none" stroke="#63b8ff" d="M685.26,-65.86C710.27,-56.94 750.39,-42.58 785,-30 786.64,-29.41 788.31,-28.79 790,-28.18"/>
<polygon fill="#63b8ff" stroke="#63b8ff" points="791.52,-31.35 799.7,-24.62 789.11,-24.78 791.52,-31.35"/>
</a>
</g>
</g>
</g>
</svg>
