<?xml version="1.0" encoding="UTF-8" standalone="no"?>
<!DOCTYPE svg PUBLIC "-//W3C//DTD SVG 1.1//EN"
 "http://www.w3.org/Graphics/SVG/1.1/DTD/svg11.dtd">
<!-- Generated by graphviz version 2.43.0 (0)
 -->
<!-- Title: batch_writer.h Pages: 1 -->
<svg width="862pt" height="258pt"
 viewBox="0.00 0.00 861.50 258.00" xmlns="http://www.w3.org/2000/svg" xmlns:xlink="http://www.w3.org/1999/xlink">
<g id="graph0" class="graph" transform="scale(1 1) rotate(0) translate(4 254)">
<title>batch_writer.h</title>
<!-- Node1 -->
<g id="Node000001" class="node">
<title>Node1</title>
<g id="a_Node000001"><a xlink:title=" ">
<polygon fill="#999999" stroke="#666666" points="714.5,-250 628.5,-250 628.5,-231 714.5,-231 714.5,-250"/>
<text text-anchor="middle" x="671.5" y="-238" font-family="Helvetica,sans-Serif" font-size="10.00">batch_writer.h</text>
</a>
</g>
</g>
<!-- Node2 -->
<g id="Node000002" class="node">
<title>Node2</title>
<g id="a_Node000002"><a xlink:href="base__writer_8h.html" target="_top" xlink:title=" ">
<polygon fill="white" stroke="#666666" points="366.5,-195 284.5,-195 284.5,-176 366.5,-176 366.5,-195"/>
<text text-anchor="middle" x="325.5" y="-183" font-family="Helvetica,sans-Serif" font-size="10.00">base_writer.h</text>
</a>
</g>
</g>
<!-- Node1&#45;&gt;Node2 -->
<g id="edge1_Node000001_Node000002" class="edge">
<title>Node1&#45;&gt;Node2</title>
<g id="a_edge1_Node000001_Node000002"><a xlink:title=" ">
<path fill="none" stroke="#63b8ff" d="M628.38,-232.89C564.54,-223.12 445.09,-204.82 376.83,-194.36"/>
<polygon fill="#63b8ff" stroke="#63b8ff" points="377.15,-190.87 366.73,-192.82 376.09,-197.79 377.15,-190.87"/>
</a>
</g>
</g>
<!-- Node4 -->
<g id="Node000004" class="node">
<title>Node4</title>
<g id="a_Node000004"><a xlink:title=" ">
<polygon fill="#e0e0e0" stroke="#999999" points="259.5,-74 209.5,-74 209.5,-55 259.5,-55 259.5,-74"/>
<text text-anchor="middle" x="234.5" y="-62" font-family="Helvetica,sans-Serif" font-size="10.00">chrono</text>
</a>
</g>
</g>
<!-- Node1&#45;&gt;Node4 -->
<g id="edge34_Node000001_Node000004" class="edge">
<title>Node1&#45;&gt;Node4</title>
<g id="a_edge34_Node000001_Node000004"><a xlink:title=" ">
<path fill="none" stroke="#63b8ff" d="M628.24,-237.28C531.16,-231.92 302.36,-217.08 275.5,-195 242.2,-167.62 235.55,-113.31 234.47,-84.49"/>
<polygon fill="#63b8ff" stroke="#63b8ff" points="237.96,-84.1 234.29,-74.17 230.97,-84.23 237.96,-84.1"/>
</a>
</g>
</g>
<!-- Node6 -->
<g id="Node000006" class="node">
<title>Node6</title>
<g id="a_Node000006"><a xlink:title=" ">
<polygon fill="#e0e0e0" stroke="#999999" points="664.5,-19 606.5,-19 606.5,0 664.5,0 664.5,-19"/>
<text text-anchor="middle" x="635.5" y="-7" font-family="Helvetica,sans-Serif" font-size="10.00">memory</text>
</a>
</g>
</g>
<!-- Node1&#45;&gt;Node6 -->
<g id="edge32_Node000001_Node000006" class="edge">
<title>Node1&#45;&gt;Node6</title>
<g id="a_edge32_Node000001_Node000006"><a xlink:title=" ">
<path fill="none" stroke="#63b8ff" d="M671.41,-230.91C670.97,-204.36 668.31,-121.41 652.5,-55 650.37,-46.05 646.88,-36.47 643.61,-28.51"/>
<polygon fill="#63b8ff" stroke="#63b8ff" points="646.75,-26.95 639.59,-19.15 640.33,-29.72 646.75,-26.95"/>
</a>
</g>
</g>
<!-- Node7 -->
<g id="Node000007" class="node">
<title>Node7</title>
<g id="a_Node000007"><a xlink:title=" ">
<polygon fill="#e0e0e0" stroke="#999999" points="732.5,-19 684.5,-19 684.5,0 732.5,0 732.5,-19"/>
<text text-anchor="middle" x="708.5" y="-7" font-family="Helvetica,sans-Serif" font-size="10.00">mutex</text>
</a>
</g>
</g>
<!-- Node1&#45;&gt;Node7 -->
<g id="edge33_Node000001_Node000007" class="edge">
<title>Node1&#45;&gt;Node7</title>
<g id="a_edge33_Node000001_Node000007"><a xlink:title=" ">
<path fill="none" stroke="#63b8ff" d="M674.23,-230.71C676.91,-221.8 680.97,-207.55 683.5,-195 695.62,-134.91 703.5,-62.6 706.77,-29.15"/>
<polygon fill="#63b8ff" stroke="#63b8ff" points="710.28,-29.31 707.74,-19.02 703.31,-28.65 710.28,-29.31"/>
</a>
</g>
</g>
<!-- Node14 -->
<g id="Node000014" class="node">
<title>Node14</title>
<g id="a_Node000014"><a xlink:href="log__entry_8h.html" target="_top" xlink:title=" ">
<polygon fill="white" stroke="#666666" points="485,-134.5 354,-134.5 354,-115.5 485,-115.5 485,-134.5"/>
<text text-anchor="middle" x="419.5" y="-122.5" font-family="Helvetica,sans-Serif" font-size="10.00">../interfaces/log_entry.h</text>
</a>
</g>
</g>
<!-- Node1&#45;&gt;Node14 -->
<g id="edge30_Node000001_Node000014" class="edge">
<title>Node1&#45;&gt;Node14</title>
<g id="a_edge30_Node000001_Node000014"><a xlink:title=" ">
<path fill="none" stroke="#63b8ff" d="M652.56,-230.97C608.69,-211.21 499.89,-162.21 447.96,-138.82"/>
<polygon fill="#63b8ff" stroke="#63b8ff" points="449.22,-135.55 438.66,-134.63 446.34,-141.93 449.22,-135.55"/>
</a>
</g>
</g>
<!-- Node19 -->
<g id="Node000019" class="node">
<title>Node19</title>
<g id="a_Node000019"><a xlink:title=" ">
<polygon fill="#e0e0e0" stroke="#999999" points="785,-195 738,-195 738,-176 785,-176 785,-195"/>
<text text-anchor="middle" x="761.5" y="-183" font-family="Helvetica,sans-Serif" font-size="10.00">vector</text>
</a>
</g>
</g>
<!-- Node1&#45;&gt;Node19 -->
<g id="edge31_Node000001_Node000019" class="edge">
<title>Node1&#45;&gt;Node19</title>
<g id="a_edge31_Node000001_Node000019"><a xlink:title=" ">
<path fill="none" stroke="#63b8ff" d="M685.96,-230.98C699.92,-222.77 721.29,-210.18 737.75,-200.49"/>
<polygon fill="#63b8ff" stroke="#63b8ff" points="739.94,-203.26 746.78,-195.17 736.38,-197.23 739.94,-203.26"/>
</a>
</g>
</g>
<!-- Node20 -->
<g id="Node000020" class="node">
<title>Node20</title>
<g id="a_Node000020"><a xlink:title=" ">
<polygon fill="#e0e0e0" stroke="#999999" points="853.5,-195 803.5,-195 803.5,-176 853.5,-176 853.5,-195"/>
<text text-anchor="middle" x="828.5" y="-183" font-family="Helvetica,sans-Serif" font-size="10.00">atomic</text>
</a>
</g>
</g>
<!-- Node1&#45;&gt;Node20 -->
<g id="edge35_Node000001_Node000020" class="edge">
<title>Node1&#45;&gt;Node20</title>
<g id="a_edge35_Node000001_Node000020"><a xlink:title=" ">
<path fill="none" stroke="#63b8ff" d="M696.72,-230.98C722.93,-222.14 764.14,-208.23 793.49,-198.32"/>
<polygon fill="#63b8ff" stroke="#63b8ff" points="794.98,-201.51 803.34,-194.99 792.74,-194.88 794.98,-201.51"/>
</a>
</g>
</g>
<!-- Node3 -->
<g id="Node000003" class="node">
<title>Node3</title>
<g id="a_Node000003"><a xlink:title=" ">
<polygon fill="#e0e0e0" stroke="#999999" points="346.5,-19 302.5,-19 302.5,0 346.5,0 346.5,-19"/>
<text text-anchor="middle" x="324.5" y="-7" font-family="Helvetica,sans-Serif" font-size="10.00">string</text>
</a>
</g>
</g>
<!-- Node2&#45;&gt;Node3 -->
<g id="edge2_Node000002_Node000003" class="edge">
<title>Node2&#45;&gt;Node3</title>
<g id="a_edge2_Node000002_Node000003"><a xlink:title=" ">
<path fill="none" stroke="#63b8ff" d="M325.45,-175.63C325.29,-148.64 324.82,-67.03 324.61,-29.61"/>
<polygon fill="#63b8ff" stroke="#63b8ff" points="328.11,-29.12 324.55,-19.14 321.11,-29.16 328.11,-29.12"/>
</a>
</g>
</g>
<!-- Node2&#45;&gt;Node4 -->
<g id="edge3_Node000002_Node000004" class="edge">
<title>Node2&#45;&gt;Node4</title>
<g id="a_edge3_Node000002_Node000004"><a xlink:title=" ">
<path fill="none" stroke="#63b8ff" d="M318.96,-175.94C304.01,-156.4 267.14,-108.18 247.42,-82.4"/>
<polygon fill="#63b8ff" stroke="#63b8ff" points="250.09,-80.12 241.23,-74.3 244.52,-84.37 250.09,-80.12"/>
</a>
</g>
</g>
<!-- Node5 -->
<g id="Node000005" class="node">
<title>Node5</title>
<g id="a_Node000005"><a xlink:href="logger__interface_8h.html" target="_top" xlink:title=" ">
<polygon fill="white" stroke="#666666" points="643.5,-74 529.5,-74 529.5,-55 643.5,-55 643.5,-74"/>
<text text-anchor="middle" x="586.5" y="-62" font-family="Helvetica,sans-Serif" font-size="10.00">../logger_interface.h</text>
</a>
</g>
</g>
<!-- Node2&#45;&gt;Node5 -->
<g id="edge4_Node000002_Node000005" class="edge">
<title>Node2&#45;&gt;Node5</title>
<g id="a_edge4_Node000002_Node000005"><a xlink:title=" ">
<path fill="none" stroke="#63b8ff" d="M366.85,-178.63C402.18,-172.47 453.63,-160.71 494.5,-140 524.43,-124.83 553.61,-98.7 570.82,-81.77"/>
<polygon fill="#63b8ff" stroke="#63b8ff" points="573.69,-83.84 578.25,-74.28 568.72,-78.91 573.69,-83.84"/>
</a>
</g>
</g>
<!-- Node8 -->
<g id="Node000008" class="node">
<title>Node8</title>
<g id="a_Node000008"><a xlink:href="error__codes_8h.html" target="_top" xlink:title=" ">
<polygon fill="white" stroke="#666666" points="153.5,-74 61.5,-74 61.5,-55 153.5,-55 153.5,-74"/>
<text text-anchor="middle" x="107.5" y="-62" font-family="Helvetica,sans-Serif" font-size="10.00">../error_codes.h</text>
</a>
</g>
</g>
<!-- Node2&#45;&gt;Node8 -->
<g id="edge8_Node000002_Node000008" class="edge">
<title>Node2&#45;&gt;Node8</title>
<g id="a_edge8_Node000002_Node000008"><a xlink:title=" ">
<path fill="none" stroke="#63b8ff" d="M284.3,-182.95C222.71,-179.68 111.18,-169.7 86.5,-140 73,-123.76 83.99,-99.38 94.49,-82.98"/>
<polygon fill="#63b8ff" stroke="#63b8ff" points="97.63,-84.58 100.42,-74.36 91.87,-80.61 97.63,-84.58"/>
</a>
</g>
</g>
<!-- Node13 -->
<g id="Node000013" class="node">
<title>Node13</title>
<g id="a_Node000013"><a xlink:href="log__writer__interface_8h.html" target="_top" xlink:title=" ">
<polygon fill="white" stroke="#666666" points="221.5,-140 95.5,-140 95.5,-110 221.5,-110 221.5,-140"/>
<text text-anchor="start" x="103.5" y="-128" font-family="Helvetica,sans-Serif" font-size="10.00">../interfaces/log_writer</text>
<text text-anchor="middle" x="158.5" y="-117" font-family="Helvetica,sans-Serif" font-size="10.00">_interface.h</text>
</a>
</g>
</g>
<!-- Node2&#45;&gt;Node13 -->
<g id="edge14_Node000002_Node000013" class="edge">
<title>Node2&#45;&gt;Node13</title>
<g id="a_edge14_Node000002_Node000013"><a xlink:title=" ">
<path fill="none" stroke="#63b8ff" d="M301.22,-175.99C276.97,-167.5 239.01,-154.2 208.33,-143.45"/>
<polygon fill="#63b8ff" stroke="#63b8ff" points="209.24,-140.07 198.65,-140.06 206.93,-146.67 209.24,-140.07"/>
</a>
</g>
</g>
<!-- Node2&#45;&gt;Node14 -->
<g id="edge18_Node000002_Node000014" class="edge">
<title>Node2&#45;&gt;Node14</title>
<g id="a_edge18_Node000002_Node000014"><a xlink:title=" ">
<path fill="none" stroke="#63b8ff" d="M339.37,-175.87C354.5,-166.45 378.96,-151.23 396.88,-140.08"/>
<polygon fill="#63b8ff" stroke="#63b8ff" points="398.93,-142.92 405.57,-134.67 395.23,-136.98 398.93,-142.92"/>
</a>
</g>
</g>
<!-- Node5&#45;&gt;Node3 -->
<g id="edge7_Node000005_Node000003" class="edge">
<title>Node5&#45;&gt;Node3</title>
<g id="a_edge7_Node000005_Node000003"><a xlink:title=" ">
<path fill="none" stroke="#63b8ff" d="M536.25,-54.97C491.49,-47.12 424.04,-34.65 356.73,-19.15"/>
<polygon fill="#63b8ff" stroke="#63b8ff" points="357.33,-15.69 346.8,-16.84 355.75,-22.51 357.33,-15.69"/>
</a>
</g>
</g>
<!-- Node5&#45;&gt;Node6 -->
<g id="edge5_Node000005_Node000006" class="edge">
<title>Node5&#45;&gt;Node6</title>
<g id="a_edge5_Node000005_Node000006"><a xlink:title=" ">
<path fill="none" stroke="#63b8ff" d="M594.59,-54.75C601.66,-47.11 612.09,-35.82 620.65,-26.56"/>
<polygon fill="#63b8ff" stroke="#63b8ff" points="623.34,-28.81 627.56,-19.09 618.2,-24.06 623.34,-28.81"/>
</a>
</g>
</g>
<!-- Node5&#45;&gt;Node7 -->
<g id="edge6_Node000005_Node000007" class="edge">
<title>Node5&#45;&gt;Node7</title>
<g id="a_edge6_Node000005_Node000007"><a xlink:title=" ">
<path fill="none" stroke="#63b8ff" d="M606.1,-54.98C625.82,-46.42 656.45,-33.11 679.08,-23.28"/>
<polygon fill="#63b8ff" stroke="#63b8ff" points="680.76,-26.37 688.54,-19.17 677.98,-19.94 680.76,-26.37"/>
</a>
</g>
</g>
<!-- Node8&#45;&gt;Node3 -->
<g id="edge9_Node000008_Node000003" class="edge">
<title>Node8&#45;&gt;Node3</title>
<g id="a_edge9_Node000008_Node000003"><a xlink:title=" ">
<path fill="none" stroke="#63b8ff" d="M142.94,-54.95C179.82,-46.04 239.23,-31.64 290.5,-19 291.09,-18.85 291.69,-18.71 292.29,-18.56"/>
<polygon fill="#63b8ff" stroke="#63b8ff" points="293.33,-21.91 302.19,-16.1 291.64,-15.11 293.33,-21.91"/>
</a>
</g>
</g>
<!-- Node9 -->
<g id="Node000009" class="node">
<title>Node9</title>
<g id="a_Node000009"><a xlink:title=" ">
<polygon fill="#e0e0e0" stroke="#999999" points="65,-19 0,-19 0,0 65,0 65,-19"/>
<text text-anchor="middle" x="32.5" y="-7" font-family="Helvetica,sans-Serif" font-size="10.00">stdexcept</text>
</a>
</g>
</g>
<!-- Node8&#45;&gt;Node9 -->
<g id="edge10_Node000008_Node000009" class="edge">
<title>Node8&#45;&gt;Node9</title>
<g id="a_edge10_Node000008_Node000009"><a xlink:title=" ">
<path fill="none" stroke="#63b8ff" d="M95.45,-54.98C84.04,-46.92 66.67,-34.65 53.07,-25.03"/>
<polygon fill="#63b8ff" stroke="#63b8ff" points="54.96,-22.08 44.77,-19.17 50.92,-27.8 54.96,-22.08"/>
</a>
</g>
</g>
<!-- Node10 -->
<g id="Node000010" class="node">
<title>Node10</title>
<g id="a_Node000010"><a xlink:title=" ">
<polygon fill="#e0e0e0" stroke="#999999" points="282,-19 237,-19 237,0 282,0 282,-19"/>
<text text-anchor="middle" x="259.5" y="-7" font-family="Helvetica,sans-Serif" font-size="10.00">utility</text>
</a>
</g>
</g>
<!-- Node8&#45;&gt;Node10 -->
<g id="edge11_Node000008_Node000010" class="edge">
<title>Node8&#45;&gt;Node10</title>
<g id="a_edge11_Node000008_Node000010"><a xlink:title=" ">
<path fill="none" stroke="#63b8ff" d="M131.92,-54.98C157.75,-45.98 198.61,-31.73 227.11,-21.79"/>
<polygon fill="#63b8ff" stroke="#63b8ff" points="228.34,-25.07 236.63,-18.47 226.04,-18.46 228.34,-25.07"/>
</a>
</g>
</g>
<!-- Node11 -->
<g id="Node000011" class="node">
<title>Node11</title>
<g id="a_Node000011"><a xlink:title=" ">
<polygon fill="#e0e0e0" stroke="#999999" points="215.5,-19 159.5,-19 159.5,0 215.5,0 215.5,-19"/>
<text text-anchor="middle" x="187.5" y="-7" font-family="Helvetica,sans-Serif" font-size="10.00">optional</text>
</a>
</g>
</g>
<!-- Node8&#45;&gt;Node11 -->
<g id="edge12_Node000008_Node000011" class="edge">
<title>Node8&#45;&gt;Node11</title>
<g id="a_edge12_Node000008_Node000011"><a xlink:title=" ">
<path fill="none" stroke="#63b8ff" d="M120.35,-54.98C132.64,-46.84 151.41,-34.41 165.98,-24.76"/>
<polygon fill="#63b8ff" stroke="#63b8ff" points="168.01,-27.61 174.41,-19.17 164.14,-21.78 168.01,-27.61"/>
</a>
</g>
</g>
<!-- Node12 -->
<g id="Node000012" class="node">
<title>Node12</title>
<g id="a_Node000012"><a xlink:title=" ">
<polygon fill="#e0e0e0" stroke="#999999" points="134,-19 83,-19 83,0 134,0 134,-19"/>
<text text-anchor="middle" x="108.5" y="-7" font-family="Helvetica,sans-Serif" font-size="10.00">variant</text>
</a>
</g>
</g>
<!-- Node8&#45;&gt;Node12 -->
<g id="edge13_Node000008_Node000012" class="edge">
<title>Node8&#45;&gt;Node12</title>
<g id="a_edge13_Node000008_Node000012"><a xlink:title=" ">
<path fill="none" stroke="#63b8ff" d="M107.67,-54.75C107.8,-47.8 107.98,-37.85 108.15,-29.13"/>
<polygon fill="#63b8ff" stroke="#63b8ff" points="111.65,-29.15 108.34,-19.09 104.65,-29.02 111.65,-29.15"/>
</a>
</g>
</g>
<!-- Node13&#45;&gt;Node3 -->
<g id="edge15_Node000013_Node000003" class="edge">
<title>Node13&#45;&gt;Node3</title>
<g id="a_edge15_Node000013_Node000003"><a xlink:title=" ">
<path fill="none" stroke="#63b8ff" d="M163.73,-109.87C170.16,-94.36 182.46,-69.72 200.5,-55 214.89,-43.26 260.94,-28.5 292.68,-19.28"/>
<polygon fill="#63b8ff" stroke="#63b8ff" points="293.77,-22.61 302.42,-16.5 291.84,-15.88 293.77,-22.61"/>
</a>
</g>
</g>
<!-- Node13&#45;&gt;Node4 -->
<g id="edge16_Node000013_Node000004" class="edge">
<title>Node13&#45;&gt;Node4</title>
<g id="a_edge16_Node000013_Node000004"><a xlink:title=" ">
<path fill="none" stroke="#63b8ff" d="M176.9,-109.84C188.38,-101 203.15,-89.63 214.86,-80.62"/>
<polygon fill="#63b8ff" stroke="#63b8ff" points="217.32,-83.14 223.11,-74.27 213.05,-77.59 217.32,-83.14"/>
</a>
</g>
</g>
<!-- Node13&#45;&gt;Node8 -->
<g id="edge17_Node000013_Node000008" class="edge">
<title>Node13&#45;&gt;Node8</title>
<g id="a_edge17_Node000013_Node000008"><a xlink:title=" ">
<path fill="none" stroke="#63b8ff" d="M146.15,-109.84C138.83,-101.43 129.5,-90.74 121.85,-81.96"/>
<polygon fill="#63b8ff" stroke="#63b8ff" points="124.35,-79.5 115.14,-74.27 119.08,-84.1 124.35,-79.5"/>
</a>
</g>
</g>
<!-- Node14&#45;&gt;Node3 -->
<g id="edge19_Node000014_Node000003" class="edge">
<title>Node14&#45;&gt;Node3</title>
<g id="a_edge19_Node000014_Node000003"><a xlink:title=" ">
<path fill="none" stroke="#63b8ff" d="M412.36,-115.47C396.61,-96.65 358.67,-51.32 338.18,-26.84"/>
<polygon fill="#63b8ff" stroke="#63b8ff" points="340.83,-24.55 331.72,-19.13 335.46,-29.04 340.83,-24.55"/>
</a>
</g>
</g>
<!-- Node14&#45;&gt;Node4 -->
<g id="edge20_Node000014_Node000004" class="edge">
<title>Node14&#45;&gt;Node4</title>
<g id="a_edge20_Node000014_Node000004"><a xlink:title=" ">
<path fill="none" stroke="#63b8ff" d="M392.6,-115.49C359.99,-105.18 304.97,-87.78 269.2,-76.47"/>
<polygon fill="#63b8ff" stroke="#63b8ff" points="270.24,-73.13 259.65,-73.45 268.13,-79.81 270.24,-73.13"/>
</a>
</g>
</g>
<!-- Node14&#45;&gt;Node5 -->
<g id="edge29_Node000014_Node000005" class="edge">
<title>Node14&#45;&gt;Node5</title>
<g id="a_edge29_Node000014_Node000005"><a xlink:title=" ">
<path fill="none" stroke="#63b8ff" d="M443.78,-115.49C472.48,-105.44 520.39,-88.66 552.7,-77.34"/>
<polygon fill="#63b8ff" stroke="#63b8ff" points="553.91,-80.63 562.19,-74.02 551.59,-74.02 553.91,-80.63"/>
</a>
</g>
</g>
<!-- Node14&#45;&gt;Node11 -->
<g id="edge21_Node000014_Node000011" class="edge">
<title>Node14&#45;&gt;Node11</title>
<g id="a_edge21_Node000014_Node000011"><a xlink:title=" ">
<path fill="none" stroke="#63b8ff" d="M402.06,-115.47C361.84,-95.79 262.34,-47.11 214.3,-23.61"/>
<polygon fill="#63b8ff" stroke="#63b8ff" points="215.66,-20.38 205.14,-19.13 212.58,-26.67 215.66,-20.38"/>
</a>
</g>
</g>
<!-- Node15 -->
<g id="Node000015" class="node">
<title>Node15</title>
<g id="a_Node000015"><a xlink:href="small__string_8h.html" target="_top" xlink:title=" ">
<polygon fill="white" stroke="#666666" points="511,-74 392,-74 392,-55 511,-55 511,-74"/>
<text text-anchor="middle" x="451.5" y="-62" font-family="Helvetica,sans-Serif" font-size="10.00">../core/small_string.h</text>
</a>
</g>
</g>
<!-- Node14&#45;&gt;Node15 -->
<g id="edge22_Node000014_Node000015" class="edge">
<title>Node14&#45;&gt;Node15</title>
<g id="a_edge22_Node000014_Node000015"><a xlink:title=" ">
<path fill="none" stroke="#63b8ff" d="M424.22,-115.37C428.85,-106.9 436.05,-93.74 441.89,-83.07"/>
<polygon fill="#63b8ff" stroke="#63b8ff" points="445.03,-84.62 446.76,-74.17 438.89,-81.26 445.03,-84.62"/>
</a>
</g>
</g>
<!-- Node15&#45;&gt;Node3 -->
<g id="edge24_Node000015_Node000003" class="edge">
<title>Node15&#45;&gt;Node3</title>
<g id="a_edge24_Node000015_Node000003"><a xlink:title=" ">
<path fill="none" stroke="#63b8ff" d="M431.1,-54.98C410.48,-46.38 378.39,-32.99 354.81,-23.15"/>
<polygon fill="#63b8ff" stroke="#63b8ff" points="355.85,-19.79 345.28,-19.17 353.16,-26.25 355.85,-19.79"/>
</a>
</g>
</g>
<!-- Node15&#45;&gt;Node6 -->
<g id="edge27_Node000015_Node000006" class="edge">
<title>Node15&#45;&gt;Node6</title>
<g id="a_edge27_Node000015_Node000006"><a xlink:title=" ">
<path fill="none" stroke="#63b8ff" d="M481.06,-54.98C512.41,-45.96 562.06,-31.65 596.57,-21.71"/>
<polygon fill="#63b8ff" stroke="#63b8ff" points="597.67,-25.04 606.31,-18.91 595.74,-18.31 597.67,-25.04"/>
</a>
</g>
</g>
<!-- Node15&#45;&gt;Node10 -->
<g id="edge28_Node000015_Node000010" class="edge">
<title>Node15&#45;&gt;Node10</title>
<g id="a_edge28_Node000015_Node000010"><a xlink:title=" ">
<path fill="none" stroke="#63b8ff" d="M420.65,-54.98C385.44,-45.26 328.08,-29.43 292.13,-19.51"/>
<polygon fill="#63b8ff" stroke="#63b8ff" points="292.73,-16.04 282.16,-16.75 290.86,-22.79 292.73,-16.04"/>
</a>
</g>
</g>
<!-- Node16 -->
<g id="Node000016" class="node">
<title>Node16</title>
<g id="a_Node000016"><a xlink:title=" ">
<polygon fill="#e0e0e0" stroke="#999999" points="414.5,-19 364.5,-19 364.5,0 414.5,0 414.5,-19"/>
<text text-anchor="middle" x="389.5" y="-7" font-family="Helvetica,sans-Serif" font-size="10.00">cstring</text>
</a>
</g>
</g>
<!-- Node15&#45;&gt;Node16 -->
<g id="edge23_Node000015_Node000016" class="edge">
<title>Node15&#45;&gt;Node16</title>
<g id="a_edge23_Node000015_Node000016"><a xlink:title=" ">
<path fill="none" stroke="#63b8ff" d="M441.54,-54.98C432.37,-47.15 418.56,-35.34 407.47,-25.86"/>
<polygon fill="#63b8ff" stroke="#63b8ff" points="409.52,-23.01 399.64,-19.17 404.97,-28.33 409.52,-23.01"/>
</a>
</g>
</g>
<!-- Node17 -->
<g id="Node000017" class="node">
<title>Node17</title>
<g id="a_Node000017"><a xlink:title=" ">
<polygon fill="#e0e0e0" stroke="#999999" points="506,-19 433,-19 433,0 506,0 506,-19"/>
<text text-anchor="middle" x="469.5" y="-7" font-family="Helvetica,sans-Serif" font-size="10.00">string_view</text>
</a>
</g>
</g>
<!-- Node15&#45;&gt;Node17 -->
<g id="edge25_Node000015_Node000017" class="edge">
<title>Node15&#45;&gt;Node17</title>
<g id="a_edge25_Node000015_Node000017"><a xlink:title=" ">
<path fill="none" stroke="#63b8ff" d="M454.47,-54.75C456.86,-47.72 460.29,-37.62 463.27,-28.84"/>
<polygon fill="#63b8ff" stroke="#63b8ff" points="466.68,-29.68 466.58,-19.09 460.05,-27.43 466.68,-29.68"/>
</a>
</g>
</g>
<!-- Node18 -->
<g id="Node000018" class="node">
<title>Node18</title>
<g id="a_Node000018"><a xlink:title=" ">
<polygon fill="#e0e0e0" stroke="#999999" points="588.5,-19 524.5,-19 524.5,0 588.5,0 588.5,-19"/>
<text text-anchor="middle" x="556.5" y="-7" font-family="Helvetica,sans-Serif" font-size="10.00">algorithm</text>
</a>
</g>
</g>
<!-- Node15&#45;&gt;Node18 -->
<g id="edge26_Node000015_Node000018" class="edge">
<title>Node15&#45;&gt;Node18</title>
<g id="a_edge26_Node000015_Node000018"><a xlink:title=" ">
<path fill="none" stroke="#63b8ff" d="M468.37,-54.98C485.11,-46.54 511,-33.47 530.39,-23.68"/>
<polygon fill="#63b8ff" stroke="#63b8ff" points="531.97,-26.8 539.32,-19.17 528.82,-20.55 531.97,-26.8"/>
</a>
</g>
</g>
</g>
</svg>
