<?xml version="1.0" encoding="UTF-8" standalone="no"?>
<!DOCTYPE svg PUBLIC "-//W3C//DTD SVG 1.1//EN"
 "http://www.w3.org/Graphics/SVG/1.1/DTD/svg11.dtd">
<!-- Generated by graphviz version 2.43.0 (0)
 -->
<!-- Title: /home/runner/work/logger_system/logger_system/sources/logger/writers/batch_writer.h Pages: 1 -->
<svg width="372pt" height="214pt"
 viewBox="0.00 0.00 372.00 214.00" xmlns="http://www.w3.org/2000/svg" xmlns:xlink="http://www.w3.org/1999/xlink">
<g id="graph0" class="graph" transform="scale(1 1) rotate(0) translate(4 210)">
<title>/home/runner/work/logger_system/logger_system/sources/logger/writers/batch_writer.h</title>
<!-- Node1 -->
<g id="Node000001" class="node">
<title>Node1</title>
<g id="a_Node000001"><a xlink:title=" ">
<polygon fill="#999999" stroke="#666666" points="268,-206 95,-206 95,-165 268,-165 268,-206"/>
<text text-anchor="start" x="103" y="-194" font-family="Helvetica,sans-Serif" font-size="10.00">/home/runner/work/logger</text>
<text text-anchor="start" x="103" y="-183" font-family="Helvetica,sans-Serif" font-size="10.00">_system/logger_system/sources</text>
<text text-anchor="middle" x="181.5" y="-172" font-family="Helvetica,sans-Serif" font-size="10.00">/logger/writers/batch_writer.h</text>
</a>
</g>
</g>
<!-- Node2 -->
<g id="Node000002" class="node">
<title>Node2</title>
<g id="a_Node000002"><a xlink:href="logger__builder_8h.html" target="_top" xlink:title="Builder pattern implementation for flexible logger configuration.">
<polygon fill="white" stroke="#666666" points="173,-129 0,-129 0,-88 173,-88 173,-129"/>
<text text-anchor="start" x="8" y="-117" font-family="Helvetica,sans-Serif" font-size="10.00">/home/runner/work/logger</text>
<text text-anchor="start" x="8" y="-106" font-family="Helvetica,sans-Serif" font-size="10.00">_system/logger_system/sources</text>
<text text-anchor="middle" x="86.5" y="-95" font-family="Helvetica,sans-Serif" font-size="10.00">/logger/config/logger_builder.h</text>
</a>
</g>
</g>
<!-- Node1&#45;&gt;Node2 -->
<g id="edge1_Node000001_Node000002" class="edge">
<title>Node1&#45;&gt;Node2</title>
<g id="a_edge1_Node000001_Node000002"><a xlink:title=" ">
<path fill="none" stroke="#63b8ff" d="M148.37,-158.35C136.19,-148.73 122.62,-138.01 111.29,-129.07"/>
<polygon fill="#63b8ff" stroke="#63b8ff" points="146.52,-161.35 156.54,-164.79 150.86,-155.85 146.52,-161.35"/>
</a>
</g>
</g>
<!-- Node4 -->
<g id="Node000004" class="node">
<title>Node4</title>
<g id="a_Node000004"><a xlink:href="batch__writer_8cpp.html" target="_top" xlink:title=" ">
<polygon fill="white" stroke="#666666" points="364,-129 191,-129 191,-88 364,-88 364,-129"/>
<text text-anchor="start" x="199" y="-117" font-family="Helvetica,sans-Serif" font-size="10.00">/home/runner/work/logger</text>
<text text-anchor="start" x="199" y="-106" font-family="Helvetica,sans-Serif" font-size="10.00">_system/logger_system/sources</text>
<text text-anchor="middle" x="277.5" y="-95" font-family="Helvetica,sans-Serif" font-size="10.00">/logger/writers/batch_writer.cpp</text>
</a>
</g>
</g>
<!-- Node1&#45;&gt;Node4 -->
<g id="edge3_Node000001_Node000004" class="edge">
<title>Node1&#45;&gt;Node4</title>
<g id="a_edge3_Node000001_Node000004"><a xlink:title=" ">
<path fill="none" stroke="#63b8ff" d="M214.38,-158.82C226.79,-149.11 240.72,-138.24 252.32,-129.17"/>
<polygon fill="#63b8ff" stroke="#63b8ff" points="212.2,-156.08 206.47,-164.99 216.51,-161.59 212.2,-156.08"/>
</a>
</g>
</g>
<!-- Node3 -->
<g id="Node000003" class="node">
<title>Node3</title>
<g id="a_Node000003"><a xlink:href="logger__v1__compat_8h.html" target="_top" xlink:title="Compatibility wrapper for Logger System v1.x API.">
<polygon fill="white" stroke="#666666" points="173,-52 0,-52 0,0 173,0 173,-52"/>
<text text-anchor="start" x="8" y="-40" font-family="Helvetica,sans-Serif" font-size="10.00">/home/runner/work/logger</text>
<text text-anchor="start" x="8" y="-29" font-family="Helvetica,sans-Serif" font-size="10.00">_system/logger_system/sources</text>
<text text-anchor="start" x="8" y="-18" font-family="Helvetica,sans-Serif" font-size="10.00">/logger/compatibility/logger</text>
<text text-anchor="middle" x="86.5" y="-7" font-family="Helvetica,sans-Serif" font-size="10.00">_v1_compat.h</text>
</a>
</g>
</g>
<!-- Node2&#45;&gt;Node3 -->
<g id="edge2_Node000002_Node000003" class="edge">
<title>Node2&#45;&gt;Node3</title>
<g id="a_edge2_Node000002_Node000003"><a xlink:title=" ">
<path fill="none" stroke="#63b8ff" d="M86.5,-77.49C86.5,-69.15 86.5,-60.19 86.5,-52.16"/>
<polygon fill="#63b8ff" stroke="#63b8ff" points="83,-77.6 86.5,-87.6 90,-77.6 83,-77.6"/>
</a>
</g>
</g>
</g>
</svg>
