<?xml version="1.0" encoding="UTF-8" standalone="no"?>
<!DOCTYPE svg PUBLIC "-//W3C//DTD SVG 1.1//EN"
 "http://www.w3.org/Graphics/SVG/1.1/DTD/svg11.dtd">
<!-- Generated by graphviz version 2.43.0 (0)
 -->
<!-- Title: /home/runner/work/logger_system/logger_system/sources/logger/writers/batch_writer.cpp Pages: 1 -->
<svg width="899pt" height="346pt"
 viewBox="0.00 0.00 899.00 346.00" xmlns="http://www.w3.org/2000/svg" xmlns:xlink="http://www.w3.org/1999/xlink">
<g id="graph0" class="graph" transform="scale(1 1) rotate(0) translate(4 342)">
<title>/home/runner/work/logger_system/logger_system/sources/logger/writers/batch_writer.cpp</title>
<!-- Node1 -->
<g id="Node000001" class="node">
<title>Node1</title>
<g id="a_Node000001"><a xlink:title=" ">
<polygon fill="#999999" stroke="#666666" points="783.5,-338 610.5,-338 610.5,-297 783.5,-297 783.5,-338"/>
<text text-anchor="start" x="618.5" y="-326" font-family="Helvetica,sans-Serif" font-size="10.00">/home/runner/work/logger</text>
<text text-anchor="start" x="618.5" y="-315" font-family="Helvetica,sans-Serif" font-size="10.00">_system/logger_system/sources</text>
<text text-anchor="middle" x="697" y="-304" font-family="Helvetica,sans-Serif" font-size="10.00">/logger/writers/batch_writer.cpp</text>
</a>
</g>
</g>
<!-- Node2 -->
<g id="Node000002" class="node">
<title>Node2</title>
<g id="a_Node000002"><a xlink:href="batch__writer_8h.html" target="_top" xlink:title=" ">
<polygon fill="white" stroke="#666666" points="639,-261 553,-261 553,-242 639,-242 639,-261"/>
<text text-anchor="middle" x="596" y="-249" font-family="Helvetica,sans-Serif" font-size="10.00">batch_writer.h</text>
</a>
</g>
</g>
<!-- Node1&#45;&gt;Node2 -->
<g id="edge1_Node000001_Node000002" class="edge">
<title>Node1&#45;&gt;Node2</title>
<g id="a_edge1_Node000001_Node000002"><a xlink:title=" ">
<path fill="none" stroke="#63b8ff" d="M666.15,-296.95C650.63,-287.12 632.19,-275.43 618.11,-266.51"/>
<polygon fill="#63b8ff" stroke="#63b8ff" points="619.88,-263.49 609.56,-261.09 616.13,-269.4 619.88,-263.49"/>
</a>
</g>
</g>
<!-- Node17 -->
<g id="Node000017" class="node">
<title>Node17</title>
<g id="a_Node000017"><a xlink:title=" ">
<polygon fill="#e0e0e0" stroke="#999999" points="891,-24.5 827,-24.5 827,-5.5 891,-5.5 891,-24.5"/>
<text text-anchor="middle" x="859" y="-12.5" font-family="Helvetica,sans-Serif" font-size="10.00">algorithm</text>
</a>
</g>
</g>
<!-- Node1&#45;&gt;Node17 -->
<g id="edge33_Node000001_Node000017" class="edge">
<title>Node1&#45;&gt;Node17</title>
<g id="a_edge33_Node000001_Node000017"><a xlink:title=" ">
<path fill="none" stroke="#63b8ff" d="M759.1,-296.83C802.61,-278.73 853,-247.06 853,-197.5 853,-197.5 853,-197.5 853,-135 853,-99.61 855.68,-58.37 857.46,-34.91"/>
<polygon fill="#63b8ff" stroke="#63b8ff" points="860.97,-34.9 858.26,-24.65 853.99,-34.35 860.97,-34.9"/>
</a>
</g>
</g>
<!-- Node3 -->
<g id="Node000003" class="node">
<title>Node3</title>
<g id="a_Node000003"><a xlink:href="base__writer_8h.html" target="_top" xlink:title="Abstract base class for all log output writers.">
<polygon fill="white" stroke="#666666" points="416,-206 334,-206 334,-187 416,-187 416,-206"/>
<text text-anchor="middle" x="375" y="-194" font-family="Helvetica,sans-Serif" font-size="10.00">base_writer.h</text>
</a>
</g>
</g>
<!-- Node2&#45;&gt;Node3 -->
<g id="edge2_Node000002_Node000003" class="edge">
<title>Node2&#45;&gt;Node3</title>
<g id="a_edge2_Node000002_Node000003"><a xlink:title=" ">
<path fill="none" stroke="#63b8ff" d="M560.49,-241.98C522.51,-232.87 462.13,-218.4 420.64,-208.45"/>
<polygon fill="#63b8ff" stroke="#63b8ff" points="421.33,-205.01 410.79,-206.08 419.69,-211.82 421.33,-205.01"/>
</a>
</g>
</g>
<!-- Node5 -->
<g id="Node000005" class="node">
<title>Node5</title>
<g id="a_Node000005"><a xlink:title=" ">
<polygon fill="#e0e0e0" stroke="#999999" points="349,-85 299,-85 299,-66 349,-66 349,-85"/>
<text text-anchor="middle" x="324" y="-73" font-family="Helvetica,sans-Serif" font-size="10.00">chrono</text>
</a>
</g>
</g>
<!-- Node2&#45;&gt;Node5 -->
<g id="edge31_Node000002_Node000005" class="edge">
<title>Node2&#45;&gt;Node5</title>
<g id="a_edge31_Node000002_Node000005"><a xlink:title=" ">
<path fill="none" stroke="#63b8ff" d="M552.88,-243.36C525.11,-237.1 489.39,-225.79 463,-206 426.21,-178.41 438.09,-151.87 404,-121 389.56,-107.93 370.61,-97.17 354.78,-89.51"/>
<polygon fill="#63b8ff" stroke="#63b8ff" points="355.94,-86.19 345.39,-85.15 352.98,-92.54 355.94,-86.19"/>
</a>
</g>
</g>
<!-- Node12 -->
<g id="Node000012" class="node">
<title>Node12</title>
<g id="a_Node000012"><a xlink:href="log__entry_8h.html" target="_top" xlink:title="Data structures for representing log entries and source locations.">
<polygon fill="white" stroke="#666666" points="641.5,-145.5 510.5,-145.5 510.5,-126.5 641.5,-126.5 641.5,-145.5"/>
<text text-anchor="middle" x="576" y="-133.5" font-family="Helvetica,sans-Serif" font-size="10.00">../interfaces/log_entry.h</text>
</a>
</g>
</g>
<!-- Node2&#45;&gt;Node12 -->
<g id="edge27_Node000002_Node000012" class="edge">
<title>Node2&#45;&gt;Node12</title>
<g id="a_edge27_Node000002_Node000012"><a xlink:title=" ">
<path fill="none" stroke="#63b8ff" d="M617.79,-241.99C642.22,-231.08 676.73,-210.72 663,-187 652.77,-169.32 633.65,-157.34 615.94,-149.56"/>
<polygon fill="#63b8ff" stroke="#63b8ff" points="616.89,-146.16 606.31,-145.65 614.26,-152.65 616.89,-146.16"/>
</a>
</g>
</g>
<!-- Node18 -->
<g id="Node000018" class="node">
<title>Node18</title>
<g id="a_Node000018"><a xlink:title=" ">
<polygon fill="#e0e0e0" stroke="#999999" points="809,-24.5 751,-24.5 751,-5.5 809,-5.5 809,-24.5"/>
<text text-anchor="middle" x="780" y="-12.5" font-family="Helvetica,sans-Serif" font-size="10.00">memory</text>
</a>
</g>
</g>
<!-- Node2&#45;&gt;Node18 -->
<g id="edge29_Node000002_Node000018" class="edge">
<title>Node2&#45;&gt;Node18</title>
<g id="a_edge29_Node000002_Node000018"><a xlink:title=" ">
<path fill="none" stroke="#63b8ff" d="M616.43,-241.89C633.8,-234.01 658.89,-221.27 678,-206 733.85,-161.36 758.83,-151.92 784,-85 790.07,-68.87 788.07,-49.12 785.14,-34.89"/>
<polygon fill="#63b8ff" stroke="#63b8ff" points="788.47,-33.75 782.74,-24.84 781.66,-35.38 788.47,-33.75"/>
</a>
</g>
</g>
<!-- Node19 -->
<g id="Node000019" class="node">
<title>Node19</title>
<g id="a_Node000019"><a xlink:title=" ">
<polygon fill="#e0e0e0" stroke="#999999" points="519.5,-206 472.5,-206 472.5,-187 519.5,-187 519.5,-206"/>
<text text-anchor="middle" x="496" y="-194" font-family="Helvetica,sans-Serif" font-size="10.00">vector</text>
</a>
</g>
</g>
<!-- Node2&#45;&gt;Node19 -->
<g id="edge28_Node000002_Node000019" class="edge">
<title>Node2&#45;&gt;Node19</title>
<g id="a_edge28_Node000002_Node000019"><a xlink:title=" ">
<path fill="none" stroke="#63b8ff" d="M579.93,-241.98C564.14,-233.61 539.78,-220.7 521.37,-210.95"/>
<polygon fill="#63b8ff" stroke="#63b8ff" points="522.83,-207.76 512.36,-206.17 519.56,-213.95 522.83,-207.76"/>
</a>
</g>
</g>
<!-- Node20 -->
<g id="Node000020" class="node">
<title>Node20</title>
<g id="a_Node000020"><a xlink:title=" ">
<polygon fill="#e0e0e0" stroke="#999999" points="586,-206 538,-206 538,-187 586,-187 586,-206"/>
<text text-anchor="middle" x="562" y="-194" font-family="Helvetica,sans-Serif" font-size="10.00">mutex</text>
</a>
</g>
</g>
<!-- Node2&#45;&gt;Node20 -->
<g id="edge30_Node000002_Node000020" class="edge">
<title>Node2&#45;&gt;Node20</title>
<g id="a_edge30_Node000002_Node000020"><a xlink:title=" ">
<path fill="none" stroke="#63b8ff" d="M590.39,-241.75C585.68,-234.42 578.83,-223.73 573.03,-214.7"/>
<polygon fill="#63b8ff" stroke="#63b8ff" points="575.86,-212.62 567.51,-206.09 569.96,-216.4 575.86,-212.62"/>
</a>
</g>
</g>
<!-- Node21 -->
<g id="Node000021" class="node">
<title>Node21</title>
<g id="a_Node000021"><a xlink:title=" ">
<polygon fill="#e0e0e0" stroke="#999999" points="654,-206 604,-206 604,-187 654,-187 654,-206"/>
<text text-anchor="middle" x="629" y="-194" font-family="Helvetica,sans-Serif" font-size="10.00">atomic</text>
</a>
</g>
</g>
<!-- Node2&#45;&gt;Node21 -->
<g id="edge32_Node000002_Node000021" class="edge">
<title>Node2&#45;&gt;Node21</title>
<g id="a_edge32_Node000002_Node000021"><a xlink:title=" ">
<path fill="none" stroke="#63b8ff" d="M601.45,-241.75C606.01,-234.42 612.67,-223.73 618.29,-214.7"/>
<polygon fill="#63b8ff" stroke="#63b8ff" points="621.34,-216.43 623.65,-206.09 615.4,-212.73 621.34,-216.43"/>
</a>
</g>
</g>
<!-- Node4 -->
<g id="Node000004" class="node">
<title>Node4</title>
<g id="a_Node000004"><a xlink:title=" ">
<polygon fill="#e0e0e0" stroke="#999999" points="293,-24.5 249,-24.5 249,-5.5 293,-5.5 293,-24.5"/>
<text text-anchor="middle" x="271" y="-12.5" font-family="Helvetica,sans-Serif" font-size="10.00">string</text>
</a>
</g>
</g>
<!-- Node3&#45;&gt;Node4 -->
<g id="edge3_Node000003_Node000004" class="edge">
<title>Node3&#45;&gt;Node4</title>
<g id="a_edge3_Node000003_Node000004"><a xlink:title=" ">
<path fill="none" stroke="#63b8ff" d="M333.92,-193.76C303.36,-190.05 263.53,-179.58 243,-151 217.15,-115 243.34,-60.45 259.82,-33.02"/>
<polygon fill="#63b8ff" stroke="#63b8ff" points="262.8,-34.85 265.14,-24.52 256.86,-31.14 262.8,-34.85"/>
</a>
</g>
</g>
<!-- Node3&#45;&gt;Node5 -->
<g id="edge4_Node000003_Node000005" class="edge">
<title>Node3&#45;&gt;Node5</title>
<g id="a_edge4_Node000003_Node000005"><a xlink:title=" ">
<path fill="none" stroke="#63b8ff" d="M379.71,-186.69C386.79,-172.16 398.21,-142.64 387,-121 379.96,-107.41 366.66,-97.09 354.08,-89.82"/>
<polygon fill="#63b8ff" stroke="#63b8ff" points="355.62,-86.68 345.15,-85.07 352.33,-92.86 355.62,-86.68"/>
</a>
</g>
</g>
<!-- Node6 -->
<g id="Node000006" class="node">
<title>Node6</title>
<g id="a_Node000006"><a xlink:title=" ">
<polygon fill="#e0e0e0" stroke="#999999" points="524.5,-85 367.5,-85 367.5,-66 524.5,-66 524.5,-85"/>
<text text-anchor="middle" x="446" y="-73" font-family="Helvetica,sans-Serif" font-size="10.00">interfaces/logger_interface.h</text>
</a>
</g>
</g>
<!-- Node3&#45;&gt;Node6 -->
<g id="edge5_Node000003_Node000006" class="edge">
<title>Node3&#45;&gt;Node6</title>
<g id="a_edge5_Node000003_Node000006"><a xlink:title=" ">
<path fill="none" stroke="#63b8ff" d="M380.95,-186.74C386.93,-177.84 396.35,-163.61 404,-151 415.63,-131.84 428.14,-109.38 436.46,-94.16"/>
<polygon fill="#63b8ff" stroke="#63b8ff" points="439.56,-95.78 441.27,-85.32 433.41,-92.44 439.56,-95.78"/>
</a>
</g>
</g>
<!-- Node7 -->
<g id="Node000007" class="node">
<title>Node7</title>
<g id="a_Node000007"><a xlink:href="error__codes_8h.html" target="_top" xlink:title=" ">
<polygon fill="white" stroke="#666666" points="205,-85 113,-85 113,-66 205,-66 205,-85"/>
<text text-anchor="middle" x="159" y="-73" font-family="Helvetica,sans-Serif" font-size="10.00">../error_codes.h</text>
</a>
</g>
</g>
<!-- Node3&#45;&gt;Node7 -->
<g id="edge6_Node000003_Node000007" class="edge">
<title>Node3&#45;&gt;Node7</title>
<g id="a_edge6_Node000003_Node000007"><a xlink:title=" ">
<path fill="none" stroke="#63b8ff" d="M333.99,-192.4C298.39,-187.96 246.9,-177.18 210,-151 189.78,-136.66 175.08,-111.6 166.79,-94.54"/>
<polygon fill="#63b8ff" stroke="#63b8ff" points="169.82,-92.75 162.47,-85.12 163.46,-95.67 169.82,-92.75"/>
</a>
</g>
</g>
<!-- Node11 -->
<g id="Node000011" class="node">
<title>Node11</title>
<g id="a_Node000011"><a xlink:href="log__writer__interface_8h.html" target="_top" xlink:title=" ">
<polygon fill="white" stroke="#666666" points="378,-151 252,-151 252,-121 378,-121 378,-151"/>
<text text-anchor="start" x="260" y="-139" font-family="Helvetica,sans-Serif" font-size="10.00">../interfaces/log_writer</text>
<text text-anchor="middle" x="315" y="-128" font-family="Helvetica,sans-Serif" font-size="10.00">_interface.h</text>
</a>
</g>
</g>
<!-- Node3&#45;&gt;Node11 -->
<g id="edge11_Node000003_Node000011" class="edge">
<title>Node3&#45;&gt;Node11</title>
<g id="a_edge11_Node000003_Node000011"><a xlink:title=" ">
<path fill="none" stroke="#63b8ff" d="M366.15,-186.87C358.46,-179.37 347,-168.2 336.87,-158.33"/>
<polygon fill="#63b8ff" stroke="#63b8ff" points="339.08,-155.59 329.48,-151.11 334.19,-160.6 339.08,-155.59"/>
</a>
</g>
</g>
<!-- Node3&#45;&gt;Node12 -->
<g id="edge15_Node000003_Node000012" class="edge">
<title>Node3&#45;&gt;Node12</title>
<g id="a_edge15_Node000003_Node000012"><a xlink:title=" ">
<path fill="none" stroke="#63b8ff" d="M404.23,-186.99C439.21,-176.81 497.93,-159.72 536.82,-148.4"/>
<polygon fill="#63b8ff" stroke="#63b8ff" points="538.11,-151.67 546.74,-145.52 536.16,-144.95 538.11,-151.67"/>
</a>
</g>
</g>
<!-- Node7&#45;&gt;Node4 -->
<g id="edge7_Node000007_Node000004" class="edge">
<title>Node7&#45;&gt;Node4</title>
<g id="a_edge7_Node000007_Node000004"><a xlink:title=" ">
<path fill="none" stroke="#63b8ff" d="M175.53,-65.87C193.97,-56.23 224.04,-40.53 245.51,-29.31"/>
<polygon fill="#63b8ff" stroke="#63b8ff" points="247.16,-32.4 254.41,-24.67 243.92,-26.19 247.16,-32.4"/>
</a>
</g>
</g>
<!-- Node8 -->
<g id="Node000008" class="node">
<title>Node8</title>
<g id="a_Node000008"><a xlink:title=" ">
<polygon fill="#e0e0e0" stroke="#999999" points="211.5,-24.5 146.5,-24.5 146.5,-5.5 211.5,-5.5 211.5,-24.5"/>
<text text-anchor="middle" x="179" y="-12.5" font-family="Helvetica,sans-Serif" font-size="10.00">stdexcept</text>
</a>
</g>
</g>
<!-- Node7&#45;&gt;Node8 -->
<g id="edge8_Node000007_Node000008" class="edge">
<title>Node7&#45;&gt;Node8</title>
<g id="a_edge8_Node000007_Node000008"><a xlink:title=" ">
<path fill="none" stroke="#63b8ff" d="M161.95,-65.87C164.79,-57.57 169.16,-44.78 172.77,-34.22"/>
<polygon fill="#63b8ff" stroke="#63b8ff" points="176.11,-35.26 176.04,-24.67 169.49,-33 176.11,-35.26"/>
</a>
</g>
</g>
<!-- Node9 -->
<g id="Node000009" class="node">
<title>Node9</title>
<g id="a_Node000009"><a xlink:title=" ">
<polygon fill="#e0e0e0" stroke="#999999" points="468.5,-24.5 423.5,-24.5 423.5,-5.5 468.5,-5.5 468.5,-24.5"/>
<text text-anchor="middle" x="446" y="-12.5" font-family="Helvetica,sans-Serif" font-size="10.00">utility</text>
</a>
</g>
</g>
<!-- Node7&#45;&gt;Node9 -->
<g id="edge9_Node000007_Node000009" class="edge">
<title>Node7&#45;&gt;Node9</title>
<g id="a_edge9_Node000007_Node000009"><a xlink:title=" ">
<path fill="none" stroke="#63b8ff" d="M200.73,-65.99C258.33,-54.25 360.99,-33.33 413.34,-22.66"/>
<polygon fill="#63b8ff" stroke="#63b8ff" points="414.32,-26.03 423.42,-20.6 412.92,-19.17 414.32,-26.03"/>
</a>
</g>
</g>
<!-- Node10 -->
<g id="Node000010" class="node">
<title>Node10</title>
<g id="a_Node000010"><a xlink:title=" ">
<polygon fill="#e0e0e0" stroke="#999999" points="128,-30 0,-30 0,0 128,0 128,-30"/>
<text text-anchor="start" x="8" y="-18" font-family="Helvetica,sans-Serif" font-size="10.00">thread_base/sync/error</text>
<text text-anchor="middle" x="64" y="-7" font-family="Helvetica,sans-Serif" font-size="10.00">_handling.h</text>
</a>
</g>
</g>
<!-- Node7&#45;&gt;Node10 -->
<g id="edge10_Node000007_Node000010" class="edge">
<title>Node7&#45;&gt;Node10</title>
<g id="a_edge10_Node000007_Node000010"><a xlink:title=" ">
<path fill="none" stroke="#63b8ff" d="M144.98,-65.87C132.09,-57.93 112.51,-45.87 95.83,-35.6"/>
<polygon fill="#63b8ff" stroke="#63b8ff" points="97.27,-32.38 86.92,-30.11 93.6,-38.34 97.27,-32.38"/>
</a>
</g>
</g>
<!-- Node11&#45;&gt;Node4 -->
<g id="edge12_Node000011_Node000004" class="edge">
<title>Node11&#45;&gt;Node4</title>
<g id="a_edge12_Node000011_Node000004"><a xlink:title=" ">
<path fill="none" stroke="#63b8ff" d="M307.02,-120.89C301.69,-111.06 294.8,-97.51 290,-85 283.61,-68.34 278.41,-48.66 275.08,-34.59"/>
<polygon fill="#63b8ff" stroke="#63b8ff" points="278.45,-33.64 272.82,-24.67 271.63,-35.2 278.45,-33.64"/>
</a>
</g>
</g>
<!-- Node11&#45;&gt;Node5 -->
<g id="edge13_Node000011_Node000005" class="edge">
<title>Node11&#45;&gt;Node5</title>
<g id="a_edge13_Node000011_Node000005"><a xlink:title=" ">
<path fill="none" stroke="#63b8ff" d="M317.18,-120.84C318.37,-113.13 319.85,-103.49 321.13,-95.17"/>
<polygon fill="#63b8ff" stroke="#63b8ff" points="324.59,-95.68 322.65,-85.27 317.67,-94.62 324.59,-95.68"/>
</a>
</g>
</g>
<!-- Node11&#45;&gt;Node7 -->
<g id="edge14_Node000011_Node000007" class="edge">
<title>Node11&#45;&gt;Node7</title>
<g id="a_edge14_Node000011_Node000007"><a xlink:title=" ">
<path fill="none" stroke="#63b8ff" d="M277.63,-120.99C251.37,-111.14 216.59,-98.1 191.48,-88.68"/>
<polygon fill="#63b8ff" stroke="#63b8ff" points="192.63,-85.37 182.04,-85.14 190.17,-91.93 192.63,-85.37"/>
</a>
</g>
</g>
<!-- Node12&#45;&gt;Node4 -->
<g id="edge16_Node000012_Node000004" class="edge">
<title>Node12&#45;&gt;Node4</title>
<g id="a_edge16_Node000012_Node000004"><a xlink:title=" ">
<path fill="none" stroke="#63b8ff" d="M573.27,-126.16C568.16,-111.19 555.67,-81.02 534,-66 496.97,-40.34 365.2,-24.87 303.42,-18.87"/>
<polygon fill="#63b8ff" stroke="#63b8ff" points="303.37,-15.35 293.08,-17.89 302.71,-22.32 303.37,-15.35"/>
</a>
</g>
</g>
<!-- Node12&#45;&gt;Node5 -->
<g id="edge17_Node000012_Node000005" class="edge">
<title>Node12&#45;&gt;Node5</title>
<g id="a_edge17_Node000012_Node000005"><a xlink:title=" ">
<path fill="none" stroke="#63b8ff" d="M537.75,-126.46C496.22,-117.14 427.68,-101.61 359.32,-85.28"/>
<polygon fill="#63b8ff" stroke="#63b8ff" points="359.78,-81.79 349.24,-82.87 358.15,-88.6 359.78,-81.79"/>
</a>
</g>
</g>
<!-- Node12&#45;&gt;Node6 -->
<g id="edge26_Node000012_Node000006" class="edge">
<title>Node12&#45;&gt;Node6</title>
<g id="a_edge26_Node000012_Node000006"><a xlink:title=" ">
<path fill="none" stroke="#63b8ff" d="M557.1,-126.49C535.34,-116.7 499.38,-100.52 474.29,-89.23"/>
<polygon fill="#63b8ff" stroke="#63b8ff" points="475.48,-85.93 464.93,-85.02 472.61,-92.31 475.48,-85.93"/>
</a>
</g>
</g>
<!-- Node13 -->
<g id="Node000013" class="node">
<title>Node13</title>
<g id="a_Node000013"><a xlink:title=" ">
<polygon fill="#e0e0e0" stroke="#999999" points="637,-85 581,-85 581,-66 637,-66 637,-85"/>
<text text-anchor="middle" x="609" y="-73" font-family="Helvetica,sans-Serif" font-size="10.00">optional</text>
</a>
</g>
</g>
<!-- Node12&#45;&gt;Node13 -->
<g id="edge18_Node000012_Node000013" class="edge">
<title>Node12&#45;&gt;Node13</title>
<g id="a_edge18_Node000012_Node000013"><a xlink:title=" ">
<path fill="none" stroke="#63b8ff" d="M580.87,-126.37C585.65,-117.9 593.07,-104.74 599.09,-94.07"/>
<polygon fill="#63b8ff" stroke="#63b8ff" points="602.25,-95.6 604.11,-85.17 596.15,-92.16 602.25,-95.6"/>
</a>
</g>
</g>
<!-- Node14 -->
<g id="Node000014" class="node">
<title>Node14</title>
<g id="a_Node000014"><a xlink:href="small__string_8h.html" target="_top" xlink:title=" ">
<polygon fill="white" stroke="#666666" points="774.5,-85 655.5,-85 655.5,-66 774.5,-66 774.5,-85"/>
<text text-anchor="middle" x="715" y="-73" font-family="Helvetica,sans-Serif" font-size="10.00">../core/small_string.h</text>
</a>
</g>
</g>
<!-- Node12&#45;&gt;Node14 -->
<g id="edge19_Node000012_Node000014" class="edge">
<title>Node12&#45;&gt;Node14</title>
<g id="a_edge19_Node000012_Node000014"><a xlink:title=" ">
<path fill="none" stroke="#63b8ff" d="M596.21,-126.49C619.68,-116.62 658.61,-100.23 685.46,-88.93"/>
<polygon fill="#63b8ff" stroke="#63b8ff" points="686.9,-92.12 694.76,-85.02 684.19,-85.67 686.9,-92.12"/>
</a>
</g>
</g>
<!-- Node14&#45;&gt;Node4 -->
<g id="edge21_Node000014_Node000004" class="edge">
<title>Node14&#45;&gt;Node4</title>
<g id="a_edge21_Node000014_Node000004"><a xlink:title=" ">
<path fill="none" stroke="#63b8ff" d="M655.12,-66.61C559.91,-54.07 377.24,-30 303.27,-20.25"/>
<polygon fill="#63b8ff" stroke="#63b8ff" points="303.55,-16.76 293.17,-18.92 302.63,-23.7 303.55,-16.76"/>
</a>
</g>
</g>
<!-- Node14&#45;&gt;Node9 -->
<g id="edge25_Node000014_Node000009" class="edge">
<title>Node14&#45;&gt;Node9</title>
<g id="a_edge25_Node000014_Node000009"><a xlink:title=" ">
<path fill="none" stroke="#63b8ff" d="M675.89,-65.99C622.56,-54.4 528.01,-33.84 478.42,-23.05"/>
<polygon fill="#63b8ff" stroke="#63b8ff" points="479.07,-19.61 468.55,-20.9 477.58,-26.45 479.07,-19.61"/>
</a>
</g>
</g>
<!-- Node15 -->
<g id="Node000015" class="node">
<title>Node15</title>
<g id="a_Node000015"><a xlink:title=" ">
<polygon fill="#e0e0e0" stroke="#999999" points="733,-24.5 683,-24.5 683,-5.5 733,-5.5 733,-24.5"/>
<text text-anchor="middle" x="708" y="-12.5" font-family="Helvetica,sans-Serif" font-size="10.00">cstring</text>
</a>
</g>
</g>
<!-- Node14&#45;&gt;Node15 -->
<g id="edge20_Node000014_Node000015" class="edge">
<title>Node14&#45;&gt;Node15</title>
<g id="a_edge20_Node000014_Node000015"><a xlink:title=" ">
<path fill="none" stroke="#63b8ff" d="M713.97,-65.87C713,-57.75 711.51,-45.31 710.26,-34.89"/>
<polygon fill="#63b8ff" stroke="#63b8ff" points="713.7,-34.18 709.04,-24.67 706.75,-35.01 713.7,-34.18"/>
</a>
</g>
</g>
<!-- Node16 -->
<g id="Node000016" class="node">
<title>Node16</title>
<g id="a_Node000016"><a xlink:title=" ">
<polygon fill="#e0e0e0" stroke="#999999" points="664.5,-24.5 591.5,-24.5 591.5,-5.5 664.5,-5.5 664.5,-24.5"/>
<text text-anchor="middle" x="628" y="-12.5" font-family="Helvetica,sans-Serif" font-size="10.00">string_view</text>
</a>
</g>
</g>
<!-- Node14&#45;&gt;Node16 -->
<g id="edge22_Node000014_Node000016" class="edge">
<title>Node14&#45;&gt;Node16</title>
<g id="a_edge22_Node000014_Node000016"><a xlink:title=" ">
<path fill="none" stroke="#63b8ff" d="M702.16,-65.87C688.28,-56.54 665.93,-41.51 649.39,-30.38"/>
<polygon fill="#63b8ff" stroke="#63b8ff" points="651.14,-27.34 640.89,-24.67 647.24,-33.15 651.14,-27.34"/>
</a>
</g>
</g>
<!-- Node14&#45;&gt;Node17 -->
<g id="edge23_Node000014_Node000017" class="edge">
<title>Node14&#45;&gt;Node17</title>
<g id="a_edge23_Node000014_Node000017"><a xlink:title=" ">
<path fill="none" stroke="#63b8ff" d="M735.94,-65.99C760.36,-56.07 800.93,-39.59 828.77,-28.28"/>
<polygon fill="#63b8ff" stroke="#63b8ff" points="830.09,-31.52 838.04,-24.52 827.45,-25.04 830.09,-31.52"/>
</a>
</g>
</g>
<!-- Node14&#45;&gt;Node18 -->
<g id="edge24_Node000014_Node000018" class="edge">
<title>Node14&#45;&gt;Node18</title>
<g id="a_edge24_Node000014_Node000018"><a xlink:title=" ">
<path fill="none" stroke="#63b8ff" d="M724.59,-65.87C734.58,-56.88 750.43,-42.61 762.63,-31.64"/>
<polygon fill="#63b8ff" stroke="#63b8ff" points="765.28,-33.96 770.37,-24.67 760.6,-28.76 765.28,-33.96"/>
</a>
</g>
</g>
</g>
</svg>
