<?xml version="1.0" encoding="UTF-8" standalone="no"?>
<!DOCTYPE svg PUBLIC "-//W3C//DTD SVG 1.1//EN"
 "http://www.w3.org/Graphics/SVG/1.1/DTD/svg11.dtd">
<!-- Generated by graphviz version 2.43.0 (0)
 -->
<!-- Title: logger_module::access_control_filter Pages: 1 -->
<svg width="136pt" height="170pt"
 viewBox="0.00 0.00 136.00 170.00" xmlns="http://www.w3.org/2000/svg" xmlns:xlink="http://www.w3.org/1999/xlink">
<g id="graph0" class="graph" transform="scale(1 1) rotate(0) translate(4 166)">
<title>logger_module::access_control_filter</title>
<!-- Node1 -->
<g id="Node000001" class="node">
<title>Node1</title>
<g id="a_Node000001"><a xlink:title="Filter that controls access based on log level and source.">
<polygon fill="#999999" stroke="#666666" points="128,-30 0,-30 0,0 128,0 128,-30"/>
<text text-anchor="start" x="8" y="-18" font-family="Helvetica,sans-Serif" font-size="10.00">logger_module::access</text>
<text text-anchor="middle" x="64" y="-7" font-family="Helvetica,sans-Serif" font-size="10.00">_control_filter</text>
</a>
</g>
</g>
<!-- Node2 -->
<g id="Node000002" class="node">
<title>Node2</title>
<g id="a_Node000002"><a xlink:href="classlogger__module_1_1log__filter.html" target="_top" xlink:title="Base class for log filtering.">
<polygon fill="white" stroke="#666666" points="119,-96 9,-96 9,-66 119,-66 119,-96"/>
<text text-anchor="start" x="17" y="-84" font-family="Helvetica,sans-Serif" font-size="10.00">logger_module::log</text>
<text text-anchor="middle" x="64" y="-73" font-family="Helvetica,sans-Serif" font-size="10.00">_filter</text>
</a>
</g>
</g>
<!-- Node2&#45;&gt;Node1 -->
<g id="edge1_Node000001_Node000002" class="edge">
<title>Node2&#45;&gt;Node1</title>
<g id="a_edge1_Node000001_Node000002"><a xlink:title=" ">
<path fill="none" stroke="#63b8ff" d="M64,-55.54C64,-46.96 64,-37.61 64,-30.16"/>
<polygon fill="#63b8ff" stroke="#63b8ff" points="60.5,-55.8 64,-65.8 67.5,-55.8 60.5,-55.8"/>
</a>
</g>
</g>
<!-- Node3 -->
<g id="Node000003" class="node">
<title>Node3</title>
<g id="a_Node000003"><a xlink:href="classlogger__module_1_1log__filter__interface.html" target="_top" xlink:title="Interface for log filters.">
<polygon fill="white" stroke="#666666" points="119,-162 9,-162 9,-132 119,-132 119,-162"/>
<text text-anchor="start" x="17" y="-150" font-family="Helvetica,sans-Serif" font-size="10.00">logger_module::log</text>
<text text-anchor="middle" x="64" y="-139" font-family="Helvetica,sans-Serif" font-size="10.00">_filter_interface</text>
</a>
</g>
</g>
<!-- Node3&#45;&gt;Node2 -->
<g id="edge2_Node000002_Node000003" class="edge">
<title>Node3&#45;&gt;Node2</title>
<g id="a_edge2_Node000002_Node000003"><a xlink:title=" ">
<path fill="none" stroke="#63b8ff" d="M64,-121.54C64,-112.96 64,-103.61 64,-96.16"/>
<polygon fill="#63b8ff" stroke="#63b8ff" points="60.5,-121.8 64,-131.8 67.5,-121.8 60.5,-121.8"/>
</a>
</g>
</g>
</g>
</svg>
