<?xml version="1.0" encoding="UTF-8" standalone="no"?>
<!DOCTYPE svg PUBLIC "-//W3C//DTD SVG 1.1//EN"
 "http://www.w3.org/Graphics/SVG/1.1/DTD/svg11.dtd">
<!-- Generated by graphviz version 2.43.0 (0)
 -->
<!-- Title: logger_module::base_writer Pages: 1 -->
<svg width="477pt" height="182pt"
 viewBox="0.00 0.00 477.00 182.00" xmlns="http://www.w3.org/2000/svg" xmlns:xlink="http://www.w3.org/1999/xlink">
<g id="graph0" class="graph" transform="scale(1 1) rotate(0) translate(4 178)">
<title>logger_module::base_writer</title>
<!-- Node1 -->
<g id="Node000001" class="node">
<title>Node1</title>
<g id="a_Node000001"><a xlink:title="Base class for all log writers.">
<polygon fill="#999999" stroke="#666666" points="119,-102 0,-102 0,-72 119,-72 119,-102"/>
<text text-anchor="start" x="8" y="-90" font-family="Helvetica,sans-Serif" font-size="10.00">logger_module::base</text>
<text text-anchor="middle" x="59.5" y="-79" font-family="Helvetica,sans-Serif" font-size="10.00">_writer</text>
</a>
</g>
</g>
<!-- Node2 -->
<g id="Node000002" class="node">
<title>Node2</title>
<g id="a_Node000002"><a xlink:href="classlogger__module_1_1console__writer.html" target="_top" xlink:title="Console writer that outputs logs to stdout/stderr.">
<polygon fill="white" stroke="#666666" points="293.5,-174 160.5,-174 160.5,-144 293.5,-144 293.5,-174"/>
<text text-anchor="start" x="168.5" y="-162" font-family="Helvetica,sans-Serif" font-size="10.00">logger_module::console</text>
<text text-anchor="middle" x="227" y="-151" font-family="Helvetica,sans-Serif" font-size="10.00">_writer</text>
</a>
</g>
</g>
<!-- Node1&#45;&gt;Node2 -->
<g id="edge1_Node000001_Node000002" class="edge">
<title>Node1&#45;&gt;Node2</title>
<g id="a_edge1_Node000001_Node000002"><a xlink:title=" ">
<path fill="none" stroke="#63b8ff" d="M96.9,-107.04C114.22,-116.17 135.39,-126.76 155,-135 162.44,-138.13 170.44,-141.15 178.29,-143.93"/>
<polygon fill="#63b8ff" stroke="#63b8ff" points="98.18,-103.75 87.71,-102.14 94.89,-109.93 98.18,-103.75"/>
</a>
</g>
</g>
<!-- Node3 -->
<g id="Node000003" class="node">
<title>Node3</title>
<g id="a_Node000003"><a xlink:href="classlogger__module_1_1encrypted__writer.html" target="_top" xlink:title="Writer that encrypts log data before passing to another writer.">
<polygon fill="white" stroke="#666666" points="299,-126 155,-126 155,-96 299,-96 299,-126"/>
<text text-anchor="start" x="163" y="-114" font-family="Helvetica,sans-Serif" font-size="10.00">logger_module::encrypted</text>
<text text-anchor="middle" x="227" y="-103" font-family="Helvetica,sans-Serif" font-size="10.00">_writer</text>
</a>
</g>
</g>
<!-- Node1&#45;&gt;Node3 -->
<g id="edge2_Node000001_Node000003" class="edge">
<title>Node1&#45;&gt;Node3</title>
<g id="a_edge2_Node000001_Node000003"><a xlink:title=" ">
<path fill="none" stroke="#63b8ff" d="M129.45,-97C137.86,-98.22 146.47,-99.47 154.91,-100.69"/>
<polygon fill="#63b8ff" stroke="#63b8ff" points="129.71,-93.5 119.32,-95.53 128.71,-100.43 129.71,-93.5"/>
</a>
</g>
</g>
<!-- Node4 -->
<g id="Node000004" class="node">
<title>Node4</title>
<g id="a_Node000004"><a xlink:href="classlogger__module_1_1file__writer.html" target="_top" xlink:title="Basic file writer for logging to files.">
<polygon fill="white" stroke="#666666" points="282,-78 172,-78 172,-48 282,-48 282,-78"/>
<text text-anchor="start" x="180" y="-66" font-family="Helvetica,sans-Serif" font-size="10.00">logger_module::file</text>
<text text-anchor="middle" x="227" y="-55" font-family="Helvetica,sans-Serif" font-size="10.00">_writer</text>
</a>
</g>
</g>
<!-- Node1&#45;&gt;Node4 -->
<g id="edge3_Node000001_Node000004" class="edge">
<title>Node1&#45;&gt;Node4</title>
<g id="a_edge3_Node000001_Node000004"><a xlink:title=" ">
<path fill="none" stroke="#63b8ff" d="M129.48,-77C143.6,-74.95 158.28,-72.82 171.79,-70.86"/>
<polygon fill="#63b8ff" stroke="#63b8ff" points="128.71,-73.57 119.32,-78.47 129.71,-80.5 128.71,-73.57"/>
</a>
</g>
</g>
<!-- Node6 -->
<g id="Node000006" class="node">
<title>Node6</title>
<g id="a_Node000006"><a xlink:href="classlogger__module_1_1network__writer.html" target="_top" xlink:title="Sends logs over network (TCP/UDP)">
<polygon fill="white" stroke="#666666" points="294.5,-30 159.5,-30 159.5,0 294.5,0 294.5,-30"/>
<text text-anchor="start" x="167.5" y="-18" font-family="Helvetica,sans-Serif" font-size="10.00">logger_module::network</text>
<text text-anchor="middle" x="227" y="-7" font-family="Helvetica,sans-Serif" font-size="10.00">_writer</text>
</a>
</g>
</g>
<!-- Node1&#45;&gt;Node6 -->
<g id="edge5_Node000001_Node000006" class="edge">
<title>Node1&#45;&gt;Node6</title>
<g id="a_edge5_Node000001_Node000006"><a xlink:title=" ">
<path fill="none" stroke="#63b8ff" d="M96.9,-66.96C114.22,-57.83 135.39,-47.24 155,-39 162.44,-35.87 170.44,-32.85 178.29,-30.07"/>
<polygon fill="#63b8ff" stroke="#63b8ff" points="94.89,-64.07 87.71,-71.86 98.18,-70.25 94.89,-64.07"/>
</a>
</g>
</g>
<!-- Node5 -->
<g id="Node000005" class="node">
<title>Node5</title>
<g id="a_Node000005"><a xlink:href="classlogger__module_1_1rotating__file__writer.html" target="_top" xlink:title="File writer with rotation support based on size or time.">
<polygon fill="white" stroke="#666666" points="469,-78 335,-78 335,-48 469,-48 469,-78"/>
<text text-anchor="start" x="343" y="-66" font-family="Helvetica,sans-Serif" font-size="10.00">logger_module::rotating</text>
<text text-anchor="middle" x="402" y="-55" font-family="Helvetica,sans-Serif" font-size="10.00">_file_writer</text>
</a>
</g>
</g>
<!-- Node4&#45;&gt;Node5 -->
<g id="edge4_Node000004_Node000005" class="edge">
<title>Node4&#45;&gt;Node5</title>
<g id="a_edge4_Node000004_Node000005"><a xlink:title=" ">
<path fill="none" stroke="#63b8ff" d="M292.61,-63C306.38,-63 320.94,-63 334.77,-63"/>
<polygon fill="#63b8ff" stroke="#63b8ff" points="292.26,-59.5 282.26,-63 292.26,-66.5 292.26,-59.5"/>
</a>
</g>
</g>
</g>
</svg>
