<?xml version="1.0" encoding="UTF-8" standalone="no"?>
<!DOCTYPE svg PUBLIC "-//W3C//DTD SVG 1.1//EN"
 "http://www.w3.org/Graphics/SVG/1.1/DTD/svg11.dtd">
<!-- Generated by graphviz version 2.43.0 (0)
 -->
<!-- Title: logger_module::config_strategy_interface Pages: 1 -->
<svg width="327pt" height="182pt"
 viewBox="0.00 0.00 327.00 182.00" xmlns="http://www.w3.org/2000/svg" xmlns:xlink="http://www.w3.org/1999/xlink">
<g id="graph0" class="graph" transform="scale(1 1) rotate(0) translate(4 178)">
<title>logger_module::config_strategy_interface</title>
<!-- Node1 -->
<g id="Node000001" class="node">
<title>Node1</title>
<g id="a_Node000001"><a xlink:title="Abstract interface for configuration strategies.">
<polygon fill="#999999" stroke="#666666" points="125,-102 0,-102 0,-72 125,-72 125,-102"/>
<text text-anchor="start" x="8" y="-90" font-family="Helvetica,sans-Serif" font-size="10.00">logger_module::config</text>
<text text-anchor="middle" x="62.5" y="-79" font-family="Helvetica,sans-Serif" font-size="10.00">_strategy_interface</text>
</a>
</g>
</g>
<!-- Node2 -->
<g id="Node000002" class="node">
<title>Node2</title>
<g id="a_Node000002"><a xlink:href="classlogger__module_1_1composite__strategy.html" target="_top" xlink:title="Combines multiple strategies in sequence.">
<polygon fill="white" stroke="#666666" points="313,-174 167,-174 167,-144 313,-144 313,-174"/>
<text text-anchor="start" x="175" y="-162" font-family="Helvetica,sans-Serif" font-size="10.00">logger_module::composite</text>
<text text-anchor="middle" x="240" y="-151" font-family="Helvetica,sans-Serif" font-size="10.00">_strategy</text>
</a>
</g>
</g>
<!-- Node1&#45;&gt;Node2 -->
<g id="edge1_Node000001_Node000002" class="edge">
<title>Node1&#45;&gt;Node2</title>
<g id="a_edge1_Node000001_Node000002"><a xlink:title=" ">
<path fill="none" stroke="#63b8ff" d="M100.14,-106.76C118.16,-116.03 140.39,-126.82 161,-135 169.03,-138.19 177.67,-141.22 186.16,-143.99"/>
<polygon fill="#63b8ff" stroke="#63b8ff" points="101.61,-103.58 91.12,-102.07 98.38,-109.79 101.61,-103.58"/>
</a>
</g>
</g>
<!-- Node3 -->
<g id="Node000003" class="node">
<title>Node3</title>
<g id="a_Node000003"><a xlink:href="classlogger__module_1_1environment__strategy.html" target="_top" xlink:title="Strategy for applying environment&#45;based configuration.">
<polygon fill="white" stroke="#666666" points="319,-126 161,-126 161,-96 319,-96 319,-126"/>
<text text-anchor="start" x="169" y="-114" font-family="Helvetica,sans-Serif" font-size="10.00">logger_module::environment</text>
<text text-anchor="middle" x="240" y="-103" font-family="Helvetica,sans-Serif" font-size="10.00">_strategy</text>
</a>
</g>
</g>
<!-- Node1&#45;&gt;Node3 -->
<g id="edge2_Node000001_Node000003" class="edge">
<title>Node1&#45;&gt;Node3</title>
<g id="a_edge2_Node000001_Node000003"><a xlink:title=" ">
<path fill="none" stroke="#63b8ff" d="M135.44,-96.84C143.79,-97.98 152.34,-99.15 160.77,-100.3"/>
<polygon fill="#63b8ff" stroke="#63b8ff" points="135.76,-93.35 125.37,-95.46 134.81,-100.28 135.76,-93.35"/>
</a>
</g>
</g>
<!-- Node4 -->
<g id="Node000004" class="node">
<title>Node4</title>
<g id="a_Node000004"><a xlink:href="classlogger__module_1_1performance__tuning__strategy.html" target="_top" xlink:title="Strategy for automatic performance tuning based on system resources.">
<polygon fill="white" stroke="#666666" points="319,-78 161,-78 161,-48 319,-48 319,-78"/>
<text text-anchor="start" x="169" y="-66" font-family="Helvetica,sans-Serif" font-size="10.00">logger_module::performance</text>
<text text-anchor="middle" x="240" y="-55" font-family="Helvetica,sans-Serif" font-size="10.00">_tuning_strategy</text>
</a>
</g>
</g>
<!-- Node1&#45;&gt;Node4 -->
<g id="edge3_Node000001_Node000004" class="edge">
<title>Node1&#45;&gt;Node4</title>
<g id="a_edge3_Node000001_Node000004"><a xlink:title=" ">
<path fill="none" stroke="#63b8ff" d="M135.44,-77.16C143.79,-76.02 152.34,-74.85 160.77,-73.7"/>
<polygon fill="#63b8ff" stroke="#63b8ff" points="134.81,-73.72 125.37,-78.54 135.76,-80.65 134.81,-73.72"/>
</a>
</g>
</g>
<!-- Node5 -->
<g id="Node000005" class="node">
<title>Node5</title>
<g id="a_Node000005"><a xlink:href="classlogger__module_1_1template__strategy.html" target="_top" xlink:title="Strategy for applying predefined configuration templates.">
<polygon fill="white" stroke="#666666" points="310,-30 170,-30 170,0 310,0 310,-30"/>
<text text-anchor="start" x="178" y="-18" font-family="Helvetica,sans-Serif" font-size="10.00">logger_module::template</text>
<text text-anchor="middle" x="240" y="-7" font-family="Helvetica,sans-Serif" font-size="10.00">_strategy</text>
</a>
</g>
</g>
<!-- Node1&#45;&gt;Node5 -->
<g id="edge4_Node000001_Node000005" class="edge">
<title>Node1&#45;&gt;Node5</title>
<g id="a_edge4_Node000001_Node000005"><a xlink:title=" ">
<path fill="none" stroke="#63b8ff" d="M100.14,-67.24C118.16,-57.97 140.39,-47.18 161,-39 169.03,-35.81 177.67,-32.78 186.16,-30.01"/>
<polygon fill="#63b8ff" stroke="#63b8ff" points="98.38,-64.21 91.12,-71.93 101.61,-70.42 98.38,-64.21"/>
</a>
</g>
</g>
</g>
</svg>
