<?xml version="1.0" encoding="UTF-8" standalone="no"?>
<!DOCTYPE svg PUBLIC "-//W3C//DTD SVG 1.1//EN"
 "http://www.w3.org/Graphics/SVG/1.1/DTD/svg11.dtd">
<!-- Generated by graphviz version 2.43.0 (0)
 -->
<!-- Title: logger_module::log_filter_interface Pages: 1 -->
<svg width="446pt" height="278pt"
 viewBox="0.00 0.00 446.00 278.00" xmlns="http://www.w3.org/2000/svg" xmlns:xlink="http://www.w3.org/1999/xlink">
<g id="graph0" class="graph" transform="scale(1 1) rotate(0) translate(4 274)">
<title>logger_module::log_filter_interface</title>
<!-- Node1 -->
<g id="Node000001" class="node">
<title>Node1</title>
<g id="a_Node000001"><a xlink:title="Interface for log filters.">
<polygon fill="#999999" stroke="#666666" points="110,-150 0,-150 0,-120 110,-120 110,-150"/>
<text text-anchor="start" x="8" y="-138" font-family="Helvetica,sans-Serif" font-size="10.00">logger_module::log</text>
<text text-anchor="middle" x="55" y="-127" font-family="Helvetica,sans-Serif" font-size="10.00">_filter_interface</text>
</a>
</g>
</g>
<!-- Node2 -->
<g id="Node000002" class="node">
<title>Node2</title>
<g id="a_Node000002"><a xlink:href="classlogger__module_1_1log__filter.html" target="_top" xlink:title="Base class for log filtering.">
<polygon fill="white" stroke="#666666" points="256,-150 146,-150 146,-120 256,-120 256,-150"/>
<text text-anchor="start" x="154" y="-138" font-family="Helvetica,sans-Serif" font-size="10.00">logger_module::log</text>
<text text-anchor="middle" x="201" y="-127" font-family="Helvetica,sans-Serif" font-size="10.00">_filter</text>
</a>
</g>
</g>
<!-- Node1&#45;&gt;Node2 -->
<g id="edge1_Node000001_Node000002" class="edge">
<title>Node1&#45;&gt;Node2</title>
<g id="a_edge1_Node000001_Node000002"><a xlink:title=" ">
<path fill="none" stroke="#63b8ff" d="M120.27,-135C128.75,-135 137.38,-135 145.67,-135"/>
<polygon fill="#63b8ff" stroke="#63b8ff" points="120.03,-131.5 110.03,-135 120.03,-138.5 120.03,-131.5"/>
</a>
</g>
</g>
<!-- Node3 -->
<g id="Node000003" class="node">
<title>Node3</title>
<g id="a_Node000003"><a xlink:href="classlogger__module_1_1access__control__filter.html" target="_top" xlink:title="Filter that controls access based on log level and source.">
<polygon fill="white" stroke="#666666" points="429,-270 301,-270 301,-240 429,-240 429,-270"/>
<text text-anchor="start" x="309" y="-258" font-family="Helvetica,sans-Serif" font-size="10.00">logger_module::access</text>
<text text-anchor="middle" x="365" y="-247" font-family="Helvetica,sans-Serif" font-size="10.00">_control_filter</text>
</a>
</g>
</g>
<!-- Node2&#45;&gt;Node3 -->
<g id="edge2_Node000002_Node000003" class="edge">
<title>Node2&#45;&gt;Node3</title>
<g id="a_edge2_Node000002_Node000003"><a xlink:title=" ">
<path fill="none" stroke="#63b8ff" d="M218.59,-158.52C234.98,-180.15 261.9,-211.72 292,-231 297.33,-234.41 303.19,-237.39 309.19,-239.97"/>
<polygon fill="#63b8ff" stroke="#63b8ff" points="221.2,-156.15 212.44,-150.2 215.57,-160.32 221.2,-156.15"/>
</a>
</g>
</g>
<!-- Node4 -->
<g id="Node000004" class="node">
<title>Node4</title>
<g id="a_Node000004"><a xlink:href="classlogger__module_1_1composite__filter.html" target="_top" xlink:title="Combine multiple filters with AND/OR logic.">
<polygon fill="white" stroke="#666666" points="438,-222 292,-222 292,-192 438,-192 438,-222"/>
<text text-anchor="start" x="300" y="-210" font-family="Helvetica,sans-Serif" font-size="10.00">logger_module::composite</text>
<text text-anchor="middle" x="365" y="-199" font-family="Helvetica,sans-Serif" font-size="10.00">_filter</text>
</a>
</g>
</g>
<!-- Node2&#45;&gt;Node4 -->
<g id="edge3_Node000002_Node000004" class="edge">
<title>Node2&#45;&gt;Node4</title>
<g id="a_edge3_Node000002_Node000004"><a xlink:title=" ">
<path fill="none" stroke="#63b8ff" d="M236.19,-154.98C252.73,-164.19 273.06,-174.86 292,-183 299.38,-186.17 307.34,-189.2 315.17,-191.96"/>
<polygon fill="#63b8ff" stroke="#63b8ff" points="237.86,-151.91 227.43,-150.04 234.42,-158 237.86,-151.91"/>
</a>
</g>
</g>
<!-- Node5 -->
<g id="Node000005" class="node">
<title>Node5</title>
<g id="a_Node000005"><a xlink:href="classlogger__module_1_1function__filter.html" target="_top" xlink:title="Filter logs by custom function.">
<polygon fill="white" stroke="#666666" points="432.5,-174 297.5,-174 297.5,-144 432.5,-144 432.5,-174"/>
<text text-anchor="start" x="305.5" y="-162" font-family="Helvetica,sans-Serif" font-size="10.00">logger_module::function</text>
<text text-anchor="middle" x="365" y="-151" font-family="Helvetica,sans-Serif" font-size="10.00">_filter</text>
</a>
</g>
</g>
<!-- Node2&#45;&gt;Node5 -->
<g id="edge4_Node000002_Node000005" class="edge">
<title>Node2&#45;&gt;Node5</title>
<g id="a_edge4_Node000002_Node000005"><a xlink:title=" ">
<path fill="none" stroke="#63b8ff" d="M266.42,-144.54C276.6,-146.05 287.14,-147.61 297.37,-149.13"/>
<polygon fill="#63b8ff" stroke="#63b8ff" points="266.8,-141.06 256.39,-143.06 265.77,-147.99 266.8,-141.06"/>
</a>
</g>
</g>
<!-- Node6 -->
<g id="Node000006" class="node">
<title>Node6</title>
<g id="a_Node000006"><a xlink:href="classlogger__module_1_1level__filter.html" target="_top" xlink:title="Filter logs by minimum level.">
<polygon fill="white" stroke="#666666" points="424.5,-126 305.5,-126 305.5,-96 424.5,-96 424.5,-126"/>
<text text-anchor="start" x="313.5" y="-114" font-family="Helvetica,sans-Serif" font-size="10.00">logger_module::level</text>
<text text-anchor="middle" x="365" y="-103" font-family="Helvetica,sans-Serif" font-size="10.00">_filter</text>
</a>
</g>
</g>
<!-- Node2&#45;&gt;Node6 -->
<g id="edge5_Node000002_Node000006" class="edge">
<title>Node2&#45;&gt;Node6</title>
<g id="a_edge5_Node000002_Node000006"><a xlink:title=" ">
<path fill="none" stroke="#63b8ff" d="M266.52,-125.44C279.32,-123.54 292.7,-121.56 305.3,-119.7"/>
<polygon fill="#63b8ff" stroke="#63b8ff" points="265.77,-122.01 256.39,-126.94 266.8,-128.94 265.77,-122.01"/>
</a>
</g>
</g>
<!-- Node7 -->
<g id="Node000007" class="node">
<title>Node7</title>
<g id="a_Node000007"><a xlink:href="classlogger__module_1_1regex__filter.html" target="_top" xlink:title="Filter logs by regex pattern.">
<polygon fill="white" stroke="#666666" points="426.5,-78 303.5,-78 303.5,-48 426.5,-48 426.5,-78"/>
<text text-anchor="start" x="311.5" y="-66" font-family="Helvetica,sans-Serif" font-size="10.00">logger_module::regex</text>
<text text-anchor="middle" x="365" y="-55" font-family="Helvetica,sans-Serif" font-size="10.00">_filter</text>
</a>
</g>
</g>
<!-- Node2&#45;&gt;Node7 -->
<g id="edge6_Node000002_Node000007" class="edge">
<title>Node2&#45;&gt;Node7</title>
<g id="a_edge6_Node000002_Node000007"><a xlink:title=" ">
<path fill="none" stroke="#63b8ff" d="M236.19,-115.02C252.73,-105.81 273.06,-95.14 292,-87 299.38,-83.83 307.34,-80.8 315.17,-78.04"/>
<polygon fill="#63b8ff" stroke="#63b8ff" points="234.42,-112 227.43,-119.96 237.86,-118.09 234.42,-112"/>
</a>
</g>
</g>
<!-- Node8 -->
<g id="Node000008" class="node">
<title>Node8</title>
<g id="a_Node000008"><a xlink:href="classlogger__module_1_1sanitizing__filter.html" target="_top" xlink:title="Log filter that sanitizes messages before logging.">
<polygon fill="white" stroke="#666666" points="436.5,-30 293.5,-30 293.5,0 436.5,0 436.5,-30"/>
<text text-anchor="start" x="301.5" y="-18" font-family="Helvetica,sans-Serif" font-size="10.00">logger_module::sanitizing</text>
<text text-anchor="middle" x="365" y="-7" font-family="Helvetica,sans-Serif" font-size="10.00">_filter</text>
</a>
</g>
</g>
<!-- Node2&#45;&gt;Node8 -->
<g id="edge7_Node000002_Node000008" class="edge">
<title>Node2&#45;&gt;Node8</title>
<g id="a_edge7_Node000002_Node000008"><a xlink:title=" ">
<path fill="none" stroke="#63b8ff" d="M218.59,-111.48C234.98,-89.85 261.9,-58.28 292,-39 297.33,-35.59 303.19,-32.61 309.19,-30.03"/>
<polygon fill="#63b8ff" stroke="#63b8ff" points="215.57,-109.68 212.44,-119.8 221.2,-113.85 215.57,-109.68"/>
</a>
</g>
</g>
</g>
</svg>
