<?xml version="1.0" encoding="UTF-8" standalone="no"?>
<!DOCTYPE svg PUBLIC "-//W3C//DTD SVG 1.1//EN"
 "http://www.w3.org/Graphics/SVG/1.1/DTD/svg11.dtd">
<!-- Generated by graphviz version 2.43.0 (0)
 -->
<!-- Title: logger_module::base_formatter Pages: 1 -->
<svg width="453pt" height="134pt"
 viewBox="0.00 0.00 453.00 134.00" xmlns="http://www.w3.org/2000/svg" xmlns:xlink="http://www.w3.org/1999/xlink">
<g id="graph0" class="graph" transform="scale(1 1) rotate(0) translate(4 130)">
<title>logger_module::base_formatter</title>
<!-- Node1 -->
<g id="Node000001" class="node">
<title>Node1</title>
<g id="a_Node000001"><a xlink:title="Base implementation for log formatters.">
<polygon fill="#999999" stroke="#666666" points="272,-78 153,-78 153,-48 272,-48 272,-78"/>
<text text-anchor="start" x="161" y="-66" font-family="Helvetica,sans-Serif" font-size="10.00">logger_module::base</text>
<text text-anchor="middle" x="212.5" y="-55" font-family="Helvetica,sans-Serif" font-size="10.00">_formatter</text>
</a>
</g>
</g>
<!-- Node3 -->
<g id="Node000003" class="node">
<title>Node3</title>
<g id="a_Node000003"><a xlink:href="classlogger__module_1_1compact__formatter.html" target="_top" xlink:title="Compact formatter for minimal output.">
<polygon fill="white" stroke="#666666" points="445,-126 308,-126 308,-96 445,-96 445,-126"/>
<text text-anchor="start" x="316" y="-114" font-family="Helvetica,sans-Serif" font-size="10.00">logger_module::compact</text>
<text text-anchor="middle" x="376.5" y="-103" font-family="Helvetica,sans-Serif" font-size="10.00">_formatter</text>
</a>
</g>
</g>
<!-- Node1&#45;&gt;Node3 -->
<g id="edge2_Node000001_Node000003" class="edge">
<title>Node1&#45;&gt;Node3</title>
<g id="a_edge2_Node000001_Node000003"><a xlink:title=" ">
<path fill="none" stroke="#63b8ff" d="M274,-80.93C290.75,-85.89 308.75,-91.22 324.87,-96"/>
<polygon fill="#63b8ff" stroke="#63b8ff" points="274.9,-77.54 264.31,-78.06 272.91,-84.25 274.9,-77.54"/>
</a>
</g>
</g>
<!-- Node4 -->
<g id="Node000004" class="node">
<title>Node4</title>
<g id="a_Node000004"><a xlink:href="classlogger__module_1_1json__formatter.html" target="_top" xlink:title="JSON formatter for structured logging.">
<polygon fill="white" stroke="#666666" points="434.5,-78 318.5,-78 318.5,-48 434.5,-48 434.5,-78"/>
<text text-anchor="start" x="326.5" y="-66" font-family="Helvetica,sans-Serif" font-size="10.00">logger_module::json</text>
<text text-anchor="middle" x="376.5" y="-55" font-family="Helvetica,sans-Serif" font-size="10.00">_formatter</text>
</a>
</g>
</g>
<!-- Node1&#45;&gt;Node4 -->
<g id="edge3_Node000001_Node000004" class="edge">
<title>Node1&#45;&gt;Node4</title>
<g id="a_edge3_Node000001_Node000004"><a xlink:title=" ">
<path fill="none" stroke="#63b8ff" d="M282.79,-63C294.7,-63 306.95,-63 318.49,-63"/>
<polygon fill="#63b8ff" stroke="#63b8ff" points="282.44,-59.5 272.44,-63 282.44,-66.5 282.44,-59.5"/>
</a>
</g>
</g>
<!-- Node5 -->
<g id="Node000005" class="node">
<title>Node5</title>
<g id="a_Node000005"><a xlink:href="classlogger__module_1_1plain__formatter.html" target="_top" xlink:title="Simple plain text formatter.">
<polygon fill="white" stroke="#666666" points="436,-30 317,-30 317,0 436,0 436,-30"/>
<text text-anchor="start" x="325" y="-18" font-family="Helvetica,sans-Serif" font-size="10.00">logger_module::plain</text>
<text text-anchor="middle" x="376.5" y="-7" font-family="Helvetica,sans-Serif" font-size="10.00">_formatter</text>
</a>
</g>
</g>
<!-- Node1&#45;&gt;Node5 -->
<g id="edge4_Node000001_Node000005" class="edge">
<title>Node1&#45;&gt;Node5</title>
<g id="a_edge4_Node000001_Node000005"><a xlink:title=" ">
<path fill="none" stroke="#63b8ff" d="M274,-45.07C290.75,-40.11 308.75,-34.78 324.87,-30"/>
<polygon fill="#63b8ff" stroke="#63b8ff" points="272.91,-41.75 264.31,-47.94 274.9,-48.46 272.91,-41.75"/>
</a>
</g>
</g>
<!-- Node2 -->
<g id="Node000002" class="node">
<title>Node2</title>
<g id="a_Node000002"><a xlink:href="classlogger__module_1_1log__formatter__interface.html" target="_top" xlink:title="Interface for log formatters.">
<polygon fill="white" stroke="#666666" points="117,-78 0,-78 0,-48 117,-48 117,-78"/>
<text text-anchor="start" x="8" y="-66" font-family="Helvetica,sans-Serif" font-size="10.00">logger_module::log</text>
<text text-anchor="middle" x="58.5" y="-55" font-family="Helvetica,sans-Serif" font-size="10.00">_formatter_interface</text>
</a>
</g>
</g>
<!-- Node2&#45;&gt;Node1 -->
<g id="edge1_Node000001_Node000002" class="edge">
<title>Node2&#45;&gt;Node1</title>
<g id="a_edge1_Node000001_Node000002"><a xlink:title=" ">
<path fill="none" stroke="#63b8ff" d="M127.56,-63C135.97,-63 144.5,-63 152.75,-63"/>
<polygon fill="#63b8ff" stroke="#63b8ff" points="127.4,-59.5 117.4,-63 127.4,-66.5 127.4,-59.5"/>
</a>
</g>
</g>
</g>
</svg>
