<?xml version="1.0" encoding="UTF-8" standalone="no"?>
<!DOCTYPE svg PUBLIC "-//W3C//DTD SVG 1.1//EN"
 "http://www.w3.org/Graphics/SVG/1.1/DTD/svg11.dtd">
<!-- Generated by graphviz version 2.43.0 (0)
 -->
<!-- Title: logger_module::grow_policy Pages: 1 -->
<svg width="172pt" height="303pt"
 viewBox="0.00 0.00 171.50 303.00" xmlns="http://www.w3.org/2000/svg" xmlns:xlink="http://www.w3.org/1999/xlink">
<g id="graph0" class="graph" transform="scale(1 1) rotate(0) translate(4 299)">
<title>logger_module::grow_policy</title>
<!-- Node1 -->
<g id="Node000001" class="node">
<title>Node1</title>
<g id="a_Node000001"><a xlink:title="Dynamically grow the queue.">
<polygon fill="#999999" stroke="#666666" points="128,-30 9,-30 9,0 128,0 128,-30"/>
<text text-anchor="start" x="17" y="-18" font-family="Helvetica,sans-Serif" font-size="10.00">logger_module::grow</text>
<text text-anchor="middle" x="68.5" y="-7" font-family="Helvetica,sans-Serif" font-size="10.00">_policy</text>
</a>
</g>
</g>
<!-- Node2 -->
<g id="Node000002" class="node">
<title>Node2</title>
<g id="a_Node000002"><a xlink:href="classlogger__module_1_1overflow__policy__base.html" target="_top" xlink:title="Base class for overflow policies.">
<polygon fill="white" stroke="#666666" points="137,-97 0,-97 0,-67 137,-67 137,-97"/>
<text text-anchor="start" x="8" y="-85" font-family="Helvetica,sans-Serif" font-size="10.00">logger_module::overflow</text>
<text text-anchor="middle" x="68.5" y="-74" font-family="Helvetica,sans-Serif" font-size="10.00">_policy_base</text>
</a>
</g>
</g>
<!-- Node2&#45;&gt;Node1 -->
<g id="edge1_Node000001_Node000002" class="edge">
<title>Node2&#45;&gt;Node1</title>
<g id="a_edge1_Node000001_Node000002"><a xlink:title=" ">
<path fill="none" stroke="#63b8ff" d="M68.5,-56.61C68.5,-47.65 68.5,-37.82 68.5,-30.08"/>
<polygon fill="#63b8ff" stroke="#63b8ff" points="65,-56.9 68.5,-66.9 72,-56.9 65,-56.9"/>
</a>
</g>
</g>
<!-- Node3 -->
<g id="Node000003" class="node">
<title>Node3</title>
<g id="a_Node000003"><a xlink:href="structlogger__module_1_1overflow__stats.html" target="_top" xlink:title="Statistics for overflow handling.">
<polygon fill="white" stroke="#666666" points="137,-174 0,-174 0,-144 137,-144 137,-174"/>
<text text-anchor="start" x="8" y="-162" font-family="Helvetica,sans-Serif" font-size="10.00">logger_module::overflow</text>
<text text-anchor="middle" x="68.5" y="-151" font-family="Helvetica,sans-Serif" font-size="10.00">_stats</text>
</a>
</g>
</g>
<!-- Node3&#45;&gt;Node2 -->
<g id="edge2_Node000002_Node000003" class="edge">
<title>Node3&#45;&gt;Node2</title>
<g id="a_edge2_Node000002_Node000003"><a xlink:title=" ">
<path fill="none" stroke="#9a32cd" stroke-dasharray="5,2" d="M68.5,-133.54C68.5,-121.45 68.5,-107.29 68.5,-97.04"/>
<polygon fill="#9a32cd" stroke="#9a32cd" points="65,-133.89 68.5,-143.89 72,-133.89 65,-133.89"/>
</a>
</g>
<text text-anchor="middle" x="85" y="-118" font-family="Helvetica,sans-Serif" font-size="10.00" fill="grey"> stats_</text>
</g>
<!-- Node4 -->
<g id="Node000004" class="node">
<title>Node4</title>
<g id="a_Node000004"><a xlink:title=" ">
<polygon fill="white" stroke="#666666" points="129.5,-295 7.5,-295 7.5,-276 129.5,-276 129.5,-295"/>
<text text-anchor="middle" x="68.5" y="-283" font-family="Helvetica,sans-Serif" font-size="10.00">std::atomic&lt; size_t &gt;</text>
</a>
</g>
</g>
<!-- Node4&#45;&gt;Node3 -->
<g id="edge3_Node000003_Node000004" class="edge">
<title>Node4&#45;&gt;Node3</title>
<g id="a_edge3_Node000003_Node000004"><a xlink:title=" ">
<path fill="none" stroke="#9a32cd" stroke-dasharray="5,2" d="M68.5,-265.91C68.5,-240.83 68.5,-196.72 68.5,-174.16"/>
<polygon fill="#9a32cd" stroke="#9a32cd" points="65,-265.94 68.5,-275.94 72,-265.94 65,-265.94"/>
</a>
</g>
<text text-anchor="middle" x="116" y="-250" font-family="Helvetica,sans-Serif" font-size="10.00" fill="grey"> blocked_count</text>
<text text-anchor="middle" x="116" y="-239" font-family="Helvetica,sans-Serif" font-size="10.00" fill="grey">current_size</text>
<text text-anchor="middle" x="116" y="-228" font-family="Helvetica,sans-Serif" font-size="10.00" fill="grey">dropped_messages</text>
<text text-anchor="middle" x="116" y="-217" font-family="Helvetica,sans-Serif" font-size="10.00" fill="grey">grow_count</text>
<text text-anchor="middle" x="116" y="-206" font-family="Helvetica,sans-Serif" font-size="10.00" fill="grey">max_size_reached</text>
<text text-anchor="middle" x="116" y="-195" font-family="Helvetica,sans-Serif" font-size="10.00" fill="grey">total_messages</text>
</g>
</g>
</svg>
