<?xml version="1.0" encoding="UTF-8" standalone="no"?>
<!DOCTYPE svg PUBLIC "-//W3C//DTD SVG 1.1//EN"
 "http://www.w3.org/Graphics/SVG/1.1/DTD/svg11.dtd">
<!-- Generated by graphviz version 2.43.0 (0)
 -->
<!-- Title: logger_module::monitoring_interface Pages: 1 -->
<svg width="292pt" height="104pt"
 viewBox="0.00 0.00 291.50 104.00" xmlns="http://www.w3.org/2000/svg" xmlns:xlink="http://www.w3.org/1999/xlink">
<g id="graph0" class="graph" transform="scale(1 1) rotate(0) translate(4 100)">
<title>logger_module::monitoring_interface</title>
<!-- Node1 -->
<g id="Node000001" class="node">
<title>Node1</title>
<g id="a_Node000001"><a xlink:title="Abstract monitoring interface.">
<polygon fill="#999999" stroke="#666666" points="210,-96 61,-96 61,-66 210,-66 210,-96"/>
<text text-anchor="start" x="69" y="-84" font-family="Helvetica,sans-Serif" font-size="10.00">logger_module::monitoring</text>
<text text-anchor="middle" x="135.5" y="-73" font-family="Helvetica,sans-Serif" font-size="10.00">_interface</text>
</a>
</g>
</g>
<!-- Node2 -->
<g id="Node000002" class="node">
<title>Node2</title>
<g id="a_Node000002"><a xlink:href="classlogger__module_1_1basic__monitor.html" target="_top" xlink:title="Basic monitoring implementation.">
<polygon fill="white" stroke="#666666" points="121,-30 0,-30 0,0 121,0 121,-30"/>
<text text-anchor="start" x="8" y="-18" font-family="Helvetica,sans-Serif" font-size="10.00">logger_module::basic</text>
<text text-anchor="middle" x="60.5" y="-7" font-family="Helvetica,sans-Serif" font-size="10.00">_monitor</text>
</a>
</g>
</g>
<!-- Node1&#45;&gt;Node2 -->
<g id="edge1_Node000001_Node000002" class="edge">
<title>Node1&#45;&gt;Node2</title>
<g id="a_edge1_Node000001_Node000002"><a xlink:title=" ">
<path fill="none" stroke="#63b8ff" d="M111.13,-59.2C99.99,-49.7 87.09,-38.69 77.1,-30.16"/>
<polygon fill="#63b8ff" stroke="#63b8ff" points="108.98,-61.97 118.86,-65.8 113.52,-56.64 108.98,-61.97"/>
</a>
</g>
</g>
<!-- Node3 -->
<g id="Node000003" class="node">
<title>Node3</title>
<g id="a_Node000003"><a xlink:href="classlogger__module_1_1thread__system__monitor__adapter.html" target="_top" xlink:title="Adapter to use thread_system&#39;s monitoring capabilities.">
<polygon fill="white" stroke="#666666" points="283.5,-30 139.5,-30 139.5,0 283.5,0 283.5,-30"/>
<text text-anchor="start" x="147.5" y="-18" font-family="Helvetica,sans-Serif" font-size="10.00">logger_module::thread</text>
<text text-anchor="middle" x="211.5" y="-7" font-family="Helvetica,sans-Serif" font-size="10.00">_system_monitor_adapter</text>
</a>
</g>
</g>
<!-- Node1&#45;&gt;Node3 -->
<g id="edge2_Node000001_Node000003" class="edge">
<title>Node1&#45;&gt;Node3</title>
<g id="a_edge2_Node000001_Node000003"><a xlink:title=" ">
<path fill="none" stroke="#63b8ff" d="M160.2,-59.2C171.48,-49.7 184.55,-38.69 194.68,-30.16"/>
<polygon fill="#63b8ff" stroke="#63b8ff" points="157.76,-56.68 152.37,-65.8 162.27,-62.03 157.76,-56.68"/>
</a>
</g>
</g>
</g>
</svg>
