<?xml version="1.0" encoding="UTF-8" standalone="no"?>
<!DOCTYPE svg PUBLIC "-//W3C//DTD SVG 1.1//EN"
 "http://www.w3.org/Graphics/SVG/1.1/DTD/svg11.dtd">
<!-- Generated by graphviz version 2.43.0 (0)
 -->
<!-- Title: logger_module::rotating_file_writer Pages: 1 -->
<svg width="1116pt" height="229pt"
 viewBox="0.00 0.00 1116.00 228.50" xmlns="http://www.w3.org/2000/svg" xmlns:xlink="http://www.w3.org/1999/xlink">
<g id="graph0" class="graph" transform="scale(1 1) rotate(0) translate(4 224.5)">
<title>logger_module::rotating_file_writer</title>
<!-- Node1 -->
<g id="Node000001" class="node">
<title>Node1</title>
<g id="a_Node000001"><a xlink:title="File writer with rotation support based on size or time.">
<polygon fill="#999999" stroke="#666666" points="1108,-115.5 974,-115.5 974,-85.5 1108,-85.5 1108,-115.5"/>
<text text-anchor="start" x="982" y="-103.5" font-family="Helvetica,sans-Serif" font-size="10.00">logger_module::rotating</text>
<text text-anchor="middle" x="1041" y="-92.5" font-family="Helvetica,sans-Serif" font-size="10.00">_file_writer</text>
</a>
</g>
</g>
<!-- Node2 -->
<g id="Node000002" class="node">
<title>Node2</title>
<g id="a_Node000002"><a xlink:href="classlogger__module_1_1file__writer.html" target="_top" xlink:title="Basic file writer for logging to files.">
<polygon fill="white" stroke="#666666" points="937,-115.5 827,-115.5 827,-85.5 937,-85.5 937,-115.5"/>
<text text-anchor="start" x="835" y="-103.5" font-family="Helvetica,sans-Serif" font-size="10.00">logger_module::file</text>
<text text-anchor="middle" x="882" y="-92.5" font-family="Helvetica,sans-Serif" font-size="10.00">_writer</text>
</a>
</g>
</g>
<!-- Node2&#45;&gt;Node1 -->
<g id="edge1_Node000001_Node000002" class="edge">
<title>Node2&#45;&gt;Node1</title>
<g id="a_edge1_Node000001_Node000002"><a xlink:title=" ">
<path fill="none" stroke="#63b8ff" d="M947.23,-100.5C956.04,-100.5 965.09,-100.5 973.93,-100.5"/>
<polygon fill="#63b8ff" stroke="#63b8ff" points="947.03,-97 937.03,-100.5 947.03,-104 947.03,-97"/>
</a>
</g>
</g>
<!-- Node3 -->
<g id="Node000003" class="node">
<title>Node3</title>
<g id="a_Node000003"><a xlink:href="classlogger__module_1_1base__writer.html" target="_top" xlink:title="Abstract base class for all log output writers.">
<polygon fill="white" stroke="#666666" points="706,-218.5 587,-218.5 587,-188.5 706,-188.5 706,-218.5"/>
<text text-anchor="start" x="595" y="-206.5" font-family="Helvetica,sans-Serif" font-size="10.00">logger_module::base</text>
<text text-anchor="middle" x="646.5" y="-195.5" font-family="Helvetica,sans-Serif" font-size="10.00">_writer</text>
</a>
</g>
</g>
<!-- Node3&#45;&gt;Node2 -->
<g id="edge2_Node000002_Node000003" class="edge">
<title>Node3&#45;&gt;Node2</title>
<g id="a_edge2_Node000002_Node000003"><a xlink:title=" ">
<path fill="none" stroke="#63b8ff" d="M715.91,-190.93C745.56,-183.86 780.05,-173.39 809,-158.5 830.84,-147.27 852.29,-128.75 866.02,-115.66"/>
<polygon fill="#63b8ff" stroke="#63b8ff" points="715.01,-187.54 706.05,-193.19 716.58,-194.36 715.01,-187.54"/>
</a>
</g>
</g>
<!-- Node4 -->
<g id="Node000004" class="node">
<title>Node4</title>
<g id="a_Node000004"><a xlink:href="classlogger__module_1_1log__writer__interface.html" target="_top" xlink:title="Interface for log writers.">
<polygon fill="white" stroke="#666666" points="539.5,-220.5 429.5,-220.5 429.5,-190.5 539.5,-190.5 539.5,-220.5"/>
<text text-anchor="start" x="437.5" y="-208.5" font-family="Helvetica,sans-Serif" font-size="10.00">logger_module::log</text>
<text text-anchor="middle" x="484.5" y="-197.5" font-family="Helvetica,sans-Serif" font-size="10.00">_writer_interface</text>
</a>
</g>
</g>
<!-- Node4&#45;&gt;Node3 -->
<g id="edge3_Node000003_Node000004" class="edge">
<title>Node4&#45;&gt;Node3</title>
<g id="a_edge3_Node000003_Node000004"><a xlink:title=" ">
<path fill="none" stroke="#63b8ff" d="M549.78,-204.7C561.98,-204.54 574.7,-204.39 586.72,-204.23"/>
<polygon fill="#63b8ff" stroke="#63b8ff" points="549.62,-201.2 539.67,-204.82 549.71,-208.2 549.62,-201.2"/>
</a>
</g>
</g>
<!-- Node5 -->
<g id="Node000005" class="node">
<title>Node5</title>
<g id="a_Node000005"><a xlink:title=" ">
<polygon fill="white" stroke="#666666" points="679,-167 614,-167 614,-148 679,-148 679,-167"/>
<text text-anchor="middle" x="646.5" y="-155" font-family="Helvetica,sans-Serif" font-size="10.00">std::string</text>
</a>
</g>
</g>
<!-- Node5&#45;&gt;Node2 -->
<g id="edge4_Node000002_Node000005" class="edge">
<title>Node5&#45;&gt;Node2</title>
<g id="a_edge4_Node000002_Node000005"><a xlink:title=" ">
<path fill="none" stroke="#9a32cd" stroke-dasharray="5,2" d="M689.29,-151.79C722.17,-146.81 768.96,-138.63 809,-127.5 820.7,-124.25 833.19,-119.89 844.41,-115.63"/>
<polygon fill="#9a32cd" stroke="#9a32cd" points="688.51,-148.37 679.13,-153.3 689.54,-155.3 688.51,-148.37"/>
</a>
</g>
<text text-anchor="middle" x="771" y="-146.5" font-family="Helvetica,sans-Serif" font-size="10.00" fill="grey"> filename_</text>
</g>
<!-- Node6 -->
<g id="Node000006" class="node">
<title>Node6</title>
<g id="a_Node000006"><a xlink:title=" ">
<polygon fill="white" stroke="#666666" points="536.5,-172.5 432.5,-172.5 432.5,-142.5 536.5,-142.5 536.5,-172.5"/>
<text text-anchor="start" x="440.5" y="-160.5" font-family="Helvetica,sans-Serif" font-size="10.00">std::basic_string&lt;</text>
<text text-anchor="middle" x="484.5" y="-149.5" font-family="Helvetica,sans-Serif" font-size="10.00"> Char &gt;</text>
</a>
</g>
</g>
<!-- Node6&#45;&gt;Node5 -->
<g id="edge5_Node000005_Node000006" class="edge">
<title>Node6&#45;&gt;Node5</title>
<g id="a_edge5_Node000005_Node000006"><a xlink:title=" ">
<path fill="none" stroke="#63b8ff" d="M546.6,-157.5C569.58,-157.5 594.76,-157.5 613.97,-157.5"/>
<polygon fill="#63b8ff" stroke="#63b8ff" points="546.56,-154 536.56,-157.5 546.56,-161 546.56,-154"/>
</a>
</g>
</g>
<!-- Node7 -->
<g id="Node000007" class="node">
<title>Node7</title>
<g id="a_Node000007"><a xlink:title=" ">
<polygon fill="white" stroke="#666666" points="687.5,-130 605.5,-130 605.5,-111 687.5,-111 687.5,-130"/>
<text text-anchor="middle" x="646.5" y="-118" font-family="Helvetica,sans-Serif" font-size="10.00">std::ofstream</text>
</a>
</g>
</g>
<!-- Node7&#45;&gt;Node2 -->
<g id="edge6_Node000002_Node000007" class="edge">
<title>Node7&#45;&gt;Node2</title>
<g id="a_edge6_Node000002_Node000007"><a xlink:title=" ">
<path fill="none" stroke="#9a32cd" stroke-dasharray="5,2" d="M697.97,-116.18C736.01,-112.92 788.09,-108.46 826.97,-105.13"/>
<polygon fill="#9a32cd" stroke="#9a32cd" points="697.3,-112.72 687.64,-117.06 697.9,-119.7 697.3,-112.72"/>
</a>
</g>
<text text-anchor="middle" x="771" y="-115.5" font-family="Helvetica,sans-Serif" font-size="10.00" fill="grey"> file_stream_</text>
</g>
<!-- Node8 -->
<g id="Node000008" class="node">
<title>Node8</title>
<g id="a_Node000008"><a xlink:title=" ">
<polygon fill="white" stroke="#666666" points="541,-124.5 428,-124.5 428,-94.5 541,-94.5 541,-124.5"/>
<text text-anchor="start" x="436" y="-112.5" font-family="Helvetica,sans-Serif" font-size="10.00">std::basic_ofstream</text>
<text text-anchor="middle" x="484.5" y="-101.5" font-family="Helvetica,sans-Serif" font-size="10.00">&lt; Char &gt;</text>
</a>
</g>
</g>
<!-- Node8&#45;&gt;Node7 -->
<g id="edge7_Node000007_Node000008" class="edge">
<title>Node8&#45;&gt;Node7</title>
<g id="a_edge7_Node000007_Node000008"><a xlink:title=" ">
<path fill="none" stroke="#63b8ff" d="M551.07,-114.01C569.42,-115.27 588.81,-116.6 605.22,-117.73"/>
<polygon fill="#63b8ff" stroke="#63b8ff" points="551.23,-110.51 541.01,-113.32 550.75,-117.49 551.23,-110.51"/>
</a>
</g>
</g>
<!-- Node9 -->
<g id="Node000009" class="node">
<title>Node9</title>
<g id="a_Node000009"><a xlink:title=" ">
<polygon fill="white" stroke="#666666" points="391,-124.5 282,-124.5 282,-94.5 391,-94.5 391,-124.5"/>
<text text-anchor="start" x="290" y="-112.5" font-family="Helvetica,sans-Serif" font-size="10.00">std::basic_ostream</text>
<text text-anchor="middle" x="336.5" y="-101.5" font-family="Helvetica,sans-Serif" font-size="10.00">&lt; Char &gt;</text>
</a>
</g>
</g>
<!-- Node9&#45;&gt;Node8 -->
<g id="edge8_Node000008_Node000009" class="edge">
<title>Node9&#45;&gt;Node8</title>
<g id="a_edge8_Node000008_Node000009"><a xlink:title=" ">
<path fill="none" stroke="#63b8ff" d="M401.21,-109.5C409.97,-109.5 418.91,-109.5 427.52,-109.5"/>
<polygon fill="#63b8ff" stroke="#63b8ff" points="401.04,-106 391.04,-109.5 401.04,-113 401.04,-106"/>
</a>
</g>
</g>
<!-- Node10 -->
<g id="Node000010" class="node">
<title>Node10</title>
<g id="a_Node000010"><a xlink:title=" ">
<polygon fill="white" stroke="#666666" points="245,-119 117,-119 117,-100 245,-100 245,-119"/>
<text text-anchor="middle" x="181" y="-107" font-family="Helvetica,sans-Serif" font-size="10.00">std::basic_ios&lt; Char &gt;</text>
</a>
</g>
</g>
<!-- Node10&#45;&gt;Node9 -->
<g id="edge9_Node000009_Node000010" class="edge">
<title>Node10&#45;&gt;Node9</title>
<g id="a_edge9_Node000009_Node000010"><a xlink:title=" ">
<path fill="none" stroke="#63b8ff" d="M255.57,-109.5C264.35,-109.5 273.19,-109.5 281.62,-109.5"/>
<polygon fill="#63b8ff" stroke="#63b8ff" points="255.32,-106 245.32,-109.5 255.32,-113 255.32,-106"/>
</a>
</g>
</g>
<!-- Node11 -->
<g id="Node000011" class="node">
<title>Node11</title>
<g id="a_Node000011"><a xlink:title=" ">
<polygon fill="white" stroke="#666666" points="80,-119 0,-119 0,-100 80,-100 80,-119"/>
<text text-anchor="middle" x="40" y="-107" font-family="Helvetica,sans-Serif" font-size="10.00">std::ios_base</text>
</a>
</g>
</g>
<!-- Node11&#45;&gt;Node10 -->
<g id="edge10_Node000010_Node000011" class="edge">
<title>Node11&#45;&gt;Node10</title>
<g id="a_edge10_Node000010_Node000011"><a xlink:title=" ">
<path fill="none" stroke="#63b8ff" d="M90.28,-109.5C98.85,-109.5 107.87,-109.5 116.75,-109.5"/>
<polygon fill="#63b8ff" stroke="#63b8ff" points="90.09,-106 80.09,-109.5 90.09,-113 90.09,-106"/>
</a>
</g>
</g>
<!-- Node12 -->
<g id="Node000012" class="node">
<title>Node12</title>
<g id="a_Node000012"><a xlink:title=" ">
<polygon fill="white" stroke="#666666" points="715,-93 578,-93 578,-74 715,-74 715,-93"/>
<text text-anchor="middle" x="646.5" y="-81" font-family="Helvetica,sans-Serif" font-size="10.00">std::unique_ptr&lt; char[]&gt;</text>
</a>
</g>
</g>
<!-- Node12&#45;&gt;Node2 -->
<g id="edge11_Node000002_Node000012" class="edge">
<title>Node12&#45;&gt;Node2</title>
<g id="a_edge11_Node000002_Node000012"><a xlink:title=" ">
<path fill="none" stroke="#9a32cd" stroke-dasharray="5,2" d="M725.28,-81.43C751.9,-81.53 781.81,-82.53 809,-85.5 814.84,-86.14 820.9,-87.03 826.93,-88.07"/>
<polygon fill="#9a32cd" stroke="#9a32cd" points="725.25,-77.93 715.25,-81.44 725.25,-84.93 725.25,-77.93"/>
</a>
</g>
<text text-anchor="middle" x="771" y="-88.5" font-family="Helvetica,sans-Serif" font-size="10.00" fill="grey"> buffer_</text>
</g>
<!-- Node13 -->
<g id="Node000013" class="node">
<title>Node13</title>
<g id="a_Node000013"><a xlink:title=" ">
<polygon fill="white" stroke="#666666" points="681,-56 612,-56 612,-37 681,-37 681,-56"/>
<text text-anchor="middle" x="646.5" y="-44" font-family="Helvetica,sans-Serif" font-size="10.00">std::mutex</text>
</a>
</g>
</g>
<!-- Node13&#45;&gt;Node2 -->
<g id="edge12_Node000002_Node000013" class="edge">
<title>Node13&#45;&gt;Node2</title>
<g id="a_edge12_Node000002_Node000013"><a xlink:title=" ">
<path fill="none" stroke="#9a32cd" stroke-dasharray="5,2" d="M691.42,-48.17C724.34,-50.33 770.19,-55.25 809,-66.5 824.67,-71.04 841.19,-78.62 854.45,-85.47"/>
<polygon fill="#9a32cd" stroke="#9a32cd" points="691.41,-44.67 681.22,-47.57 690.99,-51.65 691.41,-44.67"/>
</a>
</g>
<text text-anchor="middle" x="771" y="-69.5" font-family="Helvetica,sans-Serif" font-size="10.00" fill="grey"> write_mutex_</text>
</g>
<!-- Node14 -->
<g id="Node000014" class="node">
<title>Node14</title>
<g id="a_Node000014"><a xlink:title=" ">
<polygon fill="white" stroke="#666666" points="707.5,-19 585.5,-19 585.5,0 707.5,0 707.5,-19"/>
<text text-anchor="middle" x="646.5" y="-7" font-family="Helvetica,sans-Serif" font-size="10.00">std::atomic&lt; size_t &gt;</text>
</a>
</g>
</g>
<!-- Node14&#45;&gt;Node2 -->
<g id="edge13_Node000002_Node000014" class="edge">
<title>Node14&#45;&gt;Node2</title>
<g id="a_edge13_Node000002_Node000014"><a xlink:title=" ">
<path fill="none" stroke="#9a32cd" stroke-dasharray="5,2" d="M717.94,-13.32C747.22,-17.01 780.86,-24.07 809,-37.5 832.98,-48.95 855.11,-70.69 868.34,-85.39"/>
<polygon fill="#9a32cd" stroke="#9a32cd" points="718.12,-9.82 707.78,-12.15 717.32,-16.77 718.12,-9.82"/>
</a>
</g>
<text text-anchor="middle" x="771" y="-40.5" font-family="Helvetica,sans-Serif" font-size="10.00" fill="grey"> bytes_written_</text>
</g>
</g>
</svg>
