<?xml version="1.0" encoding="UTF-8" standalone="no"?>
<!DOCTYPE svg PUBLIC "-//W3C//DTD SVG 1.1//EN"
 "http://www.w3.org/Graphics/SVG/1.1/DTD/svg11.dtd">
<!-- Generated by graphviz version 2.43.0 (0)
 -->
<!-- Title: logger_module::thread_system_monitor_adapter Pages: 1 -->
<svg width="157pt" height="170pt"
 viewBox="0.00 0.00 157.00 170.00" xmlns="http://www.w3.org/2000/svg" xmlns:xlink="http://www.w3.org/1999/xlink">
<g id="graph0" class="graph" transform="scale(1 1) rotate(0) translate(4 166)">
<title>logger_module::thread_system_monitor_adapter</title>
<!-- Node1 -->
<g id="Node000001" class="node">
<title>Node1</title>
<g id="a_Node000001"><a xlink:title="Fallback when thread_system is not available.">
<polygon fill="#999999" stroke="#666666" points="146.5,-30 2.5,-30 2.5,0 146.5,0 146.5,-30"/>
<text text-anchor="start" x="10.5" y="-18" font-family="Helvetica,sans-Serif" font-size="10.00">logger_module::thread</text>
<text text-anchor="middle" x="74.5" y="-7" font-family="Helvetica,sans-Serif" font-size="10.00">_system_monitor_adapter</text>
</a>
</g>
</g>
<!-- Node2 -->
<g id="Node000002" class="node">
<title>Node2</title>
<g id="a_Node000002"><a xlink:href="classlogger__module_1_1basic__monitor.html" target="_top" xlink:title="Basic monitoring implementation.">
<polygon fill="white" stroke="#666666" points="135,-96 14,-96 14,-66 135,-66 135,-96"/>
<text text-anchor="start" x="22" y="-84" font-family="Helvetica,sans-Serif" font-size="10.00">logger_module::basic</text>
<text text-anchor="middle" x="74.5" y="-73" font-family="Helvetica,sans-Serif" font-size="10.00">_monitor</text>
</a>
</g>
</g>
<!-- Node2&#45;&gt;Node1 -->
<g id="edge1_Node000001_Node000002" class="edge">
<title>Node2&#45;&gt;Node1</title>
<g id="a_edge1_Node000001_Node000002"><a xlink:title=" ">
<path fill="none" stroke="#63b8ff" d="M74.5,-55.54C74.5,-46.96 74.5,-37.61 74.5,-30.16"/>
<polygon fill="#63b8ff" stroke="#63b8ff" points="71,-55.8 74.5,-65.8 78,-55.8 71,-55.8"/>
</a>
</g>
</g>
<!-- Node3 -->
<g id="Node000003" class="node">
<title>Node3</title>
<g id="a_Node000003"><a xlink:href="classlogger__module_1_1monitoring__interface.html" target="_top" xlink:title="Abstract monitoring interface.">
<polygon fill="white" stroke="#666666" points="149,-162 0,-162 0,-132 149,-132 149,-162"/>
<text text-anchor="start" x="8" y="-150" font-family="Helvetica,sans-Serif" font-size="10.00">logger_module::monitoring</text>
<text text-anchor="middle" x="74.5" y="-139" font-family="Helvetica,sans-Serif" font-size="10.00">_interface</text>
</a>
</g>
</g>
<!-- Node3&#45;&gt;Node2 -->
<g id="edge2_Node000002_Node000003" class="edge">
<title>Node3&#45;&gt;Node2</title>
<g id="a_edge2_Node000002_Node000003"><a xlink:title=" ">
<path fill="none" stroke="#63b8ff" d="M74.5,-121.54C74.5,-112.96 74.5,-103.61 74.5,-96.16"/>
<polygon fill="#63b8ff" stroke="#63b8ff" points="71,-121.8 74.5,-131.8 78,-121.8 71,-121.8"/>
</a>
</g>
</g>
</g>
</svg>
