<?xml version="1.0" encoding="UTF-8" standalone="no"?>
<!DOCTYPE svg PUBLIC "-//W3C//DTD SVG 1.1//EN"
 "http://www.w3.org/Graphics/SVG/1.1/DTD/svg11.dtd">
<!-- Generated by graphviz version 2.43.0 (0)
 -->
<!-- Title: logger_module::di_container_interface&lt; T &gt; Pages: 1 -->
<svg width="349pt" height="86pt"
 viewBox="0.00 0.00 349.00 86.00" xmlns="http://www.w3.org/2000/svg" xmlns:xlink="http://www.w3.org/1999/xlink">
<g id="graph0" class="graph" transform="scale(1 1) rotate(0) translate(4 82)">
<title>logger_module::di_container_interface&lt; T &gt;</title>
<!-- Node1 -->
<g id="Node000001" class="node">
<title>Node1</title>
<g id="a_Node000001"><a xlink:title="Abstract interface for dependency injection container.">
<polygon fill="#999999" stroke="#666666" points="155,-54 0,-54 0,-24 155,-24 155,-54"/>
<text text-anchor="start" x="8" y="-42" font-family="Helvetica,sans-Serif" font-size="10.00">logger_module::di_container</text>
<text text-anchor="middle" x="77.5" y="-31" font-family="Helvetica,sans-Serif" font-size="10.00">_interface&lt; T &gt;</text>
</a>
</g>
</g>
<!-- Node2 -->
<g id="Node000002" class="node">
<title>Node2</title>
<g id="a_Node000002"><a xlink:href="classlogger__module_1_1lightweight__di__container.html" target="_top" xlink:title="Lightweight implementation of DI container.">
<polygon fill="white" stroke="#666666" points="341,-78 191,-78 191,-48 341,-48 341,-78"/>
<text text-anchor="start" x="199" y="-66" font-family="Helvetica,sans-Serif" font-size="10.00">logger_module::lightweight</text>
<text text-anchor="middle" x="266" y="-55" font-family="Helvetica,sans-Serif" font-size="10.00">_di_container&lt; T &gt;</text>
</a>
</g>
</g>
<!-- Node1&#45;&gt;Node2 -->
<g id="edge1_Node000001_Node000002" class="edge">
<title>Node1&#45;&gt;Node2</title>
<g id="a_edge1_Node000001_Node000002"><a xlink:title=" ">
<path fill="none" stroke="#63b8ff" d="M165.15,-50.15C173.7,-51.25 182.33,-52.36 190.74,-53.44"/>
<polygon fill="#63b8ff" stroke="#63b8ff" points="165.53,-46.67 155.16,-48.87 164.64,-53.61 165.53,-46.67"/>
</a>
</g>
</g>
<!-- Node3 -->
<g id="Node000003" class="node">
<title>Node3</title>
<g id="a_Node000003"><a xlink:href="classlogger__module_1_1thread__system__di__adapter.html" target="_top" xlink:title="Adapter to use thread_system&#39;s service container.">
<polygon fill="white" stroke="#666666" points="337.5,-30 194.5,-30 194.5,0 337.5,0 337.5,-30"/>
<text text-anchor="start" x="202.5" y="-18" font-family="Helvetica,sans-Serif" font-size="10.00">logger_module::thread</text>
<text text-anchor="middle" x="266" y="-7" font-family="Helvetica,sans-Serif" font-size="10.00">_system_di_adapter&lt; T &gt;</text>
</a>
</g>
</g>
<!-- Node1&#45;&gt;Node3 -->
<g id="edge2_Node000001_Node000003" class="edge">
<title>Node1&#45;&gt;Node3</title>
<g id="a_edge2_Node000001_Node000003"><a xlink:title=" ">
<path fill="none" stroke="#63b8ff" d="M165.26,-27.84C174.99,-26.58 184.83,-25.32 194.32,-24.09"/>
<polygon fill="#63b8ff" stroke="#63b8ff" points="164.64,-24.39 155.16,-29.13 165.53,-31.33 164.64,-24.39"/>
</a>
</g>
</g>
</g>
</svg>
