<?xml version="1.0" encoding="UTF-8" standalone="no"?>
<!DOCTYPE svg PUBLIC "-//W3C//DTD SVG 1.1//EN"
 "http://www.w3.org/Graphics/SVG/1.1/DTD/svg11.dtd">
<!-- Generated by graphviz version 2.43.0 (0)
 -->
<!-- Title: logger_module::overflow_policy_base Pages: 1 -->
<svg width="172pt" height="236pt"
 viewBox="0.00 0.00 171.50 236.00" xmlns="http://www.w3.org/2000/svg" xmlns:xlink="http://www.w3.org/1999/xlink">
<g id="graph0" class="graph" transform="scale(1 1) rotate(0) translate(4 232)">
<title>logger_module::overflow_policy_base</title>
<!-- Node1 -->
<g id="Node000001" class="node">
<title>Node1</title>
<g id="a_Node000001"><a xlink:title="Base class for overflow policies.">
<polygon fill="#999999" stroke="#666666" points="137,-30 0,-30 0,0 137,0 137,-30"/>
<text text-anchor="start" x="8" y="-18" font-family="Helvetica,sans-Serif" font-size="10.00">logger_module::overflow</text>
<text text-anchor="middle" x="68.5" y="-7" font-family="Helvetica,sans-Serif" font-size="10.00">_policy_base</text>
</a>
</g>
</g>
<!-- Node2 -->
<g id="Node000002" class="node">
<title>Node2</title>
<g id="a_Node000002"><a xlink:href="structlogger__module_1_1overflow__stats.html" target="_top" xlink:title="Statistics for overflow handling.">
<polygon fill="white" stroke="#666666" points="137,-107 0,-107 0,-77 137,-77 137,-107"/>
<text text-anchor="start" x="8" y="-95" font-family="Helvetica,sans-Serif" font-size="10.00">logger_module::overflow</text>
<text text-anchor="middle" x="68.5" y="-84" font-family="Helvetica,sans-Serif" font-size="10.00">_stats</text>
</a>
</g>
</g>
<!-- Node2&#45;&gt;Node1 -->
<g id="edge1_Node000001_Node000002" class="edge">
<title>Node2&#45;&gt;Node1</title>
<g id="a_edge1_Node000001_Node000002"><a xlink:title=" ">
<path fill="none" stroke="#9a32cd" stroke-dasharray="5,2" d="M68.5,-66.54C68.5,-54.45 68.5,-40.29 68.5,-30.04"/>
<polygon fill="#9a32cd" stroke="#9a32cd" points="65,-66.89 68.5,-76.89 72,-66.89 65,-66.89"/>
</a>
</g>
<text text-anchor="middle" x="85" y="-51" font-family="Helvetica,sans-Serif" font-size="10.00" fill="grey"> stats_</text>
</g>
<!-- Node3 -->
<g id="Node000003" class="node">
<title>Node3</title>
<g id="a_Node000003"><a xlink:title=" ">
<polygon fill="white" stroke="#666666" points="129.5,-228 7.5,-228 7.5,-209 129.5,-209 129.5,-228"/>
<text text-anchor="middle" x="68.5" y="-216" font-family="Helvetica,sans-Serif" font-size="10.00">std::atomic&lt; size_t &gt;</text>
</a>
</g>
</g>
<!-- Node3&#45;&gt;Node2 -->
<g id="edge2_Node000002_Node000003" class="edge">
<title>Node3&#45;&gt;Node2</title>
<g id="a_edge2_Node000002_Node000003"><a xlink:title=" ">
<path fill="none" stroke="#9a32cd" stroke-dasharray="5,2" d="M68.5,-198.91C68.5,-173.83 68.5,-129.72 68.5,-107.16"/>
<polygon fill="#9a32cd" stroke="#9a32cd" points="65,-198.94 68.5,-208.94 72,-198.94 65,-198.94"/>
</a>
</g>
<text text-anchor="middle" x="116" y="-183" font-family="Helvetica,sans-Serif" font-size="10.00" fill="grey"> blocked_count</text>
<text text-anchor="middle" x="116" y="-172" font-family="Helvetica,sans-Serif" font-size="10.00" fill="grey">current_size</text>
<text text-anchor="middle" x="116" y="-161" font-family="Helvetica,sans-Serif" font-size="10.00" fill="grey">dropped_messages</text>
<text text-anchor="middle" x="116" y="-150" font-family="Helvetica,sans-Serif" font-size="10.00" fill="grey">grow_count</text>
<text text-anchor="middle" x="116" y="-139" font-family="Helvetica,sans-Serif" font-size="10.00" fill="grey">max_size_reached</text>
<text text-anchor="middle" x="116" y="-128" font-family="Helvetica,sans-Serif" font-size="10.00" fill="grey">total_messages</text>
</g>
</g>
</svg>
