<?xml version="1.0" encoding="UTF-8" standalone="no"?>
<!DOCTYPE svg PUBLIC "-//W3C//DTD SVG 1.1//EN"
 "http://www.w3.org/Graphics/SVG/1.1/DTD/svg11.dtd">
<!-- Generated by graphviz version 2.43.0 (0)
 -->
<!-- Title: logger_module::file_writer Pages: 1 -->
<svg width="142pt" height="170pt"
 viewBox="0.00 0.00 142.00 170.00" xmlns="http://www.w3.org/2000/svg" xmlns:xlink="http://www.w3.org/1999/xlink">
<g id="graph0" class="graph" transform="scale(1 1) rotate(0) translate(4 166)">
<title>logger_module::file_writer</title>
<!-- Node1 -->
<g id="Node000001" class="node">
<title>Node1</title>
<g id="a_Node000001"><a xlink:title="Basic file writer for logging to files.">
<polygon fill="#999999" stroke="#666666" points="122,-96 12,-96 12,-66 122,-66 122,-96"/>
<text text-anchor="start" x="20" y="-84" font-family="Helvetica,sans-Serif" font-size="10.00">logger_module::file</text>
<text text-anchor="middle" x="67" y="-73" font-family="Helvetica,sans-Serif" font-size="10.00">_writer</text>
</a>
</g>
</g>
<!-- Node3 -->
<g id="Node000003" class="node">
<title>Node3</title>
<g id="a_Node000003"><a xlink:href="classlogger__module_1_1rotating__file__writer.html" target="_top" xlink:title="File writer with rotation support based on size or time.">
<polygon fill="white" stroke="#666666" points="134,-30 0,-30 0,0 134,0 134,-30"/>
<text text-anchor="start" x="8" y="-18" font-family="Helvetica,sans-Serif" font-size="10.00">logger_module::rotating</text>
<text text-anchor="middle" x="67" y="-7" font-family="Helvetica,sans-Serif" font-size="10.00">_file_writer</text>
</a>
</g>
</g>
<!-- Node1&#45;&gt;Node3 -->
<g id="edge2_Node000001_Node000003" class="edge">
<title>Node1&#45;&gt;Node3</title>
<g id="a_edge2_Node000001_Node000003"><a xlink:title=" ">
<path fill="none" stroke="#63b8ff" d="M67,-55.54C67,-46.96 67,-37.61 67,-30.16"/>
<polygon fill="#63b8ff" stroke="#63b8ff" points="63.5,-55.8 67,-65.8 70.5,-55.8 63.5,-55.8"/>
</a>
</g>
</g>
<!-- Node2 -->
<g id="Node000002" class="node">
<title>Node2</title>
<g id="a_Node000002"><a xlink:href="classlogger__module_1_1base__writer.html" target="_top" xlink:title="Base class for all log writers.">
<polygon fill="white" stroke="#666666" points="126.5,-162 7.5,-162 7.5,-132 126.5,-132 126.5,-162"/>
<text text-anchor="start" x="15.5" y="-150" font-family="Helvetica,sans-Serif" font-size="10.00">logger_module::base</text>
<text text-anchor="middle" x="67" y="-139" font-family="Helvetica,sans-Serif" font-size="10.00">_writer</text>
</a>
</g>
</g>
<!-- Node2&#45;&gt;Node1 -->
<g id="edge1_Node000001_Node000002" class="edge">
<title>Node2&#45;&gt;Node1</title>
<g id="a_edge1_Node000001_Node000002"><a xlink:title=" ">
<path fill="none" stroke="#63b8ff" d="M67,-121.54C67,-112.96 67,-103.61 67,-96.16"/>
<polygon fill="#63b8ff" stroke="#63b8ff" points="63.5,-121.8 67,-131.8 70.5,-121.8 63.5,-121.8"/>
</a>
</g>
</g>
</g>
</svg>
