<?xml version="1.0" encoding="UTF-8" standalone="no"?>
<!DOCTYPE svg PUBLIC "-//W3C//DTD SVG 1.1//EN"
 "http://www.w3.org/Graphics/SVG/1.1/DTD/svg11.dtd">
<!-- Generated by graphviz version 2.43.0 (0)
 -->
<!-- Title: logger_module::base_writer Pages: 1 -->
<svg width="623pt" height="278pt"
 viewBox="0.00 0.00 623.00 278.00" xmlns="http://www.w3.org/2000/svg" xmlns:xlink="http://www.w3.org/1999/xlink">
<g id="graph0" class="graph" transform="scale(1 1) rotate(0) translate(4 274)">
<title>logger_module::base_writer</title>
<!-- Node1 -->
<g id="Node000001" class="node">
<title>Node1</title>
<g id="a_Node000001"><a xlink:title="Abstract base class for all log output writers.">
<polygon fill="#999999" stroke="#666666" points="265,-150 146,-150 146,-120 265,-120 265,-150"/>
<text text-anchor="start" x="154" y="-138" font-family="Helvetica,sans-Serif" font-size="10.00">logger_module::base</text>
<text text-anchor="middle" x="205.5" y="-127" font-family="Helvetica,sans-Serif" font-size="10.00">_writer</text>
</a>
</g>
</g>
<!-- Node3 -->
<g id="Node000003" class="node">
<title>Node3</title>
<g id="a_Node000003"><a xlink:href="classlogger__module_1_1async__writer.html" target="_top" xlink:title="Asynchronous wrapper for log writers.">
<polygon fill="white" stroke="#666666" points="435,-270 311,-270 311,-240 435,-240 435,-270"/>
<text text-anchor="start" x="319" y="-258" font-family="Helvetica,sans-Serif" font-size="10.00">logger_module::async</text>
<text text-anchor="middle" x="373" y="-247" font-family="Helvetica,sans-Serif" font-size="10.00">_writer</text>
</a>
</g>
</g>
<!-- Node1&#45;&gt;Node3 -->
<g id="edge2_Node000001_Node000003" class="edge">
<title>Node1&#45;&gt;Node3</title>
<g id="a_edge2_Node000001_Node000003"><a xlink:title=" ">
<path fill="none" stroke="#63b8ff" d="M223.96,-158.16C241.34,-179.76 269.86,-211.49 301,-231 306.4,-234.38 312.34,-237.35 318.41,-239.94"/>
<polygon fill="#63b8ff" stroke="#63b8ff" points="226.59,-155.84 217.65,-150.15 221.09,-160.17 226.59,-155.84"/>
</a>
</g>
</g>
<!-- Node4 -->
<g id="Node000004" class="node">
<title>Node4</title>
<g id="a_Node000004"><a xlink:href="classlogger__module_1_1batch__writer.html" target="_top" xlink:title="Batch writer that accumulates log entries and writes them in batches.">
<polygon fill="white" stroke="#666666" points="434,-222 312,-222 312,-192 434,-192 434,-222"/>
<text text-anchor="start" x="320" y="-210" font-family="Helvetica,sans-Serif" font-size="10.00">logger_module::batch</text>
<text text-anchor="middle" x="373" y="-199" font-family="Helvetica,sans-Serif" font-size="10.00">_writer</text>
</a>
</g>
</g>
<!-- Node1&#45;&gt;Node4 -->
<g id="edge3_Node000001_Node000004" class="edge">
<title>Node1&#45;&gt;Node4</title>
<g id="a_edge3_Node000001_Node000004"><a xlink:title=" ">
<path fill="none" stroke="#63b8ff" d="M242.9,-155.04C260.22,-164.17 281.39,-174.76 301,-183 308.44,-186.13 316.44,-189.15 324.29,-191.93"/>
<polygon fill="#63b8ff" stroke="#63b8ff" points="244.18,-151.75 233.71,-150.14 240.89,-157.93 244.18,-151.75"/>
</a>
</g>
</g>
<!-- Node5 -->
<g id="Node000005" class="node">
<title>Node5</title>
<g id="a_Node000005"><a xlink:href="classlogger__module_1_1console__writer.html" target="_top" xlink:title="Console writer that outputs logs to stdout/stderr.">
<polygon fill="white" stroke="#666666" points="439.5,-174 306.5,-174 306.5,-144 439.5,-144 439.5,-174"/>
<text text-anchor="start" x="314.5" y="-162" font-family="Helvetica,sans-Serif" font-size="10.00">logger_module::console</text>
<text text-anchor="middle" x="373" y="-151" font-family="Helvetica,sans-Serif" font-size="10.00">_writer</text>
</a>
</g>
</g>
<!-- Node1&#45;&gt;Node5 -->
<g id="edge4_Node000001_Node000005" class="edge">
<title>Node1&#45;&gt;Node5</title>
<g id="a_edge4_Node000001_Node000005"><a xlink:title=" ">
<path fill="none" stroke="#63b8ff" d="M275.42,-145C285.65,-146.48 296.17,-148 306.34,-149.48"/>
<polygon fill="#63b8ff" stroke="#63b8ff" points="275.71,-141.5 265.32,-143.53 274.71,-148.43 275.71,-141.5"/>
</a>
</g>
</g>
<!-- Node6 -->
<g id="Node000006" class="node">
<title>Node6</title>
<g id="a_Node000006"><a xlink:href="classlogger__module_1_1encrypted__writer.html" target="_top" xlink:title="Writer that encrypts log data before passing to another writer.">
<polygon fill="white" stroke="#666666" points="445,-126 301,-126 301,-96 445,-96 445,-126"/>
<text text-anchor="start" x="309" y="-114" font-family="Helvetica,sans-Serif" font-size="10.00">logger_module::encrypted</text>
<text text-anchor="middle" x="373" y="-103" font-family="Helvetica,sans-Serif" font-size="10.00">_writer</text>
</a>
</g>
</g>
<!-- Node1&#45;&gt;Node6 -->
<g id="edge5_Node000001_Node000006" class="edge">
<title>Node1&#45;&gt;Node6</title>
<g id="a_edge5_Node000001_Node000006"><a xlink:title=" ">
<path fill="none" stroke="#63b8ff" d="M275.45,-125C283.86,-123.78 292.47,-122.53 300.91,-121.31"/>
<polygon fill="#63b8ff" stroke="#63b8ff" points="274.71,-121.57 265.32,-126.47 275.71,-128.5 274.71,-121.57"/>
</a>
</g>
</g>
<!-- Node7 -->
<g id="Node000007" class="node">
<title>Node7</title>
<g id="a_Node000007"><a xlink:href="classlogger__module_1_1file__writer.html" target="_top" xlink:title="Basic file writer for logging to files.">
<polygon fill="white" stroke="#666666" points="428,-78 318,-78 318,-48 428,-48 428,-78"/>
<text text-anchor="start" x="326" y="-66" font-family="Helvetica,sans-Serif" font-size="10.00">logger_module::file</text>
<text text-anchor="middle" x="373" y="-55" font-family="Helvetica,sans-Serif" font-size="10.00">_writer</text>
</a>
</g>
</g>
<!-- Node1&#45;&gt;Node7 -->
<g id="edge6_Node000001_Node000007" class="edge">
<title>Node1&#45;&gt;Node7</title>
<g id="a_edge6_Node000001_Node000007"><a xlink:title=" ">
<path fill="none" stroke="#63b8ff" d="M242.9,-114.96C260.22,-105.83 281.39,-95.24 301,-87 308.44,-83.87 316.44,-80.85 324.29,-78.07"/>
<polygon fill="#63b8ff" stroke="#63b8ff" points="240.89,-112.07 233.71,-119.86 244.18,-118.25 240.89,-112.07"/>
</a>
</g>
</g>
<!-- Node9 -->
<g id="Node000009" class="node">
<title>Node9</title>
<g id="a_Node000009"><a xlink:href="classlogger__module_1_1network__writer.html" target="_top" xlink:title="Sends logs over network (TCP/UDP)">
<polygon fill="white" stroke="#666666" points="440.5,-30 305.5,-30 305.5,0 440.5,0 440.5,-30"/>
<text text-anchor="start" x="313.5" y="-18" font-family="Helvetica,sans-Serif" font-size="10.00">logger_module::network</text>
<text text-anchor="middle" x="373" y="-7" font-family="Helvetica,sans-Serif" font-size="10.00">_writer</text>
</a>
</g>
</g>
<!-- Node1&#45;&gt;Node9 -->
<g id="edge8_Node000001_Node000009" class="edge">
<title>Node1&#45;&gt;Node9</title>
<g id="a_edge8_Node000001_Node000009"><a xlink:title=" ">
<path fill="none" stroke="#63b8ff" d="M223.96,-111.84C241.34,-90.24 269.86,-58.51 301,-39 306.4,-35.62 312.34,-32.65 318.41,-30.06"/>
<polygon fill="#63b8ff" stroke="#63b8ff" points="221.09,-109.83 217.65,-119.85 226.59,-114.16 221.09,-109.83"/>
</a>
</g>
</g>
<!-- Node2 -->
<g id="Node000002" class="node">
<title>Node2</title>
<g id="a_Node000002"><a xlink:href="classlogger__module_1_1log__writer__interface.html" target="_top" xlink:title="Interface for log writers.">
<polygon fill="white" stroke="#666666" points="110,-150 0,-150 0,-120 110,-120 110,-150"/>
<text text-anchor="start" x="8" y="-138" font-family="Helvetica,sans-Serif" font-size="10.00">logger_module::log</text>
<text text-anchor="middle" x="55" y="-127" font-family="Helvetica,sans-Serif" font-size="10.00">_writer_interface</text>
</a>
</g>
</g>
<!-- Node2&#45;&gt;Node1 -->
<g id="edge1_Node000001_Node000002" class="edge">
<title>Node2&#45;&gt;Node1</title>
<g id="a_edge1_Node000001_Node000002"><a xlink:title=" ">
<path fill="none" stroke="#63b8ff" d="M120.04,-135C128.67,-135 137.48,-135 146,-135"/>
<polygon fill="#63b8ff" stroke="#63b8ff" points="120.03,-131.5 110.03,-135 120.03,-138.5 120.03,-131.5"/>
</a>
</g>
</g>
<!-- Node8 -->
<g id="Node000008" class="node">
<title>Node8</title>
<g id="a_Node000008"><a xlink:href="classlogger__module_1_1rotating__file__writer.html" target="_top" xlink:title="File writer with rotation support based on size or time.">
<polygon fill="white" stroke="#666666" points="615,-78 481,-78 481,-48 615,-48 615,-78"/>
<text text-anchor="start" x="489" y="-66" font-family="Helvetica,sans-Serif" font-size="10.00">logger_module::rotating</text>
<text text-anchor="middle" x="548" y="-55" font-family="Helvetica,sans-Serif" font-size="10.00">_file_writer</text>
</a>
</g>
</g>
<!-- Node7&#45;&gt;Node8 -->
<g id="edge7_Node000007_Node000008" class="edge">
<title>Node7&#45;&gt;Node8</title>
<g id="a_edge7_Node000007_Node000008"><a xlink:title=" ">
<path fill="none" stroke="#63b8ff" d="M438.61,-63C452.38,-63 466.94,-63 480.77,-63"/>
<polygon fill="#63b8ff" stroke="#63b8ff" points="438.26,-59.5 428.26,-63 438.26,-66.5 438.26,-59.5"/>
</a>
</g>
</g>
</g>
</svg>
