<?xml version="1.0" encoding="UTF-8" standalone="no"?>
<!DOCTYPE svg PUBLIC "-//W3C//DTD SVG 1.1//EN"
 "http://www.w3.org/Graphics/SVG/1.1/DTD/svg11.dtd">
<!-- Generated by graphviz version 2.43.0 (0)
 -->
<!-- Title: logger_module::log_writer_interface Pages: 1 -->
<svg width="623pt" height="230pt"
 viewBox="0.00 0.00 623.00 230.00" xmlns="http://www.w3.org/2000/svg" xmlns:xlink="http://www.w3.org/1999/xlink">
<g id="graph0" class="graph" transform="scale(1 1) rotate(0) translate(4 226)">
<title>logger_module::log_writer_interface</title>
<!-- Node1 -->
<g id="Node000001" class="node">
<title>Node1</title>
<g id="a_Node000001"><a xlink:title="Interface for log writers.">
<polygon fill="#999999" stroke="#666666" points="110,-126 0,-126 0,-96 110,-96 110,-126"/>
<text text-anchor="start" x="8" y="-114" font-family="Helvetica,sans-Serif" font-size="10.00">logger_module::log</text>
<text text-anchor="middle" x="55" y="-103" font-family="Helvetica,sans-Serif" font-size="10.00">_writer_interface</text>
</a>
</g>
</g>
<!-- Node2 -->
<g id="Node000002" class="node">
<title>Node2</title>
<g id="a_Node000002"><a xlink:href="classlogger__module_1_1base__writer.html" target="_top" xlink:title="Base class for all log writers.">
<polygon fill="white" stroke="#666666" points="265,-126 146,-126 146,-96 265,-96 265,-126"/>
<text text-anchor="start" x="154" y="-114" font-family="Helvetica,sans-Serif" font-size="10.00">logger_module::base</text>
<text text-anchor="middle" x="205.5" y="-103" font-family="Helvetica,sans-Serif" font-size="10.00">_writer</text>
</a>
</g>
</g>
<!-- Node1&#45;&gt;Node2 -->
<g id="edge1_Node000001_Node000002" class="edge">
<title>Node1&#45;&gt;Node2</title>
<g id="a_edge1_Node000001_Node000002"><a xlink:title=" ">
<path fill="none" stroke="#63b8ff" d="M120.04,-111C128.67,-111 137.48,-111 146,-111"/>
<polygon fill="#63b8ff" stroke="#63b8ff" points="120.03,-107.5 110.03,-111 120.03,-114.5 120.03,-107.5"/>
</a>
</g>
</g>
<!-- Node3 -->
<g id="Node000003" class="node">
<title>Node3</title>
<g id="a_Node000003"><a xlink:href="classlogger__module_1_1batch__writer.html" target="_top" xlink:title="Batch writer that accumulates log entries and writes them in batches.">
<polygon fill="white" stroke="#666666" points="434,-222 312,-222 312,-192 434,-192 434,-222"/>
<text text-anchor="start" x="320" y="-210" font-family="Helvetica,sans-Serif" font-size="10.00">logger_module::batch</text>
<text text-anchor="middle" x="373" y="-199" font-family="Helvetica,sans-Serif" font-size="10.00">_writer</text>
</a>
</g>
</g>
<!-- Node2&#45;&gt;Node3 -->
<g id="edge2_Node000002_Node000003" class="edge">
<title>Node2&#45;&gt;Node3</title>
<g id="a_edge2_Node000002_Node000003"><a xlink:title=" ">
<path fill="none" stroke="#63b8ff" d="M230.56,-132.87C248.81,-148.54 275.1,-169.23 301,-183 307.2,-186.3 313.95,-189.27 320.73,-191.91"/>
<polygon fill="#63b8ff" stroke="#63b8ff" points="232.6,-130.01 222.77,-126.06 228,-135.28 232.6,-130.01"/>
</a>
</g>
</g>
<!-- Node4 -->
<g id="Node000004" class="node">
<title>Node4</title>
<g id="a_Node000004"><a xlink:href="classlogger__module_1_1console__writer.html" target="_top" xlink:title="Console writer that outputs logs to stdout/stderr.">
<polygon fill="white" stroke="#666666" points="439.5,-174 306.5,-174 306.5,-144 439.5,-144 439.5,-174"/>
<text text-anchor="start" x="314.5" y="-162" font-family="Helvetica,sans-Serif" font-size="10.00">logger_module::console</text>
<text text-anchor="middle" x="373" y="-151" font-family="Helvetica,sans-Serif" font-size="10.00">_writer</text>
</a>
</g>
</g>
<!-- Node2&#45;&gt;Node4 -->
<g id="edge3_Node000002_Node000004" class="edge">
<title>Node2&#45;&gt;Node4</title>
<g id="a_edge3_Node000002_Node000004"><a xlink:title=" ">
<path fill="none" stroke="#63b8ff" d="M268.31,-128.93C285.42,-133.89 303.8,-139.22 320.27,-144"/>
<polygon fill="#63b8ff" stroke="#63b8ff" points="268.99,-125.48 258.41,-126.06 267.04,-132.2 268.99,-125.48"/>
</a>
</g>
</g>
<!-- Node5 -->
<g id="Node000005" class="node">
<title>Node5</title>
<g id="a_Node000005"><a xlink:href="classlogger__module_1_1encrypted__writer.html" target="_top" xlink:title="Writer that encrypts log data before passing to another writer.">
<polygon fill="white" stroke="#666666" points="445,-126 301,-126 301,-96 445,-96 445,-126"/>
<text text-anchor="start" x="309" y="-114" font-family="Helvetica,sans-Serif" font-size="10.00">logger_module::encrypted</text>
<text text-anchor="middle" x="373" y="-103" font-family="Helvetica,sans-Serif" font-size="10.00">_writer</text>
</a>
</g>
</g>
<!-- Node2&#45;&gt;Node5 -->
<g id="edge4_Node000002_Node000005" class="edge">
<title>Node2&#45;&gt;Node5</title>
<g id="a_edge4_Node000002_Node000005"><a xlink:title=" ">
<path fill="none" stroke="#63b8ff" d="M275.45,-111C283.86,-111 292.47,-111 300.91,-111"/>
<polygon fill="#63b8ff" stroke="#63b8ff" points="275.32,-107.5 265.32,-111 275.32,-114.5 275.32,-107.5"/>
</a>
</g>
</g>
<!-- Node6 -->
<g id="Node000006" class="node">
<title>Node6</title>
<g id="a_Node000006"><a xlink:href="classlogger__module_1_1file__writer.html" target="_top" xlink:title="Basic file writer for logging to files.">
<polygon fill="white" stroke="#666666" points="428,-78 318,-78 318,-48 428,-48 428,-78"/>
<text text-anchor="start" x="326" y="-66" font-family="Helvetica,sans-Serif" font-size="10.00">logger_module::file</text>
<text text-anchor="middle" x="373" y="-55" font-family="Helvetica,sans-Serif" font-size="10.00">_writer</text>
</a>
</g>
</g>
<!-- Node2&#45;&gt;Node6 -->
<g id="edge5_Node000002_Node000006" class="edge">
<title>Node2&#45;&gt;Node6</title>
<g id="a_edge5_Node000002_Node000006"><a xlink:title=" ">
<path fill="none" stroke="#63b8ff" d="M268.31,-93.07C285.42,-88.11 303.8,-82.78 320.27,-78"/>
<polygon fill="#63b8ff" stroke="#63b8ff" points="267.04,-89.8 258.41,-95.94 268.99,-96.52 267.04,-89.8"/>
</a>
</g>
</g>
<!-- Node8 -->
<g id="Node000008" class="node">
<title>Node8</title>
<g id="a_Node000008"><a xlink:href="classlogger__module_1_1network__writer.html" target="_top" xlink:title="Sends logs over network (TCP/UDP)">
<polygon fill="white" stroke="#666666" points="440.5,-30 305.5,-30 305.5,0 440.5,0 440.5,-30"/>
<text text-anchor="start" x="313.5" y="-18" font-family="Helvetica,sans-Serif" font-size="10.00">logger_module::network</text>
<text text-anchor="middle" x="373" y="-7" font-family="Helvetica,sans-Serif" font-size="10.00">_writer</text>
</a>
</g>
</g>
<!-- Node2&#45;&gt;Node8 -->
<g id="edge7_Node000002_Node000008" class="edge">
<title>Node2&#45;&gt;Node8</title>
<g id="a_edge7_Node000002_Node000008"><a xlink:title=" ">
<path fill="none" stroke="#63b8ff" d="M230.56,-89.13C248.81,-73.46 275.1,-52.77 301,-39 307.2,-35.7 313.95,-32.73 320.73,-30.09"/>
<polygon fill="#63b8ff" stroke="#63b8ff" points="228,-86.72 222.77,-95.94 232.6,-91.99 228,-86.72"/>
</a>
</g>
</g>
<!-- Node7 -->
<g id="Node000007" class="node">
<title>Node7</title>
<g id="a_Node000007"><a xlink:href="classlogger__module_1_1rotating__file__writer.html" target="_top" xlink:title="File writer with rotation support based on size or time.">
<polygon fill="white" stroke="#666666" points="615,-78 481,-78 481,-48 615,-48 615,-78"/>
<text text-anchor="start" x="489" y="-66" font-family="Helvetica,sans-Serif" font-size="10.00">logger_module::rotating</text>
<text text-anchor="middle" x="548" y="-55" font-family="Helvetica,sans-Serif" font-size="10.00">_file_writer</text>
</a>
</g>
</g>
<!-- Node6&#45;&gt;Node7 -->
<g id="edge6_Node000006_Node000007" class="edge">
<title>Node6&#45;&gt;Node7</title>
<g id="a_edge6_Node000006_Node000007"><a xlink:title=" ">
<path fill="none" stroke="#63b8ff" d="M438.61,-63C452.38,-63 466.94,-63 480.77,-63"/>
<polygon fill="#63b8ff" stroke="#63b8ff" points="438.26,-59.5 428.26,-63 438.26,-66.5 438.26,-59.5"/>
</a>
</g>
</g>
</g>
</svg>
