<?xml version="1.0" encoding="UTF-8" standalone="no"?>
<!DOCTYPE svg PUBLIC "-//W3C//DTD SVG 1.1//EN"
 "http://www.w3.org/Graphics/SVG/1.1/DTD/svg11.dtd">
<!-- Generated by graphviz version 2.43.0 (0)
 -->
<!-- Title: /home/runner/work/logger_system/logger_system/sources/logger/config/configuration_templates.h Pages: 1 -->
<svg width="274pt" height="170pt"
 viewBox="0.00 0.00 273.50 170.00" xmlns="http://www.w3.org/2000/svg" xmlns:xlink="http://www.w3.org/1999/xlink">
<g id="graph0" class="graph" transform="scale(1 1) rotate(0) translate(4 166)">
<title>/home/runner/work/logger_system/logger_system/sources/logger/config/configuration_templates.h</title>
<!-- Node1 -->
<g id="Node000001" class="node">
<title>Node1</title>
<g id="a_Node000001"><a xlink:title="Pre&#45;defined configuration templates for common scenarios.">
<polygon fill="#999999" stroke="#666666" points="265.5,-162 92.5,-162 92.5,-110 265.5,-110 265.5,-162"/>
<text text-anchor="start" x="100.5" y="-150" font-family="Helvetica,sans-Serif" font-size="10.00">/home/runner/work/logger</text>
<text text-anchor="start" x="100.5" y="-139" font-family="Helvetica,sans-Serif" font-size="10.00">_system/logger_system/sources</text>
<text text-anchor="start" x="100.5" y="-128" font-family="Helvetica,sans-Serif" font-size="10.00">/logger/config/configuration</text>
<text text-anchor="middle" x="179" y="-117" font-family="Helvetica,sans-Serif" font-size="10.00">_templates.h</text>
</a>
</g>
</g>
<!-- Node2 -->
<g id="Node000002" class="node">
<title>Node2</title>
<g id="a_Node000002"><a xlink:href="logger__interface_8h.html" target="_top" xlink:title=" ">
<polygon fill="white" stroke="#666666" points="151,-74 37,-74 37,-55 151,-55 151,-74"/>
<text text-anchor="middle" x="94" y="-62" font-family="Helvetica,sans-Serif" font-size="10.00">../logger_interface.h</text>
</a>
</g>
</g>
<!-- Node1&#45;&gt;Node2 -->
<g id="edge1_Node000001_Node000002" class="edge">
<title>Node1&#45;&gt;Node2</title>
<g id="a_edge1_Node000001_Node000002"><a xlink:title=" ">
<path fill="none" stroke="#63b8ff" d="M148.31,-109.91C136.42,-100.19 123.2,-89.37 112.77,-80.85"/>
<polygon fill="#63b8ff" stroke="#63b8ff" points="114.72,-77.92 104.77,-74.3 110.29,-83.34 114.72,-77.92"/>
</a>
</g>
</g>
<!-- Node5 -->
<g id="Node000005" class="node">
<title>Node5</title>
<g id="a_Node000005"><a xlink:title=" ">
<polygon fill="#e0e0e0" stroke="#999999" points="191,-19 147,-19 147,0 191,0 191,-19"/>
<text text-anchor="middle" x="169" y="-7" font-family="Helvetica,sans-Serif" font-size="10.00">string</text>
</a>
</g>
</g>
<!-- Node1&#45;&gt;Node5 -->
<g id="edge5_Node000001_Node000005" class="edge">
<title>Node1&#45;&gt;Node5</title>
<g id="a_edge5_Node000001_Node000005"><a xlink:title=" ">
<path fill="none" stroke="#63b8ff" d="M176.98,-109.81C175.06,-85.95 172.23,-50.69 170.5,-29.24"/>
<polygon fill="#63b8ff" stroke="#63b8ff" points="173.98,-28.84 169.69,-19.15 167.01,-29.4 173.98,-28.84"/>
</a>
</g>
</g>
<!-- Node6 -->
<g id="Node000006" class="node">
<title>Node6</title>
<g id="a_Node000006"><a xlink:title=" ">
<polygon fill="#e0e0e0" stroke="#999999" points="257,-74 207,-74 207,-55 257,-55 257,-74"/>
<text text-anchor="middle" x="232" y="-62" font-family="Helvetica,sans-Serif" font-size="10.00">chrono</text>
</a>
</g>
</g>
<!-- Node1&#45;&gt;Node6 -->
<g id="edge6_Node000001_Node000006" class="edge">
<title>Node1&#45;&gt;Node6</title>
<g id="a_edge6_Node000001_Node000006"><a xlink:title=" ">
<path fill="none" stroke="#63b8ff" d="M198.13,-109.91C205.1,-100.77 212.81,-90.67 219.11,-82.41"/>
<polygon fill="#63b8ff" stroke="#63b8ff" points="222.01,-84.38 225.29,-74.3 216.44,-80.13 222.01,-84.38"/>
</a>
</g>
</g>
<!-- Node3 -->
<g id="Node000003" class="node">
<title>Node3</title>
<g id="a_Node000003"><a xlink:title=" ">
<polygon fill="#e0e0e0" stroke="#999999" points="58,-19 0,-19 0,0 58,0 58,-19"/>
<text text-anchor="middle" x="29" y="-7" font-family="Helvetica,sans-Serif" font-size="10.00">memory</text>
</a>
</g>
</g>
<!-- Node2&#45;&gt;Node3 -->
<g id="edge2_Node000002_Node000003" class="edge">
<title>Node2&#45;&gt;Node3</title>
<g id="a_edge2_Node000002_Node000003"><a xlink:title=" ">
<path fill="none" stroke="#63b8ff" d="M83.56,-54.98C73.85,-47.07 59.18,-35.11 47.5,-25.58"/>
<polygon fill="#63b8ff" stroke="#63b8ff" points="49.6,-22.78 39.63,-19.17 45.17,-28.2 49.6,-22.78"/>
</a>
</g>
</g>
<!-- Node4 -->
<g id="Node000004" class="node">
<title>Node4</title>
<g id="a_Node000004"><a xlink:title=" ">
<polygon fill="#e0e0e0" stroke="#999999" points="124,-19 76,-19 76,0 124,0 124,-19"/>
<text text-anchor="middle" x="100" y="-7" font-family="Helvetica,sans-Serif" font-size="10.00">mutex</text>
</a>
</g>
</g>
<!-- Node2&#45;&gt;Node4 -->
<g id="edge3_Node000002_Node000004" class="edge">
<title>Node2&#45;&gt;Node4</title>
<g id="a_edge3_Node000002_Node000004"><a xlink:title=" ">
<path fill="none" stroke="#63b8ff" d="M94.99,-54.75C95.78,-47.8 96.9,-37.85 97.89,-29.13"/>
<polygon fill="#63b8ff" stroke="#63b8ff" points="101.38,-29.42 99.03,-19.09 94.42,-28.63 101.38,-29.42"/>
</a>
</g>
</g>
<!-- Node2&#45;&gt;Node5 -->
<g id="edge4_Node000002_Node000005" class="edge">
<title>Node2&#45;&gt;Node5</title>
<g id="a_edge4_Node000002_Node000005"><a xlink:title=" ">
<path fill="none" stroke="#63b8ff" d="M106.05,-54.98C117.46,-46.92 134.83,-34.65 148.43,-25.03"/>
<polygon fill="#63b8ff" stroke="#63b8ff" points="150.58,-27.8 156.73,-19.17 146.54,-22.08 150.58,-27.8"/>
</a>
</g>
</g>
</g>
</svg>
