<?xml version="1.0" encoding="UTF-8" standalone="no"?>
<!DOCTYPE svg PUBLIC "-//W3C//DTD SVG 1.1//EN"
 "http://www.w3.org/Graphics/SVG/1.1/DTD/svg11.dtd">
<!-- Generated by graphviz version 2.43.0 (0)
 -->
<!-- Title: config_strategy_interface.h Pages: 1 -->
<svg width="709pt" height="192pt"
 viewBox="0.00 0.00 708.50 192.00" xmlns="http://www.w3.org/2000/svg" xmlns:xlink="http://www.w3.org/1999/xlink">
<g id="graph0" class="graph" transform="scale(1 1) rotate(0) translate(4 188)">
<title>config_strategy_interface.h</title>
<!-- Node1 -->
<g id="Node000001" class="node">
<title>Node1</title>
<g id="a_Node000001"><a xlink:title=" ">
<polygon fill="#999999" stroke="#666666" points="438.5,-184 289.5,-184 289.5,-165 438.5,-165 438.5,-184"/>
<text text-anchor="middle" x="364" y="-172" font-family="Helvetica,sans-Serif" font-size="10.00">config_strategy_interface.h</text>
</a>
</g>
</g>
<!-- Node2 -->
<g id="Node000002" class="node">
<title>Node2</title>
<g id="a_Node000002"><a xlink:href="logger__config_8h.html" target="_top" xlink:title=" ">
<polygon fill="white" stroke="#666666" points="290.5,-129 199.5,-129 199.5,-110 290.5,-110 290.5,-129"/>
<text text-anchor="middle" x="245" y="-117" font-family="Helvetica,sans-Serif" font-size="10.00">logger_config.h</text>
</a>
</g>
</g>
<!-- Node1&#45;&gt;Node2 -->
<g id="edge1_Node000001_Node000002" class="edge">
<title>Node1&#45;&gt;Node2</title>
<g id="a_edge1_Node000001_Node000002"><a xlink:title=" ">
<path fill="none" stroke="#63b8ff" d="M344.88,-164.98C325.65,-156.42 295.77,-143.11 273.69,-133.28"/>
<polygon fill="#63b8ff" stroke="#63b8ff" points="275.03,-130.04 264.47,-129.17 272.18,-136.44 275.03,-130.04"/>
</a>
</g>
</g>
<!-- Node3 -->
<g id="Node000003" class="node">
<title>Node3</title>
<g id="a_Node000003"><a xlink:title=" ">
<polygon fill="#e0e0e0" stroke="#999999" points="66,-74 16,-74 16,-55 66,-55 66,-74"/>
<text text-anchor="middle" x="41" y="-62" font-family="Helvetica,sans-Serif" font-size="10.00">chrono</text>
</a>
</g>
</g>
<!-- Node1&#45;&gt;Node3 -->
<g id="edge20_Node000001_Node000003" class="edge">
<title>Node1&#45;&gt;Node3</title>
<g id="a_edge20_Node000001_Node000003"><a xlink:title=" ">
<path fill="none" stroke="#63b8ff" d="M324,-164.99C288.62,-157.04 235.8,-144.15 191,-129 146.96,-114.1 97.61,-92.15 67.95,-78.35"/>
<polygon fill="#63b8ff" stroke="#63b8ff" points="69.22,-75.08 58.68,-74 66.24,-81.42 69.22,-75.08"/>
</a>
</g>
</g>
<!-- Node4 -->
<g id="Node000004" class="node">
<title>Node4</title>
<g id="a_Node000004"><a xlink:title=" ">
<polygon fill="#e0e0e0" stroke="#999999" points="310,-19 266,-19 266,0 310,0 310,-19"/>
<text text-anchor="middle" x="288" y="-7" font-family="Helvetica,sans-Serif" font-size="10.00">string</text>
</a>
</g>
</g>
<!-- Node1&#45;&gt;Node4 -->
<g id="edge16_Node000001_Node000004" class="edge">
<title>Node1&#45;&gt;Node4</title>
<g id="a_edge16_Node000001_Node000004"><a xlink:title=" ">
<path fill="none" stroke="#63b8ff" d="M359.91,-164.74C347.95,-139.09 312.84,-63.78 296.52,-28.78"/>
<polygon fill="#63b8ff" stroke="#63b8ff" points="299.5,-26.89 292.11,-19.31 293.16,-29.85 299.5,-26.89"/>
</a>
</g>
</g>
<!-- Node6 -->
<g id="Node000006" class="node">
<title>Node6</title>
<g id="a_Node000006"><a xlink:href="error__codes_8h.html" target="_top" xlink:title=" ">
<polygon fill="white" stroke="#666666" points="446,-74 354,-74 354,-55 446,-55 446,-74"/>
<text text-anchor="middle" x="400" y="-62" font-family="Helvetica,sans-Serif" font-size="10.00">../error_codes.h</text>
</a>
</g>
</g>
<!-- Node1&#45;&gt;Node6 -->
<g id="edge14_Node000001_Node000006" class="edge">
<title>Node1&#45;&gt;Node6</title>
<g id="a_edge14_Node000001_Node000006"><a xlink:title=" ">
<path fill="none" stroke="#63b8ff" d="M366.61,-164.84C370.33,-152.58 377.43,-129.5 384,-110 386.92,-101.35 390.32,-91.81 393.24,-83.79"/>
<polygon fill="#63b8ff" stroke="#63b8ff" points="396.55,-84.92 396.71,-74.33 389.98,-82.51 396.55,-84.92"/>
</a>
</g>
</g>
<!-- Node11 -->
<g id="Node000011" class="node">
<title>Node11</title>
<g id="a_Node000011"><a xlink:title=" ">
<polygon fill="#e0e0e0" stroke="#999999" points="58,-19 0,-19 0,0 58,0 58,-19"/>
<text text-anchor="middle" x="29" y="-7" font-family="Helvetica,sans-Serif" font-size="10.00">memory</text>
</a>
</g>
</g>
<!-- Node1&#45;&gt;Node11 -->
<g id="edge15_Node000001_Node000011" class="edge">
<title>Node1&#45;&gt;Node11</title>
<g id="a_edge15_Node000001_Node000011"><a xlink:title=" ">
<path fill="none" stroke="#63b8ff" d="M295.15,-164.95C200.64,-151.55 38.75,-122.05 7,-74 -2.41,-59.76 6.11,-41.07 15.15,-27.66"/>
<polygon fill="#63b8ff" stroke="#63b8ff" points="18.17,-29.46 21.27,-19.33 12.53,-25.31 18.17,-29.46"/>
</a>
</g>
</g>
<!-- Node13 -->
<g id="Node000013" class="node">
<title>Node13</title>
<g id="a_Node000013"><a xlink:title=" ">
<polygon fill="#e0e0e0" stroke="#999999" points="439.5,-129 392.5,-129 392.5,-110 439.5,-110 439.5,-129"/>
<text text-anchor="middle" x="416" y="-117" font-family="Helvetica,sans-Serif" font-size="10.00">vector</text>
</a>
</g>
</g>
<!-- Node1&#45;&gt;Node13 -->
<g id="edge17_Node000001_Node000013" class="edge">
<title>Node1&#45;&gt;Node13</title>
<g id="a_edge17_Node000001_Node000013"><a xlink:title=" ">
<path fill="none" stroke="#63b8ff" d="M372.59,-164.75C380.16,-157.03 391.38,-145.6 400.51,-136.28"/>
<polygon fill="#63b8ff" stroke="#63b8ff" points="403.07,-138.68 407.57,-129.09 398.07,-133.78 403.07,-138.68"/>
</a>
</g>
</g>
<!-- Node14 -->
<g id="Node000014" class="node">
<title>Node14</title>
<g id="a_Node000014"><a xlink:title=" ">
<polygon fill="#e0e0e0" stroke="#999999" points="522,-129 458,-129 458,-110 522,-110 522,-129"/>
<text text-anchor="middle" x="490" y="-117" font-family="Helvetica,sans-Serif" font-size="10.00">algorithm</text>
</a>
</g>
</g>
<!-- Node1&#45;&gt;Node14 -->
<g id="edge18_Node000001_Node000014" class="edge">
<title>Node1&#45;&gt;Node14</title>
<g id="a_edge18_Node000001_Node000014"><a xlink:title=" ">
<path fill="none" stroke="#63b8ff" d="M384.24,-164.98C404.7,-156.38 436.53,-142.99 459.93,-133.15"/>
<polygon fill="#63b8ff" stroke="#63b8ff" points="461.53,-136.27 469.39,-129.17 458.81,-129.82 461.53,-136.27"/>
</a>
</g>
</g>
<!-- Node15 -->
<g id="Node000015" class="node">
<title>Node15</title>
<g id="a_Node000015"><a xlink:title=" ">
<polygon fill="#e0e0e0" stroke="#999999" points="589.5,-129 540.5,-129 540.5,-110 589.5,-110 589.5,-129"/>
<text text-anchor="middle" x="565" y="-117" font-family="Helvetica,sans-Serif" font-size="10.00">cstdlib</text>
</a>
</g>
</g>
<!-- Node1&#45;&gt;Node15 -->
<g id="edge19_Node000001_Node000015" class="edge">
<title>Node1&#45;&gt;Node15</title>
<g id="a_edge19_Node000001_Node000015"><a xlink:title=" ">
<path fill="none" stroke="#63b8ff" d="M396.29,-164.98C433.01,-155.3 492.73,-139.56 530.39,-129.63"/>
<polygon fill="#63b8ff" stroke="#63b8ff" points="531.61,-132.92 540.39,-126.99 529.83,-126.16 531.61,-132.92"/>
</a>
</g>
</g>
<!-- Node16 -->
<g id="Node000016" class="node">
<title>Node16</title>
<g id="a_Node000016"><a xlink:title=" ">
<polygon fill="#e0e0e0" stroke="#999999" points="700.5,-129 607.5,-129 607.5,-110 700.5,-110 700.5,-129"/>
<text text-anchor="middle" x="654" y="-117" font-family="Helvetica,sans-Serif" font-size="10.00">unordered_map</text>
</a>
</g>
</g>
<!-- Node1&#45;&gt;Node16 -->
<g id="edge21_Node000001_Node000016" class="edge">
<title>Node1&#45;&gt;Node16</title>
<g id="a_edge21_Node000001_Node000016"><a xlink:title=" ">
<path fill="none" stroke="#63b8ff" d="M410.59,-164.98C461.39,-155.7 542.69,-140.84 597.19,-130.88"/>
<polygon fill="#63b8ff" stroke="#63b8ff" points="597.83,-134.32 607.04,-129.08 596.57,-127.44 597.83,-134.32"/>
</a>
</g>
</g>
<!-- Node2&#45;&gt;Node3 -->
<g id="edge2_Node000002_Node000003" class="edge">
<title>Node2&#45;&gt;Node3</title>
<g id="a_edge2_Node000002_Node000003"><a xlink:title=" ">
<path fill="none" stroke="#63b8ff" d="M212.22,-109.98C175.06,-100.33 114.68,-84.64 76.44,-74.71"/>
<polygon fill="#63b8ff" stroke="#63b8ff" points="76.84,-71.2 66.28,-72.07 75.08,-77.97 76.84,-71.2"/>
</a>
</g>
</g>
<!-- Node2&#45;&gt;Node4 -->
<g id="edge3_Node000002_Node000004" class="edge">
<title>Node2&#45;&gt;Node4</title>
<g id="a_edge3_Node000002_Node000004"><a xlink:title=" ">
<path fill="none" stroke="#63b8ff" d="M250.33,-109.89C255.59,-101.11 263.63,-86.98 269,-74 275.06,-59.36 280.1,-42.1 283.46,-29.28"/>
<polygon fill="#63b8ff" stroke="#63b8ff" points="286.92,-29.87 285.97,-19.32 280.13,-28.17 286.92,-29.87"/>
</a>
</g>
</g>
<!-- Node5 -->
<g id="Node000005" class="node">
<title>Node5</title>
<g id="a_Node000005"><a xlink:title=" ">
<polygon fill="#e0e0e0" stroke="#999999" points="260,-74 216,-74 216,-55 260,-55 260,-74"/>
<text text-anchor="middle" x="238" y="-62" font-family="Helvetica,sans-Serif" font-size="10.00">limits</text>
</a>
</g>
</g>
<!-- Node2&#45;&gt;Node5 -->
<g id="edge4_Node000002_Node000005" class="edge">
<title>Node2&#45;&gt;Node5</title>
<g id="a_edge4_Node000002_Node000005"><a xlink:title=" ">
<path fill="none" stroke="#63b8ff" d="M243.84,-109.75C242.93,-102.8 241.61,-92.85 240.46,-84.13"/>
<polygon fill="#63b8ff" stroke="#63b8ff" points="243.91,-83.54 239.13,-74.09 236.97,-84.46 243.91,-83.54"/>
</a>
</g>
</g>
<!-- Node2&#45;&gt;Node6 -->
<g id="edge5_Node000002_Node000006" class="edge">
<title>Node2&#45;&gt;Node6</title>
<g id="a_edge5_Node000002_Node000006"><a xlink:title=" ">
<path fill="none" stroke="#63b8ff" d="M269.9,-109.98C295.7,-101.16 336.22,-87.31 365.18,-77.41"/>
<polygon fill="#63b8ff" stroke="#63b8ff" points="366.57,-80.63 374.9,-74.08 364.31,-74.01 366.57,-80.63"/>
</a>
</g>
</g>
<!-- Node10 -->
<g id="Node000010" class="node">
<title>Node10</title>
<g id="a_Node000010"><a xlink:href="logger__interface_8h.html" target="_top" xlink:title=" ">
<polygon fill="white" stroke="#666666" points="198,-74 84,-74 84,-55 198,-55 198,-74"/>
<text text-anchor="middle" x="141" y="-62" font-family="Helvetica,sans-Serif" font-size="10.00">../logger_interface.h</text>
</a>
</g>
</g>
<!-- Node2&#45;&gt;Node10 -->
<g id="edge10_Node000002_Node000010" class="edge">
<title>Node2&#45;&gt;Node10</title>
<g id="a_edge10_Node000002_Node000010"><a xlink:title=" ">
<path fill="none" stroke="#63b8ff" d="M228.29,-109.98C211.79,-101.57 186.3,-88.59 167.12,-78.81"/>
<polygon fill="#63b8ff" stroke="#63b8ff" points="168.51,-75.59 158.01,-74.17 165.33,-81.83 168.51,-75.59"/>
</a>
</g>
</g>
<!-- Node6&#45;&gt;Node4 -->
<g id="edge6_Node000006_Node000004" class="edge">
<title>Node6&#45;&gt;Node4</title>
<g id="a_edge6_Node000006_Node000004"><a xlink:title=" ">
<path fill="none" stroke="#63b8ff" d="M382.01,-54.98C364.07,-46.5 336.28,-33.35 315.57,-23.54"/>
<polygon fill="#63b8ff" stroke="#63b8ff" points="316.86,-20.28 306.32,-19.17 313.86,-26.61 316.86,-20.28"/>
</a>
</g>
</g>
<!-- Node7 -->
<g id="Node000007" class="node">
<title>Node7</title>
<g id="a_Node000007"><a xlink:title=" ">
<polygon fill="#e0e0e0" stroke="#999999" points="393.5,-19 328.5,-19 328.5,0 393.5,0 393.5,-19"/>
<text text-anchor="middle" x="361" y="-7" font-family="Helvetica,sans-Serif" font-size="10.00">stdexcept</text>
</a>
</g>
</g>
<!-- Node6&#45;&gt;Node7 -->
<g id="edge7_Node000006_Node000007" class="edge">
<title>Node6&#45;&gt;Node7</title>
<g id="a_edge7_Node000006_Node000007"><a xlink:title=" ">
<path fill="none" stroke="#63b8ff" d="M393.56,-54.75C388.11,-47.34 380.14,-36.5 373.44,-27.41"/>
<polygon fill="#63b8ff" stroke="#63b8ff" points="376.07,-25.07 367.32,-19.09 370.43,-29.22 376.07,-25.07"/>
</a>
</g>
</g>
<!-- Node8 -->
<g id="Node000008" class="node">
<title>Node8</title>
<g id="a_Node000008"><a xlink:title=" ">
<polygon fill="#e0e0e0" stroke="#999999" points="468,-19 412,-19 412,0 468,0 468,-19"/>
<text text-anchor="middle" x="440" y="-7" font-family="Helvetica,sans-Serif" font-size="10.00">optional</text>
</a>
</g>
</g>
<!-- Node6&#45;&gt;Node8 -->
<g id="edge8_Node000006_Node000008" class="edge">
<title>Node6&#45;&gt;Node8</title>
<g id="a_edge8_Node000006_Node000008"><a xlink:title=" ">
<path fill="none" stroke="#63b8ff" d="M406.61,-54.75C412.26,-47.26 420.54,-36.28 427.45,-27.13"/>
<polygon fill="#63b8ff" stroke="#63b8ff" points="430.29,-29.18 433.52,-19.09 424.7,-24.96 430.29,-29.18"/>
</a>
</g>
</g>
<!-- Node9 -->
<g id="Node000009" class="node">
<title>Node9</title>
<g id="a_Node000009"><a xlink:title=" ">
<polygon fill="#e0e0e0" stroke="#999999" points="537.5,-19 486.5,-19 486.5,0 537.5,0 537.5,-19"/>
<text text-anchor="middle" x="512" y="-7" font-family="Helvetica,sans-Serif" font-size="10.00">variant</text>
</a>
</g>
</g>
<!-- Node6&#45;&gt;Node9 -->
<g id="edge9_Node000006_Node000009" class="edge">
<title>Node6&#45;&gt;Node9</title>
<g id="a_edge9_Node000006_Node000009"><a xlink:title=" ">
<path fill="none" stroke="#63b8ff" d="M417.99,-54.98C435.93,-46.5 463.72,-33.35 484.43,-23.54"/>
<polygon fill="#63b8ff" stroke="#63b8ff" points="486.14,-26.61 493.68,-19.17 483.14,-20.28 486.14,-26.61"/>
</a>
</g>
</g>
<!-- Node10&#45;&gt;Node4 -->
<g id="edge13_Node000010_Node000004" class="edge">
<title>Node10&#45;&gt;Node4</title>
<g id="a_edge13_Node000010_Node000004"><a xlink:title=" ">
<path fill="none" stroke="#63b8ff" d="M164.62,-54.98C189.48,-46.02 228.77,-31.86 256.31,-21.92"/>
<polygon fill="#63b8ff" stroke="#63b8ff" points="257.66,-25.16 265.88,-18.47 255.29,-18.57 257.66,-25.16"/>
</a>
</g>
</g>
<!-- Node10&#45;&gt;Node11 -->
<g id="edge11_Node000010_Node000011" class="edge">
<title>Node10&#45;&gt;Node11</title>
<g id="a_edge11_Node000010_Node000011"><a xlink:title=" ">
<path fill="none" stroke="#63b8ff" d="M123.01,-54.98C105.07,-46.5 77.28,-33.35 56.57,-23.54"/>
<polygon fill="#63b8ff" stroke="#63b8ff" points="57.86,-20.28 47.32,-19.17 54.86,-26.61 57.86,-20.28"/>
</a>
</g>
</g>
<!-- Node12 -->
<g id="Node000012" class="node">
<title>Node12</title>
<g id="a_Node000012"><a xlink:title=" ">
<polygon fill="#e0e0e0" stroke="#999999" points="165,-19 117,-19 117,0 165,0 165,-19"/>
<text text-anchor="middle" x="141" y="-7" font-family="Helvetica,sans-Serif" font-size="10.00">mutex</text>
</a>
</g>
</g>
<!-- Node10&#45;&gt;Node12 -->
<g id="edge12_Node000010_Node000012" class="edge">
<title>Node10&#45;&gt;Node12</title>
<g id="a_edge12_Node000010_Node000012"><a xlink:title=" ">
<path fill="none" stroke="#63b8ff" d="M141,-54.75C141,-47.8 141,-37.85 141,-29.13"/>
<polygon fill="#63b8ff" stroke="#63b8ff" points="144.5,-29.09 141,-19.09 137.5,-29.09 144.5,-29.09"/>
</a>
</g>
</g>
</g>
</svg>
