<?xml version="1.0" encoding="UTF-8" standalone="no"?>
<!DOCTYPE svg PUBLIC "-//W3C//DTD SVG 1.1//EN"
 "http://www.w3.org/Graphics/SVG/1.1/DTD/svg11.dtd">
<!-- Generated by graphviz version 2.43.0 (0)
 -->
<!-- Title: config_strategy_interface.h Pages: 1 -->
<svg width="709pt" height="192pt"
 viewBox="0.00 0.00 708.50 192.00" xmlns="http://www.w3.org/2000/svg" xmlns:xlink="http://www.w3.org/1999/xlink">
<g id="graph0" class="graph" transform="scale(1 1) rotate(0) translate(4 188)">
<title>config_strategy_interface.h</title>
<!-- Node1 -->
<g id="Node000001" class="node">
<title>Node1</title>
<g id="a_Node000001"><a xlink:title=" ">
<polygon fill="#999999" stroke="#666666" points="438.5,-184 289.5,-184 289.5,-165 438.5,-165 438.5,-184"/>
<text text-anchor="middle" x="364" y="-172" font-family="Helvetica,sans-Serif" font-size="10.00">config_strategy_interface.h</text>
</a>
</g>
</g>
<!-- Node2 -->
<g id="Node000002" class="node">
<title>Node2</title>
<g id="a_Node000002"><a xlink:href="logger__config_8h.html" target="_top" xlink:title=" ">
<polygon fill="white" stroke="#666666" points="284.5,-129 193.5,-129 193.5,-110 284.5,-110 284.5,-129"/>
<text text-anchor="middle" x="239" y="-117" font-family="Helvetica,sans-Serif" font-size="10.00">logger_config.h</text>
</a>
</g>
</g>
<!-- Node1&#45;&gt;Node2 -->
<g id="edge1_Node000001_Node000002" class="edge">
<title>Node1&#45;&gt;Node2</title>
<g id="a_edge1_Node000001_Node000002"><a xlink:title=" ">
<path fill="none" stroke="#63b8ff" d="M343.92,-164.98C323.63,-156.38 292.04,-142.99 268.83,-133.15"/>
<polygon fill="#63b8ff" stroke="#63b8ff" points="270.02,-129.85 259.45,-129.17 267.29,-136.3 270.02,-129.85"/>
</a>
</g>
</g>
<!-- Node3 -->
<g id="Node000003" class="node">
<title>Node3</title>
<g id="a_Node000003"><a xlink:title=" ">
<polygon fill="#e0e0e0" stroke="#999999" points="66,-74 16,-74 16,-55 66,-55 66,-74"/>
<text text-anchor="middle" x="41" y="-62" font-family="Helvetica,sans-Serif" font-size="10.00">chrono</text>
</a>
</g>
</g>
<!-- Node1&#45;&gt;Node3 -->
<g id="edge21_Node000001_Node000003" class="edge">
<title>Node1&#45;&gt;Node3</title>
<g id="a_edge21_Node000001_Node000003"><a xlink:title=" ">
<path fill="none" stroke="#63b8ff" d="M320.72,-164.92C284.09,-157.15 230.45,-144.54 185,-129 142.68,-114.53 95.6,-92.6 67.15,-78.67"/>
<polygon fill="#63b8ff" stroke="#63b8ff" points="68.42,-75.39 57.91,-74.1 65.32,-81.67 68.42,-75.39"/>
</a>
</g>
</g>
<!-- Node4 -->
<g id="Node000004" class="node">
<title>Node4</title>
<g id="a_Node000004"><a xlink:title=" ">
<polygon fill="#e0e0e0" stroke="#999999" points="258,-19 214,-19 214,0 258,0 258,-19"/>
<text text-anchor="middle" x="236" y="-7" font-family="Helvetica,sans-Serif" font-size="10.00">string</text>
</a>
</g>
</g>
<!-- Node1&#45;&gt;Node4 -->
<g id="edge17_Node000001_Node000004" class="edge">
<title>Node1&#45;&gt;Node4</title>
<g id="a_edge17_Node000001_Node000004"><a xlink:title=" ">
<path fill="none" stroke="#63b8ff" d="M361.65,-164.81C355.63,-143.82 337.89,-89.55 307,-55 295.34,-41.96 278.97,-31.35 264.88,-23.77"/>
<polygon fill="#63b8ff" stroke="#63b8ff" points="266.08,-20.45 255.58,-19.01 262.89,-26.68 266.08,-20.45"/>
</a>
</g>
</g>
<!-- Node6 -->
<g id="Node000006" class="node">
<title>Node6</title>
<g id="a_Node000006"><a xlink:href="error__codes_8h.html" target="_top" xlink:title=" ">
<polygon fill="white" stroke="#666666" points="446,-74 354,-74 354,-55 446,-55 446,-74"/>
<text text-anchor="middle" x="400" y="-62" font-family="Helvetica,sans-Serif" font-size="10.00">../error_codes.h</text>
</a>
</g>
</g>
<!-- Node1&#45;&gt;Node6 -->
<g id="edge15_Node000001_Node000006" class="edge">
<title>Node1&#45;&gt;Node6</title>
<g id="a_edge15_Node000001_Node000006"><a xlink:title=" ">
<path fill="none" stroke="#63b8ff" d="M366.61,-164.84C370.33,-152.58 377.43,-129.5 384,-110 386.92,-101.35 390.32,-91.81 393.24,-83.79"/>
<polygon fill="#63b8ff" stroke="#63b8ff" points="396.55,-84.92 396.71,-74.33 389.98,-82.51 396.55,-84.92"/>
</a>
</g>
</g>
<!-- Node12 -->
<g id="Node000012" class="node">
<title>Node12</title>
<g id="a_Node000012"><a xlink:title=" ">
<polygon fill="#e0e0e0" stroke="#999999" points="58,-19 0,-19 0,0 58,0 58,-19"/>
<text text-anchor="middle" x="29" y="-7" font-family="Helvetica,sans-Serif" font-size="10.00">memory</text>
</a>
</g>
</g>
<!-- Node1&#45;&gt;Node12 -->
<g id="edge16_Node000001_Node000012" class="edge">
<title>Node1&#45;&gt;Node12</title>
<g id="a_edge16_Node000001_Node000012"><a xlink:title=" ">
<path fill="none" stroke="#63b8ff" d="M295.08,-165C200.47,-151.66 38.47,-122.23 7,-74 -2.32,-59.71 6.19,-41.02 15.2,-27.63"/>
<polygon fill="#63b8ff" stroke="#63b8ff" points="18.2,-29.45 21.3,-19.32 12.56,-25.3 18.2,-29.45"/>
</a>
</g>
</g>
<!-- Node14 -->
<g id="Node000014" class="node">
<title>Node14</title>
<g id="a_Node000014"><a xlink:title=" ">
<polygon fill="#e0e0e0" stroke="#999999" points="439.5,-129 392.5,-129 392.5,-110 439.5,-110 439.5,-129"/>
<text text-anchor="middle" x="416" y="-117" font-family="Helvetica,sans-Serif" font-size="10.00">vector</text>
</a>
</g>
</g>
<!-- Node1&#45;&gt;Node14 -->
<g id="edge18_Node000001_Node000014" class="edge">
<title>Node1&#45;&gt;Node14</title>
<g id="a_edge18_Node000001_Node000014"><a xlink:title=" ">
<path fill="none" stroke="#63b8ff" d="M372.59,-164.75C380.16,-157.03 391.38,-145.6 400.51,-136.28"/>
<polygon fill="#63b8ff" stroke="#63b8ff" points="403.07,-138.68 407.57,-129.09 398.07,-133.78 403.07,-138.68"/>
</a>
</g>
</g>
<!-- Node15 -->
<g id="Node000015" class="node">
<title>Node15</title>
<g id="a_Node000015"><a xlink:title=" ">
<polygon fill="#e0e0e0" stroke="#999999" points="522,-129 458,-129 458,-110 522,-110 522,-129"/>
<text text-anchor="middle" x="490" y="-117" font-family="Helvetica,sans-Serif" font-size="10.00">algorithm</text>
</a>
</g>
</g>
<!-- Node1&#45;&gt;Node15 -->
<g id="edge19_Node000001_Node000015" class="edge">
<title>Node1&#45;&gt;Node15</title>
<g id="a_edge19_Node000001_Node000015"><a xlink:title=" ">
<path fill="none" stroke="#63b8ff" d="M384.24,-164.98C404.7,-156.38 436.53,-142.99 459.93,-133.15"/>
<polygon fill="#63b8ff" stroke="#63b8ff" points="461.53,-136.27 469.39,-129.17 458.81,-129.82 461.53,-136.27"/>
</a>
</g>
</g>
<!-- Node16 -->
<g id="Node000016" class="node">
<title>Node16</title>
<g id="a_Node000016"><a xlink:title=" ">
<polygon fill="#e0e0e0" stroke="#999999" points="589.5,-129 540.5,-129 540.5,-110 589.5,-110 589.5,-129"/>
<text text-anchor="middle" x="565" y="-117" font-family="Helvetica,sans-Serif" font-size="10.00">cstdlib</text>
</a>
</g>
</g>
<!-- Node1&#45;&gt;Node16 -->
<g id="edge20_Node000001_Node000016" class="edge">
<title>Node1&#45;&gt;Node16</title>
<g id="a_edge20_Node000001_Node000016"><a xlink:title=" ">
<path fill="none" stroke="#63b8ff" d="M396.29,-164.98C433.01,-155.3 492.73,-139.56 530.39,-129.63"/>
<polygon fill="#63b8ff" stroke="#63b8ff" points="531.61,-132.92 540.39,-126.99 529.83,-126.16 531.61,-132.92"/>
</a>
</g>
</g>
<!-- Node17 -->
<g id="Node000017" class="node">
<title>Node17</title>
<g id="a_Node000017"><a xlink:title=" ">
<polygon fill="#e0e0e0" stroke="#999999" points="700.5,-129 607.5,-129 607.5,-110 700.5,-110 700.5,-129"/>
<text text-anchor="middle" x="654" y="-117" font-family="Helvetica,sans-Serif" font-size="10.00">unordered_map</text>
</a>
</g>
</g>
<!-- Node1&#45;&gt;Node17 -->
<g id="edge22_Node000001_Node000017" class="edge">
<title>Node1&#45;&gt;Node17</title>
<g id="a_edge22_Node000001_Node000017"><a xlink:title=" ">
<path fill="none" stroke="#63b8ff" d="M410.59,-164.98C461.39,-155.7 542.69,-140.84 597.19,-130.88"/>
<polygon fill="#63b8ff" stroke="#63b8ff" points="597.83,-134.32 607.04,-129.08 596.57,-127.44 597.83,-134.32"/>
</a>
</g>
</g>
<!-- Node2&#45;&gt;Node3 -->
<g id="edge2_Node000002_Node000003" class="edge">
<title>Node2&#45;&gt;Node3</title>
<g id="a_edge2_Node000002_Node000003"><a xlink:title=" ">
<path fill="none" stroke="#63b8ff" d="M207.19,-109.98C171.32,-100.38 113.16,-84.82 76.02,-74.87"/>
<polygon fill="#63b8ff" stroke="#63b8ff" points="76.7,-71.43 66.14,-72.23 74.89,-78.2 76.7,-71.43"/>
</a>
</g>
</g>
<!-- Node2&#45;&gt;Node4 -->
<g id="edge3_Node000002_Node000004" class="edge">
<title>Node2&#45;&gt;Node4</title>
<g id="a_edge3_Node000002_Node000004"><a xlink:title=" ">
<path fill="none" stroke="#63b8ff" d="M238.75,-109.66C238.27,-92.17 237.18,-52.8 236.52,-29.27"/>
<polygon fill="#63b8ff" stroke="#63b8ff" points="240.02,-29.06 236.24,-19.16 233.02,-29.25 240.02,-29.06"/>
</a>
</g>
</g>
<!-- Node5 -->
<g id="Node000005" class="node">
<title>Node5</title>
<g id="a_Node000005"><a xlink:title=" ">
<polygon fill="#e0e0e0" stroke="#999999" points="298,-74 254,-74 254,-55 298,-55 298,-74"/>
<text text-anchor="middle" x="276" y="-62" font-family="Helvetica,sans-Serif" font-size="10.00">limits</text>
</a>
</g>
</g>
<!-- Node2&#45;&gt;Node5 -->
<g id="edge4_Node000002_Node000005" class="edge">
<title>Node2&#45;&gt;Node5</title>
<g id="a_edge4_Node000002_Node000005"><a xlink:title=" ">
<path fill="none" stroke="#63b8ff" d="M245.11,-109.75C250.28,-102.34 257.85,-91.5 264.19,-82.41"/>
<polygon fill="#63b8ff" stroke="#63b8ff" points="267.15,-84.29 270,-74.09 261.41,-80.29 267.15,-84.29"/>
</a>
</g>
</g>
<!-- Node2&#45;&gt;Node6 -->
<g id="edge5_Node000002_Node000006" class="edge">
<title>Node2&#45;&gt;Node6</title>
<g id="a_edge5_Node000002_Node000006"><a xlink:title=" ">
<path fill="none" stroke="#63b8ff" d="M264.87,-109.98C291.78,-101.13 334.12,-87.19 364.23,-77.28"/>
<polygon fill="#63b8ff" stroke="#63b8ff" points="365.53,-80.53 373.93,-74.08 363.34,-73.88 365.53,-80.53"/>
</a>
</g>
</g>
<!-- Node11 -->
<g id="Node000011" class="node">
<title>Node11</title>
<g id="a_Node000011"><a xlink:href="logger__interface_8h.html" target="_top" xlink:title=" ">
<polygon fill="white" stroke="#666666" points="198,-74 84,-74 84,-55 198,-55 198,-74"/>
<text text-anchor="middle" x="141" y="-62" font-family="Helvetica,sans-Serif" font-size="10.00">../logger_interface.h</text>
</a>
</g>
</g>
<!-- Node2&#45;&gt;Node11 -->
<g id="edge11_Node000002_Node000011" class="edge">
<title>Node2&#45;&gt;Node11</title>
<g id="a_edge11_Node000002_Node000011"><a xlink:title=" ">
<path fill="none" stroke="#63b8ff" d="M223.25,-109.98C207.77,-101.61 183.91,-88.7 165.86,-78.95"/>
<polygon fill="#63b8ff" stroke="#63b8ff" points="167.49,-75.85 157.03,-74.17 164.16,-82.01 167.49,-75.85"/>
</a>
</g>
</g>
<!-- Node6&#45;&gt;Node4 -->
<g id="edge6_Node000006_Node000004" class="edge">
<title>Node6&#45;&gt;Node4</title>
<g id="a_edge6_Node000006_Node000004"><a xlink:title=" ">
<path fill="none" stroke="#63b8ff" d="M373.65,-54.98C344.85,-45.68 298.72,-30.77 267.9,-20.81"/>
<polygon fill="#63b8ff" stroke="#63b8ff" points="268.67,-17.38 258.08,-17.63 266.52,-24.04 268.67,-17.38"/>
</a>
</g>
</g>
<!-- Node7 -->
<g id="Node000007" class="node">
<title>Node7</title>
<g id="a_Node000007"><a xlink:title=" ">
<polygon fill="#e0e0e0" stroke="#999999" points="569.5,-19 504.5,-19 504.5,0 569.5,0 569.5,-19"/>
<text text-anchor="middle" x="537" y="-7" font-family="Helvetica,sans-Serif" font-size="10.00">stdexcept</text>
</a>
</g>
</g>
<!-- Node6&#45;&gt;Node7 -->
<g id="edge7_Node000006_Node000007" class="edge">
<title>Node6&#45;&gt;Node7</title>
<g id="a_edge7_Node000006_Node000007"><a xlink:title=" ">
<path fill="none" stroke="#63b8ff" d="M422.01,-54.98C444.45,-46.3 479.48,-32.75 504.99,-22.88"/>
<polygon fill="#63b8ff" stroke="#63b8ff" points="506.52,-26.04 514.59,-19.17 504,-19.51 506.52,-26.04"/>
</a>
</g>
</g>
<!-- Node8 -->
<g id="Node000008" class="node">
<title>Node8</title>
<g id="a_Node000008"><a xlink:title=" ">
<polygon fill="#e0e0e0" stroke="#999999" points="342.5,-19 297.5,-19 297.5,0 342.5,0 342.5,-19"/>
<text text-anchor="middle" x="320" y="-7" font-family="Helvetica,sans-Serif" font-size="10.00">utility</text>
</a>
</g>
</g>
<!-- Node6&#45;&gt;Node8 -->
<g id="edge8_Node000006_Node000008" class="edge">
<title>Node6&#45;&gt;Node8</title>
<g id="a_edge8_Node000006_Node000008"><a xlink:title=" ">
<path fill="none" stroke="#63b8ff" d="M387.15,-54.98C374.86,-46.84 356.09,-34.41 341.52,-24.76"/>
<polygon fill="#63b8ff" stroke="#63b8ff" points="343.36,-21.78 333.09,-19.17 339.49,-27.61 343.36,-21.78"/>
</a>
</g>
</g>
<!-- Node9 -->
<g id="Node000009" class="node">
<title>Node9</title>
<g id="a_Node000009"><a xlink:title=" ">
<polygon fill="#e0e0e0" stroke="#999999" points="417,-19 361,-19 361,0 417,0 417,-19"/>
<text text-anchor="middle" x="389" y="-7" font-family="Helvetica,sans-Serif" font-size="10.00">optional</text>
</a>
</g>
</g>
<!-- Node6&#45;&gt;Node9 -->
<g id="edge9_Node000006_Node000009" class="edge">
<title>Node6&#45;&gt;Node9</title>
<g id="a_edge9_Node000006_Node000009"><a xlink:title=" ">
<path fill="none" stroke="#63b8ff" d="M398.18,-54.75C396.74,-47.8 394.68,-37.85 392.87,-29.13"/>
<polygon fill="#63b8ff" stroke="#63b8ff" points="396.24,-28.17 390.78,-19.09 389.39,-29.59 396.24,-28.17"/>
</a>
</g>
</g>
<!-- Node10 -->
<g id="Node000010" class="node">
<title>Node10</title>
<g id="a_Node000010"><a xlink:title=" ">
<polygon fill="#e0e0e0" stroke="#999999" points="486.5,-19 435.5,-19 435.5,0 486.5,0 486.5,-19"/>
<text text-anchor="middle" x="461" y="-7" font-family="Helvetica,sans-Serif" font-size="10.00">variant</text>
</a>
</g>
</g>
<!-- Node6&#45;&gt;Node10 -->
<g id="edge10_Node000006_Node000010" class="edge">
<title>Node6&#45;&gt;Node10</title>
<g id="a_edge10_Node000006_Node000010"><a xlink:title=" ">
<path fill="none" stroke="#63b8ff" d="M409.8,-54.98C418.82,-47.15 432.41,-35.34 443.32,-25.86"/>
<polygon fill="#63b8ff" stroke="#63b8ff" points="445.77,-28.37 451.02,-19.17 441.18,-23.09 445.77,-28.37"/>
</a>
</g>
</g>
<!-- Node11&#45;&gt;Node4 -->
<g id="edge14_Node000011_Node000004" class="edge">
<title>Node11&#45;&gt;Node4</title>
<g id="a_edge14_Node000011_Node000004"><a xlink:title=" ">
<path fill="none" stroke="#63b8ff" d="M156.26,-54.98C171.13,-46.69 193.98,-33.94 211.42,-24.22"/>
<polygon fill="#63b8ff" stroke="#63b8ff" points="213.43,-27.1 220.46,-19.17 210.02,-20.99 213.43,-27.1"/>
</a>
</g>
</g>
<!-- Node11&#45;&gt;Node12 -->
<g id="edge12_Node000011_Node000012" class="edge">
<title>Node11&#45;&gt;Node12</title>
<g id="a_edge12_Node000011_Node000012"><a xlink:title=" ">
<path fill="none" stroke="#63b8ff" d="M123.01,-54.98C105.07,-46.5 77.28,-33.35 56.57,-23.54"/>
<polygon fill="#63b8ff" stroke="#63b8ff" points="57.86,-20.28 47.32,-19.17 54.86,-26.61 57.86,-20.28"/>
</a>
</g>
</g>
<!-- Node13 -->
<g id="Node000013" class="node">
<title>Node13</title>
<g id="a_Node000013"><a xlink:title=" ">
<polygon fill="#e0e0e0" stroke="#999999" points="165,-19 117,-19 117,0 165,0 165,-19"/>
<text text-anchor="middle" x="141" y="-7" font-family="Helvetica,sans-Serif" font-size="10.00">mutex</text>
</a>
</g>
</g>
<!-- Node11&#45;&gt;Node13 -->
<g id="edge13_Node000011_Node000013" class="edge">
<title>Node11&#45;&gt;Node13</title>
<g id="a_edge13_Node000011_Node000013"><a xlink:title=" ">
<path fill="none" stroke="#63b8ff" d="M141,-54.75C141,-47.8 141,-37.85 141,-29.13"/>
<polygon fill="#63b8ff" stroke="#63b8ff" points="144.5,-29.09 141,-19.09 137.5,-29.09 144.5,-29.09"/>
</a>
</g>
</g>
</g>
</svg>
