<?xml version="1.0" encoding="UTF-8" standalone="no"?>
<!DOCTYPE svg PUBLIC "-//W3C//DTD SVG 1.1//EN"
 "http://www.w3.org/Graphics/SVG/1.1/DTD/svg11.dtd">
<!-- Generated by graphviz version 2.43.0 (0)
 -->
<!-- Title: config_strategy_interface.h Pages: 1 -->
<svg width="706pt" height="192pt"
 viewBox="0.00 0.00 705.60 192.00" xmlns="http://www.w3.org/2000/svg" xmlns:xlink="http://www.w3.org/1999/xlink">
<g id="graph0" class="graph" transform="scale(1 1) rotate(0) translate(4 188)">
<title>config_strategy_interface.h</title>
<!-- Node1 -->
<g id="Node000001" class="node">
<title>Node1</title>
<g id="a_Node000001"><a xlink:title=" ">
<polygon fill="#999999" stroke="#666666" points="435.6,-184 286.6,-184 286.6,-165 435.6,-165 435.6,-184"/>
<text text-anchor="middle" x="361.1" y="-172" font-family="Helvetica,sans-Serif" font-size="10.00">config_strategy_interface.h</text>
</a>
</g>
</g>
<!-- Node2 -->
<g id="Node000002" class="node">
<title>Node2</title>
<g id="a_Node000002"><a xlink:href="logger__config_8h.html" target="_top" xlink:title=" ">
<polygon fill="white" stroke="#666666" points="257.6,-129 166.6,-129 166.6,-110 257.6,-110 257.6,-129"/>
<text text-anchor="middle" x="212.1" y="-117" font-family="Helvetica,sans-Serif" font-size="10.00">logger_config.h</text>
</a>
</g>
</g>
<!-- Node1&#45;&gt;Node2 -->
<g id="edge1_Node000001_Node000002" class="edge">
<title>Node1&#45;&gt;Node2</title>
<g id="a_edge1_Node000001_Node000002"><a xlink:title=" ">
<path fill="none" stroke="#63b8ff" d="M337.16,-164.98C312.54,-156.23 273.98,-142.51 246.18,-132.62"/>
<polygon fill="#63b8ff" stroke="#63b8ff" points="247.07,-129.22 236.48,-129.17 244.72,-135.82 247.07,-129.22"/>
</a>
</g>
</g>
<!-- Node3 -->
<g id="Node000003" class="node">
<title>Node3</title>
<g id="a_Node000003"><a xlink:title=" ">
<polygon fill="#e0e0e0" stroke="#999999" points="63.1,-74 13.1,-74 13.1,-55 63.1,-55 63.1,-74"/>
<text text-anchor="middle" x="38.1" y="-62" font-family="Helvetica,sans-Serif" font-size="10.00">chrono</text>
</a>
</g>
</g>
<!-- Node1&#45;&gt;Node3 -->
<g id="edge19_Node000001_Node000003" class="edge">
<title>Node1&#45;&gt;Node3</title>
<g id="a_edge19_Node000001_Node000003"><a xlink:title=" ">
<path fill="none" stroke="#63b8ff" d="M301.4,-164.94C260.06,-157.94 204.22,-146.33 157.1,-129 121.56,-115.93 83.43,-94.03 60.17,-79.67"/>
<polygon fill="#63b8ff" stroke="#63b8ff" points="61.78,-76.55 51.45,-74.21 58.07,-82.49 61.78,-76.55"/>
</a>
</g>
</g>
<!-- Node4 -->
<g id="Node000004" class="node">
<title>Node4</title>
<g id="a_Node000004"><a xlink:title=" ">
<polygon fill="#e0e0e0" stroke="#999999" points="124.1,-19 80.1,-19 80.1,0 124.1,0 124.1,-19"/>
<text text-anchor="middle" x="102.1" y="-7" font-family="Helvetica,sans-Serif" font-size="10.00">string</text>
</a>
</g>
</g>
<!-- Node1&#45;&gt;Node4 -->
<g id="edge15_Node000001_Node000004" class="edge">
<title>Node1&#45;&gt;Node4</title>
<g id="a_edge15_Node000001_Node000004"><a xlink:title=" ">
<path fill="none" stroke="#63b8ff" d="M290.23,-165C194.99,-151.82 34.12,-122.77 4.1,-74 -13.94,-44.69 35.03,-26.33 70.08,-17.29"/>
<polygon fill="#63b8ff" stroke="#63b8ff" points="71.08,-20.65 79.97,-14.88 69.43,-13.84 71.08,-20.65"/>
</a>
</g>
</g>
<!-- Node6 -->
<g id="Node000006" class="node">
<title>Node6</title>
<g id="a_Node000006"><a xlink:href="error__codes_8h.html" target="_top" xlink:title=" ">
<polygon fill="white" stroke="#666666" points="443.1,-74 351.1,-74 351.1,-55 443.1,-55 443.1,-74"/>
<text text-anchor="middle" x="397.1" y="-62" font-family="Helvetica,sans-Serif" font-size="10.00">../error_codes.h</text>
</a>
</g>
</g>
<!-- Node1&#45;&gt;Node6 -->
<g id="edge13_Node000001_Node000006" class="edge">
<title>Node1&#45;&gt;Node6</title>
<g id="a_edge13_Node000001_Node000006"><a xlink:title=" ">
<path fill="none" stroke="#63b8ff" d="M363.71,-164.84C367.43,-152.58 374.53,-129.5 381.1,-110 384.02,-101.35 387.42,-91.81 390.34,-83.79"/>
<polygon fill="#63b8ff" stroke="#63b8ff" points="393.65,-84.92 393.81,-74.33 387.08,-82.51 393.65,-84.92"/>
</a>
</g>
</g>
<!-- Node10 -->
<g id="Node000010" class="node">
<title>Node10</title>
<g id="a_Node000010"><a xlink:title=" ">
<polygon fill="#e0e0e0" stroke="#999999" points="315.1,-19 257.1,-19 257.1,0 315.1,0 315.1,-19"/>
<text text-anchor="middle" x="286.1" y="-7" font-family="Helvetica,sans-Serif" font-size="10.00">memory</text>
</a>
</g>
</g>
<!-- Node1&#45;&gt;Node10 -->
<g id="edge14_Node000001_Node000010" class="edge">
<title>Node1&#45;&gt;Node10</title>
<g id="a_edge14_Node000001_Node000010"><a xlink:title=" ">
<path fill="none" stroke="#63b8ff" d="M357.07,-164.74C345.27,-139.09 310.62,-63.78 294.51,-28.78"/>
<polygon fill="#63b8ff" stroke="#63b8ff" points="297.51,-26.93 290.15,-19.31 291.15,-29.85 297.51,-26.93"/>
</a>
</g>
</g>
<!-- Node12 -->
<g id="Node000012" class="node">
<title>Node12</title>
<g id="a_Node000012"><a xlink:title=" ">
<polygon fill="#e0e0e0" stroke="#999999" points="436.6,-129 389.6,-129 389.6,-110 436.6,-110 436.6,-129"/>
<text text-anchor="middle" x="413.1" y="-117" font-family="Helvetica,sans-Serif" font-size="10.00">vector</text>
</a>
</g>
</g>
<!-- Node1&#45;&gt;Node12 -->
<g id="edge16_Node000001_Node000012" class="edge">
<title>Node1&#45;&gt;Node12</title>
<g id="a_edge16_Node000001_Node000012"><a xlink:title=" ">
<path fill="none" stroke="#63b8ff" d="M369.69,-164.75C377.26,-157.03 388.48,-145.6 397.61,-136.28"/>
<polygon fill="#63b8ff" stroke="#63b8ff" points="400.17,-138.68 404.67,-129.09 395.17,-133.78 400.17,-138.68"/>
</a>
</g>
</g>
<!-- Node13 -->
<g id="Node000013" class="node">
<title>Node13</title>
<g id="a_Node000013"><a xlink:title=" ">
<polygon fill="#e0e0e0" stroke="#999999" points="519.1,-129 455.1,-129 455.1,-110 519.1,-110 519.1,-129"/>
<text text-anchor="middle" x="487.1" y="-117" font-family="Helvetica,sans-Serif" font-size="10.00">algorithm</text>
</a>
</g>
</g>
<!-- Node1&#45;&gt;Node13 -->
<g id="edge17_Node000001_Node000013" class="edge">
<title>Node1&#45;&gt;Node13</title>
<g id="a_edge17_Node000001_Node000013"><a xlink:title=" ">
<path fill="none" stroke="#63b8ff" d="M381.34,-164.98C401.8,-156.38 433.63,-142.99 457.03,-133.15"/>
<polygon fill="#63b8ff" stroke="#63b8ff" points="458.63,-136.27 466.49,-129.17 455.91,-129.82 458.63,-136.27"/>
</a>
</g>
</g>
<!-- Node14 -->
<g id="Node000014" class="node">
<title>Node14</title>
<g id="a_Node000014"><a xlink:title=" ">
<polygon fill="#e0e0e0" stroke="#999999" points="586.6,-129 537.6,-129 537.6,-110 586.6,-110 586.6,-129"/>
<text text-anchor="middle" x="562.1" y="-117" font-family="Helvetica,sans-Serif" font-size="10.00">cstdlib</text>
</a>
</g>
</g>
<!-- Node1&#45;&gt;Node14 -->
<g id="edge18_Node000001_Node000014" class="edge">
<title>Node1&#45;&gt;Node14</title>
<g id="a_edge18_Node000001_Node000014"><a xlink:title=" ">
<path fill="none" stroke="#63b8ff" d="M393.39,-164.98C430.11,-155.3 489.83,-139.56 527.49,-129.63"/>
<polygon fill="#63b8ff" stroke="#63b8ff" points="528.71,-132.92 537.49,-126.99 526.93,-126.16 528.71,-132.92"/>
</a>
</g>
</g>
<!-- Node15 -->
<g id="Node000015" class="node">
<title>Node15</title>
<g id="a_Node000015"><a xlink:title=" ">
<polygon fill="#e0e0e0" stroke="#999999" points="697.6,-129 604.6,-129 604.6,-110 697.6,-110 697.6,-129"/>
<text text-anchor="middle" x="651.1" y="-117" font-family="Helvetica,sans-Serif" font-size="10.00">unordered_map</text>
</a>
</g>
</g>
<!-- Node1&#45;&gt;Node15 -->
<g id="edge20_Node000001_Node000015" class="edge">
<title>Node1&#45;&gt;Node15</title>
<g id="a_edge20_Node000001_Node000015"><a xlink:title=" ">
<path fill="none" stroke="#63b8ff" d="M407.69,-164.98C458.49,-155.7 539.79,-140.84 594.29,-130.88"/>
<polygon fill="#63b8ff" stroke="#63b8ff" points="594.93,-134.32 604.14,-129.08 593.68,-127.44 594.93,-134.32"/>
</a>
</g>
</g>
<!-- Node2&#45;&gt;Node3 -->
<g id="edge2_Node000002_Node000003" class="edge">
<title>Node2&#45;&gt;Node3</title>
<g id="a_edge2_Node000002_Node000003"><a xlink:title=" ">
<path fill="none" stroke="#63b8ff" d="M184.14,-109.98C153.85,-100.76 105.46,-86.02 72.77,-76.06"/>
<polygon fill="#63b8ff" stroke="#63b8ff" points="73.75,-72.7 63.16,-73.13 71.71,-79.4 73.75,-72.7"/>
</a>
</g>
</g>
<!-- Node2&#45;&gt;Node4 -->
<g id="edge3_Node000002_Node000004" class="edge">
<title>Node2&#45;&gt;Node4</title>
<g id="a_edge3_Node000002_Node000004"><a xlink:title=" ">
<path fill="none" stroke="#63b8ff" d="M168.35,-109.96C147.46,-103.59 124.05,-92.64 110.1,-74 100.64,-61.35 99.22,-43.16 99.83,-29.49"/>
<polygon fill="#63b8ff" stroke="#63b8ff" points="103.33,-29.55 100.68,-19.29 96.36,-28.96 103.33,-29.55"/>
</a>
</g>
</g>
<!-- Node5 -->
<g id="Node000005" class="node">
<title>Node5</title>
<g id="a_Node000005"><a xlink:title=" ">
<polygon fill="#e0e0e0" stroke="#999999" points="295.1,-74 251.1,-74 251.1,-55 295.1,-55 295.1,-74"/>
<text text-anchor="middle" x="273.1" y="-62" font-family="Helvetica,sans-Serif" font-size="10.00">limits</text>
</a>
</g>
</g>
<!-- Node2&#45;&gt;Node5 -->
<g id="edge4_Node000002_Node000005" class="edge">
<title>Node2&#45;&gt;Node5</title>
<g id="a_edge4_Node000002_Node000005"><a xlink:title=" ">
<path fill="none" stroke="#63b8ff" d="M221.9,-109.98C230.92,-102.15 244.51,-90.34 255.42,-80.86"/>
<polygon fill="#63b8ff" stroke="#63b8ff" points="257.87,-83.37 263.12,-74.17 253.28,-78.09 257.87,-83.37"/>
</a>
</g>
</g>
<!-- Node2&#45;&gt;Node6 -->
<g id="edge5_Node000002_Node000006" class="edge">
<title>Node2&#45;&gt;Node6</title>
<g id="a_edge5_Node000002_Node000006"><a xlink:title=" ">
<path fill="none" stroke="#63b8ff" d="M241.82,-109.98C273.15,-101.01 322.67,-86.82 357.34,-76.89"/>
<polygon fill="#63b8ff" stroke="#63b8ff" points="358.49,-80.2 367.14,-74.08 356.57,-73.47 358.49,-80.2"/>
</a>
</g>
</g>
<!-- Node9 -->
<g id="Node000009" class="node">
<title>Node9</title>
<g id="a_Node000009"><a xlink:href="logger__interface_8h.html" target="_top" xlink:title=" ">
<polygon fill="white" stroke="#666666" points="233.1,-74 119.1,-74 119.1,-55 233.1,-55 233.1,-74"/>
<text text-anchor="middle" x="176.1" y="-62" font-family="Helvetica,sans-Serif" font-size="10.00">../logger_interface.h</text>
</a>
</g>
</g>
<!-- Node2&#45;&gt;Node9 -->
<g id="edge9_Node000002_Node000009" class="edge">
<title>Node2&#45;&gt;Node9</title>
<g id="a_edge9_Node000002_Node000009"><a xlink:title=" ">
<path fill="none" stroke="#63b8ff" d="M206.16,-109.75C201.12,-102.34 193.76,-91.5 187.59,-82.41"/>
<polygon fill="#63b8ff" stroke="#63b8ff" points="190.45,-80.39 181.93,-74.09 184.66,-84.33 190.45,-80.39"/>
</a>
</g>
</g>
<!-- Node6&#45;&gt;Node4 -->
<g id="edge6_Node000006_Node000004" class="edge">
<title>Node6&#45;&gt;Node4</title>
<g id="a_edge6_Node000006_Node000004"><a xlink:title=" ">
<path fill="none" stroke="#63b8ff" d="M350.67,-55.81C299.69,-47.26 215.43,-32.83 143.1,-19 140.22,-18.45 137.23,-17.86 134.24,-17.26"/>
<polygon fill="#63b8ff" stroke="#63b8ff" points="134.7,-13.78 124.2,-15.21 133.3,-20.64 134.7,-13.78"/>
</a>
</g>
</g>
<!-- Node7 -->
<g id="Node000007" class="node">
<title>Node7</title>
<g id="a_Node000007"><a xlink:title=" ">
<polygon fill="#e0e0e0" stroke="#999999" points="461.1,-19 405.1,-19 405.1,0 461.1,0 461.1,-19"/>
<text text-anchor="middle" x="433.1" y="-7" font-family="Helvetica,sans-Serif" font-size="10.00">optional</text>
</a>
</g>
</g>
<!-- Node6&#45;&gt;Node7 -->
<g id="edge7_Node000006_Node000007" class="edge">
<title>Node6&#45;&gt;Node7</title>
<g id="a_edge7_Node000006_Node000007"><a xlink:title=" ">
<path fill="none" stroke="#63b8ff" d="M403.04,-54.75C408.08,-47.34 415.44,-36.5 421.61,-27.41"/>
<polygon fill="#63b8ff" stroke="#63b8ff" points="424.54,-29.33 427.27,-19.09 418.75,-25.39 424.54,-29.33"/>
</a>
</g>
</g>
<!-- Node8 -->
<g id="Node000008" class="node">
<title>Node8</title>
<g id="a_Node000008"><a xlink:title=" ">
<polygon fill="#e0e0e0" stroke="#999999" points="386.6,-19 335.6,-19 335.6,0 386.6,0 386.6,-19"/>
<text text-anchor="middle" x="361.1" y="-7" font-family="Helvetica,sans-Serif" font-size="10.00">variant</text>
</a>
</g>
</g>
<!-- Node6&#45;&gt;Node8 -->
<g id="edge8_Node000006_Node000008" class="edge">
<title>Node6&#45;&gt;Node8</title>
<g id="a_edge8_Node000006_Node000008"><a xlink:title=" ">
<path fill="none" stroke="#63b8ff" d="M391.16,-54.75C386.12,-47.34 378.76,-36.5 372.59,-27.41"/>
<polygon fill="#63b8ff" stroke="#63b8ff" points="375.45,-25.39 366.93,-19.09 369.66,-29.33 375.45,-25.39"/>
</a>
</g>
</g>
<!-- Node9&#45;&gt;Node4 -->
<g id="edge12_Node000009_Node000004" class="edge">
<title>Node9&#45;&gt;Node4</title>
<g id="a_edge12_Node000009_Node000004"><a xlink:title=" ">
<path fill="none" stroke="#63b8ff" d="M164.21,-54.98C152.95,-46.92 135.81,-34.65 122.39,-25.03"/>
<polygon fill="#63b8ff" stroke="#63b8ff" points="124.37,-22.15 114.21,-19.17 120.3,-27.84 124.37,-22.15"/>
</a>
</g>
</g>
<!-- Node9&#45;&gt;Node10 -->
<g id="edge10_Node000009_Node000010" class="edge">
<title>Node9&#45;&gt;Node10</title>
<g id="a_edge10_Node000009_Node000010"><a xlink:title=" ">
<path fill="none" stroke="#63b8ff" d="M193.77,-54.98C211.39,-46.5 238.68,-33.35 259.03,-23.54"/>
<polygon fill="#63b8ff" stroke="#63b8ff" points="260.62,-26.66 268.11,-19.17 257.58,-20.36 260.62,-26.66"/>
</a>
</g>
</g>
<!-- Node11 -->
<g id="Node000011" class="node">
<title>Node11</title>
<g id="a_Node000011"><a xlink:title=" ">
<polygon fill="#e0e0e0" stroke="#999999" points="200.1,-19 152.1,-19 152.1,0 200.1,0 200.1,-19"/>
<text text-anchor="middle" x="176.1" y="-7" font-family="Helvetica,sans-Serif" font-size="10.00">mutex</text>
</a>
</g>
</g>
<!-- Node9&#45;&gt;Node11 -->
<g id="edge11_Node000009_Node000011" class="edge">
<title>Node9&#45;&gt;Node11</title>
<g id="a_edge11_Node000009_Node000011"><a xlink:title=" ">
<path fill="none" stroke="#63b8ff" d="M176.1,-54.75C176.1,-47.8 176.1,-37.85 176.1,-29.13"/>
<polygon fill="#63b8ff" stroke="#63b8ff" points="179.6,-29.09 176.1,-19.09 172.6,-29.09 179.6,-29.09"/>
</a>
</g>
</g>
</g>
</svg>
