<?xml version="1.0" encoding="UTF-8" standalone="no"?>
<!DOCTYPE svg PUBLIC "-//W3C//DTD SVG 1.1//EN"
 "http://www.w3.org/Graphics/SVG/1.1/DTD/svg11.dtd">
<!-- Generated by graphviz version 2.43.0 (0)
 -->
<!-- Title: /home/runner/work/logger_system/logger_system/sources/logger/config/config_strategy_interface.h Pages: 1 -->
<svg width="626pt" height="236pt"
 viewBox="0.00 0.00 625.75 236.00" xmlns="http://www.w3.org/2000/svg" xmlns:xlink="http://www.w3.org/1999/xlink">
<g id="graph0" class="graph" transform="scale(1 1) rotate(0) translate(4 232)">
<title>/home/runner/work/logger_system/logger_system/sources/logger/config/config_strategy_interface.h</title>
<!-- Node1 -->
<g id="Node000001" class="node">
<title>Node1</title>
<g id="a_Node000001"><a xlink:title=" ">
<polygon fill="#999999" stroke="#666666" points="348.75,-228 175.75,-228 175.75,-176 348.75,-176 348.75,-228"/>
<text text-anchor="start" x="183.75" y="-216" font-family="Helvetica,sans-Serif" font-size="10.00">/home/runner/work/logger</text>
<text text-anchor="start" x="183.75" y="-205" font-family="Helvetica,sans-Serif" font-size="10.00">_system/logger_system/sources</text>
<text text-anchor="start" x="183.75" y="-194" font-family="Helvetica,sans-Serif" font-size="10.00">/logger/config/config_strategy</text>
<text text-anchor="middle" x="262.25" y="-183" font-family="Helvetica,sans-Serif" font-size="10.00">_interface.h</text>
</a>
</g>
</g>
<!-- Node2 -->
<g id="Node000002" class="node">
<title>Node2</title>
<g id="a_Node000002"><a xlink:href="logger__config_8h.html" target="_top" xlink:title=" ">
<polygon fill="white" stroke="#666666" points="176.75,-140 85.75,-140 85.75,-121 176.75,-121 176.75,-140"/>
<text text-anchor="middle" x="131.25" y="-128" font-family="Helvetica,sans-Serif" font-size="10.00">logger_config.h</text>
</a>
</g>
</g>
<!-- Node1&#45;&gt;Node2 -->
<g id="edge1_Node000001_Node000002" class="edge">
<title>Node1&#45;&gt;Node2</title>
<g id="a_edge1_Node000001_Node000002"><a xlink:title=" ">
<path fill="none" stroke="#63b8ff" d="M214.96,-175.91C195.23,-165.44 173.11,-153.71 156.57,-144.93"/>
<polygon fill="#63b8ff" stroke="#63b8ff" points="158,-141.73 147.53,-140.14 154.72,-147.91 158,-141.73"/>
</a>
</g>
</g>
<!-- Node3 -->
<g id="Node000003" class="node">
<title>Node3</title>
<g id="a_Node000003"><a xlink:title=" ">
<polygon fill="#e0e0e0" stroke="#999999" points="61.25,-85 11.25,-85 11.25,-66 61.25,-66 61.25,-85"/>
<text text-anchor="middle" x="36.25" y="-73" font-family="Helvetica,sans-Serif" font-size="10.00">chrono</text>
</a>
</g>
</g>
<!-- Node1&#45;&gt;Node3 -->
<g id="edge17_Node000001_Node000003" class="edge">
<title>Node1&#45;&gt;Node3</title>
<g id="a_edge17_Node000001_Node000003"><a xlink:title=" ">
<path fill="none" stroke="#63b8ff" d="M175.7,-185.8C142.11,-176.7 104.92,-162.37 76.25,-140 61.04,-128.13 50.05,-108.75 43.48,-94.52"/>
<polygon fill="#63b8ff" stroke="#63b8ff" points="46.65,-93.04 39.48,-85.24 40.23,-95.81 46.65,-93.04"/>
</a>
</g>
</g>
<!-- Node4 -->
<g id="Node000004" class="node">
<title>Node4</title>
<g id="a_Node000004"><a xlink:title=" ">
<polygon fill="#e0e0e0" stroke="#999999" points="111.25,-24.5 67.25,-24.5 67.25,-5.5 111.25,-5.5 111.25,-24.5"/>
<text text-anchor="middle" x="89.25" y="-12.5" font-family="Helvetica,sans-Serif" font-size="10.00">string</text>
</a>
</g>
</g>
<!-- Node1&#45;&gt;Node4 -->
<g id="edge13_Node000001_Node000004" class="edge">
<title>Node1&#45;&gt;Node4</title>
<g id="a_edge13_Node000001_Node000004"><a xlink:title=" ">
<path fill="none" stroke="#63b8ff" d="M175.61,-192.34C111.12,-180.42 29.7,-152.14 2.25,-85 -9.51,-56.22 28.07,-36.32 57.5,-25.53"/>
<polygon fill="#63b8ff" stroke="#63b8ff" points="58.77,-28.79 67.08,-22.22 56.49,-22.18 58.77,-28.79"/>
</a>
</g>
</g>
<!-- Node6 -->
<g id="Node000006" class="node">
<title>Node6</title>
<g id="a_Node000006"><a xlink:href="error__codes_8h.html" target="_top" xlink:title=" ">
<polygon fill="white" stroke="#666666" points="447.25,-85 355.25,-85 355.25,-66 447.25,-66 447.25,-85"/>
<text text-anchor="middle" x="401.25" y="-73" font-family="Helvetica,sans-Serif" font-size="10.00">../error_codes.h</text>
</a>
</g>
</g>
<!-- Node1&#45;&gt;Node6 -->
<g id="edge11_Node000001_Node000006" class="edge">
<title>Node1&#45;&gt;Node6</title>
<g id="a_edge11_Node000001_Node000006"><a xlink:title=" ">
<path fill="none" stroke="#63b8ff" d="M236.86,-175.98C223.09,-159.36 211.3,-137.61 224.25,-121 231.88,-111.21 296.49,-96.73 345.47,-86.97"/>
<polygon fill="#63b8ff" stroke="#63b8ff" points="346.21,-90.39 355.34,-85.03 344.85,-83.53 346.21,-90.39"/>
</a>
</g>
</g>
<!-- Node11 -->
<g id="Node000011" class="node">
<title>Node11</title>
<g id="a_Node000011"><a xlink:title=" ">
<polygon fill="#e0e0e0" stroke="#999999" points="291.25,-140 233.25,-140 233.25,-121 291.25,-121 291.25,-140"/>
<text text-anchor="middle" x="262.25" y="-128" font-family="Helvetica,sans-Serif" font-size="10.00">memory</text>
</a>
</g>
</g>
<!-- Node1&#45;&gt;Node11 -->
<g id="edge12_Node000001_Node000011" class="edge">
<title>Node1&#45;&gt;Node11</title>
<g id="a_edge12_Node000001_Node000011"><a xlink:title=" ">
<path fill="none" stroke="#63b8ff" d="M262.25,-175.91C262.25,-167.55 262.25,-158.38 262.25,-150.55"/>
<polygon fill="#63b8ff" stroke="#63b8ff" points="265.75,-150.3 262.25,-140.3 258.75,-150.3 265.75,-150.3"/>
</a>
</g>
</g>
<!-- Node12 -->
<g id="Node000012" class="node">
<title>Node12</title>
<g id="a_Node000012"><a xlink:title=" ">
<polygon fill="#e0e0e0" stroke="#999999" points="356.75,-140 309.75,-140 309.75,-121 356.75,-121 356.75,-140"/>
<text text-anchor="middle" x="333.25" y="-128" font-family="Helvetica,sans-Serif" font-size="10.00">vector</text>
</a>
</g>
</g>
<!-- Node1&#45;&gt;Node12 -->
<g id="edge14_Node000001_Node000012" class="edge">
<title>Node1&#45;&gt;Node12</title>
<g id="a_edge14_Node000001_Node000012"><a xlink:title=" ">
<path fill="none" stroke="#63b8ff" d="M287.88,-175.91C297.62,-166.38 308.42,-155.8 317.05,-147.36"/>
<polygon fill="#63b8ff" stroke="#63b8ff" points="319.56,-149.8 324.26,-140.3 314.67,-144.8 319.56,-149.8"/>
</a>
</g>
</g>
<!-- Node13 -->
<g id="Node000013" class="node">
<title>Node13</title>
<g id="a_Node000013"><a xlink:title=" ">
<polygon fill="#e0e0e0" stroke="#999999" points="439.25,-140 375.25,-140 375.25,-121 439.25,-121 439.25,-140"/>
<text text-anchor="middle" x="407.25" y="-128" font-family="Helvetica,sans-Serif" font-size="10.00">algorithm</text>
</a>
</g>
</g>
<!-- Node1&#45;&gt;Node13 -->
<g id="edge15_Node000001_Node000013" class="edge">
<title>Node1&#45;&gt;Node13</title>
<g id="a_edge15_Node000001_Node000013"><a xlink:title=" ">
<path fill="none" stroke="#63b8ff" d="M314.6,-175.91C336.74,-165.3 361.61,-153.38 380,-144.56"/>
<polygon fill="#63b8ff" stroke="#63b8ff" points="381.73,-147.61 389.24,-140.14 378.71,-141.3 381.73,-147.61"/>
</a>
</g>
</g>
<!-- Node14 -->
<g id="Node000014" class="node">
<title>Node14</title>
<g id="a_Node000014"><a xlink:title=" ">
<polygon fill="#e0e0e0" stroke="#999999" points="506.75,-140 457.75,-140 457.75,-121 506.75,-121 506.75,-140"/>
<text text-anchor="middle" x="482.25" y="-128" font-family="Helvetica,sans-Serif" font-size="10.00">cstdlib</text>
</a>
</g>
</g>
<!-- Node1&#45;&gt;Node14 -->
<g id="edge16_Node000001_Node000014" class="edge">
<title>Node1&#45;&gt;Node14</title>
<g id="a_edge16_Node000001_Node000014"><a xlink:title=" ">
<path fill="none" stroke="#63b8ff" d="M341.68,-175.91C378.18,-164.38 419.56,-151.3 447.92,-142.35"/>
<polygon fill="#63b8ff" stroke="#63b8ff" points="449.27,-145.59 457.75,-139.24 447.16,-138.92 449.27,-145.59"/>
</a>
</g>
</g>
<!-- Node15 -->
<g id="Node000015" class="node">
<title>Node15</title>
<g id="a_Node000015"><a xlink:title=" ">
<polygon fill="#e0e0e0" stroke="#999999" points="617.75,-140 524.75,-140 524.75,-121 617.75,-121 617.75,-140"/>
<text text-anchor="middle" x="571.25" y="-128" font-family="Helvetica,sans-Serif" font-size="10.00">unordered_map</text>
</a>
</g>
</g>
<!-- Node1&#45;&gt;Node15 -->
<g id="edge18_Node000001_Node000015" class="edge">
<title>Node1&#45;&gt;Node15</title>
<g id="a_edge18_Node000001_Node000015"><a xlink:title=" ">
<path fill="none" stroke="#63b8ff" d="M349.15,-181.46C405.69,-168.74 477.28,-152.64 523.66,-142.2"/>
<polygon fill="#63b8ff" stroke="#63b8ff" points="524.46,-145.61 533.44,-140 522.92,-138.78 524.46,-145.61"/>
</a>
</g>
</g>
<!-- Node2&#45;&gt;Node3 -->
<g id="edge2_Node000002_Node000003" class="edge">
<title>Node2&#45;&gt;Node3</title>
<g id="a_edge2_Node000002_Node000003"><a xlink:title=" ">
<path fill="none" stroke="#63b8ff" d="M115.99,-120.98C101.12,-112.69 78.27,-99.94 60.84,-90.22"/>
<polygon fill="#63b8ff" stroke="#63b8ff" points="62.23,-86.99 51.79,-85.17 58.82,-93.1 62.23,-86.99"/>
</a>
</g>
</g>
<!-- Node2&#45;&gt;Node4 -->
<g id="edge3_Node000002_Node000004" class="edge">
<title>Node2&#45;&gt;Node4</title>
<g id="a_edge3_Node000002_Node000004"><a xlink:title=" ">
<path fill="none" stroke="#63b8ff" d="M126.11,-120.89C121.04,-112.1 113.32,-97.96 108.25,-85 101.75,-68.38 96.57,-48.7 93.26,-34.61"/>
<polygon fill="#63b8ff" stroke="#63b8ff" points="96.64,-33.67 91.03,-24.68 89.81,-35.21 96.64,-33.67"/>
</a>
</g>
</g>
<!-- Node5 -->
<g id="Node000005" class="node">
<title>Node5</title>
<g id="a_Node000005"><a xlink:title=" ">
<polygon fill="#e0e0e0" stroke="#999999" points="161.25,-85 117.25,-85 117.25,-66 161.25,-66 161.25,-85"/>
<text text-anchor="middle" x="139.25" y="-73" font-family="Helvetica,sans-Serif" font-size="10.00">limits</text>
</a>
</g>
</g>
<!-- Node2&#45;&gt;Node5 -->
<g id="edge4_Node000002_Node000005" class="edge">
<title>Node2&#45;&gt;Node5</title>
<g id="a_edge4_Node000002_Node000005"><a xlink:title=" ">
<path fill="none" stroke="#63b8ff" d="M132.57,-120.75C133.62,-113.8 135.12,-103.85 136.44,-95.13"/>
<polygon fill="#63b8ff" stroke="#63b8ff" points="139.92,-95.5 137.96,-85.09 133,-94.45 139.92,-95.5"/>
</a>
</g>
</g>
<!-- Node2&#45;&gt;Node6 -->
<g id="edge5_Node000002_Node000006" class="edge">
<title>Node2&#45;&gt;Node6</title>
<g id="a_edge5_Node000002_Node000006"><a xlink:title=" ">
<path fill="none" stroke="#63b8ff" d="M174.63,-120.98C221.63,-111.76 296.68,-97.03 347.41,-87.07"/>
<polygon fill="#63b8ff" stroke="#63b8ff" points="348.39,-90.44 357.53,-85.08 347.04,-83.57 348.39,-90.44"/>
</a>
</g>
</g>
<!-- Node10 -->
<g id="Node000010" class="node">
<title>Node10</title>
<g id="a_Node000010"><a xlink:title=" ">
<polygon fill="#e0e0e0" stroke="#999999" points="336.75,-85 179.75,-85 179.75,-66 336.75,-66 336.75,-85"/>
<text text-anchor="middle" x="258.25" y="-73" font-family="Helvetica,sans-Serif" font-size="10.00">interfaces/logger_interface.h</text>
</a>
</g>
</g>
<!-- Node2&#45;&gt;Node10 -->
<g id="edge10_Node000002_Node000010" class="edge">
<title>Node2&#45;&gt;Node10</title>
<g id="a_edge10_Node000002_Node000010"><a xlink:title=" ">
<path fill="none" stroke="#63b8ff" d="M151.66,-120.98C172.27,-112.38 204.36,-98.99 227.95,-89.15"/>
<polygon fill="#63b8ff" stroke="#63b8ff" points="229.6,-92.25 237.48,-85.17 226.9,-85.79 229.6,-92.25"/>
</a>
</g>
</g>
<!-- Node6&#45;&gt;Node4 -->
<g id="edge6_Node000006_Node000004" class="edge">
<title>Node6&#45;&gt;Node4</title>
<g id="a_edge6_Node000006_Node000004"><a xlink:title=" ">
<path fill="none" stroke="#63b8ff" d="M355.88,-65.99C292.06,-54.03 177.32,-32.51 121.51,-22.05"/>
<polygon fill="#63b8ff" stroke="#63b8ff" points="121.95,-18.57 111.48,-20.17 120.66,-25.45 121.95,-18.57"/>
</a>
</g>
</g>
<!-- Node7 -->
<g id="Node000007" class="node">
<title>Node7</title>
<g id="a_Node000007"><a xlink:title=" ">
<polygon fill="#e0e0e0" stroke="#999999" points="548.75,-24.5 483.75,-24.5 483.75,-5.5 548.75,-5.5 548.75,-24.5"/>
<text text-anchor="middle" x="516.25" y="-12.5" font-family="Helvetica,sans-Serif" font-size="10.00">stdexcept</text>
</a>
</g>
</g>
<!-- Node6&#45;&gt;Node7 -->
<g id="edge7_Node000006_Node000007" class="edge">
<title>Node6&#45;&gt;Node7</title>
<g id="a_edge7_Node000006_Node000007"><a xlink:title=" ">
<path fill="none" stroke="#63b8ff" d="M418.22,-65.87C437.16,-56.23 468.04,-40.53 490.08,-29.31"/>
<polygon fill="#63b8ff" stroke="#63b8ff" points="491.89,-32.32 499.21,-24.67 488.71,-26.08 491.89,-32.32"/>
</a>
</g>
</g>
<!-- Node8 -->
<g id="Node000008" class="node">
<title>Node8</title>
<g id="a_Node000008"><a xlink:title=" ">
<polygon fill="#e0e0e0" stroke="#999999" points="318.75,-24.5 273.75,-24.5 273.75,-5.5 318.75,-5.5 318.75,-24.5"/>
<text text-anchor="middle" x="296.25" y="-12.5" font-family="Helvetica,sans-Serif" font-size="10.00">utility</text>
</a>
</g>
</g>
<!-- Node6&#45;&gt;Node8 -->
<g id="edge8_Node000006_Node000008" class="edge">
<title>Node6&#45;&gt;Node8</title>
<g id="a_edge8_Node000006_Node000008"><a xlink:title=" ">
<path fill="none" stroke="#63b8ff" d="M385.76,-65.87C368.62,-56.32 340.78,-40.81 320.69,-29.62"/>
<polygon fill="#63b8ff" stroke="#63b8ff" points="322.25,-26.48 311.81,-24.67 318.84,-32.59 322.25,-26.48"/>
</a>
</g>
</g>
<!-- Node9 -->
<g id="Node000009" class="node">
<title>Node9</title>
<g id="a_Node000009"><a xlink:title=" ">
<polygon fill="#e0e0e0" stroke="#999999" points="465.25,-30 337.25,-30 337.25,0 465.25,0 465.25,-30"/>
<text text-anchor="start" x="345.25" y="-18" font-family="Helvetica,sans-Serif" font-size="10.00">thread_base/sync/error</text>
<text text-anchor="middle" x="401.25" y="-7" font-family="Helvetica,sans-Serif" font-size="10.00">_handling.h</text>
</a>
</g>
</g>
<!-- Node6&#45;&gt;Node9 -->
<g id="edge9_Node000006_Node000009" class="edge">
<title>Node6&#45;&gt;Node9</title>
<g id="a_edge9_Node000006_Node000009"><a xlink:title=" ">
<path fill="none" stroke="#63b8ff" d="M401.25,-65.87C401.25,-59.11 401.25,-49.35 401.25,-40.26"/>
<polygon fill="#63b8ff" stroke="#63b8ff" points="404.75,-40.11 401.25,-30.11 397.75,-40.11 404.75,-40.11"/>
</a>
</g>
</g>
</g>
</svg>
