<?xml version="1.0" encoding="UTF-8" standalone="no"?>
<!DOCTYPE svg PUBLIC "-//W3C//DTD SVG 1.1//EN"
 "http://www.w3.org/Graphics/SVG/1.1/DTD/svg11.dtd">
<!-- Generated by graphviz version 2.43.0 (0)
 -->
<!-- Title: console_writer.h Pages: 1 -->
<svg width="248pt" height="192pt"
 viewBox="0.00 0.00 247.78 192.00" xmlns="http://www.w3.org/2000/svg" xmlns:xlink="http://www.w3.org/1999/xlink">
<g id="graph0" class="graph" transform="scale(1 1) rotate(0) translate(4 188)">
<title>console_writer.h</title>
<!-- Node1 -->
<g id="Node000001" class="node">
<title>Node1</title>
<g id="a_Node000001"><a xlink:title=" ">
<polygon fill="#999999" stroke="#666666" points="223.78,-184 127.78,-184 127.78,-165 223.78,-165 223.78,-184"/>
<text text-anchor="middle" x="175.78" y="-172" font-family="Helvetica,sans-Serif" font-size="10.00">console_writer.h</text>
</a>
</g>
</g>
<!-- Node2 -->
<g id="Node000002" class="node">
<title>Node2</title>
<g id="a_Node000002"><a xlink:href="base__writer_8h.html" target="_top" xlink:title=" ">
<polygon fill="white" stroke="#666666" points="124.78,-129 42.78,-129 42.78,-110 124.78,-110 124.78,-129"/>
<text text-anchor="middle" x="83.78" y="-117" font-family="Helvetica,sans-Serif" font-size="10.00">base_writer.h</text>
</a>
</g>
</g>
<!-- Node1&#45;&gt;Node2 -->
<g id="edge1_Node000001_Node000002" class="edge">
<title>Node1&#45;&gt;Node2</title>
<g id="a_edge1_Node000001_Node000002"><a xlink:title=" ">
<path fill="none" stroke="#63b8ff" d="M161,-164.98C146.6,-156.69 124.47,-143.94 107.58,-134.22"/>
<polygon fill="#63b8ff" stroke="#63b8ff" points="109.24,-131.13 98.83,-129.17 105.75,-137.19 109.24,-131.13"/>
</a>
</g>
</g>
<!-- Node7 -->
<g id="Node000007" class="node">
<title>Node7</title>
<g id="a_Node000007"><a xlink:title=" ">
<polygon fill="#e0e0e0" stroke="#999999" points="239.78,-19 191.78,-19 191.78,0 239.78,0 239.78,-19"/>
<text text-anchor="middle" x="215.78" y="-7" font-family="Helvetica,sans-Serif" font-size="10.00">mutex</text>
</a>
</g>
</g>
<!-- Node1&#45;&gt;Node7 -->
<g id="edge8_Node000001_Node000007" class="edge">
<title>Node1&#45;&gt;Node7</title>
<g id="a_edge8_Node000001_Node000007"><a xlink:title=" ">
<path fill="none" stroke="#63b8ff" d="M178.51,-164.78C183.84,-147.56 195.82,-107.89 203.78,-74 207.27,-59.11 210.45,-42.08 212.65,-29.41"/>
<polygon fill="#63b8ff" stroke="#63b8ff" points="216.16,-29.62 214.38,-19.18 209.26,-28.45 216.16,-29.62"/>
</a>
</g>
</g>
<!-- Node3 -->
<g id="Node000003" class="node">
<title>Node3</title>
<g id="a_Node000003"><a xlink:title=" ">
<polygon fill="#e0e0e0" stroke="#999999" points="48.78,-19 4.78,-19 4.78,0 48.78,0 48.78,-19"/>
<text text-anchor="middle" x="26.78" y="-7" font-family="Helvetica,sans-Serif" font-size="10.00">string</text>
</a>
</g>
</g>
<!-- Node2&#45;&gt;Node3 -->
<g id="edge2_Node000002_Node000003" class="edge">
<title>Node2&#45;&gt;Node3</title>
<g id="a_edge2_Node000002_Node000003"><a xlink:title=" ">
<path fill="none" stroke="#63b8ff" d="M52.73,-109.87C35.03,-103.18 14.33,-91.95 3.78,-74 -4.92,-59.22 3.83,-40.6 12.93,-27.36"/>
<polygon fill="#63b8ff" stroke="#63b8ff" points="15.87,-29.26 19.07,-19.16 10.27,-25.06 15.87,-29.26"/>
</a>
</g>
</g>
<!-- Node4 -->
<g id="Node000004" class="node">
<title>Node4</title>
<g id="a_Node000004"><a xlink:title=" ">
<polygon fill="#e0e0e0" stroke="#999999" points="62.78,-74 12.78,-74 12.78,-55 62.78,-55 62.78,-74"/>
<text text-anchor="middle" x="37.78" y="-62" font-family="Helvetica,sans-Serif" font-size="10.00">chrono</text>
</a>
</g>
</g>
<!-- Node2&#45;&gt;Node4 -->
<g id="edge3_Node000002_Node000004" class="edge">
<title>Node2&#45;&gt;Node4</title>
<g id="a_edge3_Node000002_Node000004"><a xlink:title=" ">
<path fill="none" stroke="#63b8ff" d="M76.18,-109.75C69.62,-102.18 59.95,-91.05 51.96,-81.84"/>
<polygon fill="#63b8ff" stroke="#63b8ff" points="54.43,-79.35 45.23,-74.09 49.14,-83.94 54.43,-79.35"/>
</a>
</g>
</g>
<!-- Node5 -->
<g id="Node000005" class="node">
<title>Node5</title>
<g id="a_Node000005"><a xlink:href="logger__interface_8h.html" target="_top" xlink:title=" ">
<polygon fill="white" stroke="#666666" points="194.78,-74 80.78,-74 80.78,-55 194.78,-55 194.78,-74"/>
<text text-anchor="middle" x="137.78" y="-62" font-family="Helvetica,sans-Serif" font-size="10.00">../logger_interface.h</text>
</a>
</g>
</g>
<!-- Node2&#45;&gt;Node5 -->
<g id="edge4_Node000002_Node000005" class="edge">
<title>Node2&#45;&gt;Node5</title>
<g id="a_edge4_Node000002_Node000005"><a xlink:title=" ">
<path fill="none" stroke="#63b8ff" d="M92.69,-109.75C100.56,-102.03 112.21,-90.6 121.7,-81.28"/>
<polygon fill="#63b8ff" stroke="#63b8ff" points="124.34,-83.59 129.03,-74.09 119.44,-78.6 124.34,-83.59"/>
</a>
</g>
</g>
<!-- Node5&#45;&gt;Node3 -->
<g id="edge7_Node000005_Node000003" class="edge">
<title>Node5&#45;&gt;Node3</title>
<g id="a_edge7_Node000005_Node000003"><a xlink:title=" ">
<path fill="none" stroke="#63b8ff" d="M119.94,-54.98C102.17,-46.5 74.63,-33.35 54.1,-23.54"/>
<polygon fill="#63b8ff" stroke="#63b8ff" points="55.47,-20.32 44.94,-19.17 52.45,-26.64 55.47,-20.32"/>
</a>
</g>
</g>
<!-- Node6 -->
<g id="Node000006" class="node">
<title>Node6</title>
<g id="a_Node000006"><a xlink:title=" ">
<polygon fill="#e0e0e0" stroke="#999999" points="166.78,-19 108.78,-19 108.78,0 166.78,0 166.78,-19"/>
<text text-anchor="middle" x="137.78" y="-7" font-family="Helvetica,sans-Serif" font-size="10.00">memory</text>
</a>
</g>
</g>
<!-- Node5&#45;&gt;Node6 -->
<g id="edge5_Node000005_Node000006" class="edge">
<title>Node5&#45;&gt;Node6</title>
<g id="a_edge5_Node000005_Node000006"><a xlink:title=" ">
<path fill="none" stroke="#63b8ff" d="M137.78,-54.75C137.78,-47.8 137.78,-37.85 137.78,-29.13"/>
<polygon fill="#63b8ff" stroke="#63b8ff" points="141.28,-29.09 137.78,-19.09 134.28,-29.09 141.28,-29.09"/>
</a>
</g>
</g>
<!-- Node5&#45;&gt;Node7 -->
<g id="edge6_Node000005_Node000007" class="edge">
<title>Node5&#45;&gt;Node7</title>
<g id="a_edge6_Node000005_Node000007"><a xlink:title=" ">
<path fill="none" stroke="#63b8ff" d="M150.31,-54.98C162.18,-46.92 180.24,-34.65 194.39,-25.03"/>
<polygon fill="#63b8ff" stroke="#63b8ff" points="196.71,-27.69 203.02,-19.17 192.78,-21.9 196.71,-27.69"/>
</a>
</g>
</g>
</g>
</svg>
