<?xml version="1.0" encoding="UTF-8" standalone="no"?>
<!DOCTYPE svg PUBLIC "-//W3C//DTD SVG 1.1//EN"
 "http://www.w3.org/Graphics/SVG/1.1/DTD/svg11.dtd">
<!-- Generated by graphviz version 2.43.0 (0)
 -->
<!-- Title: console_writer.cpp Pages: 1 -->
<svg width="549pt" height="313pt"
 viewBox="0.00 0.00 549.00 313.00" xmlns="http://www.w3.org/2000/svg" xmlns:xlink="http://www.w3.org/1999/xlink">
<g id="graph0" class="graph" transform="scale(1 1) rotate(0) translate(4 309)">
<title>console_writer.cpp</title>
<!-- Node1 -->
<g id="Node000001" class="node">
<title>Node1</title>
<g id="a_Node000001"><a xlink:title=" ">
<polygon fill="#999999" stroke="#666666" points="385.5,-305 278.5,-305 278.5,-286 385.5,-286 385.5,-305"/>
<text text-anchor="middle" x="332" y="-293" font-family="Helvetica,sans-Serif" font-size="10.00">console_writer.cpp</text>
</a>
</g>
</g>
<!-- Node2 -->
<g id="Node000002" class="node">
<title>Node2</title>
<g id="a_Node000002"><a xlink:href="console__writer_8h.html" target="_top" xlink:title=" ">
<polygon fill="white" stroke="#666666" points="173,-250 77,-250 77,-231 173,-231 173,-250"/>
<text text-anchor="middle" x="125" y="-238" font-family="Helvetica,sans-Serif" font-size="10.00">console_writer.h</text>
</a>
</g>
</g>
<!-- Node1&#45;&gt;Node2 -->
<g id="edge1_Node000001_Node000002" class="edge">
<title>Node1&#45;&gt;Node2</title>
<g id="a_edge1_Node000001_Node000002"><a xlink:title=" ">
<path fill="none" stroke="#63b8ff" d="M298.74,-285.98C263.39,-276.93 207.33,-262.58 168.49,-252.64"/>
<polygon fill="#63b8ff" stroke="#63b8ff" points="169.07,-249.17 158.52,-250.08 167.34,-255.95 169.07,-249.17"/>
</a>
</g>
</g>
<!-- Node15 -->
<g id="Node000015" class="node">
<title>Node15</title>
<g id="a_Node000015"><a xlink:title=" ">
<polygon fill="#e0e0e0" stroke="#999999" points="251,-250 191,-250 191,-231 251,-231 251,-250"/>
<text text-anchor="middle" x="221" y="-238" font-family="Helvetica,sans-Serif" font-size="10.00">iostream</text>
</a>
</g>
</g>
<!-- Node1&#45;&gt;Node15 -->
<g id="edge24_Node000001_Node000015" class="edge">
<title>Node1&#45;&gt;Node15</title>
<g id="a_edge24_Node000001_Node000015"><a xlink:title=" ">
<path fill="none" stroke="#63b8ff" d="M314.17,-285.98C296.39,-277.5 268.85,-264.35 248.32,-254.54"/>
<polygon fill="#63b8ff" stroke="#63b8ff" points="249.69,-251.32 239.16,-250.17 246.67,-257.64 249.69,-251.32"/>
</a>
</g>
</g>
<!-- Node16 -->
<g id="Node000016" class="node">
<title>Node16</title>
<g id="a_Node000016"><a xlink:title=" ">
<polygon fill="#e0e0e0" stroke="#999999" points="325,-250 269,-250 269,-231 325,-231 325,-250"/>
<text text-anchor="middle" x="297" y="-238" font-family="Helvetica,sans-Serif" font-size="10.00">iomanip</text>
</a>
</g>
</g>
<!-- Node1&#45;&gt;Node16 -->
<g id="edge25_Node000001_Node000016" class="edge">
<title>Node1&#45;&gt;Node16</title>
<g id="a_edge25_Node000001_Node000016"><a xlink:title=" ">
<path fill="none" stroke="#63b8ff" d="M326.22,-285.75C321.38,-278.42 314.32,-267.73 308.36,-258.7"/>
<polygon fill="#63b8ff" stroke="#63b8ff" points="311.1,-256.5 302.67,-250.09 305.26,-260.36 311.1,-256.5"/>
</a>
</g>
</g>
<!-- Node17 -->
<g id="Node000017" class="node">
<title>Node17</title>
<g id="a_Node000017"><a xlink:title=" ">
<polygon fill="#e0e0e0" stroke="#999999" points="392.5,-250 343.5,-250 343.5,-231 392.5,-231 392.5,-250"/>
<text text-anchor="middle" x="368" y="-238" font-family="Helvetica,sans-Serif" font-size="10.00">cstdlib</text>
</a>
</g>
</g>
<!-- Node1&#45;&gt;Node17 -->
<g id="edge26_Node000001_Node000017" class="edge">
<title>Node1&#45;&gt;Node17</title>
<g id="a_edge26_Node000001_Node000017"><a xlink:title=" ">
<path fill="none" stroke="#63b8ff" d="M337.94,-285.75C342.98,-278.34 350.34,-267.5 356.51,-258.41"/>
<polygon fill="#63b8ff" stroke="#63b8ff" points="359.44,-260.33 362.17,-250.09 353.65,-256.39 359.44,-260.33"/>
</a>
</g>
</g>
<!-- Node18 -->
<g id="Node000018" class="node">
<title>Node18</title>
<g id="a_Node000018"><a xlink:title=" ">
<polygon fill="#e0e0e0" stroke="#999999" points="467,-250 411,-250 411,-231 467,-231 467,-250"/>
<text text-anchor="middle" x="439" y="-238" font-family="Helvetica,sans-Serif" font-size="10.00">sstream</text>
</a>
</g>
</g>
<!-- Node1&#45;&gt;Node18 -->
<g id="edge27_Node000001_Node000018" class="edge">
<title>Node1&#45;&gt;Node18</title>
<g id="a_edge27_Node000001_Node000018"><a xlink:title=" ">
<path fill="none" stroke="#63b8ff" d="M349.19,-285.98C366.25,-277.54 392.63,-264.47 412.4,-254.68"/>
<polygon fill="#63b8ff" stroke="#63b8ff" points="414.09,-257.75 421.5,-250.17 410.98,-251.47 414.09,-257.75"/>
</a>
</g>
</g>
<!-- Node19 -->
<g id="Node000019" class="node">
<title>Node19</title>
<g id="a_Node000019"><a xlink:title=" ">
<polygon fill="#e0e0e0" stroke="#999999" points="541,-250 485,-250 485,-231 541,-231 541,-250"/>
<text text-anchor="middle" x="513" y="-238" font-family="Helvetica,sans-Serif" font-size="10.00">unistd.h</text>
</a>
</g>
</g>
<!-- Node1&#45;&gt;Node19 -->
<g id="edge28_Node000001_Node000019" class="edge">
<title>Node1&#45;&gt;Node19</title>
<g id="a_edge28_Node000001_Node000019"><a xlink:title=" ">
<path fill="none" stroke="#63b8ff" d="M361.08,-285.98C391.96,-276.94 440.91,-262.61 474.87,-252.67"/>
<polygon fill="#63b8ff" stroke="#63b8ff" points="476.27,-255.9 484.88,-249.73 474.3,-249.18 476.27,-255.9"/>
</a>
</g>
</g>
<!-- Node3 -->
<g id="Node000003" class="node">
<title>Node3</title>
<g id="a_Node000003"><a xlink:href="base__writer_8h.html" target="_top" xlink:title=" ">
<polygon fill="white" stroke="#666666" points="275,-195 193,-195 193,-176 275,-176 275,-195"/>
<text text-anchor="middle" x="234" y="-183" font-family="Helvetica,sans-Serif" font-size="10.00">base_writer.h</text>
</a>
</g>
</g>
<!-- Node2&#45;&gt;Node3 -->
<g id="edge2_Node000002_Node000003" class="edge">
<title>Node2&#45;&gt;Node3</title>
<g id="a_edge2_Node000002_Node000003"><a xlink:title=" ">
<path fill="none" stroke="#63b8ff" d="M142.51,-230.98C159.97,-222.5 187.01,-209.35 207.17,-199.54"/>
<polygon fill="#63b8ff" stroke="#63b8ff" points="208.71,-202.69 216.17,-195.17 205.64,-196.4 208.71,-202.69"/>
</a>
</g>
</g>
<!-- Node8 -->
<g id="Node000008" class="node">
<title>Node8</title>
<g id="a_Node000008"><a xlink:title=" ">
<polygon fill="#e0e0e0" stroke="#999999" points="48,-19 0,-19 0,0 48,0 48,-19"/>
<text text-anchor="middle" x="24" y="-7" font-family="Helvetica,sans-Serif" font-size="10.00">mutex</text>
</a>
</g>
</g>
<!-- Node2&#45;&gt;Node8 -->
<g id="edge23_Node000002_Node000008" class="edge">
<title>Node2&#45;&gt;Node8</title>
<g id="a_edge23_Node000002_Node000008"><a xlink:title=" ">
<path fill="none" stroke="#63b8ff" d="M119.17,-230.97C103.24,-207.24 58.64,-137.97 36,-74 30.85,-59.44 27.77,-42.17 26.02,-29.33"/>
<polygon fill="#63b8ff" stroke="#63b8ff" points="29.49,-28.85 24.81,-19.35 22.54,-29.7 29.49,-28.85"/>
</a>
</g>
</g>
<!-- Node4 -->
<g id="Node000004" class="node">
<title>Node4</title>
<g id="a_Node000004"><a xlink:title=" ">
<polygon fill="#e0e0e0" stroke="#999999" points="252,-19 208,-19 208,0 252,0 252,-19"/>
<text text-anchor="middle" x="230" y="-7" font-family="Helvetica,sans-Serif" font-size="10.00">string</text>
</a>
</g>
</g>
<!-- Node3&#45;&gt;Node4 -->
<g id="edge3_Node000003_Node000004" class="edge">
<title>Node3&#45;&gt;Node4</title>
<g id="a_edge3_Node000003_Node000004"><a xlink:title=" ">
<path fill="none" stroke="#63b8ff" d="M206.35,-175.98C189.42,-169.17 169.11,-157.76 159,-140 152.4,-128.41 154.93,-122.7 159,-110 169.72,-76.52 196.29,-44.71 213.71,-26.43"/>
<polygon fill="#63b8ff" stroke="#63b8ff" points="216.48,-28.61 220.98,-19.02 211.48,-23.71 216.48,-28.61"/>
</a>
</g>
</g>
<!-- Node5 -->
<g id="Node000005" class="node">
<title>Node5</title>
<g id="a_Node000005"><a xlink:title=" ">
<polygon fill="#e0e0e0" stroke="#999999" points="346,-74 296,-74 296,-55 346,-55 346,-74"/>
<text text-anchor="middle" x="321" y="-62" font-family="Helvetica,sans-Serif" font-size="10.00">chrono</text>
</a>
</g>
</g>
<!-- Node3&#45;&gt;Node5 -->
<g id="edge4_Node000003_Node000005" class="edge">
<title>Node3&#45;&gt;Node5</title>
<g id="a_edge4_Node000003_Node000005"><a xlink:title=" ">
<path fill="none" stroke="#63b8ff" d="M259.62,-175.86C276.37,-168.86 297.25,-157.27 309,-140 320.15,-123.61 322.31,-100.58 322.22,-84.47"/>
<polygon fill="#63b8ff" stroke="#63b8ff" points="325.7,-84.03 321.84,-74.17 318.71,-84.29 325.7,-84.03"/>
</a>
</g>
</g>
<!-- Node6 -->
<g id="Node000006" class="node">
<title>Node6</title>
<g id="a_Node000006"><a xlink:href="logger__interface_8h.html" target="_top" xlink:title=" ">
<polygon fill="white" stroke="#666666" points="159,-74 45,-74 45,-55 159,-55 159,-74"/>
<text text-anchor="middle" x="102" y="-62" font-family="Helvetica,sans-Serif" font-size="10.00">../logger_interface.h</text>
</a>
</g>
</g>
<!-- Node3&#45;&gt;Node6 -->
<g id="edge5_Node000003_Node000006" class="edge">
<title>Node3&#45;&gt;Node6</title>
<g id="a_edge5_Node000003_Node000006"><a xlink:title=" ">
<path fill="none" stroke="#63b8ff" d="M192.95,-176.48C170.4,-170.1 143.54,-158.99 126,-140 111.77,-124.59 105.97,-100.67 103.61,-84.11"/>
<polygon fill="#63b8ff" stroke="#63b8ff" points="107.07,-83.56 102.47,-74.02 100.12,-84.35 107.07,-83.56"/>
</a>
</g>
</g>
<!-- Node9 -->
<g id="Node000009" class="node">
<title>Node9</title>
<g id="a_Node000009"><a xlink:href="error__codes_8h.html" target="_top" xlink:title=" ">
<polygon fill="white" stroke="#666666" points="494,-74 402,-74 402,-55 494,-55 494,-74"/>
<text text-anchor="middle" x="448" y="-62" font-family="Helvetica,sans-Serif" font-size="10.00">../error_codes.h</text>
</a>
</g>
</g>
<!-- Node3&#45;&gt;Node9 -->
<g id="edge9_Node000003_Node000009" class="edge">
<title>Node3&#45;&gt;Node9</title>
<g id="a_edge9_Node000003_Node000009"><a xlink:title=" ">
<path fill="none" stroke="#63b8ff" d="M275.05,-183.56C340.5,-181.11 463.88,-172.22 491,-140 506.6,-121.47 485.18,-96.52 467.38,-80.72"/>
<polygon fill="#63b8ff" stroke="#63b8ff" points="469.51,-77.94 459.61,-74.16 464.99,-83.29 469.51,-77.94"/>
</a>
</g>
</g>
<!-- Node13 -->
<g id="Node000013" class="node">
<title>Node13</title>
<g id="a_Node000013"><a xlink:href="log__writer__interface_8h.html" target="_top" xlink:title=" ">
<polygon fill="white" stroke="#666666" points="482,-140 356,-140 356,-110 482,-110 482,-140"/>
<text text-anchor="start" x="364" y="-128" font-family="Helvetica,sans-Serif" font-size="10.00">../interfaces/log_writer</text>
<text text-anchor="middle" x="419" y="-117" font-family="Helvetica,sans-Serif" font-size="10.00">_interface.h</text>
</a>
</g>
</g>
<!-- Node3&#45;&gt;Node13 -->
<g id="edge14_Node000003_Node000013" class="edge">
<title>Node3&#45;&gt;Node13</title>
<g id="a_edge14_Node000003_Node000013"><a xlink:title=" ">
<path fill="none" stroke="#63b8ff" d="M260.9,-175.99C287.99,-167.43 330.54,-153.97 364.68,-143.18"/>
<polygon fill="#63b8ff" stroke="#63b8ff" points="366.04,-146.42 374.52,-140.06 363.93,-139.74 366.04,-146.42"/>
</a>
</g>
</g>
<!-- Node14 -->
<g id="Node000014" class="node">
<title>Node14</title>
<g id="a_Node000014"><a xlink:href="log__entry_8h.html" target="_top" xlink:title=" ">
<polygon fill="white" stroke="#666666" points="299.5,-134.5 168.5,-134.5 168.5,-115.5 299.5,-115.5 299.5,-134.5"/>
<text text-anchor="middle" x="234" y="-122.5" font-family="Helvetica,sans-Serif" font-size="10.00">../interfaces/log_entry.h</text>
</a>
</g>
</g>
<!-- Node3&#45;&gt;Node14 -->
<g id="edge18_Node000003_Node000014" class="edge">
<title>Node3&#45;&gt;Node14</title>
<g id="a_edge18_Node000003_Node000014"><a xlink:title=" ">
<path fill="none" stroke="#63b8ff" d="M234,-175.87C234,-167.75 234,-155.31 234,-144.89"/>
<polygon fill="#63b8ff" stroke="#63b8ff" points="237.5,-144.67 234,-134.67 230.5,-144.67 237.5,-144.67"/>
</a>
</g>
</g>
<!-- Node6&#45;&gt;Node4 -->
<g id="edge8_Node000006_Node000004" class="edge">
<title>Node6&#45;&gt;Node4</title>
<g id="a_edge8_Node000006_Node000004"><a xlink:title=" ">
<path fill="none" stroke="#63b8ff" d="M122.57,-54.98C143.43,-46.34 175.97,-32.87 199.77,-23.02"/>
<polygon fill="#63b8ff" stroke="#63b8ff" points="201.16,-26.23 209.06,-19.17 198.48,-19.76 201.16,-26.23"/>
</a>
</g>
</g>
<!-- Node7 -->
<g id="Node000007" class="node">
<title>Node7</title>
<g id="a_Node000007"><a xlink:title=" ">
<polygon fill="#e0e0e0" stroke="#999999" points="131,-19 73,-19 73,0 131,0 131,-19"/>
<text text-anchor="middle" x="102" y="-7" font-family="Helvetica,sans-Serif" font-size="10.00">memory</text>
</a>
</g>
</g>
<!-- Node6&#45;&gt;Node7 -->
<g id="edge6_Node000006_Node000007" class="edge">
<title>Node6&#45;&gt;Node7</title>
<g id="a_edge6_Node000006_Node000007"><a xlink:title=" ">
<path fill="none" stroke="#63b8ff" d="M102,-54.75C102,-47.8 102,-37.85 102,-29.13"/>
<polygon fill="#63b8ff" stroke="#63b8ff" points="105.5,-29.09 102,-19.09 98.5,-29.09 105.5,-29.09"/>
</a>
</g>
</g>
<!-- Node6&#45;&gt;Node8 -->
<g id="edge7_Node000006_Node000008" class="edge">
<title>Node6&#45;&gt;Node8</title>
<g id="a_edge7_Node000006_Node000008"><a xlink:title=" ">
<path fill="none" stroke="#63b8ff" d="M89.47,-54.98C77.6,-46.92 59.54,-34.65 45.39,-25.03"/>
<polygon fill="#63b8ff" stroke="#63b8ff" points="47,-21.9 36.76,-19.17 43.06,-27.69 47,-21.9"/>
</a>
</g>
</g>
<!-- Node9&#45;&gt;Node4 -->
<g id="edge10_Node000009_Node000004" class="edge">
<title>Node9&#45;&gt;Node4</title>
<g id="a_edge10_Node000009_Node000004"><a xlink:title=" ">
<path fill="none" stroke="#63b8ff" d="M412.97,-54.98C371.34,-44.86 302.45,-28.11 262.14,-18.31"/>
<polygon fill="#63b8ff" stroke="#63b8ff" points="262.84,-14.88 252.29,-15.92 261.18,-21.68 262.84,-14.88"/>
</a>
</g>
</g>
<!-- Node10 -->
<g id="Node000010" class="node">
<title>Node10</title>
<g id="a_Node000010"><a xlink:title=" ">
<polygon fill="#e0e0e0" stroke="#999999" points="518.5,-19 453.5,-19 453.5,0 518.5,0 518.5,-19"/>
<text text-anchor="middle" x="486" y="-7" font-family="Helvetica,sans-Serif" font-size="10.00">stdexcept</text>
</a>
</g>
</g>
<!-- Node9&#45;&gt;Node10 -->
<g id="edge11_Node000009_Node000010" class="edge">
<title>Node9&#45;&gt;Node10</title>
<g id="a_edge11_Node000009_Node000010"><a xlink:title=" ">
<path fill="none" stroke="#63b8ff" d="M454.27,-54.75C459.59,-47.34 467.36,-36.5 473.88,-27.41"/>
<polygon fill="#63b8ff" stroke="#63b8ff" points="476.86,-29.26 479.84,-19.09 471.17,-25.18 476.86,-29.26"/>
</a>
</g>
</g>
<!-- Node11 -->
<g id="Node000011" class="node">
<title>Node11</title>
<g id="a_Node000011"><a xlink:title=" ">
<polygon fill="#e0e0e0" stroke="#999999" points="365,-19 309,-19 309,0 365,0 365,-19"/>
<text text-anchor="middle" x="337" y="-7" font-family="Helvetica,sans-Serif" font-size="10.00">optional</text>
</a>
</g>
</g>
<!-- Node9&#45;&gt;Node11 -->
<g id="edge12_Node000009_Node000011" class="edge">
<title>Node9&#45;&gt;Node11</title>
<g id="a_edge12_Node000009_Node000011"><a xlink:title=" ">
<path fill="none" stroke="#63b8ff" d="M430.17,-54.98C412.39,-46.5 384.85,-33.35 364.32,-23.54"/>
<polygon fill="#63b8ff" stroke="#63b8ff" points="365.69,-20.32 355.16,-19.17 362.67,-26.64 365.69,-20.32"/>
</a>
</g>
</g>
<!-- Node12 -->
<g id="Node000012" class="node">
<title>Node12</title>
<g id="a_Node000012"><a xlink:title=" ">
<polygon fill="#e0e0e0" stroke="#999999" points="435.5,-19 384.5,-19 384.5,0 435.5,0 435.5,-19"/>
<text text-anchor="middle" x="410" y="-7" font-family="Helvetica,sans-Serif" font-size="10.00">variant</text>
</a>
</g>
</g>
<!-- Node9&#45;&gt;Node12 -->
<g id="edge13_Node000009_Node000012" class="edge">
<title>Node9&#45;&gt;Node12</title>
<g id="a_edge13_Node000009_Node000012"><a xlink:title=" ">
<path fill="none" stroke="#63b8ff" d="M441.73,-54.75C436.41,-47.34 428.64,-36.5 422.12,-27.41"/>
<polygon fill="#63b8ff" stroke="#63b8ff" points="424.83,-25.18 416.16,-19.09 419.14,-29.26 424.83,-25.18"/>
</a>
</g>
</g>
<!-- Node13&#45;&gt;Node4 -->
<g id="edge15_Node000013_Node000004" class="edge">
<title>Node13&#45;&gt;Node4</title>
<g id="a_edge15_Node000013_Node000004"><a xlink:title=" ">
<path fill="none" stroke="#63b8ff" d="M409.23,-109.94C397.84,-94.5 377.65,-69.92 355,-55 326.3,-36.09 288.6,-24.11 262.13,-17.4"/>
<polygon fill="#63b8ff" stroke="#63b8ff" points="262.78,-13.96 252.23,-15.01 261.13,-20.76 262.78,-13.96"/>
</a>
</g>
</g>
<!-- Node13&#45;&gt;Node5 -->
<g id="edge16_Node000013_Node000005" class="edge">
<title>Node13&#45;&gt;Node5</title>
<g id="a_edge16_Node000013_Node000005"><a xlink:title=" ">
<path fill="none" stroke="#63b8ff" d="M395.28,-109.84C379.8,-100.6 359.68,-88.59 344.29,-79.4"/>
<polygon fill="#63b8ff" stroke="#63b8ff" points="345.78,-76.21 335.4,-74.09 342.19,-82.23 345.78,-76.21"/>
</a>
</g>
</g>
<!-- Node13&#45;&gt;Node9 -->
<g id="edge17_Node000013_Node000009" class="edge">
<title>Node13&#45;&gt;Node9</title>
<g id="a_edge17_Node000013_Node000009"><a xlink:title=" ">
<path fill="none" stroke="#63b8ff" d="M426.02,-109.84C429.97,-101.87 434.94,-91.84 439.16,-83.33"/>
<polygon fill="#63b8ff" stroke="#63b8ff" points="442.35,-84.78 443.65,-74.27 436.08,-81.67 442.35,-84.78"/>
</a>
</g>
</g>
<!-- Node14&#45;&gt;Node4 -->
<g id="edge19_Node000014_Node000004" class="edge">
<title>Node14&#45;&gt;Node4</title>
<g id="a_edge19_Node000014_Node000004"><a xlink:title=" ">
<path fill="none" stroke="#63b8ff" d="M233.7,-115.47C233.06,-97.23 231.54,-54.07 230.66,-29.14"/>
<polygon fill="#63b8ff" stroke="#63b8ff" points="234.15,-29 230.3,-19.13 227.16,-29.25 234.15,-29"/>
</a>
</g>
</g>
<!-- Node14&#45;&gt;Node5 -->
<g id="edge20_Node000014_Node000005" class="edge">
<title>Node14&#45;&gt;Node5</title>
<g id="a_edge20_Node000014_Node000005"><a xlink:title=" ">
<path fill="none" stroke="#63b8ff" d="M246.84,-115.37C260.72,-106.04 283.07,-91.01 299.61,-79.88"/>
<polygon fill="#63b8ff" stroke="#63b8ff" points="301.76,-82.65 308.11,-74.17 297.86,-76.84 301.76,-82.65"/>
</a>
</g>
</g>
<!-- Node14&#45;&gt;Node6 -->
<g id="edge22_Node000014_Node000006" class="edge">
<title>Node14&#45;&gt;Node6</title>
<g id="a_edge22_Node000014_Node000006"><a xlink:title=" ">
<path fill="none" stroke="#63b8ff" d="M214.81,-115.49C192.61,-105.66 155.88,-89.38 130.38,-78.08"/>
<polygon fill="#63b8ff" stroke="#63b8ff" points="131.78,-74.87 121.22,-74.02 128.94,-81.27 131.78,-74.87"/>
</a>
</g>
</g>
<!-- Node14&#45;&gt;Node11 -->
<g id="edge21_Node000014_Node000011" class="edge">
<title>Node14&#45;&gt;Node11</title>
<g id="a_edge21_Node000014_Node000011"><a xlink:title=" ">
<path fill="none" stroke="#63b8ff" d="M240.03,-115.08C249.39,-101.51 268.28,-75.13 287,-55 296.67,-44.6 308.5,-33.99 318.23,-25.74"/>
<polygon fill="#63b8ff" stroke="#63b8ff" points="320.68,-28.25 326.13,-19.16 316.2,-22.87 320.68,-28.25"/>
</a>
</g>
</g>
</g>
</svg>
