<?xml version="1.0" encoding="UTF-8" standalone="no"?>
<!DOCTYPE svg PUBLIC "-//W3C//DTD SVG 1.1//EN"
 "http://www.w3.org/Graphics/SVG/1.1/DTD/svg11.dtd">
<!-- Generated by graphviz version 2.43.0 (0)
 -->
<!-- Title: /home/runner/work/logger_system/logger_system/sources/logger/writers/console_writer.cpp Pages: 1 -->
<svg width="842pt" height="346pt"
 viewBox="0.00 0.00 842.00 346.00" xmlns="http://www.w3.org/2000/svg" xmlns:xlink="http://www.w3.org/1999/xlink">
<g id="graph0" class="graph" transform="scale(1 1) rotate(0) translate(4 342)">
<title>/home/runner/work/logger_system/logger_system/sources/logger/writers/console_writer.cpp</title>
<!-- Node1 -->
<g id="Node000001" class="node">
<title>Node1</title>
<g id="a_Node000001"><a xlink:title=" ">
<polygon fill="#999999" stroke="#666666" points="715.5,-338 534.5,-338 534.5,-297 715.5,-297 715.5,-338"/>
<text text-anchor="start" x="542.5" y="-326" font-family="Helvetica,sans-Serif" font-size="10.00">/home/runner/work/logger</text>
<text text-anchor="start" x="542.5" y="-315" font-family="Helvetica,sans-Serif" font-size="10.00">_system/logger_system/sources</text>
<text text-anchor="middle" x="625" y="-304" font-family="Helvetica,sans-Serif" font-size="10.00">/logger/writers/console_writer.cpp</text>
</a>
</g>
</g>
<!-- Node2 -->
<g id="Node000002" class="node">
<title>Node2</title>
<g id="a_Node000002"><a xlink:href="console__writer_8h.html" target="_top" xlink:title=" ">
<polygon fill="white" stroke="#666666" points="466,-261 370,-261 370,-242 466,-242 466,-261"/>
<text text-anchor="middle" x="418" y="-249" font-family="Helvetica,sans-Serif" font-size="10.00">console_writer.h</text>
</a>
</g>
</g>
<!-- Node1&#45;&gt;Node2 -->
<g id="edge1_Node000001_Node000002" class="edge">
<title>Node1&#45;&gt;Node2</title>
<g id="a_edge1_Node000001_Node000002"><a xlink:title=" ">
<path fill="none" stroke="#63b8ff" d="M561.77,-296.95C526.99,-286.2 485.02,-273.22 455.44,-264.07"/>
<polygon fill="#63b8ff" stroke="#63b8ff" points="456.11,-260.62 445.52,-261.01 454.04,-267.31 456.11,-260.62"/>
</a>
</g>
</g>
<!-- Node20 -->
<g id="Node000020" class="node">
<title>Node20</title>
<g id="a_Node000020"><a xlink:title=" ">
<polygon fill="#e0e0e0" stroke="#999999" points="544,-261 484,-261 484,-242 544,-242 544,-261"/>
<text text-anchor="middle" x="514" y="-249" font-family="Helvetica,sans-Serif" font-size="10.00">iostream</text>
</a>
</g>
</g>
<!-- Node1&#45;&gt;Node20 -->
<g id="edge28_Node000001_Node000020" class="edge">
<title>Node1&#45;&gt;Node20</title>
<g id="a_edge28_Node000001_Node000020"><a xlink:title=" ">
<path fill="none" stroke="#63b8ff" d="M591.09,-296.95C573.88,-287.03 553.39,-275.21 537.86,-266.25"/>
<polygon fill="#63b8ff" stroke="#63b8ff" points="539.31,-263.05 528.9,-261.09 535.82,-269.12 539.31,-263.05"/>
</a>
</g>
</g>
<!-- Node21 -->
<g id="Node000021" class="node">
<title>Node21</title>
<g id="a_Node000021"><a xlink:title=" ">
<polygon fill="#e0e0e0" stroke="#999999" points="618,-261 562,-261 562,-242 618,-242 618,-261"/>
<text text-anchor="middle" x="590" y="-249" font-family="Helvetica,sans-Serif" font-size="10.00">iomanip</text>
</a>
</g>
</g>
<!-- Node1&#45;&gt;Node21 -->
<g id="edge29_Node000001_Node000021" class="edge">
<title>Node1&#45;&gt;Node21</title>
<g id="a_edge29_Node000001_Node000021"><a xlink:title=" ">
<path fill="none" stroke="#63b8ff" d="M614.31,-296.95C609.63,-288.39 604.18,-278.42 599.62,-270.1"/>
<polygon fill="#63b8ff" stroke="#63b8ff" points="602.66,-268.35 594.79,-261.26 596.52,-271.71 602.66,-268.35"/>
</a>
</g>
</g>
<!-- Node22 -->
<g id="Node000022" class="node">
<title>Node22</title>
<g id="a_Node000022"><a xlink:title=" ">
<polygon fill="#e0e0e0" stroke="#999999" points="685.5,-261 636.5,-261 636.5,-242 685.5,-242 685.5,-261"/>
<text text-anchor="middle" x="661" y="-249" font-family="Helvetica,sans-Serif" font-size="10.00">cstdlib</text>
</a>
</g>
</g>
<!-- Node1&#45;&gt;Node22 -->
<g id="edge30_Node000001_Node000022" class="edge">
<title>Node1&#45;&gt;Node22</title>
<g id="a_edge30_Node000001_Node000022"><a xlink:title=" ">
<path fill="none" stroke="#63b8ff" d="M636,-296.95C640.81,-288.39 646.42,-278.42 651.1,-270.1"/>
<polygon fill="#63b8ff" stroke="#63b8ff" points="654.22,-271.69 656.07,-261.26 648.12,-268.26 654.22,-271.69"/>
</a>
</g>
</g>
<!-- Node23 -->
<g id="Node000023" class="node">
<title>Node23</title>
<g id="a_Node000023"><a xlink:title=" ">
<polygon fill="#e0e0e0" stroke="#999999" points="760,-261 704,-261 704,-242 760,-242 760,-261"/>
<text text-anchor="middle" x="732" y="-249" font-family="Helvetica,sans-Serif" font-size="10.00">sstream</text>
</a>
</g>
</g>
<!-- Node1&#45;&gt;Node23 -->
<g id="edge31_Node000001_Node000023" class="edge">
<title>Node1&#45;&gt;Node23</title>
<g id="a_edge31_Node000001_Node000023"><a xlink:title=" ">
<path fill="none" stroke="#63b8ff" d="M657.68,-296.95C674.28,-287.03 694.03,-275.21 709,-266.25"/>
<polygon fill="#63b8ff" stroke="#63b8ff" points="710.85,-269.23 717.64,-261.09 707.26,-263.22 710.85,-269.23"/>
</a>
</g>
</g>
<!-- Node24 -->
<g id="Node000024" class="node">
<title>Node24</title>
<g id="a_Node000024"><a xlink:title=" ">
<polygon fill="#e0e0e0" stroke="#999999" points="834,-261 778,-261 778,-242 834,-242 834,-261"/>
<text text-anchor="middle" x="806" y="-249" font-family="Helvetica,sans-Serif" font-size="10.00">unistd.h</text>
</a>
</g>
</g>
<!-- Node1&#45;&gt;Node24 -->
<g id="edge32_Node000001_Node000024" class="edge">
<title>Node1&#45;&gt;Node24</title>
<g id="a_edge32_Node000001_Node000024"><a xlink:title=" ">
<path fill="none" stroke="#63b8ff" d="M680.29,-296.95C710.21,-286.37 746.21,-273.64 772.01,-264.52"/>
<polygon fill="#63b8ff" stroke="#63b8ff" points="773.44,-267.73 781.7,-261.09 771.11,-261.13 773.44,-267.73"/>
</a>
</g>
</g>
<!-- Node3 -->
<g id="Node000003" class="node">
<title>Node3</title>
<g id="a_Node000003"><a xlink:href="base__writer_8h.html" target="_top" xlink:title="Abstract base class for all log output writers.">
<polygon fill="white" stroke="#666666" points="418,-206 336,-206 336,-187 418,-187 418,-206"/>
<text text-anchor="middle" x="377" y="-194" font-family="Helvetica,sans-Serif" font-size="10.00">base_writer.h</text>
</a>
</g>
</g>
<!-- Node2&#45;&gt;Node3 -->
<g id="edge2_Node000002_Node000003" class="edge">
<title>Node2&#45;&gt;Node3</title>
<g id="a_edge2_Node000002_Node000003"><a xlink:title=" ">
<path fill="none" stroke="#63b8ff" d="M411.23,-241.75C405.44,-234.26 396.94,-223.28 389.86,-214.13"/>
<polygon fill="#63b8ff" stroke="#63b8ff" points="392.53,-211.86 383.64,-206.09 386.99,-216.14 392.53,-211.86"/>
</a>
</g>
</g>
<!-- Node19 -->
<g id="Node000019" class="node">
<title>Node19</title>
<g id="a_Node000019"><a xlink:title=" ">
<polygon fill="#e0e0e0" stroke="#999999" points="484,-206 436,-206 436,-187 484,-187 484,-206"/>
<text text-anchor="middle" x="460" y="-194" font-family="Helvetica,sans-Serif" font-size="10.00">mutex</text>
</a>
</g>
</g>
<!-- Node2&#45;&gt;Node19 -->
<g id="edge27_Node000002_Node000019" class="edge">
<title>Node2&#45;&gt;Node19</title>
<g id="a_edge27_Node000002_Node000019"><a xlink:title=" ">
<path fill="none" stroke="#63b8ff" d="M424.94,-241.75C430.87,-234.26 439.57,-223.28 446.82,-214.13"/>
<polygon fill="#63b8ff" stroke="#63b8ff" points="449.73,-216.1 453.19,-206.09 444.24,-211.75 449.73,-216.1"/>
</a>
</g>
</g>
<!-- Node4 -->
<g id="Node000004" class="node">
<title>Node4</title>
<g id="a_Node000004"><a xlink:title=" ">
<polygon fill="#e0e0e0" stroke="#999999" points="286,-24.5 242,-24.5 242,-5.5 286,-5.5 286,-24.5"/>
<text text-anchor="middle" x="264" y="-12.5" font-family="Helvetica,sans-Serif" font-size="10.00">string</text>
</a>
</g>
</g>
<!-- Node3&#45;&gt;Node4 -->
<g id="edge3_Node000003_Node000004" class="edge">
<title>Node3&#45;&gt;Node4</title>
<g id="a_edge3_Node000003_Node000004"><a xlink:title=" ">
<path fill="none" stroke="#63b8ff" d="M335.9,-191.54C309.46,-186.61 276.96,-175.6 260,-151 235.68,-115.72 248.12,-62.02 257.23,-34.17"/>
<polygon fill="#63b8ff" stroke="#63b8ff" points="260.6,-35.15 260.59,-24.55 253.99,-32.84 260.6,-35.15"/>
</a>
</g>
</g>
<!-- Node5 -->
<g id="Node000005" class="node">
<title>Node5</title>
<g id="a_Node000005"><a xlink:title=" ">
<polygon fill="#e0e0e0" stroke="#999999" points="357,-85 307,-85 307,-66 357,-66 357,-85"/>
<text text-anchor="middle" x="332" y="-73" font-family="Helvetica,sans-Serif" font-size="10.00">chrono</text>
</a>
</g>
</g>
<!-- Node3&#45;&gt;Node5 -->
<g id="edge4_Node000003_Node000005" class="edge">
<title>Node3&#45;&gt;Node5</title>
<g id="a_edge4_Node000003_Node000005"><a xlink:title=" ">
<path fill="none" stroke="#63b8ff" d="M384.75,-186.85C396.56,-172.55 416.46,-143.35 404,-121 395.84,-106.37 380.67,-95.94 366.34,-88.88"/>
<polygon fill="#63b8ff" stroke="#63b8ff" points="367.69,-85.64 357.14,-84.71 364.81,-92.02 367.69,-85.64"/>
</a>
</g>
</g>
<!-- Node6 -->
<g id="Node000006" class="node">
<title>Node6</title>
<g id="a_Node000006"><a xlink:title=" ">
<polygon fill="#e0e0e0" stroke="#999999" points="782.5,-85 625.5,-85 625.5,-66 782.5,-66 782.5,-85"/>
<text text-anchor="middle" x="704" y="-73" font-family="Helvetica,sans-Serif" font-size="10.00">interfaces/logger_interface.h</text>
</a>
</g>
</g>
<!-- Node3&#45;&gt;Node6 -->
<g id="edge5_Node000003_Node000006" class="edge">
<title>Node3&#45;&gt;Node6</title>
<g id="a_edge5_Node000003_Node000006"><a xlink:title=" ">
<path fill="none" stroke="#63b8ff" d="M418.41,-187.81C476.31,-176.92 576.17,-157.61 592,-151 628.18,-135.89 665.07,-108.56 686.18,-91.54"/>
<polygon fill="#63b8ff" stroke="#63b8ff" points="688.46,-94.2 693.97,-85.15 684.02,-88.79 688.46,-94.2"/>
</a>
</g>
</g>
<!-- Node7 -->
<g id="Node000007" class="node">
<title>Node7</title>
<g id="a_Node000007"><a xlink:href="error__codes_8h.html" target="_top" xlink:title=" ">
<polygon fill="white" stroke="#666666" points="213,-85 121,-85 121,-66 213,-66 213,-85"/>
<text text-anchor="middle" x="167" y="-73" font-family="Helvetica,sans-Serif" font-size="10.00">../error_codes.h</text>
</a>
</g>
</g>
<!-- Node3&#45;&gt;Node7 -->
<g id="edge6_Node000003_Node000007" class="edge">
<title>Node3&#45;&gt;Node7</title>
<g id="a_edge6_Node000003_Node000007"><a xlink:title=" ">
<path fill="none" stroke="#63b8ff" d="M335.96,-190.14C304.1,-184.45 259.94,-173.08 227,-151 205.09,-136.31 187.27,-111.17 176.9,-94.2"/>
<polygon fill="#63b8ff" stroke="#63b8ff" points="179.76,-92.16 171.68,-85.3 173.72,-95.7 179.76,-92.16"/>
</a>
</g>
</g>
<!-- Node11 -->
<g id="Node000011" class="node">
<title>Node11</title>
<g id="a_Node000011"><a xlink:href="log__writer__interface_8h.html" target="_top" xlink:title=" ">
<polygon fill="white" stroke="#666666" points="395,-151 269,-151 269,-121 395,-121 395,-151"/>
<text text-anchor="start" x="277" y="-139" font-family="Helvetica,sans-Serif" font-size="10.00">../interfaces/log_writer</text>
<text text-anchor="middle" x="332" y="-128" font-family="Helvetica,sans-Serif" font-size="10.00">_interface.h</text>
</a>
</g>
</g>
<!-- Node3&#45;&gt;Node11 -->
<g id="edge11_Node000003_Node000011" class="edge">
<title>Node3&#45;&gt;Node11</title>
<g id="a_edge11_Node000003_Node000011"><a xlink:title=" ">
<path fill="none" stroke="#63b8ff" d="M370.36,-186.87C364.76,-179.59 356.5,-168.85 349.08,-159.2"/>
<polygon fill="#63b8ff" stroke="#63b8ff" points="351.73,-156.91 342.86,-151.11 346.18,-161.17 351.73,-156.91"/>
</a>
</g>
</g>
<!-- Node12 -->
<g id="Node000012" class="node">
<title>Node12</title>
<g id="a_Node000012"><a xlink:href="log__entry_8h.html" target="_top" xlink:title="Data structures for representing log entries and source locations.">
<polygon fill="white" stroke="#666666" points="582.5,-145.5 451.5,-145.5 451.5,-126.5 582.5,-126.5 582.5,-145.5"/>
<text text-anchor="middle" x="517" y="-133.5" font-family="Helvetica,sans-Serif" font-size="10.00">../interfaces/log_entry.h</text>
</a>
</g>
</g>
<!-- Node3&#45;&gt;Node12 -->
<g id="edge15_Node000003_Node000012" class="edge">
<title>Node3&#45;&gt;Node12</title>
<g id="a_edge15_Node000003_Node000012"><a xlink:title=" ">
<path fill="none" stroke="#63b8ff" d="M397.36,-186.99C421,-177.12 460.2,-160.73 487.25,-149.43"/>
<polygon fill="#63b8ff" stroke="#63b8ff" points="488.74,-152.6 496.62,-145.52 486.04,-146.14 488.74,-152.6"/>
</a>
</g>
</g>
<!-- Node7&#45;&gt;Node4 -->
<g id="edge7_Node000007_Node000004" class="edge">
<title>Node7&#45;&gt;Node4</title>
<g id="a_edge7_Node000007_Node000004"><a xlink:title=" ">
<path fill="none" stroke="#63b8ff" d="M181.31,-65.87C197,-56.41 222.4,-41.09 240.91,-29.92"/>
<polygon fill="#63b8ff" stroke="#63b8ff" points="242.87,-32.83 249.63,-24.67 239.26,-26.83 242.87,-32.83"/>
</a>
</g>
</g>
<!-- Node8 -->
<g id="Node000008" class="node">
<title>Node8</title>
<g id="a_Node000008"><a xlink:title=" ">
<polygon fill="#e0e0e0" stroke="#999999" points="211.5,-24.5 146.5,-24.5 146.5,-5.5 211.5,-5.5 211.5,-24.5"/>
<text text-anchor="middle" x="179" y="-12.5" font-family="Helvetica,sans-Serif" font-size="10.00">stdexcept</text>
</a>
</g>
</g>
<!-- Node7&#45;&gt;Node8 -->
<g id="edge8_Node000007_Node000008" class="edge">
<title>Node7&#45;&gt;Node8</title>
<g id="a_edge8_Node000007_Node000008"><a xlink:title=" ">
<path fill="none" stroke="#63b8ff" d="M168.77,-65.87C170.45,-57.66 173.04,-45.04 175.19,-34.55"/>
<polygon fill="#63b8ff" stroke="#63b8ff" points="178.64,-35.17 177.22,-24.67 171.78,-33.76 178.64,-35.17"/>
</a>
</g>
</g>
<!-- Node9 -->
<g id="Node000009" class="node">
<title>Node9</title>
<g id="a_Node000009"><a xlink:title=" ">
<polygon fill="#e0e0e0" stroke="#999999" points="349.5,-24.5 304.5,-24.5 304.5,-5.5 349.5,-5.5 349.5,-24.5"/>
<text text-anchor="middle" x="327" y="-12.5" font-family="Helvetica,sans-Serif" font-size="10.00">utility</text>
</a>
</g>
</g>
<!-- Node7&#45;&gt;Node9 -->
<g id="edge9_Node000007_Node000009" class="edge">
<title>Node7&#45;&gt;Node9</title>
<g id="a_edge9_Node000007_Node000009"><a xlink:title=" ">
<path fill="none" stroke="#63b8ff" d="M193.7,-65.89C219.74,-57.34 260.39,-43.56 295,-30 296.21,-29.53 297.44,-29.04 298.67,-28.53"/>
<polygon fill="#63b8ff" stroke="#63b8ff" points="300.3,-31.65 308.15,-24.54 297.58,-25.2 300.3,-31.65"/>
</a>
</g>
</g>
<!-- Node10 -->
<g id="Node000010" class="node">
<title>Node10</title>
<g id="a_Node000010"><a xlink:title=" ">
<polygon fill="#e0e0e0" stroke="#999999" points="128,-30 0,-30 0,0 128,0 128,-30"/>
<text text-anchor="start" x="8" y="-18" font-family="Helvetica,sans-Serif" font-size="10.00">thread_base/sync/error</text>
<text text-anchor="middle" x="64" y="-7" font-family="Helvetica,sans-Serif" font-size="10.00">_handling.h</text>
</a>
</g>
</g>
<!-- Node7&#45;&gt;Node10 -->
<g id="edge10_Node000007_Node000010" class="edge">
<title>Node7&#45;&gt;Node10</title>
<g id="a_edge10_Node000007_Node000010"><a xlink:title=" ">
<path fill="none" stroke="#63b8ff" d="M151.8,-65.87C137.7,-57.86 116.2,-45.65 98.01,-35.31"/>
<polygon fill="#63b8ff" stroke="#63b8ff" points="99.28,-32.01 88.85,-30.11 95.82,-38.1 99.28,-32.01"/>
</a>
</g>
</g>
<!-- Node11&#45;&gt;Node4 -->
<g id="edge12_Node000011_Node000004" class="edge">
<title>Node11&#45;&gt;Node4</title>
<g id="a_edge12_Node000011_Node000004"><a xlink:title=" ">
<path fill="none" stroke="#63b8ff" d="M321.64,-120.9C314.6,-111.07 305.29,-97.52 298,-85 288.15,-68.1 278.45,-47.95 271.94,-33.81"/>
<polygon fill="#63b8ff" stroke="#63b8ff" points="275.13,-32.36 267.81,-24.7 268.75,-35.25 275.13,-32.36"/>
</a>
</g>
</g>
<!-- Node11&#45;&gt;Node5 -->
<g id="edge13_Node000011_Node000005" class="edge">
<title>Node11&#45;&gt;Node5</title>
<g id="a_edge13_Node000011_Node000005"><a xlink:title=" ">
<path fill="none" stroke="#63b8ff" d="M332,-120.84C332,-113.21 332,-103.7 332,-95.45"/>
<polygon fill="#63b8ff" stroke="#63b8ff" points="335.5,-95.27 332,-85.27 328.5,-95.27 335.5,-95.27"/>
</a>
</g>
</g>
<!-- Node11&#45;&gt;Node7 -->
<g id="edge14_Node000011_Node000007" class="edge">
<title>Node11&#45;&gt;Node7</title>
<g id="a_edge14_Node000011_Node000007"><a xlink:title=" ">
<path fill="none" stroke="#63b8ff" d="M292.48,-120.99C264.58,-111.1 227.59,-97.98 201,-88.56"/>
<polygon fill="#63b8ff" stroke="#63b8ff" points="201.96,-85.18 191.37,-85.14 199.62,-91.78 201.96,-85.18"/>
</a>
</g>
</g>
<!-- Node12&#45;&gt;Node4 -->
<g id="edge16_Node000012_Node000004" class="edge">
<title>Node12&#45;&gt;Node4</title>
<g id="a_edge16_Node000012_Node000004"><a xlink:title=" ">
<path fill="none" stroke="#63b8ff" d="M496.87,-126.43C474.17,-116.69 436.22,-100.17 404,-85 386.92,-76.96 382.92,-74.38 366,-66 340.52,-53.39 311.39,-39.12 290.8,-29.07"/>
<polygon fill="#63b8ff" stroke="#63b8ff" points="292.23,-25.87 281.71,-24.63 289.16,-32.16 292.23,-25.87"/>
</a>
</g>
</g>
<!-- Node12&#45;&gt;Node5 -->
<g id="edge17_Node000012_Node000005" class="edge">
<title>Node12&#45;&gt;Node5</title>
<g id="a_edge17_Node000012_Node000005"><a xlink:title=" ">
<path fill="none" stroke="#63b8ff" d="M490.1,-126.49C457.49,-116.18 402.47,-98.78 366.7,-87.47"/>
<polygon fill="#63b8ff" stroke="#63b8ff" points="367.74,-84.13 357.15,-84.45 365.63,-90.81 367.74,-84.13"/>
</a>
</g>
</g>
<!-- Node12&#45;&gt;Node6 -->
<g id="edge26_Node000012_Node000006" class="edge">
<title>Node12&#45;&gt;Node6</title>
<g id="a_edge26_Node000012_Node000006"><a xlink:title=" ">
<path fill="none" stroke="#63b8ff" d="M544.19,-126.49C576.6,-116.36 630.9,-99.37 667.08,-88.05"/>
<polygon fill="#63b8ff" stroke="#63b8ff" points="668.28,-91.34 676.78,-85.02 666.19,-84.66 668.28,-91.34"/>
</a>
</g>
</g>
<!-- Node13 -->
<g id="Node000013" class="node">
<title>Node13</title>
<g id="a_Node000013"><a xlink:title=" ">
<polygon fill="#e0e0e0" stroke="#999999" points="607,-85 551,-85 551,-66 607,-66 607,-85"/>
<text text-anchor="middle" x="579" y="-73" font-family="Helvetica,sans-Serif" font-size="10.00">optional</text>
</a>
</g>
</g>
<!-- Node12&#45;&gt;Node13 -->
<g id="edge18_Node000012_Node000013" class="edge">
<title>Node12&#45;&gt;Node13</title>
<g id="a_edge18_Node000012_Node000013"><a xlink:title=" ">
<path fill="none" stroke="#63b8ff" d="M526.15,-126.37C535.67,-117.38 550.8,-103.11 562.43,-92.14"/>
<polygon fill="#63b8ff" stroke="#63b8ff" points="564.94,-94.58 569.81,-85.17 560.14,-89.48 564.94,-94.58"/>
</a>
</g>
</g>
<!-- Node14 -->
<g id="Node000014" class="node">
<title>Node14</title>
<g id="a_Node000014"><a xlink:href="small__string_8h.html" target="_top" xlink:title=" ">
<polygon fill="white" stroke="#666666" points="532.5,-85 413.5,-85 413.5,-66 532.5,-66 532.5,-85"/>
<text text-anchor="middle" x="473" y="-73" font-family="Helvetica,sans-Serif" font-size="10.00">../core/small_string.h</text>
</a>
</g>
</g>
<!-- Node12&#45;&gt;Node14 -->
<g id="edge19_Node000012_Node000014" class="edge">
<title>Node12&#45;&gt;Node14</title>
<g id="a_edge19_Node000012_Node000014"><a xlink:title=" ">
<path fill="none" stroke="#63b8ff" d="M510.51,-126.37C504.01,-117.73 493.84,-104.2 485.72,-93.42"/>
<polygon fill="#63b8ff" stroke="#63b8ff" points="488.33,-91.06 479.52,-85.17 482.73,-95.26 488.33,-91.06"/>
</a>
</g>
</g>
<!-- Node14&#45;&gt;Node4 -->
<g id="edge21_Node000014_Node000004" class="edge">
<title>Node14&#45;&gt;Node4</title>
<g id="a_edge21_Node000014_Node000004"><a xlink:title=" ">
<path fill="none" stroke="#63b8ff" d="M429.93,-66C393.49,-58.27 340.13,-45.69 295,-30 293.61,-29.52 292.19,-28.99 290.76,-28.44"/>
<polygon fill="#63b8ff" stroke="#63b8ff" points="292.06,-25.19 281.48,-24.55 289.35,-31.65 292.06,-25.19"/>
</a>
</g>
</g>
<!-- Node14&#45;&gt;Node9 -->
<g id="edge25_Node000014_Node000009" class="edge">
<title>Node14&#45;&gt;Node9</title>
<g id="a_edge25_Node000014_Node000009"><a xlink:title=" ">
<path fill="none" stroke="#63b8ff" d="M450.18,-65.9C427.09,-57.13 390.41,-43 359,-30 357.83,-29.52 356.65,-29.02 355.45,-28.52"/>
<polygon fill="#63b8ff" stroke="#63b8ff" points="356.81,-25.29 346.24,-24.57 354.05,-31.72 356.81,-25.29"/>
</a>
</g>
</g>
<!-- Node15 -->
<g id="Node000015" class="node">
<title>Node15</title>
<g id="a_Node000015"><a xlink:title=" ">
<polygon fill="#e0e0e0" stroke="#999999" points="418,-24.5 368,-24.5 368,-5.5 418,-5.5 418,-24.5"/>
<text text-anchor="middle" x="393" y="-12.5" font-family="Helvetica,sans-Serif" font-size="10.00">cstring</text>
</a>
</g>
</g>
<!-- Node14&#45;&gt;Node15 -->
<g id="edge20_Node000014_Node000015" class="edge">
<title>Node14&#45;&gt;Node15</title>
<g id="a_edge20_Node000014_Node000015"><a xlink:title=" ">
<path fill="none" stroke="#63b8ff" d="M461.2,-65.87C448.55,-56.62 428.26,-41.78 413.09,-30.69"/>
<polygon fill="#63b8ff" stroke="#63b8ff" points="414.99,-27.74 404.85,-24.67 410.86,-33.4 414.99,-27.74"/>
</a>
</g>
</g>
<!-- Node16 -->
<g id="Node000016" class="node">
<title>Node16</title>
<g id="a_Node000016"><a xlink:title=" ">
<polygon fill="#e0e0e0" stroke="#999999" points="509.5,-24.5 436.5,-24.5 436.5,-5.5 509.5,-5.5 509.5,-24.5"/>
<text text-anchor="middle" x="473" y="-12.5" font-family="Helvetica,sans-Serif" font-size="10.00">string_view</text>
</a>
</g>
</g>
<!-- Node14&#45;&gt;Node16 -->
<g id="edge22_Node000014_Node000016" class="edge">
<title>Node14&#45;&gt;Node16</title>
<g id="a_edge22_Node000014_Node000016"><a xlink:title=" ">
<path fill="none" stroke="#63b8ff" d="M473,-65.87C473,-57.75 473,-45.31 473,-34.89"/>
<polygon fill="#63b8ff" stroke="#63b8ff" points="476.5,-34.67 473,-24.67 469.5,-34.67 476.5,-34.67"/>
</a>
</g>
</g>
<!-- Node17 -->
<g id="Node000017" class="node">
<title>Node17</title>
<g id="a_Node000017"><a xlink:title=" ">
<polygon fill="#e0e0e0" stroke="#999999" points="592,-24.5 528,-24.5 528,-5.5 592,-5.5 592,-24.5"/>
<text text-anchor="middle" x="560" y="-12.5" font-family="Helvetica,sans-Serif" font-size="10.00">algorithm</text>
</a>
</g>
</g>
<!-- Node14&#45;&gt;Node17 -->
<g id="edge23_Node000014_Node000017" class="edge">
<title>Node14&#45;&gt;Node17</title>
<g id="a_edge23_Node000014_Node000017"><a xlink:title=" ">
<path fill="none" stroke="#63b8ff" d="M485.84,-65.87C499.72,-56.54 522.07,-41.51 538.61,-30.38"/>
<polygon fill="#63b8ff" stroke="#63b8ff" points="540.76,-33.15 547.11,-24.67 536.86,-27.34 540.76,-33.15"/>
</a>
</g>
</g>
<!-- Node18 -->
<g id="Node000018" class="node">
<title>Node18</title>
<g id="a_Node000018"><a xlink:title=" ">
<polygon fill="#e0e0e0" stroke="#999999" points="668,-24.5 610,-24.5 610,-5.5 668,-5.5 668,-24.5"/>
<text text-anchor="middle" x="639" y="-12.5" font-family="Helvetica,sans-Serif" font-size="10.00">memory</text>
</a>
</g>
</g>
<!-- Node14&#45;&gt;Node18 -->
<g id="edge24_Node000014_Node000018" class="edge">
<title>Node14&#45;&gt;Node18</title>
<g id="a_edge24_Node000014_Node000018"><a xlink:title=" ">
<path fill="none" stroke="#63b8ff" d="M498.07,-65.94C523.91,-57.08 565.34,-42.77 601,-30 602.84,-29.34 604.72,-28.66 606.62,-27.97"/>
<polygon fill="#63b8ff" stroke="#63b8ff" points="607.92,-31.23 616.12,-24.51 605.52,-24.65 607.92,-31.23"/>
</a>
</g>
</g>
</g>
</svg>
