<?xml version="1.0" encoding="UTF-8" standalone="no"?>
<!DOCTYPE svg PUBLIC "-//W3C//DTD SVG 1.1//EN"
 "http://www.w3.org/Graphics/SVG/1.1/DTD/svg11.dtd">
<!-- Generated by graphviz version 2.43.0 (0)
 -->
<!-- Title: console_writer.h Pages: 1 -->
<svg width="504pt" height="258pt"
 viewBox="0.00 0.00 504.44 258.00" xmlns="http://www.w3.org/2000/svg" xmlns:xlink="http://www.w3.org/1999/xlink">
<g id="graph0" class="graph" transform="scale(1 1) rotate(0) translate(4 254)">
<title>console_writer.h</title>
<!-- Node1 -->
<g id="Node000001" class="node">
<title>Node1</title>
<g id="a_Node000001"><a xlink:title=" ">
<polygon fill="#999999" stroke="#666666" points="418.44,-250 322.44,-250 322.44,-231 418.44,-231 418.44,-250"/>
<text text-anchor="middle" x="370.44" y="-238" font-family="Helvetica,sans-Serif" font-size="10.00">console_writer.h</text>
</a>
</g>
</g>
<!-- Node2 -->
<g id="Node000002" class="node">
<title>Node2</title>
<g id="a_Node000002"><a xlink:href="base__writer_8h.html" target="_top" xlink:title=" ">
<polygon fill="white" stroke="#666666" points="303.44,-195 221.44,-195 221.44,-176 303.44,-176 303.44,-195"/>
<text text-anchor="middle" x="262.44" y="-183" font-family="Helvetica,sans-Serif" font-size="10.00">base_writer.h</text>
</a>
</g>
</g>
<!-- Node1&#45;&gt;Node2 -->
<g id="edge1_Node000001_Node000002" class="edge">
<title>Node1&#45;&gt;Node2</title>
<g id="a_edge1_Node000001_Node000002"><a xlink:title=" ">
<path fill="none" stroke="#63b8ff" d="M353.09,-230.98C335.87,-222.54 309.24,-209.47 289.29,-199.68"/>
<polygon fill="#63b8ff" stroke="#63b8ff" points="290.62,-196.43 280.11,-195.17 287.54,-202.72 290.62,-196.43"/>
</a>
</g>
</g>
<!-- Node7 -->
<g id="Node000007" class="node">
<title>Node7</title>
<g id="a_Node000007"><a xlink:title=" ">
<polygon fill="#e0e0e0" stroke="#999999" points="496.44,-19 448.44,-19 448.44,0 496.44,0 496.44,-19"/>
<text text-anchor="middle" x="472.44" y="-7" font-family="Helvetica,sans-Serif" font-size="10.00">mutex</text>
</a>
</g>
</g>
<!-- Node1&#45;&gt;Node7 -->
<g id="edge21_Node000001_Node000007" class="edge">
<title>Node1&#45;&gt;Node7</title>
<g id="a_edge21_Node000001_Node000007"><a xlink:title=" ">
<path fill="none" stroke="#63b8ff" d="M376.33,-230.99C392.46,-207.29 437.6,-138.08 460.44,-74 465.62,-59.45 468.7,-42.19 470.44,-29.33"/>
<polygon fill="#63b8ff" stroke="#63b8ff" points="473.92,-29.7 471.64,-19.35 466.97,-28.86 473.92,-29.7"/>
</a>
</g>
</g>
<!-- Node3 -->
<g id="Node000003" class="node">
<title>Node3</title>
<g id="a_Node000003"><a xlink:title=" ">
<polygon fill="#e0e0e0" stroke="#999999" points="288.44,-19 244.44,-19 244.44,0 288.44,0 288.44,-19"/>
<text text-anchor="middle" x="266.44" y="-7" font-family="Helvetica,sans-Serif" font-size="10.00">string</text>
</a>
</g>
</g>
<!-- Node2&#45;&gt;Node3 -->
<g id="edge2_Node000002_Node000003" class="edge">
<title>Node2&#45;&gt;Node3</title>
<g id="a_edge2_Node000002_Node000003"><a xlink:title=" ">
<path fill="none" stroke="#63b8ff" d="M290.09,-175.98C307.02,-169.17 327.32,-157.76 337.44,-140 344.04,-128.41 341.5,-122.7 337.44,-110 326.72,-76.52 300.15,-44.71 282.73,-26.43"/>
<polygon fill="#63b8ff" stroke="#63b8ff" points="284.96,-23.71 275.45,-19.02 279.96,-28.61 284.96,-23.71"/>
</a>
</g>
</g>
<!-- Node4 -->
<g id="Node000004" class="node">
<title>Node4</title>
<g id="a_Node000004"><a xlink:title=" ">
<polygon fill="#e0e0e0" stroke="#999999" points="200.44,-74 150.44,-74 150.44,-55 200.44,-55 200.44,-74"/>
<text text-anchor="middle" x="175.44" y="-62" font-family="Helvetica,sans-Serif" font-size="10.00">chrono</text>
</a>
</g>
</g>
<!-- Node2&#45;&gt;Node4 -->
<g id="edge3_Node000002_Node000004" class="edge">
<title>Node2&#45;&gt;Node4</title>
<g id="a_edge3_Node000002_Node000004"><a xlink:title=" ">
<path fill="none" stroke="#63b8ff" d="M237.58,-175.88C221.03,-168.83 200.22,-157.19 188.44,-140 177.21,-123.62 174.71,-100.58 174.55,-84.48"/>
<polygon fill="#63b8ff" stroke="#63b8ff" points="178.05,-84.23 174.75,-74.17 171.05,-84.1 178.05,-84.23"/>
</a>
</g>
</g>
<!-- Node5 -->
<g id="Node000005" class="node">
<title>Node5</title>
<g id="a_Node000005"><a xlink:href="logger__interface_8h.html" target="_top" xlink:title=" ">
<polygon fill="white" stroke="#666666" points="451.44,-74 337.44,-74 337.44,-55 451.44,-55 451.44,-74"/>
<text text-anchor="middle" x="394.44" y="-62" font-family="Helvetica,sans-Serif" font-size="10.00">../logger_interface.h</text>
</a>
</g>
</g>
<!-- Node2&#45;&gt;Node5 -->
<g id="edge4_Node000002_Node000005" class="edge">
<title>Node2&#45;&gt;Node5</title>
<g id="a_edge4_Node000002_Node000005"><a xlink:title=" ">
<path fill="none" stroke="#63b8ff" d="M303.49,-176.48C326.03,-170.1 352.89,-158.99 370.44,-140 384.67,-124.59 390.47,-100.67 392.82,-84.11"/>
<polygon fill="#63b8ff" stroke="#63b8ff" points="396.32,-84.35 393.97,-74.02 389.36,-83.56 396.32,-84.35"/>
</a>
</g>
</g>
<!-- Node8 -->
<g id="Node000008" class="node">
<title>Node8</title>
<g id="a_Node000008"><a xlink:href="error__codes_8h.html" target="_top" xlink:title=" ">
<polygon fill="white" stroke="#666666" points="94.44,-74 2.44,-74 2.44,-55 94.44,-55 94.44,-74"/>
<text text-anchor="middle" x="48.44" y="-62" font-family="Helvetica,sans-Serif" font-size="10.00">../error_codes.h</text>
</a>
</g>
</g>
<!-- Node2&#45;&gt;Node8 -->
<g id="edge8_Node000002_Node000008" class="edge">
<title>Node2&#45;&gt;Node8</title>
<g id="a_edge8_Node000002_Node000008"><a xlink:title=" ">
<path fill="none" stroke="#63b8ff" d="M221.38,-183.56C155.94,-181.11 32.56,-172.22 5.44,-140 -10.16,-121.47 11.26,-96.52 29.06,-80.72"/>
<polygon fill="#63b8ff" stroke="#63b8ff" points="31.44,-83.29 36.83,-74.16 26.93,-77.94 31.44,-83.29"/>
</a>
</g>
</g>
<!-- Node11 -->
<g id="Node000011" class="node">
<title>Node11</title>
<g id="a_Node000011"><a xlink:href="log__writer__interface_8h.html" target="_top" xlink:title=" ">
<polygon fill="white" stroke="#666666" points="140.44,-140 14.44,-140 14.44,-110 140.44,-110 140.44,-140"/>
<text text-anchor="start" x="22.44" y="-128" font-family="Helvetica,sans-Serif" font-size="10.00">../interfaces/log_writer</text>
<text text-anchor="middle" x="77.44" y="-117" font-family="Helvetica,sans-Serif" font-size="10.00">_interface.h</text>
</a>
</g>
</g>
<!-- Node2&#45;&gt;Node11 -->
<g id="edge12_Node000002_Node000011" class="edge">
<title>Node2&#45;&gt;Node11</title>
<g id="a_edge12_Node000002_Node000011"><a xlink:title=" ">
<path fill="none" stroke="#63b8ff" d="M235.54,-175.99C208.45,-167.43 165.89,-153.97 131.76,-143.18"/>
<polygon fill="#63b8ff" stroke="#63b8ff" points="132.5,-139.74 121.91,-140.06 130.39,-146.42 132.5,-139.74"/>
</a>
</g>
</g>
<!-- Node12 -->
<g id="Node000012" class="node">
<title>Node12</title>
<g id="a_Node000012"><a xlink:href="log__entry_8h.html" target="_top" xlink:title=" ">
<polygon fill="white" stroke="#666666" points="327.94,-134.5 196.94,-134.5 196.94,-115.5 327.94,-115.5 327.94,-134.5"/>
<text text-anchor="middle" x="262.44" y="-122.5" font-family="Helvetica,sans-Serif" font-size="10.00">../interfaces/log_entry.h</text>
</a>
</g>
</g>
<!-- Node2&#45;&gt;Node12 -->
<g id="edge16_Node000002_Node000012" class="edge">
<title>Node2&#45;&gt;Node12</title>
<g id="a_edge16_Node000002_Node000012"><a xlink:title=" ">
<path fill="none" stroke="#63b8ff" d="M262.44,-175.87C262.44,-167.75 262.44,-155.31 262.44,-144.89"/>
<polygon fill="#63b8ff" stroke="#63b8ff" points="265.94,-144.67 262.44,-134.67 258.94,-144.67 265.94,-144.67"/>
</a>
</g>
</g>
<!-- Node5&#45;&gt;Node3 -->
<g id="edge7_Node000005_Node000003" class="edge">
<title>Node5&#45;&gt;Node3</title>
<g id="a_edge7_Node000005_Node000003"><a xlink:title=" ">
<path fill="none" stroke="#63b8ff" d="M373.87,-54.98C353,-46.34 320.47,-32.87 296.66,-23.02"/>
<polygon fill="#63b8ff" stroke="#63b8ff" points="297.96,-19.76 287.38,-19.17 295.28,-26.23 297.96,-19.76"/>
</a>
</g>
</g>
<!-- Node6 -->
<g id="Node000006" class="node">
<title>Node6</title>
<g id="a_Node000006"><a xlink:title=" ">
<polygon fill="#e0e0e0" stroke="#999999" points="423.44,-19 365.44,-19 365.44,0 423.44,0 423.44,-19"/>
<text text-anchor="middle" x="394.44" y="-7" font-family="Helvetica,sans-Serif" font-size="10.00">memory</text>
</a>
</g>
</g>
<!-- Node5&#45;&gt;Node6 -->
<g id="edge5_Node000005_Node000006" class="edge">
<title>Node5&#45;&gt;Node6</title>
<g id="a_edge5_Node000005_Node000006"><a xlink:title=" ">
<path fill="none" stroke="#63b8ff" d="M394.44,-54.75C394.44,-47.8 394.44,-37.85 394.44,-29.13"/>
<polygon fill="#63b8ff" stroke="#63b8ff" points="397.94,-29.09 394.44,-19.09 390.94,-29.09 397.94,-29.09"/>
</a>
</g>
</g>
<!-- Node5&#45;&gt;Node7 -->
<g id="edge6_Node000005_Node000007" class="edge">
<title>Node5&#45;&gt;Node7</title>
<g id="a_edge6_Node000005_Node000007"><a xlink:title=" ">
<path fill="none" stroke="#63b8ff" d="M406.97,-54.98C418.84,-46.92 436.9,-34.65 451.05,-25.03"/>
<polygon fill="#63b8ff" stroke="#63b8ff" points="453.37,-27.69 459.68,-19.17 449.44,-21.9 453.37,-27.69"/>
</a>
</g>
</g>
<!-- Node8&#45;&gt;Node3 -->
<g id="edge9_Node000008_Node000003" class="edge">
<title>Node8&#45;&gt;Node3</title>
<g id="a_edge9_Node000008_Node000003"><a xlink:title=" ">
<path fill="none" stroke="#63b8ff" d="M83.46,-54.98C125.09,-44.86 193.98,-28.11 234.3,-18.31"/>
<polygon fill="#63b8ff" stroke="#63b8ff" points="235.26,-21.68 244.15,-15.92 233.6,-14.88 235.26,-21.68"/>
</a>
</g>
</g>
<!-- Node9 -->
<g id="Node000009" class="node">
<title>Node9</title>
<g id="a_Node000009"><a xlink:title=" ">
<polygon fill="#e0e0e0" stroke="#999999" points="187.44,-19 131.44,-19 131.44,0 187.44,0 187.44,-19"/>
<text text-anchor="middle" x="159.44" y="-7" font-family="Helvetica,sans-Serif" font-size="10.00">optional</text>
</a>
</g>
</g>
<!-- Node8&#45;&gt;Node9 -->
<g id="edge10_Node000008_Node000009" class="edge">
<title>Node8&#45;&gt;Node9</title>
<g id="a_edge10_Node000008_Node000009"><a xlink:title=" ">
<path fill="none" stroke="#63b8ff" d="M66.27,-54.98C84.05,-46.5 111.58,-33.35 132.12,-23.54"/>
<polygon fill="#63b8ff" stroke="#63b8ff" points="133.76,-26.64 141.28,-19.17 130.75,-20.32 133.76,-26.64"/>
</a>
</g>
</g>
<!-- Node10 -->
<g id="Node000010" class="node">
<title>Node10</title>
<g id="a_Node000010"><a xlink:title=" ">
<polygon fill="#e0e0e0" stroke="#999999" points="73.94,-19 22.94,-19 22.94,0 73.94,0 73.94,-19"/>
<text text-anchor="middle" x="48.44" y="-7" font-family="Helvetica,sans-Serif" font-size="10.00">variant</text>
</a>
</g>
</g>
<!-- Node8&#45;&gt;Node10 -->
<g id="edge11_Node000008_Node000010" class="edge">
<title>Node8&#45;&gt;Node10</title>
<g id="a_edge11_Node000008_Node000010"><a xlink:title=" ">
<path fill="none" stroke="#63b8ff" d="M48.44,-54.75C48.44,-47.8 48.44,-37.85 48.44,-29.13"/>
<polygon fill="#63b8ff" stroke="#63b8ff" points="51.94,-29.09 48.44,-19.09 44.94,-29.09 51.94,-29.09"/>
</a>
</g>
</g>
<!-- Node11&#45;&gt;Node3 -->
<g id="edge13_Node000011_Node000003" class="edge">
<title>Node11&#45;&gt;Node3</title>
<g id="a_edge13_Node000011_Node000003"><a xlink:title=" ">
<path fill="none" stroke="#63b8ff" d="M87.21,-109.94C98.6,-94.5 118.79,-69.92 141.44,-55 170.14,-36.09 207.84,-24.11 234.31,-17.4"/>
<polygon fill="#63b8ff" stroke="#63b8ff" points="235.31,-20.76 244.2,-15.01 233.66,-13.96 235.31,-20.76"/>
</a>
</g>
</g>
<!-- Node11&#45;&gt;Node4 -->
<g id="edge14_Node000011_Node000004" class="edge">
<title>Node11&#45;&gt;Node4</title>
<g id="a_edge14_Node000011_Node000004"><a xlink:title=" ">
<path fill="none" stroke="#63b8ff" d="M101.16,-109.84C116.64,-100.6 136.76,-88.59 152.15,-79.4"/>
<polygon fill="#63b8ff" stroke="#63b8ff" points="154.25,-82.23 161.04,-74.09 150.66,-76.21 154.25,-82.23"/>
</a>
</g>
</g>
<!-- Node11&#45;&gt;Node8 -->
<g id="edge15_Node000011_Node000008" class="edge">
<title>Node11&#45;&gt;Node8</title>
<g id="a_edge15_Node000011_Node000008"><a xlink:title=" ">
<path fill="none" stroke="#63b8ff" d="M70.42,-109.84C66.47,-101.87 61.49,-91.84 57.28,-83.33"/>
<polygon fill="#63b8ff" stroke="#63b8ff" points="60.36,-81.67 52.78,-74.27 54.09,-84.78 60.36,-81.67"/>
</a>
</g>
</g>
<!-- Node12&#45;&gt;Node3 -->
<g id="edge17_Node000012_Node000003" class="edge">
<title>Node12&#45;&gt;Node3</title>
<g id="a_edge17_Node000012_Node000003"><a xlink:title=" ">
<path fill="none" stroke="#63b8ff" d="M262.74,-115.47C263.38,-97.23 264.9,-54.07 265.78,-29.14"/>
<polygon fill="#63b8ff" stroke="#63b8ff" points="269.28,-29.25 266.13,-19.13 262.28,-29 269.28,-29.25"/>
</a>
</g>
</g>
<!-- Node12&#45;&gt;Node4 -->
<g id="edge18_Node000012_Node000004" class="edge">
<title>Node12&#45;&gt;Node4</title>
<g id="a_edge18_Node000012_Node000004"><a xlink:title=" ">
<path fill="none" stroke="#63b8ff" d="M249.6,-115.37C235.72,-106.04 213.37,-91.01 196.83,-79.88"/>
<polygon fill="#63b8ff" stroke="#63b8ff" points="198.58,-76.84 188.33,-74.17 194.67,-82.65 198.58,-76.84"/>
</a>
</g>
</g>
<!-- Node12&#45;&gt;Node5 -->
<g id="edge20_Node000012_Node000005" class="edge">
<title>Node12&#45;&gt;Node5</title>
<g id="a_edge20_Node000012_Node000005"><a xlink:title=" ">
<path fill="none" stroke="#63b8ff" d="M281.63,-115.49C303.82,-105.66 340.56,-89.38 366.05,-78.08"/>
<polygon fill="#63b8ff" stroke="#63b8ff" points="367.5,-81.27 375.22,-74.02 364.66,-74.87 367.5,-81.27"/>
</a>
</g>
</g>
<!-- Node12&#45;&gt;Node9 -->
<g id="edge19_Node000012_Node000009" class="edge">
<title>Node12&#45;&gt;Node9</title>
<g id="a_edge19_Node000012_Node000009"><a xlink:title=" ">
<path fill="none" stroke="#63b8ff" d="M256.41,-115.08C247.05,-101.51 228.16,-75.13 209.44,-55 199.77,-44.6 187.93,-33.99 178.21,-25.74"/>
<polygon fill="#63b8ff" stroke="#63b8ff" points="180.24,-22.87 170.31,-19.16 175.75,-28.25 180.24,-22.87"/>
</a>
</g>
</g>
</g>
</svg>
