<?xml version="1.0" encoding="UTF-8" standalone="no"?>
<!DOCTYPE svg PUBLIC "-//W3C//DTD SVG 1.1//EN"
 "http://www.w3.org/Graphics/SVG/1.1/DTD/svg11.dtd">
<!-- Generated by graphviz version 2.43.0 (0)
 -->
<!-- Title: console_writer.h Pages: 1 -->
<svg width="727pt" height="258pt"
 viewBox="0.00 0.00 726.50 258.00" xmlns="http://www.w3.org/2000/svg" xmlns:xlink="http://www.w3.org/1999/xlink">
<g id="graph0" class="graph" transform="scale(1 1) rotate(0) translate(4 254)">
<title>console_writer.h</title>
<!-- Node1 -->
<g id="Node000001" class="node">
<title>Node1</title>
<g id="a_Node000001"><a xlink:title=" ">
<polygon fill="#999999" stroke="#666666" points="551.5,-250 455.5,-250 455.5,-231 551.5,-231 551.5,-250"/>
<text text-anchor="middle" x="503.5" y="-238" font-family="Helvetica,sans-Serif" font-size="10.00">console_writer.h</text>
</a>
</g>
</g>
<!-- Node2 -->
<g id="Node000002" class="node">
<title>Node2</title>
<g id="a_Node000002"><a xlink:href="base__writer_8h.html" target="_top" xlink:title=" ">
<polygon fill="white" stroke="#666666" points="373.5,-195 291.5,-195 291.5,-176 373.5,-176 373.5,-195"/>
<text text-anchor="middle" x="332.5" y="-183" font-family="Helvetica,sans-Serif" font-size="10.00">base_writer.h</text>
</a>
</g>
</g>
<!-- Node1&#45;&gt;Node2 -->
<g id="edge1_Node000001_Node000002" class="edge">
<title>Node1&#45;&gt;Node2</title>
<g id="a_edge1_Node000001_Node000002"><a xlink:title=" ">
<path fill="none" stroke="#63b8ff" d="M476.03,-230.98C447.32,-222.09 402.08,-208.07 370.08,-198.15"/>
<polygon fill="#63b8ff" stroke="#63b8ff" points="370.78,-194.7 360.19,-195.08 368.7,-201.39 370.78,-194.7"/>
</a>
</g>
</g>
<!-- Node7 -->
<g id="Node000007" class="node">
<title>Node7</title>
<g id="a_Node000007"><a xlink:title=" ">
<polygon fill="#e0e0e0" stroke="#999999" points="718.5,-19 670.5,-19 670.5,0 718.5,0 718.5,-19"/>
<text text-anchor="middle" x="694.5" y="-7" font-family="Helvetica,sans-Serif" font-size="10.00">mutex</text>
</a>
</g>
</g>
<!-- Node1&#45;&gt;Node7 -->
<g id="edge30_Node000001_Node000007" class="edge">
<title>Node1&#45;&gt;Node7</title>
<g id="a_edge30_Node000001_Node000007"><a xlink:title=" ">
<path fill="none" stroke="#63b8ff" d="M513.28,-230.94C539.48,-207.65 612.51,-140.47 660.5,-74 670.9,-59.6 680.22,-41.63 686.47,-28.49"/>
<polygon fill="#63b8ff" stroke="#63b8ff" points="689.77,-29.69 690.77,-19.14 683.41,-26.76 689.77,-29.69"/>
</a>
</g>
</g>
<!-- Node3 -->
<g id="Node000003" class="node">
<title>Node3</title>
<g id="a_Node000003"><a xlink:title=" ">
<polygon fill="#e0e0e0" stroke="#999999" points="334.5,-19 290.5,-19 290.5,0 334.5,0 334.5,-19"/>
<text text-anchor="middle" x="312.5" y="-7" font-family="Helvetica,sans-Serif" font-size="10.00">string</text>
</a>
</g>
</g>
<!-- Node2&#45;&gt;Node3 -->
<g id="edge2_Node000002_Node000003" class="edge">
<title>Node2&#45;&gt;Node3</title>
<g id="a_edge2_Node000002_Node000003"><a xlink:title=" ">
<path fill="none" stroke="#63b8ff" d="M360.15,-175.98C377.08,-169.17 397.39,-157.76 407.5,-140 414.1,-128.41 412.46,-122.38 407.5,-110 392.69,-73.04 356.88,-42.03 333.71,-24.88"/>
<polygon fill="#63b8ff" stroke="#63b8ff" points="335.68,-21.99 325.51,-19.01 331.6,-27.68 335.68,-21.99"/>
</a>
</g>
</g>
<!-- Node4 -->
<g id="Node000004" class="node">
<title>Node4</title>
<g id="a_Node000004"><a xlink:title=" ">
<polygon fill="#e0e0e0" stroke="#999999" points="263.5,-74 213.5,-74 213.5,-55 263.5,-55 263.5,-74"/>
<text text-anchor="middle" x="238.5" y="-62" font-family="Helvetica,sans-Serif" font-size="10.00">chrono</text>
</a>
</g>
</g>
<!-- Node2&#45;&gt;Node4 -->
<g id="edge3_Node000002_Node000004" class="edge">
<title>Node2&#45;&gt;Node4</title>
<g id="a_edge3_Node000002_Node000004"><a xlink:title=" ">
<path fill="none" stroke="#63b8ff" d="M309.17,-176C292.68,-168.83 271.31,-157 258.5,-140 246.31,-123.82 241.54,-100.75 239.68,-84.58"/>
<polygon fill="#63b8ff" stroke="#63b8ff" points="243.13,-83.88 238.78,-74.22 236.16,-84.49 243.13,-83.88"/>
</a>
</g>
</g>
<!-- Node5 -->
<g id="Node000005" class="node">
<title>Node5</title>
<g id="a_Node000005"><a xlink:href="logger__interface_8h.html" target="_top" xlink:title=" ">
<polygon fill="white" stroke="#666666" points="651.5,-74 537.5,-74 537.5,-55 651.5,-55 651.5,-74"/>
<text text-anchor="middle" x="594.5" y="-62" font-family="Helvetica,sans-Serif" font-size="10.00">../logger_interface.h</text>
</a>
</g>
</g>
<!-- Node2&#45;&gt;Node5 -->
<g id="edge4_Node000002_Node000005" class="edge">
<title>Node2&#45;&gt;Node5</title>
<g id="a_edge4_Node000002_Node000005"><a xlink:title=" ">
<path fill="none" stroke="#63b8ff" d="M354.59,-175.85C376.53,-167.15 411.07,-153.17 440.5,-140 486,-119.64 538.03,-93.96 568.48,-78.68"/>
<polygon fill="#63b8ff" stroke="#63b8ff" points="570.21,-81.73 577.56,-74.1 567.06,-75.47 570.21,-81.73"/>
</a>
</g>
</g>
<!-- Node8 -->
<g id="Node000008" class="node">
<title>Node8</title>
<g id="a_Node000008"><a xlink:href="error__codes_8h.html" target="_top" xlink:title=" ">
<polygon fill="white" stroke="#666666" points="157.5,-74 65.5,-74 65.5,-55 157.5,-55 157.5,-74"/>
<text text-anchor="middle" x="111.5" y="-62" font-family="Helvetica,sans-Serif" font-size="10.00">../error_codes.h</text>
</a>
</g>
</g>
<!-- Node2&#45;&gt;Node8 -->
<g id="edge8_Node000002_Node000008" class="edge">
<title>Node2&#45;&gt;Node8</title>
<g id="a_edge8_Node000002_Node000008"><a xlink:title=" ">
<path fill="none" stroke="#63b8ff" d="M291.45,-183.56C226,-181.11 102.62,-172.22 75.5,-140 60.55,-122.24 78.81,-97.23 94.32,-81.19"/>
<polygon fill="#63b8ff" stroke="#63b8ff" points="96.85,-83.6 101.55,-74.1 91.95,-78.6 96.85,-83.6"/>
</a>
</g>
</g>
<!-- Node13 -->
<g id="Node000013" class="node">
<title>Node13</title>
<g id="a_Node000013"><a xlink:href="log__writer__interface_8h.html" target="_top" xlink:title=" ">
<polygon fill="white" stroke="#666666" points="210.5,-140 84.5,-140 84.5,-110 210.5,-110 210.5,-140"/>
<text text-anchor="start" x="92.5" y="-128" font-family="Helvetica,sans-Serif" font-size="10.00">../interfaces/log_writer</text>
<text text-anchor="middle" x="147.5" y="-117" font-family="Helvetica,sans-Serif" font-size="10.00">_interface.h</text>
</a>
</g>
</g>
<!-- Node2&#45;&gt;Node13 -->
<g id="edge14_Node000002_Node000013" class="edge">
<title>Node2&#45;&gt;Node13</title>
<g id="a_edge14_Node000002_Node000013"><a xlink:title=" ">
<path fill="none" stroke="#63b8ff" d="M305.6,-175.99C278.51,-167.43 235.96,-153.97 201.82,-143.18"/>
<polygon fill="#63b8ff" stroke="#63b8ff" points="202.57,-139.74 191.98,-140.06 200.46,-146.42 202.57,-139.74"/>
</a>
</g>
</g>
<!-- Node14 -->
<g id="Node000014" class="node">
<title>Node14</title>
<g id="a_Node000014"><a xlink:href="log__entry_8h.html" target="_top" xlink:title=" ">
<polygon fill="white" stroke="#666666" points="398,-134.5 267,-134.5 267,-115.5 398,-115.5 398,-134.5"/>
<text text-anchor="middle" x="332.5" y="-122.5" font-family="Helvetica,sans-Serif" font-size="10.00">../interfaces/log_entry.h</text>
</a>
</g>
</g>
<!-- Node2&#45;&gt;Node14 -->
<g id="edge18_Node000002_Node000014" class="edge">
<title>Node2&#45;&gt;Node14</title>
<g id="a_edge18_Node000002_Node000014"><a xlink:title=" ">
<path fill="none" stroke="#63b8ff" d="M332.5,-175.87C332.5,-167.75 332.5,-155.31 332.5,-144.89"/>
<polygon fill="#63b8ff" stroke="#63b8ff" points="336,-144.67 332.5,-134.67 329,-144.67 336,-144.67"/>
</a>
</g>
</g>
<!-- Node5&#45;&gt;Node3 -->
<g id="edge7_Node000005_Node000003" class="edge">
<title>Node5&#45;&gt;Node3</title>
<g id="a_edge7_Node000005_Node000003"><a xlink:title=" ">
<path fill="none" stroke="#63b8ff" d="M537.88,-54.99C489.11,-47.31 416.64,-35.09 344.9,-19.15"/>
<polygon fill="#63b8ff" stroke="#63b8ff" points="345.31,-15.65 334.79,-16.88 343.78,-22.48 345.31,-15.65"/>
</a>
</g>
</g>
<!-- Node6 -->
<g id="Node000006" class="node">
<title>Node6</title>
<g id="a_Node000006"><a xlink:title=" ">
<polygon fill="#e0e0e0" stroke="#999999" points="652.5,-19 594.5,-19 594.5,0 652.5,0 652.5,-19"/>
<text text-anchor="middle" x="623.5" y="-7" font-family="Helvetica,sans-Serif" font-size="10.00">memory</text>
</a>
</g>
</g>
<!-- Node5&#45;&gt;Node6 -->
<g id="edge5_Node000005_Node000006" class="edge">
<title>Node5&#45;&gt;Node6</title>
<g id="a_edge5_Node000005_Node000006"><a xlink:title=" ">
<path fill="none" stroke="#63b8ff" d="M599.29,-54.75C603.26,-47.49 609.03,-36.95 613.93,-27.98"/>
<polygon fill="#63b8ff" stroke="#63b8ff" points="617.07,-29.54 618.8,-19.09 610.93,-26.18 617.07,-29.54"/>
</a>
</g>
</g>
<!-- Node5&#45;&gt;Node7 -->
<g id="edge6_Node000005_Node000007" class="edge">
<title>Node5&#45;&gt;Node7</title>
<g id="a_edge6_Node000005_Node000007"><a xlink:title=" ">
<path fill="none" stroke="#63b8ff" d="M610.57,-54.98C626.36,-46.61 650.72,-33.7 669.13,-23.95"/>
<polygon fill="#63b8ff" stroke="#63b8ff" points="670.94,-26.95 678.14,-19.17 667.67,-20.76 670.94,-26.95"/>
</a>
</g>
</g>
<!-- Node8&#45;&gt;Node3 -->
<g id="edge9_Node000008_Node000003" class="edge">
<title>Node8&#45;&gt;Node3</title>
<g id="a_edge9_Node000008_Node000003"><a xlink:title=" ">
<path fill="none" stroke="#63b8ff" d="M144.44,-55C176.7,-46.65 227.51,-33.42 280.56,-19.23"/>
<polygon fill="#63b8ff" stroke="#63b8ff" points="281.74,-22.54 290.49,-16.57 279.93,-15.78 281.74,-22.54"/>
</a>
</g>
</g>
<!-- Node9 -->
<g id="Node000009" class="node">
<title>Node9</title>
<g id="a_Node000009"><a xlink:title=" ">
<polygon fill="#e0e0e0" stroke="#999999" points="65,-19 0,-19 0,0 65,0 65,-19"/>
<text text-anchor="middle" x="32.5" y="-7" font-family="Helvetica,sans-Serif" font-size="10.00">stdexcept</text>
</a>
</g>
</g>
<!-- Node8&#45;&gt;Node9 -->
<g id="edge10_Node000008_Node000009" class="edge">
<title>Node8&#45;&gt;Node9</title>
<g id="a_edge10_Node000008_Node000009"><a xlink:title=" ">
<path fill="none" stroke="#63b8ff" d="M98.81,-54.98C86.67,-46.84 68.14,-34.41 53.75,-24.76"/>
<polygon fill="#63b8ff" stroke="#63b8ff" points="55.68,-21.84 45.42,-19.17 51.78,-27.65 55.68,-21.84"/>
</a>
</g>
</g>
<!-- Node10 -->
<g id="Node000010" class="node">
<title>Node10</title>
<g id="a_Node000010"><a xlink:title=" ">
<polygon fill="#e0e0e0" stroke="#999999" points="272,-19 227,-19 227,0 272,0 272,-19"/>
<text text-anchor="middle" x="249.5" y="-7" font-family="Helvetica,sans-Serif" font-size="10.00">utility</text>
</a>
</g>
</g>
<!-- Node8&#45;&gt;Node10 -->
<g id="edge11_Node000008_Node000010" class="edge">
<title>Node8&#45;&gt;Node10</title>
<g id="a_edge11_Node000008_Node000010"><a xlink:title=" ">
<path fill="none" stroke="#63b8ff" d="M133.67,-54.98C156.27,-46.3 191.56,-32.75 217.25,-22.88"/>
<polygon fill="#63b8ff" stroke="#63b8ff" points="218.84,-26.02 226.92,-19.17 216.33,-19.49 218.84,-26.02"/>
</a>
</g>
</g>
<!-- Node11 -->
<g id="Node000011" class="node">
<title>Node11</title>
<g id="a_Node000011"><a xlink:title=" ">
<polygon fill="#e0e0e0" stroke="#999999" points="208.5,-19 152.5,-19 152.5,0 208.5,0 208.5,-19"/>
<text text-anchor="middle" x="180.5" y="-7" font-family="Helvetica,sans-Serif" font-size="10.00">optional</text>
</a>
</g>
</g>
<!-- Node8&#45;&gt;Node11 -->
<g id="edge12_Node000008_Node000011" class="edge">
<title>Node8&#45;&gt;Node11</title>
<g id="a_edge12_Node000008_Node000011"><a xlink:title=" ">
<path fill="none" stroke="#63b8ff" d="M122.59,-54.98C132.99,-47 148.76,-34.88 161.22,-25.31"/>
<polygon fill="#63b8ff" stroke="#63b8ff" points="163.41,-28.04 169.21,-19.17 159.15,-22.49 163.41,-28.04"/>
</a>
</g>
</g>
<!-- Node12 -->
<g id="Node000012" class="node">
<title>Node12</title>
<g id="a_Node000012"><a xlink:title=" ">
<polygon fill="#e0e0e0" stroke="#999999" points="134,-19 83,-19 83,0 134,0 134,-19"/>
<text text-anchor="middle" x="108.5" y="-7" font-family="Helvetica,sans-Serif" font-size="10.00">variant</text>
</a>
</g>
</g>
<!-- Node8&#45;&gt;Node12 -->
<g id="edge13_Node000008_Node000012" class="edge">
<title>Node8&#45;&gt;Node12</title>
<g id="a_edge13_Node000008_Node000012"><a xlink:title=" ">
<path fill="none" stroke="#63b8ff" d="M111,-54.75C110.61,-47.8 110.05,-37.85 109.55,-29.13"/>
<polygon fill="#63b8ff" stroke="#63b8ff" points="113.05,-28.88 108.99,-19.09 106.06,-29.27 113.05,-28.88"/>
</a>
</g>
</g>
<!-- Node13&#45;&gt;Node3 -->
<g id="edge15_Node000013_Node000003" class="edge">
<title>Node13&#45;&gt;Node3</title>
<g id="a_edge15_Node000013_Node000003"><a xlink:title=" ">
<path fill="none" stroke="#63b8ff" d="M156.17,-109.81C166.15,-94.48 183.87,-70.22 204.5,-55 217.07,-45.73 253.63,-31.5 280.75,-21.63"/>
<polygon fill="#63b8ff" stroke="#63b8ff" points="282.03,-24.89 290.25,-18.22 279.66,-18.31 282.03,-24.89"/>
</a>
</g>
</g>
<!-- Node13&#45;&gt;Node4 -->
<g id="edge16_Node000013_Node000004" class="edge">
<title>Node13&#45;&gt;Node4</title>
<g id="a_edge16_Node000013_Node000004"><a xlink:title=" ">
<path fill="none" stroke="#63b8ff" d="M169.53,-109.84C183.77,-100.68 202.23,-88.82 216.47,-79.66"/>
<polygon fill="#63b8ff" stroke="#63b8ff" points="218.61,-82.45 225.13,-74.09 214.83,-76.56 218.61,-82.45"/>
</a>
</g>
</g>
<!-- Node13&#45;&gt;Node8 -->
<g id="edge17_Node000013_Node000008" class="edge">
<title>Node13&#45;&gt;Node8</title>
<g id="a_edge17_Node000013_Node000008"><a xlink:title=" ">
<path fill="none" stroke="#63b8ff" d="M138.79,-109.84C133.83,-101.78 127.57,-91.62 122.3,-83.06"/>
<polygon fill="#63b8ff" stroke="#63b8ff" points="125.12,-80.95 116.89,-74.27 119.15,-84.62 125.12,-80.95"/>
</a>
</g>
</g>
<!-- Node14&#45;&gt;Node3 -->
<g id="edge19_Node000014_Node000003" class="edge">
<title>Node14&#45;&gt;Node3</title>
<g id="a_edge19_Node000014_Node000003"><a xlink:title=" ">
<path fill="none" stroke="#63b8ff" d="M331,-115.47C327.78,-97.23 320.18,-54.07 315.79,-29.14"/>
<polygon fill="#63b8ff" stroke="#63b8ff" points="319.2,-28.37 314.02,-19.13 312.31,-29.59 319.2,-28.37"/>
</a>
</g>
</g>
<!-- Node14&#45;&gt;Node4 -->
<g id="edge20_Node000014_Node000004" class="edge">
<title>Node14&#45;&gt;Node4</title>
<g id="a_edge20_Node000014_Node000004"><a xlink:title=" ">
<path fill="none" stroke="#63b8ff" d="M318.63,-115.37C303.5,-105.95 279.04,-90.73 261.12,-79.58"/>
<polygon fill="#63b8ff" stroke="#63b8ff" points="262.77,-76.48 252.43,-74.17 259.07,-82.42 262.77,-76.48"/>
</a>
</g>
</g>
<!-- Node14&#45;&gt;Node5 -->
<g id="edge29_Node000014_Node000005" class="edge">
<title>Node14&#45;&gt;Node5</title>
<g id="a_edge29_Node000014_Node000005"><a xlink:title=" ">
<path fill="none" stroke="#63b8ff" d="M370.6,-115.49C417.07,-105.12 495.68,-87.57 546.31,-76.26"/>
<polygon fill="#63b8ff" stroke="#63b8ff" points="547.36,-79.61 556.36,-74.02 545.83,-72.78 547.36,-79.61"/>
</a>
</g>
</g>
<!-- Node14&#45;&gt;Node11 -->
<g id="edge21_Node000014_Node000011" class="edge">
<title>Node14&#45;&gt;Node11</title>
<g id="a_edge21_Node000014_Node000011"><a xlink:title=" ">
<path fill="none" stroke="#63b8ff" d="M326.76,-115.37C317,-101.23 295.96,-72.93 272.5,-55 254.82,-41.48 232.37,-30.52 214.08,-22.87"/>
<polygon fill="#63b8ff" stroke="#63b8ff" points="215.25,-19.57 204.67,-19.06 212.63,-26.06 215.25,-19.57"/>
</a>
</g>
</g>
<!-- Node15 -->
<g id="Node000015" class="node">
<title>Node15</title>
<g id="a_Node000015"><a xlink:href="small__string_8h.html" target="_top" xlink:title=" ">
<polygon fill="white" stroke="#666666" points="519,-74 400,-74 400,-55 519,-55 519,-74"/>
<text text-anchor="middle" x="459.5" y="-62" font-family="Helvetica,sans-Serif" font-size="10.00">../core/small_string.h</text>
</a>
</g>
</g>
<!-- Node14&#45;&gt;Node15 -->
<g id="edge22_Node000014_Node000015" class="edge">
<title>Node14&#45;&gt;Node15</title>
<g id="a_edge22_Node000014_Node000015"><a xlink:title=" ">
<path fill="none" stroke="#63b8ff" d="M350.97,-115.49C372.22,-105.7 407.35,-89.52 431.87,-78.23"/>
<polygon fill="#63b8ff" stroke="#63b8ff" points="433.39,-81.38 441.01,-74.02 430.46,-75.02 433.39,-81.38"/>
</a>
</g>
</g>
<!-- Node15&#45;&gt;Node3 -->
<g id="edge24_Node000015_Node000003" class="edge">
<title>Node15&#45;&gt;Node3</title>
<g id="a_edge24_Node000015_Node000003"><a xlink:title=" ">
<path fill="none" stroke="#63b8ff" d="M435.88,-54.98C411.02,-46.02 371.73,-31.86 344.19,-21.92"/>
<polygon fill="#63b8ff" stroke="#63b8ff" points="345.21,-18.57 334.62,-18.47 342.84,-25.16 345.21,-18.57"/>
</a>
</g>
</g>
<!-- Node15&#45;&gt;Node6 -->
<g id="edge27_Node000015_Node000006" class="edge">
<title>Node15&#45;&gt;Node6</title>
<g id="a_edge27_Node000015_Node000006"><a xlink:title=" ">
<path fill="none" stroke="#63b8ff" d="M485.85,-54.98C513.26,-46.13 556.39,-32.19 587.06,-22.28"/>
<polygon fill="#63b8ff" stroke="#63b8ff" points="588.5,-25.49 596.94,-19.08 586.35,-18.83 588.5,-25.49"/>
</a>
</g>
</g>
<!-- Node15&#45;&gt;Node10 -->
<g id="edge28_Node000015_Node000010" class="edge">
<title>Node15&#45;&gt;Node10</title>
<g id="a_edge28_Node000015_Node000010"><a xlink:title=" ">
<path fill="none" stroke="#63b8ff" d="M424.67,-54.95C390.79,-46.6 337.62,-33.4 282.21,-19.15"/>
<polygon fill="#63b8ff" stroke="#63b8ff" points="282.77,-15.68 272.21,-16.58 281.02,-22.46 282.77,-15.68"/>
</a>
</g>
</g>
<!-- Node16 -->
<g id="Node000016" class="node">
<title>Node16</title>
<g id="a_Node000016"><a xlink:title=" ">
<polygon fill="#e0e0e0" stroke="#999999" points="484.5,-19 434.5,-19 434.5,0 484.5,0 484.5,-19"/>
<text text-anchor="middle" x="459.5" y="-7" font-family="Helvetica,sans-Serif" font-size="10.00">cstring</text>
</a>
</g>
</g>
<!-- Node15&#45;&gt;Node16 -->
<g id="edge23_Node000015_Node000016" class="edge">
<title>Node15&#45;&gt;Node16</title>
<g id="a_edge23_Node000015_Node000016"><a xlink:title=" ">
<path fill="none" stroke="#63b8ff" d="M459.5,-54.75C459.5,-47.8 459.5,-37.85 459.5,-29.13"/>
<polygon fill="#63b8ff" stroke="#63b8ff" points="463,-29.09 459.5,-19.09 456,-29.09 463,-29.09"/>
</a>
</g>
</g>
<!-- Node17 -->
<g id="Node000017" class="node">
<title>Node17</title>
<g id="a_Node000017"><a xlink:title=" ">
<polygon fill="#e0e0e0" stroke="#999999" points="576,-19 503,-19 503,0 576,0 576,-19"/>
<text text-anchor="middle" x="539.5" y="-7" font-family="Helvetica,sans-Serif" font-size="10.00">string_view</text>
</a>
</g>
</g>
<!-- Node15&#45;&gt;Node17 -->
<g id="edge25_Node000015_Node000017" class="edge">
<title>Node15&#45;&gt;Node17</title>
<g id="a_edge25_Node000015_Node000017"><a xlink:title=" ">
<path fill="none" stroke="#63b8ff" d="M472.35,-54.98C484.64,-46.84 503.41,-34.41 517.98,-24.76"/>
<polygon fill="#63b8ff" stroke="#63b8ff" points="520.01,-27.61 526.41,-19.17 516.14,-21.78 520.01,-27.61"/>
</a>
</g>
</g>
<!-- Node18 -->
<g id="Node000018" class="node">
<title>Node18</title>
<g id="a_Node000018"><a xlink:title=" ">
<polygon fill="#e0e0e0" stroke="#999999" points="416.5,-19 352.5,-19 352.5,0 416.5,0 416.5,-19"/>
<text text-anchor="middle" x="384.5" y="-7" font-family="Helvetica,sans-Serif" font-size="10.00">algorithm</text>
</a>
</g>
</g>
<!-- Node15&#45;&gt;Node18 -->
<g id="edge26_Node000015_Node000018" class="edge">
<title>Node15&#45;&gt;Node18</title>
<g id="a_edge26_Node000015_Node000018"><a xlink:title=" ">
<path fill="none" stroke="#63b8ff" d="M447.45,-54.98C436.04,-46.92 418.67,-34.65 405.07,-25.03"/>
<polygon fill="#63b8ff" stroke="#63b8ff" points="406.96,-22.08 396.77,-19.17 402.92,-27.8 406.96,-22.08"/>
</a>
</g>
</g>
</g>
</svg>
