<?xml version="1.0" encoding="UTF-8" standalone="no"?>
<!DOCTYPE svg PUBLIC "-//W3C//DTD SVG 1.1//EN"
 "http://www.w3.org/Graphics/SVG/1.1/DTD/svg11.dtd">
<!-- Generated by graphviz version 2.43.0 (0)
 -->
<!-- Title: console_writer.cpp Pages: 1 -->
<svg width="480pt" height="247pt"
 viewBox="0.00 0.00 479.88 247.00" xmlns="http://www.w3.org/2000/svg" xmlns:xlink="http://www.w3.org/1999/xlink">
<g id="graph0" class="graph" transform="scale(1 1) rotate(0) translate(4 243)">
<title>console_writer.cpp</title>
<!-- Node1 -->
<g id="Node000001" class="node">
<title>Node1</title>
<g id="a_Node000001"><a xlink:title=" ">
<polygon fill="#999999" stroke="#666666" points="355.38,-239 248.38,-239 248.38,-220 355.38,-220 355.38,-239"/>
<text text-anchor="middle" x="301.88" y="-227" font-family="Helvetica,sans-Serif" font-size="10.00">console_writer.cpp</text>
</a>
</g>
</g>
<!-- Node2 -->
<g id="Node000002" class="node">
<title>Node2</title>
<g id="a_Node000002"><a xlink:href="console__writer_8h.html" target="_top" xlink:title=" ">
<polygon fill="white" stroke="#666666" points="177.88,-184 81.88,-184 81.88,-165 177.88,-165 177.88,-184"/>
<text text-anchor="middle" x="129.88" y="-172" font-family="Helvetica,sans-Serif" font-size="10.00">console_writer.h</text>
</a>
</g>
</g>
<!-- Node1&#45;&gt;Node2 -->
<g id="edge1_Node000001_Node000002" class="edge">
<title>Node1&#45;&gt;Node2</title>
<g id="a_edge1_Node000001_Node000002"><a xlink:title=" ">
<path fill="none" stroke="#63b8ff" d="M274.24,-219.98C245.37,-211.09 199.87,-197.07 167.68,-187.15"/>
<polygon fill="#63b8ff" stroke="#63b8ff" points="168.32,-183.68 157.73,-184.08 166.26,-190.37 168.32,-183.68"/>
</a>
</g>
</g>
<!-- Node9 -->
<g id="Node000009" class="node">
<title>Node9</title>
<g id="a_Node000009"><a xlink:title=" ">
<polygon fill="#e0e0e0" stroke="#999999" points="255.88,-184 195.88,-184 195.88,-165 255.88,-165 255.88,-184"/>
<text text-anchor="middle" x="225.88" y="-172" font-family="Helvetica,sans-Serif" font-size="10.00">iostream</text>
</a>
</g>
</g>
<!-- Node1&#45;&gt;Node9 -->
<g id="edge10_Node000001_Node000009" class="edge">
<title>Node1&#45;&gt;Node9</title>
<g id="a_edge10_Node000001_Node000009"><a xlink:title=" ">
<path fill="none" stroke="#63b8ff" d="M289.67,-219.98C278.1,-211.92 260.5,-199.65 246.72,-190.03"/>
<polygon fill="#63b8ff" stroke="#63b8ff" points="248.52,-187.02 238.31,-184.17 244.51,-192.76 248.52,-187.02"/>
</a>
</g>
</g>
<!-- Node10 -->
<g id="Node000010" class="node">
<title>Node10</title>
<g id="a_Node000010"><a xlink:title=" ">
<polygon fill="#e0e0e0" stroke="#999999" points="329.88,-184 273.88,-184 273.88,-165 329.88,-165 329.88,-184"/>
<text text-anchor="middle" x="301.88" y="-172" font-family="Helvetica,sans-Serif" font-size="10.00">iomanip</text>
</a>
</g>
</g>
<!-- Node1&#45;&gt;Node10 -->
<g id="edge11_Node000001_Node000010" class="edge">
<title>Node1&#45;&gt;Node10</title>
<g id="a_edge11_Node000001_Node000010"><a xlink:title=" ">
<path fill="none" stroke="#63b8ff" d="M301.88,-219.75C301.88,-212.8 301.88,-202.85 301.88,-194.13"/>
<polygon fill="#63b8ff" stroke="#63b8ff" points="305.38,-194.09 301.88,-184.09 298.38,-194.09 305.38,-194.09"/>
</a>
</g>
</g>
<!-- Node11 -->
<g id="Node000011" class="node">
<title>Node11</title>
<g id="a_Node000011"><a xlink:title=" ">
<polygon fill="#e0e0e0" stroke="#999999" points="397.38,-184 348.38,-184 348.38,-165 397.38,-165 397.38,-184"/>
<text text-anchor="middle" x="372.88" y="-172" font-family="Helvetica,sans-Serif" font-size="10.00">cstdlib</text>
</a>
</g>
</g>
<!-- Node1&#45;&gt;Node11 -->
<g id="edge12_Node000001_Node000011" class="edge">
<title>Node1&#45;&gt;Node11</title>
<g id="a_edge12_Node000001_Node000011"><a xlink:title=" ">
<path fill="none" stroke="#63b8ff" d="M313.29,-219.98C323.99,-212 340.22,-199.88 353.04,-190.31"/>
<polygon fill="#63b8ff" stroke="#63b8ff" points="355.34,-192.96 361.26,-184.17 351.16,-187.35 355.34,-192.96"/>
</a>
</g>
</g>
<!-- Node12 -->
<g id="Node000012" class="node">
<title>Node12</title>
<g id="a_Node000012"><a xlink:title=" ">
<polygon fill="#e0e0e0" stroke="#999999" points="471.88,-184 415.88,-184 415.88,-165 471.88,-165 471.88,-184"/>
<text text-anchor="middle" x="443.88" y="-172" font-family="Helvetica,sans-Serif" font-size="10.00">unistd.h</text>
</a>
</g>
</g>
<!-- Node1&#45;&gt;Node12 -->
<g id="edge13_Node000001_Node000012" class="edge">
<title>Node1&#45;&gt;Node12</title>
<g id="a_edge13_Node000001_Node000012"><a xlink:title=" ">
<path fill="none" stroke="#63b8ff" d="M324.69,-219.98C348.05,-211.27 384.58,-197.63 411.05,-187.75"/>
<polygon fill="#63b8ff" stroke="#63b8ff" points="412.5,-190.95 420.65,-184.17 410.06,-184.39 412.5,-190.95"/>
</a>
</g>
</g>
<!-- Node3 -->
<g id="Node000003" class="node">
<title>Node3</title>
<g id="a_Node000003"><a xlink:href="base__writer_8h.html" target="_top" xlink:title=" ">
<polygon fill="white" stroke="#666666" points="128.88,-129 46.88,-129 46.88,-110 128.88,-110 128.88,-129"/>
<text text-anchor="middle" x="87.88" y="-117" font-family="Helvetica,sans-Serif" font-size="10.00">base_writer.h</text>
</a>
</g>
</g>
<!-- Node2&#45;&gt;Node3 -->
<g id="edge2_Node000002_Node000003" class="edge">
<title>Node2&#45;&gt;Node3</title>
<g id="a_edge2_Node000002_Node000003"><a xlink:title=" ">
<path fill="none" stroke="#63b8ff" d="M122.94,-164.75C117.01,-157.26 108.31,-146.28 101.05,-137.13"/>
<polygon fill="#63b8ff" stroke="#63b8ff" points="103.64,-134.75 94.68,-129.09 98.15,-139.1 103.64,-134.75"/>
</a>
</g>
</g>
<!-- Node8 -->
<g id="Node000008" class="node">
<title>Node8</title>
<g id="a_Node000008"><a xlink:title=" ">
<polygon fill="#e0e0e0" stroke="#999999" points="239.88,-19 191.88,-19 191.88,0 239.88,0 239.88,-19"/>
<text text-anchor="middle" x="215.88" y="-7" font-family="Helvetica,sans-Serif" font-size="10.00">mutex</text>
</a>
</g>
</g>
<!-- Node2&#45;&gt;Node8 -->
<g id="edge9_Node000002_Node000008" class="edge">
<title>Node2&#45;&gt;Node8</title>
<g id="a_edge9_Node000002_Node000008"><a xlink:title=" ">
<path fill="none" stroke="#63b8ff" d="M138.58,-164.8C154.3,-148.51 187.37,-111.66 203.88,-74 210.15,-59.69 213.15,-42.17 214.58,-29.16"/>
<polygon fill="#63b8ff" stroke="#63b8ff" points="218.08,-29.35 215.48,-19.08 211.1,-28.73 218.08,-29.35"/>
</a>
</g>
</g>
<!-- Node4 -->
<g id="Node000004" class="node">
<title>Node4</title>
<g id="a_Node000004"><a xlink:title=" ">
<polygon fill="#e0e0e0" stroke="#999999" points="48.88,-19 4.88,-19 4.88,0 48.88,0 48.88,-19"/>
<text text-anchor="middle" x="26.88" y="-7" font-family="Helvetica,sans-Serif" font-size="10.00">string</text>
</a>
</g>
</g>
<!-- Node3&#45;&gt;Node4 -->
<g id="edge3_Node000003_Node000004" class="edge">
<title>Node3&#45;&gt;Node4</title>
<g id="a_edge3_Node000003_Node000004"><a xlink:title=" ">
<path fill="none" stroke="#63b8ff" d="M54.48,-109.98C36.1,-103.4 14.86,-92.24 3.88,-74 -4.96,-59.31 3.8,-40.68 12.95,-27.4"/>
<polygon fill="#63b8ff" stroke="#63b8ff" points="15.91,-29.28 19.12,-19.19 10.32,-25.08 15.91,-29.28"/>
</a>
</g>
</g>
<!-- Node5 -->
<g id="Node000005" class="node">
<title>Node5</title>
<g id="a_Node000005"><a xlink:title=" ">
<polygon fill="#e0e0e0" stroke="#999999" points="62.88,-74 12.88,-74 12.88,-55 62.88,-55 62.88,-74"/>
<text text-anchor="middle" x="37.88" y="-62" font-family="Helvetica,sans-Serif" font-size="10.00">chrono</text>
</a>
</g>
</g>
<!-- Node3&#45;&gt;Node5 -->
<g id="edge4_Node000003_Node000005" class="edge">
<title>Node3&#45;&gt;Node5</title>
<g id="a_edge4_Node000003_Node000005"><a xlink:title=" ">
<path fill="none" stroke="#63b8ff" d="M79.62,-109.75C72.41,-102.11 61.77,-90.82 53.03,-81.56"/>
<polygon fill="#63b8ff" stroke="#63b8ff" points="55.39,-78.96 45.98,-74.09 50.3,-83.76 55.39,-78.96"/>
</a>
</g>
</g>
<!-- Node6 -->
<g id="Node000006" class="node">
<title>Node6</title>
<g id="a_Node000006"><a xlink:href="logger__interface_8h.html" target="_top" xlink:title=" ">
<polygon fill="white" stroke="#666666" points="194.88,-74 80.88,-74 80.88,-55 194.88,-55 194.88,-74"/>
<text text-anchor="middle" x="137.88" y="-62" font-family="Helvetica,sans-Serif" font-size="10.00">../logger_interface.h</text>
</a>
</g>
</g>
<!-- Node3&#45;&gt;Node6 -->
<g id="edge5_Node000003_Node000006" class="edge">
<title>Node3&#45;&gt;Node6</title>
<g id="a_edge5_Node000003_Node000006"><a xlink:title=" ">
<path fill="none" stroke="#63b8ff" d="M96.13,-109.75C103.34,-102.11 113.99,-90.82 122.72,-81.56"/>
<polygon fill="#63b8ff" stroke="#63b8ff" points="125.46,-83.76 129.78,-74.09 120.37,-78.96 125.46,-83.76"/>
</a>
</g>
</g>
<!-- Node6&#45;&gt;Node4 -->
<g id="edge8_Node000006_Node000004" class="edge">
<title>Node6&#45;&gt;Node4</title>
<g id="a_edge8_Node000006_Node000004"><a xlink:title=" ">
<path fill="none" stroke="#63b8ff" d="M120.04,-54.98C102.27,-46.5 74.73,-33.35 54.2,-23.54"/>
<polygon fill="#63b8ff" stroke="#63b8ff" points="55.57,-20.32 45.04,-19.17 52.55,-26.64 55.57,-20.32"/>
</a>
</g>
</g>
<!-- Node7 -->
<g id="Node000007" class="node">
<title>Node7</title>
<g id="a_Node000007"><a xlink:title=" ">
<polygon fill="#e0e0e0" stroke="#999999" points="166.88,-19 108.88,-19 108.88,0 166.88,0 166.88,-19"/>
<text text-anchor="middle" x="137.88" y="-7" font-family="Helvetica,sans-Serif" font-size="10.00">memory</text>
</a>
</g>
</g>
<!-- Node6&#45;&gt;Node7 -->
<g id="edge6_Node000006_Node000007" class="edge">
<title>Node6&#45;&gt;Node7</title>
<g id="a_edge6_Node000006_Node000007"><a xlink:title=" ">
<path fill="none" stroke="#63b8ff" d="M137.88,-54.75C137.88,-47.8 137.88,-37.85 137.88,-29.13"/>
<polygon fill="#63b8ff" stroke="#63b8ff" points="141.38,-29.09 137.88,-19.09 134.38,-29.09 141.38,-29.09"/>
</a>
</g>
</g>
<!-- Node6&#45;&gt;Node8 -->
<g id="edge7_Node000006_Node000008" class="edge">
<title>Node6&#45;&gt;Node8</title>
<g id="a_edge7_Node000006_Node000008"><a xlink:title=" ">
<path fill="none" stroke="#63b8ff" d="M150.41,-54.98C162.28,-46.92 180.34,-34.65 194.49,-25.03"/>
<polygon fill="#63b8ff" stroke="#63b8ff" points="196.81,-27.69 203.12,-19.17 192.88,-21.9 196.81,-27.69"/>
</a>
</g>
</g>
</g>
</svg>
