<?xml version="1.0" encoding="UTF-8" standalone="no"?>
<!DOCTYPE svg PUBLIC "-//W3C//DTD SVG 1.1//EN"
 "http://www.w3.org/Graphics/SVG/1.1/DTD/svg11.dtd">
<!-- Generated by graphviz version 2.43.0 (0)
 -->
<!-- Title: /home/runner/work/logger_system/logger_system/sources/logger/writers/console_writer.h Pages: 1 -->
<svg width="791pt" height="291pt"
 viewBox="0.00 0.00 790.50 291.00" xmlns="http://www.w3.org/2000/svg" xmlns:xlink="http://www.w3.org/1999/xlink">
<g id="graph0" class="graph" transform="scale(1 1) rotate(0) translate(4 287)">
<title>/home/runner/work/logger_system/logger_system/sources/logger/writers/console_writer.h</title>
<!-- Node1 -->
<g id="Node000001" class="node">
<title>Node1</title>
<g id="a_Node000001"><a xlink:title=" ">
<polygon fill="#999999" stroke="#666666" points="504.5,-283 331.5,-283 331.5,-242 504.5,-242 504.5,-283"/>
<text text-anchor="start" x="339.5" y="-271" font-family="Helvetica,sans-Serif" font-size="10.00">/home/runner/work/logger</text>
<text text-anchor="start" x="339.5" y="-260" font-family="Helvetica,sans-Serif" font-size="10.00">_system/logger_system/sources</text>
<text text-anchor="middle" x="418" y="-249" font-family="Helvetica,sans-Serif" font-size="10.00">/logger/writers/console_writer.h</text>
</a>
</g>
</g>
<!-- Node2 -->
<g id="Node000002" class="node">
<title>Node2</title>
<g id="a_Node000002"><a xlink:href="base__writer_8h.html" target="_top" xlink:title="Abstract base class for all log output writers.">
<polygon fill="white" stroke="#666666" points="418,-206 336,-206 336,-187 418,-187 418,-206"/>
<text text-anchor="middle" x="377" y="-194" font-family="Helvetica,sans-Serif" font-size="10.00">base_writer.h</text>
</a>
</g>
</g>
<!-- Node1&#45;&gt;Node2 -->
<g id="edge1_Node000001_Node000002" class="edge">
<title>Node1&#45;&gt;Node2</title>
<g id="a_edge1_Node000001_Node000002"><a xlink:title=" ">
<path fill="none" stroke="#63b8ff" d="M405.48,-241.95C399.93,-233.3 393.47,-223.2 388.1,-214.82"/>
<polygon fill="#63b8ff" stroke="#63b8ff" points="390.95,-212.79 382.61,-206.26 385.06,-216.57 390.95,-212.79"/>
</a>
</g>
</g>
<!-- Node18 -->
<g id="Node000018" class="node">
<title>Node18</title>
<g id="a_Node000018"><a xlink:title=" ">
<polygon fill="#e0e0e0" stroke="#999999" points="484,-206 436,-206 436,-187 484,-187 484,-206"/>
<text text-anchor="middle" x="460" y="-194" font-family="Helvetica,sans-Serif" font-size="10.00">mutex</text>
</a>
</g>
</g>
<!-- Node1&#45;&gt;Node18 -->
<g id="edge26_Node000001_Node000018" class="edge">
<title>Node1&#45;&gt;Node18</title>
<g id="a_edge26_Node000001_Node000018"><a xlink:title=" ">
<path fill="none" stroke="#63b8ff" d="M430.83,-241.95C436.51,-233.3 443.13,-223.2 448.63,-214.82"/>
<polygon fill="#63b8ff" stroke="#63b8ff" points="451.69,-216.54 454.25,-206.26 445.84,-212.7 451.69,-216.54"/>
</a>
</g>
</g>
<!-- Node3 -->
<g id="Node000003" class="node">
<title>Node3</title>
<g id="a_Node000003"><a xlink:title=" ">
<polygon fill="#e0e0e0" stroke="#999999" points="286,-24.5 242,-24.5 242,-5.5 286,-5.5 286,-24.5"/>
<text text-anchor="middle" x="264" y="-12.5" font-family="Helvetica,sans-Serif" font-size="10.00">string</text>
</a>
</g>
</g>
<!-- Node2&#45;&gt;Node3 -->
<g id="edge2_Node000002_Node000003" class="edge">
<title>Node2&#45;&gt;Node3</title>
<g id="a_edge2_Node000002_Node000003"><a xlink:title=" ">
<path fill="none" stroke="#63b8ff" d="M335.9,-191.54C309.46,-186.61 276.96,-175.6 260,-151 235.68,-115.72 248.12,-62.02 257.23,-34.17"/>
<polygon fill="#63b8ff" stroke="#63b8ff" points="260.6,-35.15 260.59,-24.55 253.99,-32.84 260.6,-35.15"/>
</a>
</g>
</g>
<!-- Node4 -->
<g id="Node000004" class="node">
<title>Node4</title>
<g id="a_Node000004"><a xlink:title=" ">
<polygon fill="#e0e0e0" stroke="#999999" points="357,-85 307,-85 307,-66 357,-66 357,-85"/>
<text text-anchor="middle" x="332" y="-73" font-family="Helvetica,sans-Serif" font-size="10.00">chrono</text>
</a>
</g>
</g>
<!-- Node2&#45;&gt;Node4 -->
<g id="edge3_Node000002_Node000004" class="edge">
<title>Node2&#45;&gt;Node4</title>
<g id="a_edge3_Node000002_Node000004"><a xlink:title=" ">
<path fill="none" stroke="#63b8ff" d="M384.75,-186.85C396.56,-172.55 416.46,-143.35 404,-121 395.84,-106.37 380.67,-95.94 366.34,-88.88"/>
<polygon fill="#63b8ff" stroke="#63b8ff" points="367.69,-85.64 357.14,-84.71 364.81,-92.02 367.69,-85.64"/>
</a>
</g>
</g>
<!-- Node5 -->
<g id="Node000005" class="node">
<title>Node5</title>
<g id="a_Node000005"><a xlink:title=" ">
<polygon fill="#e0e0e0" stroke="#999999" points="782.5,-85 625.5,-85 625.5,-66 782.5,-66 782.5,-85"/>
<text text-anchor="middle" x="704" y="-73" font-family="Helvetica,sans-Serif" font-size="10.00">interfaces/logger_interface.h</text>
</a>
</g>
</g>
<!-- Node2&#45;&gt;Node5 -->
<g id="edge4_Node000002_Node000005" class="edge">
<title>Node2&#45;&gt;Node5</title>
<g id="a_edge4_Node000002_Node000005"><a xlink:title=" ">
<path fill="none" stroke="#63b8ff" d="M418.41,-187.81C476.31,-176.92 576.17,-157.61 592,-151 628.18,-135.89 665.07,-108.56 686.18,-91.54"/>
<polygon fill="#63b8ff" stroke="#63b8ff" points="688.46,-94.2 693.97,-85.15 684.02,-88.79 688.46,-94.2"/>
</a>
</g>
</g>
<!-- Node6 -->
<g id="Node000006" class="node">
<title>Node6</title>
<g id="a_Node000006"><a xlink:href="error__codes_8h.html" target="_top" xlink:title=" ">
<polygon fill="white" stroke="#666666" points="213,-85 121,-85 121,-66 213,-66 213,-85"/>
<text text-anchor="middle" x="167" y="-73" font-family="Helvetica,sans-Serif" font-size="10.00">../error_codes.h</text>
</a>
</g>
</g>
<!-- Node2&#45;&gt;Node6 -->
<g id="edge5_Node000002_Node000006" class="edge">
<title>Node2&#45;&gt;Node6</title>
<g id="a_edge5_Node000002_Node000006"><a xlink:title=" ">
<path fill="none" stroke="#63b8ff" d="M335.96,-190.14C304.1,-184.45 259.94,-173.08 227,-151 205.09,-136.31 187.27,-111.17 176.9,-94.2"/>
<polygon fill="#63b8ff" stroke="#63b8ff" points="179.76,-92.16 171.68,-85.3 173.72,-95.7 179.76,-92.16"/>
</a>
</g>
</g>
<!-- Node10 -->
<g id="Node000010" class="node">
<title>Node10</title>
<g id="a_Node000010"><a xlink:href="log__writer__interface_8h.html" target="_top" xlink:title=" ">
<polygon fill="white" stroke="#666666" points="395,-151 269,-151 269,-121 395,-121 395,-151"/>
<text text-anchor="start" x="277" y="-139" font-family="Helvetica,sans-Serif" font-size="10.00">../interfaces/log_writer</text>
<text text-anchor="middle" x="332" y="-128" font-family="Helvetica,sans-Serif" font-size="10.00">_interface.h</text>
</a>
</g>
</g>
<!-- Node2&#45;&gt;Node10 -->
<g id="edge10_Node000002_Node000010" class="edge">
<title>Node2&#45;&gt;Node10</title>
<g id="a_edge10_Node000002_Node000010"><a xlink:title=" ">
<path fill="none" stroke="#63b8ff" d="M370.36,-186.87C364.76,-179.59 356.5,-168.85 349.08,-159.2"/>
<polygon fill="#63b8ff" stroke="#63b8ff" points="351.73,-156.91 342.86,-151.11 346.18,-161.17 351.73,-156.91"/>
</a>
</g>
</g>
<!-- Node11 -->
<g id="Node000011" class="node">
<title>Node11</title>
<g id="a_Node000011"><a xlink:href="log__entry_8h.html" target="_top" xlink:title="Data structures for representing log entries and source locations.">
<polygon fill="white" stroke="#666666" points="582.5,-145.5 451.5,-145.5 451.5,-126.5 582.5,-126.5 582.5,-145.5"/>
<text text-anchor="middle" x="517" y="-133.5" font-family="Helvetica,sans-Serif" font-size="10.00">../interfaces/log_entry.h</text>
</a>
</g>
</g>
<!-- Node2&#45;&gt;Node11 -->
<g id="edge14_Node000002_Node000011" class="edge">
<title>Node2&#45;&gt;Node11</title>
<g id="a_edge14_Node000002_Node000011"><a xlink:title=" ">
<path fill="none" stroke="#63b8ff" d="M397.36,-186.99C421,-177.12 460.2,-160.73 487.25,-149.43"/>
<polygon fill="#63b8ff" stroke="#63b8ff" points="488.74,-152.6 496.62,-145.52 486.04,-146.14 488.74,-152.6"/>
</a>
</g>
</g>
<!-- Node6&#45;&gt;Node3 -->
<g id="edge6_Node000006_Node000003" class="edge">
<title>Node6&#45;&gt;Node3</title>
<g id="a_edge6_Node000006_Node000003"><a xlink:title=" ">
<path fill="none" stroke="#63b8ff" d="M181.31,-65.87C197,-56.41 222.4,-41.09 240.91,-29.92"/>
<polygon fill="#63b8ff" stroke="#63b8ff" points="242.87,-32.83 249.63,-24.67 239.26,-26.83 242.87,-32.83"/>
</a>
</g>
</g>
<!-- Node7 -->
<g id="Node000007" class="node">
<title>Node7</title>
<g id="a_Node000007"><a xlink:title=" ">
<polygon fill="#e0e0e0" stroke="#999999" points="211.5,-24.5 146.5,-24.5 146.5,-5.5 211.5,-5.5 211.5,-24.5"/>
<text text-anchor="middle" x="179" y="-12.5" font-family="Helvetica,sans-Serif" font-size="10.00">stdexcept</text>
</a>
</g>
</g>
<!-- Node6&#45;&gt;Node7 -->
<g id="edge7_Node000006_Node000007" class="edge">
<title>Node6&#45;&gt;Node7</title>
<g id="a_edge7_Node000006_Node000007"><a xlink:title=" ">
<path fill="none" stroke="#63b8ff" d="M168.77,-65.87C170.45,-57.66 173.04,-45.04 175.19,-34.55"/>
<polygon fill="#63b8ff" stroke="#63b8ff" points="178.64,-35.17 177.22,-24.67 171.78,-33.76 178.64,-35.17"/>
</a>
</g>
</g>
<!-- Node8 -->
<g id="Node000008" class="node">
<title>Node8</title>
<g id="a_Node000008"><a xlink:title=" ">
<polygon fill="#e0e0e0" stroke="#999999" points="349.5,-24.5 304.5,-24.5 304.5,-5.5 349.5,-5.5 349.5,-24.5"/>
<text text-anchor="middle" x="327" y="-12.5" font-family="Helvetica,sans-Serif" font-size="10.00">utility</text>
</a>
</g>
</g>
<!-- Node6&#45;&gt;Node8 -->
<g id="edge8_Node000006_Node000008" class="edge">
<title>Node6&#45;&gt;Node8</title>
<g id="a_edge8_Node000006_Node000008"><a xlink:title=" ">
<path fill="none" stroke="#63b8ff" d="M193.7,-65.89C219.74,-57.34 260.39,-43.56 295,-30 296.21,-29.53 297.44,-29.04 298.67,-28.53"/>
<polygon fill="#63b8ff" stroke="#63b8ff" points="300.3,-31.65 308.15,-24.54 297.58,-25.2 300.3,-31.65"/>
</a>
</g>
</g>
<!-- Node9 -->
<g id="Node000009" class="node">
<title>Node9</title>
<g id="a_Node000009"><a xlink:title=" ">
<polygon fill="#e0e0e0" stroke="#999999" points="128,-30 0,-30 0,0 128,0 128,-30"/>
<text text-anchor="start" x="8" y="-18" font-family="Helvetica,sans-Serif" font-size="10.00">thread_base/sync/error</text>
<text text-anchor="middle" x="64" y="-7" font-family="Helvetica,sans-Serif" font-size="10.00">_handling.h</text>
</a>
</g>
</g>
<!-- Node6&#45;&gt;Node9 -->
<g id="edge9_Node000006_Node000009" class="edge">
<title>Node6&#45;&gt;Node9</title>
<g id="a_edge9_Node000006_Node000009"><a xlink:title=" ">
<path fill="none" stroke="#63b8ff" d="M151.8,-65.87C137.7,-57.86 116.2,-45.65 98.01,-35.31"/>
<polygon fill="#63b8ff" stroke="#63b8ff" points="99.28,-32.01 88.85,-30.11 95.82,-38.1 99.28,-32.01"/>
</a>
</g>
</g>
<!-- Node10&#45;&gt;Node3 -->
<g id="edge11_Node000010_Node000003" class="edge">
<title>Node10&#45;&gt;Node3</title>
<g id="a_edge11_Node000010_Node000003"><a xlink:title=" ">
<path fill="none" stroke="#63b8ff" d="M321.64,-120.9C314.6,-111.07 305.29,-97.52 298,-85 288.15,-68.1 278.45,-47.95 271.94,-33.81"/>
<polygon fill="#63b8ff" stroke="#63b8ff" points="275.13,-32.36 267.81,-24.7 268.75,-35.25 275.13,-32.36"/>
</a>
</g>
</g>
<!-- Node10&#45;&gt;Node4 -->
<g id="edge12_Node000010_Node000004" class="edge">
<title>Node10&#45;&gt;Node4</title>
<g id="a_edge12_Node000010_Node000004"><a xlink:title=" ">
<path fill="none" stroke="#63b8ff" d="M332,-120.84C332,-113.21 332,-103.7 332,-95.45"/>
<polygon fill="#63b8ff" stroke="#63b8ff" points="335.5,-95.27 332,-85.27 328.5,-95.27 335.5,-95.27"/>
</a>
</g>
</g>
<!-- Node10&#45;&gt;Node6 -->
<g id="edge13_Node000010_Node000006" class="edge">
<title>Node10&#45;&gt;Node6</title>
<g id="a_edge13_Node000010_Node000006"><a xlink:title=" ">
<path fill="none" stroke="#63b8ff" d="M292.48,-120.99C264.58,-111.1 227.59,-97.98 201,-88.56"/>
<polygon fill="#63b8ff" stroke="#63b8ff" points="201.96,-85.18 191.37,-85.14 199.62,-91.78 201.96,-85.18"/>
</a>
</g>
</g>
<!-- Node11&#45;&gt;Node3 -->
<g id="edge15_Node000011_Node000003" class="edge">
<title>Node11&#45;&gt;Node3</title>
<g id="a_edge15_Node000011_Node000003"><a xlink:title=" ">
<path fill="none" stroke="#63b8ff" d="M496.87,-126.43C474.17,-116.69 436.22,-100.17 404,-85 386.92,-76.96 382.92,-74.38 366,-66 340.52,-53.39 311.39,-39.12 290.8,-29.07"/>
<polygon fill="#63b8ff" stroke="#63b8ff" points="292.23,-25.87 281.71,-24.63 289.16,-32.16 292.23,-25.87"/>
</a>
</g>
</g>
<!-- Node11&#45;&gt;Node4 -->
<g id="edge16_Node000011_Node000004" class="edge">
<title>Node11&#45;&gt;Node4</title>
<g id="a_edge16_Node000011_Node000004"><a xlink:title=" ">
<path fill="none" stroke="#63b8ff" d="M490.1,-126.49C457.49,-116.18 402.47,-98.78 366.7,-87.47"/>
<polygon fill="#63b8ff" stroke="#63b8ff" points="367.74,-84.13 357.15,-84.45 365.63,-90.81 367.74,-84.13"/>
</a>
</g>
</g>
<!-- Node11&#45;&gt;Node5 -->
<g id="edge25_Node000011_Node000005" class="edge">
<title>Node11&#45;&gt;Node5</title>
<g id="a_edge25_Node000011_Node000005"><a xlink:title=" ">
<path fill="none" stroke="#63b8ff" d="M544.19,-126.49C576.6,-116.36 630.9,-99.37 667.08,-88.05"/>
<polygon fill="#63b8ff" stroke="#63b8ff" points="668.28,-91.34 676.78,-85.02 666.19,-84.66 668.28,-91.34"/>
</a>
</g>
</g>
<!-- Node12 -->
<g id="Node000012" class="node">
<title>Node12</title>
<g id="a_Node000012"><a xlink:title=" ">
<polygon fill="#e0e0e0" stroke="#999999" points="607,-85 551,-85 551,-66 607,-66 607,-85"/>
<text text-anchor="middle" x="579" y="-73" font-family="Helvetica,sans-Serif" font-size="10.00">optional</text>
</a>
</g>
</g>
<!-- Node11&#45;&gt;Node12 -->
<g id="edge17_Node000011_Node000012" class="edge">
<title>Node11&#45;&gt;Node12</title>
<g id="a_edge17_Node000011_Node000012"><a xlink:title=" ">
<path fill="none" stroke="#63b8ff" d="M526.15,-126.37C535.67,-117.38 550.8,-103.11 562.43,-92.14"/>
<polygon fill="#63b8ff" stroke="#63b8ff" points="564.94,-94.58 569.81,-85.17 560.14,-89.48 564.94,-94.58"/>
</a>
</g>
</g>
<!-- Node13 -->
<g id="Node000013" class="node">
<title>Node13</title>
<g id="a_Node000013"><a xlink:href="small__string_8h.html" target="_top" xlink:title=" ">
<polygon fill="white" stroke="#666666" points="532.5,-85 413.5,-85 413.5,-66 532.5,-66 532.5,-85"/>
<text text-anchor="middle" x="473" y="-73" font-family="Helvetica,sans-Serif" font-size="10.00">../core/small_string.h</text>
</a>
</g>
</g>
<!-- Node11&#45;&gt;Node13 -->
<g id="edge18_Node000011_Node000013" class="edge">
<title>Node11&#45;&gt;Node13</title>
<g id="a_edge18_Node000011_Node000013"><a xlink:title=" ">
<path fill="none" stroke="#63b8ff" d="M510.51,-126.37C504.01,-117.73 493.84,-104.2 485.72,-93.42"/>
<polygon fill="#63b8ff" stroke="#63b8ff" points="488.33,-91.06 479.52,-85.17 482.73,-95.26 488.33,-91.06"/>
</a>
</g>
</g>
<!-- Node13&#45;&gt;Node3 -->
<g id="edge20_Node000013_Node000003" class="edge">
<title>Node13&#45;&gt;Node3</title>
<g id="a_edge20_Node000013_Node000003"><a xlink:title=" ">
<path fill="none" stroke="#63b8ff" d="M429.93,-66C393.49,-58.27 340.13,-45.69 295,-30 293.61,-29.52 292.19,-28.99 290.76,-28.44"/>
<polygon fill="#63b8ff" stroke="#63b8ff" points="292.06,-25.19 281.48,-24.55 289.35,-31.65 292.06,-25.19"/>
</a>
</g>
</g>
<!-- Node13&#45;&gt;Node8 -->
<g id="edge24_Node000013_Node000008" class="edge">
<title>Node13&#45;&gt;Node8</title>
<g id="a_edge24_Node000013_Node000008"><a xlink:title=" ">
<path fill="none" stroke="#63b8ff" d="M450.18,-65.9C427.09,-57.13 390.41,-43 359,-30 357.83,-29.52 356.65,-29.02 355.45,-28.52"/>
<polygon fill="#63b8ff" stroke="#63b8ff" points="356.81,-25.29 346.24,-24.57 354.05,-31.72 356.81,-25.29"/>
</a>
</g>
</g>
<!-- Node14 -->
<g id="Node000014" class="node">
<title>Node14</title>
<g id="a_Node000014"><a xlink:title=" ">
<polygon fill="#e0e0e0" stroke="#999999" points="418,-24.5 368,-24.5 368,-5.5 418,-5.5 418,-24.5"/>
<text text-anchor="middle" x="393" y="-12.5" font-family="Helvetica,sans-Serif" font-size="10.00">cstring</text>
</a>
</g>
</g>
<!-- Node13&#45;&gt;Node14 -->
<g id="edge19_Node000013_Node000014" class="edge">
<title>Node13&#45;&gt;Node14</title>
<g id="a_edge19_Node000013_Node000014"><a xlink:title=" ">
<path fill="none" stroke="#63b8ff" d="M461.2,-65.87C448.55,-56.62 428.26,-41.78 413.09,-30.69"/>
<polygon fill="#63b8ff" stroke="#63b8ff" points="414.99,-27.74 404.85,-24.67 410.86,-33.4 414.99,-27.74"/>
</a>
</g>
</g>
<!-- Node15 -->
<g id="Node000015" class="node">
<title>Node15</title>
<g id="a_Node000015"><a xlink:title=" ">
<polygon fill="#e0e0e0" stroke="#999999" points="509.5,-24.5 436.5,-24.5 436.5,-5.5 509.5,-5.5 509.5,-24.5"/>
<text text-anchor="middle" x="473" y="-12.5" font-family="Helvetica,sans-Serif" font-size="10.00">string_view</text>
</a>
</g>
</g>
<!-- Node13&#45;&gt;Node15 -->
<g id="edge21_Node000013_Node000015" class="edge">
<title>Node13&#45;&gt;Node15</title>
<g id="a_edge21_Node000013_Node000015"><a xlink:title=" ">
<path fill="none" stroke="#63b8ff" d="M473,-65.87C473,-57.75 473,-45.31 473,-34.89"/>
<polygon fill="#63b8ff" stroke="#63b8ff" points="476.5,-34.67 473,-24.67 469.5,-34.67 476.5,-34.67"/>
</a>
</g>
</g>
<!-- Node16 -->
<g id="Node000016" class="node">
<title>Node16</title>
<g id="a_Node000016"><a xlink:title=" ">
<polygon fill="#e0e0e0" stroke="#999999" points="592,-24.5 528,-24.5 528,-5.5 592,-5.5 592,-24.5"/>
<text text-anchor="middle" x="560" y="-12.5" font-family="Helvetica,sans-Serif" font-size="10.00">algorithm</text>
</a>
</g>
</g>
<!-- Node13&#45;&gt;Node16 -->
<g id="edge22_Node000013_Node000016" class="edge">
<title>Node13&#45;&gt;Node16</title>
<g id="a_edge22_Node000013_Node000016"><a xlink:title=" ">
<path fill="none" stroke="#63b8ff" d="M485.84,-65.87C499.72,-56.54 522.07,-41.51 538.61,-30.38"/>
<polygon fill="#63b8ff" stroke="#63b8ff" points="540.76,-33.15 547.11,-24.67 536.86,-27.34 540.76,-33.15"/>
</a>
</g>
</g>
<!-- Node17 -->
<g id="Node000017" class="node">
<title>Node17</title>
<g id="a_Node000017"><a xlink:title=" ">
<polygon fill="#e0e0e0" stroke="#999999" points="668,-24.5 610,-24.5 610,-5.5 668,-5.5 668,-24.5"/>
<text text-anchor="middle" x="639" y="-12.5" font-family="Helvetica,sans-Serif" font-size="10.00">memory</text>
</a>
</g>
</g>
<!-- Node13&#45;&gt;Node17 -->
<g id="edge23_Node000013_Node000017" class="edge">
<title>Node13&#45;&gt;Node17</title>
<g id="a_edge23_Node000013_Node000017"><a xlink:title=" ">
<path fill="none" stroke="#63b8ff" d="M498.07,-65.94C523.91,-57.08 565.34,-42.77 601,-30 602.84,-29.34 604.72,-28.66 606.62,-27.97"/>
<polygon fill="#63b8ff" stroke="#63b8ff" points="607.92,-31.23 616.12,-24.51 605.52,-24.65 607.92,-31.23"/>
</a>
</g>
</g>
</g>
</svg>
