<?xml version="1.0" encoding="UTF-8" standalone="no"?>
<!DOCTYPE svg PUBLIC "-//W3C//DTD SVG 1.1//EN"
 "http://www.w3.org/Graphics/SVG/1.1/DTD/svg11.dtd">
<!-- Generated by graphviz version 2.43.0 (0)
 -->
<!-- Title: console_writer.cpp Pages: 1 -->
<svg width="848pt" height="313pt"
 viewBox="0.00 0.00 847.50 313.00" xmlns="http://www.w3.org/2000/svg" xmlns:xlink="http://www.w3.org/1999/xlink">
<g id="graph0" class="graph" transform="scale(1 1) rotate(0) translate(4 309)">
<title>console_writer.cpp</title>
<!-- Node1 -->
<g id="Node000001" class="node">
<title>Node1</title>
<g id="a_Node000001"><a xlink:title=" ">
<polygon fill="#999999" stroke="#666666" points="684,-305 577,-305 577,-286 684,-286 684,-305"/>
<text text-anchor="middle" x="630.5" y="-293" font-family="Helvetica,sans-Serif" font-size="10.00">console_writer.cpp</text>
</a>
</g>
</g>
<!-- Node2 -->
<g id="Node000002" class="node">
<title>Node2</title>
<g id="a_Node000002"><a xlink:href="console__writer_8h.html" target="_top" xlink:title=" ">
<polygon fill="white" stroke="#666666" points="471.5,-250 375.5,-250 375.5,-231 471.5,-231 471.5,-250"/>
<text text-anchor="middle" x="423.5" y="-238" font-family="Helvetica,sans-Serif" font-size="10.00">console_writer.h</text>
</a>
</g>
</g>
<!-- Node1&#45;&gt;Node2 -->
<g id="edge1_Node000001_Node000002" class="edge">
<title>Node1&#45;&gt;Node2</title>
<g id="a_edge1_Node000001_Node000002"><a xlink:title=" ">
<path fill="none" stroke="#63b8ff" d="M597.24,-285.98C561.89,-276.93 505.83,-262.58 466.99,-252.64"/>
<polygon fill="#63b8ff" stroke="#63b8ff" points="467.57,-249.17 457.02,-250.08 465.84,-255.95 467.57,-249.17"/>
</a>
</g>
</g>
<!-- Node16 -->
<g id="Node000016" class="node">
<title>Node16</title>
<g id="a_Node000016"><a xlink:title=" ">
<polygon fill="#e0e0e0" stroke="#999999" points="549.5,-250 489.5,-250 489.5,-231 549.5,-231 549.5,-250"/>
<text text-anchor="middle" x="519.5" y="-238" font-family="Helvetica,sans-Serif" font-size="10.00">iostream</text>
</a>
</g>
</g>
<!-- Node1&#45;&gt;Node16 -->
<g id="edge25_Node000001_Node000016" class="edge">
<title>Node1&#45;&gt;Node16</title>
<g id="a_edge25_Node000001_Node000016"><a xlink:title=" ">
<path fill="none" stroke="#63b8ff" d="M612.67,-285.98C594.89,-277.5 567.35,-264.35 546.82,-254.54"/>
<polygon fill="#63b8ff" stroke="#63b8ff" points="548.19,-251.32 537.66,-250.17 545.17,-257.64 548.19,-251.32"/>
</a>
</g>
</g>
<!-- Node17 -->
<g id="Node000017" class="node">
<title>Node17</title>
<g id="a_Node000017"><a xlink:title=" ">
<polygon fill="#e0e0e0" stroke="#999999" points="623.5,-250 567.5,-250 567.5,-231 623.5,-231 623.5,-250"/>
<text text-anchor="middle" x="595.5" y="-238" font-family="Helvetica,sans-Serif" font-size="10.00">iomanip</text>
</a>
</g>
</g>
<!-- Node1&#45;&gt;Node17 -->
<g id="edge26_Node000001_Node000017" class="edge">
<title>Node1&#45;&gt;Node17</title>
<g id="a_edge26_Node000001_Node000017"><a xlink:title=" ">
<path fill="none" stroke="#63b8ff" d="M624.72,-285.75C619.88,-278.42 612.82,-267.73 606.86,-258.7"/>
<polygon fill="#63b8ff" stroke="#63b8ff" points="609.6,-256.5 601.17,-250.09 603.76,-260.36 609.6,-256.5"/>
</a>
</g>
</g>
<!-- Node18 -->
<g id="Node000018" class="node">
<title>Node18</title>
<g id="a_Node000018"><a xlink:title=" ">
<polygon fill="#e0e0e0" stroke="#999999" points="691,-250 642,-250 642,-231 691,-231 691,-250"/>
<text text-anchor="middle" x="666.5" y="-238" font-family="Helvetica,sans-Serif" font-size="10.00">cstdlib</text>
</a>
</g>
</g>
<!-- Node1&#45;&gt;Node18 -->
<g id="edge27_Node000001_Node000018" class="edge">
<title>Node1&#45;&gt;Node18</title>
<g id="a_edge27_Node000001_Node000018"><a xlink:title=" ">
<path fill="none" stroke="#63b8ff" d="M636.44,-285.75C641.48,-278.34 648.84,-267.5 655.01,-258.41"/>
<polygon fill="#63b8ff" stroke="#63b8ff" points="657.94,-260.33 660.67,-250.09 652.15,-256.39 657.94,-260.33"/>
</a>
</g>
</g>
<!-- Node19 -->
<g id="Node000019" class="node">
<title>Node19</title>
<g id="a_Node000019"><a xlink:title=" ">
<polygon fill="#e0e0e0" stroke="#999999" points="765.5,-250 709.5,-250 709.5,-231 765.5,-231 765.5,-250"/>
<text text-anchor="middle" x="737.5" y="-238" font-family="Helvetica,sans-Serif" font-size="10.00">sstream</text>
</a>
</g>
</g>
<!-- Node1&#45;&gt;Node19 -->
<g id="edge28_Node000001_Node000019" class="edge">
<title>Node1&#45;&gt;Node19</title>
<g id="a_edge28_Node000001_Node000019"><a xlink:title=" ">
<path fill="none" stroke="#63b8ff" d="M647.69,-285.98C664.75,-277.54 691.13,-264.47 710.9,-254.68"/>
<polygon fill="#63b8ff" stroke="#63b8ff" points="712.59,-257.75 720,-250.17 709.48,-251.47 712.59,-257.75"/>
</a>
</g>
</g>
<!-- Node20 -->
<g id="Node000020" class="node">
<title>Node20</title>
<g id="a_Node000020"><a xlink:title=" ">
<polygon fill="#e0e0e0" stroke="#999999" points="839.5,-250 783.5,-250 783.5,-231 839.5,-231 839.5,-250"/>
<text text-anchor="middle" x="811.5" y="-238" font-family="Helvetica,sans-Serif" font-size="10.00">unistd.h</text>
</a>
</g>
</g>
<!-- Node1&#45;&gt;Node20 -->
<g id="edge29_Node000001_Node000020" class="edge">
<title>Node1&#45;&gt;Node20</title>
<g id="a_edge29_Node000001_Node000020"><a xlink:title=" ">
<path fill="none" stroke="#63b8ff" d="M659.58,-285.98C690.46,-276.94 739.41,-262.61 773.37,-252.67"/>
<polygon fill="#63b8ff" stroke="#63b8ff" points="774.77,-255.9 783.38,-249.73 772.8,-249.18 774.77,-255.9"/>
</a>
</g>
</g>
<!-- Node3 -->
<g id="Node000003" class="node">
<title>Node3</title>
<g id="a_Node000003"><a xlink:href="base__writer_8h.html" target="_top" xlink:title=" ">
<polygon fill="white" stroke="#666666" points="356.5,-195 274.5,-195 274.5,-176 356.5,-176 356.5,-195"/>
<text text-anchor="middle" x="315.5" y="-183" font-family="Helvetica,sans-Serif" font-size="10.00">base_writer.h</text>
</a>
</g>
</g>
<!-- Node2&#45;&gt;Node3 -->
<g id="edge2_Node000002_Node000003" class="edge">
<title>Node2&#45;&gt;Node3</title>
<g id="a_edge2_Node000002_Node000003"><a xlink:title=" ">
<path fill="none" stroke="#63b8ff" d="M406.15,-230.98C388.93,-222.54 362.3,-209.47 342.35,-199.68"/>
<polygon fill="#63b8ff" stroke="#63b8ff" points="343.69,-196.43 333.17,-195.17 340.6,-202.72 343.69,-196.43"/>
</a>
</g>
</g>
<!-- Node8 -->
<g id="Node000008" class="node">
<title>Node8</title>
<g id="a_Node000008"><a xlink:title=" ">
<polygon fill="#e0e0e0" stroke="#999999" points="549.5,-19 501.5,-19 501.5,0 549.5,0 549.5,-19"/>
<text text-anchor="middle" x="525.5" y="-7" font-family="Helvetica,sans-Serif" font-size="10.00">mutex</text>
</a>
</g>
</g>
<!-- Node2&#45;&gt;Node8 -->
<g id="edge24_Node000002_Node000008" class="edge">
<title>Node2&#45;&gt;Node8</title>
<g id="a_edge24_Node000002_Node000008"><a xlink:title=" ">
<path fill="none" stroke="#63b8ff" d="M429.4,-230.99C445.52,-207.29 490.66,-138.08 513.5,-74 518.69,-59.45 521.76,-42.19 523.5,-29.33"/>
<polygon fill="#63b8ff" stroke="#63b8ff" points="526.98,-29.7 524.7,-19.35 520.03,-28.86 526.98,-29.7"/>
</a>
</g>
</g>
<!-- Node4 -->
<g id="Node000004" class="node">
<title>Node4</title>
<g id="a_Node000004"><a xlink:title=" ">
<polygon fill="#e0e0e0" stroke="#999999" points="341.5,-19 297.5,-19 297.5,0 341.5,0 341.5,-19"/>
<text text-anchor="middle" x="319.5" y="-7" font-family="Helvetica,sans-Serif" font-size="10.00">string</text>
</a>
</g>
</g>
<!-- Node3&#45;&gt;Node4 -->
<g id="edge3_Node000003_Node000004" class="edge">
<title>Node3&#45;&gt;Node4</title>
<g id="a_edge3_Node000003_Node000004"><a xlink:title=" ">
<path fill="none" stroke="#63b8ff" d="M343.15,-175.98C360.08,-169.17 380.39,-157.76 390.5,-140 397.1,-128.41 394.57,-122.7 390.5,-110 379.78,-76.52 353.21,-44.71 335.79,-26.43"/>
<polygon fill="#63b8ff" stroke="#63b8ff" points="338.02,-23.71 328.52,-19.02 333.02,-28.61 338.02,-23.71"/>
</a>
</g>
</g>
<!-- Node5 -->
<g id="Node000005" class="node">
<title>Node5</title>
<g id="a_Node000005"><a xlink:title=" ">
<polygon fill="#e0e0e0" stroke="#999999" points="253.5,-74 203.5,-74 203.5,-55 253.5,-55 253.5,-74"/>
<text text-anchor="middle" x="228.5" y="-62" font-family="Helvetica,sans-Serif" font-size="10.00">chrono</text>
</a>
</g>
</g>
<!-- Node3&#45;&gt;Node5 -->
<g id="edge4_Node000003_Node000005" class="edge">
<title>Node3&#45;&gt;Node5</title>
<g id="a_edge4_Node000003_Node000005"><a xlink:title=" ">
<path fill="none" stroke="#63b8ff" d="M290.64,-175.88C274.09,-168.83 253.28,-157.19 241.5,-140 230.27,-123.62 227.77,-100.58 227.61,-84.48"/>
<polygon fill="#63b8ff" stroke="#63b8ff" points="231.11,-84.23 227.81,-74.17 224.11,-84.1 231.11,-84.23"/>
</a>
</g>
</g>
<!-- Node6 -->
<g id="Node000006" class="node">
<title>Node6</title>
<g id="a_Node000006"><a xlink:href="logger__interface_8h.html" target="_top" xlink:title=" ">
<polygon fill="white" stroke="#666666" points="504.5,-74 390.5,-74 390.5,-55 504.5,-55 504.5,-74"/>
<text text-anchor="middle" x="447.5" y="-62" font-family="Helvetica,sans-Serif" font-size="10.00">../logger_interface.h</text>
</a>
</g>
</g>
<!-- Node3&#45;&gt;Node6 -->
<g id="edge5_Node000003_Node000006" class="edge">
<title>Node3&#45;&gt;Node6</title>
<g id="a_edge5_Node000003_Node000006"><a xlink:title=" ">
<path fill="none" stroke="#63b8ff" d="M356.55,-176.48C379.1,-170.1 405.96,-158.99 423.5,-140 437.73,-124.59 443.53,-100.67 445.89,-84.11"/>
<polygon fill="#63b8ff" stroke="#63b8ff" points="449.38,-84.35 447.03,-74.02 442.43,-83.56 449.38,-84.35"/>
</a>
</g>
</g>
<!-- Node9 -->
<g id="Node000009" class="node">
<title>Node9</title>
<g id="a_Node000009"><a xlink:href="error__codes_8h.html" target="_top" xlink:title=" ">
<polygon fill="white" stroke="#666666" points="147.5,-74 55.5,-74 55.5,-55 147.5,-55 147.5,-74"/>
<text text-anchor="middle" x="101.5" y="-62" font-family="Helvetica,sans-Serif" font-size="10.00">../error_codes.h</text>
</a>
</g>
</g>
<!-- Node3&#45;&gt;Node9 -->
<g id="edge9_Node000003_Node000009" class="edge">
<title>Node3&#45;&gt;Node9</title>
<g id="a_edge9_Node000003_Node000009"><a xlink:title=" ">
<path fill="none" stroke="#63b8ff" d="M274.45,-183.56C209,-181.11 85.62,-172.22 58.5,-140 42.9,-121.47 64.32,-96.52 82.12,-80.72"/>
<polygon fill="#63b8ff" stroke="#63b8ff" points="84.51,-83.29 89.89,-74.16 79.99,-77.94 84.51,-83.29"/>
</a>
</g>
</g>
<!-- Node14 -->
<g id="Node000014" class="node">
<title>Node14</title>
<g id="a_Node000014"><a xlink:href="log__writer__interface_8h.html" target="_top" xlink:title=" ">
<polygon fill="white" stroke="#666666" points="193.5,-140 67.5,-140 67.5,-110 193.5,-110 193.5,-140"/>
<text text-anchor="start" x="75.5" y="-128" font-family="Helvetica,sans-Serif" font-size="10.00">../interfaces/log_writer</text>
<text text-anchor="middle" x="130.5" y="-117" font-family="Helvetica,sans-Serif" font-size="10.00">_interface.h</text>
</a>
</g>
</g>
<!-- Node3&#45;&gt;Node14 -->
<g id="edge15_Node000003_Node000014" class="edge">
<title>Node3&#45;&gt;Node14</title>
<g id="a_edge15_Node000003_Node000014"><a xlink:title=" ">
<path fill="none" stroke="#63b8ff" d="M288.6,-175.99C261.51,-167.43 218.96,-153.97 184.82,-143.18"/>
<polygon fill="#63b8ff" stroke="#63b8ff" points="185.57,-139.74 174.98,-140.06 183.46,-146.42 185.57,-139.74"/>
</a>
</g>
</g>
<!-- Node15 -->
<g id="Node000015" class="node">
<title>Node15</title>
<g id="a_Node000015"><a xlink:href="log__entry_8h.html" target="_top" xlink:title=" ">
<polygon fill="white" stroke="#666666" points="381,-134.5 250,-134.5 250,-115.5 381,-115.5 381,-134.5"/>
<text text-anchor="middle" x="315.5" y="-122.5" font-family="Helvetica,sans-Serif" font-size="10.00">../interfaces/log_entry.h</text>
</a>
</g>
</g>
<!-- Node3&#45;&gt;Node15 -->
<g id="edge19_Node000003_Node000015" class="edge">
<title>Node3&#45;&gt;Node15</title>
<g id="a_edge19_Node000003_Node000015"><a xlink:title=" ">
<path fill="none" stroke="#63b8ff" d="M315.5,-175.87C315.5,-167.75 315.5,-155.31 315.5,-144.89"/>
<polygon fill="#63b8ff" stroke="#63b8ff" points="319,-144.67 315.5,-134.67 312,-144.67 319,-144.67"/>
</a>
</g>
</g>
<!-- Node6&#45;&gt;Node4 -->
<g id="edge8_Node000006_Node000004" class="edge">
<title>Node6&#45;&gt;Node4</title>
<g id="a_edge8_Node000006_Node000004"><a xlink:title=" ">
<path fill="none" stroke="#63b8ff" d="M426.93,-54.98C406.07,-46.34 373.53,-32.87 349.73,-23.02"/>
<polygon fill="#63b8ff" stroke="#63b8ff" points="351.02,-19.76 340.44,-19.17 348.34,-26.23 351.02,-19.76"/>
</a>
</g>
</g>
<!-- Node7 -->
<g id="Node000007" class="node">
<title>Node7</title>
<g id="a_Node000007"><a xlink:title=" ">
<polygon fill="#e0e0e0" stroke="#999999" points="476.5,-19 418.5,-19 418.5,0 476.5,0 476.5,-19"/>
<text text-anchor="middle" x="447.5" y="-7" font-family="Helvetica,sans-Serif" font-size="10.00">memory</text>
</a>
</g>
</g>
<!-- Node6&#45;&gt;Node7 -->
<g id="edge6_Node000006_Node000007" class="edge">
<title>Node6&#45;&gt;Node7</title>
<g id="a_edge6_Node000006_Node000007"><a xlink:title=" ">
<path fill="none" stroke="#63b8ff" d="M447.5,-54.75C447.5,-47.8 447.5,-37.85 447.5,-29.13"/>
<polygon fill="#63b8ff" stroke="#63b8ff" points="451,-29.09 447.5,-19.09 444,-29.09 451,-29.09"/>
</a>
</g>
</g>
<!-- Node6&#45;&gt;Node8 -->
<g id="edge7_Node000006_Node000008" class="edge">
<title>Node6&#45;&gt;Node8</title>
<g id="a_edge7_Node000006_Node000008"><a xlink:title=" ">
<path fill="none" stroke="#63b8ff" d="M460.03,-54.98C471.9,-46.92 489.96,-34.65 504.11,-25.03"/>
<polygon fill="#63b8ff" stroke="#63b8ff" points="506.44,-27.69 512.74,-19.17 502.5,-21.9 506.44,-27.69"/>
</a>
</g>
</g>
<!-- Node9&#45;&gt;Node4 -->
<g id="edge10_Node000009_Node000004" class="edge">
<title>Node9&#45;&gt;Node4</title>
<g id="a_edge10_Node000009_Node000004"><a xlink:title=" ">
<path fill="none" stroke="#63b8ff" d="M136.53,-54.98C178.16,-44.86 247.05,-28.11 287.36,-18.31"/>
<polygon fill="#63b8ff" stroke="#63b8ff" points="288.32,-21.68 297.21,-15.92 286.66,-14.88 288.32,-21.68"/>
</a>
</g>
</g>
<!-- Node10 -->
<g id="Node000010" class="node">
<title>Node10</title>
<g id="a_Node000010"><a xlink:title=" ">
<polygon fill="#e0e0e0" stroke="#999999" points="134,-19 69,-19 69,0 134,0 134,-19"/>
<text text-anchor="middle" x="101.5" y="-7" font-family="Helvetica,sans-Serif" font-size="10.00">stdexcept</text>
</a>
</g>
</g>
<!-- Node9&#45;&gt;Node10 -->
<g id="edge11_Node000009_Node000010" class="edge">
<title>Node9&#45;&gt;Node10</title>
<g id="a_edge11_Node000009_Node000010"><a xlink:title=" ">
<path fill="none" stroke="#63b8ff" d="M101.5,-54.75C101.5,-47.8 101.5,-37.85 101.5,-29.13"/>
<polygon fill="#63b8ff" stroke="#63b8ff" points="105,-29.09 101.5,-19.09 98,-29.09 105,-29.09"/>
</a>
</g>
</g>
<!-- Node11 -->
<g id="Node000011" class="node">
<title>Node11</title>
<g id="a_Node000011"><a xlink:title=" ">
<polygon fill="#e0e0e0" stroke="#999999" points="197,-19 152,-19 152,0 197,0 197,-19"/>
<text text-anchor="middle" x="174.5" y="-7" font-family="Helvetica,sans-Serif" font-size="10.00">utility</text>
</a>
</g>
</g>
<!-- Node9&#45;&gt;Node11 -->
<g id="edge12_Node000009_Node000011" class="edge">
<title>Node9&#45;&gt;Node11</title>
<g id="a_edge12_Node000009_Node000011"><a xlink:title=" ">
<path fill="none" stroke="#63b8ff" d="M113.23,-54.98C124.23,-47 140.92,-34.88 154.1,-25.31"/>
<polygon fill="#63b8ff" stroke="#63b8ff" points="156.52,-27.88 162.56,-19.17 152.41,-22.21 156.52,-27.88"/>
</a>
</g>
</g>
<!-- Node12 -->
<g id="Node000012" class="node">
<title>Node12</title>
<g id="a_Node000012"><a xlink:title=" ">
<polygon fill="#e0e0e0" stroke="#999999" points="275.5,-19 219.5,-19 219.5,0 275.5,0 275.5,-19"/>
<text text-anchor="middle" x="247.5" y="-7" font-family="Helvetica,sans-Serif" font-size="10.00">optional</text>
</a>
</g>
</g>
<!-- Node9&#45;&gt;Node12 -->
<g id="edge13_Node000009_Node000012" class="edge">
<title>Node9&#45;&gt;Node12</title>
<g id="a_edge13_Node000009_Node000012"><a xlink:title=" ">
<path fill="none" stroke="#63b8ff" d="M124.96,-54.98C149.08,-46.23 186.87,-32.51 214.1,-22.62"/>
<polygon fill="#63b8ff" stroke="#63b8ff" points="215.41,-25.87 223.62,-19.17 213.02,-19.29 215.41,-25.87"/>
</a>
</g>
</g>
<!-- Node13 -->
<g id="Node000013" class="node">
<title>Node13</title>
<g id="a_Node000013"><a xlink:title=" ">
<polygon fill="#e0e0e0" stroke="#999999" points="51,-19 0,-19 0,0 51,0 51,-19"/>
<text text-anchor="middle" x="25.5" y="-7" font-family="Helvetica,sans-Serif" font-size="10.00">variant</text>
</a>
</g>
</g>
<!-- Node9&#45;&gt;Node13 -->
<g id="edge14_Node000009_Node000013" class="edge">
<title>Node9&#45;&gt;Node13</title>
<g id="a_edge14_Node000009_Node000013"><a xlink:title=" ">
<path fill="none" stroke="#63b8ff" d="M89.29,-54.98C77.72,-46.92 60.12,-34.65 46.34,-25.03"/>
<polygon fill="#63b8ff" stroke="#63b8ff" points="48.14,-22.02 37.93,-19.17 44.13,-27.76 48.14,-22.02"/>
</a>
</g>
</g>
<!-- Node14&#45;&gt;Node4 -->
<g id="edge16_Node000014_Node000004" class="edge">
<title>Node14&#45;&gt;Node4</title>
<g id="a_edge16_Node000014_Node000004"><a xlink:title=" ">
<path fill="none" stroke="#63b8ff" d="M140.27,-109.94C151.66,-94.5 171.85,-69.92 194.5,-55 210.08,-44.74 255.98,-29.65 287.6,-19.95"/>
<polygon fill="#63b8ff" stroke="#63b8ff" points="288.76,-23.25 297.31,-17 286.72,-16.56 288.76,-23.25"/>
</a>
</g>
</g>
<!-- Node14&#45;&gt;Node5 -->
<g id="edge17_Node000014_Node000005" class="edge">
<title>Node14&#45;&gt;Node5</title>
<g id="a_edge17_Node000014_Node000005"><a xlink:title=" ">
<path fill="none" stroke="#63b8ff" d="M154.22,-109.84C169.7,-100.6 189.82,-88.59 205.21,-79.4"/>
<polygon fill="#63b8ff" stroke="#63b8ff" points="207.31,-82.23 214.1,-74.09 203.72,-76.21 207.31,-82.23"/>
</a>
</g>
</g>
<!-- Node14&#45;&gt;Node9 -->
<g id="edge18_Node000014_Node000009" class="edge">
<title>Node14&#45;&gt;Node9</title>
<g id="a_edge18_Node000014_Node000009"><a xlink:title=" ">
<path fill="none" stroke="#63b8ff" d="M123.48,-109.84C119.53,-101.87 114.56,-91.84 110.34,-83.33"/>
<polygon fill="#63b8ff" stroke="#63b8ff" points="113.42,-81.67 105.85,-74.27 107.15,-84.78 113.42,-81.67"/>
</a>
</g>
</g>
<!-- Node15&#45;&gt;Node4 -->
<g id="edge20_Node000015_Node000004" class="edge">
<title>Node15&#45;&gt;Node4</title>
<g id="a_edge20_Node000015_Node000004"><a xlink:title=" ">
<path fill="none" stroke="#63b8ff" d="M315.8,-115.47C316.44,-97.23 317.96,-54.07 318.84,-29.14"/>
<polygon fill="#63b8ff" stroke="#63b8ff" points="322.34,-29.25 319.2,-19.13 315.35,-29 322.34,-29.25"/>
</a>
</g>
</g>
<!-- Node15&#45;&gt;Node5 -->
<g id="edge21_Node000015_Node000005" class="edge">
<title>Node15&#45;&gt;Node5</title>
<g id="a_edge21_Node000015_Node000005"><a xlink:title=" ">
<path fill="none" stroke="#63b8ff" d="M302.66,-115.37C288.78,-106.04 266.43,-91.01 249.89,-79.88"/>
<polygon fill="#63b8ff" stroke="#63b8ff" points="251.64,-76.84 241.39,-74.17 247.74,-82.65 251.64,-76.84"/>
</a>
</g>
</g>
<!-- Node15&#45;&gt;Node6 -->
<g id="edge23_Node000015_Node000006" class="edge">
<title>Node15&#45;&gt;Node6</title>
<g id="a_edge23_Node000015_Node000006"><a xlink:title=" ">
<path fill="none" stroke="#63b8ff" d="M334.69,-115.49C356.89,-105.66 393.62,-89.38 419.12,-78.08"/>
<polygon fill="#63b8ff" stroke="#63b8ff" points="420.56,-81.27 428.28,-74.02 417.72,-74.87 420.56,-81.27"/>
</a>
</g>
</g>
<!-- Node15&#45;&gt;Node12 -->
<g id="edge22_Node000015_Node000012" class="edge">
<title>Node15&#45;&gt;Node12</title>
<g id="a_edge22_Node000015_Node000012"><a xlink:title=" ">
<path fill="none" stroke="#63b8ff" d="M310.39,-115.47C299.26,-96.9 272.67,-52.51 257.87,-27.82"/>
<polygon fill="#63b8ff" stroke="#63b8ff" points="260.81,-25.91 252.67,-19.13 254.81,-29.51 260.81,-25.91"/>
</a>
</g>
</g>
</g>
</svg>
