<?xml version="1.0" encoding="UTF-8" standalone="no"?>
<!DOCTYPE svg PUBLIC "-//W3C//DTD SVG 1.1//EN"
 "http://www.w3.org/Graphics/SVG/1.1/DTD/svg11.dtd">
<!-- Generated by graphviz version 2.43.0 (0)
 -->
<!-- Title: /home/runner/work/logger_system/logger_system/sources/logger/safety/crash_safety.cpp Pages: 1 -->
<svg width="442pt" height="115pt"
 viewBox="0.00 0.00 441.50 115.00" xmlns="http://www.w3.org/2000/svg" xmlns:xlink="http://www.w3.org/1999/xlink">
<g id="graph0" class="graph" transform="scale(1 1) rotate(0) translate(4 111)">
<title>/home/runner/work/logger_system/logger_system/sources/logger/safety/crash_safety.cpp</title>
<!-- Node1 -->
<g id="Node000001" class="node">
<title>Node1</title>
<g id="a_Node000001"><a xlink:title=" ">
<polygon fill="#999999" stroke="#666666" points="324,-107 151,-107 151,-66 324,-66 324,-107"/>
<text text-anchor="start" x="159" y="-95" font-family="Helvetica,sans-Serif" font-size="10.00">/home/runner/work/logger</text>
<text text-anchor="start" x="159" y="-84" font-family="Helvetica,sans-Serif" font-size="10.00">_system/logger_system/sources</text>
<text text-anchor="middle" x="237.5" y="-73" font-family="Helvetica,sans-Serif" font-size="10.00">/logger/safety/crash_safety.cpp</text>
</a>
</g>
</g>
<!-- Node2 -->
<g id="Node000002" class="node">
<title>Node2</title>
<g id="a_Node000002"><a xlink:title=" ">
<polygon fill="#e0e0e0" stroke="#999999" points="117,-30 0,-30 0,0 117,0 117,-30"/>
<text text-anchor="start" x="8" y="-18" font-family="Helvetica,sans-Serif" font-size="10.00">../../interfaces/logger</text>
<text text-anchor="middle" x="58.5" y="-7" font-family="Helvetica,sans-Serif" font-size="10.00">_crash_safety.h</text>
</a>
</g>
</g>
<!-- Node1&#45;&gt;Node2 -->
<g id="edge1_Node000001_Node000002" class="edge">
<title>Node1&#45;&gt;Node2</title>
<g id="a_edge1_Node000001_Node000002"><a xlink:title=" ">
<path fill="none" stroke="#63b8ff" d="M187.16,-65.96C161.03,-55.81 129.35,-43.51 103.96,-33.65"/>
<polygon fill="#63b8ff" stroke="#63b8ff" points="105.16,-30.36 94.57,-30 102.62,-36.89 105.16,-30.36"/>
</a>
</g>
</g>
<!-- Node3 -->
<g id="Node000003" class="node">
<title>Node3</title>
<g id="a_Node000003"><a xlink:title=" ">
<polygon fill="#e0e0e0" stroke="#999999" points="191.5,-24.5 135.5,-24.5 135.5,-5.5 191.5,-5.5 191.5,-24.5"/>
<text text-anchor="middle" x="163.5" y="-12.5" font-family="Helvetica,sans-Serif" font-size="10.00">sstream</text>
</a>
</g>
</g>
<!-- Node1&#45;&gt;Node3 -->
<g id="edge2_Node000001_Node000003" class="edge">
<title>Node1&#45;&gt;Node3</title>
<g id="a_edge2_Node000001_Node000003"><a xlink:title=" ">
<path fill="none" stroke="#63b8ff" d="M216.49,-65.77C205.05,-55.02 191.08,-41.91 180.36,-31.84"/>
<polygon fill="#63b8ff" stroke="#63b8ff" points="182.58,-29.11 172.89,-24.82 177.78,-34.22 182.58,-29.11"/>
</a>
</g>
</g>
<!-- Node4 -->
<g id="Node000004" class="node">
<title>Node4</title>
<g id="a_Node000004"><a xlink:title=" ">
<polygon fill="#e0e0e0" stroke="#999999" points="265.5,-24.5 209.5,-24.5 209.5,-5.5 265.5,-5.5 265.5,-24.5"/>
<text text-anchor="middle" x="237.5" y="-12.5" font-family="Helvetica,sans-Serif" font-size="10.00">iomanip</text>
</a>
</g>
</g>
<!-- Node1&#45;&gt;Node4 -->
<g id="edge3_Node000001_Node000004" class="edge">
<title>Node1&#45;&gt;Node4</title>
<g id="a_edge3_Node000001_Node000004"><a xlink:title=" ">
<path fill="none" stroke="#63b8ff" d="M237.5,-65.77C237.5,-56.08 237.5,-44.46 237.5,-34.88"/>
<polygon fill="#63b8ff" stroke="#63b8ff" points="241,-34.82 237.5,-24.82 234,-34.82 241,-34.82"/>
</a>
</g>
</g>
<!-- Node5 -->
<g id="Node000005" class="node">
<title>Node5</title>
<g id="a_Node000005"><a xlink:title=" ">
<polygon fill="#e0e0e0" stroke="#999999" points="351.5,-24.5 283.5,-24.5 283.5,-5.5 351.5,-5.5 351.5,-24.5"/>
<text text-anchor="middle" x="317.5" y="-12.5" font-family="Helvetica,sans-Serif" font-size="10.00">filesystem</text>
</a>
</g>
</g>
<!-- Node1&#45;&gt;Node5 -->
<g id="edge4_Node000001_Node000005" class="edge">
<title>Node1&#45;&gt;Node5</title>
<g id="a_edge4_Node000001_Node000005"><a xlink:title=" ">
<path fill="none" stroke="#63b8ff" d="M260.21,-65.77C272.7,-54.92 287.98,-41.65 299.61,-31.54"/>
<polygon fill="#63b8ff" stroke="#63b8ff" points="302.09,-34.02 307.35,-24.82 297.5,-28.74 302.09,-34.02"/>
</a>
</g>
</g>
<!-- Node6 -->
<g id="Node000006" class="node">
<title>Node6</title>
<g id="a_Node000006"><a xlink:title=" ">
<polygon fill="#e0e0e0" stroke="#999999" points="433.5,-24.5 369.5,-24.5 369.5,-5.5 433.5,-5.5 433.5,-24.5"/>
<text text-anchor="middle" x="401.5" y="-12.5" font-family="Helvetica,sans-Serif" font-size="10.00">algorithm</text>
</a>
</g>
</g>
<!-- Node1&#45;&gt;Node6 -->
<g id="edge5_Node000001_Node000006" class="edge">
<title>Node1&#45;&gt;Node6</title>
<g id="a_edge5_Node000001_Node000006"><a xlink:title=" ">
<path fill="none" stroke="#63b8ff" d="M283.62,-65.96C311.93,-53.96 347.35,-38.95 371.94,-28.53"/>
<polygon fill="#63b8ff" stroke="#63b8ff" points="373.59,-31.63 381.43,-24.5 370.86,-25.18 373.59,-31.63"/>
</a>
</g>
</g>
</g>
</svg>
