<?xml version="1.0" encoding="UTF-8" standalone="no"?>
<!DOCTYPE svg PUBLIC "-//W3C//DTD SVG 1.1//EN"
 "http://www.w3.org/Graphics/SVG/1.1/DTD/svg11.dtd">
<!-- Generated by graphviz version 2.43.0 (0)
 -->
<!-- Title: di_container_factory.h Pages: 1 -->
<svg width="473pt" height="247pt"
 viewBox="0.00 0.00 472.50 247.00" xmlns="http://www.w3.org/2000/svg" xmlns:xlink="http://www.w3.org/1999/xlink">
<g id="graph0" class="graph" transform="scale(1 1) rotate(0) translate(4 243)">
<title>di_container_factory.h</title>
<!-- Node1 -->
<g id="Node000001" class="node">
<title>Node1</title>
<g id="a_Node000001"><a xlink:title="Factory for creating appropriate DI containers.">
<polygon fill="#999999" stroke="#666666" points="201,-239 77,-239 77,-220 201,-220 201,-239"/>
<text text-anchor="middle" x="139" y="-227" font-family="Helvetica,sans-Serif" font-size="10.00">di_container_factory.h</text>
</a>
</g>
</g>
<!-- Node2 -->
<g id="Node000002" class="node">
<title>Node2</title>
<g id="a_Node000002"><a xlink:href="di__container__interface_8h.html" target="_top" xlink:title="Abstract interface for dependency injection container.">
<polygon fill="white" stroke="#666666" points="206,-129 72,-129 72,-110 206,-110 206,-129"/>
<text text-anchor="middle" x="139" y="-117" font-family="Helvetica,sans-Serif" font-size="10.00">di_container_interface.h</text>
</a>
</g>
</g>
<!-- Node1&#45;&gt;Node2 -->
<g id="edge1_Node000001_Node000002" class="edge">
<title>Node1&#45;&gt;Node2</title>
<g id="a_edge1_Node000001_Node000002"><a xlink:title=" ">
<path fill="none" stroke="#63b8ff" d="M107.17,-219.93C76.2,-209.86 36,-191.16 52,-165 61.4,-149.64 77.96,-139.36 94.14,-132.6"/>
<polygon fill="#63b8ff" stroke="#63b8ff" points="95.46,-135.84 103.56,-129.01 92.96,-129.3 95.46,-135.84"/>
</a>
</g>
</g>
<!-- Node11 -->
<g id="Node000011" class="node">
<title>Node11</title>
<g id="a_Node000011"><a xlink:href="lightweight__di__container_8h.html" target="_top" xlink:title="Lightweight dependency injection container implementation.">
<polygon fill="white" stroke="#666666" points="379.5,-184 234.5,-184 234.5,-165 379.5,-165 379.5,-184"/>
<text text-anchor="middle" x="307" y="-172" font-family="Helvetica,sans-Serif" font-size="10.00">lightweight_di_container.h</text>
</a>
</g>
</g>
<!-- Node1&#45;&gt;Node11 -->
<g id="edge11_Node000001_Node000011" class="edge">
<title>Node1&#45;&gt;Node11</title>
<g id="a_edge11_Node000001_Node000011"><a xlink:title=" ">
<path fill="none" stroke="#63b8ff" d="M165.99,-219.98C194.2,-211.09 238.64,-197.07 270.08,-187.15"/>
<polygon fill="#63b8ff" stroke="#63b8ff" points="271.31,-190.43 279.8,-184.08 269.21,-183.75 271.31,-190.43"/>
</a>
</g>
</g>
<!-- Node14 -->
<g id="Node000014" class="node">
<title>Node14</title>
<g id="a_Node000014"><a xlink:href="thread__system__di__adapter_8h.html" target="_top" xlink:title="Adapter for thread_system&#39;s service container.">
<polygon fill="white" stroke="#666666" points="216.5,-184 61.5,-184 61.5,-165 216.5,-165 216.5,-184"/>
<text text-anchor="middle" x="139" y="-172" font-family="Helvetica,sans-Serif" font-size="10.00">thread_system_di_adapter.h</text>
</a>
</g>
</g>
<!-- Node1&#45;&gt;Node14 -->
<g id="edge15_Node000001_Node000014" class="edge">
<title>Node1&#45;&gt;Node14</title>
<g id="a_edge15_Node000001_Node000014"><a xlink:title=" ">
<path fill="none" stroke="#63b8ff" d="M139,-219.75C139,-212.8 139,-202.85 139,-194.13"/>
<polygon fill="#63b8ff" stroke="#63b8ff" points="142.5,-194.09 139,-184.09 135.5,-194.09 142.5,-194.09"/>
</a>
</g>
</g>
<!-- Node3 -->
<g id="Node000003" class="node">
<title>Node3</title>
<g id="a_Node000003"><a xlink:title=" ">
<polygon fill="#e0e0e0" stroke="#999999" points="58,-74 0,-74 0,-55 58,-55 58,-74"/>
<text text-anchor="middle" x="29" y="-62" font-family="Helvetica,sans-Serif" font-size="10.00">memory</text>
</a>
</g>
</g>
<!-- Node2&#45;&gt;Node3 -->
<g id="edge2_Node000002_Node000003" class="edge">
<title>Node2&#45;&gt;Node3</title>
<g id="a_edge2_Node000002_Node000003"><a xlink:title=" ">
<path fill="none" stroke="#63b8ff" d="M121.33,-109.98C103.71,-101.5 76.42,-88.35 56.07,-78.54"/>
<polygon fill="#63b8ff" stroke="#63b8ff" points="57.52,-75.36 46.99,-74.17 54.48,-81.66 57.52,-75.36"/>
</a>
</g>
</g>
<!-- Node4 -->
<g id="Node000004" class="node">
<title>Node4</title>
<g id="a_Node000004"><a xlink:title=" ">
<polygon fill="#e0e0e0" stroke="#999999" points="141.5,-74 76.5,-74 76.5,-55 141.5,-55 141.5,-74"/>
<text text-anchor="middle" x="109" y="-62" font-family="Helvetica,sans-Serif" font-size="10.00">functional</text>
</a>
</g>
</g>
<!-- Node2&#45;&gt;Node4 -->
<g id="edge3_Node000002_Node000004" class="edge">
<title>Node2&#45;&gt;Node4</title>
<g id="a_edge3_Node000002_Node000004"><a xlink:title=" ">
<path fill="none" stroke="#63b8ff" d="M134.05,-109.75C129.94,-102.49 123.97,-91.95 118.9,-82.98"/>
<polygon fill="#63b8ff" stroke="#63b8ff" points="121.83,-81.07 113.86,-74.09 115.74,-84.52 121.83,-81.07"/>
</a>
</g>
</g>
<!-- Node5 -->
<g id="Node000005" class="node">
<title>Node5</title>
<g id="a_Node000005"><a xlink:title=" ">
<polygon fill="#e0e0e0" stroke="#999999" points="174,-19 130,-19 130,0 174,0 174,-19"/>
<text text-anchor="middle" x="152" y="-7" font-family="Helvetica,sans-Serif" font-size="10.00">string</text>
</a>
</g>
</g>
<!-- Node2&#45;&gt;Node5 -->
<g id="edge4_Node000002_Node000005" class="edge">
<title>Node2&#45;&gt;Node5</title>
<g id="a_edge4_Node000002_Node000005"><a xlink:title=" ">
<path fill="none" stroke="#63b8ff" d="M141.75,-109.74C144.4,-100.84 148.26,-86.61 150,-74 152.05,-59.11 152.49,-42.08 152.44,-29.4"/>
<polygon fill="#63b8ff" stroke="#63b8ff" points="155.94,-29.13 152.3,-19.18 148.94,-29.22 155.94,-29.13"/>
</a>
</g>
</g>
<!-- Node6 -->
<g id="Node000006" class="node">
<title>Node6</title>
<g id="a_Node000006"><a xlink:href="error__codes_8h.html" target="_top" xlink:title=" ">
<polygon fill="white" stroke="#666666" points="326,-74 234,-74 234,-55 326,-55 326,-74"/>
<text text-anchor="middle" x="280" y="-62" font-family="Helvetica,sans-Serif" font-size="10.00">../error_codes.h</text>
</a>
</g>
</g>
<!-- Node2&#45;&gt;Node6 -->
<g id="edge5_Node000002_Node000006" class="edge">
<title>Node2&#45;&gt;Node6</title>
<g id="a_edge5_Node000002_Node000006"><a xlink:title=" ">
<path fill="none" stroke="#63b8ff" d="M161.65,-109.98C184.85,-101.27 221.12,-87.63 247.4,-77.75"/>
<polygon fill="#63b8ff" stroke="#63b8ff" points="248.8,-80.97 256.93,-74.17 246.34,-74.41 248.8,-80.97"/>
</a>
</g>
</g>
<!-- Node6&#45;&gt;Node5 -->
<g id="edge6_Node000006_Node000005" class="edge">
<title>Node6&#45;&gt;Node5</title>
<g id="a_edge6_Node000006_Node000005"><a xlink:title=" ">
<path fill="none" stroke="#63b8ff" d="M259.43,-54.98C238.57,-46.34 206.03,-32.87 182.23,-23.02"/>
<polygon fill="#63b8ff" stroke="#63b8ff" points="183.52,-19.76 172.94,-19.17 180.84,-26.23 183.52,-19.76"/>
</a>
</g>
</g>
<!-- Node7 -->
<g id="Node000007" class="node">
<title>Node7</title>
<g id="a_Node000007"><a xlink:title=" ">
<polygon fill="#e0e0e0" stroke="#999999" points="257.5,-19 192.5,-19 192.5,0 257.5,0 257.5,-19"/>
<text text-anchor="middle" x="225" y="-7" font-family="Helvetica,sans-Serif" font-size="10.00">stdexcept</text>
</a>
</g>
</g>
<!-- Node6&#45;&gt;Node7 -->
<g id="edge7_Node000006_Node000007" class="edge">
<title>Node6&#45;&gt;Node7</title>
<g id="a_edge7_Node000006_Node000007"><a xlink:title=" ">
<path fill="none" stroke="#63b8ff" d="M270.92,-54.75C262.91,-47.03 251.04,-35.6 241.38,-26.28"/>
<polygon fill="#63b8ff" stroke="#63b8ff" points="243.54,-23.51 233.91,-19.09 238.69,-28.55 243.54,-23.51"/>
</a>
</g>
</g>
<!-- Node8 -->
<g id="Node000008" class="node">
<title>Node8</title>
<g id="a_Node000008"><a xlink:title=" ">
<polygon fill="#e0e0e0" stroke="#999999" points="320.5,-19 275.5,-19 275.5,0 320.5,0 320.5,-19"/>
<text text-anchor="middle" x="298" y="-7" font-family="Helvetica,sans-Serif" font-size="10.00">utility</text>
</a>
</g>
</g>
<!-- Node6&#45;&gt;Node8 -->
<g id="edge8_Node000006_Node000008" class="edge">
<title>Node6&#45;&gt;Node8</title>
<g id="a_edge8_Node000006_Node000008"><a xlink:title=" ">
<path fill="none" stroke="#63b8ff" d="M282.97,-54.75C285.36,-47.72 288.79,-37.62 291.77,-28.84"/>
<polygon fill="#63b8ff" stroke="#63b8ff" points="295.18,-29.68 295.08,-19.09 288.55,-27.43 295.18,-29.68"/>
</a>
</g>
</g>
<!-- Node9 -->
<g id="Node000009" class="node">
<title>Node9</title>
<g id="a_Node000009"><a xlink:title=" ">
<polygon fill="#e0e0e0" stroke="#999999" points="395,-19 339,-19 339,0 395,0 395,-19"/>
<text text-anchor="middle" x="367" y="-7" font-family="Helvetica,sans-Serif" font-size="10.00">optional</text>
</a>
</g>
</g>
<!-- Node6&#45;&gt;Node9 -->
<g id="edge9_Node000006_Node000009" class="edge">
<title>Node6&#45;&gt;Node9</title>
<g id="a_edge9_Node000006_Node000009"><a xlink:title=" ">
<path fill="none" stroke="#63b8ff" d="M293.98,-54.98C307.47,-46.77 328.13,-34.18 344.04,-24.49"/>
<polygon fill="#63b8ff" stroke="#63b8ff" points="346.05,-27.36 352.77,-19.17 342.41,-21.38 346.05,-27.36"/>
</a>
</g>
</g>
<!-- Node10 -->
<g id="Node000010" class="node">
<title>Node10</title>
<g id="a_Node000010"><a xlink:title=" ">
<polygon fill="#e0e0e0" stroke="#999999" points="464.5,-19 413.5,-19 413.5,0 464.5,0 464.5,-19"/>
<text text-anchor="middle" x="439" y="-7" font-family="Helvetica,sans-Serif" font-size="10.00">variant</text>
</a>
</g>
</g>
<!-- Node6&#45;&gt;Node10 -->
<g id="edge10_Node000006_Node000010" class="edge">
<title>Node6&#45;&gt;Node10</title>
<g id="a_edge10_Node000006_Node000010"><a xlink:title=" ">
<path fill="none" stroke="#63b8ff" d="M305.55,-54.98C332.12,-46.13 373.94,-32.19 403.67,-22.28"/>
<polygon fill="#63b8ff" stroke="#63b8ff" points="404.87,-25.56 413.25,-19.08 402.66,-18.92 404.87,-25.56"/>
</a>
</g>
</g>
<!-- Node11&#45;&gt;Node2 -->
<g id="edge12_Node000011_Node000002" class="edge">
<title>Node11&#45;&gt;Node2</title>
<g id="a_edge12_Node000011_Node000002"><a xlink:title=" ">
<path fill="none" stroke="#63b8ff" d="M280.01,-164.98C251.8,-156.09 207.36,-142.07 175.92,-132.15"/>
<polygon fill="#63b8ff" stroke="#63b8ff" points="176.79,-128.75 166.2,-129.08 174.69,-135.43 176.79,-128.75"/>
</a>
</g>
</g>
<!-- Node12 -->
<g id="Node000012" class="node">
<title>Node12</title>
<g id="a_Node000012"><a xlink:title=" ">
<polygon fill="#e0e0e0" stroke="#999999" points="335.5,-129 242.5,-129 242.5,-110 335.5,-110 335.5,-129"/>
<text text-anchor="middle" x="289" y="-117" font-family="Helvetica,sans-Serif" font-size="10.00">unordered_map</text>
</a>
</g>
</g>
<!-- Node11&#45;&gt;Node12 -->
<g id="edge13_Node000011_Node000012" class="edge">
<title>Node11&#45;&gt;Node12</title>
<g id="a_edge13_Node000011_Node000012"><a xlink:title=" ">
<path fill="none" stroke="#63b8ff" d="M304.03,-164.75C301.64,-157.72 298.21,-147.62 295.23,-138.84"/>
<polygon fill="#63b8ff" stroke="#63b8ff" points="298.45,-137.43 291.92,-129.09 291.82,-139.68 298.45,-137.43"/>
</a>
</g>
</g>
<!-- Node13 -->
<g id="Node000013" class="node">
<title>Node13</title>
<g id="a_Node000013"><a xlink:title=" ">
<polygon fill="#e0e0e0" stroke="#999999" points="402,-129 354,-129 354,-110 402,-110 402,-129"/>
<text text-anchor="middle" x="378" y="-117" font-family="Helvetica,sans-Serif" font-size="10.00">mutex</text>
</a>
</g>
</g>
<!-- Node11&#45;&gt;Node13 -->
<g id="edge14_Node000011_Node000013" class="edge">
<title>Node11&#45;&gt;Node13</title>
<g id="a_edge14_Node000011_Node000013"><a xlink:title=" ">
<path fill="none" stroke="#63b8ff" d="M318.41,-164.98C329.11,-157 345.34,-144.88 358.16,-135.31"/>
<polygon fill="#63b8ff" stroke="#63b8ff" points="360.47,-137.96 366.39,-129.17 356.28,-132.35 360.47,-137.96"/>
</a>
</g>
</g>
<!-- Node14&#45;&gt;Node2 -->
<g id="edge16_Node000014_Node000002" class="edge">
<title>Node14&#45;&gt;Node2</title>
<g id="a_edge16_Node000014_Node000002"><a xlink:title=" ">
<path fill="none" stroke="#63b8ff" d="M139,-164.75C139,-157.8 139,-147.85 139,-139.13"/>
<polygon fill="#63b8ff" stroke="#63b8ff" points="142.5,-139.09 139,-129.09 135.5,-139.09 142.5,-139.09"/>
</a>
</g>
</g>
</g>
</svg>
