<?xml version="1.0" encoding="UTF-8" standalone="no"?>
<!DOCTYPE svg PUBLIC "-//W3C//DTD SVG 1.1//EN"
 "http://www.w3.org/Graphics/SVG/1.1/DTD/svg11.dtd">
<!-- Generated by graphviz version 2.43.0 (0)
 -->
<!-- Title: /home/runner/work/logger_system/logger_system/sources/logger/di/di_container_interface.h Pages: 1 -->
<svg width="493pt" height="170pt"
 viewBox="0.00 0.00 493.00 170.00" xmlns="http://www.w3.org/2000/svg" xmlns:xlink="http://www.w3.org/1999/xlink">
<g id="graph0" class="graph" transform="scale(1 1) rotate(0) translate(4 166)">
<title>/home/runner/work/logger_system/logger_system/sources/logger/di/di_container_interface.h</title>
<!-- Node1 -->
<g id="Node000001" class="node">
<title>Node1</title>
<g id="a_Node000001"><a xlink:title="Abstract interface for dependency injection container.">
<polygon fill="#999999" stroke="#666666" points="230.5,-162 47.5,-162 47.5,-121 230.5,-121 230.5,-162"/>
<text text-anchor="start" x="55.5" y="-150" font-family="Helvetica,sans-Serif" font-size="10.00">/home/runner/work/logger</text>
<text text-anchor="start" x="55.5" y="-139" font-family="Helvetica,sans-Serif" font-size="10.00">_system/logger_system/sources</text>
<text text-anchor="middle" x="139" y="-128" font-family="Helvetica,sans-Serif" font-size="10.00">/logger/di/di_container_interface.h</text>
</a>
</g>
</g>
<!-- Node2 -->
<g id="Node000002" class="node">
<title>Node2</title>
<g id="a_Node000002"><a xlink:title=" ">
<polygon fill="#e0e0e0" stroke="#999999" points="58,-85 0,-85 0,-66 58,-66 58,-85"/>
<text text-anchor="middle" x="29" y="-73" font-family="Helvetica,sans-Serif" font-size="10.00">memory</text>
</a>
</g>
</g>
<!-- Node1&#45;&gt;Node2 -->
<g id="edge1_Node000001_Node000002" class="edge">
<title>Node1&#45;&gt;Node2</title>
<g id="a_edge1_Node000001_Node000002"><a xlink:title=" ">
<path fill="none" stroke="#63b8ff" d="M105.4,-120.95C88.34,-111.03 68.03,-99.21 52.64,-90.25"/>
<polygon fill="#63b8ff" stroke="#63b8ff" points="54.17,-87.1 43.77,-85.09 50.65,-93.15 54.17,-87.1"/>
</a>
</g>
</g>
<!-- Node3 -->
<g id="Node000003" class="node">
<title>Node3</title>
<g id="a_Node000003"><a xlink:title=" ">
<polygon fill="#e0e0e0" stroke="#999999" points="141.5,-85 76.5,-85 76.5,-66 141.5,-66 141.5,-85"/>
<text text-anchor="middle" x="109" y="-73" font-family="Helvetica,sans-Serif" font-size="10.00">functional</text>
</a>
</g>
</g>
<!-- Node1&#45;&gt;Node3 -->
<g id="edge2_Node000001_Node000003" class="edge">
<title>Node1&#45;&gt;Node3</title>
<g id="a_edge2_Node000001_Node000003"><a xlink:title=" ">
<path fill="none" stroke="#63b8ff" d="M129.84,-120.95C125.87,-112.48 121.25,-102.64 117.38,-94.37"/>
<polygon fill="#63b8ff" stroke="#63b8ff" points="120.52,-92.83 113.11,-85.26 114.18,-95.8 120.52,-92.83"/>
</a>
</g>
</g>
<!-- Node4 -->
<g id="Node000004" class="node">
<title>Node4</title>
<g id="a_Node000004"><a xlink:title=" ">
<polygon fill="#e0e0e0" stroke="#999999" points="192,-24.5 148,-24.5 148,-5.5 192,-5.5 192,-24.5"/>
<text text-anchor="middle" x="170" y="-12.5" font-family="Helvetica,sans-Serif" font-size="10.00">string</text>
</a>
</g>
</g>
<!-- Node1&#45;&gt;Node4 -->
<g id="edge3_Node000001_Node000004" class="edge">
<title>Node1&#45;&gt;Node4</title>
<g id="a_edge3_Node000001_Node000004"><a xlink:title=" ">
<path fill="none" stroke="#63b8ff" d="M143.91,-120.77C149.81,-97.09 159.63,-57.66 165.39,-34.52"/>
<polygon fill="#63b8ff" stroke="#63b8ff" points="168.84,-35.16 167.86,-24.61 162.04,-33.47 168.84,-35.16"/>
</a>
</g>
</g>
<!-- Node5 -->
<g id="Node000005" class="node">
<title>Node5</title>
<g id="a_Node000005"><a xlink:href="error__codes_8h.html" target="_top" xlink:title=" ">
<polygon fill="white" stroke="#666666" points="290,-85 198,-85 198,-66 290,-66 290,-85"/>
<text text-anchor="middle" x="244" y="-73" font-family="Helvetica,sans-Serif" font-size="10.00">../error_codes.h</text>
</a>
</g>
</g>
<!-- Node1&#45;&gt;Node5 -->
<g id="edge4_Node000001_Node000005" class="edge">
<title>Node1&#45;&gt;Node5</title>
<g id="a_edge4_Node000001_Node000005"><a xlink:title=" ">
<path fill="none" stroke="#63b8ff" d="M171.07,-120.95C187.2,-111.12 206.38,-99.43 221.02,-90.51"/>
<polygon fill="#63b8ff" stroke="#63b8ff" points="223.19,-93.29 229.9,-85.09 219.54,-87.31 223.19,-93.29"/>
</a>
</g>
</g>
<!-- Node5&#45;&gt;Node4 -->
<g id="edge5_Node000005_Node000004" class="edge">
<title>Node5&#45;&gt;Node4</title>
<g id="a_edge5_Node000005_Node000004"><a xlink:title=" ">
<path fill="none" stroke="#63b8ff" d="M233.08,-65.87C221.49,-56.71 202.97,-42.06 188.98,-31.01"/>
<polygon fill="#63b8ff" stroke="#63b8ff" points="190.98,-28.12 180.96,-24.67 186.64,-33.61 190.98,-28.12"/>
</a>
</g>
</g>
<!-- Node6 -->
<g id="Node000006" class="node">
<title>Node6</title>
<g id="a_Node000006"><a xlink:title=" ">
<polygon fill="#e0e0e0" stroke="#999999" points="275.5,-24.5 210.5,-24.5 210.5,-5.5 275.5,-5.5 275.5,-24.5"/>
<text text-anchor="middle" x="243" y="-12.5" font-family="Helvetica,sans-Serif" font-size="10.00">stdexcept</text>
</a>
</g>
</g>
<!-- Node5&#45;&gt;Node6 -->
<g id="edge6_Node000005_Node000006" class="edge">
<title>Node5&#45;&gt;Node6</title>
<g id="a_edge6_Node000005_Node000006"><a xlink:title=" ">
<path fill="none" stroke="#63b8ff" d="M243.85,-65.87C243.71,-57.75 243.5,-45.31 243.32,-34.89"/>
<polygon fill="#63b8ff" stroke="#63b8ff" points="246.82,-34.61 243.15,-24.67 239.82,-34.73 246.82,-34.61"/>
</a>
</g>
</g>
<!-- Node7 -->
<g id="Node000007" class="node">
<title>Node7</title>
<g id="a_Node000007"><a xlink:title=" ">
<polygon fill="#e0e0e0" stroke="#999999" points="338.5,-24.5 293.5,-24.5 293.5,-5.5 338.5,-5.5 338.5,-24.5"/>
<text text-anchor="middle" x="316" y="-12.5" font-family="Helvetica,sans-Serif" font-size="10.00">utility</text>
</a>
</g>
</g>
<!-- Node5&#45;&gt;Node7 -->
<g id="edge7_Node000005_Node000007" class="edge">
<title>Node5&#45;&gt;Node7</title>
<g id="a_edge7_Node000005_Node000007"><a xlink:title=" ">
<path fill="none" stroke="#63b8ff" d="M254.62,-65.87C265.9,-56.71 283.92,-42.06 297.53,-31.01"/>
<polygon fill="#63b8ff" stroke="#63b8ff" points="299.78,-33.69 305.33,-24.67 295.36,-28.26 299.78,-33.69"/>
</a>
</g>
</g>
<!-- Node8 -->
<g id="Node000008" class="node">
<title>Node8</title>
<g id="a_Node000008"><a xlink:title=" ">
<polygon fill="#e0e0e0" stroke="#999999" points="485,-30 357,-30 357,0 485,0 485,-30"/>
<text text-anchor="start" x="365" y="-18" font-family="Helvetica,sans-Serif" font-size="10.00">thread_base/sync/error</text>
<text text-anchor="middle" x="421" y="-7" font-family="Helvetica,sans-Serif" font-size="10.00">_handling.h</text>
</a>
</g>
</g>
<!-- Node5&#45;&gt;Node8 -->
<g id="edge8_Node000005_Node000008" class="edge">
<title>Node5&#45;&gt;Node8</title>
<g id="a_edge8_Node000005_Node000008"><a xlink:title=" ">
<path fill="none" stroke="#63b8ff" d="M269.74,-65.99C295.54,-57.46 336.02,-44.09 368.61,-33.32"/>
<polygon fill="#63b8ff" stroke="#63b8ff" points="370.05,-36.53 378.45,-30.06 367.85,-29.88 370.05,-36.53"/>
</a>
</g>
</g>
</g>
</svg>
