<?xml version="1.0" encoding="UTF-8" standalone="no"?>
<!DOCTYPE svg PUBLIC "-//W3C//DTD SVG 1.1//EN"
 "http://www.w3.org/Graphics/SVG/1.1/DTD/svg11.dtd">
<!-- Generated by graphviz version 2.43.0 (0)
 -->
<!-- Title: /home/runner/work/logger_system/logger_system/sources/logger/di/di_container_factory.h Pages: 1 -->
<svg width="598pt" height="291pt"
 viewBox="0.00 0.00 598.00 291.00" xmlns="http://www.w3.org/2000/svg" xmlns:xlink="http://www.w3.org/1999/xlink">
<g id="graph0" class="graph" transform="scale(1 1) rotate(0) translate(4 287)">
<title>/home/runner/work/logger_system/logger_system/sources/logger/di/di_container_factory.h</title>
<!-- Node1 -->
<g id="Node000001" class="node">
<title>Node1</title>
<g id="a_Node000001"><a xlink:title="Factory for creating appropriate DI containers.">
<polygon fill="#999999" stroke="#666666" points="329,-283 156,-283 156,-242 329,-242 329,-283"/>
<text text-anchor="start" x="164" y="-271" font-family="Helvetica,sans-Serif" font-size="10.00">/home/runner/work/logger</text>
<text text-anchor="start" x="164" y="-260" font-family="Helvetica,sans-Serif" font-size="10.00">_system/logger_system/sources</text>
<text text-anchor="middle" x="242.5" y="-249" font-family="Helvetica,sans-Serif" font-size="10.00">/logger/di/di_container_factory.h</text>
</a>
</g>
</g>
<!-- Node2 -->
<g id="Node000002" class="node">
<title>Node2</title>
<g id="a_Node000002"><a xlink:href="di__container__interface_8h.html" target="_top" xlink:title="Abstract interface for dependency injection container.">
<polygon fill="white" stroke="#666666" points="311.5,-145.5 177.5,-145.5 177.5,-126.5 311.5,-126.5 311.5,-145.5"/>
<text text-anchor="middle" x="244.5" y="-133.5" font-family="Helvetica,sans-Serif" font-size="10.00">di_container_interface.h</text>
</a>
</g>
</g>
<!-- Node1&#45;&gt;Node2 -->
<g id="edge1_Node000001_Node000002" class="edge">
<title>Node1&#45;&gt;Node2</title>
<g id="a_edge1_Node000001_Node000002"><a xlink:title=" ">
<path fill="none" stroke="#63b8ff" d="M242.82,-241.77C243.2,-218.19 243.82,-179.02 244.2,-155.84"/>
<polygon fill="#63b8ff" stroke="#63b8ff" points="247.7,-155.67 244.36,-145.61 240.7,-155.56 247.7,-155.67"/>
</a>
</g>
</g>
<!-- Node10 -->
<g id="Node000010" class="node">
<title>Node10</title>
<g id="a_Node000010"><a xlink:href="lightweight__di__container_8h.html" target="_top" xlink:title="Lightweight dependency injection container implementation.">
<polygon fill="white" stroke="#666666" points="212,-206 67,-206 67,-187 212,-187 212,-206"/>
<text text-anchor="middle" x="139.5" y="-194" font-family="Helvetica,sans-Serif" font-size="10.00">lightweight_di_container.h</text>
</a>
</g>
</g>
<!-- Node1&#45;&gt;Node10 -->
<g id="edge10_Node000001_Node000010" class="edge">
<title>Node1&#45;&gt;Node10</title>
<g id="a_edge10_Node000001_Node000010"><a xlink:title=" ">
<path fill="none" stroke="#63b8ff" d="M211.04,-241.95C195.22,-232.12 176.41,-220.43 162.05,-211.51"/>
<polygon fill="#63b8ff" stroke="#63b8ff" points="163.67,-208.4 153.33,-206.09 159.97,-214.34 163.67,-208.4"/>
</a>
</g>
</g>
<!-- Node13 -->
<g id="Node000013" class="node">
<title>Node13</title>
<g id="a_Node000013"><a xlink:href="thread__system__di__adapter_8h.html" target="_top" xlink:title="Adapter for thread_system&#39;s service container.">
<polygon fill="white" stroke="#666666" points="426,-206 271,-206 271,-187 426,-187 426,-206"/>
<text text-anchor="middle" x="348.5" y="-194" font-family="Helvetica,sans-Serif" font-size="10.00">thread_system_di_adapter.h</text>
</a>
</g>
</g>
<!-- Node1&#45;&gt;Node13 -->
<g id="edge14_Node000001_Node000013" class="edge">
<title>Node1&#45;&gt;Node13</title>
<g id="a_edge14_Node000001_Node000013"><a xlink:title=" ">
<path fill="none" stroke="#63b8ff" d="M274.88,-241.95C291.16,-232.12 310.52,-220.43 325.3,-211.51"/>
<polygon fill="#63b8ff" stroke="#63b8ff" points="327.52,-214.26 334.27,-206.09 323.9,-208.26 327.52,-214.26"/>
</a>
</g>
</g>
<!-- Node3 -->
<g id="Node000003" class="node">
<title>Node3</title>
<g id="a_Node000003"><a xlink:title=" ">
<polygon fill="#e0e0e0" stroke="#999999" points="162.5,-85 104.5,-85 104.5,-66 162.5,-66 162.5,-85"/>
<text text-anchor="middle" x="133.5" y="-73" font-family="Helvetica,sans-Serif" font-size="10.00">memory</text>
</a>
</g>
</g>
<!-- Node2&#45;&gt;Node3 -->
<g id="edge2_Node000002_Node000003" class="edge">
<title>Node2&#45;&gt;Node3</title>
<g id="a_edge2_Node000002_Node000003"><a xlink:title=" ">
<path fill="none" stroke="#63b8ff" d="M228.12,-126.37C209.92,-116.78 180.3,-101.17 159.05,-89.97"/>
<polygon fill="#63b8ff" stroke="#63b8ff" points="160.42,-86.73 149.95,-85.17 157.16,-92.93 160.42,-86.73"/>
</a>
</g>
</g>
<!-- Node4 -->
<g id="Node000004" class="node">
<title>Node4</title>
<g id="a_Node000004"><a xlink:title=" ">
<polygon fill="#e0e0e0" stroke="#999999" points="246,-85 181,-85 181,-66 246,-66 246,-85"/>
<text text-anchor="middle" x="213.5" y="-73" font-family="Helvetica,sans-Serif" font-size="10.00">functional</text>
</a>
</g>
</g>
<!-- Node2&#45;&gt;Node4 -->
<g id="edge3_Node000002_Node000004" class="edge">
<title>Node2&#45;&gt;Node4</title>
<g id="a_edge3_Node000002_Node000004"><a xlink:title=" ">
<path fill="none" stroke="#63b8ff" d="M239.93,-126.37C235.44,-117.9 228.47,-104.74 222.81,-94.07"/>
<polygon fill="#63b8ff" stroke="#63b8ff" points="225.87,-92.36 218.09,-85.17 219.68,-95.64 225.87,-92.36"/>
</a>
</g>
</g>
<!-- Node5 -->
<g id="Node000005" class="node">
<title>Node5</title>
<g id="a_Node000005"><a xlink:title=" ">
<polygon fill="#e0e0e0" stroke="#999999" points="296.5,-24.5 252.5,-24.5 252.5,-5.5 296.5,-5.5 296.5,-24.5"/>
<text text-anchor="middle" x="274.5" y="-12.5" font-family="Helvetica,sans-Serif" font-size="10.00">string</text>
</a>
</g>
</g>
<!-- Node2&#45;&gt;Node5 -->
<g id="edge4_Node000002_Node000005" class="edge">
<title>Node2&#45;&gt;Node5</title>
<g id="a_edge4_Node000002_Node000005"><a xlink:title=" ">
<path fill="none" stroke="#63b8ff" d="M246.66,-126.44C251.48,-107.32 263.21,-60.77 269.81,-34.62"/>
<polygon fill="#63b8ff" stroke="#63b8ff" points="273.23,-35.35 272.28,-24.8 266.44,-33.64 273.23,-35.35"/>
</a>
</g>
</g>
<!-- Node6 -->
<g id="Node000006" class="node">
<title>Node6</title>
<g id="a_Node000006"><a xlink:href="error__codes_8h.html" target="_top" xlink:title=" ">
<polygon fill="white" stroke="#666666" points="394.5,-85 302.5,-85 302.5,-66 394.5,-66 394.5,-85"/>
<text text-anchor="middle" x="348.5" y="-73" font-family="Helvetica,sans-Serif" font-size="10.00">../error_codes.h</text>
</a>
</g>
</g>
<!-- Node2&#45;&gt;Node6 -->
<g id="edge5_Node000002_Node000006" class="edge">
<title>Node2&#45;&gt;Node6</title>
<g id="a_edge5_Node000002_Node000006"><a xlink:title=" ">
<path fill="none" stroke="#63b8ff" d="M259.85,-126.37C276.82,-116.82 304.4,-101.31 324.29,-90.12"/>
<polygon fill="#63b8ff" stroke="#63b8ff" points="326.09,-93.12 333.09,-85.17 322.66,-87.02 326.09,-93.12"/>
</a>
</g>
</g>
<!-- Node6&#45;&gt;Node5 -->
<g id="edge6_Node000006_Node000005" class="edge">
<title>Node6&#45;&gt;Node5</title>
<g id="a_edge6_Node000006_Node000005"><a xlink:title=" ">
<path fill="none" stroke="#63b8ff" d="M337.58,-65.87C325.99,-56.71 307.47,-42.06 293.48,-31.01"/>
<polygon fill="#63b8ff" stroke="#63b8ff" points="295.48,-28.12 285.46,-24.67 291.14,-33.61 295.48,-28.12"/>
</a>
</g>
</g>
<!-- Node7 -->
<g id="Node000007" class="node">
<title>Node7</title>
<g id="a_Node000007"><a xlink:title=" ">
<polygon fill="#e0e0e0" stroke="#999999" points="590,-24.5 525,-24.5 525,-5.5 590,-5.5 590,-24.5"/>
<text text-anchor="middle" x="557.5" y="-12.5" font-family="Helvetica,sans-Serif" font-size="10.00">stdexcept</text>
</a>
</g>
</g>
<!-- Node6&#45;&gt;Node7 -->
<g id="edge7_Node000006_Node000007" class="edge">
<title>Node6&#45;&gt;Node7</title>
<g id="a_edge7_Node000006_Node000007"><a xlink:title=" ">
<path fill="none" stroke="#63b8ff" d="M382.9,-65.99C416.78,-57.45 469.94,-43.65 515.5,-30 517.95,-29.27 520.47,-28.49 523,-27.69"/>
<polygon fill="#63b8ff" stroke="#63b8ff" points="524.27,-30.96 532.71,-24.54 522.11,-24.3 524.27,-30.96"/>
</a>
</g>
</g>
<!-- Node8 -->
<g id="Node000008" class="node">
<title>Node8</title>
<g id="a_Node000008"><a xlink:title=" ">
<polygon fill="#e0e0e0" stroke="#999999" points="360,-24.5 315,-24.5 315,-5.5 360,-5.5 360,-24.5"/>
<text text-anchor="middle" x="337.5" y="-12.5" font-family="Helvetica,sans-Serif" font-size="10.00">utility</text>
</a>
</g>
</g>
<!-- Node6&#45;&gt;Node8 -->
<g id="edge8_Node000006_Node000008" class="edge">
<title>Node6&#45;&gt;Node8</title>
<g id="a_edge8_Node000006_Node000008"><a xlink:title=" ">
<path fill="none" stroke="#63b8ff" d="M346.88,-65.87C345.33,-57.66 342.96,-45.04 340.99,-34.55"/>
<polygon fill="#63b8ff" stroke="#63b8ff" points="344.42,-33.85 339.13,-24.67 337.54,-35.14 344.42,-33.85"/>
</a>
</g>
</g>
<!-- Node9 -->
<g id="Node000009" class="node">
<title>Node9</title>
<g id="a_Node000009"><a xlink:title=" ">
<polygon fill="#e0e0e0" stroke="#999999" points="506.5,-30 378.5,-30 378.5,0 506.5,0 506.5,-30"/>
<text text-anchor="start" x="386.5" y="-18" font-family="Helvetica,sans-Serif" font-size="10.00">thread_base/sync/error</text>
<text text-anchor="middle" x="442.5" y="-7" font-family="Helvetica,sans-Serif" font-size="10.00">_handling.h</text>
</a>
</g>
</g>
<!-- Node6&#45;&gt;Node9 -->
<g id="edge9_Node000006_Node000009" class="edge">
<title>Node6&#45;&gt;Node9</title>
<g id="a_edge9_Node000006_Node000009"><a xlink:title=" ">
<path fill="none" stroke="#63b8ff" d="M362.37,-65.87C375.12,-57.93 394.5,-45.87 411.01,-35.6"/>
<polygon fill="#63b8ff" stroke="#63b8ff" points="413.18,-38.37 419.82,-30.11 409.48,-32.43 413.18,-38.37"/>
</a>
</g>
</g>
<!-- Node10&#45;&gt;Node2 -->
<g id="edge11_Node000010_Node000002" class="edge">
<title>Node10&#45;&gt;Node2</title>
<g id="a_edge11_Node000010_Node000002"><a xlink:title=" ">
<path fill="none" stroke="#63b8ff" d="M154.99,-186.87C172.13,-177.32 199.97,-161.81 220.06,-150.62"/>
<polygon fill="#63b8ff" stroke="#63b8ff" points="221.91,-153.59 228.94,-145.67 218.5,-147.48 221.91,-153.59"/>
</a>
</g>
</g>
<!-- Node11 -->
<g id="Node000011" class="node">
<title>Node11</title>
<g id="a_Node000011"><a xlink:title=" ">
<polygon fill="#e0e0e0" stroke="#999999" points="93,-145.5 0,-145.5 0,-126.5 93,-126.5 93,-145.5"/>
<text text-anchor="middle" x="46.5" y="-133.5" font-family="Helvetica,sans-Serif" font-size="10.00">unordered_map</text>
</a>
</g>
</g>
<!-- Node10&#45;&gt;Node11 -->
<g id="edge12_Node000010_Node000011" class="edge">
<title>Node10&#45;&gt;Node11</title>
<g id="a_edge12_Node000010_Node000011"><a xlink:title=" ">
<path fill="none" stroke="#63b8ff" d="M125.78,-186.87C110.8,-177.45 86.61,-162.23 68.88,-151.08"/>
<polygon fill="#63b8ff" stroke="#63b8ff" points="70.61,-148.03 60.28,-145.67 66.88,-153.95 70.61,-148.03"/>
</a>
</g>
</g>
<!-- Node12 -->
<g id="Node000012" class="node">
<title>Node12</title>
<g id="a_Node000012"><a xlink:title=" ">
<polygon fill="#e0e0e0" stroke="#999999" points="159.5,-145.5 111.5,-145.5 111.5,-126.5 159.5,-126.5 159.5,-145.5"/>
<text text-anchor="middle" x="135.5" y="-133.5" font-family="Helvetica,sans-Serif" font-size="10.00">mutex</text>
</a>
</g>
</g>
<!-- Node10&#45;&gt;Node12 -->
<g id="edge13_Node000010_Node000012" class="edge">
<title>Node10&#45;&gt;Node12</title>
<g id="a_edge13_Node000010_Node000012"><a xlink:title=" ">
<path fill="none" stroke="#63b8ff" d="M138.91,-186.87C138.35,-178.75 137.5,-166.31 136.79,-155.89"/>
<polygon fill="#63b8ff" stroke="#63b8ff" points="140.27,-155.41 136.09,-145.67 133.28,-155.88 140.27,-155.41"/>
</a>
</g>
</g>
<!-- Node13&#45;&gt;Node2 -->
<g id="edge15_Node000013_Node000002" class="edge">
<title>Node13&#45;&gt;Node2</title>
<g id="a_edge15_Node000013_Node000002"><a xlink:title=" ">
<path fill="none" stroke="#63b8ff" d="M333.15,-186.87C316.18,-177.32 288.6,-161.81 268.71,-150.62"/>
<polygon fill="#63b8ff" stroke="#63b8ff" points="270.34,-147.52 259.91,-145.67 266.91,-153.62 270.34,-147.52"/>
</a>
</g>
</g>
<!-- Node14 -->
<g id="Node000014" class="node">
<title>Node14</title>
<g id="a_Node000014"><a xlink:title=" ">
<polygon fill="#e0e0e0" stroke="#999999" points="433.5,-151 329.5,-151 329.5,-121 433.5,-121 433.5,-151"/>
<text text-anchor="start" x="337.5" y="-139" font-family="Helvetica,sans-Serif" font-size="10.00">interfaces/service</text>
<text text-anchor="middle" x="381.5" y="-128" font-family="Helvetica,sans-Serif" font-size="10.00">_container.h</text>
</a>
</g>
</g>
<!-- Node13&#45;&gt;Node14 -->
<g id="edge16_Node000013_Node000014" class="edge">
<title>Node13&#45;&gt;Node14</title>
<g id="a_edge16_Node000013_Node000014"><a xlink:title=" ">
<path fill="none" stroke="#63b8ff" d="M353.37,-186.87C357.35,-179.81 363.17,-169.5 368.48,-160.08"/>
<polygon fill="#63b8ff" stroke="#63b8ff" points="371.67,-161.54 373.54,-151.11 365.58,-158.1 371.67,-161.54"/>
</a>
</g>
</g>
</g>
</svg>
