<?xml version="1.0" encoding="UTF-8" standalone="no"?>
<!DOCTYPE svg PUBLIC "-//W3C//DTD SVG 1.1//EN"
 "http://www.w3.org/Graphics/SVG/1.1/DTD/svg11.dtd">
<!-- Generated by graphviz version 2.43.0 (0)
 -->
<!-- Title: /home/runner/work/logger_system/logger_system/sources/logger/di/di_container_interface.h Pages: 1 -->
<svg width="548pt" height="456pt"
 viewBox="0.00 0.00 547.72 456.00" xmlns="http://www.w3.org/2000/svg" xmlns:xlink="http://www.w3.org/1999/xlink">
<g id="graph0" class="graph" transform="scale(1 1) rotate(0) translate(4 452)">
<title>/home/runner/work/logger_system/logger_system/sources/logger/di/di_container_interface.h</title>
<!-- Node1 -->
<g id="Node000001" class="node">
<title>Node1</title>
<g id="a_Node000001"><a xlink:title="Abstract interface for dependency injection container.">
<polygon fill="#999999" stroke="#666666" points="317,-448 134,-448 134,-407 317,-407 317,-448"/>
<text text-anchor="start" x="142" y="-436" font-family="Helvetica,sans-Serif" font-size="10.00">/home/runner/work/logger</text>
<text text-anchor="start" x="142" y="-425" font-family="Helvetica,sans-Serif" font-size="10.00">_system/logger_system/sources</text>
<text text-anchor="middle" x="225.5" y="-414" font-family="Helvetica,sans-Serif" font-size="10.00">/logger/di/di_container_interface.h</text>
</a>
</g>
</g>
<!-- Node2 -->
<g id="Node000002" class="node">
<title>Node2</title>
<g id="a_Node000002"><a xlink:href="logger__builder_8h.html" target="_top" xlink:title="Builder pattern implementation for flexible logger configuration.">
<polygon fill="white" stroke="#666666" points="173,-129 0,-129 0,-88 173,-88 173,-129"/>
<text text-anchor="start" x="8" y="-117" font-family="Helvetica,sans-Serif" font-size="10.00">/home/runner/work/logger</text>
<text text-anchor="start" x="8" y="-106" font-family="Helvetica,sans-Serif" font-size="10.00">_system/logger_system/sources</text>
<text text-anchor="middle" x="86.5" y="-95" font-family="Helvetica,sans-Serif" font-size="10.00">/logger/config/logger_builder.h</text>
</a>
</g>
</g>
<!-- Node1&#45;&gt;Node2 -->
<g id="edge1_Node000001_Node000002" class="edge">
<title>Node1&#45;&gt;Node2</title>
<g id="a_edge1_Node000001_Node000002"><a xlink:title=" ">
<path fill="none" stroke="#63b8ff" d="M144.41,-402.35C130.04,-394.55 116.73,-384.33 107.5,-371 54.99,-295.17 72.41,-175.69 81.99,-129.05"/>
<polygon fill="#63b8ff" stroke="#63b8ff" points="142.97,-405.54 153.47,-406.9 146.11,-399.29 142.97,-405.54"/>
</a>
</g>
</g>
<!-- Node4 -->
<g id="Node000004" class="node">
<title>Node4</title>
<g id="a_Node000004"><a xlink:href="di__container__factory_8h.html" target="_top" xlink:title="Factory for creating appropriate DI containers.">
<polygon fill="white" stroke="#666666" points="312,-283 139,-283 139,-242 312,-242 312,-283"/>
<text text-anchor="start" x="147" y="-271" font-family="Helvetica,sans-Serif" font-size="10.00">/home/runner/work/logger</text>
<text text-anchor="start" x="147" y="-260" font-family="Helvetica,sans-Serif" font-size="10.00">_system/logger_system/sources</text>
<text text-anchor="middle" x="225.5" y="-249" font-family="Helvetica,sans-Serif" font-size="10.00">/logger/di/di_container_factory.h</text>
</a>
</g>
</g>
<!-- Node1&#45;&gt;Node4 -->
<g id="edge3_Node000001_Node000004" class="edge">
<title>Node1&#45;&gt;Node4</title>
<g id="a_edge3_Node000001_Node000004"><a xlink:title=" ">
<path fill="none" stroke="#63b8ff" d="M152.93,-402.12C139.62,-394.29 127.44,-384.12 119.5,-371 107.53,-351.23 107.53,-338.77 119.5,-319 129.18,-303.01 145.15,-291.4 161.8,-283.07"/>
<polygon fill="#63b8ff" stroke="#63b8ff" points="151.34,-405.24 161.8,-406.93 154.68,-399.09 151.34,-405.24"/>
</a>
</g>
</g>
<!-- Node5 -->
<g id="Node000005" class="node">
<title>Node5</title>
<g id="a_Node000005"><a xlink:href="logger_8h.html" target="_top" xlink:title="High&#45;performance, thread&#45;safe logging system with asynchronous capabilities.">
<polygon fill="white" stroke="#666666" points="312,-206 139,-206 139,-165 312,-165 312,-206"/>
<text text-anchor="start" x="147" y="-194" font-family="Helvetica,sans-Serif" font-size="10.00">/home/runner/work/logger</text>
<text text-anchor="start" x="147" y="-183" font-family="Helvetica,sans-Serif" font-size="10.00">_system/logger_system/sources</text>
<text text-anchor="middle" x="225.5" y="-172" font-family="Helvetica,sans-Serif" font-size="10.00">/logger/logger.h</text>
</a>
</g>
</g>
<!-- Node1&#45;&gt;Node5 -->
<g id="edge12_Node000001_Node000005" class="edge">
<title>Node1&#45;&gt;Node5</title>
<g id="a_edge12_Node000001_Node000005"><a xlink:title=" ">
<path fill="none" stroke="#63b8ff" d="M327.16,-421.14C403.39,-414.75 498.67,-400.88 523.5,-371 592.43,-288.05 423.05,-231.52 312.32,-204.59"/>
<polygon fill="#63b8ff" stroke="#63b8ff" points="326.7,-417.67 317.01,-421.96 327.26,-424.65 326.7,-417.67"/>
</a>
</g>
</g>
<!-- Node7 -->
<g id="Node000007" class="node">
<title>Node7</title>
<g id="a_Node000007"><a xlink:href="lightweight__di__container_8h.html" target="_top" xlink:title="Lightweight dependency injection container implementation.">
<polygon fill="white" stroke="#666666" points="322.5,-365.5 128.5,-365.5 128.5,-324.5 322.5,-324.5 322.5,-365.5"/>
<text text-anchor="start" x="136.5" y="-353.5" font-family="Helvetica,sans-Serif" font-size="10.00">/home/runner/work/logger</text>
<text text-anchor="start" x="136.5" y="-342.5" font-family="Helvetica,sans-Serif" font-size="10.00">_system/logger_system/sources</text>
<text text-anchor="middle" x="225.5" y="-331.5" font-family="Helvetica,sans-Serif" font-size="10.00">/logger/di/lightweight_di_container.h</text>
</a>
</g>
</g>
<!-- Node1&#45;&gt;Node7 -->
<g id="edge8_Node000001_Node000007" class="edge">
<title>Node1&#45;&gt;Node7</title>
<g id="a_edge8_Node000001_Node000007"><a xlink:title=" ">
<path fill="none" stroke="#63b8ff" d="M225.5,-396.37C225.5,-386.1 225.5,-374.9 225.5,-365.67"/>
<polygon fill="#63b8ff" stroke="#63b8ff" points="222,-396.6 225.5,-406.6 229,-396.6 222,-396.6"/>
</a>
</g>
</g>
<!-- Node8 -->
<g id="Node000008" class="node">
<title>Node8</title>
<g id="a_Node000008"><a xlink:href="thread__system__di__adapter_8h.html" target="_top" xlink:title="Adapter for thread_system&#39;s service container.">
<polygon fill="white" stroke="#666666" points="514,-371 341,-371 341,-319 514,-319 514,-371"/>
<text text-anchor="start" x="349" y="-359" font-family="Helvetica,sans-Serif" font-size="10.00">/home/runner/work/logger</text>
<text text-anchor="start" x="349" y="-348" font-family="Helvetica,sans-Serif" font-size="10.00">_system/logger_system/sources</text>
<text text-anchor="start" x="349" y="-337" font-family="Helvetica,sans-Serif" font-size="10.00">/logger/di/thread_system_di</text>
<text text-anchor="middle" x="427.5" y="-326" font-family="Helvetica,sans-Serif" font-size="10.00">_adapter.h</text>
</a>
</g>
</g>
<!-- Node1&#45;&gt;Node8 -->
<g id="edge10_Node000001_Node000008" class="edge">
<title>Node1&#45;&gt;Node8</title>
<g id="a_edge10_Node000001_Node000008"><a xlink:title=" ">
<path fill="none" stroke="#63b8ff" d="M284.11,-403.14C309.37,-393.08 338.96,-381.29 364.67,-371.04"/>
<polygon fill="#63b8ff" stroke="#63b8ff" points="282.65,-399.96 274.66,-406.91 285.24,-406.46 282.65,-399.96"/>
</a>
</g>
</g>
<!-- Node3 -->
<g id="Node000003" class="node">
<title>Node3</title>
<g id="a_Node000003"><a xlink:href="logger__v1__compat_8h.html" target="_top" xlink:title="Compatibility wrapper for Logger System v1.x API.">
<polygon fill="white" stroke="#666666" points="230,-52 57,-52 57,0 230,0 230,-52"/>
<text text-anchor="start" x="65" y="-40" font-family="Helvetica,sans-Serif" font-size="10.00">/home/runner/work/logger</text>
<text text-anchor="start" x="65" y="-29" font-family="Helvetica,sans-Serif" font-size="10.00">_system/logger_system/sources</text>
<text text-anchor="start" x="65" y="-18" font-family="Helvetica,sans-Serif" font-size="10.00">/logger/compatibility/logger</text>
<text text-anchor="middle" x="143.5" y="-7" font-family="Helvetica,sans-Serif" font-size="10.00">_v1_compat.h</text>
</a>
</g>
</g>
<!-- Node2&#45;&gt;Node3 -->
<g id="edge2_Node000002_Node000003" class="edge">
<title>Node2&#45;&gt;Node3</title>
<g id="a_edge2_Node000002_Node000003"><a xlink:title=" ">
<path fill="none" stroke="#63b8ff" d="M106.38,-79.43C112.66,-70.55 119.56,-60.81 125.69,-52.16"/>
<polygon fill="#63b8ff" stroke="#63b8ff" points="103.51,-77.42 100.59,-87.6 109.23,-81.46 103.51,-77.42"/>
</a>
</g>
</g>
<!-- Node4&#45;&gt;Node5 -->
<g id="edge4_Node000004_Node000005" class="edge">
<title>Node4&#45;&gt;Node5</title>
<g id="a_edge4_Node000004_Node000005"><a xlink:title=" ">
<path fill="none" stroke="#63b8ff" d="M225.5,-231.69C225.5,-223.08 225.5,-213.9 225.5,-206.07"/>
<polygon fill="#63b8ff" stroke="#63b8ff" points="222,-231.79 225.5,-241.79 229,-231.79 222,-231.79"/>
</a>
</g>
</g>
<!-- Node5&#45;&gt;Node2 -->
<g id="edge6_Node000005_Node000002" class="edge">
<title>Node5&#45;&gt;Node2</title>
<g id="a_edge6_Node000005_Node000002"><a xlink:title=" ">
<path fill="none" stroke="#63b8ff" d="M180.45,-160.19C161.85,-150.15 140.56,-138.67 122.96,-129.17"/>
<polygon fill="#63b8ff" stroke="#63b8ff" points="178.88,-163.32 189.34,-164.99 182.2,-157.16 178.88,-163.32"/>
</a>
</g>
</g>
<!-- Node5&#45;&gt;Node3 -->
<g id="edge5_Node000005_Node000003" class="edge">
<title>Node5&#45;&gt;Node3</title>
<g id="a_edge5_Node000005_Node000003"><a xlink:title=" ">
<path fill="none" stroke="#63b8ff" d="M213.52,-155.69C205.17,-136.25 193.42,-110.21 181.5,-88 175.01,-75.91 167.08,-62.94 160.15,-52.09"/>
<polygon fill="#63b8ff" stroke="#63b8ff" points="210.32,-157.09 217.45,-164.92 216.76,-154.35 210.32,-157.09"/>
</a>
</g>
</g>
<!-- Node6 -->
<g id="Node000006" class="node">
<title>Node6</title>
<g id="a_Node000006"><a xlink:href="logger_8cpp.html" target="_top" xlink:title=" ">
<polygon fill="white" stroke="#666666" points="403,-129 230,-129 230,-88 403,-88 403,-129"/>
<text text-anchor="start" x="238" y="-117" font-family="Helvetica,sans-Serif" font-size="10.00">/home/runner/work/logger</text>
<text text-anchor="start" x="238" y="-106" font-family="Helvetica,sans-Serif" font-size="10.00">_system/logger_system/sources</text>
<text text-anchor="middle" x="316.5" y="-95" font-family="Helvetica,sans-Serif" font-size="10.00">/logger/logger.cpp</text>
</a>
</g>
</g>
<!-- Node5&#45;&gt;Node6 -->
<g id="edge7_Node000005_Node000006" class="edge">
<title>Node5&#45;&gt;Node6</title>
<g id="a_edge7_Node000005_Node000006"><a xlink:title=" ">
<path fill="none" stroke="#63b8ff" d="M257.23,-158.35C268.9,-148.73 281.9,-138.01 292.75,-129.07"/>
<polygon fill="#63b8ff" stroke="#63b8ff" points="254.9,-155.73 249.41,-164.79 259.35,-161.14 254.9,-155.73"/>
</a>
</g>
</g>
<!-- Node7&#45;&gt;Node4 -->
<g id="edge9_Node000007_Node000004" class="edge">
<title>Node7&#45;&gt;Node4</title>
<g id="a_edge9_Node000007_Node000004"><a xlink:title=" ">
<path fill="none" stroke="#63b8ff" d="M225.5,-313.87C225.5,-303.6 225.5,-292.4 225.5,-283.17"/>
<polygon fill="#63b8ff" stroke="#63b8ff" points="222,-314.1 225.5,-324.1 229,-314.1 222,-314.1"/>
</a>
</g>
</g>
<!-- Node8&#45;&gt;Node4 -->
<g id="edge11_Node000008_Node000004" class="edge">
<title>Node8&#45;&gt;Node4</title>
<g id="a_edge11_Node000008_Node000004"><a xlink:title=" ">
<path fill="none" stroke="#63b8ff" d="M355.34,-315.24C328.52,-304.56 298.74,-292.69 274.47,-283.02"/>
<polygon fill="#63b8ff" stroke="#63b8ff" points="354.11,-318.52 364.69,-318.97 356.7,-312.02 354.11,-318.52"/>
</a>
</g>
</g>
</g>
</svg>
