<?xml version="1.0" encoding="UTF-8" standalone="no"?>
<!DOCTYPE svg PUBLIC "-//W3C//DTD SVG 1.1//EN"
 "http://www.w3.org/Graphics/SVG/1.1/DTD/svg11.dtd">
<!-- Generated by graphviz version 2.43.0 (0)
 -->
<!-- Title: di_container_interface.h Pages: 1 -->
<svg width="361pt" height="247pt"
 viewBox="0.00 0.00 360.91 247.00" xmlns="http://www.w3.org/2000/svg" xmlns:xlink="http://www.w3.org/1999/xlink">
<g id="graph0" class="graph" transform="scale(1 1) rotate(0) translate(4 243)">
<title>di_container_interface.h</title>
<!-- Node1 -->
<g id="Node000001" class="node">
<title>Node1</title>
<g id="a_Node000001"><a xlink:title="Abstract interface for dependency injection container.">
<polygon fill="#999999" stroke="#666666" points="240.42,-239 106.42,-239 106.42,-220 240.42,-220 240.42,-239"/>
<text text-anchor="middle" x="173.42" y="-227" font-family="Helvetica,sans-Serif" font-size="10.00">di_container_interface.h</text>
</a>
</g>
</g>
<!-- Node2 -->
<g id="Node000002" class="node">
<title>Node2</title>
<g id="a_Node000002"><a xlink:href="di__container__factory_8h.html" target="_top" xlink:title="Factory for creating appropriate DI containers.">
<polygon fill="white" stroke="#666666" points="235.42,-129 111.42,-129 111.42,-110 235.42,-110 235.42,-129"/>
<text text-anchor="middle" x="173.42" y="-117" font-family="Helvetica,sans-Serif" font-size="10.00">di_container_factory.h</text>
</a>
</g>
</g>
<!-- Node1&#45;&gt;Node2 -->
<g id="edge1_Node000001_Node000002" class="edge">
<title>Node1&#45;&gt;Node2</title>
<g id="a_edge1_Node000001_Node000002"><a xlink:title=" ">
<path fill="none" stroke="#63b8ff" d="M96.32,-223.65C40.5,-217.06 -20.62,-201.55 7.42,-165 20.36,-148.13 70.33,-136.26 112.1,-129.04"/>
<polygon fill="#63b8ff" stroke="#63b8ff" points="95.98,-227.13 106.3,-224.74 96.74,-220.17 95.98,-227.13"/>
</a>
</g>
</g>
<!-- Node3 -->
<g id="Node000003" class="node">
<title>Node3</title>
<g id="a_Node000003"><a xlink:href="logger_8h.html" target="_top" xlink:title=" ">
<polygon fill="white" stroke="#666666" points="254.42,-74 198.42,-74 198.42,-55 254.42,-55 254.42,-74"/>
<text text-anchor="middle" x="226.42" y="-62" font-family="Helvetica,sans-Serif" font-size="10.00">logger.h</text>
</a>
</g>
</g>
<!-- Node1&#45;&gt;Node3 -->
<g id="edge7_Node000001_Node000003" class="edge">
<title>Node1&#45;&gt;Node3</title>
<g id="a_edge7_Node000001_Node000003"><a xlink:title=" ">
<path fill="none" stroke="#63b8ff" d="M247.82,-218.28C288.15,-211.05 332.2,-199.81 344.42,-184 379.49,-138.63 290.22,-92.74 247.59,-74.13"/>
<polygon fill="#63b8ff" stroke="#63b8ff" points="247.19,-214.83 237.94,-219.99 248.39,-221.73 247.19,-214.83"/>
</a>
</g>
</g>
<!-- Node6 -->
<g id="Node000006" class="node">
<title>Node6</title>
<g id="a_Node000006"><a xlink:href="lightweight__di__container_8h.html" target="_top" xlink:title="Lightweight dependency injection container implementation.">
<polygon fill="white" stroke="#666666" points="161.92,-184 16.92,-184 16.92,-165 161.92,-165 161.92,-184"/>
<text text-anchor="middle" x="89.42" y="-172" font-family="Helvetica,sans-Serif" font-size="10.00">lightweight_di_container.h</text>
</a>
</g>
</g>
<!-- Node1&#45;&gt;Node6 -->
<g id="edge5_Node000001_Node000006" class="edge">
<title>Node1&#45;&gt;Node6</title>
<g id="a_edge5_Node000001_Node000006"><a xlink:title=" ">
<path fill="none" stroke="#63b8ff" d="M151.11,-214.42C135.87,-204.81 116.16,-192.37 103.17,-184.17"/>
<polygon fill="#63b8ff" stroke="#63b8ff" points="149.6,-217.61 159.93,-219.98 153.34,-211.69 149.6,-217.61"/>
</a>
</g>
</g>
<!-- Node7 -->
<g id="Node000007" class="node">
<title>Node7</title>
<g id="a_Node000007"><a xlink:href="thread__system__di__adapter_8h.html" target="_top" xlink:title="Adapter for thread_system&#39;s service container.">
<polygon fill="white" stroke="#666666" points="334.92,-184 179.92,-184 179.92,-165 334.92,-165 334.92,-184"/>
<text text-anchor="middle" x="257.42" y="-172" font-family="Helvetica,sans-Serif" font-size="10.00">thread_system_di_adapter.h</text>
</a>
</g>
</g>
<!-- Node1&#45;&gt;Node7 -->
<g id="edge8_Node000001_Node000007" class="edge">
<title>Node1&#45;&gt;Node7</title>
<g id="a_edge8_Node000001_Node000007"><a xlink:title=" ">
<path fill="none" stroke="#63b8ff" d="M195.73,-214.42C210.98,-204.81 230.69,-192.37 243.68,-184.17"/>
<polygon fill="#63b8ff" stroke="#63b8ff" points="193.51,-211.69 186.92,-219.98 197.24,-217.61 193.51,-211.69"/>
</a>
</g>
</g>
<!-- Node2&#45;&gt;Node3 -->
<g id="edge2_Node000002_Node000003" class="edge">
<title>Node2&#45;&gt;Node3</title>
<g id="a_edge2_Node000002_Node000003"><a xlink:title=" ">
<path fill="none" stroke="#63b8ff" d="M189.4,-102.52C198.75,-93.18 210.17,-81.75 217.83,-74.09"/>
<polygon fill="#63b8ff" stroke="#63b8ff" points="186.77,-100.2 182.18,-109.75 191.72,-105.15 186.77,-100.2"/>
</a>
</g>
</g>
<!-- Node4 -->
<g id="Node000004" class="node">
<title>Node4</title>
<g id="a_Node000004"><a xlink:href="logger_8cpp.html" target="_top" xlink:title=" ">
<polygon fill="white" stroke="#666666" points="210.92,-19 143.92,-19 143.92,0 210.92,0 210.92,-19"/>
<text text-anchor="middle" x="177.42" y="-7" font-family="Helvetica,sans-Serif" font-size="10.00">logger.cpp</text>
</a>
</g>
</g>
<!-- Node3&#45;&gt;Node4 -->
<g id="edge3_Node000003_Node000004" class="edge">
<title>Node3&#45;&gt;Node4</title>
<g id="a_edge3_Node000003_Node000004"><a xlink:title=" ">
<path fill="none" stroke="#63b8ff" d="M211.39,-47.24C202.8,-37.95 192.38,-26.68 185.36,-19.09"/>
<polygon fill="#63b8ff" stroke="#63b8ff" points="208.97,-49.78 218.33,-54.75 214.11,-45.03 208.97,-49.78"/>
</a>
</g>
</g>
<!-- Node5 -->
<g id="Node000005" class="node">
<title>Node5</title>
<g id="a_Node000005"><a xlink:href="logger__builder_8h.html" target="_top" xlink:title=" ">
<polygon fill="white" stroke="#666666" points="323.92,-19 228.92,-19 228.92,0 323.92,0 323.92,-19"/>
<text text-anchor="middle" x="276.42" y="-7" font-family="Helvetica,sans-Serif" font-size="10.00">logger_builder.h</text>
</a>
</g>
</g>
<!-- Node3&#45;&gt;Node5 -->
<g id="edge4_Node000003_Node000005" class="edge">
<title>Node3&#45;&gt;Node5</title>
<g id="a_edge4_Node000003_Node000005"><a xlink:title=" ">
<path fill="none" stroke="#63b8ff" d="M241.77,-47.24C250.53,-37.95 261.16,-26.68 268.32,-19.09"/>
<polygon fill="#63b8ff" stroke="#63b8ff" points="239,-45.07 234.68,-54.75 244.09,-49.88 239,-45.07"/>
</a>
</g>
</g>
<!-- Node6&#45;&gt;Node2 -->
<g id="edge6_Node000006_Node000002" class="edge">
<title>Node6&#45;&gt;Node2</title>
<g id="a_edge6_Node000006_Node000002"><a xlink:title=" ">
<path fill="none" stroke="#63b8ff" d="M111.73,-159.42C126.98,-149.81 146.69,-137.37 159.68,-129.17"/>
<polygon fill="#63b8ff" stroke="#63b8ff" points="109.51,-156.69 102.92,-164.98 113.24,-162.61 109.51,-156.69"/>
</a>
</g>
</g>
<!-- Node7&#45;&gt;Node2 -->
<g id="edge9_Node000007_Node000002" class="edge">
<title>Node7&#45;&gt;Node2</title>
<g id="a_edge9_Node000007_Node000002"><a xlink:title=" ">
<path fill="none" stroke="#63b8ff" d="M235.11,-159.42C219.87,-149.81 200.16,-137.37 187.17,-129.17"/>
<polygon fill="#63b8ff" stroke="#63b8ff" points="233.6,-162.61 243.93,-164.98 237.34,-156.69 233.6,-162.61"/>
</a>
</g>
</g>
</g>
</svg>
