<?xml version="1.0" encoding="UTF-8" standalone="no"?>
<!DOCTYPE svg PUBLIC "-//W3C//DTD SVG 1.1//EN"
 "http://www.w3.org/Graphics/SVG/1.1/DTD/svg11.dtd">
<!-- Generated by graphviz version 2.43.0 (0)
 -->
<!-- Title: logger Pages: 1 -->
<svg width="568pt" height="259pt"
 viewBox="0.00 0.00 568.00 259.00" xmlns="http://www.w3.org/2000/svg" xmlns:xlink="http://www.w3.org/1999/xlink">
<g id="graph0" class="graph" transform="scale(1 1) rotate(0) translate(4 255)">
<title>logger</title>
<g id="clust1" class="cluster">
<title>clusterdir_08d237fc27d4ecd563f71c5d52f2fecc</title>
<g id="a_clust1"><a xlink:href="dir_08d237fc27d4ecd563f71c5d52f2fecc.html" target="_top" xlink:title="sources">
<polygon fill="#edf3f7" stroke="#404040" stroke-dasharray="5,2" points="8,-8 8,-243 552,-243 552,-8 8,-8"/>
<text text-anchor="middle" x="280" y="-231" font-family="Helvetica,sans-Serif" font-size="10.00">sources</text>
</a>
</g>
</g>
<g id="clust2" class="cluster">
<title>clusterdir_8eafc3c8aa7c38e9ae7a32faf8deec41</title>
<g id="a_clust2"><a xlink:href="dir_8eafc3c8aa7c38e9ae7a32faf8deec41.html" target="_top">
<polygon fill="#edf3f7" stroke="#404040" stroke-width="2" points="16,-16 16,-216 544,-216 544,-16 16,-16"/>
</a>
</g>
</g>
<!-- dir_8eafc3c8aa7c38e9ae7a32faf8deec41 -->
<g id="node1" class="node">
<title>dir_8eafc3c8aa7c38e9ae7a32faf8deec41</title>
<text text-anchor="middle" x="457" y="-196" font-family="Helvetica,sans-Serif" font-size="10.00">logger</text>
</g>
<!-- dir_615539a9e62276cb0b6ca0873afe0352 -->
<g id="node4" class="node">
<title>dir_615539a9e62276cb0b6ca0873afe0352</title>
<g id="a_node4"><a xlink:href="dir_615539a9e62276cb0b6ca0873afe0352.html" target="_top" xlink:title="core">
<polygon fill="#a2c5d6" stroke="#404040" points="62,-153 24,-153 24,-134 62,-134 62,-153"/>
<text text-anchor="middle" x="43" y="-141" font-family="Helvetica,sans-Serif" font-size="10.00">core</text>
</a>
</g>
</g>
<!-- dir_8eafc3c8aa7c38e9ae7a32faf8deec41&#45;&gt;dir_615539a9e62276cb0b6ca0873afe0352 -->
<g id="edge3" class="edge">
<title>dir_8eafc3c8aa7c38e9ae7a32faf8deec41&#45;&gt;dir_615539a9e62276cb0b6ca0873afe0352</title>
<g id="a_edge3"><a xlink:href="dir_000010_000002.html" target="_top">
<path fill="none" stroke="#63b8ff" d="M433.33,-190.78C430.53,-190.12 427.71,-189.5 425,-189 278.2,-161.76 238.82,-174.03 91,-153 84.88,-152.13 78.35,-151.06 72.13,-149.99"/>
<polygon fill="#63b8ff" stroke="#63b8ff" points="72.57,-146.51 62.11,-148.19 71.33,-153.4 72.57,-146.51"/>
</a>
</g>
<g id="a_edge3&#45;headlabel"><a xlink:href="dir_000010_000002.html" target="_top" xlink:title="3">
<text text-anchor="middle" x="76.6" y="-141.85" font-family="Helvetica,sans-Serif" font-size="10.00" fill="#63b8ff">3</text>
</a>
</g>
</g>
<!-- dir_668fc57c06f3cd1944d40bde66bdac3e -->
<g id="node5" class="node">
<title>dir_668fc57c06f3cd1944d40bde66bdac3e</title>
<g id="a_node5"><a xlink:href="dir_668fc57c06f3cd1944d40bde66bdac3e.html" target="_top" xlink:title="di">
<polygon fill="#a2c5d6" stroke="#404040" points="301.5,-153 272.5,-153 272.5,-134 301.5,-134 301.5,-153"/>
<text text-anchor="middle" x="287" y="-141" font-family="Helvetica,sans-Serif" font-size="10.00">di</text>
</a>
</g>
</g>
<!-- dir_8eafc3c8aa7c38e9ae7a32faf8deec41&#45;&gt;dir_668fc57c06f3cd1944d40bde66bdac3e -->
<g id="edge4" class="edge">
<title>dir_8eafc3c8aa7c38e9ae7a32faf8deec41&#45;&gt;dir_668fc57c06f3cd1944d40bde66bdac3e</title>
<g id="a_edge4"><a xlink:href="dir_000010_000003.html" target="_top">
<path fill="none" stroke="#63b8ff" d="M433.38,-190.65C406.24,-182.71 360.14,-168.99 311.45,-153.04"/>
<polygon fill="#63b8ff" stroke="#63b8ff" points="312.28,-149.62 301.69,-149.82 310.09,-156.27 312.28,-149.62"/>
</a>
</g>
<g id="a_edge4&#45;headlabel"><a xlink:href="dir_000010_000003.html" target="_top" xlink:title="2">
<text text-anchor="middle" x="316.58" y="-145.55" font-family="Helvetica,sans-Serif" font-size="10.00" fill="#63b8ff">2</text>
</a>
</g>
</g>
<!-- dir_ac85e915568203497774caa1d502ef50 -->
<g id="node6" class="node">
<title>dir_ac85e915568203497774caa1d502ef50</title>
<g id="a_node6"><a xlink:href="dir_ac85e915568203497774caa1d502ef50.html" target="_top" xlink:title="filters">
<polygon fill="#a2c5d6" stroke="#404040" points="373,-98 329,-98 329,-79 373,-79 373,-98"/>
<text text-anchor="middle" x="351" y="-86" font-family="Helvetica,sans-Serif" font-size="10.00">filters</text>
</a>
</g>
</g>
<!-- dir_8eafc3c8aa7c38e9ae7a32faf8deec41&#45;&gt;dir_ac85e915568203497774caa1d502ef50 -->
<g id="edge6" class="edge">
<title>dir_8eafc3c8aa7c38e9ae7a32faf8deec41&#45;&gt;dir_ac85e915568203497774caa1d502ef50</title>
<g id="a_edge6"><a xlink:href="dir_000010_000005.html" target="_top">
<path fill="none" stroke="#63b8ff" d="M478.77,-188.96C504.63,-177.56 542.24,-156.2 525,-134 507.75,-111.78 428.37,-98.77 383.01,-93.03"/>
<polygon fill="#63b8ff" stroke="#63b8ff" points="383.43,-89.56 373.08,-91.82 382.58,-96.51 383.43,-89.56"/>
</a>
</g>
<g id="a_edge6&#45;headlabel"><a xlink:href="dir_000010_000005.html" target="_top" xlink:title="4">
<text text-anchor="middle" x="387.34" y="-84.68" font-family="Helvetica,sans-Serif" font-size="10.00" fill="#63b8ff">4</text>
</a>
</g>
</g>
<!-- dir_af4980372a35cc2033ba16b21abe210c -->
<g id="node11" class="node">
<title>dir_af4980372a35cc2033ba16b21abe210c</title>
<g id="a_node11"><a xlink:href="dir_af4980372a35cc2033ba16b21abe210c.html" target="_top" xlink:title="metrics">
<polygon fill="#a2c5d6" stroke="#404040" points="441.5,-153 388.5,-153 388.5,-134 441.5,-134 441.5,-153"/>
<text text-anchor="middle" x="415" y="-141" font-family="Helvetica,sans-Serif" font-size="10.00">metrics</text>
</a>
</g>
</g>
<!-- dir_8eafc3c8aa7c38e9ae7a32faf8deec41&#45;&gt;dir_af4980372a35cc2033ba16b21abe210c -->
<g id="edge7" class="edge">
<title>dir_8eafc3c8aa7c38e9ae7a32faf8deec41&#45;&gt;dir_af4980372a35cc2033ba16b21abe210c</title>
<g id="a_edge7"><a xlink:href="dir_000010_000011.html" target="_top">
<path fill="none" stroke="#63b8ff" d="M450.06,-188.75C444.13,-181.26 435.43,-170.28 428.18,-161.13"/>
<polygon fill="#63b8ff" stroke="#63b8ff" points="430.76,-158.75 421.81,-153.09 425.27,-163.1 430.76,-158.75"/>
</a>
</g>
<g id="a_edge7&#45;headlabel"><a xlink:href="dir_000010_000011.html" target="_top" xlink:title="1">
<text text-anchor="middle" x="435.22" y="-157.31" font-family="Helvetica,sans-Serif" font-size="10.00" fill="#63b8ff">1</text>
</a>
</g>
</g>
<!-- dir_6efac90e5e4bf18ab5886c2fdf81f437 -->
<g id="node12" class="node">
<title>dir_6efac90e5e4bf18ab5886c2fdf81f437</title>
<g id="a_node12"><a xlink:href="dir_6efac90e5e4bf18ab5886c2fdf81f437.html" target="_top" xlink:title="monitoring">
<polygon fill="#a2c5d6" stroke="#404040" points="170,-153 100,-153 100,-134 170,-134 170,-153"/>
<text text-anchor="middle" x="135" y="-141" font-family="Helvetica,sans-Serif" font-size="10.00">monitoring</text>
</a>
</g>
</g>
<!-- dir_8eafc3c8aa7c38e9ae7a32faf8deec41&#45;&gt;dir_6efac90e5e4bf18ab5886c2fdf81f437 -->
<g id="edge5" class="edge">
<title>dir_8eafc3c8aa7c38e9ae7a32faf8deec41&#45;&gt;dir_6efac90e5e4bf18ab5886c2fdf81f437</title>
<g id="a_edge5"><a xlink:href="dir_000010_000012.html" target="_top">
<path fill="none" stroke="#63b8ff" d="M433.3,-190.89C430.52,-190.21 427.7,-189.56 425,-189 318.95,-167.06 290.92,-170.26 184,-153 182.73,-152.79 181.44,-152.58 180.14,-152.37"/>
<polygon fill="#63b8ff" stroke="#63b8ff" points="180.49,-148.88 170.05,-150.68 179.33,-155.78 180.49,-148.88"/>
</a>
</g>
<g id="a_edge5&#45;headlabel"><a xlink:href="dir_000010_000012.html" target="_top" xlink:title="3">
<text text-anchor="middle" x="184.5" y="-144.17" font-family="Helvetica,sans-Serif" font-size="10.00" fill="#63b8ff">3</text>
</a>
</g>
</g>
<!-- dir_542ee1dd370f188543512ad572d980d6 -->
<g id="node13" class="node">
<title>dir_542ee1dd370f188543512ad572d980d6</title>
<g id="a_node13"><a xlink:href="dir_542ee1dd370f188543512ad572d980d6.html" target="_top" xlink:title="routing">
<polygon fill="#a2c5d6" stroke="#404040" points="370.5,-153 319.5,-153 319.5,-134 370.5,-134 370.5,-153"/>
<text text-anchor="middle" x="345" y="-141" font-family="Helvetica,sans-Serif" font-size="10.00">routing</text>
</a>
</g>
</g>
<!-- dir_8eafc3c8aa7c38e9ae7a32faf8deec41&#45;&gt;dir_542ee1dd370f188543512ad572d980d6 -->
<g id="edge2" class="edge">
<title>dir_8eafc3c8aa7c38e9ae7a32faf8deec41&#45;&gt;dir_542ee1dd370f188543512ad572d980d6</title>
<g id="a_edge2"><a xlink:href="dir_000010_000013.html" target="_top">
<path fill="none" stroke="#63b8ff" d="M439.01,-188.98C421.07,-180.5 393.28,-167.35 372.57,-157.54"/>
<polygon fill="#63b8ff" stroke="#63b8ff" points="373.86,-154.28 363.32,-153.17 370.86,-160.61 373.86,-154.28"/>
</a>
</g>
<g id="a_edge2&#45;headlabel"><a xlink:href="dir_000010_000013.html" target="_top" xlink:title="1">
<text text-anchor="middle" x="378.32" y="-150.76" font-family="Helvetica,sans-Serif" font-size="10.00" fill="#63b8ff">1</text>
</a>
</g>
</g>
<!-- dir_23bf73740d51936c1f86d2a06c48ee6a -->
<g id="node18" class="node">
<title>dir_23bf73740d51936c1f86d2a06c48ee6a</title>
<g id="a_node18"><a xlink:href="dir_23bf73740d51936c1f86d2a06c48ee6a.html" target="_top" xlink:title="writers">
<polygon fill="#a2c5d6" stroke="#404040" points="205,-98 155,-98 155,-79 205,-79 205,-98"/>
<text text-anchor="middle" x="180" y="-86" font-family="Helvetica,sans-Serif" font-size="10.00">writers</text>
</a>
</g>
</g>
<!-- dir_8eafc3c8aa7c38e9ae7a32faf8deec41&#45;&gt;dir_23bf73740d51936c1f86d2a06c48ee6a -->
<g id="edge1" class="edge">
<title>dir_8eafc3c8aa7c38e9ae7a32faf8deec41&#45;&gt;dir_23bf73740d51936c1f86d2a06c48ee6a</title>
<g id="a_edge1"><a xlink:href="dir_000010_000019.html" target="_top">
<path fill="none" stroke="#63b8ff" d="M433.3,-190.92C430.51,-190.23 427.7,-189.57 425,-189 325.5,-167.92 275.53,-219.99 199,-153 186.43,-142 182.01,-123.05 180.53,-108.71"/>
<polygon fill="#63b8ff" stroke="#63b8ff" points="184.01,-108.19 179.88,-98.43 177.02,-108.63 184.01,-108.19"/>
</a>
</g>
<g id="a_edge1&#45;headlabel"><a xlink:href="dir_000010_000019.html" target="_top" xlink:title="6">
<text text-anchor="middle" x="187.07" y="-109.1" font-family="Helvetica,sans-Serif" font-size="10.00" fill="#63b8ff">6</text>
</a>
</g>
</g>
<!-- dir_45a02bcc868d58485d680c85bfaf465d -->
<g id="node2" class="node">
<title>dir_45a02bcc868d58485d680c85bfaf465d</title>
<g id="a_node2"><a xlink:href="dir_45a02bcc868d58485d680c85bfaf465d.html" target="_top" xlink:title="analysis">
<polygon fill="#a2c5d6" stroke="#404040" points="415.5,-208 358.5,-208 358.5,-189 415.5,-189 415.5,-208"/>
<text text-anchor="middle" x="387" y="-196" font-family="Helvetica,sans-Serif" font-size="10.00">analysis</text>
</a>
</g>
</g>
<!-- dir_85634e65fefe8c8dcb3d84124f55c94a -->
<g id="node3" class="node">
<title>dir_85634e65fefe8c8dcb3d84124f55c94a</title>
<g id="a_node3"><a xlink:href="dir_85634e65fefe8c8dcb3d84124f55c94a.html" target="_top" xlink:title="config">
<polygon fill="#a2c5d6" stroke="#404040" points="254,-153 208,-153 208,-134 254,-134 254,-153"/>
<text text-anchor="middle" x="231" y="-141" font-family="Helvetica,sans-Serif" font-size="10.00">config</text>
</a>
</g>
</g>
<!-- dir_85634e65fefe8c8dcb3d84124f55c94a&#45;&gt;dir_ac85e915568203497774caa1d502ef50 -->
<g id="edge9" class="edge">
<title>dir_85634e65fefe8c8dcb3d84124f55c94a&#45;&gt;dir_ac85e915568203497774caa1d502ef50</title>
<g id="a_edge9"><a xlink:href="dir_000001_000005.html" target="_top">
<path fill="none" stroke="#63b8ff" d="M250.28,-133.98C269.67,-125.42 299.81,-112.11 322.07,-102.28"/>
<polygon fill="#63b8ff" stroke="#63b8ff" points="323.64,-105.41 331.37,-98.17 320.81,-99.01 323.64,-105.41"/>
</a>
</g>
<g id="a_edge9&#45;headlabel"><a xlink:href="dir_000001_000005.html" target="_top" xlink:title="1">
<text text-anchor="middle" x="321.49" y="-106.96" font-family="Helvetica,sans-Serif" font-size="10.00" fill="#63b8ff">1</text>
</a>
</g>
</g>
<!-- dir_d08dd0d232defddea2975cfbbcf0e0b0 -->
<g id="node10" class="node">
<title>dir_d08dd0d232defddea2975cfbbcf0e0b0</title>
<g id="a_node10"><a xlink:href="dir_d08dd0d232defddea2975cfbbcf0e0b0.html" target="_top" xlink:title="interfaces">
<polygon fill="#a2c5d6" stroke="#404040" points="234.5,-43 169.5,-43 169.5,-24 234.5,-24 234.5,-43"/>
<text text-anchor="middle" x="202" y="-31" font-family="Helvetica,sans-Serif" font-size="10.00">interfaces</text>
</a>
</g>
</g>
<!-- dir_85634e65fefe8c8dcb3d84124f55c94a&#45;&gt;dir_d08dd0d232defddea2975cfbbcf0e0b0 -->
<g id="edge10" class="edge">
<title>dir_85634e65fefe8c8dcb3d84124f55c94a&#45;&gt;dir_d08dd0d232defddea2975cfbbcf0e0b0</title>
<g id="a_edge10"><a xlink:href="dir_000001_000009.html" target="_top">
<path fill="none" stroke="#63b8ff" d="M228.7,-133.87C225.43,-121.65 219.27,-98.62 214,-79 211.69,-70.39 209.12,-60.85 206.95,-52.82"/>
<polygon fill="#63b8ff" stroke="#63b8ff" points="210.29,-51.77 204.31,-43.03 203.53,-53.6 210.29,-51.77"/>
</a>
</g>
<g id="a_edge10&#45;headlabel"><a xlink:href="dir_000001_000009.html" target="_top" xlink:title="1">
<text text-anchor="middle" x="213.97" y="-52" font-family="Helvetica,sans-Serif" font-size="10.00" fill="#63b8ff">1</text>
</a>
</g>
</g>
<!-- dir_85634e65fefe8c8dcb3d84124f55c94a&#45;&gt;dir_23bf73740d51936c1f86d2a06c48ee6a -->
<g id="edge8" class="edge">
<title>dir_85634e65fefe8c8dcb3d84124f55c94a&#45;&gt;dir_23bf73740d51936c1f86d2a06c48ee6a</title>
<g id="a_edge8"><a xlink:href="dir_000001_000019.html" target="_top">
<path fill="none" stroke="#63b8ff" d="M222.58,-133.75C215.23,-126.11 204.37,-114.82 195.46,-105.56"/>
<polygon fill="#63b8ff" stroke="#63b8ff" points="197.72,-102.87 188.26,-98.09 192.68,-107.72 197.72,-102.87"/>
</a>
</g>
<g id="a_edge8&#45;headlabel"><a xlink:href="dir_000001_000019.html" target="_top" xlink:title="2">
<text text-anchor="middle" x="202.26" y="-100.99" font-family="Helvetica,sans-Serif" font-size="10.00" fill="#63b8ff">2</text>
</a>
</g>
</g>
<!-- dir_615539a9e62276cb0b6ca0873afe0352&#45;&gt;dir_d08dd0d232defddea2975cfbbcf0e0b0 -->
<g id="edge12" class="edge">
<title>dir_615539a9e62276cb0b6ca0873afe0352&#45;&gt;dir_d08dd0d232defddea2975cfbbcf0e0b0</title>
<g id="a_edge12"><a xlink:href="dir_000002_000009.html" target="_top">
<path fill="none" stroke="#63b8ff" d="M52.1,-133.66C76.22,-114.9 140.64,-70.96 176.83,-48.4"/>
<polygon fill="#63b8ff" stroke="#63b8ff" points="178.68,-51.37 185.37,-43.16 175.02,-45.41 178.68,-51.37"/>
</a>
</g>
<g id="a_edge12&#45;headlabel"><a xlink:href="dir_000002_000009.html" target="_top" xlink:title="1">
<text text-anchor="middle" x="177.1" y="-53.17" font-family="Helvetica,sans-Serif" font-size="10.00" fill="#63b8ff">1</text>
</a>
</g>
</g>
<!-- dir_615539a9e62276cb0b6ca0873afe0352&#45;&gt;dir_23bf73740d51936c1f86d2a06c48ee6a -->
<g id="edge11" class="edge">
<title>dir_615539a9e62276cb0b6ca0873afe0352&#45;&gt;dir_23bf73740d51936c1f86d2a06c48ee6a</title>
<g id="a_edge11"><a xlink:href="dir_000002_000019.html" target="_top">
<path fill="none" stroke="#63b8ff" d="M62.05,-135.13C84.35,-126.5 121.61,-112.09 148.29,-101.77"/>
<polygon fill="#63b8ff" stroke="#63b8ff" points="149.88,-104.91 157.94,-98.03 147.35,-98.38 149.88,-104.91"/>
</a>
</g>
<g id="a_edge11&#45;headlabel"><a xlink:href="dir_000002_000019.html" target="_top" xlink:title="1">
<text text-anchor="middle" x="147.55" y="-106.35" font-family="Helvetica,sans-Serif" font-size="10.00" fill="#63b8ff">1</text>
</a>
</g>
</g>
<!-- dir_ac85e915568203497774caa1d502ef50&#45;&gt;dir_d08dd0d232defddea2975cfbbcf0e0b0 -->
<g id="edge13" class="edge">
<title>dir_ac85e915568203497774caa1d502ef50&#45;&gt;dir_d08dd0d232defddea2975cfbbcf0e0b0</title>
<g id="a_edge13"><a xlink:href="dir_000005_000009.html" target="_top">
<path fill="none" stroke="#63b8ff" d="M328.69,-79.57C304,-70.78 263.94,-56.53 235.48,-46.41"/>
<polygon fill="#63b8ff" stroke="#63b8ff" points="236.54,-43.07 225.94,-43.02 234.19,-49.67 236.54,-43.07"/>
</a>
</g>
<g id="a_edge13&#45;headlabel"><a xlink:href="dir_000005_000009.html" target="_top" xlink:title="2">
<text text-anchor="middle" x="240.87" y="-39.1" font-family="Helvetica,sans-Serif" font-size="10.00" fill="#63b8ff">2</text>
</a>
</g>
</g>
<!-- dir_15006aae97b2163204788bf1ead5ba39 -->
<g id="node7" class="node">
<title>dir_15006aae97b2163204788bf1ead5ba39</title>
<g id="a_node7"><a xlink:href="dir_15006aae97b2163204788bf1ead5ba39.html" target="_top" xlink:title="flow">
<polygon fill="#a2c5d6" stroke="#404040" points="340.5,-208 303.5,-208 303.5,-189 340.5,-189 340.5,-208"/>
<text text-anchor="middle" x="322" y="-196" font-family="Helvetica,sans-Serif" font-size="10.00">flow</text>
</a>
</g>
</g>
<!-- dir_080ce305e125670f6ab75927669779d1 -->
<g id="node8" class="node">
<title>dir_080ce305e125670f6ab75927669779d1</title>
<g id="a_node8"><a xlink:href="dir_080ce305e125670f6ab75927669779d1.html" target="_top" xlink:title="formatters">
<polygon fill="#a2c5d6" stroke="#404040" points="311,-98 243,-98 243,-79 311,-79 311,-98"/>
<text text-anchor="middle" x="277" y="-86" font-family="Helvetica,sans-Serif" font-size="10.00">formatters</text>
</a>
</g>
</g>
<!-- dir_080ce305e125670f6ab75927669779d1&#45;&gt;dir_d08dd0d232defddea2975cfbbcf0e0b0 -->
<g id="edge14" class="edge">
<title>dir_080ce305e125670f6ab75927669779d1&#45;&gt;dir_d08dd0d232defddea2975cfbbcf0e0b0</title>
<g id="a_edge14"><a xlink:href="dir_000007_000009.html" target="_top">
<path fill="none" stroke="#63b8ff" d="M264.95,-78.98C253.54,-70.92 236.17,-58.65 222.57,-49.03"/>
<polygon fill="#63b8ff" stroke="#63b8ff" points="224.46,-46.08 214.27,-43.17 220.42,-51.8 224.46,-46.08"/>
</a>
</g>
<g id="a_edge14&#45;headlabel"><a xlink:href="dir_000007_000009.html" target="_top" xlink:title="2">
<text text-anchor="middle" x="229.03" y="-43.34" font-family="Helvetica,sans-Serif" font-size="10.00" fill="#63b8ff">2</text>
</a>
</g>
</g>
<!-- dir_3c7ebb16ff457ab6cd2a5681ba1a139d -->
<g id="node9" class="node">
<title>dir_3c7ebb16ff457ab6cd2a5681ba1a139d</title>
<g id="a_node9"><a xlink:href="dir_3c7ebb16ff457ab6cd2a5681ba1a139d.html" target="_top" xlink:title="health">
<polygon fill="#a2c5d6" stroke="#404040" points="285.5,-208 238.5,-208 238.5,-189 285.5,-189 285.5,-208"/>
<text text-anchor="middle" x="262" y="-196" font-family="Helvetica,sans-Serif" font-size="10.00">health</text>
</a>
</g>
</g>
<!-- dir_3c7ebb16ff457ab6cd2a5681ba1a139d&#45;&gt;dir_615539a9e62276cb0b6ca0873afe0352 -->
<g id="edge16" class="edge">
<title>dir_3c7ebb16ff457ab6cd2a5681ba1a139d&#45;&gt;dir_615539a9e62276cb0b6ca0873afe0352</title>
<g id="a_edge16"><a xlink:href="dir_000008_000002.html" target="_top">
<path fill="none" stroke="#63b8ff" d="M238.25,-191.11C235.48,-190.38 232.68,-189.67 230,-189 161.8,-171.98 144.26,-169.77 76,-153 74.74,-152.69 73.45,-152.37 72.15,-152.05"/>
<polygon fill="#63b8ff" stroke="#63b8ff" points="72.73,-148.58 62.18,-149.52 71.01,-155.37 72.73,-148.58"/>
</a>
</g>
<g id="a_edge16&#45;headlabel"><a xlink:href="dir_000008_000002.html" target="_top" xlink:title="1">
<text text-anchor="middle" x="76.91" y="-144.21" font-family="Helvetica,sans-Serif" font-size="10.00" fill="#63b8ff">1</text>
</a>
</g>
</g>
<!-- dir_3c7ebb16ff457ab6cd2a5681ba1a139d&#45;&gt;dir_6efac90e5e4bf18ab5886c2fdf81f437 -->
<g id="edge17" class="edge">
<title>dir_3c7ebb16ff457ab6cd2a5681ba1a139d&#45;&gt;dir_6efac90e5e4bf18ab5886c2fdf81f437</title>
<g id="a_edge17"><a xlink:href="dir_000008_000012.html" target="_top">
<path fill="none" stroke="#63b8ff" d="M241.6,-188.98C220.98,-180.38 188.89,-166.99 165.31,-157.15"/>
<polygon fill="#63b8ff" stroke="#63b8ff" points="166.35,-153.79 155.78,-153.17 163.66,-160.25 166.35,-153.79"/>
</a>
</g>
<g id="a_edge17&#45;headlabel"><a xlink:href="dir_000008_000012.html" target="_top" xlink:title="1">
<text text-anchor="middle" x="170.76" y="-150.06" font-family="Helvetica,sans-Serif" font-size="10.00" fill="#63b8ff">1</text>
</a>
</g>
</g>
<!-- dir_3c7ebb16ff457ab6cd2a5681ba1a139d&#45;&gt;dir_23bf73740d51936c1f86d2a06c48ee6a -->
<g id="edge15" class="edge">
<title>dir_3c7ebb16ff457ab6cd2a5681ba1a139d&#45;&gt;dir_23bf73740d51936c1f86d2a06c48ee6a</title>
<g id="a_edge15"><a xlink:href="dir_000008_000019.html" target="_top">
<path fill="none" stroke="#63b8ff" d="M238.24,-191.17C235.46,-190.44 232.67,-189.7 230,-189 168.27,-172.81 130.06,-203.47 91,-153 72.21,-128.72 112.7,-109.77 145.06,-99.11"/>
<polygon fill="#63b8ff" stroke="#63b8ff" points="146.27,-102.4 154.77,-96.07 144.18,-95.72 146.27,-102.4"/>
</a>
</g>
<g id="a_edge15&#45;headlabel"><a xlink:href="dir_000008_000019.html" target="_top" xlink:title="1">
<text text-anchor="middle" x="143.69" y="-103.68" font-family="Helvetica,sans-Serif" font-size="10.00" fill="#63b8ff">1</text>
</a>
</g>
</g>
<!-- dir_d08dd0d232defddea2975cfbbcf0e0b0&#45;&gt;dir_615539a9e62276cb0b6ca0873afe0352 -->
<g id="edge18" class="edge">
<title>dir_d08dd0d232defddea2975cfbbcf0e0b0&#45;&gt;dir_615539a9e62276cb0b6ca0873afe0352</title>
<g id="a_edge18"><a xlink:href="dir_000009_000002.html" target="_top">
<path fill="none" stroke="#63b8ff" d="M193.08,-43.2C169.1,-61.88 104.47,-105.97 68.19,-128.59"/>
<polygon fill="#63b8ff" stroke="#63b8ff" points="66.31,-125.63 59.62,-133.84 69.97,-131.6 66.31,-125.63"/>
</a>
</g>
<g id="a_edge18&#45;headlabel"><a xlink:href="dir_000009_000002.html" target="_top" xlink:title="1">
<text text-anchor="middle" x="67.89" y="-118.83" font-family="Helvetica,sans-Serif" font-size="10.00" fill="#63b8ff">1</text>
</a>
</g>
</g>
<!-- dir_542ee1dd370f188543512ad572d980d6&#45;&gt;dir_ac85e915568203497774caa1d502ef50 -->
<g id="edge20" class="edge">
<title>dir_542ee1dd370f188543512ad572d980d6&#45;&gt;dir_ac85e915568203497774caa1d502ef50</title>
<g id="a_edge20"><a xlink:href="dir_000013_000005.html" target="_top">
<path fill="none" stroke="#63b8ff" d="M345.99,-133.75C346.78,-126.8 347.9,-116.85 348.89,-108.13"/>
<polygon fill="#63b8ff" stroke="#63b8ff" points="352.38,-108.42 350.03,-98.09 345.42,-107.63 352.38,-108.42"/>
</a>
</g>
<g id="a_edge20&#45;headlabel"><a xlink:href="dir_000013_000005.html" target="_top" xlink:title="1">
<text text-anchor="middle" x="354.8" y="-109.81" font-family="Helvetica,sans-Serif" font-size="10.00" fill="#63b8ff">1</text>
</a>
</g>
</g>
<!-- dir_542ee1dd370f188543512ad572d980d6&#45;&gt;dir_23bf73740d51936c1f86d2a06c48ee6a -->
<g id="edge19" class="edge">
<title>dir_542ee1dd370f188543512ad572d980d6&#45;&gt;dir_23bf73740d51936c1f86d2a06c48ee6a</title>
<g id="a_edge19"><a xlink:href="dir_000013_000019.html" target="_top">
<path fill="none" stroke="#63b8ff" d="M319.22,-134.22C291.08,-125.18 245.89,-110.67 214.67,-100.64"/>
<polygon fill="#63b8ff" stroke="#63b8ff" points="215.65,-97.28 205.06,-97.55 213.51,-103.94 215.65,-97.28"/>
</a>
</g>
<g id="a_edge19&#45;headlabel"><a xlink:href="dir_000013_000019.html" target="_top" xlink:title="1">
<text text-anchor="middle" x="219.94" y="-93.17" font-family="Helvetica,sans-Serif" font-size="10.00" fill="#63b8ff">1</text>
</a>
</g>
</g>
<!-- dir_266d11e874d82a9bb05522175c55ffdc -->
<g id="node14" class="node">
<title>dir_266d11e874d82a9bb05522175c55ffdc</title>
<g id="a_node14"><a xlink:href="dir_266d11e874d82a9bb05522175c55ffdc.html" target="_top" xlink:title="safety">
<polygon fill="#a2c5d6" stroke="#404040" points="220.5,-208 173.5,-208 173.5,-189 220.5,-189 220.5,-208"/>
<text text-anchor="middle" x="197" y="-196" font-family="Helvetica,sans-Serif" font-size="10.00">safety</text>
</a>
</g>
</g>
<!-- dir_4494e21e850fe0822a9311b163f5af2f -->
<g id="node15" class="node">
<title>dir_4494e21e850fe0822a9311b163f5af2f</title>
<g id="a_node15"><a xlink:href="dir_4494e21e850fe0822a9311b163f5af2f.html" target="_top" xlink:title="security">
<polygon fill="#a2c5d6" stroke="#404040" points="516,-153 460,-153 460,-134 516,-134 516,-153"/>
<text text-anchor="middle" x="488" y="-141" font-family="Helvetica,sans-Serif" font-size="10.00">security</text>
</a>
</g>
</g>
<!-- dir_4494e21e850fe0822a9311b163f5af2f&#45;&gt;dir_ac85e915568203497774caa1d502ef50 -->
<g id="edge21" class="edge">
<title>dir_4494e21e850fe0822a9311b163f5af2f&#45;&gt;dir_ac85e915568203497774caa1d502ef50</title>
<g id="a_edge21"><a xlink:href="dir_000015_000005.html" target="_top">
<path fill="none" stroke="#63b8ff" d="M465.99,-133.98C443.55,-125.3 408.52,-111.75 383.01,-101.88"/>
<polygon fill="#63b8ff" stroke="#63b8ff" points="384,-98.51 373.41,-98.17 381.48,-105.04 384,-98.51"/>
</a>
</g>
<g id="a_edge21&#45;headlabel"><a xlink:href="dir_000015_000005.html" target="_top" xlink:title="1">
<text text-anchor="middle" x="388.38" y="-94.66" font-family="Helvetica,sans-Serif" font-size="10.00" fill="#63b8ff">1</text>
</a>
</g>
</g>
<!-- dir_6412b0abeabb451ddbb169e6e430cb09 -->
<g id="node16" class="node">
<title>dir_6412b0abeabb451ddbb169e6e430cb09</title>
<g id="a_node16"><a xlink:href="dir_6412b0abeabb451ddbb169e6e430cb09.html" target="_top" xlink:title="server">
<polygon fill="#a2c5d6" stroke="#404040" points="155.5,-208 108.5,-208 108.5,-189 155.5,-189 155.5,-208"/>
<text text-anchor="middle" x="132" y="-196" font-family="Helvetica,sans-Serif" font-size="10.00">server</text>
</a>
</g>
</g>
<!-- dir_35f695f46e233fd426ddb4e530bf1104 -->
<g id="node17" class="node">
<title>dir_35f695f46e233fd426ddb4e530bf1104</title>
<g id="a_node17"><a xlink:href="dir_35f695f46e233fd426ddb4e530bf1104.html" target="_top" xlink:title="structured">
<polygon fill="#a2c5d6" stroke="#404040" points="90,-208 24,-208 24,-189 90,-189 90,-208"/>
<text text-anchor="middle" x="57" y="-196" font-family="Helvetica,sans-Serif" font-size="10.00">structured</text>
</a>
</g>
</g>
<!-- dir_23bf73740d51936c1f86d2a06c48ee6a&#45;&gt;dir_d08dd0d232defddea2975cfbbcf0e0b0 -->
<g id="edge22" class="edge">
<title>dir_23bf73740d51936c1f86d2a06c48ee6a&#45;&gt;dir_d08dd0d232defddea2975cfbbcf0e0b0</title>
<g id="a_edge22"><a xlink:href="dir_000019_000009.html" target="_top">
<path fill="none" stroke="#63b8ff" d="M183.63,-78.75C186.58,-71.65 190.83,-61.4 194.51,-52.56"/>
<polygon fill="#63b8ff" stroke="#63b8ff" points="197.83,-53.67 198.43,-43.09 191.37,-50.98 197.83,-53.67"/>
</a>
</g>
<g id="a_edge22&#45;headlabel"><a xlink:href="dir_000019_000009.html" target="_top" xlink:title="3">
<text text-anchor="middle" x="199.08" y="-55.58" font-family="Helvetica,sans-Serif" font-size="10.00" fill="#63b8ff">3</text>
</a>
</g>
</g>
</g>
</svg>
