<?xml version="1.0" encoding="UTF-8" standalone="no"?>
<!DOCTYPE svg PUBLIC "-//W3C//DTD SVG 1.1//EN"
 "http://www.w3.org/Graphics/SVG/1.1/DTD/svg11.dtd">
<!-- Generated by graphviz version 2.43.0 (0)
 -->
<!-- Title: logger Pages: 1 -->
<svg width="568pt" height="259pt"
 viewBox="0.00 0.00 568.00 259.00" xmlns="http://www.w3.org/2000/svg" xmlns:xlink="http://www.w3.org/1999/xlink">
<g id="graph0" class="graph" transform="scale(1 1) rotate(0) translate(4 255)">
<title>logger</title>
<g id="clust1" class="cluster">
<title>clusterdir_08d237fc27d4ecd563f71c5d52f2fecc</title>
<g id="a_clust1"><a xlink:href="dir_08d237fc27d4ecd563f71c5d52f2fecc.html" target="_top" xlink:title="sources">
<polygon fill="#edf3f7" stroke="#404040" stroke-dasharray="5,2" points="8,-8 8,-243 552,-243 552,-8 8,-8"/>
<text text-anchor="middle" x="280" y="-231" font-family="Helvetica,sans-Serif" font-size="10.00">sources</text>
</a>
</g>
</g>
<g id="clust2" class="cluster">
<title>clusterdir_8eafc3c8aa7c38e9ae7a32faf8deec41</title>
<g id="a_clust2"><a xlink:href="dir_8eafc3c8aa7c38e9ae7a32faf8deec41.html" target="_top">
<polygon fill="#edf3f7" stroke="#404040" stroke-width="2" points="16,-16 16,-216 544,-216 544,-16 16,-16"/>
</a>
</g>
</g>
<!-- dir_8eafc3c8aa7c38e9ae7a32faf8deec41 -->
<g id="node1" class="node">
<title>dir_8eafc3c8aa7c38e9ae7a32faf8deec41</title>
<text text-anchor="middle" x="457" y="-196" font-family="Helvetica,sans-Serif" font-size="10.00">logger</text>
</g>
<!-- dir_615539a9e62276cb0b6ca0873afe0352 -->
<g id="node4" class="node">
<title>dir_615539a9e62276cb0b6ca0873afe0352</title>
<g id="a_node4"><a xlink:href="dir_615539a9e62276cb0b6ca0873afe0352.html" target="_top" xlink:title="core">
<polygon fill="#a2c5d6" stroke="#404040" points="170,-153 132,-153 132,-134 170,-134 170,-153"/>
<text text-anchor="middle" x="151" y="-141" font-family="Helvetica,sans-Serif" font-size="10.00">core</text>
</a>
</g>
</g>
<!-- dir_8eafc3c8aa7c38e9ae7a32faf8deec41&#45;&gt;dir_615539a9e62276cb0b6ca0873afe0352 -->
<g id="edge3" class="edge">
<title>dir_8eafc3c8aa7c38e9ae7a32faf8deec41&#45;&gt;dir_615539a9e62276cb0b6ca0873afe0352</title>
<g id="a_edge3"><a xlink:href="dir_000010_000002.html" target="_top">
<path fill="none" stroke="#63b8ff" d="M433.3,-190.89C430.52,-190.21 427.7,-189.56 425,-189 318.95,-167.06 290.14,-174.54 184,-153 182.73,-152.74 181.43,-152.47 180.12,-152.18"/>
<polygon fill="#63b8ff" stroke="#63b8ff" points="180.66,-148.7 170.12,-149.78 179.03,-155.51 180.66,-148.7"/>
</a>
</g>
<g id="a_edge3&#45;headlabel"><a xlink:href="dir_000010_000002.html" target="_top" xlink:title="2">
<text text-anchor="middle" x="184.81" y="-144.28" font-family="Helvetica,sans-Serif" font-size="10.00" fill="#63b8ff">2</text>
</a>
</g>
</g>
<!-- dir_668fc57c06f3cd1944d40bde66bdac3e -->
<g id="node5" class="node">
<title>dir_668fc57c06f3cd1944d40bde66bdac3e</title>
<g id="a_node5"><a xlink:href="dir_668fc57c06f3cd1944d40bde66bdac3e.html" target="_top" xlink:title="di">
<polygon fill="#a2c5d6" stroke="#404040" points="301.5,-153 272.5,-153 272.5,-134 301.5,-134 301.5,-153"/>
<text text-anchor="middle" x="287" y="-141" font-family="Helvetica,sans-Serif" font-size="10.00">di</text>
</a>
</g>
</g>
<!-- dir_8eafc3c8aa7c38e9ae7a32faf8deec41&#45;&gt;dir_668fc57c06f3cd1944d40bde66bdac3e -->
<g id="edge4" class="edge">
<title>dir_8eafc3c8aa7c38e9ae7a32faf8deec41&#45;&gt;dir_668fc57c06f3cd1944d40bde66bdac3e</title>
<g id="a_edge4"><a xlink:href="dir_000010_000003.html" target="_top">
<path fill="none" stroke="#63b8ff" d="M433.38,-190.65C406.24,-182.71 360.14,-168.99 311.45,-153.04"/>
<polygon fill="#63b8ff" stroke="#63b8ff" points="312.28,-149.62 301.69,-149.82 310.09,-156.27 312.28,-149.62"/>
</a>
</g>
<g id="a_edge4&#45;headlabel"><a xlink:href="dir_000010_000003.html" target="_top" xlink:title="2">
<text text-anchor="middle" x="316.58" y="-145.55" font-family="Helvetica,sans-Serif" font-size="10.00" fill="#63b8ff">2</text>
</a>
</g>
</g>
<!-- dir_ac85e915568203497774caa1d502ef50 -->
<g id="node6" class="node">
<title>dir_ac85e915568203497774caa1d502ef50</title>
<g id="a_node6"><a xlink:href="dir_ac85e915568203497774caa1d502ef50.html" target="_top" xlink:title="filters">
<polygon fill="#a2c5d6" stroke="#404040" points="382,-98 338,-98 338,-79 382,-79 382,-98"/>
<text text-anchor="middle" x="360" y="-86" font-family="Helvetica,sans-Serif" font-size="10.00">filters</text>
</a>
</g>
</g>
<!-- dir_8eafc3c8aa7c38e9ae7a32faf8deec41&#45;&gt;dir_ac85e915568203497774caa1d502ef50 -->
<g id="edge6" class="edge">
<title>dir_8eafc3c8aa7c38e9ae7a32faf8deec41&#45;&gt;dir_ac85e915568203497774caa1d502ef50</title>
<g id="a_edge6"><a xlink:href="dir_000010_000005.html" target="_top">
<path fill="none" stroke="#63b8ff" d="M478.72,-189C504.53,-177.63 542.09,-156.31 525,-134 508.96,-113.06 435.58,-99.74 392.27,-93.55"/>
<polygon fill="#63b8ff" stroke="#63b8ff" points="392.6,-90.07 382.21,-92.17 391.64,-97 392.6,-90.07"/>
</a>
</g>
<g id="a_edge6&#45;headlabel"><a xlink:href="dir_000010_000005.html" target="_top" xlink:title="4">
<text text-anchor="middle" x="396.55" y="-85.25" font-family="Helvetica,sans-Serif" font-size="10.00" fill="#63b8ff">4</text>
</a>
</g>
</g>
<!-- dir_af4980372a35cc2033ba16b21abe210c -->
<g id="node11" class="node">
<title>dir_af4980372a35cc2033ba16b21abe210c</title>
<g id="a_node11"><a xlink:href="dir_af4980372a35cc2033ba16b21abe210c.html" target="_top" xlink:title="metrics">
<polygon fill="#a2c5d6" stroke="#404040" points="441.5,-153 388.5,-153 388.5,-134 441.5,-134 441.5,-153"/>
<text text-anchor="middle" x="415" y="-141" font-family="Helvetica,sans-Serif" font-size="10.00">metrics</text>
</a>
</g>
</g>
<!-- dir_8eafc3c8aa7c38e9ae7a32faf8deec41&#45;&gt;dir_af4980372a35cc2033ba16b21abe210c -->
<g id="edge7" class="edge">
<title>dir_8eafc3c8aa7c38e9ae7a32faf8deec41&#45;&gt;dir_af4980372a35cc2033ba16b21abe210c</title>
<g id="a_edge7"><a xlink:href="dir_000010_000011.html" target="_top">
<path fill="none" stroke="#63b8ff" d="M450.06,-188.75C444.13,-181.26 435.43,-170.28 428.18,-161.13"/>
<polygon fill="#63b8ff" stroke="#63b8ff" points="430.76,-158.75 421.81,-153.09 425.27,-163.1 430.76,-158.75"/>
</a>
</g>
<g id="a_edge7&#45;headlabel"><a xlink:href="dir_000010_000011.html" target="_top" xlink:title="1">
<text text-anchor="middle" x="435.22" y="-157.31" font-family="Helvetica,sans-Serif" font-size="10.00" fill="#63b8ff">1</text>
</a>
</g>
</g>
<!-- dir_6efac90e5e4bf18ab5886c2fdf81f437 -->
<g id="node12" class="node">
<title>dir_6efac90e5e4bf18ab5886c2fdf81f437</title>
<g id="a_node12"><a xlink:href="dir_6efac90e5e4bf18ab5886c2fdf81f437.html" target="_top" xlink:title="monitoring">
<polygon fill="#a2c5d6" stroke="#404040" points="114,-153 44,-153 44,-134 114,-134 114,-153"/>
<text text-anchor="middle" x="79" y="-141" font-family="Helvetica,sans-Serif" font-size="10.00">monitoring</text>
</a>
</g>
</g>
<!-- dir_8eafc3c8aa7c38e9ae7a32faf8deec41&#45;&gt;dir_6efac90e5e4bf18ab5886c2fdf81f437 -->
<g id="edge5" class="edge">
<title>dir_8eafc3c8aa7c38e9ae7a32faf8deec41&#45;&gt;dir_6efac90e5e4bf18ab5886c2fdf81f437</title>
<g id="a_edge5"><a xlink:href="dir_000010_000012.html" target="_top">
<path fill="none" stroke="#63b8ff" d="M433.32,-190.81C430.53,-190.14 427.71,-189.52 425,-189 295.48,-164.21 258.36,-173.35 124.28,-153.08"/>
<polygon fill="#63b8ff" stroke="#63b8ff" points="124.44,-149.56 114.02,-151.5 123.38,-156.48 124.44,-149.56"/>
</a>
</g>
<g id="a_edge5&#45;headlabel"><a xlink:href="dir_000010_000012.html" target="_top" xlink:title="3">
<text text-anchor="middle" x="128.43" y="-144.81" font-family="Helvetica,sans-Serif" font-size="10.00" fill="#63b8ff">3</text>
</a>
</g>
</g>
<!-- dir_542ee1dd370f188543512ad572d980d6 -->
<g id="node13" class="node">
<title>dir_542ee1dd370f188543512ad572d980d6</title>
<g id="a_node13"><a xlink:href="dir_542ee1dd370f188543512ad572d980d6.html" target="_top" xlink:title="routing">
<polygon fill="#a2c5d6" stroke="#404040" points="370.5,-153 319.5,-153 319.5,-134 370.5,-134 370.5,-153"/>
<text text-anchor="middle" x="345" y="-141" font-family="Helvetica,sans-Serif" font-size="10.00">routing</text>
</a>
</g>
</g>
<!-- dir_8eafc3c8aa7c38e9ae7a32faf8deec41&#45;&gt;dir_542ee1dd370f188543512ad572d980d6 -->
<g id="edge2" class="edge">
<title>dir_8eafc3c8aa7c38e9ae7a32faf8deec41&#45;&gt;dir_542ee1dd370f188543512ad572d980d6</title>
<g id="a_edge2"><a xlink:href="dir_000010_000013.html" target="_top">
<path fill="none" stroke="#63b8ff" d="M439.01,-188.98C421.07,-180.5 393.28,-167.35 372.57,-157.54"/>
<polygon fill="#63b8ff" stroke="#63b8ff" points="373.86,-154.28 363.32,-153.17 370.86,-160.61 373.86,-154.28"/>
</a>
</g>
<g id="a_edge2&#45;headlabel"><a xlink:href="dir_000010_000013.html" target="_top" xlink:title="1">
<text text-anchor="middle" x="378.32" y="-150.76" font-family="Helvetica,sans-Serif" font-size="10.00" fill="#63b8ff">1</text>
</a>
</g>
</g>
<!-- dir_23bf73740d51936c1f86d2a06c48ee6a -->
<g id="node18" class="node">
<title>dir_23bf73740d51936c1f86d2a06c48ee6a</title>
<g id="a_node18"><a xlink:href="dir_23bf73740d51936c1f86d2a06c48ee6a.html" target="_top" xlink:title="writers">
<polygon fill="#a2c5d6" stroke="#404040" points="214,-98 164,-98 164,-79 214,-79 214,-98"/>
<text text-anchor="middle" x="189" y="-86" font-family="Helvetica,sans-Serif" font-size="10.00">writers</text>
</a>
</g>
</g>
<!-- dir_8eafc3c8aa7c38e9ae7a32faf8deec41&#45;&gt;dir_23bf73740d51936c1f86d2a06c48ee6a -->
<g id="edge1" class="edge">
<title>dir_8eafc3c8aa7c38e9ae7a32faf8deec41&#45;&gt;dir_23bf73740d51936c1f86d2a06c48ee6a</title>
<g id="a_edge1"><a xlink:href="dir_000010_000019.html" target="_top">
<path fill="none" stroke="#63b8ff" d="M433.3,-190.92C430.51,-190.23 427.7,-189.57 425,-189 375.25,-178.46 234.93,-188.99 199,-153 187.55,-141.53 185.87,-122.65 186.56,-108.45"/>
<polygon fill="#63b8ff" stroke="#63b8ff" points="190.07,-108.57 187.49,-98.29 183.1,-107.94 190.07,-108.57"/>
</a>
</g>
<g id="a_edge1&#45;headlabel"><a xlink:href="dir_000010_000019.html" target="_top" xlink:title="5">
<text text-anchor="middle" x="192.57" y="-109.91" font-family="Helvetica,sans-Serif" font-size="10.00" fill="#63b8ff">5</text>
</a>
</g>
</g>
<!-- dir_45a02bcc868d58485d680c85bfaf465d -->
<g id="node2" class="node">
<title>dir_45a02bcc868d58485d680c85bfaf465d</title>
<g id="a_node2"><a xlink:href="dir_45a02bcc868d58485d680c85bfaf465d.html" target="_top" xlink:title="analysis">
<polygon fill="#a2c5d6" stroke="#404040" points="415.5,-208 358.5,-208 358.5,-189 415.5,-189 415.5,-208"/>
<text text-anchor="middle" x="387" y="-196" font-family="Helvetica,sans-Serif" font-size="10.00">analysis</text>
</a>
</g>
</g>
<!-- dir_85634e65fefe8c8dcb3d84124f55c94a -->
<g id="node3" class="node">
<title>dir_85634e65fefe8c8dcb3d84124f55c94a</title>
<g id="a_node3"><a xlink:href="dir_85634e65fefe8c8dcb3d84124f55c94a.html" target="_top" xlink:title="config">
<polygon fill="#a2c5d6" stroke="#404040" points="254,-153 208,-153 208,-134 254,-134 254,-153"/>
<text text-anchor="middle" x="231" y="-141" font-family="Helvetica,sans-Serif" font-size="10.00">config</text>
</a>
</g>
</g>
<!-- dir_85634e65fefe8c8dcb3d84124f55c94a&#45;&gt;dir_ac85e915568203497774caa1d502ef50 -->
<g id="edge9" class="edge">
<title>dir_85634e65fefe8c8dcb3d84124f55c94a&#45;&gt;dir_ac85e915568203497774caa1d502ef50</title>
<g id="a_edge9"><a xlink:href="dir_000001_000005.html" target="_top">
<path fill="none" stroke="#63b8ff" d="M251.73,-133.98C272.76,-125.34 305.55,-111.87 329.54,-102.02"/>
<polygon fill="#63b8ff" stroke="#63b8ff" points="330.98,-105.21 338.9,-98.17 328.32,-98.73 330.98,-105.21"/>
</a>
</g>
<g id="a_edge9&#45;headlabel"><a xlink:href="dir_000001_000005.html" target="_top" xlink:title="1">
<text text-anchor="middle" x="328.73" y="-106.7" font-family="Helvetica,sans-Serif" font-size="10.00" fill="#63b8ff">1</text>
</a>
</g>
</g>
<!-- dir_d08dd0d232defddea2975cfbbcf0e0b0 -->
<g id="node10" class="node">
<title>dir_d08dd0d232defddea2975cfbbcf0e0b0</title>
<g id="a_node10"><a xlink:href="dir_d08dd0d232defddea2975cfbbcf0e0b0.html" target="_top" xlink:title="interfaces">
<polygon fill="#a2c5d6" stroke="#404040" points="265.5,-43 200.5,-43 200.5,-24 265.5,-24 265.5,-43"/>
<text text-anchor="middle" x="233" y="-31" font-family="Helvetica,sans-Serif" font-size="10.00">interfaces</text>
</a>
</g>
</g>
<!-- dir_85634e65fefe8c8dcb3d84124f55c94a&#45;&gt;dir_d08dd0d232defddea2975cfbbcf0e0b0 -->
<g id="edge10" class="edge">
<title>dir_85634e65fefe8c8dcb3d84124f55c94a&#45;&gt;dir_d08dd0d232defddea2975cfbbcf0e0b0</title>
<g id="a_edge10"><a xlink:href="dir_000001_000009.html" target="_top">
<path fill="none" stroke="#63b8ff" d="M231.16,-133.66C231.49,-116.17 232.22,-76.8 232.65,-53.27"/>
<polygon fill="#63b8ff" stroke="#63b8ff" points="236.15,-53.22 232.84,-43.16 229.16,-53.09 236.15,-53.22"/>
</a>
</g>
<g id="a_edge10&#45;headlabel"><a xlink:href="dir_000001_000009.html" target="_top" xlink:title="1">
<text text-anchor="middle" x="238.93" y="-54.37" font-family="Helvetica,sans-Serif" font-size="10.00" fill="#63b8ff">1</text>
</a>
</g>
</g>
<!-- dir_85634e65fefe8c8dcb3d84124f55c94a&#45;&gt;dir_23bf73740d51936c1f86d2a06c48ee6a -->
<g id="edge8" class="edge">
<title>dir_85634e65fefe8c8dcb3d84124f55c94a&#45;&gt;dir_23bf73740d51936c1f86d2a06c48ee6a</title>
<g id="a_edge8"><a xlink:href="dir_000001_000019.html" target="_top">
<path fill="none" stroke="#63b8ff" d="M224.06,-133.75C218.13,-126.26 209.43,-115.28 202.18,-106.13"/>
<polygon fill="#63b8ff" stroke="#63b8ff" points="204.76,-103.75 195.81,-98.09 199.27,-108.1 204.76,-103.75"/>
</a>
</g>
<g id="a_edge8&#45;headlabel"><a xlink:href="dir_000001_000019.html" target="_top" xlink:title="1">
<text text-anchor="middle" x="209.22" y="-102.31" font-family="Helvetica,sans-Serif" font-size="10.00" fill="#63b8ff">1</text>
</a>
</g>
</g>
<!-- dir_615539a9e62276cb0b6ca0873afe0352&#45;&gt;dir_d08dd0d232defddea2975cfbbcf0e0b0 -->
<g id="edge12" class="edge">
<title>dir_615539a9e62276cb0b6ca0873afe0352&#45;&gt;dir_d08dd0d232defddea2975cfbbcf0e0b0</title>
<g id="a_edge12"><a xlink:href="dir_000002_000009.html" target="_top">
<path fill="none" stroke="#63b8ff" d="M149.14,-133.93C146.83,-120.96 144.36,-96.06 155,-79 164.07,-64.46 179.73,-54.2 194.65,-47.23"/>
<polygon fill="#63b8ff" stroke="#63b8ff" points="196.46,-50.26 204.27,-43.11 193.7,-43.83 196.46,-50.26"/>
</a>
</g>
<g id="a_edge12&#45;headlabel"><a xlink:href="dir_000002_000009.html" target="_top" xlink:title="1">
<text text-anchor="middle" x="194.27" y="-51.79" font-family="Helvetica,sans-Serif" font-size="10.00" fill="#63b8ff">1</text>
</a>
</g>
</g>
<!-- dir_615539a9e62276cb0b6ca0873afe0352&#45;&gt;dir_23bf73740d51936c1f86d2a06c48ee6a -->
<g id="edge11" class="edge">
<title>dir_615539a9e62276cb0b6ca0873afe0352&#45;&gt;dir_23bf73740d51936c1f86d2a06c48ee6a</title>
<g id="a_edge11"><a xlink:href="dir_000002_000019.html" target="_top">
<path fill="none" stroke="#63b8ff" d="M157.27,-133.75C162.59,-126.34 170.36,-115.5 176.88,-106.41"/>
<polygon fill="#63b8ff" stroke="#63b8ff" points="179.86,-108.26 182.84,-98.09 174.17,-104.18 179.86,-108.26"/>
</a>
</g>
<g id="a_edge11&#45;headlabel"><a xlink:href="dir_000002_000019.html" target="_top" xlink:title="1">
<text text-anchor="middle" x="180.07" y="-110.33" font-family="Helvetica,sans-Serif" font-size="10.00" fill="#63b8ff">1</text>
</a>
</g>
</g>
<!-- dir_ac85e915568203497774caa1d502ef50&#45;&gt;dir_d08dd0d232defddea2975cfbbcf0e0b0 -->
<g id="edge13" class="edge">
<title>dir_ac85e915568203497774caa1d502ef50&#45;&gt;dir_d08dd0d232defddea2975cfbbcf0e0b0</title>
<g id="a_edge13"><a xlink:href="dir_000005_000009.html" target="_top">
<path fill="none" stroke="#63b8ff" d="M339.6,-78.98C318.98,-70.38 286.89,-56.99 263.31,-47.15"/>
<polygon fill="#63b8ff" stroke="#63b8ff" points="264.35,-43.79 253.78,-43.17 261.66,-50.25 264.35,-43.79"/>
</a>
</g>
<g id="a_edge13&#45;headlabel"><a xlink:href="dir_000005_000009.html" target="_top" xlink:title="2">
<text text-anchor="middle" x="268.76" y="-40.06" font-family="Helvetica,sans-Serif" font-size="10.00" fill="#63b8ff">2</text>
</a>
</g>
</g>
<!-- dir_15006aae97b2163204788bf1ead5ba39 -->
<g id="node7" class="node">
<title>dir_15006aae97b2163204788bf1ead5ba39</title>
<g id="a_node7"><a xlink:href="dir_15006aae97b2163204788bf1ead5ba39.html" target="_top" xlink:title="flow">
<polygon fill="#a2c5d6" stroke="#404040" points="340.5,-208 303.5,-208 303.5,-189 340.5,-189 340.5,-208"/>
<text text-anchor="middle" x="322" y="-196" font-family="Helvetica,sans-Serif" font-size="10.00">flow</text>
</a>
</g>
</g>
<!-- dir_080ce305e125670f6ab75927669779d1 -->
<g id="node8" class="node">
<title>dir_080ce305e125670f6ab75927669779d1</title>
<g id="a_node8"><a xlink:href="dir_080ce305e125670f6ab75927669779d1.html" target="_top" xlink:title="formatters">
<polygon fill="#a2c5d6" stroke="#404040" points="320,-98 252,-98 252,-79 320,-79 320,-98"/>
<text text-anchor="middle" x="286" y="-86" font-family="Helvetica,sans-Serif" font-size="10.00">formatters</text>
</a>
</g>
</g>
<!-- dir_080ce305e125670f6ab75927669779d1&#45;&gt;dir_d08dd0d232defddea2975cfbbcf0e0b0 -->
<g id="edge14" class="edge">
<title>dir_080ce305e125670f6ab75927669779d1&#45;&gt;dir_d08dd0d232defddea2975cfbbcf0e0b0</title>
<g id="a_edge14"><a xlink:href="dir_000007_000009.html" target="_top">
<path fill="none" stroke="#63b8ff" d="M277.25,-78.75C269.53,-71.03 258.1,-59.6 248.78,-50.28"/>
<polygon fill="#63b8ff" stroke="#63b8ff" points="251.14,-47.69 241.59,-43.09 246.19,-52.64 251.14,-47.69"/>
</a>
</g>
<g id="a_edge14&#45;headlabel"><a xlink:href="dir_000007_000009.html" target="_top" xlink:title="2">
<text text-anchor="middle" x="255.68" y="-45.72" font-family="Helvetica,sans-Serif" font-size="10.00" fill="#63b8ff">2</text>
</a>
</g>
</g>
<!-- dir_3c7ebb16ff457ab6cd2a5681ba1a139d -->
<g id="node9" class="node">
<title>dir_3c7ebb16ff457ab6cd2a5681ba1a139d</title>
<g id="a_node9"><a xlink:href="dir_3c7ebb16ff457ab6cd2a5681ba1a139d.html" target="_top" xlink:title="health">
<polygon fill="#a2c5d6" stroke="#404040" points="285.5,-208 238.5,-208 238.5,-189 285.5,-189 285.5,-208"/>
<text text-anchor="middle" x="262" y="-196" font-family="Helvetica,sans-Serif" font-size="10.00">health</text>
</a>
</g>
</g>
<!-- dir_3c7ebb16ff457ab6cd2a5681ba1a139d&#45;&gt;dir_615539a9e62276cb0b6ca0873afe0352 -->
<g id="edge16" class="edge">
<title>dir_3c7ebb16ff457ab6cd2a5681ba1a139d&#45;&gt;dir_615539a9e62276cb0b6ca0873afe0352</title>
<g id="a_edge16"><a xlink:href="dir_000008_000002.html" target="_top">
<path fill="none" stroke="#63b8ff" d="M244.17,-188.98C226.39,-180.5 198.85,-167.35 178.32,-157.54"/>
<polygon fill="#63b8ff" stroke="#63b8ff" points="179.69,-154.32 169.16,-153.17 176.67,-160.64 179.69,-154.32"/>
</a>
</g>
<g id="a_edge16&#45;headlabel"><a xlink:href="dir_000008_000002.html" target="_top" xlink:title="1">
<text text-anchor="middle" x="184.16" y="-150.81" font-family="Helvetica,sans-Serif" font-size="10.00" fill="#63b8ff">1</text>
</a>
</g>
</g>
<!-- dir_3c7ebb16ff457ab6cd2a5681ba1a139d&#45;&gt;dir_6efac90e5e4bf18ab5886c2fdf81f437 -->
<g id="edge17" class="edge">
<title>dir_3c7ebb16ff457ab6cd2a5681ba1a139d&#45;&gt;dir_6efac90e5e4bf18ab5886c2fdf81f437</title>
<g id="a_edge17"><a xlink:href="dir_000008_000012.html" target="_top">
<path fill="none" stroke="#63b8ff" d="M238.45,-190.68C208.1,-181.89 154.89,-166.48 118.34,-155.89"/>
<polygon fill="#63b8ff" stroke="#63b8ff" points="119.09,-152.47 108.51,-153.05 117.14,-159.19 119.09,-152.47"/>
</a>
</g>
<g id="a_edge17&#45;headlabel"><a xlink:href="dir_000008_000012.html" target="_top" xlink:title="1">
<text text-anchor="middle" x="123.33" y="-148.24" font-family="Helvetica,sans-Serif" font-size="10.00" fill="#63b8ff">1</text>
</a>
</g>
</g>
<!-- dir_3c7ebb16ff457ab6cd2a5681ba1a139d&#45;&gt;dir_23bf73740d51936c1f86d2a06c48ee6a -->
<g id="edge15" class="edge">
<title>dir_3c7ebb16ff457ab6cd2a5681ba1a139d&#45;&gt;dir_23bf73740d51936c1f86d2a06c48ee6a</title>
<g id="a_edge15"><a xlink:href="dir_000008_000019.html" target="_top">
<path fill="none" stroke="#63b8ff" d="M238.28,-190.98C235.5,-190.28 232.69,-189.61 230,-189 187.01,-179.34 63.19,-186.87 35,-153 0.5,-111.55 97.98,-96.79 153.47,-91.83"/>
<polygon fill="#63b8ff" stroke="#63b8ff" points="153.95,-95.31 163.62,-90.99 153.37,-88.33 153.95,-95.31"/>
</a>
</g>
<g id="a_edge15&#45;headlabel"><a xlink:href="dir_000008_000019.html" target="_top" xlink:title="1">
<text text-anchor="middle" x="150.6" y="-95.93" font-family="Helvetica,sans-Serif" font-size="10.00" fill="#63b8ff">1</text>
</a>
</g>
</g>
<!-- dir_542ee1dd370f188543512ad572d980d6&#45;&gt;dir_ac85e915568203497774caa1d502ef50 -->
<g id="edge19" class="edge">
<title>dir_542ee1dd370f188543512ad572d980d6&#45;&gt;dir_ac85e915568203497774caa1d502ef50</title>
<g id="a_edge19"><a xlink:href="dir_000013_000005.html" target="_top">
<path fill="none" stroke="#63b8ff" d="M347.48,-133.75C349.46,-126.72 352.32,-116.62 354.81,-107.84"/>
<polygon fill="#63b8ff" stroke="#63b8ff" points="358.21,-108.66 357.57,-98.09 351.48,-106.76 358.21,-108.66"/>
</a>
</g>
<g id="a_edge19&#45;headlabel"><a xlink:href="dir_000013_000005.html" target="_top" xlink:title="1">
<text text-anchor="middle" x="359.97" y="-110.4" font-family="Helvetica,sans-Serif" font-size="10.00" fill="#63b8ff">1</text>
</a>
</g>
</g>
<!-- dir_542ee1dd370f188543512ad572d980d6&#45;&gt;dir_23bf73740d51936c1f86d2a06c48ee6a -->
<g id="edge18" class="edge">
<title>dir_542ee1dd370f188543512ad572d980d6&#45;&gt;dir_23bf73740d51936c1f86d2a06c48ee6a</title>
<g id="a_edge18"><a xlink:href="dir_000013_000019.html" target="_top">
<path fill="none" stroke="#63b8ff" d="M319.94,-133.98C293.89,-125.14 252.95,-111.23 223.78,-101.32"/>
<polygon fill="#63b8ff" stroke="#63b8ff" points="224.6,-97.9 214,-97.99 222.34,-104.53 224.6,-97.9"/>
</a>
</g>
<g id="a_edge18&#45;headlabel"><a xlink:href="dir_000013_000019.html" target="_top" xlink:title="1">
<text text-anchor="middle" x="228.91" y="-93.87" font-family="Helvetica,sans-Serif" font-size="10.00" fill="#63b8ff">1</text>
</a>
</g>
</g>
<!-- dir_266d11e874d82a9bb05522175c55ffdc -->
<g id="node14" class="node">
<title>dir_266d11e874d82a9bb05522175c55ffdc</title>
<g id="a_node14"><a xlink:href="dir_266d11e874d82a9bb05522175c55ffdc.html" target="_top" xlink:title="safety">
<polygon fill="#a2c5d6" stroke="#404040" points="220.5,-208 173.5,-208 173.5,-189 220.5,-189 220.5,-208"/>
<text text-anchor="middle" x="197" y="-196" font-family="Helvetica,sans-Serif" font-size="10.00">safety</text>
</a>
</g>
</g>
<!-- dir_4494e21e850fe0822a9311b163f5af2f -->
<g id="node15" class="node">
<title>dir_4494e21e850fe0822a9311b163f5af2f</title>
<g id="a_node15"><a xlink:href="dir_4494e21e850fe0822a9311b163f5af2f.html" target="_top" xlink:title="security">
<polygon fill="#a2c5d6" stroke="#404040" points="516,-153 460,-153 460,-134 516,-134 516,-153"/>
<text text-anchor="middle" x="488" y="-141" font-family="Helvetica,sans-Serif" font-size="10.00">security</text>
</a>
</g>
</g>
<!-- dir_4494e21e850fe0822a9311b163f5af2f&#45;&gt;dir_ac85e915568203497774caa1d502ef50 -->
<g id="edge20" class="edge">
<title>dir_4494e21e850fe0822a9311b163f5af2f&#45;&gt;dir_ac85e915568203497774caa1d502ef50</title>
<g id="a_edge20"><a xlink:href="dir_000015_000005.html" target="_top">
<path fill="none" stroke="#63b8ff" d="M467.43,-133.98C446.57,-125.34 414.03,-111.87 390.23,-102.02"/>
<polygon fill="#63b8ff" stroke="#63b8ff" points="391.52,-98.76 380.94,-98.17 388.84,-105.23 391.52,-98.76"/>
</a>
</g>
<g id="a_edge20&#45;headlabel"><a xlink:href="dir_000015_000005.html" target="_top" xlink:title="1">
<text text-anchor="middle" x="395.93" y="-95.01" font-family="Helvetica,sans-Serif" font-size="10.00" fill="#63b8ff">1</text>
</a>
</g>
</g>
<!-- dir_6412b0abeabb451ddbb169e6e430cb09 -->
<g id="node16" class="node">
<title>dir_6412b0abeabb451ddbb169e6e430cb09</title>
<g id="a_node16"><a xlink:href="dir_6412b0abeabb451ddbb169e6e430cb09.html" target="_top" xlink:title="server">
<polygon fill="#a2c5d6" stroke="#404040" points="155.5,-208 108.5,-208 108.5,-189 155.5,-189 155.5,-208"/>
<text text-anchor="middle" x="132" y="-196" font-family="Helvetica,sans-Serif" font-size="10.00">server</text>
</a>
</g>
</g>
<!-- dir_35f695f46e233fd426ddb4e530bf1104 -->
<g id="node17" class="node">
<title>dir_35f695f46e233fd426ddb4e530bf1104</title>
<g id="a_node17"><a xlink:href="dir_35f695f46e233fd426ddb4e530bf1104.html" target="_top" xlink:title="structured">
<polygon fill="#a2c5d6" stroke="#404040" points="90,-208 24,-208 24,-189 90,-189 90,-208"/>
<text text-anchor="middle" x="57" y="-196" font-family="Helvetica,sans-Serif" font-size="10.00">structured</text>
</a>
</g>
</g>
<!-- dir_23bf73740d51936c1f86d2a06c48ee6a&#45;&gt;dir_d08dd0d232defddea2975cfbbcf0e0b0 -->
<g id="edge21" class="edge">
<title>dir_23bf73740d51936c1f86d2a06c48ee6a&#45;&gt;dir_d08dd0d232defddea2975cfbbcf0e0b0</title>
<g id="a_edge21"><a xlink:href="dir_000019_000009.html" target="_top">
<path fill="none" stroke="#63b8ff" d="M196.27,-78.75C202.54,-71.18 211.79,-60.05 219.43,-50.84"/>
<polygon fill="#63b8ff" stroke="#63b8ff" points="222.17,-53.02 225.87,-43.09 216.79,-48.55 222.17,-53.02"/>
</a>
</g>
<g id="a_edge21&#45;headlabel"><a xlink:href="dir_000019_000009.html" target="_top" xlink:title="2">
<text text-anchor="middle" x="222.06" y="-55.1" font-family="Helvetica,sans-Serif" font-size="10.00" fill="#63b8ff">2</text>
</a>
</g>
</g>
</g>
</svg>
