<?xml version="1.0" encoding="UTF-8" standalone="no"?>
<!DOCTYPE svg PUBLIC "-//W3C//DTD SVG 1.1//EN"
 "http://www.w3.org/Graphics/SVG/1.1/DTD/svg11.dtd">
<!-- Generated by graphviz version 2.43.0 (0)
 -->
<!-- Title: /home/runner/work/logger_system/logger_system/sources/logger Pages: 1 -->
<svg width="612pt" height="259pt"
 viewBox="0.00 0.00 612.00 259.00" xmlns="http://www.w3.org/2000/svg" xmlns:xlink="http://www.w3.org/1999/xlink">
<g id="graph0" class="graph" transform="scale(1 1) rotate(0) translate(4 255)">
<title>/home/runner/work/logger_system/logger_system/sources/logger</title>
<g id="clust1" class="cluster">
<title>clusterdir_06c576356eee845d55468b6334f24205</title>
<g id="a_clust1"><a xlink:href="dir_06c576356eee845d55468b6334f24205.html" target="_top" xlink:title="sources">
<polygon fill="#edf3f7" stroke="#7f7f7f" stroke-dasharray="5,2" points="8,-8 8,-243 596,-243 596,-8 8,-8"/>
<text text-anchor="middle" x="302" y="-231" font-family="Helvetica,sans-Serif" font-size="10.00">sources</text>
</a>
</g>
</g>
<g id="clust2" class="cluster">
<title>clusterdir_fdb45f3173b816aceb323ae6fdd0bb21</title>
<g id="a_clust2"><a xlink:href="dir_fdb45f3173b816aceb323ae6fdd0bb21.html" target="_top">
<polygon fill="#edf3f7" stroke="#404040" stroke-width="2" points="16,-16 16,-216 588,-216 588,-16 16,-16"/>
</a>
</g>
</g>
<!-- dir_fdb45f3173b816aceb323ae6fdd0bb21 -->
<g id="node1" class="node">
<title>dir_fdb45f3173b816aceb323ae6fdd0bb21</title>
<text text-anchor="middle" x="556" y="-196" font-family="Helvetica,sans-Serif" font-size="10.00">logger</text>
</g>
<!-- dir_928ab55be48593852a840907c0e72e64 -->
<g id="node5" class="node">
<title>dir_928ab55be48593852a840907c0e72e64</title>
<g id="a_node5"><a xlink:href="dir_928ab55be48593852a840907c0e72e64.html" target="_top" xlink:title="core">
<polygon fill="#a2c5d6" stroke="#404040" points="161,-153 123,-153 123,-134 161,-134 161,-153"/>
<text text-anchor="middle" x="142" y="-141" font-family="Helvetica,sans-Serif" font-size="10.00">core</text>
</a>
</g>
</g>
<!-- dir_fdb45f3173b816aceb323ae6fdd0bb21&#45;&gt;dir_928ab55be48593852a840907c0e72e64 -->
<g id="edge5" class="edge">
<title>dir_fdb45f3173b816aceb323ae6fdd0bb21&#45;&gt;dir_928ab55be48593852a840907c0e72e64</title>
<g id="a_edge5"><a xlink:href="dir_000014_000004.html" target="_top">
<path fill="none" stroke="#63b8ff" d="M532.32,-190.8C529.53,-190.14 526.71,-189.52 524,-189 456.18,-176.11 248.7,-155.01 171.42,-147.37"/>
<polygon fill="#63b8ff" stroke="#63b8ff" points="171.7,-143.88 161.41,-146.39 171.01,-150.85 171.7,-143.88"/>
</a>
</g>
<g id="a_edge5&#45;headlabel"><a xlink:href="dir_000014_000004.html" target="_top" xlink:title="3">
<text text-anchor="middle" x="175.56" y="-138.91" font-family="Helvetica,sans-Serif" font-size="10.00" fill="#63b8ff">3</text>
</a>
</g>
</g>
<!-- dir_268ef3f83f2ab3b7d665fa306adebf4a -->
<g id="node6" class="node">
<title>dir_268ef3f83f2ab3b7d665fa306adebf4a</title>
<g id="a_node6"><a xlink:href="dir_268ef3f83f2ab3b7d665fa306adebf4a.html" target="_top" xlink:title="di">
<polygon fill="#a2c5d6" stroke="#404040" points="364.5,-98 335.5,-98 335.5,-79 364.5,-79 364.5,-98"/>
<text text-anchor="middle" x="350" y="-86" font-family="Helvetica,sans-Serif" font-size="10.00">di</text>
</a>
</g>
</g>
<!-- dir_fdb45f3173b816aceb323ae6fdd0bb21&#45;&gt;dir_268ef3f83f2ab3b7d665fa306adebf4a -->
<g id="edge1" class="edge">
<title>dir_fdb45f3173b816aceb323ae6fdd0bb21&#45;&gt;dir_268ef3f83f2ab3b7d665fa306adebf4a</title>
<g id="a_edge1"><a xlink:href="dir_000014_000005.html" target="_top">
<path fill="none" stroke="#63b8ff" d="M532.27,-191.06C529.49,-190.34 526.68,-189.64 524,-189 449.31,-171.14 405.62,-210.75 355,-153 344.42,-140.93 344.23,-122.12 346.05,-108.11"/>
<polygon fill="#63b8ff" stroke="#63b8ff" points="349.52,-108.56 347.78,-98.11 342.63,-107.37 349.52,-108.56"/>
</a>
</g>
<g id="a_edge1&#45;headlabel"><a xlink:href="dir_000014_000005.html" target="_top" xlink:title="3">
<text text-anchor="middle" x="351.71" y="-110.09" font-family="Helvetica,sans-Serif" font-size="10.00" fill="#63b8ff">3</text>
</a>
</g>
</g>
<!-- dir_7253a5d7062802da088c1fcbba9d385b -->
<g id="node7" class="node">
<title>dir_7253a5d7062802da088c1fcbba9d385b</title>
<g id="a_node7"><a xlink:href="dir_7253a5d7062802da088c1fcbba9d385b.html" target="_top" xlink:title="filters">
<polygon fill="#a2c5d6" stroke="#404040" points="427,-98 383,-98 383,-79 427,-79 427,-98"/>
<text text-anchor="middle" x="405" y="-86" font-family="Helvetica,sans-Serif" font-size="10.00">filters</text>
</a>
</g>
</g>
<!-- dir_fdb45f3173b816aceb323ae6fdd0bb21&#45;&gt;dir_7253a5d7062802da088c1fcbba9d385b -->
<g id="edge4" class="edge">
<title>dir_fdb45f3173b816aceb323ae6fdd0bb21&#45;&gt;dir_7253a5d7062802da088c1fcbba9d385b</title>
<g id="a_edge4"><a xlink:href="dir_000014_000007.html" target="_top">
<path fill="none" stroke="#63b8ff" d="M548.05,-188.9C532.93,-172.59 500.98,-138.38 495,-134 477.09,-120.87 454.71,-109.79 436.75,-101.97"/>
<polygon fill="#63b8ff" stroke="#63b8ff" points="437.86,-98.64 427.29,-97.97 435.13,-105.08 437.86,-98.64"/>
</a>
</g>
<g id="a_edge4&#45;headlabel"><a xlink:href="dir_000014_000007.html" target="_top" xlink:title="4">
<text text-anchor="middle" x="442.28" y="-94.92" font-family="Helvetica,sans-Serif" font-size="10.00" fill="#63b8ff">4</text>
</a>
</g>
</g>
<!-- dir_bdb2d92fa84e6694b13553225a587d34 -->
<g id="node12" class="node">
<title>dir_bdb2d92fa84e6694b13553225a587d34</title>
<g id="a_node12"><a xlink:href="dir_bdb2d92fa84e6694b13553225a587d34.html" target="_top" xlink:title="metrics">
<polygon fill="#a2c5d6" stroke="#404040" points="485.5,-153 432.5,-153 432.5,-134 485.5,-134 485.5,-153"/>
<text text-anchor="middle" x="459" y="-141" font-family="Helvetica,sans-Serif" font-size="10.00">metrics</text>
</a>
</g>
</g>
<!-- dir_fdb45f3173b816aceb323ae6fdd0bb21&#45;&gt;dir_bdb2d92fa84e6694b13553225a587d34 -->
<g id="edge6" class="edge">
<title>dir_fdb45f3173b816aceb323ae6fdd0bb21&#45;&gt;dir_bdb2d92fa84e6694b13553225a587d34</title>
<g id="a_edge6"><a xlink:href="dir_000014_000017.html" target="_top">
<path fill="none" stroke="#63b8ff" d="M540.42,-188.98C525.23,-180.69 501.9,-167.94 484.1,-158.22"/>
<polygon fill="#63b8ff" stroke="#63b8ff" points="485.32,-154.89 474.87,-153.17 481.97,-161.04 485.32,-154.89"/>
</a>
</g>
<g id="a_edge6&#45;headlabel"><a xlink:href="dir_000014_000017.html" target="_top" xlink:title="1">
<text text-anchor="middle" x="489.84" y="-151.63" font-family="Helvetica,sans-Serif" font-size="10.00" fill="#63b8ff">1</text>
</a>
</g>
</g>
<!-- dir_e16b4c5ac8b1cce49e4bb8a9a51af128 -->
<g id="node13" class="node">
<title>dir_e16b4c5ac8b1cce49e4bb8a9a51af128</title>
<g id="a_node13"><a xlink:href="dir_e16b4c5ac8b1cce49e4bb8a9a51af128.html" target="_top" xlink:title="monitoring">
<polygon fill="#a2c5d6" stroke="#404040" points="297,-98 227,-98 227,-79 297,-79 297,-98"/>
<text text-anchor="middle" x="262" y="-86" font-family="Helvetica,sans-Serif" font-size="10.00">monitoring</text>
</a>
</g>
</g>
<!-- dir_fdb45f3173b816aceb323ae6fdd0bb21&#45;&gt;dir_e16b4c5ac8b1cce49e4bb8a9a51af128 -->
<g id="edge7" class="edge">
<title>dir_fdb45f3173b816aceb323ae6fdd0bb21&#45;&gt;dir_e16b4c5ac8b1cce49e4bb8a9a51af128</title>
<g id="a_edge7"><a xlink:href="dir_000014_000018.html" target="_top">
<path fill="none" stroke="#63b8ff" d="M532.31,-190.87C529.52,-190.19 526.7,-189.55 524,-189 468.13,-177.66 310,-193.62 270,-153 258.68,-141.5 257.63,-122.62 258.84,-108.43"/>
<polygon fill="#63b8ff" stroke="#63b8ff" points="262.34,-108.65 260.14,-98.29 255.39,-107.76 262.34,-108.65"/>
</a>
</g>
<g id="a_edge7&#45;headlabel"><a xlink:href="dir_000014_000018.html" target="_top" xlink:title="4">
<text text-anchor="middle" x="264.7" y="-110.08" font-family="Helvetica,sans-Serif" font-size="10.00" fill="#63b8ff">4</text>
</a>
</g>
</g>
<!-- dir_5bdf87ed7858c44e3f0f0f610cbcdf1c -->
<g id="node14" class="node">
<title>dir_5bdf87ed7858c44e3f0f0f610cbcdf1c</title>
<g id="a_node14"><a xlink:href="dir_5bdf87ed7858c44e3f0f0f610cbcdf1c.html" target="_top" xlink:title="routing">
<polygon fill="#a2c5d6" stroke="#404040" points="414.5,-153 363.5,-153 363.5,-134 414.5,-134 414.5,-153"/>
<text text-anchor="middle" x="389" y="-141" font-family="Helvetica,sans-Serif" font-size="10.00">routing</text>
</a>
</g>
</g>
<!-- dir_fdb45f3173b816aceb323ae6fdd0bb21&#45;&gt;dir_5bdf87ed7858c44e3f0f0f610cbcdf1c -->
<g id="edge2" class="edge">
<title>dir_fdb45f3173b816aceb323ae6fdd0bb21&#45;&gt;dir_5bdf87ed7858c44e3f0f0f610cbcdf1c</title>
<g id="a_edge2"><a xlink:href="dir_000014_000019.html" target="_top">
<path fill="none" stroke="#63b8ff" d="M532.43,-190.02C504.23,-181.07 456.78,-166.01 424.23,-155.68"/>
<polygon fill="#63b8ff" stroke="#63b8ff" points="425.23,-152.33 414.64,-152.64 423.12,-159 425.23,-152.33"/>
</a>
</g>
<g id="a_edge2&#45;headlabel"><a xlink:href="dir_000014_000019.html" target="_top" xlink:title="1">
<text text-anchor="middle" x="429.52" y="-148.21" font-family="Helvetica,sans-Serif" font-size="10.00" fill="#63b8ff">1</text>
</a>
</g>
</g>
<!-- dir_7185456dc9524536387bec6c7d5da27d -->
<g id="node19" class="node">
<title>dir_7185456dc9524536387bec6c7d5da27d</title>
<g id="a_node19"><a xlink:href="dir_7185456dc9524536387bec6c7d5da27d.html" target="_top" xlink:title="writers">
<polygon fill="#a2c5d6" stroke="#404040" points="209,-98 159,-98 159,-79 209,-79 209,-98"/>
<text text-anchor="middle" x="184" y="-86" font-family="Helvetica,sans-Serif" font-size="10.00">writers</text>
</a>
</g>
</g>
<!-- dir_fdb45f3173b816aceb323ae6fdd0bb21&#45;&gt;dir_7185456dc9524536387bec6c7d5da27d -->
<g id="edge3" class="edge">
<title>dir_fdb45f3173b816aceb323ae6fdd0bb21&#45;&gt;dir_7185456dc9524536387bec6c7d5da27d</title>
<g id="a_edge3"><a xlink:href="dir_000014_000027.html" target="_top">
<path fill="none" stroke="#63b8ff" d="M532.31,-190.85C529.52,-190.17 526.71,-189.54 524,-189 406.13,-165.53 365.33,-202.9 256,-153 243.38,-147.24 216.72,-122.11 199.62,-105.24"/>
<polygon fill="#63b8ff" stroke="#63b8ff" points="202.08,-102.75 192.52,-98.18 197.14,-107.71 202.08,-102.75"/>
</a>
</g>
<g id="a_edge3&#45;headlabel"><a xlink:href="dir_000014_000027.html" target="_top" xlink:title="8">
<text text-anchor="middle" x="206.63" y="-100.78" font-family="Helvetica,sans-Serif" font-size="10.00" fill="#63b8ff">8</text>
</a>
</g>
</g>
<!-- dir_9f720f3a787207b407ef4747c77ed50b -->
<g id="node2" class="node">
<title>dir_9f720f3a787207b407ef4747c77ed50b</title>
<g id="a_node2"><a xlink:href="dir_9f720f3a787207b407ef4747c77ed50b.html" target="_top" xlink:title="analysis">
<polygon fill="#a2c5d6" stroke="#404040" points="514.5,-208 457.5,-208 457.5,-189 514.5,-189 514.5,-208"/>
<text text-anchor="middle" x="486" y="-196" font-family="Helvetica,sans-Serif" font-size="10.00">analysis</text>
</a>
</g>
</g>
<!-- dir_2b2445f47c840e967b90fdb9374f455e -->
<g id="node3" class="node">
<title>dir_2b2445f47c840e967b90fdb9374f455e</title>
<g id="a_node3"><a xlink:href="dir_2b2445f47c840e967b90fdb9374f455e.html" target="_top" xlink:title="compatibility">
<polygon fill="#a2c5d6" stroke="#404040" points="439.5,-208 358.5,-208 358.5,-189 439.5,-189 439.5,-208"/>
<text text-anchor="middle" x="399" y="-196" font-family="Helvetica,sans-Serif" font-size="10.00">compatibility</text>
</a>
</g>
</g>
<!-- dir_0b6dd26edb24da019d7381ef1e2cc469 -->
<g id="node4" class="node">
<title>dir_0b6dd26edb24da019d7381ef1e2cc469</title>
<g id="a_node4"><a xlink:href="dir_0b6dd26edb24da019d7381ef1e2cc469.html" target="_top" xlink:title="config">
<polygon fill="#a2c5d6" stroke="#404040" points="325,-153 279,-153 279,-134 325,-134 325,-153"/>
<text text-anchor="middle" x="302" y="-141" font-family="Helvetica,sans-Serif" font-size="10.00">config</text>
</a>
</g>
</g>
<!-- dir_2b2445f47c840e967b90fdb9374f455e&#45;&gt;dir_0b6dd26edb24da019d7381ef1e2cc469 -->
<g id="edge8" class="edge">
<title>dir_2b2445f47c840e967b90fdb9374f455e&#45;&gt;dir_0b6dd26edb24da019d7381ef1e2cc469</title>
<g id="a_edge8"><a xlink:href="dir_000002_000003.html" target="_top">
<path fill="none" stroke="#63b8ff" d="M383.42,-188.98C368.23,-180.69 344.9,-167.94 327.1,-158.22"/>
<polygon fill="#63b8ff" stroke="#63b8ff" points="328.32,-154.89 317.87,-153.17 324.97,-161.04 328.32,-154.89"/>
</a>
</g>
<g id="a_edge8&#45;headlabel"><a xlink:href="dir_000002_000003.html" target="_top" xlink:title="1">
<text text-anchor="middle" x="332.84" y="-151.63" font-family="Helvetica,sans-Serif" font-size="10.00" fill="#63b8ff">1</text>
</a>
</g>
</g>
<!-- dir_2b2445f47c840e967b90fdb9374f455e&#45;&gt;dir_7185456dc9524536387bec6c7d5da27d -->
<g id="edge9" class="edge">
<title>dir_2b2445f47c840e967b90fdb9374f455e&#45;&gt;dir_7185456dc9524536387bec6c7d5da27d</title>
<g id="a_edge9"><a xlink:href="dir_000002_000027.html" target="_top">
<path fill="none" stroke="#63b8ff" d="M358.14,-189.44C316.48,-180.7 255.18,-166.21 235,-153 217.31,-141.42 202.89,-121.71 193.95,-107.32"/>
<polygon fill="#63b8ff" stroke="#63b8ff" points="196.77,-105.19 188.67,-98.36 190.74,-108.75 196.77,-105.19"/>
</a>
</g>
<g id="a_edge9&#45;headlabel"><a xlink:href="dir_000002_000027.html" target="_top" xlink:title="2">
<text text-anchor="middle" x="201.04" y="-104.35" font-family="Helvetica,sans-Serif" font-size="10.00" fill="#63b8ff">2</text>
</a>
</g>
</g>
<!-- dir_0b6dd26edb24da019d7381ef1e2cc469&#45;&gt;dir_268ef3f83f2ab3b7d665fa306adebf4a -->
<g id="edge10" class="edge">
<title>dir_0b6dd26edb24da019d7381ef1e2cc469&#45;&gt;dir_268ef3f83f2ab3b7d665fa306adebf4a</title>
<g id="a_edge10"><a xlink:href="dir_000003_000005.html" target="_top">
<path fill="none" stroke="#63b8ff" d="M309.93,-133.75C316.85,-126.11 327.07,-114.82 335.45,-105.56"/>
<polygon fill="#63b8ff" stroke="#63b8ff" points="338.1,-107.85 342.22,-98.09 332.91,-103.15 338.1,-107.85"/>
</a>
</g>
<g id="a_edge10&#45;headlabel"><a xlink:href="dir_000003_000005.html" target="_top" xlink:title="1">
<text text-anchor="middle" x="337.79" y="-109.92" font-family="Helvetica,sans-Serif" font-size="10.00" fill="#63b8ff">1</text>
</a>
</g>
</g>
<!-- dir_0b6dd26edb24da019d7381ef1e2cc469&#45;&gt;dir_7253a5d7062802da088c1fcbba9d385b -->
<g id="edge12" class="edge">
<title>dir_0b6dd26edb24da019d7381ef1e2cc469&#45;&gt;dir_7253a5d7062802da088c1fcbba9d385b</title>
<g id="a_edge12"><a xlink:href="dir_000003_000007.html" target="_top">
<path fill="none" stroke="#63b8ff" d="M318.55,-133.98C334.89,-125.57 360.13,-112.59 379.13,-102.81"/>
<polygon fill="#63b8ff" stroke="#63b8ff" points="380.86,-105.86 388.15,-98.17 377.66,-99.63 380.86,-105.86"/>
</a>
</g>
<g id="a_edge12&#45;headlabel"><a xlink:href="dir_000003_000007.html" target="_top" xlink:title="1">
<text text-anchor="middle" x="378.96" y="-107.53" font-family="Helvetica,sans-Serif" font-size="10.00" fill="#63b8ff">1</text>
</a>
</g>
</g>
<!-- dir_f10811d35f028b2dbad20258bd9b1e7f -->
<g id="node11" class="node">
<title>dir_f10811d35f028b2dbad20258bd9b1e7f</title>
<g id="a_node11"><a xlink:href="dir_f10811d35f028b2dbad20258bd9b1e7f.html" target="_top" xlink:title="interfaces">
<polygon fill="#a2c5d6" stroke="#404040" points="194.5,-43 129.5,-43 129.5,-24 194.5,-24 194.5,-43"/>
<text text-anchor="middle" x="162" y="-31" font-family="Helvetica,sans-Serif" font-size="10.00">interfaces</text>
</a>
</g>
</g>
<!-- dir_0b6dd26edb24da019d7381ef1e2cc469&#45;&gt;dir_f10811d35f028b2dbad20258bd9b1e7f -->
<g id="edge14" class="edge">
<title>dir_0b6dd26edb24da019d7381ef1e2cc469&#45;&gt;dir_f10811d35f028b2dbad20258bd9b1e7f</title>
<g id="a_edge14"><a xlink:href="dir_000003_000013.html" target="_top">
<path fill="none" stroke="#63b8ff" d="M305.8,-133.71C310.88,-120.45 317.93,-95.18 306,-79 282.91,-47.7 238.1,-37.75 204.56,-34.9"/>
<polygon fill="#63b8ff" stroke="#63b8ff" points="204.77,-31.41 194.56,-34.23 204.3,-38.39 204.77,-31.41"/>
</a>
</g>
<g id="a_edge14&#45;headlabel"><a xlink:href="dir_000003_000013.html" target="_top" xlink:title="1">
<text text-anchor="middle" x="208.54" y="-26.31" font-family="Helvetica,sans-Serif" font-size="10.00" fill="#63b8ff">1</text>
</a>
</g>
</g>
<!-- dir_0b6dd26edb24da019d7381ef1e2cc469&#45;&gt;dir_e16b4c5ac8b1cce49e4bb8a9a51af128 -->
<g id="edge13" class="edge">
<title>dir_0b6dd26edb24da019d7381ef1e2cc469&#45;&gt;dir_e16b4c5ac8b1cce49e4bb8a9a51af128</title>
<g id="a_edge13"><a xlink:href="dir_000003_000018.html" target="_top">
<path fill="none" stroke="#63b8ff" d="M295.39,-133.75C289.74,-126.26 281.46,-115.28 274.55,-106.13"/>
<polygon fill="#63b8ff" stroke="#63b8ff" points="277.3,-103.96 268.48,-98.09 271.71,-108.18 277.3,-103.96"/>
</a>
</g>
<g id="a_edge13&#45;headlabel"><a xlink:href="dir_000003_000018.html" target="_top" xlink:title="1">
<text text-anchor="middle" x="281.73" y="-102.62" font-family="Helvetica,sans-Serif" font-size="10.00" fill="#63b8ff">1</text>
</a>
</g>
</g>
<!-- dir_0b6dd26edb24da019d7381ef1e2cc469&#45;&gt;dir_7185456dc9524536387bec6c7d5da27d -->
<g id="edge11" class="edge">
<title>dir_0b6dd26edb24da019d7381ef1e2cc469&#45;&gt;dir_7185456dc9524536387bec6c7d5da27d</title>
<g id="a_edge11"><a xlink:href="dir_000003_000027.html" target="_top">
<path fill="none" stroke="#63b8ff" d="M283.04,-133.98C263.97,-125.42 234.34,-112.11 212.45,-102.28"/>
<polygon fill="#63b8ff" stroke="#63b8ff" points="213.86,-99.07 203.3,-98.17 210.99,-105.46 213.86,-99.07"/>
</a>
</g>
<g id="a_edge11&#45;headlabel"><a xlink:href="dir_000003_000027.html" target="_top" xlink:title="2">
<text text-anchor="middle" x="218.3" y="-95.46" font-family="Helvetica,sans-Serif" font-size="10.00" fill="#63b8ff">2</text>
</a>
</g>
</g>
<!-- dir_928ab55be48593852a840907c0e72e64&#45;&gt;dir_f10811d35f028b2dbad20258bd9b1e7f -->
<g id="edge16" class="edge">
<title>dir_928ab55be48593852a840907c0e72e64&#45;&gt;dir_f10811d35f028b2dbad20258bd9b1e7f</title>
<g id="a_edge16"><a xlink:href="dir_000004_000013.html" target="_top">
<path fill="none" stroke="#63b8ff" d="M136.74,-133.81C134.8,-121.53 137.18,-98.41 141,-79 142.74,-70.17 145.27,-60.5 148.32,-52.45"/>
<polygon fill="#63b8ff" stroke="#63b8ff" points="151.53,-53.84 152.44,-43.28 145.15,-50.96 151.53,-53.84"/>
</a>
</g>
<g id="a_edge16&#45;headlabel"><a xlink:href="dir_000004_000013.html" target="_top" xlink:title="1">
<text text-anchor="middle" x="152.64" y="-55.78" font-family="Helvetica,sans-Serif" font-size="10.00" fill="#63b8ff">1</text>
</a>
</g>
</g>
<!-- dir_928ab55be48593852a840907c0e72e64&#45;&gt;dir_7185456dc9524536387bec6c7d5da27d -->
<g id="edge15" class="edge">
<title>dir_928ab55be48593852a840907c0e72e64&#45;&gt;dir_7185456dc9524536387bec6c7d5da27d</title>
<g id="a_edge15"><a xlink:href="dir_000004_000027.html" target="_top">
<path fill="none" stroke="#63b8ff" d="M148.94,-133.75C154.87,-126.26 163.57,-115.28 170.82,-106.13"/>
<polygon fill="#63b8ff" stroke="#63b8ff" points="173.73,-108.1 177.19,-98.09 168.24,-103.75 173.73,-108.1"/>
</a>
</g>
<g id="a_edge15&#45;headlabel"><a xlink:href="dir_000004_000027.html" target="_top" xlink:title="1">
<text text-anchor="middle" x="173.72" y="-110.18" font-family="Helvetica,sans-Serif" font-size="10.00" fill="#63b8ff">1</text>
</a>
</g>
</g>
<!-- dir_7253a5d7062802da088c1fcbba9d385b&#45;&gt;dir_f10811d35f028b2dbad20258bd9b1e7f -->
<g id="edge17" class="edge">
<title>dir_7253a5d7062802da088c1fcbba9d385b&#45;&gt;dir_f10811d35f028b2dbad20258bd9b1e7f</title>
<g id="a_edge17"><a xlink:href="dir_000007_000013.html" target="_top">
<path fill="none" stroke="#63b8ff" d="M382.69,-81.21C379.77,-80.44 376.82,-79.68 374,-79 315.62,-64.88 247.58,-51.06 204.65,-42.66"/>
<polygon fill="#63b8ff" stroke="#63b8ff" points="205.31,-39.22 194.82,-40.75 203.97,-46.1 205.31,-39.22"/>
</a>
</g>
<g id="a_edge17&#45;headlabel"><a xlink:href="dir_000007_000013.html" target="_top" xlink:title="2">
<text text-anchor="middle" x="209.38" y="-34.62" font-family="Helvetica,sans-Serif" font-size="10.00" fill="#63b8ff">2</text>
</a>
</g>
</g>
<!-- dir_45adad02fd9cd1374767126139a91ac1 -->
<g id="node8" class="node">
<title>dir_45adad02fd9cd1374767126139a91ac1</title>
<g id="a_node8"><a xlink:href="dir_45adad02fd9cd1374767126139a91ac1.html" target="_top" xlink:title="flow">
<polygon fill="#a2c5d6" stroke="#404040" points="340.5,-208 303.5,-208 303.5,-189 340.5,-189 340.5,-208"/>
<text text-anchor="middle" x="322" y="-196" font-family="Helvetica,sans-Serif" font-size="10.00">flow</text>
</a>
</g>
</g>
<!-- dir_68f5f00830fcfa94ba5d44145b67553a -->
<g id="node9" class="node">
<title>dir_68f5f00830fcfa94ba5d44145b67553a</title>
<g id="a_node9"><a xlink:href="dir_68f5f00830fcfa94ba5d44145b67553a.html" target="_top" xlink:title="formatters">
<polygon fill="#a2c5d6" stroke="#404040" points="121,-98 53,-98 53,-79 121,-79 121,-98"/>
<text text-anchor="middle" x="87" y="-86" font-family="Helvetica,sans-Serif" font-size="10.00">formatters</text>
</a>
</g>
</g>
<!-- dir_68f5f00830fcfa94ba5d44145b67553a&#45;&gt;dir_f10811d35f028b2dbad20258bd9b1e7f -->
<g id="edge18" class="edge">
<title>dir_68f5f00830fcfa94ba5d44145b67553a&#45;&gt;dir_f10811d35f028b2dbad20258bd9b1e7f</title>
<g id="a_edge18"><a xlink:href="dir_000009_000013.html" target="_top">
<path fill="none" stroke="#63b8ff" d="M99.05,-78.98C110.46,-70.92 127.83,-58.65 141.43,-49.03"/>
<polygon fill="#63b8ff" stroke="#63b8ff" points="143.58,-51.8 149.73,-43.17 139.54,-46.08 143.58,-51.8"/>
</a>
</g>
<g id="a_edge18&#45;headlabel"><a xlink:href="dir_000009_000013.html" target="_top" xlink:title="2">
<text text-anchor="middle" x="142.29" y="-53.69" font-family="Helvetica,sans-Serif" font-size="10.00" fill="#63b8ff">2</text>
</a>
</g>
</g>
<!-- dir_125efb1e493e2891584f9afd4d579fa9 -->
<g id="node10" class="node">
<title>dir_125efb1e493e2891584f9afd4d579fa9</title>
<g id="a_node10"><a xlink:href="dir_125efb1e493e2891584f9afd4d579fa9.html" target="_top" xlink:title="health">
<polygon fill="#a2c5d6" stroke="#404040" points="285.5,-208 238.5,-208 238.5,-189 285.5,-189 285.5,-208"/>
<text text-anchor="middle" x="262" y="-196" font-family="Helvetica,sans-Serif" font-size="10.00">health</text>
</a>
</g>
</g>
<!-- dir_125efb1e493e2891584f9afd4d579fa9&#45;&gt;dir_928ab55be48593852a840907c0e72e64 -->
<g id="edge20" class="edge">
<title>dir_125efb1e493e2891584f9afd4d579fa9&#45;&gt;dir_928ab55be48593852a840907c0e72e64</title>
<g id="a_edge20"><a xlink:href="dir_000011_000004.html" target="_top">
<path fill="none" stroke="#63b8ff" d="M242.72,-188.98C223.21,-180.37 192.83,-166.95 170.54,-157.1"/>
<polygon fill="#63b8ff" stroke="#63b8ff" points="171.79,-153.83 161.23,-152.99 168.97,-160.24 171.79,-153.83"/>
</a>
</g>
<g id="a_edge20&#45;headlabel"><a xlink:href="dir_000011_000004.html" target="_top" xlink:title="1">
<text text-anchor="middle" x="176.23" y="-150.19" font-family="Helvetica,sans-Serif" font-size="10.00" fill="#63b8ff">1</text>
</a>
</g>
</g>
<!-- dir_125efb1e493e2891584f9afd4d579fa9&#45;&gt;dir_e16b4c5ac8b1cce49e4bb8a9a51af128 -->
<g id="edge21" class="edge">
<title>dir_125efb1e493e2891584f9afd4d579fa9&#45;&gt;dir_e16b4c5ac8b1cce49e4bb8a9a51af128</title>
<g id="a_edge21"><a xlink:href="dir_000011_000018.html" target="_top">
<path fill="none" stroke="#63b8ff" d="M260.2,-188.68C258.47,-179.74 255.98,-165.48 255,-153 253.82,-137.93 255.88,-120.91 258.07,-108.29"/>
<polygon fill="#63b8ff" stroke="#63b8ff" points="261.57,-108.59 260.02,-98.11 254.7,-107.27 261.57,-108.59"/>
</a>
</g>
<g id="a_edge21&#45;headlabel"><a xlink:href="dir_000011_000018.html" target="_top" xlink:title="1">
<text text-anchor="middle" x="263.68" y="-110.16" font-family="Helvetica,sans-Serif" font-size="10.00" fill="#63b8ff">1</text>
</a>
</g>
</g>
<!-- dir_125efb1e493e2891584f9afd4d579fa9&#45;&gt;dir_7185456dc9524536387bec6c7d5da27d -->
<g id="edge19" class="edge">
<title>dir_125efb1e493e2891584f9afd4d579fa9&#45;&gt;dir_7185456dc9524536387bec6c7d5da27d</title>
<g id="a_edge19"><a xlink:href="dir_000011_000027.html" target="_top">
<path fill="none" stroke="#63b8ff" d="M240.74,-188.92C225.54,-181.65 205.91,-169.72 195,-153 186.31,-139.68 183.88,-121.56 183.44,-108.09"/>
<polygon fill="#63b8ff" stroke="#63b8ff" points="186.94,-108.08 183.44,-98.07 179.94,-108.07 186.94,-108.08"/>
</a>
</g>
<g id="a_edge19&#45;headlabel"><a xlink:href="dir_000011_000027.html" target="_top" xlink:title="1">
<text text-anchor="middle" x="189.77" y="-109.17" font-family="Helvetica,sans-Serif" font-size="10.00" fill="#63b8ff">1</text>
</a>
</g>
</g>
<!-- dir_f10811d35f028b2dbad20258bd9b1e7f&#45;&gt;dir_928ab55be48593852a840907c0e72e64 -->
<g id="edge22" class="edge">
<title>dir_f10811d35f028b2dbad20258bd9b1e7f&#45;&gt;dir_928ab55be48593852a840907c0e72e64</title>
<g id="a_edge22"><a xlink:href="dir_000013_000004.html" target="_top">
<path fill="none" stroke="#63b8ff" d="M166.05,-43.28C165.54,-52.2 161.47,-66.44 159,-79 156.05,-94.01 153.96,-111.24 151.25,-123.96"/>
<polygon fill="#63b8ff" stroke="#63b8ff" points="147.82,-123.25 148.69,-133.81 154.6,-125.02 147.82,-123.25"/>
</a>
</g>
<g id="a_edge22&#45;headlabel"><a xlink:href="dir_000013_000004.html" target="_top" xlink:title="1">
<text text-anchor="middle" x="145.98" y="-116.56" font-family="Helvetica,sans-Serif" font-size="10.00" fill="#63b8ff">1</text>
</a>
</g>
</g>
<!-- dir_5bdf87ed7858c44e3f0f0f610cbcdf1c&#45;&gt;dir_7253a5d7062802da088c1fcbba9d385b -->
<g id="edge24" class="edge">
<title>dir_5bdf87ed7858c44e3f0f0f610cbcdf1c&#45;&gt;dir_7253a5d7062802da088c1fcbba9d385b</title>
<g id="a_edge24"><a xlink:href="dir_000019_000007.html" target="_top">
<path fill="none" stroke="#63b8ff" d="M391.64,-133.75C393.76,-126.72 396.81,-116.62 399.46,-107.84"/>
<polygon fill="#63b8ff" stroke="#63b8ff" points="402.87,-108.67 402.41,-98.09 396.17,-106.65 402.87,-108.67"/>
</a>
</g>
<g id="a_edge24&#45;headlabel"><a xlink:href="dir_000019_000007.html" target="_top" xlink:title="1">
<text text-anchor="middle" x="404.55" y="-110.44" font-family="Helvetica,sans-Serif" font-size="10.00" fill="#63b8ff">1</text>
</a>
</g>
</g>
<!-- dir_5bdf87ed7858c44e3f0f0f610cbcdf1c&#45;&gt;dir_7185456dc9524536387bec6c7d5da27d -->
<g id="edge23" class="edge">
<title>dir_5bdf87ed7858c44e3f0f0f610cbcdf1c&#45;&gt;dir_7185456dc9524536387bec6c7d5da27d</title>
<g id="a_edge23"><a xlink:href="dir_000019_000027.html" target="_top">
<path fill="none" stroke="#63b8ff" d="M363.45,-135.89C327.04,-126.48 260.09,-109.17 219.07,-98.57"/>
<polygon fill="#63b8ff" stroke="#63b8ff" points="219.78,-95.14 209.23,-96.02 218.03,-101.91 219.78,-95.14"/>
</a>
</g>
<g id="a_edge23&#45;headlabel"><a xlink:href="dir_000019_000027.html" target="_top" xlink:title="1">
<text text-anchor="middle" x="223.98" y="-90.79" font-family="Helvetica,sans-Serif" font-size="10.00" fill="#63b8ff">1</text>
</a>
</g>
</g>
<!-- dir_17bbd68b7edb20043d129c50a262872f -->
<g id="node15" class="node">
<title>dir_17bbd68b7edb20043d129c50a262872f</title>
<g id="a_node15"><a xlink:href="dir_17bbd68b7edb20043d129c50a262872f.html" target="_top" xlink:title="safety">
<polygon fill="#a2c5d6" stroke="#404040" points="220.5,-208 173.5,-208 173.5,-189 220.5,-189 220.5,-208"/>
<text text-anchor="middle" x="197" y="-196" font-family="Helvetica,sans-Serif" font-size="10.00">safety</text>
</a>
</g>
</g>
<!-- dir_0152437ea0a7c276b2b3e3011b7816e6 -->
<g id="node16" class="node">
<title>dir_0152437ea0a7c276b2b3e3011b7816e6</title>
<g id="a_node16"><a xlink:href="dir_0152437ea0a7c276b2b3e3011b7816e6.html" target="_top" xlink:title="security">
<polygon fill="#a2c5d6" stroke="#404040" points="580,-153 524,-153 524,-134 580,-134 580,-153"/>
<text text-anchor="middle" x="552" y="-141" font-family="Helvetica,sans-Serif" font-size="10.00">security</text>
</a>
</g>
</g>
<!-- dir_0152437ea0a7c276b2b3e3011b7816e6&#45;&gt;dir_7253a5d7062802da088c1fcbba9d385b -->
<g id="edge25" class="edge">
<title>dir_0152437ea0a7c276b2b3e3011b7816e6&#45;&gt;dir_7253a5d7062802da088c1fcbba9d385b</title>
<g id="a_edge25"><a xlink:href="dir_000022_000007.html" target="_top">
<path fill="none" stroke="#63b8ff" d="M528.38,-133.98C503.52,-125.02 464.23,-110.86 436.69,-100.92"/>
<polygon fill="#63b8ff" stroke="#63b8ff" points="437.71,-97.57 427.12,-97.47 435.34,-104.16 437.71,-97.57"/>
</a>
</g>
<g id="a_edge25&#45;headlabel"><a xlink:href="dir_000022_000007.html" target="_top" xlink:title="1">
<text text-anchor="middle" x="442.06" y="-93.62" font-family="Helvetica,sans-Serif" font-size="10.00" fill="#63b8ff">1</text>
</a>
</g>
</g>
<!-- dir_6a57b20129967e892d5f94aacdb9d60c -->
<g id="node17" class="node">
<title>dir_6a57b20129967e892d5f94aacdb9d60c</title>
<g id="a_node17"><a xlink:href="dir_6a57b20129967e892d5f94aacdb9d60c.html" target="_top" xlink:title="server">
<polygon fill="#a2c5d6" stroke="#404040" points="155.5,-208 108.5,-208 108.5,-189 155.5,-189 155.5,-208"/>
<text text-anchor="middle" x="132" y="-196" font-family="Helvetica,sans-Serif" font-size="10.00">server</text>
</a>
</g>
</g>
<!-- dir_effd97593d3d117a6eef8d4796c9124c -->
<g id="node18" class="node">
<title>dir_effd97593d3d117a6eef8d4796c9124c</title>
<g id="a_node18"><a xlink:href="dir_effd97593d3d117a6eef8d4796c9124c.html" target="_top" xlink:title="structured">
<polygon fill="#a2c5d6" stroke="#404040" points="90,-208 24,-208 24,-189 90,-189 90,-208"/>
<text text-anchor="middle" x="57" y="-196" font-family="Helvetica,sans-Serif" font-size="10.00">structured</text>
</a>
</g>
</g>
<!-- dir_7185456dc9524536387bec6c7d5da27d&#45;&gt;dir_f10811d35f028b2dbad20258bd9b1e7f -->
<g id="edge26" class="edge">
<title>dir_7185456dc9524536387bec6c7d5da27d&#45;&gt;dir_f10811d35f028b2dbad20258bd9b1e7f</title>
<g id="a_edge26"><a xlink:href="dir_000027_000013.html" target="_top">
<path fill="none" stroke="#63b8ff" d="M180.37,-78.75C177.42,-71.65 173.17,-61.4 169.49,-52.56"/>
<polygon fill="#63b8ff" stroke="#63b8ff" points="172.63,-50.98 165.57,-43.09 166.17,-53.67 172.63,-50.98"/>
</a>
</g>
<g id="a_edge26&#45;headlabel"><a xlink:href="dir_000027_000013.html" target="_top" xlink:title="3">
<text text-anchor="middle" x="176.63" y="-50.71" font-family="Helvetica,sans-Serif" font-size="10.00" fill="#63b8ff">3</text>
</a>
</g>
</g>
</g>
</svg>
