<?xml version="1.0" encoding="UTF-8" standalone="no"?>
<!DOCTYPE svg PUBLIC "-//W3C//DTD SVG 1.1//EN"
 "http://www.w3.org/Graphics/SVG/1.1/DTD/svg11.dtd">
<!-- Generated by graphviz version 2.43.0 (0)
 -->
<!-- Title: logger Pages: 1 -->
<svg width="439pt" height="259pt"
 viewBox="0.00 0.00 438.82 259.00" xmlns="http://www.w3.org/2000/svg" xmlns:xlink="http://www.w3.org/1999/xlink">
<g id="graph0" class="graph" transform="scale(1 1) rotate(0) translate(4 255)">
<title>logger</title>
<g id="clust1" class="cluster">
<title>clusterdir_08d237fc27d4ecd563f71c5d52f2fecc</title>
<g id="a_clust1"><a xlink:href="dir_08d237fc27d4ecd563f71c5d52f2fecc.html" target="_top" xlink:title="sources">
<polygon fill="#edf3f7" stroke="#404040" stroke-dasharray="5,2" points="32.82,-8 32.82,-243 422.82,-243 422.82,-8 32.82,-8"/>
<text text-anchor="middle" x="227.82" y="-231" font-family="Helvetica,sans-Serif" font-size="10.00">sources</text>
</a>
</g>
</g>
<g id="clust2" class="cluster">
<title>clusterdir_8eafc3c8aa7c38e9ae7a32faf8deec41</title>
<g id="a_clust2"><a xlink:href="dir_8eafc3c8aa7c38e9ae7a32faf8deec41.html" target="_top">
<polygon fill="#edf3f7" stroke="#404040" stroke-width="2" points="40.82,-16 40.82,-216 414.82,-216 414.82,-16 40.82,-16"/>
</a>
</g>
</g>
<!-- dir_8eafc3c8aa7c38e9ae7a32faf8deec41 -->
<g id="node1" class="node">
<title>dir_8eafc3c8aa7c38e9ae7a32faf8deec41</title>
<text text-anchor="middle" x="304.82" y="-196" font-family="Helvetica,sans-Serif" font-size="10.00">logger</text>
</g>
<!-- dir_615539a9e62276cb0b6ca0873afe0352 -->
<g id="node4" class="node">
<title>dir_615539a9e62276cb0b6ca0873afe0352</title>
<g id="a_node4"><a xlink:href="dir_615539a9e62276cb0b6ca0873afe0352.html" target="_top" xlink:title="core">
<polygon fill="#a2c5d6" stroke="#404040" points="406.82,-153 368.82,-153 368.82,-134 406.82,-134 406.82,-153"/>
<text text-anchor="middle" x="387.82" y="-141" font-family="Helvetica,sans-Serif" font-size="10.00">core</text>
</a>
</g>
</g>
<!-- dir_8eafc3c8aa7c38e9ae7a32faf8deec41&#45;&gt;dir_615539a9e62276cb0b6ca0873afe0352 -->
<g id="edge3" class="edge">
<title>dir_8eafc3c8aa7c38e9ae7a32faf8deec41&#45;&gt;dir_615539a9e62276cb0b6ca0873afe0352</title>
<g id="a_edge3"><a xlink:href="dir_000007_000002.html" target="_top">
<path fill="none" stroke="#63b8ff" d="M318.16,-188.98C330.91,-180.84 350.38,-168.41 365.49,-158.76"/>
<polygon fill="#63b8ff" stroke="#63b8ff" points="367.7,-161.5 374.24,-153.17 363.93,-155.6 367.7,-161.5"/>
</a>
</g>
<g id="a_edge3&#45;headlabel"><a xlink:href="dir_000007_000002.html" target="_top" xlink:title="1">
<text text-anchor="middle" x="366.2" y="-163.33" font-family="Helvetica,sans-Serif" font-size="10.00" fill="#63b8ff">1</text>
</a>
</g>
</g>
<!-- dir_ac85e915568203497774caa1d502ef50 -->
<g id="node5" class="node">
<title>dir_ac85e915568203497774caa1d502ef50</title>
<g id="a_node5"><a xlink:href="dir_ac85e915568203497774caa1d502ef50.html" target="_top" xlink:title="filters">
<polygon fill="#a2c5d6" stroke="#404040" points="254.82,-98 210.82,-98 210.82,-79 254.82,-79 254.82,-98"/>
<text text-anchor="middle" x="232.82" y="-86" font-family="Helvetica,sans-Serif" font-size="10.00">filters</text>
</a>
</g>
</g>
<!-- dir_8eafc3c8aa7c38e9ae7a32faf8deec41&#45;&gt;dir_ac85e915568203497774caa1d502ef50 -->
<g id="edge4" class="edge">
<title>dir_8eafc3c8aa7c38e9ae7a32faf8deec41&#45;&gt;dir_ac85e915568203497774caa1d502ef50</title>
<g id="a_edge4"><a xlink:href="dir_000007_000004.html" target="_top">
<path fill="none" stroke="#63b8ff" d="M281.1,-191.32C277.66,-190.5 274.16,-189.7 270.82,-189 224.27,-179.22 90.5,-189.35 59.82,-153 -2.08,-79.64 -81.53,-171.13 201.05,-98.14"/>
<polygon fill="#63b8ff" stroke="#63b8ff" points="202.03,-101.5 210.82,-95.59 200.26,-94.73 202.03,-101.5"/>
</a>
</g>
<g id="a_edge4&#45;headlabel"><a xlink:href="dir_000007_000004.html" target="_top" xlink:title="4">
<text text-anchor="middle" x="199.27" y="-102.66" font-family="Helvetica,sans-Serif" font-size="10.00" fill="#63b8ff">4</text>
</a>
</g>
</g>
<!-- dir_af4980372a35cc2033ba16b21abe210c -->
<g id="node8" class="node">
<title>dir_af4980372a35cc2033ba16b21abe210c</title>
<g id="a_node8"><a xlink:href="dir_af4980372a35cc2033ba16b21abe210c.html" target="_top" xlink:title="metrics">
<polygon fill="#a2c5d6" stroke="#404040" points="186.32,-153 133.32,-153 133.32,-134 186.32,-134 186.32,-153"/>
<text text-anchor="middle" x="159.82" y="-141" font-family="Helvetica,sans-Serif" font-size="10.00">metrics</text>
</a>
</g>
</g>
<!-- dir_8eafc3c8aa7c38e9ae7a32faf8deec41&#45;&gt;dir_af4980372a35cc2033ba16b21abe210c -->
<g id="edge5" class="edge">
<title>dir_8eafc3c8aa7c38e9ae7a32faf8deec41&#45;&gt;dir_af4980372a35cc2033ba16b21abe210c</title>
<g id="a_edge5"><a xlink:href="dir_000007_000008.html" target="_top">
<path fill="none" stroke="#63b8ff" d="M281.53,-188.98C257.57,-180.23 220.04,-166.51 192.99,-156.62"/>
<polygon fill="#63b8ff" stroke="#63b8ff" points="194.14,-153.32 183.54,-153.17 191.73,-159.89 194.14,-153.32"/>
</a>
</g>
<g id="a_edge5&#45;headlabel"><a xlink:href="dir_000007_000008.html" target="_top" xlink:title="1">
<text text-anchor="middle" x="198.49" y="-149.38" font-family="Helvetica,sans-Serif" font-size="10.00" fill="#63b8ff">1</text>
</a>
</g>
</g>
<!-- dir_542ee1dd370f188543512ad572d980d6 -->
<g id="node9" class="node">
<title>dir_542ee1dd370f188543512ad572d980d6</title>
<g id="a_node9"><a xlink:href="dir_542ee1dd370f188543512ad572d980d6.html" target="_top" xlink:title="routing">
<polygon fill="#a2c5d6" stroke="#404040" points="330.32,-153 279.32,-153 279.32,-134 330.32,-134 330.32,-153"/>
<text text-anchor="middle" x="304.82" y="-141" font-family="Helvetica,sans-Serif" font-size="10.00">routing</text>
</a>
</g>
</g>
<!-- dir_8eafc3c8aa7c38e9ae7a32faf8deec41&#45;&gt;dir_542ee1dd370f188543512ad572d980d6 -->
<g id="edge2" class="edge">
<title>dir_8eafc3c8aa7c38e9ae7a32faf8deec41&#45;&gt;dir_542ee1dd370f188543512ad572d980d6</title>
<g id="a_edge2"><a xlink:href="dir_000007_000009.html" target="_top">
<path fill="none" stroke="#63b8ff" d="M304.82,-188.75C304.82,-181.8 304.82,-171.85 304.82,-163.13"/>
<polygon fill="#63b8ff" stroke="#63b8ff" points="308.32,-163.09 304.82,-153.09 301.32,-163.09 308.32,-163.09"/>
</a>
</g>
<g id="a_edge2&#45;headlabel"><a xlink:href="dir_000007_000009.html" target="_top" xlink:title="1">
<text text-anchor="middle" x="311.16" y="-164.18" font-family="Helvetica,sans-Serif" font-size="10.00" fill="#63b8ff">1</text>
</a>
</g>
</g>
<!-- dir_23bf73740d51936c1f86d2a06c48ee6a -->
<g id="node13" class="node">
<title>dir_23bf73740d51936c1f86d2a06c48ee6a</title>
<g id="a_node13"><a xlink:href="dir_23bf73740d51936c1f86d2a06c48ee6a.html" target="_top" xlink:title="writers">
<polygon fill="#a2c5d6" stroke="#404040" points="329.82,-98 279.82,-98 279.82,-79 329.82,-79 329.82,-98"/>
<text text-anchor="middle" x="304.82" y="-86" font-family="Helvetica,sans-Serif" font-size="10.00">writers</text>
</a>
</g>
</g>
<!-- dir_8eafc3c8aa7c38e9ae7a32faf8deec41&#45;&gt;dir_23bf73740d51936c1f86d2a06c48ee6a -->
<g id="edge1" class="edge">
<title>dir_8eafc3c8aa7c38e9ae7a32faf8deec41&#45;&gt;dir_23bf73740d51936c1f86d2a06c48ee6a</title>
<g id="a_edge1"><a xlink:href="dir_000007_000014.html" target="_top">
<path fill="none" stroke="#63b8ff" d="M314.71,-188.75C323.21,-180.5 334.87,-167.3 339.82,-153 345.77,-135.83 333.87,-117.83 322.37,-105.39"/>
<polygon fill="#63b8ff" stroke="#63b8ff" points="324.61,-102.68 315.06,-98.09 319.67,-107.64 324.61,-102.68"/>
</a>
</g>
<g id="a_edge1&#45;headlabel"><a xlink:href="dir_000007_000014.html" target="_top" xlink:title="4">
<text text-anchor="middle" x="329.16" y="-100.72" font-family="Helvetica,sans-Serif" font-size="10.00" fill="#63b8ff">4</text>
</a>
</g>
</g>
<!-- dir_45a02bcc868d58485d680c85bfaf465d -->
<g id="node2" class="node">
<title>dir_45a02bcc868d58485d680c85bfaf465d</title>
<g id="a_node2"><a xlink:href="dir_45a02bcc868d58485d680c85bfaf465d.html" target="_top" xlink:title="analysis">
<polygon fill="#a2c5d6" stroke="#404040" points="262.32,-208 205.32,-208 205.32,-189 262.32,-189 262.32,-208"/>
<text text-anchor="middle" x="233.82" y="-196" font-family="Helvetica,sans-Serif" font-size="10.00">analysis</text>
</a>
</g>
</g>
<!-- dir_85634e65fefe8c8dcb3d84124f55c94a -->
<g id="node3" class="node">
<title>dir_85634e65fefe8c8dcb3d84124f55c94a</title>
<g id="a_node3"><a xlink:href="dir_85634e65fefe8c8dcb3d84124f55c94a.html" target="_top" xlink:title="config">
<polygon fill="#a2c5d6" stroke="#404040" points="114.82,-153 68.82,-153 68.82,-134 114.82,-134 114.82,-153"/>
<text text-anchor="middle" x="91.82" y="-141" font-family="Helvetica,sans-Serif" font-size="10.00">config</text>
</a>
</g>
</g>
<!-- dir_85634e65fefe8c8dcb3d84124f55c94a&#45;&gt;dir_ac85e915568203497774caa1d502ef50 -->
<g id="edge7" class="edge">
<title>dir_85634e65fefe8c8dcb3d84124f55c94a&#45;&gt;dir_ac85e915568203497774caa1d502ef50</title>
<g id="a_edge7"><a xlink:href="dir_000001_000004.html" target="_top">
<path fill="none" stroke="#63b8ff" d="M114.48,-133.98C137.95,-125.16 174.81,-111.31 201.16,-101.4"/>
<polygon fill="#63b8ff" stroke="#63b8ff" points="202.56,-104.61 210.69,-97.82 200.1,-98.06 202.56,-104.61"/>
</a>
</g>
<g id="a_edge7&#45;headlabel"><a xlink:href="dir_000001_000004.html" target="_top" xlink:title="1">
<text text-anchor="middle" x="200.19" y="-106.04" font-family="Helvetica,sans-Serif" font-size="10.00" fill="#63b8ff">1</text>
</a>
</g>
</g>
<!-- dir_d08dd0d232defddea2975cfbbcf0e0b0 -->
<g id="node7" class="node">
<title>dir_d08dd0d232defddea2975cfbbcf0e0b0</title>
<g id="a_node7"><a xlink:href="dir_d08dd0d232defddea2975cfbbcf0e0b0.html" target="_top" xlink:title="interfaces">
<polygon fill="#a2c5d6" stroke="#404040" points="265.32,-43 200.32,-43 200.32,-24 265.32,-24 265.32,-43"/>
<text text-anchor="middle" x="232.82" y="-31" font-family="Helvetica,sans-Serif" font-size="10.00">interfaces</text>
</a>
</g>
</g>
<!-- dir_85634e65fefe8c8dcb3d84124f55c94a&#45;&gt;dir_d08dd0d232defddea2975cfbbcf0e0b0 -->
<g id="edge8" class="edge">
<title>dir_85634e65fefe8c8dcb3d84124f55c94a&#45;&gt;dir_d08dd0d232defddea2975cfbbcf0e0b0</title>
<g id="a_edge8"><a xlink:href="dir_000001_000006.html" target="_top">
<path fill="none" stroke="#63b8ff" d="M92.82,-133.9C94.81,-120.44 100.51,-94.35 115.82,-79 135.86,-58.92 165.88,-47.75 190.49,-41.62"/>
<polygon fill="#63b8ff" stroke="#63b8ff" points="191.35,-45.02 200.32,-39.37 189.79,-38.19 191.35,-45.02"/>
</a>
</g>
<g id="a_edge8&#45;headlabel"><a xlink:href="dir_000001_000006.html" target="_top" xlink:title="1">
<text text-anchor="middle" x="188.48" y="-46.09" font-family="Helvetica,sans-Serif" font-size="10.00" fill="#63b8ff">1</text>
</a>
</g>
</g>
<!-- dir_85634e65fefe8c8dcb3d84124f55c94a&#45;&gt;dir_23bf73740d51936c1f86d2a06c48ee6a -->
<g id="edge6" class="edge">
<title>dir_85634e65fefe8c8dcb3d84124f55c94a&#45;&gt;dir_23bf73740d51936c1f86d2a06c48ee6a</title>
<g id="a_edge6"><a xlink:href="dir_000001_000014.html" target="_top">
<path fill="none" stroke="#63b8ff" d="M114.88,-136.32C117.89,-135.53 120.93,-134.74 123.82,-134 174.33,-121.08 232.95,-106.8 269.46,-97.99"/>
<polygon fill="#63b8ff" stroke="#63b8ff" points="270.7,-101.29 279.6,-95.54 269.06,-94.48 270.7,-101.29"/>
</a>
</g>
<g id="a_edge6&#45;headlabel"><a xlink:href="dir_000001_000014.html" target="_top" xlink:title="1">
<text text-anchor="middle" x="267.87" y="-102.39" font-family="Helvetica,sans-Serif" font-size="10.00" fill="#63b8ff">1</text>
</a>
</g>
</g>
<!-- dir_615539a9e62276cb0b6ca0873afe0352&#45;&gt;dir_d08dd0d232defddea2975cfbbcf0e0b0 -->
<g id="edge10" class="edge">
<title>dir_615539a9e62276cb0b6ca0873afe0352&#45;&gt;dir_d08dd0d232defddea2975cfbbcf0e0b0</title>
<g id="a_edge10"><a xlink:href="dir_000002_000006.html" target="_top">
<path fill="none" stroke="#63b8ff" d="M383.2,-133.96C375.56,-120.59 359.13,-94.62 338.82,-79 319.7,-64.3 295.01,-53.56 274.27,-46.32"/>
<polygon fill="#63b8ff" stroke="#63b8ff" points="275.34,-42.99 264.75,-43.14 273.12,-49.63 275.34,-42.99"/>
</a>
</g>
<g id="a_edge10&#45;headlabel"><a xlink:href="dir_000002_000006.html" target="_top" xlink:title="1">
<text text-anchor="middle" x="279.65" y="-38.93" font-family="Helvetica,sans-Serif" font-size="10.00" fill="#63b8ff">1</text>
</a>
</g>
</g>
<!-- dir_615539a9e62276cb0b6ca0873afe0352&#45;&gt;dir_23bf73740d51936c1f86d2a06c48ee6a -->
<g id="edge9" class="edge">
<title>dir_615539a9e62276cb0b6ca0873afe0352&#45;&gt;dir_23bf73740d51936c1f86d2a06c48ee6a</title>
<g id="a_edge9"><a xlink:href="dir_000002_000014.html" target="_top">
<path fill="none" stroke="#63b8ff" d="M374.49,-133.98C361.74,-125.84 342.27,-113.41 327.15,-103.76"/>
<polygon fill="#63b8ff" stroke="#63b8ff" points="328.71,-100.6 318.4,-98.17 324.95,-106.5 328.71,-100.6"/>
</a>
</g>
<g id="a_edge9&#45;headlabel"><a xlink:href="dir_000002_000014.html" target="_top" xlink:title="1">
<text text-anchor="middle" x="333.27" y="-97.64" font-family="Helvetica,sans-Serif" font-size="10.00" fill="#63b8ff">1</text>
</a>
</g>
</g>
<!-- dir_ac85e915568203497774caa1d502ef50&#45;&gt;dir_d08dd0d232defddea2975cfbbcf0e0b0 -->
<g id="edge11" class="edge">
<title>dir_ac85e915568203497774caa1d502ef50&#45;&gt;dir_d08dd0d232defddea2975cfbbcf0e0b0</title>
<g id="a_edge11"><a xlink:href="dir_000004_000006.html" target="_top">
<path fill="none" stroke="#63b8ff" d="M232.82,-78.75C232.82,-71.8 232.82,-61.85 232.82,-53.13"/>
<polygon fill="#63b8ff" stroke="#63b8ff" points="236.32,-53.09 232.82,-43.09 229.32,-53.09 236.32,-53.09"/>
</a>
</g>
<g id="a_edge11&#45;headlabel"><a xlink:href="dir_000004_000006.html" target="_top" xlink:title="2">
<text text-anchor="middle" x="239.16" y="-54.18" font-family="Helvetica,sans-Serif" font-size="10.00" fill="#63b8ff">2</text>
</a>
</g>
</g>
<!-- dir_080ce305e125670f6ab75927669779d1 -->
<g id="node6" class="node">
<title>dir_080ce305e125670f6ab75927669779d1</title>
<g id="a_node6"><a xlink:href="dir_080ce305e125670f6ab75927669779d1.html" target="_top" xlink:title="formatters">
<polygon fill="#a2c5d6" stroke="#404040" points="192.82,-98 124.82,-98 124.82,-79 192.82,-79 192.82,-98"/>
<text text-anchor="middle" x="158.82" y="-86" font-family="Helvetica,sans-Serif" font-size="10.00">formatters</text>
</a>
</g>
</g>
<!-- dir_080ce305e125670f6ab75927669779d1&#45;&gt;dir_d08dd0d232defddea2975cfbbcf0e0b0 -->
<g id="edge12" class="edge">
<title>dir_080ce305e125670f6ab75927669779d1&#45;&gt;dir_d08dd0d232defddea2975cfbbcf0e0b0</title>
<g id="a_edge12"><a xlink:href="dir_000005_000006.html" target="_top">
<path fill="none" stroke="#63b8ff" d="M170.71,-78.98C181.97,-70.92 199.11,-58.65 212.53,-49.03"/>
<polygon fill="#63b8ff" stroke="#63b8ff" points="214.63,-51.84 220.72,-43.17 210.55,-46.15 214.63,-51.84"/>
</a>
</g>
<g id="a_edge12&#45;headlabel"><a xlink:href="dir_000005_000006.html" target="_top" xlink:title="2">
<text text-anchor="middle" x="213.36" y="-53.74" font-family="Helvetica,sans-Serif" font-size="10.00" fill="#63b8ff">2</text>
</a>
</g>
</g>
<!-- dir_542ee1dd370f188543512ad572d980d6&#45;&gt;dir_ac85e915568203497774caa1d502ef50 -->
<g id="edge14" class="edge">
<title>dir_542ee1dd370f188543512ad572d980d6&#45;&gt;dir_ac85e915568203497774caa1d502ef50</title>
<g id="a_edge14"><a xlink:href="dir_000009_000004.html" target="_top">
<path fill="none" stroke="#63b8ff" d="M293.25,-133.98C282.4,-126 265.94,-113.88 252.94,-104.31"/>
<polygon fill="#63b8ff" stroke="#63b8ff" points="254.73,-101.28 244.6,-98.17 250.58,-106.92 254.73,-101.28"/>
</a>
</g>
<g id="a_edge14&#45;headlabel"><a xlink:href="dir_000009_000004.html" target="_top" xlink:title="1">
<text text-anchor="middle" x="259.31" y="-98.62" font-family="Helvetica,sans-Serif" font-size="10.00" fill="#63b8ff">1</text>
</a>
</g>
</g>
<!-- dir_542ee1dd370f188543512ad572d980d6&#45;&gt;dir_23bf73740d51936c1f86d2a06c48ee6a -->
<g id="edge13" class="edge">
<title>dir_542ee1dd370f188543512ad572d980d6&#45;&gt;dir_23bf73740d51936c1f86d2a06c48ee6a</title>
<g id="a_edge13"><a xlink:href="dir_000009_000014.html" target="_top">
<path fill="none" stroke="#63b8ff" d="M304.82,-133.75C304.82,-126.8 304.82,-116.85 304.82,-108.13"/>
<polygon fill="#63b8ff" stroke="#63b8ff" points="308.32,-108.09 304.82,-98.09 301.32,-108.09 308.32,-108.09"/>
</a>
</g>
<g id="a_edge13&#45;headlabel"><a xlink:href="dir_000009_000014.html" target="_top" xlink:title="1">
<text text-anchor="middle" x="311.16" y="-109.18" font-family="Helvetica,sans-Serif" font-size="10.00" fill="#63b8ff">1</text>
</a>
</g>
</g>
<!-- dir_4494e21e850fe0822a9311b163f5af2f -->
<g id="node10" class="node">
<title>dir_4494e21e850fe0822a9311b163f5af2f</title>
<g id="a_node10"><a xlink:href="dir_4494e21e850fe0822a9311b163f5af2f.html" target="_top" xlink:title="security">
<polygon fill="#a2c5d6" stroke="#404040" points="260.82,-153 204.82,-153 204.82,-134 260.82,-134 260.82,-153"/>
<text text-anchor="middle" x="232.82" y="-141" font-family="Helvetica,sans-Serif" font-size="10.00">security</text>
</a>
</g>
</g>
<!-- dir_4494e21e850fe0822a9311b163f5af2f&#45;&gt;dir_ac85e915568203497774caa1d502ef50 -->
<g id="edge15" class="edge">
<title>dir_4494e21e850fe0822a9311b163f5af2f&#45;&gt;dir_ac85e915568203497774caa1d502ef50</title>
<g id="a_edge15"><a xlink:href="dir_000010_000004.html" target="_top">
<path fill="none" stroke="#63b8ff" d="M232.82,-133.75C232.82,-126.8 232.82,-116.85 232.82,-108.13"/>
<polygon fill="#63b8ff" stroke="#63b8ff" points="236.32,-108.09 232.82,-98.09 229.32,-108.09 236.32,-108.09"/>
</a>
</g>
<g id="a_edge15&#45;headlabel"><a xlink:href="dir_000010_000004.html" target="_top" xlink:title="1">
<text text-anchor="middle" x="239.16" y="-109.18" font-family="Helvetica,sans-Serif" font-size="10.00" fill="#63b8ff">1</text>
</a>
</g>
</g>
<!-- dir_6412b0abeabb451ddbb169e6e430cb09 -->
<g id="node11" class="node">
<title>dir_6412b0abeabb451ddbb169e6e430cb09</title>
<g id="a_node11"><a xlink:href="dir_6412b0abeabb451ddbb169e6e430cb09.html" target="_top" xlink:title="server">
<polygon fill="#a2c5d6" stroke="#404040" points="185.32,-208 138.32,-208 138.32,-189 185.32,-189 185.32,-208"/>
<text text-anchor="middle" x="161.82" y="-196" font-family="Helvetica,sans-Serif" font-size="10.00">server</text>
</a>
</g>
</g>
<!-- dir_35f695f46e233fd426ddb4e530bf1104 -->
<g id="node12" class="node">
<title>dir_35f695f46e233fd426ddb4e530bf1104</title>
<g id="a_node12"><a xlink:href="dir_35f695f46e233fd426ddb4e530bf1104.html" target="_top" xlink:title="structured">
<polygon fill="#a2c5d6" stroke="#404040" points="115.82,-208 49.82,-208 49.82,-189 115.82,-189 115.82,-208"/>
<text text-anchor="middle" x="82.82" y="-196" font-family="Helvetica,sans-Serif" font-size="10.00">structured</text>
</a>
</g>
</g>
<!-- dir_23bf73740d51936c1f86d2a06c48ee6a&#45;&gt;dir_d08dd0d232defddea2975cfbbcf0e0b0 -->
<g id="edge16" class="edge">
<title>dir_23bf73740d51936c1f86d2a06c48ee6a&#45;&gt;dir_d08dd0d232defddea2975cfbbcf0e0b0</title>
<g id="a_edge16"><a xlink:href="dir_000014_000006.html" target="_top">
<path fill="none" stroke="#63b8ff" d="M293.25,-78.98C282.4,-71 265.94,-58.88 252.94,-49.31"/>
<polygon fill="#63b8ff" stroke="#63b8ff" points="254.73,-46.28 244.6,-43.17 250.58,-51.92 254.73,-46.28"/>
</a>
</g>
<g id="a_edge16&#45;headlabel"><a xlink:href="dir_000014_000006.html" target="_top" xlink:title="2">
<text text-anchor="middle" x="259.31" y="-43.62" font-family="Helvetica,sans-Serif" font-size="10.00" fill="#63b8ff">2</text>
</a>
</g>
</g>
</g>
</svg>
