<?xml version="1.0" encoding="UTF-8" standalone="no"?>
<!DOCTYPE svg PUBLIC "-//W3C//DTD SVG 1.1//EN"
 "http://www.w3.org/Graphics/SVG/1.1/DTD/svg11.dtd">
<!-- Generated by graphviz version 2.43.0 (0)
 -->
<!-- Title: logger Pages: 1 -->
<svg width="550pt" height="259pt"
 viewBox="0.00 0.00 550.00 259.00" xmlns="http://www.w3.org/2000/svg" xmlns:xlink="http://www.w3.org/1999/xlink">
<g id="graph0" class="graph" transform="scale(1 1) rotate(0) translate(4 255)">
<title>logger</title>
<g id="clust1" class="cluster">
<title>clusterdir_08d237fc27d4ecd563f71c5d52f2fecc</title>
<g id="a_clust1"><a xlink:href="dir_08d237fc27d4ecd563f71c5d52f2fecc.html" target="_top" xlink:title="sources">
<polygon fill="#edf3f7" stroke="#404040" stroke-dasharray="5,2" points="8,-8 8,-243 534,-243 534,-8 8,-8"/>
<text text-anchor="middle" x="271" y="-231" font-family="Helvetica,sans-Serif" font-size="10.00">sources</text>
</a>
</g>
</g>
<g id="clust2" class="cluster">
<title>clusterdir_8eafc3c8aa7c38e9ae7a32faf8deec41</title>
<g id="a_clust2"><a xlink:href="dir_8eafc3c8aa7c38e9ae7a32faf8deec41.html" target="_top">
<polygon fill="#edf3f7" stroke="#404040" stroke-width="2" points="16,-16 16,-216 526,-216 526,-16 16,-16"/>
</a>
</g>
</g>
<!-- dir_8eafc3c8aa7c38e9ae7a32faf8deec41 -->
<g id="node1" class="node">
<title>dir_8eafc3c8aa7c38e9ae7a32faf8deec41</title>
<text text-anchor="middle" x="341" y="-196" font-family="Helvetica,sans-Serif" font-size="10.00">logger</text>
</g>
<!-- dir_615539a9e62276cb0b6ca0873afe0352 -->
<g id="node4" class="node">
<title>dir_615539a9e62276cb0b6ca0873afe0352</title>
<g id="a_node4"><a xlink:href="dir_615539a9e62276cb0b6ca0873afe0352.html" target="_top" xlink:title="core">
<polygon fill="#a2c5d6" stroke="#404040" points="446,-153 408,-153 408,-134 446,-134 446,-153"/>
<text text-anchor="middle" x="427" y="-141" font-family="Helvetica,sans-Serif" font-size="10.00">core</text>
</a>
</g>
</g>
<!-- dir_8eafc3c8aa7c38e9ae7a32faf8deec41&#45;&gt;dir_615539a9e62276cb0b6ca0873afe0352 -->
<g id="edge3" class="edge">
<title>dir_8eafc3c8aa7c38e9ae7a32faf8deec41&#45;&gt;dir_615539a9e62276cb0b6ca0873afe0352</title>
<g id="a_edge3"><a xlink:href="dir_000008_000002.html" target="_top">
<path fill="none" stroke="#63b8ff" d="M354.82,-188.98C368.15,-180.77 388.58,-168.18 404.31,-158.49"/>
<polygon fill="#63b8ff" stroke="#63b8ff" points="406.25,-161.4 412.93,-153.17 402.58,-155.44 406.25,-161.4"/>
</a>
</g>
<g id="a_edge3&#45;headlabel"><a xlink:href="dir_000008_000002.html" target="_top" xlink:title="1">
<text text-anchor="middle" x="404.68" y="-163.2" font-family="Helvetica,sans-Serif" font-size="10.00" fill="#63b8ff">1</text>
</a>
</g>
</g>
<!-- dir_668fc57c06f3cd1944d40bde66bdac3e -->
<g id="node5" class="node">
<title>dir_668fc57c06f3cd1944d40bde66bdac3e</title>
<g id="a_node5"><a xlink:href="dir_668fc57c06f3cd1944d40bde66bdac3e.html" target="_top" xlink:title="di">
<polygon fill="#a2c5d6" stroke="#404040" points="389.5,-153 360.5,-153 360.5,-134 389.5,-134 389.5,-153"/>
<text text-anchor="middle" x="375" y="-141" font-family="Helvetica,sans-Serif" font-size="10.00">di</text>
</a>
</g>
</g>
<!-- dir_8eafc3c8aa7c38e9ae7a32faf8deec41&#45;&gt;dir_668fc57c06f3cd1944d40bde66bdac3e -->
<g id="edge4" class="edge">
<title>dir_8eafc3c8aa7c38e9ae7a32faf8deec41&#45;&gt;dir_668fc57c06f3cd1944d40bde66bdac3e</title>
<g id="a_edge4"><a xlink:href="dir_000008_000003.html" target="_top">
<path fill="none" stroke="#63b8ff" d="M346.61,-188.75C351.32,-181.42 358.17,-170.73 363.97,-161.7"/>
<polygon fill="#63b8ff" stroke="#63b8ff" points="367.04,-163.4 369.49,-153.09 361.14,-159.62 367.04,-163.4"/>
</a>
</g>
<g id="a_edge4&#45;headlabel"><a xlink:href="dir_000008_000003.html" target="_top" xlink:title="2">
<text text-anchor="middle" x="367.49" y="-165.45" font-family="Helvetica,sans-Serif" font-size="10.00" fill="#63b8ff">2</text>
</a>
</g>
</g>
<!-- dir_ac85e915568203497774caa1d502ef50 -->
<g id="node6" class="node">
<title>dir_ac85e915568203497774caa1d502ef50</title>
<g id="a_node6"><a xlink:href="dir_ac85e915568203497774caa1d502ef50.html" target="_top" xlink:title="filters">
<polygon fill="#a2c5d6" stroke="#404040" points="263,-98 219,-98 219,-79 263,-79 263,-98"/>
<text text-anchor="middle" x="241" y="-86" font-family="Helvetica,sans-Serif" font-size="10.00">filters</text>
</a>
</g>
</g>
<!-- dir_8eafc3c8aa7c38e9ae7a32faf8deec41&#45;&gt;dir_ac85e915568203497774caa1d502ef50 -->
<g id="edge6" class="edge">
<title>dir_8eafc3c8aa7c38e9ae7a32faf8deec41&#45;&gt;dir_ac85e915568203497774caa1d502ef50</title>
<g id="a_edge6"><a xlink:href="dir_000008_000005.html" target="_top">
<path fill="none" stroke="#63b8ff" d="M317.14,-189.45C299.6,-182.39 276.4,-170.5 262,-153 251.51,-140.25 246.19,-122.08 243.54,-108.43"/>
<polygon fill="#63b8ff" stroke="#63b8ff" points="246.95,-107.57 241.88,-98.26 240.04,-108.69 246.95,-107.57"/>
</a>
</g>
<g id="a_edge6&#45;headlabel"><a xlink:href="dir_000008_000005.html" target="_top" xlink:title="4">
<text text-anchor="middle" x="250.33" y="-108.16" font-family="Helvetica,sans-Serif" font-size="10.00" fill="#63b8ff">4</text>
</a>
</g>
</g>
<!-- dir_af4980372a35cc2033ba16b21abe210c -->
<g id="node9" class="node">
<title>dir_af4980372a35cc2033ba16b21abe210c</title>
<g id="a_node9"><a xlink:href="dir_af4980372a35cc2033ba16b21abe210c.html" target="_top" xlink:title="metrics">
<polygon fill="#a2c5d6" stroke="#404040" points="517.5,-153 464.5,-153 464.5,-134 517.5,-134 517.5,-153"/>
<text text-anchor="middle" x="491" y="-141" font-family="Helvetica,sans-Serif" font-size="10.00">metrics</text>
</a>
</g>
</g>
<!-- dir_8eafc3c8aa7c38e9ae7a32faf8deec41&#45;&gt;dir_af4980372a35cc2033ba16b21abe210c -->
<g id="edge7" class="edge">
<title>dir_8eafc3c8aa7c38e9ae7a32faf8deec41&#45;&gt;dir_af4980372a35cc2033ba16b21abe210c</title>
<g id="a_edge7"><a xlink:href="dir_000008_000009.html" target="_top">
<path fill="none" stroke="#63b8ff" d="M364.77,-189.1C389.74,-180.28 429.24,-166.32 457.4,-156.37"/>
<polygon fill="#63b8ff" stroke="#63b8ff" points="458.58,-159.67 466.85,-153.03 456.25,-153.07 458.58,-159.67"/>
</a>
</g>
<g id="a_edge7&#45;headlabel"><a xlink:href="dir_000008_000009.html" target="_top" xlink:title="1">
<text text-anchor="middle" x="456.14" y="-161.04" font-family="Helvetica,sans-Serif" font-size="10.00" fill="#63b8ff">1</text>
</a>
</g>
</g>
<!-- dir_6efac90e5e4bf18ab5886c2fdf81f437 -->
<g id="node10" class="node">
<title>dir_6efac90e5e4bf18ab5886c2fdf81f437</title>
<g id="a_node10"><a xlink:href="dir_6efac90e5e4bf18ab5886c2fdf81f437.html" target="_top" xlink:title="monitoring">
<polygon fill="#a2c5d6" stroke="#404040" points="158,-153 88,-153 88,-134 158,-134 158,-153"/>
<text text-anchor="middle" x="123" y="-141" font-family="Helvetica,sans-Serif" font-size="10.00">monitoring</text>
</a>
</g>
</g>
<!-- dir_8eafc3c8aa7c38e9ae7a32faf8deec41&#45;&gt;dir_6efac90e5e4bf18ab5886c2fdf81f437 -->
<g id="edge5" class="edge">
<title>dir_8eafc3c8aa7c38e9ae7a32faf8deec41&#45;&gt;dir_6efac90e5e4bf18ab5886c2fdf81f437</title>
<g id="a_edge5"><a xlink:href="dir_000008_000010.html" target="_top">
<path fill="none" stroke="#63b8ff" d="M317.26,-191.73C281.55,-183.05 213.41,-166.48 168.07,-155.46"/>
<polygon fill="#63b8ff" stroke="#63b8ff" points="168.75,-152.02 158.2,-153.06 167.09,-158.82 168.75,-152.02"/>
</a>
</g>
<g id="a_edge5&#45;headlabel"><a xlink:href="dir_000008_000010.html" target="_top" xlink:title="2">
<text text-anchor="middle" x="172.91" y="-147.61" font-family="Helvetica,sans-Serif" font-size="10.00" fill="#63b8ff">2</text>
</a>
</g>
</g>
<!-- dir_542ee1dd370f188543512ad572d980d6 -->
<g id="node11" class="node">
<title>dir_542ee1dd370f188543512ad572d980d6</title>
<g id="a_node11"><a xlink:href="dir_542ee1dd370f188543512ad572d980d6.html" target="_top" xlink:title="routing">
<polygon fill="#a2c5d6" stroke="#404040" points="321.5,-153 270.5,-153 270.5,-134 321.5,-134 321.5,-153"/>
<text text-anchor="middle" x="296" y="-141" font-family="Helvetica,sans-Serif" font-size="10.00">routing</text>
</a>
</g>
</g>
<!-- dir_8eafc3c8aa7c38e9ae7a32faf8deec41&#45;&gt;dir_542ee1dd370f188543512ad572d980d6 -->
<g id="edge2" class="edge">
<title>dir_8eafc3c8aa7c38e9ae7a32faf8deec41&#45;&gt;dir_542ee1dd370f188543512ad572d980d6</title>
<g id="a_edge2"><a xlink:href="dir_000008_000011.html" target="_top">
<path fill="none" stroke="#63b8ff" d="M333.57,-188.75C327.15,-181.18 317.69,-170.05 309.88,-160.84"/>
<polygon fill="#63b8ff" stroke="#63b8ff" points="312.43,-158.45 303.29,-153.09 307.1,-162.98 312.43,-158.45"/>
</a>
</g>
<g id="a_edge2&#45;headlabel"><a xlink:href="dir_000008_000011.html" target="_top" xlink:title="1">
<text text-anchor="middle" x="316.92" y="-156.85" font-family="Helvetica,sans-Serif" font-size="10.00" fill="#63b8ff">1</text>
</a>
</g>
</g>
<!-- dir_23bf73740d51936c1f86d2a06c48ee6a -->
<g id="node15" class="node">
<title>dir_23bf73740d51936c1f86d2a06c48ee6a</title>
<g id="a_node15"><a xlink:href="dir_23bf73740d51936c1f86d2a06c48ee6a.html" target="_top" xlink:title="writers">
<polygon fill="#a2c5d6" stroke="#404040" points="331,-98 281,-98 281,-79 331,-79 331,-98"/>
<text text-anchor="middle" x="306" y="-86" font-family="Helvetica,sans-Serif" font-size="10.00">writers</text>
</a>
</g>
</g>
<!-- dir_8eafc3c8aa7c38e9ae7a32faf8deec41&#45;&gt;dir_23bf73740d51936c1f86d2a06c48ee6a -->
<g id="edge1" class="edge">
<title>dir_8eafc3c8aa7c38e9ae7a32faf8deec41&#45;&gt;dir_23bf73740d51936c1f86d2a06c48ee6a</title>
<g id="a_edge1"><a xlink:href="dir_000008_000016.html" target="_top">
<path fill="none" stroke="#63b8ff" d="M340.59,-188.63C339.8,-176.14 337.51,-152.77 331,-134 327.74,-124.6 322.52,-114.88 317.7,-106.93"/>
<polygon fill="#63b8ff" stroke="#63b8ff" points="320.5,-104.8 312.17,-98.26 314.59,-108.57 320.5,-104.8"/>
</a>
</g>
<g id="a_edge1&#45;headlabel"><a xlink:href="dir_000008_000016.html" target="_top" xlink:title="4">
<text text-anchor="middle" x="324.82" y="-103.81" font-family="Helvetica,sans-Serif" font-size="10.00" fill="#63b8ff">4</text>
</a>
</g>
</g>
<!-- dir_45a02bcc868d58485d680c85bfaf465d -->
<g id="node2" class="node">
<title>dir_45a02bcc868d58485d680c85bfaf465d</title>
<g id="a_node2"><a xlink:href="dir_45a02bcc868d58485d680c85bfaf465d.html" target="_top" xlink:title="analysis">
<polygon fill="#a2c5d6" stroke="#404040" points="290.5,-208 233.5,-208 233.5,-189 290.5,-189 290.5,-208"/>
<text text-anchor="middle" x="262" y="-196" font-family="Helvetica,sans-Serif" font-size="10.00">analysis</text>
</a>
</g>
</g>
<!-- dir_85634e65fefe8c8dcb3d84124f55c94a -->
<g id="node3" class="node">
<title>dir_85634e65fefe8c8dcb3d84124f55c94a</title>
<g id="a_node3"><a xlink:href="dir_85634e65fefe8c8dcb3d84124f55c94a.html" target="_top" xlink:title="config">
<polygon fill="#a2c5d6" stroke="#404040" points="70,-153 24,-153 24,-134 70,-134 70,-153"/>
<text text-anchor="middle" x="47" y="-141" font-family="Helvetica,sans-Serif" font-size="10.00">config</text>
</a>
</g>
</g>
<!-- dir_85634e65fefe8c8dcb3d84124f55c94a&#45;&gt;dir_ac85e915568203497774caa1d502ef50 -->
<g id="edge9" class="edge">
<title>dir_85634e65fefe8c8dcb3d84124f55c94a&#45;&gt;dir_ac85e915568203497774caa1d502ef50</title>
<g id="a_edge9"><a xlink:href="dir_000001_000005.html" target="_top">
<path fill="none" stroke="#63b8ff" d="M70.22,-136.17C100.04,-128.04 153.68,-113.41 209.01,-98.27"/>
<polygon fill="#63b8ff" stroke="#63b8ff" points="210.26,-101.55 218.99,-95.54 208.42,-94.8 210.26,-101.55"/>
</a>
</g>
<g id="a_edge9&#45;headlabel"><a xlink:href="dir_000001_000005.html" target="_top" xlink:title="1">
<text text-anchor="middle" x="207.55" y="-102.74" font-family="Helvetica,sans-Serif" font-size="10.00" fill="#63b8ff">1</text>
</a>
</g>
</g>
<!-- dir_d08dd0d232defddea2975cfbbcf0e0b0 -->
<g id="node8" class="node">
<title>dir_d08dd0d232defddea2975cfbbcf0e0b0</title>
<g id="a_node8"><a xlink:href="dir_d08dd0d232defddea2975cfbbcf0e0b0.html" target="_top" xlink:title="interfaces">
<polygon fill="#a2c5d6" stroke="#404040" points="273.5,-43 208.5,-43 208.5,-24 273.5,-24 273.5,-43"/>
<text text-anchor="middle" x="241" y="-31" font-family="Helvetica,sans-Serif" font-size="10.00">interfaces</text>
</a>
</g>
</g>
<!-- dir_85634e65fefe8c8dcb3d84124f55c94a&#45;&gt;dir_d08dd0d232defddea2975cfbbcf0e0b0 -->
<g id="edge10" class="edge">
<title>dir_85634e65fefe8c8dcb3d84124f55c94a&#45;&gt;dir_d08dd0d232defddea2975cfbbcf0e0b0</title>
<g id="a_edge10"><a xlink:href="dir_000001_000007.html" target="_top">
<path fill="none" stroke="#63b8ff" d="M55.75,-133.62C69.32,-120.26 96.74,-94.85 124,-79 148.17,-64.95 177.59,-53.79 200.88,-46.15"/>
<polygon fill="#63b8ff" stroke="#63b8ff" points="201.99,-49.47 210.45,-43.1 199.86,-42.8 201.99,-49.47"/>
</a>
</g>
<g id="a_edge10&#45;headlabel"><a xlink:href="dir_000001_000007.html" target="_top" xlink:title="1">
<text text-anchor="middle" x="199.43" y="-50.77" font-family="Helvetica,sans-Serif" font-size="10.00" fill="#63b8ff">1</text>
</a>
</g>
</g>
<!-- dir_85634e65fefe8c8dcb3d84124f55c94a&#45;&gt;dir_23bf73740d51936c1f86d2a06c48ee6a -->
<g id="edge8" class="edge">
<title>dir_85634e65fefe8c8dcb3d84124f55c94a&#45;&gt;dir_23bf73740d51936c1f86d2a06c48ee6a</title>
<g id="a_edge8"><a xlink:href="dir_000001_000016.html" target="_top">
<path fill="none" stroke="#63b8ff" d="M70.02,-136.16C73.03,-135.4 76.08,-134.66 79,-134 161.04,-115.48 185.03,-116.49 270.87,-98.13"/>
<polygon fill="#63b8ff" stroke="#63b8ff" points="271.76,-101.52 280.79,-95.98 270.27,-94.68 271.76,-101.52"/>
</a>
</g>
<g id="a_edge8&#45;headlabel"><a xlink:href="dir_000001_000016.html" target="_top" xlink:title="1">
<text text-anchor="middle" x="268.84" y="-102.56" font-family="Helvetica,sans-Serif" font-size="10.00" fill="#63b8ff">1</text>
</a>
</g>
</g>
<!-- dir_615539a9e62276cb0b6ca0873afe0352&#45;&gt;dir_d08dd0d232defddea2975cfbbcf0e0b0 -->
<g id="edge12" class="edge">
<title>dir_615539a9e62276cb0b6ca0873afe0352&#45;&gt;dir_d08dd0d232defddea2975cfbbcf0e0b0</title>
<g id="a_edge12"><a xlink:href="dir_000002_000007.html" target="_top">
<path fill="none" stroke="#63b8ff" d="M416.77,-133.94C400.98,-120.98 369.42,-96.1 340,-79 318.54,-66.53 292.95,-55.11 273.16,-46.96"/>
<polygon fill="#63b8ff" stroke="#63b8ff" points="274.26,-43.63 263.68,-43.12 271.63,-50.12 274.26,-43.63"/>
</a>
</g>
<g id="a_edge12&#45;headlabel"><a xlink:href="dir_000002_000007.html" target="_top" xlink:title="1">
<text text-anchor="middle" x="278.66" y="-39.84" font-family="Helvetica,sans-Serif" font-size="10.00" fill="#63b8ff">1</text>
</a>
</g>
</g>
<!-- dir_615539a9e62276cb0b6ca0873afe0352&#45;&gt;dir_23bf73740d51936c1f86d2a06c48ee6a -->
<g id="edge11" class="edge">
<title>dir_615539a9e62276cb0b6ca0873afe0352&#45;&gt;dir_23bf73740d51936c1f86d2a06c48ee6a</title>
<g id="a_edge11"><a xlink:href="dir_000002_000016.html" target="_top">
<path fill="none" stroke="#63b8ff" d="M407.83,-134.1C388.21,-125.51 357.48,-112.05 334.91,-102.16"/>
<polygon fill="#63b8ff" stroke="#63b8ff" points="336.05,-98.84 325.48,-98.03 333.24,-105.25 336.05,-98.84"/>
</a>
</g>
<g id="a_edge11&#45;headlabel"><a xlink:href="dir_000002_000016.html" target="_top" xlink:title="1">
<text text-anchor="middle" x="340.48" y="-95.18" font-family="Helvetica,sans-Serif" font-size="10.00" fill="#63b8ff">1</text>
</a>
</g>
</g>
<!-- dir_ac85e915568203497774caa1d502ef50&#45;&gt;dir_d08dd0d232defddea2975cfbbcf0e0b0 -->
<g id="edge13" class="edge">
<title>dir_ac85e915568203497774caa1d502ef50&#45;&gt;dir_d08dd0d232defddea2975cfbbcf0e0b0</title>
<g id="a_edge13"><a xlink:href="dir_000005_000007.html" target="_top">
<path fill="none" stroke="#63b8ff" d="M241,-78.75C241,-71.8 241,-61.85 241,-53.13"/>
<polygon fill="#63b8ff" stroke="#63b8ff" points="244.5,-53.09 241,-43.09 237.5,-53.09 244.5,-53.09"/>
</a>
</g>
<g id="a_edge13&#45;headlabel"><a xlink:href="dir_000005_000007.html" target="_top" xlink:title="2">
<text text-anchor="middle" x="247.34" y="-54.18" font-family="Helvetica,sans-Serif" font-size="10.00" fill="#63b8ff">2</text>
</a>
</g>
</g>
<!-- dir_080ce305e125670f6ab75927669779d1 -->
<g id="node7" class="node">
<title>dir_080ce305e125670f6ab75927669779d1</title>
<g id="a_node7"><a xlink:href="dir_080ce305e125670f6ab75927669779d1.html" target="_top" xlink:title="formatters">
<polygon fill="#a2c5d6" stroke="#404040" points="201,-98 133,-98 133,-79 201,-79 201,-98"/>
<text text-anchor="middle" x="167" y="-86" font-family="Helvetica,sans-Serif" font-size="10.00">formatters</text>
</a>
</g>
</g>
<!-- dir_080ce305e125670f6ab75927669779d1&#45;&gt;dir_d08dd0d232defddea2975cfbbcf0e0b0 -->
<g id="edge14" class="edge">
<title>dir_080ce305e125670f6ab75927669779d1&#45;&gt;dir_d08dd0d232defddea2975cfbbcf0e0b0</title>
<g id="a_edge14"><a xlink:href="dir_000006_000007.html" target="_top">
<path fill="none" stroke="#63b8ff" d="M178.89,-78.98C190.15,-70.92 207.29,-58.65 220.71,-49.03"/>
<polygon fill="#63b8ff" stroke="#63b8ff" points="222.8,-51.84 228.89,-43.17 218.73,-46.15 222.8,-51.84"/>
</a>
</g>
<g id="a_edge14&#45;headlabel"><a xlink:href="dir_000006_000007.html" target="_top" xlink:title="2">
<text text-anchor="middle" x="221.53" y="-53.74" font-family="Helvetica,sans-Serif" font-size="10.00" fill="#63b8ff">2</text>
</a>
</g>
</g>
<!-- dir_542ee1dd370f188543512ad572d980d6&#45;&gt;dir_ac85e915568203497774caa1d502ef50 -->
<g id="edge16" class="edge">
<title>dir_542ee1dd370f188543512ad572d980d6&#45;&gt;dir_ac85e915568203497774caa1d502ef50</title>
<g id="a_edge16"><a xlink:href="dir_000011_000005.html" target="_top">
<path fill="none" stroke="#63b8ff" d="M286.92,-133.75C278.91,-126.03 267.04,-114.6 257.38,-105.28"/>
<polygon fill="#63b8ff" stroke="#63b8ff" points="259.54,-102.51 249.91,-98.09 254.69,-107.55 259.54,-102.51"/>
</a>
</g>
<g id="a_edge16&#45;headlabel"><a xlink:href="dir_000011_000005.html" target="_top" xlink:title="1">
<text text-anchor="middle" x="264.1" y="-100.46" font-family="Helvetica,sans-Serif" font-size="10.00" fill="#63b8ff">1</text>
</a>
</g>
</g>
<!-- dir_542ee1dd370f188543512ad572d980d6&#45;&gt;dir_23bf73740d51936c1f86d2a06c48ee6a -->
<g id="edge15" class="edge">
<title>dir_542ee1dd370f188543512ad572d980d6&#45;&gt;dir_23bf73740d51936c1f86d2a06c48ee6a</title>
<g id="a_edge15"><a xlink:href="dir_000011_000016.html" target="_top">
<path fill="none" stroke="#63b8ff" d="M297.65,-133.75C298.96,-126.8 300.84,-116.85 302.48,-108.13"/>
<polygon fill="#63b8ff" stroke="#63b8ff" points="305.96,-108.56 304.38,-98.09 299.09,-107.27 305.96,-108.56"/>
</a>
</g>
<g id="a_edge15&#45;headlabel"><a xlink:href="dir_000011_000016.html" target="_top" xlink:title="1">
<text text-anchor="middle" x="308.09" y="-110.12" font-family="Helvetica,sans-Serif" font-size="10.00" fill="#63b8ff">1</text>
</a>
</g>
</g>
<!-- dir_4494e21e850fe0822a9311b163f5af2f -->
<g id="node12" class="node">
<title>dir_4494e21e850fe0822a9311b163f5af2f</title>
<g id="a_node12"><a xlink:href="dir_4494e21e850fe0822a9311b163f5af2f.html" target="_top" xlink:title="security">
<polygon fill="#a2c5d6" stroke="#404040" points="232,-153 176,-153 176,-134 232,-134 232,-153"/>
<text text-anchor="middle" x="204" y="-141" font-family="Helvetica,sans-Serif" font-size="10.00">security</text>
</a>
</g>
</g>
<!-- dir_4494e21e850fe0822a9311b163f5af2f&#45;&gt;dir_ac85e915568203497774caa1d502ef50 -->
<g id="edge17" class="edge">
<title>dir_4494e21e850fe0822a9311b163f5af2f&#45;&gt;dir_ac85e915568203497774caa1d502ef50</title>
<g id="a_edge17"><a xlink:href="dir_000012_000005.html" target="_top">
<path fill="none" stroke="#63b8ff" d="M210.11,-133.75C215.28,-126.34 222.85,-115.5 229.19,-106.41"/>
<polygon fill="#63b8ff" stroke="#63b8ff" points="232.15,-108.29 235,-98.09 226.41,-104.29 232.15,-108.29"/>
</a>
</g>
<g id="a_edge17&#45;headlabel"><a xlink:href="dir_000012_000005.html" target="_top" xlink:title="1">
<text text-anchor="middle" x="232.42" y="-110.36" font-family="Helvetica,sans-Serif" font-size="10.00" fill="#63b8ff">1</text>
</a>
</g>
</g>
<!-- dir_6412b0abeabb451ddbb169e6e430cb09 -->
<g id="node13" class="node">
<title>dir_6412b0abeabb451ddbb169e6e430cb09</title>
<g id="a_node13"><a xlink:href="dir_6412b0abeabb451ddbb169e6e430cb09.html" target="_top" xlink:title="server">
<polygon fill="#a2c5d6" stroke="#404040" points="198.5,-208 151.5,-208 151.5,-189 198.5,-189 198.5,-208"/>
<text text-anchor="middle" x="175" y="-196" font-family="Helvetica,sans-Serif" font-size="10.00">server</text>
</a>
</g>
</g>
<!-- dir_35f695f46e233fd426ddb4e530bf1104 -->
<g id="node14" class="node">
<title>dir_35f695f46e233fd426ddb4e530bf1104</title>
<g id="a_node14"><a xlink:href="dir_35f695f46e233fd426ddb4e530bf1104.html" target="_top" xlink:title="structured">
<polygon fill="#a2c5d6" stroke="#404040" points="99,-208 33,-208 33,-189 99,-189 99,-208"/>
<text text-anchor="middle" x="66" y="-196" font-family="Helvetica,sans-Serif" font-size="10.00">structured</text>
</a>
</g>
</g>
<!-- dir_23bf73740d51936c1f86d2a06c48ee6a&#45;&gt;dir_d08dd0d232defddea2975cfbbcf0e0b0 -->
<g id="edge18" class="edge">
<title>dir_23bf73740d51936c1f86d2a06c48ee6a&#45;&gt;dir_d08dd0d232defddea2975cfbbcf0e0b0</title>
<g id="a_edge18"><a xlink:href="dir_000016_000007.html" target="_top">
<path fill="none" stroke="#63b8ff" d="M295.56,-78.98C285.85,-71.07 271.18,-59.11 259.5,-49.58"/>
<polygon fill="#63b8ff" stroke="#63b8ff" points="261.6,-46.78 251.63,-43.17 257.17,-52.2 261.6,-46.78"/>
</a>
</g>
<g id="a_edge18&#45;headlabel"><a xlink:href="dir_000016_000007.html" target="_top" xlink:title="2">
<text text-anchor="middle" x="266.18" y="-44.35" font-family="Helvetica,sans-Serif" font-size="10.00" fill="#63b8ff">2</text>
</a>
</g>
</g>
</g>
</svg>
