<?xml version="1.0" encoding="UTF-8" standalone="no"?>
<!DOCTYPE svg PUBLIC "-//W3C//DTD SVG 1.1//EN"
 "http://www.w3.org/Graphics/SVG/1.1/DTD/svg11.dtd">
<!-- Generated by graphviz version 2.43.0 (0)
 -->
<!-- Title: /home/runner/work/logger_system/logger_system/sources/logger/writers/encrypted_writer.cpp Pages: 1 -->
<svg width="982pt" height="346pt"
 viewBox="0.00 0.00 982.00 346.00" xmlns="http://www.w3.org/2000/svg" xmlns:xlink="http://www.w3.org/1999/xlink">
<g id="graph0" class="graph" transform="scale(1 1) rotate(0) translate(4 342)">
<title>/home/runner/work/logger_system/logger_system/sources/logger/writers/encrypted_writer.cpp</title>
<!-- Node1 -->
<g id="Node000001" class="node">
<title>Node1</title>
<g id="a_Node000001"><a xlink:title=" ">
<polygon fill="#999999" stroke="#666666" points="350,-338 158,-338 158,-297 350,-297 350,-338"/>
<text text-anchor="start" x="166" y="-326" font-family="Helvetica,sans-Serif" font-size="10.00">/home/runner/work/logger</text>
<text text-anchor="start" x="166" y="-315" font-family="Helvetica,sans-Serif" font-size="10.00">_system/logger_system/sources</text>
<text text-anchor="middle" x="254" y="-304" font-family="Helvetica,sans-Serif" font-size="10.00">/logger/writers/encrypted_writer.cpp</text>
</a>
</g>
</g>
<!-- Node2 -->
<g id="Node000002" class="node">
<title>Node2</title>
<g id="a_Node000002"><a xlink:href="encrypted__writer_8h.html" target="_top" xlink:title=" ">
<polygon fill="white" stroke="#666666" points="172.5,-261 65.5,-261 65.5,-242 172.5,-242 172.5,-261"/>
<text text-anchor="middle" x="119" y="-249" font-family="Helvetica,sans-Serif" font-size="10.00">encrypted_writer.h</text>
</a>
</g>
</g>
<!-- Node1&#45;&gt;Node2 -->
<g id="edge1_Node000001_Node000002" class="edge">
<title>Node1&#45;&gt;Node2</title>
<g id="a_edge1_Node000001_Node000002"><a xlink:title=" ">
<path fill="none" stroke="#63b8ff" d="M212.76,-296.95C191.14,-286.7 165.25,-274.43 146.16,-265.38"/>
<polygon fill="#63b8ff" stroke="#63b8ff" points="147.66,-262.21 137.12,-261.09 144.66,-268.54 147.66,-262.21"/>
</a>
</g>
</g>
<!-- Node15 -->
<g id="Node000015" class="node">
<title>Node15</title>
<g id="a_Node000015"><a xlink:title=" ">
<polygon fill="#e0e0e0" stroke="#999999" points="108,-24.5 58,-24.5 58,-5.5 108,-5.5 108,-24.5"/>
<text text-anchor="middle" x="83" y="-12.5" font-family="Helvetica,sans-Serif" font-size="10.00">cstring</text>
</a>
</g>
</g>
<!-- Node1&#45;&gt;Node15 -->
<g id="edge34_Node000001_Node000015" class="edge">
<title>Node1&#45;&gt;Node15</title>
<g id="a_edge34_Node000001_Node000015"><a xlink:title=" ">
<path fill="none" stroke="#63b8ff" d="M157.97,-309.54C86.05,-298.47 0,-270.06 0,-197.5 0,-197.5 0,-197.5 0,-135 0,-91.06 38.54,-51.75 63.09,-31.16"/>
<polygon fill="#63b8ff" stroke="#63b8ff" points="65.53,-33.69 71.11,-24.68 61.13,-28.25 65.53,-33.69"/>
</a>
</g>
</g>
<!-- Node21 -->
<g id="Node000021" class="node">
<title>Node21</title>
<g id="a_Node000021"><a xlink:title=" ">
<polygon fill="#e0e0e0" stroke="#999999" points="245,-261 191,-261 191,-242 245,-242 245,-261"/>
<text text-anchor="middle" x="218" y="-249" font-family="Helvetica,sans-Serif" font-size="10.00">random</text>
</a>
</g>
</g>
<!-- Node1&#45;&gt;Node21 -->
<g id="edge30_Node000001_Node000021" class="edge">
<title>Node1&#45;&gt;Node21</title>
<g id="a_edge30_Node000001_Node000021"><a xlink:title=" ">
<path fill="none" stroke="#63b8ff" d="M243,-296.95C238.19,-288.39 232.58,-278.42 227.9,-270.1"/>
<polygon fill="#63b8ff" stroke="#63b8ff" points="230.88,-268.26 222.93,-261.26 224.78,-271.69 230.88,-268.26"/>
</a>
</g>
</g>
<!-- Node22 -->
<g id="Node000022" class="node">
<title>Node22</title>
<g id="a_Node000022"><a xlink:title=" ">
<polygon fill="#e0e0e0" stroke="#999999" points="318.5,-261 263.5,-261 263.5,-242 318.5,-242 318.5,-261"/>
<text text-anchor="middle" x="291" y="-249" font-family="Helvetica,sans-Serif" font-size="10.00">fstream</text>
</a>
</g>
</g>
<!-- Node1&#45;&gt;Node22 -->
<g id="edge31_Node000001_Node000022" class="edge">
<title>Node1&#45;&gt;Node22</title>
<g id="a_edge31_Node000001_Node000022"><a xlink:title=" ">
<path fill="none" stroke="#63b8ff" d="M265.3,-296.95C270.25,-288.39 276.01,-278.42 280.83,-270.1"/>
<polygon fill="#63b8ff" stroke="#63b8ff" points="283.96,-271.67 285.94,-261.26 277.9,-268.17 283.96,-271.67"/>
</a>
</g>
</g>
<!-- Node23 -->
<g id="Node000023" class="node">
<title>Node23</title>
<g id="a_Node000023"><a xlink:title=" ">
<polygon fill="#e0e0e0" stroke="#999999" points="393,-261 337,-261 337,-242 393,-242 393,-261"/>
<text text-anchor="middle" x="365" y="-249" font-family="Helvetica,sans-Serif" font-size="10.00">sstream</text>
</a>
</g>
</g>
<!-- Node1&#45;&gt;Node23 -->
<g id="edge32_Node000001_Node000023" class="edge">
<title>Node1&#45;&gt;Node23</title>
<g id="a_edge32_Node000001_Node000023"><a xlink:title=" ">
<path fill="none" stroke="#63b8ff" d="M287.91,-296.95C305.12,-287.03 325.61,-275.21 341.14,-266.25"/>
<polygon fill="#63b8ff" stroke="#63b8ff" points="343.18,-269.12 350.1,-261.09 339.69,-263.05 343.18,-269.12"/>
</a>
</g>
</g>
<!-- Node24 -->
<g id="Node000024" class="node">
<title>Node24</title>
<g id="a_Node000024"><a xlink:title=" ">
<polygon fill="#e0e0e0" stroke="#999999" points="467,-261 411,-261 411,-242 467,-242 467,-261"/>
<text text-anchor="middle" x="439" y="-249" font-family="Helvetica,sans-Serif" font-size="10.00">iomanip</text>
</a>
</g>
</g>
<!-- Node1&#45;&gt;Node24 -->
<g id="edge33_Node000001_Node000024" class="edge">
<title>Node1&#45;&gt;Node24</title>
<g id="a_edge33_Node000001_Node000024"><a xlink:title=" ">
<path fill="none" stroke="#63b8ff" d="M310.51,-296.95C341.23,-286.32 378.22,-273.53 404.61,-264.4"/>
<polygon fill="#63b8ff" stroke="#63b8ff" points="405.86,-267.67 414.16,-261.09 403.57,-261.05 405.86,-267.67"/>
</a>
</g>
</g>
<!-- Node3 -->
<g id="Node000003" class="node">
<title>Node3</title>
<g id="a_Node000003"><a xlink:href="base__writer_8h.html" target="_top" xlink:title="Abstract base class for all log output writers.">
<polygon fill="white" stroke="#666666" points="600,-206 518,-206 518,-187 600,-187 600,-206"/>
<text text-anchor="middle" x="559" y="-194" font-family="Helvetica,sans-Serif" font-size="10.00">base_writer.h</text>
</a>
</g>
</g>
<!-- Node2&#45;&gt;Node3 -->
<g id="edge2_Node000002_Node000003" class="edge">
<title>Node2&#45;&gt;Node3</title>
<g id="a_edge2_Node000002_Node000003"><a xlink:title=" ">
<path fill="none" stroke="#63b8ff" d="M172.61,-243.21C175.79,-242.79 178.93,-242.39 182,-242 298.38,-227.28 435.18,-211.52 507.74,-203.28"/>
<polygon fill="#63b8ff" stroke="#63b8ff" points="508.43,-206.72 517.97,-202.12 507.64,-199.77 508.43,-206.72"/>
</a>
</g>
</g>
<!-- Node18 -->
<g id="Node000018" class="node">
<title>Node18</title>
<g id="a_Node000018"><a xlink:title=" ">
<polygon fill="#e0e0e0" stroke="#999999" points="280,-24.5 222,-24.5 222,-5.5 280,-5.5 280,-24.5"/>
<text text-anchor="middle" x="251" y="-12.5" font-family="Helvetica,sans-Serif" font-size="10.00">memory</text>
</a>
</g>
</g>
<!-- Node2&#45;&gt;Node18 -->
<g id="edge27_Node000002_Node000018" class="edge">
<title>Node2&#45;&gt;Node18</title>
<g id="a_edge27_Node000002_Node000018"><a xlink:title=" ">
<path fill="none" stroke="#63b8ff" d="M127.14,-241.98C134.84,-233.5 146.2,-219.77 153,-206 181.55,-148.19 156.18,-120.26 191,-66 200.25,-51.58 214.98,-39.22 227.54,-30.39"/>
<polygon fill="#63b8ff" stroke="#63b8ff" points="229.81,-33.08 236.18,-24.61 225.92,-27.26 229.81,-33.08"/>
</a>
</g>
</g>
<!-- Node19 -->
<g id="Node000019" class="node">
<title>Node19</title>
<g id="a_Node000019"><a xlink:title=" ">
<polygon fill="#e0e0e0" stroke="#999999" points="75.5,-206 28.5,-206 28.5,-187 75.5,-187 75.5,-206"/>
<text text-anchor="middle" x="52" y="-194" font-family="Helvetica,sans-Serif" font-size="10.00">vector</text>
</a>
</g>
</g>
<!-- Node2&#45;&gt;Node19 -->
<g id="edge28_Node000002_Node000019" class="edge">
<title>Node2&#45;&gt;Node19</title>
<g id="a_edge28_Node000002_Node000019"><a xlink:title=" ">
<path fill="none" stroke="#63b8ff" d="M108.24,-241.98C98.23,-234.07 83.11,-222.11 71.07,-212.58"/>
<polygon fill="#63b8ff" stroke="#63b8ff" points="72.97,-209.63 62.96,-206.17 68.63,-215.12 72.97,-209.63"/>
</a>
</g>
</g>
<!-- Node20 -->
<g id="Node000020" class="node">
<title>Node20</title>
<g id="a_Node000020"><a xlink:title=" ">
<polygon fill="#e0e0e0" stroke="#999999" points="144,-206 94,-206 94,-187 144,-187 144,-206"/>
<text text-anchor="middle" x="119" y="-194" font-family="Helvetica,sans-Serif" font-size="10.00">cstdint</text>
</a>
</g>
</g>
<!-- Node2&#45;&gt;Node20 -->
<g id="edge29_Node000002_Node000020" class="edge">
<title>Node2&#45;&gt;Node20</title>
<g id="a_edge29_Node000002_Node000020"><a xlink:title=" ">
<path fill="none" stroke="#63b8ff" d="M119,-241.75C119,-234.8 119,-224.85 119,-216.13"/>
<polygon fill="#63b8ff" stroke="#63b8ff" points="122.5,-216.09 119,-206.09 115.5,-216.09 122.5,-216.09"/>
</a>
</g>
</g>
<!-- Node4 -->
<g id="Node000004" class="node">
<title>Node4</title>
<g id="a_Node000004"><a xlink:title=" ">
<polygon fill="#e0e0e0" stroke="#999999" points="725,-24.5 681,-24.5 681,-5.5 725,-5.5 725,-24.5"/>
<text text-anchor="middle" x="703" y="-12.5" font-family="Helvetica,sans-Serif" font-size="10.00">string</text>
</a>
</g>
</g>
<!-- Node3&#45;&gt;Node4 -->
<g id="edge3_Node000003_Node000004" class="edge">
<title>Node3&#45;&gt;Node4</title>
<g id="a_edge3_Node000003_Node000004"><a xlink:title=" ">
<path fill="none" stroke="#63b8ff" d="M600.19,-189.98C643.46,-183.24 707.27,-170.29 722,-151 748.48,-116.32 726.97,-61.58 712.85,-33.65"/>
<polygon fill="#63b8ff" stroke="#63b8ff" points="715.87,-31.86 708.09,-24.66 709.68,-35.14 715.87,-31.86"/>
</a>
</g>
</g>
<!-- Node5 -->
<g id="Node000005" class="node">
<title>Node5</title>
<g id="a_Node000005"><a xlink:title=" ">
<polygon fill="#e0e0e0" stroke="#999999" points="675,-85 625,-85 625,-66 675,-66 675,-85"/>
<text text-anchor="middle" x="650" y="-73" font-family="Helvetica,sans-Serif" font-size="10.00">chrono</text>
</a>
</g>
</g>
<!-- Node3&#45;&gt;Node5 -->
<g id="edge4_Node000003_Node000005" class="edge">
<title>Node3&#45;&gt;Node5</title>
<g id="a_edge4_Node000003_Node000005"><a xlink:title=" ">
<path fill="none" stroke="#63b8ff" d="M559.17,-186.8C559.86,-171.92 563.15,-141.23 578,-121 588.13,-107.2 603.95,-96.75 618.18,-89.45"/>
<polygon fill="#63b8ff" stroke="#63b8ff" points="619.73,-92.59 627.23,-85.11 616.7,-86.28 619.73,-92.59"/>
</a>
</g>
</g>
<!-- Node6 -->
<g id="Node000006" class="node">
<title>Node6</title>
<g id="a_Node000006"><a xlink:title=" ">
<polygon fill="#e0e0e0" stroke="#999999" points="357.5,-85 200.5,-85 200.5,-66 357.5,-66 357.5,-85"/>
<text text-anchor="middle" x="279" y="-73" font-family="Helvetica,sans-Serif" font-size="10.00">interfaces/logger_interface.h</text>
</a>
</g>
</g>
<!-- Node3&#45;&gt;Node6 -->
<g id="edge5_Node000003_Node000006" class="edge">
<title>Node3&#45;&gt;Node6</title>
<g id="a_edge5_Node000003_Node000006"><a xlink:title=" ">
<path fill="none" stroke="#63b8ff" d="M517.67,-188.48C482.86,-181.66 432.27,-169.58 391,-151 355.44,-134.99 318.61,-108.17 297.31,-91.45"/>
<polygon fill="#63b8ff" stroke="#63b8ff" points="299.43,-88.67 289.43,-85.17 295.07,-94.14 299.43,-88.67"/>
</a>
</g>
</g>
<!-- Node7 -->
<g id="Node000007" class="node">
<title>Node7</title>
<g id="a_Node000007"><a xlink:href="error__codes_8h.html" target="_top" xlink:title=" ">
<polygon fill="white" stroke="#666666" points="861,-85 769,-85 769,-66 861,-66 861,-85"/>
<text text-anchor="middle" x="815" y="-73" font-family="Helvetica,sans-Serif" font-size="10.00">../error_codes.h</text>
</a>
</g>
</g>
<!-- Node3&#45;&gt;Node7 -->
<g id="edge6_Node000003_Node000007" class="edge">
<title>Node3&#45;&gt;Node7</title>
<g id="a_edge6_Node000003_Node000007"><a xlink:title=" ">
<path fill="none" stroke="#63b8ff" d="M600.25,-193.95C642.11,-190.68 707.34,-180.75 755,-151 777.49,-136.96 795.27,-111.45 805.46,-94.25"/>
<polygon fill="#63b8ff" stroke="#63b8ff" points="808.69,-95.65 810.56,-85.22 802.59,-92.2 808.69,-95.65"/>
</a>
</g>
</g>
<!-- Node11 -->
<g id="Node000011" class="node">
<title>Node11</title>
<g id="a_Node000011"><a xlink:href="log__writer__interface_8h.html" target="_top" xlink:title=" ">
<polygon fill="white" stroke="#666666" points="713,-151 587,-151 587,-121 713,-121 713,-151"/>
<text text-anchor="start" x="595" y="-139" font-family="Helvetica,sans-Serif" font-size="10.00">../interfaces/log_writer</text>
<text text-anchor="middle" x="650" y="-128" font-family="Helvetica,sans-Serif" font-size="10.00">_interface.h</text>
</a>
</g>
</g>
<!-- Node3&#45;&gt;Node11 -->
<g id="edge11_Node000003_Node000011" class="edge">
<title>Node3&#45;&gt;Node11</title>
<g id="a_edge11_Node000003_Node000011"><a xlink:title=" ">
<path fill="none" stroke="#63b8ff" d="M572.43,-186.87C584.77,-178.93 603.53,-166.87 619.51,-156.6"/>
<polygon fill="#63b8ff" stroke="#63b8ff" points="621.52,-159.47 628.04,-151.11 617.74,-153.58 621.52,-159.47"/>
</a>
</g>
</g>
<!-- Node12 -->
<g id="Node000012" class="node">
<title>Node12</title>
<g id="a_Node000012"><a xlink:href="log__entry_8h.html" target="_top" xlink:title="Data structures for representing log entries and source locations.">
<polygon fill="white" stroke="#666666" points="530.5,-145.5 399.5,-145.5 399.5,-126.5 530.5,-126.5 530.5,-145.5"/>
<text text-anchor="middle" x="465" y="-133.5" font-family="Helvetica,sans-Serif" font-size="10.00">../interfaces/log_entry.h</text>
</a>
</g>
</g>
<!-- Node3&#45;&gt;Node12 -->
<g id="edge15_Node000003_Node000012" class="edge">
<title>Node3&#45;&gt;Node12</title>
<g id="a_edge15_Node000003_Node000012"><a xlink:title=" ">
<path fill="none" stroke="#63b8ff" d="M545.13,-186.87C530,-177.45 505.54,-162.23 487.62,-151.08"/>
<polygon fill="#63b8ff" stroke="#63b8ff" points="489.27,-147.98 478.93,-145.67 485.57,-153.92 489.27,-147.98"/>
</a>
</g>
</g>
<!-- Node7&#45;&gt;Node4 -->
<g id="edge7_Node000007_Node000004" class="edge">
<title>Node7&#45;&gt;Node4</title>
<g id="a_edge7_Node000007_Node000004"><a xlink:title=" ">
<path fill="none" stroke="#63b8ff" d="M798.47,-65.87C780.03,-56.23 749.96,-40.53 728.49,-29.31"/>
<polygon fill="#63b8ff" stroke="#63b8ff" points="730.08,-26.19 719.59,-24.67 726.84,-32.4 730.08,-26.19"/>
</a>
</g>
</g>
<!-- Node8 -->
<g id="Node000008" class="node">
<title>Node8</title>
<g id="a_Node000008"><a xlink:title=" ">
<polygon fill="#e0e0e0" stroke="#999999" points="827.5,-24.5 762.5,-24.5 762.5,-5.5 827.5,-5.5 827.5,-24.5"/>
<text text-anchor="middle" x="795" y="-12.5" font-family="Helvetica,sans-Serif" font-size="10.00">stdexcept</text>
</a>
</g>
</g>
<!-- Node7&#45;&gt;Node8 -->
<g id="edge8_Node000007_Node000008" class="edge">
<title>Node7&#45;&gt;Node8</title>
<g id="a_edge8_Node000007_Node000008"><a xlink:title=" ">
<path fill="none" stroke="#63b8ff" d="M812.05,-65.87C809.21,-57.57 804.84,-44.78 801.23,-34.22"/>
<polygon fill="#63b8ff" stroke="#63b8ff" points="804.51,-33 797.96,-24.67 797.89,-35.26 804.51,-33"/>
</a>
</g>
</g>
<!-- Node9 -->
<g id="Node000009" class="node">
<title>Node9</title>
<g id="a_Node000009"><a xlink:title=" ">
<polygon fill="#e0e0e0" stroke="#999999" points="596.5,-24.5 551.5,-24.5 551.5,-5.5 596.5,-5.5 596.5,-24.5"/>
<text text-anchor="middle" x="574" y="-12.5" font-family="Helvetica,sans-Serif" font-size="10.00">utility</text>
</a>
</g>
</g>
<!-- Node7&#45;&gt;Node9 -->
<g id="edge9_Node000007_Node000009" class="edge">
<title>Node7&#45;&gt;Node9</title>
<g id="a_edge9_Node000007_Node000009"><a xlink:title=" ">
<path fill="none" stroke="#63b8ff" d="M779.96,-65.99C733.45,-54.7 651.95,-34.92 606.67,-23.93"/>
<polygon fill="#63b8ff" stroke="#63b8ff" points="607.32,-20.49 596.78,-21.53 605.67,-27.29 607.32,-20.49"/>
</a>
</g>
</g>
<!-- Node10 -->
<g id="Node000010" class="node">
<title>Node10</title>
<g id="a_Node000010"><a xlink:title=" ">
<polygon fill="#e0e0e0" stroke="#999999" points="974,-30 846,-30 846,0 974,0 974,-30"/>
<text text-anchor="start" x="854" y="-18" font-family="Helvetica,sans-Serif" font-size="10.00">thread_base/sync/error</text>
<text text-anchor="middle" x="910" y="-7" font-family="Helvetica,sans-Serif" font-size="10.00">_handling.h</text>
</a>
</g>
</g>
<!-- Node7&#45;&gt;Node10 -->
<g id="edge10_Node000007_Node000010" class="edge">
<title>Node7&#45;&gt;Node10</title>
<g id="a_edge10_Node000007_Node000010"><a xlink:title=" ">
<path fill="none" stroke="#63b8ff" d="M829.02,-65.87C841.91,-57.93 861.49,-45.87 878.17,-35.6"/>
<polygon fill="#63b8ff" stroke="#63b8ff" points="880.4,-38.34 887.08,-30.11 876.73,-32.38 880.4,-38.34"/>
</a>
</g>
</g>
<!-- Node11&#45;&gt;Node4 -->
<g id="edge12_Node000011_Node000004" class="edge">
<title>Node11&#45;&gt;Node4</title>
<g id="a_edge12_Node000011_Node000004"><a xlink:title=" ">
<path fill="none" stroke="#63b8ff" d="M661.46,-120.88C668.79,-111.26 678.01,-97.96 684,-85 691.49,-68.8 696.55,-49.06 699.56,-34.85"/>
<polygon fill="#63b8ff" stroke="#63b8ff" points="703.04,-35.31 701.53,-24.82 696.17,-33.95 703.04,-35.31"/>
</a>
</g>
</g>
<!-- Node11&#45;&gt;Node5 -->
<g id="edge13_Node000011_Node000005" class="edge">
<title>Node11&#45;&gt;Node5</title>
<g id="a_edge13_Node000011_Node000005"><a xlink:title=" ">
<path fill="none" stroke="#63b8ff" d="M650,-120.84C650,-113.21 650,-103.7 650,-95.45"/>
<polygon fill="#63b8ff" stroke="#63b8ff" points="653.5,-95.27 650,-85.27 646.5,-95.27 653.5,-95.27"/>
</a>
</g>
</g>
<!-- Node11&#45;&gt;Node7 -->
<g id="edge14_Node000011_Node000007" class="edge">
<title>Node11&#45;&gt;Node7</title>
<g id="a_edge14_Node000011_Node000007"><a xlink:title=" ">
<path fill="none" stroke="#63b8ff" d="M689.52,-120.99C717.42,-111.1 754.41,-97.98 781,-88.56"/>
<polygon fill="#63b8ff" stroke="#63b8ff" points="782.38,-91.78 790.63,-85.14 780.04,-85.18 782.38,-91.78"/>
</a>
</g>
</g>
<!-- Node12&#45;&gt;Node4 -->
<g id="edge16_Node000012_Node000004" class="edge">
<title>Node12&#45;&gt;Node4</title>
<g id="a_edge16_Node000012_Node000004"><a xlink:title=" ">
<path fill="none" stroke="#63b8ff" d="M486.08,-126.33C508.97,-116.76 546.48,-100.63 578,-85 614.03,-67.13 654.61,-44.19 679.49,-29.79"/>
<polygon fill="#63b8ff" stroke="#63b8ff" points="681.33,-32.77 688.22,-24.71 677.81,-26.71 681.33,-32.77"/>
</a>
</g>
</g>
<!-- Node12&#45;&gt;Node5 -->
<g id="edge17_Node000012_Node000005" class="edge">
<title>Node12&#45;&gt;Node5</title>
<g id="a_edge17_Node000012_Node000005"><a xlink:title=" ">
<path fill="none" stroke="#63b8ff" d="M491.9,-126.49C524.51,-116.18 579.53,-98.78 615.3,-87.47"/>
<polygon fill="#63b8ff" stroke="#63b8ff" points="616.37,-90.81 624.85,-84.45 614.26,-84.13 616.37,-90.81"/>
</a>
</g>
</g>
<!-- Node12&#45;&gt;Node6 -->
<g id="edge26_Node000012_Node000006" class="edge">
<title>Node12&#45;&gt;Node6</title>
<g id="a_edge26_Node000012_Node000006"><a xlink:title=" ">
<path fill="none" stroke="#63b8ff" d="M437.95,-126.49C405.72,-116.36 351.71,-99.37 315.72,-88.05"/>
<polygon fill="#63b8ff" stroke="#63b8ff" points="316.67,-84.68 306.08,-85.02 314.57,-91.36 316.67,-84.68"/>
</a>
</g>
</g>
<!-- Node13 -->
<g id="Node000013" class="node">
<title>Node13</title>
<g id="a_Node000013"><a xlink:title=" ">
<polygon fill="#e0e0e0" stroke="#999999" points="569,-85 513,-85 513,-66 569,-66 569,-85"/>
<text text-anchor="middle" x="541" y="-73" font-family="Helvetica,sans-Serif" font-size="10.00">optional</text>
</a>
</g>
</g>
<!-- Node12&#45;&gt;Node13 -->
<g id="edge18_Node000012_Node000013" class="edge">
<title>Node12&#45;&gt;Node13</title>
<g id="a_edge18_Node000012_Node000013"><a xlink:title=" ">
<path fill="none" stroke="#63b8ff" d="M476.21,-126.37C488.11,-117.21 507.14,-102.56 521.51,-91.51"/>
<polygon fill="#63b8ff" stroke="#63b8ff" points="523.95,-94.04 529.74,-85.17 519.68,-88.49 523.95,-94.04"/>
</a>
</g>
</g>
<!-- Node14 -->
<g id="Node000014" class="node">
<title>Node14</title>
<g id="a_Node000014"><a xlink:href="small__string_8h.html" target="_top" xlink:title=" ">
<polygon fill="white" stroke="#666666" points="494.5,-85 375.5,-85 375.5,-66 494.5,-66 494.5,-85"/>
<text text-anchor="middle" x="435" y="-73" font-family="Helvetica,sans-Serif" font-size="10.00">../core/small_string.h</text>
</a>
</g>
</g>
<!-- Node12&#45;&gt;Node14 -->
<g id="edge19_Node000012_Node000014" class="edge">
<title>Node12&#45;&gt;Node14</title>
<g id="a_edge19_Node000012_Node000014"><a xlink:title=" ">
<path fill="none" stroke="#63b8ff" d="M460.57,-126.37C456.23,-117.9 449.48,-104.74 444.01,-94.07"/>
<polygon fill="#63b8ff" stroke="#63b8ff" points="447.12,-92.47 439.44,-85.17 440.89,-95.66 447.12,-92.47"/>
</a>
</g>
</g>
<!-- Node14&#45;&gt;Node4 -->
<g id="edge21_Node000014_Node000004" class="edge">
<title>Node14&#45;&gt;Node4</title>
<g id="a_edge21_Node000014_Node000004"><a xlink:title=" ">
<path fill="none" stroke="#63b8ff" d="M473.97,-65.99C527.23,-54.37 621.77,-33.73 671.08,-22.97"/>
<polygon fill="#63b8ff" stroke="#63b8ff" points="671.86,-26.38 680.88,-20.83 670.36,-19.54 671.86,-26.38"/>
</a>
</g>
</g>
<!-- Node14&#45;&gt;Node9 -->
<g id="edge25_Node000014_Node000009" class="edge">
<title>Node14&#45;&gt;Node9</title>
<g id="a_edge25_Node000014_Node000009"><a xlink:title=" ">
<path fill="none" stroke="#63b8ff" d="M455.21,-65.99C478.68,-56.12 517.61,-39.73 544.46,-28.43"/>
<polygon fill="#63b8ff" stroke="#63b8ff" points="545.9,-31.62 553.76,-24.52 543.19,-25.17 545.9,-31.62"/>
</a>
</g>
</g>
<!-- Node14&#45;&gt;Node15 -->
<g id="edge20_Node000014_Node000015" class="edge">
<title>Node14&#45;&gt;Node15</title>
<g id="a_edge20_Node000014_Node000015"><a xlink:title=" ">
<path fill="none" stroke="#63b8ff" d="M383.82,-65.99C311.36,-53.95 180.74,-32.24 118.22,-21.85"/>
<polygon fill="#63b8ff" stroke="#63b8ff" points="118.51,-18.35 108.07,-20.17 117.37,-25.26 118.51,-18.35"/>
</a>
</g>
</g>
<!-- Node16 -->
<g id="Node000016" class="node">
<title>Node16</title>
<g id="a_Node000016"><a xlink:title=" ">
<polygon fill="#e0e0e0" stroke="#999999" points="417.5,-24.5 344.5,-24.5 344.5,-5.5 417.5,-5.5 417.5,-24.5"/>
<text text-anchor="middle" x="381" y="-12.5" font-family="Helvetica,sans-Serif" font-size="10.00">string_view</text>
</a>
</g>
</g>
<!-- Node14&#45;&gt;Node16 -->
<g id="edge22_Node000014_Node000016" class="edge">
<title>Node14&#45;&gt;Node16</title>
<g id="a_edge22_Node000014_Node000016"><a xlink:title=" ">
<path fill="none" stroke="#63b8ff" d="M427.03,-65.87C418.9,-57.05 406.07,-43.16 396.02,-32.27"/>
<polygon fill="#63b8ff" stroke="#63b8ff" points="398.36,-29.64 389,-24.67 393.21,-34.39 398.36,-29.64"/>
</a>
</g>
</g>
<!-- Node17 -->
<g id="Node000017" class="node">
<title>Node17</title>
<g id="a_Node000017"><a xlink:title=" ">
<polygon fill="#e0e0e0" stroke="#999999" points="500,-24.5 436,-24.5 436,-5.5 500,-5.5 500,-24.5"/>
<text text-anchor="middle" x="468" y="-12.5" font-family="Helvetica,sans-Serif" font-size="10.00">algorithm</text>
</a>
</g>
</g>
<!-- Node14&#45;&gt;Node17 -->
<g id="edge23_Node000014_Node000017" class="edge">
<title>Node14&#45;&gt;Node17</title>
<g id="a_edge23_Node000014_Node000017"><a xlink:title=" ">
<path fill="none" stroke="#63b8ff" d="M439.87,-65.87C444.65,-57.4 452.07,-44.24 458.09,-33.57"/>
<polygon fill="#63b8ff" stroke="#63b8ff" points="461.25,-35.1 463.11,-24.67 455.15,-31.66 461.25,-35.1"/>
</a>
</g>
</g>
<!-- Node14&#45;&gt;Node18 -->
<g id="edge24_Node000014_Node000018" class="edge">
<title>Node14&#45;&gt;Node18</title>
<g id="a_edge24_Node000014_Node000018"><a xlink:title=" ">
<path fill="none" stroke="#63b8ff" d="M408.24,-65.99C376.36,-55.86 322.93,-38.87 287.32,-27.55"/>
<polygon fill="#63b8ff" stroke="#63b8ff" points="288.38,-24.21 277.79,-24.52 286.26,-30.88 288.38,-24.21"/>
</a>
</g>
</g>
</g>
</svg>
