<?xml version="1.0" encoding="UTF-8" standalone="no"?>
<!DOCTYPE svg PUBLIC "-//W3C//DTD SVG 1.1//EN"
 "http://www.w3.org/Graphics/SVG/1.1/DTD/svg11.dtd">
<!-- Generated by graphviz version 2.43.0 (0)
 -->
<!-- Title: encrypted_writer.cpp Pages: 1 -->
<svg width="673pt" height="247pt"
 viewBox="0.00 0.00 672.69 247.00" xmlns="http://www.w3.org/2000/svg" xmlns:xlink="http://www.w3.org/1999/xlink">
<g id="graph0" class="graph" transform="scale(1 1) rotate(0) translate(4 243)">
<title>encrypted_writer.cpp</title>
<!-- Node1 -->
<g id="Node000001" class="node">
<title>Node1</title>
<g id="a_Node000001"><a xlink:title=" ">
<polygon fill="#999999" stroke="#666666" points="517.19,-239 398.19,-239 398.19,-220 517.19,-220 517.19,-239"/>
<text text-anchor="middle" x="457.69" y="-227" font-family="Helvetica,sans-Serif" font-size="10.00">encrypted_writer.cpp</text>
</a>
</g>
</g>
<!-- Node2 -->
<g id="Node000002" class="node">
<title>Node2</title>
<g id="a_Node000002"><a xlink:href="encrypted__writer_8h.html" target="_top" xlink:title=" ">
<polygon fill="white" stroke="#666666" points="302.19,-184 195.19,-184 195.19,-165 302.19,-165 302.19,-184"/>
<text text-anchor="middle" x="248.69" y="-172" font-family="Helvetica,sans-Serif" font-size="10.00">encrypted_writer.h</text>
</a>
</g>
</g>
<!-- Node1&#45;&gt;Node2 -->
<g id="edge1_Node000001_Node000002" class="edge">
<title>Node1&#45;&gt;Node2</title>
<g id="a_edge1_Node000001_Node000002"><a xlink:title=" ">
<path fill="none" stroke="#63b8ff" d="M424.11,-219.98C388.34,-210.91 331.57,-196.52 292.35,-186.57"/>
<polygon fill="#63b8ff" stroke="#63b8ff" points="293.09,-183.15 282.54,-184.08 291.37,-189.93 293.09,-183.15"/>
</a>
</g>
</g>
<!-- Node11 -->
<g id="Node000011" class="node">
<title>Node11</title>
<g id="a_Node000011"><a xlink:title=" ">
<polygon fill="#e0e0e0" stroke="#999999" points="374.69,-184 320.69,-184 320.69,-165 374.69,-165 374.69,-184"/>
<text text-anchor="middle" x="347.69" y="-172" font-family="Helvetica,sans-Serif" font-size="10.00">random</text>
</a>
</g>
</g>
<!-- Node1&#45;&gt;Node11 -->
<g id="edge12_Node000001_Node000011" class="edge">
<title>Node1&#45;&gt;Node11</title>
<g id="a_edge12_Node000001_Node000011"><a xlink:title=" ">
<path fill="none" stroke="#63b8ff" d="M440.02,-219.98C422.4,-211.5 395.11,-198.35 374.77,-188.54"/>
<polygon fill="#63b8ff" stroke="#63b8ff" points="376.22,-185.36 365.69,-184.17 373.18,-191.66 376.22,-185.36"/>
</a>
</g>
</g>
<!-- Node12 -->
<g id="Node000012" class="node">
<title>Node12</title>
<g id="a_Node000012"><a xlink:title=" ">
<polygon fill="#e0e0e0" stroke="#999999" points="448.19,-184 393.19,-184 393.19,-165 448.19,-165 448.19,-184"/>
<text text-anchor="middle" x="420.69" y="-172" font-family="Helvetica,sans-Serif" font-size="10.00">fstream</text>
</a>
</g>
</g>
<!-- Node1&#45;&gt;Node12 -->
<g id="edge13_Node000001_Node000012" class="edge">
<title>Node1&#45;&gt;Node12</title>
<g id="a_edge13_Node000001_Node000012"><a xlink:title=" ">
<path fill="none" stroke="#63b8ff" d="M451.58,-219.75C446.41,-212.34 438.85,-201.5 432.5,-192.41"/>
<polygon fill="#63b8ff" stroke="#63b8ff" points="435.28,-190.29 426.69,-184.09 429.54,-194.29 435.28,-190.29"/>
</a>
</g>
</g>
<!-- Node13 -->
<g id="Node000013" class="node">
<title>Node13</title>
<g id="a_Node000013"><a xlink:title=" ">
<polygon fill="#e0e0e0" stroke="#999999" points="522.69,-184 466.69,-184 466.69,-165 522.69,-165 522.69,-184"/>
<text text-anchor="middle" x="494.69" y="-172" font-family="Helvetica,sans-Serif" font-size="10.00">sstream</text>
</a>
</g>
</g>
<!-- Node1&#45;&gt;Node13 -->
<g id="edge14_Node000001_Node000013" class="edge">
<title>Node1&#45;&gt;Node13</title>
<g id="a_edge14_Node000001_Node000013"><a xlink:title=" ">
<path fill="none" stroke="#63b8ff" d="M463.8,-219.75C468.97,-212.34 476.54,-201.5 482.89,-192.41"/>
<polygon fill="#63b8ff" stroke="#63b8ff" points="485.84,-194.29 488.7,-184.09 480.1,-190.29 485.84,-194.29"/>
</a>
</g>
</g>
<!-- Node14 -->
<g id="Node000014" class="node">
<title>Node14</title>
<g id="a_Node000014"><a xlink:title=" ">
<polygon fill="#e0e0e0" stroke="#999999" points="596.69,-184 540.69,-184 540.69,-165 596.69,-165 596.69,-184"/>
<text text-anchor="middle" x="568.69" y="-172" font-family="Helvetica,sans-Serif" font-size="10.00">iomanip</text>
</a>
</g>
</g>
<!-- Node1&#45;&gt;Node14 -->
<g id="edge15_Node000001_Node000014" class="edge">
<title>Node1&#45;&gt;Node14</title>
<g id="a_edge15_Node000001_Node000014"><a xlink:title=" ">
<path fill="none" stroke="#63b8ff" d="M475.53,-219.98C493.3,-211.5 520.84,-198.35 541.37,-188.54"/>
<polygon fill="#63b8ff" stroke="#63b8ff" points="543.02,-191.64 550.53,-184.17 540,-185.32 543.02,-191.64"/>
</a>
</g>
</g>
<!-- Node15 -->
<g id="Node000015" class="node">
<title>Node15</title>
<g id="a_Node000015"><a xlink:title=" ">
<polygon fill="#e0e0e0" stroke="#999999" points="664.69,-184 614.69,-184 614.69,-165 664.69,-165 664.69,-184"/>
<text text-anchor="middle" x="639.69" y="-172" font-family="Helvetica,sans-Serif" font-size="10.00">cstring</text>
</a>
</g>
</g>
<!-- Node1&#45;&gt;Node15 -->
<g id="edge16_Node000001_Node000015" class="edge">
<title>Node1&#45;&gt;Node15</title>
<g id="a_edge16_Node000001_Node000015"><a xlink:title=" ">
<path fill="none" stroke="#63b8ff" d="M486.93,-219.98C518.99,-210.65 570.4,-195.68 604.6,-185.72"/>
<polygon fill="#63b8ff" stroke="#63b8ff" points="606,-188.96 614.63,-182.8 604.05,-182.24 606,-188.96"/>
</a>
</g>
</g>
<!-- Node3 -->
<g id="Node000003" class="node">
<title>Node3</title>
<g id="a_Node000003"><a xlink:href="base__writer_8h.html" target="_top" xlink:title=" ">
<polygon fill="white" stroke="#666666" points="128.69,-129 46.69,-129 46.69,-110 128.69,-110 128.69,-129"/>
<text text-anchor="middle" x="87.69" y="-117" font-family="Helvetica,sans-Serif" font-size="10.00">base_writer.h</text>
</a>
</g>
</g>
<!-- Node2&#45;&gt;Node3 -->
<g id="edge2_Node000002_Node000003" class="edge">
<title>Node2&#45;&gt;Node3</title>
<g id="a_edge2_Node000002_Node000003"><a xlink:title=" ">
<path fill="none" stroke="#63b8ff" d="M222.83,-164.98C195.91,-156.13 153.57,-142.19 123.46,-132.28"/>
<polygon fill="#63b8ff" stroke="#63b8ff" points="124.36,-128.88 113.76,-129.08 122.17,-135.53 124.36,-128.88"/>
</a>
</g>
</g>
<!-- Node7 -->
<g id="Node000007" class="node">
<title>Node7</title>
<g id="a_Node000007"><a xlink:title=" ">
<polygon fill="#e0e0e0" stroke="#999999" points="244.69,-19 186.69,-19 186.69,0 244.69,0 244.69,-19"/>
<text text-anchor="middle" x="215.69" y="-7" font-family="Helvetica,sans-Serif" font-size="10.00">memory</text>
</a>
</g>
</g>
<!-- Node2&#45;&gt;Node7 -->
<g id="edge9_Node000002_Node000007" class="edge">
<title>Node2&#45;&gt;Node7</title>
<g id="a_edge9_Node000002_Node000007"><a xlink:title=" ">
<path fill="none" stroke="#63b8ff" d="M246.92,-164.74C241.75,-139.2 226.61,-64.43 219.48,-29.23"/>
<polygon fill="#63b8ff" stroke="#63b8ff" points="222.89,-28.41 217.48,-19.31 216.03,-29.8 222.89,-28.41"/>
</a>
</g>
</g>
<!-- Node9 -->
<g id="Node000009" class="node">
<title>Node9</title>
<g id="a_Node000009"><a xlink:title=" ">
<polygon fill="#e0e0e0" stroke="#999999" points="298.19,-129 251.19,-129 251.19,-110 298.19,-110 298.19,-129"/>
<text text-anchor="middle" x="274.69" y="-117" font-family="Helvetica,sans-Serif" font-size="10.00">vector</text>
</a>
</g>
</g>
<!-- Node2&#45;&gt;Node9 -->
<g id="edge10_Node000002_Node000009" class="edge">
<title>Node2&#45;&gt;Node9</title>
<g id="a_edge10_Node000002_Node000009"><a xlink:title=" ">
<path fill="none" stroke="#63b8ff" d="M252.99,-164.75C256.51,-157.57 261.61,-147.18 265.98,-138.27"/>
<polygon fill="#63b8ff" stroke="#63b8ff" points="269.22,-139.61 270.48,-129.09 262.93,-136.53 269.22,-139.61"/>
</a>
</g>
</g>
<!-- Node10 -->
<g id="Node000010" class="node">
<title>Node10</title>
<g id="a_Node000010"><a xlink:title=" ">
<polygon fill="#e0e0e0" stroke="#999999" points="366.69,-129 316.69,-129 316.69,-110 366.69,-110 366.69,-129"/>
<text text-anchor="middle" x="341.69" y="-117" font-family="Helvetica,sans-Serif" font-size="10.00">cstdint</text>
</a>
</g>
</g>
<!-- Node2&#45;&gt;Node10 -->
<g id="edge11_Node000002_Node000010" class="edge">
<title>Node2&#45;&gt;Node10</title>
<g id="a_edge11_Node000002_Node000010"><a xlink:title=" ">
<path fill="none" stroke="#63b8ff" d="M263.63,-164.98C278.19,-156.69 300.56,-143.94 317.63,-134.22"/>
<polygon fill="#63b8ff" stroke="#63b8ff" points="319.52,-137.16 326.48,-129.17 316.06,-131.08 319.52,-137.16"/>
</a>
</g>
</g>
<!-- Node4 -->
<g id="Node000004" class="node">
<title>Node4</title>
<g id="a_Node000004"><a xlink:title=" ">
<polygon fill="#e0e0e0" stroke="#999999" points="51.69,-19 7.69,-19 7.69,0 51.69,0 51.69,-19"/>
<text text-anchor="middle" x="29.69" y="-7" font-family="Helvetica,sans-Serif" font-size="10.00">string</text>
</a>
</g>
</g>
<!-- Node3&#45;&gt;Node4 -->
<g id="edge3_Node000003_Node000004" class="edge">
<title>Node3&#45;&gt;Node4</title>
<g id="a_edge3_Node000003_Node000004"><a xlink:title=" ">
<path fill="none" stroke="#63b8ff" d="M54.29,-109.98C35.91,-103.4 14.67,-92.24 3.69,-74 -5.38,-58.93 4.66,-40.12 14.79,-26.9"/>
<polygon fill="#63b8ff" stroke="#63b8ff" points="17.56,-29.04 21.25,-19.11 12.17,-24.57 17.56,-29.04"/>
</a>
</g>
</g>
<!-- Node5 -->
<g id="Node000005" class="node">
<title>Node5</title>
<g id="a_Node000005"><a xlink:title=" ">
<polygon fill="#e0e0e0" stroke="#999999" points="62.69,-74 12.69,-74 12.69,-55 62.69,-55 62.69,-74"/>
<text text-anchor="middle" x="37.69" y="-62" font-family="Helvetica,sans-Serif" font-size="10.00">chrono</text>
</a>
</g>
</g>
<!-- Node3&#45;&gt;Node5 -->
<g id="edge4_Node000003_Node000005" class="edge">
<title>Node3&#45;&gt;Node5</title>
<g id="a_edge4_Node000003_Node000005"><a xlink:title=" ">
<path fill="none" stroke="#63b8ff" d="M79.44,-109.75C72.23,-102.11 61.58,-90.82 52.85,-81.56"/>
<polygon fill="#63b8ff" stroke="#63b8ff" points="55.2,-78.96 45.8,-74.09 50.11,-83.76 55.2,-78.96"/>
</a>
</g>
</g>
<!-- Node6 -->
<g id="Node000006" class="node">
<title>Node6</title>
<g id="a_Node000006"><a xlink:href="logger__interface_8h.html" target="_top" xlink:title=" ">
<polygon fill="white" stroke="#666666" points="194.69,-74 80.69,-74 80.69,-55 194.69,-55 194.69,-74"/>
<text text-anchor="middle" x="137.69" y="-62" font-family="Helvetica,sans-Serif" font-size="10.00">../logger_interface.h</text>
</a>
</g>
</g>
<!-- Node3&#45;&gt;Node6 -->
<g id="edge5_Node000003_Node000006" class="edge">
<title>Node3&#45;&gt;Node6</title>
<g id="a_edge5_Node000003_Node000006"><a xlink:title=" ">
<path fill="none" stroke="#63b8ff" d="M95.95,-109.75C103.16,-102.11 113.8,-90.82 122.54,-81.56"/>
<polygon fill="#63b8ff" stroke="#63b8ff" points="125.27,-83.76 129.59,-74.09 120.18,-78.96 125.27,-83.76"/>
</a>
</g>
</g>
<!-- Node6&#45;&gt;Node4 -->
<g id="edge8_Node000006_Node000004" class="edge">
<title>Node6&#45;&gt;Node4</title>
<g id="a_edge8_Node000006_Node000004"><a xlink:title=" ">
<path fill="none" stroke="#63b8ff" d="M120.34,-54.98C103.12,-46.54 76.49,-33.47 56.55,-23.68"/>
<polygon fill="#63b8ff" stroke="#63b8ff" points="57.88,-20.43 47.36,-19.17 54.8,-26.72 57.88,-20.43"/>
</a>
</g>
</g>
<!-- Node6&#45;&gt;Node7 -->
<g id="edge6_Node000006_Node000007" class="edge">
<title>Node6&#45;&gt;Node7</title>
<g id="a_edge6_Node000006_Node000007"><a xlink:title=" ">
<path fill="none" stroke="#63b8ff" d="M150.22,-54.98C162.09,-46.92 180.16,-34.65 194.3,-25.03"/>
<polygon fill="#63b8ff" stroke="#63b8ff" points="196.63,-27.69 202.93,-19.17 192.69,-21.9 196.63,-27.69"/>
</a>
</g>
</g>
<!-- Node8 -->
<g id="Node000008" class="node">
<title>Node8</title>
<g id="a_Node000008"><a xlink:title=" ">
<polygon fill="#e0e0e0" stroke="#999999" points="161.69,-19 113.69,-19 113.69,0 161.69,0 161.69,-19"/>
<text text-anchor="middle" x="137.69" y="-7" font-family="Helvetica,sans-Serif" font-size="10.00">mutex</text>
</a>
</g>
</g>
<!-- Node6&#45;&gt;Node8 -->
<g id="edge7_Node000006_Node000008" class="edge">
<title>Node6&#45;&gt;Node8</title>
<g id="a_edge7_Node000006_Node000008"><a xlink:title=" ">
<path fill="none" stroke="#63b8ff" d="M137.69,-54.75C137.69,-47.8 137.69,-37.85 137.69,-29.13"/>
<polygon fill="#63b8ff" stroke="#63b8ff" points="141.19,-29.09 137.69,-19.09 134.19,-29.09 141.19,-29.09"/>
</a>
</g>
</g>
</g>
</svg>
