<?xml version="1.0" encoding="UTF-8" standalone="no"?>
<!DOCTYPE svg PUBLIC "-//W3C//DTD SVG 1.1//EN"
 "http://www.w3.org/Graphics/SVG/1.1/DTD/svg11.dtd">
<!-- Generated by graphviz version 2.43.0 (0)
 -->
<!-- Title: encrypted_writer.cpp Pages: 1 -->
<svg width="1081pt" height="313pt"
 viewBox="0.00 0.00 1080.50 313.00" xmlns="http://www.w3.org/2000/svg" xmlns:xlink="http://www.w3.org/1999/xlink">
<g id="graph0" class="graph" transform="scale(1 1) rotate(0) translate(4 309)">
<title>encrypted_writer.cpp</title>
<!-- Node1 -->
<g id="Node000001" class="node">
<title>Node1</title>
<g id="a_Node000001"><a xlink:title=" ">
<polygon fill="#999999" stroke="#666666" points="919,-305 800,-305 800,-286 919,-286 919,-305"/>
<text text-anchor="middle" x="859.5" y="-293" font-family="Helvetica,sans-Serif" font-size="10.00">encrypted_writer.cpp</text>
</a>
</g>
</g>
<!-- Node2 -->
<g id="Node000002" class="node">
<title>Node2</title>
<g id="a_Node000002"><a xlink:href="encrypted__writer_8h.html" target="_top" xlink:title=" ">
<polygon fill="white" stroke="#666666" points="718,-250 611,-250 611,-231 718,-231 718,-250"/>
<text text-anchor="middle" x="664.5" y="-238" font-family="Helvetica,sans-Serif" font-size="10.00">encrypted_writer.h</text>
</a>
</g>
</g>
<!-- Node1&#45;&gt;Node2 -->
<g id="edge1_Node000001_Node000002" class="edge">
<title>Node1&#45;&gt;Node2</title>
<g id="a_edge1_Node000001_Node000002"><a xlink:title=" ">
<path fill="none" stroke="#63b8ff" d="M828.17,-285.98C795.01,-276.97 742.5,-262.7 705.94,-252.76"/>
<polygon fill="#63b8ff" stroke="#63b8ff" points="706.64,-249.33 696.08,-250.08 704.81,-256.08 706.64,-249.33"/>
</a>
</g>
</g>
<!-- Node17 -->
<g id="Node000017" class="node">
<title>Node17</title>
<g id="a_Node000017"><a xlink:title=" ">
<polygon fill="#e0e0e0" stroke="#999999" points="768.5,-19 718.5,-19 718.5,0 768.5,0 768.5,-19"/>
<text text-anchor="middle" x="743.5" y="-7" font-family="Helvetica,sans-Serif" font-size="10.00">cstring</text>
</a>
</g>
</g>
<!-- Node1&#45;&gt;Node17 -->
<g id="edge38_Node000001_Node000017" class="edge">
<title>Node1&#45;&gt;Node17</title>
<g id="a_edge38_Node000001_Node000017"><a xlink:title=" ">
<path fill="none" stroke="#63b8ff" d="M837.27,-285.89C821.25,-278.61 800.28,-266.68 787.5,-250 769.58,-226.62 768.5,-215.96 768.5,-186.5 768.5,-186.5 768.5,-186.5 768.5,-124 768.5,-89.67 757.46,-50.83 750.05,-28.65"/>
<polygon fill="#63b8ff" stroke="#63b8ff" points="753.35,-27.49 746.77,-19.19 746.74,-29.78 753.35,-27.49"/>
</a>
</g>
</g>
<!-- Node22 -->
<g id="Node000022" class="node">
<title>Node22</title>
<g id="a_Node000022"><a xlink:title=" ">
<polygon fill="#e0e0e0" stroke="#999999" points="850.5,-250 796.5,-250 796.5,-231 850.5,-231 850.5,-250"/>
<text text-anchor="middle" x="823.5" y="-238" font-family="Helvetica,sans-Serif" font-size="10.00">random</text>
</a>
</g>
</g>
<!-- Node1&#45;&gt;Node22 -->
<g id="edge34_Node000001_Node000022" class="edge">
<title>Node1&#45;&gt;Node22</title>
<g id="a_edge34_Node000001_Node000022"><a xlink:title=" ">
<path fill="none" stroke="#63b8ff" d="M853.56,-285.75C848.52,-278.34 841.16,-267.5 834.99,-258.41"/>
<polygon fill="#63b8ff" stroke="#63b8ff" points="837.85,-256.39 829.33,-250.09 832.06,-260.33 837.85,-256.39"/>
</a>
</g>
</g>
<!-- Node23 -->
<g id="Node000023" class="node">
<title>Node23</title>
<g id="a_Node000023"><a xlink:title=" ">
<polygon fill="#e0e0e0" stroke="#999999" points="924,-250 869,-250 869,-231 924,-231 924,-250"/>
<text text-anchor="middle" x="896.5" y="-238" font-family="Helvetica,sans-Serif" font-size="10.00">fstream</text>
</a>
</g>
</g>
<!-- Node1&#45;&gt;Node23 -->
<g id="edge35_Node000001_Node000023" class="edge">
<title>Node1&#45;&gt;Node23</title>
<g id="a_edge35_Node000001_Node000023"><a xlink:title=" ">
<path fill="none" stroke="#63b8ff" d="M865.61,-285.75C870.78,-278.34 878.35,-267.5 884.69,-258.41"/>
<polygon fill="#63b8ff" stroke="#63b8ff" points="887.65,-260.29 890.5,-250.09 881.91,-256.29 887.65,-260.29"/>
</a>
</g>
</g>
<!-- Node24 -->
<g id="Node000024" class="node">
<title>Node24</title>
<g id="a_Node000024"><a xlink:title=" ">
<polygon fill="#e0e0e0" stroke="#999999" points="998.5,-250 942.5,-250 942.5,-231 998.5,-231 998.5,-250"/>
<text text-anchor="middle" x="970.5" y="-238" font-family="Helvetica,sans-Serif" font-size="10.00">sstream</text>
</a>
</g>
</g>
<!-- Node1&#45;&gt;Node24 -->
<g id="edge36_Node000001_Node000024" class="edge">
<title>Node1&#45;&gt;Node24</title>
<g id="a_edge36_Node000001_Node000024"><a xlink:title=" ">
<path fill="none" stroke="#63b8ff" d="M877.33,-285.98C895.11,-277.5 922.65,-264.35 943.18,-254.54"/>
<polygon fill="#63b8ff" stroke="#63b8ff" points="944.83,-257.64 952.34,-250.17 941.81,-251.32 944.83,-257.64"/>
</a>
</g>
</g>
<!-- Node25 -->
<g id="Node000025" class="node">
<title>Node25</title>
<g id="a_Node000025"><a xlink:title=" ">
<polygon fill="#e0e0e0" stroke="#999999" points="1072.5,-250 1016.5,-250 1016.5,-231 1072.5,-231 1072.5,-250"/>
<text text-anchor="middle" x="1044.5" y="-238" font-family="Helvetica,sans-Serif" font-size="10.00">iomanip</text>
</a>
</g>
</g>
<!-- Node1&#45;&gt;Node25 -->
<g id="edge37_Node000001_Node000025" class="edge">
<title>Node1&#45;&gt;Node25</title>
<g id="a_edge37_Node000001_Node000025"><a xlink:title=" ">
<path fill="none" stroke="#63b8ff" d="M889.22,-285.98C921.11,-276.85 971.84,-262.32 1006.58,-252.36"/>
<polygon fill="#63b8ff" stroke="#63b8ff" points="1007.72,-255.68 1016.37,-249.56 1005.79,-248.95 1007.72,-255.68"/>
</a>
</g>
</g>
<!-- Node3 -->
<g id="Node000003" class="node">
<title>Node3</title>
<g id="a_Node000003"><a xlink:href="base__writer_8h.html" target="_top" xlink:title=" ">
<polygon fill="white" stroke="#666666" points="444.5,-195 362.5,-195 362.5,-176 444.5,-176 444.5,-195"/>
<text text-anchor="middle" x="403.5" y="-183" font-family="Helvetica,sans-Serif" font-size="10.00">base_writer.h</text>
</a>
</g>
</g>
<!-- Node2&#45;&gt;Node3 -->
<g id="edge2_Node000002_Node000003" class="edge">
<title>Node2&#45;&gt;Node3</title>
<g id="a_edge2_Node000002_Node000003"><a xlink:title=" ">
<path fill="none" stroke="#63b8ff" d="M622.57,-230.98C576.96,-221.72 504.03,-206.91 454.98,-196.95"/>
<polygon fill="#63b8ff" stroke="#63b8ff" points="455.4,-193.47 444.9,-194.91 454,-200.33 455.4,-193.47"/>
</a>
</g>
</g>
<!-- Node7 -->
<g id="Node000007" class="node">
<title>Node7</title>
<g id="a_Node000007"><a xlink:title=" ">
<polygon fill="#e0e0e0" stroke="#999999" points="608.5,-19 550.5,-19 550.5,0 608.5,0 608.5,-19"/>
<text text-anchor="middle" x="579.5" y="-7" font-family="Helvetica,sans-Serif" font-size="10.00">memory</text>
</a>
</g>
</g>
<!-- Node2&#45;&gt;Node7 -->
<g id="edge31_Node000002_Node000007" class="edge">
<title>Node2&#45;&gt;Node7</title>
<g id="a_edge31_Node000002_Node000007"><a xlink:title=" ">
<path fill="none" stroke="#63b8ff" d="M666.06,-230.61C670.5,-202.49 680.77,-113.82 645.5,-55 637.38,-41.46 623.36,-31.14 610.32,-23.86"/>
<polygon fill="#63b8ff" stroke="#63b8ff" points="611.6,-20.58 601.1,-19.1 608.38,-26.8 611.6,-20.58"/>
</a>
</g>
</g>
<!-- Node20 -->
<g id="Node000020" class="node">
<title>Node20</title>
<g id="a_Node000020"><a xlink:title=" ">
<polygon fill="#e0e0e0" stroke="#999999" points="740,-195 693,-195 693,-176 740,-176 740,-195"/>
<text text-anchor="middle" x="716.5" y="-183" font-family="Helvetica,sans-Serif" font-size="10.00">vector</text>
</a>
</g>
</g>
<!-- Node2&#45;&gt;Node20 -->
<g id="edge32_Node000002_Node000020" class="edge">
<title>Node2&#45;&gt;Node20</title>
<g id="a_edge32_Node000002_Node000020"><a xlink:title=" ">
<path fill="none" stroke="#63b8ff" d="M673.09,-230.75C680.66,-223.03 691.88,-211.6 701.01,-202.28"/>
<polygon fill="#63b8ff" stroke="#63b8ff" points="703.57,-204.68 708.07,-195.09 698.57,-199.78 703.57,-204.68"/>
</a>
</g>
</g>
<!-- Node21 -->
<g id="Node000021" class="node">
<title>Node21</title>
<g id="a_Node000021"><a xlink:title=" ">
<polygon fill="#e0e0e0" stroke="#999999" points="344.5,-195 294.5,-195 294.5,-176 344.5,-176 344.5,-195"/>
<text text-anchor="middle" x="319.5" y="-183" font-family="Helvetica,sans-Serif" font-size="10.00">cstdint</text>
</a>
</g>
</g>
<!-- Node2&#45;&gt;Node21 -->
<g id="edge33_Node000002_Node000021" class="edge">
<title>Node2&#45;&gt;Node21</title>
<g id="a_edge33_Node000002_Node000021"><a xlink:title=" ">
<path fill="none" stroke="#63b8ff" d="M610.84,-233.52C550.69,-226.44 450.11,-213.47 354.52,-195.02"/>
<polygon fill="#63b8ff" stroke="#63b8ff" points="355.17,-191.59 344.69,-193.1 353.83,-198.46 355.17,-191.59"/>
</a>
</g>
</g>
<!-- Node4 -->
<g id="Node000004" class="node">
<title>Node4</title>
<g id="a_Node000004"><a xlink:title=" ">
<polygon fill="#e0e0e0" stroke="#999999" points="355.5,-19 311.5,-19 311.5,0 355.5,0 355.5,-19"/>
<text text-anchor="middle" x="333.5" y="-7" font-family="Helvetica,sans-Serif" font-size="10.00">string</text>
</a>
</g>
</g>
<!-- Node3&#45;&gt;Node4 -->
<g id="edge3_Node000003_Node000004" class="edge">
<title>Node3&#45;&gt;Node4</title>
<g id="a_edge3_Node000003_Node000004"><a xlink:title=" ">
<path fill="none" stroke="#63b8ff" d="M362.34,-177.15C302.73,-166.3 198.84,-146.59 193.5,-140 168.37,-108.99 192.85,-81.72 222.5,-55 234.57,-44.12 273.39,-29.91 301.72,-20.51"/>
<polygon fill="#63b8ff" stroke="#63b8ff" points="302.83,-23.83 311.25,-17.39 300.66,-17.17 302.83,-23.83"/>
</a>
</g>
</g>
<!-- Node5 -->
<g id="Node000005" class="node">
<title>Node5</title>
<g id="a_Node000005"><a xlink:title=" ">
<polygon fill="#e0e0e0" stroke="#999999" points="290.5,-74 240.5,-74 240.5,-55 290.5,-55 290.5,-74"/>
<text text-anchor="middle" x="265.5" y="-62" font-family="Helvetica,sans-Serif" font-size="10.00">chrono</text>
</a>
</g>
</g>
<!-- Node3&#45;&gt;Node5 -->
<g id="edge4_Node000003_Node000005" class="edge">
<title>Node3&#45;&gt;Node5</title>
<g id="a_edge4_Node000003_Node000005"><a xlink:title=" ">
<path fill="none" stroke="#63b8ff" d="M397.26,-175.95C386.3,-161.29 362.35,-130.92 337.5,-110 323.3,-98.05 305.58,-87.05 291.27,-78.98"/>
<polygon fill="#63b8ff" stroke="#63b8ff" points="292.89,-75.88 282.44,-74.12 289.51,-82.01 292.89,-75.88"/>
</a>
</g>
</g>
<!-- Node6 -->
<g id="Node000006" class="node">
<title>Node6</title>
<g id="a_Node000006"><a xlink:href="logger__interface_8h.html" target="_top" xlink:title=" ">
<polygon fill="white" stroke="#666666" points="636.5,-74 522.5,-74 522.5,-55 636.5,-55 636.5,-74"/>
<text text-anchor="middle" x="579.5" y="-62" font-family="Helvetica,sans-Serif" font-size="10.00">../logger_interface.h</text>
</a>
</g>
</g>
<!-- Node3&#45;&gt;Node6 -->
<g id="edge5_Node000003_Node000006" class="edge">
<title>Node3&#45;&gt;Node6</title>
<g id="a_edge5_Node000003_Node000006"><a xlink:title=" ">
<path fill="none" stroke="#63b8ff" d="M444.64,-175.99C469.81,-169.29 501.66,-158 525.5,-140 545.56,-124.86 561.36,-100.18 570.56,-83.42"/>
<polygon fill="#63b8ff" stroke="#63b8ff" points="573.87,-84.64 575.41,-74.16 567.67,-81.39 573.87,-84.64"/>
</a>
</g>
</g>
<!-- Node9 -->
<g id="Node000009" class="node">
<title>Node9</title>
<g id="a_Node000009"><a xlink:href="error__codes_8h.html" target="_top" xlink:title=" ">
<polygon fill="white" stroke="#666666" points="146.5,-74 54.5,-74 54.5,-55 146.5,-55 146.5,-74"/>
<text text-anchor="middle" x="100.5" y="-62" font-family="Helvetica,sans-Serif" font-size="10.00">../error_codes.h</text>
</a>
</g>
</g>
<!-- Node3&#45;&gt;Node9 -->
<g id="edge9_Node000003_Node000009" class="edge">
<title>Node3&#45;&gt;Node9</title>
<g id="a_edge9_Node000003_Node000009"><a xlink:title=" ">
<path fill="none" stroke="#63b8ff" d="M362.36,-177.34C294.2,-165.43 164.84,-142.58 160.5,-140 137.6,-126.37 119.83,-100.54 109.76,-83.18"/>
<polygon fill="#63b8ff" stroke="#63b8ff" points="112.63,-81.15 104.74,-74.08 106.51,-84.53 112.63,-81.15"/>
</a>
</g>
</g>
<!-- Node14 -->
<g id="Node000014" class="node">
<title>Node14</title>
<g id="a_Node000014"><a xlink:href="log__writer__interface_8h.html" target="_top" xlink:title=" ">
<polygon fill="white" stroke="#666666" points="328.5,-140 202.5,-140 202.5,-110 328.5,-110 328.5,-140"/>
<text text-anchor="start" x="210.5" y="-128" font-family="Helvetica,sans-Serif" font-size="10.00">../interfaces/log_writer</text>
<text text-anchor="middle" x="265.5" y="-117" font-family="Helvetica,sans-Serif" font-size="10.00">_interface.h</text>
</a>
</g>
</g>
<!-- Node3&#45;&gt;Node14 -->
<g id="edge15_Node000003_Node000014" class="edge">
<title>Node3&#45;&gt;Node14</title>
<g id="a_edge15_Node000003_Node000014"><a xlink:title=" ">
<path fill="none" stroke="#63b8ff" d="M383.43,-175.99C363.75,-167.65 333.11,-154.66 308,-144.02"/>
<polygon fill="#63b8ff" stroke="#63b8ff" points="309.25,-140.74 298.68,-140.06 306.52,-147.19 309.25,-140.74"/>
</a>
</g>
</g>
<!-- Node15 -->
<g id="Node000015" class="node">
<title>Node15</title>
<g id="a_Node000015"><a xlink:href="log__entry_8h.html" target="_top" xlink:title=" ">
<polygon fill="white" stroke="#666666" points="516,-134.5 385,-134.5 385,-115.5 516,-115.5 516,-134.5"/>
<text text-anchor="middle" x="450.5" y="-122.5" font-family="Helvetica,sans-Serif" font-size="10.00">../interfaces/log_entry.h</text>
</a>
</g>
</g>
<!-- Node3&#45;&gt;Node15 -->
<g id="edge19_Node000003_Node000015" class="edge">
<title>Node3&#45;&gt;Node15</title>
<g id="a_edge19_Node000003_Node000015"><a xlink:title=" ">
<path fill="none" stroke="#63b8ff" d="M410.44,-175.87C417.45,-167.14 428.46,-153.43 437.17,-142.59"/>
<polygon fill="#63b8ff" stroke="#63b8ff" points="440,-144.66 443.54,-134.67 434.54,-140.27 440,-144.66"/>
</a>
</g>
</g>
<!-- Node6&#45;&gt;Node4 -->
<g id="edge8_Node000006_Node000004" class="edge">
<title>Node6&#45;&gt;Node4</title>
<g id="a_edge8_Node000006_Node000004"><a xlink:title=" ">
<path fill="none" stroke="#63b8ff" d="M536.36,-54.94C493.44,-46.32 425.78,-32.4 367.5,-19 366.91,-18.86 366.31,-18.73 365.71,-18.58"/>
<polygon fill="#63b8ff" stroke="#63b8ff" points="366.32,-15.13 355.78,-16.2 364.69,-21.94 366.32,-15.13"/>
</a>
</g>
</g>
<!-- Node6&#45;&gt;Node7 -->
<g id="edge6_Node000006_Node000007" class="edge">
<title>Node6&#45;&gt;Node7</title>
<g id="a_edge6_Node000006_Node000007"><a xlink:title=" ">
<path fill="none" stroke="#63b8ff" d="M579.5,-54.75C579.5,-47.8 579.5,-37.85 579.5,-29.13"/>
<polygon fill="#63b8ff" stroke="#63b8ff" points="583,-29.09 579.5,-19.09 576,-29.09 583,-29.09"/>
</a>
</g>
</g>
<!-- Node8 -->
<g id="Node000008" class="node">
<title>Node8</title>
<g id="a_Node000008"><a xlink:title=" ">
<polygon fill="#e0e0e0" stroke="#999999" points="674.5,-19 626.5,-19 626.5,0 674.5,0 674.5,-19"/>
<text text-anchor="middle" x="650.5" y="-7" font-family="Helvetica,sans-Serif" font-size="10.00">mutex</text>
</a>
</g>
</g>
<!-- Node6&#45;&gt;Node8 -->
<g id="edge7_Node000006_Node000008" class="edge">
<title>Node6&#45;&gt;Node8</title>
<g id="a_edge7_Node000006_Node000008"><a xlink:title=" ">
<path fill="none" stroke="#63b8ff" d="M590.91,-54.98C601.61,-47 617.84,-34.88 630.66,-25.31"/>
<polygon fill="#63b8ff" stroke="#63b8ff" points="632.97,-27.96 638.89,-19.17 628.78,-22.35 632.97,-27.96"/>
</a>
</g>
</g>
<!-- Node9&#45;&gt;Node4 -->
<g id="edge10_Node000009_Node000004" class="edge">
<title>Node9&#45;&gt;Node4</title>
<g id="a_edge10_Node000009_Node000004"><a xlink:title=" ">
<path fill="none" stroke="#63b8ff" d="M140.21,-54.93C180.43,-46.17 244.38,-32.05 299.5,-19 300.09,-18.86 300.69,-18.72 301.29,-18.57"/>
<polygon fill="#63b8ff" stroke="#63b8ff" points="302.32,-21.93 311.21,-16.16 300.66,-15.12 302.32,-21.93"/>
</a>
</g>
</g>
<!-- Node10 -->
<g id="Node000010" class="node">
<title>Node10</title>
<g id="a_Node000010"><a xlink:title=" ">
<polygon fill="#e0e0e0" stroke="#999999" points="134,-19 69,-19 69,0 134,0 134,-19"/>
<text text-anchor="middle" x="101.5" y="-7" font-family="Helvetica,sans-Serif" font-size="10.00">stdexcept</text>
</a>
</g>
</g>
<!-- Node9&#45;&gt;Node10 -->
<g id="edge11_Node000009_Node000010" class="edge">
<title>Node9&#45;&gt;Node10</title>
<g id="a_edge11_Node000009_Node000010"><a xlink:title=" ">
<path fill="none" stroke="#63b8ff" d="M100.67,-54.75C100.8,-47.8 100.98,-37.85 101.15,-29.13"/>
<polygon fill="#63b8ff" stroke="#63b8ff" points="104.65,-29.15 101.34,-19.09 97.65,-29.02 104.65,-29.15"/>
</a>
</g>
</g>
<!-- Node11 -->
<g id="Node000011" class="node">
<title>Node11</title>
<g id="a_Node000011"><a xlink:title=" ">
<polygon fill="#e0e0e0" stroke="#999999" points="290,-19 245,-19 245,0 290,0 290,-19"/>
<text text-anchor="middle" x="267.5" y="-7" font-family="Helvetica,sans-Serif" font-size="10.00">utility</text>
</a>
</g>
</g>
<!-- Node9&#45;&gt;Node11 -->
<g id="edge12_Node000009_Node000011" class="edge">
<title>Node9&#45;&gt;Node11</title>
<g id="a_edge12_Node000009_Node000011"><a xlink:title=" ">
<path fill="none" stroke="#63b8ff" d="M127.33,-54.98C156.7,-45.66 203.78,-30.72 235.16,-20.76"/>
<polygon fill="#63b8ff" stroke="#63b8ff" points="236.29,-24.08 244.76,-17.72 234.17,-17.41 236.29,-24.08"/>
</a>
</g>
</g>
<!-- Node12 -->
<g id="Node000012" class="node">
<title>Node12</title>
<g id="a_Node000012"><a xlink:title=" ">
<polygon fill="#e0e0e0" stroke="#999999" points="220.5,-19 164.5,-19 164.5,0 220.5,0 220.5,-19"/>
<text text-anchor="middle" x="192.5" y="-7" font-family="Helvetica,sans-Serif" font-size="10.00">optional</text>
</a>
</g>
</g>
<!-- Node9&#45;&gt;Node12 -->
<g id="edge13_Node000009_Node000012" class="edge">
<title>Node9&#45;&gt;Node12</title>
<g id="a_edge13_Node000009_Node000012"><a xlink:title=" ">
<path fill="none" stroke="#63b8ff" d="M115.28,-54.98C129.68,-46.69 151.81,-33.94 168.69,-24.22"/>
<polygon fill="#63b8ff" stroke="#63b8ff" points="170.53,-27.19 177.45,-19.17 167.04,-21.13 170.53,-27.19"/>
</a>
</g>
</g>
<!-- Node13 -->
<g id="Node000013" class="node">
<title>Node13</title>
<g id="a_Node000013"><a xlink:title=" ">
<polygon fill="#e0e0e0" stroke="#999999" points="51,-19 0,-19 0,0 51,0 51,-19"/>
<text text-anchor="middle" x="25.5" y="-7" font-family="Helvetica,sans-Serif" font-size="10.00">variant</text>
</a>
</g>
</g>
<!-- Node9&#45;&gt;Node13 -->
<g id="edge14_Node000009_Node000013" class="edge">
<title>Node9&#45;&gt;Node13</title>
<g id="a_edge14_Node000009_Node000013"><a xlink:title=" ">
<path fill="none" stroke="#63b8ff" d="M88.45,-54.98C77.04,-46.92 59.67,-34.65 46.07,-25.03"/>
<polygon fill="#63b8ff" stroke="#63b8ff" points="47.96,-22.08 37.77,-19.17 43.92,-27.8 47.96,-22.08"/>
</a>
</g>
</g>
<!-- Node14&#45;&gt;Node4 -->
<g id="edge16_Node000014_Node000004" class="edge">
<title>Node14&#45;&gt;Node4</title>
<g id="a_edge16_Node000014_Node000004"><a xlink:title=" ">
<path fill="none" stroke="#63b8ff" d="M250.06,-109.98C236.21,-95.64 219.72,-72.99 231.5,-55 239.62,-42.6 274.63,-29.08 301.39,-20.24"/>
<polygon fill="#63b8ff" stroke="#63b8ff" points="302.73,-23.49 311.17,-17.09 300.58,-16.82 302.73,-23.49"/>
</a>
</g>
</g>
<!-- Node14&#45;&gt;Node5 -->
<g id="edge17_Node000014_Node000005" class="edge">
<title>Node14&#45;&gt;Node5</title>
<g id="a_edge17_Node000014_Node000005"><a xlink:title=" ">
<path fill="none" stroke="#63b8ff" d="M265.5,-109.84C265.5,-102.21 265.5,-92.7 265.5,-84.45"/>
<polygon fill="#63b8ff" stroke="#63b8ff" points="269,-84.27 265.5,-74.27 262,-84.27 269,-84.27"/>
</a>
</g>
</g>
<!-- Node14&#45;&gt;Node9 -->
<g id="edge18_Node000014_Node000009" class="edge">
<title>Node14&#45;&gt;Node9</title>
<g id="a_edge18_Node000014_Node000009"><a xlink:title=" ">
<path fill="none" stroke="#63b8ff" d="M225.98,-109.99C198.08,-100.1 161.09,-86.98 134.5,-77.56"/>
<polygon fill="#63b8ff" stroke="#63b8ff" points="135.46,-74.18 124.87,-74.14 133.12,-80.78 135.46,-74.18"/>
</a>
</g>
</g>
<!-- Node15&#45;&gt;Node4 -->
<g id="edge20_Node000015_Node000004" class="edge">
<title>Node15&#45;&gt;Node4</title>
<g id="a_edge20_Node000015_Node000004"><a xlink:title=" ">
<path fill="none" stroke="#63b8ff" d="M434.19,-115.41C418.26,-106.49 393.94,-91.42 376.5,-74 362.71,-60.22 350.62,-41.42 342.8,-27.86"/>
<polygon fill="#63b8ff" stroke="#63b8ff" points="345.83,-26.09 337.9,-19.06 339.71,-29.5 345.83,-26.09"/>
</a>
</g>
</g>
<!-- Node15&#45;&gt;Node5 -->
<g id="edge21_Node000015_Node000005" class="edge">
<title>Node15&#45;&gt;Node5</title>
<g id="a_edge21_Node000015_Node000005"><a xlink:title=" ">
<path fill="none" stroke="#63b8ff" d="M423.6,-115.49C390.99,-105.18 335.97,-87.78 300.2,-76.47"/>
<polygon fill="#63b8ff" stroke="#63b8ff" points="301.24,-73.13 290.65,-73.45 299.13,-79.81 301.24,-73.13"/>
</a>
</g>
</g>
<!-- Node15&#45;&gt;Node6 -->
<g id="edge30_Node000015_Node000006" class="edge">
<title>Node15&#45;&gt;Node6</title>
<g id="a_edge30_Node000015_Node000006"><a xlink:title=" ">
<path fill="none" stroke="#63b8ff" d="M469.26,-115.49C490.85,-105.7 526.53,-89.52 551.43,-78.23"/>
<polygon fill="#63b8ff" stroke="#63b8ff" points="553.06,-81.33 560.72,-74.02 550.17,-74.96 553.06,-81.33"/>
</a>
</g>
</g>
<!-- Node15&#45;&gt;Node12 -->
<g id="edge22_Node000015_Node000012" class="edge">
<title>Node15&#45;&gt;Node12</title>
<g id="a_edge22_Node000015_Node000012"><a xlink:title=" ">
<path fill="none" stroke="#63b8ff" d="M432,-115.29C403.62,-102 347.58,-75.98 299.5,-55 273.91,-43.84 244.63,-31.7 223.17,-22.93"/>
<polygon fill="#63b8ff" stroke="#63b8ff" points="224.49,-19.69 213.91,-19.15 221.85,-26.17 224.49,-19.69"/>
</a>
</g>
</g>
<!-- Node16 -->
<g id="Node000016" class="node">
<title>Node16</title>
<g id="a_Node000016"><a xlink:href="small__string_8h.html" target="_top" xlink:title=" ">
<polygon fill="white" stroke="#666666" points="504,-74 385,-74 385,-55 504,-55 504,-74"/>
<text text-anchor="middle" x="444.5" y="-62" font-family="Helvetica,sans-Serif" font-size="10.00">../core/small_string.h</text>
</a>
</g>
</g>
<!-- Node15&#45;&gt;Node16 -->
<g id="edge23_Node000015_Node000016" class="edge">
<title>Node15&#45;&gt;Node16</title>
<g id="a_edge23_Node000015_Node000016"><a xlink:title=" ">
<path fill="none" stroke="#63b8ff" d="M449.61,-115.37C448.78,-107.25 447.51,-94.81 446.44,-84.39"/>
<polygon fill="#63b8ff" stroke="#63b8ff" points="449.89,-83.76 445.39,-74.17 442.93,-84.47 449.89,-83.76"/>
</a>
</g>
</g>
<!-- Node16&#45;&gt;Node4 -->
<g id="edge25_Node000016_Node000004" class="edge">
<title>Node16&#45;&gt;Node4</title>
<g id="a_edge25_Node000016_Node000004"><a xlink:title=" ">
<path fill="none" stroke="#63b8ff" d="M426.67,-54.98C408.89,-46.5 381.35,-33.35 360.82,-23.54"/>
<polygon fill="#63b8ff" stroke="#63b8ff" points="362.19,-20.32 351.66,-19.17 359.17,-26.64 362.19,-20.32"/>
</a>
</g>
</g>
<!-- Node16&#45;&gt;Node7 -->
<g id="edge28_Node000016_Node000007" class="edge">
<title>Node16&#45;&gt;Node7</title>
<g id="a_edge28_Node000016_Node000007"><a xlink:title=" ">
<path fill="none" stroke="#63b8ff" d="M466.19,-54.98C488.3,-46.3 522.82,-32.75 547.95,-22.88"/>
<polygon fill="#63b8ff" stroke="#63b8ff" points="549.39,-26.08 557.42,-19.17 546.83,-19.57 549.39,-26.08"/>
</a>
</g>
</g>
<!-- Node16&#45;&gt;Node11 -->
<g id="edge29_Node000016_Node000011" class="edge">
<title>Node16&#45;&gt;Node11</title>
<g id="a_edge29_Node000016_Node000011"><a xlink:title=" ">
<path fill="none" stroke="#63b8ff" d="M416.06,-54.98C384.36,-45.49 333.18,-30.17 299.94,-20.21"/>
<polygon fill="#63b8ff" stroke="#63b8ff" points="300.82,-16.83 290.24,-17.31 298.82,-23.53 300.82,-16.83"/>
</a>
</g>
</g>
<!-- Node16&#45;&gt;Node17 -->
<g id="edge24_Node000016_Node000017" class="edge">
<title>Node16&#45;&gt;Node17</title>
<g id="a_edge24_Node000016_Node000017"><a xlink:title=" ">
<path fill="none" stroke="#63b8ff" d="M492.54,-54.98C552.74,-44.31 654.51,-26.27 708.08,-16.78"/>
<polygon fill="#63b8ff" stroke="#63b8ff" points="708.89,-20.19 718.13,-15 707.67,-13.3 708.89,-20.19"/>
</a>
</g>
</g>
<!-- Node18 -->
<g id="Node000018" class="node">
<title>Node18</title>
<g id="a_Node000018"><a xlink:title=" ">
<polygon fill="#e0e0e0" stroke="#999999" points="449,-19 376,-19 376,0 449,0 449,-19"/>
<text text-anchor="middle" x="412.5" y="-7" font-family="Helvetica,sans-Serif" font-size="10.00">string_view</text>
</a>
</g>
</g>
<!-- Node16&#45;&gt;Node18 -->
<g id="edge26_Node000016_Node000018" class="edge">
<title>Node16&#45;&gt;Node18</title>
<g id="a_edge26_Node000016_Node000018"><a xlink:title=" ">
<path fill="none" stroke="#63b8ff" d="M439.22,-54.75C434.79,-47.42 428.34,-36.73 422.88,-27.7"/>
<polygon fill="#63b8ff" stroke="#63b8ff" points="425.85,-25.84 417.69,-19.09 419.86,-29.46 425.85,-25.84"/>
</a>
</g>
</g>
<!-- Node19 -->
<g id="Node000019" class="node">
<title>Node19</title>
<g id="a_Node000019"><a xlink:title=" ">
<polygon fill="#e0e0e0" stroke="#999999" points="531.5,-19 467.5,-19 467.5,0 531.5,0 531.5,-19"/>
<text text-anchor="middle" x="499.5" y="-7" font-family="Helvetica,sans-Serif" font-size="10.00">algorithm</text>
</a>
</g>
</g>
<!-- Node16&#45;&gt;Node19 -->
<g id="edge27_Node000016_Node000019" class="edge">
<title>Node16&#45;&gt;Node19</title>
<g id="a_edge27_Node000016_Node000019"><a xlink:title=" ">
<path fill="none" stroke="#63b8ff" d="M453.58,-54.75C461.59,-47.03 473.46,-35.6 483.12,-26.28"/>
<polygon fill="#63b8ff" stroke="#63b8ff" points="485.81,-28.55 490.59,-19.09 480.96,-23.51 485.81,-28.55"/>
</a>
</g>
</g>
</g>
</svg>
