<?xml version="1.0" encoding="UTF-8" standalone="no"?>
<!DOCTYPE svg PUBLIC "-//W3C//DTD SVG 1.1//EN"
 "http://www.w3.org/Graphics/SVG/1.1/DTD/svg11.dtd">
<!-- Generated by graphviz version 2.43.0 (0)
 -->
<!-- Title: encrypted_writer.cpp Pages: 1 -->
<svg width="952pt" height="313pt"
 viewBox="0.00 0.00 951.50 313.00" xmlns="http://www.w3.org/2000/svg" xmlns:xlink="http://www.w3.org/1999/xlink">
<g id="graph0" class="graph" transform="scale(1 1) rotate(0) translate(4 309)">
<title>encrypted_writer.cpp</title>
<!-- Node1 -->
<g id="Node000001" class="node">
<title>Node1</title>
<g id="a_Node000001"><a xlink:title=" ">
<polygon fill="#999999" stroke="#666666" points="796,-305 677,-305 677,-286 796,-286 796,-305"/>
<text text-anchor="middle" x="736.5" y="-293" font-family="Helvetica,sans-Serif" font-size="10.00">encrypted_writer.cpp</text>
</a>
</g>
</g>
<!-- Node2 -->
<g id="Node000002" class="node">
<title>Node2</title>
<g id="a_Node000002"><a xlink:href="encrypted__writer_8h.html" target="_top" xlink:title=" ">
<polygon fill="white" stroke="#666666" points="581,-250 474,-250 474,-231 581,-231 581,-250"/>
<text text-anchor="middle" x="527.5" y="-238" font-family="Helvetica,sans-Serif" font-size="10.00">encrypted_writer.h</text>
</a>
</g>
</g>
<!-- Node1&#45;&gt;Node2 -->
<g id="edge1_Node000001_Node000002" class="edge">
<title>Node1&#45;&gt;Node2</title>
<g id="a_edge1_Node000001_Node000002"><a xlink:title=" ">
<path fill="none" stroke="#63b8ff" d="M702.92,-285.98C667.15,-276.91 610.38,-262.52 571.16,-252.57"/>
<polygon fill="#63b8ff" stroke="#63b8ff" points="571.9,-249.15 561.34,-250.08 570.18,-255.93 571.9,-249.15"/>
</a>
</g>
</g>
<!-- Node17 -->
<g id="Node000017" class="node">
<title>Node17</title>
<g id="a_Node000017"><a xlink:title=" ">
<polygon fill="#e0e0e0" stroke="#999999" points="653.5,-250 599.5,-250 599.5,-231 653.5,-231 653.5,-250"/>
<text text-anchor="middle" x="626.5" y="-238" font-family="Helvetica,sans-Serif" font-size="10.00">random</text>
</a>
</g>
</g>
<!-- Node1&#45;&gt;Node17 -->
<g id="edge26_Node000001_Node000017" class="edge">
<title>Node1&#45;&gt;Node17</title>
<g id="a_edge26_Node000001_Node000017"><a xlink:title=" ">
<path fill="none" stroke="#63b8ff" d="M718.83,-285.98C701.21,-277.5 673.92,-264.35 653.57,-254.54"/>
<polygon fill="#63b8ff" stroke="#63b8ff" points="655.02,-251.36 644.49,-250.17 651.98,-257.66 655.02,-251.36"/>
</a>
</g>
</g>
<!-- Node18 -->
<g id="Node000018" class="node">
<title>Node18</title>
<g id="a_Node000018"><a xlink:title=" ">
<polygon fill="#e0e0e0" stroke="#999999" points="727,-250 672,-250 672,-231 727,-231 727,-250"/>
<text text-anchor="middle" x="699.5" y="-238" font-family="Helvetica,sans-Serif" font-size="10.00">fstream</text>
</a>
</g>
</g>
<!-- Node1&#45;&gt;Node18 -->
<g id="edge27_Node000001_Node000018" class="edge">
<title>Node1&#45;&gt;Node18</title>
<g id="a_edge27_Node000001_Node000018"><a xlink:title=" ">
<path fill="none" stroke="#63b8ff" d="M730.39,-285.75C725.22,-278.34 717.65,-267.5 711.31,-258.41"/>
<polygon fill="#63b8ff" stroke="#63b8ff" points="714.09,-256.29 705.5,-250.09 708.35,-260.29 714.09,-256.29"/>
</a>
</g>
</g>
<!-- Node19 -->
<g id="Node000019" class="node">
<title>Node19</title>
<g id="a_Node000019"><a xlink:title=" ">
<polygon fill="#e0e0e0" stroke="#999999" points="801.5,-250 745.5,-250 745.5,-231 801.5,-231 801.5,-250"/>
<text text-anchor="middle" x="773.5" y="-238" font-family="Helvetica,sans-Serif" font-size="10.00">sstream</text>
</a>
</g>
</g>
<!-- Node1&#45;&gt;Node19 -->
<g id="edge28_Node000001_Node000019" class="edge">
<title>Node1&#45;&gt;Node19</title>
<g id="a_edge28_Node000001_Node000019"><a xlink:title=" ">
<path fill="none" stroke="#63b8ff" d="M742.61,-285.75C747.78,-278.34 755.35,-267.5 761.69,-258.41"/>
<polygon fill="#63b8ff" stroke="#63b8ff" points="764.65,-260.29 767.5,-250.09 758.91,-256.29 764.65,-260.29"/>
</a>
</g>
</g>
<!-- Node20 -->
<g id="Node000020" class="node">
<title>Node20</title>
<g id="a_Node000020"><a xlink:title=" ">
<polygon fill="#e0e0e0" stroke="#999999" points="875.5,-250 819.5,-250 819.5,-231 875.5,-231 875.5,-250"/>
<text text-anchor="middle" x="847.5" y="-238" font-family="Helvetica,sans-Serif" font-size="10.00">iomanip</text>
</a>
</g>
</g>
<!-- Node1&#45;&gt;Node20 -->
<g id="edge29_Node000001_Node000020" class="edge">
<title>Node1&#45;&gt;Node20</title>
<g id="a_edge29_Node000001_Node000020"><a xlink:title=" ">
<path fill="none" stroke="#63b8ff" d="M754.33,-285.98C772.11,-277.5 799.65,-264.35 820.18,-254.54"/>
<polygon fill="#63b8ff" stroke="#63b8ff" points="821.83,-257.64 829.34,-250.17 818.81,-251.32 821.83,-257.64"/>
</a>
</g>
</g>
<!-- Node21 -->
<g id="Node000021" class="node">
<title>Node21</title>
<g id="a_Node000021"><a xlink:title=" ">
<polygon fill="#e0e0e0" stroke="#999999" points="943.5,-250 893.5,-250 893.5,-231 943.5,-231 943.5,-250"/>
<text text-anchor="middle" x="918.5" y="-238" font-family="Helvetica,sans-Serif" font-size="10.00">cstring</text>
</a>
</g>
</g>
<!-- Node1&#45;&gt;Node21 -->
<g id="edge30_Node000001_Node000021" class="edge">
<title>Node1&#45;&gt;Node21</title>
<g id="a_edge30_Node000001_Node000021"><a xlink:title=" ">
<path fill="none" stroke="#63b8ff" d="M765.74,-285.98C797.8,-276.65 849.21,-261.68 883.41,-251.72"/>
<polygon fill="#63b8ff" stroke="#63b8ff" points="884.81,-254.96 893.43,-248.8 882.85,-248.24 884.81,-254.96"/>
</a>
</g>
</g>
<!-- Node3 -->
<g id="Node000003" class="node">
<title>Node3</title>
<g id="a_Node000003"><a xlink:href="base__writer_8h.html" target="_top" xlink:title=" ">
<polygon fill="white" stroke="#666666" points="325.5,-195 243.5,-195 243.5,-176 325.5,-176 325.5,-195"/>
<text text-anchor="middle" x="284.5" y="-183" font-family="Helvetica,sans-Serif" font-size="10.00">base_writer.h</text>
</a>
</g>
</g>
<!-- Node2&#45;&gt;Node3 -->
<g id="edge2_Node000002_Node000003" class="edge">
<title>Node2&#45;&gt;Node3</title>
<g id="a_edge2_Node000002_Node000003"><a xlink:title=" ">
<path fill="none" stroke="#63b8ff" d="M488.46,-230.98C446.42,-221.82 379.46,-207.21 333.82,-197.26"/>
<polygon fill="#63b8ff" stroke="#63b8ff" points="334.36,-193.79 323.85,-195.08 332.87,-200.63 334.36,-193.79"/>
</a>
</g>
</g>
<!-- Node7 -->
<g id="Node000007" class="node">
<title>Node7</title>
<g id="a_Node000007"><a xlink:title=" ">
<polygon fill="#e0e0e0" stroke="#999999" points="523.5,-19 465.5,-19 465.5,0 523.5,0 523.5,-19"/>
<text text-anchor="middle" x="494.5" y="-7" font-family="Helvetica,sans-Serif" font-size="10.00">memory</text>
</a>
</g>
</g>
<!-- Node2&#45;&gt;Node7 -->
<g id="edge23_Node000002_Node000007" class="edge">
<title>Node2&#45;&gt;Node7</title>
<g id="a_edge23_Node000002_Node000007"><a xlink:title=" ">
<path fill="none" stroke="#63b8ff" d="M526.25,-230.8C521.42,-197.29 503.95,-76.08 497.19,-29.2"/>
<polygon fill="#63b8ff" stroke="#63b8ff" points="500.65,-28.6 495.75,-19.21 493.72,-29.6 500.65,-28.6"/>
</a>
</g>
</g>
<!-- Node15 -->
<g id="Node000015" class="node">
<title>Node15</title>
<g id="a_Node000015"><a xlink:title=" ">
<polygon fill="#e0e0e0" stroke="#999999" points="577,-195 530,-195 530,-176 577,-176 577,-195"/>
<text text-anchor="middle" x="553.5" y="-183" font-family="Helvetica,sans-Serif" font-size="10.00">vector</text>
</a>
</g>
</g>
<!-- Node2&#45;&gt;Node15 -->
<g id="edge24_Node000002_Node000015" class="edge">
<title>Node2&#45;&gt;Node15</title>
<g id="a_edge24_Node000002_Node000015"><a xlink:title=" ">
<path fill="none" stroke="#63b8ff" d="M531.79,-230.75C535.31,-223.57 540.41,-213.18 544.78,-204.27"/>
<polygon fill="#63b8ff" stroke="#63b8ff" points="548.02,-205.61 549.29,-195.09 541.74,-202.53 548.02,-205.61"/>
</a>
</g>
</g>
<!-- Node16 -->
<g id="Node000016" class="node">
<title>Node16</title>
<g id="a_Node000016"><a xlink:title=" ">
<polygon fill="#e0e0e0" stroke="#999999" points="645.5,-195 595.5,-195 595.5,-176 645.5,-176 645.5,-195"/>
<text text-anchor="middle" x="620.5" y="-183" font-family="Helvetica,sans-Serif" font-size="10.00">cstdint</text>
</a>
</g>
</g>
<!-- Node2&#45;&gt;Node16 -->
<g id="edge25_Node000002_Node000016" class="edge">
<title>Node2&#45;&gt;Node16</title>
<g id="a_edge25_Node000002_Node000016"><a xlink:title=" ">
<path fill="none" stroke="#63b8ff" d="M542.44,-230.98C557,-222.69 579.37,-209.94 596.43,-200.22"/>
<polygon fill="#63b8ff" stroke="#63b8ff" points="598.33,-203.16 605.29,-195.17 594.86,-197.08 598.33,-203.16"/>
</a>
</g>
</g>
<!-- Node4 -->
<g id="Node000004" class="node">
<title>Node4</title>
<g id="a_Node000004"><a xlink:title=" ">
<polygon fill="#e0e0e0" stroke="#999999" points="310.5,-19 266.5,-19 266.5,0 310.5,0 310.5,-19"/>
<text text-anchor="middle" x="288.5" y="-7" font-family="Helvetica,sans-Serif" font-size="10.00">string</text>
</a>
</g>
</g>
<!-- Node3&#45;&gt;Node4 -->
<g id="edge3_Node000003_Node000004" class="edge">
<title>Node3&#45;&gt;Node4</title>
<g id="a_edge3_Node000003_Node000004"><a xlink:title=" ">
<path fill="none" stroke="#63b8ff" d="M312.15,-175.98C329.08,-169.17 349.39,-157.76 359.5,-140 366.1,-128.41 363.57,-122.7 359.5,-110 348.78,-76.52 322.21,-44.71 304.79,-26.43"/>
<polygon fill="#63b8ff" stroke="#63b8ff" points="307.02,-23.71 297.52,-19.02 302.02,-28.61 307.02,-23.71"/>
</a>
</g>
</g>
<!-- Node5 -->
<g id="Node000005" class="node">
<title>Node5</title>
<g id="a_Node000005"><a xlink:title=" ">
<polygon fill="#e0e0e0" stroke="#999999" points="222.5,-74 172.5,-74 172.5,-55 222.5,-55 222.5,-74"/>
<text text-anchor="middle" x="197.5" y="-62" font-family="Helvetica,sans-Serif" font-size="10.00">chrono</text>
</a>
</g>
</g>
<!-- Node3&#45;&gt;Node5 -->
<g id="edge4_Node000003_Node000005" class="edge">
<title>Node3&#45;&gt;Node5</title>
<g id="a_edge4_Node000003_Node000005"><a xlink:title=" ">
<path fill="none" stroke="#63b8ff" d="M259.64,-175.88C243.09,-168.83 222.28,-157.19 210.5,-140 199.27,-123.62 196.77,-100.58 196.61,-84.48"/>
<polygon fill="#63b8ff" stroke="#63b8ff" points="200.11,-84.23 196.81,-74.17 193.11,-84.1 200.11,-84.23"/>
</a>
</g>
</g>
<!-- Node6 -->
<g id="Node000006" class="node">
<title>Node6</title>
<g id="a_Node000006"><a xlink:href="logger__interface_8h.html" target="_top" xlink:title=" ">
<polygon fill="white" stroke="#666666" points="473.5,-74 359.5,-74 359.5,-55 473.5,-55 473.5,-74"/>
<text text-anchor="middle" x="416.5" y="-62" font-family="Helvetica,sans-Serif" font-size="10.00">../logger_interface.h</text>
</a>
</g>
</g>
<!-- Node3&#45;&gt;Node6 -->
<g id="edge5_Node000003_Node000006" class="edge">
<title>Node3&#45;&gt;Node6</title>
<g id="a_edge5_Node000003_Node000006"><a xlink:title=" ">
<path fill="none" stroke="#63b8ff" d="M325.55,-176.48C348.1,-170.1 374.96,-158.99 392.5,-140 406.73,-124.59 412.53,-100.67 414.89,-84.11"/>
<polygon fill="#63b8ff" stroke="#63b8ff" points="418.38,-84.35 416.03,-74.02 411.43,-83.56 418.38,-84.35"/>
</a>
</g>
</g>
<!-- Node9 -->
<g id="Node000009" class="node">
<title>Node9</title>
<g id="a_Node000009"><a xlink:href="error__codes_8h.html" target="_top" xlink:title=" ">
<polygon fill="white" stroke="#666666" points="116.5,-74 24.5,-74 24.5,-55 116.5,-55 116.5,-74"/>
<text text-anchor="middle" x="70.5" y="-62" font-family="Helvetica,sans-Serif" font-size="10.00">../error_codes.h</text>
</a>
</g>
</g>
<!-- Node3&#45;&gt;Node9 -->
<g id="edge9_Node000003_Node000009" class="edge">
<title>Node3&#45;&gt;Node9</title>
<g id="a_edge9_Node000003_Node000009"><a xlink:title=" ">
<path fill="none" stroke="#63b8ff" d="M243.45,-183.56C178,-181.11 54.62,-172.22 27.5,-140 11.9,-121.47 33.32,-96.52 51.12,-80.72"/>
<polygon fill="#63b8ff" stroke="#63b8ff" points="53.51,-83.29 58.89,-74.16 48.99,-77.94 53.51,-83.29"/>
</a>
</g>
</g>
<!-- Node13 -->
<g id="Node000013" class="node">
<title>Node13</title>
<g id="a_Node000013"><a xlink:href="log__writer__interface_8h.html" target="_top" xlink:title=" ">
<polygon fill="white" stroke="#666666" points="162.5,-140 36.5,-140 36.5,-110 162.5,-110 162.5,-140"/>
<text text-anchor="start" x="44.5" y="-128" font-family="Helvetica,sans-Serif" font-size="10.00">../interfaces/log_writer</text>
<text text-anchor="middle" x="99.5" y="-117" font-family="Helvetica,sans-Serif" font-size="10.00">_interface.h</text>
</a>
</g>
</g>
<!-- Node3&#45;&gt;Node13 -->
<g id="edge14_Node000003_Node000013" class="edge">
<title>Node3&#45;&gt;Node13</title>
<g id="a_edge14_Node000003_Node000013"><a xlink:title=" ">
<path fill="none" stroke="#63b8ff" d="M257.6,-175.99C230.51,-167.43 187.96,-153.97 153.82,-143.18"/>
<polygon fill="#63b8ff" stroke="#63b8ff" points="154.57,-139.74 143.98,-140.06 152.46,-146.42 154.57,-139.74"/>
</a>
</g>
</g>
<!-- Node14 -->
<g id="Node000014" class="node">
<title>Node14</title>
<g id="a_Node000014"><a xlink:href="log__entry_8h.html" target="_top" xlink:title=" ">
<polygon fill="white" stroke="#666666" points="350,-134.5 219,-134.5 219,-115.5 350,-115.5 350,-134.5"/>
<text text-anchor="middle" x="284.5" y="-122.5" font-family="Helvetica,sans-Serif" font-size="10.00">../interfaces/log_entry.h</text>
</a>
</g>
</g>
<!-- Node3&#45;&gt;Node14 -->
<g id="edge18_Node000003_Node000014" class="edge">
<title>Node3&#45;&gt;Node14</title>
<g id="a_edge18_Node000003_Node000014"><a xlink:title=" ">
<path fill="none" stroke="#63b8ff" d="M284.5,-175.87C284.5,-167.75 284.5,-155.31 284.5,-144.89"/>
<polygon fill="#63b8ff" stroke="#63b8ff" points="288,-144.67 284.5,-134.67 281,-144.67 288,-144.67"/>
</a>
</g>
</g>
<!-- Node6&#45;&gt;Node4 -->
<g id="edge8_Node000006_Node000004" class="edge">
<title>Node6&#45;&gt;Node4</title>
<g id="a_edge8_Node000006_Node000004"><a xlink:title=" ">
<path fill="none" stroke="#63b8ff" d="M395.93,-54.98C375.07,-46.34 342.53,-32.87 318.73,-23.02"/>
<polygon fill="#63b8ff" stroke="#63b8ff" points="320.02,-19.76 309.44,-19.17 317.34,-26.23 320.02,-19.76"/>
</a>
</g>
</g>
<!-- Node6&#45;&gt;Node7 -->
<g id="edge6_Node000006_Node000007" class="edge">
<title>Node6&#45;&gt;Node7</title>
<g id="a_edge6_Node000006_Node000007"><a xlink:title=" ">
<path fill="none" stroke="#63b8ff" d="M429.03,-54.98C440.9,-46.92 458.96,-34.65 473.11,-25.03"/>
<polygon fill="#63b8ff" stroke="#63b8ff" points="475.44,-27.69 481.74,-19.17 471.5,-21.9 475.44,-27.69"/>
</a>
</g>
</g>
<!-- Node8 -->
<g id="Node000008" class="node">
<title>Node8</title>
<g id="a_Node000008"><a xlink:title=" ">
<polygon fill="#e0e0e0" stroke="#999999" points="440.5,-19 392.5,-19 392.5,0 440.5,0 440.5,-19"/>
<text text-anchor="middle" x="416.5" y="-7" font-family="Helvetica,sans-Serif" font-size="10.00">mutex</text>
</a>
</g>
</g>
<!-- Node6&#45;&gt;Node8 -->
<g id="edge7_Node000006_Node000008" class="edge">
<title>Node6&#45;&gt;Node8</title>
<g id="a_edge7_Node000006_Node000008"><a xlink:title=" ">
<path fill="none" stroke="#63b8ff" d="M416.5,-54.75C416.5,-47.8 416.5,-37.85 416.5,-29.13"/>
<polygon fill="#63b8ff" stroke="#63b8ff" points="420,-29.09 416.5,-19.09 413,-29.09 420,-29.09"/>
</a>
</g>
</g>
<!-- Node9&#45;&gt;Node4 -->
<g id="edge10_Node000009_Node000004" class="edge">
<title>Node9&#45;&gt;Node4</title>
<g id="a_edge10_Node000009_Node000004"><a xlink:title=" ">
<path fill="none" stroke="#63b8ff" d="M105.53,-54.98C147.16,-44.86 216.05,-28.11 256.36,-18.31"/>
<polygon fill="#63b8ff" stroke="#63b8ff" points="257.32,-21.68 266.21,-15.92 255.66,-14.88 257.32,-21.68"/>
</a>
</g>
</g>
<!-- Node10 -->
<g id="Node000010" class="node">
<title>Node10</title>
<g id="a_Node000010"><a xlink:title=" ">
<polygon fill="#e0e0e0" stroke="#999999" points="65,-19 0,-19 0,0 65,0 65,-19"/>
<text text-anchor="middle" x="32.5" y="-7" font-family="Helvetica,sans-Serif" font-size="10.00">stdexcept</text>
</a>
</g>
</g>
<!-- Node9&#45;&gt;Node10 -->
<g id="edge11_Node000009_Node000010" class="edge">
<title>Node9&#45;&gt;Node10</title>
<g id="a_edge11_Node000009_Node000010"><a xlink:title=" ">
<path fill="none" stroke="#63b8ff" d="M64.23,-54.75C58.91,-47.34 51.14,-36.5 44.62,-27.41"/>
<polygon fill="#63b8ff" stroke="#63b8ff" points="47.33,-25.18 38.66,-19.09 41.64,-29.26 47.33,-25.18"/>
</a>
</g>
</g>
<!-- Node11 -->
<g id="Node000011" class="node">
<title>Node11</title>
<g id="a_Node000011"><a xlink:title=" ">
<polygon fill="#e0e0e0" stroke="#999999" points="228.5,-19 172.5,-19 172.5,0 228.5,0 228.5,-19"/>
<text text-anchor="middle" x="200.5" y="-7" font-family="Helvetica,sans-Serif" font-size="10.00">optional</text>
</a>
</g>
</g>
<!-- Node9&#45;&gt;Node11 -->
<g id="edge12_Node000009_Node000011" class="edge">
<title>Node9&#45;&gt;Node11</title>
<g id="a_edge12_Node000009_Node000011"><a xlink:title=" ">
<path fill="none" stroke="#63b8ff" d="M91.39,-54.98C112.58,-46.34 145.63,-32.87 169.8,-23.02"/>
<polygon fill="#63b8ff" stroke="#63b8ff" points="171.29,-26.19 179.23,-19.17 168.65,-19.7 171.29,-26.19"/>
</a>
</g>
</g>
<!-- Node12 -->
<g id="Node000012" class="node">
<title>Node12</title>
<g id="a_Node000012"><a xlink:title=" ">
<polygon fill="#e0e0e0" stroke="#999999" points="134,-19 83,-19 83,0 134,0 134,-19"/>
<text text-anchor="middle" x="108.5" y="-7" font-family="Helvetica,sans-Serif" font-size="10.00">variant</text>
</a>
</g>
</g>
<!-- Node9&#45;&gt;Node12 -->
<g id="edge13_Node000009_Node000012" class="edge">
<title>Node9&#45;&gt;Node12</title>
<g id="a_edge13_Node000009_Node000012"><a xlink:title=" ">
<path fill="none" stroke="#63b8ff" d="M76.77,-54.75C82.09,-47.34 89.86,-36.5 96.38,-27.41"/>
<polygon fill="#63b8ff" stroke="#63b8ff" points="99.36,-29.26 102.34,-19.09 93.67,-25.18 99.36,-29.26"/>
</a>
</g>
</g>
<!-- Node13&#45;&gt;Node4 -->
<g id="edge15_Node000013_Node000004" class="edge">
<title>Node13&#45;&gt;Node4</title>
<g id="a_edge15_Node000013_Node000004"><a xlink:title=" ">
<path fill="none" stroke="#63b8ff" d="M109.27,-109.94C120.66,-94.5 140.85,-69.92 163.5,-55 192.2,-36.09 229.9,-24.11 256.37,-17.4"/>
<polygon fill="#63b8ff" stroke="#63b8ff" points="257.37,-20.76 266.27,-15.01 255.72,-13.96 257.37,-20.76"/>
</a>
</g>
</g>
<!-- Node13&#45;&gt;Node5 -->
<g id="edge16_Node000013_Node000005" class="edge">
<title>Node13&#45;&gt;Node5</title>
<g id="a_edge16_Node000013_Node000005"><a xlink:title=" ">
<path fill="none" stroke="#63b8ff" d="M123.22,-109.84C138.7,-100.6 158.82,-88.59 174.21,-79.4"/>
<polygon fill="#63b8ff" stroke="#63b8ff" points="176.31,-82.23 183.1,-74.09 172.72,-76.21 176.31,-82.23"/>
</a>
</g>
</g>
<!-- Node13&#45;&gt;Node9 -->
<g id="edge17_Node000013_Node000009" class="edge">
<title>Node13&#45;&gt;Node9</title>
<g id="a_edge17_Node000013_Node000009"><a xlink:title=" ">
<path fill="none" stroke="#63b8ff" d="M92.48,-109.84C88.53,-101.87 83.56,-91.84 79.34,-83.33"/>
<polygon fill="#63b8ff" stroke="#63b8ff" points="82.42,-81.67 74.85,-74.27 76.15,-84.78 82.42,-81.67"/>
</a>
</g>
</g>
<!-- Node14&#45;&gt;Node4 -->
<g id="edge19_Node000014_Node000004" class="edge">
<title>Node14&#45;&gt;Node4</title>
<g id="a_edge19_Node000014_Node000004"><a xlink:title=" ">
<path fill="none" stroke="#63b8ff" d="M284.8,-115.47C285.44,-97.23 286.96,-54.07 287.84,-29.14"/>
<polygon fill="#63b8ff" stroke="#63b8ff" points="291.34,-29.25 288.2,-19.13 284.35,-29 291.34,-29.25"/>
</a>
</g>
</g>
<!-- Node14&#45;&gt;Node5 -->
<g id="edge20_Node000014_Node000005" class="edge">
<title>Node14&#45;&gt;Node5</title>
<g id="a_edge20_Node000014_Node000005"><a xlink:title=" ">
<path fill="none" stroke="#63b8ff" d="M271.66,-115.37C257.78,-106.04 235.43,-91.01 218.89,-79.88"/>
<polygon fill="#63b8ff" stroke="#63b8ff" points="220.64,-76.84 210.39,-74.17 216.74,-82.65 220.64,-76.84"/>
</a>
</g>
</g>
<!-- Node14&#45;&gt;Node6 -->
<g id="edge22_Node000014_Node000006" class="edge">
<title>Node14&#45;&gt;Node6</title>
<g id="a_edge22_Node000014_Node000006"><a xlink:title=" ">
<path fill="none" stroke="#63b8ff" d="M303.69,-115.49C325.89,-105.66 362.62,-89.38 388.12,-78.08"/>
<polygon fill="#63b8ff" stroke="#63b8ff" points="389.56,-81.27 397.28,-74.02 386.72,-74.87 389.56,-81.27"/>
</a>
</g>
</g>
<!-- Node14&#45;&gt;Node11 -->
<g id="edge21_Node000014_Node000011" class="edge">
<title>Node14&#45;&gt;Node11</title>
<g id="a_edge21_Node000014_Node000011"><a xlink:title=" ">
<path fill="none" stroke="#63b8ff" d="M278.19,-115.47C264.38,-96.82 231.3,-52.11 213.07,-27.49"/>
<polygon fill="#63b8ff" stroke="#63b8ff" points="215.65,-25.09 206.89,-19.13 210.02,-29.25 215.65,-25.09"/>
</a>
</g>
</g>
</g>
</svg>
