<?xml version="1.0" encoding="UTF-8" standalone="no"?>
<!DOCTYPE svg PUBLIC "-//W3C//DTD SVG 1.1//EN"
 "http://www.w3.org/Graphics/SVG/1.1/DTD/svg11.dtd">
<!-- Generated by graphviz version 2.43.0 (0)
 -->
<!-- Title: encrypted_writer.h Pages: 1 -->
<svg width="818pt" height="258pt"
 viewBox="0.00 0.00 817.50 258.00" xmlns="http://www.w3.org/2000/svg" xmlns:xlink="http://www.w3.org/1999/xlink">
<g id="graph0" class="graph" transform="scale(1 1) rotate(0) translate(4 254)">
<title>encrypted_writer.h</title>
<!-- Node1 -->
<g id="Node000001" class="node">
<title>Node1</title>
<g id="a_Node000001"><a xlink:title=" ">
<polygon fill="#999999" stroke="#666666" points="745,-250 638,-250 638,-231 745,-231 745,-250"/>
<text text-anchor="middle" x="691.5" y="-238" font-family="Helvetica,sans-Serif" font-size="10.00">encrypted_writer.h</text>
</a>
</g>
</g>
<!-- Node2 -->
<g id="Node000002" class="node">
<title>Node2</title>
<g id="a_Node000002"><a xlink:href="base__writer_8h.html" target="_top" xlink:title=" ">
<polygon fill="white" stroke="#666666" points="362.5,-195 280.5,-195 280.5,-176 362.5,-176 362.5,-195"/>
<text text-anchor="middle" x="321.5" y="-183" font-family="Helvetica,sans-Serif" font-size="10.00">base_writer.h</text>
</a>
</g>
</g>
<!-- Node1&#45;&gt;Node2 -->
<g id="edge1_Node000001_Node000002" class="edge">
<title>Node1&#45;&gt;Node2</title>
<g id="a_edge1_Node000001_Node000002"><a xlink:title=" ">
<path fill="none" stroke="#63b8ff" d="M637.7,-231.79C566.69,-221.62 442.53,-203.84 372.8,-193.85"/>
<polygon fill="#63b8ff" stroke="#63b8ff" points="372.9,-190.33 362.5,-192.37 371.9,-197.26 372.9,-190.33"/>
</a>
</g>
</g>
<!-- Node6 -->
<g id="Node000006" class="node">
<title>Node6</title>
<g id="a_Node000006"><a xlink:title=" ">
<polygon fill="#e0e0e0" stroke="#999999" points="652.5,-19 594.5,-19 594.5,0 652.5,0 652.5,-19"/>
<text text-anchor="middle" x="623.5" y="-7" font-family="Helvetica,sans-Serif" font-size="10.00">memory</text>
</a>
</g>
</g>
<!-- Node1&#45;&gt;Node6 -->
<g id="edge30_Node000001_Node000006" class="edge">
<title>Node1&#45;&gt;Node6</title>
<g id="a_edge30_Node000001_Node000006"><a xlink:title=" ">
<path fill="none" stroke="#63b8ff" d="M690.14,-230.82C685.78,-204.03 671,-120.46 646.5,-55 643.03,-45.74 638.11,-35.92 633.7,-27.87"/>
<polygon fill="#63b8ff" stroke="#63b8ff" points="636.7,-26.06 628.72,-19.08 630.61,-29.51 636.7,-26.06"/>
</a>
</g>
</g>
<!-- Node19 -->
<g id="Node000019" class="node">
<title>Node19</title>
<g id="a_Node000019"><a xlink:title=" ">
<polygon fill="#e0e0e0" stroke="#999999" points="741,-195 694,-195 694,-176 741,-176 741,-195"/>
<text text-anchor="middle" x="717.5" y="-183" font-family="Helvetica,sans-Serif" font-size="10.00">vector</text>
</a>
</g>
</g>
<!-- Node1&#45;&gt;Node19 -->
<g id="edge31_Node000001_Node000019" class="edge">
<title>Node1&#45;&gt;Node19</title>
<g id="a_edge31_Node000001_Node000019"><a xlink:title=" ">
<path fill="none" stroke="#63b8ff" d="M695.79,-230.75C699.31,-223.57 704.41,-213.18 708.78,-204.27"/>
<polygon fill="#63b8ff" stroke="#63b8ff" points="712.02,-205.61 713.29,-195.09 705.74,-202.53 712.02,-205.61"/>
</a>
</g>
</g>
<!-- Node20 -->
<g id="Node000020" class="node">
<title>Node20</title>
<g id="a_Node000020"><a xlink:title=" ">
<polygon fill="#e0e0e0" stroke="#999999" points="809.5,-195 759.5,-195 759.5,-176 809.5,-176 809.5,-195"/>
<text text-anchor="middle" x="784.5" y="-183" font-family="Helvetica,sans-Serif" font-size="10.00">cstdint</text>
</a>
</g>
</g>
<!-- Node1&#45;&gt;Node20 -->
<g id="edge32_Node000001_Node000020" class="edge">
<title>Node1&#45;&gt;Node20</title>
<g id="a_edge32_Node000001_Node000020"><a xlink:title=" ">
<path fill="none" stroke="#63b8ff" d="M706.44,-230.98C721,-222.69 743.37,-209.94 760.43,-200.22"/>
<polygon fill="#63b8ff" stroke="#63b8ff" points="762.33,-203.16 769.29,-195.17 758.86,-197.08 762.33,-203.16"/>
</a>
</g>
</g>
<!-- Node3 -->
<g id="Node000003" class="node">
<title>Node3</title>
<g id="a_Node000003"><a xlink:title=" ">
<polygon fill="#e0e0e0" stroke="#999999" points="334.5,-19 290.5,-19 290.5,0 334.5,0 334.5,-19"/>
<text text-anchor="middle" x="312.5" y="-7" font-family="Helvetica,sans-Serif" font-size="10.00">string</text>
</a>
</g>
</g>
<!-- Node2&#45;&gt;Node3 -->
<g id="edge2_Node000002_Node000003" class="edge">
<title>Node2&#45;&gt;Node3</title>
<g id="a_edge2_Node000002_Node000003"><a xlink:title=" ">
<path fill="none" stroke="#63b8ff" d="M349.15,-175.98C366.08,-169.17 386.39,-157.76 396.5,-140 403.1,-128.41 401.08,-122.52 396.5,-110 383.6,-74.73 352.08,-43.34 331.53,-25.64"/>
<polygon fill="#63b8ff" stroke="#63b8ff" points="333.65,-22.86 323.73,-19.13 329.16,-28.23 333.65,-22.86"/>
</a>
</g>
</g>
<!-- Node4 -->
<g id="Node000004" class="node">
<title>Node4</title>
<g id="a_Node000004"><a xlink:title=" ">
<polygon fill="#e0e0e0" stroke="#999999" points="253.5,-74 203.5,-74 203.5,-55 253.5,-55 253.5,-74"/>
<text text-anchor="middle" x="228.5" y="-62" font-family="Helvetica,sans-Serif" font-size="10.00">chrono</text>
</a>
</g>
</g>
<!-- Node2&#45;&gt;Node4 -->
<g id="edge3_Node000002_Node000004" class="edge">
<title>Node2&#45;&gt;Node4</title>
<g id="a_edge3_Node000002_Node000004"><a xlink:title=" ">
<path fill="none" stroke="#63b8ff" d="M297.75,-175.9C281.28,-168.74 260.12,-156.96 247.5,-140 235.45,-123.8 231.01,-100.73 229.39,-84.57"/>
<polygon fill="#63b8ff" stroke="#63b8ff" points="232.85,-83.94 228.64,-74.21 225.87,-84.44 232.85,-83.94"/>
</a>
</g>
</g>
<!-- Node5 -->
<g id="Node000005" class="node">
<title>Node5</title>
<g id="a_Node000005"><a xlink:href="logger__interface_8h.html" target="_top" xlink:title=" ">
<polygon fill="white" stroke="#666666" points="637.5,-74 523.5,-74 523.5,-55 637.5,-55 637.5,-74"/>
<text text-anchor="middle" x="580.5" y="-62" font-family="Helvetica,sans-Serif" font-size="10.00">../logger_interface.h</text>
</a>
</g>
</g>
<!-- Node2&#45;&gt;Node5 -->
<g id="edge4_Node000002_Node000005" class="edge">
<title>Node2&#45;&gt;Node5</title>
<g id="a_edge4_Node000002_Node000005"><a xlink:title=" ">
<path fill="none" stroke="#63b8ff" d="M343.61,-175.9C365.57,-167.23 400.12,-153.28 429.5,-140 474.21,-119.79 525.2,-94.06 555.01,-78.73"/>
<polygon fill="#63b8ff" stroke="#63b8ff" points="556.63,-81.83 563.92,-74.14 553.43,-75.61 556.63,-81.83"/>
</a>
</g>
</g>
<!-- Node8 -->
<g id="Node000008" class="node">
<title>Node8</title>
<g id="a_Node000008"><a xlink:href="error__codes_8h.html" target="_top" xlink:title=" ">
<polygon fill="white" stroke="#666666" points="147.5,-74 55.5,-74 55.5,-55 147.5,-55 147.5,-74"/>
<text text-anchor="middle" x="101.5" y="-62" font-family="Helvetica,sans-Serif" font-size="10.00">../error_codes.h</text>
</a>
</g>
</g>
<!-- Node2&#45;&gt;Node8 -->
<g id="edge8_Node000002_Node000008" class="edge">
<title>Node2&#45;&gt;Node8</title>
<g id="a_edge8_Node000002_Node000008"><a xlink:title=" ">
<path fill="none" stroke="#63b8ff" d="M280.45,-183.56C215,-181.11 91.62,-172.22 64.5,-140 49.48,-122.15 68.15,-97.16 83.98,-81.15"/>
<polygon fill="#63b8ff" stroke="#63b8ff" points="86.55,-83.52 91.35,-74.08 81.71,-78.47 86.55,-83.52"/>
</a>
</g>
</g>
<!-- Node13 -->
<g id="Node000013" class="node">
<title>Node13</title>
<g id="a_Node000013"><a xlink:href="log__writer__interface_8h.html" target="_top" xlink:title=" ">
<polygon fill="white" stroke="#666666" points="199.5,-140 73.5,-140 73.5,-110 199.5,-110 199.5,-140"/>
<text text-anchor="start" x="81.5" y="-128" font-family="Helvetica,sans-Serif" font-size="10.00">../interfaces/log_writer</text>
<text text-anchor="middle" x="136.5" y="-117" font-family="Helvetica,sans-Serif" font-size="10.00">_interface.h</text>
</a>
</g>
</g>
<!-- Node2&#45;&gt;Node13 -->
<g id="edge14_Node000002_Node000013" class="edge">
<title>Node2&#45;&gt;Node13</title>
<g id="a_edge14_Node000002_Node000013"><a xlink:title=" ">
<path fill="none" stroke="#63b8ff" d="M294.6,-175.99C267.51,-167.43 224.96,-153.97 190.82,-143.18"/>
<polygon fill="#63b8ff" stroke="#63b8ff" points="191.57,-139.74 180.98,-140.06 189.46,-146.42 191.57,-139.74"/>
</a>
</g>
</g>
<!-- Node14 -->
<g id="Node000014" class="node">
<title>Node14</title>
<g id="a_Node000014"><a xlink:href="log__entry_8h.html" target="_top" xlink:title=" ">
<polygon fill="white" stroke="#666666" points="387,-134.5 256,-134.5 256,-115.5 387,-115.5 387,-134.5"/>
<text text-anchor="middle" x="321.5" y="-122.5" font-family="Helvetica,sans-Serif" font-size="10.00">../interfaces/log_entry.h</text>
</a>
</g>
</g>
<!-- Node2&#45;&gt;Node14 -->
<g id="edge18_Node000002_Node000014" class="edge">
<title>Node2&#45;&gt;Node14</title>
<g id="a_edge18_Node000002_Node000014"><a xlink:title=" ">
<path fill="none" stroke="#63b8ff" d="M321.5,-175.87C321.5,-167.75 321.5,-155.31 321.5,-144.89"/>
<polygon fill="#63b8ff" stroke="#63b8ff" points="325,-144.67 321.5,-134.67 318,-144.67 325,-144.67"/>
</a>
</g>
</g>
<!-- Node5&#45;&gt;Node3 -->
<g id="edge7_Node000005_Node000003" class="edge">
<title>Node5&#45;&gt;Node3</title>
<g id="a_edge7_Node000005_Node000003"><a xlink:title=" ">
<path fill="none" stroke="#63b8ff" d="M529.18,-54.94C483.37,-47.05 414.28,-34.53 344.65,-18.88"/>
<polygon fill="#63b8ff" stroke="#63b8ff" points="345.35,-15.45 334.83,-16.65 343.81,-22.28 345.35,-15.45"/>
</a>
</g>
</g>
<!-- Node5&#45;&gt;Node6 -->
<g id="edge5_Node000005_Node000006" class="edge">
<title>Node5&#45;&gt;Node6</title>
<g id="a_edge5_Node000005_Node000006"><a xlink:title=" ">
<path fill="none" stroke="#63b8ff" d="M587.6,-54.75C593.67,-47.26 602.59,-36.28 610.01,-27.13"/>
<polygon fill="#63b8ff" stroke="#63b8ff" points="612.95,-29.06 616.53,-19.09 607.51,-24.65 612.95,-29.06"/>
</a>
</g>
</g>
<!-- Node7 -->
<g id="Node000007" class="node">
<title>Node7</title>
<g id="a_Node000007"><a xlink:title=" ">
<polygon fill="#e0e0e0" stroke="#999999" points="718.5,-19 670.5,-19 670.5,0 718.5,0 718.5,-19"/>
<text text-anchor="middle" x="694.5" y="-7" font-family="Helvetica,sans-Serif" font-size="10.00">mutex</text>
</a>
</g>
</g>
<!-- Node5&#45;&gt;Node7 -->
<g id="edge6_Node000005_Node000007" class="edge">
<title>Node5&#45;&gt;Node7</title>
<g id="a_edge6_Node000005_Node000007"><a xlink:title=" ">
<path fill="none" stroke="#63b8ff" d="M598.82,-54.98C617.16,-46.46 645.61,-33.23 666.73,-23.41"/>
<polygon fill="#63b8ff" stroke="#63b8ff" points="668.26,-26.56 675.85,-19.17 665.31,-20.21 668.26,-26.56"/>
</a>
</g>
</g>
<!-- Node8&#45;&gt;Node3 -->
<g id="edge9_Node000008_Node000003" class="edge">
<title>Node8&#45;&gt;Node3</title>
<g id="a_edge9_Node000008_Node000003"><a xlink:title=" ">
<path fill="none" stroke="#63b8ff" d="M137.09,-54.98C171.39,-46.71 225,-33.62 280.21,-19.29"/>
<polygon fill="#63b8ff" stroke="#63b8ff" points="281.37,-22.6 290.17,-16.7 279.61,-15.83 281.37,-22.6"/>
</a>
</g>
</g>
<!-- Node9 -->
<g id="Node000009" class="node">
<title>Node9</title>
<g id="a_Node000009"><a xlink:title=" ">
<polygon fill="#e0e0e0" stroke="#999999" points="134,-19 69,-19 69,0 134,0 134,-19"/>
<text text-anchor="middle" x="101.5" y="-7" font-family="Helvetica,sans-Serif" font-size="10.00">stdexcept</text>
</a>
</g>
</g>
<!-- Node8&#45;&gt;Node9 -->
<g id="edge10_Node000008_Node000009" class="edge">
<title>Node8&#45;&gt;Node9</title>
<g id="a_edge10_Node000008_Node000009"><a xlink:title=" ">
<path fill="none" stroke="#63b8ff" d="M101.5,-54.75C101.5,-47.8 101.5,-37.85 101.5,-29.13"/>
<polygon fill="#63b8ff" stroke="#63b8ff" points="105,-29.09 101.5,-19.09 98,-29.09 105,-29.09"/>
</a>
</g>
</g>
<!-- Node10 -->
<g id="Node000010" class="node">
<title>Node10</title>
<g id="a_Node000010"><a xlink:title=" ">
<polygon fill="#e0e0e0" stroke="#999999" points="272,-19 227,-19 227,0 272,0 272,-19"/>
<text text-anchor="middle" x="249.5" y="-7" font-family="Helvetica,sans-Serif" font-size="10.00">utility</text>
</a>
</g>
</g>
<!-- Node8&#45;&gt;Node10 -->
<g id="edge11_Node000008_Node000010" class="edge">
<title>Node8&#45;&gt;Node10</title>
<g id="a_edge11_Node000008_Node000010"><a xlink:title=" ">
<path fill="none" stroke="#63b8ff" d="M125.28,-54.98C150.17,-46.07 189.41,-32.02 217.11,-22.1"/>
<polygon fill="#63b8ff" stroke="#63b8ff" points="218.52,-25.31 226.75,-18.65 216.16,-18.72 218.52,-25.31"/>
</a>
</g>
</g>
<!-- Node11 -->
<g id="Node000011" class="node">
<title>Node11</title>
<g id="a_Node000011"><a xlink:title=" ">
<polygon fill="#e0e0e0" stroke="#999999" points="208.5,-19 152.5,-19 152.5,0 208.5,0 208.5,-19"/>
<text text-anchor="middle" x="180.5" y="-7" font-family="Helvetica,sans-Serif" font-size="10.00">optional</text>
</a>
</g>
</g>
<!-- Node8&#45;&gt;Node11 -->
<g id="edge12_Node000008_Node000011" class="edge">
<title>Node8&#45;&gt;Node11</title>
<g id="a_edge12_Node000008_Node000011"><a xlink:title=" ">
<path fill="none" stroke="#63b8ff" d="M114.19,-54.98C126.33,-46.84 144.86,-34.41 159.25,-24.76"/>
<polygon fill="#63b8ff" stroke="#63b8ff" points="161.22,-27.65 167.58,-19.17 157.32,-21.84 161.22,-27.65"/>
</a>
</g>
</g>
<!-- Node12 -->
<g id="Node000012" class="node">
<title>Node12</title>
<g id="a_Node000012"><a xlink:title=" ">
<polygon fill="#e0e0e0" stroke="#999999" points="51,-19 0,-19 0,0 51,0 51,-19"/>
<text text-anchor="middle" x="25.5" y="-7" font-family="Helvetica,sans-Serif" font-size="10.00">variant</text>
</a>
</g>
</g>
<!-- Node8&#45;&gt;Node12 -->
<g id="edge13_Node000008_Node000012" class="edge">
<title>Node8&#45;&gt;Node12</title>
<g id="a_edge13_Node000008_Node000012"><a xlink:title=" ">
<path fill="none" stroke="#63b8ff" d="M89.29,-54.98C77.72,-46.92 60.12,-34.65 46.34,-25.03"/>
<polygon fill="#63b8ff" stroke="#63b8ff" points="48.14,-22.02 37.93,-19.17 44.13,-27.76 48.14,-22.02"/>
</a>
</g>
</g>
<!-- Node13&#45;&gt;Node3 -->
<g id="edge15_Node000013_Node000003" class="edge">
<title>Node13&#45;&gt;Node3</title>
<g id="a_edge15_Node000013_Node000003"><a xlink:title=" ">
<path fill="none" stroke="#63b8ff" d="M145.1,-109.98C155.21,-94.57 173.3,-70.01 194.5,-55 208.71,-44.94 250.8,-30.21 280.65,-20.49"/>
<polygon fill="#63b8ff" stroke="#63b8ff" points="281.8,-23.79 290.24,-17.4 279.65,-17.13 281.8,-23.79"/>
</a>
</g>
</g>
<!-- Node13&#45;&gt;Node4 -->
<g id="edge16_Node000013_Node000004" class="edge">
<title>Node13&#45;&gt;Node4</title>
<g id="a_edge16_Node000013_Node000004"><a xlink:title=" ">
<path fill="none" stroke="#63b8ff" d="M158.77,-109.84C173.17,-100.68 191.83,-88.82 206.23,-79.66"/>
<polygon fill="#63b8ff" stroke="#63b8ff" points="208.42,-82.41 214.98,-74.09 204.67,-76.51 208.42,-82.41"/>
</a>
</g>
</g>
<!-- Node13&#45;&gt;Node8 -->
<g id="edge17_Node000013_Node000008" class="edge">
<title>Node13&#45;&gt;Node8</title>
<g id="a_edge17_Node000013_Node000008"><a xlink:title=" ">
<path fill="none" stroke="#63b8ff" d="M128.03,-109.84C123.21,-101.78 117.13,-91.62 112,-83.06"/>
<polygon fill="#63b8ff" stroke="#63b8ff" points="114.88,-81.05 106.74,-74.27 108.88,-84.64 114.88,-81.05"/>
</a>
</g>
</g>
<!-- Node14&#45;&gt;Node3 -->
<g id="edge19_Node000014_Node000003" class="edge">
<title>Node14&#45;&gt;Node3</title>
<g id="a_edge19_Node000014_Node000003"><a xlink:title=" ">
<path fill="none" stroke="#63b8ff" d="M320.82,-115.47C319.38,-97.23 315.95,-54.07 313.98,-29.14"/>
<polygon fill="#63b8ff" stroke="#63b8ff" points="317.46,-28.82 313.18,-19.13 310.49,-29.38 317.46,-28.82"/>
</a>
</g>
</g>
<!-- Node14&#45;&gt;Node4 -->
<g id="edge20_Node000014_Node000004" class="edge">
<title>Node14&#45;&gt;Node4</title>
<g id="a_edge20_Node000014_Node000004"><a xlink:title=" ">
<path fill="none" stroke="#63b8ff" d="M307.78,-115.37C292.8,-105.95 268.61,-90.73 250.88,-79.58"/>
<polygon fill="#63b8ff" stroke="#63b8ff" points="252.61,-76.53 242.28,-74.17 248.88,-82.45 252.61,-76.53"/>
</a>
</g>
</g>
<!-- Node14&#45;&gt;Node5 -->
<g id="edge29_Node000014_Node000005" class="edge">
<title>Node14&#45;&gt;Node5</title>
<g id="a_edge29_Node000014_Node000005"><a xlink:title=" ">
<path fill="none" stroke="#63b8ff" d="M359.16,-115.49C405.1,-105.12 482.81,-87.57 532.86,-76.26"/>
<polygon fill="#63b8ff" stroke="#63b8ff" points="533.81,-79.63 542.79,-74.02 532.27,-72.81 533.81,-79.63"/>
</a>
</g>
</g>
<!-- Node14&#45;&gt;Node11 -->
<g id="edge21_Node000014_Node000011" class="edge">
<title>Node14&#45;&gt;Node11</title>
<g id="a_edge21_Node000014_Node000011"><a xlink:title=" ">
<path fill="none" stroke="#63b8ff" d="M315.79,-115.48C306.11,-101.51 285.29,-73.44 262.5,-55 246.61,-42.14 226.45,-31.14 210.1,-23.3"/>
<polygon fill="#63b8ff" stroke="#63b8ff" points="211.52,-20.1 200.97,-19.05 208.56,-26.44 211.52,-20.1"/>
</a>
</g>
</g>
<!-- Node15 -->
<g id="Node000015" class="node">
<title>Node15</title>
<g id="a_Node000015"><a xlink:href="small__string_8h.html" target="_top" xlink:title=" ">
<polygon fill="white" stroke="#666666" points="505,-74 386,-74 386,-55 505,-55 505,-74"/>
<text text-anchor="middle" x="445.5" y="-62" font-family="Helvetica,sans-Serif" font-size="10.00">../core/small_string.h</text>
</a>
</g>
</g>
<!-- Node14&#45;&gt;Node15 -->
<g id="edge22_Node000014_Node000015" class="edge">
<title>Node14&#45;&gt;Node15</title>
<g id="a_edge22_Node000014_Node000015"><a xlink:title=" ">
<path fill="none" stroke="#63b8ff" d="M339.53,-115.49C360.19,-105.75 394.28,-89.66 418.2,-78.38"/>
<polygon fill="#63b8ff" stroke="#63b8ff" points="419.9,-81.45 427.45,-74.02 416.91,-75.12 419.9,-81.45"/>
</a>
</g>
</g>
<!-- Node15&#45;&gt;Node3 -->
<g id="edge24_Node000015_Node000003" class="edge">
<title>Node15&#45;&gt;Node3</title>
<g id="a_edge24_Node000015_Node000003"><a xlink:title=" ">
<path fill="none" stroke="#63b8ff" d="M424.13,-54.98C402.35,-46.3 368.34,-32.75 343.58,-22.88"/>
<polygon fill="#63b8ff" stroke="#63b8ff" points="344.84,-19.62 334.26,-19.17 342.25,-26.12 344.84,-19.62"/>
</a>
</g>
</g>
<!-- Node15&#45;&gt;Node6 -->
<g id="edge27_Node000015_Node000006" class="edge">
<title>Node15&#45;&gt;Node6</title>
<g id="a_edge27_Node000015_Node000006"><a xlink:title=" ">
<path fill="none" stroke="#63b8ff" d="M474.1,-54.98C504.11,-46.05 551.48,-31.94 584.82,-22.02"/>
<polygon fill="#63b8ff" stroke="#63b8ff" points="586.09,-25.29 594.68,-19.08 584.09,-18.58 586.09,-25.29"/>
</a>
</g>
</g>
<!-- Node15&#45;&gt;Node10 -->
<g id="edge28_Node000015_Node000010" class="edge">
<title>Node15&#45;&gt;Node10</title>
<g id="a_edge28_Node000015_Node000010"><a xlink:title=" ">
<path fill="none" stroke="#63b8ff" d="M414.01,-54.98C377.71,-45.17 318.35,-29.12 281.74,-19.22"/>
<polygon fill="#63b8ff" stroke="#63b8ff" points="282.62,-15.83 272.05,-16.6 280.79,-22.59 282.62,-15.83"/>
</a>
</g>
</g>
<!-- Node16 -->
<g id="Node000016" class="node">
<title>Node16</title>
<g id="a_Node000016"><a xlink:title=" ">
<polygon fill="#e0e0e0" stroke="#999999" points="576.5,-19 526.5,-19 526.5,0 576.5,0 576.5,-19"/>
<text text-anchor="middle" x="551.5" y="-7" font-family="Helvetica,sans-Serif" font-size="10.00">cstring</text>
</a>
</g>
</g>
<!-- Node15&#45;&gt;Node16 -->
<g id="edge23_Node000015_Node000016" class="edge">
<title>Node15&#45;&gt;Node16</title>
<g id="a_edge23_Node000015_Node000016"><a xlink:title=" ">
<path fill="none" stroke="#63b8ff" d="M462.53,-54.98C479.43,-46.54 505.56,-33.47 525.14,-23.68"/>
<polygon fill="#63b8ff" stroke="#63b8ff" points="526.78,-26.77 534.16,-19.17 523.65,-20.51 526.78,-26.77"/>
</a>
</g>
</g>
<!-- Node17 -->
<g id="Node000017" class="node">
<title>Node17</title>
<g id="a_Node000017"><a xlink:title=" ">
<polygon fill="#e0e0e0" stroke="#999999" points="426,-19 353,-19 353,0 426,0 426,-19"/>
<text text-anchor="middle" x="389.5" y="-7" font-family="Helvetica,sans-Serif" font-size="10.00">string_view</text>
</a>
</g>
</g>
<!-- Node15&#45;&gt;Node17 -->
<g id="edge25_Node000015_Node000017" class="edge">
<title>Node15&#45;&gt;Node17</title>
<g id="a_edge25_Node000015_Node000017"><a xlink:title=" ">
<path fill="none" stroke="#63b8ff" d="M436.5,-54.98C428.31,-47.23 415.99,-35.58 406.03,-26.14"/>
<polygon fill="#63b8ff" stroke="#63b8ff" points="408.33,-23.5 398.66,-19.17 403.52,-28.59 408.33,-23.5"/>
</a>
</g>
</g>
<!-- Node18 -->
<g id="Node000018" class="node">
<title>Node18</title>
<g id="a_Node000018"><a xlink:title=" ">
<polygon fill="#e0e0e0" stroke="#999999" points="508.5,-19 444.5,-19 444.5,0 508.5,0 508.5,-19"/>
<text text-anchor="middle" x="476.5" y="-7" font-family="Helvetica,sans-Serif" font-size="10.00">algorithm</text>
</a>
</g>
</g>
<!-- Node15&#45;&gt;Node18 -->
<g id="edge26_Node000015_Node000018" class="edge">
<title>Node15&#45;&gt;Node18</title>
<g id="a_edge26_Node000015_Node000018"><a xlink:title=" ">
<path fill="none" stroke="#63b8ff" d="M450.62,-54.75C454.86,-47.49 461.03,-36.95 466.28,-27.98"/>
<polygon fill="#63b8ff" stroke="#63b8ff" points="469.45,-29.49 471.48,-19.09 463.41,-25.95 469.45,-29.49"/>
</a>
</g>
</g>
</g>
</svg>
