<?xml version="1.0" encoding="UTF-8" standalone="no"?>
<!DOCTYPE svg PUBLIC "-//W3C//DTD SVG 1.1//EN"
 "http://www.w3.org/Graphics/SVG/1.1/DTD/svg11.dtd">
<!-- Generated by graphviz version 2.43.0 (0)
 -->
<!-- Title: error_codes.h Pages: 1 -->
<svg width="1962pt" height="368pt"
 viewBox="0.00 0.00 1962.00 368.00" xmlns="http://www.w3.org/2000/svg" xmlns:xlink="http://www.w3.org/1999/xlink">
<g id="graph0" class="graph" transform="scale(1 1) rotate(0) translate(4 364)">
<title>error_codes.h</title>
<!-- Node1 -->
<g id="Node000001" class="node">
<title>Node1</title>
<g id="a_Node000001"><a xlink:title=" ">
<polygon fill="#999999" stroke="#666666" points="1488.5,-360 1405.5,-360 1405.5,-341 1488.5,-341 1488.5,-360"/>
<text text-anchor="middle" x="1447" y="-348" font-family="Helvetica,sans-Serif" font-size="10.00">error_codes.h</text>
</a>
</g>
</g>
<!-- Node2 -->
<g id="Node000002" class="node">
<title>Node2</title>
<g id="a_Node000002"><a xlink:href="base__writer_8h.html" target="_top" xlink:title=" ">
<polygon fill="white" stroke="#666666" points="576,-250 494,-250 494,-231 576,-231 576,-250"/>
<text text-anchor="middle" x="535" y="-238" font-family="Helvetica,sans-Serif" font-size="10.00">base_writer.h</text>
</a>
</g>
</g>
<!-- Node1&#45;&gt;Node2 -->
<g id="edge1_Node000001_Node000002" class="edge">
<title>Node1&#45;&gt;Node2</title>
<g id="a_edge1_Node000001_Node000002"><a xlink:title=" ">
<path fill="none" stroke="#63b8ff" d="M1395.01,-347.88C1290.54,-344.14 1047.89,-332.97 846,-305 744.74,-290.97 626.94,-263.93 569.73,-250.1"/>
<polygon fill="#63b8ff" stroke="#63b8ff" points="1395.16,-351.39 1405.28,-348.24 1395.4,-344.39 1395.16,-351.39"/>
</a>
</g>
</g>
<!-- Node18 -->
<g id="Node000018" class="node">
<title>Node18</title>
<g id="a_Node000018"><a xlink:href="config__strategy__interface_8h.html" target="_top" xlink:title=" ">
<polygon fill="white" stroke="#666666" points="1720.5,-250 1571.5,-250 1571.5,-231 1720.5,-231 1720.5,-250"/>
<text text-anchor="middle" x="1646" y="-238" font-family="Helvetica,sans-Serif" font-size="10.00">config_strategy_interface.h</text>
</a>
</g>
</g>
<!-- Node1&#45;&gt;Node18 -->
<g id="edge18_Node000001_Node000018" class="edge">
<title>Node1&#45;&gt;Node18</title>
<g id="a_edge18_Node000001_Node000018"><a xlink:title=" ">
<path fill="none" stroke="#63b8ff" d="M1480.77,-337.33C1502.01,-329.19 1529.69,-317.68 1553,-305 1584.26,-287.99 1618.07,-263.07 1635.01,-250.09"/>
<polygon fill="#63b8ff" stroke="#63b8ff" points="1479.34,-334.13 1471.22,-340.93 1481.81,-340.68 1479.34,-334.13"/>
</a>
</g>
</g>
<!-- Node19 -->
<g id="Node000019" class="node">
<title>Node19</title>
<g id="a_Node000019"><a xlink:href="di__container__interface_8h.html" target="_top" xlink:title="Abstract interface for dependency injection container.">
<polygon fill="white" stroke="#666666" points="1234,-250 1100,-250 1100,-231 1234,-231 1234,-250"/>
<text text-anchor="middle" x="1167" y="-238" font-family="Helvetica,sans-Serif" font-size="10.00">di_container_interface.h</text>
</a>
</g>
</g>
<!-- Node1&#45;&gt;Node19 -->
<g id="edge20_Node000001_Node000019" class="edge">
<title>Node1&#45;&gt;Node19</title>
<g id="a_edge20_Node000001_Node000019"><a xlink:title=" ">
<path fill="none" stroke="#63b8ff" d="M1405.61,-338.19C1376.79,-329.94 1337.64,-317.96 1304,-305 1259.48,-287.84 1209.02,-262.99 1183.56,-250.05"/>
<polygon fill="#63b8ff" stroke="#63b8ff" points="1404.77,-341.59 1415.35,-340.95 1406.68,-334.86 1404.77,-341.59"/>
</a>
</g>
</g>
<!-- Node21 -->
<g id="Node000021" class="node">
<title>Node21</title>
<g id="a_Node000021"><a xlink:href="logger_8h.html" target="_top" xlink:title=" ">
<polygon fill="white" stroke="#666666" points="1346,-74 1290,-74 1290,-55 1346,-55 1346,-74"/>
<text text-anchor="middle" x="1318" y="-62" font-family="Helvetica,sans-Serif" font-size="10.00">logger.h</text>
</a>
</g>
</g>
<!-- Node1&#45;&gt;Node21 -->
<g id="edge35_Node000001_Node000021" class="edge">
<title>Node1&#45;&gt;Node21</title>
<g id="a_edge35_Node000001_Node000021"><a xlink:title=" ">
<path fill="none" stroke="#63b8ff" d="M1465.65,-333.64C1499.9,-302.48 1567.2,-230.58 1543,-165 1514.31,-87.26 1399.89,-70.21 1346.15,-66.5"/>
<polygon fill="#63b8ff" stroke="#63b8ff" points="1462.89,-331.41 1457.73,-340.66 1467.53,-336.65 1462.89,-331.41"/>
</a>
</g>
</g>
<!-- Node24 -->
<g id="Node000024" class="node">
<title>Node24</title>
<g id="a_Node000024"><a xlink:href="health__check__system_8h.html" target="_top" xlink:title=" ">
<polygon fill="white" stroke="#666666" points="1081.5,-250 950.5,-250 950.5,-231 1081.5,-231 1081.5,-250"/>
<text text-anchor="middle" x="1016" y="-238" font-family="Helvetica,sans-Serif" font-size="10.00">health_check_system.h</text>
</a>
</g>
</g>
<!-- Node1&#45;&gt;Node24 -->
<g id="edge30_Node000001_Node000024" class="edge">
<title>Node1&#45;&gt;Node24</title>
<g id="a_edge30_Node000001_Node000024"><a xlink:title=" ">
<path fill="none" stroke="#63b8ff" d="M1399.18,-338.68C1360.71,-329.89 1305.29,-317.01 1257,-305 1181.63,-286.25 1093.47,-262.57 1047.51,-250.1"/>
<polygon fill="#63b8ff" stroke="#63b8ff" points="1398.55,-342.13 1409.07,-340.94 1400.1,-335.3 1398.55,-342.13"/>
</a>
</g>
</g>
<!-- Node25 -->
<g id="Node000025" class="node">
<title>Node25</title>
<g id="a_Node000025"><a xlink:href="log__sink__interface_8h.html" target="_top" xlink:title=" ">
<polygon fill="white" stroke="#666666" points="1829.5,-305 1714.5,-305 1714.5,-286 1829.5,-286 1829.5,-305"/>
<text text-anchor="middle" x="1772" y="-293" font-family="Helvetica,sans-Serif" font-size="10.00">log_sink_interface.h</text>
</a>
</g>
</g>
<!-- Node1&#45;&gt;Node25 -->
<g id="edge32_Node000001_Node000025" class="edge">
<title>Node1&#45;&gt;Node25</title>
<g id="a_edge32_Node000001_Node000025"><a xlink:title=" ">
<path fill="none" stroke="#63b8ff" d="M1498.93,-341.03C1559.54,-331.15 1659.18,-314.9 1719.87,-305"/>
<polygon fill="#63b8ff" stroke="#63b8ff" points="1498.13,-337.62 1488.82,-342.68 1499.26,-344.52 1498.13,-337.62"/>
</a>
</g>
</g>
<!-- Node26 -->
<g id="Node000026" class="node">
<title>Node26</title>
<g id="a_Node000026"><a xlink:href="log__writer__interface_8h.html" target="_top" xlink:title=" ">
<polygon fill="white" stroke="#666666" points="978.5,-305 855.5,-305 855.5,-286 978.5,-286 978.5,-305"/>
<text text-anchor="middle" x="917" y="-293" font-family="Helvetica,sans-Serif" font-size="10.00">log_writer_interface.h</text>
</a>
</g>
</g>
<!-- Node1&#45;&gt;Node26 -->
<g id="edge33_Node000001_Node000026" class="edge">
<title>Node1&#45;&gt;Node26</title>
<g id="a_edge33_Node000001_Node000026"><a xlink:title=" ">
<path fill="none" stroke="#63b8ff" d="M1395.44,-344.34C1297.34,-334.53 1084.24,-313.22 978.73,-302.67"/>
<polygon fill="#63b8ff" stroke="#63b8ff" points="1395.11,-347.83 1405.41,-345.34 1395.81,-340.86 1395.11,-347.83"/>
</a>
</g>
</g>
<!-- Node27 -->
<g id="Node000027" class="node">
<title>Node27</title>
<g id="a_Node000027"><a xlink:href="logger__config_8h.html" target="_top" xlink:title=" ">
<polygon fill="white" stroke="#666666" points="1696.5,-305 1605.5,-305 1605.5,-286 1696.5,-286 1696.5,-305"/>
<text text-anchor="middle" x="1651" y="-293" font-family="Helvetica,sans-Serif" font-size="10.00">logger_config.h</text>
</a>
</g>
</g>
<!-- Node1&#45;&gt;Node27 -->
<g id="edge36_Node000001_Node000027" class="edge">
<title>Node1&#45;&gt;Node27</title>
<g id="a_edge36_Node000001_Node000027"><a xlink:title=" ">
<path fill="none" stroke="#63b8ff" d="M1489.58,-338.44C1527.77,-328.52 1583.02,-314.16 1617.97,-305.08"/>
<polygon fill="#63b8ff" stroke="#63b8ff" points="1488.57,-335.08 1479.78,-340.98 1490.33,-341.86 1488.57,-335.08"/>
</a>
</g>
</g>
<!-- Node28 -->
<g id="Node000028" class="node">
<title>Node28</title>
<g id="a_Node000028"><a xlink:href="monitoring__interface_8h.html" target="_top" xlink:title="Abstract interface for monitoring and metrics collection.">
<polygon fill="white" stroke="#666666" points="1441,-305 1313,-305 1313,-286 1441,-286 1441,-305"/>
<text text-anchor="middle" x="1377" y="-293" font-family="Helvetica,sans-Serif" font-size="10.00">monitoring_interface.h</text>
</a>
</g>
</g>
<!-- Node1&#45;&gt;Node28 -->
<g id="edge39_Node000001_Node000028" class="edge">
<title>Node1&#45;&gt;Node28</title>
<g id="a_edge39_Node000001_Node000028"><a xlink:title=" ">
<path fill="none" stroke="#63b8ff" d="M1427.69,-334.88C1415.09,-325.34 1399.07,-313.21 1388.45,-305.17"/>
<polygon fill="#63b8ff" stroke="#63b8ff" points="1425.67,-337.74 1435.75,-340.98 1429.89,-332.16 1425.67,-337.74"/>
</a>
</g>
</g>
<!-- Node32 -->
<g id="Node000032" class="node">
<title>Node32</title>
<g id="a_Node000032"><a xlink:href="overflow__policy_8h.html" target="_top" xlink:title=" ">
<polygon fill="white" stroke="#666666" points="1948.5,-305 1847.5,-305 1847.5,-286 1948.5,-286 1948.5,-305"/>
<text text-anchor="middle" x="1898" y="-293" font-family="Helvetica,sans-Serif" font-size="10.00">overflow_policy.h</text>
</a>
</g>
</g>
<!-- Node1&#45;&gt;Node32 -->
<g id="edge49_Node000001_Node000032" class="edge">
<title>Node1&#45;&gt;Node32</title>
<g id="a_edge49_Node000001_Node000032"><a xlink:title=" ">
<path fill="none" stroke="#63b8ff" d="M1498.66,-344.14C1573.69,-336.23 1717.19,-320.69 1839,-305 1841.77,-304.64 1844.61,-304.27 1847.48,-303.88"/>
<polygon fill="#63b8ff" stroke="#63b8ff" points="1498.11,-340.67 1488.53,-345.2 1498.85,-347.64 1498.11,-340.67"/>
</a>
</g>
</g>
<!-- Node3 -->
<g id="Node000003" class="node">
<title>Node3</title>
<g id="a_Node000003"><a xlink:href="console__writer_8h.html" target="_top" xlink:title=" ">
<polygon fill="white" stroke="#666666" points="342,-189.5 246,-189.5 246,-170.5 342,-170.5 342,-189.5"/>
<text text-anchor="middle" x="294" y="-177.5" font-family="Helvetica,sans-Serif" font-size="10.00">console_writer.h</text>
</a>
</g>
</g>
<!-- Node2&#45;&gt;Node3 -->
<g id="edge2_Node000002_Node000003" class="edge">
<title>Node2&#45;&gt;Node3</title>
<g id="a_edge2_Node000002_Node000003"><a xlink:title=" ">
<path fill="none" stroke="#63b8ff" d="M489.33,-228.5C452.09,-219.52 398.14,-206.49 351,-195 343.77,-193.24 336.03,-191.34 328.66,-189.53"/>
<polygon fill="#63b8ff" stroke="#63b8ff" points="488.83,-231.98 499.37,-230.92 490.47,-225.18 488.83,-231.98"/>
</a>
</g>
</g>
<!-- Node5 -->
<g id="Node000005" class="node">
<title>Node5</title>
<g id="a_Node000005"><a xlink:href="encrypted__writer_8h.html" target="_top" xlink:title=" ">
<polygon fill="white" stroke="#666666" points="467.5,-189.5 360.5,-189.5 360.5,-170.5 467.5,-170.5 467.5,-189.5"/>
<text text-anchor="middle" x="414" y="-177.5" font-family="Helvetica,sans-Serif" font-size="10.00">encrypted_writer.h</text>
</a>
</g>
</g>
<!-- Node2&#45;&gt;Node5 -->
<g id="edge4_Node000002_Node000005" class="edge">
<title>Node2&#45;&gt;Node5</title>
<g id="a_edge4_Node000002_Node000005"><a xlink:title=" ">
<path fill="none" stroke="#63b8ff" d="M508.39,-226.63C485.05,-215.35 451.79,-199.27 431.62,-189.52"/>
<polygon fill="#63b8ff" stroke="#63b8ff" points="506.88,-229.79 517.41,-230.99 509.93,-223.49 506.88,-229.79"/>
</a>
</g>
</g>
<!-- Node7 -->
<g id="Node000007" class="node">
<title>Node7</title>
<g id="a_Node000007"><a xlink:href="file__writer_8h.html" target="_top" xlink:title=" ">
<polygon fill="white" stroke="#666666" points="676,-189.5 602,-189.5 602,-170.5 676,-170.5 676,-189.5"/>
<text text-anchor="middle" x="639" y="-177.5" font-family="Helvetica,sans-Serif" font-size="10.00">file_writer.h</text>
</a>
</g>
</g>
<!-- Node2&#45;&gt;Node7 -->
<g id="edge6_Node000002_Node000007" class="edge">
<title>Node2&#45;&gt;Node7</title>
<g id="a_edge6_Node000002_Node000007"><a xlink:title=" ">
<path fill="none" stroke="#63b8ff" d="M559.14,-225.92C579.01,-214.74 606.59,-199.23 623.59,-189.67"/>
<polygon fill="#63b8ff" stroke="#63b8ff" points="557.35,-222.91 550.35,-230.87 560.78,-229.02 557.35,-222.91"/>
</a>
</g>
</g>
<!-- Node11 -->
<g id="Node000011" class="node">
<title>Node11</title>
<g id="a_Node000011"><a xlink:href="health__check__system_8cpp.html" target="_top" xlink:title=" ">
<polygon fill="white" stroke="#666666" points="875.5,-189.5 732.5,-189.5 732.5,-170.5 875.5,-170.5 875.5,-189.5"/>
<text text-anchor="middle" x="804" y="-177.5" font-family="Helvetica,sans-Serif" font-size="10.00">health_check_system.cpp</text>
</a>
</g>
</g>
<!-- Node2&#45;&gt;Node11 -->
<g id="edge10_Node000002_Node000011" class="edge">
<title>Node2&#45;&gt;Node11</title>
<g id="a_edge10_Node000002_Node000011"><a xlink:title=" ">
<path fill="none" stroke="#63b8ff" d="M584.1,-228.82C636.06,-217.52 717,-199.92 764.84,-189.52"/>
<polygon fill="#63b8ff" stroke="#63b8ff" points="583.14,-225.45 574.11,-230.99 584.63,-232.29 583.14,-225.45"/>
</a>
</g>
</g>
<!-- Node12 -->
<g id="Node000012" class="node">
<title>Node12</title>
<g id="a_Node000012"><a xlink:href="log__collector_8cpp.html" target="_top" xlink:title=" ">
<polygon fill="white" stroke="#666666" points="228,-189.5 130,-189.5 130,-170.5 228,-170.5 228,-189.5"/>
<text text-anchor="middle" x="179" y="-177.5" font-family="Helvetica,sans-Serif" font-size="10.00">log_collector.cpp</text>
</a>
</g>
</g>
<!-- Node2&#45;&gt;Node12 -->
<g id="edge11_Node000002_Node000012" class="edge">
<title>Node2&#45;&gt;Node12</title>
<g id="a_edge11_Node000002_Node000012"><a xlink:title=" ">
<path fill="none" stroke="#63b8ff" d="M483.56,-233.23C423.97,-225.63 322.97,-211.76 237,-195 228.87,-193.41 220.15,-191.45 212.01,-189.5"/>
<polygon fill="#63b8ff" stroke="#63b8ff" points="483.47,-236.74 493.83,-234.53 484.35,-229.8 483.47,-236.74"/>
</a>
</g>
</g>
<!-- Node13 -->
<g id="Node000013" class="node">
<title>Node13</title>
<g id="a_Node000013"><a xlink:href="log__router_8h.html" target="_top" xlink:title=" ">
<polygon fill="white" stroke="#666666" points="74,-74 0,-74 0,-55 74,-55 74,-74"/>
<text text-anchor="middle" x="37" y="-62" font-family="Helvetica,sans-Serif" font-size="10.00">log_router.h</text>
</a>
</g>
</g>
<!-- Node2&#45;&gt;Node13 -->
<g id="edge12_Node000002_Node000013" class="edge">
<title>Node2&#45;&gt;Node13</title>
<g id="a_edge12_Node000002_Node000013"><a xlink:title=" ">
<path fill="none" stroke="#63b8ff" d="M483.53,-237.37C372.7,-232.36 119,-218.44 88,-195 47.91,-164.69 39.3,-98.14 37.48,-74.25"/>
<polygon fill="#63b8ff" stroke="#63b8ff" points="483.65,-240.88 493.79,-237.83 483.96,-233.88 483.65,-240.88"/>
</a>
</g>
</g>
<!-- Node14 -->
<g id="Node000014" class="node">
<title>Node14</title>
<g id="a_Node000014"><a xlink:href="logger_8cpp.html" target="_top" xlink:title=" ">
<polygon fill="white" stroke="#666666" points="135.5,-19 68.5,-19 68.5,0 135.5,0 135.5,-19"/>
<text text-anchor="middle" x="102" y="-7" font-family="Helvetica,sans-Serif" font-size="10.00">logger.cpp</text>
</a>
</g>
</g>
<!-- Node2&#45;&gt;Node14 -->
<g id="edge14_Node000002_Node000014" class="edge">
<title>Node2&#45;&gt;Node14</title>
<g id="a_edge14_Node000002_Node000014"><a xlink:title=" ">
<path fill="none" stroke="#63b8ff" d="M483.85,-237.55C378.74,-233.04 146.17,-220.29 121,-195 72.16,-145.94 91.95,-49.15 99.55,-19.41"/>
<polygon fill="#63b8ff" stroke="#63b8ff" points="483.78,-241.05 493.91,-237.97 484.07,-234.05 483.78,-241.05"/>
</a>
</g>
</g>
<!-- Node15 -->
<g id="Node000015" class="node">
<title>Node15</title>
<g id="a_Node000015"><a xlink:href="logger__builder_8h.html" target="_top" xlink:title=" ">
<polygon fill="white" stroke="#666666" points="1529.5,-19 1434.5,-19 1434.5,0 1529.5,0 1529.5,-19"/>
<text text-anchor="middle" x="1482" y="-7" font-family="Helvetica,sans-Serif" font-size="10.00">logger_builder.h</text>
</a>
</g>
</g>
<!-- Node2&#45;&gt;Node15 -->
<g id="edge15_Node000002_Node000015" class="edge">
<title>Node2&#45;&gt;Node15</title>
<g id="a_edge15_Node000002_Node000015"><a xlink:title=" ">
<path fill="none" stroke="#63b8ff" d="M585.89,-229.48C615.83,-222.37 653.8,-211.18 685,-195 704.1,-185.1 703.55,-174.2 723,-165 972.83,-46.9 1310.65,-18.85 1434.21,-12.38"/>
<polygon fill="#63b8ff" stroke="#63b8ff" points="585.03,-226.09 576.07,-231.74 586.6,-232.91 585.03,-226.09"/>
</a>
</g>
</g>
<!-- Node16 -->
<g id="Node000016" class="node">
<title>Node16</title>
<g id="a_Node000016"><a xlink:href="network__writer_8h.html" target="_top" xlink:title=" ">
<polygon fill="white" stroke="#666666" points="584,-189.5 486,-189.5 486,-170.5 584,-170.5 584,-189.5"/>
<text text-anchor="middle" x="535" y="-177.5" font-family="Helvetica,sans-Serif" font-size="10.00">network_writer.h</text>
</a>
</g>
</g>
<!-- Node2&#45;&gt;Node16 -->
<g id="edge16_Node000002_Node000016" class="edge">
<title>Node2&#45;&gt;Node16</title>
<g id="a_edge16_Node000002_Node000016"><a xlink:title=" ">
<path fill="none" stroke="#63b8ff" d="M535,-220.66C535,-210.24 535,-197.8 535,-189.67"/>
<polygon fill="#63b8ff" stroke="#63b8ff" points="531.5,-220.87 535,-230.87 538.5,-220.87 531.5,-220.87"/>
</a>
</g>
</g>
<!-- Node4 -->
<g id="Node000004" class="node">
<title>Node4</title>
<g id="a_Node000004"><a xlink:href="console__writer_8cpp.html" target="_top" xlink:title=" ">
<polygon fill="white" stroke="#666666" points="274.5,-129 167.5,-129 167.5,-110 274.5,-110 274.5,-129"/>
<text text-anchor="middle" x="221" y="-117" font-family="Helvetica,sans-Serif" font-size="10.00">console_writer.cpp</text>
</a>
</g>
</g>
<!-- Node3&#45;&gt;Node4 -->
<g id="edge3_Node000003_Node000004" class="edge">
<title>Node3&#45;&gt;Node4</title>
<g id="a_edge3_Node000003_Node000004"><a xlink:title=" ">
<path fill="none" stroke="#63b8ff" d="M275.33,-164.04C261.54,-152.99 243.26,-138.34 231.82,-129.17"/>
<polygon fill="#63b8ff" stroke="#63b8ff" points="273.24,-166.85 283.23,-170.37 277.61,-161.38 273.24,-166.85"/>
</a>
</g>
</g>
<!-- Node6 -->
<g id="Node000006" class="node">
<title>Node6</title>
<g id="a_Node000006"><a xlink:href="encrypted__writer_8cpp.html" target="_top" xlink:title=" ">
<polygon fill="white" stroke="#666666" points="411.5,-129 292.5,-129 292.5,-110 411.5,-110 411.5,-129"/>
<text text-anchor="middle" x="352" y="-117" font-family="Helvetica,sans-Serif" font-size="10.00">encrypted_writer.cpp</text>
</a>
</g>
</g>
<!-- Node5&#45;&gt;Node6 -->
<g id="edge5_Node000005_Node000006" class="edge">
<title>Node5&#45;&gt;Node6</title>
<g id="a_edge5_Node000005_Node000006"><a xlink:title=" ">
<path fill="none" stroke="#63b8ff" d="M397.48,-163.41C385.85,-152.44 370.72,-138.17 361.19,-129.17"/>
<polygon fill="#63b8ff" stroke="#63b8ff" points="395.18,-166.05 404.85,-170.37 399.98,-160.96 395.18,-166.05"/>
</a>
</g>
</g>
<!-- Node8 -->
<g id="Node000008" class="node">
<title>Node8</title>
<g id="a_Node000008"><a xlink:href="file__writer_8cpp.html" target="_top" xlink:title=" ">
<polygon fill="white" stroke="#666666" points="643.5,-129 558.5,-129 558.5,-110 643.5,-110 643.5,-129"/>
<text text-anchor="middle" x="601" y="-117" font-family="Helvetica,sans-Serif" font-size="10.00">file_writer.cpp</text>
</a>
</g>
</g>
<!-- Node7&#45;&gt;Node8 -->
<g id="edge7_Node000007_Node000008" class="edge">
<title>Node7&#45;&gt;Node8</title>
<g id="a_edge7_Node000007_Node000008"><a xlink:title=" ">
<path fill="none" stroke="#63b8ff" d="M627.83,-161.8C620.86,-151.08 612.2,-137.73 606.63,-129.17"/>
<polygon fill="#63b8ff" stroke="#63b8ff" points="625.01,-163.89 633.39,-170.37 630.88,-160.08 625.01,-163.89"/>
</a>
</g>
</g>
<!-- Node9 -->
<g id="Node000009" class="node">
<title>Node9</title>
<g id="a_Node000009"><a xlink:href="rotating__file__writer_8h.html" target="_top" xlink:title=" ">
<polygon fill="white" stroke="#666666" points="778.5,-129 661.5,-129 661.5,-110 778.5,-110 778.5,-129"/>
<text text-anchor="middle" x="720" y="-117" font-family="Helvetica,sans-Serif" font-size="10.00">rotating_file_writer.h</text>
</a>
</g>
</g>
<!-- Node7&#45;&gt;Node9 -->
<g id="edge8_Node000007_Node000009" class="edge">
<title>Node7&#45;&gt;Node9</title>
<g id="a_edge8_Node000007_Node000009"><a xlink:title=" ">
<path fill="none" stroke="#63b8ff" d="M659.29,-164.35C674.63,-153.27 695.18,-138.43 708,-129.17"/>
<polygon fill="#63b8ff" stroke="#63b8ff" points="657.01,-161.68 650.95,-170.37 661.11,-167.35 657.01,-161.68"/>
</a>
</g>
</g>
<!-- Node10 -->
<g id="Node000010" class="node">
<title>Node10</title>
<g id="a_Node000010"><a xlink:href="rotating__file__writer_8cpp.html" target="_top" xlink:title=" ">
<polygon fill="white" stroke="#666666" points="779,-74 651,-74 651,-55 779,-55 779,-74"/>
<text text-anchor="middle" x="715" y="-62" font-family="Helvetica,sans-Serif" font-size="10.00">rotating_file_writer.cpp</text>
</a>
</g>
</g>
<!-- Node9&#45;&gt;Node10 -->
<g id="edge9_Node000009_Node000010" class="edge">
<title>Node9&#45;&gt;Node10</title>
<g id="a_edge9_Node000009_Node000010"><a xlink:title=" ">
<path fill="none" stroke="#63b8ff" d="M718.22,-99.66C717.4,-90.93 716.46,-80.99 715.81,-74.09"/>
<polygon fill="#63b8ff" stroke="#63b8ff" points="714.75,-100.12 719.17,-109.75 721.72,-99.46 714.75,-100.12"/>
</a>
</g>
</g>
<!-- Node13&#45;&gt;Node14 -->
<g id="edge13_Node000013_Node000014" class="edge">
<title>Node13&#45;&gt;Node14</title>
<g id="a_edge13_Node000013_Node000014"><a xlink:title=" ">
<path fill="none" stroke="#63b8ff" d="M55.27,-48.6C66.92,-39.11 81.6,-27.13 91.37,-19.17"/>
<polygon fill="#63b8ff" stroke="#63b8ff" points="52.98,-45.95 47.44,-54.98 57.41,-51.38 52.98,-45.95"/>
</a>
</g>
</g>
<!-- Node17 -->
<g id="Node000017" class="node">
<title>Node17</title>
<g id="a_Node000017"><a xlink:href="network__writer_8cpp.html" target="_top" xlink:title=" ">
<polygon fill="white" stroke="#666666" points="540,-129 430,-129 430,-110 540,-110 540,-129"/>
<text text-anchor="middle" x="485" y="-117" font-family="Helvetica,sans-Serif" font-size="10.00">network_writer.cpp</text>
</a>
</g>
</g>
<!-- Node16&#45;&gt;Node17 -->
<g id="edge17_Node000016_Node000017" class="edge">
<title>Node16&#45;&gt;Node17</title>
<g id="a_edge17_Node000016_Node000017"><a xlink:title=" ">
<path fill="none" stroke="#63b8ff" d="M520.86,-162.45C511.6,-151.62 499.88,-137.91 492.41,-129.17"/>
<polygon fill="#63b8ff" stroke="#63b8ff" points="518.46,-165.04 527.62,-170.37 523.79,-160.49 518.46,-165.04"/>
</a>
</g>
</g>
<!-- Node18&#45;&gt;Node15 -->
<g id="edge19_Node000018_Node000015" class="edge">
<title>Node18&#45;&gt;Node15</title>
<g id="a_edge19_Node000018_Node000015"><a xlink:title=" ">
<path fill="none" stroke="#63b8ff" d="M1642.28,-221.13C1636.28,-194.71 1622.58,-145.29 1598,-110 1569.49,-69.07 1520.29,-34.59 1496.17,-19.17"/>
<polygon fill="#63b8ff" stroke="#63b8ff" points="1638.86,-221.89 1644.39,-230.93 1645.71,-220.42 1638.86,-221.89"/>
</a>
</g>
</g>
<!-- Node20 -->
<g id="Node000020" class="node">
<title>Node20</title>
<g id="a_Node000020"><a xlink:href="di__container__factory_8h.html" target="_top" xlink:title="Factory for creating appropriate DI containers.">
<polygon fill="white" stroke="#666666" points="1228,-129 1104,-129 1104,-110 1228,-110 1228,-129"/>
<text text-anchor="middle" x="1166" y="-117" font-family="Helvetica,sans-Serif" font-size="10.00">di_container_factory.h</text>
</a>
</g>
</g>
<!-- Node19&#45;&gt;Node20 -->
<g id="edge21_Node000019_Node000020" class="edge">
<title>Node19&#45;&gt;Node20</title>
<g id="a_edge21_Node000019_Node000020"><a xlink:title=" ">
<path fill="none" stroke="#63b8ff" d="M1151.55,-223.26C1145.1,-215.38 1138.34,-205.38 1135,-195 1130.91,-182.31 1131.01,-177.72 1135,-165 1139.4,-150.99 1149.95,-137.53 1157.52,-129.15"/>
<polygon fill="#63b8ff" stroke="#63b8ff" points="1149.03,-225.69 1158.25,-230.9 1154.29,-221.08 1149.03,-225.69"/>
</a>
</g>
</g>
<!-- Node19&#45;&gt;Node21 -->
<g id="edge27_Node000019_Node000021" class="edge">
<title>Node19&#45;&gt;Node21</title>
<g id="a_edge27_Node000019_Node000021"><a xlink:title=" ">
<path fill="none" stroke="#63b8ff" d="M1089.61,-230.38C1022.27,-221.64 933.77,-207.92 923,-195 914.46,-184.76 915.14,-175.77 923,-165 966.99,-104.74 1206.8,-76.22 1289.75,-68.06"/>
<polygon fill="#63b8ff" stroke="#63b8ff" points="1089.44,-233.88 1099.8,-231.68 1090.33,-226.94 1089.44,-233.88"/>
</a>
</g>
</g>
<!-- Node22 -->
<g id="Node000022" class="node">
<title>Node22</title>
<g id="a_Node000022"><a xlink:href="lightweight__di__container_8h.html" target="_top" xlink:title="Lightweight dependency injection container implementation.">
<polygon fill="white" stroke="#666666" points="1289.5,-189.5 1144.5,-189.5 1144.5,-170.5 1289.5,-170.5 1289.5,-189.5"/>
<text text-anchor="middle" x="1217" y="-177.5" font-family="Helvetica,sans-Serif" font-size="10.00">lightweight_di_container.h</text>
</a>
</g>
</g>
<!-- Node19&#45;&gt;Node22 -->
<g id="edge25_Node000019_Node000022" class="edge">
<title>Node19&#45;&gt;Node22</title>
<g id="a_edge25_Node000019_Node000022"><a xlink:title=" ">
<path fill="none" stroke="#63b8ff" d="M1181.14,-222.95C1190.4,-212.12 1202.12,-198.41 1209.59,-189.67"/>
<polygon fill="#63b8ff" stroke="#63b8ff" points="1178.21,-220.99 1174.38,-230.87 1183.54,-225.54 1178.21,-220.99"/>
</a>
</g>
</g>
<!-- Node23 -->
<g id="Node000023" class="node">
<title>Node23</title>
<g id="a_Node000023"><a xlink:href="thread__system__di__adapter_8h.html" target="_top" xlink:title="Adapter for thread_system&#39;s service container.">
<polygon fill="white" stroke="#666666" points="1087.5,-189.5 932.5,-189.5 932.5,-170.5 1087.5,-170.5 1087.5,-189.5"/>
<text text-anchor="middle" x="1010" y="-177.5" font-family="Helvetica,sans-Serif" font-size="10.00">thread_system_di_adapter.h</text>
</a>
</g>
</g>
<!-- Node19&#45;&gt;Node23 -->
<g id="edge28_Node000019_Node000023" class="edge">
<title>Node19&#45;&gt;Node23</title>
<g id="a_edge28_Node000019_Node000023"><a xlink:title=" ">
<path fill="none" stroke="#63b8ff" d="M1134.47,-227.38C1104.12,-216.07 1059.61,-199.49 1032.86,-189.52"/>
<polygon fill="#63b8ff" stroke="#63b8ff" points="1133.58,-230.78 1144.17,-230.99 1136.02,-224.22 1133.58,-230.78"/>
</a>
</g>
</g>
<!-- Node20&#45;&gt;Node21 -->
<g id="edge22_Node000020_Node000021" class="edge">
<title>Node20&#45;&gt;Node21</title>
<g id="a_edge22_Node000020_Node000021"><a xlink:title=" ">
<path fill="none" stroke="#63b8ff" d="M1199.93,-106.67C1228.27,-96.79 1268.02,-82.93 1293.39,-74.08"/>
<polygon fill="#63b8ff" stroke="#63b8ff" points="1198.71,-103.39 1190.42,-109.98 1201.02,-110 1198.71,-103.39"/>
</a>
</g>
</g>
<!-- Node21&#45;&gt;Node14 -->
<g id="edge23_Node000021_Node000014" class="edge">
<title>Node21&#45;&gt;Node14</title>
<g id="a_edge23_Node000021_Node000014"><a xlink:title=" ">
<path fill="none" stroke="#63b8ff" d="M1279.47,-61.82C1095.53,-53.8 308.59,-19.5 135.68,-11.97"/>
<polygon fill="#63b8ff" stroke="#63b8ff" points="1279.59,-65.33 1289.73,-62.27 1279.89,-58.34 1279.59,-65.33"/>
</a>
</g>
</g>
<!-- Node21&#45;&gt;Node15 -->
<g id="edge24_Node000021_Node000015" class="edge">
<title>Node21&#45;&gt;Node15</title>
<g id="a_edge24_Node000021_Node000015"><a xlink:title=" ">
<path fill="none" stroke="#63b8ff" d="M1354.21,-51.8C1384.82,-41.91 1427.95,-27.97 1455.44,-19.08"/>
<polygon fill="#63b8ff" stroke="#63b8ff" points="1352.79,-48.58 1344.35,-54.98 1354.94,-55.24 1352.79,-48.58"/>
</a>
</g>
</g>
<!-- Node22&#45;&gt;Node20 -->
<g id="edge26_Node000022_Node000020" class="edge">
<title>Node22&#45;&gt;Node20</title>
<g id="a_edge26_Node000022_Node000020"><a xlink:title=" ">
<path fill="none" stroke="#63b8ff" d="M1202.85,-162.77C1193.37,-151.89 1181.25,-137.99 1173.56,-129.17"/>
<polygon fill="#63b8ff" stroke="#63b8ff" points="1200.27,-165.13 1209.47,-170.37 1205.54,-160.53 1200.27,-165.13"/>
</a>
</g>
</g>
<!-- Node23&#45;&gt;Node20 -->
<g id="edge29_Node000023_Node000020" class="edge">
<title>Node23&#45;&gt;Node20</title>
<g id="a_edge29_Node000023_Node000020"><a xlink:title=" ">
<path fill="none" stroke="#63b8ff" d="M1042.33,-166.88C1072.48,-155.57 1116.7,-138.99 1143.29,-129.02"/>
<polygon fill="#63b8ff" stroke="#63b8ff" points="1040.82,-163.71 1032.68,-170.49 1043.28,-170.26 1040.82,-163.71"/>
</a>
</g>
</g>
<!-- Node24&#45;&gt;Node11 -->
<g id="edge31_Node000024_Node000011" class="edge">
<title>Node24&#45;&gt;Node11</title>
<g id="a_edge31_Node000024_Node000011"><a xlink:title=" ">
<path fill="none" stroke="#63b8ff" d="M975.5,-228.32C934.5,-217.01 872.01,-199.77 834.86,-189.52"/>
<polygon fill="#63b8ff" stroke="#63b8ff" points="974.6,-231.71 985.17,-230.99 976.46,-224.96 974.6,-231.71"/>
</a>
</g>
</g>
<!-- Node26&#45;&gt;Node2 -->
<g id="edge34_Node000026_Node000002" class="edge">
<title>Node26&#45;&gt;Node2</title>
<g id="a_edge34_Node000026_Node000002"><a xlink:title=" ">
<path fill="none" stroke="#63b8ff" d="M845.7,-284.61C766.31,-273.59 640.71,-256.17 576.21,-247.22"/>
<polygon fill="#63b8ff" stroke="#63b8ff" points="845.24,-288.08 855.63,-285.98 846.2,-281.14 845.24,-288.08"/>
</a>
</g>
</g>
<!-- Node27&#45;&gt;Node15 -->
<g id="edge38_Node000027_Node000015" class="edge">
<title>Node27&#45;&gt;Node15</title>
<g id="a_edge38_Node000027_Node000015"><a xlink:title=" ">
<path fill="none" stroke="#63b8ff" d="M1686.4,-281.94C1701.85,-274.8 1718.94,-264.35 1730,-250 1749.34,-224.89 1748,-212.69 1748,-181 1748,-181 1748,-181 1748,-118.5 1748,-71.27 1602.25,-34.79 1526.52,-19.02"/>
<polygon fill="#63b8ff" stroke="#63b8ff" points="1684.85,-278.8 1677.05,-285.97 1687.62,-285.23 1684.85,-278.8"/>
</a>
</g>
</g>
<!-- Node27&#45;&gt;Node18 -->
<g id="edge37_Node000027_Node000018" class="edge">
<title>Node27&#45;&gt;Node18</title>
<g id="a_edge37_Node000027_Node000018"><a xlink:title=" ">
<path fill="none" stroke="#63b8ff" d="M1649.22,-275.66C1648.4,-266.93 1647.46,-256.99 1646.81,-250.09"/>
<polygon fill="#63b8ff" stroke="#63b8ff" points="1645.75,-276.12 1650.17,-285.75 1652.72,-275.46 1645.75,-276.12"/>
</a>
</g>
</g>
<!-- Node28&#45;&gt;Node21 -->
<g id="edge46_Node000028_Node000021" class="edge">
<title>Node28&#45;&gt;Node21</title>
<g id="a_edge46_Node000028_Node000021"><a xlink:title=" ">
<path fill="none" stroke="#63b8ff" d="M1369.92,-276.31C1366.95,-268.31 1363.59,-258.76 1361,-250 1341.26,-183.13 1324.72,-100.48 1319.62,-74.05"/>
<polygon fill="#63b8ff" stroke="#63b8ff" points="1366.68,-277.63 1373.51,-285.73 1373.22,-275.14 1366.68,-277.63"/>
</a>
</g>
</g>
<!-- Node28&#45;&gt;Node24 -->
<g id="edge45_Node000028_Node000024" class="edge">
<title>Node28&#45;&gt;Node24</title>
<g id="a_edge45_Node000028_Node000024"><a xlink:title=" ">
<path fill="none" stroke="#63b8ff" d="M1308.85,-284.49C1241.07,-274.54 1138.2,-259.44 1074.16,-250.04"/>
<polygon fill="#63b8ff" stroke="#63b8ff" points="1308.6,-287.99 1319,-285.98 1309.61,-281.07 1308.6,-287.99"/>
</a>
</g>
</g>
<!-- Node29 -->
<g id="Node000029" class="node">
<title>Node29</title>
<g id="a_Node000029"><a xlink:href="basic__monitor_8h.html" target="_top" xlink:title="Basic monitoring implementation with no external dependencies.">
<polygon fill="white" stroke="#666666" points="1516,-250 1422,-250 1422,-231 1516,-231 1516,-250"/>
<text text-anchor="middle" x="1469" y="-238" font-family="Helvetica,sans-Serif" font-size="10.00">basic_monitor.h</text>
</a>
</g>
</g>
<!-- Node28&#45;&gt;Node29 -->
<g id="edge40_Node000028_Node000029" class="edge">
<title>Node28&#45;&gt;Node29</title>
<g id="a_edge40_Node000028_Node000029"><a xlink:title=" ">
<path fill="none" stroke="#63b8ff" d="M1400.49,-280.97C1417.31,-271.28 1439.45,-258.52 1453.95,-250.17"/>
<polygon fill="#63b8ff" stroke="#63b8ff" points="1398.7,-277.96 1391.78,-285.98 1402.19,-284.03 1398.7,-277.96"/>
</a>
</g>
</g>
<!-- Node30 -->
<g id="Node000030" class="node">
<title>Node30</title>
<g id="a_Node000030"><a xlink:href="monitoring__factory_8h.html" target="_top" xlink:title="Factory for creating appropriate monitoring implementations.">
<polygon fill="white" stroke="#666666" points="1486.5,-129 1369.5,-129 1369.5,-110 1486.5,-110 1486.5,-129"/>
<text text-anchor="middle" x="1428" y="-117" font-family="Helvetica,sans-Serif" font-size="10.00">monitoring_factory.h</text>
</a>
</g>
</g>
<!-- Node28&#45;&gt;Node30 -->
<g id="edge47_Node000028_Node000030" class="edge">
<title>Node28&#45;&gt;Node30</title>
<g id="a_edge47_Node000028_Node000030"><a xlink:title=" ">
<path fill="none" stroke="#63b8ff" d="M1372.09,-275.75C1366.26,-249.6 1359.29,-201.29 1376,-165 1383.35,-149.03 1399.59,-136.65 1411.97,-129.05"/>
<polygon fill="#63b8ff" stroke="#63b8ff" points="1368.76,-276.9 1374.52,-285.8 1375.57,-275.26 1368.76,-276.9"/>
</a>
</g>
</g>
<!-- Node31 -->
<g id="Node000031" class="node">
<title>Node31</title>
<g id="a_Node000031"><a xlink:href="thread__system__monitor__adapter_8h.html" target="_top" xlink:title="Adapter for thread_system&#39;s monitoring capabilities.">
<polygon fill="white" stroke="#666666" points="1517.5,-195 1384.5,-195 1384.5,-165 1517.5,-165 1517.5,-195"/>
<text text-anchor="start" x="1392.5" y="-183" font-family="Helvetica,sans-Serif" font-size="10.00">thread_system_monitor</text>
<text text-anchor="middle" x="1451" y="-172" font-family="Helvetica,sans-Serif" font-size="10.00">_adapter.h</text>
</a>
</g>
</g>
<!-- Node28&#45;&gt;Node31 -->
<g id="edge48_Node000028_Node000031" class="edge">
<title>Node28&#45;&gt;Node31</title>
<g id="a_edge48_Node000028_Node000031"><a xlink:title=" ">
<path fill="none" stroke="#63b8ff" d="M1386.39,-276.45C1393.32,-263.53 1403.2,-245.86 1413,-231 1421.28,-218.44 1431.68,-204.89 1439.5,-195.07"/>
<polygon fill="#63b8ff" stroke="#63b8ff" points="1383.11,-275.18 1381.53,-285.65 1389.3,-278.45 1383.11,-275.18"/>
</a>
</g>
</g>
<!-- Node29&#45;&gt;Node30 -->
<g id="edge41_Node000029_Node000030" class="edge">
<title>Node29&#45;&gt;Node30</title>
<g id="a_edge41_Node000029_Node000030"><a xlink:title=" ">
<path fill="none" stroke="#63b8ff" d="M1496.36,-225.89C1508.07,-218.5 1520.51,-208.15 1527,-195 1532.9,-183.04 1534.24,-176.2 1527,-165 1514.92,-146.33 1492.95,-135.42 1472.76,-129.08"/>
<polygon fill="#63b8ff" stroke="#63b8ff" points="1494.54,-222.9 1487.67,-230.97 1498.07,-228.95 1494.54,-222.9"/>
</a>
</g>
</g>
<!-- Node29&#45;&gt;Node31 -->
<g id="edge43_Node000029_Node000031" class="edge">
<title>Node29&#45;&gt;Node31</title>
<g id="a_edge43_Node000029_Node000031"><a xlink:title=" ">
<path fill="none" stroke="#63b8ff" d="M1463.37,-221.22C1460.78,-212.79 1457.75,-202.95 1455.34,-195.11"/>
<polygon fill="#63b8ff" stroke="#63b8ff" points="1460.06,-222.34 1466.34,-230.87 1466.75,-220.28 1460.06,-222.34"/>
</a>
</g>
</g>
<!-- Node30&#45;&gt;Node21 -->
<g id="edge42_Node000030_Node000021" class="edge">
<title>Node30&#45;&gt;Node21</title>
<g id="a_edge42_Node000030_Node000021"><a xlink:title=" ">
<path fill="none" stroke="#63b8ff" d="M1401.3,-105.63C1381.03,-95.87 1353.73,-82.71 1335.99,-74.17"/>
<polygon fill="#63b8ff" stroke="#63b8ff" points="1399.8,-108.8 1410.33,-109.98 1402.84,-102.49 1399.8,-108.8"/>
</a>
</g>
</g>
<!-- Node31&#45;&gt;Node30 -->
<g id="edge44_Node000031_Node000030" class="edge">
<title>Node31&#45;&gt;Node30</title>
<g id="a_edge44_Node000031_Node000030"><a xlink:title=" ">
<path fill="none" stroke="#63b8ff" d="M1441.7,-155.34C1438.08,-146.14 1434.16,-136.17 1431.45,-129.27"/>
<polygon fill="#63b8ff" stroke="#63b8ff" points="1438.52,-156.81 1445.43,-164.84 1445.03,-154.25 1438.52,-156.81"/>
</a>
</g>
</g>
<!-- Node33 -->
<g id="Node000033" class="node">
<title>Node33</title>
<g id="a_Node000033"><a xlink:href="overflow__policy_8cpp.html" target="_top" xlink:title=" ">
<polygon fill="white" stroke="#666666" points="1954,-250 1842,-250 1842,-231 1954,-231 1954,-250"/>
<text text-anchor="middle" x="1898" y="-238" font-family="Helvetica,sans-Serif" font-size="10.00">overflow_policy.cpp</text>
</a>
</g>
</g>
<!-- Node32&#45;&gt;Node33 -->
<g id="edge50_Node000032_Node000033" class="edge">
<title>Node32&#45;&gt;Node33</title>
<g id="a_edge50_Node000032_Node000033"><a xlink:title=" ">
<path fill="none" stroke="#63b8ff" d="M1898,-275.66C1898,-266.93 1898,-256.99 1898,-250.09"/>
<polygon fill="#63b8ff" stroke="#63b8ff" points="1894.5,-275.75 1898,-285.75 1901.5,-275.75 1894.5,-275.75"/>
</a>
</g>
</g>
</g>
</svg>
