<?xml version="1.0" encoding="UTF-8" standalone="no"?>
<!DOCTYPE svg PUBLIC "-//W3C//DTD SVG 1.1//EN"
 "http://www.w3.org/Graphics/SVG/1.1/DTD/svg11.dtd">
<!-- Generated by graphviz version 2.43.0 (0)
 -->
<!-- Title: error_codes.h Pages: 1 -->
<svg width="860pt" height="302pt"
 viewBox="0.00 0.00 860.00 302.00" xmlns="http://www.w3.org/2000/svg" xmlns:xlink="http://www.w3.org/1999/xlink">
<g id="graph0" class="graph" transform="scale(1 1) rotate(0) translate(4 298)">
<title>error_codes.h</title>
<!-- Node1 -->
<g id="Node000001" class="node">
<title>Node1</title>
<g id="a_Node000001"><a xlink:title=" ">
<polygon fill="#999999" stroke="#666666" points="704,-294 621,-294 621,-275 704,-275 704,-294"/>
<text text-anchor="middle" x="662.5" y="-282" font-family="Helvetica,sans-Serif" font-size="10.00">error_codes.h</text>
</a>
</g>
</g>
<!-- Node2 -->
<g id="Node000002" class="node">
<title>Node2</title>
<g id="a_Node000002"><a xlink:href="base__writer_8h.html" target="_top" xlink:title=" ">
<polygon fill="white" stroke="#666666" points="523.5,-184 441.5,-184 441.5,-165 523.5,-165 523.5,-184"/>
<text text-anchor="middle" x="482.5" y="-172" font-family="Helvetica,sans-Serif" font-size="10.00">base_writer.h</text>
</a>
</g>
</g>
<!-- Node1&#45;&gt;Node2 -->
<g id="edge1_Node000001_Node000002" class="edge">
<title>Node1&#45;&gt;Node2</title>
<g id="a_edge1_Node000001_Node000002"><a xlink:title=" ">
<path fill="none" stroke="#63b8ff" d="M610.59,-281.8C575.46,-277.94 530.35,-267.25 501.5,-239 486.37,-224.19 483.17,-197.86 482.57,-184.23"/>
<polygon fill="#63b8ff" stroke="#63b8ff" points="610.39,-285.3 620.68,-282.76 611.06,-278.33 610.39,-285.3"/>
</a>
</g>
</g>
<!-- Node17 -->
<g id="Node000017" class="node">
<title>Node17</title>
<g id="a_Node000017"><a xlink:href="log__sink__interface_8h.html" target="_top" xlink:title=" ">
<polygon fill="white" stroke="#666666" points="844,-239 729,-239 729,-220 844,-220 844,-239"/>
<text text-anchor="middle" x="786.5" y="-227" font-family="Helvetica,sans-Serif" font-size="10.00">log_sink_interface.h</text>
</a>
</g>
</g>
<!-- Node1&#45;&gt;Node17 -->
<g id="edge17_Node000001_Node000017" class="edge">
<title>Node1&#45;&gt;Node17</title>
<g id="a_edge17_Node000001_Node000017"><a xlink:title=" ">
<path fill="none" stroke="#63b8ff" d="M691.68,-271.03C714.61,-261.23 745.95,-247.83 766.21,-239.17"/>
<polygon fill="#63b8ff" stroke="#63b8ff" points="690.24,-267.84 682.42,-274.98 692.99,-274.27 690.24,-267.84"/>
</a>
</g>
</g>
<!-- Node18 -->
<g id="Node000018" class="node">
<title>Node18</title>
<g id="a_Node000018"><a xlink:href="log__writer__interface_8h.html" target="_top" xlink:title=" ">
<polygon fill="white" stroke="#666666" points="634,-239 511,-239 511,-220 634,-220 634,-239"/>
<text text-anchor="middle" x="572.5" y="-227" font-family="Helvetica,sans-Serif" font-size="10.00">log_writer_interface.h</text>
</a>
</g>
</g>
<!-- Node1&#45;&gt;Node18 -->
<g id="edge18_Node000001_Node000018" class="edge">
<title>Node1&#45;&gt;Node18</title>
<g id="a_edge18_Node000001_Node000018"><a xlink:title=" ">
<path fill="none" stroke="#63b8ff" d="M639.06,-269.7C622.66,-260.04 601.27,-247.44 587.22,-239.17"/>
<polygon fill="#63b8ff" stroke="#63b8ff" points="637.65,-272.93 648.04,-274.98 641.2,-266.89 637.65,-272.93"/>
</a>
</g>
</g>
<!-- Node19 -->
<g id="Node000019" class="node">
<title>Node19</title>
<g id="a_Node000019"><a xlink:href="logger_8h.html" target="_top" xlink:title=" ">
<polygon fill="white" stroke="#666666" points="690.5,-184 634.5,-184 634.5,-165 690.5,-165 690.5,-184"/>
<text text-anchor="middle" x="662.5" y="-172" font-family="Helvetica,sans-Serif" font-size="10.00">logger.h</text>
</a>
</g>
</g>
<!-- Node1&#45;&gt;Node19 -->
<g id="edge20_Node000001_Node000019" class="edge">
<title>Node1&#45;&gt;Node19</title>
<g id="a_edge20_Node000001_Node000019"><a xlink:title=" ">
<path fill="none" stroke="#63b8ff" d="M662.5,-264.48C662.5,-240.84 662.5,-201.5 662.5,-184.16"/>
<polygon fill="#63b8ff" stroke="#63b8ff" points="659,-264.66 662.5,-274.66 666,-264.66 659,-264.66"/>
</a>
</g>
</g>
<!-- Node20 -->
<g id="Node000020" class="node">
<title>Node20</title>
<g id="a_Node000020"><a xlink:href="logger__config_8h.html" target="_top" xlink:title=" ">
<polygon fill="white" stroke="#666666" points="825,-184 734,-184 734,-165 825,-165 825,-184"/>
<text text-anchor="middle" x="779.5" y="-172" font-family="Helvetica,sans-Serif" font-size="10.00">logger_config.h</text>
</a>
</g>
</g>
<!-- Node1&#45;&gt;Node20 -->
<g id="edge23_Node000001_Node000020" class="edge">
<title>Node1&#45;&gt;Node20</title>
<g id="a_edge23_Node000001_Node000020"><a xlink:title=" ">
<path fill="none" stroke="#63b8ff" d="M675.8,-266.92C686.85,-253.59 703.33,-234.73 719.5,-220 734.65,-206.2 753.95,-192.49 766.51,-184.01"/>
<polygon fill="#63b8ff" stroke="#63b8ff" points="672.99,-264.82 669.38,-274.78 678.41,-269.25 672.99,-264.82"/>
</a>
</g>
</g>
<!-- Node3 -->
<g id="Node000003" class="node">
<title>Node3</title>
<g id="a_Node000003"><a xlink:href="console__writer_8h.html" target="_top" xlink:title=" ">
<polygon fill="white" stroke="#666666" points="110.5,-129 14.5,-129 14.5,-110 110.5,-110 110.5,-129"/>
<text text-anchor="middle" x="62.5" y="-117" font-family="Helvetica,sans-Serif" font-size="10.00">console_writer.h</text>
</a>
</g>
</g>
<!-- Node2&#45;&gt;Node3 -->
<g id="edge2_Node000002_Node000003" class="edge">
<title>Node2&#45;&gt;Node3</title>
<g id="a_edge2_Node000002_Node000003"><a xlink:title=" ">
<path fill="none" stroke="#63b8ff" d="M431.17,-167.33C361.63,-158.91 233.63,-143.26 124.5,-129 119.98,-128.41 115.27,-127.78 110.56,-127.15"/>
<polygon fill="#63b8ff" stroke="#63b8ff" points="431.06,-170.84 441.4,-168.56 431.9,-163.89 431.06,-170.84"/>
</a>
</g>
</g>
<!-- Node5 -->
<g id="Node000005" class="node">
<title>Node5</title>
<g id="a_Node000005"><a xlink:href="encrypted__writer_8h.html" target="_top" xlink:title=" ">
<polygon fill="white" stroke="#666666" points="241,-129 134,-129 134,-110 241,-110 241,-129"/>
<text text-anchor="middle" x="187.5" y="-117" font-family="Helvetica,sans-Serif" font-size="10.00">encrypted_writer.h</text>
</a>
</g>
</g>
<!-- Node2&#45;&gt;Node5 -->
<g id="edge4_Node000002_Node000005" class="edge">
<title>Node2&#45;&gt;Node5</title>
<g id="a_edge4_Node000002_Node000005"><a xlink:title=" ">
<path fill="none" stroke="#63b8ff" d="M431.56,-164.35C376.32,-154.42 288.85,-138.71 235,-129.03"/>
<polygon fill="#63b8ff" stroke="#63b8ff" points="431.02,-167.81 441.48,-166.13 432.26,-160.92 431.02,-167.81"/>
</a>
</g>
</g>
<!-- Node7 -->
<g id="Node000007" class="node">
<title>Node7</title>
<g id="a_Node000007"><a xlink:href="file__writer_8h.html" target="_top" xlink:title=" ">
<polygon fill="white" stroke="#666666" points="338.5,-129 264.5,-129 264.5,-110 338.5,-110 338.5,-129"/>
<text text-anchor="middle" x="301.5" y="-117" font-family="Helvetica,sans-Serif" font-size="10.00">file_writer.h</text>
</a>
</g>
</g>
<!-- Node2&#45;&gt;Node7 -->
<g id="edge6_Node000002_Node000007" class="edge">
<title>Node2&#45;&gt;Node7</title>
<g id="a_edge6_Node000002_Node000007"><a xlink:title=" ">
<path fill="none" stroke="#63b8ff" d="M443.42,-162.06C409.59,-152.15 361.42,-138.04 330.81,-129.08"/>
<polygon fill="#63b8ff" stroke="#63b8ff" points="442.84,-165.53 453.42,-164.98 444.81,-158.82 442.84,-165.53"/>
</a>
</g>
</g>
<!-- Node11 -->
<g id="Node000011" class="node">
<title>Node11</title>
<g id="a_Node000011"><a xlink:href="log__collector_8cpp.html" target="_top" xlink:title=" ">
<polygon fill="white" stroke="#666666" points="454.5,-129 356.5,-129 356.5,-110 454.5,-110 454.5,-129"/>
<text text-anchor="middle" x="405.5" y="-117" font-family="Helvetica,sans-Serif" font-size="10.00">log_collector.cpp</text>
</a>
</g>
</g>
<!-- Node2&#45;&gt;Node11 -->
<g id="edge10_Node000002_Node000011" class="edge">
<title>Node2&#45;&gt;Node11</title>
<g id="a_edge10_Node000002_Node000011"><a xlink:title=" ">
<path fill="none" stroke="#63b8ff" d="M461.65,-159.15C447.74,-149.57 429.89,-137.29 418.1,-129.17"/>
<polygon fill="#63b8ff" stroke="#63b8ff" points="459.91,-162.2 470.13,-164.98 463.88,-156.43 459.91,-162.2"/>
</a>
</g>
</g>
<!-- Node12 -->
<g id="Node000012" class="node">
<title>Node12</title>
<g id="a_Node000012"><a xlink:href="log__router_8h.html" target="_top" xlink:title=" ">
<polygon fill="white" stroke="#666666" points="584.5,-129 510.5,-129 510.5,-110 584.5,-110 584.5,-129"/>
<text text-anchor="middle" x="547.5" y="-117" font-family="Helvetica,sans-Serif" font-size="10.00">log_router.h</text>
</a>
</g>
</g>
<!-- Node2&#45;&gt;Node12 -->
<g id="edge11_Node000002_Node000012" class="edge">
<title>Node2&#45;&gt;Node12</title>
<g id="a_edge11_Node000002_Node000012"><a xlink:title=" ">
<path fill="none" stroke="#63b8ff" d="M500.77,-158.6C512.42,-149.11 527.1,-137.13 536.87,-129.17"/>
<polygon fill="#63b8ff" stroke="#63b8ff" points="498.48,-155.95 492.94,-164.98 502.91,-161.38 498.48,-155.95"/>
</a>
</g>
</g>
<!-- Node13 -->
<g id="Node000013" class="node">
<title>Node13</title>
<g id="a_Node000013"><a xlink:href="logger_8cpp.html" target="_top" xlink:title=" ">
<polygon fill="white" stroke="#666666" points="581,-74 514,-74 514,-55 581,-55 581,-74"/>
<text text-anchor="middle" x="547.5" y="-62" font-family="Helvetica,sans-Serif" font-size="10.00">logger.cpp</text>
</a>
</g>
</g>
<!-- Node2&#45;&gt;Node13 -->
<g id="edge13_Node000002_Node000013" class="edge">
<title>Node2&#45;&gt;Node13</title>
<g id="a_edge13_Node000002_Node000013"><a xlink:title=" ">
<path fill="none" stroke="#63b8ff" d="M485.48,-154.86C488.19,-141.62 493.09,-123.83 501.5,-110 510.39,-95.38 525.23,-82.25 535.65,-74.1"/>
<polygon fill="#63b8ff" stroke="#63b8ff" points="482.03,-154.25 483.68,-164.71 488.92,-155.5 482.03,-154.25"/>
</a>
</g>
</g>
<!-- Node14 -->
<g id="Node000014" class="node">
<title>Node14</title>
<g id="a_Node000014"><a xlink:href="logger__builder_8h.html" target="_top" xlink:title=" ">
<polygon fill="white" stroke="#666666" points="852,-129 757,-129 757,-110 852,-110 852,-129"/>
<text text-anchor="middle" x="804.5" y="-117" font-family="Helvetica,sans-Serif" font-size="10.00">logger_builder.h</text>
</a>
</g>
</g>
<!-- Node2&#45;&gt;Node14 -->
<g id="edge14_Node000002_Node000014" class="edge">
<title>Node2&#45;&gt;Node14</title>
<g id="a_edge14_Node000002_Node000014"><a xlink:title=" ">
<path fill="none" stroke="#63b8ff" d="M533.84,-165.05C595.22,-154.95 697.13,-138.17 756.84,-128.35"/>
<polygon fill="#63b8ff" stroke="#63b8ff" points="532.91,-161.66 523.61,-166.73 534.04,-168.56 532.91,-161.66"/>
</a>
</g>
</g>
<!-- Node15 -->
<g id="Node000015" class="node">
<title>Node15</title>
<g id="a_Node000015"><a xlink:href="network__writer_8h.html" target="_top" xlink:title=" ">
<polygon fill="white" stroke="#666666" points="738.5,-129 640.5,-129 640.5,-110 738.5,-110 738.5,-129"/>
<text text-anchor="middle" x="689.5" y="-117" font-family="Helvetica,sans-Serif" font-size="10.00">network_writer.h</text>
</a>
</g>
</g>
<!-- Node2&#45;&gt;Node15 -->
<g id="edge15_Node000002_Node000015" class="edge">
<title>Node2&#45;&gt;Node15</title>
<g id="a_edge15_Node000002_Node000015"><a xlink:title=" ">
<path fill="none" stroke="#63b8ff" d="M525.71,-162.44C564.46,-152.52 620.53,-138.16 655.98,-129.08"/>
<polygon fill="#63b8ff" stroke="#63b8ff" points="524.58,-159.11 515.76,-164.98 526.31,-165.89 524.58,-159.11"/>
</a>
</g>
</g>
<!-- Node4 -->
<g id="Node000004" class="node">
<title>Node4</title>
<g id="a_Node000004"><a xlink:href="console__writer_8cpp.html" target="_top" xlink:title=" ">
<polygon fill="white" stroke="#666666" points="107,-74 0,-74 0,-55 107,-55 107,-74"/>
<text text-anchor="middle" x="53.5" y="-62" font-family="Helvetica,sans-Serif" font-size="10.00">console_writer.cpp</text>
</a>
</g>
</g>
<!-- Node3&#45;&gt;Node4 -->
<g id="edge3_Node000003_Node000004" class="edge">
<title>Node3&#45;&gt;Node4</title>
<g id="a_edge3_Node000003_Node000004"><a xlink:title=" ">
<path fill="none" stroke="#63b8ff" d="M59.3,-99.66C57.82,-90.93 56.13,-80.99 54.96,-74.09"/>
<polygon fill="#63b8ff" stroke="#63b8ff" points="55.89,-100.48 61.01,-109.75 62.79,-99.3 55.89,-100.48"/>
</a>
</g>
</g>
<!-- Node6 -->
<g id="Node000006" class="node">
<title>Node6</title>
<g id="a_Node000006"><a xlink:href="encrypted__writer_8cpp.html" target="_top" xlink:title=" ">
<polygon fill="white" stroke="#666666" points="244,-74 125,-74 125,-55 244,-55 244,-74"/>
<text text-anchor="middle" x="184.5" y="-62" font-family="Helvetica,sans-Serif" font-size="10.00">encrypted_writer.cpp</text>
</a>
</g>
</g>
<!-- Node5&#45;&gt;Node6 -->
<g id="edge5_Node000005_Node000006" class="edge">
<title>Node5&#45;&gt;Node6</title>
<g id="a_edge5_Node000005_Node000006"><a xlink:title=" ">
<path fill="none" stroke="#63b8ff" d="M186.43,-99.66C185.94,-90.93 185.38,-80.99 184.99,-74.09"/>
<polygon fill="#63b8ff" stroke="#63b8ff" points="182.94,-99.96 187,-109.75 189.93,-99.57 182.94,-99.96"/>
</a>
</g>
</g>
<!-- Node8 -->
<g id="Node000008" class="node">
<title>Node8</title>
<g id="a_Node000008"><a xlink:href="file__writer_8cpp.html" target="_top" xlink:title=" ">
<polygon fill="white" stroke="#666666" points="347,-74 262,-74 262,-55 347,-55 347,-74"/>
<text text-anchor="middle" x="304.5" y="-62" font-family="Helvetica,sans-Serif" font-size="10.00">file_writer.cpp</text>
</a>
</g>
</g>
<!-- Node7&#45;&gt;Node8 -->
<g id="edge7_Node000007_Node000008" class="edge">
<title>Node7&#45;&gt;Node8</title>
<g id="a_edge7_Node000007_Node000008"><a xlink:title=" ">
<path fill="none" stroke="#63b8ff" d="M302.57,-99.66C303.06,-90.93 303.62,-80.99 304.01,-74.09"/>
<polygon fill="#63b8ff" stroke="#63b8ff" points="299.07,-99.57 302,-109.75 306.06,-99.96 299.07,-99.57"/>
</a>
</g>
</g>
<!-- Node9 -->
<g id="Node000009" class="node">
<title>Node9</title>
<g id="a_Node000009"><a xlink:href="rotating__file__writer_8h.html" target="_top" xlink:title=" ">
<polygon fill="white" stroke="#666666" points="482,-74 365,-74 365,-55 482,-55 482,-74"/>
<text text-anchor="middle" x="423.5" y="-62" font-family="Helvetica,sans-Serif" font-size="10.00">rotating_file_writer.h</text>
</a>
</g>
</g>
<!-- Node7&#45;&gt;Node9 -->
<g id="edge8_Node000007_Node000009" class="edge">
<title>Node7&#45;&gt;Node9</title>
<g id="a_edge8_Node000007_Node000009"><a xlink:title=" ">
<path fill="none" stroke="#63b8ff" d="M330.51,-105.9C353.04,-96.11 383.7,-82.79 403.54,-74.17"/>
<polygon fill="#63b8ff" stroke="#63b8ff" points="328.88,-102.79 321.1,-109.98 331.67,-109.21 328.88,-102.79"/>
</a>
</g>
</g>
<!-- Node10 -->
<g id="Node000010" class="node">
<title>Node10</title>
<g id="a_Node000010"><a xlink:href="rotating__file__writer_8cpp.html" target="_top" xlink:title=" ">
<polygon fill="white" stroke="#666666" points="487.5,-19 359.5,-19 359.5,0 487.5,0 487.5,-19"/>
<text text-anchor="middle" x="423.5" y="-7" font-family="Helvetica,sans-Serif" font-size="10.00">rotating_file_writer.cpp</text>
</a>
</g>
</g>
<!-- Node9&#45;&gt;Node10 -->
<g id="edge9_Node000009_Node000010" class="edge">
<title>Node9&#45;&gt;Node10</title>
<g id="a_edge9_Node000009_Node000010"><a xlink:title=" ">
<path fill="none" stroke="#63b8ff" d="M423.5,-44.66C423.5,-35.93 423.5,-25.99 423.5,-19.09"/>
<polygon fill="#63b8ff" stroke="#63b8ff" points="420,-44.75 423.5,-54.75 427,-44.75 420,-44.75"/>
</a>
</g>
</g>
<!-- Node12&#45;&gt;Node13 -->
<g id="edge12_Node000012_Node000013" class="edge">
<title>Node12&#45;&gt;Node13</title>
<g id="a_edge12_Node000012_Node000013"><a xlink:title=" ">
<path fill="none" stroke="#63b8ff" d="M547.5,-99.66C547.5,-90.93 547.5,-80.99 547.5,-74.09"/>
<polygon fill="#63b8ff" stroke="#63b8ff" points="544,-99.75 547.5,-109.75 551,-99.75 544,-99.75"/>
</a>
</g>
</g>
<!-- Node16 -->
<g id="Node000016" class="node">
<title>Node16</title>
<g id="a_Node000016"><a xlink:href="network__writer_8cpp.html" target="_top" xlink:title=" ">
<polygon fill="white" stroke="#666666" points="744.5,-74 634.5,-74 634.5,-55 744.5,-55 744.5,-74"/>
<text text-anchor="middle" x="689.5" y="-62" font-family="Helvetica,sans-Serif" font-size="10.00">network_writer.cpp</text>
</a>
</g>
</g>
<!-- Node15&#45;&gt;Node16 -->
<g id="edge16_Node000015_Node000016" class="edge">
<title>Node15&#45;&gt;Node16</title>
<g id="a_edge16_Node000015_Node000016"><a xlink:title=" ">
<path fill="none" stroke="#63b8ff" d="M689.5,-99.66C689.5,-90.93 689.5,-80.99 689.5,-74.09"/>
<polygon fill="#63b8ff" stroke="#63b8ff" points="686,-99.75 689.5,-109.75 693,-99.75 686,-99.75"/>
</a>
</g>
</g>
<!-- Node18&#45;&gt;Node2 -->
<g id="edge19_Node000018_Node000002" class="edge">
<title>Node18&#45;&gt;Node2</title>
<g id="a_edge19_Node000018_Node000002"><a xlink:title=" ">
<path fill="none" stroke="#63b8ff" d="M549.06,-214.7C532.66,-205.04 511.27,-192.44 497.22,-184.17"/>
<polygon fill="#63b8ff" stroke="#63b8ff" points="547.65,-217.93 558.04,-219.98 551.2,-211.89 547.65,-217.93"/>
</a>
</g>
</g>
<!-- Node19&#45;&gt;Node13 -->
<g id="edge21_Node000019_Node000013" class="edge">
<title>Node19&#45;&gt;Node13</title>
<g id="a_edge21_Node000019_Node000013"><a xlink:title=" ">
<path fill="none" stroke="#63b8ff" d="M645.58,-157.61C620.94,-134.47 576.02,-92.29 556.72,-74.16"/>
<polygon fill="#63b8ff" stroke="#63b8ff" points="643.4,-160.37 653.09,-164.66 648.2,-155.26 643.4,-160.37"/>
</a>
</g>
</g>
<!-- Node19&#45;&gt;Node14 -->
<g id="edge22_Node000019_Node000014" class="edge">
<title>Node19&#45;&gt;Node14</title>
<g id="a_edge22_Node000019_Node000014"><a xlink:title=" ">
<path fill="none" stroke="#63b8ff" d="M694.86,-161.42C721.21,-151.59 757.76,-137.95 781.27,-129.17"/>
<polygon fill="#63b8ff" stroke="#63b8ff" points="693.46,-158.21 685.31,-164.98 695.91,-164.77 693.46,-158.21"/>
</a>
</g>
</g>
<!-- Node20&#45;&gt;Node14 -->
<g id="edge24_Node000020_Node000014" class="edge">
<title>Node20&#45;&gt;Node14</title>
<g id="a_edge24_Node000020_Node000014"><a xlink:title=" ">
<path fill="none" stroke="#63b8ff" d="M787.98,-155.53C792.19,-146.6 797.09,-136.22 800.45,-129.09"/>
<polygon fill="#63b8ff" stroke="#63b8ff" points="784.73,-154.21 783.63,-164.75 791.06,-157.2 784.73,-154.21"/>
</a>
</g>
</g>
</g>
</svg>
