<?xml version="1.0" encoding="UTF-8" standalone="no"?>
<!DOCTYPE svg PUBLIC "-//W3C//DTD SVG 1.1//EN"
 "http://www.w3.org/Graphics/SVG/1.1/DTD/svg11.dtd">
<!-- Generated by graphviz version 2.43.0 (0)
 -->
<!-- Title: error_codes.h Pages: 1 -->
<svg width="1520pt" height="423pt"
 viewBox="0.00 0.00 1520.00 423.00" xmlns="http://www.w3.org/2000/svg" xmlns:xlink="http://www.w3.org/1999/xlink">
<g id="graph0" class="graph" transform="scale(1 1) rotate(0) translate(4 419)">
<title>error_codes.h</title>
<!-- Node1 -->
<g id="Node000001" class="node">
<title>Node1</title>
<g id="a_Node000001"><a xlink:title=" ">
<polygon fill="#999999" stroke="#666666" points="1002.5,-415 919.5,-415 919.5,-396 1002.5,-396 1002.5,-415"/>
<text text-anchor="middle" x="961" y="-403" font-family="Helvetica,sans-Serif" font-size="10.00">error_codes.h</text>
</a>
</g>
</g>
<!-- Node2 -->
<g id="Node000002" class="node">
<title>Node2</title>
<g id="a_Node000002"><a xlink:href="base__writer_8h.html" target="_top" xlink:title=" ">
<polygon fill="white" stroke="#666666" points="551,-184 469,-184 469,-165 551,-165 551,-184"/>
<text text-anchor="middle" x="510" y="-172" font-family="Helvetica,sans-Serif" font-size="10.00">base_writer.h</text>
</a>
</g>
</g>
<!-- Node1&#45;&gt;Node2 -->
<g id="edge1_Node000001_Node000002" class="edge">
<title>Node1&#45;&gt;Node2</title>
<g id="a_edge1_Node000001_Node000002"><a xlink:title=" ">
<path fill="none" stroke="#63b8ff" d="M909.13,-401.84C807.74,-396.17 590.91,-381.67 565,-360 509.62,-313.68 508.54,-214.18 509.55,-184.21"/>
<polygon fill="#63b8ff" stroke="#63b8ff" points="908.97,-405.33 919.15,-402.39 909.36,-398.34 908.97,-405.33"/>
</a>
</g>
</g>
<!-- Node20 -->
<g id="Node000020" class="node">
<title>Node20</title>
<g id="a_Node000020"><a xlink:href="config__strategy__interface_8h.html" target="_top" xlink:title=" ">
<polygon fill="white" stroke="#666666" points="1336.5,-305 1187.5,-305 1187.5,-286 1336.5,-286 1336.5,-305"/>
<text text-anchor="middle" x="1262" y="-293" font-family="Helvetica,sans-Serif" font-size="10.00">config_strategy_interface.h</text>
</a>
</g>
</g>
<!-- Node1&#45;&gt;Node20 -->
<g id="edge21_Node000001_Node000020" class="edge">
<title>Node1&#45;&gt;Node20</title>
<g id="a_edge21_Node000001_Node000020"><a xlink:title=" ">
<path fill="none" stroke="#63b8ff" d="M996.04,-392.64C1022.02,-383.79 1058.29,-371.32 1090,-360 1143.66,-340.84 1206.37,-317.43 1239.24,-305.08"/>
<polygon fill="#63b8ff" stroke="#63b8ff" points="994.61,-389.43 986.27,-395.96 996.86,-396.06 994.61,-389.43"/>
</a>
</g>
</g>
<!-- Node21 -->
<g id="Node000021" class="node">
<title>Node21</title>
<g id="a_Node000021"><a xlink:href="di__container__interface_8h.html" target="_top" xlink:title="Abstract interface for dependency injection container.">
<polygon fill="white" stroke="#666666" points="995,-305 861,-305 861,-286 995,-286 995,-305"/>
<text text-anchor="middle" x="928" y="-293" font-family="Helvetica,sans-Serif" font-size="10.00">di_container_interface.h</text>
</a>
</g>
</g>
<!-- Node1&#45;&gt;Node21 -->
<g id="edge23_Node000001_Node000021" class="edge">
<title>Node1&#45;&gt;Node21</title>
<g id="a_edge23_Node000001_Node000021"><a xlink:title=" ">
<path fill="none" stroke="#63b8ff" d="M950.44,-387.26C945.96,-379.23 941.08,-369.4 938,-360 931.81,-341.12 929.4,-317.8 928.5,-305.34"/>
<polygon fill="#63b8ff" stroke="#63b8ff" points="947.48,-389.13 955.55,-396 953.53,-385.6 947.48,-389.13"/>
</a>
</g>
</g>
<!-- Node23 -->
<g id="Node000023" class="node">
<title>Node23</title>
<g id="a_Node000023"><a xlink:href="logger_8h.html" target="_top" xlink:title=" ">
<polygon fill="white" stroke="#666666" points="903,-129 847,-129 847,-110 903,-110 903,-129"/>
<text text-anchor="middle" x="875" y="-117" font-family="Helvetica,sans-Serif" font-size="10.00">logger.h</text>
</a>
</g>
</g>
<!-- Node1&#45;&gt;Node23 -->
<g id="edge38_Node000001_Node000023" class="edge">
<title>Node1&#45;&gt;Node23</title>
<g id="a_edge38_Node000001_Node000023"><a xlink:title=" ">
<path fill="none" stroke="#63b8ff" d="M909.39,-400.74C805.08,-391.73 579,-364.37 579,-296.5 579,-296.5 579,-296.5 579,-234 579,-180.37 628.93,-186.64 678,-165 693.36,-158.23 795.98,-136.69 846.71,-126.26"/>
<polygon fill="#63b8ff" stroke="#63b8ff" points="909.13,-404.23 919.39,-401.58 909.72,-397.26 909.13,-404.23"/>
</a>
</g>
</g>
<!-- Node26 -->
<g id="Node000026" class="node">
<title>Node26</title>
<g id="a_Node000026"><a xlink:href="health__check__system_8h.html" target="_top" xlink:title=" ">
<polygon fill="white" stroke="#666666" points="1155.5,-305 1024.5,-305 1024.5,-286 1155.5,-286 1155.5,-305"/>
<text text-anchor="middle" x="1090" y="-293" font-family="Helvetica,sans-Serif" font-size="10.00">health_check_system.h</text>
</a>
</g>
</g>
<!-- Node1&#45;&gt;Node26 -->
<g id="edge33_Node000001_Node000026" class="edge">
<title>Node1&#45;&gt;Node26</title>
<g id="a_edge33_Node000001_Node000026"><a xlink:title=" ">
<path fill="none" stroke="#63b8ff" d="M1012.36,-394.03C1033.09,-387.42 1055.67,-376.83 1071,-360 1085.25,-344.34 1088.83,-318.39 1089.72,-305.03"/>
<polygon fill="#63b8ff" stroke="#63b8ff" points="1011.29,-390.69 1002.69,-396.87 1013.27,-397.41 1011.29,-390.69"/>
</a>
</g>
</g>
<!-- Node27 -->
<g id="Node000027" class="node">
<title>Node27</title>
<g id="a_Node000027"><a xlink:href="log__sink__interface_8h.html" target="_top" xlink:title=" ">
<polygon fill="white" stroke="#666666" points="1061.5,-360 946.5,-360 946.5,-341 1061.5,-341 1061.5,-360"/>
<text text-anchor="middle" x="1004" y="-348" font-family="Helvetica,sans-Serif" font-size="10.00">log_sink_interface.h</text>
</a>
</g>
</g>
<!-- Node1&#45;&gt;Node27 -->
<g id="edge35_Node000001_Node000027" class="edge">
<title>Node1&#45;&gt;Node27</title>
<g id="a_edge35_Node000001_Node000027"><a xlink:title=" ">
<path fill="none" stroke="#63b8ff" d="M974.42,-387.96C981.91,-378.72 990.94,-367.6 997.03,-360.09"/>
<polygon fill="#63b8ff" stroke="#63b8ff" points="971.68,-385.78 968.1,-395.75 977.12,-390.19 971.68,-385.78"/>
</a>
</g>
</g>
<!-- Node28 -->
<g id="Node000028" class="node">
<title>Node28</title>
<g id="a_Node000028"><a xlink:href="log__writer__interface_8h.html" target="_top" xlink:title=" ">
<polygon fill="white" stroke="#666666" points="512.5,-360 389.5,-360 389.5,-341 512.5,-341 512.5,-360"/>
<text text-anchor="middle" x="451" y="-348" font-family="Helvetica,sans-Serif" font-size="10.00">log_writer_interface.h</text>
</a>
</g>
</g>
<!-- Node1&#45;&gt;Node28 -->
<g id="edge36_Node000001_Node000028" class="edge">
<title>Node1&#45;&gt;Node28</title>
<g id="a_edge36_Node000001_Node000028"><a xlink:title=" ">
<path fill="none" stroke="#63b8ff" d="M909.42,-399.37C828.1,-391.24 665.12,-374.81 527,-360 522.38,-359.5 517.6,-358.99 512.8,-358.46"/>
<polygon fill="#63b8ff" stroke="#63b8ff" points="909.1,-402.85 919.39,-400.36 909.79,-395.89 909.1,-402.85"/>
</a>
</g>
</g>
<!-- Node29 -->
<g id="Node000029" class="node">
<title>Node29</title>
<g id="a_Node000029"><a xlink:href="logger__config_8h.html" target="_top" xlink:title=" ">
<polygon fill="white" stroke="#666666" points="1307.5,-360 1216.5,-360 1216.5,-341 1307.5,-341 1307.5,-360"/>
<text text-anchor="middle" x="1262" y="-348" font-family="Helvetica,sans-Serif" font-size="10.00">logger_config.h</text>
</a>
</g>
</g>
<!-- Node1&#45;&gt;Node29 -->
<g id="edge39_Node000001_Node000029" class="edge">
<title>Node1&#45;&gt;Node29</title>
<g id="a_edge39_Node000001_Node000029"><a xlink:title=" ">
<path fill="none" stroke="#63b8ff" d="M1012.48,-395.44C1069.82,-385.34 1161.65,-369.17 1216.47,-359.52"/>
<polygon fill="#63b8ff" stroke="#63b8ff" points="1011.78,-392.01 1002.54,-397.19 1012.99,-398.9 1011.78,-392.01"/>
</a>
</g>
</g>
<!-- Node30 -->
<g id="Node000030" class="node">
<title>Node30</title>
<g id="a_Node000030"><a xlink:href="monitoring__interface_8h.html" target="_top" xlink:title="Abstract interface for monitoring and metrics collection.">
<polygon fill="white" stroke="#666666" points="823,-360 695,-360 695,-341 823,-341 823,-360"/>
<text text-anchor="middle" x="759" y="-348" font-family="Helvetica,sans-Serif" font-size="10.00">monitoring_interface.h</text>
</a>
</g>
</g>
<!-- Node1&#45;&gt;Node30 -->
<g id="edge42_Node000001_Node000030" class="edge">
<title>Node1&#45;&gt;Node30</title>
<g id="a_edge42_Node000001_Node000030"><a xlink:title=" ">
<path fill="none" stroke="#63b8ff" d="M918.84,-393.44C881.02,-383.52 826.31,-369.16 791.71,-360.08"/>
<polygon fill="#63b8ff" stroke="#63b8ff" points="917.98,-396.83 928.55,-395.98 919.76,-390.06 917.98,-396.83"/>
</a>
</g>
</g>
<!-- Node34 -->
<g id="Node000034" class="node">
<title>Node34</title>
<g id="a_Node000034"><a xlink:href="overflow__policy_8h.html" target="_top" xlink:title=" ">
<polygon fill="white" stroke="#666666" points="1471.5,-360 1370.5,-360 1370.5,-341 1471.5,-341 1471.5,-360"/>
<text text-anchor="middle" x="1421" y="-348" font-family="Helvetica,sans-Serif" font-size="10.00">overflow_policy.h</text>
</a>
</g>
</g>
<!-- Node1&#45;&gt;Node34 -->
<g id="edge52_Node000001_Node000034" class="edge">
<title>Node1&#45;&gt;Node34</title>
<g id="a_edge52_Node000001_Node000034"><a xlink:title=" ">
<path fill="none" stroke="#63b8ff" d="M1012.75,-398.54C1101.68,-388.29 1282.41,-367.47 1370.48,-357.32"/>
<polygon fill="#63b8ff" stroke="#63b8ff" points="1012.17,-395.08 1002.63,-399.7 1012.97,-402.04 1012.17,-395.08"/>
</a>
</g>
</g>
<!-- Node3 -->
<g id="Node000003" class="node">
<title>Node3</title>
<g id="a_Node000003"><a xlink:href="batch__writer_8h.html" target="_top" xlink:title=" ">
<polygon fill="white" stroke="#666666" points="791,-129 705,-129 705,-110 791,-110 791,-129"/>
<text text-anchor="middle" x="748" y="-117" font-family="Helvetica,sans-Serif" font-size="10.00">batch_writer.h</text>
</a>
</g>
</g>
<!-- Node2&#45;&gt;Node3 -->
<g id="edge2_Node000002_Node000003" class="edge">
<title>Node2&#45;&gt;Node3</title>
<g id="a_edge2_Node000002_Node000003"><a xlink:title=" ">
<path fill="none" stroke="#63b8ff" d="M558.26,-162.75C602.86,-152.82 668.26,-138.26 709.46,-129.08"/>
<polygon fill="#63b8ff" stroke="#63b8ff" points="557.24,-159.39 548.24,-164.98 558.76,-166.23 557.24,-159.39"/>
</a>
</g>
</g>
<!-- Node5 -->
<g id="Node000005" class="node">
<title>Node5</title>
<g id="a_Node000005"><a xlink:href="logger__builder_8h.html" target="_top" xlink:title=" ">
<polygon fill="white" stroke="#666666" points="923.5,-74 828.5,-74 828.5,-55 923.5,-55 923.5,-74"/>
<text text-anchor="middle" x="876" y="-62" font-family="Helvetica,sans-Serif" font-size="10.00">logger_builder.h</text>
</a>
</g>
</g>
<!-- Node2&#45;&gt;Node5 -->
<g id="edge18_Node000002_Node000005" class="edge">
<title>Node2&#45;&gt;Node5</title>
<g id="a_edge18_Node000002_Node000005"><a xlink:title=" ">
<path fill="none" stroke="#63b8ff" d="M561.17,-165.59C562.46,-165.39 563.74,-165.19 565,-165 669.43,-148.93 703.69,-172.47 800,-129 829.15,-115.84 856.06,-88.28 868.6,-74.2"/>
<polygon fill="#63b8ff" stroke="#63b8ff" points="560.49,-162.15 551.14,-167.14 561.56,-169.07 560.49,-162.15"/>
</a>
</g>
</g>
<!-- Node6 -->
<g id="Node000006" class="node">
<title>Node6</title>
<g id="a_Node000006"><a xlink:href="console__writer_8h.html" target="_top" xlink:title=" ">
<polygon fill="white" stroke="#666666" points="338,-129 242,-129 242,-110 338,-110 338,-129"/>
<text text-anchor="middle" x="290" y="-117" font-family="Helvetica,sans-Serif" font-size="10.00">console_writer.h</text>
</a>
</g>
</g>
<!-- Node2&#45;&gt;Node6 -->
<g id="edge5_Node000002_Node000006" class="edge">
<title>Node2&#45;&gt;Node6</title>
<g id="a_edge5_Node000002_Node000006"><a xlink:title=" ">
<path fill="none" stroke="#63b8ff" d="M464.87,-162.63C423.66,-152.7 363.55,-138.22 325.62,-129.08"/>
<polygon fill="#63b8ff" stroke="#63b8ff" points="464.11,-166.05 474.65,-164.98 465.75,-159.24 464.11,-166.05"/>
</a>
</g>
</g>
<!-- Node8 -->
<g id="Node000008" class="node">
<title>Node8</title>
<g id="a_Node000008"><a xlink:href="encrypted__writer_8h.html" target="_top" xlink:title=" ">
<polygon fill="white" stroke="#666666" points="463.5,-129 356.5,-129 356.5,-110 463.5,-110 463.5,-129"/>
<text text-anchor="middle" x="410" y="-117" font-family="Helvetica,sans-Serif" font-size="10.00">encrypted_writer.h</text>
</a>
</g>
</g>
<!-- Node2&#45;&gt;Node8 -->
<g id="edge7_Node000002_Node000008" class="edge">
<title>Node2&#45;&gt;Node8</title>
<g id="a_edge7_Node000002_Node000008"><a xlink:title=" ">
<path fill="none" stroke="#63b8ff" d="M484.97,-160.23C466.63,-150.51 442.26,-137.6 426.36,-129.17"/>
<polygon fill="#63b8ff" stroke="#63b8ff" points="483.46,-163.39 493.93,-164.98 486.74,-157.21 483.46,-163.39"/>
</a>
</g>
</g>
<!-- Node10 -->
<g id="Node000010" class="node">
<title>Node10</title>
<g id="a_Node000010"><a xlink:href="file__writer_8h.html" target="_top" xlink:title=" ">
<polygon fill="white" stroke="#666666" points="556,-129 482,-129 482,-110 556,-110 556,-129"/>
<text text-anchor="middle" x="519" y="-117" font-family="Helvetica,sans-Serif" font-size="10.00">file_writer.h</text>
</a>
</g>
</g>
<!-- Node2&#45;&gt;Node10 -->
<g id="edge9_Node000002_Node000010" class="edge">
<title>Node2&#45;&gt;Node10</title>
<g id="a_edge9_Node000002_Node000010"><a xlink:title=" ">
<path fill="none" stroke="#63b8ff" d="M513.2,-154.66C514.68,-145.93 516.37,-135.99 517.54,-129.09"/>
<polygon fill="#63b8ff" stroke="#63b8ff" points="509.71,-154.3 511.49,-164.75 516.61,-155.48 509.71,-154.3"/>
</a>
</g>
</g>
<!-- Node14 -->
<g id="Node000014" class="node">
<title>Node14</title>
<g id="a_Node000014"><a xlink:href="health__check__system_8cpp.html" target="_top" xlink:title=" ">
<polygon fill="white" stroke="#666666" points="1189.5,-129 1046.5,-129 1046.5,-110 1189.5,-110 1189.5,-129"/>
<text text-anchor="middle" x="1118" y="-117" font-family="Helvetica,sans-Serif" font-size="10.00">health_check_system.cpp</text>
</a>
</g>
</g>
<!-- Node2&#45;&gt;Node14 -->
<g id="edge13_Node000002_Node000014" class="edge">
<title>Node2&#45;&gt;Node14</title>
<g id="a_edge13_Node000002_Node000014"><a xlink:title=" ">
<path fill="none" stroke="#63b8ff" d="M561.35,-169.02C669.77,-159.57 922.27,-137.56 1046.45,-126.74"/>
<polygon fill="#63b8ff" stroke="#63b8ff" points="560.97,-165.54 551.31,-169.9 561.58,-172.52 560.97,-165.54"/>
</a>
</g>
</g>
<!-- Node15 -->
<g id="Node000015" class="node">
<title>Node15</title>
<g id="a_Node000015"><a xlink:href="log__collector_8cpp.html" target="_top" xlink:title=" ">
<polygon fill="white" stroke="#666666" points="224,-129 126,-129 126,-110 224,-110 224,-129"/>
<text text-anchor="middle" x="175" y="-117" font-family="Helvetica,sans-Serif" font-size="10.00">log_collector.cpp</text>
</a>
</g>
</g>
<!-- Node2&#45;&gt;Node15 -->
<g id="edge14_Node000002_Node000015" class="edge">
<title>Node2&#45;&gt;Node15</title>
<g id="a_edge14_Node000002_Node000015"><a xlink:title=" ">
<path fill="none" stroke="#63b8ff" d="M458.69,-165.38C394.89,-155.29 286.75,-138.18 224.03,-128.26"/>
<polygon fill="#63b8ff" stroke="#63b8ff" points="458.5,-168.9 468.92,-167 459.59,-161.98 458.5,-168.9"/>
</a>
</g>
</g>
<!-- Node16 -->
<g id="Node000016" class="node">
<title>Node16</title>
<g id="a_Node000016"><a xlink:href="log__router_8h.html" target="_top" xlink:title=" ">
<polygon fill="white" stroke="#666666" points="687,-129 613,-129 613,-110 687,-110 687,-129"/>
<text text-anchor="middle" x="650" y="-117" font-family="Helvetica,sans-Serif" font-size="10.00">log_router.h</text>
</a>
</g>
</g>
<!-- Node2&#45;&gt;Node16 -->
<g id="edge15_Node000002_Node000016" class="edge">
<title>Node2&#45;&gt;Node16</title>
<g id="a_edge15_Node000002_Node000016"><a xlink:title=" ">
<path fill="none" stroke="#63b8ff" d="M541.91,-161.42C567.88,-151.59 603.92,-137.95 627.1,-129.17"/>
<polygon fill="#63b8ff" stroke="#63b8ff" points="540.61,-158.17 532.49,-164.98 543.08,-164.72 540.61,-158.17"/>
</a>
</g>
</g>
<!-- Node17 -->
<g id="Node000017" class="node">
<title>Node17</title>
<g id="a_Node000017"><a xlink:href="logger_8cpp.html" target="_top" xlink:title=" ">
<polygon fill="white" stroke="#666666" points="695.5,-74 628.5,-74 628.5,-55 695.5,-55 695.5,-74"/>
<text text-anchor="middle" x="662" y="-62" font-family="Helvetica,sans-Serif" font-size="10.00">logger.cpp</text>
</a>
</g>
</g>
<!-- Node2&#45;&gt;Node17 -->
<g id="edge17_Node000002_Node000017" class="edge">
<title>Node2&#45;&gt;Node17</title>
<g id="a_edge17_Node000002_Node000017"><a xlink:title=" ">
<path fill="none" stroke="#63b8ff" d="M530.4,-159.01C562.47,-136.22 623.69,-92.72 649.76,-74.2"/>
<polygon fill="#63b8ff" stroke="#63b8ff" points="528.31,-156.2 522.18,-164.84 532.36,-161.91 528.31,-156.2"/>
</a>
</g>
</g>
<!-- Node18 -->
<g id="Node000018" class="node">
<title>Node18</title>
<g id="a_Node000018"><a xlink:href="network__writer_8h.html" target="_top" xlink:title=" ">
<polygon fill="white" stroke="#666666" points="107,-129 9,-129 9,-110 107,-110 107,-129"/>
<text text-anchor="middle" x="58" y="-117" font-family="Helvetica,sans-Serif" font-size="10.00">network_writer.h</text>
</a>
</g>
</g>
<!-- Node2&#45;&gt;Node18 -->
<g id="edge19_Node000002_Node000018" class="edge">
<title>Node2&#45;&gt;Node18</title>
<g id="a_edge19_Node000002_Node000018"><a xlink:title=" ">
<path fill="none" stroke="#63b8ff" d="M458.81,-168.2C383.75,-160.33 239.45,-144.75 117,-129 113.82,-128.59 110.54,-128.16 107.24,-127.71"/>
<polygon fill="#63b8ff" stroke="#63b8ff" points="458.62,-171.7 468.93,-169.26 459.35,-164.74 458.62,-171.7"/>
</a>
</g>
</g>
<!-- Node4 -->
<g id="Node000004" class="node">
<title>Node4</title>
<g id="a_Node000004"><a xlink:href="batch__writer_8cpp.html" target="_top" xlink:title=" ">
<polygon fill="white" stroke="#666666" points="810.5,-74 713.5,-74 713.5,-55 810.5,-55 810.5,-74"/>
<text text-anchor="middle" x="762" y="-62" font-family="Helvetica,sans-Serif" font-size="10.00">batch_writer.cpp</text>
</a>
</g>
</g>
<!-- Node3&#45;&gt;Node4 -->
<g id="edge3_Node000003_Node000004" class="edge">
<title>Node3&#45;&gt;Node4</title>
<g id="a_edge3_Node000003_Node000004"><a xlink:title=" ">
<path fill="none" stroke="#63b8ff" d="M752.9,-99.95C755.22,-91.15 757.89,-81.06 759.73,-74.09"/>
<polygon fill="#63b8ff" stroke="#63b8ff" points="749.48,-99.19 750.31,-109.75 756.25,-100.97 749.48,-99.19"/>
</a>
</g>
</g>
<!-- Node3&#45;&gt;Node5 -->
<g id="edge4_Node000003_Node000005" class="edge">
<title>Node3&#45;&gt;Node5</title>
<g id="a_edge4_Node000003_Node000005"><a xlink:title=" ">
<path fill="none" stroke="#63b8ff" d="M778.12,-106.03C801.79,-96.23 834.15,-82.83 855.06,-74.17"/>
<polygon fill="#63b8ff" stroke="#63b8ff" points="776.47,-102.93 768.57,-109.98 779.14,-109.39 776.47,-102.93"/>
</a>
</g>
</g>
<!-- Node7 -->
<g id="Node000007" class="node">
<title>Node7</title>
<g id="a_Node000007"><a xlink:href="console__writer_8cpp.html" target="_top" xlink:title=" ">
<polygon fill="white" stroke="#666666" points="235.5,-74 128.5,-74 128.5,-55 235.5,-55 235.5,-74"/>
<text text-anchor="middle" x="182" y="-62" font-family="Helvetica,sans-Serif" font-size="10.00">console_writer.cpp</text>
</a>
</g>
</g>
<!-- Node6&#45;&gt;Node7 -->
<g id="edge6_Node000006_Node000007" class="edge">
<title>Node6&#45;&gt;Node7</title>
<g id="a_edge6_Node000006_Node000007"><a xlink:title=" ">
<path fill="none" stroke="#63b8ff" d="M263.51,-105.5C243.64,-95.75 217,-82.68 199.67,-74.17"/>
<polygon fill="#63b8ff" stroke="#63b8ff" points="262.13,-108.72 272.65,-109.98 265.21,-102.44 262.13,-108.72"/>
</a>
</g>
</g>
<!-- Node9 -->
<g id="Node000009" class="node">
<title>Node9</title>
<g id="a_Node000009"><a xlink:href="encrypted__writer_8cpp.html" target="_top" xlink:title=" ">
<polygon fill="white" stroke="#666666" points="372.5,-74 253.5,-74 253.5,-55 372.5,-55 372.5,-74"/>
<text text-anchor="middle" x="313" y="-62" font-family="Helvetica,sans-Serif" font-size="10.00">encrypted_writer.cpp</text>
</a>
</g>
</g>
<!-- Node8&#45;&gt;Node9 -->
<g id="edge8_Node000008_Node000009" class="edge">
<title>Node8&#45;&gt;Node9</title>
<g id="a_edge8_Node000008_Node000009"><a xlink:title=" ">
<path fill="none" stroke="#63b8ff" d="M385.23,-104.97C367.5,-95.28 344.15,-82.52 328.87,-74.17"/>
<polygon fill="#63b8ff" stroke="#63b8ff" points="383.96,-108.26 394.42,-109.98 387.32,-102.12 383.96,-108.26"/>
</a>
</g>
</g>
<!-- Node11 -->
<g id="Node000011" class="node">
<title>Node11</title>
<g id="a_Node000011"><a xlink:href="file__writer_8cpp.html" target="_top" xlink:title=" ">
<polygon fill="white" stroke="#666666" points="475.5,-74 390.5,-74 390.5,-55 475.5,-55 475.5,-74"/>
<text text-anchor="middle" x="433" y="-62" font-family="Helvetica,sans-Serif" font-size="10.00">file_writer.cpp</text>
</a>
</g>
</g>
<!-- Node10&#45;&gt;Node11 -->
<g id="edge10_Node000010_Node000011" class="edge">
<title>Node10&#45;&gt;Node11</title>
<g id="a_edge10_Node000010_Node000011"><a xlink:title=" ">
<path fill="none" stroke="#63b8ff" d="M496.6,-104.7C480.93,-95.04 460.49,-82.44 447.07,-74.17"/>
<polygon fill="#63b8ff" stroke="#63b8ff" points="494.83,-107.72 505.18,-109.98 498.51,-101.76 494.83,-107.72"/>
</a>
</g>
</g>
<!-- Node12 -->
<g id="Node000012" class="node">
<title>Node12</title>
<g id="a_Node000012"><a xlink:href="rotating__file__writer_8h.html" target="_top" xlink:title=" ">
<polygon fill="white" stroke="#666666" points="610.5,-74 493.5,-74 493.5,-55 610.5,-55 610.5,-74"/>
<text text-anchor="middle" x="552" y="-62" font-family="Helvetica,sans-Serif" font-size="10.00">rotating_file_writer.h</text>
</a>
</g>
</g>
<!-- Node10&#45;&gt;Node12 -->
<g id="edge11_Node000010_Node000012" class="edge">
<title>Node10&#45;&gt;Node12</title>
<g id="a_edge11_Node000010_Node000012"><a xlink:title=" ">
<path fill="none" stroke="#63b8ff" d="M529.83,-101.1C535.47,-92.04 542.12,-81.37 546.65,-74.09"/>
<polygon fill="#63b8ff" stroke="#63b8ff" points="526.76,-99.41 524.45,-109.75 532.71,-103.11 526.76,-99.41"/>
</a>
</g>
</g>
<!-- Node13 -->
<g id="Node000013" class="node">
<title>Node13</title>
<g id="a_Node000013"><a xlink:href="rotating__file__writer_8cpp.html" target="_top" xlink:title=" ">
<polygon fill="white" stroke="#666666" points="616,-19 488,-19 488,0 616,0 616,-19"/>
<text text-anchor="middle" x="552" y="-7" font-family="Helvetica,sans-Serif" font-size="10.00">rotating_file_writer.cpp</text>
</a>
</g>
</g>
<!-- Node12&#45;&gt;Node13 -->
<g id="edge12_Node000012_Node000013" class="edge">
<title>Node12&#45;&gt;Node13</title>
<g id="a_edge12_Node000012_Node000013"><a xlink:title=" ">
<path fill="none" stroke="#63b8ff" d="M552,-44.66C552,-35.93 552,-25.99 552,-19.09"/>
<polygon fill="#63b8ff" stroke="#63b8ff" points="548.5,-44.75 552,-54.75 555.5,-44.75 548.5,-44.75"/>
</a>
</g>
</g>
<!-- Node16&#45;&gt;Node17 -->
<g id="edge16_Node000016_Node000017" class="edge">
<title>Node16&#45;&gt;Node17</title>
<g id="a_edge16_Node000016_Node000017"><a xlink:title=" ">
<path fill="none" stroke="#63b8ff" d="M654.2,-99.95C656.19,-91.15 658.48,-81.06 660.06,-74.09"/>
<polygon fill="#63b8ff" stroke="#63b8ff" points="650.78,-99.22 651.98,-109.75 657.6,-100.77 650.78,-99.22"/>
</a>
</g>
</g>
<!-- Node19 -->
<g id="Node000019" class="node">
<title>Node19</title>
<g id="a_Node000019"><a xlink:href="network__writer_8cpp.html" target="_top" xlink:title=" ">
<polygon fill="white" stroke="#666666" points="110,-74 0,-74 0,-55 110,-55 110,-74"/>
<text text-anchor="middle" x="55" y="-62" font-family="Helvetica,sans-Serif" font-size="10.00">network_writer.cpp</text>
</a>
</g>
</g>
<!-- Node18&#45;&gt;Node19 -->
<g id="edge20_Node000018_Node000019" class="edge">
<title>Node18&#45;&gt;Node19</title>
<g id="a_edge20_Node000018_Node000019"><a xlink:title=" ">
<path fill="none" stroke="#63b8ff" d="M56.93,-99.66C56.44,-90.93 55.88,-80.99 55.49,-74.09"/>
<polygon fill="#63b8ff" stroke="#63b8ff" points="53.44,-99.96 57.5,-109.75 60.43,-99.57 53.44,-99.96"/>
</a>
</g>
</g>
<!-- Node20&#45;&gt;Node5 -->
<g id="edge22_Node000020_Node000005" class="edge">
<title>Node20&#45;&gt;Node5</title>
<g id="a_edge22_Node000020_Node000005"><a xlink:title=" ">
<path fill="none" stroke="#63b8ff" d="M1277.92,-278.34C1284.57,-270.47 1291.54,-260.46 1295,-250 1299.18,-237.34 1298.73,-232.8 1295,-220 1276.86,-157.7 1257.84,-137.36 1199,-110 1151.07,-87.71 1001.18,-74.26 923.6,-68.61"/>
<polygon fill="#63b8ff" stroke="#63b8ff" points="1275.14,-276.2 1271.02,-285.96 1280.33,-280.9 1275.14,-276.2"/>
</a>
</g>
</g>
<!-- Node22 -->
<g id="Node000022" class="node">
<title>Node22</title>
<g id="a_Node000022"><a xlink:href="di__container__factory_8h.html" target="_top" xlink:title="Factory for creating appropriate DI containers.">
<polygon fill="white" stroke="#666666" points="1059,-184 935,-184 935,-165 1059,-165 1059,-184"/>
<text text-anchor="middle" x="997" y="-172" font-family="Helvetica,sans-Serif" font-size="10.00">di_container_factory.h</text>
</a>
</g>
</g>
<!-- Node21&#45;&gt;Node22 -->
<g id="edge24_Node000021_Node000022" class="edge">
<title>Node21&#45;&gt;Node22</title>
<g id="a_edge24_Node000021_Node000022"><a xlink:title=" ">
<path fill="none" stroke="#63b8ff" d="M927.67,-275.36C928.22,-259.5 930.96,-236.89 941,-220 950.39,-204.2 967.64,-191.79 980.52,-184.14"/>
<polygon fill="#63b8ff" stroke="#63b8ff" points="924.17,-275.52 927.59,-285.54 931.17,-275.57 924.17,-275.52"/>
</a>
</g>
</g>
<!-- Node21&#45;&gt;Node23 -->
<g id="edge30_Node000021_Node000023" class="edge">
<title>Node21&#45;&gt;Node23</title>
<g id="a_edge30_Node000021_Node000023"><a xlink:title=" ">
<path fill="none" stroke="#63b8ff" d="M922.38,-276.04C911.04,-238.83 885.83,-156.07 877.63,-129.14"/>
<polygon fill="#63b8ff" stroke="#63b8ff" points="919.04,-277.09 925.3,-285.63 925.73,-275.05 919.04,-277.09"/>
</a>
</g>
</g>
<!-- Node24 -->
<g id="Node000024" class="node">
<title>Node24</title>
<g id="a_Node000024"><a xlink:href="lightweight__di__container_8h.html" target="_top" xlink:title="Lightweight dependency injection container implementation.">
<polygon fill="white" stroke="#666666" points="1094.5,-244.5 949.5,-244.5 949.5,-225.5 1094.5,-225.5 1094.5,-244.5"/>
<text text-anchor="middle" x="1022" y="-232.5" font-family="Helvetica,sans-Serif" font-size="10.00">lightweight_di_container.h</text>
</a>
</g>
</g>
<!-- Node21&#45;&gt;Node24 -->
<g id="edge28_Node000021_Node000024" class="edge">
<title>Node21&#45;&gt;Node24</title>
<g id="a_edge28_Node000021_Node000024"><a xlink:title=" ">
<path fill="none" stroke="#63b8ff" d="M950.55,-280.47C968.45,-269.32 992.92,-254.1 1008.07,-244.67"/>
<polygon fill="#63b8ff" stroke="#63b8ff" points="948.51,-277.61 941.87,-285.87 952.21,-283.56 948.51,-277.61"/>
</a>
</g>
</g>
<!-- Node25 -->
<g id="Node000025" class="node">
<title>Node25</title>
<g id="a_Node000025"><a xlink:href="thread__system__di__adapter_8h.html" target="_top" xlink:title="Adapter for thread_system&#39;s service container.">
<polygon fill="white" stroke="#666666" points="1267.5,-244.5 1112.5,-244.5 1112.5,-225.5 1267.5,-225.5 1267.5,-244.5"/>
<text text-anchor="middle" x="1190" y="-232.5" font-family="Helvetica,sans-Serif" font-size="10.00">thread_system_di_adapter.h</text>
</a>
</g>
</g>
<!-- Node21&#45;&gt;Node25 -->
<g id="edge31_Node000021_Node000025" class="edge">
<title>Node21&#45;&gt;Node25</title>
<g id="a_edge31_Node000021_Node000025"><a xlink:title=" ">
<path fill="none" stroke="#63b8ff" d="M976.14,-283.75C1026.75,-272.45 1105.36,-254.9 1151.86,-244.52"/>
<polygon fill="#63b8ff" stroke="#63b8ff" points="975.09,-280.4 966.1,-285.99 976.62,-287.23 975.09,-280.4"/>
</a>
</g>
</g>
<!-- Node22&#45;&gt;Node23 -->
<g id="edge25_Node000022_Node000023" class="edge">
<title>Node22&#45;&gt;Node23</title>
<g id="a_edge25_Node000022_Node000023"><a xlink:title=" ">
<path fill="none" stroke="#63b8ff" d="M967.99,-160.9C945.46,-151.11 914.8,-137.79 894.96,-129.17"/>
<polygon fill="#63b8ff" stroke="#63b8ff" points="966.83,-164.21 977.4,-164.98 969.62,-157.79 966.83,-164.21"/>
</a>
</g>
</g>
<!-- Node23&#45;&gt;Node5 -->
<g id="edge27_Node000023_Node000005" class="edge">
<title>Node23&#45;&gt;Node5</title>
<g id="a_edge27_Node000023_Node000005"><a xlink:title=" ">
<path fill="none" stroke="#63b8ff" d="M875.36,-99.66C875.52,-90.93 875.71,-80.99 875.84,-74.09"/>
<polygon fill="#63b8ff" stroke="#63b8ff" points="871.85,-99.68 875.17,-109.75 878.85,-99.82 871.85,-99.68"/>
</a>
</g>
</g>
<!-- Node23&#45;&gt;Node17 -->
<g id="edge26_Node000023_Node000017" class="edge">
<title>Node23&#45;&gt;Node17</title>
<g id="a_edge26_Node000023_Node000017"><a xlink:title=" ">
<path fill="none" stroke="#63b8ff" d="M836.77,-108.99C796.6,-98.99 734.04,-83.42 695.67,-73.88"/>
<polygon fill="#63b8ff" stroke="#63b8ff" points="836.17,-112.44 846.72,-111.46 837.86,-105.65 836.17,-112.44"/>
</a>
</g>
</g>
<!-- Node24&#45;&gt;Node22 -->
<g id="edge29_Node000024_Node000022" class="edge">
<title>Node24&#45;&gt;Node22</title>
<g id="a_edge29_Node000024_Node000022"><a xlink:title=" ">
<path fill="none" stroke="#63b8ff" d="M1014.37,-216.15C1009.84,-205.54 1004.29,-192.56 1000.7,-184.17"/>
<polygon fill="#63b8ff" stroke="#63b8ff" points="1011.16,-217.55 1018.31,-225.37 1017.6,-214.8 1011.16,-217.55"/>
</a>
</g>
</g>
<!-- Node25&#45;&gt;Node22 -->
<g id="edge32_Node000025_Node000022" class="edge">
<title>Node25&#45;&gt;Node22</title>
<g id="a_edge32_Node000025_Node000022"><a xlink:title=" ">
<path fill="none" stroke="#63b8ff" d="M1151.94,-222.46C1114.61,-211.15 1058.56,-194.16 1025.1,-184.02"/>
<polygon fill="#63b8ff" stroke="#63b8ff" points="1151.35,-225.94 1161.94,-225.49 1153.38,-219.24 1151.35,-225.94"/>
</a>
</g>
</g>
<!-- Node26&#45;&gt;Node14 -->
<g id="edge34_Node000026_Node000014" class="edge">
<title>Node26&#45;&gt;Node14</title>
<g id="a_edge34_Node000026_Node000014"><a xlink:title=" ">
<path fill="none" stroke="#63b8ff" d="M1165.45,-286.07C1211.02,-279.26 1262.93,-267.81 1277,-250 1320.59,-194.83 1202.28,-147.71 1145.94,-129.05"/>
<polygon fill="#63b8ff" stroke="#63b8ff" points="1164.94,-282.61 1155.54,-287.5 1165.94,-289.54 1164.94,-282.61"/>
</a>
</g>
</g>
<!-- Node28&#45;&gt;Node2 -->
<g id="edge37_Node000028_Node000002" class="edge">
<title>Node28&#45;&gt;Node2</title>
<g id="a_edge37_Node000028_Node000002"><a xlink:title=" ">
<path fill="none" stroke="#63b8ff" d="M457.26,-331.04C469.88,-293.83 497.94,-211.07 507.07,-184.14"/>
<polygon fill="#63b8ff" stroke="#63b8ff" points="453.9,-330.04 454.01,-340.63 460.53,-332.29 453.9,-330.04"/>
</a>
</g>
</g>
<!-- Node29&#45;&gt;Node5 -->
<g id="edge41_Node000029_Node000005" class="edge">
<title>Node29&#45;&gt;Node5</title>
<g id="a_edge41_Node000029_Node000005"><a xlink:title=" ">
<path fill="none" stroke="#63b8ff" d="M1298.45,-337.06C1314.85,-329.89 1333.33,-319.39 1346,-305 1367.66,-280.41 1372,-268.77 1372,-236 1372,-236 1372,-236 1372,-173.5 1372,-82.29 1047.7,-67.97 923.56,-65.83"/>
<polygon fill="#63b8ff" stroke="#63b8ff" points="1297.02,-333.86 1289.1,-340.9 1299.68,-340.34 1297.02,-333.86"/>
</a>
</g>
</g>
<!-- Node29&#45;&gt;Node20 -->
<g id="edge40_Node000029_Node000020" class="edge">
<title>Node29&#45;&gt;Node20</title>
<g id="a_edge40_Node000029_Node000020"><a xlink:title=" ">
<path fill="none" stroke="#63b8ff" d="M1262,-330.66C1262,-321.93 1262,-311.99 1262,-305.09"/>
<polygon fill="#63b8ff" stroke="#63b8ff" points="1258.5,-330.75 1262,-340.75 1265.5,-330.75 1258.5,-330.75"/>
</a>
</g>
</g>
<!-- Node30&#45;&gt;Node23 -->
<g id="edge49_Node000030_Node000023" class="edge">
<title>Node30&#45;&gt;Node23</title>
<g id="a_edge49_Node000030_Node000023"><a xlink:title=" ">
<path fill="none" stroke="#63b8ff" d="M725.95,-336.83C710.74,-329.53 693.55,-319.01 682,-305 657.37,-275.14 650.6,-256.67 663,-220 672.85,-190.86 679.4,-182.04 705,-165 728.17,-149.57 804.7,-133.53 846.74,-125.58"/>
<polygon fill="#63b8ff" stroke="#63b8ff" points="724.54,-340.03 735.09,-340.95 727.41,-333.65 724.54,-340.03"/>
</a>
</g>
</g>
<!-- Node30&#45;&gt;Node26 -->
<g id="edge48_Node000030_Node000026" class="edge">
<title>Node30&#45;&gt;Node26</title>
<g id="a_edge48_Node000030_Node000026"><a xlink:title=" ">
<path fill="none" stroke="#63b8ff" d="M822.26,-339.37C884.41,-329.42 978.2,-314.4 1036.68,-305.04"/>
<polygon fill="#63b8ff" stroke="#63b8ff" points="821.5,-335.95 812.18,-340.98 822.61,-342.86 821.5,-335.95"/>
</a>
</g>
</g>
<!-- Node31 -->
<g id="Node000031" class="node">
<title>Node31</title>
<g id="a_Node000031"><a xlink:href="basic__monitor_8h.html" target="_top" xlink:title="Basic monitoring implementation with no external dependencies.">
<polygon fill="white" stroke="#666666" points="843,-305 749,-305 749,-286 843,-286 843,-305"/>
<text text-anchor="middle" x="796" y="-293" font-family="Helvetica,sans-Serif" font-size="10.00">basic_monitor.h</text>
</a>
</g>
</g>
<!-- Node30&#45;&gt;Node31 -->
<g id="edge43_Node000030_Node000031" class="edge">
<title>Node30&#45;&gt;Node31</title>
<g id="a_edge43_Node000030_Node000031"><a xlink:title=" ">
<path fill="none" stroke="#63b8ff" d="M770.95,-332.39C777.31,-323.27 784.87,-312.45 790,-305.09"/>
<polygon fill="#63b8ff" stroke="#63b8ff" points="767.96,-330.55 765.11,-340.75 773.7,-334.55 767.96,-330.55"/>
</a>
</g>
</g>
<!-- Node32 -->
<g id="Node000032" class="node">
<title>Node32</title>
<g id="a_Node000032"><a xlink:href="monitoring__factory_8h.html" target="_top" xlink:title="Factory for creating appropriate monitoring implementations.">
<polygon fill="white" stroke="#666666" points="831.5,-184 714.5,-184 714.5,-165 831.5,-165 831.5,-184"/>
<text text-anchor="middle" x="773" y="-172" font-family="Helvetica,sans-Serif" font-size="10.00">monitoring_factory.h</text>
</a>
</g>
</g>
<!-- Node30&#45;&gt;Node32 -->
<g id="edge50_Node000030_Node000032" class="edge">
<title>Node30&#45;&gt;Node32</title>
<g id="a_edge50_Node000030_Node000032"><a xlink:title=" ">
<path fill="none" stroke="#63b8ff" d="M737.01,-334.95C703.66,-311.03 646.91,-261.87 674,-220 686.08,-201.33 708.05,-190.42 728.24,-184.08"/>
<polygon fill="#63b8ff" stroke="#63b8ff" points="735.11,-337.89 745.31,-340.73 739.11,-332.14 735.11,-337.89"/>
</a>
</g>
</g>
<!-- Node33 -->
<g id="Node000033" class="node">
<title>Node33</title>
<g id="a_Node000033"><a xlink:href="thread__system__monitor__adapter_8h.html" target="_top" xlink:title="Adapter for thread_system&#39;s monitoring capabilities.">
<polygon fill="white" stroke="#666666" points="816.5,-250 683.5,-250 683.5,-220 816.5,-220 816.5,-250"/>
<text text-anchor="start" x="691.5" y="-238" font-family="Helvetica,sans-Serif" font-size="10.00">thread_system_monitor</text>
<text text-anchor="middle" x="750" y="-227" font-family="Helvetica,sans-Serif" font-size="10.00">_adapter.h</text>
</a>
</g>
</g>
<!-- Node30&#45;&gt;Node33 -->
<g id="edge51_Node000030_Node000033" class="edge">
<title>Node30&#45;&gt;Node33</title>
<g id="a_edge51_Node000030_Node000033"><a xlink:title=" ">
<path fill="none" stroke="#63b8ff" d="M749.57,-331.96C745.79,-323.97 741.89,-314.26 740,-305 736.14,-286.14 740.93,-264.09 745.12,-250.09"/>
<polygon fill="#63b8ff" stroke="#63b8ff" points="746.49,-333.63 754.12,-340.98 752.74,-330.47 746.49,-333.63"/>
</a>
</g>
</g>
<!-- Node31&#45;&gt;Node32 -->
<g id="edge44_Node000031_Node000032" class="edge">
<title>Node31&#45;&gt;Node32</title>
<g id="a_edge44_Node000031_Node000032"><a xlink:title=" ">
<path fill="none" stroke="#63b8ff" d="M810.86,-277.66C822.4,-262.41 835.06,-239.44 826,-220 818.54,-203.99 802.17,-191.7 789.58,-184.13"/>
<polygon fill="#63b8ff" stroke="#63b8ff" points="807.95,-275.69 804.36,-285.65 813.38,-280.1 807.95,-275.69"/>
</a>
</g>
</g>
<!-- Node31&#45;&gt;Node33 -->
<g id="edge46_Node000031_Node000033" class="edge">
<title>Node31&#45;&gt;Node33</title>
<g id="a_edge46_Node000031_Node000033"><a xlink:title=" ">
<path fill="none" stroke="#63b8ff" d="M782.93,-277.88C776.04,-269.11 767.67,-258.48 761.1,-250.11"/>
<polygon fill="#63b8ff" stroke="#63b8ff" points="780.28,-280.17 789.21,-285.87 785.78,-275.84 780.28,-280.17"/>
</a>
</g>
</g>
<!-- Node32&#45;&gt;Node23 -->
<g id="edge45_Node000032_Node000023" class="edge">
<title>Node32&#45;&gt;Node23</title>
<g id="a_edge45_Node000032_Node000023"><a xlink:title=" ">
<path fill="none" stroke="#63b8ff" d="M798.27,-160.37C817.01,-150.63 842.02,-137.64 858.31,-129.17"/>
<polygon fill="#63b8ff" stroke="#63b8ff" points="796.65,-157.27 789.39,-164.98 799.88,-163.48 796.65,-157.27"/>
</a>
</g>
</g>
<!-- Node33&#45;&gt;Node32 -->
<g id="edge47_Node000033_Node000032" class="edge">
<title>Node33&#45;&gt;Node32</title>
<g id="a_edge47_Node000033_Node000032"><a xlink:title=" ">
<path fill="none" stroke="#63b8ff" d="M759.3,-210.34C762.92,-201.14 766.84,-191.17 769.55,-184.27"/>
<polygon fill="#63b8ff" stroke="#63b8ff" points="755.97,-209.25 755.57,-219.84 762.48,-211.81 755.97,-209.25"/>
</a>
</g>
</g>
<!-- Node35 -->
<g id="Node000035" class="node">
<title>Node35</title>
<g id="a_Node000035"><a xlink:href="overflow__policy_8cpp.html" target="_top" xlink:title=" ">
<polygon fill="white" stroke="#666666" points="1512,-305 1400,-305 1400,-286 1512,-286 1512,-305"/>
<text text-anchor="middle" x="1456" y="-293" font-family="Helvetica,sans-Serif" font-size="10.00">overflow_policy.cpp</text>
</a>
</g>
</g>
<!-- Node34&#45;&gt;Node35 -->
<g id="edge53_Node000034_Node000035" class="edge">
<title>Node34&#45;&gt;Node35</title>
<g id="a_edge53_Node000034_Node000035"><a xlink:title=" ">
<path fill="none" stroke="#63b8ff" d="M1432.3,-332.39C1438.32,-323.27 1445.47,-312.45 1450.33,-305.09"/>
<polygon fill="#63b8ff" stroke="#63b8ff" points="1429.37,-330.47 1426.78,-340.75 1435.21,-334.33 1429.37,-330.47"/>
</a>
</g>
</g>
</g>
</svg>
