<?xml version="1.0" encoding="UTF-8" standalone="no"?>
<!DOCTYPE svg PUBLIC "-//W3C//DTD SVG 1.1//EN"
 "http://www.w3.org/Graphics/SVG/1.1/DTD/svg11.dtd">
<!-- Generated by graphviz version 2.43.0 (0)
 -->
<!-- Title: error_codes.h Pages: 1 -->
<svg width="1275pt" height="423pt"
 viewBox="0.00 0.00 1274.50 423.00" xmlns="http://www.w3.org/2000/svg" xmlns:xlink="http://www.w3.org/1999/xlink">
<g id="graph0" class="graph" transform="scale(1 1) rotate(0) translate(4 419)">
<title>error_codes.h</title>
<!-- Node1 -->
<g id="Node000001" class="node">
<title>Node1</title>
<g id="a_Node000001"><a xlink:title=" ">
<polygon fill="#999999" stroke="#666666" points="837,-415 754,-415 754,-396 837,-396 837,-415"/>
<text text-anchor="middle" x="795.5" y="-403" font-family="Helvetica,sans-Serif" font-size="10.00">error_codes.h</text>
</a>
</g>
</g>
<!-- Node2 -->
<g id="Node000002" class="node">
<title>Node2</title>
<g id="a_Node000002"><a xlink:href="base__writer_8h.html" target="_top" xlink:title=" ">
<polygon fill="white" stroke="#666666" points="513.5,-184 431.5,-184 431.5,-165 513.5,-165 513.5,-184"/>
<text text-anchor="middle" x="472.5" y="-172" font-family="Helvetica,sans-Serif" font-size="10.00">base_writer.h</text>
</a>
</g>
</g>
<!-- Node1&#45;&gt;Node2 -->
<g id="edge1_Node000001_Node000002" class="edge">
<title>Node1&#45;&gt;Node2</title>
<g id="a_edge1_Node000001_Node000002"><a xlink:title=" ">
<path fill="none" stroke="#63b8ff" d="M743.63,-401.3C654.44,-395.25 479.78,-380.88 461.5,-360 416.05,-308.1 454.7,-213.24 468.25,-184.19"/>
<polygon fill="#63b8ff" stroke="#63b8ff" points="743.59,-404.8 753.8,-401.97 744.06,-397.82 743.59,-404.8"/>
</a>
</g>
</g>
<!-- Node17 -->
<g id="Node000017" class="node">
<title>Node17</title>
<g id="a_Node000017"><a xlink:href="config__strategy__interface_8h.html" target="_top" xlink:title=" ">
<polygon fill="white" stroke="#666666" points="1170,-305 1021,-305 1021,-286 1170,-286 1170,-305"/>
<text text-anchor="middle" x="1095.5" y="-293" font-family="Helvetica,sans-Serif" font-size="10.00">config_strategy_interface.h</text>
</a>
</g>
</g>
<!-- Node1&#45;&gt;Node17 -->
<g id="edge17_Node000001_Node000017" class="edge">
<title>Node1&#45;&gt;Node17</title>
<g id="a_edge17_Node000001_Node000017"><a xlink:title=" ">
<path fill="none" stroke="#63b8ff" d="M827.82,-392.36C862.34,-379.44 918.68,-358.5 967.5,-341 1003.16,-328.22 1044.59,-313.91 1070.43,-305.06"/>
<polygon fill="#63b8ff" stroke="#63b8ff" points="826.4,-389.15 818.26,-395.94 828.86,-395.71 826.4,-389.15"/>
</a>
</g>
</g>
<!-- Node18 -->
<g id="Node000018" class="node">
<title>Node18</title>
<g id="a_Node000018"><a xlink:href="di__container__interface_8h.html" target="_top" xlink:title="Abstract interface for dependency injection container.">
<polygon fill="white" stroke="#666666" points="1002.5,-305 868.5,-305 868.5,-286 1002.5,-286 1002.5,-305"/>
<text text-anchor="middle" x="935.5" y="-293" font-family="Helvetica,sans-Serif" font-size="10.00">di_container_interface.h</text>
</a>
</g>
</g>
<!-- Node1&#45;&gt;Node18 -->
<g id="edge19_Node000001_Node000018" class="edge">
<title>Node1&#45;&gt;Node18</title>
<g id="a_edge19_Node000001_Node000018"><a xlink:title=" ">
<path fill="none" stroke="#63b8ff" d="M814.94,-389.5C844.67,-366.57 900.47,-323.52 924.28,-305.16"/>
<polygon fill="#63b8ff" stroke="#63b8ff" points="812.74,-386.78 806.96,-395.66 817.01,-392.33 812.74,-386.78"/>
</a>
</g>
</g>
<!-- Node20 -->
<g id="Node000020" class="node">
<title>Node20</title>
<g id="a_Node000020"><a xlink:href="logger_8h.html" target="_top" xlink:title=" ">
<polygon fill="white" stroke="#666666" points="879.5,-129 823.5,-129 823.5,-110 879.5,-110 879.5,-129"/>
<text text-anchor="middle" x="851.5" y="-117" font-family="Helvetica,sans-Serif" font-size="10.00">logger.h</text>
</a>
</g>
</g>
<!-- Node1&#45;&gt;Node20 -->
<g id="edge32_Node000001_Node000020" class="edge">
<title>Node1&#45;&gt;Node20</title>
<g id="a_edge32_Node000001_Node000020"><a xlink:title=" ">
<path fill="none" stroke="#63b8ff" d="M790.28,-386.23C784.66,-364.9 776.5,-328.44 776.5,-296.5 776.5,-296.5 776.5,-296.5 776.5,-234 776.5,-188.18 819.57,-146.63 840.43,-129.18"/>
<polygon fill="#63b8ff" stroke="#63b8ff" points="786.92,-387.19 792.94,-395.91 793.67,-385.34 786.92,-387.19"/>
</a>
</g>
</g>
<!-- Node23 -->
<g id="Node000023" class="node">
<title>Node23</title>
<g id="a_Node000023"><a xlink:href="log__sink__interface_8h.html" target="_top" xlink:title=" ">
<polygon fill="white" stroke="#666666" points="1200,-360 1085,-360 1085,-341 1200,-341 1200,-360"/>
<text text-anchor="middle" x="1142.5" y="-348" font-family="Helvetica,sans-Serif" font-size="10.00">log_sink_interface.h</text>
</a>
</g>
</g>
<!-- Node1&#45;&gt;Node23 -->
<g id="edge29_Node000001_Node000023" class="edge">
<title>Node1&#45;&gt;Node23</title>
<g id="a_edge29_Node000001_Node000023"><a xlink:title=" ">
<path fill="none" stroke="#63b8ff" d="M846.91,-396.65C911.08,-386.85 1020.42,-370.15 1086.61,-360.04"/>
<polygon fill="#63b8ff" stroke="#63b8ff" points="846.37,-393.19 837.01,-398.16 847.43,-400.11 846.37,-393.19"/>
</a>
</g>
</g>
<!-- Node24 -->
<g id="Node000024" class="node">
<title>Node24</title>
<g id="a_Node000024"><a xlink:href="log__writer__interface_8h.html" target="_top" xlink:title=" ">
<polygon fill="white" stroke="#666666" points="594,-360 471,-360 471,-341 594,-341 594,-360"/>
<text text-anchor="middle" x="532.5" y="-348" font-family="Helvetica,sans-Serif" font-size="10.00">log_writer_interface.h</text>
</a>
</g>
</g>
<!-- Node1&#45;&gt;Node24 -->
<g id="edge30_Node000001_Node000024" class="edge">
<title>Node1&#45;&gt;Node24</title>
<g id="a_edge30_Node000001_Node000024"><a xlink:title=" ">
<path fill="none" stroke="#63b8ff" d="M743.98,-394.12C694.59,-384.16 620.92,-369.32 574.85,-360.03"/>
<polygon fill="#63b8ff" stroke="#63b8ff" points="743.33,-397.56 753.83,-396.1 744.72,-390.7 743.33,-397.56"/>
</a>
</g>
</g>
<!-- Node25 -->
<g id="Node000025" class="node">
<title>Node25</title>
<g id="a_Node000025"><a xlink:href="logger__config_8h.html" target="_top" xlink:title=" ">
<polygon fill="white" stroke="#666666" points="1067,-360 976,-360 976,-341 1067,-341 1067,-360"/>
<text text-anchor="middle" x="1021.5" y="-348" font-family="Helvetica,sans-Serif" font-size="10.00">logger_config.h</text>
</a>
</g>
</g>
<!-- Node1&#45;&gt;Node25 -->
<g id="edge33_Node000001_Node000025" class="edge">
<title>Node1&#45;&gt;Node25</title>
<g id="a_edge33_Node000001_Node000025"><a xlink:title=" ">
<path fill="none" stroke="#63b8ff" d="M841.59,-393.69C883.94,-383.76 945.86,-369.24 984.9,-360.08"/>
<polygon fill="#63b8ff" stroke="#63b8ff" points="840.75,-390.29 831.81,-395.98 842.35,-397.11 840.75,-390.29"/>
</a>
</g>
</g>
<!-- Node26 -->
<g id="Node000026" class="node">
<title>Node26</title>
<g id="a_Node000026"><a xlink:href="monitoring__interface_8h.html" target="_top" xlink:title="Abstract interface for monitoring and metrics collection.">
<polygon fill="white" stroke="#666666" points="748.5,-360 620.5,-360 620.5,-341 748.5,-341 748.5,-360"/>
<text text-anchor="middle" x="684.5" y="-348" font-family="Helvetica,sans-Serif" font-size="10.00">monitoring_interface.h</text>
</a>
</g>
</g>
<!-- Node1&#45;&gt;Node26 -->
<g id="edge36_Node000001_Node000026" class="edge">
<title>Node1&#45;&gt;Node26</title>
<g id="a_edge36_Node000001_Node000026"><a xlink:title=" ">
<path fill="none" stroke="#63b8ff" d="M768.55,-391.63C748.11,-381.87 720.55,-368.71 702.66,-360.17"/>
<polygon fill="#63b8ff" stroke="#63b8ff" points="767.13,-394.83 777.67,-395.98 770.15,-388.52 767.13,-394.83"/>
</a>
</g>
</g>
<!-- Node3 -->
<g id="Node000003" class="node">
<title>Node3</title>
<g id="a_Node000003"><a xlink:href="console__writer_8h.html" target="_top" xlink:title=" ">
<polygon fill="white" stroke="#666666" points="120.5,-129 24.5,-129 24.5,-110 120.5,-110 120.5,-129"/>
<text text-anchor="middle" x="72.5" y="-117" font-family="Helvetica,sans-Serif" font-size="10.00">console_writer.h</text>
</a>
</g>
</g>
<!-- Node2&#45;&gt;Node3 -->
<g id="edge2_Node000002_Node000003" class="edge">
<title>Node2&#45;&gt;Node3</title>
<g id="a_edge2_Node000002_Node000003"><a xlink:title=" ">
<path fill="none" stroke="#63b8ff" d="M421.22,-166.84C354.98,-158.21 236.12,-142.65 134.5,-129 129.98,-128.39 125.27,-127.76 120.56,-127.11"/>
<polygon fill="#63b8ff" stroke="#63b8ff" points="421.02,-170.34 431.39,-168.16 421.92,-163.4 421.02,-170.34"/>
</a>
</g>
</g>
<!-- Node5 -->
<g id="Node000005" class="node">
<title>Node5</title>
<g id="a_Node000005"><a xlink:href="encrypted__writer_8h.html" target="_top" xlink:title=" ">
<polygon fill="white" stroke="#666666" points="251,-129 144,-129 144,-110 251,-110 251,-129"/>
<text text-anchor="middle" x="197.5" y="-117" font-family="Helvetica,sans-Serif" font-size="10.00">encrypted_writer.h</text>
</a>
</g>
</g>
<!-- Node2&#45;&gt;Node5 -->
<g id="edge4_Node000002_Node000005" class="edge">
<title>Node2&#45;&gt;Node5</title>
<g id="a_edge4_Node000002_Node000005"><a xlink:title=" ">
<path fill="none" stroke="#63b8ff" d="M421.38,-163.65C369.72,-153.69 290.72,-138.47 241.69,-129.02"/>
<polygon fill="#63b8ff" stroke="#63b8ff" points="420.85,-167.11 431.33,-165.57 422.17,-160.24 420.85,-167.11"/>
</a>
</g>
</g>
<!-- Node7 -->
<g id="Node000007" class="node">
<title>Node7</title>
<g id="a_Node000007"><a xlink:href="file__writer_8h.html" target="_top" xlink:title=" ">
<polygon fill="white" stroke="#666666" points="405.5,-129 331.5,-129 331.5,-110 405.5,-110 405.5,-129"/>
<text text-anchor="middle" x="368.5" y="-117" font-family="Helvetica,sans-Serif" font-size="10.00">file_writer.h</text>
</a>
</g>
</g>
<!-- Node2&#45;&gt;Node7 -->
<g id="edge6_Node000002_Node000007" class="edge">
<title>Node2&#45;&gt;Node7</title>
<g id="a_edge6_Node000002_Node000007"><a xlink:title=" ">
<path fill="none" stroke="#63b8ff" d="M446.73,-160.37C427.63,-150.63 402.13,-137.64 385.51,-129.17"/>
<polygon fill="#63b8ff" stroke="#63b8ff" points="445.29,-163.56 455.79,-164.98 448.47,-157.33 445.29,-163.56"/>
</a>
</g>
</g>
<!-- Node11 -->
<g id="Node000011" class="node">
<title>Node11</title>
<g id="a_Node000011"><a xlink:href="log__collector_8cpp.html" target="_top" xlink:title=" ">
<polygon fill="white" stroke="#666666" points="767.5,-129 669.5,-129 669.5,-110 767.5,-110 767.5,-129"/>
<text text-anchor="middle" x="718.5" y="-117" font-family="Helvetica,sans-Serif" font-size="10.00">log_collector.cpp</text>
</a>
</g>
</g>
<!-- Node2&#45;&gt;Node11 -->
<g id="edge10_Node000002_Node000011" class="edge">
<title>Node2&#45;&gt;Node11</title>
<g id="a_edge10_Node000002_Node000011"><a xlink:title=" ">
<path fill="none" stroke="#63b8ff" d="M521.8,-162.88C567.91,-152.94 635.9,-138.3 678.67,-129.08"/>
<polygon fill="#63b8ff" stroke="#63b8ff" points="521.06,-159.46 512.02,-164.98 522.54,-166.3 521.06,-159.46"/>
</a>
</g>
</g>
<!-- Node12 -->
<g id="Node000012" class="node">
<title>Node12</title>
<g id="a_Node000012"><a xlink:href="log__router_8h.html" target="_top" xlink:title=" ">
<polygon fill="white" stroke="#666666" points="651.5,-129 577.5,-129 577.5,-110 651.5,-110 651.5,-129"/>
<text text-anchor="middle" x="614.5" y="-117" font-family="Helvetica,sans-Serif" font-size="10.00">log_router.h</text>
</a>
</g>
</g>
<!-- Node2&#45;&gt;Node12 -->
<g id="edge11_Node000002_Node000012" class="edge">
<title>Node2&#45;&gt;Node12</title>
<g id="a_edge11_Node000002_Node000012"><a xlink:title=" ">
<path fill="none" stroke="#63b8ff" d="M504.86,-161.42C531.21,-151.59 567.76,-137.95 591.27,-129.17"/>
<polygon fill="#63b8ff" stroke="#63b8ff" points="503.46,-158.21 495.31,-164.98 505.91,-164.77 503.46,-158.21"/>
</a>
</g>
</g>
<!-- Node13 -->
<g id="Node000013" class="node">
<title>Node13</title>
<g id="a_Node000013"><a xlink:href="logger_8cpp.html" target="_top" xlink:title=" ">
<polygon fill="white" stroke="#666666" points="696,-74 629,-74 629,-55 696,-55 696,-74"/>
<text text-anchor="middle" x="662.5" y="-62" font-family="Helvetica,sans-Serif" font-size="10.00">logger.cpp</text>
</a>
</g>
</g>
<!-- Node2&#45;&gt;Node13 -->
<g id="edge13_Node000002_Node000013" class="edge">
<title>Node2&#45;&gt;Node13</title>
<g id="a_edge13_Node000002_Node000013"><a xlink:title=" ">
<path fill="none" stroke="#63b8ff" d="M492.48,-159.07C511.54,-145.6 541.3,-125.33 568.5,-110 593.19,-96.08 622.95,-82.5 642.28,-74.07"/>
<polygon fill="#63b8ff" stroke="#63b8ff" points="490.39,-156.26 484.28,-164.92 494.45,-161.96 490.39,-156.26"/>
</a>
</g>
</g>
<!-- Node14 -->
<g id="Node000014" class="node">
<title>Node14</title>
<g id="a_Node000014"><a xlink:href="logger__builder_8h.html" target="_top" xlink:title=" ">
<polygon fill="white" stroke="#666666" points="1087,-74 992,-74 992,-55 1087,-55 1087,-74"/>
<text text-anchor="middle" x="1039.5" y="-62" font-family="Helvetica,sans-Serif" font-size="10.00">logger_builder.h</text>
</a>
</g>
</g>
<!-- Node2&#45;&gt;Node14 -->
<g id="edge14_Node000002_Node000014" class="edge">
<title>Node2&#45;&gt;Node14</title>
<g id="a_edge14_Node000002_Node000014"><a xlink:title=" ">
<path fill="none" stroke="#63b8ff" d="M523.65,-168C597.57,-159.72 730.45,-143.47 776.5,-129 794.51,-123.34 796.63,-116.11 814.5,-110 874.03,-89.65 945.79,-77.47 992,-71.12"/>
<polygon fill="#63b8ff" stroke="#63b8ff" points="523.17,-164.54 513.62,-169.12 523.95,-171.49 523.17,-164.54"/>
</a>
</g>
</g>
<!-- Node15 -->
<g id="Node000015" class="node">
<title>Node15</title>
<g id="a_Node000015"><a xlink:href="network__writer_8h.html" target="_top" xlink:title=" ">
<polygon fill="white" stroke="#666666" points="521.5,-129 423.5,-129 423.5,-110 521.5,-110 521.5,-129"/>
<text text-anchor="middle" x="472.5" y="-117" font-family="Helvetica,sans-Serif" font-size="10.00">network_writer.h</text>
</a>
</g>
</g>
<!-- Node2&#45;&gt;Node15 -->
<g id="edge15_Node000002_Node000015" class="edge">
<title>Node2&#45;&gt;Node15</title>
<g id="a_edge15_Node000002_Node000015"><a xlink:title=" ">
<path fill="none" stroke="#63b8ff" d="M472.5,-154.66C472.5,-145.93 472.5,-135.99 472.5,-129.09"/>
<polygon fill="#63b8ff" stroke="#63b8ff" points="469,-154.75 472.5,-164.75 476,-154.75 469,-154.75"/>
</a>
</g>
</g>
<!-- Node4 -->
<g id="Node000004" class="node">
<title>Node4</title>
<g id="a_Node000004"><a xlink:href="console__writer_8cpp.html" target="_top" xlink:title=" ">
<polygon fill="white" stroke="#666666" points="107,-74 0,-74 0,-55 107,-55 107,-74"/>
<text text-anchor="middle" x="53.5" y="-62" font-family="Helvetica,sans-Serif" font-size="10.00">console_writer.cpp</text>
</a>
</g>
</g>
<!-- Node3&#45;&gt;Node4 -->
<g id="edge3_Node000003_Node000004" class="edge">
<title>Node3&#45;&gt;Node4</title>
<g id="a_edge3_Node000003_Node000004"><a xlink:title=" ">
<path fill="none" stroke="#63b8ff" d="M65.95,-100.24C62.78,-91.37 59.11,-81.14 56.58,-74.09"/>
<polygon fill="#63b8ff" stroke="#63b8ff" points="62.69,-101.52 69.36,-109.75 69.28,-99.15 62.69,-101.52"/>
</a>
</g>
</g>
<!-- Node6 -->
<g id="Node000006" class="node">
<title>Node6</title>
<g id="a_Node000006"><a xlink:href="encrypted__writer_8cpp.html" target="_top" xlink:title=" ">
<polygon fill="white" stroke="#666666" points="244,-74 125,-74 125,-55 244,-55 244,-74"/>
<text text-anchor="middle" x="184.5" y="-62" font-family="Helvetica,sans-Serif" font-size="10.00">encrypted_writer.cpp</text>
</a>
</g>
</g>
<!-- Node5&#45;&gt;Node6 -->
<g id="edge5_Node000005_Node000006" class="edge">
<title>Node5&#45;&gt;Node6</title>
<g id="a_edge5_Node000005_Node000006"><a xlink:title=" ">
<path fill="none" stroke="#63b8ff" d="M192.95,-99.95C190.79,-91.15 188.32,-81.06 186.61,-74.09"/>
<polygon fill="#63b8ff" stroke="#63b8ff" points="189.57,-100.87 195.35,-109.75 196.37,-99.2 189.57,-100.87"/>
</a>
</g>
</g>
<!-- Node8 -->
<g id="Node000008" class="node">
<title>Node8</title>
<g id="a_Node000008"><a xlink:href="file__writer_8cpp.html" target="_top" xlink:title=" ">
<polygon fill="white" stroke="#666666" points="482,-74 397,-74 397,-55 482,-55 482,-74"/>
<text text-anchor="middle" x="439.5" y="-62" font-family="Helvetica,sans-Serif" font-size="10.00">file_writer.cpp</text>
</a>
</g>
</g>
<!-- Node7&#45;&gt;Node8 -->
<g id="edge7_Node000007_Node000008" class="edge">
<title>Node7&#45;&gt;Node8</title>
<g id="a_edge7_Node000007_Node000008"><a xlink:title=" ">
<path fill="none" stroke="#63b8ff" d="M388.09,-103.88C400.87,-94.34 417.11,-82.21 427.89,-74.17"/>
<polygon fill="#63b8ff" stroke="#63b8ff" points="385.83,-101.2 379.91,-109.98 390.01,-106.81 385.83,-101.2"/>
</a>
</g>
</g>
<!-- Node9 -->
<g id="Node000009" class="node">
<title>Node9</title>
<g id="a_Node000009"><a xlink:href="rotating__file__writer_8h.html" target="_top" xlink:title=" ">
<polygon fill="white" stroke="#666666" points="379,-74 262,-74 262,-55 379,-55 379,-74"/>
<text text-anchor="middle" x="320.5" y="-62" font-family="Helvetica,sans-Serif" font-size="10.00">rotating_file_writer.h</text>
</a>
</g>
</g>
<!-- Node7&#45;&gt;Node9 -->
<g id="edge8_Node000007_Node000009" class="edge">
<title>Node7&#45;&gt;Node9</title>
<g id="a_edge8_Node000007_Node000009"><a xlink:title=" ">
<path fill="none" stroke="#63b8ff" d="M353.77,-102.24C345.36,-92.95 335.15,-81.68 328.28,-74.09"/>
<polygon fill="#63b8ff" stroke="#63b8ff" points="351.27,-104.69 360.57,-109.75 356.46,-99.99 351.27,-104.69"/>
</a>
</g>
</g>
<!-- Node10 -->
<g id="Node000010" class="node">
<title>Node10</title>
<g id="a_Node000010"><a xlink:href="rotating__file__writer_8cpp.html" target="_top" xlink:title=" ">
<polygon fill="white" stroke="#666666" points="384.5,-19 256.5,-19 256.5,0 384.5,0 384.5,-19"/>
<text text-anchor="middle" x="320.5" y="-7" font-family="Helvetica,sans-Serif" font-size="10.00">rotating_file_writer.cpp</text>
</a>
</g>
</g>
<!-- Node9&#45;&gt;Node10 -->
<g id="edge9_Node000009_Node000010" class="edge">
<title>Node9&#45;&gt;Node10</title>
<g id="a_edge9_Node000009_Node000010"><a xlink:title=" ">
<path fill="none" stroke="#63b8ff" d="M320.5,-44.66C320.5,-35.93 320.5,-25.99 320.5,-19.09"/>
<polygon fill="#63b8ff" stroke="#63b8ff" points="317,-44.75 320.5,-54.75 324,-44.75 317,-44.75"/>
</a>
</g>
</g>
<!-- Node12&#45;&gt;Node13 -->
<g id="edge12_Node000012_Node000013" class="edge">
<title>Node12&#45;&gt;Node13</title>
<g id="a_edge12_Node000012_Node000013"><a xlink:title=" ">
<path fill="none" stroke="#63b8ff" d="M629.23,-102.24C637.64,-92.95 647.85,-81.68 654.72,-74.09"/>
<polygon fill="#63b8ff" stroke="#63b8ff" points="626.54,-99.99 622.43,-109.75 631.73,-104.69 626.54,-99.99"/>
</a>
</g>
</g>
<!-- Node16 -->
<g id="Node000016" class="node">
<title>Node16</title>
<g id="a_Node000016"><a xlink:href="network__writer_8cpp.html" target="_top" xlink:title=" ">
<polygon fill="white" stroke="#666666" points="610.5,-74 500.5,-74 500.5,-55 610.5,-55 610.5,-74"/>
<text text-anchor="middle" x="555.5" y="-62" font-family="Helvetica,sans-Serif" font-size="10.00">network_writer.cpp</text>
</a>
</g>
</g>
<!-- Node15&#45;&gt;Node16 -->
<g id="edge16_Node000015_Node000016" class="edge">
<title>Node15&#45;&gt;Node16</title>
<g id="a_edge16_Node000015_Node000016"><a xlink:title=" ">
<path fill="none" stroke="#63b8ff" d="M494.54,-104.42C509.61,-94.81 529.09,-82.37 541.92,-74.17"/>
<polygon fill="#63b8ff" stroke="#63b8ff" points="492.38,-101.65 485.84,-109.98 496.15,-107.55 492.38,-101.65"/>
</a>
</g>
</g>
<!-- Node17&#45;&gt;Node14 -->
<g id="edge18_Node000017_Node000014" class="edge">
<title>Node17&#45;&gt;Node14</title>
<g id="a_edge18_Node000017_Node000014"><a xlink:title=" ">
<path fill="none" stroke="#63b8ff" d="M1145.41,-282.33C1162.03,-275.65 1178.77,-265.44 1188.5,-250 1195.61,-238.72 1193.49,-232.36 1188.5,-220 1160.46,-150.54 1084.6,-94.91 1053.3,-74.21"/>
<polygon fill="#63b8ff" stroke="#63b8ff" points="1143.89,-279.16 1135.7,-285.87 1146.29,-285.74 1143.89,-279.16"/>
</a>
</g>
</g>
<!-- Node19 -->
<g id="Node000019" class="node">
<title>Node19</title>
<g id="a_Node000019"><a xlink:href="di__container__factory_8h.html" target="_top" xlink:title="Factory for creating appropriate DI containers.">
<polygon fill="white" stroke="#666666" points="997.5,-184 873.5,-184 873.5,-165 997.5,-165 997.5,-184"/>
<text text-anchor="middle" x="935.5" y="-172" font-family="Helvetica,sans-Serif" font-size="10.00">di_container_factory.h</text>
</a>
</g>
</g>
<!-- Node18&#45;&gt;Node19 -->
<g id="edge20_Node000018_Node000019" class="edge">
<title>Node18&#45;&gt;Node19</title>
<g id="a_edge20_Node000018_Node000019"><a xlink:title=" ">
<path fill="none" stroke="#63b8ff" d="M951.95,-278.37C958.78,-270.52 965.94,-260.53 969.5,-250 973.77,-237.37 973.77,-232.63 969.5,-220 964.7,-205.82 953.37,-192.59 945.11,-184.31"/>
<polygon fill="#63b8ff" stroke="#63b8ff" points="949.37,-275.99 945.11,-285.69 954.49,-280.77 949.37,-275.99"/>
</a>
</g>
</g>
<!-- Node18&#45;&gt;Node20 -->
<g id="edge26_Node000018_Node000020" class="edge">
<title>Node18&#45;&gt;Node20</title>
<g id="a_edge26_Node000018_Node000020"><a xlink:title=" ">
<path fill="none" stroke="#63b8ff" d="M1012.85,-284.86C1077.66,-275.99 1161.24,-262.38 1171.5,-250 1180.01,-239.74 1179.3,-230.82 1171.5,-220 1136.5,-171.45 951.06,-136.67 879.6,-124.88"/>
<polygon fill="#63b8ff" stroke="#63b8ff" points="1012.06,-281.44 1002.62,-286.25 1013,-288.38 1012.06,-281.44"/>
</a>
</g>
</g>
<!-- Node21 -->
<g id="Node000021" class="node">
<title>Node21</title>
<g id="a_Node000021"><a xlink:href="lightweight__di__container_8h.html" target="_top" xlink:title="Lightweight dependency injection container implementation.">
<polygon fill="white" stroke="#666666" points="1162,-244.5 1017,-244.5 1017,-225.5 1162,-225.5 1162,-244.5"/>
<text text-anchor="middle" x="1089.5" y="-232.5" font-family="Helvetica,sans-Serif" font-size="10.00">lightweight_di_container.h</text>
</a>
</g>
</g>
<!-- Node18&#45;&gt;Node21 -->
<g id="edge24_Node000018_Node000021" class="edge">
<title>Node18&#45;&gt;Node21</title>
<g id="a_edge24_Node000018_Node000021"><a xlink:title=" ">
<path fill="none" stroke="#63b8ff" d="M967.41,-282.38C997.18,-271.07 1040.84,-254.49 1067.08,-244.52"/>
<polygon fill="#63b8ff" stroke="#63b8ff" points="966,-279.17 957.89,-285.99 968.48,-285.71 966,-279.17"/>
</a>
</g>
</g>
<!-- Node22 -->
<g id="Node000022" class="node">
<title>Node22</title>
<g id="a_Node000022"><a xlink:href="thread__system__di__adapter_8h.html" target="_top" xlink:title="Adapter for thread_system&#39;s service container.">
<polygon fill="white" stroke="#666666" points="960,-244.5 805,-244.5 805,-225.5 960,-225.5 960,-244.5"/>
<text text-anchor="middle" x="882.5" y="-232.5" font-family="Helvetica,sans-Serif" font-size="10.00">thread_system_di_adapter.h</text>
</a>
</g>
</g>
<!-- Node18&#45;&gt;Node22 -->
<g id="edge27_Node000018_Node000022" class="edge">
<title>Node18&#45;&gt;Node22</title>
<g id="a_edge27_Node000018_Node000022"><a xlink:title=" ">
<path fill="none" stroke="#63b8ff" d="M920.8,-278.27C910.94,-267.39 898.35,-253.49 890.35,-244.67"/>
<polygon fill="#63b8ff" stroke="#63b8ff" points="918.37,-280.81 927.68,-285.87 923.56,-276.11 918.37,-280.81"/>
</a>
</g>
</g>
<!-- Node19&#45;&gt;Node20 -->
<g id="edge21_Node000019_Node000020" class="edge">
<title>Node19&#45;&gt;Node20</title>
<g id="a_edge21_Node000019_Node000020"><a xlink:title=" ">
<path fill="none" stroke="#63b8ff" d="M913.19,-159.42C897.95,-149.81 878.23,-137.37 865.24,-129.17"/>
<polygon fill="#63b8ff" stroke="#63b8ff" points="911.68,-162.61 922,-164.98 915.41,-156.69 911.68,-162.61"/>
</a>
</g>
</g>
<!-- Node20&#45;&gt;Node13 -->
<g id="edge22_Node000020_Node000013" class="edge">
<title>Node20&#45;&gt;Node13</title>
<g id="a_edge22_Node000020_Node000013"><a xlink:title=" ">
<path fill="none" stroke="#63b8ff" d="M813.21,-107.76C777.71,-97.81 725.58,-83.19 692.87,-74.02"/>
<polygon fill="#63b8ff" stroke="#63b8ff" points="812.63,-111.24 823.2,-110.57 814.52,-104.5 812.63,-111.24"/>
</a>
</g>
</g>
<!-- Node20&#45;&gt;Node14 -->
<g id="edge23_Node000020_Node000014" class="edge">
<title>Node20&#45;&gt;Node14</title>
<g id="a_edge23_Node000020_Node000014"><a xlink:title=" ">
<path fill="none" stroke="#63b8ff" d="M889.58,-107.76C924.9,-97.81 976.75,-83.19 1009.29,-74.02"/>
<polygon fill="#63b8ff" stroke="#63b8ff" points="888.32,-104.48 879.65,-110.57 890.22,-111.22 888.32,-104.48"/>
</a>
</g>
</g>
<!-- Node21&#45;&gt;Node19 -->
<g id="edge25_Node000021_Node000019" class="edge">
<title>Node21&#45;&gt;Node19</title>
<g id="a_edge25_Node000021_Node000019"><a xlink:title=" ">
<path fill="none" stroke="#63b8ff" d="M1057.59,-221.88C1027.82,-210.57 984.16,-193.99 957.92,-184.02"/>
<polygon fill="#63b8ff" stroke="#63b8ff" points="1056.52,-225.21 1067.11,-225.49 1059,-218.67 1056.52,-225.21"/>
</a>
</g>
</g>
<!-- Node22&#45;&gt;Node19 -->
<g id="edge28_Node000022_Node000019" class="edge">
<title>Node22&#45;&gt;Node19</title>
<g id="a_edge28_Node000022_Node000019"><a xlink:title=" ">
<path fill="none" stroke="#63b8ff" d="M897.2,-217.77C907.06,-206.89 919.65,-192.99 927.65,-184.17"/>
<polygon fill="#63b8ff" stroke="#63b8ff" points="894.44,-215.61 890.32,-225.37 899.63,-220.31 894.44,-215.61"/>
</a>
</g>
</g>
<!-- Node24&#45;&gt;Node2 -->
<g id="edge31_Node000024_Node000002" class="edge">
<title>Node24&#45;&gt;Node2</title>
<g id="a_edge31_Node000024_Node000002"><a xlink:title=" ">
<path fill="none" stroke="#63b8ff" d="M524.53,-331.57C515.94,-311.83 502.2,-279.04 492.5,-250 484.7,-226.63 477.78,-198.37 474.5,-184.32"/>
<polygon fill="#63b8ff" stroke="#63b8ff" points="521.38,-333.1 528.61,-340.85 527.79,-330.28 521.38,-333.1"/>
</a>
</g>
</g>
<!-- Node25&#45;&gt;Node14 -->
<g id="edge35_Node000025_Node000014" class="edge">
<title>Node25&#45;&gt;Node14</title>
<g id="a_edge35_Node000025_Node000014"><a xlink:title=" ">
<path fill="none" stroke="#63b8ff" d="M1077.04,-339.5C1108.27,-332.51 1147.33,-321.44 1179.5,-305 1223.44,-282.54 1266.5,-285.35 1266.5,-236 1266.5,-236 1266.5,-236 1266.5,-173.5 1266.5,-94.72 1153.65,-73.34 1087.09,-67.59"/>
<polygon fill="#63b8ff" stroke="#63b8ff" points="1076.23,-336.1 1067.19,-341.63 1077.71,-342.94 1076.23,-336.1"/>
</a>
</g>
</g>
<!-- Node25&#45;&gt;Node17 -->
<g id="edge34_Node000025_Node000017" class="edge">
<title>Node25&#45;&gt;Node17</title>
<g id="a_edge34_Node000025_Node000017"><a xlink:title=" ">
<path fill="none" stroke="#63b8ff" d="M1041.53,-335.15C1054.91,-325.57 1072.06,-313.29 1083.39,-305.17"/>
<polygon fill="#63b8ff" stroke="#63b8ff" points="1039.48,-332.32 1033.39,-340.98 1043.56,-338.01 1039.48,-332.32"/>
</a>
</g>
</g>
<!-- Node26&#45;&gt;Node20 -->
<g id="edge42_Node000026_Node000020" class="edge">
<title>Node26&#45;&gt;Node20</title>
<g id="a_edge42_Node000026_Node000020"><a xlink:title=" ">
<path fill="none" stroke="#63b8ff" d="M690.44,-331.16C704.13,-289.73 738.58,-190.49 762.5,-165 779.05,-147.36 804.11,-135.71 823.43,-128.77"/>
<polygon fill="#63b8ff" stroke="#63b8ff" points="687.07,-330.2 687.28,-340.79 693.72,-332.38 687.07,-330.2"/>
</a>
</g>
</g>
<!-- Node27 -->
<g id="Node000027" class="node">
<title>Node27</title>
<g id="a_Node000027"><a xlink:href="basic__monitor_8h.html" target="_top" xlink:title="Basic monitoring implementation with no external dependencies.">
<polygon fill="white" stroke="#666666" points="672.5,-305 578.5,-305 578.5,-286 672.5,-286 672.5,-305"/>
<text text-anchor="middle" x="625.5" y="-293" font-family="Helvetica,sans-Serif" font-size="10.00">basic_monitor.h</text>
</a>
</g>
</g>
<!-- Node26&#45;&gt;Node27 -->
<g id="edge37_Node000026_Node000027" class="edge">
<title>Node26&#45;&gt;Node27</title>
<g id="a_edge37_Node000026_Node000027"><a xlink:title=" ">
<path fill="none" stroke="#63b8ff" d="M667.3,-334.04C656.83,-324.64 643.85,-312.98 635.15,-305.17"/>
<polygon fill="#63b8ff" stroke="#63b8ff" points="665.24,-336.91 675.02,-340.98 669.92,-331.7 665.24,-336.91"/>
</a>
</g>
</g>
<!-- Node28 -->
<g id="Node000028" class="node">
<title>Node28</title>
<g id="a_Node000028"><a xlink:href="monitoring__factory_8h.html" target="_top" xlink:title="Factory for creating appropriate monitoring implementations.">
<polygon fill="white" stroke="#666666" points="710,-184 593,-184 593,-165 710,-165 710,-184"/>
<text text-anchor="middle" x="651.5" y="-172" font-family="Helvetica,sans-Serif" font-size="10.00">monitoring_factory.h</text>
</a>
</g>
</g>
<!-- Node26&#45;&gt;Node28 -->
<g id="edge43_Node000026_Node000028" class="edge">
<title>Node26&#45;&gt;Node28</title>
<g id="a_edge43_Node000026_Node000028"><a xlink:title=" ">
<path fill="none" stroke="#63b8ff" d="M684.68,-330.58C684.54,-317.89 683.84,-300.86 681.5,-286 675.41,-247.32 660.93,-202.73 654.58,-184.24"/>
<polygon fill="#63b8ff" stroke="#63b8ff" points="681.18,-330.81 684.69,-340.81 688.18,-330.81 681.18,-330.81"/>
</a>
</g>
</g>
<!-- Node29 -->
<g id="Node000029" class="node">
<title>Node29</title>
<g id="a_Node000029"><a xlink:href="thread__system__monitor__adapter_8h.html" target="_top" xlink:title="Adapter for thread_system&#39;s monitoring capabilities.">
<polygon fill="white" stroke="#666666" points="634,-250 501,-250 501,-220 634,-220 634,-250"/>
<text text-anchor="start" x="509" y="-238" font-family="Helvetica,sans-Serif" font-size="10.00">thread_system_monitor</text>
<text text-anchor="middle" x="567.5" y="-227" font-family="Helvetica,sans-Serif" font-size="10.00">_adapter.h</text>
</a>
</g>
</g>
<!-- Node26&#45;&gt;Node29 -->
<g id="edge44_Node000026_Node000029" class="edge">
<title>Node26&#45;&gt;Node29</title>
<g id="a_edge44_Node000026_Node000029"><a xlink:title=" ">
<path fill="none" stroke="#63b8ff" d="M617.1,-337.81C598.74,-331.25 580.81,-321 569.5,-305 558.16,-288.95 560.53,-265.15 563.69,-250.11"/>
<polygon fill="#63b8ff" stroke="#63b8ff" points="616.12,-341.18 626.71,-340.92 618.28,-334.52 616.12,-341.18"/>
</a>
</g>
</g>
<!-- Node27&#45;&gt;Node28 -->
<g id="edge38_Node000027_Node000028" class="edge">
<title>Node27&#45;&gt;Node28</title>
<g id="a_edge38_Node000027_Node000028"><a xlink:title=" ">
<path fill="none" stroke="#63b8ff" d="M634.09,-276.53C637.55,-268.57 641.25,-258.99 643.5,-250 649.32,-226.78 650.91,-198.45 651.34,-184.35"/>
<polygon fill="#63b8ff" stroke="#63b8ff" points="630.8,-275.33 629.83,-285.88 637.16,-278.23 630.8,-275.33"/>
</a>
</g>
</g>
<!-- Node27&#45;&gt;Node29 -->
<g id="edge40_Node000027_Node000029" class="edge">
<title>Node27&#45;&gt;Node29</title>
<g id="a_edge40_Node000027_Node000029"><a xlink:title=" ">
<path fill="none" stroke="#63b8ff" d="M609.83,-278.7C600.99,-269.78 590.04,-258.74 581.49,-250.11"/>
<polygon fill="#63b8ff" stroke="#63b8ff" points="607.42,-281.23 616.94,-285.87 612.39,-276.3 607.42,-281.23"/>
</a>
</g>
</g>
<!-- Node28&#45;&gt;Node20 -->
<g id="edge39_Node000028_Node000020" class="edge">
<title>Node28&#45;&gt;Node20</title>
<g id="a_edge39_Node000028_Node000020"><a xlink:title=" ">
<path fill="none" stroke="#63b8ff" d="M693.63,-162.34C732.64,-152 789.55,-136.92 823.33,-127.97"/>
<polygon fill="#63b8ff" stroke="#63b8ff" points="692.4,-159.04 683.63,-164.98 694.2,-165.81 692.4,-159.04"/>
</a>
</g>
</g>
<!-- Node29&#45;&gt;Node28 -->
<g id="edge41_Node000029_Node000028" class="edge">
<title>Node29&#45;&gt;Node28</title>
<g id="a_edge41_Node000029_Node000028"><a xlink:title=" ">
<path fill="none" stroke="#63b8ff" d="M596.07,-214.1C610.64,-203.95 627.62,-192.13 638.91,-184.27"/>
<polygon fill="#63b8ff" stroke="#63b8ff" points="594.04,-211.25 587.83,-219.84 598.04,-217 594.04,-211.25"/>
</a>
</g>
</g>
</g>
</svg>
