<?xml version="1.0" encoding="UTF-8" standalone="no"?>
<!DOCTYPE svg PUBLIC "-//W3C//DTD SVG 1.1//EN"
 "http://www.w3.org/Graphics/SVG/1.1/DTD/svg11.dtd">
<!-- Generated by graphviz version 2.43.0 (0)
 -->
<!-- Title: file_writer.h Pages: 1 -->
<svg width="800pt" height="258pt"
 viewBox="0.00 0.00 799.50 258.00" xmlns="http://www.w3.org/2000/svg" xmlns:xlink="http://www.w3.org/1999/xlink">
<g id="graph0" class="graph" transform="scale(1 1) rotate(0) translate(4 254)">
<title>file_writer.h</title>
<!-- Node1 -->
<g id="Node000001" class="node">
<title>Node1</title>
<g id="a_Node000001"><a xlink:title=" ">
<polygon fill="#999999" stroke="#666666" points="676.5,-250 602.5,-250 602.5,-231 676.5,-231 676.5,-250"/>
<text text-anchor="middle" x="639.5" y="-238" font-family="Helvetica,sans-Serif" font-size="10.00">file_writer.h</text>
</a>
</g>
</g>
<!-- Node2 -->
<g id="Node000002" class="node">
<title>Node2</title>
<g id="a_Node000002"><a xlink:href="base__writer_8h.html" target="_top" xlink:title=" ">
<polygon fill="white" stroke="#666666" points="416.5,-195 334.5,-195 334.5,-176 416.5,-176 416.5,-195"/>
<text text-anchor="middle" x="375.5" y="-183" font-family="Helvetica,sans-Serif" font-size="10.00">base_writer.h</text>
</a>
</g>
</g>
<!-- Node1&#45;&gt;Node2 -->
<g id="edge1_Node000001_Node000002" class="edge">
<title>Node1&#45;&gt;Node2</title>
<g id="a_edge1_Node000001_Node000002"><a xlink:title=" ">
<path fill="none" stroke="#63b8ff" d="M602.24,-232.02C556.4,-222.82 478.35,-207.15 426.85,-196.81"/>
<polygon fill="#63b8ff" stroke="#63b8ff" points="427.42,-193.35 416.92,-194.82 426.04,-200.22 427.42,-193.35"/>
</a>
</g>
</g>
<!-- Node6 -->
<g id="Node000006" class="node">
<title>Node6</title>
<g id="a_Node000006"><a xlink:title=" ">
<polygon fill="#e0e0e0" stroke="#999999" points="558.5,-19 500.5,-19 500.5,0 558.5,0 558.5,-19"/>
<text text-anchor="middle" x="529.5" y="-7" font-family="Helvetica,sans-Serif" font-size="10.00">memory</text>
</a>
</g>
</g>
<!-- Node1&#45;&gt;Node6 -->
<g id="edge26_Node000001_Node000006" class="edge">
<title>Node1&#45;&gt;Node6</title>
<g id="a_edge26_Node000001_Node000006"><a xlink:title=" ">
<path fill="none" stroke="#63b8ff" d="M637.54,-230.97C630.08,-198.86 602.8,-85.59 582.5,-55 574.61,-43.11 562.64,-32.68 552.06,-24.91"/>
<polygon fill="#63b8ff" stroke="#63b8ff" points="553.84,-21.88 543.63,-19.03 549.84,-27.62 553.84,-21.88"/>
</a>
</g>
</g>
<!-- Node7 -->
<g id="Node000007" class="node">
<title>Node7</title>
<g id="a_Node000007"><a xlink:title=" ">
<polygon fill="#e0e0e0" stroke="#999999" points="650.5,-19 602.5,-19 602.5,0 650.5,0 650.5,-19"/>
<text text-anchor="middle" x="626.5" y="-7" font-family="Helvetica,sans-Serif" font-size="10.00">mutex</text>
</a>
</g>
</g>
<!-- Node1&#45;&gt;Node7 -->
<g id="edge24_Node000001_Node000007" class="edge">
<title>Node1&#45;&gt;Node7</title>
<g id="a_edge24_Node000001_Node000007"><a xlink:title=" ">
<path fill="none" stroke="#63b8ff" d="M639.01,-230.8C637.1,-197.29 630.22,-76.08 627.56,-29.2"/>
<polygon fill="#63b8ff" stroke="#63b8ff" points="631.06,-28.99 626.99,-19.21 624.07,-29.39 631.06,-28.99"/>
</a>
</g>
</g>
<!-- Node15 -->
<g id="Node000015" class="node">
<title>Node15</title>
<g id="a_Node000015"><a xlink:title=" ">
<polygon fill="#e0e0e0" stroke="#999999" points="723,-195 668,-195 668,-176 723,-176 723,-195"/>
<text text-anchor="middle" x="695.5" y="-183" font-family="Helvetica,sans-Serif" font-size="10.00">fstream</text>
</a>
</g>
</g>
<!-- Node1&#45;&gt;Node15 -->
<g id="edge23_Node000001_Node000015" class="edge">
<title>Node1&#45;&gt;Node15</title>
<g id="a_edge23_Node000001_Node000015"><a xlink:title=" ">
<path fill="none" stroke="#63b8ff" d="M648.5,-230.98C656.69,-223.23 669.01,-211.58 678.97,-202.14"/>
<polygon fill="#63b8ff" stroke="#63b8ff" points="681.48,-204.59 686.34,-195.17 676.67,-199.5 681.48,-204.59"/>
</a>
</g>
</g>
<!-- Node16 -->
<g id="Node000016" class="node">
<title>Node16</title>
<g id="a_Node000016"><a xlink:title=" ">
<polygon fill="#e0e0e0" stroke="#999999" points="791.5,-195 741.5,-195 741.5,-176 791.5,-176 791.5,-195"/>
<text text-anchor="middle" x="766.5" y="-183" font-family="Helvetica,sans-Serif" font-size="10.00">atomic</text>
</a>
</g>
</g>
<!-- Node1&#45;&gt;Node16 -->
<g id="edge25_Node000001_Node000016" class="edge">
<title>Node1&#45;&gt;Node16</title>
<g id="a_edge25_Node000001_Node000016"><a xlink:title=" ">
<path fill="none" stroke="#63b8ff" d="M659.9,-230.98C680.52,-222.38 712.61,-208.99 736.19,-199.15"/>
<polygon fill="#63b8ff" stroke="#63b8ff" points="737.84,-202.25 745.72,-195.17 735.15,-195.79 737.84,-202.25"/>
</a>
</g>
</g>
<!-- Node3 -->
<g id="Node000003" class="node">
<title>Node3</title>
<g id="a_Node000003"><a xlink:title=" ">
<polygon fill="#e0e0e0" stroke="#999999" points="333.5,-19 289.5,-19 289.5,0 333.5,0 333.5,-19"/>
<text text-anchor="middle" x="311.5" y="-7" font-family="Helvetica,sans-Serif" font-size="10.00">string</text>
</a>
</g>
</g>
<!-- Node2&#45;&gt;Node3 -->
<g id="edge2_Node000002_Node000003" class="edge">
<title>Node2&#45;&gt;Node3</title>
<g id="a_edge2_Node000002_Node000003"><a xlink:title=" ">
<path fill="none" stroke="#63b8ff" d="M334.31,-178.98C291.04,-172.24 227.23,-159.29 212.5,-140 180.3,-97.83 248.35,-47.98 287.09,-24.31"/>
<polygon fill="#63b8ff" stroke="#63b8ff" points="288.98,-27.26 295.78,-19.14 285.4,-21.24 288.98,-27.26"/>
</a>
</g>
</g>
<!-- Node4 -->
<g id="Node000004" class="node">
<title>Node4</title>
<g id="a_Node000004"><a xlink:title=" ">
<polygon fill="#e0e0e0" stroke="#999999" points="365.5,-74 315.5,-74 315.5,-55 365.5,-55 365.5,-74"/>
<text text-anchor="middle" x="340.5" y="-62" font-family="Helvetica,sans-Serif" font-size="10.00">chrono</text>
</a>
</g>
</g>
<!-- Node2&#45;&gt;Node4 -->
<g id="edge3_Node000002_Node000004" class="edge">
<title>Node2&#45;&gt;Node4</title>
<g id="a_edge3_Node000002_Node000004"><a xlink:title=" ">
<path fill="none" stroke="#63b8ff" d="M373.54,-175.71C370.36,-161.7 363.7,-133.48 356.5,-110 353.82,-101.27 350.45,-91.72 347.49,-83.72"/>
<polygon fill="#63b8ff" stroke="#63b8ff" points="350.74,-82.41 343.94,-74.28 344.19,-84.87 350.74,-82.41"/>
</a>
</g>
</g>
<!-- Node5 -->
<g id="Node000005" class="node">
<title>Node5</title>
<g id="a_Node000005"><a xlink:href="logger__interface_8h.html" target="_top" xlink:title=" ">
<polygon fill="white" stroke="#666666" points="573.5,-74 459.5,-74 459.5,-55 573.5,-55 573.5,-74"/>
<text text-anchor="middle" x="516.5" y="-62" font-family="Helvetica,sans-Serif" font-size="10.00">../logger_interface.h</text>
</a>
</g>
</g>
<!-- Node2&#45;&gt;Node5 -->
<g id="edge4_Node000002_Node000005" class="edge">
<title>Node2&#45;&gt;Node5</title>
<g id="a_edge4_Node000002_Node000005"><a xlink:title=" ">
<path fill="none" stroke="#63b8ff" d="M416.57,-179.44C461.43,-172.97 528.99,-160.13 544.5,-140 557.88,-122.64 543.93,-98.19 531.38,-82.1"/>
<polygon fill="#63b8ff" stroke="#63b8ff" points="533.82,-79.57 524.73,-74.12 528.44,-84.05 533.82,-79.57"/>
</a>
</g>
</g>
<!-- Node8 -->
<g id="Node000008" class="node">
<title>Node8</title>
<g id="a_Node000008"><a xlink:href="error__codes_8h.html" target="_top" xlink:title=" ">
<polygon fill="white" stroke="#666666" points="174.5,-74 82.5,-74 82.5,-55 174.5,-55 174.5,-74"/>
<text text-anchor="middle" x="128.5" y="-62" font-family="Helvetica,sans-Serif" font-size="10.00">../error_codes.h</text>
</a>
</g>
</g>
<!-- Node2&#45;&gt;Node8 -->
<g id="edge8_Node000002_Node000008" class="edge">
<title>Node2&#45;&gt;Node8</title>
<g id="a_edge8_Node000002_Node000008"><a xlink:title=" ">
<path fill="none" stroke="#63b8ff" d="M334.15,-183.73C291.92,-181.09 226.11,-171.67 179.5,-140 158.99,-126.07 144.36,-100.91 136.17,-83.72"/>
<polygon fill="#63b8ff" stroke="#63b8ff" points="139.19,-81.91 131.91,-74.22 132.8,-84.77 139.19,-81.91"/>
</a>
</g>
</g>
<!-- Node13 -->
<g id="Node000013" class="node">
<title>Node13</title>
<g id="a_Node000013"><a xlink:href="log__writer__interface_8h.html" target="_top" xlink:title=" ">
<polygon fill="white" stroke="#666666" points="347.5,-140 221.5,-140 221.5,-110 347.5,-110 347.5,-140"/>
<text text-anchor="start" x="229.5" y="-128" font-family="Helvetica,sans-Serif" font-size="10.00">../interfaces/log_writer</text>
<text text-anchor="middle" x="284.5" y="-117" font-family="Helvetica,sans-Serif" font-size="10.00">_interface.h</text>
</a>
</g>
</g>
<!-- Node2&#45;&gt;Node13 -->
<g id="edge14_Node000002_Node000013" class="edge">
<title>Node2&#45;&gt;Node13</title>
<g id="a_edge14_Node000002_Node000013"><a xlink:title=" ">
<path fill="none" stroke="#63b8ff" d="M362.07,-175.87C349.73,-167.93 330.97,-155.87 314.99,-145.6"/>
<polygon fill="#63b8ff" stroke="#63b8ff" points="316.76,-142.58 306.46,-140.11 312.98,-148.47 316.76,-142.58"/>
</a>
</g>
</g>
<!-- Node14 -->
<g id="Node000014" class="node">
<title>Node14</title>
<g id="a_Node000014"><a xlink:href="log__entry_8h.html" target="_top" xlink:title=" ">
<polygon fill="white" stroke="#666666" points="535,-134.5 404,-134.5 404,-115.5 535,-115.5 535,-134.5"/>
<text text-anchor="middle" x="469.5" y="-122.5" font-family="Helvetica,sans-Serif" font-size="10.00">../interfaces/log_entry.h</text>
</a>
</g>
</g>
<!-- Node2&#45;&gt;Node14 -->
<g id="edge18_Node000002_Node000014" class="edge">
<title>Node2&#45;&gt;Node14</title>
<g id="a_edge18_Node000002_Node000014"><a xlink:title=" ">
<path fill="none" stroke="#63b8ff" d="M389.37,-175.87C404.5,-166.45 428.96,-151.23 446.88,-140.08"/>
<polygon fill="#63b8ff" stroke="#63b8ff" points="448.93,-142.92 455.57,-134.67 445.23,-136.98 448.93,-142.92"/>
</a>
</g>
</g>
<!-- Node5&#45;&gt;Node3 -->
<g id="edge7_Node000005_Node000003" class="edge">
<title>Node5&#45;&gt;Node3</title>
<g id="a_edge7_Node000005_Node000003"><a xlink:title=" ">
<path fill="none" stroke="#63b8ff" d="M483.56,-54.98C445.08,-45.03 381.82,-28.68 343.67,-18.82"/>
<polygon fill="#63b8ff" stroke="#63b8ff" points="344.17,-15.33 333.62,-16.22 342.42,-22.11 344.17,-15.33"/>
</a>
</g>
</g>
<!-- Node5&#45;&gt;Node6 -->
<g id="edge5_Node000005_Node000006" class="edge">
<title>Node5&#45;&gt;Node6</title>
<g id="a_edge5_Node000005_Node000006"><a xlink:title=" ">
<path fill="none" stroke="#63b8ff" d="M518.65,-54.75C520.37,-47.72 522.85,-37.62 525,-28.84"/>
<polygon fill="#63b8ff" stroke="#63b8ff" points="528.41,-29.63 527.39,-19.09 521.61,-27.97 528.41,-29.63"/>
</a>
</g>
</g>
<!-- Node5&#45;&gt;Node7 -->
<g id="edge6_Node000005_Node000007" class="edge">
<title>Node5&#45;&gt;Node7</title>
<g id="a_edge6_Node000005_Node000007"><a xlink:title=" ">
<path fill="none" stroke="#63b8ff" d="M534.17,-54.98C551.79,-46.5 579.08,-33.35 599.43,-23.54"/>
<polygon fill="#63b8ff" stroke="#63b8ff" points="601.02,-26.66 608.51,-19.17 597.98,-20.36 601.02,-26.66"/>
</a>
</g>
</g>
<!-- Node8&#45;&gt;Node3 -->
<g id="edge9_Node000008_Node000003" class="edge">
<title>Node8&#45;&gt;Node3</title>
<g id="a_edge9_Node000008_Node000003"><a xlink:title=" ">
<path fill="none" stroke="#63b8ff" d="M157.9,-54.98C191.14,-45.36 245.08,-29.74 279.39,-19.8"/>
<polygon fill="#63b8ff" stroke="#63b8ff" points="280.73,-23.05 289.36,-16.91 278.79,-16.33 280.73,-23.05"/>
</a>
</g>
</g>
<!-- Node9 -->
<g id="Node000009" class="node">
<title>Node9</title>
<g id="a_Node000009"><a xlink:title=" ">
<polygon fill="#e0e0e0" stroke="#999999" points="134,-19 69,-19 69,0 134,0 134,-19"/>
<text text-anchor="middle" x="101.5" y="-7" font-family="Helvetica,sans-Serif" font-size="10.00">stdexcept</text>
</a>
</g>
</g>
<!-- Node8&#45;&gt;Node9 -->
<g id="edge10_Node000008_Node000009" class="edge">
<title>Node8&#45;&gt;Node9</title>
<g id="a_edge10_Node000008_Node000009"><a xlink:title=" ">
<path fill="none" stroke="#63b8ff" d="M124.04,-54.75C120.38,-47.57 115.09,-37.18 110.55,-28.27"/>
<polygon fill="#63b8ff" stroke="#63b8ff" points="113.53,-26.41 105.88,-19.09 107.3,-29.59 113.53,-26.41"/>
</a>
</g>
</g>
<!-- Node10 -->
<g id="Node000010" class="node">
<title>Node10</title>
<g id="a_Node000010"><a xlink:title=" ">
<polygon fill="#e0e0e0" stroke="#999999" points="197,-19 152,-19 152,0 197,0 197,-19"/>
<text text-anchor="middle" x="174.5" y="-7" font-family="Helvetica,sans-Serif" font-size="10.00">utility</text>
</a>
</g>
</g>
<!-- Node8&#45;&gt;Node10 -->
<g id="edge11_Node000008_Node000010" class="edge">
<title>Node8&#45;&gt;Node10</title>
<g id="a_edge11_Node000008_Node000010"><a xlink:title=" ">
<path fill="none" stroke="#63b8ff" d="M136.1,-54.75C142.66,-47.18 152.32,-36.05 160.31,-26.84"/>
<polygon fill="#63b8ff" stroke="#63b8ff" points="163.13,-28.94 167.05,-19.09 157.85,-24.35 163.13,-28.94"/>
</a>
</g>
</g>
<!-- Node11 -->
<g id="Node000011" class="node">
<title>Node11</title>
<g id="a_Node000011"><a xlink:title=" ">
<polygon fill="#e0e0e0" stroke="#999999" points="271.5,-19 215.5,-19 215.5,0 271.5,0 271.5,-19"/>
<text text-anchor="middle" x="243.5" y="-7" font-family="Helvetica,sans-Serif" font-size="10.00">optional</text>
</a>
</g>
</g>
<!-- Node8&#45;&gt;Node11 -->
<g id="edge12_Node000008_Node000011" class="edge">
<title>Node8&#45;&gt;Node11</title>
<g id="a_edge12_Node000008_Node000011"><a xlink:title=" ">
<path fill="none" stroke="#63b8ff" d="M146.98,-54.98C165.48,-46.46 194.18,-33.23 215.48,-23.41"/>
<polygon fill="#63b8ff" stroke="#63b8ff" points="217.07,-26.53 224.69,-19.17 214.14,-20.18 217.07,-26.53"/>
</a>
</g>
</g>
<!-- Node12 -->
<g id="Node000012" class="node">
<title>Node12</title>
<g id="a_Node000012"><a xlink:title=" ">
<polygon fill="#e0e0e0" stroke="#999999" points="51,-19 0,-19 0,0 51,0 51,-19"/>
<text text-anchor="middle" x="25.5" y="-7" font-family="Helvetica,sans-Serif" font-size="10.00">variant</text>
</a>
</g>
</g>
<!-- Node8&#45;&gt;Node12 -->
<g id="edge13_Node000008_Node000012" class="edge">
<title>Node8&#45;&gt;Node12</title>
<g id="a_edge13_Node000008_Node000012"><a xlink:title=" ">
<path fill="none" stroke="#63b8ff" d="M111.95,-54.98C95.61,-46.57 70.37,-33.59 51.37,-23.81"/>
<polygon fill="#63b8ff" stroke="#63b8ff" points="52.84,-20.63 42.35,-19.17 49.64,-26.86 52.84,-20.63"/>
</a>
</g>
</g>
<!-- Node13&#45;&gt;Node3 -->
<g id="edge15_Node000013_Node000003" class="edge">
<title>Node13&#45;&gt;Node3</title>
<g id="a_edge15_Node000013_Node000003"><a xlink:title=" ">
<path fill="none" stroke="#63b8ff" d="M287.92,-109.63C292.78,-89.21 301.67,-51.81 307.04,-29.24"/>
<polygon fill="#63b8ff" stroke="#63b8ff" points="310.51,-29.77 309.42,-19.23 303.7,-28.15 310.51,-29.77"/>
</a>
</g>
</g>
<!-- Node13&#45;&gt;Node4 -->
<g id="edge16_Node000013_Node000004" class="edge">
<title>Node13&#45;&gt;Node4</title>
<g id="a_edge16_Node000013_Node000004"><a xlink:title=" ">
<path fill="none" stroke="#63b8ff" d="M298.06,-109.84C306.18,-101.35 316.55,-90.52 325,-81.69"/>
<polygon fill="#63b8ff" stroke="#63b8ff" points="327.72,-83.91 332.11,-74.27 322.67,-79.07 327.72,-83.91"/>
</a>
</g>
</g>
<!-- Node13&#45;&gt;Node8 -->
<g id="edge17_Node000013_Node000008" class="edge">
<title>Node13&#45;&gt;Node8</title>
<g id="a_edge17_Node000013_Node000008"><a xlink:title=" ">
<path fill="none" stroke="#63b8ff" d="M247.13,-109.99C220.87,-100.14 186.09,-87.1 160.98,-77.68"/>
<polygon fill="#63b8ff" stroke="#63b8ff" points="162.13,-74.37 151.54,-74.14 159.67,-80.93 162.13,-74.37"/>
</a>
</g>
</g>
<!-- Node14&#45;&gt;Node3 -->
<g id="edge19_Node000014_Node000003" class="edge">
<title>Node14&#45;&gt;Node3</title>
<g id="a_edge19_Node000014_Node000003"><a xlink:title=" ">
<path fill="none" stroke="#63b8ff" d="M463.53,-115.34C453.4,-101.16 431.59,-72.8 407.5,-55 387.91,-40.52 362.86,-29.1 343.26,-21.46"/>
<polygon fill="#63b8ff" stroke="#63b8ff" points="344.44,-18.16 333.84,-17.91 341.97,-24.71 344.44,-18.16"/>
</a>
</g>
</g>
<!-- Node14&#45;&gt;Node4 -->
<g id="edge20_Node000014_Node000004" class="edge">
<title>Node14&#45;&gt;Node4</title>
<g id="a_edge20_Node000014_Node000004"><a xlink:title=" ">
<path fill="none" stroke="#63b8ff" d="M450.74,-115.49C429.15,-105.7 393.47,-89.52 368.57,-78.23"/>
<polygon fill="#63b8ff" stroke="#63b8ff" points="369.83,-74.96 359.28,-74.02 366.94,-81.33 369.83,-74.96"/>
</a>
</g>
</g>
<!-- Node14&#45;&gt;Node5 -->
<g id="edge22_Node000014_Node000005" class="edge">
<title>Node14&#45;&gt;Node5</title>
<g id="a_edge22_Node000014_Node000005"><a xlink:title=" ">
<path fill="none" stroke="#63b8ff" d="M476.44,-115.37C483.45,-106.64 494.46,-92.93 503.17,-82.09"/>
<polygon fill="#63b8ff" stroke="#63b8ff" points="506,-84.16 509.54,-74.17 500.54,-79.77 506,-84.16"/>
</a>
</g>
</g>
<!-- Node14&#45;&gt;Node11 -->
<g id="edge21_Node000014_Node000011" class="edge">
<title>Node14&#45;&gt;Node11</title>
<g id="a_edge21_Node000014_Node000011"><a xlink:title=" ">
<path fill="none" stroke="#63b8ff" d="M459.89,-115.48C443.44,-101.27 408.35,-72.53 374.5,-55 344.62,-39.53 308.21,-27.66 281.36,-20.09"/>
<polygon fill="#63b8ff" stroke="#63b8ff" points="282.15,-16.67 271.58,-17.4 280.29,-23.42 282.15,-16.67"/>
</a>
</g>
</g>
</g>
</svg>
