<?xml version="1.0" encoding="UTF-8" standalone="no"?>
<!DOCTYPE svg PUBLIC "-//W3C//DTD SVG 1.1//EN"
 "http://www.w3.org/Graphics/SVG/1.1/DTD/svg11.dtd">
<!-- Generated by graphviz version 2.43.0 (0)
 -->
<!-- Title: file_writer.h Pages: 1 -->
<svg width="761pt" height="258pt"
 viewBox="0.00 0.00 760.50 258.00" xmlns="http://www.w3.org/2000/svg" xmlns:xlink="http://www.w3.org/1999/xlink">
<g id="graph0" class="graph" transform="scale(1 1) rotate(0) translate(4 254)">
<title>file_writer.h</title>
<!-- Node1 -->
<g id="Node000001" class="node">
<title>Node1</title>
<g id="a_Node000001"><a xlink:title=" ">
<polygon fill="#999999" stroke="#666666" points="637.5,-250 563.5,-250 563.5,-231 637.5,-231 637.5,-250"/>
<text text-anchor="middle" x="600.5" y="-238" font-family="Helvetica,sans-Serif" font-size="10.00">file_writer.h</text>
</a>
</g>
</g>
<!-- Node2 -->
<g id="Node000002" class="node">
<title>Node2</title>
<g id="a_Node000002"><a xlink:href="base__writer_8h.html" target="_top" xlink:title=" ">
<polygon fill="white" stroke="#666666" points="377.5,-195 295.5,-195 295.5,-176 377.5,-176 377.5,-195"/>
<text text-anchor="middle" x="336.5" y="-183" font-family="Helvetica,sans-Serif" font-size="10.00">base_writer.h</text>
</a>
</g>
</g>
<!-- Node1&#45;&gt;Node2 -->
<g id="edge1_Node000001_Node000002" class="edge">
<title>Node1&#45;&gt;Node2</title>
<g id="a_edge1_Node000001_Node000002"><a xlink:title=" ">
<path fill="none" stroke="#63b8ff" d="M563.24,-232.02C517.4,-222.82 439.35,-207.15 387.85,-196.81"/>
<polygon fill="#63b8ff" stroke="#63b8ff" points="388.42,-193.35 377.92,-194.82 387.04,-200.22 388.42,-193.35"/>
</a>
</g>
</g>
<!-- Node6 -->
<g id="Node000006" class="node">
<title>Node6</title>
<g id="a_Node000006"><a xlink:title=" ">
<polygon fill="#e0e0e0" stroke="#999999" points="519.5,-19 461.5,-19 461.5,0 519.5,0 519.5,-19"/>
<text text-anchor="middle" x="490.5" y="-7" font-family="Helvetica,sans-Serif" font-size="10.00">memory</text>
</a>
</g>
</g>
<!-- Node1&#45;&gt;Node6 -->
<g id="edge25_Node000001_Node000006" class="edge">
<title>Node1&#45;&gt;Node6</title>
<g id="a_edge25_Node000001_Node000006"><a xlink:title=" ">
<path fill="none" stroke="#63b8ff" d="M598.54,-230.97C591.08,-198.86 563.8,-85.59 543.5,-55 535.61,-43.11 523.64,-32.68 513.06,-24.91"/>
<polygon fill="#63b8ff" stroke="#63b8ff" points="514.84,-21.88 504.63,-19.03 510.84,-27.62 514.84,-21.88"/>
</a>
</g>
</g>
<!-- Node7 -->
<g id="Node000007" class="node">
<title>Node7</title>
<g id="a_Node000007"><a xlink:title=" ">
<polygon fill="#e0e0e0" stroke="#999999" points="611.5,-19 563.5,-19 563.5,0 611.5,0 611.5,-19"/>
<text text-anchor="middle" x="587.5" y="-7" font-family="Helvetica,sans-Serif" font-size="10.00">mutex</text>
</a>
</g>
</g>
<!-- Node1&#45;&gt;Node7 -->
<g id="edge23_Node000001_Node000007" class="edge">
<title>Node1&#45;&gt;Node7</title>
<g id="a_edge23_Node000001_Node000007"><a xlink:title=" ">
<path fill="none" stroke="#63b8ff" d="M600.01,-230.8C598.1,-197.29 591.22,-76.08 588.56,-29.2"/>
<polygon fill="#63b8ff" stroke="#63b8ff" points="592.06,-28.99 587.99,-19.21 585.07,-29.39 592.06,-28.99"/>
</a>
</g>
</g>
<!-- Node14 -->
<g id="Node000014" class="node">
<title>Node14</title>
<g id="a_Node000014"><a xlink:title=" ">
<polygon fill="#e0e0e0" stroke="#999999" points="684,-195 629,-195 629,-176 684,-176 684,-195"/>
<text text-anchor="middle" x="656.5" y="-183" font-family="Helvetica,sans-Serif" font-size="10.00">fstream</text>
</a>
</g>
</g>
<!-- Node1&#45;&gt;Node14 -->
<g id="edge22_Node000001_Node000014" class="edge">
<title>Node1&#45;&gt;Node14</title>
<g id="a_edge22_Node000001_Node000014"><a xlink:title=" ">
<path fill="none" stroke="#63b8ff" d="M609.5,-230.98C617.69,-223.23 630.01,-211.58 639.97,-202.14"/>
<polygon fill="#63b8ff" stroke="#63b8ff" points="642.48,-204.59 647.34,-195.17 637.67,-199.5 642.48,-204.59"/>
</a>
</g>
</g>
<!-- Node15 -->
<g id="Node000015" class="node">
<title>Node15</title>
<g id="a_Node000015"><a xlink:title=" ">
<polygon fill="#e0e0e0" stroke="#999999" points="752.5,-195 702.5,-195 702.5,-176 752.5,-176 752.5,-195"/>
<text text-anchor="middle" x="727.5" y="-183" font-family="Helvetica,sans-Serif" font-size="10.00">atomic</text>
</a>
</g>
</g>
<!-- Node1&#45;&gt;Node15 -->
<g id="edge24_Node000001_Node000015" class="edge">
<title>Node1&#45;&gt;Node15</title>
<g id="a_edge24_Node000001_Node000015"><a xlink:title=" ">
<path fill="none" stroke="#63b8ff" d="M620.9,-230.98C641.52,-222.38 673.61,-208.99 697.19,-199.15"/>
<polygon fill="#63b8ff" stroke="#63b8ff" points="698.84,-202.25 706.72,-195.17 696.15,-195.79 698.84,-202.25"/>
</a>
</g>
</g>
<!-- Node3 -->
<g id="Node000003" class="node">
<title>Node3</title>
<g id="a_Node000003"><a xlink:title=" ">
<polygon fill="#e0e0e0" stroke="#999999" points="270.5,-19 226.5,-19 226.5,0 270.5,0 270.5,-19"/>
<text text-anchor="middle" x="248.5" y="-7" font-family="Helvetica,sans-Serif" font-size="10.00">string</text>
</a>
</g>
</g>
<!-- Node2&#45;&gt;Node3 -->
<g id="edge2_Node000002_Node000003" class="edge">
<title>Node2&#45;&gt;Node3</title>
<g id="a_edge2_Node000002_Node000003"><a xlink:title=" ">
<path fill="none" stroke="#63b8ff" d="M295.31,-178.98C252.04,-172.24 188.23,-159.29 173.5,-140 144.1,-101.5 197.32,-50.38 228.4,-25.45"/>
<polygon fill="#63b8ff" stroke="#63b8ff" points="230.75,-28.05 236.49,-19.14 226.45,-22.53 230.75,-28.05"/>
</a>
</g>
</g>
<!-- Node4 -->
<g id="Node000004" class="node">
<title>Node4</title>
<g id="a_Node000004"><a xlink:title=" ">
<polygon fill="#e0e0e0" stroke="#999999" points="326.5,-74 276.5,-74 276.5,-55 326.5,-55 326.5,-74"/>
<text text-anchor="middle" x="301.5" y="-62" font-family="Helvetica,sans-Serif" font-size="10.00">chrono</text>
</a>
</g>
</g>
<!-- Node2&#45;&gt;Node4 -->
<g id="edge3_Node000002_Node000004" class="edge">
<title>Node2&#45;&gt;Node4</title>
<g id="a_edge3_Node000002_Node000004"><a xlink:title=" ">
<path fill="none" stroke="#63b8ff" d="M334.54,-175.71C331.36,-161.7 324.7,-133.48 317.5,-110 314.82,-101.27 311.45,-91.72 308.49,-83.72"/>
<polygon fill="#63b8ff" stroke="#63b8ff" points="311.74,-82.41 304.94,-74.28 305.19,-84.87 311.74,-82.41"/>
</a>
</g>
</g>
<!-- Node5 -->
<g id="Node000005" class="node">
<title>Node5</title>
<g id="a_Node000005"><a xlink:href="logger__interface_8h.html" target="_top" xlink:title=" ">
<polygon fill="white" stroke="#666666" points="534.5,-74 420.5,-74 420.5,-55 534.5,-55 534.5,-74"/>
<text text-anchor="middle" x="477.5" y="-62" font-family="Helvetica,sans-Serif" font-size="10.00">../logger_interface.h</text>
</a>
</g>
</g>
<!-- Node2&#45;&gt;Node5 -->
<g id="edge4_Node000002_Node000005" class="edge">
<title>Node2&#45;&gt;Node5</title>
<g id="a_edge4_Node000002_Node000005"><a xlink:title=" ">
<path fill="none" stroke="#63b8ff" d="M377.57,-179.44C422.43,-172.97 489.99,-160.13 505.5,-140 518.88,-122.64 504.93,-98.19 492.38,-82.1"/>
<polygon fill="#63b8ff" stroke="#63b8ff" points="494.82,-79.57 485.73,-74.12 489.44,-84.05 494.82,-79.57"/>
</a>
</g>
</g>
<!-- Node8 -->
<g id="Node000008" class="node">
<title>Node8</title>
<g id="a_Node000008"><a xlink:href="error__codes_8h.html" target="_top" xlink:title=" ">
<polygon fill="white" stroke="#666666" points="154.5,-74 62.5,-74 62.5,-55 154.5,-55 154.5,-74"/>
<text text-anchor="middle" x="108.5" y="-62" font-family="Helvetica,sans-Serif" font-size="10.00">../error_codes.h</text>
</a>
</g>
</g>
<!-- Node2&#45;&gt;Node8 -->
<g id="edge8_Node000002_Node000008" class="edge">
<title>Node2&#45;&gt;Node8</title>
<g id="a_edge8_Node000002_Node000008"><a xlink:title=" ">
<path fill="none" stroke="#63b8ff" d="M295.37,-179.59C245.05,-172.84 163.7,-159.31 140.5,-140 123.55,-125.89 115.36,-101.15 111.56,-84.07"/>
<polygon fill="#63b8ff" stroke="#63b8ff" points="114.97,-83.3 109.64,-74.14 108.1,-84.62 114.97,-83.3"/>
</a>
</g>
</g>
<!-- Node12 -->
<g id="Node000012" class="node">
<title>Node12</title>
<g id="a_Node000012"><a xlink:href="log__writer__interface_8h.html" target="_top" xlink:title=" ">
<polygon fill="white" stroke="#666666" points="308.5,-140 182.5,-140 182.5,-110 308.5,-110 308.5,-140"/>
<text text-anchor="start" x="190.5" y="-128" font-family="Helvetica,sans-Serif" font-size="10.00">../interfaces/log_writer</text>
<text text-anchor="middle" x="245.5" y="-117" font-family="Helvetica,sans-Serif" font-size="10.00">_interface.h</text>
</a>
</g>
</g>
<!-- Node2&#45;&gt;Node12 -->
<g id="edge13_Node000002_Node000012" class="edge">
<title>Node2&#45;&gt;Node12</title>
<g id="a_edge13_Node000002_Node000012"><a xlink:title=" ">
<path fill="none" stroke="#63b8ff" d="M323.07,-175.87C310.73,-167.93 291.97,-155.87 275.99,-145.6"/>
<polygon fill="#63b8ff" stroke="#63b8ff" points="277.76,-142.58 267.46,-140.11 273.98,-148.47 277.76,-142.58"/>
</a>
</g>
</g>
<!-- Node13 -->
<g id="Node000013" class="node">
<title>Node13</title>
<g id="a_Node000013"><a xlink:href="log__entry_8h.html" target="_top" xlink:title=" ">
<polygon fill="white" stroke="#666666" points="496,-134.5 365,-134.5 365,-115.5 496,-115.5 496,-134.5"/>
<text text-anchor="middle" x="430.5" y="-122.5" font-family="Helvetica,sans-Serif" font-size="10.00">../interfaces/log_entry.h</text>
</a>
</g>
</g>
<!-- Node2&#45;&gt;Node13 -->
<g id="edge17_Node000002_Node000013" class="edge">
<title>Node2&#45;&gt;Node13</title>
<g id="a_edge17_Node000002_Node000013"><a xlink:title=" ">
<path fill="none" stroke="#63b8ff" d="M350.37,-175.87C365.5,-166.45 389.96,-151.23 407.88,-140.08"/>
<polygon fill="#63b8ff" stroke="#63b8ff" points="409.93,-142.92 416.57,-134.67 406.23,-136.98 409.93,-142.92"/>
</a>
</g>
</g>
<!-- Node5&#45;&gt;Node3 -->
<g id="edge7_Node000005_Node000003" class="edge">
<title>Node5&#45;&gt;Node3</title>
<g id="a_edge7_Node000005_Node000003"><a xlink:title=" ">
<path fill="none" stroke="#63b8ff" d="M440.71,-54.98C396.42,-44.73 322.75,-27.69 280.65,-17.94"/>
<polygon fill="#63b8ff" stroke="#63b8ff" points="281.19,-14.47 270.66,-15.63 279.61,-21.29 281.19,-14.47"/>
</a>
</g>
</g>
<!-- Node5&#45;&gt;Node6 -->
<g id="edge5_Node000005_Node000006" class="edge">
<title>Node5&#45;&gt;Node6</title>
<g id="a_edge5_Node000005_Node000006"><a xlink:title=" ">
<path fill="none" stroke="#63b8ff" d="M479.65,-54.75C481.37,-47.72 483.85,-37.62 486,-28.84"/>
<polygon fill="#63b8ff" stroke="#63b8ff" points="489.41,-29.63 488.39,-19.09 482.61,-27.97 489.41,-29.63"/>
</a>
</g>
</g>
<!-- Node5&#45;&gt;Node7 -->
<g id="edge6_Node000005_Node000007" class="edge">
<title>Node5&#45;&gt;Node7</title>
<g id="a_edge6_Node000005_Node000007"><a xlink:title=" ">
<path fill="none" stroke="#63b8ff" d="M495.17,-54.98C512.79,-46.5 540.08,-33.35 560.43,-23.54"/>
<polygon fill="#63b8ff" stroke="#63b8ff" points="562.02,-26.66 569.51,-19.17 558.98,-20.36 562.02,-26.66"/>
</a>
</g>
</g>
<!-- Node8&#45;&gt;Node3 -->
<g id="edge9_Node000008_Node000003" class="edge">
<title>Node8&#45;&gt;Node3</title>
<g id="a_edge9_Node000008_Node000003"><a xlink:title=" ">
<path fill="none" stroke="#63b8ff" d="M130.99,-54.98C154.16,-46.21 190.47,-32.47 216.6,-22.58"/>
<polygon fill="#63b8ff" stroke="#63b8ff" points="217.95,-25.81 226.06,-18.99 215.47,-19.26 217.95,-25.81"/>
</a>
</g>
</g>
<!-- Node9 -->
<g id="Node000009" class="node">
<title>Node9</title>
<g id="a_Node000009"><a xlink:title=" ">
<polygon fill="#e0e0e0" stroke="#999999" points="65,-19 0,-19 0,0 65,0 65,-19"/>
<text text-anchor="middle" x="32.5" y="-7" font-family="Helvetica,sans-Serif" font-size="10.00">stdexcept</text>
</a>
</g>
</g>
<!-- Node8&#45;&gt;Node9 -->
<g id="edge10_Node000008_Node000009" class="edge">
<title>Node8&#45;&gt;Node9</title>
<g id="a_edge10_Node000008_Node000009"><a xlink:title=" ">
<path fill="none" stroke="#63b8ff" d="M96.29,-54.98C84.72,-46.92 67.12,-34.65 53.34,-25.03"/>
<polygon fill="#63b8ff" stroke="#63b8ff" points="55.14,-22.02 44.93,-19.17 51.13,-27.76 55.14,-22.02"/>
</a>
</g>
</g>
<!-- Node10 -->
<g id="Node000010" class="node">
<title>Node10</title>
<g id="a_Node000010"><a xlink:title=" ">
<polygon fill="#e0e0e0" stroke="#999999" points="208.5,-19 152.5,-19 152.5,0 208.5,0 208.5,-19"/>
<text text-anchor="middle" x="180.5" y="-7" font-family="Helvetica,sans-Serif" font-size="10.00">optional</text>
</a>
</g>
</g>
<!-- Node8&#45;&gt;Node10 -->
<g id="edge11_Node000008_Node000010" class="edge">
<title>Node8&#45;&gt;Node10</title>
<g id="a_edge11_Node000008_Node000010"><a xlink:title=" ">
<path fill="none" stroke="#63b8ff" d="M120.07,-54.98C130.92,-47 147.38,-34.88 160.38,-25.31"/>
<polygon fill="#63b8ff" stroke="#63b8ff" points="162.74,-27.92 168.72,-19.17 158.59,-22.28 162.74,-27.92"/>
</a>
</g>
</g>
<!-- Node11 -->
<g id="Node000011" class="node">
<title>Node11</title>
<g id="a_Node000011"><a xlink:title=" ">
<polygon fill="#e0e0e0" stroke="#999999" points="134,-19 83,-19 83,0 134,0 134,-19"/>
<text text-anchor="middle" x="108.5" y="-7" font-family="Helvetica,sans-Serif" font-size="10.00">variant</text>
</a>
</g>
</g>
<!-- Node8&#45;&gt;Node11 -->
<g id="edge12_Node000008_Node000011" class="edge">
<title>Node8&#45;&gt;Node11</title>
<g id="a_edge12_Node000008_Node000011"><a xlink:title=" ">
<path fill="none" stroke="#63b8ff" d="M108.5,-54.75C108.5,-47.8 108.5,-37.85 108.5,-29.13"/>
<polygon fill="#63b8ff" stroke="#63b8ff" points="112,-29.09 108.5,-19.09 105,-29.09 112,-29.09"/>
</a>
</g>
</g>
<!-- Node12&#45;&gt;Node3 -->
<g id="edge14_Node000012_Node000003" class="edge">
<title>Node12&#45;&gt;Node3</title>
<g id="a_edge14_Node000012_Node000003"><a xlink:title=" ">
<path fill="none" stroke="#63b8ff" d="M245.88,-109.63C246.42,-89.21 247.41,-51.81 248,-29.24"/>
<polygon fill="#63b8ff" stroke="#63b8ff" points="251.5,-29.32 248.27,-19.23 244.51,-29.13 251.5,-29.32"/>
</a>
</g>
</g>
<!-- Node12&#45;&gt;Node4 -->
<g id="edge15_Node000012_Node000004" class="edge">
<title>Node12&#45;&gt;Node4</title>
<g id="a_edge15_Node000012_Node000004"><a xlink:title=" ">
<path fill="none" stroke="#63b8ff" d="M259.06,-109.84C267.18,-101.35 277.55,-90.52 286,-81.69"/>
<polygon fill="#63b8ff" stroke="#63b8ff" points="288.72,-83.91 293.11,-74.27 283.67,-79.07 288.72,-83.91"/>
</a>
</g>
</g>
<!-- Node12&#45;&gt;Node8 -->
<g id="edge16_Node000012_Node000008" class="edge">
<title>Node12&#45;&gt;Node8</title>
<g id="a_edge16_Node000012_Node000008"><a xlink:title=" ">
<path fill="none" stroke="#63b8ff" d="M212.69,-109.99C190.03,-100.31 160.15,-87.56 138.2,-78.18"/>
<polygon fill="#63b8ff" stroke="#63b8ff" points="139.3,-74.85 128.73,-74.14 136.55,-81.29 139.3,-74.85"/>
</a>
</g>
</g>
<!-- Node13&#45;&gt;Node3 -->
<g id="edge18_Node000013_Node000003" class="edge">
<title>Node13&#45;&gt;Node3</title>
<g id="a_edge18_Node000013_Node000003"><a xlink:title=" ">
<path fill="none" stroke="#63b8ff" d="M424.69,-115.12C414.78,-100.63 393.27,-71.84 368.5,-55 341.53,-36.67 306.04,-24.73 280.66,-17.88"/>
<polygon fill="#63b8ff" stroke="#63b8ff" points="281.36,-14.44 270.8,-15.33 279.61,-21.22 281.36,-14.44"/>
</a>
</g>
</g>
<!-- Node13&#45;&gt;Node4 -->
<g id="edge19_Node000013_Node000004" class="edge">
<title>Node13&#45;&gt;Node4</title>
<g id="a_edge19_Node000013_Node000004"><a xlink:title=" ">
<path fill="none" stroke="#63b8ff" d="M411.74,-115.49C390.15,-105.7 354.47,-89.52 329.57,-78.23"/>
<polygon fill="#63b8ff" stroke="#63b8ff" points="330.83,-74.96 320.28,-74.02 327.94,-81.33 330.83,-74.96"/>
</a>
</g>
</g>
<!-- Node13&#45;&gt;Node5 -->
<g id="edge21_Node000013_Node000005" class="edge">
<title>Node13&#45;&gt;Node5</title>
<g id="a_edge21_Node000013_Node000005"><a xlink:title=" ">
<path fill="none" stroke="#63b8ff" d="M437.44,-115.37C444.45,-106.64 455.46,-92.93 464.17,-82.09"/>
<polygon fill="#63b8ff" stroke="#63b8ff" points="467,-84.16 470.54,-74.17 461.54,-79.77 467,-84.16"/>
</a>
</g>
</g>
<!-- Node13&#45;&gt;Node10 -->
<g id="edge20_Node000013_Node000010" class="edge">
<title>Node13&#45;&gt;Node10</title>
<g id="a_edge20_Node000013_Node000010"><a xlink:title=" ">
<path fill="none" stroke="#63b8ff" d="M420.98,-115.31C404.66,-100.83 369.76,-71.71 335.5,-55 314.94,-44.97 257.48,-29.62 218.6,-19.82"/>
<polygon fill="#63b8ff" stroke="#63b8ff" points="219.21,-16.36 208.66,-17.33 217.51,-23.15 219.21,-16.36"/>
</a>
</g>
</g>
</g>
</svg>
