<?xml version="1.0" encoding="UTF-8" standalone="no"?>
<!DOCTYPE svg PUBLIC "-//W3C//DTD SVG 1.1//EN"
 "http://www.w3.org/Graphics/SVG/1.1/DTD/svg11.dtd">
<!-- Generated by graphviz version 2.43.0 (0)
 -->
<!-- Title: file_writer.cpp Pages: 1 -->
<svg width="747pt" height="313pt"
 viewBox="0.00 0.00 747.00 313.00" xmlns="http://www.w3.org/2000/svg" xmlns:xlink="http://www.w3.org/1999/xlink">
<g id="graph0" class="graph" transform="scale(1 1) rotate(0) translate(4 309)">
<title>file_writer.cpp</title>
<!-- Node1 -->
<g id="Node000001" class="node">
<title>Node1</title>
<g id="a_Node000001"><a xlink:title=" ">
<polygon fill="#999999" stroke="#666666" points="669.5,-305 584.5,-305 584.5,-286 669.5,-286 669.5,-305"/>
<text text-anchor="middle" x="627" y="-293" font-family="Helvetica,sans-Serif" font-size="10.00">file_writer.cpp</text>
</a>
</g>
</g>
<!-- Node2 -->
<g id="Node000002" class="node">
<title>Node2</title>
<g id="a_Node000002"><a xlink:href="file__writer_8h.html" target="_top" xlink:title=" ">
<polygon fill="white" stroke="#666666" points="575,-250 501,-250 501,-231 575,-231 575,-250"/>
<text text-anchor="middle" x="538" y="-238" font-family="Helvetica,sans-Serif" font-size="10.00">file_writer.h</text>
</a>
</g>
</g>
<!-- Node1&#45;&gt;Node2 -->
<g id="edge1_Node000001_Node000002" class="edge">
<title>Node1&#45;&gt;Node2</title>
<g id="a_edge1_Node000001_Node000002"><a xlink:title=" ">
<path fill="none" stroke="#63b8ff" d="M612.7,-285.98C598.9,-277.77 577.76,-265.18 561.49,-255.49"/>
<polygon fill="#63b8ff" stroke="#63b8ff" points="562.94,-252.28 552.56,-250.17 559.36,-258.29 562.94,-252.28"/>
</a>
</g>
</g>
<!-- Node16 -->
<g id="Node000016" class="node">
<title>Node16</title>
<g id="a_Node000016"><a xlink:title=" ">
<polygon fill="#e0e0e0" stroke="#999999" points="661,-250 593,-250 593,-231 661,-231 661,-250"/>
<text text-anchor="middle" x="627" y="-238" font-family="Helvetica,sans-Serif" font-size="10.00">filesystem</text>
</a>
</g>
</g>
<!-- Node1&#45;&gt;Node16 -->
<g id="edge26_Node000001_Node000016" class="edge">
<title>Node1&#45;&gt;Node16</title>
<g id="a_edge26_Node000001_Node000016"><a xlink:title=" ">
<path fill="none" stroke="#63b8ff" d="M627,-285.75C627,-278.8 627,-268.85 627,-260.13"/>
<polygon fill="#63b8ff" stroke="#63b8ff" points="630.5,-260.09 627,-250.09 623.5,-260.09 630.5,-260.09"/>
</a>
</g>
</g>
<!-- Node17 -->
<g id="Node000017" class="node">
<title>Node17</title>
<g id="a_Node000017"><a xlink:title=" ">
<polygon fill="#e0e0e0" stroke="#999999" points="739,-250 679,-250 679,-231 739,-231 739,-250"/>
<text text-anchor="middle" x="709" y="-238" font-family="Helvetica,sans-Serif" font-size="10.00">iostream</text>
</a>
</g>
</g>
<!-- Node1&#45;&gt;Node17 -->
<g id="edge27_Node000001_Node000017" class="edge">
<title>Node1&#45;&gt;Node17</title>
<g id="a_edge27_Node000001_Node000017"><a xlink:title=" ">
<path fill="none" stroke="#63b8ff" d="M640.17,-285.98C652.77,-277.84 672,-265.41 686.94,-255.76"/>
<polygon fill="#63b8ff" stroke="#63b8ff" points="689.09,-258.54 695.59,-250.17 685.29,-252.66 689.09,-258.54"/>
</a>
</g>
</g>
<!-- Node3 -->
<g id="Node000003" class="node">
<title>Node3</title>
<g id="a_Node000003"><a xlink:href="base__writer_8h.html" target="_top" xlink:title=" ">
<polygon fill="white" stroke="#666666" points="315,-195 233,-195 233,-176 315,-176 315,-195"/>
<text text-anchor="middle" x="274" y="-183" font-family="Helvetica,sans-Serif" font-size="10.00">base_writer.h</text>
</a>
</g>
</g>
<!-- Node2&#45;&gt;Node3 -->
<g id="edge2_Node000002_Node000003" class="edge">
<title>Node2&#45;&gt;Node3</title>
<g id="a_edge2_Node000002_Node000003"><a xlink:title=" ">
<path fill="none" stroke="#63b8ff" d="M500.74,-232.02C454.9,-222.82 376.85,-207.15 325.35,-196.81"/>
<polygon fill="#63b8ff" stroke="#63b8ff" points="325.92,-193.35 315.42,-194.82 324.54,-200.22 325.92,-193.35"/>
</a>
</g>
</g>
<!-- Node7 -->
<g id="Node000007" class="node">
<title>Node7</title>
<g id="a_Node000007"><a xlink:title=" ">
<polygon fill="#e0e0e0" stroke="#999999" points="457,-19 399,-19 399,0 457,0 457,-19"/>
<text text-anchor="middle" x="428" y="-7" font-family="Helvetica,sans-Serif" font-size="10.00">memory</text>
</a>
</g>
</g>
<!-- Node2&#45;&gt;Node7 -->
<g id="edge25_Node000002_Node000007" class="edge">
<title>Node2&#45;&gt;Node7</title>
<g id="a_edge25_Node000002_Node000007"><a xlink:title=" ">
<path fill="none" stroke="#63b8ff" d="M536.04,-230.97C528.58,-198.86 501.3,-85.59 481,-55 473.11,-43.11 461.14,-32.68 450.56,-24.91"/>
<polygon fill="#63b8ff" stroke="#63b8ff" points="452.34,-21.88 442.13,-19.03 448.34,-27.62 452.34,-21.88"/>
</a>
</g>
</g>
<!-- Node8 -->
<g id="Node000008" class="node">
<title>Node8</title>
<g id="a_Node000008"><a xlink:title=" ">
<polygon fill="#e0e0e0" stroke="#999999" points="549,-19 501,-19 501,0 549,0 549,-19"/>
<text text-anchor="middle" x="525" y="-7" font-family="Helvetica,sans-Serif" font-size="10.00">mutex</text>
</a>
</g>
</g>
<!-- Node2&#45;&gt;Node8 -->
<g id="edge23_Node000002_Node000008" class="edge">
<title>Node2&#45;&gt;Node8</title>
<g id="a_edge23_Node000002_Node000008"><a xlink:title=" ">
<path fill="none" stroke="#63b8ff" d="M537.51,-230.8C535.6,-197.29 528.72,-76.08 526.06,-29.2"/>
<polygon fill="#63b8ff" stroke="#63b8ff" points="529.56,-28.99 525.49,-19.21 522.57,-29.39 529.56,-28.99"/>
</a>
</g>
</g>
<!-- Node14 -->
<g id="Node000014" class="node">
<title>Node14</title>
<g id="a_Node000014"><a xlink:title=" ">
<polygon fill="#e0e0e0" stroke="#999999" points="621.5,-195 566.5,-195 566.5,-176 621.5,-176 621.5,-195"/>
<text text-anchor="middle" x="594" y="-183" font-family="Helvetica,sans-Serif" font-size="10.00">fstream</text>
</a>
</g>
</g>
<!-- Node2&#45;&gt;Node14 -->
<g id="edge22_Node000002_Node000014" class="edge">
<title>Node2&#45;&gt;Node14</title>
<g id="a_edge22_Node000002_Node000014"><a xlink:title=" ">
<path fill="none" stroke="#63b8ff" d="M547,-230.98C555.19,-223.23 567.51,-211.58 577.47,-202.14"/>
<polygon fill="#63b8ff" stroke="#63b8ff" points="579.98,-204.59 584.84,-195.17 575.17,-199.5 579.98,-204.59"/>
</a>
</g>
</g>
<!-- Node15 -->
<g id="Node000015" class="node">
<title>Node15</title>
<g id="a_Node000015"><a xlink:title=" ">
<polygon fill="#e0e0e0" stroke="#999999" points="690,-195 640,-195 640,-176 690,-176 690,-195"/>
<text text-anchor="middle" x="665" y="-183" font-family="Helvetica,sans-Serif" font-size="10.00">atomic</text>
</a>
</g>
</g>
<!-- Node2&#45;&gt;Node15 -->
<g id="edge24_Node000002_Node000015" class="edge">
<title>Node2&#45;&gt;Node15</title>
<g id="a_edge24_Node000002_Node000015"><a xlink:title=" ">
<path fill="none" stroke="#63b8ff" d="M558.4,-230.98C579.02,-222.38 611.11,-208.99 634.69,-199.15"/>
<polygon fill="#63b8ff" stroke="#63b8ff" points="636.34,-202.25 644.22,-195.17 633.65,-195.79 636.34,-202.25"/>
</a>
</g>
</g>
<!-- Node4 -->
<g id="Node000004" class="node">
<title>Node4</title>
<g id="a_Node000004"><a xlink:title=" ">
<polygon fill="#e0e0e0" stroke="#999999" points="207,-19 163,-19 163,0 207,0 207,-19"/>
<text text-anchor="middle" x="185" y="-7" font-family="Helvetica,sans-Serif" font-size="10.00">string</text>
</a>
</g>
</g>
<!-- Node3&#45;&gt;Node4 -->
<g id="edge3_Node000003_Node000004" class="edge">
<title>Node3&#45;&gt;Node4</title>
<g id="a_edge3_Node000003_Node000004"><a xlink:title=" ">
<path fill="none" stroke="#63b8ff" d="M232.81,-178.98C189.54,-172.24 125.73,-159.29 111,-140 81.7,-101.62 134.34,-50.45 165.1,-25.48"/>
<polygon fill="#63b8ff" stroke="#63b8ff" points="167.43,-28.1 173.11,-19.16 163.09,-22.61 167.43,-28.1"/>
</a>
</g>
</g>
<!-- Node5 -->
<g id="Node000005" class="node">
<title>Node5</title>
<g id="a_Node000005"><a xlink:title=" ">
<polygon fill="#e0e0e0" stroke="#999999" points="264,-74 214,-74 214,-55 264,-55 264,-74"/>
<text text-anchor="middle" x="239" y="-62" font-family="Helvetica,sans-Serif" font-size="10.00">chrono</text>
</a>
</g>
</g>
<!-- Node3&#45;&gt;Node5 -->
<g id="edge4_Node000003_Node000005" class="edge">
<title>Node3&#45;&gt;Node5</title>
<g id="a_edge4_Node000003_Node000005"><a xlink:title=" ">
<path fill="none" stroke="#63b8ff" d="M272.04,-175.71C268.86,-161.7 262.2,-133.48 255,-110 252.32,-101.27 248.95,-91.72 245.99,-83.72"/>
<polygon fill="#63b8ff" stroke="#63b8ff" points="249.24,-82.41 242.44,-74.28 242.69,-84.87 249.24,-82.41"/>
</a>
</g>
</g>
<!-- Node6 -->
<g id="Node000006" class="node">
<title>Node6</title>
<g id="a_Node000006"><a xlink:href="logger__interface_8h.html" target="_top" xlink:title=" ">
<polygon fill="white" stroke="#666666" points="472,-74 358,-74 358,-55 472,-55 472,-74"/>
<text text-anchor="middle" x="415" y="-62" font-family="Helvetica,sans-Serif" font-size="10.00">../logger_interface.h</text>
</a>
</g>
</g>
<!-- Node3&#45;&gt;Node6 -->
<g id="edge5_Node000003_Node000006" class="edge">
<title>Node3&#45;&gt;Node6</title>
<g id="a_edge5_Node000003_Node000006"><a xlink:title=" ">
<path fill="none" stroke="#63b8ff" d="M315.07,-179.44C359.93,-172.97 427.49,-160.13 443,-140 456.38,-122.64 442.43,-98.19 429.88,-82.1"/>
<polygon fill="#63b8ff" stroke="#63b8ff" points="432.32,-79.57 423.23,-74.12 426.94,-84.05 432.32,-79.57"/>
</a>
</g>
</g>
<!-- Node9 -->
<g id="Node000009" class="node">
<title>Node9</title>
<g id="a_Node000009"><a xlink:href="error__codes_8h.html" target="_top" xlink:title=" ">
<polygon fill="white" stroke="#666666" points="92,-74 0,-74 0,-55 92,-55 92,-74"/>
<text text-anchor="middle" x="46" y="-62" font-family="Helvetica,sans-Serif" font-size="10.00">../error_codes.h</text>
</a>
</g>
</g>
<!-- Node3&#45;&gt;Node9 -->
<g id="edge9_Node000003_Node000009" class="edge">
<title>Node3&#45;&gt;Node9</title>
<g id="a_edge9_Node000003_Node000009"><a xlink:title=" ">
<path fill="none" stroke="#63b8ff" d="M232.87,-179.59C182.55,-172.84 101.2,-159.31 78,-140 61.05,-125.89 52.86,-101.15 49.06,-84.07"/>
<polygon fill="#63b8ff" stroke="#63b8ff" points="52.47,-83.3 47.14,-74.14 45.6,-84.62 52.47,-83.3"/>
</a>
</g>
</g>
<!-- Node12 -->
<g id="Node000012" class="node">
<title>Node12</title>
<g id="a_Node000012"><a xlink:href="log__writer__interface_8h.html" target="_top" xlink:title=" ">
<polygon fill="white" stroke="#666666" points="246,-140 120,-140 120,-110 246,-110 246,-140"/>
<text text-anchor="start" x="128" y="-128" font-family="Helvetica,sans-Serif" font-size="10.00">../interfaces/log_writer</text>
<text text-anchor="middle" x="183" y="-117" font-family="Helvetica,sans-Serif" font-size="10.00">_interface.h</text>
</a>
</g>
</g>
<!-- Node3&#45;&gt;Node12 -->
<g id="edge13_Node000003_Node000012" class="edge">
<title>Node3&#45;&gt;Node12</title>
<g id="a_edge13_Node000003_Node000012"><a xlink:title=" ">
<path fill="none" stroke="#63b8ff" d="M260.57,-175.87C248.23,-167.93 229.47,-155.87 213.49,-145.6"/>
<polygon fill="#63b8ff" stroke="#63b8ff" points="215.26,-142.58 204.96,-140.11 211.48,-148.47 215.26,-142.58"/>
</a>
</g>
</g>
<!-- Node13 -->
<g id="Node000013" class="node">
<title>Node13</title>
<g id="a_Node000013"><a xlink:href="log__entry_8h.html" target="_top" xlink:title=" ">
<polygon fill="white" stroke="#666666" points="433.5,-134.5 302.5,-134.5 302.5,-115.5 433.5,-115.5 433.5,-134.5"/>
<text text-anchor="middle" x="368" y="-122.5" font-family="Helvetica,sans-Serif" font-size="10.00">../interfaces/log_entry.h</text>
</a>
</g>
</g>
<!-- Node3&#45;&gt;Node13 -->
<g id="edge17_Node000003_Node000013" class="edge">
<title>Node3&#45;&gt;Node13</title>
<g id="a_edge17_Node000003_Node000013"><a xlink:title=" ">
<path fill="none" stroke="#63b8ff" d="M287.87,-175.87C303,-166.45 327.46,-151.23 345.38,-140.08"/>
<polygon fill="#63b8ff" stroke="#63b8ff" points="347.43,-142.92 354.07,-134.67 343.73,-136.98 347.43,-142.92"/>
</a>
</g>
</g>
<!-- Node6&#45;&gt;Node4 -->
<g id="edge8_Node000006_Node000004" class="edge">
<title>Node6&#45;&gt;Node4</title>
<g id="a_edge8_Node000006_Node000004"><a xlink:title=" ">
<path fill="none" stroke="#63b8ff" d="M378.05,-54.98C333.47,-44.71 259.27,-27.61 217.02,-17.88"/>
<polygon fill="#63b8ff" stroke="#63b8ff" points="217.79,-14.46 207.26,-15.63 216.21,-21.28 217.79,-14.46"/>
</a>
</g>
</g>
<!-- Node6&#45;&gt;Node7 -->
<g id="edge6_Node000006_Node000007" class="edge">
<title>Node6&#45;&gt;Node7</title>
<g id="a_edge6_Node000006_Node000007"><a xlink:title=" ">
<path fill="none" stroke="#63b8ff" d="M417.15,-54.75C418.87,-47.72 421.35,-37.62 423.5,-28.84"/>
<polygon fill="#63b8ff" stroke="#63b8ff" points="426.91,-29.63 425.89,-19.09 420.11,-27.97 426.91,-29.63"/>
</a>
</g>
</g>
<!-- Node6&#45;&gt;Node8 -->
<g id="edge7_Node000006_Node000008" class="edge">
<title>Node6&#45;&gt;Node8</title>
<g id="a_edge7_Node000006_Node000008"><a xlink:title=" ">
<path fill="none" stroke="#63b8ff" d="M432.67,-54.98C450.29,-46.5 477.58,-33.35 497.93,-23.54"/>
<polygon fill="#63b8ff" stroke="#63b8ff" points="499.52,-26.66 507.01,-19.17 496.48,-20.36 499.52,-26.66"/>
</a>
</g>
</g>
<!-- Node9&#45;&gt;Node4 -->
<g id="edge10_Node000009_Node000004" class="edge">
<title>Node9&#45;&gt;Node4</title>
<g id="a_edge10_Node000009_Node000004"><a xlink:title=" ">
<path fill="none" stroke="#63b8ff" d="M68.33,-54.98C91.33,-46.21 127.38,-32.47 153.32,-22.58"/>
<polygon fill="#63b8ff" stroke="#63b8ff" points="154.63,-25.83 162.72,-18.99 152.13,-19.29 154.63,-25.83"/>
</a>
</g>
</g>
<!-- Node10 -->
<g id="Node000010" class="node">
<title>Node10</title>
<g id="a_Node000010"><a xlink:title=" ">
<polygon fill="#e0e0e0" stroke="#999999" points="145,-19 89,-19 89,0 145,0 145,-19"/>
<text text-anchor="middle" x="117" y="-7" font-family="Helvetica,sans-Serif" font-size="10.00">optional</text>
</a>
</g>
</g>
<!-- Node9&#45;&gt;Node10 -->
<g id="edge11_Node000009_Node000010" class="edge">
<title>Node9&#45;&gt;Node10</title>
<g id="a_edge11_Node000009_Node000010"><a xlink:title=" ">
<path fill="none" stroke="#63b8ff" d="M57.41,-54.98C68.11,-47 84.34,-34.88 97.16,-25.31"/>
<polygon fill="#63b8ff" stroke="#63b8ff" points="99.47,-27.96 105.39,-19.17 95.28,-22.35 99.47,-27.96"/>
</a>
</g>
</g>
<!-- Node11 -->
<g id="Node000011" class="node">
<title>Node11</title>
<g id="a_Node000011"><a xlink:title=" ">
<polygon fill="#e0e0e0" stroke="#999999" points="70.5,-19 19.5,-19 19.5,0 70.5,0 70.5,-19"/>
<text text-anchor="middle" x="45" y="-7" font-family="Helvetica,sans-Serif" font-size="10.00">variant</text>
</a>
</g>
</g>
<!-- Node9&#45;&gt;Node11 -->
<g id="edge12_Node000009_Node000011" class="edge">
<title>Node9&#45;&gt;Node11</title>
<g id="a_edge12_Node000009_Node000011"><a xlink:title=" ">
<path fill="none" stroke="#63b8ff" d="M45.83,-54.75C45.7,-47.8 45.52,-37.85 45.35,-29.13"/>
<polygon fill="#63b8ff" stroke="#63b8ff" points="48.85,-29.02 45.16,-19.09 41.85,-29.15 48.85,-29.02"/>
</a>
</g>
</g>
<!-- Node12&#45;&gt;Node4 -->
<g id="edge14_Node000012_Node000004" class="edge">
<title>Node12&#45;&gt;Node4</title>
<g id="a_edge14_Node000012_Node000004"><a xlink:title=" ">
<path fill="none" stroke="#63b8ff" d="M183.25,-109.63C183.61,-89.21 184.27,-51.81 184.67,-29.24"/>
<polygon fill="#63b8ff" stroke="#63b8ff" points="188.17,-29.29 184.85,-19.23 181.17,-29.17 188.17,-29.29"/>
</a>
</g>
</g>
<!-- Node12&#45;&gt;Node5 -->
<g id="edge15_Node000012_Node000005" class="edge">
<title>Node12&#45;&gt;Node5</title>
<g id="a_edge15_Node000012_Node000005"><a xlink:title=" ">
<path fill="none" stroke="#63b8ff" d="M196.56,-109.84C204.68,-101.35 215.05,-90.52 223.5,-81.69"/>
<polygon fill="#63b8ff" stroke="#63b8ff" points="226.22,-83.91 230.61,-74.27 221.17,-79.07 226.22,-83.91"/>
</a>
</g>
</g>
<!-- Node12&#45;&gt;Node9 -->
<g id="edge16_Node000012_Node000009" class="edge">
<title>Node12&#45;&gt;Node9</title>
<g id="a_edge16_Node000012_Node000009"><a xlink:title=" ">
<path fill="none" stroke="#63b8ff" d="M150.19,-109.99C127.53,-100.31 97.65,-87.56 75.7,-78.18"/>
<polygon fill="#63b8ff" stroke="#63b8ff" points="76.8,-74.85 66.23,-74.14 74.05,-81.29 76.8,-74.85"/>
</a>
</g>
</g>
<!-- Node13&#45;&gt;Node4 -->
<g id="edge18_Node000013_Node000004" class="edge">
<title>Node13&#45;&gt;Node4</title>
<g id="a_edge18_Node000013_Node000004"><a xlink:title=" ">
<path fill="none" stroke="#63b8ff" d="M362.19,-115.11C352.29,-100.61 330.8,-71.8 306,-55 278.64,-36.46 242.59,-24.5 216.97,-17.7"/>
<polygon fill="#63b8ff" stroke="#63b8ff" points="217.58,-14.25 207.03,-15.18 215.86,-21.03 217.58,-14.25"/>
</a>
</g>
</g>
<!-- Node13&#45;&gt;Node5 -->
<g id="edge19_Node000013_Node000005" class="edge">
<title>Node13&#45;&gt;Node5</title>
<g id="a_edge19_Node000013_Node000005"><a xlink:title=" ">
<path fill="none" stroke="#63b8ff" d="M349.24,-115.49C327.65,-105.7 291.97,-89.52 267.07,-78.23"/>
<polygon fill="#63b8ff" stroke="#63b8ff" points="268.33,-74.96 257.78,-74.02 265.44,-81.33 268.33,-74.96"/>
</a>
</g>
</g>
<!-- Node13&#45;&gt;Node6 -->
<g id="edge21_Node000013_Node000006" class="edge">
<title>Node13&#45;&gt;Node6</title>
<g id="a_edge21_Node000013_Node000006"><a xlink:title=" ">
<path fill="none" stroke="#63b8ff" d="M374.94,-115.37C381.95,-106.64 392.96,-92.93 401.67,-82.09"/>
<polygon fill="#63b8ff" stroke="#63b8ff" points="404.5,-84.16 408.04,-74.17 399.04,-79.77 404.5,-84.16"/>
</a>
</g>
</g>
<!-- Node13&#45;&gt;Node10 -->
<g id="edge20_Node000013_Node000010" class="edge">
<title>Node13&#45;&gt;Node10</title>
<g id="a_edge20_Node000013_Node000010"><a xlink:title=" ">
<path fill="none" stroke="#63b8ff" d="M358.49,-115.3C342.17,-100.81 307.27,-71.68 273,-55 252.21,-44.88 193.91,-29.43 154.77,-19.66"/>
<polygon fill="#63b8ff" stroke="#63b8ff" points="155.57,-16.25 145.02,-17.24 153.88,-23.04 155.57,-16.25"/>
</a>
</g>
</g>
</g>
</svg>
