<?xml version="1.0" encoding="UTF-8" standalone="no"?>
<!DOCTYPE svg PUBLIC "-//W3C//DTD SVG 1.1//EN"
 "http://www.w3.org/Graphics/SVG/1.1/DTD/svg11.dtd">
<!-- Generated by graphviz version 2.43.0 (0)
 -->
<!-- Title: file_writer.h Pages: 1 -->
<svg width="383pt" height="192pt"
 viewBox="0.00 0.00 382.88 192.00" xmlns="http://www.w3.org/2000/svg" xmlns:xlink="http://www.w3.org/1999/xlink">
<g id="graph0" class="graph" transform="scale(1 1) rotate(0) translate(4 188)">
<title>file_writer.h</title>
<!-- Node1 -->
<g id="Node000001" class="node">
<title>Node1</title>
<g id="a_Node000001"><a xlink:title=" ">
<polygon fill="#999999" stroke="#666666" points="287.88,-184 213.88,-184 213.88,-165 287.88,-165 287.88,-184"/>
<text text-anchor="middle" x="250.88" y="-172" font-family="Helvetica,sans-Serif" font-size="10.00">file_writer.h</text>
</a>
</g>
</g>
<!-- Node2 -->
<g id="Node000002" class="node">
<title>Node2</title>
<g id="a_Node000002"><a xlink:href="base__writer_8h.html" target="_top" xlink:title=" ">
<polygon fill="white" stroke="#666666" points="128.88,-129 46.88,-129 46.88,-110 128.88,-110 128.88,-129"/>
<text text-anchor="middle" x="87.88" y="-117" font-family="Helvetica,sans-Serif" font-size="10.00">base_writer.h</text>
</a>
</g>
</g>
<!-- Node1&#45;&gt;Node2 -->
<g id="edge1_Node000001_Node000002" class="edge">
<title>Node1&#45;&gt;Node2</title>
<g id="a_edge1_Node000001_Node000002"><a xlink:title=" ">
<path fill="none" stroke="#63b8ff" d="M224.69,-164.98C197.44,-156.13 154.58,-142.19 124.09,-132.28"/>
<polygon fill="#63b8ff" stroke="#63b8ff" points="124.86,-128.85 114.27,-129.08 122.7,-135.5 124.86,-128.85"/>
</a>
</g>
</g>
<!-- Node7 -->
<g id="Node000007" class="node">
<title>Node7</title>
<g id="a_Node000007"><a xlink:title=" ">
<polygon fill="#e0e0e0" stroke="#999999" points="239.88,-19 191.88,-19 191.88,0 239.88,0 239.88,-19"/>
<text text-anchor="middle" x="215.88" y="-7" font-family="Helvetica,sans-Serif" font-size="10.00">mutex</text>
</a>
</g>
</g>
<!-- Node1&#45;&gt;Node7 -->
<g id="edge9_Node000001_Node000007" class="edge">
<title>Node1&#45;&gt;Node7</title>
<g id="a_edge9_Node000001_Node000007"><a xlink:title=" ">
<path fill="none" stroke="#63b8ff" d="M249,-164.74C243.51,-139.2 227.46,-64.43 219.9,-29.23"/>
<polygon fill="#63b8ff" stroke="#63b8ff" points="223.29,-28.35 217.77,-19.31 216.45,-29.82 223.29,-28.35"/>
</a>
</g>
</g>
<!-- Node8 -->
<g id="Node000008" class="node">
<title>Node8</title>
<g id="a_Node000008"><a xlink:title=" ">
<polygon fill="#e0e0e0" stroke="#999999" points="306.38,-129 251.38,-129 251.38,-110 306.38,-110 306.38,-129"/>
<text text-anchor="middle" x="278.88" y="-117" font-family="Helvetica,sans-Serif" font-size="10.00">fstream</text>
</a>
</g>
</g>
<!-- Node1&#45;&gt;Node8 -->
<g id="edge8_Node000001_Node000008" class="edge">
<title>Node1&#45;&gt;Node8</title>
<g id="a_edge8_Node000001_Node000008"><a xlink:title=" ">
<path fill="none" stroke="#63b8ff" d="M255.5,-164.75C259.33,-157.49 264.9,-146.95 269.64,-137.98"/>
<polygon fill="#63b8ff" stroke="#63b8ff" points="272.76,-139.57 274.34,-129.09 266.57,-136.3 272.76,-139.57"/>
</a>
</g>
</g>
<!-- Node9 -->
<g id="Node000009" class="node">
<title>Node9</title>
<g id="a_Node000009"><a xlink:title=" ">
<polygon fill="#e0e0e0" stroke="#999999" points="374.88,-129 324.88,-129 324.88,-110 374.88,-110 374.88,-129"/>
<text text-anchor="middle" x="349.88" y="-117" font-family="Helvetica,sans-Serif" font-size="10.00">atomic</text>
</a>
</g>
</g>
<!-- Node1&#45;&gt;Node9 -->
<g id="edge10_Node000001_Node000009" class="edge">
<title>Node1&#45;&gt;Node9</title>
<g id="a_edge10_Node000001_Node000009"><a xlink:title=" ">
<path fill="none" stroke="#63b8ff" d="M266.78,-164.98C282.42,-156.61 306.53,-143.7 324.76,-133.95"/>
<polygon fill="#63b8ff" stroke="#63b8ff" points="326.52,-136.98 333.68,-129.17 323.21,-130.8 326.52,-136.98"/>
</a>
</g>
</g>
<!-- Node3 -->
<g id="Node000003" class="node">
<title>Node3</title>
<g id="a_Node000003"><a xlink:title=" ">
<polygon fill="#e0e0e0" stroke="#999999" points="48.88,-19 4.88,-19 4.88,0 48.88,0 48.88,-19"/>
<text text-anchor="middle" x="26.88" y="-7" font-family="Helvetica,sans-Serif" font-size="10.00">string</text>
</a>
</g>
</g>
<!-- Node2&#45;&gt;Node3 -->
<g id="edge2_Node000002_Node000003" class="edge">
<title>Node2&#45;&gt;Node3</title>
<g id="a_edge2_Node000002_Node000003"><a xlink:title=" ">
<path fill="none" stroke="#63b8ff" d="M54.48,-109.98C36.1,-103.4 14.86,-92.24 3.88,-74 -4.96,-59.31 3.8,-40.68 12.95,-27.4"/>
<polygon fill="#63b8ff" stroke="#63b8ff" points="15.91,-29.28 19.12,-19.19 10.32,-25.08 15.91,-29.28"/>
</a>
</g>
</g>
<!-- Node4 -->
<g id="Node000004" class="node">
<title>Node4</title>
<g id="a_Node000004"><a xlink:title=" ">
<polygon fill="#e0e0e0" stroke="#999999" points="62.88,-74 12.88,-74 12.88,-55 62.88,-55 62.88,-74"/>
<text text-anchor="middle" x="37.88" y="-62" font-family="Helvetica,sans-Serif" font-size="10.00">chrono</text>
</a>
</g>
</g>
<!-- Node2&#45;&gt;Node4 -->
<g id="edge3_Node000002_Node000004" class="edge">
<title>Node2&#45;&gt;Node4</title>
<g id="a_edge3_Node000002_Node000004"><a xlink:title=" ">
<path fill="none" stroke="#63b8ff" d="M79.62,-109.75C72.41,-102.11 61.77,-90.82 53.03,-81.56"/>
<polygon fill="#63b8ff" stroke="#63b8ff" points="55.39,-78.96 45.98,-74.09 50.3,-83.76 55.39,-78.96"/>
</a>
</g>
</g>
<!-- Node5 -->
<g id="Node000005" class="node">
<title>Node5</title>
<g id="a_Node000005"><a xlink:href="logger__interface_8h.html" target="_top" xlink:title=" ">
<polygon fill="white" stroke="#666666" points="194.88,-74 80.88,-74 80.88,-55 194.88,-55 194.88,-74"/>
<text text-anchor="middle" x="137.88" y="-62" font-family="Helvetica,sans-Serif" font-size="10.00">../logger_interface.h</text>
</a>
</g>
</g>
<!-- Node2&#45;&gt;Node5 -->
<g id="edge4_Node000002_Node000005" class="edge">
<title>Node2&#45;&gt;Node5</title>
<g id="a_edge4_Node000002_Node000005"><a xlink:title=" ">
<path fill="none" stroke="#63b8ff" d="M96.13,-109.75C103.34,-102.11 113.99,-90.82 122.72,-81.56"/>
<polygon fill="#63b8ff" stroke="#63b8ff" points="125.46,-83.76 129.78,-74.09 120.37,-78.96 125.46,-83.76"/>
</a>
</g>
</g>
<!-- Node5&#45;&gt;Node3 -->
<g id="edge7_Node000005_Node000003" class="edge">
<title>Node5&#45;&gt;Node3</title>
<g id="a_edge7_Node000005_Node000003"><a xlink:title=" ">
<path fill="none" stroke="#63b8ff" d="M120.04,-54.98C102.27,-46.5 74.73,-33.35 54.2,-23.54"/>
<polygon fill="#63b8ff" stroke="#63b8ff" points="55.57,-20.32 45.04,-19.17 52.55,-26.64 55.57,-20.32"/>
</a>
</g>
</g>
<!-- Node6 -->
<g id="Node000006" class="node">
<title>Node6</title>
<g id="a_Node000006"><a xlink:title=" ">
<polygon fill="#e0e0e0" stroke="#999999" points="166.88,-19 108.88,-19 108.88,0 166.88,0 166.88,-19"/>
<text text-anchor="middle" x="137.88" y="-7" font-family="Helvetica,sans-Serif" font-size="10.00">memory</text>
</a>
</g>
</g>
<!-- Node5&#45;&gt;Node6 -->
<g id="edge5_Node000005_Node000006" class="edge">
<title>Node5&#45;&gt;Node6</title>
<g id="a_edge5_Node000005_Node000006"><a xlink:title=" ">
<path fill="none" stroke="#63b8ff" d="M137.88,-54.75C137.88,-47.8 137.88,-37.85 137.88,-29.13"/>
<polygon fill="#63b8ff" stroke="#63b8ff" points="141.38,-29.09 137.88,-19.09 134.38,-29.09 141.38,-29.09"/>
</a>
</g>
</g>
<!-- Node5&#45;&gt;Node7 -->
<g id="edge6_Node000005_Node000007" class="edge">
<title>Node5&#45;&gt;Node7</title>
<g id="a_edge6_Node000005_Node000007"><a xlink:title=" ">
<path fill="none" stroke="#63b8ff" d="M150.41,-54.98C162.28,-46.92 180.34,-34.65 194.49,-25.03"/>
<polygon fill="#63b8ff" stroke="#63b8ff" points="196.81,-27.69 203.12,-19.17 192.88,-21.9 196.81,-27.69"/>
</a>
</g>
</g>
</g>
</svg>
