<?xml version="1.0" encoding="UTF-8" standalone="no"?>
<!DOCTYPE svg PUBLIC "-//W3C//DTD SVG 1.1//EN"
 "http://www.w3.org/Graphics/SVG/1.1/DTD/svg11.dtd">
<!-- Generated by graphviz version 2.43.0 (0)
 -->
<!-- Title: file_writer.cpp Pages: 1 -->
<svg width="990pt" height="313pt"
 viewBox="0.00 0.00 989.50 313.00" xmlns="http://www.w3.org/2000/svg" xmlns:xlink="http://www.w3.org/1999/xlink">
<g id="graph0" class="graph" transform="scale(1 1) rotate(0) translate(4 309)">
<title>file_writer.cpp</title>
<!-- Node1 -->
<g id="Node000001" class="node">
<title>Node1</title>
<g id="a_Node000001"><a xlink:title=" ">
<polygon fill="#999999" stroke="#666666" points="887,-305 802,-305 802,-286 887,-286 887,-305"/>
<text text-anchor="middle" x="844.5" y="-293" font-family="Helvetica,sans-Serif" font-size="10.00">file_writer.cpp</text>
</a>
</g>
</g>
<!-- Node2 -->
<g id="Node000002" class="node">
<title>Node2</title>
<g id="a_Node000002"><a xlink:href="file__writer_8h.html" target="_top" xlink:title=" ">
<polygon fill="white" stroke="#666666" points="755.5,-250 681.5,-250 681.5,-231 755.5,-231 755.5,-250"/>
<text text-anchor="middle" x="718.5" y="-238" font-family="Helvetica,sans-Serif" font-size="10.00">file_writer.h</text>
</a>
</g>
</g>
<!-- Node1&#45;&gt;Node2 -->
<g id="edge1_Node000001_Node000002" class="edge">
<title>Node1&#45;&gt;Node2</title>
<g id="a_edge1_Node000001_Node000002"><a xlink:title=" ">
<path fill="none" stroke="#63b8ff" d="M824.26,-285.98C803.8,-277.38 771.97,-263.99 748.57,-254.15"/>
<polygon fill="#63b8ff" stroke="#63b8ff" points="749.69,-250.82 739.11,-250.17 746.97,-257.27 749.69,-250.82"/>
</a>
</g>
</g>
<!-- Node22 -->
<g id="Node000022" class="node">
<title>Node22</title>
<g id="a_Node000022"><a xlink:title=" ">
<polygon fill="#e0e0e0" stroke="#999999" points="841.5,-250 773.5,-250 773.5,-231 841.5,-231 841.5,-250"/>
<text text-anchor="middle" x="807.5" y="-238" font-family="Helvetica,sans-Serif" font-size="10.00">filesystem</text>
</a>
</g>
</g>
<!-- Node1&#45;&gt;Node22 -->
<g id="edge35_Node000001_Node000022" class="edge">
<title>Node1&#45;&gt;Node22</title>
<g id="a_edge35_Node000001_Node000022"><a xlink:title=" ">
<path fill="none" stroke="#63b8ff" d="M838.39,-285.75C833.22,-278.34 825.65,-267.5 819.31,-258.41"/>
<polygon fill="#63b8ff" stroke="#63b8ff" points="822.09,-256.29 813.5,-250.09 816.35,-260.29 822.09,-256.29"/>
</a>
</g>
</g>
<!-- Node23 -->
<g id="Node000023" class="node">
<title>Node23</title>
<g id="a_Node000023"><a xlink:title=" ">
<polygon fill="#e0e0e0" stroke="#999999" points="903.5,-250 859.5,-250 859.5,-231 903.5,-231 903.5,-250"/>
<text text-anchor="middle" x="881.5" y="-238" font-family="Helvetica,sans-Serif" font-size="10.00">ctime</text>
</a>
</g>
</g>
<!-- Node1&#45;&gt;Node23 -->
<g id="edge36_Node000001_Node000023" class="edge">
<title>Node1&#45;&gt;Node23</title>
<g id="a_edge36_Node000001_Node000023"><a xlink:title=" ">
<path fill="none" stroke="#63b8ff" d="M850.61,-285.75C855.78,-278.34 863.35,-267.5 869.69,-258.41"/>
<polygon fill="#63b8ff" stroke="#63b8ff" points="872.65,-260.29 875.5,-250.09 866.91,-256.29 872.65,-260.29"/>
</a>
</g>
</g>
<!-- Node24 -->
<g id="Node000024" class="node">
<title>Node24</title>
<g id="a_Node000024"><a xlink:title=" ">
<polygon fill="#e0e0e0" stroke="#999999" points="981.5,-250 921.5,-250 921.5,-231 981.5,-231 981.5,-250"/>
<text text-anchor="middle" x="951.5" y="-238" font-family="Helvetica,sans-Serif" font-size="10.00">iostream</text>
</a>
</g>
</g>
<!-- Node1&#45;&gt;Node24 -->
<g id="edge37_Node000001_Node000024" class="edge">
<title>Node1&#45;&gt;Node24</title>
<g id="a_edge37_Node000001_Node000024"><a xlink:title=" ">
<path fill="none" stroke="#63b8ff" d="M861.69,-285.98C878.75,-277.54 905.13,-264.47 924.9,-254.68"/>
<polygon fill="#63b8ff" stroke="#63b8ff" points="926.59,-257.75 934,-250.17 923.48,-251.47 926.59,-257.75"/>
</a>
</g>
</g>
<!-- Node3 -->
<g id="Node000003" class="node">
<title>Node3</title>
<g id="a_Node000003"><a xlink:href="base__writer_8h.html" target="_top" xlink:title=" ">
<polygon fill="white" stroke="#666666" points="337.5,-195 255.5,-195 255.5,-176 337.5,-176 337.5,-195"/>
<text text-anchor="middle" x="296.5" y="-183" font-family="Helvetica,sans-Serif" font-size="10.00">base_writer.h</text>
</a>
</g>
</g>
<!-- Node2&#45;&gt;Node3 -->
<g id="edge2_Node000002_Node000003" class="edge">
<title>Node2&#45;&gt;Node3</title>
<g id="a_edge2_Node000002_Node000003"><a xlink:title=" ">
<path fill="none" stroke="#63b8ff" d="M681.42,-234.84C605.85,-225.35 433.91,-203.76 347.73,-192.93"/>
<polygon fill="#63b8ff" stroke="#63b8ff" points="348.02,-189.44 337.66,-191.67 347.14,-196.39 348.02,-189.44"/>
</a>
</g>
</g>
<!-- Node7 -->
<g id="Node000007" class="node">
<title>Node7</title>
<g id="a_Node000007"><a xlink:title=" ">
<polygon fill="#e0e0e0" stroke="#999999" points="652.5,-19 594.5,-19 594.5,0 652.5,0 652.5,-19"/>
<text text-anchor="middle" x="623.5" y="-7" font-family="Helvetica,sans-Serif" font-size="10.00">memory</text>
</a>
</g>
</g>
<!-- Node2&#45;&gt;Node7 -->
<g id="edge34_Node000002_Node000007" class="edge">
<title>Node2&#45;&gt;Node7</title>
<g id="a_edge34_Node000002_Node000007"><a xlink:title=" ">
<path fill="none" stroke="#63b8ff" d="M717.13,-230.93C712.53,-203.74 695.94,-117.56 661.5,-55 655.77,-44.59 647.34,-34.4 639.87,-26.4"/>
<polygon fill="#63b8ff" stroke="#63b8ff" points="642.35,-23.93 632.87,-19.21 637.34,-28.81 642.35,-23.93"/>
</a>
</g>
</g>
<!-- Node8 -->
<g id="Node000008" class="node">
<title>Node8</title>
<g id="a_Node000008"><a xlink:title=" ">
<polygon fill="#e0e0e0" stroke="#999999" points="730.5,-19 682.5,-19 682.5,0 730.5,0 730.5,-19"/>
<text text-anchor="middle" x="706.5" y="-7" font-family="Helvetica,sans-Serif" font-size="10.00">mutex</text>
</a>
</g>
</g>
<!-- Node2&#45;&gt;Node8 -->
<g id="edge32_Node000002_Node000008" class="edge">
<title>Node2&#45;&gt;Node8</title>
<g id="a_edge32_Node000002_Node000008"><a xlink:title=" ">
<path fill="none" stroke="#63b8ff" d="M718.04,-230.8C716.29,-197.29 709.94,-76.08 707.48,-29.2"/>
<polygon fill="#63b8ff" stroke="#63b8ff" points="710.97,-29.01 706.96,-19.21 703.98,-29.38 710.97,-29.01"/>
</a>
</g>
</g>
<!-- Node20 -->
<g id="Node000020" class="node">
<title>Node20</title>
<g id="a_Node000020"><a xlink:title=" ">
<polygon fill="#e0e0e0" stroke="#999999" points="802,-195 747,-195 747,-176 802,-176 802,-195"/>
<text text-anchor="middle" x="774.5" y="-183" font-family="Helvetica,sans-Serif" font-size="10.00">fstream</text>
</a>
</g>
</g>
<!-- Node2&#45;&gt;Node20 -->
<g id="edge31_Node000002_Node000020" class="edge">
<title>Node2&#45;&gt;Node20</title>
<g id="a_edge31_Node000002_Node000020"><a xlink:title=" ">
<path fill="none" stroke="#63b8ff" d="M727.5,-230.98C735.69,-223.23 748.01,-211.58 757.97,-202.14"/>
<polygon fill="#63b8ff" stroke="#63b8ff" points="760.48,-204.59 765.34,-195.17 755.67,-199.5 760.48,-204.59"/>
</a>
</g>
</g>
<!-- Node21 -->
<g id="Node000021" class="node">
<title>Node21</title>
<g id="a_Node000021"><a xlink:title=" ">
<polygon fill="#e0e0e0" stroke="#999999" points="870.5,-195 820.5,-195 820.5,-176 870.5,-176 870.5,-195"/>
<text text-anchor="middle" x="845.5" y="-183" font-family="Helvetica,sans-Serif" font-size="10.00">atomic</text>
</a>
</g>
</g>
<!-- Node2&#45;&gt;Node21 -->
<g id="edge33_Node000002_Node000021" class="edge">
<title>Node2&#45;&gt;Node21</title>
<g id="a_edge33_Node000002_Node000021"><a xlink:title=" ">
<path fill="none" stroke="#63b8ff" d="M738.9,-230.98C759.52,-222.38 791.61,-208.99 815.19,-199.15"/>
<polygon fill="#63b8ff" stroke="#63b8ff" points="816.84,-202.25 824.72,-195.17 814.15,-195.79 816.84,-202.25"/>
</a>
</g>
</g>
<!-- Node4 -->
<g id="Node000004" class="node">
<title>Node4</title>
<g id="a_Node000004"><a xlink:title=" ">
<polygon fill="#e0e0e0" stroke="#999999" points="334.5,-19 290.5,-19 290.5,0 334.5,0 334.5,-19"/>
<text text-anchor="middle" x="312.5" y="-7" font-family="Helvetica,sans-Serif" font-size="10.00">string</text>
</a>
</g>
</g>
<!-- Node3&#45;&gt;Node4 -->
<g id="edge3_Node000003_Node000004" class="edge">
<title>Node3&#45;&gt;Node4</title>
<g id="a_edge3_Node000003_Node000004"><a xlink:title=" ">
<path fill="none" stroke="#63b8ff" d="M297.32,-175.63C299.81,-148.52 307.37,-66.32 310.79,-29.13"/>
<polygon fill="#63b8ff" stroke="#63b8ff" points="314.27,-29.42 311.71,-19.14 307.3,-28.78 314.27,-29.42"/>
</a>
</g>
</g>
<!-- Node5 -->
<g id="Node000005" class="node">
<title>Node5</title>
<g id="a_Node000005"><a xlink:title=" ">
<polygon fill="#e0e0e0" stroke="#999999" points="268.5,-74 218.5,-74 218.5,-55 268.5,-55 268.5,-74"/>
<text text-anchor="middle" x="243.5" y="-62" font-family="Helvetica,sans-Serif" font-size="10.00">chrono</text>
</a>
</g>
</g>
<!-- Node3&#45;&gt;Node5 -->
<g id="edge4_Node000003_Node000005" class="edge">
<title>Node3&#45;&gt;Node5</title>
<g id="a_edge4_Node000003_Node000005"><a xlink:title=" ">
<path fill="none" stroke="#63b8ff" d="M292.69,-175.94C284.14,-156.74 263.26,-109.86 251.64,-83.77"/>
<polygon fill="#63b8ff" stroke="#63b8ff" points="254.69,-82.01 247.42,-74.3 248.29,-84.86 254.69,-82.01"/>
</a>
</g>
</g>
<!-- Node6 -->
<g id="Node000006" class="node">
<title>Node6</title>
<g id="a_Node000006"><a xlink:href="logger__interface_8h.html" target="_top" xlink:title=" ">
<polygon fill="white" stroke="#666666" points="652.5,-74 538.5,-74 538.5,-55 652.5,-55 652.5,-74"/>
<text text-anchor="middle" x="595.5" y="-62" font-family="Helvetica,sans-Serif" font-size="10.00">../logger_interface.h</text>
</a>
</g>
</g>
<!-- Node3&#45;&gt;Node6 -->
<g id="edge5_Node000003_Node000006" class="edge">
<title>Node3&#45;&gt;Node6</title>
<g id="a_edge5_Node000003_Node000006"><a xlink:title=" ">
<path fill="none" stroke="#63b8ff" d="M337.77,-176.81C372.6,-169.57 423.39,-157.26 465.5,-140 506.05,-123.38 549.53,-96.37 574.52,-79.84"/>
<polygon fill="#63b8ff" stroke="#63b8ff" points="576.79,-82.54 583.15,-74.07 572.9,-76.72 576.79,-82.54"/>
</a>
</g>
</g>
<!-- Node9 -->
<g id="Node000009" class="node">
<title>Node9</title>
<g id="a_Node000009"><a xlink:href="error__codes_8h.html" target="_top" xlink:title=" ">
<polygon fill="white" stroke="#666666" points="162.5,-74 70.5,-74 70.5,-55 162.5,-55 162.5,-74"/>
<text text-anchor="middle" x="116.5" y="-62" font-family="Helvetica,sans-Serif" font-size="10.00">../error_codes.h</text>
</a>
</g>
</g>
<!-- Node3&#45;&gt;Node9 -->
<g id="edge9_Node000003_Node000009" class="edge">
<title>Node3&#45;&gt;Node9</title>
<g id="a_edge9_Node000003_Node000009"><a xlink:title=" ">
<path fill="none" stroke="#63b8ff" d="M255.2,-181.32C202.31,-176.29 115.13,-164.46 95.5,-140 82.28,-123.53 93.2,-99.21 103.61,-82.88"/>
<polygon fill="#63b8ff" stroke="#63b8ff" points="106.72,-84.53 109.49,-74.31 100.95,-80.57 106.72,-84.53"/>
</a>
</g>
</g>
<!-- Node14 -->
<g id="Node000014" class="node">
<title>Node14</title>
<g id="a_Node000014"><a xlink:href="log__writer__interface_8h.html" target="_top" xlink:title=" ">
<polygon fill="white" stroke="#666666" points="230.5,-140 104.5,-140 104.5,-110 230.5,-110 230.5,-140"/>
<text text-anchor="start" x="112.5" y="-128" font-family="Helvetica,sans-Serif" font-size="10.00">../interfaces/log_writer</text>
<text text-anchor="middle" x="167.5" y="-117" font-family="Helvetica,sans-Serif" font-size="10.00">_interface.h</text>
</a>
</g>
</g>
<!-- Node3&#45;&gt;Node14 -->
<g id="edge15_Node000003_Node000014" class="edge">
<title>Node3&#45;&gt;Node14</title>
<g id="a_edge15_Node000003_Node000014"><a xlink:title=" ">
<path fill="none" stroke="#63b8ff" d="M277.74,-175.99C259.56,-167.75 231.4,-154.98 208.08,-144.4"/>
<polygon fill="#63b8ff" stroke="#63b8ff" points="209.32,-141.12 198.76,-140.18 206.43,-147.5 209.32,-141.12"/>
</a>
</g>
</g>
<!-- Node15 -->
<g id="Node000015" class="node">
<title>Node15</title>
<g id="a_Node000015"><a xlink:href="log__entry_8h.html" target="_top" xlink:title=" ">
<polygon fill="white" stroke="#666666" points="456,-134.5 325,-134.5 325,-115.5 456,-115.5 456,-134.5"/>
<text text-anchor="middle" x="390.5" y="-122.5" font-family="Helvetica,sans-Serif" font-size="10.00">../interfaces/log_entry.h</text>
</a>
</g>
</g>
<!-- Node3&#45;&gt;Node15 -->
<g id="edge19_Node000003_Node000015" class="edge">
<title>Node3&#45;&gt;Node15</title>
<g id="a_edge19_Node000003_Node000015"><a xlink:title=" ">
<path fill="none" stroke="#63b8ff" d="M310.37,-175.87C325.5,-166.45 349.96,-151.23 367.88,-140.08"/>
<polygon fill="#63b8ff" stroke="#63b8ff" points="369.93,-142.92 376.57,-134.67 366.23,-136.98 369.93,-142.92"/>
</a>
</g>
</g>
<!-- Node6&#45;&gt;Node4 -->
<g id="edge8_Node000006_Node000004" class="edge">
<title>Node6&#45;&gt;Node4</title>
<g id="a_edge8_Node000006_Node000004"><a xlink:title=" ">
<path fill="none" stroke="#63b8ff" d="M539.41,-54.94C490.55,-47.17 417.64,-34.83 344.65,-18.86"/>
<polygon fill="#63b8ff" stroke="#63b8ff" points="345.34,-15.43 334.82,-16.69 343.83,-22.26 345.34,-15.43"/>
</a>
</g>
</g>
<!-- Node6&#45;&gt;Node7 -->
<g id="edge6_Node000006_Node000007" class="edge">
<title>Node6&#45;&gt;Node7</title>
<g id="a_edge6_Node000006_Node000007"><a xlink:title=" ">
<path fill="none" stroke="#63b8ff" d="M600.12,-54.75C603.96,-47.49 609.52,-36.95 614.26,-27.98"/>
<polygon fill="#63b8ff" stroke="#63b8ff" points="617.39,-29.57 618.96,-19.09 611.2,-26.3 617.39,-29.57"/>
</a>
</g>
</g>
<!-- Node6&#45;&gt;Node8 -->
<g id="edge7_Node000006_Node000008" class="edge">
<title>Node6&#45;&gt;Node8</title>
<g id="a_edge7_Node000006_Node000008"><a xlink:title=" ">
<path fill="none" stroke="#63b8ff" d="M613.33,-54.98C631.11,-46.5 658.65,-33.35 679.18,-23.54"/>
<polygon fill="#63b8ff" stroke="#63b8ff" points="680.83,-26.64 688.34,-19.17 677.81,-20.32 680.83,-26.64"/>
</a>
</g>
</g>
<!-- Node9&#45;&gt;Node4 -->
<g id="edge10_Node000009_Node000004" class="edge">
<title>Node9&#45;&gt;Node4</title>
<g id="a_edge10_Node000009_Node000004"><a xlink:title=" ">
<path fill="none" stroke="#63b8ff" d="M148.45,-54.93C179.75,-46.52 229.06,-33.24 280.8,-19.18"/>
<polygon fill="#63b8ff" stroke="#63b8ff" points="281.76,-22.55 290.49,-16.55 279.92,-15.79 281.76,-22.55"/>
</a>
</g>
</g>
<!-- Node10 -->
<g id="Node000010" class="node">
<title>Node10</title>
<g id="a_Node000010"><a xlink:title=" ">
<polygon fill="#e0e0e0" stroke="#999999" points="134,-19 69,-19 69,0 134,0 134,-19"/>
<text text-anchor="middle" x="101.5" y="-7" font-family="Helvetica,sans-Serif" font-size="10.00">stdexcept</text>
</a>
</g>
</g>
<!-- Node9&#45;&gt;Node10 -->
<g id="edge11_Node000009_Node000010" class="edge">
<title>Node9&#45;&gt;Node10</title>
<g id="a_edge11_Node000009_Node000010"><a xlink:title=" ">
<path fill="none" stroke="#63b8ff" d="M114.02,-54.75C112.04,-47.72 109.18,-37.62 106.69,-28.84"/>
<polygon fill="#63b8ff" stroke="#63b8ff" points="110.02,-27.76 103.93,-19.09 103.29,-29.66 110.02,-27.76"/>
</a>
</g>
</g>
<!-- Node11 -->
<g id="Node000011" class="node">
<title>Node11</title>
<g id="a_Node000011"><a xlink:title=" ">
<polygon fill="#e0e0e0" stroke="#999999" points="272,-19 227,-19 227,0 272,0 272,-19"/>
<text text-anchor="middle" x="249.5" y="-7" font-family="Helvetica,sans-Serif" font-size="10.00">utility</text>
</a>
</g>
</g>
<!-- Node9&#45;&gt;Node11 -->
<g id="edge12_Node000009_Node000011" class="edge">
<title>Node9&#45;&gt;Node11</title>
<g id="a_edge12_Node000009_Node000011"><a xlink:title=" ">
<path fill="none" stroke="#63b8ff" d="M137.87,-54.98C159.65,-46.3 193.66,-32.75 218.42,-22.88"/>
<polygon fill="#63b8ff" stroke="#63b8ff" points="219.75,-26.12 227.74,-19.17 217.16,-19.62 219.75,-26.12"/>
</a>
</g>
</g>
<!-- Node12 -->
<g id="Node000012" class="node">
<title>Node12</title>
<g id="a_Node000012"><a xlink:title=" ">
<polygon fill="#e0e0e0" stroke="#999999" points="208.5,-19 152.5,-19 152.5,0 208.5,0 208.5,-19"/>
<text text-anchor="middle" x="180.5" y="-7" font-family="Helvetica,sans-Serif" font-size="10.00">optional</text>
</a>
</g>
</g>
<!-- Node9&#45;&gt;Node12 -->
<g id="edge13_Node000009_Node000012" class="edge">
<title>Node9&#45;&gt;Node12</title>
<g id="a_edge13_Node000009_Node000012"><a xlink:title=" ">
<path fill="none" stroke="#63b8ff" d="M126.78,-54.98C136.34,-47.07 150.78,-35.11 162.28,-25.58"/>
<polygon fill="#63b8ff" stroke="#63b8ff" points="164.56,-28.24 170.03,-19.17 160.1,-22.85 164.56,-28.24"/>
</a>
</g>
</g>
<!-- Node13 -->
<g id="Node000013" class="node">
<title>Node13</title>
<g id="a_Node000013"><a xlink:title=" ">
<polygon fill="#e0e0e0" stroke="#999999" points="51,-19 0,-19 0,0 51,0 51,-19"/>
<text text-anchor="middle" x="25.5" y="-7" font-family="Helvetica,sans-Serif" font-size="10.00">variant</text>
</a>
</g>
</g>
<!-- Node9&#45;&gt;Node13 -->
<g id="edge14_Node000009_Node000013" class="edge">
<title>Node9&#45;&gt;Node13</title>
<g id="a_edge14_Node000009_Node000013"><a xlink:title=" ">
<path fill="none" stroke="#63b8ff" d="M101.88,-54.98C87.64,-46.69 65.75,-33.94 49.05,-24.22"/>
<polygon fill="#63b8ff" stroke="#63b8ff" points="50.79,-21.18 40.39,-19.17 47.27,-27.23 50.79,-21.18"/>
</a>
</g>
</g>
<!-- Node14&#45;&gt;Node4 -->
<g id="edge16_Node000014_Node000004" class="edge">
<title>Node14&#45;&gt;Node4</title>
<g id="a_edge16_Node000014_Node000004"><a xlink:title=" ">
<path fill="none" stroke="#63b8ff" d="M173.03,-109.8C179.64,-94.46 192.04,-70.19 209.5,-55 220.64,-45.31 254.72,-31.49 280.65,-21.83"/>
<polygon fill="#63b8ff" stroke="#63b8ff" points="281.95,-25.08 290.13,-18.34 279.54,-18.51 281.95,-25.08"/>
</a>
</g>
</g>
<!-- Node14&#45;&gt;Node5 -->
<g id="edge17_Node000014_Node000005" class="edge">
<title>Node14&#45;&gt;Node5</title>
<g id="a_edge17_Node000014_Node000005"><a xlink:title=" ">
<path fill="none" stroke="#63b8ff" d="M185.9,-109.84C197.38,-101 212.15,-89.63 223.86,-80.62"/>
<polygon fill="#63b8ff" stroke="#63b8ff" points="226.32,-83.14 232.11,-74.27 222.05,-77.59 226.32,-83.14"/>
</a>
</g>
</g>
<!-- Node14&#45;&gt;Node9 -->
<g id="edge18_Node000014_Node000009" class="edge">
<title>Node14&#45;&gt;Node9</title>
<g id="a_edge18_Node000014_Node000009"><a xlink:title=" ">
<path fill="none" stroke="#63b8ff" d="M155.15,-109.84C147.83,-101.43 138.5,-90.74 130.85,-81.96"/>
<polygon fill="#63b8ff" stroke="#63b8ff" points="133.35,-79.5 124.14,-74.27 128.08,-84.1 133.35,-79.5"/>
</a>
</g>
</g>
<!-- Node15&#45;&gt;Node4 -->
<g id="edge20_Node000015_Node000004" class="edge">
<title>Node15&#45;&gt;Node4</title>
<g id="a_edge20_Node000015_Node000004"><a xlink:title=" ">
<path fill="none" stroke="#63b8ff" d="M385.68,-115.27C378.22,-101.94 363.19,-75.87 348.5,-55 341.71,-45.35 333.47,-35.08 326.59,-26.84"/>
<polygon fill="#63b8ff" stroke="#63b8ff" points="329.16,-24.46 320.03,-19.1 323.82,-28.99 329.16,-24.46"/>
</a>
</g>
</g>
<!-- Node15&#45;&gt;Node5 -->
<g id="edge21_Node000015_Node000005" class="edge">
<title>Node15&#45;&gt;Node5</title>
<g id="a_edge21_Node000015_Node000005"><a xlink:title=" ">
<path fill="none" stroke="#63b8ff" d="M369.12,-115.49C344.19,-105.57 302.78,-89.09 274.36,-77.78"/>
<polygon fill="#63b8ff" stroke="#63b8ff" points="275.49,-74.46 264.9,-74.02 272.9,-80.97 275.49,-74.46"/>
</a>
</g>
</g>
<!-- Node15&#45;&gt;Node6 -->
<g id="edge30_Node000015_Node000006" class="edge">
<title>Node15&#45;&gt;Node6</title>
<g id="a_edge30_Node000015_Node000006"><a xlink:title=" ">
<path fill="none" stroke="#63b8ff" d="M420.31,-115.49C456.06,-105.29 516.13,-88.15 555.79,-76.83"/>
<polygon fill="#63b8ff" stroke="#63b8ff" points="557,-80.13 565.66,-74.02 555.08,-73.4 557,-80.13"/>
</a>
</g>
</g>
<!-- Node15&#45;&gt;Node12 -->
<g id="edge22_Node000015_Node000012" class="edge">
<title>Node15&#45;&gt;Node12</title>
<g id="a_edge22_Node000015_Node000012"><a xlink:title=" ">
<path fill="none" stroke="#63b8ff" d="M377.57,-115.41C356.88,-101.82 314.83,-74.87 277.5,-55 255.39,-43.23 229.59,-31.49 210.16,-23.02"/>
<polygon fill="#63b8ff" stroke="#63b8ff" points="211.47,-19.77 200.9,-19.02 208.69,-26.2 211.47,-19.77"/>
</a>
</g>
</g>
<!-- Node16 -->
<g id="Node000016" class="node">
<title>Node16</title>
<g id="a_Node000016"><a xlink:href="small__string_8h.html" target="_top" xlink:title=" ">
<polygon fill="white" stroke="#666666" points="520,-74 401,-74 401,-55 520,-55 520,-74"/>
<text text-anchor="middle" x="460.5" y="-62" font-family="Helvetica,sans-Serif" font-size="10.00">../core/small_string.h</text>
</a>
</g>
</g>
<!-- Node15&#45;&gt;Node16 -->
<g id="edge23_Node000015_Node000016" class="edge">
<title>Node15&#45;&gt;Node16</title>
<g id="a_edge23_Node000015_Node000016"><a xlink:title=" ">
<path fill="none" stroke="#63b8ff" d="M400.83,-115.37C411.69,-106.3 428.99,-91.84 442.17,-80.82"/>
<polygon fill="#63b8ff" stroke="#63b8ff" points="444.7,-83.27 450.13,-74.17 440.21,-77.89 444.7,-83.27"/>
</a>
</g>
</g>
<!-- Node16&#45;&gt;Node4 -->
<g id="edge25_Node000016_Node000004" class="edge">
<title>Node16&#45;&gt;Node4</title>
<g id="a_edge25_Node000016_Node000004"><a xlink:title=" ">
<path fill="none" stroke="#63b8ff" d="M436.72,-54.98C411.69,-46.02 372.13,-31.86 344.4,-21.92"/>
<polygon fill="#63b8ff" stroke="#63b8ff" points="345.36,-18.55 334.77,-18.47 343,-25.14 345.36,-18.55"/>
</a>
</g>
</g>
<!-- Node16&#45;&gt;Node7 -->
<g id="edge28_Node000016_Node000007" class="edge">
<title>Node16&#45;&gt;Node7</title>
<g id="a_edge28_Node000016_Node000007"><a xlink:title=" ">
<path fill="none" stroke="#63b8ff" d="M486.69,-54.98C513.94,-46.13 556.8,-32.19 587.28,-22.28"/>
<polygon fill="#63b8ff" stroke="#63b8ff" points="588.68,-25.5 597.11,-19.08 586.51,-18.85 588.68,-25.5"/>
</a>
</g>
</g>
<!-- Node16&#45;&gt;Node11 -->
<g id="edge29_Node000016_Node000011" class="edge">
<title>Node16&#45;&gt;Node11</title>
<g id="a_edge29_Node000016_Node000011"><a xlink:title=" ">
<path fill="none" stroke="#63b8ff" d="M425.47,-54.97C391.33,-46.61 337.7,-33.38 281.91,-19.07"/>
<polygon fill="#63b8ff" stroke="#63b8ff" points="282.77,-15.68 272.21,-16.58 281.03,-22.46 282.77,-15.68"/>
</a>
</g>
</g>
<!-- Node17 -->
<g id="Node000017" class="node">
<title>Node17</title>
<g id="a_Node000017"><a xlink:title=" ">
<polygon fill="#e0e0e0" stroke="#999999" points="576.5,-19 526.5,-19 526.5,0 576.5,0 576.5,-19"/>
<text text-anchor="middle" x="551.5" y="-7" font-family="Helvetica,sans-Serif" font-size="10.00">cstring</text>
</a>
</g>
</g>
<!-- Node16&#45;&gt;Node17 -->
<g id="edge24_Node000016_Node000017" class="edge">
<title>Node16&#45;&gt;Node17</title>
<g id="a_edge24_Node000016_Node000017"><a xlink:title=" ">
<path fill="none" stroke="#63b8ff" d="M475.12,-54.98C489.36,-46.69 511.25,-33.94 527.95,-24.22"/>
<polygon fill="#63b8ff" stroke="#63b8ff" points="529.73,-27.23 536.61,-19.17 526.21,-21.18 529.73,-27.23"/>
</a>
</g>
</g>
<!-- Node18 -->
<g id="Node000018" class="node">
<title>Node18</title>
<g id="a_Node000018"><a xlink:title=" ">
<polygon fill="#e0e0e0" stroke="#999999" points="426,-19 353,-19 353,0 426,0 426,-19"/>
<text text-anchor="middle" x="389.5" y="-7" font-family="Helvetica,sans-Serif" font-size="10.00">string_view</text>
</a>
</g>
</g>
<!-- Node16&#45;&gt;Node18 -->
<g id="edge26_Node000016_Node000018" class="edge">
<title>Node16&#45;&gt;Node18</title>
<g id="a_edge26_Node000016_Node000018"><a xlink:title=" ">
<path fill="none" stroke="#63b8ff" d="M449.09,-54.98C438.39,-47 422.16,-34.88 409.34,-25.31"/>
<polygon fill="#63b8ff" stroke="#63b8ff" points="411.22,-22.35 401.11,-19.17 407.03,-27.96 411.22,-22.35"/>
</a>
</g>
</g>
<!-- Node19 -->
<g id="Node000019" class="node">
<title>Node19</title>
<g id="a_Node000019"><a xlink:title=" ">
<polygon fill="#e0e0e0" stroke="#999999" points="508.5,-19 444.5,-19 444.5,0 508.5,0 508.5,-19"/>
<text text-anchor="middle" x="476.5" y="-7" font-family="Helvetica,sans-Serif" font-size="10.00">algorithm</text>
</a>
</g>
</g>
<!-- Node16&#45;&gt;Node19 -->
<g id="edge27_Node000016_Node000019" class="edge">
<title>Node16&#45;&gt;Node19</title>
<g id="a_edge27_Node000016_Node000019"><a xlink:title=" ">
<path fill="none" stroke="#63b8ff" d="M463.14,-54.75C465.26,-47.72 468.31,-37.62 470.96,-28.84"/>
<polygon fill="#63b8ff" stroke="#63b8ff" points="474.37,-29.67 473.91,-19.09 467.67,-27.65 474.37,-29.67"/>
</a>
</g>
</g>
</g>
</svg>
