<?xml version="1.0" encoding="UTF-8" standalone="no"?>
<!DOCTYPE svg PUBLIC "-//W3C//DTD SVG 1.1//EN"
 "http://www.w3.org/Graphics/SVG/1.1/DTD/svg11.dtd">
<!-- Generated by graphviz version 2.43.0 (0)
 -->
<!-- Title: health_check_system.cpp Pages: 1 -->
<svg width="1154pt" height="258pt"
 viewBox="0.00 0.00 1153.89 258.00" xmlns="http://www.w3.org/2000/svg" xmlns:xlink="http://www.w3.org/1999/xlink">
<g id="graph0" class="graph" transform="scale(1 1) rotate(0) translate(4 254)">
<title>health_check_system.cpp</title>
<!-- Node1 -->
<g id="Node000001" class="node">
<title>Node1</title>
<g id="a_Node000001"><a xlink:title=" ">
<polygon fill="#999999" stroke="#666666" points="907.89,-250 764.89,-250 764.89,-231 907.89,-231 907.89,-250"/>
<text text-anchor="middle" x="836.39" y="-238" font-family="Helvetica,sans-Serif" font-size="10.00">health_check_system.cpp</text>
</a>
</g>
</g>
<!-- Node2 -->
<g id="Node000002" class="node">
<title>Node2</title>
<g id="a_Node000002"><a xlink:href="health__check__system_8h.html" target="_top" xlink:title=" ">
<polygon fill="white" stroke="#666666" points="416.89,-195 285.89,-195 285.89,-176 416.89,-176 416.89,-195"/>
<text text-anchor="middle" x="351.39" y="-183" font-family="Helvetica,sans-Serif" font-size="10.00">health_check_system.h</text>
</a>
</g>
</g>
<!-- Node1&#45;&gt;Node2 -->
<g id="edge1_Node000001_Node000002" class="edge">
<title>Node1&#45;&gt;Node2</title>
<g id="a_edge1_Node000001_Node000002"><a xlink:title=" ">
<path fill="none" stroke="#63b8ff" d="M764.82,-231.68C674.41,-221.8 519.49,-204.87 427.13,-194.78"/>
<polygon fill="#63b8ff" stroke="#63b8ff" points="427.34,-191.28 417.02,-193.67 426.58,-198.24 427.34,-191.28"/>
</a>
</g>
</g>
<!-- Node16 -->
<g id="Node000016" class="node">
<title>Node16</title>
<g id="a_Node000016"><a xlink:href="base__writer_8h.html" target="_top" xlink:title=" ">
<polygon fill="white" stroke="#666666" points="790.39,-195 662.39,-195 662.39,-176 790.39,-176 790.39,-195"/>
<text text-anchor="middle" x="726.39" y="-183" font-family="Helvetica,sans-Serif" font-size="10.00">../writers/base_writer.h</text>
</a>
</g>
</g>
<!-- Node1&#45;&gt;Node16 -->
<g id="edge23_Node000001_Node000016" class="edge">
<title>Node1&#45;&gt;Node16</title>
<g id="a_edge23_Node000001_Node000016"><a xlink:title=" ">
<path fill="none" stroke="#63b8ff" d="M818.71,-230.98C801.1,-222.5 773.81,-209.35 753.46,-199.54"/>
<polygon fill="#63b8ff" stroke="#63b8ff" points="754.91,-196.36 744.38,-195.17 751.87,-202.66 754.91,-196.36"/>
</a>
</g>
</g>
<!-- Node20 -->
<g id="Node000020" class="node">
<title>Node20</title>
<g id="a_Node000020"><a xlink:href="log__collector_8h.html" target="_top" xlink:title=" ">
<polygon fill="white" stroke="#666666" points="224.39,-134.5 104.39,-134.5 104.39,-115.5 224.39,-115.5 224.39,-134.5"/>
<text text-anchor="middle" x="164.39" y="-122.5" font-family="Helvetica,sans-Serif" font-size="10.00">../core/log_collector.h</text>
</a>
</g>
</g>
<!-- Node1&#45;&gt;Node20 -->
<g id="edge40_Node000001_Node000020" class="edge">
<title>Node1&#45;&gt;Node20</title>
<g id="a_edge40_Node000001_Node000020"><a xlink:title=" ">
<path fill="none" stroke="#63b8ff" d="M764.81,-237.98C634.83,-234.53 365.21,-224.02 276.39,-195 240.29,-183.21 203.84,-157.63 182.72,-141.15"/>
<polygon fill="#63b8ff" stroke="#63b8ff" points="184.65,-138.21 174.65,-134.71 180.29,-143.68 184.65,-138.21"/>
</a>
</g>
</g>
<!-- Node21 -->
<g id="Node000021" class="node">
<title>Node21</title>
<g id="a_Node000021"><a xlink:title=" ">
<polygon fill="#e0e0e0" stroke="#999999" points="864.39,-195 808.39,-195 808.39,-176 864.39,-176 864.39,-195"/>
<text text-anchor="middle" x="836.39" y="-183" font-family="Helvetica,sans-Serif" font-size="10.00">sstream</text>
</a>
</g>
</g>
<!-- Node1&#45;&gt;Node21 -->
<g id="edge47_Node000001_Node000021" class="edge">
<title>Node1&#45;&gt;Node21</title>
<g id="a_edge47_Node000001_Node000021"><a xlink:title=" ">
<path fill="none" stroke="#63b8ff" d="M836.39,-230.75C836.39,-223.8 836.39,-213.85 836.39,-205.13"/>
<polygon fill="#63b8ff" stroke="#63b8ff" points="839.89,-205.09 836.39,-195.09 832.89,-205.09 839.89,-205.09"/>
</a>
</g>
</g>
<!-- Node22 -->
<g id="Node000022" class="node">
<title>Node22</title>
<g id="a_Node000022"><a xlink:title=" ">
<polygon fill="#e0e0e0" stroke="#999999" points="946.39,-195 882.39,-195 882.39,-176 946.39,-176 946.39,-195"/>
<text text-anchor="middle" x="914.39" y="-183" font-family="Helvetica,sans-Serif" font-size="10.00">algorithm</text>
</a>
</g>
</g>
<!-- Node1&#45;&gt;Node22 -->
<g id="edge48_Node000001_Node000022" class="edge">
<title>Node1&#45;&gt;Node22</title>
<g id="a_edge48_Node000001_Node000022"><a xlink:title=" ">
<path fill="none" stroke="#63b8ff" d="M848.92,-230.98C860.79,-222.92 878.85,-210.65 893,-201.03"/>
<polygon fill="#63b8ff" stroke="#63b8ff" points="895.32,-203.69 901.63,-195.17 891.39,-197.9 895.32,-203.69"/>
</a>
</g>
</g>
<!-- Node23 -->
<g id="Node000023" class="node">
<title>Node23</title>
<g id="a_Node000023"><a xlink:title=" ">
<polygon fill="#e0e0e0" stroke="#999999" points="1020.39,-195 964.39,-195 964.39,-176 1020.39,-176 1020.39,-195"/>
<text text-anchor="middle" x="992.39" y="-183" font-family="Helvetica,sans-Serif" font-size="10.00">iomanip</text>
</a>
</g>
</g>
<!-- Node1&#45;&gt;Node23 -->
<g id="edge49_Node000001_Node000023" class="edge">
<title>Node1&#45;&gt;Node23</title>
<g id="a_edge49_Node000001_Node000023"><a xlink:title=" ">
<path fill="none" stroke="#63b8ff" d="M861.45,-230.98C887.41,-222.16 928.19,-208.31 957.34,-198.41"/>
<polygon fill="#63b8ff" stroke="#63b8ff" points="958.78,-201.61 967.12,-195.08 956.53,-194.99 958.78,-201.61"/>
</a>
</g>
</g>
<!-- Node24 -->
<g id="Node000024" class="node">
<title>Node24</title>
<g id="a_Node000024"><a xlink:title=" ">
<polygon fill="#e0e0e0" stroke="#999999" points="1145.89,-195 1038.89,-195 1038.89,-176 1145.89,-176 1145.89,-195"/>
<text text-anchor="middle" x="1092.39" y="-183" font-family="Helvetica,sans-Serif" font-size="10.00">condition_variable</text>
</a>
</g>
</g>
<!-- Node1&#45;&gt;Node24 -->
<g id="edge50_Node000001_Node000024" class="edge">
<title>Node1&#45;&gt;Node24</title>
<g id="a_edge50_Node000001_Node000024"><a xlink:title=" ">
<path fill="none" stroke="#63b8ff" d="M877.52,-230.98C921.98,-221.78 992.94,-207.09 1041.03,-197.13"/>
<polygon fill="#63b8ff" stroke="#63b8ff" points="1041.85,-200.54 1050.93,-195.08 1040.43,-193.68 1041.85,-200.54"/>
</a>
</g>
</g>
<!-- Node3 -->
<g id="Node000003" class="node">
<title>Node3</title>
<g id="a_Node000003"><a xlink:href="monitoring__interface_8h.html" target="_top" xlink:title="Abstract interface for monitoring and metrics collection.">
<polygon fill="white" stroke="#666666" points="536.89,-140 401.89,-140 401.89,-110 536.89,-110 536.89,-140"/>
<text text-anchor="start" x="409.89" y="-128" font-family="Helvetica,sans-Serif" font-size="10.00">../monitoring/monitoring</text>
<text text-anchor="middle" x="469.39" y="-117" font-family="Helvetica,sans-Serif" font-size="10.00">_interface.h</text>
</a>
</g>
</g>
<!-- Node2&#45;&gt;Node3 -->
<g id="edge2_Node000002_Node000003" class="edge">
<title>Node2&#45;&gt;Node3</title>
<g id="a_edge2_Node000002_Node000003"><a xlink:title=" ">
<path fill="none" stroke="#63b8ff" d="M368.54,-175.99C385.02,-167.82 410.48,-155.2 431.69,-144.69"/>
<polygon fill="#63b8ff" stroke="#63b8ff" points="433.38,-147.76 440.79,-140.18 430.27,-141.48 433.38,-147.76"/>
</a>
</g>
</g>
<!-- Node4 -->
<g id="Node000004" class="node">
<title>Node4</title>
<g id="a_Node000004"><a xlink:title=" ">
<polygon fill="#e0e0e0" stroke="#999999" points="884.39,-19 840.39,-19 840.39,0 884.39,0 884.39,-19"/>
<text text-anchor="middle" x="862.39" y="-7" font-family="Helvetica,sans-Serif" font-size="10.00">string</text>
</a>
</g>
</g>
<!-- Node2&#45;&gt;Node4 -->
<g id="edge22_Node000002_Node000004" class="edge">
<title>Node2&#45;&gt;Node4</title>
<g id="a_edge22_Node000002_Node000004"><a xlink:title=" ">
<path fill="none" stroke="#63b8ff" d="M416.97,-183.18C544.96,-179.95 818.21,-169.62 848.39,-140 877.87,-111.05 872.4,-57.44 866.85,-29.13"/>
<polygon fill="#63b8ff" stroke="#63b8ff" points="870.26,-28.34 864.71,-19.31 863.42,-29.83 870.26,-28.34"/>
</a>
</g>
</g>
<!-- Node5 -->
<g id="Node000005" class="node">
<title>Node5</title>
<g id="a_Node000005"><a xlink:title=" ">
<polygon fill="#e0e0e0" stroke="#999999" points="392.89,-74 299.89,-74 299.89,-55 392.89,-55 392.89,-74"/>
<text text-anchor="middle" x="346.39" y="-62" font-family="Helvetica,sans-Serif" font-size="10.00">unordered_map</text>
</a>
</g>
</g>
<!-- Node2&#45;&gt;Node5 -->
<g id="edge15_Node000002_Node000005" class="edge">
<title>Node2&#45;&gt;Node5</title>
<g id="a_edge15_Node000002_Node000005"><a xlink:title=" ">
<path fill="none" stroke="#63b8ff" d="M339.17,-175.86C329.04,-167.88 315.35,-155.01 309.39,-140 304.46,-127.61 304.85,-122.54 309.39,-110 313.33,-99.09 321.25,-88.96 328.75,-81.14"/>
<polygon fill="#63b8ff" stroke="#63b8ff" points="331.22,-83.61 335.95,-74.13 326.34,-78.6 331.22,-83.61"/>
</a>
</g>
</g>
<!-- Node6 -->
<g id="Node000006" class="node">
<title>Node6</title>
<g id="a_Node000006"><a xlink:title=" ">
<polygon fill="#e0e0e0" stroke="#999999" points="163.89,-74 116.89,-74 116.89,-55 163.89,-55 163.89,-74"/>
<text text-anchor="middle" x="140.39" y="-62" font-family="Helvetica,sans-Serif" font-size="10.00">vector</text>
</a>
</g>
</g>
<!-- Node2&#45;&gt;Node6 -->
<g id="edge14_Node000002_Node000006" class="edge">
<title>Node2&#45;&gt;Node6</title>
<g id="a_edge14_Node000002_Node000006"><a xlink:title=" ">
<path fill="none" stroke="#63b8ff" d="M285.81,-182.39C218.16,-178.67 119.27,-168.39 95.39,-140 79.61,-121.25 101.88,-96.36 120.32,-80.63"/>
<polygon fill="#63b8ff" stroke="#63b8ff" points="122.81,-83.12 128.38,-74.11 118.4,-77.68 122.81,-83.12"/>
</a>
</g>
</g>
<!-- Node7 -->
<g id="Node000007" class="node">
<title>Node7</title>
<g id="a_Node000007"><a xlink:title=" ">
<polygon fill="#e0e0e0" stroke="#999999" points="698.39,-74 648.39,-74 648.39,-55 698.39,-55 698.39,-74"/>
<text text-anchor="middle" x="673.39" y="-62" font-family="Helvetica,sans-Serif" font-size="10.00">chrono</text>
</a>
</g>
</g>
<!-- Node2&#45;&gt;Node7 -->
<g id="edge20_Node000002_Node000007" class="edge">
<title>Node2&#45;&gt;Node7</title>
<g id="a_edge20_Node000002_Node000007"><a xlink:title=" ">
<path fill="none" stroke="#63b8ff" d="M417.06,-180C464.04,-174.83 527.82,-163.74 579.39,-140 610.6,-125.63 640.62,-98.84 658.03,-81.6"/>
<polygon fill="#63b8ff" stroke="#63b8ff" points="660.98,-83.59 665.51,-74.01 656,-78.68 660.98,-83.59"/>
</a>
</g>
</g>
<!-- Node8 -->
<g id="Node000008" class="node">
<title>Node8</title>
<g id="a_Node000008"><a xlink:title=" ">
<polygon fill="#e0e0e0" stroke="#999999" points="277.39,-74 227.39,-74 227.39,-55 277.39,-55 277.39,-74"/>
<text text-anchor="middle" x="252.39" y="-62" font-family="Helvetica,sans-Serif" font-size="10.00">atomic</text>
</a>
</g>
</g>
<!-- Node2&#45;&gt;Node8 -->
<g id="edge17_Node000002_Node000008" class="edge">
<title>Node2&#45;&gt;Node8</title>
<g id="a_edge17_Node000002_Node000008"><a xlink:title=" ">
<path fill="none" stroke="#63b8ff" d="M340.56,-175.97C330.14,-167.47 314.25,-153.74 302.39,-140 286.7,-121.84 271.79,-98.56 262.4,-82.9"/>
<polygon fill="#63b8ff" stroke="#63b8ff" points="265.4,-81.09 257.31,-74.25 259.36,-84.64 265.4,-81.09"/>
</a>
</g>
</g>
<!-- Node9 -->
<g id="Node000009" class="node">
<title>Node9</title>
<g id="a_Node000009"><a xlink:href="error__codes_8h.html" target="_top" xlink:title=" ">
<polygon fill="white" stroke="#666666" points="982.39,-74 890.39,-74 890.39,-55 982.39,-55 982.39,-74"/>
<text text-anchor="middle" x="936.39" y="-62" font-family="Helvetica,sans-Serif" font-size="10.00">../error_codes.h</text>
</a>
</g>
</g>
<!-- Node2&#45;&gt;Node9 -->
<g id="edge12_Node000002_Node000009" class="edge">
<title>Node2&#45;&gt;Node9</title>
<g id="a_edge12_Node000002_Node000009"><a xlink:title=" ">
<path fill="none" stroke="#63b8ff" d="M417.04,-182.01C549.97,-176.54 841.73,-162.14 881.39,-140 903.91,-127.42 919.81,-101.33 928.54,-83.62"/>
<polygon fill="#63b8ff" stroke="#63b8ff" points="931.82,-84.86 932.84,-74.32 925.47,-81.92 931.82,-84.86"/>
</a>
</g>
</g>
<!-- Node10 -->
<g id="Node000010" class="node">
<title>Node10</title>
<g id="a_Node000010"><a xlink:title=" ">
<polygon fill="#e0e0e0" stroke="#999999" points="801.39,-19 745.39,-19 745.39,0 801.39,0 801.39,-19"/>
<text text-anchor="middle" x="773.39" y="-7" font-family="Helvetica,sans-Serif" font-size="10.00">optional</text>
</a>
</g>
</g>
<!-- Node2&#45;&gt;Node10 -->
<g id="edge21_Node000002_Node000010" class="edge">
<title>Node2&#45;&gt;Node10</title>
<g id="a_edge21_Node000002_Node000010"><a xlink:title=" ">
<path fill="none" stroke="#63b8ff" d="M417.16,-177.86C456.14,-171.91 505.55,-160.76 545.39,-140 551.63,-136.75 633.3,-58.55 639.39,-55 669.56,-37.4 707.66,-25.61 735.52,-18.61"/>
<polygon fill="#63b8ff" stroke="#63b8ff" points="736.39,-22 745.28,-16.25 734.74,-15.2 736.39,-22"/>
</a>
</g>
</g>
<!-- Node12 -->
<g id="Node000012" class="node">
<title>Node12</title>
<g id="a_Node000012"><a xlink:title=" ">
<polygon fill="#e0e0e0" stroke="#999999" points="221.39,-19 163.39,-19 163.39,0 221.39,0 221.39,-19"/>
<text text-anchor="middle" x="192.39" y="-7" font-family="Helvetica,sans-Serif" font-size="10.00">memory</text>
</a>
</g>
</g>
<!-- Node2&#45;&gt;Node12 -->
<g id="edge13_Node000002_Node000012" class="edge">
<title>Node2&#45;&gt;Node12</title>
<g id="a_edge13_Node000002_Node000012"><a xlink:title=" ">
<path fill="none" stroke="#63b8ff" d="M285.54,-184.31C201.43,-182.62 62.44,-174.51 26.39,-140 -1.18,-113.62 -9.09,-85.07 14.39,-55 31.24,-33.41 105.79,-20.74 152.91,-14.76"/>
<polygon fill="#63b8ff" stroke="#63b8ff" points="153.59,-18.2 163.09,-13.51 152.74,-11.25 153.59,-18.2"/>
</a>
</g>
</g>
<!-- Node13 -->
<g id="Node000013" class="node">
<title>Node13</title>
<g id="a_Node000013"><a xlink:title=" ">
<polygon fill="#e0e0e0" stroke="#999999" points="84.39,-74 36.39,-74 36.39,-55 84.39,-55 84.39,-74"/>
<text text-anchor="middle" x="60.39" y="-62" font-family="Helvetica,sans-Serif" font-size="10.00">thread</text>
</a>
</g>
</g>
<!-- Node2&#45;&gt;Node13 -->
<g id="edge16_Node000002_Node000013" class="edge">
<title>Node2&#45;&gt;Node13</title>
<g id="a_edge16_Node000002_Node000013"><a xlink:title=" ">
<path fill="none" stroke="#63b8ff" d="M285.58,-181.01C217.08,-176.09 115.76,-164.78 86.39,-140 69.98,-126.16 63.92,-101.36 61.68,-84.19"/>
<polygon fill="#63b8ff" stroke="#63b8ff" points="65.16,-83.81 60.69,-74.21 58.19,-84.5 65.16,-83.81"/>
</a>
</g>
</g>
<!-- Node14 -->
<g id="Node000014" class="node">
<title>Node14</title>
<g id="a_Node000014"><a xlink:title=" ">
<polygon fill="#e0e0e0" stroke="#999999" points="394.39,-19 346.39,-19 346.39,0 394.39,0 394.39,-19"/>
<text text-anchor="middle" x="370.39" y="-7" font-family="Helvetica,sans-Serif" font-size="10.00">mutex</text>
</a>
</g>
</g>
<!-- Node2&#45;&gt;Node14 -->
<g id="edge18_Node000002_Node000014" class="edge">
<title>Node2&#45;&gt;Node14</title>
<g id="a_edge18_Node000002_Node000014"><a xlink:title=" ">
<path fill="none" stroke="#63b8ff" d="M285.62,-180.93C212.24,-175.8 99.23,-164.19 64.39,-140 30.54,-116.5 0.19,-85.95 27.39,-55 47.58,-32.02 253.03,-17.42 335.96,-12.43"/>
<polygon fill="#63b8ff" stroke="#63b8ff" points="336.35,-15.91 346.13,-11.83 335.94,-8.92 336.35,-15.91"/>
</a>
</g>
</g>
<!-- Node15 -->
<g id="Node000015" class="node">
<title>Node15</title>
<g id="a_Node000015"><a xlink:title=" ">
<polygon fill="#e0e0e0" stroke="#999999" points="383.89,-134.5 318.89,-134.5 318.89,-115.5 383.89,-115.5 383.89,-134.5"/>
<text text-anchor="middle" x="351.39" y="-122.5" font-family="Helvetica,sans-Serif" font-size="10.00">functional</text>
</a>
</g>
</g>
<!-- Node2&#45;&gt;Node15 -->
<g id="edge19_Node000002_Node000015" class="edge">
<title>Node2&#45;&gt;Node15</title>
<g id="a_edge19_Node000002_Node000015"><a xlink:title=" ">
<path fill="none" stroke="#63b8ff" d="M351.39,-175.87C351.39,-167.75 351.39,-155.31 351.39,-144.89"/>
<polygon fill="#63b8ff" stroke="#63b8ff" points="354.89,-144.67 351.39,-134.67 347.89,-144.67 354.89,-144.67"/>
</a>
</g>
</g>
<!-- Node3&#45;&gt;Node4 -->
<g id="edge3_Node000003_Node000004" class="edge">
<title>Node3&#45;&gt;Node4</title>
<g id="a_edge3_Node000003_Node000004"><a xlink:title=" ">
<path fill="none" stroke="#63b8ff" d="M499.17,-109.9C532.63,-94.54 588.89,-70.14 639.39,-55 674.75,-44.4 777.47,-25.54 830.25,-16.14"/>
<polygon fill="#63b8ff" stroke="#63b8ff" points="830.87,-19.59 840.11,-14.39 829.65,-12.69 830.87,-19.59"/>
</a>
</g>
</g>
<!-- Node3&#45;&gt;Node5 -->
<g id="edge4_Node000003_Node000005" class="edge">
<title>Node3&#45;&gt;Node5</title>
<g id="a_edge4_Node000003_Node000005"><a xlink:title=" ">
<path fill="none" stroke="#63b8ff" d="M439.92,-109.99C419.77,-100.4 393.24,-87.79 373.59,-78.44"/>
<polygon fill="#63b8ff" stroke="#63b8ff" points="375.08,-75.27 364.55,-74.14 372.08,-81.6 375.08,-75.27"/>
</a>
</g>
</g>
<!-- Node3&#45;&gt;Node6 -->
<g id="edge5_Node000003_Node000006" class="edge">
<title>Node3&#45;&gt;Node6</title>
<g id="a_edge5_Node000003_Node000006"><a xlink:title=" ">
<path fill="none" stroke="#63b8ff" d="M401.78,-111.69C398.61,-111.12 395.46,-110.55 392.39,-110 314.16,-95.98 222.22,-79.83 173.92,-71.37"/>
<polygon fill="#63b8ff" stroke="#63b8ff" points="174.47,-67.91 164.02,-69.63 173.26,-74.8 174.47,-67.91"/>
</a>
</g>
</g>
<!-- Node3&#45;&gt;Node7 -->
<g id="edge6_Node000003_Node000007" class="edge">
<title>Node3&#45;&gt;Node7</title>
<g id="a_edge6_Node000003_Node000007"><a xlink:title=" ">
<path fill="none" stroke="#63b8ff" d="M518.25,-109.99C555.32,-99.36 605.37,-85 638.48,-75.51"/>
<polygon fill="#63b8ff" stroke="#63b8ff" points="639.53,-78.85 648.18,-72.73 637.6,-72.12 639.53,-78.85"/>
</a>
</g>
</g>
<!-- Node3&#45;&gt;Node8 -->
<g id="edge7_Node000003_Node000008" class="edge">
<title>Node3&#45;&gt;Node8</title>
<g id="a_edge7_Node000003_Node000008"><a xlink:title=" ">
<path fill="none" stroke="#63b8ff" d="M417.41,-109.99C377.12,-99.13 322.42,-84.38 287.25,-74.9"/>
<polygon fill="#63b8ff" stroke="#63b8ff" points="288.01,-71.48 277.44,-72.25 286.18,-78.24 288.01,-71.48"/>
</a>
</g>
</g>
<!-- Node3&#45;&gt;Node9 -->
<g id="edge8_Node000003_Node000009" class="edge">
<title>Node3&#45;&gt;Node9</title>
<g id="a_edge8_Node000003_Node000009"><a xlink:title=" ">
<path fill="none" stroke="#63b8ff" d="M537.29,-115.49C629.91,-103.89 794.14,-83.32 880.21,-72.54"/>
<polygon fill="#63b8ff" stroke="#63b8ff" points="880.82,-75.99 890.3,-71.27 879.95,-69.04 880.82,-75.99"/>
</a>
</g>
</g>
<!-- Node9&#45;&gt;Node4 -->
<g id="edge9_Node000009_Node000004" class="edge">
<title>Node9&#45;&gt;Node4</title>
<g id="a_edge9_Node000009_Node000004"><a xlink:title=" ">
<path fill="none" stroke="#63b8ff" d="M924.5,-54.98C913.24,-46.92 896.1,-34.65 882.68,-25.03"/>
<polygon fill="#63b8ff" stroke="#63b8ff" points="884.66,-22.15 874.49,-19.17 880.58,-27.84 884.66,-22.15"/>
</a>
</g>
</g>
<!-- Node9&#45;&gt;Node10 -->
<g id="edge10_Node000009_Node000010" class="edge">
<title>Node9&#45;&gt;Node10</title>
<g id="a_edge10_Node000009_Node000010"><a xlink:title=" ">
<path fill="none" stroke="#63b8ff" d="M910.2,-54.98C882.95,-46.13 840.08,-32.19 809.6,-22.28"/>
<polygon fill="#63b8ff" stroke="#63b8ff" points="810.37,-18.85 799.78,-19.08 808.21,-25.5 810.37,-18.85"/>
</a>
</g>
</g>
<!-- Node11 -->
<g id="Node000011" class="node">
<title>Node11</title>
<g id="a_Node000011"><a xlink:title=" ">
<polygon fill="#e0e0e0" stroke="#999999" points="961.89,-19 910.89,-19 910.89,0 961.89,0 961.89,-19"/>
<text text-anchor="middle" x="936.39" y="-7" font-family="Helvetica,sans-Serif" font-size="10.00">variant</text>
</a>
</g>
</g>
<!-- Node9&#45;&gt;Node11 -->
<g id="edge11_Node000009_Node000011" class="edge">
<title>Node9&#45;&gt;Node11</title>
<g id="a_edge11_Node000009_Node000011"><a xlink:title=" ">
<path fill="none" stroke="#63b8ff" d="M936.39,-54.75C936.39,-47.8 936.39,-37.85 936.39,-29.13"/>
<polygon fill="#63b8ff" stroke="#63b8ff" points="939.89,-29.09 936.39,-19.09 932.89,-29.09 939.89,-29.09"/>
</a>
</g>
</g>
<!-- Node16&#45;&gt;Node4 -->
<g id="edge24_Node000016_Node000004" class="edge">
<title>Node16&#45;&gt;Node4</title>
<g id="a_edge24_Node000016_Node000004"><a xlink:title=" ">
<path fill="none" stroke="#63b8ff" d="M790.72,-176.79C893.68,-164.42 1084.17,-141.37 1085.39,-140 1130.56,-88.88 1038.53,-69.45 1009.39,-55 989.13,-44.96 931.22,-28.7 894.42,-18.86"/>
<polygon fill="#63b8ff" stroke="#63b8ff" points="895.21,-15.45 884.65,-16.27 893.42,-22.22 895.21,-15.45"/>
</a>
</g>
</g>
<!-- Node16&#45;&gt;Node7 -->
<g id="edge25_Node000016_Node000007" class="edge">
<title>Node16&#45;&gt;Node7</title>
<g id="a_edge25_Node000016_Node000007"><a xlink:title=" ">
<path fill="none" stroke="#63b8ff" d="M720.17,-175.99C714.01,-167.28 704.64,-153.2 698.39,-140 689.64,-121.55 682.57,-99.21 678.21,-83.83"/>
<polygon fill="#63b8ff" stroke="#63b8ff" points="681.55,-82.74 675.53,-74.02 674.79,-84.59 681.55,-82.74"/>
</a>
</g>
</g>
<!-- Node16&#45;&gt;Node9 -->
<g id="edge30_Node000016_Node000009" class="edge">
<title>Node16&#45;&gt;Node9</title>
<g id="a_edge30_Node000016_Node000009"><a xlink:title=" ">
<path fill="none" stroke="#63b8ff" d="M790.58,-176.68C888.99,-164.62 1066.1,-142.6 1068.39,-140 1095.62,-108.99 1039.94,-88.01 992.71,-76.42"/>
<polygon fill="#63b8ff" stroke="#63b8ff" points="993.33,-72.97 982.8,-74.08 991.73,-79.78 993.33,-72.97"/>
</a>
</g>
</g>
<!-- Node17 -->
<g id="Node000017" class="node">
<title>Node17</title>
<g id="a_Node000017"><a xlink:href="logger__interface_8h.html" target="_top" xlink:title=" ">
<polygon fill="white" stroke="#666666" points="533.39,-74 419.39,-74 419.39,-55 533.39,-55 533.39,-74"/>
<text text-anchor="middle" x="476.39" y="-62" font-family="Helvetica,sans-Serif" font-size="10.00">../logger_interface.h</text>
</a>
</g>
</g>
<!-- Node16&#45;&gt;Node17 -->
<g id="edge26_Node000016_Node000017" class="edge">
<title>Node16&#45;&gt;Node17</title>
<g id="a_edge26_Node000016_Node000017"><a xlink:title=" ">
<path fill="none" stroke="#63b8ff" d="M708.41,-175.94C665.18,-155.36 555.2,-103.01 503.73,-78.51"/>
<polygon fill="#63b8ff" stroke="#63b8ff" points="505.07,-75.28 494.54,-74.14 502.06,-81.6 505.07,-75.28"/>
</a>
</g>
</g>
<!-- Node18 -->
<g id="Node000018" class="node">
<title>Node18</title>
<g id="a_Node000018"><a xlink:href="log__writer__interface_8h.html" target="_top" xlink:title=" ">
<polygon fill="white" stroke="#666666" points="1059.39,-140 933.39,-140 933.39,-110 1059.39,-110 1059.39,-140"/>
<text text-anchor="start" x="941.39" y="-128" font-family="Helvetica,sans-Serif" font-size="10.00">../interfaces/log_writer</text>
<text text-anchor="middle" x="996.39" y="-117" font-family="Helvetica,sans-Serif" font-size="10.00">_interface.h</text>
</a>
</g>
</g>
<!-- Node16&#45;&gt;Node18 -->
<g id="edge31_Node000016_Node000018" class="edge">
<title>Node16&#45;&gt;Node18</title>
<g id="a_edge31_Node000016_Node000018"><a xlink:title=" ">
<path fill="none" stroke="#63b8ff" d="M765.65,-175.99C806.85,-167.07 872.57,-152.83 923.35,-141.82"/>
<polygon fill="#63b8ff" stroke="#63b8ff" points="924.26,-145.21 933.29,-139.67 922.78,-138.37 924.26,-145.21"/>
</a>
</g>
</g>
<!-- Node19 -->
<g id="Node000019" class="node">
<title>Node19</title>
<g id="a_Node000019"><a xlink:href="log__entry_8h.html" target="_top" xlink:title=" ">
<polygon fill="white" stroke="#666666" points="838.89,-134.5 707.89,-134.5 707.89,-115.5 838.89,-115.5 838.89,-134.5"/>
<text text-anchor="middle" x="773.39" y="-122.5" font-family="Helvetica,sans-Serif" font-size="10.00">../interfaces/log_entry.h</text>
</a>
</g>
</g>
<!-- Node16&#45;&gt;Node19 -->
<g id="edge35_Node000016_Node000019" class="edge">
<title>Node16&#45;&gt;Node19</title>
<g id="a_edge35_Node000016_Node000019"><a xlink:title=" ">
<path fill="none" stroke="#63b8ff" d="M733.32,-175.87C740.33,-167.14 751.35,-153.43 760.05,-142.59"/>
<polygon fill="#63b8ff" stroke="#63b8ff" points="762.89,-144.66 766.42,-134.67 757.43,-140.27 762.89,-144.66"/>
</a>
</g>
</g>
<!-- Node17&#45;&gt;Node4 -->
<g id="edge29_Node000017_Node000004" class="edge">
<title>Node17&#45;&gt;Node4</title>
<g id="a_edge29_Node000017_Node000004"><a xlink:title=" ">
<path fill="none" stroke="#63b8ff" d="M533.49,-56.41C600.05,-48.03 713.32,-33.4 810.39,-19 816.8,-18.05 823.65,-16.97 830.2,-15.91"/>
<polygon fill="#63b8ff" stroke="#63b8ff" points="830.84,-19.36 840.14,-14.28 829.71,-12.45 830.84,-19.36"/>
</a>
</g>
</g>
<!-- Node17&#45;&gt;Node12 -->
<g id="edge27_Node000017_Node000012" class="edge">
<title>Node17&#45;&gt;Node12</title>
<g id="a_edge27_Node000017_Node000012"><a xlink:title=" ">
<path fill="none" stroke="#63b8ff" d="M430.76,-54.98C375.48,-44.67 283.33,-27.47 231.28,-17.76"/>
<polygon fill="#63b8ff" stroke="#63b8ff" points="231.9,-14.31 221.43,-15.92 230.62,-21.19 231.9,-14.31"/>
</a>
</g>
</g>
<!-- Node17&#45;&gt;Node14 -->
<g id="edge28_Node000017_Node000014" class="edge">
<title>Node17&#45;&gt;Node14</title>
<g id="a_edge28_Node000017_Node000014"><a xlink:title=" ">
<path fill="none" stroke="#63b8ff" d="M459.35,-54.98C442.46,-46.54 416.32,-33.47 396.74,-23.68"/>
<polygon fill="#63b8ff" stroke="#63b8ff" points="398.24,-20.51 387.73,-19.17 395.1,-26.77 398.24,-20.51"/>
</a>
</g>
</g>
<!-- Node18&#45;&gt;Node4 -->
<g id="edge32_Node000018_Node000004" class="edge">
<title>Node18&#45;&gt;Node4</title>
<g id="a_edge32_Node000018_Node000004"><a xlink:title=" ">
<path fill="none" stroke="#63b8ff" d="M999.52,-110C1002.05,-94.83 1003.46,-70.71 991.39,-55 979.41,-39.43 928.81,-25.35 894.66,-17.38"/>
<polygon fill="#63b8ff" stroke="#63b8ff" points="895.18,-13.9 884.65,-15.1 893.62,-20.73 895.18,-13.9"/>
</a>
</g>
</g>
<!-- Node18&#45;&gt;Node7 -->
<g id="edge33_Node000018_Node000007" class="edge">
<title>Node18&#45;&gt;Node7</title>
<g id="a_edge33_Node000018_Node000007"><a xlink:title=" ">
<path fill="none" stroke="#63b8ff" d="M933.34,-112.58C866.22,-100.42 762.39,-81.62 708.52,-71.86"/>
<polygon fill="#63b8ff" stroke="#63b8ff" points="708.9,-68.38 698.43,-70.04 707.65,-75.26 708.9,-68.38"/>
</a>
</g>
</g>
<!-- Node18&#45;&gt;Node9 -->
<g id="edge34_Node000018_Node000009" class="edge">
<title>Node18&#45;&gt;Node9</title>
<g id="a_edge34_Node000018_Node000009"><a xlink:title=" ">
<path fill="none" stroke="#63b8ff" d="M981.86,-109.84C973.06,-101.26 961.82,-90.3 952.71,-81.42"/>
<polygon fill="#63b8ff" stroke="#63b8ff" points="954.98,-78.74 945.38,-74.27 950.09,-83.75 954.98,-78.74"/>
</a>
</g>
</g>
<!-- Node19&#45;&gt;Node4 -->
<g id="edge36_Node000019_Node000004" class="edge">
<title>Node19&#45;&gt;Node4</title>
<g id="a_edge36_Node000019_Node000004"><a xlink:title=" ">
<path fill="none" stroke="#63b8ff" d="M780.07,-115.47C794.76,-96.74 830.06,-51.72 849.32,-27.16"/>
<polygon fill="#63b8ff" stroke="#63b8ff" points="852.2,-29.16 855.62,-19.13 846.69,-24.84 852.2,-29.16"/>
</a>
</g>
</g>
<!-- Node19&#45;&gt;Node7 -->
<g id="edge37_Node000019_Node000007" class="edge">
<title>Node19&#45;&gt;Node7</title>
<g id="a_edge37_Node000019_Node000007"><a xlink:title=" ">
<path fill="none" stroke="#63b8ff" d="M758.63,-115.37C742.38,-105.86 716.03,-90.45 696.92,-79.27"/>
<polygon fill="#63b8ff" stroke="#63b8ff" points="698.6,-76.2 688.2,-74.17 695.07,-82.24 698.6,-76.2"/>
</a>
</g>
</g>
<!-- Node19&#45;&gt;Node10 -->
<g id="edge38_Node000019_Node000010" class="edge">
<title>Node19&#45;&gt;Node10</title>
<g id="a_edge38_Node000019_Node000010"><a xlink:title=" ">
<path fill="none" stroke="#63b8ff" d="M773.39,-115.47C773.39,-97.23 773.39,-54.07 773.39,-29.14"/>
<polygon fill="#63b8ff" stroke="#63b8ff" points="776.89,-29.13 773.39,-19.13 769.89,-29.13 776.89,-29.13"/>
</a>
</g>
</g>
<!-- Node19&#45;&gt;Node17 -->
<g id="edge39_Node000019_Node000017" class="edge">
<title>Node19&#45;&gt;Node17</title>
<g id="a_edge39_Node000019_Node000017"><a xlink:title=" ">
<path fill="none" stroke="#63b8ff" d="M730.2,-115.49C677.08,-105.03 586.92,-87.27 529.58,-75.98"/>
<polygon fill="#63b8ff" stroke="#63b8ff" points="530.11,-72.52 519.62,-74.02 528.76,-79.38 530.11,-72.52"/>
</a>
</g>
</g>
<!-- Node20&#45;&gt;Node6 -->
<g id="edge43_Node000020_Node000006" class="edge">
<title>Node20&#45;&gt;Node6</title>
<g id="a_edge43_Node000020_Node000006"><a xlink:title=" ">
<path fill="none" stroke="#63b8ff" d="M160.84,-115.37C157.44,-107.07 152.19,-94.28 147.86,-83.72"/>
<polygon fill="#63b8ff" stroke="#63b8ff" points="150.97,-82.09 143.94,-74.17 144.5,-84.75 150.97,-82.09"/>
</a>
</g>
</g>
<!-- Node20&#45;&gt;Node7 -->
<g id="edge46_Node000020_Node000007" class="edge">
<title>Node20&#45;&gt;Node7</title>
<g id="a_edge46_Node000020_Node000007"><a xlink:title=" ">
<path fill="none" stroke="#63b8ff" d="M224.52,-117.09C331.72,-104.77 552.62,-79.38 638.32,-69.53"/>
<polygon fill="#63b8ff" stroke="#63b8ff" points="638.79,-73 648.32,-68.38 637.99,-66.05 638.79,-73"/>
</a>
</g>
</g>
<!-- Node20&#45;&gt;Node8 -->
<g id="edge45_Node000020_Node000008" class="edge">
<title>Node20&#45;&gt;Node8</title>
<g id="a_edge45_Node000020_Node000008"><a xlink:title=" ">
<path fill="none" stroke="#63b8ff" d="M177.37,-115.37C191.41,-106.04 214.02,-91.01 230.75,-79.88"/>
<polygon fill="#63b8ff" stroke="#63b8ff" points="232.96,-82.62 239.35,-74.17 229.08,-76.79 232.96,-82.62"/>
</a>
</g>
</g>
<!-- Node20&#45;&gt;Node12 -->
<g id="edge42_Node000020_Node000012" class="edge">
<title>Node20&#45;&gt;Node12</title>
<g id="a_edge42_Node000020_Node000012"><a xlink:title=" ">
<path fill="none" stroke="#63b8ff" d="M166.49,-115.47C170.99,-97.23 181.64,-54.07 187.79,-29.14"/>
<polygon fill="#63b8ff" stroke="#63b8ff" points="191.26,-29.68 190.26,-19.13 184.46,-28 191.26,-29.68"/>
</a>
</g>
</g>
<!-- Node20&#45;&gt;Node13 -->
<g id="edge44_Node000020_Node000013" class="edge">
<title>Node20&#45;&gt;Node13</title>
<g id="a_edge44_Node000020_Node000013"><a xlink:title=" ">
<path fill="none" stroke="#63b8ff" d="M149.04,-115.37C132.07,-105.82 104.49,-90.31 84.59,-79.12"/>
<polygon fill="#63b8ff" stroke="#63b8ff" points="86.23,-76.02 75.79,-74.17 82.79,-82.12 86.23,-76.02"/>
</a>
</g>
</g>
<!-- Node20&#45;&gt;Node17 -->
<g id="edge41_Node000020_Node000017" class="edge">
<title>Node20&#45;&gt;Node17</title>
<g id="a_edge41_Node000020_Node000017"><a xlink:title=" ">
<path fill="none" stroke="#63b8ff" d="M209.75,-115.49C265.67,-105.01 360.66,-87.2 420.88,-75.91"/>
<polygon fill="#63b8ff" stroke="#63b8ff" points="421.78,-79.3 430.96,-74.02 420.49,-72.42 421.78,-79.3"/>
</a>
</g>
</g>
</g>
</svg>
