<?xml version="1.0" encoding="UTF-8" standalone="no"?>
<!DOCTYPE svg PUBLIC "-//W3C//DTD SVG 1.1//EN"
 "http://www.w3.org/Graphics/SVG/1.1/DTD/svg11.dtd">
<!-- Generated by graphviz version 2.43.0 (0)
 -->
<!-- Title: health_check_system.h Pages: 1 -->
<svg width="760pt" height="203pt"
 viewBox="0.00 0.00 760.25 203.00" xmlns="http://www.w3.org/2000/svg" xmlns:xlink="http://www.w3.org/1999/xlink">
<g id="graph0" class="graph" transform="scale(1 1) rotate(0) translate(4 199)">
<title>health_check_system.h</title>
<!-- Node1 -->
<g id="Node000001" class="node">
<title>Node1</title>
<g id="a_Node000001"><a xlink:title=" ">
<polygon fill="#999999" stroke="#666666" points="459.25,-195 328.25,-195 328.25,-176 459.25,-176 459.25,-195"/>
<text text-anchor="middle" x="393.75" y="-183" font-family="Helvetica,sans-Serif" font-size="10.00">health_check_system.h</text>
</a>
</g>
</g>
<!-- Node2 -->
<g id="Node000002" class="node">
<title>Node2</title>
<g id="a_Node000002"><a xlink:href="monitoring__interface_8h.html" target="_top" xlink:title="Abstract interface for monitoring and metrics collection.">
<polygon fill="white" stroke="#666666" points="346.25,-140 211.25,-140 211.25,-110 346.25,-110 346.25,-140"/>
<text text-anchor="start" x="219.25" y="-128" font-family="Helvetica,sans-Serif" font-size="10.00">../monitoring/monitoring</text>
<text text-anchor="middle" x="278.75" y="-117" font-family="Helvetica,sans-Serif" font-size="10.00">_interface.h</text>
</a>
</g>
</g>
<!-- Node1&#45;&gt;Node2 -->
<g id="edge1_Node000001_Node000002" class="edge">
<title>Node1&#45;&gt;Node2</title>
<g id="a_edge1_Node000001_Node000002"><a xlink:title=" ">
<path fill="none" stroke="#63b8ff" d="M376.78,-175.87C360.74,-167.71 336.14,-155.2 315.6,-144.75"/>
<polygon fill="#63b8ff" stroke="#63b8ff" points="316.99,-141.53 306.49,-140.11 313.82,-147.77 316.99,-141.53"/>
</a>
</g>
</g>
<!-- Node3 -->
<g id="Node000003" class="node">
<title>Node3</title>
<g id="a_Node000003"><a xlink:title=" ">
<polygon fill="#e0e0e0" stroke="#999999" points="289.75,-19 245.75,-19 245.75,0 289.75,0 289.75,-19"/>
<text text-anchor="middle" x="267.75" y="-7" font-family="Helvetica,sans-Serif" font-size="10.00">string</text>
</a>
</g>
</g>
<!-- Node1&#45;&gt;Node3 -->
<g id="edge21_Node000001_Node000003" class="edge">
<title>Node1&#45;&gt;Node3</title>
<g id="a_edge21_Node000001_Node000003"><a xlink:title=" ">
<path fill="none" stroke="#63b8ff" d="M328.18,-181.79C269.15,-177.6 180.86,-166.98 108.75,-140 57.12,-120.68 30.41,-122.24 3.75,-74 -0.34,-66.61 -1.71,-61.45 3.75,-55 33.04,-20.36 171.16,-12.67 235.11,-10.98"/>
<polygon fill="#63b8ff" stroke="#63b8ff" points="235.51,-14.47 245.43,-10.74 235.35,-7.47 235.51,-14.47"/>
</a>
</g>
</g>
<!-- Node4 -->
<g id="Node000004" class="node">
<title>Node4</title>
<g id="a_Node000004"><a xlink:title=" ">
<polygon fill="#e0e0e0" stroke="#999999" points="106.25,-74 13.25,-74 13.25,-55 106.25,-55 106.25,-74"/>
<text text-anchor="middle" x="59.75" y="-62" font-family="Helvetica,sans-Serif" font-size="10.00">unordered_map</text>
</a>
</g>
</g>
<!-- Node1&#45;&gt;Node4 -->
<g id="edge14_Node000001_Node000004" class="edge">
<title>Node1&#45;&gt;Node4</title>
<g id="a_edge14_Node000001_Node000004"><a xlink:title=" ">
<path fill="none" stroke="#63b8ff" d="M328.03,-179.5C280.54,-174.08 215.69,-162.9 162.75,-140 129.05,-125.42 95.64,-98.33 76.39,-81.14"/>
<polygon fill="#63b8ff" stroke="#63b8ff" points="78.56,-78.38 68.81,-74.23 73.85,-83.56 78.56,-78.38"/>
</a>
</g>
</g>
<!-- Node5 -->
<g id="Node000005" class="node">
<title>Node5</title>
<g id="a_Node000005"><a xlink:title=" ">
<polygon fill="#e0e0e0" stroke="#999999" points="171.25,-74 124.25,-74 124.25,-55 171.25,-55 171.25,-74"/>
<text text-anchor="middle" x="147.75" y="-62" font-family="Helvetica,sans-Serif" font-size="10.00">vector</text>
</a>
</g>
</g>
<!-- Node1&#45;&gt;Node5 -->
<g id="edge13_Node000001_Node000005" class="edge">
<title>Node1&#45;&gt;Node5</title>
<g id="a_edge13_Node000001_Node000005"><a xlink:title=" ">
<path fill="none" stroke="#63b8ff" d="M327.8,-183.18C285.43,-179.35 231.15,-168.55 191.75,-140 172.51,-126.06 160.25,-100.9 153.68,-83.72"/>
<polygon fill="#63b8ff" stroke="#63b8ff" points="156.96,-82.47 150.32,-74.21 150.36,-84.81 156.96,-82.47"/>
</a>
</g>
</g>
<!-- Node6 -->
<g id="Node000006" class="node">
<title>Node6</title>
<g id="a_Node000006"><a xlink:title=" ">
<polygon fill="#e0e0e0" stroke="#999999" points="239.75,-74 189.75,-74 189.75,-55 239.75,-55 239.75,-74"/>
<text text-anchor="middle" x="214.75" y="-62" font-family="Helvetica,sans-Serif" font-size="10.00">chrono</text>
</a>
</g>
</g>
<!-- Node1&#45;&gt;Node6 -->
<g id="edge19_Node000001_Node000006" class="edge">
<title>Node1&#45;&gt;Node6</title>
<g id="a_edge19_Node000001_Node000006"><a xlink:title=" ">
<path fill="none" stroke="#63b8ff" d="M327.82,-177.83C278.97,-171.36 218.31,-159.6 202.75,-140 190.07,-124.03 197.25,-99.93 204.82,-83.49"/>
<polygon fill="#63b8ff" stroke="#63b8ff" points="208.03,-84.9 209.42,-74.39 201.79,-81.74 208.03,-84.9"/>
</a>
</g>
</g>
<!-- Node7 -->
<g id="Node000007" class="node">
<title>Node7</title>
<g id="a_Node000007"><a xlink:title=" ">
<polygon fill="#e0e0e0" stroke="#999999" points="345.75,-74 295.75,-74 295.75,-55 345.75,-55 345.75,-74"/>
<text text-anchor="middle" x="320.75" y="-62" font-family="Helvetica,sans-Serif" font-size="10.00">atomic</text>
</a>
</g>
</g>
<!-- Node1&#45;&gt;Node7 -->
<g id="edge16_Node000001_Node000007" class="edge">
<title>Node1&#45;&gt;Node7</title>
<g id="a_edge16_Node000001_Node000007"><a xlink:title=" ">
<path fill="none" stroke="#63b8ff" d="M390.04,-175.94C383.77,-161.77 370.3,-132.75 355.75,-110 349.54,-100.29 341.67,-90.14 334.97,-81.99"/>
<polygon fill="#63b8ff" stroke="#63b8ff" points="337.64,-79.72 328.53,-74.32 332.28,-84.23 337.64,-79.72"/>
</a>
</g>
</g>
<!-- Node8 -->
<g id="Node000008" class="node">
<title>Node8</title>
<g id="a_Node000008"><a xlink:href="error__codes_8h.html" target="_top" xlink:title=" ">
<polygon fill="white" stroke="#666666" points="455.75,-74 363.75,-74 363.75,-55 455.75,-55 455.75,-74"/>
<text text-anchor="middle" x="409.75" y="-62" font-family="Helvetica,sans-Serif" font-size="10.00">../error_codes.h</text>
</a>
</g>
</g>
<!-- Node1&#45;&gt;Node8 -->
<g id="edge11_Node000001_Node000008" class="edge">
<title>Node1&#45;&gt;Node8</title>
<g id="a_edge11_Node000001_Node000008"><a xlink:title=" ">
<path fill="none" stroke="#63b8ff" d="M394.9,-175.94C397.46,-156.91 403.67,-110.69 407.2,-84.47"/>
<polygon fill="#63b8ff" stroke="#63b8ff" points="410.7,-84.68 408.56,-74.3 403.76,-83.75 410.7,-84.68"/>
</a>
</g>
</g>
<!-- Node9 -->
<g id="Node000009" class="node">
<title>Node9</title>
<g id="a_Node000009"><a xlink:title=" ">
<polygon fill="#e0e0e0" stroke="#999999" points="510.75,-19 454.75,-19 454.75,0 510.75,0 510.75,-19"/>
<text text-anchor="middle" x="482.75" y="-7" font-family="Helvetica,sans-Serif" font-size="10.00">optional</text>
</a>
</g>
</g>
<!-- Node1&#45;&gt;Node9 -->
<g id="edge20_Node000001_Node000009" class="edge">
<title>Node1&#45;&gt;Node9</title>
<g id="a_edge20_Node000001_Node000009"><a xlink:title=" ">
<path fill="none" stroke="#63b8ff" d="M400.59,-175.85C414.52,-157.87 446.37,-114.74 464.75,-74 471.23,-59.62 475.95,-42.34 478.92,-29.44"/>
<polygon fill="#63b8ff" stroke="#63b8ff" points="482.4,-29.93 481.09,-19.41 475.56,-28.45 482.4,-29.93"/>
</a>
</g>
</g>
<!-- Node11 -->
<g id="Node000011" class="node">
<title>Node11</title>
<g id="a_Node000011"><a xlink:title=" ">
<polygon fill="#e0e0e0" stroke="#999999" points="536.75,-134.5 478.75,-134.5 478.75,-115.5 536.75,-115.5 536.75,-134.5"/>
<text text-anchor="middle" x="507.75" y="-122.5" font-family="Helvetica,sans-Serif" font-size="10.00">memory</text>
</a>
</g>
</g>
<!-- Node1&#45;&gt;Node11 -->
<g id="edge12_Node000001_Node000011" class="edge">
<title>Node1&#45;&gt;Node11</title>
<g id="a_edge12_Node000001_Node000011"><a xlink:title=" ">
<path fill="none" stroke="#63b8ff" d="M410.57,-175.87C429.34,-166.23 459.95,-150.53 481.8,-139.31"/>
<polygon fill="#63b8ff" stroke="#63b8ff" points="483.56,-142.35 490.86,-134.67 480.36,-136.12 483.56,-142.35"/>
</a>
</g>
</g>
<!-- Node12 -->
<g id="Node000012" class="node">
<title>Node12</title>
<g id="a_Node000012"><a xlink:title=" ">
<polygon fill="#e0e0e0" stroke="#999999" points="602.75,-134.5 554.75,-134.5 554.75,-115.5 602.75,-115.5 602.75,-134.5"/>
<text text-anchor="middle" x="578.75" y="-122.5" font-family="Helvetica,sans-Serif" font-size="10.00">thread</text>
</a>
</g>
</g>
<!-- Node1&#45;&gt;Node12 -->
<g id="edge15_Node000001_Node000012" class="edge">
<title>Node1&#45;&gt;Node12</title>
<g id="a_edge15_Node000001_Node000012"><a xlink:title=" ">
<path fill="none" stroke="#63b8ff" d="M427.01,-175.96C458.05,-167.71 505.48,-154.38 545.75,-140 547.18,-139.49 548.63,-138.95 550.1,-138.39"/>
<polygon fill="#63b8ff" stroke="#63b8ff" points="551.73,-141.51 559.7,-134.53 549.12,-135.01 551.73,-141.51"/>
</a>
</g>
</g>
<!-- Node13 -->
<g id="Node000013" class="node">
<title>Node13</title>
<g id="a_Node000013"><a xlink:title=" ">
<polygon fill="#e0e0e0" stroke="#999999" points="668.75,-134.5 620.75,-134.5 620.75,-115.5 668.75,-115.5 668.75,-134.5"/>
<text text-anchor="middle" x="644.75" y="-122.5" font-family="Helvetica,sans-Serif" font-size="10.00">mutex</text>
</a>
</g>
</g>
<!-- Node1&#45;&gt;Node13 -->
<g id="edge17_Node000001_Node000013" class="edge">
<title>Node1&#45;&gt;Node13</title>
<g id="a_edge17_Node000001_Node000013"><a xlink:title=" ">
<path fill="none" stroke="#63b8ff" d="M451.45,-175.96C495.86,-168.61 558.44,-156.56 611.75,-140 613.42,-139.48 615.13,-138.9 616.84,-138.29"/>
<polygon fill="#63b8ff" stroke="#63b8ff" points="618.45,-141.42 626.49,-134.51 615.9,-134.9 618.45,-141.42"/>
</a>
</g>
</g>
<!-- Node14 -->
<g id="Node000014" class="node">
<title>Node14</title>
<g id="a_Node000014"><a xlink:title=" ">
<polygon fill="#e0e0e0" stroke="#999999" points="752.25,-134.5 687.25,-134.5 687.25,-115.5 752.25,-115.5 752.25,-134.5"/>
<text text-anchor="middle" x="719.75" y="-122.5" font-family="Helvetica,sans-Serif" font-size="10.00">functional</text>
</a>
</g>
</g>
<!-- Node1&#45;&gt;Node14 -->
<g id="edge18_Node000001_Node000014" class="edge">
<title>Node1&#45;&gt;Node14</title>
<g id="a_edge18_Node000001_Node000014"><a xlink:title=" ">
<path fill="none" stroke="#63b8ff" d="M459.5,-177.35C517.45,-170.29 603.92,-157.96 677.75,-140 680.71,-139.28 683.77,-138.44 686.82,-137.55"/>
<polygon fill="#63b8ff" stroke="#63b8ff" points="687.91,-140.88 696.4,-134.55 685.81,-134.2 687.91,-140.88"/>
</a>
</g>
</g>
<!-- Node2&#45;&gt;Node3 -->
<g id="edge2_Node000002_Node000003" class="edge">
<title>Node2&#45;&gt;Node3</title>
<g id="a_edge2_Node000002_Node000003"><a xlink:title=" ">
<path fill="none" stroke="#63b8ff" d="M277.35,-109.63C275.38,-89.21 271.75,-51.81 269.56,-29.24"/>
<polygon fill="#63b8ff" stroke="#63b8ff" points="273.04,-28.85 268.59,-19.23 266.07,-29.52 273.04,-28.85"/>
</a>
</g>
</g>
<!-- Node2&#45;&gt;Node4 -->
<g id="edge3_Node000002_Node000004" class="edge">
<title>Node2&#45;&gt;Node4</title>
<g id="a_edge3_Node000002_Node000004"><a xlink:title=" ">
<path fill="none" stroke="#63b8ff" d="M226.29,-109.99C188.17,-99.8 137.25,-86.2 101.79,-76.73"/>
<polygon fill="#63b8ff" stroke="#63b8ff" points="102.33,-73.25 91.77,-74.05 100.53,-80.02 102.33,-73.25"/>
</a>
</g>
</g>
<!-- Node2&#45;&gt;Node5 -->
<g id="edge4_Node000002_Node000005" class="edge">
<title>Node2&#45;&gt;Node5</title>
<g id="a_edge4_Node000002_Node000005"><a xlink:title=" ">
<path fill="none" stroke="#63b8ff" d="M247.37,-109.99C225.81,-100.36 197.4,-87.67 176.43,-78.31"/>
<polygon fill="#63b8ff" stroke="#63b8ff" points="177.65,-75.02 167.09,-74.14 174.8,-81.41 177.65,-75.02"/>
</a>
</g>
</g>
<!-- Node2&#45;&gt;Node6 -->
<g id="edge5_Node000002_Node000006" class="edge">
<title>Node2&#45;&gt;Node6</title>
<g id="a_edge5_Node000002_Node000006"><a xlink:title=" ">
<path fill="none" stroke="#63b8ff" d="M263.25,-109.84C253.77,-101.17 241.63,-90.08 231.87,-81.15"/>
<polygon fill="#63b8ff" stroke="#63b8ff" points="234.08,-78.43 224.34,-74.27 229.36,-83.6 234.08,-78.43"/>
</a>
</g>
</g>
<!-- Node2&#45;&gt;Node7 -->
<g id="edge6_Node000002_Node000007" class="edge">
<title>Node2&#45;&gt;Node7</title>
<g id="a_edge6_Node000002_Node000007"><a xlink:title=" ">
<path fill="none" stroke="#63b8ff" d="M288.91,-109.84C294.82,-101.61 302.31,-91.18 308.54,-82.51"/>
<polygon fill="#63b8ff" stroke="#63b8ff" points="311.46,-84.43 314.45,-74.27 305.78,-80.35 311.46,-84.43"/>
</a>
</g>
</g>
<!-- Node2&#45;&gt;Node8 -->
<g id="edge7_Node000002_Node000008" class="edge">
<title>Node2&#45;&gt;Node8</title>
<g id="a_edge7_Node000002_Node000008"><a xlink:title=" ">
<path fill="none" stroke="#63b8ff" d="M310.12,-109.99C331.69,-100.36 360.1,-87.67 381.06,-78.31"/>
<polygon fill="#63b8ff" stroke="#63b8ff" points="382.7,-81.41 390.4,-74.14 379.84,-75.02 382.7,-81.41"/>
</a>
</g>
</g>
<!-- Node8&#45;&gt;Node3 -->
<g id="edge8_Node000008_Node000003" class="edge">
<title>Node8&#45;&gt;Node3</title>
<g id="a_edge8_Node000008_Node000003"><a xlink:title=" ">
<path fill="none" stroke="#63b8ff" d="M386.93,-54.98C363.3,-46.16 326.17,-32.31 299.64,-22.4"/>
<polygon fill="#63b8ff" stroke="#63b8ff" points="300.63,-19.04 290.04,-18.82 298.18,-25.6 300.63,-19.04"/>
</a>
</g>
</g>
<!-- Node8&#45;&gt;Node9 -->
<g id="edge9_Node000008_Node000009" class="edge">
<title>Node8&#45;&gt;Node9</title>
<g id="a_edge9_Node000008_Node000009"><a xlink:title=" ">
<path fill="none" stroke="#63b8ff" d="M421.48,-54.98C432.48,-47 449.17,-34.88 462.35,-25.31"/>
<polygon fill="#63b8ff" stroke="#63b8ff" points="464.77,-27.88 470.81,-19.17 460.66,-22.21 464.77,-27.88"/>
</a>
</g>
</g>
<!-- Node10 -->
<g id="Node000010" class="node">
<title>Node10</title>
<g id="a_Node000010"><a xlink:title=" ">
<polygon fill="#e0e0e0" stroke="#999999" points="435.25,-19 384.25,-19 384.25,0 435.25,0 435.25,-19"/>
<text text-anchor="middle" x="409.75" y="-7" font-family="Helvetica,sans-Serif" font-size="10.00">variant</text>
</a>
</g>
</g>
<!-- Node8&#45;&gt;Node10 -->
<g id="edge10_Node000008_Node000010" class="edge">
<title>Node8&#45;&gt;Node10</title>
<g id="a_edge10_Node000008_Node000010"><a xlink:title=" ">
<path fill="none" stroke="#63b8ff" d="M409.75,-54.75C409.75,-47.8 409.75,-37.85 409.75,-29.13"/>
<polygon fill="#63b8ff" stroke="#63b8ff" points="413.25,-29.09 409.75,-19.09 406.25,-29.09 413.25,-29.09"/>
</a>
</g>
</g>
</g>
</svg>
