<?xml version="1.0" encoding="UTF-8" standalone="no"?>
<!DOCTYPE svg PUBLIC "-//W3C//DTD SVG 1.1//EN"
 "http://www.w3.org/Graphics/SVG/1.1/DTD/svg11.dtd">
<!-- Generated by graphviz version 2.43.0 (0)
 -->
<!-- Title: health_check_system.h Pages: 1 -->
<svg width="732pt" height="203pt"
 viewBox="0.00 0.00 731.50 203.00" xmlns="http://www.w3.org/2000/svg" xmlns:xlink="http://www.w3.org/1999/xlink">
<g id="graph0" class="graph" transform="scale(1 1) rotate(0) translate(4 199)">
<title>health_check_system.h</title>
<!-- Node1 -->
<g id="Node000001" class="node">
<title>Node1</title>
<g id="a_Node000001"><a xlink:title=" ">
<polygon fill="#999999" stroke="#666666" points="468.5,-195 337.5,-195 337.5,-176 468.5,-176 468.5,-195"/>
<text text-anchor="middle" x="403" y="-183" font-family="Helvetica,sans-Serif" font-size="10.00">health_check_system.h</text>
</a>
</g>
</g>
<!-- Node2 -->
<g id="Node000002" class="node">
<title>Node2</title>
<g id="a_Node000002"><a xlink:href="monitoring__interface_8h.html" target="_top" xlink:title="Abstract interface for monitoring and metrics collection.">
<polygon fill="white" stroke="#666666" points="317.5,-140 182.5,-140 182.5,-110 317.5,-110 317.5,-140"/>
<text text-anchor="start" x="190.5" y="-128" font-family="Helvetica,sans-Serif" font-size="10.00">../monitoring/monitoring</text>
<text text-anchor="middle" x="250" y="-117" font-family="Helvetica,sans-Serif" font-size="10.00">_interface.h</text>
</a>
</g>
</g>
<!-- Node1&#45;&gt;Node2 -->
<g id="edge1_Node000001_Node000002" class="edge">
<title>Node1&#45;&gt;Node2</title>
<g id="a_edge1_Node000001_Node000002"><a xlink:title=" ">
<path fill="none" stroke="#63b8ff" d="M380.75,-175.99C358.73,-167.57 324.36,-154.43 296.38,-143.73"/>
<polygon fill="#63b8ff" stroke="#63b8ff" points="297.37,-140.37 286.78,-140.06 294.87,-146.9 297.37,-140.37"/>
</a>
</g>
</g>
<!-- Node4 -->
<g id="Node000004" class="node">
<title>Node4</title>
<g id="a_Node000004"><a xlink:title=" ">
<polygon fill="#e0e0e0" stroke="#999999" points="221.5,-74 128.5,-74 128.5,-55 221.5,-55 221.5,-74"/>
<text text-anchor="middle" x="175" y="-62" font-family="Helvetica,sans-Serif" font-size="10.00">unordered_map</text>
</a>
</g>
</g>
<!-- Node1&#45;&gt;Node4 -->
<g id="edge14_Node000001_Node000004" class="edge">
<title>Node1&#45;&gt;Node4</title>
<g id="a_edge14_Node000001_Node000004"><a xlink:title=" ">
<path fill="none" stroke="#63b8ff" d="M337.25,-180.87C276.79,-176 193.51,-164.86 173,-140 160.17,-124.44 163.7,-100.22 168.43,-83.64"/>
<polygon fill="#63b8ff" stroke="#63b8ff" points="171.79,-84.61 171.55,-74.02 165.14,-82.45 171.79,-84.61"/>
</a>
</g>
</g>
<!-- Node5 -->
<g id="Node000005" class="node">
<title>Node5</title>
<g id="a_Node000005"><a xlink:title=" ">
<polygon fill="#e0e0e0" stroke="#999999" points="325.5,-74 278.5,-74 278.5,-55 325.5,-55 325.5,-74"/>
<text text-anchor="middle" x="302" y="-62" font-family="Helvetica,sans-Serif" font-size="10.00">vector</text>
</a>
</g>
</g>
<!-- Node1&#45;&gt;Node5 -->
<g id="edge13_Node000001_Node000005" class="edge">
<title>Node1&#45;&gt;Node5</title>
<g id="a_edge13_Node000001_Node000005"><a xlink:title=" ">
<path fill="none" stroke="#63b8ff" d="M395.74,-175.94C379.07,-156.31 337.87,-107.76 316.06,-82.07"/>
<polygon fill="#63b8ff" stroke="#63b8ff" points="318.61,-79.66 309.47,-74.3 313.27,-84.19 318.61,-79.66"/>
</a>
</g>
</g>
<!-- Node6 -->
<g id="Node000006" class="node">
<title>Node6</title>
<g id="a_Node000006"><a xlink:title=" ">
<polygon fill="#e0e0e0" stroke="#999999" points="394,-74 344,-74 344,-55 394,-55 394,-74"/>
<text text-anchor="middle" x="369" y="-62" font-family="Helvetica,sans-Serif" font-size="10.00">chrono</text>
</a>
</g>
</g>
<!-- Node1&#45;&gt;Node6 -->
<g id="edge19_Node000001_Node000006" class="edge">
<title>Node1&#45;&gt;Node6</title>
<g id="a_edge19_Node000001_Node000006"><a xlink:title=" ">
<path fill="none" stroke="#63b8ff" d="M400.55,-175.94C395.09,-156.82 381.79,-110.27 374.32,-84.12"/>
<polygon fill="#63b8ff" stroke="#63b8ff" points="377.63,-82.96 371.51,-74.3 370.9,-84.88 377.63,-82.96"/>
</a>
</g>
</g>
<!-- Node7 -->
<g id="Node000007" class="node">
<title>Node7</title>
<g id="a_Node000007"><a xlink:title=" ">
<polygon fill="#e0e0e0" stroke="#999999" points="462,-74 412,-74 412,-55 462,-55 462,-74"/>
<text text-anchor="middle" x="437" y="-62" font-family="Helvetica,sans-Serif" font-size="10.00">atomic</text>
</a>
</g>
</g>
<!-- Node1&#45;&gt;Node7 -->
<g id="edge16_Node000001_Node000007" class="edge">
<title>Node1&#45;&gt;Node7</title>
<g id="a_edge16_Node000001_Node000007"><a xlink:title=" ">
<path fill="none" stroke="#63b8ff" d="M405.45,-175.94C410.91,-156.82 424.21,-110.27 431.68,-84.12"/>
<polygon fill="#63b8ff" stroke="#63b8ff" points="435.1,-84.88 434.49,-74.3 428.37,-82.96 435.1,-84.88"/>
</a>
</g>
</g>
<!-- Node8 -->
<g id="Node000008" class="node">
<title>Node8</title>
<g id="a_Node000008"><a xlink:href="error__codes_8h.html" target="_top" xlink:title=" ">
<polygon fill="white" stroke="#666666" points="110,-74 18,-74 18,-55 110,-55 110,-74"/>
<text text-anchor="middle" x="64" y="-62" font-family="Helvetica,sans-Serif" font-size="10.00">../error_codes.h</text>
</a>
</g>
</g>
<!-- Node1&#45;&gt;Node8 -->
<g id="edge11_Node000001_Node000008" class="edge">
<title>Node1&#45;&gt;Node8</title>
<g id="a_edge11_Node000001_Node000008"><a xlink:title=" ">
<path fill="none" stroke="#63b8ff" d="M337.37,-180.8C287.24,-176.03 217.4,-165.08 161,-140 128.7,-125.64 97.38,-98.44 79.43,-81.18"/>
<polygon fill="#63b8ff" stroke="#63b8ff" points="81.75,-78.56 72.17,-74.03 76.84,-83.54 81.75,-78.56"/>
</a>
</g>
</g>
<!-- Node11 -->
<g id="Node000011" class="node">
<title>Node11</title>
<g id="a_Node000011"><a xlink:title=" ">
<polygon fill="#e0e0e0" stroke="#999999" points="508,-134.5 450,-134.5 450,-115.5 508,-115.5 508,-134.5"/>
<text text-anchor="middle" x="479" y="-122.5" font-family="Helvetica,sans-Serif" font-size="10.00">memory</text>
</a>
</g>
</g>
<!-- Node1&#45;&gt;Node11 -->
<g id="edge12_Node000001_Node000011" class="edge">
<title>Node1&#45;&gt;Node11</title>
<g id="a_edge12_Node000001_Node000011"><a xlink:title=" ">
<path fill="none" stroke="#63b8ff" d="M414.21,-175.87C426.11,-166.71 445.14,-152.06 459.51,-141.01"/>
<polygon fill="#63b8ff" stroke="#63b8ff" points="461.95,-143.54 467.74,-134.67 457.68,-137.99 461.95,-143.54"/>
</a>
</g>
</g>
<!-- Node12 -->
<g id="Node000012" class="node">
<title>Node12</title>
<g id="a_Node000012"><a xlink:title=" ">
<polygon fill="#e0e0e0" stroke="#999999" points="574,-134.5 526,-134.5 526,-115.5 574,-115.5 574,-134.5"/>
<text text-anchor="middle" x="550" y="-122.5" font-family="Helvetica,sans-Serif" font-size="10.00">thread</text>
</a>
</g>
</g>
<!-- Node1&#45;&gt;Node12 -->
<g id="edge15_Node000001_Node000012" class="edge">
<title>Node1&#45;&gt;Node12</title>
<g id="a_edge15_Node000001_Node000012"><a xlink:title=" ">
<path fill="none" stroke="#63b8ff" d="M425.36,-175.99C448.4,-167.18 485.32,-152.9 517,-140 518.2,-139.51 519.42,-139.01 520.66,-138.5"/>
<polygon fill="#63b8ff" stroke="#63b8ff" points="522.27,-141.62 530.15,-134.53 519.57,-135.16 522.27,-141.62"/>
</a>
</g>
</g>
<!-- Node13 -->
<g id="Node000013" class="node">
<title>Node13</title>
<g id="a_Node000013"><a xlink:title=" ">
<polygon fill="#e0e0e0" stroke="#999999" points="640,-134.5 592,-134.5 592,-115.5 640,-115.5 640,-134.5"/>
<text text-anchor="middle" x="616" y="-122.5" font-family="Helvetica,sans-Serif" font-size="10.00">mutex</text>
</a>
</g>
</g>
<!-- Node1&#45;&gt;Node13 -->
<g id="edge17_Node000001_Node000013" class="edge">
<title>Node1&#45;&gt;Node13</title>
<g id="a_edge17_Node000001_Node000013"><a xlink:title=" ">
<path fill="none" stroke="#63b8ff" d="M445.73,-175.94C482.55,-168.09 536.89,-155.37 583,-140 584.62,-139.46 586.28,-138.87 587.94,-138.26"/>
<polygon fill="#63b8ff" stroke="#63b8ff" points="589.35,-141.46 597.35,-134.52 586.77,-134.96 589.35,-141.46"/>
</a>
</g>
</g>
<!-- Node14 -->
<g id="Node000014" class="node">
<title>Node14</title>
<g id="a_Node000014"><a xlink:title=" ">
<polygon fill="#e0e0e0" stroke="#999999" points="723.5,-134.5 658.5,-134.5 658.5,-115.5 723.5,-115.5 723.5,-134.5"/>
<text text-anchor="middle" x="691" y="-122.5" font-family="Helvetica,sans-Serif" font-size="10.00">functional</text>
</a>
</g>
</g>
<!-- Node1&#45;&gt;Node14 -->
<g id="edge18_Node000001_Node000014" class="edge">
<title>Node1&#45;&gt;Node14</title>
<g id="a_edge18_Node000001_Node000014"><a xlink:title=" ">
<path fill="none" stroke="#63b8ff" d="M463.67,-176C513.78,-168.38 586.56,-155.97 649,-140 651.79,-139.29 654.67,-138.48 657.54,-137.63"/>
<polygon fill="#63b8ff" stroke="#63b8ff" points="658.7,-140.93 667.19,-134.59 656.6,-134.25 658.7,-140.93"/>
</a>
</g>
</g>
<!-- Node3 -->
<g id="Node000003" class="node">
<title>Node3</title>
<g id="a_Node000003"><a xlink:title=" ">
<polygon fill="#e0e0e0" stroke="#999999" points="230,-19 186,-19 186,0 230,0 230,-19"/>
<text text-anchor="middle" x="208" y="-7" font-family="Helvetica,sans-Serif" font-size="10.00">string</text>
</a>
</g>
</g>
<!-- Node2&#45;&gt;Node3 -->
<g id="edge2_Node000002_Node000003" class="edge">
<title>Node2&#45;&gt;Node3</title>
<g id="a_edge2_Node000002_Node000003"><a xlink:title=" ">
<path fill="none" stroke="#63b8ff" d="M246.66,-109.75C243.16,-95.62 237.18,-73.48 230,-55 226.49,-45.96 221.81,-36.27 217.68,-28.25"/>
<polygon fill="#63b8ff" stroke="#63b8ff" points="220.63,-26.35 212.85,-19.16 214.45,-29.63 220.63,-26.35"/>
</a>
</g>
</g>
<!-- Node2&#45;&gt;Node4 -->
<g id="edge3_Node000002_Node000004" class="edge">
<title>Node2&#45;&gt;Node4</title>
<g id="a_edge3_Node000002_Node000004"><a xlink:title=" ">
<path fill="none" stroke="#63b8ff" d="M231.84,-109.84C220.51,-101 205.94,-89.63 194.38,-80.62"/>
<polygon fill="#63b8ff" stroke="#63b8ff" points="196.28,-77.66 186.24,-74.27 191.97,-83.18 196.28,-77.66"/>
</a>
</g>
</g>
<!-- Node2&#45;&gt;Node5 -->
<g id="edge4_Node000002_Node000005" class="edge">
<title>Node2&#45;&gt;Node5</title>
<g id="a_edge4_Node000002_Node000005"><a xlink:title=" ">
<path fill="none" stroke="#63b8ff" d="M262.59,-109.84C270.06,-101.43 279.56,-90.74 287.37,-81.96"/>
<polygon fill="#63b8ff" stroke="#63b8ff" points="290.18,-84.07 294.21,-74.27 284.95,-79.41 290.18,-84.07"/>
</a>
</g>
</g>
<!-- Node2&#45;&gt;Node6 -->
<g id="edge5_Node000002_Node000006" class="edge">
<title>Node2&#45;&gt;Node6</title>
<g id="a_edge5_Node000002_Node000006"><a xlink:title=" ">
<path fill="none" stroke="#63b8ff" d="M278.5,-109.99C297.91,-100.45 323.43,-87.9 342.42,-78.57"/>
<polygon fill="#63b8ff" stroke="#63b8ff" points="344,-81.69 351.43,-74.14 340.91,-75.41 344,-81.69"/>
</a>
</g>
</g>
<!-- Node2&#45;&gt;Node7 -->
<g id="edge6_Node000002_Node000007" class="edge">
<title>Node2&#45;&gt;Node7</title>
<g id="a_edge6_Node000002_Node000007"><a xlink:title=" ">
<path fill="none" stroke="#63b8ff" d="M294.79,-109.99C327.7,-99.69 371.78,-85.9 402.09,-76.42"/>
<polygon fill="#63b8ff" stroke="#63b8ff" points="403.31,-79.71 411.81,-73.38 401.22,-73.03 403.31,-79.71"/>
</a>
</g>
</g>
<!-- Node2&#45;&gt;Node8 -->
<g id="edge7_Node000002_Node000008" class="edge">
<title>Node2&#45;&gt;Node8</title>
<g id="a_edge7_Node000002_Node000008"><a xlink:title=" ">
<path fill="none" stroke="#63b8ff" d="M205.45,-109.99C173.49,-99.94 130.94,-86.55 100.88,-77.1"/>
<polygon fill="#63b8ff" stroke="#63b8ff" points="101.79,-73.72 91.2,-74.05 99.69,-80.39 101.79,-73.72"/>
</a>
</g>
</g>
<!-- Node8&#45;&gt;Node3 -->
<g id="edge8_Node000008_Node000003" class="edge">
<title>Node8&#45;&gt;Node3</title>
<g id="a_edge8_Node000008_Node000003"><a xlink:title=" ">
<path fill="none" stroke="#63b8ff" d="M87.14,-54.98C111.25,-46.11 149.2,-32.14 176.13,-22.23"/>
<polygon fill="#63b8ff" stroke="#63b8ff" points="177.69,-25.38 185.87,-18.65 175.27,-18.82 177.69,-25.38"/>
</a>
</g>
</g>
<!-- Node9 -->
<g id="Node000009" class="node">
<title>Node9</title>
<g id="a_Node000009"><a xlink:title=" ">
<polygon fill="#e0e0e0" stroke="#999999" points="56,-19 0,-19 0,0 56,0 56,-19"/>
<text text-anchor="middle" x="28" y="-7" font-family="Helvetica,sans-Serif" font-size="10.00">optional</text>
</a>
</g>
</g>
<!-- Node8&#45;&gt;Node9 -->
<g id="edge9_Node000008_Node000009" class="edge">
<title>Node8&#45;&gt;Node9</title>
<g id="a_edge9_Node000008_Node000009"><a xlink:title=" ">
<path fill="none" stroke="#63b8ff" d="M58.06,-54.75C53.02,-47.34 45.66,-36.5 39.49,-27.41"/>
<polygon fill="#63b8ff" stroke="#63b8ff" points="42.35,-25.39 33.83,-19.09 36.56,-29.33 42.35,-25.39"/>
</a>
</g>
</g>
<!-- Node10 -->
<g id="Node000010" class="node">
<title>Node10</title>
<g id="a_Node000010"><a xlink:title=" ">
<polygon fill="#e0e0e0" stroke="#999999" points="125.5,-19 74.5,-19 74.5,0 125.5,0 125.5,-19"/>
<text text-anchor="middle" x="100" y="-7" font-family="Helvetica,sans-Serif" font-size="10.00">variant</text>
</a>
</g>
</g>
<!-- Node8&#45;&gt;Node10 -->
<g id="edge10_Node000008_Node000010" class="edge">
<title>Node8&#45;&gt;Node10</title>
<g id="a_edge10_Node000008_Node000010"><a xlink:title=" ">
<path fill="none" stroke="#63b8ff" d="M69.94,-54.75C74.98,-47.34 82.34,-36.5 88.51,-27.41"/>
<polygon fill="#63b8ff" stroke="#63b8ff" points="91.44,-29.33 94.17,-19.09 85.65,-25.39 91.44,-29.33"/>
</a>
</g>
</g>
</g>
</svg>
