<?xml version="1.0" encoding="UTF-8" standalone="no"?>
<!DOCTYPE svg PUBLIC "-//W3C//DTD SVG 1.1//EN"
 "http://www.w3.org/Graphics/SVG/1.1/DTD/svg11.dtd">
<!-- Generated by graphviz version 2.43.0 (0)
 -->
<!-- Title: /home/runner/work/logger_system/logger_system/sources/logger/health/health_check_system.cpp Pages: 1 -->
<svg width="1640pt" height="302pt"
 viewBox="0.00 0.00 1639.90 302.00" xmlns="http://www.w3.org/2000/svg" xmlns:xlink="http://www.w3.org/1999/xlink">
<g id="graph0" class="graph" transform="scale(1 1) rotate(0) translate(4 298)">
<title>/home/runner/work/logger_system/logger_system/sources/logger/health/health_check_system.cpp</title>
<!-- Node1 -->
<g id="Node000001" class="node">
<title>Node1</title>
<g id="a_Node000001"><a xlink:title=" ">
<polygon fill="#999999" stroke="#666666" points="1434.9,-294 1261.9,-294 1261.9,-242 1434.9,-242 1434.9,-294"/>
<text text-anchor="start" x="1269.9" y="-282" font-family="Helvetica,sans-Serif" font-size="10.00">/home/runner/work/logger</text>
<text text-anchor="start" x="1269.9" y="-271" font-family="Helvetica,sans-Serif" font-size="10.00">_system/logger_system/sources</text>
<text text-anchor="start" x="1269.9" y="-260" font-family="Helvetica,sans-Serif" font-size="10.00">/logger/health/health_check</text>
<text text-anchor="middle" x="1348.4" y="-249" font-family="Helvetica,sans-Serif" font-size="10.00">_system.cpp</text>
</a>
</g>
</g>
<!-- Node2 -->
<g id="Node000002" class="node">
<title>Node2</title>
<g id="a_Node000002"><a xlink:href="health__check__system_8h.html" target="_top" xlink:title=" ">
<polygon fill="white" stroke="#666666" points="543.9,-206 412.9,-206 412.9,-187 543.9,-187 543.9,-206"/>
<text text-anchor="middle" x="478.4" y="-194" font-family="Helvetica,sans-Serif" font-size="10.00">health_check_system.h</text>
</a>
</g>
</g>
<!-- Node1&#45;&gt;Node2 -->
<g id="edge1_Node000001_Node000002" class="edge">
<title>Node1&#45;&gt;Node2</title>
<g id="a_edge1_Node000001_Node000002"><a xlink:title=" ">
<path fill="none" stroke="#63b8ff" d="M1261.8,-260.08C1091.47,-246.48 715.48,-216.44 554.24,-203.56"/>
<polygon fill="#63b8ff" stroke="#63b8ff" points="554.18,-200.04 543.94,-202.74 553.63,-207.02 554.18,-200.04"/>
</a>
</g>
</g>
<!-- Node18 -->
<g id="Node000018" class="node">
<title>Node18</title>
<g id="a_Node000018"><a xlink:href="base__writer_8h.html" target="_top" xlink:title="Abstract base class for all log output writers.">
<polygon fill="white" stroke="#666666" points="1048.4,-206 920.4,-206 920.4,-187 1048.4,-187 1048.4,-206"/>
<text text-anchor="middle" x="984.4" y="-194" font-family="Helvetica,sans-Serif" font-size="10.00">../writers/base_writer.h</text>
</a>
</g>
</g>
<!-- Node1&#45;&gt;Node18 -->
<g id="edge24_Node000001_Node000018" class="edge">
<title>Node1&#45;&gt;Node18</title>
<g id="a_edge24_Node000001_Node000018"><a xlink:title=" ">
<path fill="none" stroke="#63b8ff" d="M1261.68,-250.44C1192.5,-237.23 1097.75,-219.14 1038.85,-207.9"/>
<polygon fill="#63b8ff" stroke="#63b8ff" points="1039.48,-204.45 1029,-206.01 1038.16,-211.33 1039.48,-204.45"/>
</a>
</g>
</g>
<!-- Node25 -->
<g id="Node000025" class="node">
<title>Node25</title>
<g id="a_Node000025"><a xlink:title=" ">
<polygon fill="#e0e0e0" stroke="#999999" points="1376.4,-24.5 1312.4,-24.5 1312.4,-5.5 1376.4,-5.5 1376.4,-24.5"/>
<text text-anchor="middle" x="1344.4" y="-12.5" font-family="Helvetica,sans-Serif" font-size="10.00">algorithm</text>
</a>
</g>
</g>
<!-- Node1&#45;&gt;Node25 -->
<g id="edge53_Node000001_Node000025" class="edge">
<title>Node1&#45;&gt;Node25</title>
<g id="a_edge53_Node000001_Node000025"><a xlink:title=" ">
<path fill="none" stroke="#63b8ff" d="M1347.99,-241.55C1347.19,-191.1 1345.41,-79.45 1344.7,-34.9"/>
<polygon fill="#63b8ff" stroke="#63b8ff" points="1348.2,-34.82 1344.54,-24.87 1341.2,-34.93 1348.2,-34.82"/>
</a>
</g>
</g>
<!-- Node26 -->
<g id="Node000026" class="node">
<title>Node26</title>
<g id="a_Node000026"><a xlink:href="log__collector_8h.html" target="_top" xlink:title=" ">
<polygon fill="white" stroke="#666666" points="205.4,-145.5 85.4,-145.5 85.4,-126.5 205.4,-126.5 205.4,-145.5"/>
<text text-anchor="middle" x="145.4" y="-133.5" font-family="Helvetica,sans-Serif" font-size="10.00">../core/log_collector.h</text>
</a>
</g>
</g>
<!-- Node1&#45;&gt;Node26 -->
<g id="edge45_Node000001_Node000026" class="edge">
<title>Node1&#45;&gt;Node26</title>
<g id="a_edge45_Node000001_Node000026"><a xlink:title=" ">
<path fill="none" stroke="#63b8ff" d="M1261.76,-267.08C1094.62,-266 716.5,-257.46 403.4,-206 322.07,-192.63 229.3,-164.56 180.18,-148.65"/>
<polygon fill="#63b8ff" stroke="#63b8ff" points="181.26,-145.32 170.67,-145.55 179.09,-151.98 181.26,-145.32"/>
</a>
</g>
</g>
<!-- Node27 -->
<g id="Node000027" class="node">
<title>Node27</title>
<g id="a_Node000027"><a xlink:title=" ">
<polygon fill="#e0e0e0" stroke="#999999" points="1432.4,-206 1376.4,-206 1376.4,-187 1432.4,-187 1432.4,-206"/>
<text text-anchor="middle" x="1404.4" y="-194" font-family="Helvetica,sans-Serif" font-size="10.00">sstream</text>
</a>
</g>
</g>
<!-- Node1&#45;&gt;Node27 -->
<g id="edge52_Node000001_Node000027" class="edge">
<title>Node1&#45;&gt;Node27</title>
<g id="a_edge52_Node000001_Node000027"><a xlink:title=" ">
<path fill="none" stroke="#63b8ff" d="M1368.62,-241.91C1376.06,-232.67 1384.29,-222.45 1390.99,-214.14"/>
<polygon fill="#63b8ff" stroke="#63b8ff" points="1393.76,-216.29 1397.31,-206.3 1388.31,-211.89 1393.76,-216.29"/>
</a>
</g>
</g>
<!-- Node28 -->
<g id="Node000028" class="node">
<title>Node28</title>
<g id="a_Node000028"><a xlink:title=" ">
<polygon fill="#e0e0e0" stroke="#999999" points="1506.4,-206 1450.4,-206 1450.4,-187 1506.4,-187 1506.4,-206"/>
<text text-anchor="middle" x="1478.4" y="-194" font-family="Helvetica,sans-Serif" font-size="10.00">iomanip</text>
</a>
</g>
</g>
<!-- Node1&#45;&gt;Node28 -->
<g id="edge54_Node000001_Node000028" class="edge">
<title>Node1&#45;&gt;Node28</title>
<g id="a_edge54_Node000001_Node000028"><a xlink:title=" ">
<path fill="none" stroke="#63b8ff" d="M1395.33,-241.91C1414.91,-231.44 1436.86,-219.71 1453.28,-210.93"/>
<polygon fill="#63b8ff" stroke="#63b8ff" points="1455.08,-213.94 1462.25,-206.14 1451.78,-207.76 1455.08,-213.94"/>
</a>
</g>
</g>
<!-- Node29 -->
<g id="Node000029" class="node">
<title>Node29</title>
<g id="a_Node000029"><a xlink:title=" ">
<polygon fill="#e0e0e0" stroke="#999999" points="1631.9,-206 1524.9,-206 1524.9,-187 1631.9,-187 1631.9,-206"/>
<text text-anchor="middle" x="1578.4" y="-194" font-family="Helvetica,sans-Serif" font-size="10.00">condition_variable</text>
</a>
</g>
</g>
<!-- Node1&#45;&gt;Node29 -->
<g id="edge55_Node000001_Node000029" class="edge">
<title>Node1&#45;&gt;Node29</title>
<g id="a_edge55_Node000001_Node000029"><a xlink:title=" ">
<path fill="none" stroke="#63b8ff" d="M1431.43,-241.91C1468.61,-230.67 1510.63,-217.98 1540.19,-209.05"/>
<polygon fill="#63b8ff" stroke="#63b8ff" points="1541.54,-212.3 1550.1,-206.05 1539.51,-205.59 1541.54,-212.3"/>
</a>
</g>
</g>
<!-- Node3 -->
<g id="Node000003" class="node">
<title>Node3</title>
<g id="a_Node000003"><a xlink:href="monitoring__interface_8h.html" target="_top" xlink:title="Abstract interface for monitoring and metrics collection.">
<polygon fill="white" stroke="#666666" points="545.9,-151 410.9,-151 410.9,-121 545.9,-121 545.9,-151"/>
<text text-anchor="start" x="418.9" y="-139" font-family="Helvetica,sans-Serif" font-size="10.00">../monitoring/monitoring</text>
<text text-anchor="middle" x="478.4" y="-128" font-family="Helvetica,sans-Serif" font-size="10.00">_interface.h</text>
</a>
</g>
</g>
<!-- Node2&#45;&gt;Node3 -->
<g id="edge2_Node000002_Node000003" class="edge">
<title>Node2&#45;&gt;Node3</title>
<g id="a_edge2_Node000002_Node000003"><a xlink:title=" ">
<path fill="none" stroke="#63b8ff" d="M478.4,-186.87C478.4,-180.11 478.4,-170.35 478.4,-161.26"/>
<polygon fill="#63b8ff" stroke="#63b8ff" points="481.9,-161.11 478.4,-151.11 474.9,-161.11 481.9,-161.11"/>
</a>
</g>
</g>
<!-- Node4 -->
<g id="Node000004" class="node">
<title>Node4</title>
<g id="a_Node000004"><a xlink:title=" ">
<polygon fill="#e0e0e0" stroke="#999999" points="868.4,-24.5 824.4,-24.5 824.4,-5.5 868.4,-5.5 868.4,-24.5"/>
<text text-anchor="middle" x="846.4" y="-12.5" font-family="Helvetica,sans-Serif" font-size="10.00">string</text>
</a>
</g>
</g>
<!-- Node2&#45;&gt;Node4 -->
<g id="edge23_Node000002_Node000004" class="edge">
<title>Node2&#45;&gt;Node4</title>
<g id="a_edge23_Node000002_Node000004"><a xlink:title=" ">
<path fill="none" stroke="#63b8ff" d="M543.9,-193.12C654.09,-188.43 866.78,-176.2 889.4,-151 898.31,-141.08 893.14,-133.8 889.4,-121 884.07,-102.78 874.23,-102.3 866.4,-85 859.01,-68.68 853.62,-48.96 850.31,-34.79"/>
<polygon fill="#63b8ff" stroke="#63b8ff" points="853.67,-33.79 848.1,-24.78 846.84,-35.3 853.67,-33.79"/>
</a>
</g>
</g>
<!-- Node5 -->
<g id="Node000005" class="node">
<title>Node5</title>
<g id="a_Node000005"><a xlink:title=" ">
<polygon fill="#e0e0e0" stroke="#999999" points="600.9,-85 507.9,-85 507.9,-66 600.9,-66 600.9,-85"/>
<text text-anchor="middle" x="554.4" y="-73" font-family="Helvetica,sans-Serif" font-size="10.00">unordered_map</text>
</a>
</g>
</g>
<!-- Node2&#45;&gt;Node5 -->
<g id="edge16_Node000002_Node000005" class="edge">
<title>Node2&#45;&gt;Node5</title>
<g id="a_edge16_Node000002_Node000005"><a xlink:title=" ">
<path fill="none" stroke="#63b8ff" d="M506.79,-186.92C523.86,-180.13 544.21,-168.77 554.4,-151 564.13,-134.02 562.36,-111.1 559.28,-95.18"/>
<polygon fill="#63b8ff" stroke="#63b8ff" points="562.6,-93.98 556.96,-85.01 555.78,-95.54 562.6,-93.98"/>
</a>
</g>
</g>
<!-- Node6 -->
<g id="Node000006" class="node">
<title>Node6</title>
<g id="a_Node000006"><a xlink:title=" ">
<polygon fill="#e0e0e0" stroke="#999999" points="182.9,-85 135.9,-85 135.9,-66 182.9,-66 182.9,-85"/>
<text text-anchor="middle" x="159.4" y="-73" font-family="Helvetica,sans-Serif" font-size="10.00">vector</text>
</a>
</g>
</g>
<!-- Node2&#45;&gt;Node6 -->
<g id="edge15_Node000002_Node000006" class="edge">
<title>Node2&#45;&gt;Node6</title>
<g id="a_edge15_Node000002_Node000006"><a xlink:title=" ">
<path fill="none" stroke="#63b8ff" d="M412.6,-192.93C304.35,-188.03 98.39,-175.55 76.4,-151 67.51,-141.07 69.55,-132.44 76.4,-121 87.17,-103.01 107.98,-91.87 126.07,-85.24"/>
<polygon fill="#63b8ff" stroke="#63b8ff" points="127.38,-88.5 135.75,-82.01 125.16,-81.86 127.38,-88.5"/>
</a>
</g>
</g>
<!-- Node7 -->
<g id="Node000007" class="node">
<title>Node7</title>
<g id="a_Node000007"><a xlink:title=" ">
<polygon fill="#e0e0e0" stroke="#999999" points="780.4,-85 730.4,-85 730.4,-66 780.4,-66 780.4,-85"/>
<text text-anchor="middle" x="755.4" y="-73" font-family="Helvetica,sans-Serif" font-size="10.00">chrono</text>
</a>
</g>
</g>
<!-- Node2&#45;&gt;Node7 -->
<g id="edge21_Node000002_Node000007" class="edge">
<title>Node2&#45;&gt;Node7</title>
<g id="a_edge21_Node000002_Node000007"><a xlink:title=" ">
<path fill="none" stroke="#63b8ff" d="M506.74,-186.93C533.15,-178.66 573.46,-165.32 607.4,-151 652.17,-132.11 702.29,-105.72 731.21,-89.94"/>
<polygon fill="#63b8ff" stroke="#63b8ff" points="733.08,-92.91 740.17,-85.03 729.72,-86.77 733.08,-92.91"/>
</a>
</g>
</g>
<!-- Node8 -->
<g id="Node000008" class="node">
<title>Node8</title>
<g id="a_Node000008"><a xlink:title=" ">
<polygon fill="#e0e0e0" stroke="#999999" points="258.4,-85 208.4,-85 208.4,-66 258.4,-66 258.4,-85"/>
<text text-anchor="middle" x="233.4" y="-73" font-family="Helvetica,sans-Serif" font-size="10.00">atomic</text>
</a>
</g>
</g>
<!-- Node2&#45;&gt;Node8 -->
<g id="edge18_Node000002_Node000008" class="edge">
<title>Node2&#45;&gt;Node8</title>
<g id="a_edge18_Node000002_Node000008"><a xlink:title=" ">
<path fill="none" stroke="#63b8ff" d="M412.82,-190.31C354.53,-184.35 275.13,-172.51 252.4,-151 237.43,-136.84 233.61,-112.66 232.93,-95.7"/>
<polygon fill="#63b8ff" stroke="#63b8ff" points="236.43,-95.3 232.86,-85.33 229.43,-95.35 236.43,-95.3"/>
</a>
</g>
</g>
<!-- Node9 -->
<g id="Node000009" class="node">
<title>Node9</title>
<g id="a_Node000009"><a xlink:href="error__codes_8h.html" target="_top" xlink:title=" ">
<polygon fill="white" stroke="#666666" points="712.4,-85 620.4,-85 620.4,-66 712.4,-66 712.4,-85"/>
<text text-anchor="middle" x="666.4" y="-73" font-family="Helvetica,sans-Serif" font-size="10.00">../error_codes.h</text>
</a>
</g>
</g>
<!-- Node2&#45;&gt;Node9 -->
<g id="edge13_Node000002_Node000009" class="edge">
<title>Node2&#45;&gt;Node9</title>
<g id="a_edge13_Node000002_Node000009"><a xlink:title=" ">
<path fill="none" stroke="#63b8ff" d="M500.03,-186.93C519.56,-178.8 548.78,-165.68 572.4,-151 600.97,-133.24 630.92,-108.22 649.13,-92.18"/>
<polygon fill="#63b8ff" stroke="#63b8ff" points="651.93,-94.37 657.06,-85.1 647.27,-89.15 651.93,-94.37"/>
</a>
</g>
</g>
<!-- Node13 -->
<g id="Node000013" class="node">
<title>Node13</title>
<g id="a_Node000013"><a xlink:title=" ">
<polygon fill="#e0e0e0" stroke="#999999" points="136.4,-24.5 78.4,-24.5 78.4,-5.5 136.4,-5.5 136.4,-24.5"/>
<text text-anchor="middle" x="107.4" y="-12.5" font-family="Helvetica,sans-Serif" font-size="10.00">memory</text>
</a>
</g>
</g>
<!-- Node2&#45;&gt;Node13 -->
<g id="edge14_Node000002_Node000013" class="edge">
<title>Node2&#45;&gt;Node13</title>
<g id="a_edge14_Node000002_Node000013"><a xlink:title=" ">
<path fill="none" stroke="#63b8ff" d="M412.81,-196.09C306.67,-195.85 103.21,-190.11 44.4,-151 10.24,-128.28 -13.1,-100.94 8.4,-66 21.52,-44.67 46.87,-32.1 68.63,-24.91"/>
<polygon fill="#63b8ff" stroke="#63b8ff" points="69.77,-28.22 78.32,-21.97 67.73,-21.52 69.77,-28.22"/>
</a>
</g>
</g>
<!-- Node14 -->
<g id="Node000014" class="node">
<title>Node14</title>
<g id="a_Node000014"><a xlink:title=" ">
<polygon fill="#e0e0e0" stroke="#999999" points="65.4,-85 17.4,-85 17.4,-66 65.4,-66 65.4,-85"/>
<text text-anchor="middle" x="41.4" y="-73" font-family="Helvetica,sans-Serif" font-size="10.00">thread</text>
</a>
</g>
</g>
<!-- Node2&#45;&gt;Node14 -->
<g id="edge17_Node000002_Node000014" class="edge">
<title>Node2&#45;&gt;Node14</title>
<g id="a_edge17_Node000002_Node000014"><a xlink:title=" ">
<path fill="none" stroke="#63b8ff" d="M412.83,-192.21C303.64,-186.19 93.84,-172.01 67.4,-151 50.51,-137.58 44.56,-112.47 42.48,-95.14"/>
<polygon fill="#63b8ff" stroke="#63b8ff" points="45.96,-94.73 41.6,-85.07 38.99,-95.34 45.96,-94.73"/>
</a>
</g>
</g>
<!-- Node15 -->
<g id="Node000015" class="node">
<title>Node15</title>
<g id="a_Node000015"><a xlink:title=" ">
<polygon fill="#e0e0e0" stroke="#999999" points="309.4,-145.5 261.4,-145.5 261.4,-126.5 309.4,-126.5 309.4,-145.5"/>
<text text-anchor="middle" x="285.4" y="-133.5" font-family="Helvetica,sans-Serif" font-size="10.00">mutex</text>
</a>
</g>
</g>
<!-- Node2&#45;&gt;Node15 -->
<g id="edge19_Node000002_Node000015" class="edge">
<title>Node2&#45;&gt;Node15</title>
<g id="a_edge19_Node000002_Node000015"><a xlink:title=" ">
<path fill="none" stroke="#63b8ff" d="M442.72,-186.99C410.02,-178.86 360.45,-165.7 318.4,-151 316.97,-150.5 315.51,-149.97 314.04,-149.41"/>
<polygon fill="#63b8ff" stroke="#63b8ff" points="315.01,-146.03 304.43,-145.57 312.42,-152.53 315.01,-146.03"/>
</a>
</g>
</g>
<!-- Node16 -->
<g id="Node000016" class="node">
<title>Node16</title>
<g id="a_Node000016"><a xlink:title=" ">
<polygon fill="#e0e0e0" stroke="#999999" points="392.9,-145.5 327.9,-145.5 327.9,-126.5 392.9,-126.5 392.9,-145.5"/>
<text text-anchor="middle" x="360.4" y="-133.5" font-family="Helvetica,sans-Serif" font-size="10.00">functional</text>
</a>
</g>
</g>
<!-- Node2&#45;&gt;Node16 -->
<g id="edge20_Node000002_Node000016" class="edge">
<title>Node2&#45;&gt;Node16</title>
<g id="a_edge20_Node000002_Node000016"><a xlink:title=" ">
<path fill="none" stroke="#63b8ff" d="M461.24,-186.99C441.67,-177.29 409.43,-161.31 386.68,-150.03"/>
<polygon fill="#63b8ff" stroke="#63b8ff" points="388.09,-146.82 377.58,-145.52 384.98,-153.09 388.09,-146.82"/>
</a>
</g>
</g>
<!-- Node17 -->
<g id="Node000017" class="node">
<title>Node17</title>
<g id="a_Node000017"><a xlink:title=" ">
<polygon fill="#e0e0e0" stroke="#999999" points="1106.4,-85 1050.4,-85 1050.4,-66 1106.4,-66 1106.4,-85"/>
<text text-anchor="middle" x="1078.4" y="-73" font-family="Helvetica,sans-Serif" font-size="10.00">optional</text>
</a>
</g>
</g>
<!-- Node2&#45;&gt;Node17 -->
<g id="edge22_Node000002_Node000017" class="edge">
<title>Node2&#45;&gt;Node17</title>
<g id="a_edge22_Node000002_Node000017"><a xlink:title=" ">
<path fill="none" stroke="#63b8ff" d="M544.03,-195.93C631.84,-194.92 791.65,-187.57 922.4,-151 972.48,-136.99 1026.22,-107.82 1055.73,-90.43"/>
<polygon fill="#63b8ff" stroke="#63b8ff" points="1057.64,-93.37 1064.43,-85.23 1054.05,-87.36 1057.64,-93.37"/>
</a>
</g>
</g>
<!-- Node3&#45;&gt;Node4 -->
<g id="edge3_Node000003_Node000004" class="edge">
<title>Node3&#45;&gt;Node4</title>
<g id="a_edge3_Node000003_Node000004"><a xlink:title=" ">
<path fill="none" stroke="#63b8ff" d="M478.25,-120.72C478.93,-104.83 482.64,-79.61 498.4,-66 543.04,-27.44 703.07,-38.79 761.4,-30 778.87,-27.37 798.31,-24.18 814.19,-21.52"/>
<polygon fill="#63b8ff" stroke="#63b8ff" points="814.78,-24.97 824.06,-19.85 813.61,-18.07 814.78,-24.97"/>
</a>
</g>
</g>
<!-- Node3&#45;&gt;Node5 -->
<g id="edge4_Node000003_Node000005" class="edge">
<title>Node3&#45;&gt;Node5</title>
<g id="a_edge4_Node000003_Node000005"><a xlink:title=" ">
<path fill="none" stroke="#63b8ff" d="M496.8,-120.84C508.28,-112 523.05,-100.63 534.76,-91.62"/>
<polygon fill="#63b8ff" stroke="#63b8ff" points="537.22,-94.14 543.01,-85.27 532.95,-88.59 537.22,-94.14"/>
</a>
</g>
</g>
<!-- Node3&#45;&gt;Node6 -->
<g id="edge5_Node000003_Node000006" class="edge">
<title>Node3&#45;&gt;Node6</title>
<g id="a_edge5_Node000003_Node000006"><a xlink:title=" ">
<path fill="none" stroke="#63b8ff" d="M410.8,-122.69C407.62,-122.12 404.48,-121.55 401.4,-121 311.65,-104.84 288.9,-102.48 199.4,-85 197.33,-84.6 195.2,-84.17 193.06,-83.74"/>
<polygon fill="#63b8ff" stroke="#63b8ff" points="193.56,-80.27 183.06,-81.66 192.14,-87.12 193.56,-80.27"/>
</a>
</g>
</g>
<!-- Node3&#45;&gt;Node7 -->
<g id="edge6_Node000003_Node000007" class="edge">
<title>Node3&#45;&gt;Node7</title>
<g id="a_edge6_Node000003_Node000007"><a xlink:title=" ">
<path fill="none" stroke="#63b8ff" d="M546.13,-121.86C592.58,-112.66 655.85,-99.77 720.25,-85.19"/>
<polygon fill="#63b8ff" stroke="#63b8ff" points="721.2,-88.56 730.18,-82.93 719.65,-81.74 721.2,-88.56"/>
</a>
</g>
</g>
<!-- Node3&#45;&gt;Node8 -->
<g id="edge7_Node000003_Node000008" class="edge">
<title>Node3&#45;&gt;Node8</title>
<g id="a_edge7_Node000003_Node000008"><a xlink:title=" ">
<path fill="none" stroke="#63b8ff" d="M419.72,-120.99C372.54,-109.72 307.85,-94.28 268.43,-84.86"/>
<polygon fill="#63b8ff" stroke="#63b8ff" points="269.04,-81.41 258.5,-82.49 267.41,-88.22 269.04,-81.41"/>
</a>
</g>
</g>
<!-- Node3&#45;&gt;Node9 -->
<g id="edge8_Node000003_Node000009" class="edge">
<title>Node3&#45;&gt;Node9</title>
<g id="a_edge8_Node000003_Node000009"><a xlink:title=" ">
<path fill="none" stroke="#63b8ff" d="M523.43,-120.99C555.73,-110.94 598.74,-97.55 629.13,-88.1"/>
<polygon fill="#63b8ff" stroke="#63b8ff" points="630.4,-91.37 638.91,-85.05 628.32,-84.68 630.4,-91.37"/>
</a>
</g>
</g>
<!-- Node9&#45;&gt;Node4 -->
<g id="edge9_Node000009_Node000004" class="edge">
<title>Node9&#45;&gt;Node4</title>
<g id="a_edge9_Node000009_Node000004"><a xlink:title=" ">
<path fill="none" stroke="#63b8ff" d="M692.57,-65.99C724.88,-55.5 779.78,-37.65 814.51,-26.36"/>
<polygon fill="#63b8ff" stroke="#63b8ff" points="815.74,-29.65 824.17,-23.23 813.58,-22.99 815.74,-29.65"/>
</a>
</g>
</g>
<!-- Node10 -->
<g id="Node000010" class="node">
<title>Node10</title>
<g id="a_Node000010"><a xlink:title=" ">
<polygon fill="#e0e0e0" stroke="#999999" points="751.9,-24.5 686.9,-24.5 686.9,-5.5 751.9,-5.5 751.9,-24.5"/>
<text text-anchor="middle" x="719.4" y="-12.5" font-family="Helvetica,sans-Serif" font-size="10.00">stdexcept</text>
</a>
</g>
</g>
<!-- Node9&#45;&gt;Node10 -->
<g id="edge10_Node000009_Node000010" class="edge">
<title>Node9&#45;&gt;Node10</title>
<g id="a_edge10_Node000009_Node000010"><a xlink:title=" ">
<path fill="none" stroke="#63b8ff" d="M674.22,-65.87C682.21,-57.05 694.79,-43.16 704.66,-32.27"/>
<polygon fill="#63b8ff" stroke="#63b8ff" points="707.43,-34.43 711.55,-24.67 702.24,-29.73 707.43,-34.43"/>
</a>
</g>
</g>
<!-- Node11 -->
<g id="Node000011" class="node">
<title>Node11</title>
<g id="a_Node000011"><a xlink:title=" ">
<polygon fill="#e0e0e0" stroke="#999999" points="1031.9,-24.5 986.9,-24.5 986.9,-5.5 1031.9,-5.5 1031.9,-24.5"/>
<text text-anchor="middle" x="1009.4" y="-12.5" font-family="Helvetica,sans-Serif" font-size="10.00">utility</text>
</a>
</g>
</g>
<!-- Node9&#45;&gt;Node11 -->
<g id="edge11_Node000009_Node000011" class="edge">
<title>Node9&#45;&gt;Node11</title>
<g id="a_edge11_Node000009_Node000011"><a xlink:title=" ">
<path fill="none" stroke="#63b8ff" d="M712.66,-66.61C783.19,-54.58 915.84,-31.96 977.01,-21.52"/>
<polygon fill="#63b8ff" stroke="#63b8ff" points="977.61,-24.97 986.88,-19.84 976.43,-18.07 977.61,-24.97"/>
</a>
</g>
</g>
<!-- Node12 -->
<g id="Node000012" class="node">
<title>Node12</title>
<g id="a_Node000012"><a xlink:title=" ">
<polygon fill="#e0e0e0" stroke="#999999" points="668.4,-30 540.4,-30 540.4,0 668.4,0 668.4,-30"/>
<text text-anchor="start" x="548.4" y="-18" font-family="Helvetica,sans-Serif" font-size="10.00">thread_base/sync/error</text>
<text text-anchor="middle" x="604.4" y="-7" font-family="Helvetica,sans-Serif" font-size="10.00">_handling.h</text>
</a>
</g>
</g>
<!-- Node9&#45;&gt;Node12 -->
<g id="edge12_Node000009_Node000012" class="edge">
<title>Node9&#45;&gt;Node12</title>
<g id="a_edge12_Node000009_Node000012"><a xlink:title=" ">
<path fill="none" stroke="#63b8ff" d="M657.25,-65.87C649.23,-58.3 637.23,-46.98 626.7,-37.04"/>
<polygon fill="#63b8ff" stroke="#63b8ff" points="629.03,-34.43 619.36,-30.11 624.23,-39.52 629.03,-34.43"/>
</a>
</g>
</g>
<!-- Node18&#45;&gt;Node4 -->
<g id="edge25_Node000018_Node000004" class="edge">
<title>Node18&#45;&gt;Node4</title>
<g id="a_edge25_Node000018_Node000004"><a xlink:title=" ">
<path fill="none" stroke="#63b8ff" d="M1047.72,-186.96C1090.05,-179.8 1140.3,-168 1153.4,-151 1170.95,-128.23 1131.77,-66.3 1131.4,-66 1111.93,-50.19 949.33,-28.61 878.82,-19.89"/>
<polygon fill="#63b8ff" stroke="#63b8ff" points="879.07,-16.4 868.72,-18.65 878.22,-23.34 879.07,-16.4"/>
</a>
</g>
</g>
<!-- Node18&#45;&gt;Node7 -->
<g id="edge26_Node000018_Node000007" class="edge">
<title>Node18&#45;&gt;Node7</title>
<g id="a_edge26_Node000018_Node000007"><a xlink:title=" ">
<path fill="none" stroke="#63b8ff" d="M920.23,-192.54C857.15,-188.13 767.25,-177.29 745.4,-151 732.41,-135.37 738.92,-111.2 746.02,-94.65"/>
<polygon fill="#63b8ff" stroke="#63b8ff" points="749.24,-96.02 750.34,-85.48 742.91,-93.04 749.24,-96.02"/>
</a>
</g>
</g>
<!-- Node18&#45;&gt;Node9 -->
<g id="edge28_Node000018_Node000009" class="edge">
<title>Node18&#45;&gt;Node9</title>
<g id="a_edge28_Node000018_Node000009"><a xlink:title=" ">
<path fill="none" stroke="#63b8ff" d="M920.25,-195.48C867.13,-192.9 791.24,-183.12 733.4,-151 708.76,-137.32 688.48,-111.12 676.9,-93.72"/>
<polygon fill="#63b8ff" stroke="#63b8ff" points="679.73,-91.64 671.39,-85.1 673.83,-95.41 679.73,-91.64"/>
</a>
</g>
</g>
<!-- Node19 -->
<g id="Node000019" class="node">
<title>Node19</title>
<g id="a_Node000019"><a xlink:title=" ">
<polygon fill="#e0e0e0" stroke="#999999" points="1031.9,-85 874.9,-85 874.9,-66 1031.9,-66 1031.9,-85"/>
<text text-anchor="middle" x="953.4" y="-73" font-family="Helvetica,sans-Serif" font-size="10.00">interfaces/logger_interface.h</text>
</a>
</g>
</g>
<!-- Node18&#45;&gt;Node19 -->
<g id="edge27_Node000018_Node000019" class="edge">
<title>Node18&#45;&gt;Node19</title>
<g id="a_edge27_Node000018_Node000019"><a xlink:title=" ">
<path fill="none" stroke="#63b8ff" d="M982.17,-186.94C977.19,-167.82 965.06,-121.27 958.25,-95.12"/>
<polygon fill="#63b8ff" stroke="#63b8ff" points="961.6,-94.1 955.69,-85.3 954.83,-95.86 961.6,-94.1"/>
</a>
</g>
</g>
<!-- Node20 -->
<g id="Node000020" class="node">
<title>Node20</title>
<g id="a_Node000020"><a xlink:href="log__writer__interface_8h.html" target="_top" xlink:title=" ">
<polygon fill="white" stroke="#666666" points="880.4,-151 754.4,-151 754.4,-121 880.4,-121 880.4,-151"/>
<text text-anchor="start" x="762.4" y="-139" font-family="Helvetica,sans-Serif" font-size="10.00">../interfaces/log_writer</text>
<text text-anchor="middle" x="817.4" y="-128" font-family="Helvetica,sans-Serif" font-size="10.00">_interface.h</text>
</a>
</g>
</g>
<!-- Node18&#45;&gt;Node20 -->
<g id="edge29_Node000018_Node000020" class="edge">
<title>Node18&#45;&gt;Node20</title>
<g id="a_edge29_Node000018_Node000020"><a xlink:title=" ">
<path fill="none" stroke="#63b8ff" d="M960.12,-186.99C935.87,-178.5 897.91,-165.2 867.23,-154.45"/>
<polygon fill="#63b8ff" stroke="#63b8ff" points="868.14,-151.07 857.55,-151.06 865.83,-157.67 868.14,-151.07"/>
</a>
</g>
</g>
<!-- Node21 -->
<g id="Node000021" class="node">
<title>Node21</title>
<g id="a_Node000021"><a xlink:href="log__entry_8h.html" target="_top" xlink:title="Data structures for representing log entries and source locations.">
<polygon fill="white" stroke="#666666" points="1143.9,-145.5 1012.9,-145.5 1012.9,-126.5 1143.9,-126.5 1143.9,-145.5"/>
<text text-anchor="middle" x="1078.4" y="-133.5" font-family="Helvetica,sans-Serif" font-size="10.00">../interfaces/log_entry.h</text>
</a>
</g>
</g>
<!-- Node18&#45;&gt;Node21 -->
<g id="edge33_Node000018_Node000021" class="edge">
<title>Node18&#45;&gt;Node21</title>
<g id="a_edge33_Node000018_Node000021"><a xlink:title=" ">
<path fill="none" stroke="#63b8ff" d="M998.27,-186.87C1013.4,-177.45 1037.86,-162.23 1055.78,-151.08"/>
<polygon fill="#63b8ff" stroke="#63b8ff" points="1057.83,-153.92 1064.47,-145.67 1054.13,-147.98 1057.83,-153.92"/>
</a>
</g>
</g>
<!-- Node20&#45;&gt;Node4 -->
<g id="edge30_Node000020_Node000004" class="edge">
<title>Node20&#45;&gt;Node4</title>
<g id="a_edge30_Node000020_Node000004"><a xlink:title=" ">
<path fill="none" stroke="#63b8ff" d="M820.2,-120.94C823.05,-106.95 827.7,-84.92 832.4,-66 834.99,-55.56 838.21,-43.99 840.91,-34.61"/>
<polygon fill="#63b8ff" stroke="#63b8ff" points="844.33,-35.39 843.76,-24.81 837.61,-33.43 844.33,-35.39"/>
</a>
</g>
</g>
<!-- Node20&#45;&gt;Node7 -->
<g id="edge31_Node000020_Node000007" class="edge">
<title>Node20&#45;&gt;Node7</title>
<g id="a_edge31_Node000020_Node000007"><a xlink:title=" ">
<path fill="none" stroke="#63b8ff" d="M802.39,-120.84C793.21,-112.17 781.45,-101.08 771.99,-92.15"/>
<polygon fill="#63b8ff" stroke="#63b8ff" points="774.37,-89.58 764.69,-85.27 769.56,-94.67 774.37,-89.58"/>
</a>
</g>
</g>
<!-- Node20&#45;&gt;Node9 -->
<g id="edge32_Node000020_Node000009" class="edge">
<title>Node20&#45;&gt;Node9</title>
<g id="a_edge32_Node000020_Node000009"><a xlink:title=" ">
<path fill="none" stroke="#63b8ff" d="M781.23,-120.99C755.93,-111.18 722.44,-98.21 698.16,-88.81"/>
<polygon fill="#63b8ff" stroke="#63b8ff" points="699.29,-85.49 688.7,-85.14 696.76,-92.02 699.29,-85.49"/>
</a>
</g>
</g>
<!-- Node21&#45;&gt;Node4 -->
<g id="edge34_Node000021_Node000004" class="edge">
<title>Node21&#45;&gt;Node4</title>
<g id="a_edge34_Node000021_Node000004"><a xlink:title=" ">
<path fill="none" stroke="#63b8ff" d="M1089.07,-126.48C1104.99,-112.76 1131.47,-85.34 1115.4,-66 1100.34,-47.88 947.07,-27.82 878.85,-19.7"/>
<polygon fill="#63b8ff" stroke="#63b8ff" points="879.01,-16.2 868.67,-18.51 878.19,-23.15 879.01,-16.2"/>
</a>
</g>
</g>
<!-- Node21&#45;&gt;Node7 -->
<g id="edge35_Node000021_Node000007" class="edge">
<title>Node21&#45;&gt;Node7</title>
<g id="a_edge35_Node000021_Node000007"><a xlink:title=" ">
<path fill="none" stroke="#63b8ff" d="M1031.43,-126.49C966.04,-114.65 849.03,-93.46 790.61,-82.88"/>
<polygon fill="#63b8ff" stroke="#63b8ff" points="790.87,-79.37 780.41,-81.03 789.62,-86.26 790.87,-79.37"/>
</a>
</g>
</g>
<!-- Node21&#45;&gt;Node17 -->
<g id="edge36_Node000021_Node000017" class="edge">
<title>Node21&#45;&gt;Node17</title>
<g id="a_edge36_Node000021_Node000017"><a xlink:title=" ">
<path fill="none" stroke="#63b8ff" d="M1078.4,-126.37C1078.4,-118.25 1078.4,-105.81 1078.4,-95.39"/>
<polygon fill="#63b8ff" stroke="#63b8ff" points="1081.9,-95.17 1078.4,-85.17 1074.9,-95.17 1081.9,-95.17"/>
</a>
</g>
</g>
<!-- Node21&#45;&gt;Node19 -->
<g id="edge44_Node000021_Node000019" class="edge">
<title>Node21&#45;&gt;Node19</title>
<g id="a_edge44_Node000021_Node000019"><a xlink:title=" ">
<path fill="none" stroke="#63b8ff" d="M1060.22,-126.49C1039.39,-116.75 1005.03,-100.66 980.92,-89.38"/>
<polygon fill="#63b8ff" stroke="#63b8ff" points="982.14,-86.09 971.6,-85.02 979.17,-92.43 982.14,-86.09"/>
</a>
</g>
</g>
<!-- Node22 -->
<g id="Node000022" class="node">
<title>Node22</title>
<g id="a_Node000022"><a xlink:href="small__string_8h.html" target="_top" xlink:title=" ">
<polygon fill="white" stroke="#666666" points="1319.9,-85 1200.9,-85 1200.9,-66 1319.9,-66 1319.9,-85"/>
<text text-anchor="middle" x="1260.4" y="-73" font-family="Helvetica,sans-Serif" font-size="10.00">../core/small_string.h</text>
</a>
</g>
</g>
<!-- Node21&#45;&gt;Node22 -->
<g id="edge37_Node000021_Node000022" class="edge">
<title>Node21&#45;&gt;Node22</title>
<g id="a_edge37_Node000021_Node000022"><a xlink:title=" ">
<path fill="none" stroke="#63b8ff" d="M1104.86,-126.49C1136.27,-116.4 1188.8,-99.51 1224.02,-88.19"/>
<polygon fill="#63b8ff" stroke="#63b8ff" points="1225.45,-91.41 1233.9,-85.02 1223.31,-84.74 1225.45,-91.41"/>
</a>
</g>
</g>
<!-- Node22&#45;&gt;Node4 -->
<g id="edge39_Node000022_Node000004" class="edge">
<title>Node22&#45;&gt;Node4</title>
<g id="a_edge39_Node000022_Node000004"><a xlink:title=" ">
<path fill="none" stroke="#63b8ff" d="M1200.64,-66.06C1111.83,-53.51 948.02,-30.36 878.72,-20.57"/>
<polygon fill="#63b8ff" stroke="#63b8ff" points="879.21,-17.1 868.82,-19.17 878.23,-24.03 879.21,-17.1"/>
</a>
</g>
</g>
<!-- Node22&#45;&gt;Node11 -->
<g id="edge43_Node000022_Node000011" class="edge">
<title>Node22&#45;&gt;Node11</title>
<g id="a_edge43_Node000022_Node000011"><a xlink:title=" ">
<path fill="none" stroke="#63b8ff" d="M1223.9,-65.99C1174.98,-54.59 1088.89,-34.53 1042.03,-23.61"/>
<polygon fill="#63b8ff" stroke="#63b8ff" points="1042.64,-20.15 1032.1,-21.29 1041.05,-26.97 1042.64,-20.15"/>
</a>
</g>
</g>
<!-- Node22&#45;&gt;Node13 -->
<g id="edge42_Node000022_Node000013" class="edge">
<title>Node22&#45;&gt;Node13</title>
<g id="a_edge42_Node000022_Node000013"><a xlink:title=" ">
<path fill="none" stroke="#63b8ff" d="M1200.79,-70.88C1174.6,-69.33 1143.48,-67.52 1115.4,-66 738.51,-45.61 282.17,-24.13 146.95,-17.83"/>
<polygon fill="#63b8ff" stroke="#63b8ff" points="146.83,-14.32 136.68,-17.36 146.51,-21.32 146.83,-14.32"/>
</a>
</g>
</g>
<!-- Node23 -->
<g id="Node000023" class="node">
<title>Node23</title>
<g id="a_Node000023"><a xlink:title=" ">
<polygon fill="#e0e0e0" stroke="#999999" points="1288.4,-24.5 1238.4,-24.5 1238.4,-5.5 1288.4,-5.5 1288.4,-24.5"/>
<text text-anchor="middle" x="1263.4" y="-12.5" font-family="Helvetica,sans-Serif" font-size="10.00">cstring</text>
</a>
</g>
</g>
<!-- Node22&#45;&gt;Node23 -->
<g id="edge38_Node000022_Node000023" class="edge">
<title>Node22&#45;&gt;Node23</title>
<g id="a_edge38_Node000022_Node000023"><a xlink:title=" ">
<path fill="none" stroke="#63b8ff" d="M1260.84,-65.87C1261.26,-57.75 1261.9,-45.31 1262.43,-34.89"/>
<polygon fill="#63b8ff" stroke="#63b8ff" points="1265.94,-34.83 1262.96,-24.67 1258.95,-34.47 1265.94,-34.83"/>
</a>
</g>
</g>
<!-- Node24 -->
<g id="Node000024" class="node">
<title>Node24</title>
<g id="a_Node000024"><a xlink:title=" ">
<polygon fill="#e0e0e0" stroke="#999999" points="1219.9,-24.5 1146.9,-24.5 1146.9,-5.5 1219.9,-5.5 1219.9,-24.5"/>
<text text-anchor="middle" x="1183.4" y="-12.5" font-family="Helvetica,sans-Serif" font-size="10.00">string_view</text>
</a>
</g>
</g>
<!-- Node22&#45;&gt;Node24 -->
<g id="edge40_Node000022_Node000024" class="edge">
<title>Node22&#45;&gt;Node24</title>
<g id="a_edge40_Node000022_Node000024"><a xlink:title=" ">
<path fill="none" stroke="#63b8ff" d="M1249.04,-65.87C1236.98,-56.71 1217.7,-42.06 1203.15,-31.01"/>
<polygon fill="#63b8ff" stroke="#63b8ff" points="1204.89,-27.93 1194.81,-24.67 1200.65,-33.5 1204.89,-27.93"/>
</a>
</g>
</g>
<!-- Node22&#45;&gt;Node25 -->
<g id="edge41_Node000022_Node000025" class="edge">
<title>Node22&#45;&gt;Node25</title>
<g id="a_edge41_Node000022_Node000025"><a xlink:title=" ">
<path fill="none" stroke="#63b8ff" d="M1272.79,-65.87C1286.19,-56.54 1307.77,-41.51 1323.75,-30.38"/>
<polygon fill="#63b8ff" stroke="#63b8ff" points="1325.75,-33.25 1331.95,-24.67 1321.75,-27.51 1325.75,-33.25"/>
</a>
</g>
</g>
<!-- Node26&#45;&gt;Node6 -->
<g id="edge48_Node000026_Node000006" class="edge">
<title>Node26&#45;&gt;Node6</title>
<g id="a_edge48_Node000026_Node000006"><a xlink:title=" ">
<path fill="none" stroke="#63b8ff" d="M147.47,-126.37C149.43,-118.16 152.45,-105.54 154.96,-95.05"/>
<polygon fill="#63b8ff" stroke="#63b8ff" points="158.4,-95.71 157.33,-85.17 151.59,-94.08 158.4,-95.71"/>
</a>
</g>
</g>
<!-- Node26&#45;&gt;Node7 -->
<g id="edge51_Node000026_Node000007" class="edge">
<title>Node26&#45;&gt;Node7</title>
<g id="a_edge51_Node000026_Node000007"><a xlink:title=" ">
<path fill="none" stroke="#63b8ff" d="M205.6,-126.55C220.85,-124.57 237.21,-122.58 252.4,-121 457.09,-99.77 513.29,-117.89 720.28,-84.9"/>
<polygon fill="#63b8ff" stroke="#63b8ff" points="720.93,-88.34 730.25,-83.29 719.82,-81.43 720.93,-88.34"/>
</a>
</g>
</g>
<!-- Node26&#45;&gt;Node8 -->
<g id="edge50_Node000026_Node000008" class="edge">
<title>Node26&#45;&gt;Node8</title>
<g id="a_edge50_Node000026_Node000008"><a xlink:title=" ">
<path fill="none" stroke="#63b8ff" d="M158.38,-126.37C172.42,-117.04 195.03,-102.01 211.76,-90.88"/>
<polygon fill="#63b8ff" stroke="#63b8ff" points="213.97,-93.62 220.36,-85.17 210.1,-87.79 213.97,-93.62"/>
</a>
</g>
</g>
<!-- Node26&#45;&gt;Node13 -->
<g id="edge47_Node000026_Node000013" class="edge">
<title>Node26&#45;&gt;Node13</title>
<g id="a_edge47_Node000026_Node000013"><a xlink:title=" ">
<path fill="none" stroke="#63b8ff" d="M141.78,-126.24C137.76,-116.33 131.19,-99.65 126.4,-85 120.86,-68.04 115.55,-48.39 111.96,-34.41"/>
<polygon fill="#63b8ff" stroke="#63b8ff" points="115.32,-33.42 109.48,-24.58 108.54,-35.13 115.32,-33.42"/>
</a>
</g>
</g>
<!-- Node26&#45;&gt;Node14 -->
<g id="edge49_Node000026_Node000014" class="edge">
<title>Node26&#45;&gt;Node14</title>
<g id="a_edge49_Node000026_Node000014"><a xlink:title=" ">
<path fill="none" stroke="#63b8ff" d="M130.05,-126.37C113.08,-116.82 85.5,-101.31 65.61,-90.12"/>
<polygon fill="#63b8ff" stroke="#63b8ff" points="67.24,-87.02 56.81,-85.17 63.81,-93.12 67.24,-87.02"/>
</a>
</g>
</g>
<!-- Node26&#45;&gt;Node19 -->
<g id="edge46_Node000026_Node000019" class="edge">
<title>Node26&#45;&gt;Node19</title>
<g id="a_edge46_Node000026_Node000019"><a xlink:title=" ">
<path fill="none" stroke="#63b8ff" d="M205.03,-126.48C220.43,-124.48 237.02,-122.49 252.4,-121 368.57,-109.73 702.95,-90.43 864.26,-81.41"/>
<polygon fill="#63b8ff" stroke="#63b8ff" points="864.84,-84.89 874.63,-80.84 864.45,-77.9 864.84,-84.89"/>
</a>
</g>
</g>
</g>
</svg>
