<?xml version="1.0" encoding="UTF-8" standalone="no"?>
<!DOCTYPE svg PUBLIC "-//W3C//DTD SVG 1.1//EN"
 "http://www.w3.org/Graphics/SVG/1.1/DTD/svg11.dtd">
<!-- Generated by graphviz version 2.43.0 (0)
 -->
<!-- Title: /home/runner/work/logger_system/logger_system/sources/logger/health/health_check_system.h Pages: 1 -->
<svg width="777pt" height="247pt"
 viewBox="0.00 0.00 776.68 247.00" xmlns="http://www.w3.org/2000/svg" xmlns:xlink="http://www.w3.org/1999/xlink">
<g id="graph0" class="graph" transform="scale(1 1) rotate(0) translate(4 243)">
<title>/home/runner/work/logger_system/logger_system/sources/logger/health/health_check_system.h</title>
<!-- Node1 -->
<g id="Node000001" class="node">
<title>Node1</title>
<g id="a_Node000001"><a xlink:title=" ">
<polygon fill="#999999" stroke="#666666" points="460.18,-239 287.18,-239 287.18,-187 460.18,-187 460.18,-239"/>
<text text-anchor="start" x="295.18" y="-227" font-family="Helvetica,sans-Serif" font-size="10.00">/home/runner/work/logger</text>
<text text-anchor="start" x="295.18" y="-216" font-family="Helvetica,sans-Serif" font-size="10.00">_system/logger_system/sources</text>
<text text-anchor="start" x="295.18" y="-205" font-family="Helvetica,sans-Serif" font-size="10.00">/logger/health/health_check</text>
<text text-anchor="middle" x="373.68" y="-194" font-family="Helvetica,sans-Serif" font-size="10.00">_system.h</text>
</a>
</g>
</g>
<!-- Node2 -->
<g id="Node000002" class="node">
<title>Node2</title>
<g id="a_Node000002"><a xlink:href="monitoring__interface_8h.html" target="_top" xlink:title="Abstract interface for monitoring and metrics collection.">
<polygon fill="white" stroke="#666666" points="326.18,-151 191.18,-151 191.18,-121 326.18,-121 326.18,-151"/>
<text text-anchor="start" x="199.18" y="-139" font-family="Helvetica,sans-Serif" font-size="10.00">../monitoring/monitoring</text>
<text text-anchor="middle" x="258.68" y="-128" font-family="Helvetica,sans-Serif" font-size="10.00">_interface.h</text>
</a>
</g>
</g>
<!-- Node1&#45;&gt;Node2 -->
<g id="edge1_Node000001_Node000002" class="edge">
<title>Node1&#45;&gt;Node2</title>
<g id="a_edge1_Node000001_Node000002"><a xlink:title=" ">
<path fill="none" stroke="#63b8ff" d="M335.07,-186.82C319.94,-176.95 302.85,-165.8 288.67,-156.56"/>
<polygon fill="#63b8ff" stroke="#63b8ff" points="290.56,-153.61 280.27,-151.08 286.73,-159.47 290.56,-153.61"/>
</a>
</g>
</g>
<!-- Node3 -->
<g id="Node000003" class="node">
<title>Node3</title>
<g id="a_Node000003"><a xlink:title=" ">
<polygon fill="#e0e0e0" stroke="#999999" points="276.68,-24.5 232.68,-24.5 232.68,-5.5 276.68,-5.5 276.68,-24.5"/>
<text text-anchor="middle" x="254.68" y="-12.5" font-family="Helvetica,sans-Serif" font-size="10.00">string</text>
</a>
</g>
</g>
<!-- Node1&#45;&gt;Node3 -->
<g id="edge22_Node000001_Node000003" class="edge">
<title>Node1&#45;&gt;Node3</title>
<g id="a_edge22_Node000001_Node000003"><a xlink:title=" ">
<path fill="none" stroke="#63b8ff" d="M287.06,-200.4C233.11,-191.23 163.1,-175.76 104.68,-151 55.31,-130.07 29.2,-132.16 3.68,-85 -0.34,-77.57 -1.67,-72.53 3.68,-66 31,-32.7 160.88,-21.16 222.32,-17.52"/>
<polygon fill="#63b8ff" stroke="#63b8ff" points="222.83,-21 232.61,-16.95 222.44,-14.01 222.83,-21"/>
</a>
</g>
</g>
<!-- Node4 -->
<g id="Node000004" class="node">
<title>Node4</title>
<g id="a_Node000004"><a xlink:title=" ">
<polygon fill="#e0e0e0" stroke="#999999" points="106.18,-85 13.18,-85 13.18,-66 106.18,-66 106.18,-85"/>
<text text-anchor="middle" x="59.68" y="-73" font-family="Helvetica,sans-Serif" font-size="10.00">unordered_map</text>
</a>
</g>
</g>
<!-- Node1&#45;&gt;Node4 -->
<g id="edge15_Node000001_Node000004" class="edge">
<title>Node1&#45;&gt;Node4</title>
<g id="a_edge15_Node000001_Node000004"><a xlink:title=" ">
<path fill="none" stroke="#63b8ff" d="M287.18,-197.17C244.51,-187.69 193.21,-172.95 150.68,-151 121.06,-135.71 92.2,-109.62 75.19,-92.72"/>
<polygon fill="#63b8ff" stroke="#63b8ff" points="77.35,-89.92 67.84,-85.25 72.36,-94.83 77.35,-89.92"/>
</a>
</g>
</g>
<!-- Node5 -->
<g id="Node000005" class="node">
<title>Node5</title>
<g id="a_Node000005"><a xlink:title=" ">
<polygon fill="#e0e0e0" stroke="#999999" points="171.18,-85 124.18,-85 124.18,-66 171.18,-66 171.18,-85"/>
<text text-anchor="middle" x="147.68" y="-73" font-family="Helvetica,sans-Serif" font-size="10.00">vector</text>
</a>
</g>
</g>
<!-- Node1&#45;&gt;Node5 -->
<g id="edge14_Node000001_Node000005" class="edge">
<title>Node1&#45;&gt;Node5</title>
<g id="a_edge14_Node000001_Node000005"><a xlink:title=" ">
<path fill="none" stroke="#63b8ff" d="M287.08,-203.82C247.71,-195.96 203.22,-180.66 172.68,-151 157.58,-136.33 151.6,-112.26 149.23,-95.46"/>
<polygon fill="#63b8ff" stroke="#63b8ff" points="152.68,-94.76 148.1,-85.2 145.72,-95.52 152.68,-94.76"/>
</a>
</g>
</g>
<!-- Node6 -->
<g id="Node000006" class="node">
<title>Node6</title>
<g id="a_Node000006"><a xlink:title=" ">
<polygon fill="#e0e0e0" stroke="#999999" points="239.68,-85 189.68,-85 189.68,-66 239.68,-66 239.68,-85"/>
<text text-anchor="middle" x="214.68" y="-73" font-family="Helvetica,sans-Serif" font-size="10.00">chrono</text>
</a>
</g>
</g>
<!-- Node1&#45;&gt;Node6 -->
<g id="edge20_Node000001_Node000006" class="edge">
<title>Node1&#45;&gt;Node6</title>
<g id="a_edge20_Node000001_Node000006"><a xlink:title=" ">
<path fill="none" stroke="#63b8ff" d="M287.15,-206.67C248.66,-199.46 206.7,-183.89 182.68,-151 169.53,-133 184.9,-108.75 198.54,-92.88"/>
<polygon fill="#63b8ff" stroke="#63b8ff" points="201.19,-95.17 205.35,-85.42 196.02,-90.45 201.19,-95.17"/>
</a>
</g>
</g>
<!-- Node7 -->
<g id="Node000007" class="node">
<title>Node7</title>
<g id="a_Node000007"><a xlink:title=" ">
<polygon fill="#e0e0e0" stroke="#999999" points="345.68,-85 295.68,-85 295.68,-66 345.68,-66 345.68,-85"/>
<text text-anchor="middle" x="320.68" y="-73" font-family="Helvetica,sans-Serif" font-size="10.00">atomic</text>
</a>
</g>
</g>
<!-- Node1&#45;&gt;Node7 -->
<g id="edge17_Node000001_Node000007" class="edge">
<title>Node1&#45;&gt;Node7</title>
<g id="a_edge17_Node000001_Node000007"><a xlink:title=" ">
<path fill="none" stroke="#63b8ff" d="M363.84,-186.83C353.35,-160.02 337.01,-118.24 327.74,-94.53"/>
<polygon fill="#63b8ff" stroke="#63b8ff" points="330.92,-93.07 324.02,-85.03 324.4,-95.62 330.92,-93.07"/>
</a>
</g>
</g>
<!-- Node8 -->
<g id="Node000008" class="node">
<title>Node8</title>
<g id="a_Node000008"><a xlink:href="error__codes_8h.html" target="_top" xlink:title=" ">
<polygon fill="white" stroke="#666666" points="455.68,-85 363.68,-85 363.68,-66 455.68,-66 455.68,-85"/>
<text text-anchor="middle" x="409.68" y="-73" font-family="Helvetica,sans-Serif" font-size="10.00">../error_codes.h</text>
</a>
</g>
</g>
<!-- Node1&#45;&gt;Node8 -->
<g id="edge12_Node000001_Node000008" class="edge">
<title>Node1&#45;&gt;Node8</title>
<g id="a_edge12_Node000001_Node000008"><a xlink:title=" ">
<path fill="none" stroke="#63b8ff" d="M380.37,-186.83C387.46,-160.14 398.49,-118.62 404.81,-94.85"/>
<polygon fill="#63b8ff" stroke="#63b8ff" points="408.23,-95.59 407.42,-85.03 401.47,-93.8 408.23,-95.59"/>
</a>
</g>
</g>
<!-- Node12 -->
<g id="Node000012" class="node">
<title>Node12</title>
<g id="a_Node000012"><a xlink:title=" ">
<polygon fill="#e0e0e0" stroke="#999999" points="478.68,-145.5 420.68,-145.5 420.68,-126.5 478.68,-126.5 478.68,-145.5"/>
<text text-anchor="middle" x="449.68" y="-133.5" font-family="Helvetica,sans-Serif" font-size="10.00">memory</text>
</a>
</g>
</g>
<!-- Node1&#45;&gt;Node12 -->
<g id="edge13_Node000001_Node000012" class="edge">
<title>Node1&#45;&gt;Node12</title>
<g id="a_edge13_Node000001_Node000012"><a xlink:title=" ">
<path fill="none" stroke="#63b8ff" d="M399.41,-186.61C410.69,-175.48 423.59,-162.75 433.5,-152.97"/>
<polygon fill="#63b8ff" stroke="#63b8ff" points="436.05,-155.37 440.71,-145.85 431.14,-150.38 436.05,-155.37"/>
</a>
</g>
</g>
<!-- Node13 -->
<g id="Node000013" class="node">
<title>Node13</title>
<g id="a_Node000013"><a xlink:title=" ">
<polygon fill="#e0e0e0" stroke="#999999" points="544.68,-145.5 496.68,-145.5 496.68,-126.5 544.68,-126.5 544.68,-145.5"/>
<text text-anchor="middle" x="520.68" y="-133.5" font-family="Helvetica,sans-Serif" font-size="10.00">thread</text>
</a>
</g>
</g>
<!-- Node1&#45;&gt;Node13 -->
<g id="edge16_Node000001_Node000013" class="edge">
<title>Node1&#45;&gt;Node13</title>
<g id="a_edge16_Node000001_Node000013"><a xlink:title=" ">
<path fill="none" stroke="#63b8ff" d="M423.04,-186.82C447.12,-174.53 475.1,-160.26 494.92,-150.15"/>
<polygon fill="#63b8ff" stroke="#63b8ff" points="496.62,-153.21 503.94,-145.54 493.44,-146.97 496.62,-153.21"/>
</a>
</g>
</g>
<!-- Node14 -->
<g id="Node000014" class="node">
<title>Node14</title>
<g id="a_Node000014"><a xlink:title=" ">
<polygon fill="#e0e0e0" stroke="#999999" points="610.68,-145.5 562.68,-145.5 562.68,-126.5 610.68,-126.5 610.68,-145.5"/>
<text text-anchor="middle" x="586.68" y="-133.5" font-family="Helvetica,sans-Serif" font-size="10.00">mutex</text>
</a>
</g>
</g>
<!-- Node1&#45;&gt;Node14 -->
<g id="edge18_Node000001_Node000014" class="edge">
<title>Node1&#45;&gt;Node14</title>
<g id="a_edge18_Node000001_Node000014"><a xlink:title=" ">
<path fill="none" stroke="#63b8ff" d="M451.66,-186.98C483.49,-176.41 520.54,-163.63 553.68,-151 555.06,-150.47 556.47,-149.92 557.89,-149.36"/>
<polygon fill="#63b8ff" stroke="#63b8ff" points="559.31,-152.56 567.24,-145.53 556.66,-146.09 559.31,-152.56"/>
</a>
</g>
</g>
<!-- Node15 -->
<g id="Node000015" class="node">
<title>Node15</title>
<g id="a_Node000015"><a xlink:title=" ">
<polygon fill="#e0e0e0" stroke="#999999" points="694.18,-145.5 629.18,-145.5 629.18,-126.5 694.18,-126.5 694.18,-145.5"/>
<text text-anchor="middle" x="661.68" y="-133.5" font-family="Helvetica,sans-Serif" font-size="10.00">functional</text>
</a>
</g>
</g>
<!-- Node1&#45;&gt;Node15 -->
<g id="edge19_Node000001_Node000015" class="edge">
<title>Node1&#45;&gt;Node15</title>
<g id="a_edge19_Node000001_Node000015"><a xlink:title=" ">
<path fill="none" stroke="#63b8ff" d="M460.37,-192.27C507.69,-181.05 567.18,-166.24 619.68,-151 622.14,-150.29 624.66,-149.52 627.2,-148.74"/>
<polygon fill="#63b8ff" stroke="#63b8ff" points="628.46,-152.01 636.91,-145.62 626.32,-145.34 628.46,-152.01"/>
</a>
</g>
</g>
<!-- Node16 -->
<g id="Node000016" class="node">
<title>Node16</title>
<g id="a_Node000016"><a xlink:title=" ">
<polygon fill="#e0e0e0" stroke="#999999" points="768.68,-145.5 712.68,-145.5 712.68,-126.5 768.68,-126.5 768.68,-145.5"/>
<text text-anchor="middle" x="740.68" y="-133.5" font-family="Helvetica,sans-Serif" font-size="10.00">optional</text>
</a>
</g>
</g>
<!-- Node1&#45;&gt;Node16 -->
<g id="edge21_Node000001_Node000016" class="edge">
<title>Node1&#45;&gt;Node16</title>
<g id="a_edge21_Node000001_Node000016"><a xlink:title=" ">
<path fill="none" stroke="#63b8ff" d="M460.46,-200.3C527.58,-190.21 622.45,-173.68 703.68,-151 705.97,-150.36 708.32,-149.64 710.66,-148.87"/>
<polygon fill="#63b8ff" stroke="#63b8ff" points="711.9,-152.14 720.16,-145.51 709.56,-145.55 711.9,-152.14"/>
</a>
</g>
</g>
<!-- Node2&#45;&gt;Node3 -->
<g id="edge2_Node000002_Node000003" class="edge">
<title>Node2&#45;&gt;Node3</title>
<g id="a_edge2_Node000002_Node000003"><a xlink:title=" ">
<path fill="none" stroke="#63b8ff" d="M258.21,-120.88C257.49,-99.51 256.12,-58.89 255.32,-34.96"/>
<polygon fill="#63b8ff" stroke="#63b8ff" points="258.81,-34.59 254.98,-24.71 251.81,-34.82 258.81,-34.59"/>
</a>
</g>
</g>
<!-- Node2&#45;&gt;Node4 -->
<g id="edge3_Node000002_Node000004" class="edge">
<title>Node2&#45;&gt;Node4</title>
<g id="a_edge3_Node000002_Node000004"><a xlink:title=" ">
<path fill="none" stroke="#63b8ff" d="M211.02,-120.99C176.67,-110.89 130.9,-97.44 98.72,-87.98"/>
<polygon fill="#63b8ff" stroke="#63b8ff" points="99.36,-84.52 88.78,-85.05 97.39,-91.23 99.36,-84.52"/>
</a>
</g>
</g>
<!-- Node2&#45;&gt;Node5 -->
<g id="edge4_Node000002_Node000005" class="edge">
<title>Node2&#45;&gt;Node5</title>
<g id="a_edge4_Node000002_Node000005"><a xlink:title=" ">
<path fill="none" stroke="#63b8ff" d="M232.1,-120.99C214.24,-111.58 190.84,-99.24 173.21,-89.95"/>
<polygon fill="#63b8ff" stroke="#63b8ff" points="174.55,-86.71 164.08,-85.14 171.29,-92.9 174.55,-86.71"/>
</a>
</g>
</g>
<!-- Node2&#45;&gt;Node6 -->
<g id="edge5_Node000002_Node000006" class="edge">
<title>Node2&#45;&gt;Node6</title>
<g id="a_edge5_Node000002_Node000006"><a xlink:title=" ">
<path fill="none" stroke="#63b8ff" d="M248.03,-120.84C241.84,-112.61 234,-102.18 227.47,-93.51"/>
<polygon fill="#63b8ff" stroke="#63b8ff" points="230.08,-91.15 221.28,-85.27 224.49,-95.36 230.08,-91.15"/>
</a>
</g>
</g>
<!-- Node2&#45;&gt;Node7 -->
<g id="edge6_Node000002_Node000007" class="edge">
<title>Node2&#45;&gt;Node7</title>
<g id="a_edge6_Node000002_Node000007"><a xlink:title=" ">
<path fill="none" stroke="#63b8ff" d="M273.69,-120.84C282.87,-112.17 294.64,-101.08 304.1,-92.15"/>
<polygon fill="#63b8ff" stroke="#63b8ff" points="306.52,-94.67 311.39,-85.27 301.72,-89.58 306.52,-94.67"/>
</a>
</g>
</g>
<!-- Node2&#45;&gt;Node8 -->
<g id="edge7_Node000002_Node000008" class="edge">
<title>Node2&#45;&gt;Node8</title>
<g id="a_edge7_Node000002_Node000008"><a xlink:title=" ">
<path fill="none" stroke="#63b8ff" d="M294.85,-120.99C320.16,-111.18 353.64,-98.21 377.92,-88.81"/>
<polygon fill="#63b8ff" stroke="#63b8ff" points="379.32,-92.02 387.38,-85.14 376.79,-85.49 379.32,-92.02"/>
</a>
</g>
</g>
<!-- Node8&#45;&gt;Node3 -->
<g id="edge8_Node000008_Node000003" class="edge">
<title>Node8&#45;&gt;Node3</title>
<g id="a_edge8_Node000008_Node000003"><a xlink:title=" ">
<path fill="none" stroke="#63b8ff" d="M384.53,-65.94C359.54,-57.31 320.22,-43.39 286.68,-30 285.51,-29.53 284.32,-29.05 283.11,-28.55"/>
<polygon fill="#63b8ff" stroke="#63b8ff" points="284.46,-25.32 273.89,-24.64 281.73,-31.77 284.46,-25.32"/>
</a>
</g>
</g>
<!-- Node9 -->
<g id="Node000009" class="node">
<title>Node9</title>
<g id="a_Node000009"><a xlink:title=" ">
<polygon fill="#e0e0e0" stroke="#999999" points="570.18,-24.5 505.18,-24.5 505.18,-5.5 570.18,-5.5 570.18,-24.5"/>
<text text-anchor="middle" x="537.68" y="-12.5" font-family="Helvetica,sans-Serif" font-size="10.00">stdexcept</text>
</a>
</g>
</g>
<!-- Node8&#45;&gt;Node9 -->
<g id="edge9_Node000008_Node000009" class="edge">
<title>Node8&#45;&gt;Node9</title>
<g id="a_edge9_Node000008_Node000009"><a xlink:title=" ">
<path fill="none" stroke="#63b8ff" d="M428.3,-65.99C449.72,-56.2 485.12,-40.02 509.83,-28.73"/>
<polygon fill="#63b8ff" stroke="#63b8ff" points="511.41,-31.86 519.05,-24.52 508.5,-25.49 511.41,-31.86"/>
</a>
</g>
</g>
<!-- Node10 -->
<g id="Node000010" class="node">
<title>Node10</title>
<g id="a_Node000010"><a xlink:title=" ">
<polygon fill="#e0e0e0" stroke="#999999" points="340.18,-24.5 295.18,-24.5 295.18,-5.5 340.18,-5.5 340.18,-24.5"/>
<text text-anchor="middle" x="317.68" y="-12.5" font-family="Helvetica,sans-Serif" font-size="10.00">utility</text>
</a>
</g>
</g>
<!-- Node8&#45;&gt;Node10 -->
<g id="edge10_Node000008_Node000010" class="edge">
<title>Node8&#45;&gt;Node10</title>
<g id="a_edge10_Node000008_Node000010"><a xlink:title=" ">
<path fill="none" stroke="#63b8ff" d="M396.11,-65.87C381.3,-56.45 357.36,-41.23 339.82,-30.08"/>
<polygon fill="#63b8ff" stroke="#63b8ff" points="341.63,-27.08 331.31,-24.67 337.87,-32.99 341.63,-27.08"/>
</a>
</g>
</g>
<!-- Node11 -->
<g id="Node000011" class="node">
<title>Node11</title>
<g id="a_Node000011"><a xlink:title=" ">
<polygon fill="#e0e0e0" stroke="#999999" points="486.68,-30 358.68,-30 358.68,0 486.68,0 486.68,-30"/>
<text text-anchor="start" x="366.68" y="-18" font-family="Helvetica,sans-Serif" font-size="10.00">thread_base/sync/error</text>
<text text-anchor="middle" x="422.68" y="-7" font-family="Helvetica,sans-Serif" font-size="10.00">_handling.h</text>
</a>
</g>
</g>
<!-- Node8&#45;&gt;Node11 -->
<g id="edge11_Node000008_Node000011" class="edge">
<title>Node8&#45;&gt;Node11</title>
<g id="a_edge11_Node000008_Node000011"><a xlink:title=" ">
<path fill="none" stroke="#63b8ff" d="M411.6,-65.87C413.12,-59.03 415.32,-49.14 417.36,-39.97"/>
<polygon fill="#63b8ff" stroke="#63b8ff" points="420.79,-40.64 419.55,-30.11 413.96,-39.12 420.79,-40.64"/>
</a>
</g>
</g>
</g>
</svg>
