<?xml version="1.0" encoding="UTF-8" standalone="no"?>
<!DOCTYPE svg PUBLIC "-//W3C//DTD SVG 1.1//EN"
 "http://www.w3.org/Graphics/SVG/1.1/DTD/svg11.dtd">
<!-- Generated by graphviz version 2.43.0 (0)
 -->
<!-- Title: health_check_system.cpp Pages: 1 -->
<svg width="1221pt" height="258pt"
 viewBox="0.00 0.00 1221.31 258.00" xmlns="http://www.w3.org/2000/svg" xmlns:xlink="http://www.w3.org/1999/xlink">
<g id="graph0" class="graph" transform="scale(1 1) rotate(0) translate(4 254)">
<title>health_check_system.cpp</title>
<!-- Node1 -->
<g id="Node000001" class="node">
<title>Node1</title>
<g id="a_Node000001"><a xlink:title=" ">
<polygon fill="#999999" stroke="#666666" points="975.31,-250 832.31,-250 832.31,-231 975.31,-231 975.31,-250"/>
<text text-anchor="middle" x="903.81" y="-238" font-family="Helvetica,sans-Serif" font-size="10.00">health_check_system.cpp</text>
</a>
</g>
</g>
<!-- Node2 -->
<g id="Node000002" class="node">
<title>Node2</title>
<g id="a_Node000002"><a xlink:href="health__check__system_8h.html" target="_top" xlink:title=" ">
<polygon fill="white" stroke="#666666" points="496.31,-195 365.31,-195 365.31,-176 496.31,-176 496.31,-195"/>
<text text-anchor="middle" x="430.81" y="-183" font-family="Helvetica,sans-Serif" font-size="10.00">health_check_system.h</text>
</a>
</g>
</g>
<!-- Node1&#45;&gt;Node2 -->
<g id="edge1_Node000001_Node000002" class="edge">
<title>Node1&#45;&gt;Node2</title>
<g id="a_edge1_Node000001_Node000002"><a xlink:title=" ">
<path fill="none" stroke="#63b8ff" d="M832.23,-231.48C744.45,-221.64 596.3,-205.04 506.63,-195"/>
<polygon fill="#63b8ff" stroke="#63b8ff" points="506.86,-191.5 496.53,-193.86 506.08,-198.46 506.86,-191.5"/>
</a>
</g>
</g>
<!-- Node18 -->
<g id="Node000018" class="node">
<title>Node18</title>
<g id="a_Node000018"><a xlink:href="base__writer_8h.html" target="_top" xlink:title=" ">
<polygon fill="white" stroke="#666666" points="857.81,-195 729.81,-195 729.81,-176 857.81,-176 857.81,-195"/>
<text text-anchor="middle" x="793.81" y="-183" font-family="Helvetica,sans-Serif" font-size="10.00">../writers/base_writer.h</text>
</a>
</g>
</g>
<!-- Node1&#45;&gt;Node18 -->
<g id="edge25_Node000001_Node000018" class="edge">
<title>Node1&#45;&gt;Node18</title>
<g id="a_edge25_Node000001_Node000018"><a xlink:title=" ">
<path fill="none" stroke="#63b8ff" d="M886.14,-230.98C868.52,-222.5 841.23,-209.35 820.89,-199.54"/>
<polygon fill="#63b8ff" stroke="#63b8ff" points="822.33,-196.36 811.81,-195.17 819.3,-202.66 822.33,-196.36"/>
</a>
</g>
</g>
<!-- Node22 -->
<g id="Node000022" class="node">
<title>Node22</title>
<g id="a_Node000022"><a xlink:href="log__collector_8h.html" target="_top" xlink:title=" ">
<polygon fill="white" stroke="#666666" points="364.81,-134.5 244.81,-134.5 244.81,-115.5 364.81,-115.5 364.81,-134.5"/>
<text text-anchor="middle" x="304.81" y="-122.5" font-family="Helvetica,sans-Serif" font-size="10.00">../core/log_collector.h</text>
</a>
</g>
</g>
<!-- Node1&#45;&gt;Node22 -->
<g id="edge42_Node000001_Node000022" class="edge">
<title>Node1&#45;&gt;Node22</title>
<g id="a_edge42_Node000001_Node000022"><a xlink:title=" ">
<path fill="none" stroke="#63b8ff" d="M832.22,-236.98C693.15,-231.6 396.48,-217.62 355.81,-195 335.33,-183.61 320.76,-160.15 312.57,-143.77"/>
<polygon fill="#63b8ff" stroke="#63b8ff" points="315.71,-142.22 308.3,-134.65 309.37,-145.19 315.71,-142.22"/>
</a>
</g>
</g>
<!-- Node23 -->
<g id="Node000023" class="node">
<title>Node23</title>
<g id="a_Node000023"><a xlink:title=" ">
<polygon fill="#e0e0e0" stroke="#999999" points="931.81,-195 875.81,-195 875.81,-176 931.81,-176 931.81,-195"/>
<text text-anchor="middle" x="903.81" y="-183" font-family="Helvetica,sans-Serif" font-size="10.00">sstream</text>
</a>
</g>
</g>
<!-- Node1&#45;&gt;Node23 -->
<g id="edge49_Node000001_Node000023" class="edge">
<title>Node1&#45;&gt;Node23</title>
<g id="a_edge49_Node000001_Node000023"><a xlink:title=" ">
<path fill="none" stroke="#63b8ff" d="M903.81,-230.75C903.81,-223.8 903.81,-213.85 903.81,-205.13"/>
<polygon fill="#63b8ff" stroke="#63b8ff" points="907.31,-205.09 903.81,-195.09 900.31,-205.09 907.31,-205.09"/>
</a>
</g>
</g>
<!-- Node24 -->
<g id="Node000024" class="node">
<title>Node24</title>
<g id="a_Node000024"><a xlink:title=" ">
<polygon fill="#e0e0e0" stroke="#999999" points="1013.81,-195 949.81,-195 949.81,-176 1013.81,-176 1013.81,-195"/>
<text text-anchor="middle" x="981.81" y="-183" font-family="Helvetica,sans-Serif" font-size="10.00">algorithm</text>
</a>
</g>
</g>
<!-- Node1&#45;&gt;Node24 -->
<g id="edge50_Node000001_Node000024" class="edge">
<title>Node1&#45;&gt;Node24</title>
<g id="a_edge50_Node000001_Node000024"><a xlink:title=" ">
<path fill="none" stroke="#63b8ff" d="M916.34,-230.98C928.21,-222.92 946.28,-210.65 960.42,-201.03"/>
<polygon fill="#63b8ff" stroke="#63b8ff" points="962.75,-203.69 969.05,-195.17 958.81,-197.9 962.75,-203.69"/>
</a>
</g>
</g>
<!-- Node25 -->
<g id="Node000025" class="node">
<title>Node25</title>
<g id="a_Node000025"><a xlink:title=" ">
<polygon fill="#e0e0e0" stroke="#999999" points="1087.81,-195 1031.81,-195 1031.81,-176 1087.81,-176 1087.81,-195"/>
<text text-anchor="middle" x="1059.81" y="-183" font-family="Helvetica,sans-Serif" font-size="10.00">iomanip</text>
</a>
</g>
</g>
<!-- Node1&#45;&gt;Node25 -->
<g id="edge51_Node000001_Node000025" class="edge">
<title>Node1&#45;&gt;Node25</title>
<g id="a_edge51_Node000001_Node000025"><a xlink:title=" ">
<path fill="none" stroke="#63b8ff" d="M928.88,-230.98C954.84,-222.16 995.62,-208.31 1024.77,-198.41"/>
<polygon fill="#63b8ff" stroke="#63b8ff" points="1026.21,-201.61 1034.55,-195.08 1023.96,-194.99 1026.21,-201.61"/>
</a>
</g>
</g>
<!-- Node26 -->
<g id="Node000026" class="node">
<title>Node26</title>
<g id="a_Node000026"><a xlink:title=" ">
<polygon fill="#e0e0e0" stroke="#999999" points="1213.31,-195 1106.31,-195 1106.31,-176 1213.31,-176 1213.31,-195"/>
<text text-anchor="middle" x="1159.81" y="-183" font-family="Helvetica,sans-Serif" font-size="10.00">condition_variable</text>
</a>
</g>
</g>
<!-- Node1&#45;&gt;Node26 -->
<g id="edge52_Node000001_Node000026" class="edge">
<title>Node1&#45;&gt;Node26</title>
<g id="a_edge52_Node000001_Node000026"><a xlink:title=" ">
<path fill="none" stroke="#63b8ff" d="M944.94,-230.98C989.41,-221.78 1060.36,-207.09 1108.46,-197.13"/>
<polygon fill="#63b8ff" stroke="#63b8ff" points="1109.28,-200.54 1118.36,-195.08 1107.86,-193.68 1109.28,-200.54"/>
</a>
</g>
</g>
<!-- Node3 -->
<g id="Node000003" class="node">
<title>Node3</title>
<g id="a_Node000003"><a xlink:href="monitoring__interface_8h.html" target="_top" xlink:title="Abstract interface for monitoring and metrics collection.">
<polygon fill="white" stroke="#666666" points="594.31,-140 459.31,-140 459.31,-110 594.31,-110 594.31,-140"/>
<text text-anchor="start" x="467.31" y="-128" font-family="Helvetica,sans-Serif" font-size="10.00">../monitoring/monitoring</text>
<text text-anchor="middle" x="526.81" y="-117" font-family="Helvetica,sans-Serif" font-size="10.00">_interface.h</text>
</a>
</g>
</g>
<!-- Node2&#45;&gt;Node3 -->
<g id="edge2_Node000002_Node000003" class="edge">
<title>Node2&#45;&gt;Node3</title>
<g id="a_edge2_Node000002_Node000003"><a xlink:title=" ">
<path fill="none" stroke="#63b8ff" d="M444.98,-175.87C458,-167.93 477.79,-155.87 494.65,-145.6"/>
<polygon fill="#63b8ff" stroke="#63b8ff" points="496.93,-148.31 503.65,-140.11 493.29,-142.33 496.93,-148.31"/>
</a>
</g>
</g>
<!-- Node4 -->
<g id="Node000004" class="node">
<title>Node4</title>
<g id="a_Node000004"><a xlink:title=" ">
<polygon fill="#e0e0e0" stroke="#999999" points="958.81,-19 914.81,-19 914.81,0 958.81,0 958.81,-19"/>
<text text-anchor="middle" x="936.81" y="-7" font-family="Helvetica,sans-Serif" font-size="10.00">string</text>
</a>
</g>
</g>
<!-- Node2&#45;&gt;Node4 -->
<g id="edge24_Node000002_Node000004" class="edge">
<title>Node2&#45;&gt;Node4</title>
<g id="a_edge24_Node000002_Node000004"><a xlink:title=" ">
<path fill="none" stroke="#63b8ff" d="M496.32,-182.71C665.34,-177.76 1104.46,-162.76 1125.81,-140 1179.93,-82.31 1035.92,-36.1 968.94,-18.35"/>
<polygon fill="#63b8ff" stroke="#63b8ff" points="969.45,-14.87 958.9,-15.75 967.7,-21.65 969.45,-14.87"/>
</a>
</g>
</g>
<!-- Node5 -->
<g id="Node000005" class="node">
<title>Node5</title>
<g id="a_Node000005"><a xlink:title=" ">
<polygon fill="#e0e0e0" stroke="#999999" points="484.31,-74 391.31,-74 391.31,-55 484.31,-55 484.31,-74"/>
<text text-anchor="middle" x="437.81" y="-62" font-family="Helvetica,sans-Serif" font-size="10.00">unordered_map</text>
</a>
</g>
</g>
<!-- Node2&#45;&gt;Node5 -->
<g id="edge17_Node000002_Node000005" class="edge">
<title>Node2&#45;&gt;Node5</title>
<g id="a_edge17_Node000002_Node000005"><a xlink:title=" ">
<path fill="none" stroke="#63b8ff" d="M431.31,-175.94C432.43,-156.91 435.15,-110.69 436.7,-84.47"/>
<polygon fill="#63b8ff" stroke="#63b8ff" points="440.2,-84.49 437.29,-74.3 433.21,-84.08 440.2,-84.49"/>
</a>
</g>
</g>
<!-- Node6 -->
<g id="Node000006" class="node">
<title>Node6</title>
<g id="a_Node000006"><a xlink:title=" ">
<polygon fill="#e0e0e0" stroke="#999999" points="373.31,-74 326.31,-74 326.31,-55 373.31,-55 373.31,-74"/>
<text text-anchor="middle" x="349.81" y="-62" font-family="Helvetica,sans-Serif" font-size="10.00">vector</text>
</a>
</g>
</g>
<!-- Node2&#45;&gt;Node6 -->
<g id="edge16_Node000002_Node000006" class="edge">
<title>Node2&#45;&gt;Node6</title>
<g id="a_edge16_Node000002_Node000006"><a xlink:title=" ">
<path fill="none" stroke="#63b8ff" d="M424.99,-175.94C411.74,-156.48 379.15,-108.6 361.55,-82.74"/>
<polygon fill="#63b8ff" stroke="#63b8ff" points="364.32,-80.6 355.8,-74.3 358.54,-84.54 364.32,-80.6"/>
</a>
</g>
</g>
<!-- Node7 -->
<g id="Node000007" class="node">
<title>Node7</title>
<g id="a_Node000007"><a xlink:title=" ">
<polygon fill="#e0e0e0" stroke="#999999" points="870.81,-74 820.81,-74 820.81,-55 870.81,-55 870.81,-74"/>
<text text-anchor="middle" x="845.81" y="-62" font-family="Helvetica,sans-Serif" font-size="10.00">chrono</text>
</a>
</g>
</g>
<!-- Node2&#45;&gt;Node7 -->
<g id="edge22_Node000002_Node000007" class="edge">
<title>Node2&#45;&gt;Node7</title>
<g id="a_edge22_Node000002_Node000007"><a xlink:title=" ">
<path fill="none" stroke="#63b8ff" d="M496.52,-180.72C554.71,-175.84 641.28,-164.79 712.81,-140 755.57,-125.18 800.55,-96.92 825.7,-79.78"/>
<polygon fill="#63b8ff" stroke="#63b8ff" points="827.8,-82.59 834.03,-74.02 823.82,-76.83 827.8,-82.59"/>
</a>
</g>
</g>
<!-- Node8 -->
<g id="Node000008" class="node">
<title>Node8</title>
<g id="a_Node000008"><a xlink:title=" ">
<polygon fill="#e0e0e0" stroke="#999999" points="307.81,-74 257.81,-74 257.81,-55 307.81,-55 307.81,-74"/>
<text text-anchor="middle" x="282.81" y="-62" font-family="Helvetica,sans-Serif" font-size="10.00">atomic</text>
</a>
</g>
</g>
<!-- Node2&#45;&gt;Node8 -->
<g id="edge19_Node000002_Node000008" class="edge">
<title>Node2&#45;&gt;Node8</title>
<g id="a_edge19_Node000002_Node000008"><a xlink:title=" ">
<path fill="none" stroke="#63b8ff" d="M365.29,-178.24C315.14,-171.94 251.91,-160.19 235.81,-140 220.36,-120.63 243.3,-95.94 262.21,-80.42"/>
<polygon fill="#63b8ff" stroke="#63b8ff" points="264.48,-83.09 270.21,-74.18 260.18,-77.57 264.48,-83.09"/>
</a>
</g>
</g>
<!-- Node9 -->
<g id="Node000009" class="node">
<title>Node9</title>
<g id="a_Node000009"><a xlink:href="error__codes_8h.html" target="_top" xlink:title=" ">
<polygon fill="white" stroke="#666666" points="726.81,-74 634.81,-74 634.81,-55 726.81,-55 726.81,-74"/>
<text text-anchor="middle" x="680.81" y="-62" font-family="Helvetica,sans-Serif" font-size="10.00">../error_codes.h</text>
</a>
</g>
</g>
<!-- Node2&#45;&gt;Node9 -->
<g id="edge14_Node000002_Node000009" class="edge">
<title>Node2&#45;&gt;Node9</title>
<g id="a_edge14_Node000002_Node000009"><a xlink:title=" ">
<path fill="none" stroke="#63b8ff" d="M494.59,-175.96C528.33,-169.53 569.53,-158.52 602.81,-140 629.43,-125.19 653.71,-99.13 667.88,-82.09"/>
<polygon fill="#63b8ff" stroke="#63b8ff" points="670.76,-84.08 674.32,-74.11 665.32,-79.69 670.76,-84.08"/>
</a>
</g>
</g>
<!-- Node12 -->
<g id="Node000012" class="node">
<title>Node12</title>
<g id="a_Node000012"><a xlink:title=" ">
<polygon fill="#e0e0e0" stroke="#999999" points="814.81,-19 758.81,-19 758.81,0 814.81,0 814.81,-19"/>
<text text-anchor="middle" x="786.81" y="-7" font-family="Helvetica,sans-Serif" font-size="10.00">optional</text>
</a>
</g>
</g>
<!-- Node2&#45;&gt;Node12 -->
<g id="edge23_Node000002_Node000012" class="edge">
<title>Node2&#45;&gt;Node12</title>
<g id="a_edge23_Node000002_Node000012"><a xlink:title=" ">
<path fill="none" stroke="#63b8ff" d="M496.39,-176.57C537.58,-170.08 591.17,-158.8 635.81,-140 684.89,-119.33 696.44,-109.86 735.81,-74 751.27,-59.92 765.89,-40.92 775.48,-27.38"/>
<polygon fill="#63b8ff" stroke="#63b8ff" points="778.46,-29.22 781.26,-19.01 772.7,-25.24 778.46,-29.22"/>
</a>
</g>
</g>
<!-- Node14 -->
<g id="Node000014" class="node">
<title>Node14</title>
<g id="a_Node000014"><a xlink:title=" ">
<polygon fill="#e0e0e0" stroke="#999999" points="258.81,-19 200.81,-19 200.81,0 258.81,0 258.81,-19"/>
<text text-anchor="middle" x="229.81" y="-7" font-family="Helvetica,sans-Serif" font-size="10.00">memory</text>
</a>
</g>
</g>
<!-- Node2&#45;&gt;Node14 -->
<g id="edge15_Node000002_Node000014" class="edge">
<title>Node2&#45;&gt;Node14</title>
<g id="a_edge15_Node000002_Node000014"><a xlink:title=" ">
<path fill="none" stroke="#63b8ff" d="M365.23,-176.37C322.52,-169.72 266.15,-158.35 218.81,-140 164.94,-119.12 135.48,-124.17 106.81,-74 86.56,-38.55 147.35,-22.19 190.54,-15.19"/>
<polygon fill="#63b8ff" stroke="#63b8ff" points="191.17,-18.63 200.54,-13.68 190.13,-11.71 191.17,-18.63"/>
</a>
</g>
</g>
<!-- Node15 -->
<g id="Node000015" class="node">
<title>Node15</title>
<g id="a_Node000015"><a xlink:title=" ">
<polygon fill="#e0e0e0" stroke="#999999" points="163.81,-74 115.81,-74 115.81,-55 163.81,-55 163.81,-74"/>
<text text-anchor="middle" x="139.81" y="-62" font-family="Helvetica,sans-Serif" font-size="10.00">thread</text>
</a>
</g>
</g>
<!-- Node2&#45;&gt;Node15 -->
<g id="edge18_Node000002_Node000015" class="edge">
<title>Node2&#45;&gt;Node15</title>
<g id="a_edge18_Node000002_Node000015"><a xlink:title=" ">
<path fill="none" stroke="#63b8ff" d="M365.2,-182.33C252.34,-177.92 31.25,-166.03 7.81,-140 -24.41,-104.21 56.87,-81.52 105.86,-71.49"/>
<polygon fill="#63b8ff" stroke="#63b8ff" points="106.63,-74.91 115.77,-69.54 105.28,-68.04 106.63,-74.91"/>
</a>
</g>
</g>
<!-- Node16 -->
<g id="Node000016" class="node">
<title>Node16</title>
<g id="a_Node000016"><a xlink:title=" ">
<polygon fill="#e0e0e0" stroke="#999999" points="440.81,-19 392.81,-19 392.81,0 440.81,0 440.81,-19"/>
<text text-anchor="middle" x="416.81" y="-7" font-family="Helvetica,sans-Serif" font-size="10.00">mutex</text>
</a>
</g>
</g>
<!-- Node2&#45;&gt;Node16 -->
<g id="edge20_Node000002_Node000016" class="edge">
<title>Node2&#45;&gt;Node16</title>
<g id="a_edge20_Node000002_Node000016"><a xlink:title=" ">
<path fill="none" stroke="#63b8ff" d="M365.2,-179C312.32,-173.04 244.04,-161.39 226.81,-140 208.81,-117.65 247.55,-56.12 248.81,-55 286.03,-22.05 344.92,-13.08 382.17,-10.87"/>
<polygon fill="#63b8ff" stroke="#63b8ff" points="382.7,-14.35 392.53,-10.4 382.38,-7.36 382.7,-14.35"/>
</a>
</g>
</g>
<!-- Node17 -->
<g id="Node000017" class="node">
<title>Node17</title>
<g id="a_Node000017"><a xlink:title=" ">
<polygon fill="#e0e0e0" stroke="#999999" points="82.31,-134.5 17.31,-134.5 17.31,-115.5 82.31,-115.5 82.31,-134.5"/>
<text text-anchor="middle" x="49.81" y="-122.5" font-family="Helvetica,sans-Serif" font-size="10.00">functional</text>
</a>
</g>
</g>
<!-- Node2&#45;&gt;Node17 -->
<g id="edge21_Node000002_Node000017" class="edge">
<title>Node2&#45;&gt;Node17</title>
<g id="a_edge21_Node000002_Node000017"><a xlink:title=" ">
<path fill="none" stroke="#63b8ff" d="M365.01,-178.81C297.27,-172.24 188.91,-159.72 96.81,-140 93.18,-139.22 89.43,-138.31 85.7,-137.32"/>
<polygon fill="#63b8ff" stroke="#63b8ff" points="86.55,-133.92 75.97,-134.58 84.65,-140.66 86.55,-133.92"/>
</a>
</g>
</g>
<!-- Node3&#45;&gt;Node4 -->
<g id="edge3_Node000003_Node000004" class="edge">
<title>Node3&#45;&gt;Node4</title>
<g id="a_edge3_Node000003_Node000004"><a xlink:title=" ">
<path fill="none" stroke="#63b8ff" d="M590.68,-109.96C632.22,-100.53 687.45,-87.4 735.81,-74 796.15,-57.27 865.63,-34.54 905.07,-21.3"/>
<polygon fill="#63b8ff" stroke="#63b8ff" points="906.3,-24.58 914.66,-18.07 904.06,-17.94 906.3,-24.58"/>
</a>
</g>
</g>
<!-- Node3&#45;&gt;Node5 -->
<g id="edge4_Node000003_Node000005" class="edge">
<title>Node3&#45;&gt;Node5</title>
<g id="a_edge4_Node000003_Node000005"><a xlink:title=" ">
<path fill="none" stroke="#63b8ff" d="M505.27,-109.84C491.34,-100.68 473.28,-88.82 459.36,-79.66"/>
<polygon fill="#63b8ff" stroke="#63b8ff" points="461.17,-76.66 450.89,-74.09 457.32,-82.51 461.17,-76.66"/>
</a>
</g>
</g>
<!-- Node3&#45;&gt;Node6 -->
<g id="edge5_Node000003_Node000006" class="edge">
<title>Node3&#45;&gt;Node6</title>
<g id="a_edge5_Node000003_Node000006"><a xlink:title=" ">
<path fill="none" stroke="#63b8ff" d="M484.42,-109.99C453.31,-99.71 411.66,-85.94 382.97,-76.46"/>
<polygon fill="#63b8ff" stroke="#63b8ff" points="384,-73.11 373.4,-73.3 381.8,-79.76 384,-73.11"/>
</a>
</g>
</g>
<!-- Node3&#45;&gt;Node7 -->
<g id="edge6_Node000003_Node000007" class="edge">
<title>Node3&#45;&gt;Node7</title>
<g id="a_edge6_Node000003_Node000007"><a xlink:title=" ">
<path fill="none" stroke="#63b8ff" d="M594.56,-112.64C651.35,-102.94 734.52,-88.33 806.81,-74 808.07,-73.75 809.36,-73.49 810.65,-73.23"/>
<polygon fill="#63b8ff" stroke="#63b8ff" points="811.6,-76.61 820.67,-71.13 810.16,-69.75 811.6,-76.61"/>
</a>
</g>
</g>
<!-- Node3&#45;&gt;Node8 -->
<g id="edge7_Node000003_Node000008" class="edge">
<title>Node3&#45;&gt;Node8</title>
<g id="a_edge7_Node000003_Node000008"><a xlink:title=" ">
<path fill="none" stroke="#63b8ff" d="M467.03,-109.95C427.28,-100.57 373.67,-87.84 317.78,-74.22"/>
<polygon fill="#63b8ff" stroke="#63b8ff" points="318.6,-70.81 308.05,-71.84 316.94,-77.62 318.6,-70.81"/>
</a>
</g>
</g>
<!-- Node3&#45;&gt;Node9 -->
<g id="edge8_Node000003_Node000009" class="edge">
<title>Node3&#45;&gt;Node9</title>
<g id="a_edge8_Node000003_Node000009"><a xlink:title=" ">
<path fill="none" stroke="#63b8ff" d="M563.7,-109.99C589.51,-100.18 623.66,-87.21 648.42,-77.81"/>
<polygon fill="#63b8ff" stroke="#63b8ff" points="649.96,-80.96 658.07,-74.14 647.48,-74.42 649.96,-80.96"/>
</a>
</g>
</g>
<!-- Node9&#45;&gt;Node4 -->
<g id="edge9_Node000009_Node000004" class="edge">
<title>Node9&#45;&gt;Node4</title>
<g id="a_edge9_Node000009_Node000004"><a xlink:title=" ">
<path fill="none" stroke="#63b8ff" d="M721.94,-54.98C772.82,-44.45 858.36,-26.74 904.68,-17.15"/>
<polygon fill="#63b8ff" stroke="#63b8ff" points="905.67,-20.52 914.76,-15.07 904.25,-13.67 905.67,-20.52"/>
</a>
</g>
</g>
<!-- Node10 -->
<g id="Node000010" class="node">
<title>Node10</title>
<g id="a_Node000010"><a xlink:title=" ">
<polygon fill="#e0e0e0" stroke="#999999" points="608.31,-19 543.31,-19 543.31,0 608.31,0 608.31,-19"/>
<text text-anchor="middle" x="575.81" y="-7" font-family="Helvetica,sans-Serif" font-size="10.00">stdexcept</text>
</a>
</g>
</g>
<!-- Node9&#45;&gt;Node10 -->
<g id="edge10_Node000009_Node000010" class="edge">
<title>Node9&#45;&gt;Node10</title>
<g id="a_edge10_Node000009_Node000010"><a xlink:title=" ">
<path fill="none" stroke="#63b8ff" d="M663.94,-54.98C647.2,-46.54 621.31,-33.47 601.92,-23.68"/>
<polygon fill="#63b8ff" stroke="#63b8ff" points="603.49,-20.55 592.99,-19.17 600.34,-26.8 603.49,-20.55"/>
</a>
</g>
</g>
<!-- Node11 -->
<g id="Node000011" class="node">
<title>Node11</title>
<g id="a_Node000011"><a xlink:title=" ">
<polygon fill="#e0e0e0" stroke="#999999" points="671.31,-19 626.31,-19 626.31,0 671.31,0 671.31,-19"/>
<text text-anchor="middle" x="648.81" y="-7" font-family="Helvetica,sans-Serif" font-size="10.00">utility</text>
</a>
</g>
</g>
<!-- Node9&#45;&gt;Node11 -->
<g id="edge11_Node000009_Node000011" class="edge">
<title>Node9&#45;&gt;Node11</title>
<g id="a_edge11_Node000009_Node000011"><a xlink:title=" ">
<path fill="none" stroke="#63b8ff" d="M675.53,-54.75C671.1,-47.42 664.65,-36.73 659.19,-27.7"/>
<polygon fill="#63b8ff" stroke="#63b8ff" points="662.16,-25.84 654,-19.09 656.17,-29.46 662.16,-25.84"/>
</a>
</g>
</g>
<!-- Node9&#45;&gt;Node12 -->
<g id="edge12_Node000009_Node000012" class="edge">
<title>Node9&#45;&gt;Node12</title>
<g id="a_edge12_Node000009_Node000012"><a xlink:title=" ">
<path fill="none" stroke="#63b8ff" d="M697.84,-54.98C714.74,-46.54 740.88,-33.47 760.46,-23.68"/>
<polygon fill="#63b8ff" stroke="#63b8ff" points="762.09,-26.77 769.47,-19.17 758.96,-20.51 762.09,-26.77"/>
</a>
</g>
</g>
<!-- Node13 -->
<g id="Node000013" class="node">
<title>Node13</title>
<g id="a_Node000013"><a xlink:title=" ">
<polygon fill="#e0e0e0" stroke="#999999" points="740.31,-19 689.31,-19 689.31,0 740.31,0 740.31,-19"/>
<text text-anchor="middle" x="714.81" y="-7" font-family="Helvetica,sans-Serif" font-size="10.00">variant</text>
</a>
</g>
</g>
<!-- Node9&#45;&gt;Node13 -->
<g id="edge13_Node000009_Node000013" class="edge">
<title>Node9&#45;&gt;Node13</title>
<g id="a_edge13_Node000009_Node000013"><a xlink:title=" ">
<path fill="none" stroke="#63b8ff" d="M686.43,-54.75C691.13,-47.42 697.98,-36.73 703.78,-27.7"/>
<polygon fill="#63b8ff" stroke="#63b8ff" points="706.85,-29.4 709.3,-19.09 700.96,-25.62 706.85,-29.4"/>
</a>
</g>
</g>
<!-- Node18&#45;&gt;Node4 -->
<g id="edge26_Node000018_Node000004" class="edge">
<title>Node18&#45;&gt;Node4</title>
<g id="a_edge26_Node000018_Node000004"><a xlink:title=" ">
<path fill="none" stroke="#63b8ff" d="M857.96,-176.95C962.35,-164.62 1157.57,-141.4 1158.81,-140 1183.86,-111.72 1182.76,-84.22 1158.81,-55 1135.17,-26.15 1024.59,-15.62 968.95,-12.1"/>
<polygon fill="#63b8ff" stroke="#63b8ff" points="969.11,-8.6 958.92,-11.51 968.69,-15.59 969.11,-8.6"/>
</a>
</g>
</g>
<!-- Node18&#45;&gt;Node7 -->
<g id="edge27_Node000018_Node000007" class="edge">
<title>Node18&#45;&gt;Node7</title>
<g id="a_edge27_Node000018_Node000007"><a xlink:title=" ">
<path fill="none" stroke="#63b8ff" d="M797.55,-175.94C805.94,-156.74 826.43,-109.86 837.83,-83.77"/>
<polygon fill="#63b8ff" stroke="#63b8ff" points="841.17,-84.87 841.97,-74.3 834.75,-82.06 841.17,-84.87"/>
</a>
</g>
</g>
<!-- Node18&#45;&gt;Node9 -->
<g id="edge32_Node000018_Node000009" class="edge">
<title>Node18&#45;&gt;Node9</title>
<g id="a_edge32_Node000018_Node000009"><a xlink:title=" ">
<path fill="none" stroke="#63b8ff" d="M785.68,-175.94C766.96,-156.23 720.54,-107.34 696.22,-81.73"/>
<polygon fill="#63b8ff" stroke="#63b8ff" points="698.59,-79.14 689.17,-74.3 693.52,-83.96 698.59,-79.14"/>
</a>
</g>
</g>
<!-- Node19 -->
<g id="Node000019" class="node">
<title>Node19</title>
<g id="a_Node000019"><a xlink:href="logger__interface_8h.html" target="_top" xlink:title=" ">
<polygon fill="white" stroke="#666666" points="616.81,-74 502.81,-74 502.81,-55 616.81,-55 616.81,-74"/>
<text text-anchor="middle" x="559.81" y="-62" font-family="Helvetica,sans-Serif" font-size="10.00">../logger_interface.h</text>
</a>
</g>
</g>
<!-- Node18&#45;&gt;Node19 -->
<g id="edge28_Node000018_Node000019" class="edge">
<title>Node18&#45;&gt;Node19</title>
<g id="a_edge28_Node000018_Node000019"><a xlink:title=" ">
<path fill="none" stroke="#63b8ff" d="M776.98,-175.94C736.69,-155.45 634.43,-103.45 586.01,-78.82"/>
<polygon fill="#63b8ff" stroke="#63b8ff" points="587.3,-75.55 576.8,-74.14 584.13,-81.79 587.3,-75.55"/>
</a>
</g>
</g>
<!-- Node20 -->
<g id="Node000020" class="node">
<title>Node20</title>
<g id="a_Node000020"><a xlink:href="log__writer__interface_8h.html" target="_top" xlink:title=" ">
<polygon fill="white" stroke="#666666" points="1116.81,-140 990.81,-140 990.81,-110 1116.81,-110 1116.81,-140"/>
<text text-anchor="start" x="998.81" y="-128" font-family="Helvetica,sans-Serif" font-size="10.00">../interfaces/log_writer</text>
<text text-anchor="middle" x="1053.81" y="-117" font-family="Helvetica,sans-Serif" font-size="10.00">_interface.h</text>
</a>
</g>
</g>
<!-- Node18&#45;&gt;Node20 -->
<g id="edge33_Node000018_Node000020" class="edge">
<title>Node18&#45;&gt;Node20</title>
<g id="a_edge33_Node000018_Node000020"><a xlink:title=" ">
<path fill="none" stroke="#63b8ff" d="M831.62,-175.99C870.82,-167.17 933.06,-153.17 981.71,-142.22"/>
<polygon fill="#63b8ff" stroke="#63b8ff" points="982.57,-145.62 991.56,-140.01 981.03,-138.79 982.57,-145.62"/>
</a>
</g>
</g>
<!-- Node21 -->
<g id="Node000021" class="node">
<title>Node21</title>
<g id="a_Node000021"><a xlink:href="log__entry_8h.html" target="_top" xlink:title=" ">
<polygon fill="white" stroke="#666666" points="972.31,-134.5 841.31,-134.5 841.31,-115.5 972.31,-115.5 972.31,-134.5"/>
<text text-anchor="middle" x="906.81" y="-122.5" font-family="Helvetica,sans-Serif" font-size="10.00">../interfaces/log_entry.h</text>
</a>
</g>
</g>
<!-- Node18&#45;&gt;Node21 -->
<g id="edge37_Node000018_Node000021" class="edge">
<title>Node18&#45;&gt;Node21</title>
<g id="a_edge37_Node000018_Node000021"><a xlink:title=" ">
<path fill="none" stroke="#63b8ff" d="M810.49,-175.87C829.1,-166.23 859.44,-150.53 881.09,-139.31"/>
<polygon fill="#63b8ff" stroke="#63b8ff" points="882.8,-142.37 890.07,-134.67 879.58,-136.16 882.8,-142.37"/>
</a>
</g>
</g>
<!-- Node19&#45;&gt;Node4 -->
<g id="edge31_Node000019_Node000004" class="edge">
<title>Node19&#45;&gt;Node4</title>
<g id="a_edge31_Node000019_Node000004"><a xlink:title=" ">
<path fill="none" stroke="#63b8ff" d="M617.07,-55.45C697.29,-44.17 840.48,-24.04 904.42,-15.05"/>
<polygon fill="#63b8ff" stroke="#63b8ff" points="905.28,-18.47 914.7,-13.61 904.31,-11.54 905.28,-18.47"/>
</a>
</g>
</g>
<!-- Node19&#45;&gt;Node14 -->
<g id="edge29_Node000019_Node000014" class="edge">
<title>Node19&#45;&gt;Node14</title>
<g id="a_edge29_Node000019_Node000014"><a xlink:title=" ">
<path fill="none" stroke="#63b8ff" d="M506.79,-54.98C440.45,-44.33 328.37,-26.33 269.17,-16.82"/>
<polygon fill="#63b8ff" stroke="#63b8ff" points="269.53,-13.33 259.1,-15.2 268.42,-20.25 269.53,-13.33"/>
</a>
</g>
</g>
<!-- Node19&#45;&gt;Node16 -->
<g id="edge30_Node000019_Node000016" class="edge">
<title>Node19&#45;&gt;Node16</title>
<g id="a_edge30_Node000019_Node000016"><a xlink:title=" ">
<path fill="none" stroke="#63b8ff" d="M536.84,-54.98C513.31,-46.27 476.52,-32.63 449.87,-22.75"/>
<polygon fill="#63b8ff" stroke="#63b8ff" points="450.8,-19.36 440.2,-19.17 448.37,-25.93 450.8,-19.36"/>
</a>
</g>
</g>
<!-- Node20&#45;&gt;Node4 -->
<g id="edge34_Node000020_Node000004" class="edge">
<title>Node20&#45;&gt;Node4</title>
<g id="a_edge34_Node000020_Node000004"><a xlink:title=" ">
<path fill="none" stroke="#63b8ff" d="M1038.99,-109.63C1016.99,-88.28 975.84,-48.36 953.04,-26.25"/>
<polygon fill="#63b8ff" stroke="#63b8ff" points="955.42,-23.68 945.81,-19.23 950.55,-28.7 955.42,-23.68"/>
</a>
</g>
</g>
<!-- Node20&#45;&gt;Node7 -->
<g id="edge35_Node000020_Node000007" class="edge">
<title>Node20&#45;&gt;Node7</title>
<g id="a_edge35_Node000020_Node000007"><a xlink:title=" ">
<path fill="none" stroke="#63b8ff" d="M1003.99,-109.99C965.98,-99.3 914.57,-84.84 880.82,-75.35"/>
<polygon fill="#63b8ff" stroke="#63b8ff" points="881.52,-71.91 870.95,-72.57 879.62,-78.65 881.52,-71.91"/>
</a>
</g>
</g>
<!-- Node20&#45;&gt;Node9 -->
<g id="edge36_Node000020_Node000009" class="edge">
<title>Node20&#45;&gt;Node9</title>
<g id="a_edge36_Node000020_Node000009"><a xlink:title=" ">
<path fill="none" stroke="#63b8ff" d="M990.63,-111.55C987.65,-111.01 984.7,-110.49 981.81,-110 896.78,-95.46 797.75,-81.36 737.18,-73.06"/>
<polygon fill="#63b8ff" stroke="#63b8ff" points="737.45,-69.56 727.07,-71.68 736.5,-76.5 737.45,-69.56"/>
</a>
</g>
</g>
<!-- Node21&#45;&gt;Node4 -->
<g id="edge38_Node000021_Node000004" class="edge">
<title>Node21&#45;&gt;Node4</title>
<g id="a_edge38_Node000021_Node000004"><a xlink:title=" ">
<path fill="none" stroke="#63b8ff" d="M909.07,-115.47C913.91,-97.15 925.4,-53.68 931.97,-28.81"/>
<polygon fill="#63b8ff" stroke="#63b8ff" points="935.36,-29.69 934.53,-19.13 928.59,-27.9 935.36,-29.69"/>
</a>
</g>
</g>
<!-- Node21&#45;&gt;Node7 -->
<g id="edge39_Node000021_Node000007" class="edge">
<title>Node21&#45;&gt;Node7</title>
<g id="a_edge39_Node000021_Node000007"><a xlink:title=" ">
<path fill="none" stroke="#63b8ff" d="M897.81,-115.37C888.44,-106.38 873.56,-92.11 862.11,-81.14"/>
<polygon fill="#63b8ff" stroke="#63b8ff" points="864.49,-78.56 854.85,-74.17 859.64,-83.62 864.49,-78.56"/>
</a>
</g>
</g>
<!-- Node21&#45;&gt;Node12 -->
<g id="edge40_Node000021_Node000012" class="edge">
<title>Node21&#45;&gt;Node12</title>
<g id="a_edge40_Node000021_Node000012"><a xlink:title=" ">
<path fill="none" stroke="#63b8ff" d="M905.51,-115.28C902.97,-101.01 896.1,-72.53 879.81,-55 864.97,-39.03 843.21,-28.19 824.46,-21.2"/>
<polygon fill="#63b8ff" stroke="#63b8ff" points="825.59,-17.89 814.99,-17.9 823.28,-24.5 825.59,-17.89"/>
</a>
</g>
</g>
<!-- Node21&#45;&gt;Node19 -->
<g id="edge41_Node000021_Node000019" class="edge">
<title>Node21&#45;&gt;Node19</title>
<g id="a_edge41_Node000021_Node000019"><a xlink:title=" ">
<path fill="none" stroke="#63b8ff" d="M856.35,-115.49C793.78,-104.94 687.21,-86.98 620.31,-75.7"/>
<polygon fill="#63b8ff" stroke="#63b8ff" points="620.77,-72.23 610.33,-74.02 619.61,-79.13 620.77,-72.23"/>
</a>
</g>
</g>
<!-- Node22&#45;&gt;Node6 -->
<g id="edge45_Node000022_Node000006" class="edge">
<title>Node22&#45;&gt;Node6</title>
<g id="a_edge45_Node000022_Node000006"><a xlink:title=" ">
<path fill="none" stroke="#63b8ff" d="M311.45,-115.37C318.1,-106.73 328.5,-93.2 336.8,-82.42"/>
<polygon fill="#63b8ff" stroke="#63b8ff" points="339.82,-84.23 343.14,-74.17 334.27,-79.96 339.82,-84.23"/>
</a>
</g>
</g>
<!-- Node22&#45;&gt;Node7 -->
<g id="edge48_Node000022_Node000007" class="edge">
<title>Node22&#45;&gt;Node7</title>
<g id="a_edge48_Node000022_Node000007"><a xlink:title=" ">
<path fill="none" stroke="#63b8ff" d="M365.04,-117.49C478.43,-105.23 720.32,-79.07 810.74,-69.29"/>
<polygon fill="#63b8ff" stroke="#63b8ff" points="811.19,-72.76 820.75,-68.21 810.44,-65.8 811.19,-72.76"/>
</a>
</g>
</g>
<!-- Node22&#45;&gt;Node8 -->
<g id="edge47_Node000022_Node000008" class="edge">
<title>Node22&#45;&gt;Node8</title>
<g id="a_edge47_Node000022_Node000008"><a xlink:title=" ">
<path fill="none" stroke="#63b8ff" d="M301.57,-115.37C298.45,-107.07 293.63,-94.28 289.66,-83.72"/>
<polygon fill="#63b8ff" stroke="#63b8ff" points="292.87,-82.3 286.07,-74.17 286.32,-84.76 292.87,-82.3"/>
</a>
</g>
</g>
<!-- Node22&#45;&gt;Node14 -->
<g id="edge44_Node000022_Node000014" class="edge">
<title>Node22&#45;&gt;Node14</title>
<g id="a_edge44_Node000022_Node000014"><a xlink:title=" ">
<path fill="none" stroke="#63b8ff" d="M291.33,-115.27C278.6,-106.35 259.86,-91.38 248.81,-74 240.13,-60.34 235.25,-42.53 232.62,-29.25"/>
<polygon fill="#63b8ff" stroke="#63b8ff" points="236.06,-28.6 230.9,-19.35 229.16,-29.8 236.06,-28.6"/>
</a>
</g>
</g>
<!-- Node22&#45;&gt;Node15 -->
<g id="edge46_Node000022_Node000015" class="edge">
<title>Node22&#45;&gt;Node15</title>
<g id="a_edge46_Node000022_Node000015"><a xlink:title=" ">
<path fill="none" stroke="#63b8ff" d="M280.82,-115.49C252.59,-105.49 205.54,-88.8 173.62,-77.49"/>
<polygon fill="#63b8ff" stroke="#63b8ff" points="174.43,-74.06 163.83,-74.02 172.09,-80.66 174.43,-74.06"/>
</a>
</g>
</g>
<!-- Node22&#45;&gt;Node19 -->
<g id="edge43_Node000022_Node000019" class="edge">
<title>Node22&#45;&gt;Node19</title>
<g id="a_edge43_Node000022_Node000019"><a xlink:title=" ">
<path fill="none" stroke="#63b8ff" d="M341.89,-115.49C387.12,-105.12 463.63,-87.57 512.91,-76.26"/>
<polygon fill="#63b8ff" stroke="#63b8ff" points="513.72,-79.66 522.69,-74.02 512.16,-72.84 513.72,-79.66"/>
</a>
</g>
</g>
</g>
</svg>
