<?xml version="1.0" encoding="UTF-8" standalone="no"?>
<!DOCTYPE svg PUBLIC "-//W3C//DTD SVG 1.1//EN"
 "http://www.w3.org/Graphics/SVG/1.1/DTD/svg11.dtd">
<!-- Generated by graphviz version 2.43.0 (0)
 -->
<!-- Title: health_check_system.cpp Pages: 1 -->
<svg width="1282pt" height="258pt"
 viewBox="0.00 0.00 1282.00 258.00" xmlns="http://www.w3.org/2000/svg" xmlns:xlink="http://www.w3.org/1999/xlink">
<g id="graph0" class="graph" transform="scale(1 1) rotate(0) translate(4 254)">
<title>health_check_system.cpp</title>
<!-- Node1 -->
<g id="Node000001" class="node">
<title>Node1</title>
<g id="a_Node000001"><a xlink:title=" ">
<polygon fill="#999999" stroke="#666666" points="1036,-250 893,-250 893,-231 1036,-231 1036,-250"/>
<text text-anchor="middle" x="964.5" y="-238" font-family="Helvetica,sans-Serif" font-size="10.00">health_check_system.cpp</text>
</a>
</g>
</g>
<!-- Node2 -->
<g id="Node000002" class="node">
<title>Node2</title>
<g id="a_Node000002"><a xlink:href="health__check__system_8h.html" target="_top" xlink:title=" ">
<polygon fill="white" stroke="#666666" points="880,-195 749,-195 749,-176 880,-176 880,-195"/>
<text text-anchor="middle" x="814.5" y="-183" font-family="Helvetica,sans-Serif" font-size="10.00">health_check_system.h</text>
</a>
</g>
</g>
<!-- Node1&#45;&gt;Node2 -->
<g id="edge1_Node000001_Node000002" class="edge">
<title>Node1&#45;&gt;Node2</title>
<g id="a_edge1_Node000001_Node000002"><a xlink:title=" ">
<path fill="none" stroke="#63b8ff" d="M940.4,-230.98C915.62,-222.23 876.8,-208.51 848.81,-198.62"/>
<polygon fill="#63b8ff" stroke="#63b8ff" points="849.63,-195.2 839.04,-195.17 847.3,-201.8 849.63,-195.2"/>
</a>
</g>
</g>
<!-- Node17 -->
<g id="Node000017" class="node">
<title>Node17</title>
<g id="a_Node000017"><a xlink:href="base__writer_8h.html" target="_top" xlink:title=" ">
<polygon fill="white" stroke="#666666" points="448.5,-195 320.5,-195 320.5,-176 448.5,-176 448.5,-195"/>
<text text-anchor="middle" x="384.5" y="-183" font-family="Helvetica,sans-Serif" font-size="10.00">../writers/base_writer.h</text>
</a>
</g>
</g>
<!-- Node1&#45;&gt;Node17 -->
<g id="edge24_Node000001_Node000017" class="edge">
<title>Node1&#45;&gt;Node17</title>
<g id="a_edge24_Node000001_Node000017"><a xlink:title=" ">
<path fill="none" stroke="#63b8ff" d="M892.8,-232.95C782.29,-222.85 571.39,-203.58 459.14,-193.32"/>
<polygon fill="#63b8ff" stroke="#63b8ff" points="459.19,-189.81 448.92,-192.39 458.56,-196.78 459.19,-189.81"/>
</a>
</g>
</g>
<!-- Node21 -->
<g id="Node000021" class="node">
<title>Node21</title>
<g id="a_Node000021"><a xlink:href="log__collector_8h.html" target="_top" xlink:title=" ">
<polygon fill="white" stroke="#666666" points="1092.5,-134.5 972.5,-134.5 972.5,-115.5 1092.5,-115.5 1092.5,-134.5"/>
<text text-anchor="middle" x="1032.5" y="-122.5" font-family="Helvetica,sans-Serif" font-size="10.00">../core/log_collector.h</text>
</a>
</g>
</g>
<!-- Node1&#45;&gt;Node21 -->
<g id="edge41_Node000001_Node000021" class="edge">
<title>Node1&#45;&gt;Node21</title>
<g id="a_edge41_Node000001_Node000021"><a xlink:title=" ">
<path fill="none" stroke="#63b8ff" d="M952.91,-230.76C938,-218.4 915.37,-195.2 927.5,-176 939.46,-157.06 960.77,-145.15 981.08,-137.73"/>
<polygon fill="#63b8ff" stroke="#63b8ff" points="982.25,-141.03 990.62,-134.53 980.02,-134.39 982.25,-141.03"/>
</a>
</g>
</g>
<!-- Node22 -->
<g id="Node000022" class="node">
<title>Node22</title>
<g id="a_Node000022"><a xlink:title=" ">
<polygon fill="#e0e0e0" stroke="#999999" points="992.5,-195 936.5,-195 936.5,-176 992.5,-176 992.5,-195"/>
<text text-anchor="middle" x="964.5" y="-183" font-family="Helvetica,sans-Serif" font-size="10.00">sstream</text>
</a>
</g>
</g>
<!-- Node1&#45;&gt;Node22 -->
<g id="edge48_Node000001_Node000022" class="edge">
<title>Node1&#45;&gt;Node22</title>
<g id="a_edge48_Node000001_Node000022"><a xlink:title=" ">
<path fill="none" stroke="#63b8ff" d="M964.5,-230.75C964.5,-223.8 964.5,-213.85 964.5,-205.13"/>
<polygon fill="#63b8ff" stroke="#63b8ff" points="968,-205.09 964.5,-195.09 961,-205.09 968,-205.09"/>
</a>
</g>
</g>
<!-- Node23 -->
<g id="Node000023" class="node">
<title>Node23</title>
<g id="a_Node000023"><a xlink:title=" ">
<polygon fill="#e0e0e0" stroke="#999999" points="1074.5,-195 1010.5,-195 1010.5,-176 1074.5,-176 1074.5,-195"/>
<text text-anchor="middle" x="1042.5" y="-183" font-family="Helvetica,sans-Serif" font-size="10.00">algorithm</text>
</a>
</g>
</g>
<!-- Node1&#45;&gt;Node23 -->
<g id="edge49_Node000001_Node000023" class="edge">
<title>Node1&#45;&gt;Node23</title>
<g id="a_edge49_Node000001_Node000023"><a xlink:title=" ">
<path fill="none" stroke="#63b8ff" d="M977.03,-230.98C988.9,-222.92 1006.96,-210.65 1021.11,-201.03"/>
<polygon fill="#63b8ff" stroke="#63b8ff" points="1023.44,-203.69 1029.74,-195.17 1019.5,-197.9 1023.44,-203.69"/>
</a>
</g>
</g>
<!-- Node24 -->
<g id="Node000024" class="node">
<title>Node24</title>
<g id="a_Node000024"><a xlink:title=" ">
<polygon fill="#e0e0e0" stroke="#999999" points="1148.5,-195 1092.5,-195 1092.5,-176 1148.5,-176 1148.5,-195"/>
<text text-anchor="middle" x="1120.5" y="-183" font-family="Helvetica,sans-Serif" font-size="10.00">iomanip</text>
</a>
</g>
</g>
<!-- Node1&#45;&gt;Node24 -->
<g id="edge50_Node000001_Node000024" class="edge">
<title>Node1&#45;&gt;Node24</title>
<g id="a_edge50_Node000001_Node000024"><a xlink:title=" ">
<path fill="none" stroke="#63b8ff" d="M989.56,-230.98C1015.53,-222.16 1056.31,-208.31 1085.46,-198.41"/>
<polygon fill="#63b8ff" stroke="#63b8ff" points="1086.9,-201.61 1095.24,-195.08 1084.65,-194.99 1086.9,-201.61"/>
</a>
</g>
</g>
<!-- Node25 -->
<g id="Node000025" class="node">
<title>Node25</title>
<g id="a_Node000025"><a xlink:title=" ">
<polygon fill="#e0e0e0" stroke="#999999" points="1274,-195 1167,-195 1167,-176 1274,-176 1274,-195"/>
<text text-anchor="middle" x="1220.5" y="-183" font-family="Helvetica,sans-Serif" font-size="10.00">condition_variable</text>
</a>
</g>
</g>
<!-- Node1&#45;&gt;Node25 -->
<g id="edge51_Node000001_Node000025" class="edge">
<title>Node1&#45;&gt;Node25</title>
<g id="a_edge51_Node000001_Node000025"><a xlink:title=" ">
<path fill="none" stroke="#63b8ff" d="M1005.63,-230.98C1050.1,-221.78 1121.05,-207.09 1169.15,-197.13"/>
<polygon fill="#63b8ff" stroke="#63b8ff" points="1169.96,-200.54 1179.05,-195.08 1168.54,-193.68 1169.96,-200.54"/>
</a>
</g>
</g>
<!-- Node3 -->
<g id="Node000003" class="node">
<title>Node3</title>
<g id="a_Node000003"><a xlink:href="monitoring__interface_8h.html" target="_top" xlink:title="Abstract interface for monitoring and metrics collection.">
<polygon fill="white" stroke="#666666" points="680,-140 545,-140 545,-110 680,-110 680,-140"/>
<text text-anchor="start" x="553" y="-128" font-family="Helvetica,sans-Serif" font-size="10.00">../monitoring/monitoring</text>
<text text-anchor="middle" x="612.5" y="-117" font-family="Helvetica,sans-Serif" font-size="10.00">_interface.h</text>
</a>
</g>
</g>
<!-- Node2&#45;&gt;Node3 -->
<g id="edge2_Node000002_Node000003" class="edge">
<title>Node2&#45;&gt;Node3</title>
<g id="a_edge2_Node000002_Node000003"><a xlink:title=" ">
<path fill="none" stroke="#63b8ff" d="M785.13,-175.99C755.29,-167.35 708.29,-153.74 670.85,-142.9"/>
<polygon fill="#63b8ff" stroke="#63b8ff" points="671.64,-139.48 661.06,-140.06 669.7,-146.21 671.64,-139.48"/>
</a>
</g>
</g>
<!-- Node4 -->
<g id="Node000004" class="node">
<title>Node4</title>
<g id="a_Node000004"><a xlink:title=" ">
<polygon fill="#e0e0e0" stroke="#999999" points="426.5,-19 382.5,-19 382.5,0 426.5,0 426.5,-19"/>
<text text-anchor="middle" x="404.5" y="-7" font-family="Helvetica,sans-Serif" font-size="10.00">string</text>
</a>
</g>
</g>
<!-- Node2&#45;&gt;Node4 -->
<g id="edge23_Node000002_Node000004" class="edge">
<title>Node2&#45;&gt;Node4</title>
<g id="a_edge23_Node000002_Node000004"><a xlink:title=" ">
<path fill="none" stroke="#63b8ff" d="M809.24,-175.7C794.36,-151.71 749.36,-84.91 692.5,-55 648.49,-31.85 502.28,-18.02 436.75,-12.84"/>
<polygon fill="#63b8ff" stroke="#63b8ff" points="436.83,-9.34 426.59,-12.06 436.29,-16.31 436.83,-9.34"/>
</a>
</g>
</g>
<!-- Node5 -->
<g id="Node000005" class="node">
<title>Node5</title>
<g id="a_Node000005"><a xlink:title=" ">
<polygon fill="#e0e0e0" stroke="#999999" points="683,-74 590,-74 590,-55 683,-55 683,-74"/>
<text text-anchor="middle" x="636.5" y="-62" font-family="Helvetica,sans-Serif" font-size="10.00">unordered_map</text>
</a>
</g>
</g>
<!-- Node2&#45;&gt;Node5 -->
<g id="edge16_Node000002_Node000005" class="edge">
<title>Node2&#45;&gt;Node5</title>
<g id="a_edge16_Node000002_Node000005"><a xlink:title=" ">
<path fill="none" stroke="#63b8ff" d="M801.7,-175.94C771.57,-155.8 695.9,-105.21 658.34,-80.1"/>
<polygon fill="#63b8ff" stroke="#63b8ff" points="659.92,-76.95 649.67,-74.3 656.03,-82.77 659.92,-76.95"/>
</a>
</g>
</g>
<!-- Node6 -->
<g id="Node000006" class="node">
<title>Node6</title>
<g id="a_Node000006"><a xlink:title=" ">
<polygon fill="#e0e0e0" stroke="#999999" points="982,-74 935,-74 935,-55 982,-55 982,-74"/>
<text text-anchor="middle" x="958.5" y="-62" font-family="Helvetica,sans-Serif" font-size="10.00">vector</text>
</a>
</g>
</g>
<!-- Node2&#45;&gt;Node6 -->
<g id="edge15_Node000002_Node000006" class="edge">
<title>Node2&#45;&gt;Node6</title>
<g id="a_edge15_Node000002_Node000006"><a xlink:title=" ">
<path fill="none" stroke="#63b8ff" d="M851.18,-175.99C873.4,-169.28 901.12,-157.99 920.5,-140 937.08,-124.6 947.56,-100.34 953.22,-83.71"/>
<polygon fill="#63b8ff" stroke="#63b8ff" points="956.59,-84.65 956.26,-74.06 949.92,-82.55 956.59,-84.65"/>
</a>
</g>
</g>
<!-- Node7 -->
<g id="Node000007" class="node">
<title>Node7</title>
<g id="a_Node000007"><a xlink:title=" ">
<polygon fill="#e0e0e0" stroke="#999999" points="516.5,-74 466.5,-74 466.5,-55 516.5,-55 516.5,-74"/>
<text text-anchor="middle" x="491.5" y="-62" font-family="Helvetica,sans-Serif" font-size="10.00">chrono</text>
</a>
</g>
</g>
<!-- Node2&#45;&gt;Node7 -->
<g id="edge21_Node000002_Node000007" class="edge">
<title>Node2&#45;&gt;Node7</title>
<g id="a_edge21_Node000002_Node000007"><a xlink:title=" ">
<path fill="none" stroke="#63b8ff" d="M748.69,-180.33C677.69,-174.73 570.24,-162.74 536.5,-140 516.58,-126.57 504.04,-101.09 497.41,-83.7"/>
<polygon fill="#63b8ff" stroke="#63b8ff" points="500.65,-82.37 494.02,-74.1 494.05,-84.7 500.65,-82.37"/>
</a>
</g>
</g>
<!-- Node8 -->
<g id="Node000008" class="node">
<title>Node8</title>
<g id="a_Node000008"><a xlink:title=" ">
<polygon fill="#e0e0e0" stroke="#999999" points="1053.5,-74 1003.5,-74 1003.5,-55 1053.5,-55 1053.5,-74"/>
<text text-anchor="middle" x="1028.5" y="-62" font-family="Helvetica,sans-Serif" font-size="10.00">atomic</text>
</a>
</g>
</g>
<!-- Node2&#45;&gt;Node8 -->
<g id="edge18_Node000002_Node000008" class="edge">
<title>Node2&#45;&gt;Node8</title>
<g id="a_edge18_Node000002_Node000008"><a xlink:title=" ">
<path fill="none" stroke="#63b8ff" d="M880.27,-178.79C960.5,-171.14 1087.27,-156.61 1101.5,-140 1110.18,-129.88 1108.03,-121.63 1101.5,-110 1093.15,-95.14 1077.6,-84.65 1062.99,-77.61"/>
<polygon fill="#63b8ff" stroke="#63b8ff" points="1064.18,-74.31 1053.61,-73.47 1061.35,-80.71 1064.18,-74.31"/>
</a>
</g>
</g>
<!-- Node9 -->
<g id="Node000009" class="node">
<title>Node9</title>
<g id="a_Node000009"><a xlink:href="error__codes_8h.html" target="_top" xlink:title=" ">
<polygon fill="white" stroke="#666666" points="116.5,-74 24.5,-74 24.5,-55 116.5,-55 116.5,-74"/>
<text text-anchor="middle" x="70.5" y="-62" font-family="Helvetica,sans-Serif" font-size="10.00">../error_codes.h</text>
</a>
</g>
</g>
<!-- Node2&#45;&gt;Node9 -->
<g id="edge13_Node000002_Node000009" class="edge">
<title>Node2&#45;&gt;Node9</title>
<g id="a_edge13_Node000002_Node000009"><a xlink:title=" ">
<path fill="none" stroke="#63b8ff" d="M748.82,-183.32C587.57,-179.99 181.38,-168.82 127.5,-140 104.34,-127.61 87.74,-101.27 78.63,-83.47"/>
<polygon fill="#63b8ff" stroke="#63b8ff" points="81.74,-81.86 74.24,-74.38 75.43,-84.9 81.74,-81.86"/>
</a>
</g>
</g>
<!-- Node11 -->
<g id="Node000011" class="node">
<title>Node11</title>
<g id="a_Node000011"><a xlink:title=" ">
<polygon fill="#e0e0e0" stroke="#999999" points="318.5,-19 262.5,-19 262.5,0 318.5,0 318.5,-19"/>
<text text-anchor="middle" x="290.5" y="-7" font-family="Helvetica,sans-Serif" font-size="10.00">optional</text>
</a>
</g>
</g>
<!-- Node2&#45;&gt;Node11 -->
<g id="edge22_Node000002_Node000011" class="edge">
<title>Node2&#45;&gt;Node11</title>
<g id="a_edge22_Node000002_Node000011"><a xlink:title=" ">
<path fill="none" stroke="#63b8ff" d="M748.61,-183.14C619.24,-179.83 341.83,-169.35 310.5,-140 280.15,-111.57 282.95,-57.7 287.03,-29.23"/>
<polygon fill="#63b8ff" stroke="#63b8ff" points="290.53,-29.47 288.7,-19.04 283.63,-28.34 290.53,-29.47"/>
</a>
</g>
</g>
<!-- Node13 -->
<g id="Node000013" class="node">
<title>Node13</title>
<g id="a_Node000013"><a xlink:title=" ">
<polygon fill="#e0e0e0" stroke="#999999" points="1110.5,-19 1052.5,-19 1052.5,0 1110.5,0 1110.5,-19"/>
<text text-anchor="middle" x="1081.5" y="-7" font-family="Helvetica,sans-Serif" font-size="10.00">memory</text>
</a>
</g>
</g>
<!-- Node2&#45;&gt;Node13 -->
<g id="edge14_Node000002_Node000013" class="edge">
<title>Node2&#45;&gt;Node13</title>
<g id="a_edge14_Node000002_Node000013"><a xlink:title=" ">
<path fill="none" stroke="#63b8ff" d="M880.14,-178.8C968.98,-170.6 1118.84,-154.8 1139.5,-140 1172.44,-116.4 1193.96,-89.38 1172.5,-55 1161.08,-36.71 1139.72,-25.73 1120.57,-19.25"/>
<polygon fill="#63b8ff" stroke="#63b8ff" points="1121.4,-15.85 1110.81,-16.26 1119.35,-22.54 1121.4,-15.85"/>
</a>
</g>
</g>
<!-- Node14 -->
<g id="Node000014" class="node">
<title>Node14</title>
<g id="a_Node000014"><a xlink:title=" ">
<polygon fill="#e0e0e0" stroke="#999999" points="1163.5,-74 1115.5,-74 1115.5,-55 1163.5,-55 1163.5,-74"/>
<text text-anchor="middle" x="1139.5" y="-62" font-family="Helvetica,sans-Serif" font-size="10.00">thread</text>
</a>
</g>
</g>
<!-- Node2&#45;&gt;Node14 -->
<g id="edge17_Node000002_Node000014" class="edge">
<title>Node2&#45;&gt;Node14</title>
<g id="a_edge17_Node000002_Node000014"><a xlink:title=" ">
<path fill="none" stroke="#63b8ff" d="M880.31,-178.6C964.02,-170.53 1099.88,-155.29 1117.5,-140 1133.31,-126.28 1138.03,-101.82 1139.31,-84.68"/>
<polygon fill="#63b8ff" stroke="#63b8ff" points="1142.82,-84.34 1139.73,-74.2 1135.83,-84.06 1142.82,-84.34"/>
</a>
</g>
</g>
<!-- Node15 -->
<g id="Node000015" class="node">
<title>Node15</title>
<g id="a_Node000015"><a xlink:title=" ">
<polygon fill="#e0e0e0" stroke="#999999" points="887.5,-19 839.5,-19 839.5,0 887.5,0 887.5,-19"/>
<text text-anchor="middle" x="863.5" y="-7" font-family="Helvetica,sans-Serif" font-size="10.00">mutex</text>
</a>
</g>
</g>
<!-- Node2&#45;&gt;Node15 -->
<g id="edge19_Node000002_Node000015" class="edge">
<title>Node2&#45;&gt;Node15</title>
<g id="a_edge19_Node000002_Node000015"><a xlink:title=" ">
<path fill="none" stroke="#63b8ff" d="M841.07,-175.94C857.63,-169.06 877.62,-157.6 887.5,-140 906,-107.06 896.75,-91.63 887.5,-55 885.09,-45.44 880.17,-35.7 875.41,-27.78"/>
<polygon fill="#63b8ff" stroke="#63b8ff" points="878.22,-25.68 869.87,-19.16 872.33,-29.46 878.22,-25.68"/>
</a>
</g>
</g>
<!-- Node16 -->
<g id="Node000016" class="node">
<title>Node16</title>
<g id="a_Node000016"><a xlink:title=" ">
<polygon fill="#e0e0e0" stroke="#999999" points="878,-134.5 813,-134.5 813,-115.5 878,-115.5 878,-134.5"/>
<text text-anchor="middle" x="845.5" y="-122.5" font-family="Helvetica,sans-Serif" font-size="10.00">functional</text>
</a>
</g>
</g>
<!-- Node2&#45;&gt;Node16 -->
<g id="edge20_Node000002_Node000016" class="edge">
<title>Node2&#45;&gt;Node16</title>
<g id="a_edge20_Node000002_Node000016"><a xlink:title=" ">
<path fill="none" stroke="#63b8ff" d="M819.07,-175.87C823.56,-167.4 830.53,-154.24 836.19,-143.57"/>
<polygon fill="#63b8ff" stroke="#63b8ff" points="839.32,-145.14 840.91,-134.67 833.13,-141.86 839.32,-145.14"/>
</a>
</g>
</g>
<!-- Node3&#45;&gt;Node4 -->
<g id="edge3_Node000003_Node000004" class="edge">
<title>Node3&#45;&gt;Node4</title>
<g id="a_edge3_Node000003_Node000004"><a xlink:title=" ">
<path fill="none" stroke="#63b8ff" d="M597.85,-109.94C581.36,-94.73 553.24,-70.57 525.5,-55 497.02,-39.02 461.7,-26.8 436.59,-19.24"/>
<polygon fill="#63b8ff" stroke="#63b8ff" points="437.42,-15.84 426.84,-16.39 435.45,-22.56 437.42,-15.84"/>
</a>
</g>
</g>
<!-- Node3&#45;&gt;Node5 -->
<g id="edge4_Node000003_Node000005" class="edge">
<title>Node3&#45;&gt;Node5</title>
<g id="a_edge4_Node000003_Node000005"><a xlink:title=" ">
<path fill="none" stroke="#63b8ff" d="M618.31,-109.84C621.54,-101.95 625.61,-92.05 629.07,-83.61"/>
<polygon fill="#63b8ff" stroke="#63b8ff" points="632.35,-84.85 632.9,-74.27 625.87,-82.19 632.35,-84.85"/>
</a>
</g>
</g>
<!-- Node3&#45;&gt;Node6 -->
<g id="edge5_Node000003_Node000006" class="edge">
<title>Node3&#45;&gt;Node6</title>
<g id="a_edge5_Node000003_Node000006"><a xlink:title=" ">
<path fill="none" stroke="#63b8ff" d="M680.03,-112.58C753.57,-100.15 868.21,-80.77 924.7,-71.21"/>
<polygon fill="#63b8ff" stroke="#63b8ff" points="925.6,-74.61 934.87,-69.49 924.43,-67.71 925.6,-74.61"/>
</a>
</g>
</g>
<!-- Node3&#45;&gt;Node7 -->
<g id="edge6_Node000003_Node000007" class="edge">
<title>Node3&#45;&gt;Node7</title>
<g id="a_edge6_Node000003_Node000007"><a xlink:title=" ">
<path fill="none" stroke="#63b8ff" d="M583.52,-109.99C563.78,-100.45 537.83,-87.9 518.53,-78.57"/>
<polygon fill="#63b8ff" stroke="#63b8ff" points="519.9,-75.34 509.37,-74.14 516.85,-81.64 519.9,-75.34"/>
</a>
</g>
</g>
<!-- Node3&#45;&gt;Node8 -->
<g id="edge7_Node000003_Node000008" class="edge">
<title>Node3&#45;&gt;Node8</title>
<g id="a_edge7_Node000003_Node000008"><a xlink:title=" ">
<path fill="none" stroke="#63b8ff" d="M680.23,-117.02C756.29,-108.73 883.24,-93.53 991.5,-74 992.11,-73.89 992.72,-73.78 993.34,-73.66"/>
<polygon fill="#63b8ff" stroke="#63b8ff" points="994.39,-77.02 1003.49,-71.58 992.99,-70.16 994.39,-77.02"/>
</a>
</g>
</g>
<!-- Node3&#45;&gt;Node9 -->
<g id="edge8_Node000003_Node000009" class="edge">
<title>Node3&#45;&gt;Node9</title>
<g id="a_edge8_Node000003_Node000009"><a xlink:title=" ">
<path fill="none" stroke="#63b8ff" d="M544.95,-116.71C436.86,-105.04 226.99,-82.39 126.62,-71.56"/>
<polygon fill="#63b8ff" stroke="#63b8ff" points="126.99,-68.08 116.67,-70.48 126.24,-75.04 126.99,-68.08"/>
</a>
</g>
</g>
<!-- Node9&#45;&gt;Node4 -->
<g id="edge9_Node000009_Node000004" class="edge">
<title>Node9&#45;&gt;Node4</title>
<g id="a_edge9_Node000009_Node000004"><a xlink:title=" ">
<path fill="none" stroke="#63b8ff" d="M116.59,-56.19C185.3,-45.28 312.86,-25.04 372.37,-15.6"/>
<polygon fill="#63b8ff" stroke="#63b8ff" points="373,-19.04 382.33,-14.02 371.91,-12.13 373,-19.04"/>
</a>
</g>
</g>
<!-- Node10 -->
<g id="Node000010" class="node">
<title>Node10</title>
<g id="a_Node000010"><a xlink:title=" ">
<polygon fill="#e0e0e0" stroke="#999999" points="65,-19 0,-19 0,0 65,0 65,-19"/>
<text text-anchor="middle" x="32.5" y="-7" font-family="Helvetica,sans-Serif" font-size="10.00">stdexcept</text>
</a>
</g>
</g>
<!-- Node9&#45;&gt;Node10 -->
<g id="edge10_Node000009_Node000010" class="edge">
<title>Node9&#45;&gt;Node10</title>
<g id="a_edge10_Node000009_Node000010"><a xlink:title=" ">
<path fill="none" stroke="#63b8ff" d="M64.23,-54.75C58.91,-47.34 51.14,-36.5 44.62,-27.41"/>
<polygon fill="#63b8ff" stroke="#63b8ff" points="47.33,-25.18 38.66,-19.09 41.64,-29.26 47.33,-25.18"/>
</a>
</g>
</g>
<!-- Node9&#45;&gt;Node11 -->
<g id="edge11_Node000009_Node000011" class="edge">
<title>Node9&#45;&gt;Node11</title>
<g id="a_edge11_Node000009_Node000011"><a xlink:title=" ">
<path fill="none" stroke="#63b8ff" d="M105.85,-54.98C145.93,-45.33 211.06,-29.64 252.3,-19.7"/>
<polygon fill="#63b8ff" stroke="#63b8ff" points="253.33,-23.05 262.23,-17.31 251.69,-16.25 253.33,-23.05"/>
</a>
</g>
</g>
<!-- Node12 -->
<g id="Node000012" class="node">
<title>Node12</title>
<g id="a_Node000012"><a xlink:title=" ">
<polygon fill="#e0e0e0" stroke="#999999" points="134,-19 83,-19 83,0 134,0 134,-19"/>
<text text-anchor="middle" x="108.5" y="-7" font-family="Helvetica,sans-Serif" font-size="10.00">variant</text>
</a>
</g>
</g>
<!-- Node9&#45;&gt;Node12 -->
<g id="edge12_Node000009_Node000012" class="edge">
<title>Node9&#45;&gt;Node12</title>
<g id="a_edge12_Node000009_Node000012"><a xlink:title=" ">
<path fill="none" stroke="#63b8ff" d="M76.77,-54.75C82.09,-47.34 89.86,-36.5 96.38,-27.41"/>
<polygon fill="#63b8ff" stroke="#63b8ff" points="99.36,-29.26 102.34,-19.09 93.67,-25.18 99.36,-29.26"/>
</a>
</g>
</g>
<!-- Node17&#45;&gt;Node4 -->
<g id="edge25_Node000017_Node000004" class="edge">
<title>Node17&#45;&gt;Node4</title>
<g id="a_edge25_Node000017_Node000004"><a xlink:title=" ">
<path fill="none" stroke="#63b8ff" d="M320.21,-182.51C252.28,-178.9 151.67,-168.71 127.5,-140 118.91,-129.8 119.83,-120.91 127.5,-110 156.52,-68.74 305.54,-31.94 372.2,-17.26"/>
<polygon fill="#63b8ff" stroke="#63b8ff" points="373.13,-20.64 382.16,-15.1 371.65,-13.8 373.13,-20.64"/>
</a>
</g>
</g>
<!-- Node17&#45;&gt;Node7 -->
<g id="edge26_Node000017_Node000007" class="edge">
<title>Node17&#45;&gt;Node7</title>
<g id="a_edge26_Node000017_Node000007"><a xlink:title=" ">
<path fill="none" stroke="#63b8ff" d="M406.4,-175.96C422.88,-168.58 445.02,-156.5 459.5,-140 473.69,-123.84 482.34,-100.44 487.01,-84.2"/>
<polygon fill="#63b8ff" stroke="#63b8ff" points="490.46,-84.83 489.62,-74.27 483.69,-83.05 490.46,-84.83"/>
</a>
</g>
</g>
<!-- Node17&#45;&gt;Node9 -->
<g id="edge31_Node000017_Node000009" class="edge">
<title>Node17&#45;&gt;Node9</title>
<g id="a_edge31_Node000017_Node000009"><a xlink:title=" ">
<path fill="none" stroke="#63b8ff" d="M320.35,-185.35C234.76,-184.95 90.05,-178.41 56.5,-140 42.88,-124.4 51.29,-99.84 59.8,-83.22"/>
<polygon fill="#63b8ff" stroke="#63b8ff" points="63.1,-84.49 64.91,-74.05 56.98,-81.08 63.1,-84.49"/>
</a>
</g>
</g>
<!-- Node18 -->
<g id="Node000018" class="node">
<title>Node18</title>
<g id="a_Node000018"><a xlink:href="logger__interface_8h.html" target="_top" xlink:title=" ">
<polygon fill="white" stroke="#666666" points="878.5,-74 764.5,-74 764.5,-55 878.5,-55 878.5,-74"/>
<text text-anchor="middle" x="821.5" y="-62" font-family="Helvetica,sans-Serif" font-size="10.00">../logger_interface.h</text>
</a>
</g>
</g>
<!-- Node17&#45;&gt;Node18 -->
<g id="edge27_Node000017_Node000018" class="edge">
<title>Node17&#45;&gt;Node18</title>
<g id="a_edge27_Node000017_Node000018"><a xlink:title=" ">
<path fill="none" stroke="#63b8ff" d="M448.6,-181.99C511.45,-177.95 609.24,-167.43 689.5,-140 732.08,-125.45 776.67,-97.09 801.59,-79.87"/>
<polygon fill="#63b8ff" stroke="#63b8ff" points="803.67,-82.69 809.84,-74.08 799.64,-76.96 803.67,-82.69"/>
</a>
</g>
</g>
<!-- Node19 -->
<g id="Node000019" class="node">
<title>Node19</title>
<g id="a_Node000019"><a xlink:href="log__writer__interface_8h.html" target="_top" xlink:title=" ">
<polygon fill="white" stroke="#666666" points="262.5,-140 136.5,-140 136.5,-110 262.5,-110 262.5,-140"/>
<text text-anchor="start" x="144.5" y="-128" font-family="Helvetica,sans-Serif" font-size="10.00">../interfaces/log_writer</text>
<text text-anchor="middle" x="199.5" y="-117" font-family="Helvetica,sans-Serif" font-size="10.00">_interface.h</text>
</a>
</g>
</g>
<!-- Node17&#45;&gt;Node19 -->
<g id="edge32_Node000017_Node000019" class="edge">
<title>Node17&#45;&gt;Node19</title>
<g id="a_edge32_Node000017_Node000019"><a xlink:title=" ">
<path fill="none" stroke="#63b8ff" d="M357.6,-175.99C330.51,-167.43 287.96,-153.97 253.82,-143.18"/>
<polygon fill="#63b8ff" stroke="#63b8ff" points="254.57,-139.74 243.98,-140.06 252.46,-146.42 254.57,-139.74"/>
</a>
</g>
</g>
<!-- Node20 -->
<g id="Node000020" class="node">
<title>Node20</title>
<g id="a_Node000020"><a xlink:href="log__entry_8h.html" target="_top" xlink:title=" ">
<polygon fill="white" stroke="#666666" points="450,-134.5 319,-134.5 319,-115.5 450,-115.5 450,-134.5"/>
<text text-anchor="middle" x="384.5" y="-122.5" font-family="Helvetica,sans-Serif" font-size="10.00">../interfaces/log_entry.h</text>
</a>
</g>
</g>
<!-- Node17&#45;&gt;Node20 -->
<g id="edge36_Node000017_Node000020" class="edge">
<title>Node17&#45;&gt;Node20</title>
<g id="a_edge36_Node000017_Node000020"><a xlink:title=" ">
<path fill="none" stroke="#63b8ff" d="M384.5,-175.87C384.5,-167.75 384.5,-155.31 384.5,-144.89"/>
<polygon fill="#63b8ff" stroke="#63b8ff" points="388,-144.67 384.5,-134.67 381,-144.67 388,-144.67"/>
</a>
</g>
</g>
<!-- Node18&#45;&gt;Node4 -->
<g id="edge30_Node000018_Node000004" class="edge">
<title>Node18&#45;&gt;Node4</title>
<g id="a_edge30_Node000018_Node000004"><a xlink:title=" ">
<path fill="none" stroke="#63b8ff" d="M764.39,-56.24C675.49,-44.94 506.93,-23.52 436.59,-14.58"/>
<polygon fill="#63b8ff" stroke="#63b8ff" points="436.92,-11.09 426.56,-13.3 436.04,-18.04 436.92,-11.09"/>
</a>
</g>
</g>
<!-- Node18&#45;&gt;Node13 -->
<g id="edge28_Node000018_Node000013" class="edge">
<title>Node18&#45;&gt;Node13</title>
<g id="a_edge28_Node000018_Node000013"><a xlink:title=" ">
<path fill="none" stroke="#63b8ff" d="M863.27,-54.98C912.62,-44.93 994.08,-28.32 1042.29,-18.49"/>
<polygon fill="#63b8ff" stroke="#63b8ff" points="1043.24,-21.87 1052.34,-16.45 1041.84,-15.01 1043.24,-21.87"/>
</a>
</g>
</g>
<!-- Node18&#45;&gt;Node15 -->
<g id="edge29_Node000018_Node000015" class="edge">
<title>Node18&#45;&gt;Node15</title>
<g id="a_edge29_Node000018_Node000015"><a xlink:title=" ">
<path fill="none" stroke="#63b8ff" d="M828.44,-54.75C834.37,-47.26 843.07,-36.28 850.32,-27.13"/>
<polygon fill="#63b8ff" stroke="#63b8ff" points="853.23,-29.1 856.69,-19.09 847.74,-24.75 853.23,-29.1"/>
</a>
</g>
</g>
<!-- Node19&#45;&gt;Node4 -->
<g id="edge33_Node000019_Node000004" class="edge">
<title>Node19&#45;&gt;Node4</title>
<g id="a_edge33_Node000019_Node000004"><a xlink:title=" ">
<path fill="none" stroke="#63b8ff" d="M225.05,-109.85C264.73,-87.89 340.66,-45.85 379.81,-24.17"/>
<polygon fill="#63b8ff" stroke="#63b8ff" points="381.87,-27.03 388.92,-19.12 378.48,-20.91 381.87,-27.03"/>
</a>
</g>
</g>
<!-- Node19&#45;&gt;Node7 -->
<g id="edge34_Node000019_Node000007" class="edge">
<title>Node19&#45;&gt;Node7</title>
<g id="a_edge34_Node000019_Node000007"><a xlink:title=" ">
<path fill="none" stroke="#63b8ff" d="M262.5,-111.38C321.85,-99.49 408.61,-82.11 456.5,-72.51"/>
<polygon fill="#63b8ff" stroke="#63b8ff" points="457.27,-75.93 466.39,-70.53 455.9,-69.06 457.27,-75.93"/>
</a>
</g>
</g>
<!-- Node19&#45;&gt;Node9 -->
<g id="edge35_Node000019_Node000009" class="edge">
<title>Node19&#45;&gt;Node9</title>
<g id="a_edge35_Node000019_Node000009"><a xlink:title=" ">
<path fill="none" stroke="#63b8ff" d="M168.6,-109.99C147.37,-100.36 119.39,-87.67 98.75,-78.31"/>
<polygon fill="#63b8ff" stroke="#63b8ff" points="100.1,-75.08 89.55,-74.14 97.21,-81.46 100.1,-75.08"/>
</a>
</g>
</g>
<!-- Node20&#45;&gt;Node4 -->
<g id="edge37_Node000020_Node000004" class="edge">
<title>Node20&#45;&gt;Node4</title>
<g id="a_edge37_Node000020_Node000004"><a xlink:title=" ">
<path fill="none" stroke="#63b8ff" d="M386,-115.47C389.22,-97.23 396.82,-54.07 401.21,-29.14"/>
<polygon fill="#63b8ff" stroke="#63b8ff" points="404.69,-29.59 402.98,-19.13 397.8,-28.37 404.69,-29.59"/>
</a>
</g>
</g>
<!-- Node20&#45;&gt;Node7 -->
<g id="edge38_Node000020_Node000007" class="edge">
<title>Node20&#45;&gt;Node7</title>
<g id="a_edge38_Node000020_Node000007"><a xlink:title=" ">
<path fill="none" stroke="#63b8ff" d="M400.29,-115.37C417.83,-105.78 446.38,-90.17 466.87,-78.97"/>
<polygon fill="#63b8ff" stroke="#63b8ff" points="468.55,-82.04 475.65,-74.17 465.19,-75.89 468.55,-82.04"/>
</a>
</g>
</g>
<!-- Node20&#45;&gt;Node11 -->
<g id="edge39_Node000020_Node000011" class="edge">
<title>Node20&#45;&gt;Node11</title>
<g id="a_edge39_Node000020_Node000011"><a xlink:title=" ">
<path fill="none" stroke="#63b8ff" d="M377.43,-115.47C361.85,-96.65 324.31,-51.32 304.03,-26.84"/>
<polygon fill="#63b8ff" stroke="#63b8ff" points="306.72,-24.6 297.65,-19.13 301.33,-29.06 306.72,-24.6"/>
</a>
</g>
</g>
<!-- Node20&#45;&gt;Node18 -->
<g id="edge40_Node000020_Node000018" class="edge">
<title>Node20&#45;&gt;Node18</title>
<g id="a_edge40_Node000020_Node000018"><a xlink:title=" ">
<path fill="none" stroke="#63b8ff" d="M448.04,-115.49C529.74,-104.56 670.97,-85.65 754.37,-74.49"/>
<polygon fill="#63b8ff" stroke="#63b8ff" points="755.04,-77.93 764.49,-73.13 754.12,-70.99 755.04,-77.93"/>
</a>
</g>
</g>
<!-- Node21&#45;&gt;Node6 -->
<g id="edge44_Node000021_Node000006" class="edge">
<title>Node21&#45;&gt;Node6</title>
<g id="a_edge44_Node000021_Node000006"><a xlink:title=" ">
<path fill="none" stroke="#63b8ff" d="M1021.58,-115.37C1009.99,-106.21 991.47,-91.56 977.48,-80.51"/>
<polygon fill="#63b8ff" stroke="#63b8ff" points="979.48,-77.62 969.46,-74.17 975.14,-83.11 979.48,-77.62"/>
</a>
</g>
</g>
<!-- Node21&#45;&gt;Node7 -->
<g id="edge47_Node000021_Node000007" class="edge">
<title>Node21&#45;&gt;Node7</title>
<g id="a_edge47_Node000021_Node000007"><a xlink:title=" ">
<path fill="none" stroke="#63b8ff" d="M972.28,-117.49C858.89,-105.23 616.99,-79.07 526.57,-69.29"/>
<polygon fill="#63b8ff" stroke="#63b8ff" points="526.88,-65.8 516.56,-68.21 526.12,-72.76 526.88,-65.8"/>
</a>
</g>
</g>
<!-- Node21&#45;&gt;Node8 -->
<g id="edge46_Node000021_Node000008" class="edge">
<title>Node21&#45;&gt;Node8</title>
<g id="a_edge46_Node000021_Node000008"><a xlink:title=" ">
<path fill="none" stroke="#63b8ff" d="M1031.91,-115.37C1031.35,-107.25 1030.5,-94.81 1029.79,-84.39"/>
<polygon fill="#63b8ff" stroke="#63b8ff" points="1033.27,-83.91 1029.09,-74.17 1026.28,-84.38 1033.27,-83.91"/>
</a>
</g>
</g>
<!-- Node21&#45;&gt;Node13 -->
<g id="edge43_Node000021_Node000013" class="edge">
<title>Node21&#45;&gt;Node13</title>
<g id="a_edge43_Node000021_Node000013"><a xlink:title=" ">
<path fill="none" stroke="#63b8ff" d="M1038.74,-115.15C1045.37,-105.44 1055.8,-89.19 1062.5,-74 1068.9,-59.51 1073.91,-42.24 1077.17,-29.37"/>
<polygon fill="#63b8ff" stroke="#63b8ff" points="1080.64,-29.92 1079.59,-19.37 1073.84,-28.27 1080.64,-29.92"/>
</a>
</g>
</g>
<!-- Node21&#45;&gt;Node14 -->
<g id="edge45_Node000021_Node000014" class="edge">
<title>Node21&#45;&gt;Node14</title>
<g id="a_edge45_Node000021_Node000014"><a xlink:title=" ">
<path fill="none" stroke="#63b8ff" d="M1048.29,-115.37C1065.83,-105.78 1094.38,-90.17 1114.87,-78.97"/>
<polygon fill="#63b8ff" stroke="#63b8ff" points="1116.55,-82.04 1123.65,-74.17 1113.19,-75.89 1116.55,-82.04"/>
</a>
</g>
</g>
<!-- Node21&#45;&gt;Node18 -->
<g id="edge42_Node000021_Node000018" class="edge">
<title>Node21&#45;&gt;Node18</title>
<g id="a_edge42_Node000021_Node000018"><a xlink:title=" ">
<path fill="none" stroke="#63b8ff" d="M1001.82,-115.49C964.94,-105.27 902.93,-88.08 862.11,-76.76"/>
<polygon fill="#63b8ff" stroke="#63b8ff" points="862.79,-73.32 852.22,-74.02 860.92,-80.06 862.79,-73.32"/>
</a>
</g>
</g>
</g>
</svg>
