<?xml version="1.0" encoding="UTF-8" standalone="no"?>
<!DOCTYPE svg PUBLIC "-//W3C//DTD SVG 1.1//EN"
 "http://www.w3.org/Graphics/SVG/1.1/DTD/svg11.dtd">
<!-- Generated by graphviz version 2.43.0 (0)
 -->
<!-- Title: health_check_system.cpp Pages: 1 -->
<svg width="1479pt" height="258pt"
 viewBox="0.00 0.00 1479.04 258.00" xmlns="http://www.w3.org/2000/svg" xmlns:xlink="http://www.w3.org/1999/xlink">
<g id="graph0" class="graph" transform="scale(1 1) rotate(0) translate(4 254)">
<title>health_check_system.cpp</title>
<!-- Node1 -->
<g id="Node000001" class="node">
<title>Node1</title>
<g id="a_Node000001"><a xlink:title=" ">
<polygon fill="#999999" stroke="#666666" points="1259.04,-250 1116.04,-250 1116.04,-231 1259.04,-231 1259.04,-250"/>
<text text-anchor="middle" x="1187.54" y="-238" font-family="Helvetica,sans-Serif" font-size="10.00">health_check_system.cpp</text>
</a>
</g>
</g>
<!-- Node2 -->
<g id="Node000002" class="node">
<title>Node2</title>
<g id="a_Node000002"><a xlink:href="health__check__system_8h.html" target="_top" xlink:title=" ">
<polygon fill="white" stroke="#666666" points="427.04,-195 296.04,-195 296.04,-176 427.04,-176 427.04,-195"/>
<text text-anchor="middle" x="361.54" y="-183" font-family="Helvetica,sans-Serif" font-size="10.00">health_check_system.h</text>
</a>
</g>
</g>
<!-- Node1&#45;&gt;Node2 -->
<g id="edge1_Node000001_Node000002" class="edge">
<title>Node1&#45;&gt;Node2</title>
<g id="a_edge1_Node000001_Node000002"><a xlink:title=" ">
<path fill="none" stroke="#63b8ff" d="M1115.68,-234.89C960.61,-224.94 595.83,-201.53 437.3,-191.36"/>
<polygon fill="#63b8ff" stroke="#63b8ff" points="437.37,-187.86 427.16,-190.71 436.92,-194.84 437.37,-187.86"/>
</a>
</g>
</g>
<!-- Node18 -->
<g id="Node000018" class="node">
<title>Node18</title>
<g id="a_Node000018"><a xlink:href="base__writer_8h.html" target="_top" xlink:title=" ">
<polygon fill="white" stroke="#666666" points="898.54,-195 770.54,-195 770.54,-176 898.54,-176 898.54,-195"/>
<text text-anchor="middle" x="834.54" y="-183" font-family="Helvetica,sans-Serif" font-size="10.00">../writers/base_writer.h</text>
</a>
</g>
</g>
<!-- Node1&#45;&gt;Node18 -->
<g id="edge25_Node000001_Node000018" class="edge">
<title>Node1&#45;&gt;Node18</title>
<g id="a_edge25_Node000001_Node000018"><a xlink:title=" ">
<path fill="none" stroke="#63b8ff" d="M1130.82,-230.98C1068.26,-221.59 967.67,-206.49 901.34,-196.53"/>
<polygon fill="#63b8ff" stroke="#63b8ff" points="901.81,-193.06 891.4,-195.04 900.77,-199.98 901.81,-193.06"/>
</a>
</g>
</g>
<!-- Node25 -->
<g id="Node000025" class="node">
<title>Node25</title>
<g id="a_Node000025"><a xlink:title=" ">
<polygon fill="#e0e0e0" stroke="#999999" points="1215.54,-19 1151.54,-19 1151.54,0 1215.54,0 1215.54,-19"/>
<text text-anchor="middle" x="1183.54" y="-7" font-family="Helvetica,sans-Serif" font-size="10.00">algorithm</text>
</a>
</g>
</g>
<!-- Node1&#45;&gt;Node25 -->
<g id="edge57_Node000001_Node000025" class="edge">
<title>Node1&#45;&gt;Node25</title>
<g id="a_edge57_Node000001_Node000025"><a xlink:title=" ">
<path fill="none" stroke="#63b8ff" d="M1187.39,-230.8C1186.8,-197.36 1184.69,-76.59 1183.87,-29.49"/>
<polygon fill="#63b8ff" stroke="#63b8ff" points="1187.36,-29.14 1183.69,-19.21 1180.36,-29.27 1187.36,-29.14"/>
</a>
</g>
</g>
<!-- Node26 -->
<g id="Node000026" class="node">
<title>Node26</title>
<g id="a_Node000026"><a xlink:href="log__collector_8h.html" target="_top" xlink:title=" ">
<polygon fill="white" stroke="#666666" points="211.54,-134.5 91.54,-134.5 91.54,-115.5 211.54,-115.5 211.54,-134.5"/>
<text text-anchor="middle" x="151.54" y="-122.5" font-family="Helvetica,sans-Serif" font-size="10.00">../core/log_collector.h</text>
</a>
</g>
</g>
<!-- Node1&#45;&gt;Node26 -->
<g id="edge49_Node000001_Node000026" class="edge">
<title>Node1&#45;&gt;Node26</title>
<g id="a_edge49_Node000001_Node000026"><a xlink:title=" ">
<path fill="none" stroke="#63b8ff" d="M1116.02,-239.83C931.43,-240.07 442.48,-236.64 286.54,-195 243.28,-183.45 197.9,-156.78 172.32,-140.19"/>
<polygon fill="#63b8ff" stroke="#63b8ff" points="174.11,-137.17 163.83,-134.58 170.24,-143.01 174.11,-137.17"/>
</a>
</g>
</g>
<!-- Node27 -->
<g id="Node000027" class="node">
<title>Node27</title>
<g id="a_Node000027"><a xlink:title=" ">
<polygon fill="#e0e0e0" stroke="#999999" points="1271.54,-195 1215.54,-195 1215.54,-176 1271.54,-176 1271.54,-195"/>
<text text-anchor="middle" x="1243.54" y="-183" font-family="Helvetica,sans-Serif" font-size="10.00">sstream</text>
</a>
</g>
</g>
<!-- Node1&#45;&gt;Node27 -->
<g id="edge56_Node000001_Node000027" class="edge">
<title>Node1&#45;&gt;Node27</title>
<g id="a_edge56_Node000001_Node000027"><a xlink:title=" ">
<path fill="none" stroke="#63b8ff" d="M1196.53,-230.98C1204.73,-223.23 1217.04,-211.58 1227.01,-202.14"/>
<polygon fill="#63b8ff" stroke="#63b8ff" points="1229.52,-204.59 1234.38,-195.17 1224.71,-199.5 1229.52,-204.59"/>
</a>
</g>
</g>
<!-- Node28 -->
<g id="Node000028" class="node">
<title>Node28</title>
<g id="a_Node000028"><a xlink:title=" ">
<polygon fill="#e0e0e0" stroke="#999999" points="1345.54,-195 1289.54,-195 1289.54,-176 1345.54,-176 1345.54,-195"/>
<text text-anchor="middle" x="1317.54" y="-183" font-family="Helvetica,sans-Serif" font-size="10.00">iomanip</text>
</a>
</g>
</g>
<!-- Node1&#45;&gt;Node28 -->
<g id="edge58_Node000001_Node000028" class="edge">
<title>Node1&#45;&gt;Node28</title>
<g id="a_edge58_Node000001_Node000028"><a xlink:title=" ">
<path fill="none" stroke="#63b8ff" d="M1208.42,-230.98C1229.62,-222.34 1262.66,-208.87 1286.84,-199.02"/>
<polygon fill="#63b8ff" stroke="#63b8ff" points="1288.33,-202.19 1296.27,-195.17 1285.69,-195.7 1288.33,-202.19"/>
</a>
</g>
</g>
<!-- Node29 -->
<g id="Node000029" class="node">
<title>Node29</title>
<g id="a_Node000029"><a xlink:title=" ">
<polygon fill="#e0e0e0" stroke="#999999" points="1471.04,-195 1364.04,-195 1364.04,-176 1471.04,-176 1471.04,-195"/>
<text text-anchor="middle" x="1417.54" y="-183" font-family="Helvetica,sans-Serif" font-size="10.00">condition_variable</text>
</a>
</g>
</g>
<!-- Node1&#45;&gt;Node29 -->
<g id="edge59_Node000001_Node000029" class="edge">
<title>Node1&#45;&gt;Node29</title>
<g id="a_edge59_Node000001_Node000029"><a xlink:title=" ">
<path fill="none" stroke="#63b8ff" d="M1224.49,-230.98C1264.11,-221.86 1327.12,-207.33 1370.31,-197.38"/>
<polygon fill="#63b8ff" stroke="#63b8ff" points="1371.34,-200.74 1380.29,-195.08 1369.76,-193.92 1371.34,-200.74"/>
</a>
</g>
</g>
<!-- Node3 -->
<g id="Node000003" class="node">
<title>Node3</title>
<g id="a_Node000003"><a xlink:href="monitoring__interface_8h.html" target="_top" xlink:title="Abstract interface for monitoring and metrics collection.">
<polygon fill="white" stroke="#666666" points="563.04,-140 428.04,-140 428.04,-110 563.04,-110 563.04,-140"/>
<text text-anchor="start" x="436.04" y="-128" font-family="Helvetica,sans-Serif" font-size="10.00">../monitoring/monitoring</text>
<text text-anchor="middle" x="495.54" y="-117" font-family="Helvetica,sans-Serif" font-size="10.00">_interface.h</text>
</a>
</g>
</g>
<!-- Node2&#45;&gt;Node3 -->
<g id="edge2_Node000002_Node000003" class="edge">
<title>Node2&#45;&gt;Node3</title>
<g id="a_edge2_Node000002_Node000003"><a xlink:title=" ">
<path fill="none" stroke="#63b8ff" d="M381.02,-175.99C400.05,-167.68 429.62,-154.78 453.95,-144.16"/>
<polygon fill="#63b8ff" stroke="#63b8ff" points="455.56,-147.27 463.32,-140.06 452.76,-140.86 455.56,-147.27"/>
</a>
</g>
</g>
<!-- Node4 -->
<g id="Node000004" class="node">
<title>Node4</title>
<g id="a_Node000004"><a xlink:title=" ">
<polygon fill="#e0e0e0" stroke="#999999" points="887.54,-19 843.54,-19 843.54,0 887.54,0 887.54,-19"/>
<text text-anchor="middle" x="865.54" y="-7" font-family="Helvetica,sans-Serif" font-size="10.00">string</text>
</a>
</g>
</g>
<!-- Node2&#45;&gt;Node4 -->
<g id="edge24_Node000002_Node000004" class="edge">
<title>Node2&#45;&gt;Node4</title>
<g id="a_edge24_Node000002_Node000004"><a xlink:title=" ">
<path fill="none" stroke="#63b8ff" d="M427.05,-182.71C596.07,-177.76 1035.19,-162.76 1056.54,-140 1065.66,-130.28 1063.45,-121.4 1056.54,-110 1056.46,-109.88 943.14,-50.89 891.11,-23.81"/>
<polygon fill="#63b8ff" stroke="#63b8ff" points="892.63,-20.65 882.15,-19.14 889.4,-26.86 892.63,-20.65"/>
</a>
</g>
</g>
<!-- Node5 -->
<g id="Node000005" class="node">
<title>Node5</title>
<g id="a_Node000005"><a xlink:title=" ">
<polygon fill="#e0e0e0" stroke="#999999" points="483.04,-74 390.04,-74 390.04,-55 483.04,-55 483.04,-74"/>
<text text-anchor="middle" x="436.54" y="-62" font-family="Helvetica,sans-Serif" font-size="10.00">unordered_map</text>
</a>
</g>
</g>
<!-- Node2&#45;&gt;Node5 -->
<g id="edge17_Node000002_Node000005" class="edge">
<title>Node2&#45;&gt;Node5</title>
<g id="a_edge17_Node000002_Node000005"><a xlink:title=" ">
<path fill="none" stroke="#63b8ff" d="M366.93,-175.94C379.14,-156.57 409.11,-109.02 425.46,-83.08"/>
<polygon fill="#63b8ff" stroke="#63b8ff" points="428.62,-84.63 430.99,-74.3 422.7,-80.9 428.62,-84.63"/>
</a>
</g>
</g>
<!-- Node6 -->
<g id="Node000006" class="node">
<title>Node6</title>
<g id="a_Node000006"><a xlink:title=" ">
<polygon fill="#e0e0e0" stroke="#999999" points="175.04,-74 128.04,-74 128.04,-55 175.04,-55 175.04,-74"/>
<text text-anchor="middle" x="151.54" y="-62" font-family="Helvetica,sans-Serif" font-size="10.00">vector</text>
</a>
</g>
</g>
<!-- Node2&#45;&gt;Node6 -->
<g id="edge16_Node000002_Node000006" class="edge">
<title>Node2&#45;&gt;Node6</title>
<g id="a_edge16_Node000002_Node000006"><a xlink:title=" ">
<path fill="none" stroke="#63b8ff" d="M295.76,-183.49C222.08,-180.8 109.4,-171.48 82.54,-140 73.88,-129.86 76.16,-121.71 82.54,-110 90.3,-95.76 104.78,-85.39 118.49,-78.26"/>
<polygon fill="#63b8ff" stroke="#63b8ff" points="120.24,-81.3 127.76,-73.84 117.22,-74.99 120.24,-81.3"/>
</a>
</g>
</g>
<!-- Node7 -->
<g id="Node000007" class="node">
<title>Node7</title>
<g id="a_Node000007"><a xlink:title=" ">
<polygon fill="#e0e0e0" stroke="#999999" points="831.54,-74 781.54,-74 781.54,-55 831.54,-55 831.54,-74"/>
<text text-anchor="middle" x="806.54" y="-62" font-family="Helvetica,sans-Serif" font-size="10.00">chrono</text>
</a>
</g>
</g>
<!-- Node2&#45;&gt;Node7 -->
<g id="edge22_Node000002_Node000007" class="edge">
<title>Node2&#45;&gt;Node7</title>
<g id="a_edge22_Node000002_Node000007"><a xlink:title=" ">
<path fill="none" stroke="#63b8ff" d="M427.06,-176.94C479.49,-169.99 554.57,-158 618.54,-140 677.38,-123.44 743.16,-94.94 779.21,-78.4"/>
<polygon fill="#63b8ff" stroke="#63b8ff" points="780.95,-81.45 788.56,-74.08 778.01,-75.1 780.95,-81.45"/>
</a>
</g>
</g>
<!-- Node8 -->
<g id="Node000008" class="node">
<title>Node8</title>
<g id="a_Node000008"><a xlink:title=" ">
<polygon fill="#e0e0e0" stroke="#999999" points="333.54,-74 283.54,-74 283.54,-55 333.54,-55 333.54,-74"/>
<text text-anchor="middle" x="308.54" y="-62" font-family="Helvetica,sans-Serif" font-size="10.00">atomic</text>
</a>
</g>
</g>
<!-- Node2&#45;&gt;Node8 -->
<g id="edge19_Node000002_Node000008" class="edge">
<title>Node2&#45;&gt;Node8</title>
<g id="a_edge19_Node000002_Node000008"><a xlink:title=" ">
<path fill="none" stroke="#63b8ff" d="M357.73,-175.94C349.17,-156.74 328.29,-109.86 316.68,-83.77"/>
<polygon fill="#63b8ff" stroke="#63b8ff" points="319.72,-82.01 312.46,-74.3 313.33,-84.86 319.72,-82.01"/>
</a>
</g>
</g>
<!-- Node9 -->
<g id="Node000009" class="node">
<title>Node9</title>
<g id="a_Node000009"><a xlink:href="error__codes_8h.html" target="_top" xlink:title=" ">
<polygon fill="white" stroke="#666666" points="763.54,-74 671.54,-74 671.54,-55 763.54,-55 763.54,-74"/>
<text text-anchor="middle" x="717.54" y="-62" font-family="Helvetica,sans-Serif" font-size="10.00">../error_codes.h</text>
</a>
</g>
</g>
<!-- Node2&#45;&gt;Node9 -->
<g id="edge14_Node000002_Node000009" class="edge">
<title>Node2&#45;&gt;Node9</title>
<g id="a_edge14_Node000002_Node000009"><a xlink:title=" ">
<path fill="none" stroke="#63b8ff" d="M422.44,-175.95C464.99,-168.92 522.71,-157.29 571.54,-140 617.33,-123.79 666.97,-96.07 694.96,-79.4"/>
<polygon fill="#63b8ff" stroke="#63b8ff" points="696.83,-82.36 703.59,-74.2 693.22,-76.37 696.83,-82.36"/>
</a>
</g>
</g>
<!-- Node12 -->
<g id="Node000012" class="node">
<title>Node12</title>
<g id="a_Node000012"><a xlink:title=" ">
<polygon fill="#e0e0e0" stroke="#999999" points="745.54,-19 689.54,-19 689.54,0 745.54,0 745.54,-19"/>
<text text-anchor="middle" x="717.54" y="-7" font-family="Helvetica,sans-Serif" font-size="10.00">optional</text>
</a>
</g>
</g>
<!-- Node2&#45;&gt;Node12 -->
<g id="edge23_Node000002_Node000012" class="edge">
<title>Node2&#45;&gt;Node12</title>
<g id="a_edge23_Node000002_Node000012"><a xlink:title=" ">
<path fill="none" stroke="#63b8ff" d="M359.66,-175.69C355.22,-152.23 346.84,-87.82 380.54,-55 426.57,-10.16 598.68,-28.74 679.07,-18.82"/>
<polygon fill="#63b8ff" stroke="#63b8ff" points="679.94,-22.23 689.32,-17.31 678.91,-15.31 679.94,-22.23"/>
</a>
</g>
</g>
<!-- Node14 -->
<g id="Node000014" class="node">
<title>Node14</title>
<g id="a_Node000014"><a xlink:title=" ">
<polygon fill="#e0e0e0" stroke="#999999" points="422.54,-19 364.54,-19 364.54,0 422.54,0 422.54,-19"/>
<text text-anchor="middle" x="393.54" y="-7" font-family="Helvetica,sans-Serif" font-size="10.00">memory</text>
</a>
</g>
</g>
<!-- Node2&#45;&gt;Node14 -->
<g id="edge15_Node000002_Node000014" class="edge">
<title>Node2&#45;&gt;Node14</title>
<g id="a_edge15_Node000002_Node000014"><a xlink:title=" ">
<path fill="none" stroke="#63b8ff" d="M295.94,-182.41C217.65,-178.66 92.74,-168.31 56.54,-140 25.31,-115.58 3.26,-84.68 29.54,-55 40.24,-42.91 262.7,-22.02 354.47,-13.89"/>
<polygon fill="#63b8ff" stroke="#63b8ff" points="354.83,-17.37 364.48,-13 354.21,-10.39 354.83,-17.37"/>
</a>
</g>
</g>
<!-- Node15 -->
<g id="Node000015" class="node">
<title>Node15</title>
<g id="a_Node000015"><a xlink:title=" ">
<polygon fill="#e0e0e0" stroke="#999999" points="86.54,-74 38.54,-74 38.54,-55 86.54,-55 86.54,-74"/>
<text text-anchor="middle" x="62.54" y="-62" font-family="Helvetica,sans-Serif" font-size="10.00">thread</text>
</a>
</g>
</g>
<!-- Node2&#45;&gt;Node15 -->
<g id="edge18_Node000002_Node000015" class="edge">
<title>Node2&#45;&gt;Node15</title>
<g id="a_edge18_Node000002_Node000015"><a xlink:title=" ">
<path fill="none" stroke="#63b8ff" d="M295.8,-183.12C220.56,-180.09 103.8,-170.47 73.54,-140 59.31,-125.68 58.24,-101.54 59.64,-84.63"/>
<polygon fill="#63b8ff" stroke="#63b8ff" points="63.16,-84.63 60.86,-74.29 56.21,-83.81 63.16,-84.63"/>
</a>
</g>
</g>
<!-- Node16 -->
<g id="Node000016" class="node">
<title>Node16</title>
<g id="a_Node000016"><a xlink:title=" ">
<polygon fill="#e0e0e0" stroke="#999999" points="255.54,-19 207.54,-19 207.54,0 255.54,0 255.54,-19"/>
<text text-anchor="middle" x="231.54" y="-7" font-family="Helvetica,sans-Serif" font-size="10.00">mutex</text>
</a>
</g>
</g>
<!-- Node2&#45;&gt;Node16 -->
<g id="edge20_Node000002_Node000016" class="edge">
<title>Node2&#45;&gt;Node16</title>
<g id="a_edge20_Node000002_Node000016"><a xlink:title=" ">
<path fill="none" stroke="#63b8ff" d="M296.01,-184.93C208.89,-184.04 61.6,-176.9 24.54,-140 -2.38,-113.19 -8.46,-84.45 15.54,-55 38.09,-27.33 142.4,-16.36 197.39,-12.44"/>
<polygon fill="#63b8ff" stroke="#63b8ff" points="197.63,-15.93 207.37,-11.77 197.16,-8.95 197.63,-15.93"/>
</a>
</g>
</g>
<!-- Node17 -->
<g id="Node000017" class="node">
<title>Node17</title>
<g id="a_Node000017"><a xlink:title=" ">
<polygon fill="#e0e0e0" stroke="#999999" points="295.04,-134.5 230.04,-134.5 230.04,-115.5 295.04,-115.5 295.04,-134.5"/>
<text text-anchor="middle" x="262.54" y="-122.5" font-family="Helvetica,sans-Serif" font-size="10.00">functional</text>
</a>
</g>
</g>
<!-- Node2&#45;&gt;Node17 -->
<g id="edge21_Node000002_Node000017" class="edge">
<title>Node2&#45;&gt;Node17</title>
<g id="a_edge21_Node000002_Node000017"><a xlink:title=" ">
<path fill="none" stroke="#63b8ff" d="M346.93,-175.87C330.84,-166.36 304.76,-150.95 285.84,-139.77"/>
<polygon fill="#63b8ff" stroke="#63b8ff" points="287.59,-136.74 277.2,-134.67 284.03,-142.77 287.59,-136.74"/>
</a>
</g>
</g>
<!-- Node3&#45;&gt;Node4 -->
<g id="edge3_Node000003_Node000004" class="edge">
<title>Node3&#45;&gt;Node4</title>
<g id="a_edge3_Node000003_Node000004"><a xlink:title=" ">
<path fill="none" stroke="#63b8ff" d="M534.59,-109.95C560.38,-100.41 594.78,-87.17 624.54,-74 641.8,-66.36 644.73,-61.29 662.54,-55 670.61,-52.15 778.26,-29.07 833.43,-17.32"/>
<polygon fill="#63b8ff" stroke="#63b8ff" points="834.34,-20.7 843.4,-15.2 832.89,-13.86 834.34,-20.7"/>
</a>
</g>
</g>
<!-- Node3&#45;&gt;Node5 -->
<g id="edge4_Node000003_Node000005" class="edge">
<title>Node3&#45;&gt;Node5</title>
<g id="a_edge4_Node000003_Node000005"><a xlink:title=" ">
<path fill="none" stroke="#63b8ff" d="M481.25,-109.84C472.6,-101.26 461.55,-90.3 452.59,-81.42"/>
<polygon fill="#63b8ff" stroke="#63b8ff" points="454.94,-78.82 445.38,-74.27 450.01,-83.79 454.94,-78.82"/>
</a>
</g>
</g>
<!-- Node3&#45;&gt;Node6 -->
<g id="edge5_Node000003_Node000006" class="edge">
<title>Node3&#45;&gt;Node6</title>
<g id="a_edge5_Node000003_Node000006"><a xlink:title=" ">
<path fill="none" stroke="#63b8ff" d="M427.98,-112.51C355.01,-100.1 241.66,-80.83 185.48,-71.27"/>
<polygon fill="#63b8ff" stroke="#63b8ff" points="185.8,-67.78 175.35,-69.55 184.63,-74.68 185.8,-67.78"/>
</a>
</g>
</g>
<!-- Node3&#45;&gt;Node7 -->
<g id="edge6_Node000003_Node000007" class="edge">
<title>Node3&#45;&gt;Node7</title>
<g id="a_edge6_Node000003_Node000007"><a xlink:title=" ">
<path fill="none" stroke="#63b8ff" d="M563.23,-113.07C617.16,-104.07 694.79,-90.45 771.49,-74.11"/>
<polygon fill="#63b8ff" stroke="#63b8ff" points="772.29,-77.52 781.33,-72 770.82,-70.68 772.29,-77.52"/>
</a>
</g>
</g>
<!-- Node3&#45;&gt;Node8 -->
<g id="edge7_Node000003_Node000008" class="edge">
<title>Node3&#45;&gt;Node8</title>
<g id="a_edge7_Node000003_Node000008"><a xlink:title=" ">
<path fill="none" stroke="#63b8ff" d="M450.75,-109.99C417.84,-99.69 373.76,-85.9 343.44,-76.42"/>
<polygon fill="#63b8ff" stroke="#63b8ff" points="344.32,-73.03 333.73,-73.38 342.23,-79.71 344.32,-73.03"/>
</a>
</g>
</g>
<!-- Node3&#45;&gt;Node9 -->
<g id="edge8_Node000003_Node000009" class="edge">
<title>Node3&#45;&gt;Node9</title>
<g id="a_edge8_Node000003_Node000009"><a xlink:title=" ">
<path fill="none" stroke="#63b8ff" d="M548.71,-109.99C587.52,-99.76 639.42,-86.09 675.38,-76.61"/>
<polygon fill="#63b8ff" stroke="#63b8ff" points="676.3,-79.99 685.08,-74.05 674.52,-73.22 676.3,-79.99"/>
</a>
</g>
</g>
<!-- Node9&#45;&gt;Node4 -->
<g id="edge9_Node000009_Node000004" class="edge">
<title>Node9&#45;&gt;Node4</title>
<g id="a_edge9_Node000009_Node000004"><a xlink:title=" ">
<path fill="none" stroke="#63b8ff" d="M741.32,-54.98C766.35,-46.02 805.9,-31.86 833.64,-21.92"/>
<polygon fill="#63b8ff" stroke="#63b8ff" points="835.04,-25.14 843.27,-18.47 832.68,-18.55 835.04,-25.14"/>
</a>
</g>
</g>
<!-- Node10 -->
<g id="Node000010" class="node">
<title>Node10</title>
<g id="a_Node000010"><a xlink:title=" ">
<polygon fill="#e0e0e0" stroke="#999999" points="671.04,-19 606.04,-19 606.04,0 671.04,0 671.04,-19"/>
<text text-anchor="middle" x="638.54" y="-7" font-family="Helvetica,sans-Serif" font-size="10.00">stdexcept</text>
</a>
</g>
</g>
<!-- Node9&#45;&gt;Node10 -->
<g id="edge10_Node000009_Node000010" class="edge">
<title>Node9&#45;&gt;Node10</title>
<g id="a_edge10_Node000009_Node000010"><a xlink:title=" ">
<path fill="none" stroke="#63b8ff" d="M704.84,-54.98C692.71,-46.84 674.18,-34.41 659.79,-24.76"/>
<polygon fill="#63b8ff" stroke="#63b8ff" points="661.71,-21.84 651.46,-19.17 657.82,-27.65 661.71,-21.84"/>
</a>
</g>
</g>
<!-- Node11 -->
<g id="Node000011" class="node">
<title>Node11</title>
<g id="a_Node000011"><a xlink:title=" ">
<polygon fill="#e0e0e0" stroke="#999999" points="958.04,-19 913.04,-19 913.04,0 958.04,0 958.04,-19"/>
<text text-anchor="middle" x="935.54" y="-7" font-family="Helvetica,sans-Serif" font-size="10.00">utility</text>
</a>
</g>
</g>
<!-- Node9&#45;&gt;Node11 -->
<g id="edge11_Node000009_Node000011" class="edge">
<title>Node9&#45;&gt;Node11</title>
<g id="a_edge11_Node000009_Node000011"><a xlink:title=" ">
<path fill="none" stroke="#63b8ff" d="M752.56,-54.98C794.08,-44.89 862.72,-28.2 903.08,-18.39"/>
<polygon fill="#63b8ff" stroke="#63b8ff" points="904.05,-21.76 912.94,-15.99 902.4,-14.96 904.05,-21.76"/>
</a>
</g>
</g>
<!-- Node9&#45;&gt;Node12 -->
<g id="edge12_Node000009_Node000012" class="edge">
<title>Node9&#45;&gt;Node12</title>
<g id="a_edge12_Node000009_Node000012"><a xlink:title=" ">
<path fill="none" stroke="#63b8ff" d="M717.54,-54.75C717.54,-47.8 717.54,-37.85 717.54,-29.13"/>
<polygon fill="#63b8ff" stroke="#63b8ff" points="721.04,-29.09 717.54,-19.09 714.04,-29.09 721.04,-29.09"/>
</a>
</g>
</g>
<!-- Node13 -->
<g id="Node000013" class="node">
<title>Node13</title>
<g id="a_Node000013"><a xlink:title=" ">
<polygon fill="#e0e0e0" stroke="#999999" points="815.04,-19 764.04,-19 764.04,0 815.04,0 815.04,-19"/>
<text text-anchor="middle" x="789.54" y="-7" font-family="Helvetica,sans-Serif" font-size="10.00">variant</text>
</a>
</g>
</g>
<!-- Node9&#45;&gt;Node13 -->
<g id="edge13_Node000009_Node000013" class="edge">
<title>Node9&#45;&gt;Node13</title>
<g id="a_edge13_Node000009_Node000013"><a xlink:title=" ">
<path fill="none" stroke="#63b8ff" d="M729.11,-54.98C739.96,-47 756.42,-34.88 769.42,-25.31"/>
<polygon fill="#63b8ff" stroke="#63b8ff" points="771.78,-27.92 777.76,-19.17 767.63,-22.28 771.78,-27.92"/>
</a>
</g>
</g>
<!-- Node18&#45;&gt;Node4 -->
<g id="edge26_Node000018_Node000004" class="edge">
<title>Node18&#45;&gt;Node4</title>
<g id="a_edge26_Node000018_Node000004"><a xlink:title=" ">
<path fill="none" stroke="#63b8ff" d="M898.64,-182.42C966.04,-178.73 1065.61,-168.47 1089.54,-140 1098.12,-129.79 1096.37,-121.45 1089.54,-110 1082.94,-98.94 999.28,-60.28 987.54,-55 957.71,-41.6 922.53,-29.11 897.63,-20.79"/>
<polygon fill="#63b8ff" stroke="#63b8ff" points="898.55,-17.41 887.96,-17.59 896.36,-24.05 898.55,-17.41"/>
</a>
</g>
</g>
<!-- Node18&#45;&gt;Node7 -->
<g id="edge27_Node000018_Node000007" class="edge">
<title>Node18&#45;&gt;Node7</title>
<g id="a_edge27_Node000018_Node000007"><a xlink:title=" ">
<path fill="none" stroke="#63b8ff" d="M808.68,-175.99C792.27,-169.09 772.34,-157.58 762.54,-140 756.04,-128.35 757.47,-122.33 762.54,-110 767.34,-98.31 776.87,-88.05 785.84,-80.34"/>
<polygon fill="#63b8ff" stroke="#63b8ff" points="788.13,-82.98 793.76,-74 783.76,-77.51 788.13,-82.98"/>
</a>
</g>
</g>
<!-- Node18&#45;&gt;Node9 -->
<g id="edge32_Node000018_Node000009" class="edge">
<title>Node18&#45;&gt;Node9</title>
<g id="a_edge32_Node000018_Node000009"><a xlink:title=" ">
<path fill="none" stroke="#63b8ff" d="M810.36,-175.87C792.76,-168.58 769.33,-156.64 753.54,-140 738.43,-124.08 728.54,-100.64 723.01,-84.31"/>
<polygon fill="#63b8ff" stroke="#63b8ff" points="726.21,-82.82 719.87,-74.33 719.53,-84.92 726.21,-82.82"/>
</a>
</g>
</g>
<!-- Node19 -->
<g id="Node000019" class="node">
<title>Node19</title>
<g id="a_Node000019"><a xlink:href="logger__interface_8h.html" target="_top" xlink:title=" ">
<polygon fill="white" stroke="#666666" points="615.54,-74 501.54,-74 501.54,-55 615.54,-55 615.54,-74"/>
<text text-anchor="middle" x="558.54" y="-62" font-family="Helvetica,sans-Serif" font-size="10.00">../logger_interface.h</text>
</a>
</g>
</g>
<!-- Node18&#45;&gt;Node19 -->
<g id="edge28_Node000018_Node000019" class="edge">
<title>Node18&#45;&gt;Node19</title>
<g id="a_edge28_Node000018_Node000019"><a xlink:title=" ">
<path fill="none" stroke="#63b8ff" d="M813.99,-175.86C792.8,-166.94 758.82,-152.59 729.54,-140 679.44,-118.47 621.27,-93.03 587.32,-78.14"/>
<polygon fill="#63b8ff" stroke="#63b8ff" points="588.56,-74.87 578,-74.05 585.75,-81.28 588.56,-74.87"/>
</a>
</g>
</g>
<!-- Node20 -->
<g id="Node000020" class="node">
<title>Node20</title>
<g id="a_Node000020"><a xlink:href="log__writer__interface_8h.html" target="_top" xlink:title=" ">
<polygon fill="white" stroke="#666666" points="897.54,-140 771.54,-140 771.54,-110 897.54,-110 897.54,-140"/>
<text text-anchor="start" x="779.54" y="-128" font-family="Helvetica,sans-Serif" font-size="10.00">../interfaces/log_writer</text>
<text text-anchor="middle" x="834.54" y="-117" font-family="Helvetica,sans-Serif" font-size="10.00">_interface.h</text>
</a>
</g>
</g>
<!-- Node18&#45;&gt;Node20 -->
<g id="edge33_Node000018_Node000020" class="edge">
<title>Node18&#45;&gt;Node20</title>
<g id="a_edge33_Node000018_Node000020"><a xlink:title=" ">
<path fill="none" stroke="#63b8ff" d="M834.54,-175.87C834.54,-169.11 834.54,-159.35 834.54,-150.26"/>
<polygon fill="#63b8ff" stroke="#63b8ff" points="838.04,-150.11 834.54,-140.11 831.04,-150.11 838.04,-150.11"/>
</a>
</g>
</g>
<!-- Node21 -->
<g id="Node000021" class="node">
<title>Node21</title>
<g id="a_Node000021"><a xlink:href="log__entry_8h.html" target="_top" xlink:title=" ">
<polygon fill="white" stroke="#666666" points="1047.04,-134.5 916.04,-134.5 916.04,-115.5 1047.04,-115.5 1047.04,-134.5"/>
<text text-anchor="middle" x="981.54" y="-122.5" font-family="Helvetica,sans-Serif" font-size="10.00">../interfaces/log_entry.h</text>
</a>
</g>
</g>
<!-- Node18&#45;&gt;Node21 -->
<g id="edge37_Node000018_Node000021" class="edge">
<title>Node18&#45;&gt;Node21</title>
<g id="a_edge37_Node000018_Node000021"><a xlink:title=" ">
<path fill="none" stroke="#63b8ff" d="M855.91,-175.99C880.84,-166.07 922.26,-149.59 950.68,-138.28"/>
<polygon fill="#63b8ff" stroke="#63b8ff" points="952.14,-141.47 960.14,-134.52 949.55,-134.96 952.14,-141.47"/>
</a>
</g>
</g>
<!-- Node19&#45;&gt;Node4 -->
<g id="edge31_Node000019_Node000004" class="edge">
<title>Node19&#45;&gt;Node4</title>
<g id="a_edge31_Node000019_Node000004"><a xlink:title=" ">
<path fill="none" stroke="#63b8ff" d="M613.16,-55C667.01,-46.46 751.59,-32.66 824.54,-19 827.42,-18.46 830.41,-17.88 833.4,-17.29"/>
<polygon fill="#63b8ff" stroke="#63b8ff" points="834.34,-20.67 843.44,-15.24 832.94,-13.81 834.34,-20.67"/>
</a>
</g>
</g>
<!-- Node19&#45;&gt;Node14 -->
<g id="edge29_Node000019_Node000014" class="edge">
<title>Node19&#45;&gt;Node14</title>
<g id="a_edge29_Node000019_Node000014"><a xlink:title=" ">
<path fill="none" stroke="#63b8ff" d="M532.03,-54.98C504.33,-46.09 460.68,-32.07 429.8,-22.15"/>
<polygon fill="#63b8ff" stroke="#63b8ff" points="430.85,-18.81 420.25,-19.08 428.71,-25.47 430.85,-18.81"/>
</a>
</g>
</g>
<!-- Node19&#45;&gt;Node16 -->
<g id="edge30_Node000019_Node000016" class="edge">
<title>Node19&#45;&gt;Node16</title>
<g id="a_edge30_Node000019_Node000016"><a xlink:title=" ">
<path fill="none" stroke="#63b8ff" d="M506,-54.98C438.36,-44.02 322.73,-25.28 265.58,-16.02"/>
<polygon fill="#63b8ff" stroke="#63b8ff" points="266.04,-12.55 255.61,-14.4 264.92,-19.46 266.04,-12.55"/>
</a>
</g>
</g>
<!-- Node20&#45;&gt;Node4 -->
<g id="edge34_Node000020_Node000004" class="edge">
<title>Node20&#45;&gt;Node4</title>
<g id="a_edge34_Node000020_Node000004"><a xlink:title=" ">
<path fill="none" stroke="#63b8ff" d="M838.46,-109.63C844.06,-89.12 854.35,-51.47 860.5,-28.93"/>
<polygon fill="#63b8ff" stroke="#63b8ff" points="863.89,-29.8 863.15,-19.23 857.14,-27.95 863.89,-29.8"/>
</a>
</g>
</g>
<!-- Node20&#45;&gt;Node7 -->
<g id="edge35_Node000020_Node000007" class="edge">
<title>Node20&#45;&gt;Node7</title>
<g id="a_edge35_Node000020_Node000007"><a xlink:title=" ">
<path fill="none" stroke="#63b8ff" d="M827.76,-109.84C823.94,-101.87 819.14,-91.84 815.07,-83.33"/>
<polygon fill="#63b8ff" stroke="#63b8ff" points="818.21,-81.77 810.73,-74.27 811.89,-84.8 818.21,-81.77"/>
</a>
</g>
</g>
<!-- Node20&#45;&gt;Node9 -->
<g id="edge36_Node000020_Node000009" class="edge">
<title>Node20&#45;&gt;Node9</title>
<g id="a_edge36_Node000020_Node000009"><a xlink:title=" ">
<path fill="none" stroke="#63b8ff" d="M806.51,-109.99C787.51,-100.49 762.57,-88.02 743.92,-78.69"/>
<polygon fill="#63b8ff" stroke="#63b8ff" points="745.33,-75.48 734.82,-74.14 742.19,-81.74 745.33,-75.48"/>
</a>
</g>
</g>
<!-- Node21&#45;&gt;Node4 -->
<g id="edge38_Node000021_Node000004" class="edge">
<title>Node21&#45;&gt;Node4</title>
<g id="a_edge38_Node000021_Node000004"><a xlink:title=" ">
<path fill="none" stroke="#63b8ff" d="M972.94,-115.48C959.76,-102.42 933.76,-76.7 911.54,-55 901.68,-45.37 890.57,-34.63 881.75,-26.11"/>
<polygon fill="#63b8ff" stroke="#63b8ff" points="884.01,-23.43 874.38,-19.01 879.15,-28.47 884.01,-23.43"/>
</a>
</g>
</g>
<!-- Node21&#45;&gt;Node7 -->
<g id="edge39_Node000021_Node000007" class="edge">
<title>Node21&#45;&gt;Node7</title>
<g id="a_edge39_Node000021_Node000007"><a xlink:title=" ">
<path fill="none" stroke="#63b8ff" d="M956.09,-115.49C925.81,-105.37 875.09,-88.42 841.23,-77.1"/>
<polygon fill="#63b8ff" stroke="#63b8ff" points="842.32,-73.77 831.73,-73.92 840.1,-80.41 842.32,-73.77"/>
</a>
</g>
</g>
<!-- Node21&#45;&gt;Node12 -->
<g id="edge40_Node000021_Node000012" class="edge">
<title>Node21&#45;&gt;Node12</title>
<g id="a_edge40_Node000021_Node000012"><a xlink:title=" ">
<path fill="none" stroke="#63b8ff" d="M965.31,-115.34C939.35,-101.66 886.7,-74.58 840.54,-55 811.69,-42.77 778.2,-30.79 753.46,-22.35"/>
<polygon fill="#63b8ff" stroke="#63b8ff" points="754.36,-18.96 743.77,-19.07 752.12,-25.59 754.36,-18.96"/>
</a>
</g>
</g>
<!-- Node21&#45;&gt;Node19 -->
<g id="edge48_Node000021_Node000019" class="edge">
<title>Node21&#45;&gt;Node19</title>
<g id="a_edge48_Node000021_Node000019"><a xlink:title=" ">
<path fill="none" stroke="#63b8ff" d="M937.99,-115.43C927.69,-113.53 916.74,-111.6 906.54,-110 809.19,-94.7 695.89,-80.97 625.68,-72.93"/>
<polygon fill="#63b8ff" stroke="#63b8ff" points="625.98,-69.44 615.64,-71.78 625.18,-76.39 625.98,-69.44"/>
</a>
</g>
</g>
<!-- Node22 -->
<g id="Node000022" class="node">
<title>Node22</title>
<g id="a_Node000022"><a xlink:href="small__string_8h.html" target="_top" xlink:title=" ">
<polygon fill="white" stroke="#666666" points="1159.04,-74 1040.04,-74 1040.04,-55 1159.04,-55 1159.04,-74"/>
<text text-anchor="middle" x="1099.54" y="-62" font-family="Helvetica,sans-Serif" font-size="10.00">../core/small_string.h</text>
</a>
</g>
</g>
<!-- Node21&#45;&gt;Node22 -->
<g id="edge41_Node000021_Node000022" class="edge">
<title>Node21&#45;&gt;Node22</title>
<g id="a_edge41_Node000021_Node000022"><a xlink:title=" ">
<path fill="none" stroke="#63b8ff" d="M998.7,-115.49C1018.27,-105.79 1050.51,-89.81 1073.25,-78.53"/>
<polygon fill="#63b8ff" stroke="#63b8ff" points="1074.95,-81.59 1082.36,-74.02 1071.84,-75.32 1074.95,-81.59"/>
</a>
</g>
</g>
<!-- Node22&#45;&gt;Node4 -->
<g id="edge43_Node000022_Node000004" class="edge">
<title>Node22&#45;&gt;Node4</title>
<g id="a_edge43_Node000022_Node000004"><a xlink:title=" ">
<path fill="none" stroke="#63b8ff" d="M1061.94,-54.98C1016.35,-44.66 940.3,-27.43 897.44,-17.73"/>
<polygon fill="#63b8ff" stroke="#63b8ff" points="898.07,-14.28 887.55,-15.49 896.53,-21.11 898.07,-14.28"/>
</a>
</g>
</g>
<!-- Node22&#45;&gt;Node11 -->
<g id="edge47_Node000022_Node000011" class="edge">
<title>Node22&#45;&gt;Node11</title>
<g id="a_edge47_Node000022_Node000011"><a xlink:title=" ">
<path fill="none" stroke="#63b8ff" d="M1073.19,-54.98C1044.55,-45.73 998.78,-30.94 967.96,-20.98"/>
<polygon fill="#63b8ff" stroke="#63b8ff" points="968.72,-17.54 958.13,-17.8 966.56,-24.21 968.72,-17.54"/>
</a>
</g>
</g>
<!-- Node22&#45;&gt;Node14 -->
<g id="edge46_Node000022_Node000014" class="edge">
<title>Node22&#45;&gt;Node14</title>
<g id="a_edge46_Node000022_Node000014"><a xlink:title=" ">
<path fill="none" stroke="#63b8ff" d="M1039.95,-59.03C899.42,-48.48 550.28,-22.27 432.81,-13.45"/>
<polygon fill="#63b8ff" stroke="#63b8ff" points="433.06,-9.96 422.82,-12.7 432.53,-16.94 433.06,-9.96"/>
</a>
</g>
</g>
<!-- Node23 -->
<g id="Node000023" class="node">
<title>Node23</title>
<g id="a_Node000023"><a xlink:title=" ">
<polygon fill="#e0e0e0" stroke="#999999" points="1127.54,-19 1077.54,-19 1077.54,0 1127.54,0 1127.54,-19"/>
<text text-anchor="middle" x="1102.54" y="-7" font-family="Helvetica,sans-Serif" font-size="10.00">cstring</text>
</a>
</g>
</g>
<!-- Node22&#45;&gt;Node23 -->
<g id="edge42_Node000022_Node000023" class="edge">
<title>Node22&#45;&gt;Node23</title>
<g id="a_edge42_Node000022_Node000023"><a xlink:title=" ">
<path fill="none" stroke="#63b8ff" d="M1100.03,-54.75C1100.43,-47.8 1100.99,-37.85 1101.48,-29.13"/>
<polygon fill="#63b8ff" stroke="#63b8ff" points="1104.98,-29.27 1102.05,-19.09 1097.99,-28.88 1104.98,-29.27"/>
</a>
</g>
</g>
<!-- Node24 -->
<g id="Node000024" class="node">
<title>Node24</title>
<g id="a_Node000024"><a xlink:title=" ">
<polygon fill="#e0e0e0" stroke="#999999" points="1059.04,-19 986.04,-19 986.04,0 1059.04,0 1059.04,-19"/>
<text text-anchor="middle" x="1022.54" y="-7" font-family="Helvetica,sans-Serif" font-size="10.00">string_view</text>
</a>
</g>
</g>
<!-- Node22&#45;&gt;Node24 -->
<g id="edge44_Node000022_Node000024" class="edge">
<title>Node22&#45;&gt;Node24</title>
<g id="a_edge44_Node000022_Node000024"><a xlink:title=" ">
<path fill="none" stroke="#63b8ff" d="M1087.17,-54.98C1075.45,-46.92 1057.62,-34.65 1043.65,-25.03"/>
<polygon fill="#63b8ff" stroke="#63b8ff" points="1045.36,-21.96 1035.13,-19.17 1041.39,-27.72 1045.36,-21.96"/>
</a>
</g>
</g>
<!-- Node22&#45;&gt;Node25 -->
<g id="edge45_Node000022_Node000025" class="edge">
<title>Node22&#45;&gt;Node25</title>
<g id="a_edge45_Node000022_Node000025"><a xlink:title=" ">
<path fill="none" stroke="#63b8ff" d="M1113.03,-54.98C1125.94,-46.84 1145.64,-34.41 1160.94,-24.76"/>
<polygon fill="#63b8ff" stroke="#63b8ff" points="1163.21,-27.47 1169.8,-19.17 1159.47,-21.55 1163.21,-27.47"/>
</a>
</g>
</g>
<!-- Node26&#45;&gt;Node6 -->
<g id="edge52_Node000026_Node000006" class="edge">
<title>Node26&#45;&gt;Node6</title>
<g id="a_edge52_Node000026_Node000006"><a xlink:title=" ">
<path fill="none" stroke="#63b8ff" d="M151.54,-115.37C151.54,-107.25 151.54,-94.81 151.54,-84.39"/>
<polygon fill="#63b8ff" stroke="#63b8ff" points="155.04,-84.17 151.54,-74.17 148.04,-84.17 155.04,-84.17"/>
</a>
</g>
</g>
<!-- Node26&#45;&gt;Node7 -->
<g id="edge55_Node000026_Node000007" class="edge">
<title>Node26&#45;&gt;Node7</title>
<g id="a_edge55_Node000026_Node000007"><a xlink:title=" ">
<path fill="none" stroke="#63b8ff" d="M188.98,-115.44C199.17,-113.38 210.24,-111.37 220.54,-110 460.9,-77.93 527.81,-111.04 771.17,-73.91"/>
<polygon fill="#63b8ff" stroke="#63b8ff" points="772.04,-77.31 781.39,-72.32 770.97,-70.4 772.04,-77.31"/>
</a>
</g>
</g>
<!-- Node26&#45;&gt;Node8 -->
<g id="edge54_Node000026_Node000008" class="edge">
<title>Node26&#45;&gt;Node8</title>
<g id="a_edge54_Node000026_Node000008"><a xlink:title=" ">
<path fill="none" stroke="#63b8ff" d="M174.37,-115.49C201.11,-105.53 245.61,-88.95 275.97,-77.63"/>
<polygon fill="#63b8ff" stroke="#63b8ff" points="277.53,-80.79 285.68,-74.02 275.09,-74.23 277.53,-80.79"/>
</a>
</g>
</g>
<!-- Node26&#45;&gt;Node14 -->
<g id="edge51_Node000026_Node000014" class="edge">
<title>Node26&#45;&gt;Node14</title>
<g id="a_edge51_Node000026_Node000014"><a xlink:title=" ">
<path fill="none" stroke="#63b8ff" d="M165.19,-115.42C187.51,-101.61 233.45,-74.07 274.54,-55 301.67,-42.41 333.46,-30.67 357.35,-22.41"/>
<polygon fill="#63b8ff" stroke="#63b8ff" points="358.73,-25.64 367.07,-19.09 356.47,-19.01 358.73,-25.64"/>
</a>
</g>
</g>
<!-- Node26&#45;&gt;Node15 -->
<g id="edge53_Node000026_Node000015" class="edge">
<title>Node26&#45;&gt;Node15</title>
<g id="a_edge53_Node000026_Node000015"><a xlink:title=" ">
<path fill="none" stroke="#63b8ff" d="M138.4,-115.37C124.21,-106.04 101.34,-91.01 84.42,-79.88"/>
<polygon fill="#63b8ff" stroke="#63b8ff" points="86,-76.74 75.72,-74.17 82.16,-82.58 86,-76.74"/>
</a>
</g>
</g>
<!-- Node26&#45;&gt;Node19 -->
<g id="edge50_Node000026_Node000019" class="edge">
<title>Node26&#45;&gt;Node19</title>
<g id="a_edge50_Node000026_Node000019"><a xlink:title=" ">
<path fill="none" stroke="#63b8ff" d="M191.22,-115.46C200.8,-113.53 211.01,-111.59 220.54,-110 246.56,-105.65 400.32,-85.77 491.24,-74.11"/>
<polygon fill="#63b8ff" stroke="#63b8ff" points="491.72,-77.57 501.19,-72.83 490.83,-70.63 491.72,-77.57"/>
</a>
</g>
</g>
</g>
</svg>
