<?xml version="1.0" encoding="UTF-8" standalone="no"?>
<!DOCTYPE svg PUBLIC "-//W3C//DTD SVG 1.1//EN"
 "http://www.w3.org/Graphics/SVG/1.1/DTD/svg11.dtd">
<!-- Generated by graphviz version 2.43.0 (0)
 -->
<!-- Title: health_check_system.cpp Pages: 1 -->
<svg width="1233pt" height="258pt"
 viewBox="0.00 0.00 1233.35 258.00" xmlns="http://www.w3.org/2000/svg" xmlns:xlink="http://www.w3.org/1999/xlink">
<g id="graph0" class="graph" transform="scale(1 1) rotate(0) translate(4 254)">
<title>health_check_system.cpp</title>
<!-- Node1 -->
<g id="Node000001" class="node">
<title>Node1</title>
<g id="a_Node000001"><a xlink:title=" ">
<polygon fill="#999999" stroke="#666666" points="987.35,-250 844.35,-250 844.35,-231 987.35,-231 987.35,-250"/>
<text text-anchor="middle" x="915.85" y="-238" font-family="Helvetica,sans-Serif" font-size="10.00">health_check_system.cpp</text>
</a>
</g>
</g>
<!-- Node2 -->
<g id="Node000002" class="node">
<title>Node2</title>
<g id="a_Node000002"><a xlink:href="health__check__system_8h.html" target="_top" xlink:title=" ">
<polygon fill="white" stroke="#666666" points="869.35,-195 738.35,-195 738.35,-176 869.35,-176 869.35,-195"/>
<text text-anchor="middle" x="803.85" y="-183" font-family="Helvetica,sans-Serif" font-size="10.00">health_check_system.h</text>
</a>
</g>
</g>
<!-- Node1&#45;&gt;Node2 -->
<g id="edge1_Node000001_Node000002" class="edge">
<title>Node1&#45;&gt;Node2</title>
<g id="a_edge1_Node000001_Node000002"><a xlink:title=" ">
<path fill="none" stroke="#63b8ff" d="M897.86,-230.98C879.92,-222.5 852.14,-209.35 831.42,-199.54"/>
<polygon fill="#63b8ff" stroke="#63b8ff" points="832.71,-196.28 822.18,-195.17 829.72,-202.61 832.71,-196.28"/>
</a>
</g>
</g>
<!-- Node16 -->
<g id="Node000016" class="node">
<title>Node16</title>
<g id="a_Node000016"><a xlink:href="base__writer_8h.html" target="_top" xlink:title=" ">
<polygon fill="white" stroke="#666666" points="337.85,-195 209.85,-195 209.85,-176 337.85,-176 337.85,-195"/>
<text text-anchor="middle" x="273.85" y="-183" font-family="Helvetica,sans-Serif" font-size="10.00">../writers/base_writer.h</text>
</a>
</g>
</g>
<!-- Node1&#45;&gt;Node16 -->
<g id="edge21_Node000001_Node000016" class="edge">
<title>Node1&#45;&gt;Node16</title>
<g id="a_edge21_Node000001_Node000016"><a xlink:title=" ">
<path fill="none" stroke="#63b8ff" d="M844.08,-233.57C721.39,-223.45 472.57,-202.91 348.17,-192.64"/>
<polygon fill="#63b8ff" stroke="#63b8ff" points="348.23,-189.13 337.98,-191.79 347.66,-196.1 348.23,-189.13"/>
</a>
</g>
</g>
<!-- Node20 -->
<g id="Node000020" class="node">
<title>Node20</title>
<g id="a_Node000020"><a xlink:href="log__collector_8h.html" target="_top" xlink:title=" ">
<polygon fill="white" stroke="#666666" points="745.85,-134.5 625.85,-134.5 625.85,-115.5 745.85,-115.5 745.85,-134.5"/>
<text text-anchor="middle" x="685.85" y="-122.5" font-family="Helvetica,sans-Serif" font-size="10.00">../core/log_collector.h</text>
</a>
</g>
</g>
<!-- Node1&#45;&gt;Node20 -->
<g id="edge38_Node000001_Node000020" class="edge">
<title>Node1&#45;&gt;Node20</title>
<g id="a_edge38_Node000001_Node000020"><a xlink:title=" ">
<path fill="none" stroke="#63b8ff" d="M844.34,-235.13C807.35,-229.89 763.12,-218.7 729.85,-195 712.01,-182.29 699.69,-159.85 692.73,-144.02"/>
<polygon fill="#63b8ff" stroke="#63b8ff" points="695.95,-142.66 688.91,-134.74 689.48,-145.32 695.95,-142.66"/>
</a>
</g>
</g>
<!-- Node21 -->
<g id="Node000021" class="node">
<title>Node21</title>
<g id="a_Node000021"><a xlink:title=" ">
<polygon fill="#e0e0e0" stroke="#999999" points="943.85,-195 887.85,-195 887.85,-176 943.85,-176 943.85,-195"/>
<text text-anchor="middle" x="915.85" y="-183" font-family="Helvetica,sans-Serif" font-size="10.00">sstream</text>
</a>
</g>
</g>
<!-- Node1&#45;&gt;Node21 -->
<g id="edge45_Node000001_Node000021" class="edge">
<title>Node1&#45;&gt;Node21</title>
<g id="a_edge45_Node000001_Node000021"><a xlink:title=" ">
<path fill="none" stroke="#63b8ff" d="M915.85,-230.75C915.85,-223.8 915.85,-213.85 915.85,-205.13"/>
<polygon fill="#63b8ff" stroke="#63b8ff" points="919.35,-205.09 915.85,-195.09 912.35,-205.09 919.35,-205.09"/>
</a>
</g>
</g>
<!-- Node22 -->
<g id="Node000022" class="node">
<title>Node22</title>
<g id="a_Node000022"><a xlink:title=" ">
<polygon fill="#e0e0e0" stroke="#999999" points="1025.85,-195 961.85,-195 961.85,-176 1025.85,-176 1025.85,-195"/>
<text text-anchor="middle" x="993.85" y="-183" font-family="Helvetica,sans-Serif" font-size="10.00">algorithm</text>
</a>
</g>
</g>
<!-- Node1&#45;&gt;Node22 -->
<g id="edge46_Node000001_Node000022" class="edge">
<title>Node1&#45;&gt;Node22</title>
<g id="a_edge46_Node000001_Node000022"><a xlink:title=" ">
<path fill="none" stroke="#63b8ff" d="M928.39,-230.98C940.25,-222.92 958.32,-210.65 972.47,-201.03"/>
<polygon fill="#63b8ff" stroke="#63b8ff" points="974.79,-203.69 981.09,-195.17 970.85,-197.9 974.79,-203.69"/>
</a>
</g>
</g>
<!-- Node23 -->
<g id="Node000023" class="node">
<title>Node23</title>
<g id="a_Node000023"><a xlink:title=" ">
<polygon fill="#e0e0e0" stroke="#999999" points="1099.85,-195 1043.85,-195 1043.85,-176 1099.85,-176 1099.85,-195"/>
<text text-anchor="middle" x="1071.85" y="-183" font-family="Helvetica,sans-Serif" font-size="10.00">iomanip</text>
</a>
</g>
</g>
<!-- Node1&#45;&gt;Node23 -->
<g id="edge47_Node000001_Node000023" class="edge">
<title>Node1&#45;&gt;Node23</title>
<g id="a_edge47_Node000001_Node000023"><a xlink:title=" ">
<path fill="none" stroke="#63b8ff" d="M940.92,-230.98C966.88,-222.16 1007.66,-208.31 1036.81,-198.41"/>
<polygon fill="#63b8ff" stroke="#63b8ff" points="1038.25,-201.61 1046.59,-195.08 1036,-194.99 1038.25,-201.61"/>
</a>
</g>
</g>
<!-- Node24 -->
<g id="Node000024" class="node">
<title>Node24</title>
<g id="a_Node000024"><a xlink:title=" ">
<polygon fill="#e0e0e0" stroke="#999999" points="1225.35,-195 1118.35,-195 1118.35,-176 1225.35,-176 1225.35,-195"/>
<text text-anchor="middle" x="1171.85" y="-183" font-family="Helvetica,sans-Serif" font-size="10.00">condition_variable</text>
</a>
</g>
</g>
<!-- Node1&#45;&gt;Node24 -->
<g id="edge48_Node000001_Node000024" class="edge">
<title>Node1&#45;&gt;Node24</title>
<g id="a_edge48_Node000001_Node000024"><a xlink:title=" ">
<path fill="none" stroke="#63b8ff" d="M956.98,-230.98C1001.45,-221.78 1072.4,-207.09 1120.5,-197.13"/>
<polygon fill="#63b8ff" stroke="#63b8ff" points="1121.32,-200.54 1130.4,-195.08 1119.9,-193.68 1121.32,-200.54"/>
</a>
</g>
</g>
<!-- Node3 -->
<g id="Node000003" class="node">
<title>Node3</title>
<g id="a_Node000003"><a xlink:href="monitoring__interface_8h.html" target="_top" xlink:title="Abstract interface for monitoring and metrics collection.">
<polygon fill="white" stroke="#666666" points="607.35,-140 472.35,-140 472.35,-110 607.35,-110 607.35,-140"/>
<text text-anchor="start" x="480.35" y="-128" font-family="Helvetica,sans-Serif" font-size="10.00">../monitoring/monitoring</text>
<text text-anchor="middle" x="539.85" y="-117" font-family="Helvetica,sans-Serif" font-size="10.00">_interface.h</text>
</a>
</g>
</g>
<!-- Node2&#45;&gt;Node3 -->
<g id="edge2_Node000002_Node000003" class="edge">
<title>Node2&#45;&gt;Node3</title>
<g id="a_edge2_Node000002_Node000003"><a xlink:title=" ">
<path fill="none" stroke="#63b8ff" d="M765.47,-175.99C725.66,-167.17 662.46,-153.17 613.07,-142.22"/>
<polygon fill="#63b8ff" stroke="#63b8ff" points="613.59,-138.75 603.07,-140.01 612.07,-145.59 613.59,-138.75"/>
</a>
</g>
</g>
<!-- Node5 -->
<g id="Node000005" class="node">
<title>Node5</title>
<g id="a_Node000005"><a xlink:title=" ">
<polygon fill="#e0e0e0" stroke="#999999" points="793.35,-74 700.35,-74 700.35,-55 793.35,-55 793.35,-74"/>
<text text-anchor="middle" x="746.85" y="-62" font-family="Helvetica,sans-Serif" font-size="10.00">unordered_map</text>
</a>
</g>
</g>
<!-- Node2&#45;&gt;Node5 -->
<g id="edge15_Node000002_Node000005" class="edge">
<title>Node2&#45;&gt;Node5</title>
<g id="a_edge15_Node000002_Node000005"><a xlink:title=" ">
<path fill="none" stroke="#63b8ff" d="M810.73,-175.69C821.16,-161.17 838.51,-131.66 825.85,-110 817.17,-95.14 801.5,-84.86 786.39,-77.95"/>
<polygon fill="#63b8ff" stroke="#63b8ff" points="787.7,-74.71 777.12,-74.08 785,-81.17 787.7,-74.71"/>
</a>
</g>
</g>
<!-- Node6 -->
<g id="Node000006" class="node">
<title>Node6</title>
<g id="a_Node000006"><a xlink:title=" ">
<polygon fill="#e0e0e0" stroke="#999999" points="613.35,-74 566.35,-74 566.35,-55 613.35,-55 613.35,-74"/>
<text text-anchor="middle" x="589.85" y="-62" font-family="Helvetica,sans-Serif" font-size="10.00">vector</text>
</a>
</g>
</g>
<!-- Node2&#45;&gt;Node6 -->
<g id="edge14_Node000002_Node000006" class="edge">
<title>Node2&#45;&gt;Node6</title>
<g id="a_edge14_Node000002_Node000006"><a xlink:title=" ">
<path fill="none" stroke="#63b8ff" d="M800.61,-175.88C794.3,-160.27 778.81,-127.33 754.85,-110 752.14,-108.04 671.01,-86.66 623.55,-74.27"/>
<polygon fill="#63b8ff" stroke="#63b8ff" points="624.25,-70.83 613.69,-71.7 622.48,-77.61 624.25,-70.83"/>
</a>
</g>
</g>
<!-- Node7 -->
<g id="Node000007" class="node">
<title>Node7</title>
<g id="a_Node000007"><a xlink:title=" ">
<polygon fill="#e0e0e0" stroke="#999999" points="377.85,-74 327.85,-74 327.85,-55 377.85,-55 377.85,-74"/>
<text text-anchor="middle" x="352.85" y="-62" font-family="Helvetica,sans-Serif" font-size="10.00">chrono</text>
</a>
</g>
</g>
<!-- Node2&#45;&gt;Node7 -->
<g id="edge20_Node000002_Node000007" class="edge">
<title>Node2&#45;&gt;Node7</title>
<g id="a_edge20_Node000002_Node000007"><a xlink:title=" ">
<path fill="none" stroke="#63b8ff" d="M738.11,-184.71C668.01,-182.95 554.79,-174.29 463.85,-140 427.21,-126.18 390.64,-98.21 369.97,-80.75"/>
<polygon fill="#63b8ff" stroke="#63b8ff" points="372.24,-78.08 362.38,-74.19 367.66,-83.38 372.24,-78.08"/>
</a>
</g>
</g>
<!-- Node8 -->
<g id="Node000008" class="node">
<title>Node8</title>
<g id="a_Node000008"><a xlink:title=" ">
<polygon fill="#e0e0e0" stroke="#999999" points="681.85,-74 631.85,-74 631.85,-55 681.85,-55 681.85,-74"/>
<text text-anchor="middle" x="656.85" y="-62" font-family="Helvetica,sans-Serif" font-size="10.00">atomic</text>
</a>
</g>
</g>
<!-- Node2&#45;&gt;Node8 -->
<g id="edge17_Node000002_Node000008" class="edge">
<title>Node2&#45;&gt;Node8</title>
<g id="a_edge17_Node000002_Node000008"><a xlink:title=" ">
<path fill="none" stroke="#63b8ff" d="M804.54,-175.94C805.28,-160.72 804.57,-128.77 787.85,-110 781.25,-102.58 728.47,-86.16 691.95,-75.48"/>
<polygon fill="#63b8ff" stroke="#63b8ff" points="692.71,-72.06 682.14,-72.63 690.76,-78.78 692.71,-72.06"/>
</a>
</g>
</g>
<!-- Node9 -->
<g id="Node000009" class="node">
<title>Node9</title>
<g id="a_Node000009"><a xlink:href="error__codes_8h.html" target="_top" xlink:title=" ">
<polygon fill="white" stroke="#666666" points="217.85,-74 125.85,-74 125.85,-55 217.85,-55 217.85,-74"/>
<text text-anchor="middle" x="171.85" y="-62" font-family="Helvetica,sans-Serif" font-size="10.00">../error_codes.h</text>
</a>
</g>
</g>
<!-- Node2&#45;&gt;Node9 -->
<g id="edge12_Node000002_Node000009" class="edge">
<title>Node2&#45;&gt;Node9</title>
<g id="a_edge12_Node000002_Node000009"><a xlink:title=" ">
<path fill="none" stroke="#63b8ff" d="M738.33,-183.61C590.81,-181.05 242.18,-171.68 199.85,-140 182.43,-126.96 175.85,-101.77 173.36,-84.31"/>
<polygon fill="#63b8ff" stroke="#63b8ff" points="176.82,-83.72 172.25,-74.16 169.86,-84.48 176.82,-83.72"/>
</a>
</g>
</g>
<!-- Node12 -->
<g id="Node000012" class="node">
<title>Node12</title>
<g id="a_Node000012"><a xlink:title=" ">
<polygon fill="#e0e0e0" stroke="#999999" points="850.85,-19 792.85,-19 792.85,0 850.85,0 850.85,-19"/>
<text text-anchor="middle" x="821.85" y="-7" font-family="Helvetica,sans-Serif" font-size="10.00">memory</text>
</a>
</g>
</g>
<!-- Node2&#45;&gt;Node12 -->
<g id="edge13_Node000002_Node000012" class="edge">
<title>Node2&#45;&gt;Node12</title>
<g id="a_edge13_Node000002_Node000012"><a xlink:title=" ">
<path fill="none" stroke="#63b8ff" d="M817.98,-175.76C842.67,-159.46 892.41,-121.69 906.85,-74 909.3,-65.92 911.23,-62.22 906.85,-55 896.67,-38.17 877.78,-27.39 860.4,-20.67"/>
<polygon fill="#63b8ff" stroke="#63b8ff" points="861.55,-17.37 850.96,-17.34 859.22,-23.97 861.55,-17.37"/>
</a>
</g>
</g>
<!-- Node13 -->
<g id="Node000013" class="node">
<title>Node13</title>
<g id="a_Node000013"><a xlink:title=" ">
<polygon fill="#e0e0e0" stroke="#999999" points="897.85,-74 849.85,-74 849.85,-55 897.85,-55 897.85,-74"/>
<text text-anchor="middle" x="873.85" y="-62" font-family="Helvetica,sans-Serif" font-size="10.00">thread</text>
</a>
</g>
</g>
<!-- Node2&#45;&gt;Node13 -->
<g id="edge16_Node000002_Node000013" class="edge">
<title>Node2&#45;&gt;Node13</title>
<g id="a_edge16_Node000002_Node000013"><a xlink:title=" ">
<path fill="none" stroke="#63b8ff" d="M812.57,-175.92C820.89,-167.39 833.38,-153.63 841.85,-140 853.09,-121.93 862.21,-99.23 867.8,-83.67"/>
<polygon fill="#63b8ff" stroke="#63b8ff" points="871.12,-84.77 871.08,-74.18 864.5,-82.48 871.12,-84.77"/>
</a>
</g>
</g>
<!-- Node14 -->
<g id="Node000014" class="node">
<title>Node14</title>
<g id="a_Node000014"><a xlink:title=" ">
<polygon fill="#e0e0e0" stroke="#999999" points="993.85,-19 945.85,-19 945.85,0 993.85,0 993.85,-19"/>
<text text-anchor="middle" x="969.85" y="-7" font-family="Helvetica,sans-Serif" font-size="10.00">mutex</text>
</a>
</g>
</g>
<!-- Node2&#45;&gt;Node14 -->
<g id="edge18_Node000002_Node000014" class="edge">
<title>Node2&#45;&gt;Node14</title>
<g id="a_edge18_Node000002_Node000014"><a xlink:title=" ">
<path fill="none" stroke="#63b8ff" d="M868.15,-175.99C930.96,-167.02 1018.6,-152.48 1028.85,-140 1057.99,-104.54 1013.76,-52.34 987.31,-26.38"/>
<polygon fill="#63b8ff" stroke="#63b8ff" points="989.43,-23.57 979.77,-19.21 984.61,-28.64 989.43,-23.57"/>
</a>
</g>
</g>
<!-- Node15 -->
<g id="Node000015" class="node">
<title>Node15</title>
<g id="a_Node000015"><a xlink:title=" ">
<polygon fill="#e0e0e0" stroke="#999999" points="1019.35,-134.5 954.35,-134.5 954.35,-115.5 1019.35,-115.5 1019.35,-134.5"/>
<text text-anchor="middle" x="986.85" y="-122.5" font-family="Helvetica,sans-Serif" font-size="10.00">functional</text>
</a>
</g>
</g>
<!-- Node2&#45;&gt;Node15 -->
<g id="edge19_Node000002_Node000015" class="edge">
<title>Node2&#45;&gt;Node15</title>
<g id="a_edge19_Node000002_Node000015"><a xlink:title=" ">
<path fill="none" stroke="#63b8ff" d="M830.46,-175.99C862.04,-165.9 914.86,-149.01 950.27,-137.69"/>
<polygon fill="#63b8ff" stroke="#63b8ff" points="951.75,-140.9 960.21,-134.52 949.62,-134.23 951.75,-140.9"/>
</a>
</g>
</g>
<!-- Node4 -->
<g id="Node000004" class="node">
<title>Node4</title>
<g id="a_Node000004"><a xlink:title=" ">
<polygon fill="#e0e0e0" stroke="#999999" points="237.85,-19 193.85,-19 193.85,0 237.85,0 237.85,-19"/>
<text text-anchor="middle" x="215.85" y="-7" font-family="Helvetica,sans-Serif" font-size="10.00">string</text>
</a>
</g>
</g>
<!-- Node3&#45;&gt;Node4 -->
<g id="edge3_Node000003_Node000004" class="edge">
<title>Node3&#45;&gt;Node4</title>
<g id="a_edge3_Node000003_Node000004"><a xlink:title=" ">
<path fill="none" stroke="#63b8ff" d="M506.18,-109.92C483.14,-100.15 451.98,-86.67 424.85,-74 407.74,-66.01 404.54,-61.61 386.85,-55 329.61,-33.61 310.78,-35.26 247.9,-19.2"/>
<polygon fill="#63b8ff" stroke="#63b8ff" points="248.42,-15.72 237.86,-16.58 246.65,-22.49 248.42,-15.72"/>
</a>
</g>
</g>
<!-- Node3&#45;&gt;Node5 -->
<g id="edge4_Node000003_Node000005" class="edge">
<title>Node3&#45;&gt;Node5</title>
<g id="a_edge4_Node000003_Node000005"><a xlink:title=" ">
<path fill="none" stroke="#63b8ff" d="M589.43,-109.99C625.31,-99.85 673.19,-86.32 706.68,-76.85"/>
<polygon fill="#63b8ff" stroke="#63b8ff" points="707.92,-80.14 716.59,-74.05 706.01,-73.41 707.92,-80.14"/>
</a>
</g>
</g>
<!-- Node3&#45;&gt;Node6 -->
<g id="edge5_Node000003_Node000006" class="edge">
<title>Node3&#45;&gt;Node6</title>
<g id="a_edge5_Node000003_Node000006"><a xlink:title=" ">
<path fill="none" stroke="#63b8ff" d="M551.96,-109.84C559.14,-101.43 568.28,-90.74 575.78,-81.96"/>
<polygon fill="#63b8ff" stroke="#63b8ff" points="578.52,-84.14 582.36,-74.27 573.2,-79.59 578.52,-84.14"/>
</a>
</g>
</g>
<!-- Node3&#45;&gt;Node7 -->
<g id="edge6_Node000003_Node000007" class="edge">
<title>Node3&#45;&gt;Node7</title>
<g id="a_edge6_Node000003_Node000007"><a xlink:title=" ">
<path fill="none" stroke="#63b8ff" d="M495.06,-109.99C462.15,-99.69 418.07,-85.9 387.76,-76.42"/>
<polygon fill="#63b8ff" stroke="#63b8ff" points="388.63,-73.03 378.04,-73.38 386.54,-79.71 388.63,-73.03"/>
</a>
</g>
</g>
<!-- Node3&#45;&gt;Node8 -->
<g id="edge7_Node000003_Node000008" class="edge">
<title>Node3&#45;&gt;Node8</title>
<g id="a_edge7_Node000003_Node000008"><a xlink:title=" ">
<path fill="none" stroke="#63b8ff" d="M567.88,-109.99C586.88,-100.49 611.82,-88.02 630.47,-78.69"/>
<polygon fill="#63b8ff" stroke="#63b8ff" points="632.2,-81.74 639.57,-74.14 629.06,-75.48 632.2,-81.74"/>
</a>
</g>
</g>
<!-- Node3&#45;&gt;Node9 -->
<g id="edge8_Node000003_Node000009" class="edge">
<title>Node3&#45;&gt;Node9</title>
<g id="a_edge8_Node000003_Node000009"><a xlink:title=" ">
<path fill="none" stroke="#63b8ff" d="M471.93,-113.2C401.75,-102.05 293.49,-84.84 227.99,-74.42"/>
<polygon fill="#63b8ff" stroke="#63b8ff" points="228.28,-70.93 217.86,-72.81 227.18,-77.84 228.28,-70.93"/>
</a>
</g>
</g>
<!-- Node9&#45;&gt;Node4 -->
<g id="edge9_Node000009_Node000004" class="edge">
<title>Node9&#45;&gt;Node4</title>
<g id="a_edge9_Node000009_Node000004"><a xlink:title=" ">
<path fill="none" stroke="#63b8ff" d="M179.12,-54.75C185.4,-47.18 194.64,-36.05 202.28,-26.84"/>
<polygon fill="#63b8ff" stroke="#63b8ff" points="205.03,-29.02 208.72,-19.09 199.64,-24.55 205.03,-29.02"/>
</a>
</g>
</g>
<!-- Node10 -->
<g id="Node000010" class="node">
<title>Node10</title>
<g id="a_Node000010"><a xlink:title=" ">
<polygon fill="#e0e0e0" stroke="#999999" points="311.85,-19 255.85,-19 255.85,0 311.85,0 311.85,-19"/>
<text text-anchor="middle" x="283.85" y="-7" font-family="Helvetica,sans-Serif" font-size="10.00">optional</text>
</a>
</g>
</g>
<!-- Node9&#45;&gt;Node10 -->
<g id="edge10_Node000009_Node000010" class="edge">
<title>Node9&#45;&gt;Node10</title>
<g id="a_edge10_Node000009_Node000010"><a xlink:title=" ">
<path fill="none" stroke="#63b8ff" d="M189.85,-54.98C207.78,-46.5 235.57,-33.35 256.29,-23.54"/>
<polygon fill="#63b8ff" stroke="#63b8ff" points="257.99,-26.61 265.53,-19.17 254.99,-20.28 257.99,-26.61"/>
</a>
</g>
</g>
<!-- Node11 -->
<g id="Node000011" class="node">
<title>Node11</title>
<g id="a_Node000011"><a xlink:title=" ">
<polygon fill="#e0e0e0" stroke="#999999" points="175.35,-19 124.35,-19 124.35,0 175.35,0 175.35,-19"/>
<text text-anchor="middle" x="149.85" y="-7" font-family="Helvetica,sans-Serif" font-size="10.00">variant</text>
</a>
</g>
</g>
<!-- Node9&#45;&gt;Node11 -->
<g id="edge11_Node000009_Node000011" class="edge">
<title>Node9&#45;&gt;Node11</title>
<g id="a_edge11_Node000009_Node000011"><a xlink:title=" ">
<path fill="none" stroke="#63b8ff" d="M168.22,-54.75C165.27,-47.65 161.02,-37.4 157.35,-28.56"/>
<polygon fill="#63b8ff" stroke="#63b8ff" points="160.48,-26.98 153.42,-19.09 154.02,-29.67 160.48,-26.98"/>
</a>
</g>
</g>
<!-- Node16&#45;&gt;Node4 -->
<g id="edge22_Node000016_Node000004" class="edge">
<title>Node16&#45;&gt;Node4</title>
<g id="a_edge22_Node000016_Node000004"><a xlink:title=" ">
<path fill="none" stroke="#63b8ff" d="M209.7,-183.05C138.88,-179.94 31.47,-170.22 5.85,-140 -2.77,-129.83 -0.81,-121.55 5.85,-110 24.88,-77 130.09,-38.55 184,-20.64"/>
<polygon fill="#63b8ff" stroke="#63b8ff" points="185.33,-23.89 193.74,-17.44 183.15,-17.23 185.33,-23.89"/>
</a>
</g>
</g>
<!-- Node16&#45;&gt;Node7 -->
<g id="edge23_Node000016_Node000007" class="edge">
<title>Node16&#45;&gt;Node7</title>
<g id="a_edge23_Node000016_Node000007"><a xlink:title=" ">
<path fill="none" stroke="#63b8ff" d="M300.81,-175.94C317.69,-169.07 338.19,-157.61 348.85,-140 359,-123.24 358.55,-100.27 356.49,-84.29"/>
<polygon fill="#63b8ff" stroke="#63b8ff" points="359.89,-83.38 354.83,-74.07 352.98,-84.5 359.89,-83.38"/>
</a>
</g>
</g>
<!-- Node16&#45;&gt;Node9 -->
<g id="edge28_Node000016_Node000009" class="edge">
<title>Node16&#45;&gt;Node9</title>
<g id="a_edge28_Node000016_Node000009"><a xlink:title=" ">
<path fill="none" stroke="#63b8ff" d="M209.56,-182.51C141.63,-178.9 41.02,-168.71 16.85,-140 -14.98,-102.18 59.19,-82.12 115.57,-72.67"/>
<polygon fill="#63b8ff" stroke="#63b8ff" points="116.18,-76.11 125.5,-71.08 115.08,-69.2 116.18,-76.11"/>
</a>
</g>
</g>
<!-- Node17 -->
<g id="Node000017" class="node">
<title>Node17</title>
<g id="a_Node000017"><a xlink:href="logger__interface_8h.html" target="_top" xlink:title=" ">
<polygon fill="white" stroke="#666666" points="547.85,-74 433.85,-74 433.85,-55 547.85,-55 547.85,-74"/>
<text text-anchor="middle" x="490.85" y="-62" font-family="Helvetica,sans-Serif" font-size="10.00">../logger_interface.h</text>
</a>
</g>
</g>
<!-- Node16&#45;&gt;Node17 -->
<g id="edge24_Node000016_Node000017" class="edge">
<title>Node16&#45;&gt;Node17</title>
<g id="a_edge24_Node000016_Node000017"><a xlink:title=" ">
<path fill="none" stroke="#63b8ff" d="M293,-175.98C311.99,-167.39 341.79,-153.49 366.85,-140 403.33,-120.37 444.27,-95.11 468.79,-79.62"/>
<polygon fill="#63b8ff" stroke="#63b8ff" points="470.77,-82.51 477.34,-74.2 467.02,-76.6 470.77,-82.51"/>
</a>
</g>
</g>
<!-- Node18 -->
<g id="Node000018" class="node">
<title>Node18</title>
<g id="a_Node000018"><a xlink:href="log__writer__interface_8h.html" target="_top" xlink:title=" ">
<polygon fill="white" stroke="#666666" points="151.85,-140 25.85,-140 25.85,-110 151.85,-110 151.85,-140"/>
<text text-anchor="start" x="33.85" y="-128" font-family="Helvetica,sans-Serif" font-size="10.00">../interfaces/log_writer</text>
<text text-anchor="middle" x="88.85" y="-117" font-family="Helvetica,sans-Serif" font-size="10.00">_interface.h</text>
</a>
</g>
</g>
<!-- Node16&#45;&gt;Node18 -->
<g id="edge29_Node000016_Node000018" class="edge">
<title>Node16&#45;&gt;Node18</title>
<g id="a_edge29_Node000016_Node000018"><a xlink:title=" ">
<path fill="none" stroke="#63b8ff" d="M246.95,-175.99C219.86,-167.43 177.31,-153.97 143.17,-143.18"/>
<polygon fill="#63b8ff" stroke="#63b8ff" points="143.92,-139.74 133.33,-140.06 141.81,-146.42 143.92,-139.74"/>
</a>
</g>
</g>
<!-- Node19 -->
<g id="Node000019" class="node">
<title>Node19</title>
<g id="a_Node000019"><a xlink:href="log__entry_8h.html" target="_top" xlink:title=" ">
<polygon fill="white" stroke="#666666" points="339.35,-134.5 208.35,-134.5 208.35,-115.5 339.35,-115.5 339.35,-134.5"/>
<text text-anchor="middle" x="273.85" y="-122.5" font-family="Helvetica,sans-Serif" font-size="10.00">../interfaces/log_entry.h</text>
</a>
</g>
</g>
<!-- Node16&#45;&gt;Node19 -->
<g id="edge33_Node000016_Node000019" class="edge">
<title>Node16&#45;&gt;Node19</title>
<g id="a_edge33_Node000016_Node000019"><a xlink:title=" ">
<path fill="none" stroke="#63b8ff" d="M273.85,-175.87C273.85,-167.75 273.85,-155.31 273.85,-144.89"/>
<polygon fill="#63b8ff" stroke="#63b8ff" points="277.35,-144.67 273.85,-134.67 270.35,-144.67 277.35,-144.67"/>
</a>
</g>
</g>
<!-- Node17&#45;&gt;Node4 -->
<g id="edge27_Node000017_Node000004" class="edge">
<title>Node17&#45;&gt;Node4</title>
<g id="a_edge27_Node000017_Node000004"><a xlink:title=" ">
<path fill="none" stroke="#63b8ff" d="M436.31,-54.95C388.9,-47.21 318.21,-34.9 248.04,-19.11"/>
<polygon fill="#63b8ff" stroke="#63b8ff" points="248.67,-15.67 238.15,-16.86 247.12,-22.49 248.67,-15.67"/>
</a>
</g>
</g>
<!-- Node17&#45;&gt;Node12 -->
<g id="edge25_Node000017_Node000012" class="edge">
<title>Node17&#45;&gt;Node12</title>
<g id="a_edge25_Node000017_Node000012"><a xlink:title=" ">
<path fill="none" stroke="#63b8ff" d="M544.03,-54.98C610.58,-44.33 722.99,-26.33 782.37,-16.82"/>
<polygon fill="#63b8ff" stroke="#63b8ff" points="783.15,-20.24 792.47,-15.2 782.05,-13.33 783.15,-20.24"/>
</a>
</g>
</g>
<!-- Node17&#45;&gt;Node14 -->
<g id="edge26_Node000017_Node000014" class="edge">
<title>Node17&#45;&gt;Node14</title>
<g id="a_edge26_Node000017_Node000014"><a xlink:title=" ">
<path fill="none" stroke="#63b8ff" d="M547.86,-56.19C551.24,-55.78 554.59,-55.38 557.85,-55 697.86,-38.56 864.91,-21.22 935.58,-13.98"/>
<polygon fill="#63b8ff" stroke="#63b8ff" points="936.1,-17.45 945.69,-12.95 935.38,-10.49 936.1,-17.45"/>
</a>
</g>
</g>
<!-- Node18&#45;&gt;Node4 -->
<g id="edge30_Node000018_Node000004" class="edge">
<title>Node18&#45;&gt;Node4</title>
<g id="a_edge30_Node000018_Node000004"><a xlink:title=" ">
<path fill="none" stroke="#63b8ff" d="M91.34,-109.86C94.7,-94.58 102.05,-70.36 116.85,-55 126.67,-44.82 159,-31.28 184.07,-21.82"/>
<polygon fill="#63b8ff" stroke="#63b8ff" points="185.45,-25.05 193.61,-18.29 183.01,-18.48 185.45,-25.05"/>
</a>
</g>
</g>
<!-- Node18&#45;&gt;Node7 -->
<g id="edge31_Node000018_Node000007" class="edge">
<title>Node18&#45;&gt;Node7</title>
<g id="a_edge31_Node000018_Node000007"><a xlink:title=" ">
<path fill="none" stroke="#63b8ff" d="M152.09,-109.99C204.09,-98.46 275.84,-82.56 318,-73.22"/>
<polygon fill="#63b8ff" stroke="#63b8ff" points="318.78,-76.63 327.79,-71.05 317.27,-69.8 318.78,-76.63"/>
</a>
</g>
</g>
<!-- Node18&#45;&gt;Node9 -->
<g id="edge32_Node000018_Node000009" class="edge">
<title>Node18&#45;&gt;Node9</title>
<g id="a_edge32_Node000018_Node000009"><a xlink:title=" ">
<path fill="none" stroke="#63b8ff" d="M108.95,-109.84C121.73,-100.83 138.25,-89.18 151.15,-80.09"/>
<polygon fill="#63b8ff" stroke="#63b8ff" points="153.26,-82.89 159.42,-74.27 149.23,-77.17 153.26,-82.89"/>
</a>
</g>
</g>
<!-- Node19&#45;&gt;Node4 -->
<g id="edge34_Node000019_Node000004" class="edge">
<title>Node19&#45;&gt;Node4</title>
<g id="a_edge34_Node000019_Node000004"><a xlink:title=" ">
<path fill="none" stroke="#63b8ff" d="M269.49,-115.47C260.05,-96.98 237.52,-52.9 224.87,-28.14"/>
<polygon fill="#63b8ff" stroke="#63b8ff" points="227.93,-26.44 220.26,-19.13 221.7,-29.63 227.93,-26.44"/>
</a>
</g>
</g>
<!-- Node19&#45;&gt;Node7 -->
<g id="edge35_Node000019_Node000007" class="edge">
<title>Node19&#45;&gt;Node7</title>
<g id="a_edge35_Node000019_Node000007"><a xlink:title=" ">
<path fill="none" stroke="#63b8ff" d="M285.51,-115.37C298,-106.12 318.03,-91.28 333.01,-80.19"/>
<polygon fill="#63b8ff" stroke="#63b8ff" points="335.19,-82.93 341.15,-74.17 331.03,-77.31 335.19,-82.93"/>
</a>
</g>
</g>
<!-- Node19&#45;&gt;Node10 -->
<g id="edge36_Node000019_Node000010" class="edge">
<title>Node19&#45;&gt;Node10</title>
<g id="a_edge36_Node000019_Node000010"><a xlink:title=" ">
<path fill="none" stroke="#63b8ff" d="M274.6,-115.47C276.21,-97.23 280.01,-54.07 282.21,-29.14"/>
<polygon fill="#63b8ff" stroke="#63b8ff" points="285.7,-29.4 283.09,-19.13 278.73,-28.78 285.7,-29.4"/>
</a>
</g>
</g>
<!-- Node19&#45;&gt;Node17 -->
<g id="edge37_Node000019_Node000017" class="edge">
<title>Node19&#45;&gt;Node17</title>
<g id="a_edge37_Node000019_Node000017"><a xlink:title=" ">
<path fill="none" stroke="#63b8ff" d="M305.41,-115.49C343.41,-105.25 407.38,-88 449.35,-76.69"/>
<polygon fill="#63b8ff" stroke="#63b8ff" points="450.52,-80 459.26,-74.02 448.69,-73.24 450.52,-80"/>
</a>
</g>
</g>
<!-- Node20&#45;&gt;Node6 -->
<g id="edge41_Node000020_Node000006" class="edge">
<title>Node20&#45;&gt;Node6</title>
<g id="a_edge41_Node000020_Node000006"><a xlink:title=" ">
<path fill="none" stroke="#63b8ff" d="M671.69,-115.37C656.16,-105.91 631.02,-90.59 612.7,-79.42"/>
<polygon fill="#63b8ff" stroke="#63b8ff" points="614.44,-76.38 604.08,-74.17 610.79,-82.36 614.44,-76.38"/>
</a>
</g>
</g>
<!-- Node20&#45;&gt;Node7 -->
<g id="edge44_Node000020_Node000007" class="edge">
<title>Node20&#45;&gt;Node7</title>
<g id="a_edge44_Node000020_Node000007"><a xlink:title=" ">
<path fill="none" stroke="#63b8ff" d="M645.03,-115.48C635.78,-113.62 625.99,-111.7 616.85,-110 535.15,-94.83 438.81,-79.14 388.12,-71.06"/>
<polygon fill="#63b8ff" stroke="#63b8ff" points="388.44,-67.57 378.02,-69.46 387.34,-74.48 388.44,-67.57"/>
</a>
</g>
</g>
<!-- Node20&#45;&gt;Node8 -->
<g id="edge43_Node000020_Node000008" class="edge">
<title>Node20&#45;&gt;Node8</title>
<g id="a_edge43_Node000020_Node000008"><a xlink:title=" ">
<path fill="none" stroke="#63b8ff" d="M681.57,-115.37C677.42,-106.99 670.99,-94.01 665.72,-83.39"/>
<polygon fill="#63b8ff" stroke="#63b8ff" points="668.73,-81.57 661.15,-74.17 662.46,-84.68 668.73,-81.57"/>
</a>
</g>
</g>
<!-- Node20&#45;&gt;Node12 -->
<g id="edge40_Node000020_Node000012" class="edge">
<title>Node20&#45;&gt;Node12</title>
<g id="a_edge40_Node000020_Node000012"><a xlink:title=" ">
<path fill="none" stroke="#63b8ff" d="M727.94,-115.48C752.93,-108.36 783.43,-95.75 802.85,-74 813.75,-61.79 818.4,-43.56 820.39,-29.76"/>
<polygon fill="#63b8ff" stroke="#63b8ff" points="823.91,-29.75 821.5,-19.43 816.95,-29 823.91,-29.75"/>
</a>
</g>
</g>
<!-- Node20&#45;&gt;Node13 -->
<g id="edge42_Node000020_Node000013" class="edge">
<title>Node20&#45;&gt;Node13</title>
<g id="a_edge42_Node000020_Node000013"><a xlink:title=" ">
<path fill="none" stroke="#63b8ff" d="M713.19,-115.49C746.79,-105.04 803.82,-87.29 840.11,-76"/>
<polygon fill="#63b8ff" stroke="#63b8ff" points="841.26,-79.31 849.77,-73 839.18,-72.62 841.26,-79.31"/>
</a>
</g>
</g>
<!-- Node20&#45;&gt;Node17 -->
<g id="edge39_Node000020_Node000017" class="edge">
<title>Node20&#45;&gt;Node17</title>
<g id="a_edge39_Node000020_Node000017"><a xlink:title=" ">
<path fill="none" stroke="#63b8ff" d="M657.5,-115.49C623.56,-105.31 566.59,-88.22 528.87,-76.9"/>
<polygon fill="#63b8ff" stroke="#63b8ff" points="529.83,-73.54 519.24,-74.02 527.81,-80.24 529.83,-73.54"/>
</a>
</g>
</g>
</g>
</svg>
