<?xml version="1.0" encoding="UTF-8" standalone="no"?>
<!DOCTYPE svg PUBLIC "-//W3C//DTD SVG 1.1//EN"
 "http://www.w3.org/Graphics/SVG/1.1/DTD/svg11.dtd">
<!-- Generated by graphviz version 2.43.0 (0)
 -->
<!-- Title: health_check_system.h Pages: 1 -->
<svg width="848pt" height="203pt"
 viewBox="0.00 0.00 847.50 203.00" xmlns="http://www.w3.org/2000/svg" xmlns:xlink="http://www.w3.org/1999/xlink">
<g id="graph0" class="graph" transform="scale(1 1) rotate(0) translate(4 199)">
<title>health_check_system.h</title>
<!-- Node1 -->
<g id="Node000001" class="node">
<title>Node1</title>
<g id="a_Node000001"><a xlink:title=" ">
<polygon fill="#999999" stroke="#666666" points="546.5,-195 415.5,-195 415.5,-176 546.5,-176 546.5,-195"/>
<text text-anchor="middle" x="481" y="-183" font-family="Helvetica,sans-Serif" font-size="10.00">health_check_system.h</text>
</a>
</g>
</g>
<!-- Node2 -->
<g id="Node000002" class="node">
<title>Node2</title>
<g id="a_Node000002"><a xlink:href="monitoring__interface_8h.html" target="_top" xlink:title="Abstract interface for monitoring and metrics collection.">
<polygon fill="white" stroke="#666666" points="433.5,-140 298.5,-140 298.5,-110 433.5,-110 433.5,-140"/>
<text text-anchor="start" x="306.5" y="-128" font-family="Helvetica,sans-Serif" font-size="10.00">../monitoring/monitoring</text>
<text text-anchor="middle" x="366" y="-117" font-family="Helvetica,sans-Serif" font-size="10.00">_interface.h</text>
</a>
</g>
</g>
<!-- Node1&#45;&gt;Node2 -->
<g id="edge1_Node000001_Node000002" class="edge">
<title>Node1&#45;&gt;Node2</title>
<g id="a_edge1_Node000001_Node000002"><a xlink:title=" ">
<path fill="none" stroke="#63b8ff" d="M464.03,-175.87C447.99,-167.71 423.4,-155.2 402.85,-144.75"/>
<polygon fill="#63b8ff" stroke="#63b8ff" points="404.25,-141.53 393.75,-140.11 401.07,-147.77 404.25,-141.53"/>
</a>
</g>
</g>
<!-- Node3 -->
<g id="Node000003" class="node">
<title>Node3</title>
<g id="a_Node000003"><a xlink:title=" ">
<polygon fill="#e0e0e0" stroke="#999999" points="334,-19 290,-19 290,0 334,0 334,-19"/>
<text text-anchor="middle" x="312" y="-7" font-family="Helvetica,sans-Serif" font-size="10.00">string</text>
</a>
</g>
</g>
<!-- Node1&#45;&gt;Node3 -->
<g id="edge23_Node000001_Node000003" class="edge">
<title>Node1&#45;&gt;Node3</title>
<g id="a_edge23_Node000001_Node000003"><a xlink:title=" ">
<path fill="none" stroke="#63b8ff" d="M415.47,-176.57C364.72,-169.26 299.69,-156.96 279,-140 248.13,-114.69 231.78,-90.51 250,-55 256.96,-41.44 270.19,-31.07 282.65,-23.78"/>
<polygon fill="#63b8ff" stroke="#63b8ff" points="284.35,-26.84 291.48,-19 281.02,-20.68 284.35,-26.84"/>
</a>
</g>
</g>
<!-- Node4 -->
<g id="Node000004" class="node">
<title>Node4</title>
<g id="a_Node000004"><a xlink:title=" ">
<polygon fill="#e0e0e0" stroke="#999999" points="352.5,-74 259.5,-74 259.5,-55 352.5,-55 352.5,-74"/>
<text text-anchor="middle" x="306" y="-62" font-family="Helvetica,sans-Serif" font-size="10.00">unordered_map</text>
</a>
</g>
</g>
<!-- Node1&#45;&gt;Node4 -->
<g id="edge16_Node000001_Node000004" class="edge">
<title>Node1&#45;&gt;Node4</title>
<g id="a_edge16_Node000001_Node000004"><a xlink:title=" ">
<path fill="none" stroke="#63b8ff" d="M415.48,-177.97C366.26,-171.56 304.73,-159.79 289,-140 276.03,-123.68 285.39,-99.32 294.55,-82.94"/>
<polygon fill="#63b8ff" stroke="#63b8ff" points="297.57,-84.71 299.75,-74.34 291.58,-81.09 297.57,-84.71"/>
</a>
</g>
</g>
<!-- Node5 -->
<g id="Node000005" class="node">
<title>Node5</title>
<g id="a_Node000005"><a xlink:title=" ">
<polygon fill="#e0e0e0" stroke="#999999" points="456.5,-74 409.5,-74 409.5,-55 456.5,-55 456.5,-74"/>
<text text-anchor="middle" x="433" y="-62" font-family="Helvetica,sans-Serif" font-size="10.00">vector</text>
</a>
</g>
</g>
<!-- Node1&#45;&gt;Node5 -->
<g id="edge15_Node000001_Node000005" class="edge">
<title>Node1&#45;&gt;Node5</title>
<g id="a_edge15_Node000001_Node000005"><a xlink:title=" ">
<path fill="none" stroke="#63b8ff" d="M477.55,-175.94C469.8,-156.74 450.89,-109.86 440.37,-83.77"/>
<polygon fill="#63b8ff" stroke="#63b8ff" points="443.54,-82.27 436.55,-74.3 437.05,-84.88 443.54,-82.27"/>
</a>
</g>
</g>
<!-- Node6 -->
<g id="Node000006" class="node">
<title>Node6</title>
<g id="a_Node000006"><a xlink:title=" ">
<polygon fill="#e0e0e0" stroke="#999999" points="525,-74 475,-74 475,-55 525,-55 525,-74"/>
<text text-anchor="middle" x="500" y="-62" font-family="Helvetica,sans-Serif" font-size="10.00">chrono</text>
</a>
</g>
</g>
<!-- Node1&#45;&gt;Node6 -->
<g id="edge21_Node000001_Node000006" class="edge">
<title>Node1&#45;&gt;Node6</title>
<g id="a_edge21_Node000001_Node000006"><a xlink:title=" ">
<path fill="none" stroke="#63b8ff" d="M482.37,-175.94C485.41,-156.91 492.78,-110.69 496.97,-84.47"/>
<polygon fill="#63b8ff" stroke="#63b8ff" points="500.47,-84.73 498.59,-74.3 493.56,-83.62 500.47,-84.73"/>
</a>
</g>
</g>
<!-- Node7 -->
<g id="Node000007" class="node">
<title>Node7</title>
<g id="a_Node000007"><a xlink:title=" ">
<polygon fill="#e0e0e0" stroke="#999999" points="593,-74 543,-74 543,-55 593,-55 593,-74"/>
<text text-anchor="middle" x="568" y="-62" font-family="Helvetica,sans-Serif" font-size="10.00">atomic</text>
</a>
</g>
</g>
<!-- Node1&#45;&gt;Node7 -->
<g id="edge18_Node000001_Node000007" class="edge">
<title>Node1&#45;&gt;Node7</title>
<g id="a_edge18_Node000001_Node000007"><a xlink:title=" ">
<path fill="none" stroke="#63b8ff" d="M487.26,-175.94C501.55,-156.4 536.79,-108.18 555.64,-82.4"/>
<polygon fill="#63b8ff" stroke="#63b8ff" points="558.49,-84.44 561.57,-74.3 552.84,-80.31 558.49,-84.44"/>
</a>
</g>
</g>
<!-- Node8 -->
<g id="Node000008" class="node">
<title>Node8</title>
<g id="a_Node000008"><a xlink:href="error__codes_8h.html" target="_top" xlink:title=" ">
<polygon fill="white" stroke="#666666" points="203,-74 111,-74 111,-55 203,-55 203,-74"/>
<text text-anchor="middle" x="157" y="-62" font-family="Helvetica,sans-Serif" font-size="10.00">../error_codes.h</text>
</a>
</g>
</g>
<!-- Node1&#45;&gt;Node8 -->
<g id="edge13_Node000001_Node000008" class="edge">
<title>Node1&#45;&gt;Node8</title>
<g id="a_edge13_Node000001_Node000008"><a xlink:title=" ">
<path fill="none" stroke="#63b8ff" d="M415.35,-178.79C348.38,-172.03 249.79,-159.21 217,-140 194,-126.53 176.26,-100.66 166.22,-83.24"/>
<polygon fill="#63b8ff" stroke="#63b8ff" points="169.09,-81.21 161.22,-74.12 162.95,-84.57 169.09,-81.21"/>
</a>
</g>
</g>
<!-- Node11 -->
<g id="Node000011" class="node">
<title>Node11</title>
<g id="a_Node000011"><a xlink:title=" ">
<polygon fill="#e0e0e0" stroke="#999999" points="56,-19 0,-19 0,0 56,0 56,-19"/>
<text text-anchor="middle" x="28" y="-7" font-family="Helvetica,sans-Serif" font-size="10.00">optional</text>
</a>
</g>
</g>
<!-- Node1&#45;&gt;Node11 -->
<g id="edge22_Node000001_Node000011" class="edge">
<title>Node1&#45;&gt;Node11</title>
<g id="a_edge22_Node000001_Node000011"><a xlink:title=" ">
<path fill="none" stroke="#63b8ff" d="M415.24,-184.87C352.48,-182.93 256.55,-173.88 181,-140 121.15,-113.15 66.48,-55.63 41.82,-27.16"/>
<polygon fill="#63b8ff" stroke="#63b8ff" points="44.3,-24.68 35.15,-19.33 38.97,-29.21 44.3,-24.68"/>
</a>
</g>
</g>
<!-- Node13 -->
<g id="Node000013" class="node">
<title>Node13</title>
<g id="a_Node000013"><a xlink:title=" ">
<polygon fill="#e0e0e0" stroke="#999999" points="624,-134.5 566,-134.5 566,-115.5 624,-115.5 624,-134.5"/>
<text text-anchor="middle" x="595" y="-122.5" font-family="Helvetica,sans-Serif" font-size="10.00">memory</text>
</a>
</g>
</g>
<!-- Node1&#45;&gt;Node13 -->
<g id="edge14_Node000001_Node000013" class="edge">
<title>Node1&#45;&gt;Node13</title>
<g id="a_edge14_Node000001_Node000013"><a xlink:title=" ">
<path fill="none" stroke="#63b8ff" d="M497.82,-175.87C516.6,-166.23 547.2,-150.53 569.05,-139.31"/>
<polygon fill="#63b8ff" stroke="#63b8ff" points="570.81,-142.35 578.11,-134.67 567.61,-136.12 570.81,-142.35"/>
</a>
</g>
</g>
<!-- Node14 -->
<g id="Node000014" class="node">
<title>Node14</title>
<g id="a_Node000014"><a xlink:title=" ">
<polygon fill="#e0e0e0" stroke="#999999" points="690,-134.5 642,-134.5 642,-115.5 690,-115.5 690,-134.5"/>
<text text-anchor="middle" x="666" y="-122.5" font-family="Helvetica,sans-Serif" font-size="10.00">thread</text>
</a>
</g>
</g>
<!-- Node1&#45;&gt;Node14 -->
<g id="edge17_Node000001_Node000014" class="edge">
<title>Node1&#45;&gt;Node14</title>
<g id="a_edge17_Node000001_Node000014"><a xlink:title=" ">
<path fill="none" stroke="#63b8ff" d="M514.27,-175.96C545.3,-167.71 592.73,-154.38 633,-140 634.43,-139.49 635.88,-138.95 637.35,-138.39"/>
<polygon fill="#63b8ff" stroke="#63b8ff" points="638.98,-141.51 646.95,-134.53 636.37,-135.01 638.98,-141.51"/>
</a>
</g>
</g>
<!-- Node15 -->
<g id="Node000015" class="node">
<title>Node15</title>
<g id="a_Node000015"><a xlink:title=" ">
<polygon fill="#e0e0e0" stroke="#999999" points="756,-134.5 708,-134.5 708,-115.5 756,-115.5 756,-134.5"/>
<text text-anchor="middle" x="732" y="-122.5" font-family="Helvetica,sans-Serif" font-size="10.00">mutex</text>
</a>
</g>
</g>
<!-- Node1&#45;&gt;Node15 -->
<g id="edge19_Node000001_Node000015" class="edge">
<title>Node1&#45;&gt;Node15</title>
<g id="a_edge19_Node000001_Node000015"><a xlink:title=" ">
<path fill="none" stroke="#63b8ff" d="M538.71,-175.96C583.11,-168.61 645.7,-156.56 699,-140 700.68,-139.48 702.38,-138.9 704.09,-138.29"/>
<polygon fill="#63b8ff" stroke="#63b8ff" points="705.71,-141.42 713.74,-134.51 703.15,-134.9 705.71,-141.42"/>
</a>
</g>
</g>
<!-- Node16 -->
<g id="Node000016" class="node">
<title>Node16</title>
<g id="a_Node000016"><a xlink:title=" ">
<polygon fill="#e0e0e0" stroke="#999999" points="839.5,-134.5 774.5,-134.5 774.5,-115.5 839.5,-115.5 839.5,-134.5"/>
<text text-anchor="middle" x="807" y="-122.5" font-family="Helvetica,sans-Serif" font-size="10.00">functional</text>
</a>
</g>
</g>
<!-- Node1&#45;&gt;Node16 -->
<g id="edge20_Node000001_Node000016" class="edge">
<title>Node1&#45;&gt;Node16</title>
<g id="a_edge20_Node000001_Node000016"><a xlink:title=" ">
<path fill="none" stroke="#63b8ff" d="M546.75,-177.35C604.71,-170.29 691.17,-157.96 765,-140 767.97,-139.28 771.02,-138.44 774.07,-137.55"/>
<polygon fill="#63b8ff" stroke="#63b8ff" points="775.16,-140.88 783.65,-134.55 773.07,-134.2 775.16,-140.88"/>
</a>
</g>
</g>
<!-- Node2&#45;&gt;Node3 -->
<g id="edge2_Node000002_Node000003" class="edge">
<title>Node2&#45;&gt;Node3</title>
<g id="a_edge2_Node000002_Node000003"><a xlink:title=" ">
<path fill="none" stroke="#63b8ff" d="M367.92,-110C369.25,-95.48 369.51,-72.5 361,-55 355.17,-43.01 344.56,-32.75 334.7,-25.11"/>
<polygon fill="#63b8ff" stroke="#63b8ff" points="336.52,-22.11 326.37,-19.1 332.43,-27.79 336.52,-22.11"/>
</a>
</g>
</g>
<!-- Node2&#45;&gt;Node4 -->
<g id="edge3_Node000002_Node000004" class="edge">
<title>Node2&#45;&gt;Node4</title>
<g id="a_edge3_Node000002_Node000004"><a xlink:title=" ">
<path fill="none" stroke="#63b8ff" d="M351.48,-109.84C342.68,-101.26 331.43,-90.3 322.33,-81.42"/>
<polygon fill="#63b8ff" stroke="#63b8ff" points="324.59,-78.74 314.99,-74.27 319.71,-83.75 324.59,-78.74"/>
</a>
</g>
</g>
<!-- Node2&#45;&gt;Node5 -->
<g id="edge4_Node000002_Node000005" class="edge">
<title>Node2&#45;&gt;Node5</title>
<g id="a_edge4_Node000002_Node000005"><a xlink:title=" ">
<path fill="none" stroke="#63b8ff" d="M382.22,-109.84C392.24,-101.09 405.11,-89.85 415.38,-80.88"/>
<polygon fill="#63b8ff" stroke="#63b8ff" points="417.73,-83.48 422.96,-74.27 413.13,-78.21 417.73,-83.48"/>
</a>
</g>
</g>
<!-- Node2&#45;&gt;Node6 -->
<g id="edge5_Node000002_Node000006" class="edge">
<title>Node2&#45;&gt;Node6</title>
<g id="a_edge5_Node000002_Node000006"><a xlink:title=" ">
<path fill="none" stroke="#63b8ff" d="M398.1,-109.99C420.25,-100.31 449.48,-87.56 470.95,-78.18"/>
<polygon fill="#63b8ff" stroke="#63b8ff" points="472.45,-81.35 480.21,-74.14 469.65,-74.93 472.45,-81.35"/>
</a>
</g>
</g>
<!-- Node2&#45;&gt;Node7 -->
<g id="edge6_Node000002_Node000007" class="edge">
<title>Node2&#45;&gt;Node7</title>
<g id="a_edge6_Node000002_Node000007"><a xlink:title=" ">
<path fill="none" stroke="#63b8ff" d="M414.38,-109.99C450.98,-99.39 500.37,-85.09 533.15,-75.59"/>
<polygon fill="#63b8ff" stroke="#63b8ff" points="534.13,-78.95 542.76,-72.81 532.18,-72.23 534.13,-78.95"/>
</a>
</g>
</g>
<!-- Node2&#45;&gt;Node8 -->
<g id="edge7_Node000002_Node000008" class="edge">
<title>Node2&#45;&gt;Node8</title>
<g id="a_edge7_Node000002_Node000008"><a xlink:title=" ">
<path fill="none" stroke="#63b8ff" d="M315.94,-109.99C279.71,-99.85 231.38,-86.32 197.56,-76.85"/>
<polygon fill="#63b8ff" stroke="#63b8ff" points="198.13,-73.38 187.56,-74.05 196.25,-80.12 198.13,-73.38"/>
</a>
</g>
</g>
<!-- Node8&#45;&gt;Node3 -->
<g id="edge8_Node000008_Node000003" class="edge">
<title>Node8&#45;&gt;Node3</title>
<g id="a_edge8_Node000008_Node000003"><a xlink:title=" ">
<path fill="none" stroke="#63b8ff" d="M181.9,-54.98C208.54,-45.88 250.88,-31.4 279.98,-21.45"/>
<polygon fill="#63b8ff" stroke="#63b8ff" points="281.34,-24.68 289.67,-18.13 279.08,-18.06 281.34,-24.68"/>
</a>
</g>
</g>
<!-- Node9 -->
<g id="Node000009" class="node">
<title>Node9</title>
<g id="a_Node000009"><a xlink:title=" ">
<polygon fill="#e0e0e0" stroke="#999999" points="208.5,-19 143.5,-19 143.5,0 208.5,0 208.5,-19"/>
<text text-anchor="middle" x="176" y="-7" font-family="Helvetica,sans-Serif" font-size="10.00">stdexcept</text>
</a>
</g>
</g>
<!-- Node8&#45;&gt;Node9 -->
<g id="edge9_Node000008_Node000009" class="edge">
<title>Node8&#45;&gt;Node9</title>
<g id="a_edge9_Node000008_Node000009"><a xlink:title=" ">
<path fill="none" stroke="#63b8ff" d="M160.14,-54.75C162.68,-47.65 166.36,-37.4 169.53,-28.56"/>
<polygon fill="#63b8ff" stroke="#63b8ff" points="172.84,-29.68 172.92,-19.09 166.25,-27.32 172.84,-29.68"/>
</a>
</g>
</g>
<!-- Node10 -->
<g id="Node000010" class="node">
<title>Node10</title>
<g id="a_Node000010"><a xlink:title=" ">
<polygon fill="#e0e0e0" stroke="#999999" points="271.5,-19 226.5,-19 226.5,0 271.5,0 271.5,-19"/>
<text text-anchor="middle" x="249" y="-7" font-family="Helvetica,sans-Serif" font-size="10.00">utility</text>
</a>
</g>
</g>
<!-- Node8&#45;&gt;Node10 -->
<g id="edge10_Node000008_Node000010" class="edge">
<title>Node8&#45;&gt;Node10</title>
<g id="a_edge10_Node000008_Node000010"><a xlink:title=" ">
<path fill="none" stroke="#63b8ff" d="M171.78,-54.98C186.18,-46.69 208.31,-33.94 225.19,-24.22"/>
<polygon fill="#63b8ff" stroke="#63b8ff" points="227.03,-27.19 233.95,-19.17 223.54,-21.13 227.03,-27.19"/>
</a>
</g>
</g>
<!-- Node8&#45;&gt;Node11 -->
<g id="edge11_Node000008_Node000011" class="edge">
<title>Node8&#45;&gt;Node11</title>
<g id="a_edge11_Node000008_Node000011"><a xlink:title=" ">
<path fill="none" stroke="#63b8ff" d="M136.27,-54.98C115.24,-46.34 82.45,-32.87 58.46,-23.02"/>
<polygon fill="#63b8ff" stroke="#63b8ff" points="59.68,-19.73 49.1,-19.17 57.02,-26.21 59.68,-19.73"/>
</a>
</g>
</g>
<!-- Node12 -->
<g id="Node000012" class="node">
<title>Node12</title>
<g id="a_Node000012"><a xlink:title=" ">
<polygon fill="#e0e0e0" stroke="#999999" points="125.5,-19 74.5,-19 74.5,0 125.5,0 125.5,-19"/>
<text text-anchor="middle" x="100" y="-7" font-family="Helvetica,sans-Serif" font-size="10.00">variant</text>
</a>
</g>
</g>
<!-- Node8&#45;&gt;Node12 -->
<g id="edge12_Node000008_Node000012" class="edge">
<title>Node8&#45;&gt;Node12</title>
<g id="a_edge12_Node000008_Node000012"><a xlink:title=" ">
<path fill="none" stroke="#63b8ff" d="M147.84,-54.98C139.5,-47.23 126.97,-35.58 116.82,-26.14"/>
<polygon fill="#63b8ff" stroke="#63b8ff" points="119.03,-23.42 109.32,-19.17 114.26,-28.54 119.03,-23.42"/>
</a>
</g>
</g>
</g>
</svg>
