<?xml version="1.0" encoding="UTF-8" standalone="no"?>
<!DOCTYPE svg PUBLIC "-//W3C//DTD SVG 1.1//EN"
 "http://www.w3.org/Graphics/SVG/1.1/DTD/svg11.dtd">
<!-- Generated by graphviz version 2.43.0 (0)
 -->
<!-- Title: health_check_system.h Pages: 1 -->
<svg width="798pt" height="203pt"
 viewBox="0.00 0.00 797.50 203.00" xmlns="http://www.w3.org/2000/svg" xmlns:xlink="http://www.w3.org/1999/xlink">
<g id="graph0" class="graph" transform="scale(1 1) rotate(0) translate(4 199)">
<title>health_check_system.h</title>
<!-- Node1 -->
<g id="Node000001" class="node">
<title>Node1</title>
<g id="a_Node000001"><a xlink:title=" ">
<polygon fill="#999999" stroke="#666666" points="496.5,-195 365.5,-195 365.5,-176 496.5,-176 496.5,-195"/>
<text text-anchor="middle" x="431" y="-183" font-family="Helvetica,sans-Serif" font-size="10.00">health_check_system.h</text>
</a>
</g>
</g>
<!-- Node2 -->
<g id="Node000002" class="node">
<title>Node2</title>
<g id="a_Node000002"><a xlink:href="monitoring__interface_8h.html" target="_top" xlink:title="Abstract interface for monitoring and metrics collection.">
<polygon fill="white" stroke="#666666" points="383.5,-140 248.5,-140 248.5,-110 383.5,-110 383.5,-140"/>
<text text-anchor="start" x="256.5" y="-128" font-family="Helvetica,sans-Serif" font-size="10.00">../monitoring/monitoring</text>
<text text-anchor="middle" x="316" y="-117" font-family="Helvetica,sans-Serif" font-size="10.00">_interface.h</text>
</a>
</g>
</g>
<!-- Node1&#45;&gt;Node2 -->
<g id="edge1_Node000001_Node000002" class="edge">
<title>Node1&#45;&gt;Node2</title>
<g id="a_edge1_Node000001_Node000002"><a xlink:title=" ">
<path fill="none" stroke="#63b8ff" d="M414.03,-175.87C397.99,-167.71 373.4,-155.2 352.85,-144.75"/>
<polygon fill="#63b8ff" stroke="#63b8ff" points="354.25,-141.53 343.75,-140.11 351.07,-147.77 354.25,-141.53"/>
</a>
</g>
</g>
<!-- Node3 -->
<g id="Node000003" class="node">
<title>Node3</title>
<g id="a_Node000003"><a xlink:title=" ">
<polygon fill="#e0e0e0" stroke="#999999" points="271,-19 227,-19 227,0 271,0 271,-19"/>
<text text-anchor="middle" x="249" y="-7" font-family="Helvetica,sans-Serif" font-size="10.00">string</text>
</a>
</g>
</g>
<!-- Node1&#45;&gt;Node3 -->
<g id="edge22_Node000001_Node000003" class="edge">
<title>Node1&#45;&gt;Node3</title>
<g id="a_edge22_Node000001_Node000003"><a xlink:title=" ">
<path fill="none" stroke="#63b8ff" d="M365.47,-176.57C314.72,-169.26 249.69,-156.96 229,-140 198.13,-114.69 183.84,-91.5 200,-55 205.32,-42.97 215.68,-32.8 225.51,-25.24"/>
<polygon fill="#63b8ff" stroke="#63b8ff" points="227.76,-27.93 233.87,-19.27 223.7,-22.23 227.76,-27.93"/>
</a>
</g>
</g>
<!-- Node4 -->
<g id="Node000004" class="node">
<title>Node4</title>
<g id="a_Node000004"><a xlink:title=" ">
<polygon fill="#e0e0e0" stroke="#999999" points="302.5,-74 209.5,-74 209.5,-55 302.5,-55 302.5,-74"/>
<text text-anchor="middle" x="256" y="-62" font-family="Helvetica,sans-Serif" font-size="10.00">unordered_map</text>
</a>
</g>
</g>
<!-- Node1&#45;&gt;Node4 -->
<g id="edge15_Node000001_Node000004" class="edge">
<title>Node1&#45;&gt;Node4</title>
<g id="a_edge15_Node000001_Node000004"><a xlink:title=" ">
<path fill="none" stroke="#63b8ff" d="M365.48,-177.97C316.26,-171.56 254.73,-159.79 239,-140 226.03,-123.68 235.39,-99.32 244.55,-82.94"/>
<polygon fill="#63b8ff" stroke="#63b8ff" points="247.57,-84.71 249.75,-74.34 241.58,-81.09 247.57,-84.71"/>
</a>
</g>
</g>
<!-- Node5 -->
<g id="Node000005" class="node">
<title>Node5</title>
<g id="a_Node000005"><a xlink:title=" ">
<polygon fill="#e0e0e0" stroke="#999999" points="406.5,-74 359.5,-74 359.5,-55 406.5,-55 406.5,-74"/>
<text text-anchor="middle" x="383" y="-62" font-family="Helvetica,sans-Serif" font-size="10.00">vector</text>
</a>
</g>
</g>
<!-- Node1&#45;&gt;Node5 -->
<g id="edge14_Node000001_Node000005" class="edge">
<title>Node1&#45;&gt;Node5</title>
<g id="a_edge14_Node000001_Node000005"><a xlink:title=" ">
<path fill="none" stroke="#63b8ff" d="M427.55,-175.94C419.8,-156.74 400.89,-109.86 390.37,-83.77"/>
<polygon fill="#63b8ff" stroke="#63b8ff" points="393.54,-82.27 386.55,-74.3 387.05,-84.88 393.54,-82.27"/>
</a>
</g>
</g>
<!-- Node6 -->
<g id="Node000006" class="node">
<title>Node6</title>
<g id="a_Node000006"><a xlink:title=" ">
<polygon fill="#e0e0e0" stroke="#999999" points="475,-74 425,-74 425,-55 475,-55 475,-74"/>
<text text-anchor="middle" x="450" y="-62" font-family="Helvetica,sans-Serif" font-size="10.00">chrono</text>
</a>
</g>
</g>
<!-- Node1&#45;&gt;Node6 -->
<g id="edge20_Node000001_Node000006" class="edge">
<title>Node1&#45;&gt;Node6</title>
<g id="a_edge20_Node000001_Node000006"><a xlink:title=" ">
<path fill="none" stroke="#63b8ff" d="M432.37,-175.94C435.41,-156.91 442.78,-110.69 446.97,-84.47"/>
<polygon fill="#63b8ff" stroke="#63b8ff" points="450.47,-84.73 448.59,-74.3 443.56,-83.62 450.47,-84.73"/>
</a>
</g>
</g>
<!-- Node7 -->
<g id="Node000007" class="node">
<title>Node7</title>
<g id="a_Node000007"><a xlink:title=" ">
<polygon fill="#e0e0e0" stroke="#999999" points="543,-74 493,-74 493,-55 543,-55 543,-74"/>
<text text-anchor="middle" x="518" y="-62" font-family="Helvetica,sans-Serif" font-size="10.00">atomic</text>
</a>
</g>
</g>
<!-- Node1&#45;&gt;Node7 -->
<g id="edge17_Node000001_Node000007" class="edge">
<title>Node1&#45;&gt;Node7</title>
<g id="a_edge17_Node000001_Node000007"><a xlink:title=" ">
<path fill="none" stroke="#63b8ff" d="M437.26,-175.94C451.55,-156.4 486.79,-108.18 505.64,-82.4"/>
<polygon fill="#63b8ff" stroke="#63b8ff" points="508.49,-84.44 511.57,-74.3 502.84,-80.31 508.49,-84.44"/>
</a>
</g>
</g>
<!-- Node8 -->
<g id="Node000008" class="node">
<title>Node8</title>
<g id="a_Node000008"><a xlink:href="error__codes_8h.html" target="_top" xlink:title=" ">
<polygon fill="white" stroke="#666666" points="153,-74 61,-74 61,-55 153,-55 153,-74"/>
<text text-anchor="middle" x="107" y="-62" font-family="Helvetica,sans-Serif" font-size="10.00">../error_codes.h</text>
</a>
</g>
</g>
<!-- Node1&#45;&gt;Node8 -->
<g id="edge12_Node000001_Node000008" class="edge">
<title>Node1&#45;&gt;Node8</title>
<g id="a_edge12_Node000001_Node000008"><a xlink:title=" ">
<path fill="none" stroke="#63b8ff" d="M365.35,-178.79C298.38,-172.03 199.79,-159.21 167,-140 144,-126.53 126.26,-100.66 116.22,-83.24"/>
<polygon fill="#63b8ff" stroke="#63b8ff" points="119.09,-81.21 111.22,-74.12 112.95,-84.57 119.09,-81.21"/>
</a>
</g>
</g>
<!-- Node10 -->
<g id="Node000010" class="node">
<title>Node10</title>
<g id="a_Node000010"><a xlink:title=" ">
<polygon fill="#e0e0e0" stroke="#999999" points="56,-19 0,-19 0,0 56,0 56,-19"/>
<text text-anchor="middle" x="28" y="-7" font-family="Helvetica,sans-Serif" font-size="10.00">optional</text>
</a>
</g>
</g>
<!-- Node1&#45;&gt;Node10 -->
<g id="edge21_Node000001_Node000010" class="edge">
<title>Node1&#45;&gt;Node10</title>
<g id="a_edge21_Node000001_Node000010"><a xlink:title=" ">
<path fill="none" stroke="#63b8ff" d="M365.24,-184.87C302.48,-182.93 206.55,-173.88 131,-140 89.25,-121.28 78.51,-111.29 52,-74 42.4,-60.49 36.1,-42.66 32.38,-29.34"/>
<polygon fill="#63b8ff" stroke="#63b8ff" points="35.7,-28.22 29.84,-19.4 28.92,-29.95 35.7,-28.22"/>
</a>
</g>
</g>
<!-- Node12 -->
<g id="Node000012" class="node">
<title>Node12</title>
<g id="a_Node000012"><a xlink:title=" ">
<polygon fill="#e0e0e0" stroke="#999999" points="574,-134.5 516,-134.5 516,-115.5 574,-115.5 574,-134.5"/>
<text text-anchor="middle" x="545" y="-122.5" font-family="Helvetica,sans-Serif" font-size="10.00">memory</text>
</a>
</g>
</g>
<!-- Node1&#45;&gt;Node12 -->
<g id="edge13_Node000001_Node000012" class="edge">
<title>Node1&#45;&gt;Node12</title>
<g id="a_edge13_Node000001_Node000012"><a xlink:title=" ">
<path fill="none" stroke="#63b8ff" d="M447.82,-175.87C466.6,-166.23 497.2,-150.53 519.05,-139.31"/>
<polygon fill="#63b8ff" stroke="#63b8ff" points="520.81,-142.35 528.11,-134.67 517.61,-136.12 520.81,-142.35"/>
</a>
</g>
</g>
<!-- Node13 -->
<g id="Node000013" class="node">
<title>Node13</title>
<g id="a_Node000013"><a xlink:title=" ">
<polygon fill="#e0e0e0" stroke="#999999" points="640,-134.5 592,-134.5 592,-115.5 640,-115.5 640,-134.5"/>
<text text-anchor="middle" x="616" y="-122.5" font-family="Helvetica,sans-Serif" font-size="10.00">thread</text>
</a>
</g>
</g>
<!-- Node1&#45;&gt;Node13 -->
<g id="edge16_Node000001_Node000013" class="edge">
<title>Node1&#45;&gt;Node13</title>
<g id="a_edge16_Node000001_Node000013"><a xlink:title=" ">
<path fill="none" stroke="#63b8ff" d="M464.27,-175.96C495.3,-167.71 542.73,-154.38 583,-140 584.43,-139.49 585.88,-138.95 587.35,-138.39"/>
<polygon fill="#63b8ff" stroke="#63b8ff" points="588.98,-141.51 596.95,-134.53 586.37,-135.01 588.98,-141.51"/>
</a>
</g>
</g>
<!-- Node14 -->
<g id="Node000014" class="node">
<title>Node14</title>
<g id="a_Node000014"><a xlink:title=" ">
<polygon fill="#e0e0e0" stroke="#999999" points="706,-134.5 658,-134.5 658,-115.5 706,-115.5 706,-134.5"/>
<text text-anchor="middle" x="682" y="-122.5" font-family="Helvetica,sans-Serif" font-size="10.00">mutex</text>
</a>
</g>
</g>
<!-- Node1&#45;&gt;Node14 -->
<g id="edge18_Node000001_Node000014" class="edge">
<title>Node1&#45;&gt;Node14</title>
<g id="a_edge18_Node000001_Node000014"><a xlink:title=" ">
<path fill="none" stroke="#63b8ff" d="M488.71,-175.96C533.11,-168.61 595.7,-156.56 649,-140 650.68,-139.48 652.38,-138.9 654.09,-138.29"/>
<polygon fill="#63b8ff" stroke="#63b8ff" points="655.71,-141.42 663.74,-134.51 653.15,-134.9 655.71,-141.42"/>
</a>
</g>
</g>
<!-- Node15 -->
<g id="Node000015" class="node">
<title>Node15</title>
<g id="a_Node000015"><a xlink:title=" ">
<polygon fill="#e0e0e0" stroke="#999999" points="789.5,-134.5 724.5,-134.5 724.5,-115.5 789.5,-115.5 789.5,-134.5"/>
<text text-anchor="middle" x="757" y="-122.5" font-family="Helvetica,sans-Serif" font-size="10.00">functional</text>
</a>
</g>
</g>
<!-- Node1&#45;&gt;Node15 -->
<g id="edge19_Node000001_Node000015" class="edge">
<title>Node1&#45;&gt;Node15</title>
<g id="a_edge19_Node000001_Node000015"><a xlink:title=" ">
<path fill="none" stroke="#63b8ff" d="M496.75,-177.35C554.71,-170.29 641.17,-157.96 715,-140 717.97,-139.28 721.02,-138.44 724.07,-137.55"/>
<polygon fill="#63b8ff" stroke="#63b8ff" points="725.16,-140.88 733.65,-134.55 723.07,-134.2 725.16,-140.88"/>
</a>
</g>
</g>
<!-- Node2&#45;&gt;Node3 -->
<g id="edge2_Node000002_Node000003" class="edge">
<title>Node2&#45;&gt;Node3</title>
<g id="a_edge2_Node000002_Node000003"><a xlink:title=" ">
<path fill="none" stroke="#63b8ff" d="M318.32,-109.79C319.98,-95.1 320.5,-71.98 311,-55 303.5,-41.6 290.09,-31.22 277.65,-23.86"/>
<polygon fill="#63b8ff" stroke="#63b8ff" points="279.32,-20.78 268.87,-19.04 275.95,-26.92 279.32,-20.78"/>
</a>
</g>
</g>
<!-- Node2&#45;&gt;Node4 -->
<g id="edge3_Node000002_Node000004" class="edge">
<title>Node2&#45;&gt;Node4</title>
<g id="a_edge3_Node000002_Node000004"><a xlink:title=" ">
<path fill="none" stroke="#63b8ff" d="M301.48,-109.84C292.68,-101.26 281.43,-90.3 272.33,-81.42"/>
<polygon fill="#63b8ff" stroke="#63b8ff" points="274.59,-78.74 264.99,-74.27 269.71,-83.75 274.59,-78.74"/>
</a>
</g>
</g>
<!-- Node2&#45;&gt;Node5 -->
<g id="edge4_Node000002_Node000005" class="edge">
<title>Node2&#45;&gt;Node5</title>
<g id="a_edge4_Node000002_Node000005"><a xlink:title=" ">
<path fill="none" stroke="#63b8ff" d="M332.22,-109.84C342.24,-101.09 355.11,-89.85 365.38,-80.88"/>
<polygon fill="#63b8ff" stroke="#63b8ff" points="367.73,-83.48 372.96,-74.27 363.13,-78.21 367.73,-83.48"/>
</a>
</g>
</g>
<!-- Node2&#45;&gt;Node6 -->
<g id="edge5_Node000002_Node000006" class="edge">
<title>Node2&#45;&gt;Node6</title>
<g id="a_edge5_Node000002_Node000006"><a xlink:title=" ">
<path fill="none" stroke="#63b8ff" d="M348.1,-109.99C370.25,-100.31 399.48,-87.56 420.95,-78.18"/>
<polygon fill="#63b8ff" stroke="#63b8ff" points="422.45,-81.35 430.21,-74.14 419.65,-74.93 422.45,-81.35"/>
</a>
</g>
</g>
<!-- Node2&#45;&gt;Node7 -->
<g id="edge6_Node000002_Node000007" class="edge">
<title>Node2&#45;&gt;Node7</title>
<g id="a_edge6_Node000002_Node000007"><a xlink:title=" ">
<path fill="none" stroke="#63b8ff" d="M364.38,-109.99C400.98,-99.39 450.37,-85.09 483.15,-75.59"/>
<polygon fill="#63b8ff" stroke="#63b8ff" points="484.13,-78.95 492.76,-72.81 482.18,-72.23 484.13,-78.95"/>
</a>
</g>
</g>
<!-- Node2&#45;&gt;Node8 -->
<g id="edge7_Node000002_Node000008" class="edge">
<title>Node2&#45;&gt;Node8</title>
<g id="a_edge7_Node000002_Node000008"><a xlink:title=" ">
<path fill="none" stroke="#63b8ff" d="M265.94,-109.99C229.71,-99.85 181.38,-86.32 147.56,-76.85"/>
<polygon fill="#63b8ff" stroke="#63b8ff" points="148.13,-73.38 137.56,-74.05 146.25,-80.12 148.13,-73.38"/>
</a>
</g>
</g>
<!-- Node8&#45;&gt;Node3 -->
<g id="edge8_Node000008_Node000003" class="edge">
<title>Node8&#45;&gt;Node3</title>
<g id="a_edge8_Node000008_Node000003"><a xlink:title=" ">
<path fill="none" stroke="#63b8ff" d="M129.81,-54.98C153.45,-46.16 190.58,-32.31 217.11,-22.4"/>
<polygon fill="#63b8ff" stroke="#63b8ff" points="218.57,-25.6 226.71,-18.82 216.12,-19.04 218.57,-25.6"/>
</a>
</g>
</g>
<!-- Node9 -->
<g id="Node000009" class="node">
<title>Node9</title>
<g id="a_Node000009"><a xlink:title=" ">
<polygon fill="#e0e0e0" stroke="#999999" points="139.5,-19 74.5,-19 74.5,0 139.5,0 139.5,-19"/>
<text text-anchor="middle" x="107" y="-7" font-family="Helvetica,sans-Serif" font-size="10.00">stdexcept</text>
</a>
</g>
</g>
<!-- Node8&#45;&gt;Node9 -->
<g id="edge9_Node000008_Node000009" class="edge">
<title>Node8&#45;&gt;Node9</title>
<g id="a_edge9_Node000008_Node000009"><a xlink:title=" ">
<path fill="none" stroke="#63b8ff" d="M107,-54.75C107,-47.8 107,-37.85 107,-29.13"/>
<polygon fill="#63b8ff" stroke="#63b8ff" points="110.5,-29.09 107,-19.09 103.5,-29.09 110.5,-29.09"/>
</a>
</g>
</g>
<!-- Node8&#45;&gt;Node10 -->
<g id="edge10_Node000008_Node000010" class="edge">
<title>Node8&#45;&gt;Node10</title>
<g id="a_edge10_Node000008_Node000010"><a xlink:title=" ">
<path fill="none" stroke="#63b8ff" d="M94.31,-54.98C82.17,-46.84 63.64,-34.41 49.25,-24.76"/>
<polygon fill="#63b8ff" stroke="#63b8ff" points="51.18,-21.84 40.92,-19.17 47.28,-27.65 51.18,-21.84"/>
</a>
</g>
</g>
<!-- Node11 -->
<g id="Node000011" class="node">
<title>Node11</title>
<g id="a_Node000011"><a xlink:title=" ">
<polygon fill="#e0e0e0" stroke="#999999" points="208.5,-19 157.5,-19 157.5,0 208.5,0 208.5,-19"/>
<text text-anchor="middle" x="183" y="-7" font-family="Helvetica,sans-Serif" font-size="10.00">variant</text>
</a>
</g>
</g>
<!-- Node8&#45;&gt;Node11 -->
<g id="edge11_Node000008_Node000011" class="edge">
<title>Node8&#45;&gt;Node11</title>
<g id="a_edge11_Node000008_Node000011"><a xlink:title=" ">
<path fill="none" stroke="#63b8ff" d="M119.21,-54.98C130.78,-46.92 148.38,-34.65 162.16,-25.03"/>
<polygon fill="#63b8ff" stroke="#63b8ff" points="164.37,-27.76 170.57,-19.17 160.36,-22.02 164.37,-27.76"/>
</a>
</g>
</g>
</g>
</svg>
