<?xml version="1.0" encoding="UTF-8" standalone="no"?>
<!DOCTYPE svg PUBLIC "-//W3C//DTD SVG 1.1//EN"
 "http://www.w3.org/Graphics/SVG/1.1/DTD/svg11.dtd">
<!-- Generated by graphviz version 2.43.0 (0)
 -->
<!-- Title: Graphical Class Hierarchy Pages: 1 -->
<svg width="300pt" height="278pt"
 viewBox="0.00 0.00 300.00 278.00" xmlns="http://www.w3.org/2000/svg" xmlns:xlink="http://www.w3.org/1999/xlink">
<g id="graph0" class="graph" transform="scale(1 1) rotate(0) translate(4 274)">
<title>Graphical Class Hierarchy</title>
<!-- Node0 -->
<g id="Node000000" class="node">
<title>Node0</title>
<g id="a_Node000000"><a xlink:href="classlogger__module_1_1log__filter.html" target="_top" xlink:title="Base class for log filtering.">
<polygon fill="white" stroke="#666666" points="110,-150 0,-150 0,-120 110,-120 110,-150"/>
<text text-anchor="start" x="8" y="-138" font-family="Helvetica,sans-Serif" font-size="10.00">logger_module::log</text>
<text text-anchor="middle" x="55" y="-127" font-family="Helvetica,sans-Serif" font-size="10.00">_filter</text>
</a>
</g>
</g>
<!-- Node1 -->
<g id="Node000001" class="node">
<title>Node1</title>
<g id="a_Node000001"><a xlink:href="classlogger__module_1_1access__control__filter.html" target="_top" xlink:title="Filter that controls access based on log level and source.">
<polygon fill="white" stroke="#666666" points="283,-270 155,-270 155,-240 283,-240 283,-270"/>
<text text-anchor="start" x="163" y="-258" font-family="Helvetica,sans-Serif" font-size="10.00">logger_module::access</text>
<text text-anchor="middle" x="219" y="-247" font-family="Helvetica,sans-Serif" font-size="10.00">_control_filter</text>
</a>
</g>
</g>
<!-- Node0&#45;&gt;Node1 -->
<g id="edge6_Node000000_Node000001" class="edge">
<title>Node0&#45;&gt;Node1</title>
<g id="a_edge6_Node000000_Node000001"><a xlink:title=" ">
<path fill="none" stroke="#63b8ff" d="M72.59,-158.52C88.98,-180.15 115.9,-211.72 146,-231 151.33,-234.41 157.19,-237.39 163.19,-239.97"/>
<polygon fill="#63b8ff" stroke="#63b8ff" points="75.2,-156.15 66.44,-150.2 69.57,-160.32 75.2,-156.15"/>
</a>
</g>
</g>
<!-- Node2 -->
<g id="Node000002" class="node">
<title>Node2</title>
<g id="a_Node000002"><a xlink:href="classlogger__module_1_1composite__filter.html" target="_top" xlink:title="Combine multiple filters with AND/OR logic.">
<polygon fill="white" stroke="#666666" points="292,-222 146,-222 146,-192 292,-192 292,-222"/>
<text text-anchor="start" x="154" y="-210" font-family="Helvetica,sans-Serif" font-size="10.00">logger_module::composite</text>
<text text-anchor="middle" x="219" y="-199" font-family="Helvetica,sans-Serif" font-size="10.00">_filter</text>
</a>
</g>
</g>
<!-- Node0&#45;&gt;Node2 -->
<g id="edge7_Node000000_Node000002" class="edge">
<title>Node0&#45;&gt;Node2</title>
<g id="a_edge7_Node000000_Node000002"><a xlink:title=" ">
<path fill="none" stroke="#63b8ff" d="M90.19,-154.98C106.73,-164.19 127.06,-174.86 146,-183 153.38,-186.17 161.34,-189.2 169.17,-191.96"/>
<polygon fill="#63b8ff" stroke="#63b8ff" points="91.86,-151.91 81.43,-150.04 88.42,-158 91.86,-151.91"/>
</a>
</g>
</g>
<!-- Node3 -->
<g id="Node000003" class="node">
<title>Node3</title>
<g id="a_Node000003"><a xlink:href="classlogger__module_1_1function__filter.html" target="_top" xlink:title="Filter logs by custom function.">
<polygon fill="white" stroke="#666666" points="286.5,-174 151.5,-174 151.5,-144 286.5,-144 286.5,-174"/>
<text text-anchor="start" x="159.5" y="-162" font-family="Helvetica,sans-Serif" font-size="10.00">logger_module::function</text>
<text text-anchor="middle" x="219" y="-151" font-family="Helvetica,sans-Serif" font-size="10.00">_filter</text>
</a>
</g>
</g>
<!-- Node0&#45;&gt;Node3 -->
<g id="edge8_Node000000_Node000003" class="edge">
<title>Node0&#45;&gt;Node3</title>
<g id="a_edge8_Node000000_Node000003"><a xlink:title=" ">
<path fill="none" stroke="#63b8ff" d="M120.42,-144.54C130.6,-146.05 141.14,-147.61 151.37,-149.13"/>
<polygon fill="#63b8ff" stroke="#63b8ff" points="120.8,-141.06 110.39,-143.06 119.77,-147.99 120.8,-141.06"/>
</a>
</g>
</g>
<!-- Node4 -->
<g id="Node000004" class="node">
<title>Node4</title>
<g id="a_Node000004"><a xlink:href="classlogger__module_1_1level__filter.html" target="_top" xlink:title="Filter logs by minimum level.">
<polygon fill="white" stroke="#666666" points="278.5,-126 159.5,-126 159.5,-96 278.5,-96 278.5,-126"/>
<text text-anchor="start" x="167.5" y="-114" font-family="Helvetica,sans-Serif" font-size="10.00">logger_module::level</text>
<text text-anchor="middle" x="219" y="-103" font-family="Helvetica,sans-Serif" font-size="10.00">_filter</text>
</a>
</g>
</g>
<!-- Node0&#45;&gt;Node4 -->
<g id="edge9_Node000000_Node000004" class="edge">
<title>Node0&#45;&gt;Node4</title>
<g id="a_edge9_Node000000_Node000004"><a xlink:title=" ">
<path fill="none" stroke="#63b8ff" d="M120.52,-125.44C133.32,-123.54 146.7,-121.56 159.3,-119.7"/>
<polygon fill="#63b8ff" stroke="#63b8ff" points="119.77,-122.01 110.39,-126.94 120.8,-128.94 119.77,-122.01"/>
</a>
</g>
</g>
<!-- Node5 -->
<g id="Node000005" class="node">
<title>Node5</title>
<g id="a_Node000005"><a xlink:href="classlogger__module_1_1regex__filter.html" target="_top" xlink:title="Filter logs by regex pattern.">
<polygon fill="white" stroke="#666666" points="280.5,-78 157.5,-78 157.5,-48 280.5,-48 280.5,-78"/>
<text text-anchor="start" x="165.5" y="-66" font-family="Helvetica,sans-Serif" font-size="10.00">logger_module::regex</text>
<text text-anchor="middle" x="219" y="-55" font-family="Helvetica,sans-Serif" font-size="10.00">_filter</text>
</a>
</g>
</g>
<!-- Node0&#45;&gt;Node5 -->
<g id="edge10_Node000000_Node000005" class="edge">
<title>Node0&#45;&gt;Node5</title>
<g id="a_edge10_Node000000_Node000005"><a xlink:title=" ">
<path fill="none" stroke="#63b8ff" d="M90.19,-115.02C106.73,-105.81 127.06,-95.14 146,-87 153.38,-83.83 161.34,-80.8 169.17,-78.04"/>
<polygon fill="#63b8ff" stroke="#63b8ff" points="88.42,-112 81.43,-119.96 91.86,-118.09 88.42,-112"/>
</a>
</g>
</g>
<!-- Node6 -->
<g id="Node000006" class="node">
<title>Node6</title>
<g id="a_Node000006"><a xlink:href="classlogger__module_1_1sanitizing__filter.html" target="_top" xlink:title="Log filter that sanitizes messages before logging.">
<polygon fill="white" stroke="#666666" points="290.5,-30 147.5,-30 147.5,0 290.5,0 290.5,-30"/>
<text text-anchor="start" x="155.5" y="-18" font-family="Helvetica,sans-Serif" font-size="10.00">logger_module::sanitizing</text>
<text text-anchor="middle" x="219" y="-7" font-family="Helvetica,sans-Serif" font-size="10.00">_filter</text>
</a>
</g>
</g>
<!-- Node0&#45;&gt;Node6 -->
<g id="edge11_Node000000_Node000006" class="edge">
<title>Node0&#45;&gt;Node6</title>
<g id="a_edge11_Node000000_Node000006"><a xlink:title=" ">
<path fill="none" stroke="#63b8ff" d="M72.59,-111.48C88.98,-89.85 115.9,-58.28 146,-39 151.33,-35.59 157.19,-32.61 163.19,-30.03"/>
<polygon fill="#63b8ff" stroke="#63b8ff" points="69.57,-109.68 66.44,-119.8 75.2,-113.85 69.57,-109.68"/>
</a>
</g>
</g>
</g>
</svg>
