<?xml version="1.0" encoding="UTF-8" standalone="no"?>
<!DOCTYPE svg PUBLIC "-//W3C//DTD SVG 1.1//EN"
 "http://www.w3.org/Graphics/SVG/1.1/DTD/svg11.dtd">
<!-- Generated by graphviz version 2.43.0 (0)
 -->
<!-- Title: Graphical Class Hierarchy Pages: 1 -->
<svg width="312pt" height="230pt"
 viewBox="0.00 0.00 312.00 230.00" xmlns="http://www.w3.org/2000/svg" xmlns:xlink="http://www.w3.org/1999/xlink">
<g id="graph0" class="graph" transform="scale(1 1) rotate(0) translate(4 226)">
<title>Graphical Class Hierarchy</title>
<!-- Node0 -->
<g id="Node000000" class="node">
<title>Node0</title>
<g id="a_Node000000"><a xlink:href="classlogger__module_1_1overflow__policy__base.html" target="_top" xlink:title="Base class for overflow policies.">
<polygon fill="white" stroke="#666666" points="137,-126 0,-126 0,-96 137,-96 137,-126"/>
<text text-anchor="start" x="8" y="-114" font-family="Helvetica,sans-Serif" font-size="10.00">logger_module::overflow</text>
<text text-anchor="middle" x="68.5" y="-103" font-family="Helvetica,sans-Serif" font-size="10.00">_policy_base</text>
</a>
</g>
</g>
<!-- Node1 -->
<g id="Node000001" class="node">
<title>Node1</title>
<g id="a_Node000001"><a xlink:href="classlogger__module_1_1block__policy.html" target="_top" xlink:title="Block until space is available.">
<polygon fill="white" stroke="#666666" points="299.5,-222 177.5,-222 177.5,-192 299.5,-192 299.5,-222"/>
<text text-anchor="start" x="185.5" y="-210" font-family="Helvetica,sans-Serif" font-size="10.00">logger_module::block</text>
<text text-anchor="middle" x="238.5" y="-199" font-family="Helvetica,sans-Serif" font-size="10.00">_policy</text>
</a>
</g>
</g>
<!-- Node0&#45;&gt;Node1 -->
<g id="edge25_Node000000_Node000001" class="edge">
<title>Node0&#45;&gt;Node1</title>
<g id="a_edge25_Node000000_Node000001"><a xlink:title=" ">
<path fill="none" stroke="#63b8ff" d="M96.14,-132.34C116.37,-147.83 145.34,-168.53 173,-183 179.14,-186.21 185.81,-189.2 192.45,-191.9"/>
<polygon fill="#63b8ff" stroke="#63b8ff" points="98.08,-129.42 88.04,-126.05 93.79,-134.95 98.08,-129.42"/>
</a>
</g>
</g>
<!-- Node2 -->
<g id="Node000002" class="node">
<title>Node2</title>
<g id="a_Node000002"><a xlink:href="classlogger__module_1_1custom__overflow__policy.html" target="_top" xlink:title=" ">
<polygon fill="white" stroke="#666666" points="304,-174 173,-174 173,-144 304,-144 304,-174"/>
<text text-anchor="start" x="181" y="-162" font-family="Helvetica,sans-Serif" font-size="10.00">logger_module::custom</text>
<text text-anchor="middle" x="238.5" y="-151" font-family="Helvetica,sans-Serif" font-size="10.00">_overflow_policy</text>
</a>
</g>
</g>
<!-- Node0&#45;&gt;Node2 -->
<g id="edge26_Node000000_Node000002" class="edge">
<title>Node0&#45;&gt;Node2</title>
<g id="a_edge26_Node000000_Node000002"><a xlink:title=" ">
<path fill="none" stroke="#63b8ff" d="M132.25,-128.93C149.61,-133.89 168.27,-139.22 184.99,-144"/>
<polygon fill="#63b8ff" stroke="#63b8ff" points="132.77,-125.44 122.2,-126.06 130.85,-132.17 132.77,-125.44"/>
</a>
</g>
</g>
<!-- Node3 -->
<g id="Node000003" class="node">
<title>Node3</title>
<g id="a_Node000003"><a xlink:href="classlogger__module_1_1drop__newest__policy.html" target="_top" xlink:title="Drop newest messages when queue is full.">
<polygon fill="white" stroke="#666666" points="297,-126 180,-126 180,-96 297,-96 297,-126"/>
<text text-anchor="start" x="188" y="-114" font-family="Helvetica,sans-Serif" font-size="10.00">logger_module::drop</text>
<text text-anchor="middle" x="238.5" y="-103" font-family="Helvetica,sans-Serif" font-size="10.00">_newest_policy</text>
</a>
</g>
</g>
<!-- Node0&#45;&gt;Node3 -->
<g id="edge27_Node000000_Node000003" class="edge">
<title>Node0&#45;&gt;Node3</title>
<g id="a_edge27_Node000000_Node000003"><a xlink:title=" ">
<path fill="none" stroke="#63b8ff" d="M147.36,-111C158.32,-111 169.42,-111 179.91,-111"/>
<polygon fill="#63b8ff" stroke="#63b8ff" points="147.35,-107.5 137.35,-111 147.35,-114.5 147.35,-107.5"/>
</a>
</g>
</g>
<!-- Node4 -->
<g id="Node000004" class="node">
<title>Node4</title>
<g id="a_Node000004"><a xlink:href="classlogger__module_1_1drop__oldest__policy.html" target="_top" xlink:title="Drop oldest messages when queue is full.">
<polygon fill="white" stroke="#666666" points="297,-78 180,-78 180,-48 297,-48 297,-78"/>
<text text-anchor="start" x="188" y="-66" font-family="Helvetica,sans-Serif" font-size="10.00">logger_module::drop</text>
<text text-anchor="middle" x="238.5" y="-55" font-family="Helvetica,sans-Serif" font-size="10.00">_oldest_policy</text>
</a>
</g>
</g>
<!-- Node0&#45;&gt;Node4 -->
<g id="edge28_Node000000_Node000004" class="edge">
<title>Node0&#45;&gt;Node4</title>
<g id="a_edge28_Node000000_Node000004"><a xlink:title=" ">
<path fill="none" stroke="#63b8ff" d="M132.25,-93.07C149.61,-88.11 168.27,-82.78 184.99,-78"/>
<polygon fill="#63b8ff" stroke="#63b8ff" points="130.85,-89.83 122.2,-95.94 132.77,-96.56 130.85,-89.83"/>
</a>
</g>
</g>
<!-- Node5 -->
<g id="Node000005" class="node">
<title>Node5</title>
<g id="a_Node000005"><a xlink:href="classlogger__module_1_1grow__policy.html" target="_top" xlink:title="Dynamically grow the queue.">
<polygon fill="white" stroke="#666666" points="298,-30 179,-30 179,0 298,0 298,-30"/>
<text text-anchor="start" x="187" y="-18" font-family="Helvetica,sans-Serif" font-size="10.00">logger_module::grow</text>
<text text-anchor="middle" x="238.5" y="-7" font-family="Helvetica,sans-Serif" font-size="10.00">_policy</text>
</a>
</g>
</g>
<!-- Node0&#45;&gt;Node5 -->
<g id="edge29_Node000000_Node000005" class="edge">
<title>Node0&#45;&gt;Node5</title>
<g id="a_edge29_Node000000_Node000005"><a xlink:title=" ">
<path fill="none" stroke="#63b8ff" d="M96.14,-89.66C116.37,-74.17 145.34,-53.47 173,-39 179.14,-35.79 185.81,-32.8 192.45,-30.1"/>
<polygon fill="#63b8ff" stroke="#63b8ff" points="93.79,-87.05 88.04,-95.95 98.08,-92.58 93.79,-87.05"/>
</a>
</g>
</g>
</g>
</svg>
