<?xml version="1.0" encoding="UTF-8" standalone="no"?>
<!DOCTYPE svg PUBLIC "-//W3C//DTD SVG 1.1//EN"
 "http://www.w3.org/Graphics/SVG/1.1/DTD/svg11.dtd">
<!-- Generated by graphviz version 2.43.0 (0)
 -->
<!-- Title: Graphical Class Hierarchy Pages: 1 -->
<svg width="623pt" height="182pt"
 viewBox="0.00 0.00 623.00 182.00" xmlns="http://www.w3.org/2000/svg" xmlns:xlink="http://www.w3.org/1999/xlink">
<g id="graph0" class="graph" transform="scale(1 1) rotate(0) translate(4 178)">
<title>Graphical Class Hierarchy</title>
<!-- Node0 -->
<g id="Node000000" class="node">
<title>Node0</title>
<g id="a_Node000000"><a xlink:href="classlogger__module_1_1log__writer__interface.html" target="_top" xlink:title="Interface for log writers.">
<polygon fill="white" stroke="#666666" points="110,-102 0,-102 0,-72 110,-72 110,-102"/>
<text text-anchor="start" x="8" y="-90" font-family="Helvetica,sans-Serif" font-size="10.00">logger_module::log</text>
<text text-anchor="middle" x="55" y="-79" font-family="Helvetica,sans-Serif" font-size="10.00">_writer_interface</text>
</a>
</g>
</g>
<!-- Node1 -->
<g id="Node000001" class="node">
<title>Node1</title>
<g id="a_Node000001"><a xlink:href="classlogger__module_1_1base__writer.html" target="_top" xlink:title="Base class for all log writers.">
<polygon fill="white" stroke="#666666" points="265,-102 146,-102 146,-72 265,-72 265,-102"/>
<text text-anchor="start" x="154" y="-90" font-family="Helvetica,sans-Serif" font-size="10.00">logger_module::base</text>
<text text-anchor="middle" x="205.5" y="-79" font-family="Helvetica,sans-Serif" font-size="10.00">_writer</text>
</a>
</g>
</g>
<!-- Node0&#45;&gt;Node1 -->
<g id="edge17_Node000000_Node000001" class="edge">
<title>Node0&#45;&gt;Node1</title>
<g id="a_edge17_Node000000_Node000001"><a xlink:title=" ">
<path fill="none" stroke="#63b8ff" d="M120.04,-87C128.67,-87 137.48,-87 146,-87"/>
<polygon fill="#63b8ff" stroke="#63b8ff" points="120.03,-83.5 110.03,-87 120.03,-90.5 120.03,-83.5"/>
</a>
</g>
</g>
<!-- Node2 -->
<g id="Node000002" class="node">
<title>Node2</title>
<g id="a_Node000002"><a xlink:href="classlogger__module_1_1console__writer.html" target="_top" xlink:title="Console writer that outputs logs to stdout/stderr.">
<polygon fill="white" stroke="#666666" points="439.5,-174 306.5,-174 306.5,-144 439.5,-144 439.5,-174"/>
<text text-anchor="start" x="314.5" y="-162" font-family="Helvetica,sans-Serif" font-size="10.00">logger_module::console</text>
<text text-anchor="middle" x="373" y="-151" font-family="Helvetica,sans-Serif" font-size="10.00">_writer</text>
</a>
</g>
</g>
<!-- Node1&#45;&gt;Node2 -->
<g id="edge18_Node000001_Node000002" class="edge">
<title>Node1&#45;&gt;Node2</title>
<g id="a_edge18_Node000001_Node000002"><a xlink:title=" ">
<path fill="none" stroke="#63b8ff" d="M242.9,-107.04C260.22,-116.17 281.39,-126.76 301,-135 308.44,-138.13 316.44,-141.15 324.29,-143.93"/>
<polygon fill="#63b8ff" stroke="#63b8ff" points="244.18,-103.75 233.71,-102.14 240.89,-109.93 244.18,-103.75"/>
</a>
</g>
</g>
<!-- Node3 -->
<g id="Node000003" class="node">
<title>Node3</title>
<g id="a_Node000003"><a xlink:href="classlogger__module_1_1encrypted__writer.html" target="_top" xlink:title="Writer that encrypts log data before passing to another writer.">
<polygon fill="white" stroke="#666666" points="445,-126 301,-126 301,-96 445,-96 445,-126"/>
<text text-anchor="start" x="309" y="-114" font-family="Helvetica,sans-Serif" font-size="10.00">logger_module::encrypted</text>
<text text-anchor="middle" x="373" y="-103" font-family="Helvetica,sans-Serif" font-size="10.00">_writer</text>
</a>
</g>
</g>
<!-- Node1&#45;&gt;Node3 -->
<g id="edge19_Node000001_Node000003" class="edge">
<title>Node1&#45;&gt;Node3</title>
<g id="a_edge19_Node000001_Node000003"><a xlink:title=" ">
<path fill="none" stroke="#63b8ff" d="M275.45,-97C283.86,-98.22 292.47,-99.47 300.91,-100.69"/>
<polygon fill="#63b8ff" stroke="#63b8ff" points="275.71,-93.5 265.32,-95.53 274.71,-100.43 275.71,-93.5"/>
</a>
</g>
</g>
<!-- Node4 -->
<g id="Node000004" class="node">
<title>Node4</title>
<g id="a_Node000004"><a xlink:href="classlogger__module_1_1file__writer.html" target="_top" xlink:title="Basic file writer for logging to files.">
<polygon fill="white" stroke="#666666" points="428,-78 318,-78 318,-48 428,-48 428,-78"/>
<text text-anchor="start" x="326" y="-66" font-family="Helvetica,sans-Serif" font-size="10.00">logger_module::file</text>
<text text-anchor="middle" x="373" y="-55" font-family="Helvetica,sans-Serif" font-size="10.00">_writer</text>
</a>
</g>
</g>
<!-- Node1&#45;&gt;Node4 -->
<g id="edge20_Node000001_Node000004" class="edge">
<title>Node1&#45;&gt;Node4</title>
<g id="a_edge20_Node000001_Node000004"><a xlink:title=" ">
<path fill="none" stroke="#63b8ff" d="M275.48,-77C289.6,-74.95 304.28,-72.82 317.79,-70.86"/>
<polygon fill="#63b8ff" stroke="#63b8ff" points="274.71,-73.57 265.32,-78.47 275.71,-80.5 274.71,-73.57"/>
</a>
</g>
</g>
<!-- Node6 -->
<g id="Node000006" class="node">
<title>Node6</title>
<g id="a_Node000006"><a xlink:href="classlogger__module_1_1network__writer.html" target="_top" xlink:title="Sends logs over network (TCP/UDP)">
<polygon fill="white" stroke="#666666" points="440.5,-30 305.5,-30 305.5,0 440.5,0 440.5,-30"/>
<text text-anchor="start" x="313.5" y="-18" font-family="Helvetica,sans-Serif" font-size="10.00">logger_module::network</text>
<text text-anchor="middle" x="373" y="-7" font-family="Helvetica,sans-Serif" font-size="10.00">_writer</text>
</a>
</g>
</g>
<!-- Node1&#45;&gt;Node6 -->
<g id="edge22_Node000001_Node000006" class="edge">
<title>Node1&#45;&gt;Node6</title>
<g id="a_edge22_Node000001_Node000006"><a xlink:title=" ">
<path fill="none" stroke="#63b8ff" d="M242.9,-66.96C260.22,-57.83 281.39,-47.24 301,-39 308.44,-35.87 316.44,-32.85 324.29,-30.07"/>
<polygon fill="#63b8ff" stroke="#63b8ff" points="240.89,-64.07 233.71,-71.86 244.18,-70.25 240.89,-64.07"/>
</a>
</g>
</g>
<!-- Node5 -->
<g id="Node000005" class="node">
<title>Node5</title>
<g id="a_Node000005"><a xlink:href="classlogger__module_1_1rotating__file__writer.html" target="_top" xlink:title="File writer with rotation support based on size or time.">
<polygon fill="white" stroke="#666666" points="615,-78 481,-78 481,-48 615,-48 615,-78"/>
<text text-anchor="start" x="489" y="-66" font-family="Helvetica,sans-Serif" font-size="10.00">logger_module::rotating</text>
<text text-anchor="middle" x="548" y="-55" font-family="Helvetica,sans-Serif" font-size="10.00">_file_writer</text>
</a>
</g>
</g>
<!-- Node4&#45;&gt;Node5 -->
<g id="edge21_Node000004_Node000005" class="edge">
<title>Node4&#45;&gt;Node5</title>
<g id="a_edge21_Node000004_Node000005"><a xlink:title=" ">
<path fill="none" stroke="#63b8ff" d="M438.61,-63C452.38,-63 466.94,-63 480.77,-63"/>
<polygon fill="#63b8ff" stroke="#63b8ff" points="438.26,-59.5 428.26,-63 438.26,-66.5 438.26,-59.5"/>
</a>
</g>
</g>
</g>
</svg>
