<?xml version="1.0" encoding="UTF-8" standalone="no"?>
<!DOCTYPE svg PUBLIC "-//W3C//DTD SVG 1.1//EN"
 "http://www.w3.org/Graphics/SVG/1.1/DTD/svg11.dtd">
<!-- Generated by graphviz version 2.43.0 (0)
 -->
<!-- Title: /home/runner/work/logger_system/logger_system/sources/logger/di/lightweight_di_container.h Pages: 1 -->
<svg width="493pt" height="225pt"
 viewBox="0.00 0.00 493.00 225.00" xmlns="http://www.w3.org/2000/svg" xmlns:xlink="http://www.w3.org/1999/xlink">
<g id="graph0" class="graph" transform="scale(1 1) rotate(0) translate(4 221)">
<title>/home/runner/work/logger_system/logger_system/sources/logger/di/lightweight_di_container.h</title>
<!-- Node1 -->
<g id="Node000001" class="node">
<title>Node1</title>
<g id="a_Node000001"><a xlink:title="Lightweight dependency injection container implementation.">
<polygon fill="#999999" stroke="#666666" points="368,-217 174,-217 174,-176 368,-176 368,-217"/>
<text text-anchor="start" x="182" y="-205" font-family="Helvetica,sans-Serif" font-size="10.00">/home/runner/work/logger</text>
<text text-anchor="start" x="182" y="-194" font-family="Helvetica,sans-Serif" font-size="10.00">_system/logger_system/sources</text>
<text text-anchor="middle" x="271" y="-183" font-family="Helvetica,sans-Serif" font-size="10.00">/logger/di/lightweight_di_container.h</text>
</a>
</g>
</g>
<!-- Node2 -->
<g id="Node000002" class="node">
<title>Node2</title>
<g id="a_Node000002"><a xlink:href="di__container__interface_8h.html" target="_top" xlink:title="Abstract interface for dependency injection container.">
<polygon fill="white" stroke="#666666" points="206,-140 72,-140 72,-121 206,-121 206,-140"/>
<text text-anchor="middle" x="139" y="-128" font-family="Helvetica,sans-Serif" font-size="10.00">di_container_interface.h</text>
</a>
</g>
</g>
<!-- Node1&#45;&gt;Node2 -->
<g id="edge1_Node000001_Node000002" class="edge">
<title>Node1&#45;&gt;Node2</title>
<g id="a_edge1_Node000001_Node000002"><a xlink:title=" ">
<path fill="none" stroke="#63b8ff" d="M230.68,-175.95C209.63,-165.75 184.46,-153.54 165.82,-144.5"/>
<polygon fill="#63b8ff" stroke="#63b8ff" points="167.25,-141.31 156.72,-140.09 164.19,-147.6 167.25,-141.31"/>
</a>
</g>
</g>
<!-- Node10 -->
<g id="Node000010" class="node">
<title>Node10</title>
<g id="a_Node000010"><a xlink:title=" ">
<polygon fill="#e0e0e0" stroke="#999999" points="317.5,-140 224.5,-140 224.5,-121 317.5,-121 317.5,-140"/>
<text text-anchor="middle" x="271" y="-128" font-family="Helvetica,sans-Serif" font-size="10.00">unordered_map</text>
</a>
</g>
</g>
<!-- Node1&#45;&gt;Node10 -->
<g id="edge10_Node000001_Node000010" class="edge">
<title>Node1&#45;&gt;Node10</title>
<g id="a_edge10_Node000001_Node000010"><a xlink:title=" ">
<path fill="none" stroke="#63b8ff" d="M271,-175.95C271,-167.85 271,-158.5 271,-150.47"/>
<polygon fill="#63b8ff" stroke="#63b8ff" points="274.5,-150.26 271,-140.26 267.5,-150.26 274.5,-150.26"/>
</a>
</g>
</g>
<!-- Node11 -->
<g id="Node000011" class="node">
<title>Node11</title>
<g id="a_Node000011"><a xlink:title=" ">
<polygon fill="#e0e0e0" stroke="#999999" points="384,-140 336,-140 336,-121 384,-121 384,-140"/>
<text text-anchor="middle" x="360" y="-128" font-family="Helvetica,sans-Serif" font-size="10.00">mutex</text>
</a>
</g>
</g>
<!-- Node1&#45;&gt;Node11 -->
<g id="edge11_Node000001_Node000011" class="edge">
<title>Node1&#45;&gt;Node11</title>
<g id="a_edge11_Node000001_Node000011"><a xlink:title=" ">
<path fill="none" stroke="#63b8ff" d="M298.19,-175.95C311.51,-166.37 327.3,-155.02 339.58,-146.19"/>
<polygon fill="#63b8ff" stroke="#63b8ff" points="341.74,-148.94 347.82,-140.26 337.66,-143.26 341.74,-148.94"/>
</a>
</g>
</g>
<!-- Node3 -->
<g id="Node000003" class="node">
<title>Node3</title>
<g id="a_Node000003"><a xlink:title=" ">
<polygon fill="#e0e0e0" stroke="#999999" points="58,-85 0,-85 0,-66 58,-66 58,-85"/>
<text text-anchor="middle" x="29" y="-73" font-family="Helvetica,sans-Serif" font-size="10.00">memory</text>
</a>
</g>
</g>
<!-- Node2&#45;&gt;Node3 -->
<g id="edge2_Node000002_Node000003" class="edge">
<title>Node2&#45;&gt;Node3</title>
<g id="a_edge2_Node000002_Node000003"><a xlink:title=" ">
<path fill="none" stroke="#63b8ff" d="M121.33,-120.98C103.71,-112.5 76.42,-99.35 56.07,-89.54"/>
<polygon fill="#63b8ff" stroke="#63b8ff" points="57.52,-86.36 46.99,-85.17 54.48,-92.66 57.52,-86.36"/>
</a>
</g>
</g>
<!-- Node4 -->
<g id="Node000004" class="node">
<title>Node4</title>
<g id="a_Node000004"><a xlink:title=" ">
<polygon fill="#e0e0e0" stroke="#999999" points="141.5,-85 76.5,-85 76.5,-66 141.5,-66 141.5,-85"/>
<text text-anchor="middle" x="109" y="-73" font-family="Helvetica,sans-Serif" font-size="10.00">functional</text>
</a>
</g>
</g>
<!-- Node2&#45;&gt;Node4 -->
<g id="edge3_Node000002_Node000004" class="edge">
<title>Node2&#45;&gt;Node4</title>
<g id="a_edge3_Node000002_Node000004"><a xlink:title=" ">
<path fill="none" stroke="#63b8ff" d="M134.05,-120.75C129.94,-113.49 123.97,-102.95 118.9,-93.98"/>
<polygon fill="#63b8ff" stroke="#63b8ff" points="121.83,-92.07 113.86,-85.09 115.74,-95.52 121.83,-92.07"/>
</a>
</g>
</g>
<!-- Node5 -->
<g id="Node000005" class="node">
<title>Node5</title>
<g id="a_Node000005"><a xlink:title=" ">
<polygon fill="#e0e0e0" stroke="#999999" points="192,-24.5 148,-24.5 148,-5.5 192,-5.5 192,-24.5"/>
<text text-anchor="middle" x="170" y="-12.5" font-family="Helvetica,sans-Serif" font-size="10.00">string</text>
</a>
</g>
</g>
<!-- Node2&#45;&gt;Node5 -->
<g id="edge4_Node000002_Node000005" class="edge">
<title>Node2&#45;&gt;Node5</title>
<g id="a_edge4_Node000002_Node000005"><a xlink:title=" ">
<path fill="none" stroke="#63b8ff" d="M141.33,-120.97C146.33,-102.65 158.21,-59.18 165,-34.31"/>
<polygon fill="#63b8ff" stroke="#63b8ff" points="168.38,-35.2 167.64,-24.63 161.63,-33.35 168.38,-35.2"/>
</a>
</g>
</g>
<!-- Node6 -->
<g id="Node000006" class="node">
<title>Node6</title>
<g id="a_Node000006"><a xlink:href="error__codes_8h.html" target="_top" xlink:title=" ">
<polygon fill="white" stroke="#666666" points="290,-85 198,-85 198,-66 290,-66 290,-85"/>
<text text-anchor="middle" x="244" y="-73" font-family="Helvetica,sans-Serif" font-size="10.00">../error_codes.h</text>
</a>
</g>
</g>
<!-- Node2&#45;&gt;Node6 -->
<g id="edge5_Node000002_Node000006" class="edge">
<title>Node2&#45;&gt;Node6</title>
<g id="a_edge5_Node000002_Node000006"><a xlink:title=" ">
<path fill="none" stroke="#63b8ff" d="M155.87,-120.98C172.61,-112.54 198.5,-99.47 217.89,-89.68"/>
<polygon fill="#63b8ff" stroke="#63b8ff" points="219.47,-92.8 226.82,-85.17 216.32,-86.55 219.47,-92.8"/>
</a>
</g>
</g>
<!-- Node6&#45;&gt;Node5 -->
<g id="edge6_Node000006_Node000005" class="edge">
<title>Node6&#45;&gt;Node5</title>
<g id="a_edge6_Node000006_Node000005"><a xlink:title=" ">
<path fill="none" stroke="#63b8ff" d="M233.08,-65.87C221.49,-56.71 202.97,-42.06 188.98,-31.01"/>
<polygon fill="#63b8ff" stroke="#63b8ff" points="190.98,-28.12 180.96,-24.67 186.64,-33.61 190.98,-28.12"/>
</a>
</g>
</g>
<!-- Node7 -->
<g id="Node000007" class="node">
<title>Node7</title>
<g id="a_Node000007"><a xlink:title=" ">
<polygon fill="#e0e0e0" stroke="#999999" points="275.5,-24.5 210.5,-24.5 210.5,-5.5 275.5,-5.5 275.5,-24.5"/>
<text text-anchor="middle" x="243" y="-12.5" font-family="Helvetica,sans-Serif" font-size="10.00">stdexcept</text>
</a>
</g>
</g>
<!-- Node6&#45;&gt;Node7 -->
<g id="edge7_Node000006_Node000007" class="edge">
<title>Node6&#45;&gt;Node7</title>
<g id="a_edge7_Node000006_Node000007"><a xlink:title=" ">
<path fill="none" stroke="#63b8ff" d="M243.85,-65.87C243.71,-57.75 243.5,-45.31 243.32,-34.89"/>
<polygon fill="#63b8ff" stroke="#63b8ff" points="246.82,-34.61 243.15,-24.67 239.82,-34.73 246.82,-34.61"/>
</a>
</g>
</g>
<!-- Node8 -->
<g id="Node000008" class="node">
<title>Node8</title>
<g id="a_Node000008"><a xlink:title=" ">
<polygon fill="#e0e0e0" stroke="#999999" points="338.5,-24.5 293.5,-24.5 293.5,-5.5 338.5,-5.5 338.5,-24.5"/>
<text text-anchor="middle" x="316" y="-12.5" font-family="Helvetica,sans-Serif" font-size="10.00">utility</text>
</a>
</g>
</g>
<!-- Node6&#45;&gt;Node8 -->
<g id="edge8_Node000006_Node000008" class="edge">
<title>Node6&#45;&gt;Node8</title>
<g id="a_edge8_Node000006_Node000008"><a xlink:title=" ">
<path fill="none" stroke="#63b8ff" d="M254.62,-65.87C265.9,-56.71 283.92,-42.06 297.53,-31.01"/>
<polygon fill="#63b8ff" stroke="#63b8ff" points="299.78,-33.69 305.33,-24.67 295.36,-28.26 299.78,-33.69"/>
</a>
</g>
</g>
<!-- Node9 -->
<g id="Node000009" class="node">
<title>Node9</title>
<g id="a_Node000009"><a xlink:title=" ">
<polygon fill="#e0e0e0" stroke="#999999" points="485,-30 357,-30 357,0 485,0 485,-30"/>
<text text-anchor="start" x="365" y="-18" font-family="Helvetica,sans-Serif" font-size="10.00">thread_base/sync/error</text>
<text text-anchor="middle" x="421" y="-7" font-family="Helvetica,sans-Serif" font-size="10.00">_handling.h</text>
</a>
</g>
</g>
<!-- Node6&#45;&gt;Node9 -->
<g id="edge9_Node000006_Node000009" class="edge">
<title>Node6&#45;&gt;Node9</title>
<g id="a_edge9_Node000006_Node000009"><a xlink:title=" ">
<path fill="none" stroke="#63b8ff" d="M269.74,-65.99C295.54,-57.46 336.02,-44.09 368.61,-33.32"/>
<polygon fill="#63b8ff" stroke="#63b8ff" points="370.05,-36.53 378.45,-30.06 367.85,-29.88 370.05,-36.53"/>
</a>
</g>
</g>
</g>
</svg>
