<?xml version="1.0" encoding="UTF-8" standalone="no"?>
<!DOCTYPE svg PUBLIC "-//W3C//DTD SVG 1.1//EN"
 "http://www.w3.org/Graphics/SVG/1.1/DTD/svg11.dtd">
<!-- Generated by graphviz version 2.43.0 (0)
 -->
<!-- Title: /home/runner/work/logger_system/logger_system/sources/logger/core/log_collector.cpp Pages: 1 -->
<svg width="1152pt" height="291pt"
 viewBox="0.00 0.00 1151.50 291.00" xmlns="http://www.w3.org/2000/svg" xmlns:xlink="http://www.w3.org/1999/xlink">
<g id="graph0" class="graph" transform="scale(1 1) rotate(0) translate(4 287)">
<title>/home/runner/work/logger_system/logger_system/sources/logger/core/log_collector.cpp</title>
<!-- Node1 -->
<g id="Node000001" class="node">
<title>Node1</title>
<g id="a_Node000001"><a xlink:title=" ">
<polygon fill="#999999" stroke="#666666" points="924.5,-283 751.5,-283 751.5,-242 924.5,-242 924.5,-283"/>
<text text-anchor="start" x="759.5" y="-271" font-family="Helvetica,sans-Serif" font-size="10.00">/home/runner/work/logger</text>
<text text-anchor="start" x="759.5" y="-260" font-family="Helvetica,sans-Serif" font-size="10.00">_system/logger_system/sources</text>
<text text-anchor="middle" x="838" y="-249" font-family="Helvetica,sans-Serif" font-size="10.00">/logger/core/log_collector.cpp</text>
</a>
</g>
</g>
<!-- Node2 -->
<g id="Node000002" class="node">
<title>Node2</title>
<g id="a_Node000002"><a xlink:href="log__collector_8h.html" target="_top" xlink:title=" ">
<polygon fill="white" stroke="#666666" points="771.5,-206 684.5,-206 684.5,-187 771.5,-187 771.5,-206"/>
<text text-anchor="middle" x="728" y="-194" font-family="Helvetica,sans-Serif" font-size="10.00">log_collector.h</text>
</a>
</g>
</g>
<!-- Node1&#45;&gt;Node2 -->
<g id="edge1_Node000001_Node000002" class="edge">
<title>Node1&#45;&gt;Node2</title>
<g id="a_edge1_Node000001_Node000002"><a xlink:title=" ">
<path fill="none" stroke="#63b8ff" d="M804.4,-241.95C787.34,-232.03 767.03,-220.21 751.64,-211.25"/>
<polygon fill="#63b8ff" stroke="#63b8ff" points="753.17,-208.1 742.77,-206.09 749.65,-214.15 753.17,-208.1"/>
</a>
</g>
</g>
<!-- Node5 -->
<g id="Node000005" class="node">
<title>Node5</title>
<g id="a_Node000005"><a xlink:title=" ">
<polygon fill="#e0e0e0" stroke="#999999" points="823.5,-145.5 776.5,-145.5 776.5,-126.5 823.5,-126.5 823.5,-145.5"/>
<text text-anchor="middle" x="800" y="-133.5" font-family="Helvetica,sans-Serif" font-size="10.00">vector</text>
</a>
</g>
</g>
<!-- Node1&#45;&gt;Node5 -->
<g id="edge39_Node000001_Node000005" class="edge">
<title>Node1&#45;&gt;Node5</title>
<g id="a_edge39_Node000001_Node000005"><a xlink:title=" ">
<path fill="none" stroke="#63b8ff" d="M831.98,-241.77C824.72,-217.98 812.61,-178.3 805.56,-155.21"/>
<polygon fill="#63b8ff" stroke="#63b8ff" points="808.9,-154.16 802.63,-145.61 802.2,-156.2 808.9,-154.16"/>
</a>
</g>
</g>
<!-- Node6 -->
<g id="Node000006" class="node">
<title>Node6</title>
<g id="a_Node000006"><a xlink:title=" ">
<polygon fill="#e0e0e0" stroke="#999999" points="890,-145.5 842,-145.5 842,-126.5 890,-126.5 890,-145.5"/>
<text text-anchor="middle" x="866" y="-133.5" font-family="Helvetica,sans-Serif" font-size="10.00">thread</text>
</a>
</g>
</g>
<!-- Node1&#45;&gt;Node6 -->
<g id="edge37_Node000001_Node000006" class="edge">
<title>Node1&#45;&gt;Node6</title>
<g id="a_edge37_Node000001_Node000006"><a xlink:title=" ">
<path fill="none" stroke="#63b8ff" d="M842.44,-241.77C847.76,-218.09 856.63,-178.66 861.83,-155.52"/>
<polygon fill="#63b8ff" stroke="#63b8ff" points="865.28,-156.14 864.06,-145.61 858.45,-154.6 865.28,-156.14"/>
</a>
</g>
</g>
<!-- Node7 -->
<g id="Node000007" class="node">
<title>Node7</title>
<g id="a_Node000007"><a xlink:title=" ">
<polygon fill="#e0e0e0" stroke="#999999" points="958,-145.5 908,-145.5 908,-126.5 958,-126.5 958,-145.5"/>
<text text-anchor="middle" x="933" y="-133.5" font-family="Helvetica,sans-Serif" font-size="10.00">atomic</text>
</a>
</g>
</g>
<!-- Node1&#45;&gt;Node7 -->
<g id="edge38_Node000001_Node000007" class="edge">
<title>Node1&#45;&gt;Node7</title>
<g id="a_edge38_Node000001_Node000007"><a xlink:title=" ">
<path fill="none" stroke="#63b8ff" d="M853.05,-241.77C871.62,-217.44 902.86,-176.5 920.28,-153.67"/>
<polygon fill="#63b8ff" stroke="#63b8ff" points="923.14,-155.69 926.43,-145.61 917.58,-151.44 923.14,-155.69"/>
</a>
</g>
</g>
<!-- Node9 -->
<g id="Node000009" class="node">
<title>Node9</title>
<g id="a_Node000009"><a xlink:href="base__writer_8h.html" target="_top" xlink:title="Abstract base class for all log output writers.">
<polygon fill="white" stroke="#666666" points="516,-206 388,-206 388,-187 516,-187 516,-206"/>
<text text-anchor="middle" x="452" y="-194" font-family="Helvetica,sans-Serif" font-size="10.00">../writers/base_writer.h</text>
</a>
</g>
</g>
<!-- Node1&#45;&gt;Node9 -->
<g id="edge8_Node000001_Node000009" class="edge">
<title>Node1&#45;&gt;Node9</title>
<g id="a_edge8_Node000001_Node000009"><a xlink:title=" ">
<path fill="none" stroke="#63b8ff" d="M751.37,-247.14C679,-235.14 577.62,-218.33 513.38,-207.68"/>
<polygon fill="#63b8ff" stroke="#63b8ff" points="513.84,-204.21 503.4,-206.02 512.69,-211.11 513.84,-204.21"/>
</a>
</g>
</g>
<!-- Node16 -->
<g id="Node000016" class="node">
<title>Node16</title>
<g id="a_Node000016"><a xlink:href="log__entry_8h.html" target="_top" xlink:title="Data structures for representing log entries and source locations.">
<polygon fill="white" stroke="#666666" points="347.5,-145.5 216.5,-145.5 216.5,-126.5 347.5,-126.5 347.5,-145.5"/>
<text text-anchor="middle" x="282" y="-133.5" font-family="Helvetica,sans-Serif" font-size="10.00">../interfaces/log_entry.h</text>
</a>
</g>
</g>
<!-- Node1&#45;&gt;Node16 -->
<g id="edge33_Node000001_Node000016" class="edge">
<title>Node1&#45;&gt;Node16</title>
<g id="a_edge33_Node000001_Node000016"><a xlink:title=" ">
<path fill="none" stroke="#63b8ff" d="M751.33,-256.13C637.67,-248.22 444.97,-231.53 379,-206 347.24,-193.71 316.18,-168.66 298.08,-152.36"/>
<polygon fill="#63b8ff" stroke="#63b8ff" points="300.44,-149.78 290.72,-145.57 295.69,-154.92 300.44,-149.78"/>
</a>
</g>
</g>
<!-- Node22 -->
<g id="Node000022" class="node">
<title>Node22</title>
<g id="a_Node000022"><a xlink:title=" ">
<polygon fill="#e0e0e0" stroke="#999999" points="951.5,-206 904.5,-206 904.5,-187 951.5,-187 951.5,-206"/>
<text text-anchor="middle" x="928" y="-194" font-family="Helvetica,sans-Serif" font-size="10.00">queue</text>
</a>
</g>
</g>
<!-- Node1&#45;&gt;Node22 -->
<g id="edge34_Node000001_Node000022" class="edge">
<title>Node1&#45;&gt;Node22</title>
<g id="a_edge34_Node000001_Node000022"><a xlink:title=" ">
<path fill="none" stroke="#63b8ff" d="M865.49,-241.95C878.97,-232.37 894.93,-221.02 907.35,-212.19"/>
<polygon fill="#63b8ff" stroke="#63b8ff" points="909.56,-214.91 915.68,-206.26 905.5,-209.2 909.56,-214.91"/>
</a>
</g>
</g>
<!-- Node23 -->
<g id="Node000023" class="node">
<title>Node23</title>
<g id="a_Node000023"><a xlink:title=" ">
<polygon fill="#e0e0e0" stroke="#999999" points="1018,-206 970,-206 970,-187 1018,-187 1018,-206"/>
<text text-anchor="middle" x="994" y="-194" font-family="Helvetica,sans-Serif" font-size="10.00">mutex</text>
</a>
</g>
</g>
<!-- Node1&#45;&gt;Node23 -->
<g id="edge35_Node000001_Node000023" class="edge">
<title>Node1&#45;&gt;Node23</title>
<g id="a_edge35_Node000001_Node000023"><a xlink:title=" ">
<path fill="none" stroke="#63b8ff" d="M885.65,-241.95C910.98,-231.56 941.37,-219.09 963.51,-210.01"/>
<polygon fill="#63b8ff" stroke="#63b8ff" points="965.13,-213.13 973.06,-206.09 962.48,-206.65 965.13,-213.13"/>
</a>
</g>
</g>
<!-- Node24 -->
<g id="Node000024" class="node">
<title>Node24</title>
<g id="a_Node000024"><a xlink:title=" ">
<polygon fill="#e0e0e0" stroke="#999999" points="1143.5,-206 1036.5,-206 1036.5,-187 1143.5,-187 1143.5,-206"/>
<text text-anchor="middle" x="1090" y="-194" font-family="Helvetica,sans-Serif" font-size="10.00">condition_variable</text>
</a>
</g>
</g>
<!-- Node1&#45;&gt;Node24 -->
<g id="edge36_Node000001_Node000024" class="edge">
<title>Node1&#45;&gt;Node24</title>
<g id="a_edge36_Node000001_Node000024"><a xlink:title=" ">
<path fill="none" stroke="#63b8ff" d="M914.98,-241.95C958.24,-230.96 1010.64,-217.65 1046.76,-208.48"/>
<polygon fill="#63b8ff" stroke="#63b8ff" points="1047.67,-211.86 1056.5,-206.01 1045.95,-205.08 1047.67,-211.86"/>
</a>
</g>
</g>
<!-- Node3 -->
<g id="Node000003" class="node">
<title>Node3</title>
<g id="a_Node000003"><a xlink:title=" ">
<polygon fill="#e0e0e0" stroke="#999999" points="454.5,-85 297.5,-85 297.5,-66 454.5,-66 454.5,-85"/>
<text text-anchor="middle" x="376" y="-73" font-family="Helvetica,sans-Serif" font-size="10.00">interfaces/logger_interface.h</text>
</a>
</g>
</g>
<!-- Node2&#45;&gt;Node3 -->
<g id="edge2_Node000002_Node000003" class="edge">
<title>Node2&#45;&gt;Node3</title>
<g id="a_edge2_Node000002_Node000003"><a xlink:title=" ">
<path fill="none" stroke="#63b8ff" d="M684.17,-188.53C643.72,-181.42 582.32,-168.87 531,-151 482.66,-134.17 429.55,-106.47 399.74,-90"/>
<polygon fill="#63b8ff" stroke="#63b8ff" points="401.35,-86.9 390.91,-85.08 397.94,-93.01 401.35,-86.9"/>
</a>
</g>
</g>
<!-- Node4 -->
<g id="Node000004" class="node">
<title>Node4</title>
<g id="a_Node000004"><a xlink:title=" ">
<polygon fill="#e0e0e0" stroke="#999999" points="320,-24.5 262,-24.5 262,-5.5 320,-5.5 320,-24.5"/>
<text text-anchor="middle" x="291" y="-12.5" font-family="Helvetica,sans-Serif" font-size="10.00">memory</text>
</a>
</g>
</g>
<!-- Node2&#45;&gt;Node4 -->
<g id="edge3_Node000002_Node000004" class="edge">
<title>Node2&#45;&gt;Node4</title>
<g id="a_edge3_Node000002_Node000004"><a xlink:title=" ">
<path fill="none" stroke="#63b8ff" d="M725.82,-187C721.56,-171.87 710.73,-140.07 691,-121 648.52,-79.95 626.41,-83.54 570,-66 482.92,-38.92 457.75,-46.16 368,-30 355.67,-27.78 342.24,-25.34 330.09,-23.14"/>
<polygon fill="#63b8ff" stroke="#63b8ff" points="330.71,-19.69 320.25,-21.34 329.46,-26.58 330.71,-19.69"/>
</a>
</g>
</g>
<!-- Node2&#45;&gt;Node5 -->
<g id="edge4_Node000002_Node000005" class="edge">
<title>Node2&#45;&gt;Node5</title>
<g id="a_edge4_Node000002_Node000005"><a xlink:title=" ">
<path fill="none" stroke="#63b8ff" d="M738.62,-186.87C749.9,-177.71 767.92,-163.06 781.53,-152.01"/>
<polygon fill="#63b8ff" stroke="#63b8ff" points="783.78,-154.69 789.33,-145.67 779.36,-149.26 783.78,-154.69"/>
</a>
</g>
</g>
<!-- Node2&#45;&gt;Node6 -->
<g id="edge5_Node000002_Node000006" class="edge">
<title>Node2&#45;&gt;Node6</title>
<g id="a_edge5_Node000002_Node000006"><a xlink:title=" ">
<path fill="none" stroke="#63b8ff" d="M748.07,-186.99C771.37,-177.12 810.01,-160.73 836.68,-149.43"/>
<polygon fill="#63b8ff" stroke="#63b8ff" points="838.07,-152.64 845.91,-145.52 835.34,-146.2 838.07,-152.64"/>
</a>
</g>
</g>
<!-- Node2&#45;&gt;Node7 -->
<g id="edge6_Node000002_Node000007" class="edge">
<title>Node2&#45;&gt;Node7</title>
<g id="a_edge6_Node000002_Node000007"><a xlink:title=" ">
<path fill="none" stroke="#63b8ff" d="M766.81,-186.99C801.76,-178.95 854.34,-165.93 899,-151 900.62,-150.46 902.28,-149.87 903.94,-149.27"/>
<polygon fill="#63b8ff" stroke="#63b8ff" points="905.34,-152.48 913.39,-145.6 902.81,-145.95 905.34,-152.48"/>
</a>
</g>
</g>
<!-- Node8 -->
<g id="Node000008" class="node">
<title>Node8</title>
<g id="a_Node000008"><a xlink:title=" ">
<polygon fill="#e0e0e0" stroke="#999999" points="561,-85 511,-85 511,-66 561,-66 561,-85"/>
<text text-anchor="middle" x="536" y="-73" font-family="Helvetica,sans-Serif" font-size="10.00">chrono</text>
</a>
</g>
</g>
<!-- Node2&#45;&gt;Node8 -->
<g id="edge7_Node000002_Node000008" class="edge">
<title>Node2&#45;&gt;Node8</title>
<g id="a_edge7_Node000002_Node000008"><a xlink:title=" ">
<path fill="none" stroke="#63b8ff" d="M684.17,-190.35C636.67,-183.83 565.18,-170.99 547,-151 533.42,-136.07 532.22,-112.06 533.4,-95.34"/>
<polygon fill="#63b8ff" stroke="#63b8ff" points="536.91,-95.45 534.48,-85.14 529.95,-94.71 536.91,-95.45"/>
</a>
</g>
</g>
<!-- Node9&#45;&gt;Node3 -->
<g id="edge11_Node000009_Node000003" class="edge">
<title>Node9&#45;&gt;Node3</title>
<g id="a_edge11_Node000009_Node000003"><a xlink:title=" ">
<path fill="none" stroke="#63b8ff" d="M438.18,-186.88C426.46,-178.9 410.01,-166.03 400,-151 388.73,-134.07 382.43,-111.47 379.15,-95.62"/>
<polygon fill="#63b8ff" stroke="#63b8ff" points="382.53,-94.64 377.26,-85.45 375.64,-95.92 382.53,-94.64"/>
</a>
</g>
</g>
<!-- Node9&#45;&gt;Node8 -->
<g id="edge10_Node000009_Node000008" class="edge">
<title>Node9&#45;&gt;Node8</title>
<g id="a_edge10_Node000009_Node000008"><a xlink:title=" ">
<path fill="none" stroke="#63b8ff" d="M458.04,-186.94C471.78,-167.48 505.57,-119.6 523.83,-93.74"/>
<polygon fill="#63b8ff" stroke="#63b8ff" points="526.88,-95.49 529.79,-85.3 521.16,-91.45 526.88,-95.49"/>
</a>
</g>
</g>
<!-- Node10 -->
<g id="Node000010" class="node">
<title>Node10</title>
<g id="a_Node000010"><a xlink:title=" ">
<polygon fill="#e0e0e0" stroke="#999999" points="505,-24.5 461,-24.5 461,-5.5 505,-5.5 505,-24.5"/>
<text text-anchor="middle" x="483" y="-12.5" font-family="Helvetica,sans-Serif" font-size="10.00">string</text>
</a>
</g>
</g>
<!-- Node9&#45;&gt;Node10 -->
<g id="edge9_Node000009_Node000010" class="edge">
<title>Node9&#45;&gt;Node10</title>
<g id="a_edge9_Node000009_Node000010"><a xlink:title=" ">
<path fill="none" stroke="#63b8ff" d="M453.5,-186.84C458.25,-159.3 473.11,-73.26 479.75,-34.84"/>
<polygon fill="#63b8ff" stroke="#63b8ff" points="483.27,-35.02 481.52,-24.57 476.37,-33.83 483.27,-35.02"/>
</a>
</g>
</g>
<!-- Node11 -->
<g id="Node000011" class="node">
<title>Node11</title>
<g id="a_Node000011"><a xlink:href="error__codes_8h.html" target="_top" xlink:title=" ">
<polygon fill="white" stroke="#666666" points="747,-85 655,-85 655,-66 747,-66 747,-85"/>
<text text-anchor="middle" x="701" y="-73" font-family="Helvetica,sans-Serif" font-size="10.00">../error_codes.h</text>
</a>
</g>
</g>
<!-- Node9&#45;&gt;Node11 -->
<g id="edge12_Node000009_Node000011" class="edge">
<title>Node9&#45;&gt;Node11</title>
<g id="a_edge12_Node000009_Node000011"><a xlink:title=" ">
<path fill="none" stroke="#63b8ff" d="M516.06,-191.88C578.55,-186.95 667.52,-175.7 691,-151 704.88,-136.4 705.66,-112.32 704.09,-95.5"/>
<polygon fill="#63b8ff" stroke="#63b8ff" points="707.51,-94.69 702.76,-85.22 700.57,-95.59 707.51,-94.69"/>
</a>
</g>
</g>
<!-- Node15 -->
<g id="Node000015" class="node">
<title>Node15</title>
<g id="a_Node000015"><a xlink:href="log__writer__interface_8h.html" target="_top" xlink:title=" ">
<polygon fill="white" stroke="#666666" points="682,-151 556,-151 556,-121 682,-121 682,-151"/>
<text text-anchor="start" x="564" y="-139" font-family="Helvetica,sans-Serif" font-size="10.00">../interfaces/log_writer</text>
<text text-anchor="middle" x="619" y="-128" font-family="Helvetica,sans-Serif" font-size="10.00">_interface.h</text>
</a>
</g>
</g>
<!-- Node9&#45;&gt;Node15 -->
<g id="edge17_Node000009_Node000015" class="edge">
<title>Node9&#45;&gt;Node15</title>
<g id="a_edge17_Node000009_Node000015"><a xlink:title=" ">
<path fill="none" stroke="#63b8ff" d="M476.28,-186.99C500.53,-178.5 538.49,-165.2 569.17,-154.45"/>
<polygon fill="#63b8ff" stroke="#63b8ff" points="570.57,-157.67 578.85,-151.06 568.26,-151.07 570.57,-157.67"/>
</a>
</g>
</g>
<!-- Node9&#45;&gt;Node16 -->
<g id="edge21_Node000009_Node000016" class="edge">
<title>Node9&#45;&gt;Node16</title>
<g id="a_edge21_Node000009_Node000016"><a xlink:title=" ">
<path fill="none" stroke="#63b8ff" d="M427.28,-186.99C398.07,-176.94 349.3,-160.16 316.41,-148.84"/>
<polygon fill="#63b8ff" stroke="#63b8ff" points="317.34,-145.46 306.75,-145.52 315.07,-152.08 317.34,-145.46"/>
</a>
</g>
</g>
<!-- Node11&#45;&gt;Node10 -->
<g id="edge13_Node000011_Node000010" class="edge">
<title>Node11&#45;&gt;Node10</title>
<g id="a_edge13_Node000011_Node000010"><a xlink:title=" ">
<path fill="none" stroke="#63b8ff" d="M669.3,-65.99C628.04,-54.92 556.34,-35.68 514.95,-24.57"/>
<polygon fill="#63b8ff" stroke="#63b8ff" points="515.69,-21.15 505.12,-21.94 513.87,-27.91 515.69,-21.15"/>
</a>
</g>
</g>
<!-- Node12 -->
<g id="Node000012" class="node">
<title>Node12</title>
<g id="a_Node000012"><a xlink:title=" ">
<polygon fill="#e0e0e0" stroke="#999999" points="675.5,-24.5 610.5,-24.5 610.5,-5.5 675.5,-5.5 675.5,-24.5"/>
<text text-anchor="middle" x="643" y="-12.5" font-family="Helvetica,sans-Serif" font-size="10.00">stdexcept</text>
</a>
</g>
</g>
<!-- Node11&#45;&gt;Node12 -->
<g id="edge14_Node000011_Node000012" class="edge">
<title>Node11&#45;&gt;Node12</title>
<g id="a_edge14_Node000011_Node000012"><a xlink:title=" ">
<path fill="none" stroke="#63b8ff" d="M692.44,-65.87C683.62,-56.97 669.66,-42.89 658.82,-31.95"/>
<polygon fill="#63b8ff" stroke="#63b8ff" points="661.12,-29.3 651.59,-24.67 656.15,-34.23 661.12,-29.3"/>
</a>
</g>
</g>
<!-- Node13 -->
<g id="Node000013" class="node">
<title>Node13</title>
<g id="a_Node000013"><a xlink:title=" ">
<polygon fill="#e0e0e0" stroke="#999999" points="422.5,-24.5 377.5,-24.5 377.5,-5.5 422.5,-5.5 422.5,-24.5"/>
<text text-anchor="middle" x="400" y="-12.5" font-family="Helvetica,sans-Serif" font-size="10.00">utility</text>
</a>
</g>
</g>
<!-- Node11&#45;&gt;Node13 -->
<g id="edge15_Node000011_Node000013" class="edge">
<title>Node11&#45;&gt;Node13</title>
<g id="a_edge15_Node000011_Node000013"><a xlink:title=" ">
<path fill="none" stroke="#63b8ff" d="M654.87,-67.48C604.71,-59.56 522.28,-45.71 452,-30 445.65,-28.58 438.92,-26.9 432.47,-25.2"/>
<polygon fill="#63b8ff" stroke="#63b8ff" points="433.24,-21.79 422.68,-22.56 431.42,-28.54 433.24,-21.79"/>
</a>
</g>
</g>
<!-- Node14 -->
<g id="Node000014" class="node">
<title>Node14</title>
<g id="a_Node000014"><a xlink:title=" ">
<polygon fill="#e0e0e0" stroke="#999999" points="822,-30 694,-30 694,0 822,0 822,-30"/>
<text text-anchor="start" x="702" y="-18" font-family="Helvetica,sans-Serif" font-size="10.00">thread_base/sync/error</text>
<text text-anchor="middle" x="758" y="-7" font-family="Helvetica,sans-Serif" font-size="10.00">_handling.h</text>
</a>
</g>
</g>
<!-- Node11&#45;&gt;Node14 -->
<g id="edge16_Node000011_Node000014" class="edge">
<title>Node11&#45;&gt;Node14</title>
<g id="a_edge16_Node000011_Node000014"><a xlink:title=" ">
<path fill="none" stroke="#63b8ff" d="M709.41,-65.87C716.72,-58.37 727.6,-47.2 737.22,-37.33"/>
<polygon fill="#63b8ff" stroke="#63b8ff" points="739.78,-39.72 744.25,-30.11 734.76,-34.83 739.78,-39.72"/>
</a>
</g>
</g>
<!-- Node15&#45;&gt;Node8 -->
<g id="edge19_Node000015_Node000008" class="edge">
<title>Node15&#45;&gt;Node8</title>
<g id="a_edge19_Node000015_Node000008"><a xlink:title=" ">
<path fill="none" stroke="#63b8ff" d="M598.91,-120.84C586.12,-111.83 569.6,-100.18 556.7,-91.09"/>
<polygon fill="#63b8ff" stroke="#63b8ff" points="558.63,-88.17 548.44,-85.27 554.59,-93.89 558.63,-88.17"/>
</a>
</g>
</g>
<!-- Node15&#45;&gt;Node10 -->
<g id="edge18_Node000015_Node000010" class="edge">
<title>Node15&#45;&gt;Node10</title>
<g id="a_edge18_Node000015_Node000010"><a xlink:title=" ">
<path fill="none" stroke="#63b8ff" d="M611.47,-120.95C602.93,-105.96 587.84,-82.2 570,-66 553.03,-50.58 530.51,-37.8 512.63,-29.02"/>
<polygon fill="#63b8ff" stroke="#63b8ff" points="513.78,-25.69 503.25,-24.56 510.78,-32.01 513.78,-25.69"/>
</a>
</g>
</g>
<!-- Node15&#45;&gt;Node11 -->
<g id="edge20_Node000015_Node000011" class="edge">
<title>Node15&#45;&gt;Node11</title>
<g id="a_edge20_Node000015_Node000011"><a xlink:title=" ">
<path fill="none" stroke="#63b8ff" d="M638.85,-120.84C651.48,-111.83 667.8,-100.18 680.55,-91.09"/>
<polygon fill="#63b8ff" stroke="#63b8ff" points="682.6,-93.92 688.71,-85.27 678.54,-88.22 682.6,-93.92"/>
</a>
</g>
</g>
<!-- Node16&#45;&gt;Node3 -->
<g id="edge32_Node000016_Node000003" class="edge">
<title>Node16&#45;&gt;Node3</title>
<g id="a_edge32_Node000016_Node000003"><a xlink:title=" ">
<path fill="none" stroke="#63b8ff" d="M295.87,-126.37C311,-116.95 335.46,-101.73 353.38,-90.58"/>
<polygon fill="#63b8ff" stroke="#63b8ff" points="355.43,-93.42 362.07,-85.17 351.73,-87.48 355.43,-93.42"/>
</a>
</g>
</g>
<!-- Node16&#45;&gt;Node8 -->
<g id="edge23_Node000016_Node000008" class="edge">
<title>Node16&#45;&gt;Node8</title>
<g id="a_edge23_Node000016_Node000008"><a xlink:title=" ">
<path fill="none" stroke="#63b8ff" d="M318.93,-126.49C367.77,-115.25 453.22,-95.57 501.05,-84.55"/>
<polygon fill="#63b8ff" stroke="#63b8ff" points="501.98,-87.93 510.94,-82.27 500.41,-81.11 501.98,-87.93"/>
</a>
</g>
</g>
<!-- Node16&#45;&gt;Node10 -->
<g id="edge22_Node000016_Node000010" class="edge">
<title>Node16&#45;&gt;Node10</title>
<g id="a_edge22_Node000016_Node000010"><a xlink:title=" ">
<path fill="none" stroke="#63b8ff" d="M279.85,-126.16C276.9,-111.74 273.5,-83.03 288,-66 330.49,-16.1 367.58,-46.52 431,-30 437.41,-28.33 444.26,-26.51 450.81,-24.75"/>
<polygon fill="#63b8ff" stroke="#63b8ff" points="452.01,-28.06 460.75,-22.08 450.19,-21.3 452.01,-28.06"/>
</a>
</g>
</g>
<!-- Node17 -->
<g id="Node000017" class="node">
<title>Node17</title>
<g id="a_Node000017"><a xlink:title=" ">
<polygon fill="#e0e0e0" stroke="#999999" points="241,-85 185,-85 185,-66 241,-66 241,-85"/>
<text text-anchor="middle" x="213" y="-73" font-family="Helvetica,sans-Serif" font-size="10.00">optional</text>
</a>
</g>
</g>
<!-- Node16&#45;&gt;Node17 -->
<g id="edge24_Node000016_Node000017" class="edge">
<title>Node16&#45;&gt;Node17</title>
<g id="a_edge24_Node000016_Node000017"><a xlink:title=" ">
<path fill="none" stroke="#63b8ff" d="M271.82,-126.37C261.12,-117.3 244.06,-102.84 231.07,-91.82"/>
<polygon fill="#63b8ff" stroke="#63b8ff" points="233.11,-88.96 223.22,-85.17 228.59,-94.3 233.11,-88.96"/>
</a>
</g>
</g>
<!-- Node18 -->
<g id="Node000018" class="node">
<title>Node18</title>
<g id="a_Node000018"><a xlink:href="small__string_8h.html" target="_top" xlink:title=" ">
<polygon fill="white" stroke="#666666" points="166.5,-85 47.5,-85 47.5,-66 166.5,-66 166.5,-85"/>
<text text-anchor="middle" x="107" y="-73" font-family="Helvetica,sans-Serif" font-size="10.00">../core/small_string.h</text>
</a>
</g>
</g>
<!-- Node16&#45;&gt;Node18 -->
<g id="edge25_Node000016_Node000018" class="edge">
<title>Node16&#45;&gt;Node18</title>
<g id="a_edge25_Node000016_Node000018"><a xlink:title=" ">
<path fill="none" stroke="#63b8ff" d="M256.55,-126.49C226.36,-116.4 175.84,-99.51 141.98,-88.19"/>
<polygon fill="#63b8ff" stroke="#63b8ff" points="143.07,-84.87 132.48,-85.02 140.85,-91.51 143.07,-84.87"/>
</a>
</g>
</g>
<!-- Node18&#45;&gt;Node4 -->
<g id="edge30_Node000018_Node000004" class="edge">
<title>Node18&#45;&gt;Node4</title>
<g id="a_edge30_Node000018_Node000004"><a xlink:title=" ">
<path fill="none" stroke="#63b8ff" d="M133.76,-65.99C165.64,-55.86 219.07,-38.87 254.68,-27.55"/>
<polygon fill="#63b8ff" stroke="#63b8ff" points="255.74,-30.88 264.21,-24.52 253.62,-24.21 255.74,-30.88"/>
</a>
</g>
</g>
<!-- Node18&#45;&gt;Node10 -->
<g id="edge27_Node000018_Node000010" class="edge">
<title>Node18&#45;&gt;Node10</title>
<g id="a_edge27_Node000018_Node000010"><a xlink:title=" ">
<path fill="none" stroke="#63b8ff" d="M166.58,-66.73C253.02,-55.4 405.71,-35.12 431,-30 437.49,-28.69 444.38,-27.03 450.94,-25.31"/>
<polygon fill="#63b8ff" stroke="#63b8ff" points="452.14,-28.61 460.88,-22.62 450.31,-21.86 452.14,-28.61"/>
</a>
</g>
</g>
<!-- Node18&#45;&gt;Node13 -->
<g id="edge31_Node000018_Node000013" class="edge">
<title>Node18&#45;&gt;Node13</title>
<g id="a_edge31_Node000018_Node000013"><a xlink:title=" ">
<path fill="none" stroke="#63b8ff" d="M149.6,-65.99C208.68,-54.2 314.18,-33.13 367.4,-22.51"/>
<polygon fill="#63b8ff" stroke="#63b8ff" points="368.19,-25.92 377.31,-20.53 366.82,-19.06 368.19,-25.92"/>
</a>
</g>
</g>
<!-- Node19 -->
<g id="Node000019" class="node">
<title>Node19</title>
<g id="a_Node000019"><a xlink:title=" ">
<polygon fill="#e0e0e0" stroke="#999999" points="132,-24.5 82,-24.5 82,-5.5 132,-5.5 132,-24.5"/>
<text text-anchor="middle" x="107" y="-12.5" font-family="Helvetica,sans-Serif" font-size="10.00">cstring</text>
</a>
</g>
</g>
<!-- Node18&#45;&gt;Node19 -->
<g id="edge26_Node000018_Node000019" class="edge">
<title>Node18&#45;&gt;Node19</title>
<g id="a_edge26_Node000018_Node000019"><a xlink:title=" ">
<path fill="none" stroke="#63b8ff" d="M107,-65.87C107,-57.75 107,-45.31 107,-34.89"/>
<polygon fill="#63b8ff" stroke="#63b8ff" points="110.5,-34.67 107,-24.67 103.5,-34.67 110.5,-34.67"/>
</a>
</g>
</g>
<!-- Node20 -->
<g id="Node000020" class="node">
<title>Node20</title>
<g id="a_Node000020"><a xlink:title=" ">
<polygon fill="#e0e0e0" stroke="#999999" points="223.5,-24.5 150.5,-24.5 150.5,-5.5 223.5,-5.5 223.5,-24.5"/>
<text text-anchor="middle" x="187" y="-12.5" font-family="Helvetica,sans-Serif" font-size="10.00">string_view</text>
</a>
</g>
</g>
<!-- Node18&#45;&gt;Node20 -->
<g id="edge28_Node000018_Node000020" class="edge">
<title>Node18&#45;&gt;Node20</title>
<g id="a_edge28_Node000018_Node000020"><a xlink:title=" ">
<path fill="none" stroke="#63b8ff" d="M118.8,-65.87C131.45,-56.62 151.74,-41.78 166.91,-30.69"/>
<polygon fill="#63b8ff" stroke="#63b8ff" points="169.14,-33.4 175.15,-24.67 165.01,-27.74 169.14,-33.4"/>
</a>
</g>
</g>
<!-- Node21 -->
<g id="Node000021" class="node">
<title>Node21</title>
<g id="a_Node000021"><a xlink:title=" ">
<polygon fill="#e0e0e0" stroke="#999999" points="64,-24.5 0,-24.5 0,-5.5 64,-5.5 64,-24.5"/>
<text text-anchor="middle" x="32" y="-12.5" font-family="Helvetica,sans-Serif" font-size="10.00">algorithm</text>
</a>
</g>
</g>
<!-- Node18&#45;&gt;Node21 -->
<g id="edge29_Node000018_Node000021" class="edge">
<title>Node18&#45;&gt;Node21</title>
<g id="a_edge29_Node000018_Node000021"><a xlink:title=" ">
<path fill="none" stroke="#63b8ff" d="M95.93,-65.87C84.19,-56.71 65.41,-42.06 51.24,-31.01"/>
<polygon fill="#63b8ff" stroke="#63b8ff" points="53.15,-28.06 43.11,-24.67 48.84,-33.58 53.15,-28.06"/>
</a>
</g>
</g>
</g>
</svg>
