<?xml version="1.0" encoding="UTF-8" standalone="no"?>
<!DOCTYPE svg PUBLIC "-//W3C//DTD SVG 1.1//EN"
 "http://www.w3.org/Graphics/SVG/1.1/DTD/svg11.dtd">
<!-- Generated by graphviz version 2.43.0 (0)
 -->
<!-- Title: /home/runner/work/logger_system/logger_system/sources/logger/interfaces/log_sink_interface.h Pages: 1 -->
<svg width="345pt" height="181pt"
 viewBox="0.00 0.00 345.00 181.00" xmlns="http://www.w3.org/2000/svg" xmlns:xlink="http://www.w3.org/1999/xlink">
<g id="graph0" class="graph" transform="scale(1 1) rotate(0) translate(4 177)">
<title>/home/runner/work/logger_system/logger_system/sources/logger/interfaces/log_sink_interface.h</title>
<!-- Node1 -->
<g id="Node000001" class="node">
<title>Node1</title>
<g id="a_Node000001"><a xlink:title=" ">
<polygon fill="#999999" stroke="#666666" points="217.5,-173 44.5,-173 44.5,-121 217.5,-121 217.5,-173"/>
<text text-anchor="start" x="52.5" y="-161" font-family="Helvetica,sans-Serif" font-size="10.00">/home/runner/work/logger</text>
<text text-anchor="start" x="52.5" y="-150" font-family="Helvetica,sans-Serif" font-size="10.00">_system/logger_system/sources</text>
<text text-anchor="start" x="52.5" y="-139" font-family="Helvetica,sans-Serif" font-size="10.00">/logger/interfaces/log_sink</text>
<text text-anchor="middle" x="131" y="-128" font-family="Helvetica,sans-Serif" font-size="10.00">_interface.h</text>
</a>
</g>
</g>
<!-- Node2 -->
<g id="Node000002" class="node">
<title>Node2</title>
<g id="a_Node000002"><a xlink:href="error__codes_8h.html" target="_top" xlink:title=" ">
<polygon fill="white" stroke="#666666" points="177,-85 85,-85 85,-66 177,-66 177,-85"/>
<text text-anchor="middle" x="131" y="-73" font-family="Helvetica,sans-Serif" font-size="10.00">../error_codes.h</text>
</a>
</g>
</g>
<!-- Node1&#45;&gt;Node2 -->
<g id="edge1_Node000001_Node000002" class="edge">
<title>Node1&#45;&gt;Node2</title>
<g id="a_edge1_Node000001_Node000002"><a xlink:title=" ">
<path fill="none" stroke="#63b8ff" d="M131,-120.91C131,-112.55 131,-103.38 131,-95.55"/>
<polygon fill="#63b8ff" stroke="#63b8ff" points="134.5,-95.3 131,-85.3 127.5,-95.3 134.5,-95.3"/>
</a>
</g>
</g>
<!-- Node3 -->
<g id="Node000003" class="node">
<title>Node3</title>
<g id="a_Node000003"><a xlink:title=" ">
<polygon fill="#e0e0e0" stroke="#999999" points="44,-24.5 0,-24.5 0,-5.5 44,-5.5 44,-24.5"/>
<text text-anchor="middle" x="22" y="-12.5" font-family="Helvetica,sans-Serif" font-size="10.00">string</text>
</a>
</g>
</g>
<!-- Node2&#45;&gt;Node3 -->
<g id="edge2_Node000002_Node000003" class="edge">
<title>Node2&#45;&gt;Node3</title>
<g id="a_edge2_Node000002_Node000003"><a xlink:title=" ">
<path fill="none" stroke="#63b8ff" d="M114.92,-65.87C97.05,-56.28 67.96,-40.67 47.09,-29.47"/>
<polygon fill="#63b8ff" stroke="#63b8ff" points="48.62,-26.31 38.15,-24.67 45.31,-32.48 48.62,-26.31"/>
</a>
</g>
</g>
<!-- Node4 -->
<g id="Node000004" class="node">
<title>Node4</title>
<g id="a_Node000004"><a xlink:title=" ">
<polygon fill="#e0e0e0" stroke="#999999" points="127.5,-24.5 62.5,-24.5 62.5,-5.5 127.5,-5.5 127.5,-24.5"/>
<text text-anchor="middle" x="95" y="-12.5" font-family="Helvetica,sans-Serif" font-size="10.00">stdexcept</text>
</a>
</g>
</g>
<!-- Node2&#45;&gt;Node4 -->
<g id="edge3_Node000002_Node000004" class="edge">
<title>Node2&#45;&gt;Node4</title>
<g id="a_edge3_Node000002_Node000004"><a xlink:title=" ">
<path fill="none" stroke="#63b8ff" d="M125.69,-65.87C120.42,-57.31 112.21,-43.97 105.61,-33.24"/>
<polygon fill="#63b8ff" stroke="#63b8ff" points="108.56,-31.35 100.33,-24.67 102.59,-35.02 108.56,-31.35"/>
</a>
</g>
</g>
<!-- Node5 -->
<g id="Node000005" class="node">
<title>Node5</title>
<g id="a_Node000005"><a xlink:title=" ">
<polygon fill="#e0e0e0" stroke="#999999" points="190.5,-24.5 145.5,-24.5 145.5,-5.5 190.5,-5.5 190.5,-24.5"/>
<text text-anchor="middle" x="168" y="-12.5" font-family="Helvetica,sans-Serif" font-size="10.00">utility</text>
</a>
</g>
</g>
<!-- Node2&#45;&gt;Node5 -->
<g id="edge4_Node000002_Node000005" class="edge">
<title>Node2&#45;&gt;Node5</title>
<g id="a_edge4_Node000002_Node000005"><a xlink:title=" ">
<path fill="none" stroke="#63b8ff" d="M136.46,-65.87C141.87,-57.31 150.31,-43.97 157.1,-33.24"/>
<polygon fill="#63b8ff" stroke="#63b8ff" points="160.13,-34.99 162.52,-24.67 154.21,-31.25 160.13,-34.99"/>
</a>
</g>
</g>
<!-- Node6 -->
<g id="Node000006" class="node">
<title>Node6</title>
<g id="a_Node000006"><a xlink:title=" ">
<polygon fill="#e0e0e0" stroke="#999999" points="337,-30 209,-30 209,0 337,0 337,-30"/>
<text text-anchor="start" x="217" y="-18" font-family="Helvetica,sans-Serif" font-size="10.00">thread_base/sync/error</text>
<text text-anchor="middle" x="273" y="-7" font-family="Helvetica,sans-Serif" font-size="10.00">_handling.h</text>
</a>
</g>
</g>
<!-- Node2&#45;&gt;Node6 -->
<g id="edge5_Node000002_Node000006" class="edge">
<title>Node2&#45;&gt;Node6</title>
<g id="a_edge5_Node000002_Node000006"><a xlink:title=" ">
<path fill="none" stroke="#63b8ff" d="M151.65,-65.99C171.99,-57.61 203.71,-44.55 229.61,-33.87"/>
<polygon fill="#63b8ff" stroke="#63b8ff" points="230.95,-37.11 238.86,-30.06 228.28,-30.64 230.95,-37.11"/>
</a>
</g>
</g>
</g>
</svg>
