<?xml version="1.0" encoding="UTF-8" standalone="no"?>
<!DOCTYPE svg PUBLIC "-//W3C//DTD SVG 1.1//EN"
 "http://www.w3.org/Graphics/SVG/1.1/DTD/svg11.dtd">
<!-- Generated by graphviz version 2.43.0 (0)
 -->
<!-- Title: /home/runner/work/logger_system/logger_system/sources/logger/security/log_sanitizer.h Pages: 1 -->
<svg width="847pt" height="280pt"
 viewBox="0.00 0.00 846.50 280.00" xmlns="http://www.w3.org/2000/svg" xmlns:xlink="http://www.w3.org/1999/xlink">
<g id="graph0" class="graph" transform="scale(1 1) rotate(0) translate(4 276)">
<title>/home/runner/work/logger_system/logger_system/sources/logger/security/log_sanitizer.h</title>
<!-- Node1 -->
<g id="Node000001" class="node">
<title>Node1</title>
<g id="a_Node000001"><a xlink:title=" ">
<polygon fill="#999999" stroke="#666666" points="784.5,-272 611.5,-272 611.5,-231 784.5,-231 784.5,-272"/>
<text text-anchor="start" x="619.5" y="-260" font-family="Helvetica,sans-Serif" font-size="10.00">/home/runner/work/logger</text>
<text text-anchor="start" x="619.5" y="-249" font-family="Helvetica,sans-Serif" font-size="10.00">_system/logger_system/sources</text>
<text text-anchor="middle" x="698" y="-238" font-family="Helvetica,sans-Serif" font-size="10.00">/logger/security/log_sanitizer.h</text>
</a>
</g>
</g>
<!-- Node2 -->
<g id="Node000002" class="node">
<title>Node2</title>
<g id="a_Node000002"><a xlink:href="log__filter_8h.html" target="_top" xlink:title=" ">
<polygon fill="white" stroke="#666666" points="619.5,-195 512.5,-195 512.5,-176 619.5,-176 619.5,-195"/>
<text text-anchor="middle" x="566" y="-183" font-family="Helvetica,sans-Serif" font-size="10.00">../filters/log_filter.h</text>
</a>
</g>
</g>
<!-- Node1&#45;&gt;Node2 -->
<g id="edge1_Node000001_Node000002" class="edge">
<title>Node1&#45;&gt;Node2</title>
<g id="a_edge1_Node000001_Node000002"><a xlink:title=" ">
<path fill="none" stroke="#63b8ff" d="M657.68,-230.95C636.63,-220.75 611.46,-208.54 592.82,-199.5"/>
<polygon fill="#63b8ff" stroke="#63b8ff" points="594.25,-196.31 583.72,-195.09 591.19,-202.6 594.25,-196.31"/>
</a>
</g>
</g>
<!-- Node15 -->
<g id="Node000015" class="node">
<title>Node15</title>
<g id="a_Node000015"><a xlink:title=" ">
<polygon fill="#e0e0e0" stroke="#999999" points="701,-134.5 657,-134.5 657,-115.5 701,-115.5 701,-134.5"/>
<text text-anchor="middle" x="679" y="-122.5" font-family="Helvetica,sans-Serif" font-size="10.00">regex</text>
</a>
</g>
</g>
<!-- Node1&#45;&gt;Node15 -->
<g id="edge21_Node000001_Node000015" class="edge">
<title>Node1&#45;&gt;Node15</title>
<g id="a_edge21_Node000001_Node000015"><a xlink:title=" ">
<path fill="none" stroke="#63b8ff" d="M694.99,-230.77C691.37,-207.09 685.36,-167.66 681.83,-144.52"/>
<polygon fill="#63b8ff" stroke="#63b8ff" points="685.28,-143.97 680.31,-134.61 678.36,-145.03 685.28,-143.97"/>
</a>
</g>
</g>
<!-- Node16 -->
<g id="Node000016" class="node">
<title>Node16</title>
<g id="a_Node000016"><a xlink:title=" ">
<polygon fill="#e0e0e0" stroke="#999999" points="784.5,-134.5 719.5,-134.5 719.5,-115.5 784.5,-115.5 784.5,-134.5"/>
<text text-anchor="middle" x="752" y="-122.5" font-family="Helvetica,sans-Serif" font-size="10.00">functional</text>
</a>
</g>
</g>
<!-- Node1&#45;&gt;Node16 -->
<g id="edge23_Node000001_Node000016" class="edge">
<title>Node1&#45;&gt;Node16</title>
<g id="a_edge23_Node000001_Node000016"><a xlink:title=" ">
<path fill="none" stroke="#63b8ff" d="M706.56,-230.77C716.92,-206.87 734.24,-166.94 744.24,-143.9"/>
<polygon fill="#63b8ff" stroke="#63b8ff" points="747.5,-145.18 748.26,-134.61 741.07,-142.39 747.5,-145.18"/>
</a>
</g>
</g>
<!-- Node17 -->
<g id="Node000017" class="node">
<title>Node17</title>
<g id="a_Node000017"><a xlink:title=" ">
<polygon fill="#e0e0e0" stroke="#999999" points="838.5,-195 745.5,-195 745.5,-176 838.5,-176 838.5,-195"/>
<text text-anchor="middle" x="792" y="-183" font-family="Helvetica,sans-Serif" font-size="10.00">unordered_map</text>
</a>
</g>
</g>
<!-- Node1&#45;&gt;Node17 -->
<g id="edge22_Node000001_Node000017" class="edge">
<title>Node1&#45;&gt;Node17</title>
<g id="a_edge22_Node000001_Node000017"><a xlink:title=" ">
<path fill="none" stroke="#63b8ff" d="M726.71,-230.95C740.93,-221.27 757.78,-209.8 770.81,-200.93"/>
<polygon fill="#63b8ff" stroke="#63b8ff" points="772.84,-203.78 779.13,-195.26 768.9,-198 772.84,-203.78"/>
</a>
</g>
</g>
<!-- Node3 -->
<g id="Node000003" class="node">
<title>Node3</title>
<g id="a_Node000003"><a xlink:title=" ">
<polygon fill="#e0e0e0" stroke="#999999" points="333.5,-74 176.5,-74 176.5,-55 333.5,-55 333.5,-74"/>
<text text-anchor="middle" x="255" y="-62" font-family="Helvetica,sans-Serif" font-size="10.00">interfaces/logger_interface.h</text>
</a>
</g>
</g>
<!-- Node2&#45;&gt;Node3 -->
<g id="edge2_Node000002_Node000003" class="edge">
<title>Node2&#45;&gt;Node3</title>
<g id="a_edge2_Node000002_Node000003"><a xlink:title=" ">
<path fill="none" stroke="#63b8ff" d="M512.27,-176.81C473.18,-170.07 419.52,-158.42 375,-140 336.79,-124.19 296.86,-96.89 274.04,-80.09"/>
<polygon fill="#63b8ff" stroke="#63b8ff" points="276.01,-77.19 265.91,-74.01 271.82,-82.8 276.01,-77.19"/>
</a>
</g>
</g>
<!-- Node4 -->
<g id="Node000004" class="node">
<title>Node4</title>
<g id="a_Node000004"><a xlink:href="log__filter__interface_8h.html" target="_top" xlink:title=" ">
<polygon fill="white" stroke="#666666" points="120,-140 0,-140 0,-110 120,-110 120,-140"/>
<text text-anchor="start" x="8" y="-128" font-family="Helvetica,sans-Serif" font-size="10.00">../interfaces/log_filter</text>
<text text-anchor="middle" x="60" y="-117" font-family="Helvetica,sans-Serif" font-size="10.00">_interface.h</text>
</a>
</g>
</g>
<!-- Node2&#45;&gt;Node4 -->
<g id="edge3_Node000002_Node000004" class="edge">
<title>Node2&#45;&gt;Node4</title>
<g id="a_edge3_Node000002_Node000004"><a xlink:title=" ">
<path fill="none" stroke="#63b8ff" d="M512.28,-180.43C430.41,-173.9 269.6,-159.78 134,-140 132.73,-139.81 131.44,-139.62 130.15,-139.42"/>
<polygon fill="#63b8ff" stroke="#63b8ff" points="130.53,-135.94 120.1,-137.81 129.42,-142.85 130.53,-135.94"/>
</a>
</g>
</g>
<!-- Node5 -->
<g id="Node000005" class="node">
<title>Node5</title>
<g id="a_Node000005"><a xlink:title=" ">
<polygon fill="#e0e0e0" stroke="#999999" points="276,-19 232,-19 232,0 276,0 276,-19"/>
<text text-anchor="middle" x="254" y="-7" font-family="Helvetica,sans-Serif" font-size="10.00">string</text>
</a>
</g>
</g>
<!-- Node2&#45;&gt;Node5 -->
<g id="edge17_Node000002_Node000005" class="edge">
<title>Node2&#45;&gt;Node5</title>
<g id="a_edge17_Node000002_Node000005"><a xlink:title=" ">
<path fill="none" stroke="#63b8ff" d="M512.29,-178.27C412.44,-165.4 204.9,-132.09 167,-74 150.17,-48.21 190.99,-29.32 222.26,-19.13"/>
<polygon fill="#63b8ff" stroke="#63b8ff" points="223.47,-22.42 231.99,-16.13 221.4,-15.73 223.47,-22.42"/>
</a>
</g>
</g>
<!-- Node6 -->
<g id="Node000006" class="node">
<title>Node6</title>
<g id="a_Node000006"><a xlink:href="log__entry_8h.html" target="_top" xlink:title="Data structures for representing log entries and source locations.">
<polygon fill="white" stroke="#666666" points="515.5,-134.5 384.5,-134.5 384.5,-115.5 515.5,-115.5 515.5,-134.5"/>
<text text-anchor="middle" x="450" y="-122.5" font-family="Helvetica,sans-Serif" font-size="10.00">../interfaces/log_entry.h</text>
</a>
</g>
</g>
<!-- Node2&#45;&gt;Node6 -->
<g id="edge5_Node000002_Node000006" class="edge">
<title>Node2&#45;&gt;Node6</title>
<g id="a_edge5_Node000002_Node000006"><a xlink:title=" ">
<path fill="none" stroke="#63b8ff" d="M548.88,-175.87C529.78,-166.23 498.63,-150.53 476.4,-139.31"/>
<polygon fill="#63b8ff" stroke="#63b8ff" points="477.69,-136.05 467.19,-134.67 474.54,-142.3 477.69,-136.05"/>
</a>
</g>
</g>
<!-- Node13 -->
<g id="Node000013" class="node">
<title>Node13</title>
<g id="a_Node000013"><a xlink:title=" ">
<polygon fill="#e0e0e0" stroke="#999999" points="736,-19 678,-19 678,0 736,0 736,-19"/>
<text text-anchor="middle" x="707" y="-7" font-family="Helvetica,sans-Serif" font-size="10.00">memory</text>
</a>
</g>
</g>
<!-- Node2&#45;&gt;Node13 -->
<g id="edge19_Node000002_Node000013" class="edge">
<title>Node2&#45;&gt;Node13</title>
<g id="a_edge19_Node000002_Node000013"><a xlink:title=" ">
<path fill="none" stroke="#63b8ff" d="M573.76,-175.79C590.11,-157.35 629.15,-112.86 660,-74 672.22,-58.61 685.47,-40.57 694.79,-27.65"/>
<polygon fill="#63b8ff" stroke="#63b8ff" points="697.82,-29.43 700.8,-19.27 692.13,-25.36 697.82,-29.43"/>
</a>
</g>
</g>
<!-- Node2&#45;&gt;Node15 -->
<g id="edge18_Node000002_Node000015" class="edge">
<title>Node2&#45;&gt;Node15</title>
<g id="a_edge18_Node000002_Node000015"><a xlink:title=" ">
<path fill="none" stroke="#63b8ff" d="M582.67,-175.87C601.28,-166.23 631.62,-150.53 653.28,-139.31"/>
<polygon fill="#63b8ff" stroke="#63b8ff" points="654.99,-142.37 662.26,-134.67 651.77,-136.16 654.99,-142.37"/>
</a>
</g>
</g>
<!-- Node2&#45;&gt;Node16 -->
<g id="edge20_Node000002_Node000016" class="edge">
<title>Node2&#45;&gt;Node16</title>
<g id="a_edge20_Node000002_Node000016"><a xlink:title=" ">
<path fill="none" stroke="#63b8ff" d="M594.2,-175.99C623.28,-167.16 669.89,-152.88 710,-140 712.28,-139.27 714.64,-138.5 717.01,-137.73"/>
<polygon fill="#63b8ff" stroke="#63b8ff" points="718.31,-140.98 726.71,-134.53 716.12,-134.34 718.31,-140.98"/>
</a>
</g>
</g>
<!-- Node4&#45;&gt;Node5 -->
<g id="edge4_Node000004_Node000005" class="edge">
<title>Node4&#45;&gt;Node5</title>
<g id="a_edge4_Node000004_Node000005"><a xlink:title=" ">
<path fill="none" stroke="#63b8ff" d="M72.05,-109.81C85.72,-94.48 109.33,-70.22 134,-55 161.59,-37.98 196.71,-25.91 221.81,-18.67"/>
<polygon fill="#63b8ff" stroke="#63b8ff" points="222.88,-22 231.57,-15.95 221,-15.26 222.88,-22"/>
</a>
</g>
</g>
<!-- Node6&#45;&gt;Node3 -->
<g id="edge16_Node000006_Node000003" class="edge">
<title>Node6&#45;&gt;Node3</title>
<g id="a_edge16_Node000006_Node000003"><a xlink:title=" ">
<path fill="none" stroke="#63b8ff" d="M421.65,-115.49C387.71,-105.31 330.74,-88.22 293.01,-76.9"/>
<polygon fill="#63b8ff" stroke="#63b8ff" points="293.97,-73.54 283.39,-74.02 291.96,-80.24 293.97,-73.54"/>
</a>
</g>
</g>
<!-- Node6&#45;&gt;Node5 -->
<g id="edge6_Node000006_Node000005" class="edge">
<title>Node6&#45;&gt;Node5</title>
<g id="a_edge6_Node000006_Node000005"><a xlink:title=" ">
<path fill="none" stroke="#63b8ff" d="M437.29,-115.29C417.36,-101.76 377.37,-75.17 342,-55 322.05,-43.62 298.84,-31.95 281.27,-23.41"/>
<polygon fill="#63b8ff" stroke="#63b8ff" points="282.67,-20.2 272.14,-19.02 279.63,-26.51 282.67,-20.2"/>
</a>
</g>
</g>
<!-- Node7 -->
<g id="Node000007" class="node">
<title>Node7</title>
<g id="a_Node000007"><a xlink:title=" ">
<polygon fill="#e0e0e0" stroke="#999999" points="440,-74 390,-74 390,-55 440,-55 440,-74"/>
<text text-anchor="middle" x="415" y="-62" font-family="Helvetica,sans-Serif" font-size="10.00">chrono</text>
</a>
</g>
</g>
<!-- Node6&#45;&gt;Node7 -->
<g id="edge7_Node000006_Node000007" class="edge">
<title>Node6&#45;&gt;Node7</title>
<g id="a_edge7_Node000006_Node000007"><a xlink:title=" ">
<path fill="none" stroke="#63b8ff" d="M444.84,-115.37C439.77,-106.9 431.9,-93.74 425.51,-83.07"/>
<polygon fill="#63b8ff" stroke="#63b8ff" points="428.32,-80.95 420.19,-74.17 422.32,-84.55 428.32,-80.95"/>
</a>
</g>
</g>
<!-- Node8 -->
<g id="Node000008" class="node">
<title>Node8</title>
<g id="a_Node000008"><a xlink:title=" ">
<polygon fill="#e0e0e0" stroke="#999999" points="514,-74 458,-74 458,-55 514,-55 514,-74"/>
<text text-anchor="middle" x="486" y="-62" font-family="Helvetica,sans-Serif" font-size="10.00">optional</text>
</a>
</g>
</g>
<!-- Node6&#45;&gt;Node8 -->
<g id="edge8_Node000006_Node000008" class="edge">
<title>Node6&#45;&gt;Node8</title>
<g id="a_edge8_Node000006_Node000008"><a xlink:title=" ">
<path fill="none" stroke="#63b8ff" d="M455.31,-115.37C460.58,-106.81 468.79,-93.47 475.39,-82.74"/>
<polygon fill="#63b8ff" stroke="#63b8ff" points="478.41,-84.52 480.67,-74.17 472.44,-80.85 478.41,-84.52"/>
</a>
</g>
</g>
<!-- Node9 -->
<g id="Node000009" class="node">
<title>Node9</title>
<g id="a_Node000009"><a xlink:href="small__string_8h.html" target="_top" xlink:title=" ">
<polygon fill="white" stroke="#666666" points="651.5,-74 532.5,-74 532.5,-55 651.5,-55 651.5,-74"/>
<text text-anchor="middle" x="592" y="-62" font-family="Helvetica,sans-Serif" font-size="10.00">../core/small_string.h</text>
</a>
</g>
</g>
<!-- Node6&#45;&gt;Node9 -->
<g id="edge9_Node000006_Node000009" class="edge">
<title>Node6&#45;&gt;Node9</title>
<g id="a_edge9_Node000006_Node000009"><a xlink:title=" ">
<path fill="none" stroke="#63b8ff" d="M470.65,-115.49C494.63,-105.62 534.39,-89.23 561.83,-77.93"/>
<polygon fill="#63b8ff" stroke="#63b8ff" points="563.41,-81.06 571.33,-74.02 560.75,-74.59 563.41,-81.06"/>
</a>
</g>
</g>
<!-- Node9&#45;&gt;Node5 -->
<g id="edge11_Node000009_Node000005" class="edge">
<title>Node9&#45;&gt;Node5</title>
<g id="a_edge11_Node000009_Node000005"><a xlink:title=" ">
<path fill="none" stroke="#63b8ff" d="M537.69,-54.98C466.55,-43.83 344.04,-24.62 286.13,-15.54"/>
<polygon fill="#63b8ff" stroke="#63b8ff" points="286.51,-12.06 276.09,-13.96 285.43,-18.97 286.51,-12.06"/>
</a>
</g>
</g>
<!-- Node10 -->
<g id="Node000010" class="node">
<title>Node10</title>
<g id="a_Node000010"><a xlink:title=" ">
<polygon fill="#e0e0e0" stroke="#999999" points="422,-19 372,-19 372,0 422,0 422,-19"/>
<text text-anchor="middle" x="397" y="-7" font-family="Helvetica,sans-Serif" font-size="10.00">cstring</text>
</a>
</g>
</g>
<!-- Node9&#45;&gt;Node10 -->
<g id="edge10_Node000009_Node000010" class="edge">
<title>Node9&#45;&gt;Node10</title>
<g id="a_edge10_Node000009_Node000010"><a xlink:title=" ">
<path fill="none" stroke="#63b8ff" d="M560.67,-54.98C525.44,-45.41 468.39,-29.9 431.8,-19.96"/>
<polygon fill="#63b8ff" stroke="#63b8ff" points="432.62,-16.55 422.05,-17.31 430.79,-23.31 432.62,-16.55"/>
</a>
</g>
</g>
<!-- Node11 -->
<g id="Node000011" class="node">
<title>Node11</title>
<g id="a_Node000011"><a xlink:title=" ">
<polygon fill="#e0e0e0" stroke="#999999" points="513.5,-19 440.5,-19 440.5,0 513.5,0 513.5,-19"/>
<text text-anchor="middle" x="477" y="-7" font-family="Helvetica,sans-Serif" font-size="10.00">string_view</text>
</a>
</g>
</g>
<!-- Node9&#45;&gt;Node11 -->
<g id="edge12_Node000009_Node000011" class="edge">
<title>Node9&#45;&gt;Node11</title>
<g id="a_edge12_Node000009_Node000011"><a xlink:title=" ">
<path fill="none" stroke="#63b8ff" d="M573.52,-54.98C555.02,-46.46 526.32,-33.23 505.02,-23.41"/>
<polygon fill="#63b8ff" stroke="#63b8ff" points="506.36,-20.18 495.81,-19.17 503.43,-26.53 506.36,-20.18"/>
</a>
</g>
</g>
<!-- Node12 -->
<g id="Node000012" class="node">
<title>Node12</title>
<g id="a_Node000012"><a xlink:title=" ">
<polygon fill="#e0e0e0" stroke="#999999" points="596,-19 532,-19 532,0 596,0 596,-19"/>
<text text-anchor="middle" x="564" y="-7" font-family="Helvetica,sans-Serif" font-size="10.00">algorithm</text>
</a>
</g>
</g>
<!-- Node9&#45;&gt;Node12 -->
<g id="edge13_Node000009_Node000012" class="edge">
<title>Node9&#45;&gt;Node12</title>
<g id="a_edge13_Node000009_Node000012"><a xlink:title=" ">
<path fill="none" stroke="#63b8ff" d="M587.38,-54.75C583.54,-47.49 577.98,-36.95 573.24,-27.98"/>
<polygon fill="#63b8ff" stroke="#63b8ff" points="576.3,-26.3 568.54,-19.09 570.11,-29.57 576.3,-26.3"/>
</a>
</g>
</g>
<!-- Node9&#45;&gt;Node13 -->
<g id="edge14_Node000009_Node000013" class="edge">
<title>Node9&#45;&gt;Node13</title>
<g id="a_edge14_Node000009_Node000013"><a xlink:title=" ">
<path fill="none" stroke="#63b8ff" d="M610.48,-54.98C628.98,-46.46 657.68,-33.23 678.98,-23.41"/>
<polygon fill="#63b8ff" stroke="#63b8ff" points="680.57,-26.53 688.19,-19.17 677.64,-20.18 680.57,-26.53"/>
</a>
</g>
</g>
<!-- Node14 -->
<g id="Node000014" class="node">
<title>Node14</title>
<g id="a_Node000014"><a xlink:title=" ">
<polygon fill="#e0e0e0" stroke="#999999" points="659.5,-19 614.5,-19 614.5,0 659.5,0 659.5,-19"/>
<text text-anchor="middle" x="637" y="-7" font-family="Helvetica,sans-Serif" font-size="10.00">utility</text>
</a>
</g>
</g>
<!-- Node9&#45;&gt;Node14 -->
<g id="edge15_Node000009_Node000014" class="edge">
<title>Node9&#45;&gt;Node14</title>
<g id="a_edge15_Node000009_Node000014"><a xlink:title=" ">
<path fill="none" stroke="#63b8ff" d="M599.43,-54.75C605.85,-47.18 615.31,-36.05 623.12,-26.84"/>
<polygon fill="#63b8ff" stroke="#63b8ff" points="625.9,-28.98 629.71,-19.09 620.57,-24.45 625.9,-28.98"/>
</a>
</g>
</g>
</g>
</svg>
