<?xml version="1.0" encoding="UTF-8" standalone="no"?>
<!DOCTYPE svg PUBLIC "-//W3C//DTD SVG 1.1//EN"
 "http://www.w3.org/Graphics/SVG/1.1/DTD/svg11.dtd">
<!-- Generated by graphviz version 2.43.0 (0)
 -->
<!-- Title: log_sanitizer.cpp Pages: 1 -->
<svg width="889pt" height="313pt"
 viewBox="0.00 0.00 888.50 313.00" xmlns="http://www.w3.org/2000/svg" xmlns:xlink="http://www.w3.org/1999/xlink">
<g id="graph0" class="graph" transform="scale(1 1) rotate(0) translate(4 309)">
<title>log_sanitizer.cpp</title>
<!-- Node1 -->
<g id="Node000001" class="node">
<title>Node1</title>
<g id="a_Node000001"><a xlink:title=" ">
<polygon fill="#999999" stroke="#666666" points="671,-305 573,-305 573,-286 671,-286 671,-305"/>
<text text-anchor="middle" x="622" y="-293" font-family="Helvetica,sans-Serif" font-size="10.00">log_sanitizer.cpp</text>
</a>
</g>
</g>
<!-- Node2 -->
<g id="Node000002" class="node">
<title>Node2</title>
<g id="a_Node000002"><a xlink:href="log__sanitizer_8h.html" target="_top" xlink:title=" ">
<polygon fill="white" stroke="#666666" points="446.5,-250 359.5,-250 359.5,-231 446.5,-231 446.5,-250"/>
<text text-anchor="middle" x="403" y="-238" font-family="Helvetica,sans-Serif" font-size="10.00">log_sanitizer.h</text>
</a>
</g>
</g>
<!-- Node1&#45;&gt;Node2 -->
<g id="edge1_Node000001_Node000002" class="edge">
<title>Node1&#45;&gt;Node2</title>
<g id="a_edge1_Node000001_Node000002"><a xlink:title=" ">
<path fill="none" stroke="#63b8ff" d="M586.81,-285.98C549.17,-276.87 489.34,-262.4 448.23,-252.45"/>
<polygon fill="#63b8ff" stroke="#63b8ff" points="449,-249.03 438.46,-250.08 447.36,-255.84 449,-249.03"/>
</a>
</g>
</g>
<!-- Node5 -->
<g id="Node000005" class="node">
<title>Node5</title>
<g id="a_Node000005"><a xlink:title=" ">
<polygon fill="#e0e0e0" stroke="#999999" points="550,-19 492,-19 492,0 550,0 550,-19"/>
<text text-anchor="middle" x="521" y="-7" font-family="Helvetica,sans-Serif" font-size="10.00">memory</text>
</a>
</g>
</g>
<!-- Node1&#45;&gt;Node5 -->
<g id="edge34_Node000001_Node000005" class="edge">
<title>Node1&#45;&gt;Node5</title>
<g id="a_edge34_Node000001_Node000005"><a xlink:title=" ">
<path fill="none" stroke="#63b8ff" d="M622,-285.82C622,-267.48 622,-223.44 622,-186.5 622,-186.5 622,-186.5 622,-124 622,-78.58 576.31,-42.91 546.39,-24.43"/>
<polygon fill="#63b8ff" stroke="#63b8ff" points="548.06,-21.35 537.68,-19.25 544.49,-27.37 548.06,-21.35"/>
</a>
</g>
</g>
<!-- Node6 -->
<g id="Node000006" class="node">
<title>Node6</title>
<g id="a_Node000006"><a xlink:title=" ">
<polygon fill="#e0e0e0" stroke="#999999" points="661,-19 613,-19 613,0 661,0 661,-19"/>
<text text-anchor="middle" x="637" y="-7" font-family="Helvetica,sans-Serif" font-size="10.00">mutex</text>
</a>
</g>
</g>
<!-- Node1&#45;&gt;Node6 -->
<g id="edge31_Node000001_Node000006" class="edge">
<title>Node1&#45;&gt;Node6</title>
<g id="a_edge31_Node000001_Node000006"><a xlink:title=" ">
<path fill="none" stroke="#63b8ff" d="M627.28,-285.9C637.73,-268.07 660,-225.46 660,-186.5 660,-186.5 660,-186.5 660,-124 660,-89.94 649.93,-51.27 643.12,-28.99"/>
<polygon fill="#63b8ff" stroke="#63b8ff" points="646.37,-27.68 640.01,-19.21 639.7,-29.8 646.37,-27.68"/>
</a>
</g>
</g>
<!-- Node15 -->
<g id="Node000015" class="node">
<title>Node15</title>
<g id="a_Node000015"><a xlink:title=" ">
<polygon fill="#e0e0e0" stroke="#999999" points="64,-19 0,-19 0,0 64,0 64,-19"/>
<text text-anchor="middle" x="32" y="-7" font-family="Helvetica,sans-Serif" font-size="10.00">algorithm</text>
</a>
</g>
</g>
<!-- Node1&#45;&gt;Node15 -->
<g id="edge28_Node000001_Node000015" class="edge">
<title>Node1&#45;&gt;Node15</title>
<g id="a_edge28_Node000001_Node000015"><a xlink:title=" ">
<path fill="none" stroke="#63b8ff" d="M572.99,-290.87C429.45,-279.6 20,-242.54 20,-186.5 20,-186.5 20,-186.5 20,-124 20,-90.42 25.26,-51.56 28.81,-29.13"/>
<polygon fill="#63b8ff" stroke="#63b8ff" points="32.31,-29.45 30.48,-19.01 25.4,-28.31 32.31,-29.45"/>
</a>
</g>
</g>
<!-- Node17 -->
<g id="Node000017" class="node">
<title>Node17</title>
<g id="a_Node000017"><a xlink:title=" ">
<polygon fill="#e0e0e0" stroke="#999999" points="92,-134.5 48,-134.5 48,-115.5 92,-115.5 92,-134.5"/>
<text text-anchor="middle" x="70" y="-122.5" font-family="Helvetica,sans-Serif" font-size="10.00">regex</text>
</a>
</g>
</g>
<!-- Node1&#45;&gt;Node17 -->
<g id="edge30_Node000001_Node000017" class="edge">
<title>Node1&#45;&gt;Node17</title>
<g id="a_edge30_Node000001_Node000017"><a xlink:title=" ">
<path fill="none" stroke="#63b8ff" d="M572.8,-289.17C517.89,-282.59 426.68,-269.79 350,-250 279.63,-231.84 262.3,-224.77 196,-195 158.68,-178.24 117.45,-154.63 92.65,-139.83"/>
<polygon fill="#63b8ff" stroke="#63b8ff" points="94.36,-136.77 83.99,-134.62 90.75,-142.77 94.36,-136.77"/>
</a>
</g>
</g>
<!-- Node19 -->
<g id="Node000019" class="node">
<title>Node19</title>
<g id="a_Node000019"><a xlink:title=" ">
<polygon fill="#e0e0e0" stroke="#999999" points="580.5,-195 487.5,-195 487.5,-176 580.5,-176 580.5,-195"/>
<text text-anchor="middle" x="534" y="-183" font-family="Helvetica,sans-Serif" font-size="10.00">unordered_map</text>
</a>
</g>
</g>
<!-- Node1&#45;&gt;Node19 -->
<g id="edge33_Node000001_Node000019" class="edge">
<title>Node1&#45;&gt;Node19</title>
<g id="a_edge33_Node000001_Node000019"><a xlink:title=" ">
<path fill="none" stroke="#63b8ff" d="M614.8,-285.66C600.09,-267.61 566.41,-226.28 547.51,-203.08"/>
<polygon fill="#63b8ff" stroke="#63b8ff" points="550.09,-200.7 541.05,-195.16 544.66,-205.12 550.09,-200.7"/>
</a>
</g>
</g>
<!-- Node20 -->
<g id="Node000020" class="node">
<title>Node20</title>
<g id="a_Node000020"><a xlink:title=" ">
<polygon fill="#e0e0e0" stroke="#999999" points="748,-250 688,-250 688,-231 748,-231 748,-250"/>
<text text-anchor="middle" x="718" y="-238" font-family="Helvetica,sans-Serif" font-size="10.00">iostream</text>
</a>
</g>
</g>
<!-- Node1&#45;&gt;Node20 -->
<g id="edge29_Node000001_Node000020" class="edge">
<title>Node1&#45;&gt;Node20</title>
<g id="a_edge29_Node000001_Node000020"><a xlink:title=" ">
<path fill="none" stroke="#63b8ff" d="M637.42,-285.98C652.45,-277.69 675.54,-264.94 693.16,-255.22"/>
<polygon fill="#63b8ff" stroke="#63b8ff" points="695.23,-258.07 702.3,-250.17 691.85,-251.94 695.23,-258.07"/>
</a>
</g>
</g>
<!-- Node21 -->
<g id="Node000021" class="node">
<title>Node21</title>
<g id="a_Node000021"><a xlink:title=" ">
<polygon fill="#e0e0e0" stroke="#999999" points="813.5,-250 766.5,-250 766.5,-231 813.5,-231 813.5,-250"/>
<text text-anchor="middle" x="790" y="-238" font-family="Helvetica,sans-Serif" font-size="10.00">vector</text>
</a>
</g>
</g>
<!-- Node1&#45;&gt;Node21 -->
<g id="edge32_Node000001_Node000021" class="edge">
<title>Node1&#45;&gt;Node21</title>
<g id="a_edge32_Node000001_Node000021"><a xlink:title=" ">
<path fill="none" stroke="#63b8ff" d="M648.99,-285.98C678.29,-276.74 725.09,-261.98 756.66,-252.02"/>
<polygon fill="#63b8ff" stroke="#63b8ff" points="757.85,-255.31 766.33,-248.97 755.74,-248.64 757.85,-255.31"/>
</a>
</g>
</g>
<!-- Node22 -->
<g id="Node000022" class="node">
<title>Node22</title>
<g id="a_Node000022"><a xlink:title=" ">
<polygon fill="#e0e0e0" stroke="#999999" points="880.5,-250 831.5,-250 831.5,-231 880.5,-231 880.5,-250"/>
<text text-anchor="middle" x="856" y="-238" font-family="Helvetica,sans-Serif" font-size="10.00">cctype</text>
</a>
</g>
</g>
<!-- Node1&#45;&gt;Node22 -->
<g id="edge35_Node000001_Node000022" class="edge">
<title>Node1&#45;&gt;Node22</title>
<g id="a_edge35_Node000001_Node000022"><a xlink:title=" ">
<path fill="none" stroke="#63b8ff" d="M662.52,-285.96C701.03,-277.74 760.84,-264.74 821.09,-250.4"/>
<polygon fill="#63b8ff" stroke="#63b8ff" points="822.24,-253.73 831.16,-248 820.62,-246.92 822.24,-253.73"/>
</a>
</g>
</g>
<!-- Node3 -->
<g id="Node000003" class="node">
<title>Node3</title>
<g id="a_Node000003"><a xlink:href="log__filter_8h.html" target="_top" xlink:title=" ">
<polygon fill="white" stroke="#666666" points="456.5,-195 349.5,-195 349.5,-176 456.5,-176 456.5,-195"/>
<text text-anchor="middle" x="403" y="-183" font-family="Helvetica,sans-Serif" font-size="10.00">../filters/log_filter.h</text>
</a>
</g>
</g>
<!-- Node2&#45;&gt;Node3 -->
<g id="edge2_Node000002_Node000003" class="edge">
<title>Node2&#45;&gt;Node3</title>
<g id="a_edge2_Node000002_Node000003"><a xlink:title=" ">
<path fill="none" stroke="#63b8ff" d="M403,-230.75C403,-223.8 403,-213.85 403,-205.13"/>
<polygon fill="#63b8ff" stroke="#63b8ff" points="406.5,-205.09 403,-195.09 399.5,-205.09 406.5,-205.09"/>
</a>
</g>
</g>
<!-- Node2&#45;&gt;Node17 -->
<g id="edge25_Node000002_Node000017" class="edge">
<title>Node2&#45;&gt;Node17</title>
<g id="a_edge25_Node000002_Node000017"><a xlink:title=" ">
<path fill="none" stroke="#63b8ff" d="M373.01,-230.89C318.27,-214.89 198.79,-178.68 101,-140 99.83,-139.54 98.63,-139.05 97.43,-138.55"/>
<polygon fill="#63b8ff" stroke="#63b8ff" points="98.8,-135.33 88.24,-134.58 96.03,-141.76 98.8,-135.33"/>
</a>
</g>
</g>
<!-- Node18 -->
<g id="Node000018" class="node">
<title>Node18</title>
<g id="a_Node000018"><a xlink:title=" ">
<polygon fill="#e0e0e0" stroke="#999999" points="175.5,-134.5 110.5,-134.5 110.5,-115.5 175.5,-115.5 175.5,-134.5"/>
<text text-anchor="middle" x="143" y="-122.5" font-family="Helvetica,sans-Serif" font-size="10.00">functional</text>
</a>
</g>
</g>
<!-- Node2&#45;&gt;Node18 -->
<g id="edge27_Node000002_Node000018" class="edge">
<title>Node2&#45;&gt;Node18</title>
<g id="a_edge27_Node000002_Node000018"><a xlink:title=" ">
<path fill="none" stroke="#63b8ff" d="M383.46,-230.97C338.1,-211.17 225.47,-162 172.03,-138.67"/>
<polygon fill="#63b8ff" stroke="#63b8ff" points="173.33,-135.42 162.77,-134.63 170.53,-141.84 173.33,-135.42"/>
</a>
</g>
</g>
<!-- Node2&#45;&gt;Node19 -->
<g id="edge26_Node000002_Node000019" class="edge">
<title>Node2&#45;&gt;Node19</title>
<g id="a_edge26_Node000002_Node000019"><a xlink:title=" ">
<path fill="none" stroke="#63b8ff" d="M424.05,-230.98C445.41,-222.34 478.7,-208.87 503.06,-199.02"/>
<polygon fill="#63b8ff" stroke="#63b8ff" points="504.61,-202.17 512.57,-195.17 501.99,-195.68 504.61,-202.17"/>
</a>
</g>
</g>
<!-- Node4 -->
<g id="Node000004" class="node">
<title>Node4</title>
<g id="a_Node000004"><a xlink:href="logger__interface_8h.html" target="_top" xlink:title=" ">
<polygon fill="white" stroke="#666666" points="556,-74 442,-74 442,-55 556,-55 556,-74"/>
<text text-anchor="middle" x="499" y="-62" font-family="Helvetica,sans-Serif" font-size="10.00">../logger_interface.h</text>
</a>
</g>
</g>
<!-- Node3&#45;&gt;Node4 -->
<g id="edge3_Node000003_Node000004" class="edge">
<title>Node3&#45;&gt;Node4</title>
<g id="a_edge3_Node000003_Node000004"><a xlink:title=" ">
<path fill="none" stroke="#63b8ff" d="M450.14,-175.95C470.63,-169.64 492.72,-158.75 505,-140 515.86,-123.42 511.62,-100.1 506.44,-83.99"/>
<polygon fill="#63b8ff" stroke="#63b8ff" points="509.57,-82.36 502.87,-74.16 502.99,-84.75 509.57,-82.36"/>
</a>
</g>
</g>
<!-- Node3&#45;&gt;Node5 -->
<g id="edge23_Node000003_Node000005" class="edge">
<title>Node3&#45;&gt;Node5</title>
<g id="a_edge23_Node000003_Node000005"><a xlink:title=" ">
<path fill="none" stroke="#63b8ff" d="M444.28,-175.96C468.82,-169.3 499.45,-158.07 522,-140 555.04,-113.52 581.09,-94.16 565,-55 560.19,-43.31 550.67,-33.05 541.7,-25.34"/>
<polygon fill="#63b8ff" stroke="#63b8ff" points="543.77,-22.51 533.78,-19 539.4,-27.98 543.77,-22.51"/>
</a>
</g>
</g>
<!-- Node7 -->
<g id="Node000007" class="node">
<title>Node7</title>
<g id="a_Node000007"><a xlink:title=" ">
<polygon fill="#e0e0e0" stroke="#999999" points="398,-19 354,-19 354,0 398,0 398,-19"/>
<text text-anchor="middle" x="376" y="-7" font-family="Helvetica,sans-Serif" font-size="10.00">string</text>
</a>
</g>
</g>
<!-- Node3&#45;&gt;Node7 -->
<g id="edge21_Node000003_Node000007" class="edge">
<title>Node3&#45;&gt;Node7</title>
<g id="a_edge21_Node000003_Node000007"><a xlink:title=" ">
<path fill="none" stroke="#63b8ff" d="M427.47,-175.86C443.27,-168.85 462.59,-157.27 472,-140 478.38,-128.29 477.35,-122.21 472,-110 462.54,-88.39 449.56,-90.8 433,-74 417.81,-58.6 401.41,-40.11 390.11,-27.06"/>
<polygon fill="#63b8ff" stroke="#63b8ff" points="392.67,-24.67 383.49,-19.36 387.36,-29.23 392.67,-24.67"/>
</a>
</g>
</g>
<!-- Node8 -->
<g id="Node000008" class="node">
<title>Node8</title>
<g id="a_Node000008"><a xlink:href="log__filter__interface_8h.html" target="_top" xlink:title=" ">
<polygon fill="white" stroke="#666666" points="463,-140 343,-140 343,-110 463,-110 463,-140"/>
<text text-anchor="start" x="351" y="-128" font-family="Helvetica,sans-Serif" font-size="10.00">../interfaces/log_filter</text>
<text text-anchor="middle" x="403" y="-117" font-family="Helvetica,sans-Serif" font-size="10.00">_interface.h</text>
</a>
</g>
</g>
<!-- Node3&#45;&gt;Node8 -->
<g id="edge7_Node000003_Node000008" class="edge">
<title>Node3&#45;&gt;Node8</title>
<g id="a_edge7_Node000003_Node000008"><a xlink:title=" ">
<path fill="none" stroke="#63b8ff" d="M403,-175.87C403,-169.11 403,-159.35 403,-150.26"/>
<polygon fill="#63b8ff" stroke="#63b8ff" points="406.5,-150.11 403,-140.11 399.5,-150.11 406.5,-150.11"/>
</a>
</g>
</g>
<!-- Node9 -->
<g id="Node000009" class="node">
<title>Node9</title>
<g id="a_Node000009"><a xlink:href="log__entry_8h.html" target="_top" xlink:title=" ">
<polygon fill="white" stroke="#666666" points="324.5,-134.5 193.5,-134.5 193.5,-115.5 324.5,-115.5 324.5,-134.5"/>
<text text-anchor="middle" x="259" y="-122.5" font-family="Helvetica,sans-Serif" font-size="10.00">../interfaces/log_entry.h</text>
</a>
</g>
</g>
<!-- Node3&#45;&gt;Node9 -->
<g id="edge9_Node000003_Node000009" class="edge">
<title>Node3&#45;&gt;Node9</title>
<g id="a_edge9_Node000003_Node000009"><a xlink:title=" ">
<path fill="none" stroke="#63b8ff" d="M382.06,-175.99C357.64,-166.07 317.07,-149.59 289.23,-138.28"/>
<polygon fill="#63b8ff" stroke="#63b8ff" points="290.55,-135.04 279.96,-134.52 287.91,-141.52 290.55,-135.04"/>
</a>
</g>
</g>
<!-- Node3&#45;&gt;Node17 -->
<g id="edge22_Node000003_Node000017" class="edge">
<title>Node3&#45;&gt;Node17</title>
<g id="a_edge22_Node000003_Node000017"><a xlink:title=" ">
<path fill="none" stroke="#63b8ff" d="M349.4,-181.11C288.26,-176.22 185.8,-164.87 101,-140 99.36,-139.52 97.7,-138.97 96.04,-138.37"/>
<polygon fill="#63b8ff" stroke="#63b8ff" points="97.31,-135.11 86.73,-134.58 94.67,-141.59 97.31,-135.11"/>
</a>
</g>
</g>
<!-- Node3&#45;&gt;Node18 -->
<g id="edge24_Node000003_Node000018" class="edge">
<title>Node3&#45;&gt;Node18</title>
<g id="a_edge24_Node000003_Node000018"><a xlink:title=" ">
<path fill="none" stroke="#63b8ff" d="M351.68,-176C307.01,-168.14 240.73,-155.38 184,-140 181.37,-139.29 178.66,-138.49 175.95,-137.66"/>
<polygon fill="#63b8ff" stroke="#63b8ff" points="176.85,-134.27 166.26,-134.52 174.69,-140.93 176.85,-134.27"/>
</a>
</g>
</g>
<!-- Node4&#45;&gt;Node5 -->
<g id="edge4_Node000004_Node000005" class="edge">
<title>Node4&#45;&gt;Node5</title>
<g id="a_edge4_Node000004_Node000005"><a xlink:title=" ">
<path fill="none" stroke="#63b8ff" d="M502.63,-54.75C505.58,-47.65 509.83,-37.4 513.51,-28.56"/>
<polygon fill="#63b8ff" stroke="#63b8ff" points="516.83,-29.67 517.43,-19.09 510.37,-26.98 516.83,-29.67"/>
</a>
</g>
</g>
<!-- Node4&#45;&gt;Node6 -->
<g id="edge5_Node000004_Node000006" class="edge">
<title>Node4&#45;&gt;Node6</title>
<g id="a_edge5_Node000004_Node000006"><a xlink:title=" ">
<path fill="none" stroke="#63b8ff" d="M521.17,-54.98C543.77,-46.3 579.06,-32.75 604.75,-22.88"/>
<polygon fill="#63b8ff" stroke="#63b8ff" points="606.34,-26.02 614.42,-19.17 603.83,-19.49 606.34,-26.02"/>
</a>
</g>
</g>
<!-- Node4&#45;&gt;Node7 -->
<g id="edge6_Node000004_Node000007" class="edge">
<title>Node4&#45;&gt;Node7</title>
<g id="a_edge6_Node000004_Node000007"><a xlink:title=" ">
<path fill="none" stroke="#63b8ff" d="M479.24,-54.98C459.27,-46.38 428.2,-32.99 405.35,-23.15"/>
<polygon fill="#63b8ff" stroke="#63b8ff" points="406.69,-19.91 396.12,-19.17 403.92,-26.34 406.69,-19.91"/>
</a>
</g>
</g>
<!-- Node8&#45;&gt;Node7 -->
<g id="edge8_Node000008_Node000007" class="edge">
<title>Node8&#45;&gt;Node7</title>
<g id="a_edge8_Node000008_Node000007"><a xlink:title=" ">
<path fill="none" stroke="#63b8ff" d="M399.58,-109.63C394.72,-89.21 385.83,-51.81 380.46,-29.24"/>
<polygon fill="#63b8ff" stroke="#63b8ff" points="383.8,-28.15 378.08,-19.23 376.99,-29.77 383.8,-28.15"/>
</a>
</g>
</g>
<!-- Node9&#45;&gt;Node4 -->
<g id="edge20_Node000009_Node000004" class="edge">
<title>Node9&#45;&gt;Node4</title>
<g id="a_edge20_Node000009_Node000004"><a xlink:title=" ">
<path fill="none" stroke="#63b8ff" d="M293.9,-115.49C336.29,-105.16 407.87,-87.71 454.27,-76.4"/>
<polygon fill="#63b8ff" stroke="#63b8ff" points="455.17,-79.79 464.06,-74.02 453.52,-72.98 455.17,-79.79"/>
</a>
</g>
</g>
<!-- Node9&#45;&gt;Node7 -->
<g id="edge10_Node000009_Node000007" class="edge">
<title>Node9&#45;&gt;Node7</title>
<g id="a_edge10_Node000009_Node000007"><a xlink:title=" ">
<path fill="none" stroke="#63b8ff" d="M270.47,-115.25C282.87,-105.61 302.99,-89.43 319,-74 334.75,-58.82 351.29,-40.03 362.48,-26.84"/>
<polygon fill="#63b8ff" stroke="#63b8ff" points="365.24,-28.98 368.99,-19.07 359.88,-24.49 365.24,-28.98"/>
</a>
</g>
</g>
<!-- Node10 -->
<g id="Node000010" class="node">
<title>Node10</title>
<g id="a_Node000010"><a xlink:title=" ">
<polygon fill="#e0e0e0" stroke="#999999" points="310,-74 260,-74 260,-55 310,-55 310,-74"/>
<text text-anchor="middle" x="285" y="-62" font-family="Helvetica,sans-Serif" font-size="10.00">chrono</text>
</a>
</g>
</g>
<!-- Node9&#45;&gt;Node10 -->
<g id="edge11_Node000009_Node000010" class="edge">
<title>Node9&#45;&gt;Node10</title>
<g id="a_edge11_Node000009_Node000010"><a xlink:title=" ">
<path fill="none" stroke="#63b8ff" d="M262.84,-115.37C266.56,-106.99 272.33,-94.01 277.05,-83.39"/>
<polygon fill="#63b8ff" stroke="#63b8ff" points="280.28,-84.73 281.15,-74.17 273.89,-81.88 280.28,-84.73"/>
</a>
</g>
</g>
<!-- Node11 -->
<g id="Node000011" class="node">
<title>Node11</title>
<g id="a_Node000011"><a xlink:title=" ">
<polygon fill="#e0e0e0" stroke="#999999" points="104,-74 48,-74 48,-55 104,-55 104,-74"/>
<text text-anchor="middle" x="76" y="-62" font-family="Helvetica,sans-Serif" font-size="10.00">optional</text>
</a>
</g>
</g>
<!-- Node9&#45;&gt;Node11 -->
<g id="edge12_Node000009_Node000011" class="edge">
<title>Node9&#45;&gt;Node11</title>
<g id="a_edge12_Node000009_Node000011"><a xlink:title=" ">
<path fill="none" stroke="#63b8ff" d="M232.39,-115.49C200.81,-105.4 147.99,-88.51 112.58,-77.19"/>
<polygon fill="#63b8ff" stroke="#63b8ff" points="113.23,-73.73 102.64,-74.02 111.1,-80.4 113.23,-73.73"/>
</a>
</g>
</g>
<!-- Node12 -->
<g id="Node000012" class="node">
<title>Node12</title>
<g id="a_Node000012"><a xlink:href="small__string_8h.html" target="_top" xlink:title=" ">
<polygon fill="white" stroke="#666666" points="241.5,-74 122.5,-74 122.5,-55 241.5,-55 241.5,-74"/>
<text text-anchor="middle" x="182" y="-62" font-family="Helvetica,sans-Serif" font-size="10.00">../core/small_string.h</text>
</a>
</g>
</g>
<!-- Node9&#45;&gt;Node12 -->
<g id="edge13_Node000009_Node000012" class="edge">
<title>Node9&#45;&gt;Node12</title>
<g id="a_edge13_Node000009_Node000012"><a xlink:title=" ">
<path fill="none" stroke="#63b8ff" d="M247.64,-115.37C235.58,-106.21 216.3,-91.56 201.75,-80.51"/>
<polygon fill="#63b8ff" stroke="#63b8ff" points="203.49,-77.43 193.41,-74.17 199.25,-83 203.49,-77.43"/>
</a>
</g>
</g>
<!-- Node12&#45;&gt;Node5 -->
<g id="edge18_Node000012_Node000005" class="edge">
<title>Node12&#45;&gt;Node5</title>
<g id="a_edge18_Node000012_Node000005"><a xlink:title=" ">
<path fill="none" stroke="#63b8ff" d="M236.47,-54.98C305.11,-44.25 421.43,-26.07 481.88,-16.62"/>
<polygon fill="#63b8ff" stroke="#63b8ff" points="482.46,-20.07 491.79,-15.07 481.37,-13.15 482.46,-20.07"/>
</a>
</g>
</g>
<!-- Node12&#45;&gt;Node7 -->
<g id="edge15_Node000012_Node000007" class="edge">
<title>Node12&#45;&gt;Node7</title>
<g id="a_edge15_Node000012_Node000007"><a xlink:title=" ">
<path fill="none" stroke="#63b8ff" d="M213.17,-54.98C249.04,-45.18 307.66,-29.17 343.92,-19.26"/>
<polygon fill="#63b8ff" stroke="#63b8ff" points="345.23,-22.53 353.96,-16.52 343.39,-15.78 345.23,-22.53"/>
</a>
</g>
</g>
<!-- Node13 -->
<g id="Node000013" class="node">
<title>Node13</title>
<g id="a_Node000013"><a xlink:title=" ">
<polygon fill="#e0e0e0" stroke="#999999" points="207,-19 157,-19 157,0 207,0 207,-19"/>
<text text-anchor="middle" x="182" y="-7" font-family="Helvetica,sans-Serif" font-size="10.00">cstring</text>
</a>
</g>
</g>
<!-- Node12&#45;&gt;Node13 -->
<g id="edge14_Node000012_Node000013" class="edge">
<title>Node12&#45;&gt;Node13</title>
<g id="a_edge14_Node000012_Node000013"><a xlink:title=" ">
<path fill="none" stroke="#63b8ff" d="M182,-54.75C182,-47.8 182,-37.85 182,-29.13"/>
<polygon fill="#63b8ff" stroke="#63b8ff" points="185.5,-29.09 182,-19.09 178.5,-29.09 185.5,-29.09"/>
</a>
</g>
</g>
<!-- Node14 -->
<g id="Node000014" class="node">
<title>Node14</title>
<g id="a_Node000014"><a xlink:title=" ">
<polygon fill="#e0e0e0" stroke="#999999" points="298.5,-19 225.5,-19 225.5,0 298.5,0 298.5,-19"/>
<text text-anchor="middle" x="262" y="-7" font-family="Helvetica,sans-Serif" font-size="10.00">string_view</text>
</a>
</g>
</g>
<!-- Node12&#45;&gt;Node14 -->
<g id="edge16_Node000012_Node000014" class="edge">
<title>Node12&#45;&gt;Node14</title>
<g id="a_edge16_Node000012_Node000014"><a xlink:title=" ">
<path fill="none" stroke="#63b8ff" d="M194.85,-54.98C207.14,-46.84 225.91,-34.41 240.48,-24.76"/>
<polygon fill="#63b8ff" stroke="#63b8ff" points="242.51,-27.61 248.91,-19.17 238.64,-21.78 242.51,-27.61"/>
</a>
</g>
</g>
<!-- Node12&#45;&gt;Node15 -->
<g id="edge17_Node000012_Node000015" class="edge">
<title>Node12&#45;&gt;Node15</title>
<g id="a_edge17_Node000012_Node000015"><a xlink:title=" ">
<path fill="none" stroke="#63b8ff" d="M157.9,-54.98C133.12,-46.23 94.3,-32.51 66.31,-22.62"/>
<polygon fill="#63b8ff" stroke="#63b8ff" points="67.13,-19.2 56.54,-19.17 64.8,-25.8 67.13,-19.2"/>
</a>
</g>
</g>
<!-- Node16 -->
<g id="Node000016" class="node">
<title>Node16</title>
<g id="a_Node000016"><a xlink:title=" ">
<polygon fill="#e0e0e0" stroke="#999999" points="138.5,-19 93.5,-19 93.5,0 138.5,0 138.5,-19"/>
<text text-anchor="middle" x="116" y="-7" font-family="Helvetica,sans-Serif" font-size="10.00">utility</text>
</a>
</g>
</g>
<!-- Node12&#45;&gt;Node16 -->
<g id="edge19_Node000012_Node000016" class="edge">
<title>Node12&#45;&gt;Node16</title>
<g id="a_edge19_Node000012_Node000016"><a xlink:title=" ">
<path fill="none" stroke="#63b8ff" d="M171.4,-54.98C161.54,-47.07 146.65,-35.11 134.78,-25.58"/>
<polygon fill="#63b8ff" stroke="#63b8ff" points="136.79,-22.7 126.8,-19.17 132.4,-28.16 136.79,-22.7"/>
</a>
</g>
</g>
</g>
</svg>
