<?xml version="1.0" encoding="UTF-8" standalone="no"?>
<!DOCTYPE svg PUBLIC "-//W3C//DTD SVG 1.1//EN"
 "http://www.w3.org/Graphics/SVG/1.1/DTD/svg11.dtd">
<!-- Generated by graphviz version 2.43.0 (0)
 -->
<!-- Title: log_collector.cpp Pages: 1 -->
<svg width="471pt" height="192pt"
 viewBox="0.00 0.00 470.50 192.00" xmlns="http://www.w3.org/2000/svg" xmlns:xlink="http://www.w3.org/1999/xlink">
<g id="graph0" class="graph" transform="scale(1 1) rotate(0) translate(4 188)">
<title>log_collector.cpp</title>
<!-- Node1 -->
<g id="Node000001" class="node">
<title>Node1</title>
<g id="a_Node000001"><a xlink:title=" ">
<polygon fill="#999999" stroke="#666666" points="278,-184 180,-184 180,-165 278,-165 278,-184"/>
<text text-anchor="middle" x="229" y="-172" font-family="Helvetica,sans-Serif" font-size="10.00">log_collector.cpp</text>
</a>
</g>
</g>
<!-- Node2 -->
<g id="Node000002" class="node">
<title>Node2</title>
<g id="a_Node000002"><a xlink:href="log__collector_8h.html" target="_top" xlink:title=" ">
<polygon fill="white" stroke="#666666" points="272.5,-129 185.5,-129 185.5,-110 272.5,-110 272.5,-129"/>
<text text-anchor="middle" x="229" y="-117" font-family="Helvetica,sans-Serif" font-size="10.00">log_collector.h</text>
</a>
</g>
</g>
<!-- Node1&#45;&gt;Node2 -->
<g id="edge1_Node000001_Node000002" class="edge">
<title>Node1&#45;&gt;Node2</title>
<g id="a_edge1_Node000001_Node000002"><a xlink:title=" ">
<path fill="none" stroke="#63b8ff" d="M229,-164.75C229,-157.8 229,-147.85 229,-139.13"/>
<polygon fill="#63b8ff" stroke="#63b8ff" points="232.5,-139.09 229,-129.09 225.5,-139.09 232.5,-139.09"/>
</a>
</g>
</g>
<!-- Node5 -->
<g id="Node000005" class="node">
<title>Node5</title>
<g id="a_Node000005"><a xlink:title=" ">
<polygon fill="#e0e0e0" stroke="#999999" points="48,-19 0,-19 0,0 48,0 48,-19"/>
<text text-anchor="middle" x="24" y="-7" font-family="Helvetica,sans-Serif" font-size="10.00">mutex</text>
</a>
</g>
</g>
<!-- Node1&#45;&gt;Node5 -->
<g id="edge16_Node000001_Node000005" class="edge">
<title>Node1&#45;&gt;Node5</title>
<g id="a_edge16_Node000001_Node000005"><a xlink:title=" ">
<path fill="none" stroke="#63b8ff" d="M179.89,-170.25C123.53,-165.37 36.25,-153.92 16,-129 -7.21,-100.44 5.83,-54.09 15.86,-28.65"/>
<polygon fill="#63b8ff" stroke="#63b8ff" points="19.21,-29.72 19.86,-19.14 12.76,-27 19.21,-29.72"/>
</a>
</g>
</g>
<!-- Node11 -->
<g id="Node000011" class="node">
<title>Node11</title>
<g id="a_Node000011"><a xlink:href="base__writer_8h.html" target="_top" xlink:title=" ">
<polygon fill="white" stroke="#666666" points="153,-129 25,-129 25,-110 153,-110 153,-129"/>
<text text-anchor="middle" x="89" y="-117" font-family="Helvetica,sans-Serif" font-size="10.00">../writers/base_writer.h</text>
</a>
</g>
</g>
<!-- Node1&#45;&gt;Node11 -->
<g id="edge11_Node000001_Node000011" class="edge">
<title>Node1&#45;&gt;Node11</title>
<g id="a_edge11_Node000001_Node000011"><a xlink:title=" ">
<path fill="none" stroke="#63b8ff" d="M206.51,-164.98C183.48,-156.27 147.46,-142.63 121.37,-132.75"/>
<polygon fill="#63b8ff" stroke="#63b8ff" points="122.49,-129.44 111.9,-129.17 120.02,-135.98 122.49,-129.44"/>
</a>
</g>
</g>
<!-- Node12 -->
<g id="Node000012" class="node">
<title>Node12</title>
<g id="a_Node000012"><a xlink:title=" ">
<polygon fill="#e0e0e0" stroke="#999999" points="337.5,-129 290.5,-129 290.5,-110 337.5,-110 337.5,-129"/>
<text text-anchor="middle" x="314" y="-117" font-family="Helvetica,sans-Serif" font-size="10.00">queue</text>
</a>
</g>
</g>
<!-- Node1&#45;&gt;Node12 -->
<g id="edge15_Node000001_Node000012" class="edge">
<title>Node1&#45;&gt;Node12</title>
<g id="a_edge15_Node000001_Node000012"><a xlink:title=" ">
<path fill="none" stroke="#63b8ff" d="M242.66,-164.98C255.84,-156.77 276.03,-144.18 291.57,-134.49"/>
<polygon fill="#63b8ff" stroke="#63b8ff" points="293.46,-137.43 300.09,-129.17 289.76,-131.49 293.46,-137.43"/>
</a>
</g>
</g>
<!-- Node13 -->
<g id="Node000013" class="node">
<title>Node13</title>
<g id="a_Node000013"><a xlink:title=" ">
<polygon fill="#e0e0e0" stroke="#999999" points="462.5,-129 355.5,-129 355.5,-110 462.5,-110 462.5,-129"/>
<text text-anchor="middle" x="409" y="-117" font-family="Helvetica,sans-Serif" font-size="10.00">condition_variable</text>
</a>
</g>
</g>
<!-- Node1&#45;&gt;Node13 -->
<g id="edge17_Node000001_Node000013" class="edge">
<title>Node1&#45;&gt;Node13</title>
<g id="a_edge17_Node000001_Node000013"><a xlink:title=" ">
<path fill="none" stroke="#63b8ff" d="M257.92,-164.98C288.27,-156.05 336.17,-141.94 369.88,-132.02"/>
<polygon fill="#63b8ff" stroke="#63b8ff" points="371.25,-135.26 379.85,-129.08 369.27,-128.55 371.25,-135.26"/>
</a>
</g>
</g>
<!-- Node3 -->
<g id="Node000003" class="node">
<title>Node3</title>
<g id="a_Node000003"><a xlink:href="logger__interface_8h.html" target="_top" xlink:title=" ">
<polygon fill="white" stroke="#666666" points="216,-74 102,-74 102,-55 216,-55 216,-74"/>
<text text-anchor="middle" x="159" y="-62" font-family="Helvetica,sans-Serif" font-size="10.00">../logger_interface.h</text>
</a>
</g>
</g>
<!-- Node2&#45;&gt;Node3 -->
<g id="edge2_Node000002_Node000003" class="edge">
<title>Node2&#45;&gt;Node3</title>
<g id="a_edge2_Node000002_Node000003"><a xlink:title=" ">
<path fill="none" stroke="#63b8ff" d="M217.75,-109.98C207.2,-102 191.2,-89.88 178.56,-80.31"/>
<polygon fill="#63b8ff" stroke="#63b8ff" points="180.54,-77.42 170.45,-74.17 176.31,-83 180.54,-77.42"/>
</a>
</g>
</g>
<!-- Node4 -->
<g id="Node000004" class="node">
<title>Node4</title>
<g id="a_Node000004"><a xlink:title=" ">
<polygon fill="#e0e0e0" stroke="#999999" points="229,-19 171,-19 171,0 229,0 229,-19"/>
<text text-anchor="middle" x="200" y="-7" font-family="Helvetica,sans-Serif" font-size="10.00">memory</text>
</a>
</g>
</g>
<!-- Node2&#45;&gt;Node4 -->
<g id="edge6_Node000002_Node000004" class="edge">
<title>Node2&#45;&gt;Node4</title>
<g id="a_edge6_Node000002_Node000004"><a xlink:title=" ">
<path fill="none" stroke="#63b8ff" d="M229.66,-109.66C230.33,-97.19 230.57,-73.86 225,-55 222.15,-45.35 216.91,-35.5 211.96,-27.54"/>
<polygon fill="#63b8ff" stroke="#63b8ff" points="214.87,-25.59 206.44,-19.17 209.02,-29.44 214.87,-25.59"/>
</a>
</g>
</g>
<!-- Node7 -->
<g id="Node000007" class="node">
<title>Node7</title>
<g id="a_Node000007"><a xlink:title=" ">
<polygon fill="#e0e0e0" stroke="#999999" points="319.5,-74 272.5,-74 272.5,-55 319.5,-55 319.5,-74"/>
<text text-anchor="middle" x="296" y="-62" font-family="Helvetica,sans-Serif" font-size="10.00">vector</text>
</a>
</g>
</g>
<!-- Node2&#45;&gt;Node7 -->
<g id="edge7_Node000002_Node000007" class="edge">
<title>Node2&#45;&gt;Node7</title>
<g id="a_edge7_Node000002_Node000007"><a xlink:title=" ">
<path fill="none" stroke="#63b8ff" d="M239.76,-109.98C249.77,-102.07 264.89,-90.11 276.93,-80.58"/>
<polygon fill="#63b8ff" stroke="#63b8ff" points="279.37,-83.12 285.04,-74.17 275.03,-77.63 279.37,-83.12"/>
</a>
</g>
</g>
<!-- Node8 -->
<g id="Node000008" class="node">
<title>Node8</title>
<g id="a_Node000008"><a xlink:title=" ">
<polygon fill="#e0e0e0" stroke="#999999" points="386,-74 338,-74 338,-55 386,-55 386,-74"/>
<text text-anchor="middle" x="362" y="-62" font-family="Helvetica,sans-Serif" font-size="10.00">thread</text>
</a>
</g>
</g>
<!-- Node2&#45;&gt;Node8 -->
<g id="edge8_Node000002_Node000008" class="edge">
<title>Node2&#45;&gt;Node8</title>
<g id="a_edge8_Node000002_Node000008"><a xlink:title=" ">
<path fill="none" stroke="#63b8ff" d="M250.37,-109.98C272.15,-101.3 306.16,-87.75 330.92,-77.88"/>
<polygon fill="#63b8ff" stroke="#63b8ff" points="332.25,-81.12 340.24,-74.17 329.66,-74.62 332.25,-81.12"/>
</a>
</g>
</g>
<!-- Node9 -->
<g id="Node000009" class="node">
<title>Node9</title>
<g id="a_Node000009"><a xlink:title=" ">
<polygon fill="#e0e0e0" stroke="#999999" points="454,-74 404,-74 404,-55 454,-55 454,-74"/>
<text text-anchor="middle" x="429" y="-62" font-family="Helvetica,sans-Serif" font-size="10.00">atomic</text>
</a>
</g>
</g>
<!-- Node2&#45;&gt;Node9 -->
<g id="edge9_Node000002_Node000009" class="edge">
<title>Node2&#45;&gt;Node9</title>
<g id="a_edge9_Node000002_Node000009"><a xlink:title=" ">
<path fill="none" stroke="#63b8ff" d="M261.13,-109.98C297.47,-100.36 356.44,-84.73 393.94,-74.79"/>
<polygon fill="#63b8ff" stroke="#63b8ff" points="395.14,-78.09 403.91,-72.15 393.35,-71.33 395.14,-78.09"/>
</a>
</g>
</g>
<!-- Node10 -->
<g id="Node000010" class="node">
<title>Node10</title>
<g id="a_Node000010"><a xlink:title=" ">
<polygon fill="#e0e0e0" stroke="#999999" points="84,-74 34,-74 34,-55 84,-55 84,-74"/>
<text text-anchor="middle" x="59" y="-62" font-family="Helvetica,sans-Serif" font-size="10.00">chrono</text>
</a>
</g>
</g>
<!-- Node2&#45;&gt;Node10 -->
<g id="edge10_Node000002_Node000010" class="edge">
<title>Node2&#45;&gt;Node10</title>
<g id="a_edge10_Node000002_Node000010"><a xlink:title=" ">
<path fill="none" stroke="#63b8ff" d="M201.69,-109.98C172.38,-100.85 125.76,-86.31 93.84,-76.36"/>
<polygon fill="#63b8ff" stroke="#63b8ff" points="94.62,-72.94 84.03,-73.3 92.53,-79.62 94.62,-72.94"/>
</a>
</g>
</g>
<!-- Node3&#45;&gt;Node4 -->
<g id="edge3_Node000003_Node000004" class="edge">
<title>Node3&#45;&gt;Node4</title>
<g id="a_edge3_Node000003_Node000004"><a xlink:title=" ">
<path fill="none" stroke="#63b8ff" d="M165.77,-54.75C171.56,-47.26 180.06,-36.28 187.14,-27.13"/>
<polygon fill="#63b8ff" stroke="#63b8ff" points="190.01,-29.14 193.36,-19.09 184.47,-24.86 190.01,-29.14"/>
</a>
</g>
</g>
<!-- Node3&#45;&gt;Node5 -->
<g id="edge4_Node000003_Node000005" class="edge">
<title>Node3&#45;&gt;Node5</title>
<g id="a_edge4_Node000003_Node000005"><a xlink:title=" ">
<path fill="none" stroke="#63b8ff" d="M137.31,-54.98C115.2,-46.3 80.68,-32.75 55.55,-22.88"/>
<polygon fill="#63b8ff" stroke="#63b8ff" points="56.67,-19.57 46.08,-19.17 54.11,-26.08 56.67,-19.57"/>
</a>
</g>
</g>
<!-- Node6 -->
<g id="Node000006" class="node">
<title>Node6</title>
<g id="a_Node000006"><a xlink:title=" ">
<polygon fill="#e0e0e0" stroke="#999999" points="139,-19 95,-19 95,0 139,0 139,-19"/>
<text text-anchor="middle" x="117" y="-7" font-family="Helvetica,sans-Serif" font-size="10.00">string</text>
</a>
</g>
</g>
<!-- Node3&#45;&gt;Node6 -->
<g id="edge5_Node000003_Node000006" class="edge">
<title>Node3&#45;&gt;Node6</title>
<g id="a_edge5_Node000003_Node000006"><a xlink:title=" ">
<path fill="none" stroke="#63b8ff" d="M152.06,-54.75C146.13,-47.26 137.43,-36.28 130.18,-27.13"/>
<polygon fill="#63b8ff" stroke="#63b8ff" points="132.76,-24.75 123.81,-19.09 127.27,-29.1 132.76,-24.75"/>
</a>
</g>
</g>
<!-- Node11&#45;&gt;Node3 -->
<g id="edge14_Node000011_Node000003" class="edge">
<title>Node11&#45;&gt;Node3</title>
<g id="a_edge14_Node000011_Node000003"><a xlink:title=" ">
<path fill="none" stroke="#63b8ff" d="M100.25,-109.98C110.8,-102 126.8,-89.88 139.44,-80.31"/>
<polygon fill="#63b8ff" stroke="#63b8ff" points="141.69,-83 147.55,-74.17 137.46,-77.42 141.69,-83"/>
</a>
</g>
</g>
<!-- Node11&#45;&gt;Node6 -->
<g id="edge12_Node000011_Node000006" class="edge">
<title>Node11&#45;&gt;Node6</title>
<g id="a_edge12_Node000011_Node000006"><a xlink:title=" ">
<path fill="none" stroke="#63b8ff" d="M68.23,-109.84C44.5,-98.63 10.7,-77.81 25,-55 38.04,-34.2 63.86,-22.89 84.83,-16.88"/>
<polygon fill="#63b8ff" stroke="#63b8ff" points="85.86,-20.23 94.67,-14.34 84.11,-13.45 85.86,-20.23"/>
</a>
</g>
</g>
<!-- Node11&#45;&gt;Node10 -->
<g id="edge13_Node000011_Node000010" class="edge">
<title>Node11&#45;&gt;Node10</title>
<g id="a_edge13_Node000011_Node000010"><a xlink:title=" ">
<path fill="none" stroke="#63b8ff" d="M84.05,-109.75C79.94,-102.49 73.97,-91.95 68.9,-82.98"/>
<polygon fill="#63b8ff" stroke="#63b8ff" points="71.83,-81.07 63.86,-74.09 65.74,-84.52 71.83,-81.07"/>
</a>
</g>
</g>
</g>
</svg>
