<?xml version="1.0" encoding="UTF-8" standalone="no"?>
<!DOCTYPE svg PUBLIC "-//W3C//DTD SVG 1.1//EN"
 "http://www.w3.org/Graphics/SVG/1.1/DTD/svg11.dtd">
<!-- Generated by graphviz version 2.43.0 (0)
 -->
<!-- Title: /home/runner/work/logger_system/logger_system/sources/logger/interfaces/log_writer_interface.h Pages: 1 -->
<svg width="2045pt" height="401pt"
 viewBox="0.00 0.00 2045.36 401.00" xmlns="http://www.w3.org/2000/svg" xmlns:xlink="http://www.w3.org/1999/xlink">
<g id="graph0" class="graph" transform="scale(1 1) rotate(0) translate(4 397)">
<title>/home/runner/work/logger_system/logger_system/sources/logger/interfaces/log_writer_interface.h</title>
<!-- Node1 -->
<g id="Node000001" class="node">
<title>Node1</title>
<g id="a_Node000001"><a xlink:title=" ">
<polygon fill="#999999" stroke="#666666" points="960.36,-393 787.36,-393 787.36,-341 960.36,-341 960.36,-393"/>
<text text-anchor="start" x="795.36" y="-381" font-family="Helvetica,sans-Serif" font-size="10.00">/home/runner/work/logger</text>
<text text-anchor="start" x="795.36" y="-370" font-family="Helvetica,sans-Serif" font-size="10.00">_system/logger_system/sources</text>
<text text-anchor="start" x="795.36" y="-359" font-family="Helvetica,sans-Serif" font-size="10.00">/logger/interfaces/log_writer</text>
<text text-anchor="middle" x="873.86" y="-348" font-family="Helvetica,sans-Serif" font-size="10.00">_interface.h</text>
</a>
</g>
</g>
<!-- Node2 -->
<g id="Node000002" class="node">
<title>Node2</title>
<g id="a_Node000002"><a xlink:href="base__writer_8h.html" target="_top" xlink:title="Abstract base class for all log output writers.">
<polygon fill="white" stroke="#666666" points="960.36,-305 787.36,-305 787.36,-264 960.36,-264 960.36,-305"/>
<text text-anchor="start" x="795.36" y="-293" font-family="Helvetica,sans-Serif" font-size="10.00">/home/runner/work/logger</text>
<text text-anchor="start" x="795.36" y="-282" font-family="Helvetica,sans-Serif" font-size="10.00">_system/logger_system/sources</text>
<text text-anchor="middle" x="873.86" y="-271" font-family="Helvetica,sans-Serif" font-size="10.00">/logger/writers/base_writer.h</text>
</a>
</g>
</g>
<!-- Node1&#45;&gt;Node2 -->
<g id="edge1_Node000001_Node000002" class="edge">
<title>Node1&#45;&gt;Node2</title>
<g id="a_edge1_Node000001_Node000002"><a xlink:title=" ">
<path fill="none" stroke="#63b8ff" d="M873.86,-330.87C873.86,-322.05 873.86,-312.9 873.86,-305.15"/>
<polygon fill="#63b8ff" stroke="#63b8ff" points="870.36,-330.97 873.86,-340.97 877.36,-330.97 870.36,-330.97"/>
</a>
</g>
</g>
<!-- Node3 -->
<g id="Node000003" class="node">
<title>Node3</title>
<g id="a_Node000003"><a xlink:href="logger__builder_8h.html" target="_top" xlink:title="Builder pattern implementation for flexible logger configuration.">
<polygon fill="white" stroke="#666666" points="1415.36,-134.5 1242.36,-134.5 1242.36,-93.5 1415.36,-93.5 1415.36,-134.5"/>
<text text-anchor="start" x="1250.36" y="-122.5" font-family="Helvetica,sans-Serif" font-size="10.00">/home/runner/work/logger</text>
<text text-anchor="start" x="1250.36" y="-111.5" font-family="Helvetica,sans-Serif" font-size="10.00">_system/logger_system/sources</text>
<text text-anchor="middle" x="1328.86" y="-100.5" font-family="Helvetica,sans-Serif" font-size="10.00">/logger/config/logger_builder.h</text>
</a>
</g>
</g>
<!-- Node2&#45;&gt;Node3 -->
<g id="edge2_Node000002_Node000003" class="edge">
<title>Node2&#45;&gt;Node3</title>
<g id="a_edge2_Node000002_Node000003"><a xlink:title=" ">
<path fill="none" stroke="#63b8ff" d="M970.88,-279.23C1105.26,-272.31 1334.46,-256.47 1359.86,-228 1383.29,-201.74 1360.89,-159.37 1343.91,-134.65"/>
<polygon fill="#63b8ff" stroke="#63b8ff" points="970.39,-275.75 960.58,-279.76 970.74,-282.75 970.39,-275.75"/>
</a>
</g>
</g>
<!-- Node5 -->
<g id="Node000005" class="node">
<title>Node5</title>
<g id="a_Node000005"><a xlink:href="log__collector_8cpp.html" target="_top" xlink:title=" ">
<polygon fill="white" stroke="#666666" points="196.36,-222.5 23.36,-222.5 23.36,-181.5 196.36,-181.5 196.36,-222.5"/>
<text text-anchor="start" x="31.36" y="-210.5" font-family="Helvetica,sans-Serif" font-size="10.00">/home/runner/work/logger</text>
<text text-anchor="start" x="31.36" y="-199.5" font-family="Helvetica,sans-Serif" font-size="10.00">_system/logger_system/sources</text>
<text text-anchor="middle" x="109.86" y="-188.5" font-family="Helvetica,sans-Serif" font-size="10.00">/logger/core/log_collector.cpp</text>
</a>
</g>
</g>
<!-- Node2&#45;&gt;Node5 -->
<g id="edge4_Node000002_Node000005" class="edge">
<title>Node2&#45;&gt;Node5</title>
<g id="a_edge4_Node000002_Node000005"><a xlink:title=" ">
<path fill="none" stroke="#63b8ff" d="M776.8,-280.76C646.04,-275.85 406.44,-262.61 204.86,-228 196.2,-226.51 187.18,-224.61 178.3,-222.53"/>
<polygon fill="#63b8ff" stroke="#63b8ff" points="777.06,-284.27 787.18,-281.14 777.31,-277.27 777.06,-284.27"/>
</a>
</g>
</g>
<!-- Node6 -->
<g id="Node000006" class="node">
<title>Node6</title>
<g id="a_Node000006"><a xlink:href="health__check__system_8cpp.html" target="_top" xlink:title=" ">
<polygon fill="white" stroke="#666666" points="387.36,-228 214.36,-228 214.36,-176 387.36,-176 387.36,-228"/>
<text text-anchor="start" x="222.36" y="-216" font-family="Helvetica,sans-Serif" font-size="10.00">/home/runner/work/logger</text>
<text text-anchor="start" x="222.36" y="-205" font-family="Helvetica,sans-Serif" font-size="10.00">_system/logger_system/sources</text>
<text text-anchor="start" x="222.36" y="-194" font-family="Helvetica,sans-Serif" font-size="10.00">/logger/health/health_check</text>
<text text-anchor="middle" x="300.86" y="-183" font-family="Helvetica,sans-Serif" font-size="10.00">_system.cpp</text>
</a>
</g>
</g>
<!-- Node2&#45;&gt;Node6 -->
<g id="edge5_Node000002_Node000006" class="edge">
<title>Node2&#45;&gt;Node6</title>
<g id="a_edge5_Node000002_Node000006"><a xlink:title=" ">
<path fill="none" stroke="#63b8ff" d="M776.86,-276.3C679.86,-268.14 526.68,-252.68 395.86,-228 393.09,-227.48 390.29,-226.92 387.46,-226.33"/>
<polygon fill="#63b8ff" stroke="#63b8ff" points="776.69,-279.79 786.95,-277.13 777.27,-272.82 776.69,-279.79"/>
</a>
</g>
</g>
<!-- Node7 -->
<g id="Node000007" class="node">
<title>Node7</title>
<g id="a_Node000007"><a xlink:href="logger_8cpp.html" target="_top" xlink:title=" ">
<polygon fill="white" stroke="#666666" points="357.36,-134.5 184.36,-134.5 184.36,-93.5 357.36,-93.5 357.36,-134.5"/>
<text text-anchor="start" x="192.36" y="-122.5" font-family="Helvetica,sans-Serif" font-size="10.00">/home/runner/work/logger</text>
<text text-anchor="start" x="192.36" y="-111.5" font-family="Helvetica,sans-Serif" font-size="10.00">_system/logger_system/sources</text>
<text text-anchor="middle" x="270.86" y="-100.5" font-family="Helvetica,sans-Serif" font-size="10.00">/logger/logger.cpp</text>
</a>
</g>
</g>
<!-- Node2&#45;&gt;Node7 -->
<g id="edge6_Node000002_Node000007" class="edge">
<title>Node2&#45;&gt;Node7</title>
<g id="a_edge6_Node000002_Node000007"><a xlink:title=" ">
<path fill="none" stroke="#63b8ff" d="M776.79,-280.76C557.26,-274.08 39.62,-255.48 13.86,-228 -42.82,-167.55 89.11,-137.56 184.15,-124.22"/>
<polygon fill="#63b8ff" stroke="#63b8ff" points="776.91,-284.26 787.01,-281.06 777.12,-277.26 776.91,-284.26"/>
</a>
</g>
</g>
<!-- Node8 -->
<g id="Node000008" class="node">
<title>Node8</title>
<g id="a_Node000008"><a xlink:href="log__router_8h.html" target="_top" xlink:title=" ">
<polygon fill="white" stroke="#666666" points="578.36,-222.5 405.36,-222.5 405.36,-181.5 578.36,-181.5 578.36,-222.5"/>
<text text-anchor="start" x="413.36" y="-210.5" font-family="Helvetica,sans-Serif" font-size="10.00">/home/runner/work/logger</text>
<text text-anchor="start" x="413.36" y="-199.5" font-family="Helvetica,sans-Serif" font-size="10.00">_system/logger_system/sources</text>
<text text-anchor="middle" x="491.86" y="-188.5" font-family="Helvetica,sans-Serif" font-size="10.00">/logger/routing/log_router.h</text>
</a>
</g>
</g>
<!-- Node2&#45;&gt;Node8 -->
<g id="edge7_Node000002_Node000008" class="edge">
<title>Node2&#45;&gt;Node8</title>
<g id="a_edge7_Node000002_Node000008"><a xlink:title=" ">
<path fill="none" stroke="#63b8ff" d="M777.32,-266.48C721.48,-256.23 649.99,-242.39 586.86,-228 579.46,-226.31 571.76,-224.46 564.09,-222.54"/>
<polygon fill="#63b8ff" stroke="#63b8ff" points="776.73,-269.93 787.2,-268.29 777.99,-263.05 776.73,-269.93"/>
</a>
</g>
</g>
<!-- Node9 -->
<g id="Node000009" class="node">
<title>Node9</title>
<g id="a_Node000009"><a xlink:href="async__writer_8h.html" target="_top" xlink:title="Asynchronous wrapper for log writers.">
<polygon fill="white" stroke="#666666" points="960.36,-222.5 787.36,-222.5 787.36,-181.5 960.36,-181.5 960.36,-222.5"/>
<text text-anchor="start" x="795.36" y="-210.5" font-family="Helvetica,sans-Serif" font-size="10.00">/home/runner/work/logger</text>
<text text-anchor="start" x="795.36" y="-199.5" font-family="Helvetica,sans-Serif" font-size="10.00">_system/logger_system/sources</text>
<text text-anchor="middle" x="873.86" y="-188.5" font-family="Helvetica,sans-Serif" font-size="10.00">/logger/writers/async_writer.h</text>
</a>
</g>
</g>
<!-- Node2&#45;&gt;Node9 -->
<g id="edge9_Node000002_Node000009" class="edge">
<title>Node2&#45;&gt;Node9</title>
<g id="a_edge9_Node000002_Node000009"><a xlink:title=" ">
<path fill="none" stroke="#63b8ff" d="M873.86,-253.37C873.86,-243.1 873.86,-231.9 873.86,-222.67"/>
<polygon fill="#63b8ff" stroke="#63b8ff" points="870.36,-253.6 873.86,-263.6 877.36,-253.6 870.36,-253.6"/>
</a>
</g>
</g>
<!-- Node10 -->
<g id="Node000010" class="node">
<title>Node10</title>
<g id="a_Node000010"><a xlink:href="batch__writer_8h.html" target="_top" xlink:title=" ">
<polygon fill="white" stroke="#666666" points="1350.36,-222.5 1177.36,-222.5 1177.36,-181.5 1350.36,-181.5 1350.36,-222.5"/>
<text text-anchor="start" x="1185.36" y="-210.5" font-family="Helvetica,sans-Serif" font-size="10.00">/home/runner/work/logger</text>
<text text-anchor="start" x="1185.36" y="-199.5" font-family="Helvetica,sans-Serif" font-size="10.00">_system/logger_system/sources</text>
<text text-anchor="middle" x="1263.86" y="-188.5" font-family="Helvetica,sans-Serif" font-size="10.00">/logger/writers/batch_writer.h</text>
</a>
</g>
</g>
<!-- Node2&#45;&gt;Node10 -->
<g id="edge10_Node000002_Node000010" class="edge">
<title>Node2&#45;&gt;Node10</title>
<g id="a_edge10_Node000002_Node000010"><a xlink:title=" ">
<path fill="none" stroke="#63b8ff" d="M970.53,-267.11C1028.29,-256.87 1103.02,-242.84 1168.86,-228 1176.34,-226.31 1184.13,-224.45 1191.89,-222.52"/>
<polygon fill="#63b8ff" stroke="#63b8ff" points="969.91,-263.66 960.68,-268.85 971.13,-270.55 969.91,-263.66"/>
</a>
</g>
</g>
<!-- Node12 -->
<g id="Node000012" class="node">
<title>Node12</title>
<g id="a_Node000012"><a xlink:href="console__writer_8h.html" target="_top" xlink:title=" ">
<polygon fill="white" stroke="#666666" points="769.36,-222.5 596.36,-222.5 596.36,-181.5 769.36,-181.5 769.36,-222.5"/>
<text text-anchor="start" x="604.36" y="-210.5" font-family="Helvetica,sans-Serif" font-size="10.00">/home/runner/work/logger</text>
<text text-anchor="start" x="604.36" y="-199.5" font-family="Helvetica,sans-Serif" font-size="10.00">_system/logger_system/sources</text>
<text text-anchor="middle" x="682.86" y="-188.5" font-family="Helvetica,sans-Serif" font-size="10.00">/logger/writers/console_writer.h</text>
</a>
</g>
</g>
<!-- Node2&#45;&gt;Node12 -->
<g id="edge13_Node000002_Node000012" class="edge">
<title>Node2&#45;&gt;Node12</title>
<g id="a_edge13_Node000002_Node000012"><a xlink:title=" ">
<path fill="none" stroke="#63b8ff" d="M817.83,-259.89C789.73,-248.04 756.09,-233.87 729.43,-222.63"/>
<polygon fill="#63b8ff" stroke="#63b8ff" points="816.56,-263.15 827.13,-263.81 819.28,-256.7 816.56,-263.15"/>
</a>
</g>
</g>
<!-- Node14 -->
<g id="Node000014" class="node">
<title>Node14</title>
<g id="a_Node000014"><a xlink:href="encrypted__writer_8h.html" target="_top" xlink:title=" ">
<polygon fill="white" stroke="#666666" points="1159.36,-222.5 978.36,-222.5 978.36,-181.5 1159.36,-181.5 1159.36,-222.5"/>
<text text-anchor="start" x="986.36" y="-210.5" font-family="Helvetica,sans-Serif" font-size="10.00">/home/runner/work/logger</text>
<text text-anchor="start" x="986.36" y="-199.5" font-family="Helvetica,sans-Serif" font-size="10.00">_system/logger_system/sources</text>
<text text-anchor="middle" x="1068.86" y="-188.5" font-family="Helvetica,sans-Serif" font-size="10.00">/logger/writers/encrypted_writer.h</text>
</a>
</g>
</g>
<!-- Node2&#45;&gt;Node14 -->
<g id="edge16_Node000002_Node000014" class="edge">
<title>Node2&#45;&gt;Node14</title>
<g id="a_edge16_Node000002_Node000014"><a xlink:title=" ">
<path fill="none" stroke="#63b8ff" d="M931.05,-259.89C959.74,-248.04 994.09,-233.87 1021.31,-222.63"/>
<polygon fill="#63b8ff" stroke="#63b8ff" points="929.47,-256.76 921.56,-263.81 932.14,-263.23 929.47,-256.76"/>
</a>
</g>
</g>
<!-- Node16 -->
<g id="Node000016" class="node">
<title>Node16</title>
<g id="a_Node000016"><a xlink:href="file__writer_8h.html" target="_top" xlink:title=" ">
<polygon fill="white" stroke="#666666" points="1613.36,-222.5 1440.36,-222.5 1440.36,-181.5 1613.36,-181.5 1613.36,-222.5"/>
<text text-anchor="start" x="1448.36" y="-210.5" font-family="Helvetica,sans-Serif" font-size="10.00">/home/runner/work/logger</text>
<text text-anchor="start" x="1448.36" y="-199.5" font-family="Helvetica,sans-Serif" font-size="10.00">_system/logger_system/sources</text>
<text text-anchor="middle" x="1526.86" y="-188.5" font-family="Helvetica,sans-Serif" font-size="10.00">/logger/writers/file_writer.h</text>
</a>
</g>
</g>
<!-- Node2&#45;&gt;Node16 -->
<g id="edge18_Node000002_Node000016" class="edge">
<title>Node2&#45;&gt;Node16</title>
<g id="a_edge18_Node000002_Node000016"><a xlink:title=" ">
<path fill="none" stroke="#63b8ff" d="M970.65,-275.42C1075.1,-266.17 1246.21,-249.49 1392.86,-228 1408.19,-225.75 1424.45,-223.02 1440.16,-220.19"/>
<polygon fill="#63b8ff" stroke="#63b8ff" points="970.09,-271.96 960.44,-276.32 970.71,-278.93 970.09,-271.96"/>
</a>
</g>
</g>
<!-- Node20 -->
<g id="Node000020" class="node">
<title>Node20</title>
<g id="a_Node000020"><a xlink:href="network__writer_8h.html" target="_top" xlink:title=" ">
<polygon fill="white" stroke="#666666" points="1934.36,-222.5 1761.36,-222.5 1761.36,-181.5 1934.36,-181.5 1934.36,-222.5"/>
<text text-anchor="start" x="1769.36" y="-210.5" font-family="Helvetica,sans-Serif" font-size="10.00">/home/runner/work/logger</text>
<text text-anchor="start" x="1769.36" y="-199.5" font-family="Helvetica,sans-Serif" font-size="10.00">_system/logger_system/sources</text>
<text text-anchor="middle" x="1847.86" y="-188.5" font-family="Helvetica,sans-Serif" font-size="10.00">/logger/writers/network_writer.h</text>
</a>
</g>
</g>
<!-- Node2&#45;&gt;Node20 -->
<g id="edge23_Node000002_Node000020" class="edge">
<title>Node2&#45;&gt;Node20</title>
<g id="a_edge23_Node000002_Node000020"><a xlink:title=" ">
<path fill="none" stroke="#63b8ff" d="M970.49,-277.48C1113.26,-268.32 1388.92,-249.66 1622.86,-228 1668.55,-223.77 1719.36,-218.2 1761.12,-213.39"/>
<polygon fill="#63b8ff" stroke="#63b8ff" points="970.2,-273.99 960.44,-278.12 970.64,-280.97 970.2,-273.99"/>
</a>
</g>
</g>
<!-- Node4 -->
<g id="Node000004" class="node">
<title>Node4</title>
<g id="a_Node000004"><a xlink:href="logger__v1__compat_8h.html" target="_top" xlink:title="Compatibility wrapper for Logger System v1.x API.">
<polygon fill="white" stroke="#666666" points="1415.36,-52 1242.36,-52 1242.36,0 1415.36,0 1415.36,-52"/>
<text text-anchor="start" x="1250.36" y="-40" font-family="Helvetica,sans-Serif" font-size="10.00">/home/runner/work/logger</text>
<text text-anchor="start" x="1250.36" y="-29" font-family="Helvetica,sans-Serif" font-size="10.00">_system/logger_system/sources</text>
<text text-anchor="start" x="1250.36" y="-18" font-family="Helvetica,sans-Serif" font-size="10.00">/logger/compatibility/logger</text>
<text text-anchor="middle" x="1328.86" y="-7" font-family="Helvetica,sans-Serif" font-size="10.00">_v1_compat.h</text>
</a>
</g>
</g>
<!-- Node3&#45;&gt;Node4 -->
<g id="edge3_Node000003_Node000004" class="edge">
<title>Node3&#45;&gt;Node4</title>
<g id="a_edge3_Node000003_Node000004"><a xlink:title=" ">
<path fill="none" stroke="#63b8ff" d="M1328.86,-83.44C1328.86,-73.31 1328.86,-62.08 1328.86,-52.32"/>
<polygon fill="#63b8ff" stroke="#63b8ff" points="1325.36,-83.49 1328.86,-93.49 1332.36,-83.49 1325.36,-83.49"/>
</a>
</g>
</g>
<!-- Node8&#45;&gt;Node7 -->
<g id="edge8_Node000008_Node000007" class="edge">
<title>Node8&#45;&gt;Node7</title>
<g id="a_edge8_Node000008_Node000007"><a xlink:title=" ">
<path fill="none" stroke="#63b8ff" d="M432.16,-177.77C397.44,-164.26 354.17,-147.42 321.19,-134.59"/>
<polygon fill="#63b8ff" stroke="#63b8ff" points="431.12,-181.12 441.71,-181.49 433.66,-174.6 431.12,-181.12"/>
</a>
</g>
</g>
<!-- Node10&#45;&gt;Node3 -->
<g id="edge11_Node000010_Node000003" class="edge">
<title>Node10&#45;&gt;Node3</title>
<g id="a_edge11_Node000010_Node000003"><a xlink:title=" ">
<path fill="none" stroke="#63b8ff" d="M1284.88,-173.18C1294.36,-160.64 1305.33,-146.13 1313.94,-134.74"/>
<polygon fill="#63b8ff" stroke="#63b8ff" points="1281.84,-171.4 1278.61,-181.49 1287.43,-175.62 1281.84,-171.4"/>
</a>
</g>
</g>
<!-- Node11 -->
<g id="Node000011" class="node">
<title>Node11</title>
<g id="a_Node000011"><a xlink:href="batch__writer_8cpp.html" target="_top" xlink:title=" ">
<polygon fill="white" stroke="#666666" points="1224.36,-134.5 1051.36,-134.5 1051.36,-93.5 1224.36,-93.5 1224.36,-134.5"/>
<text text-anchor="start" x="1059.36" y="-122.5" font-family="Helvetica,sans-Serif" font-size="10.00">/home/runner/work/logger</text>
<text text-anchor="start" x="1059.36" y="-111.5" font-family="Helvetica,sans-Serif" font-size="10.00">_system/logger_system/sources</text>
<text text-anchor="middle" x="1137.86" y="-100.5" font-family="Helvetica,sans-Serif" font-size="10.00">/logger/writers/batch_writer.cpp</text>
</a>
</g>
</g>
<!-- Node10&#45;&gt;Node11 -->
<g id="edge12_Node000010_Node000011" class="edge">
<title>Node10&#45;&gt;Node11</title>
<g id="a_edge12_Node000010_Node000011"><a xlink:title=" ">
<path fill="none" stroke="#63b8ff" d="M1226.77,-175.69C1207.61,-162.61 1184.59,-146.9 1166.77,-134.74"/>
<polygon fill="#63b8ff" stroke="#63b8ff" points="1225.03,-178.74 1235.26,-181.49 1228.98,-172.96 1225.03,-178.74"/>
</a>
</g>
</g>
<!-- Node12&#45;&gt;Node4 -->
<g id="edge14_Node000012_Node000004" class="edge">
<title>Node12&#45;&gt;Node4</title>
<g id="a_edge14_Node000012_Node000004"><a xlink:title=" ">
<path fill="none" stroke="#63b8ff" d="M654.87,-173.7C632.83,-148.93 609.29,-112.63 631.86,-88 672.35,-43.81 1064.72,-31.5 1242.31,-28.18"/>
<polygon fill="#63b8ff" stroke="#63b8ff" points="652.55,-176.34 661.91,-181.3 657.68,-171.59 652.55,-176.34"/>
</a>
</g>
</g>
<!-- Node13 -->
<g id="Node000013" class="node">
<title>Node13</title>
<g id="a_Node000013"><a xlink:href="console__writer_8cpp.html" target="_top" xlink:title=" ">
<polygon fill="white" stroke="#666666" points="822.36,-134.5 641.36,-134.5 641.36,-93.5 822.36,-93.5 822.36,-134.5"/>
<text text-anchor="start" x="649.36" y="-122.5" font-family="Helvetica,sans-Serif" font-size="10.00">/home/runner/work/logger</text>
<text text-anchor="start" x="649.36" y="-111.5" font-family="Helvetica,sans-Serif" font-size="10.00">_system/logger_system/sources</text>
<text text-anchor="middle" x="731.86" y="-100.5" font-family="Helvetica,sans-Serif" font-size="10.00">/logger/writers/console_writer.cpp</text>
</a>
</g>
</g>
<!-- Node12&#45;&gt;Node13 -->
<g id="edge15_Node000012_Node000013" class="edge">
<title>Node12&#45;&gt;Node13</title>
<g id="a_edge15_Node000012_Node000013"><a xlink:title=" ">
<path fill="none" stroke="#63b8ff" d="M699.12,-172.46C706.17,-160.09 714.24,-145.91 720.61,-134.74"/>
<polygon fill="#63b8ff" stroke="#63b8ff" points="695.88,-171.06 693.97,-181.49 701.97,-174.53 695.88,-171.06"/>
</a>
</g>
</g>
<!-- Node15 -->
<g id="Node000015" class="node">
<title>Node15</title>
<g id="a_Node000015"><a xlink:href="encrypted__writer_8cpp.html" target="_top" xlink:title=" ">
<polygon fill="white" stroke="#666666" points="1032.86,-134.5 840.86,-134.5 840.86,-93.5 1032.86,-93.5 1032.86,-134.5"/>
<text text-anchor="start" x="848.86" y="-122.5" font-family="Helvetica,sans-Serif" font-size="10.00">/home/runner/work/logger</text>
<text text-anchor="start" x="848.86" y="-111.5" font-family="Helvetica,sans-Serif" font-size="10.00">_system/logger_system/sources</text>
<text text-anchor="middle" x="936.86" y="-100.5" font-family="Helvetica,sans-Serif" font-size="10.00">/logger/writers/encrypted_writer.cpp</text>
</a>
</g>
</g>
<!-- Node14&#45;&gt;Node15 -->
<g id="edge17_Node000014_Node000015" class="edge">
<title>Node14&#45;&gt;Node15</title>
<g id="a_edge17_Node000014_Node000015"><a xlink:title=" ">
<path fill="none" stroke="#63b8ff" d="M1030.27,-175.86C1010.15,-162.75 985.9,-146.95 967.15,-134.74"/>
<polygon fill="#63b8ff" stroke="#63b8ff" points="1028.61,-178.96 1038.9,-181.49 1032.44,-173.09 1028.61,-178.96"/>
</a>
</g>
</g>
<!-- Node16&#45;&gt;Node4 -->
<g id="edge19_Node000016_Node000004" class="edge">
<title>Node16&#45;&gt;Node4</title>
<g id="a_edge19_Node000016_Node000004"><a xlink:title=" ">
<path fill="none" stroke="#63b8ff" d="M1497.67,-174.58C1486.69,-164.17 1474.33,-151.88 1463.86,-140 1444.75,-118.33 1446.06,-107.62 1424.86,-88 1410.22,-74.45 1392.19,-62.1 1375.72,-52.11"/>
<polygon fill="#63b8ff" stroke="#63b8ff" points="1495.33,-177.18 1505.02,-181.46 1500.11,-172.07 1495.33,-177.18"/>
</a>
</g>
</g>
<!-- Node17 -->
<g id="Node000017" class="node">
<title>Node17</title>
<g id="a_Node000017"><a xlink:href="file__writer_8cpp.html" target="_top" xlink:title=" ">
<polygon fill="white" stroke="#666666" points="1645.36,-134.5 1472.36,-134.5 1472.36,-93.5 1645.36,-93.5 1645.36,-134.5"/>
<text text-anchor="start" x="1480.36" y="-122.5" font-family="Helvetica,sans-Serif" font-size="10.00">/home/runner/work/logger</text>
<text text-anchor="start" x="1480.36" y="-111.5" font-family="Helvetica,sans-Serif" font-size="10.00">_system/logger_system/sources</text>
<text text-anchor="middle" x="1558.86" y="-100.5" font-family="Helvetica,sans-Serif" font-size="10.00">/logger/writers/file_writer.cpp</text>
</a>
</g>
</g>
<!-- Node16&#45;&gt;Node17 -->
<g id="edge20_Node000016_Node000017" class="edge">
<title>Node16&#45;&gt;Node17</title>
<g id="a_edge20_Node000016_Node000017"><a xlink:title=" ">
<path fill="none" stroke="#63b8ff" d="M1537.61,-172.09C1542.18,-159.81 1547.39,-145.8 1551.51,-134.74"/>
<polygon fill="#63b8ff" stroke="#63b8ff" points="1534.32,-170.89 1534.12,-181.49 1540.88,-173.33 1534.32,-170.89"/>
</a>
</g>
</g>
<!-- Node18 -->
<g id="Node000018" class="node">
<title>Node18</title>
<g id="a_Node000018"><a xlink:href="rotating__file__writer_8h.html" target="_top" xlink:title=" ">
<polygon fill="white" stroke="#666666" points="1836.36,-140 1663.36,-140 1663.36,-88 1836.36,-88 1836.36,-140"/>
<text text-anchor="start" x="1671.36" y="-128" font-family="Helvetica,sans-Serif" font-size="10.00">/home/runner/work/logger</text>
<text text-anchor="start" x="1671.36" y="-117" font-family="Helvetica,sans-Serif" font-size="10.00">_system/logger_system/sources</text>
<text text-anchor="start" x="1671.36" y="-106" font-family="Helvetica,sans-Serif" font-size="10.00">/logger/writers/rotating_file</text>
<text text-anchor="middle" x="1749.86" y="-95" font-family="Helvetica,sans-Serif" font-size="10.00">_writer.h</text>
</a>
</g>
</g>
<!-- Node16&#45;&gt;Node18 -->
<g id="edge21_Node000016_Node000018" class="edge">
<title>Node16&#45;&gt;Node18</title>
<g id="a_edge21_Node000016_Node000018"><a xlink:title=" ">
<path fill="none" stroke="#63b8ff" d="M1587.01,-177.8C1617.19,-166.16 1653.78,-152.05 1684.62,-140.16"/>
<polygon fill="#63b8ff" stroke="#63b8ff" points="1585.53,-174.62 1577.46,-181.49 1588.05,-181.15 1585.53,-174.62"/>
</a>
</g>
</g>
<!-- Node19 -->
<g id="Node000019" class="node">
<title>Node19</title>
<g id="a_Node000019"><a xlink:href="rotating__file__writer_8cpp.html" target="_top" xlink:title=" ">
<polygon fill="white" stroke="#666666" points="1836.36,-52 1663.36,-52 1663.36,0 1836.36,0 1836.36,-52"/>
<text text-anchor="start" x="1671.36" y="-40" font-family="Helvetica,sans-Serif" font-size="10.00">/home/runner/work/logger</text>
<text text-anchor="start" x="1671.36" y="-29" font-family="Helvetica,sans-Serif" font-size="10.00">_system/logger_system/sources</text>
<text text-anchor="start" x="1671.36" y="-18" font-family="Helvetica,sans-Serif" font-size="10.00">/logger/writers/rotating_file</text>
<text text-anchor="middle" x="1749.86" y="-7" font-family="Helvetica,sans-Serif" font-size="10.00">_writer.cpp</text>
</a>
</g>
</g>
<!-- Node18&#45;&gt;Node19 -->
<g id="edge22_Node000018_Node000019" class="edge">
<title>Node18&#45;&gt;Node19</title>
<g id="a_edge22_Node000018_Node000019"><a xlink:title=" ">
<path fill="none" stroke="#63b8ff" d="M1749.86,-77.56C1749.86,-69.04 1749.86,-60.1 1749.86,-52.16"/>
<polygon fill="#63b8ff" stroke="#63b8ff" points="1746.36,-77.66 1749.86,-87.66 1753.36,-77.66 1746.36,-77.66"/>
</a>
</g>
</g>
<!-- Node21 -->
<g id="Node000021" class="node">
<title>Node21</title>
<g id="a_Node000021"><a xlink:href="network__writer_8cpp.html" target="_top" xlink:title=" ">
<polygon fill="white" stroke="#666666" points="2037.36,-134.5 1854.36,-134.5 1854.36,-93.5 2037.36,-93.5 2037.36,-134.5"/>
<text text-anchor="start" x="1862.36" y="-122.5" font-family="Helvetica,sans-Serif" font-size="10.00">/home/runner/work/logger</text>
<text text-anchor="start" x="1862.36" y="-111.5" font-family="Helvetica,sans-Serif" font-size="10.00">_system/logger_system/sources</text>
<text text-anchor="middle" x="1945.86" y="-100.5" font-family="Helvetica,sans-Serif" font-size="10.00">/logger/writers/network_writer.cpp</text>
</a>
</g>
</g>
<!-- Node20&#45;&gt;Node21 -->
<g id="edge24_Node000020_Node000021" class="edge">
<title>Node20&#45;&gt;Node21</title>
<g id="a_edge24_Node000020_Node000021"><a xlink:title=" ">
<path fill="none" stroke="#63b8ff" d="M1877.92,-174.62C1892.56,-161.77 1909.88,-146.57 1923.37,-134.74"/>
<polygon fill="#63b8ff" stroke="#63b8ff" points="1875.3,-172.26 1870.09,-181.49 1879.92,-177.52 1875.3,-172.26"/>
</a>
</g>
</g>
</g>
</svg>
