<?xml version="1.0" encoding="UTF-8" standalone="no"?>
<!DOCTYPE svg PUBLIC "-//W3C//DTD SVG 1.1//EN"
 "http://www.w3.org/Graphics/SVG/1.1/DTD/svg11.dtd">
<!-- Generated by graphviz version 2.43.0 (0)
 -->
<!-- Title: log_sanitizer.h Pages: 1 -->
<svg width="681pt" height="258pt"
 viewBox="0.00 0.00 681.10 258.00" xmlns="http://www.w3.org/2000/svg" xmlns:xlink="http://www.w3.org/1999/xlink">
<g id="graph0" class="graph" transform="scale(1 1) rotate(0) translate(4 254)">
<title>log_sanitizer.h</title>
<!-- Node1 -->
<g id="Node000001" class="node">
<title>Node1</title>
<g id="a_Node000001"><a xlink:title=" ">
<polygon fill="#999999" stroke="#666666" points="576.1,-250 489.1,-250 489.1,-231 576.1,-231 576.1,-250"/>
<text text-anchor="middle" x="532.6" y="-238" font-family="Helvetica,sans-Serif" font-size="10.00">log_sanitizer.h</text>
</a>
</g>
</g>
<!-- Node2 -->
<g id="Node000002" class="node">
<title>Node2</title>
<g id="a_Node000002"><a xlink:href="log__filter_8h.html" target="_top" xlink:title=" ">
<polygon fill="white" stroke="#666666" points="482.1,-195 375.1,-195 375.1,-176 482.1,-176 482.1,-195"/>
<text text-anchor="middle" x="428.6" y="-183" font-family="Helvetica,sans-Serif" font-size="10.00">../filters/log_filter.h</text>
</a>
</g>
</g>
<!-- Node1&#45;&gt;Node2 -->
<g id="edge1_Node000001_Node000002" class="edge">
<title>Node1&#45;&gt;Node2</title>
<g id="a_edge1_Node000001_Node000002"><a xlink:title=" ">
<path fill="none" stroke="#63b8ff" d="M515.89,-230.98C499.39,-222.57 473.9,-209.59 454.72,-199.81"/>
<polygon fill="#63b8ff" stroke="#63b8ff" points="456.11,-196.59 445.62,-195.17 452.94,-202.83 456.11,-196.59"/>
</a>
</g>
</g>
<!-- Node11 -->
<g id="Node000011" class="node">
<title>Node11</title>
<g id="a_Node000011"><a xlink:title=" ">
<polygon fill="#e0e0e0" stroke="#999999" points="535.6,-140 491.6,-140 491.6,-121 535.6,-121 535.6,-140"/>
<text text-anchor="middle" x="513.6" y="-128" font-family="Helvetica,sans-Serif" font-size="10.00">regex</text>
</a>
</g>
</g>
<!-- Node1&#45;&gt;Node11 -->
<g id="edge17_Node000001_Node000011" class="edge">
<title>Node1&#45;&gt;Node11</title>
<g id="a_edge17_Node000001_Node000011"><a xlink:title=" ">
<path fill="none" stroke="#63b8ff" d="M531.05,-230.66C527.97,-213.17 521.04,-173.8 516.9,-150.27"/>
<polygon fill="#63b8ff" stroke="#63b8ff" points="520.3,-149.4 515.12,-140.16 513.41,-150.61 520.3,-149.4"/>
</a>
</g>
</g>
<!-- Node12 -->
<g id="Node000012" class="node">
<title>Node12</title>
<g id="a_Node000012"><a xlink:title=" ">
<polygon fill="#e0e0e0" stroke="#999999" points="619.1,-140 554.1,-140 554.1,-121 619.1,-121 619.1,-140"/>
<text text-anchor="middle" x="586.6" y="-128" font-family="Helvetica,sans-Serif" font-size="10.00">functional</text>
</a>
</g>
</g>
<!-- Node1&#45;&gt;Node12 -->
<g id="edge19_Node000001_Node000012" class="edge">
<title>Node1&#45;&gt;Node12</title>
<g id="a_edge19_Node000001_Node000012"><a xlink:title=" ">
<path fill="none" stroke="#63b8ff" d="M537.02,-230.66C545.89,-212.93 565.99,-172.73 577.69,-149.32"/>
<polygon fill="#63b8ff" stroke="#63b8ff" points="580.93,-150.67 582.27,-140.16 574.67,-147.54 580.93,-150.67"/>
</a>
</g>
</g>
<!-- Node13 -->
<g id="Node000013" class="node">
<title>Node13</title>
<g id="a_Node000013"><a xlink:title=" ">
<polygon fill="#e0e0e0" stroke="#999999" points="673.1,-195 580.1,-195 580.1,-176 673.1,-176 673.1,-195"/>
<text text-anchor="middle" x="626.6" y="-183" font-family="Helvetica,sans-Serif" font-size="10.00">unordered_map</text>
</a>
</g>
</g>
<!-- Node1&#45;&gt;Node13 -->
<g id="edge18_Node000001_Node000013" class="edge">
<title>Node1&#45;&gt;Node13</title>
<g id="a_edge18_Node000001_Node000013"><a xlink:title=" ">
<path fill="none" stroke="#63b8ff" d="M547.7,-230.98C562.42,-222.69 585.03,-209.94 602.28,-200.22"/>
<polygon fill="#63b8ff" stroke="#63b8ff" points="604.23,-203.13 611.22,-195.17 600.79,-197.03 604.23,-203.13"/>
</a>
</g>
</g>
<!-- Node3 -->
<g id="Node000003" class="node">
<title>Node3</title>
<g id="a_Node000003"><a xlink:href="logger__interface_8h.html" target="_top" xlink:title=" ">
<polygon fill="white" stroke="#666666" points="447.6,-79.5 333.6,-79.5 333.6,-60.5 447.6,-60.5 447.6,-79.5"/>
<text text-anchor="middle" x="390.6" y="-67.5" font-family="Helvetica,sans-Serif" font-size="10.00">../logger_interface.h</text>
</a>
</g>
</g>
<!-- Node2&#45;&gt;Node3 -->
<g id="edge2_Node000002_Node000003" class="edge">
<title>Node2&#45;&gt;Node3</title>
<g id="a_edge2_Node000002_Node000003"><a xlink:title=" ">
<path fill="none" stroke="#63b8ff" d="M425.75,-175.97C419.61,-157.65 405.06,-114.18 396.73,-89.31"/>
<polygon fill="#63b8ff" stroke="#63b8ff" points="399.98,-88 393.49,-79.63 393.35,-90.22 399.98,-88"/>
</a>
</g>
</g>
<!-- Node4 -->
<g id="Node000004" class="node">
<title>Node4</title>
<g id="a_Node000004"><a xlink:title=" ">
<polygon fill="#e0e0e0" stroke="#999999" points="497.6,-19 439.6,-19 439.6,0 497.6,0 497.6,-19"/>
<text text-anchor="middle" x="468.6" y="-7" font-family="Helvetica,sans-Serif" font-size="10.00">memory</text>
</a>
</g>
</g>
<!-- Node2&#45;&gt;Node4 -->
<g id="edge15_Node000002_Node000004" class="edge">
<title>Node2&#45;&gt;Node4</title>
<g id="a_edge15_Node000002_Node000004"><a xlink:title=" ">
<path fill="none" stroke="#63b8ff" d="M431.41,-175.8C436.89,-158.61 449.11,-119 456.6,-85 460.74,-66.24 464.07,-44.53 466.17,-29.4"/>
<polygon fill="#63b8ff" stroke="#63b8ff" points="469.66,-29.65 467.52,-19.28 462.73,-28.73 469.66,-29.65"/>
</a>
</g>
</g>
<!-- Node6 -->
<g id="Node000006" class="node">
<title>Node6</title>
<g id="a_Node000006"><a xlink:title=" ">
<polygon fill="#e0e0e0" stroke="#999999" points="178.6,-19 134.6,-19 134.6,0 178.6,0 178.6,-19"/>
<text text-anchor="middle" x="156.6" y="-7" font-family="Helvetica,sans-Serif" font-size="10.00">string</text>
</a>
</g>
</g>
<!-- Node2&#45;&gt;Node6 -->
<g id="edge13_Node000002_Node000006" class="edge">
<title>Node2&#45;&gt;Node6</title>
<g id="a_edge13_Node000002_Node000006"><a xlink:title=" ">
<path fill="none" stroke="#63b8ff" d="M375.02,-180.37C271.25,-171.09 49.29,-144.58 6.6,-85 -25.39,-40.35 71.51,-21.03 124.5,-13.97"/>
<polygon fill="#63b8ff" stroke="#63b8ff" points="124.98,-17.44 134.46,-12.72 124.1,-10.49 124.98,-17.44"/>
</a>
</g>
</g>
<!-- Node7 -->
<g id="Node000007" class="node">
<title>Node7</title>
<g id="a_Node000007"><a xlink:href="log__filter__interface_8h.html" target="_top" xlink:title=" ">
<polygon fill="white" stroke="#666666" points="135.6,-85 15.6,-85 15.6,-55 135.6,-55 135.6,-85"/>
<text text-anchor="start" x="23.6" y="-73" font-family="Helvetica,sans-Serif" font-size="10.00">../interfaces/log_filter</text>
<text text-anchor="middle" x="75.6" y="-62" font-family="Helvetica,sans-Serif" font-size="10.00">_interface.h</text>
</a>
</g>
</g>
<!-- Node2&#45;&gt;Node7 -->
<g id="edge6_Node000002_Node000007" class="edge">
<title>Node2&#45;&gt;Node7</title>
<g id="a_edge6_Node000002_Node000007"><a xlink:title=" ">
<path fill="none" stroke="#63b8ff" d="M375.08,-177.15C331.39,-170.25 268.46,-158.22 215.6,-140 177.39,-126.83 136.19,-105.59 108.45,-90.15"/>
<polygon fill="#63b8ff" stroke="#63b8ff" points="110.01,-87.01 99.58,-85.15 106.57,-93.11 110.01,-87.01"/>
</a>
</g>
</g>
<!-- Node8 -->
<g id="Node000008" class="node">
<title>Node8</title>
<g id="a_Node000008"><a xlink:href="log__entry_8h.html" target="_top" xlink:title=" ">
<polygon fill="white" stroke="#666666" points="356.1,-140 225.1,-140 225.1,-121 356.1,-121 356.1,-140"/>
<text text-anchor="middle" x="290.6" y="-128" font-family="Helvetica,sans-Serif" font-size="10.00">../interfaces/log_entry.h</text>
</a>
</g>
</g>
<!-- Node2&#45;&gt;Node8 -->
<g id="edge8_Node000002_Node000008" class="edge">
<title>Node2&#45;&gt;Node8</title>
<g id="a_edge8_Node000002_Node000008"><a xlink:title=" ">
<path fill="none" stroke="#63b8ff" d="M406.43,-175.98C383.83,-167.3 348.54,-153.75 322.85,-143.88"/>
<polygon fill="#63b8ff" stroke="#63b8ff" points="323.77,-140.49 313.18,-140.17 321.26,-147.02 323.77,-140.49"/>
</a>
</g>
</g>
<!-- Node2&#45;&gt;Node11 -->
<g id="edge14_Node000002_Node000011" class="edge">
<title>Node2&#45;&gt;Node11</title>
<g id="a_edge14_Node000002_Node000011"><a xlink:title=" ">
<path fill="none" stroke="#63b8ff" d="M442.26,-175.98C455.44,-167.77 475.63,-155.18 491.17,-145.49"/>
<polygon fill="#63b8ff" stroke="#63b8ff" points="493.06,-148.43 499.7,-140.17 489.36,-142.49 493.06,-148.43"/>
</a>
</g>
</g>
<!-- Node2&#45;&gt;Node12 -->
<g id="edge16_Node000002_Node000012" class="edge">
<title>Node2&#45;&gt;Node12</title>
<g id="a_edge16_Node000002_Node000012"><a xlink:title=" ">
<path fill="none" stroke="#63b8ff" d="M453.99,-175.98C480.4,-167.13 521.95,-153.19 551.5,-143.28"/>
<polygon fill="#63b8ff" stroke="#63b8ff" points="552.65,-146.58 561.02,-140.08 550.42,-139.94 552.65,-146.58"/>
</a>
</g>
</g>
<!-- Node3&#45;&gt;Node4 -->
<g id="edge3_Node000003_Node000004" class="edge">
<title>Node3&#45;&gt;Node4</title>
<g id="a_edge3_Node000003_Node000004"><a xlink:title=" ">
<path fill="none" stroke="#63b8ff" d="M402.11,-60.37C414.44,-51.12 434.22,-36.28 449.01,-25.19"/>
<polygon fill="#63b8ff" stroke="#63b8ff" points="451.15,-27.97 457.05,-19.17 446.95,-22.37 451.15,-27.97"/>
</a>
</g>
</g>
<!-- Node5 -->
<g id="Node000005" class="node">
<title>Node5</title>
<g id="a_Node000005"><a xlink:title=" ">
<polygon fill="#e0e0e0" stroke="#999999" points="414.6,-19 366.6,-19 366.6,0 414.6,0 414.6,-19"/>
<text text-anchor="middle" x="390.6" y="-7" font-family="Helvetica,sans-Serif" font-size="10.00">mutex</text>
</a>
</g>
</g>
<!-- Node3&#45;&gt;Node5 -->
<g id="edge4_Node000003_Node000005" class="edge">
<title>Node3&#45;&gt;Node5</title>
<g id="a_edge4_Node000003_Node000005"><a xlink:title=" ">
<path fill="none" stroke="#63b8ff" d="M390.6,-60.37C390.6,-52.25 390.6,-39.81 390.6,-29.39"/>
<polygon fill="#63b8ff" stroke="#63b8ff" points="394.1,-29.17 390.6,-19.17 387.1,-29.17 394.1,-29.17"/>
</a>
</g>
</g>
<!-- Node3&#45;&gt;Node6 -->
<g id="edge5_Node000003_Node000006" class="edge">
<title>Node3&#45;&gt;Node6</title>
<g id="a_edge5_Node000003_Node000006"><a xlink:title=" ">
<path fill="none" stroke="#63b8ff" d="M356.58,-60.49C311.51,-49.23 232.62,-29.5 188.6,-18.5"/>
<polygon fill="#63b8ff" stroke="#63b8ff" points="189.27,-15.06 178.72,-16.03 187.57,-21.85 189.27,-15.06"/>
</a>
</g>
</g>
<!-- Node7&#45;&gt;Node6 -->
<g id="edge7_Node000007_Node000006" class="edge">
<title>Node7&#45;&gt;Node6</title>
<g id="a_edge7_Node000007_Node000006"><a xlink:title=" ">
<path fill="none" stroke="#63b8ff" d="M95.21,-54.84C107.57,-45.91 123.5,-34.41 136.04,-25.35"/>
<polygon fill="#63b8ff" stroke="#63b8ff" points="138.41,-27.96 144.46,-19.27 134.31,-22.28 138.41,-27.96"/>
</a>
</g>
</g>
<!-- Node8&#45;&gt;Node3 -->
<g id="edge12_Node000008_Node000003" class="edge">
<title>Node8&#45;&gt;Node3</title>
<g id="a_edge12_Node000008_Node000003"><a xlink:title=" ">
<path fill="none" stroke="#63b8ff" d="M305.36,-120.87C321.6,-111.36 347.96,-95.95 367.06,-84.77"/>
<polygon fill="#63b8ff" stroke="#63b8ff" points="368.92,-87.74 375.79,-79.67 365.39,-81.7 368.92,-87.74"/>
</a>
</g>
</g>
<!-- Node8&#45;&gt;Node6 -->
<g id="edge9_Node000008_Node000006" class="edge">
<title>Node8&#45;&gt;Node6</title>
<g id="a_edge9_Node000008_Node000006"><a xlink:title=" ">
<path fill="none" stroke="#63b8ff" d="M283.07,-120.74C270.46,-106.29 243.92,-76.87 218.6,-55 205.98,-44.09 190.77,-33.15 178.58,-24.85"/>
<polygon fill="#63b8ff" stroke="#63b8ff" points="180.19,-21.71 169.94,-19.05 176.3,-27.53 180.19,-21.71"/>
</a>
</g>
</g>
<!-- Node9 -->
<g id="Node000009" class="node">
<title>Node9</title>
<g id="a_Node000009"><a xlink:title=" ">
<polygon fill="#e0e0e0" stroke="#999999" points="315.6,-79.5 265.6,-79.5 265.6,-60.5 315.6,-60.5 315.6,-79.5"/>
<text text-anchor="middle" x="290.6" y="-67.5" font-family="Helvetica,sans-Serif" font-size="10.00">chrono</text>
</a>
</g>
</g>
<!-- Node8&#45;&gt;Node9 -->
<g id="edge10_Node000008_Node000009" class="edge">
<title>Node8&#45;&gt;Node9</title>
<g id="a_edge10_Node000008_Node000009"><a xlink:title=" ">
<path fill="none" stroke="#63b8ff" d="M290.6,-120.87C290.6,-112.75 290.6,-100.31 290.6,-89.89"/>
<polygon fill="#63b8ff" stroke="#63b8ff" points="294.1,-89.67 290.6,-79.67 287.1,-89.67 294.1,-89.67"/>
</a>
</g>
</g>
<!-- Node10 -->
<g id="Node000010" class="node">
<title>Node10</title>
<g id="a_Node000010"><a xlink:title=" ">
<polygon fill="#e0e0e0" stroke="#999999" points="209.6,-79.5 153.6,-79.5 153.6,-60.5 209.6,-60.5 209.6,-79.5"/>
<text text-anchor="middle" x="181.6" y="-67.5" font-family="Helvetica,sans-Serif" font-size="10.00">optional</text>
</a>
</g>
</g>
<!-- Node8&#45;&gt;Node10 -->
<g id="edge11_Node000008_Node000010" class="edge">
<title>Node8&#45;&gt;Node10</title>
<g id="a_edge11_Node000008_Node000010"><a xlink:title=" ">
<path fill="none" stroke="#63b8ff" d="M274.52,-120.87C256.65,-111.28 227.56,-95.67 206.69,-84.47"/>
<polygon fill="#63b8ff" stroke="#63b8ff" points="208.22,-81.31 197.75,-79.67 204.91,-87.48 208.22,-81.31"/>
</a>
</g>
</g>
</g>
</svg>
