<?xml version="1.0" encoding="UTF-8" standalone="no"?>
<!DOCTYPE svg PUBLIC "-//W3C//DTD SVG 1.1//EN"
 "http://www.w3.org/Graphics/SVG/1.1/DTD/svg11.dtd">
<!-- Generated by graphviz version 2.43.0 (0)
 -->
<!-- Title: /home/runner/work/logger_system/logger_system/sources/logger/analysis/log_analyzer.cpp Pages: 1 -->
<svg width="908pt" height="159pt"
 viewBox="0.00 0.00 907.50 159.00" xmlns="http://www.w3.org/2000/svg" xmlns:xlink="http://www.w3.org/1999/xlink">
<g id="graph0" class="graph" transform="scale(1 1) rotate(0) translate(4 155)">
<title>/home/runner/work/logger_system/logger_system/sources/logger/analysis/log_analyzer.cpp</title>
<!-- Node1 -->
<g id="Node000001" class="node">
<title>Node1</title>
<g id="a_Node000001"><a xlink:title=" ">
<polygon fill="#999999" stroke="#666666" points="643,-151 464,-151 464,-110 643,-110 643,-151"/>
<text text-anchor="start" x="472" y="-139" font-family="Helvetica,sans-Serif" font-size="10.00">/home/runner/work/logger</text>
<text text-anchor="start" x="472" y="-128" font-family="Helvetica,sans-Serif" font-size="10.00">_system/logger_system/sources</text>
<text text-anchor="middle" x="553.5" y="-117" font-family="Helvetica,sans-Serif" font-size="10.00">/logger/analysis/log_analyzer.cpp</text>
</a>
</g>
</g>
<!-- Node2 -->
<g id="Node000002" class="node">
<title>Node2</title>
<g id="a_Node000002"><a xlink:href="log__analyzer_8h.html" target="_top" xlink:title=" ">
<polygon fill="white" stroke="#666666" points="487,-74 400,-74 400,-55 487,-55 487,-74"/>
<text text-anchor="middle" x="443.5" y="-62" font-family="Helvetica,sans-Serif" font-size="10.00">log_analyzer.h</text>
</a>
</g>
</g>
<!-- Node1&#45;&gt;Node2 -->
<g id="edge1_Node000001_Node000002" class="edge">
<title>Node1&#45;&gt;Node2</title>
<g id="a_edge1_Node000001_Node000002"><a xlink:title=" ">
<path fill="none" stroke="#63b8ff" d="M519.9,-109.95C502.84,-100.03 482.53,-88.21 467.14,-79.25"/>
<polygon fill="#63b8ff" stroke="#63b8ff" points="468.67,-76.1 458.27,-74.09 465.15,-82.15 468.67,-76.1"/>
</a>
</g>
</g>
<!-- Node4 -->
<g id="Node000004" class="node">
<title>Node4</title>
<g id="a_Node000004"><a xlink:title=" ">
<polygon fill="#e0e0e0" stroke="#999999" points="93,-19 0,-19 0,0 93,0 93,-19"/>
<text text-anchor="middle" x="46.5" y="-7" font-family="Helvetica,sans-Serif" font-size="10.00">unordered_map</text>
</a>
</g>
</g>
<!-- Node1&#45;&gt;Node4 -->
<g id="edge16_Node000001_Node000004" class="edge">
<title>Node1&#45;&gt;Node4</title>
<g id="a_edge16_Node000001_Node000004"><a xlink:title=" ">
<path fill="none" stroke="#63b8ff" d="M463.86,-114.09C407.51,-103.9 333.45,-89.58 268.5,-74 202.68,-58.21 127.11,-35.62 83.28,-22.08"/>
<polygon fill="#63b8ff" stroke="#63b8ff" points="84.23,-18.71 73.64,-19.08 82.15,-25.39 84.23,-18.71"/>
</a>
</g>
</g>
<!-- Node5 -->
<g id="Node000005" class="node">
<title>Node5</title>
<g id="a_Node000005"><a xlink:title=" ">
<polygon fill="#e0e0e0" stroke="#999999" points="158,-19 111,-19 111,0 158,0 158,-19"/>
<text text-anchor="middle" x="134.5" y="-7" font-family="Helvetica,sans-Serif" font-size="10.00">deque</text>
</a>
</g>
</g>
<!-- Node1&#45;&gt;Node5 -->
<g id="edge17_Node000001_Node000005" class="edge">
<title>Node1&#45;&gt;Node5</title>
<g id="a_edge17_Node000001_Node000005"><a xlink:title=" ">
<path fill="none" stroke="#63b8ff" d="M469.87,-109.99C428.12,-99.9 376.96,-86.99 331.5,-74 273.62,-57.46 207.13,-35.37 168.08,-22.08"/>
<polygon fill="#63b8ff" stroke="#63b8ff" points="168.89,-18.66 158.3,-18.74 166.63,-25.28 168.89,-18.66"/>
</a>
</g>
</g>
<!-- Node6 -->
<g id="Node000006" class="node">
<title>Node6</title>
<g id="a_Node000006"><a xlink:title=" ">
<polygon fill="#e0e0e0" stroke="#999999" points="224.5,-19 176.5,-19 176.5,0 224.5,0 224.5,-19"/>
<text text-anchor="middle" x="200.5" y="-7" font-family="Helvetica,sans-Serif" font-size="10.00">mutex</text>
</a>
</g>
</g>
<!-- Node1&#45;&gt;Node6 -->
<g id="edge15_Node000001_Node000006" class="edge">
<title>Node1&#45;&gt;Node6</title>
<g id="a_edge15_Node000001_Node000006"><a xlink:title=" ">
<path fill="none" stroke="#63b8ff" d="M495.6,-109.98C421.27,-84.93 294.71,-42.26 234.4,-21.93"/>
<polygon fill="#63b8ff" stroke="#63b8ff" points="235.22,-18.51 224.62,-18.63 232.98,-25.14 235.22,-18.51"/>
</a>
</g>
</g>
<!-- Node8 -->
<g id="Node000008" class="node">
<title>Node8</title>
<g id="a_Node000008"><a xlink:title=" ">
<polygon fill="#e0e0e0" stroke="#999999" points="620,-19 555,-19 555,0 620,0 620,-19"/>
<text text-anchor="middle" x="587.5" y="-7" font-family="Helvetica,sans-Serif" font-size="10.00">functional</text>
</a>
</g>
</g>
<!-- Node1&#45;&gt;Node8 -->
<g id="edge19_Node000001_Node000008" class="edge">
<title>Node1&#45;&gt;Node8</title>
<g id="a_edge19_Node000001_Node000008"><a xlink:title=" ">
<path fill="none" stroke="#63b8ff" d="M543.71,-109.81C537.45,-94.36 531.81,-72.61 539.5,-55 544.77,-42.92 555.13,-32.65 564.87,-25.03"/>
<polygon fill="#63b8ff" stroke="#63b8ff" points="567.09,-27.74 573.13,-19.04 562.98,-22.07 567.09,-27.74"/>
</a>
</g>
</g>
<!-- Node10 -->
<g id="Node000010" class="node">
<title>Node10</title>
<g id="a_Node000010"><a xlink:title=" ">
<polygon fill="#e0e0e0" stroke="#999999" points="682.5,-19 638.5,-19 638.5,0 682.5,0 682.5,-19"/>
<text text-anchor="middle" x="660.5" y="-7" font-family="Helvetica,sans-Serif" font-size="10.00">regex</text>
</a>
</g>
</g>
<!-- Node1&#45;&gt;Node10 -->
<g id="edge11_Node000001_Node000010" class="edge">
<title>Node1&#45;&gt;Node10</title>
<g id="a_edge11_Node000001_Node000010"><a xlink:title=" ">
<path fill="none" stroke="#63b8ff" d="M555.72,-109.81C558.45,-93.54 564.44,-70.65 577.5,-55 590.81,-39.05 611.35,-27.97 628.67,-20.85"/>
<polygon fill="#63b8ff" stroke="#63b8ff" points="630.33,-23.96 638.42,-17.12 627.83,-17.43 630.33,-23.96"/>
</a>
</g>
</g>
<!-- Node11 -->
<g id="Node000011" class="node">
<title>Node11</title>
<g id="a_Node000011"><a xlink:title=" ">
<polygon fill="#e0e0e0" stroke="#999999" points="748,-19 701,-19 701,0 748,0 748,-19"/>
<text text-anchor="middle" x="724.5" y="-7" font-family="Helvetica,sans-Serif" font-size="10.00">vector</text>
</a>
</g>
</g>
<!-- Node1&#45;&gt;Node11 -->
<g id="edge18_Node000001_Node000011" class="edge">
<title>Node1&#45;&gt;Node11</title>
<g id="a_edge18_Node000001_Node000011"><a xlink:title=" ">
<path fill="none" stroke="#63b8ff" d="M564.28,-109.97C574.33,-93.35 590.72,-69.88 610.5,-55 623.64,-45.12 662.55,-30.92 691.28,-21.24"/>
<polygon fill="#63b8ff" stroke="#63b8ff" points="692.57,-24.5 700.95,-18.02 690.36,-17.85 692.57,-24.5"/>
</a>
</g>
</g>
<!-- Node12 -->
<g id="Node000012" class="node">
<title>Node12</title>
<g id="a_Node000012"><a xlink:title=" ">
<polygon fill="#e0e0e0" stroke="#999999" points="675.5,-74 619.5,-74 619.5,-55 675.5,-55 675.5,-74"/>
<text text-anchor="middle" x="647.5" y="-62" font-family="Helvetica,sans-Serif" font-size="10.00">sstream</text>
</a>
</g>
</g>
<!-- Node1&#45;&gt;Node12 -->
<g id="edge12_Node000001_Node000012" class="edge">
<title>Node1&#45;&gt;Node12</title>
<g id="a_edge12_Node000001_Node000012"><a xlink:title=" ">
<path fill="none" stroke="#63b8ff" d="M582.21,-109.95C596.43,-100.27 613.28,-88.8 626.31,-79.93"/>
<polygon fill="#63b8ff" stroke="#63b8ff" points="628.34,-82.78 634.63,-74.26 624.4,-77 628.34,-82.78"/>
</a>
</g>
</g>
<!-- Node13 -->
<g id="Node000013" class="node">
<title>Node13</title>
<g id="a_Node000013"><a xlink:title=" ">
<polygon fill="#e0e0e0" stroke="#999999" points="749.5,-74 693.5,-74 693.5,-55 749.5,-55 749.5,-74"/>
<text text-anchor="middle" x="721.5" y="-62" font-family="Helvetica,sans-Serif" font-size="10.00">iomanip</text>
</a>
</g>
</g>
<!-- Node1&#45;&gt;Node13 -->
<g id="edge13_Node000001_Node000013" class="edge">
<title>Node1&#45;&gt;Node13</title>
<g id="a_edge13_Node000001_Node000013"><a xlink:title=" ">
<path fill="none" stroke="#63b8ff" d="M604.82,-109.95C632.34,-99.46 665.42,-86.87 689.31,-77.76"/>
<polygon fill="#63b8ff" stroke="#63b8ff" points="690.85,-80.92 698.95,-74.09 688.36,-74.38 690.85,-80.92"/>
</a>
</g>
</g>
<!-- Node14 -->
<g id="Node000014" class="node">
<title>Node14</title>
<g id="a_Node000014"><a xlink:title=" ">
<polygon fill="#e0e0e0" stroke="#999999" points="831.5,-74 767.5,-74 767.5,-55 831.5,-55 831.5,-74"/>
<text text-anchor="middle" x="799.5" y="-62" font-family="Helvetica,sans-Serif" font-size="10.00">algorithm</text>
</a>
</g>
</g>
<!-- Node1&#45;&gt;Node14 -->
<g id="edge14_Node000001_Node000014" class="edge">
<title>Node1&#45;&gt;Node14</title>
<g id="a_edge14_Node000001_Node000014"><a xlink:title=" ">
<path fill="none" stroke="#63b8ff" d="M628.64,-109.95C670.95,-98.94 722.22,-85.61 757.49,-76.43"/>
<polygon fill="#63b8ff" stroke="#63b8ff" points="758.64,-79.75 767.44,-73.84 756.88,-72.97 758.64,-79.75"/>
</a>
</g>
</g>
<!-- Node15 -->
<g id="Node000015" class="node">
<title>Node15</title>
<g id="a_Node000015"><a xlink:title=" ">
<polygon fill="#e0e0e0" stroke="#999999" points="899.5,-74 849.5,-74 849.5,-55 899.5,-55 899.5,-74"/>
<text text-anchor="middle" x="874.5" y="-62" font-family="Helvetica,sans-Serif" font-size="10.00">cstdint</text>
</a>
</g>
</g>
<!-- Node1&#45;&gt;Node15 -->
<g id="edge20_Node000001_Node000015" class="edge">
<title>Node1&#45;&gt;Node15</title>
<g id="a_edge20_Node000001_Node000015"><a xlink:title=" ">
<path fill="none" stroke="#63b8ff" d="M643.28,-113.43C697.44,-103.42 768.05,-89.85 839.24,-74.19"/>
<polygon fill="#63b8ff" stroke="#63b8ff" points="840.28,-77.54 849.28,-71.96 838.76,-70.71 840.28,-77.54"/>
</a>
</g>
</g>
<!-- Node3 -->
<g id="Node000003" class="node">
<title>Node3</title>
<g id="a_Node000003"><a xlink:title=" ">
<polygon fill="#e0e0e0" stroke="#999999" points="400,-19 243,-19 243,0 400,0 400,-19"/>
<text text-anchor="middle" x="321.5" y="-7" font-family="Helvetica,sans-Serif" font-size="10.00">interfaces/logger_interface.h</text>
</a>
</g>
</g>
<!-- Node2&#45;&gt;Node3 -->
<g id="edge2_Node000002_Node000003" class="edge">
<title>Node2&#45;&gt;Node3</title>
<g id="a_edge2_Node000002_Node000003"><a xlink:title=" ">
<path fill="none" stroke="#63b8ff" d="M423.9,-54.98C404.18,-46.42 373.55,-33.11 350.92,-23.28"/>
<polygon fill="#63b8ff" stroke="#63b8ff" points="352.02,-19.94 341.46,-19.17 349.24,-26.37 352.02,-19.94"/>
</a>
</g>
</g>
<!-- Node2&#45;&gt;Node4 -->
<g id="edge3_Node000002_Node000004" class="edge">
<title>Node2&#45;&gt;Node4</title>
<g id="a_edge3_Node000002_Node000004"><a xlink:title=" ">
<path fill="none" stroke="#63b8ff" d="M400,-58.18C336.89,-50.38 216,-35.17 103.46,-19.25"/>
<polygon fill="#63b8ff" stroke="#63b8ff" points="103.69,-15.75 93.3,-17.81 102.71,-22.68 103.69,-15.75"/>
</a>
</g>
</g>
<!-- Node2&#45;&gt;Node5 -->
<g id="edge4_Node000002_Node000005" class="edge">
<title>Node2&#45;&gt;Node5</title>
<g id="a_edge4_Node000002_Node000005"><a xlink:title=" ">
<path fill="none" stroke="#63b8ff" d="M399.77,-57.72C347.13,-50.48 255.87,-37.04 168.09,-18.95"/>
<polygon fill="#63b8ff" stroke="#63b8ff" points="168.74,-15.51 158.23,-16.89 167.31,-22.36 168.74,-15.51"/>
</a>
</g>
</g>
<!-- Node2&#45;&gt;Node6 -->
<g id="edge5_Node000002_Node000006" class="edge">
<title>Node2&#45;&gt;Node6</title>
<g id="a_edge5_Node000002_Node000006"><a xlink:title=" ">
<path fill="none" stroke="#63b8ff" d="M400.34,-54.92C359.97,-46.77 297.73,-33.89 234.73,-19.21"/>
<polygon fill="#63b8ff" stroke="#63b8ff" points="235.16,-15.72 224.62,-16.84 233.56,-22.53 235.16,-15.72"/>
</a>
</g>
</g>
<!-- Node7 -->
<g id="Node000007" class="node">
<title>Node7</title>
<g id="a_Node000007"><a xlink:title=" ">
<polygon fill="#e0e0e0" stroke="#999999" points="468.5,-19 418.5,-19 418.5,0 468.5,0 468.5,-19"/>
<text text-anchor="middle" x="443.5" y="-7" font-family="Helvetica,sans-Serif" font-size="10.00">chrono</text>
</a>
</g>
</g>
<!-- Node2&#45;&gt;Node7 -->
<g id="edge6_Node000002_Node000007" class="edge">
<title>Node2&#45;&gt;Node7</title>
<g id="a_edge6_Node000002_Node000007"><a xlink:title=" ">
<path fill="none" stroke="#63b8ff" d="M443.5,-54.75C443.5,-47.8 443.5,-37.85 443.5,-29.13"/>
<polygon fill="#63b8ff" stroke="#63b8ff" points="447,-29.09 443.5,-19.09 440,-29.09 447,-29.09"/>
</a>
</g>
</g>
<!-- Node2&#45;&gt;Node8 -->
<g id="edge7_Node000002_Node000008" class="edge">
<title>Node2&#45;&gt;Node8</title>
<g id="a_edge7_Node000002_Node000008"><a xlink:title=" ">
<path fill="none" stroke="#63b8ff" d="M466.64,-54.98C490.32,-46.27 527.37,-32.63 554.21,-22.75"/>
<polygon fill="#63b8ff" stroke="#63b8ff" points="555.77,-25.91 563.94,-19.17 553.35,-19.34 555.77,-25.91"/>
</a>
</g>
</g>
<!-- Node9 -->
<g id="Node000009" class="node">
<title>Node9</title>
<g id="a_Node000009"><a xlink:title=" ">
<polygon fill="#e0e0e0" stroke="#999999" points="536.5,-19 486.5,-19 486.5,0 536.5,0 536.5,-19"/>
<text text-anchor="middle" x="511.5" y="-7" font-family="Helvetica,sans-Serif" font-size="10.00">atomic</text>
</a>
</g>
</g>
<!-- Node2&#45;&gt;Node9 -->
<g id="edge8_Node000002_Node000009" class="edge">
<title>Node2&#45;&gt;Node9</title>
<g id="a_edge8_Node000002_Node000009"><a xlink:title=" ">
<path fill="none" stroke="#63b8ff" d="M454.43,-54.98C464.58,-47.07 479.92,-35.11 492.15,-25.58"/>
<polygon fill="#63b8ff" stroke="#63b8ff" points="494.64,-28.08 500.38,-19.17 490.34,-22.56 494.64,-28.08"/>
</a>
</g>
</g>
<!-- Node2&#45;&gt;Node10 -->
<g id="edge9_Node000002_Node000010" class="edge">
<title>Node2&#45;&gt;Node10</title>
<g id="a_edge9_Node000002_Node000010"><a xlink:title=" ">
<path fill="none" stroke="#63b8ff" d="M480.64,-54.99C516.19,-46.76 571.57,-33.73 628.31,-19.24"/>
<polygon fill="#63b8ff" stroke="#63b8ff" points="629.36,-22.59 638.17,-16.72 627.62,-15.81 629.36,-22.59"/>
</a>
</g>
</g>
<!-- Node2&#45;&gt;Node11 -->
<g id="edge10_Node000002_Node000011" class="edge">
<title>Node2&#45;&gt;Node11</title>
<g id="a_edge10_Node000002_Node000011"><a xlink:title=" ">
<path fill="none" stroke="#63b8ff" d="M487.15,-56.68C534.8,-49.01 613.55,-35.68 690.85,-19"/>
<polygon fill="#63b8ff" stroke="#63b8ff" points="691.73,-22.39 700.76,-16.84 690.24,-15.55 691.73,-22.39"/>
</a>
</g>
</g>
</g>
</svg>
