<?xml version="1.0" encoding="UTF-8" standalone="no"?>
<!DOCTYPE svg PUBLIC "-//W3C//DTD SVG 1.1//EN"
 "http://www.w3.org/Graphics/SVG/1.1/DTD/svg11.dtd">
<!-- Generated by graphviz version 2.43.0 (0)
 -->
<!-- Title: log_analyzer.cpp Pages: 1 -->
<svg width="1000pt" height="192pt"
 viewBox="0.00 0.00 999.50 192.00" xmlns="http://www.w3.org/2000/svg" xmlns:xlink="http://www.w3.org/1999/xlink">
<g id="graph0" class="graph" transform="scale(1 1) rotate(0) translate(4 188)">
<title>log_analyzer.cpp</title>
<!-- Node1 -->
<g id="Node000001" class="node">
<title>Node1</title>
<g id="a_Node000001"><a xlink:title=" ">
<polygon fill="#999999" stroke="#666666" points="694.5,-184 596.5,-184 596.5,-165 694.5,-165 694.5,-184"/>
<text text-anchor="middle" x="645.5" y="-172" font-family="Helvetica,sans-Serif" font-size="10.00">log_analyzer.cpp</text>
</a>
</g>
</g>
<!-- Node2 -->
<g id="Node000002" class="node">
<title>Node2</title>
<g id="a_Node000002"><a xlink:href="log__analyzer_8h.html" target="_top" xlink:title=" ">
<polygon fill="white" stroke="#666666" points="466,-129 379,-129 379,-110 466,-110 466,-129"/>
<text text-anchor="middle" x="422.5" y="-117" font-family="Helvetica,sans-Serif" font-size="10.00">log_analyzer.h</text>
</a>
</g>
</g>
<!-- Node1&#45;&gt;Node2 -->
<g id="edge1_Node000001_Node000002" class="edge">
<title>Node1&#45;&gt;Node2</title>
<g id="a_edge1_Node000001_Node000002"><a xlink:title=" ">
<path fill="none" stroke="#63b8ff" d="M609.67,-164.98C571.34,-155.87 510.42,-141.4 468.55,-131.45"/>
<polygon fill="#63b8ff" stroke="#63b8ff" points="469.15,-127.99 458.61,-129.08 467.53,-134.8 469.15,-127.99"/>
</a>
</g>
</g>
<!-- Node5 -->
<g id="Node000005" class="node">
<title>Node5</title>
<g id="a_Node000005"><a xlink:title=" ">
<polygon fill="#e0e0e0" stroke="#999999" points="478.5,-19 430.5,-19 430.5,0 478.5,0 478.5,-19"/>
<text text-anchor="middle" x="454.5" y="-7" font-family="Helvetica,sans-Serif" font-size="10.00">mutex</text>
</a>
</g>
</g>
<!-- Node1&#45;&gt;Node5 -->
<g id="edge18_Node000001_Node000005" class="edge">
<title>Node1&#45;&gt;Node5</title>
<g id="a_edge18_Node000001_Node000005"><a xlink:title=" ">
<path fill="none" stroke="#63b8ff" d="M653.54,-164.74C671.97,-143.59 713.57,-88.99 685.5,-55 660.96,-25.28 547.03,-15.19 488.87,-11.95"/>
<polygon fill="#63b8ff" stroke="#63b8ff" points="488.86,-8.44 478.69,-11.42 488.49,-15.43 488.86,-8.44"/>
</a>
</g>
</g>
<!-- Node7 -->
<g id="Node000007" class="node">
<title>Node7</title>
<g id="a_Node000007"><a xlink:title=" ">
<polygon fill="#e0e0e0" stroke="#999999" points="93,-74 0,-74 0,-55 93,-55 93,-74"/>
<text text-anchor="middle" x="46.5" y="-62" font-family="Helvetica,sans-Serif" font-size="10.00">unordered_map</text>
</a>
</g>
</g>
<!-- Node1&#45;&gt;Node7 -->
<g id="edge19_Node000001_Node000007" class="edge">
<title>Node1&#45;&gt;Node7</title>
<g id="a_edge19_Node000001_Node000007"><a xlink:title=" ">
<path fill="none" stroke="#63b8ff" d="M596.24,-169.48C526.92,-163.35 396.81,-150.1 287.5,-129 214.47,-114.91 130.86,-91.11 83.8,-77"/>
<polygon fill="#63b8ff" stroke="#63b8ff" points="84.64,-73.59 74.05,-74.05 82.62,-80.29 84.64,-73.59"/>
</a>
</g>
</g>
<!-- Node8 -->
<g id="Node000008" class="node">
<title>Node8</title>
<g id="a_Node000008"><a xlink:title=" ">
<polygon fill="#e0e0e0" stroke="#999999" points="158,-74 111,-74 111,-55 158,-55 158,-74"/>
<text text-anchor="middle" x="134.5" y="-62" font-family="Helvetica,sans-Serif" font-size="10.00">deque</text>
</a>
</g>
</g>
<!-- Node1&#45;&gt;Node8 -->
<g id="edge20_Node000001_Node000008" class="edge">
<title>Node1&#45;&gt;Node8</title>
<g id="a_edge20_Node000001_Node000008"><a xlink:title=" ">
<path fill="none" stroke="#63b8ff" d="M596.35,-167.15C540.93,-159.62 448.27,-145.94 369.5,-129 296.9,-113.38 213.25,-89.29 167.92,-75.71"/>
<polygon fill="#63b8ff" stroke="#63b8ff" points="168.9,-72.35 158.32,-72.82 166.88,-79.05 168.9,-72.35"/>
</a>
</g>
</g>
<!-- Node10 -->
<g id="Node000010" class="node">
<title>Node10</title>
<g id="a_Node000010"><a xlink:title=" ">
<polygon fill="#e0e0e0" stroke="#999999" points="548,-74 483,-74 483,-55 548,-55 548,-74"/>
<text text-anchor="middle" x="515.5" y="-62" font-family="Helvetica,sans-Serif" font-size="10.00">functional</text>
</a>
</g>
</g>
<!-- Node1&#45;&gt;Node10 -->
<g id="edge22_Node000001_Node000010" class="edge">
<title>Node1&#45;&gt;Node10</title>
<g id="a_edge22_Node000001_Node000010"><a xlink:title=" ">
<path fill="none" stroke="#63b8ff" d="M634.86,-164.66C612.66,-146.22 561.17,-103.45 533.64,-80.57"/>
<polygon fill="#63b8ff" stroke="#63b8ff" points="535.85,-77.86 525.92,-74.16 531.38,-83.24 535.85,-77.86"/>
</a>
</g>
</g>
<!-- Node12 -->
<g id="Node000012" class="node">
<title>Node12</title>
<g id="a_Node000012"><a xlink:title=" ">
<polygon fill="#e0e0e0" stroke="#999999" points="610.5,-74 566.5,-74 566.5,-55 610.5,-55 610.5,-74"/>
<text text-anchor="middle" x="588.5" y="-62" font-family="Helvetica,sans-Serif" font-size="10.00">regex</text>
</a>
</g>
</g>
<!-- Node1&#45;&gt;Node12 -->
<g id="edge14_Node000001_Node000012" class="edge">
<title>Node1&#45;&gt;Node12</title>
<g id="a_edge14_Node000001_Node000012"><a xlink:title=" ">
<path fill="none" stroke="#63b8ff" d="M640.84,-164.66C631.44,-146.85 610.07,-106.37 597.74,-83.01"/>
<polygon fill="#63b8ff" stroke="#63b8ff" points="600.83,-81.37 593.07,-74.16 594.64,-84.64 600.83,-81.37"/>
</a>
</g>
</g>
<!-- Node13 -->
<g id="Node000013" class="node">
<title>Node13</title>
<g id="a_Node000013"><a xlink:title=" ">
<polygon fill="#e0e0e0" stroke="#999999" points="676,-74 629,-74 629,-55 676,-55 676,-74"/>
<text text-anchor="middle" x="652.5" y="-62" font-family="Helvetica,sans-Serif" font-size="10.00">vector</text>
</a>
</g>
</g>
<!-- Node1&#45;&gt;Node13 -->
<g id="edge21_Node000001_Node000013" class="edge">
<title>Node1&#45;&gt;Node13</title>
<g id="a_edge21_Node000001_Node000013"><a xlink:title=" ">
<path fill="none" stroke="#63b8ff" d="M646.07,-164.66C647.21,-147.17 649.76,-107.8 651.28,-84.27"/>
<polygon fill="#63b8ff" stroke="#63b8ff" points="654.78,-84.36 651.94,-74.16 647.8,-83.91 654.78,-84.36"/>
</a>
</g>
</g>
<!-- Node14 -->
<g id="Node000014" class="node">
<title>Node14</title>
<g id="a_Node000014"><a xlink:title=" ">
<polygon fill="#e0e0e0" stroke="#999999" points="767.5,-129 711.5,-129 711.5,-110 767.5,-110 767.5,-129"/>
<text text-anchor="middle" x="739.5" y="-117" font-family="Helvetica,sans-Serif" font-size="10.00">sstream</text>
</a>
</g>
</g>
<!-- Node1&#45;&gt;Node14 -->
<g id="edge15_Node000001_Node000014" class="edge">
<title>Node1&#45;&gt;Node14</title>
<g id="a_edge15_Node000001_Node000014"><a xlink:title=" ">
<path fill="none" stroke="#63b8ff" d="M660.6,-164.98C675.32,-156.69 697.92,-143.94 715.17,-134.22"/>
<polygon fill="#63b8ff" stroke="#63b8ff" points="717.13,-137.13 724.12,-129.17 713.69,-131.03 717.13,-137.13"/>
</a>
</g>
</g>
<!-- Node15 -->
<g id="Node000015" class="node">
<title>Node15</title>
<g id="a_Node000015"><a xlink:title=" ">
<polygon fill="#e0e0e0" stroke="#999999" points="841.5,-129 785.5,-129 785.5,-110 841.5,-110 841.5,-129"/>
<text text-anchor="middle" x="813.5" y="-117" font-family="Helvetica,sans-Serif" font-size="10.00">iomanip</text>
</a>
</g>
</g>
<!-- Node1&#45;&gt;Node15 -->
<g id="edge16_Node000001_Node000015" class="edge">
<title>Node1&#45;&gt;Node15</title>
<g id="a_edge16_Node000001_Node000015"><a xlink:title=" ">
<path fill="none" stroke="#63b8ff" d="M672.49,-164.98C700.7,-156.09 745.14,-142.07 776.58,-132.15"/>
<polygon fill="#63b8ff" stroke="#63b8ff" points="777.81,-135.43 786.3,-129.08 775.71,-128.75 777.81,-135.43"/>
</a>
</g>
</g>
<!-- Node16 -->
<g id="Node000016" class="node">
<title>Node16</title>
<g id="a_Node000016"><a xlink:title=" ">
<polygon fill="#e0e0e0" stroke="#999999" points="923.5,-129 859.5,-129 859.5,-110 923.5,-110 923.5,-129"/>
<text text-anchor="middle" x="891.5" y="-117" font-family="Helvetica,sans-Serif" font-size="10.00">algorithm</text>
</a>
</g>
</g>
<!-- Node1&#45;&gt;Node16 -->
<g id="edge17_Node000001_Node000016" class="edge">
<title>Node1&#45;&gt;Node16</title>
<g id="a_edge17_Node000001_Node000016"><a xlink:title=" ">
<path fill="none" stroke="#63b8ff" d="M685.02,-164.98C729.98,-155.3 803.09,-139.55 849.17,-129.62"/>
<polygon fill="#63b8ff" stroke="#63b8ff" points="850.1,-133 859.14,-127.47 848.63,-126.16 850.1,-133"/>
</a>
</g>
</g>
<!-- Node17 -->
<g id="Node000017" class="node">
<title>Node17</title>
<g id="a_Node000017"><a xlink:title=" ">
<polygon fill="#e0e0e0" stroke="#999999" points="991.5,-129 941.5,-129 941.5,-110 991.5,-110 991.5,-129"/>
<text text-anchor="middle" x="966.5" y="-117" font-family="Helvetica,sans-Serif" font-size="10.00">cstdint</text>
</a>
</g>
</g>
<!-- Node1&#45;&gt;Node17 -->
<g id="edge23_Node000001_Node000017" class="edge">
<title>Node1&#45;&gt;Node17</title>
<g id="a_edge23_Node000001_Node000017"><a xlink:title=" ">
<path fill="none" stroke="#63b8ff" d="M694.75,-167.25C750.03,-159.93 842.6,-146.75 931.35,-129.08"/>
<polygon fill="#63b8ff" stroke="#63b8ff" points="932.2,-132.48 941.31,-127.07 930.81,-125.61 932.2,-132.48"/>
</a>
</g>
</g>
<!-- Node3 -->
<g id="Node000003" class="node">
<title>Node3</title>
<g id="a_Node000003"><a xlink:href="logger__interface_8h.html" target="_top" xlink:title=" ">
<polygon fill="white" stroke="#666666" points="290.5,-74 176.5,-74 176.5,-55 290.5,-55 290.5,-74"/>
<text text-anchor="middle" x="233.5" y="-62" font-family="Helvetica,sans-Serif" font-size="10.00">../logger_interface.h</text>
</a>
</g>
</g>
<!-- Node2&#45;&gt;Node3 -->
<g id="edge2_Node000002_Node000003" class="edge">
<title>Node2&#45;&gt;Node3</title>
<g id="a_edge2_Node000002_Node000003"><a xlink:title=" ">
<path fill="none" stroke="#63b8ff" d="M392.13,-109.98C360.13,-101.01 309.54,-86.82 274.12,-76.89"/>
<polygon fill="#63b8ff" stroke="#63b8ff" points="274.68,-73.41 264.1,-74.08 272.79,-80.15 274.68,-73.41"/>
</a>
</g>
</g>
<!-- Node2&#45;&gt;Node5 -->
<g id="edge8_Node000002_Node000005" class="edge">
<title>Node2&#45;&gt;Node5</title>
<g id="a_edge8_Node000002_Node000005"><a xlink:title=" ">
<path fill="none" stroke="#63b8ff" d="M425.12,-109.66C430.32,-92.09 442.07,-52.45 449.03,-28.95"/>
<polygon fill="#63b8ff" stroke="#63b8ff" points="452.45,-29.74 451.93,-19.16 445.74,-27.75 452.45,-29.74"/>
</a>
</g>
</g>
<!-- Node2&#45;&gt;Node7 -->
<g id="edge6_Node000002_Node000007" class="edge">
<title>Node2&#45;&gt;Node7</title>
<g id="a_edge6_Node000002_Node000007"><a xlink:title=" ">
<path fill="none" stroke="#63b8ff" d="M378.86,-112.67C319,-104.62 207.81,-89.51 103.11,-74.22"/>
<polygon fill="#63b8ff" stroke="#63b8ff" points="103.4,-70.72 93,-72.74 102.39,-77.65 103.4,-70.72"/>
</a>
</g>
</g>
<!-- Node2&#45;&gt;Node8 -->
<g id="edge7_Node000002_Node000008" class="edge">
<title>Node2&#45;&gt;Node8</title>
<g id="a_edge7_Node000002_Node000008"><a xlink:title=" ">
<path fill="none" stroke="#63b8ff" d="M378.98,-111.98C330.15,-104.43 248.36,-91.07 168.48,-74.06"/>
<polygon fill="#63b8ff" stroke="#63b8ff" points="168.75,-70.54 158.24,-71.85 167.28,-77.38 168.75,-70.54"/>
</a>
</g>
</g>
<!-- Node9 -->
<g id="Node000009" class="node">
<title>Node9</title>
<g id="a_Node000009"><a xlink:title=" ">
<polygon fill="#e0e0e0" stroke="#999999" points="358.5,-74 308.5,-74 308.5,-55 358.5,-55 358.5,-74"/>
<text text-anchor="middle" x="333.5" y="-62" font-family="Helvetica,sans-Serif" font-size="10.00">chrono</text>
</a>
</g>
</g>
<!-- Node2&#45;&gt;Node9 -->
<g id="edge9_Node000002_Node000009" class="edge">
<title>Node2&#45;&gt;Node9</title>
<g id="a_edge9_Node000002_Node000009"><a xlink:title=" ">
<path fill="none" stroke="#63b8ff" d="M408.2,-109.98C394.4,-101.77 373.26,-89.18 356.99,-79.49"/>
<polygon fill="#63b8ff" stroke="#63b8ff" points="358.44,-76.28 348.06,-74.17 354.86,-82.29 358.44,-76.28"/>
</a>
</g>
</g>
<!-- Node2&#45;&gt;Node10 -->
<g id="edge10_Node000002_Node000010" class="edge">
<title>Node2&#45;&gt;Node10</title>
<g id="a_edge10_Node000002_Node000010"><a xlink:title=" ">
<path fill="none" stroke="#63b8ff" d="M437.44,-109.98C452,-101.69 474.37,-88.94 491.43,-79.22"/>
<polygon fill="#63b8ff" stroke="#63b8ff" points="493.33,-82.16 500.29,-74.17 489.86,-76.08 493.33,-82.16"/>
</a>
</g>
</g>
<!-- Node11 -->
<g id="Node000011" class="node">
<title>Node11</title>
<g id="a_Node000011"><a xlink:title=" ">
<polygon fill="#e0e0e0" stroke="#999999" points="426.5,-74 376.5,-74 376.5,-55 426.5,-55 426.5,-74"/>
<text text-anchor="middle" x="401.5" y="-62" font-family="Helvetica,sans-Serif" font-size="10.00">atomic</text>
</a>
</g>
</g>
<!-- Node2&#45;&gt;Node11 -->
<g id="edge11_Node000002_Node000011" class="edge">
<title>Node2&#45;&gt;Node11</title>
<g id="a_edge11_Node000002_Node000011"><a xlink:title=" ">
<path fill="none" stroke="#63b8ff" d="M419.03,-109.75C416.22,-102.65 412.16,-92.4 408.65,-83.56"/>
<polygon fill="#63b8ff" stroke="#63b8ff" points="411.84,-82.1 404.9,-74.09 405.33,-84.68 411.84,-82.1"/>
</a>
</g>
</g>
<!-- Node2&#45;&gt;Node12 -->
<g id="edge12_Node000002_Node000012" class="edge">
<title>Node2&#45;&gt;Node12</title>
<g id="a_edge12_Node000002_Node000012"><a xlink:title=" ">
<path fill="none" stroke="#63b8ff" d="M449.17,-109.98C478.4,-100.65 525.28,-85.68 556.48,-75.72"/>
<polygon fill="#63b8ff" stroke="#63b8ff" points="557.95,-78.93 566.41,-72.55 555.82,-72.26 557.95,-78.93"/>
</a>
</g>
</g>
<!-- Node2&#45;&gt;Node13 -->
<g id="edge13_Node000002_Node000013" class="edge">
<title>Node2&#45;&gt;Node13</title>
<g id="a_edge13_Node000002_Node000013"><a xlink:title=" ">
<path fill="none" stroke="#63b8ff" d="M461.83,-109.98C499.55,-101.73 558.36,-88.65 618.65,-74.15"/>
<polygon fill="#63b8ff" stroke="#63b8ff" points="619.83,-77.46 628.73,-71.71 618.19,-70.66 619.83,-77.46"/>
</a>
</g>
</g>
<!-- Node4 -->
<g id="Node000004" class="node">
<title>Node4</title>
<g id="a_Node000004"><a xlink:title=" ">
<polygon fill="#e0e0e0" stroke="#999999" points="227.5,-19 169.5,-19 169.5,0 227.5,0 227.5,-19"/>
<text text-anchor="middle" x="198.5" y="-7" font-family="Helvetica,sans-Serif" font-size="10.00">memory</text>
</a>
</g>
</g>
<!-- Node3&#45;&gt;Node4 -->
<g id="edge3_Node000003_Node000004" class="edge">
<title>Node3&#45;&gt;Node4</title>
<g id="a_edge3_Node000003_Node000004"><a xlink:title=" ">
<path fill="none" stroke="#63b8ff" d="M227.72,-54.75C222.88,-47.42 215.82,-36.73 209.86,-27.7"/>
<polygon fill="#63b8ff" stroke="#63b8ff" points="212.6,-25.5 204.17,-19.09 206.76,-29.36 212.6,-25.5"/>
</a>
</g>
</g>
<!-- Node3&#45;&gt;Node5 -->
<g id="edge4_Node000003_Node000005" class="edge">
<title>Node3&#45;&gt;Node5</title>
<g id="a_edge4_Node000003_Node000005"><a xlink:title=" ">
<path fill="none" stroke="#63b8ff" d="M269.01,-54.98C310.74,-44.98 379.49,-28.49 420.54,-18.64"/>
<polygon fill="#63b8ff" stroke="#63b8ff" points="421.44,-22.03 430.34,-16.29 419.8,-15.22 421.44,-22.03"/>
</a>
</g>
</g>
<!-- Node6 -->
<g id="Node000006" class="node">
<title>Node6</title>
<g id="a_Node000006"><a xlink:title=" ">
<polygon fill="#e0e0e0" stroke="#999999" points="289.5,-19 245.5,-19 245.5,0 289.5,0 289.5,-19"/>
<text text-anchor="middle" x="267.5" y="-7" font-family="Helvetica,sans-Serif" font-size="10.00">string</text>
</a>
</g>
</g>
<!-- Node3&#45;&gt;Node6 -->
<g id="edge5_Node000003_Node000006" class="edge">
<title>Node3&#45;&gt;Node6</title>
<g id="a_edge5_Node000003_Node000006"><a xlink:title=" ">
<path fill="none" stroke="#63b8ff" d="M239.11,-54.75C243.82,-47.42 250.67,-36.73 256.47,-27.7"/>
<polygon fill="#63b8ff" stroke="#63b8ff" points="259.54,-29.4 261.99,-19.09 253.64,-25.62 259.54,-29.4"/>
</a>
</g>
</g>
</g>
</svg>
