<?xml version="1.0" encoding="UTF-8" standalone="no"?>
<!DOCTYPE svg PUBLIC "-//W3C//DTD SVG 1.1//EN"
 "http://www.w3.org/Graphics/SVG/1.1/DTD/svg11.dtd">
<!-- Generated by graphviz version 2.43.0 (0)
 -->
<!-- Title: /home/runner/work/logger_system/logger_system/sources/logger/filters/log_filter.h Pages: 1 -->
<svg width="844pt" height="225pt"
 viewBox="0.00 0.00 843.50 225.00" xmlns="http://www.w3.org/2000/svg" xmlns:xlink="http://www.w3.org/1999/xlink">
<g id="graph0" class="graph" transform="scale(1 1) rotate(0) translate(4 221)">
<title>/home/runner/work/logger_system/logger_system/sources/logger/filters/log_filter.h</title>
<!-- Node1 -->
<g id="Node000001" class="node">
<title>Node1</title>
<g id="a_Node000001"><a xlink:title=" ">
<polygon fill="#999999" stroke="#666666" points="501.5,-217 328.5,-217 328.5,-176 501.5,-176 501.5,-217"/>
<text text-anchor="start" x="336.5" y="-205" font-family="Helvetica,sans-Serif" font-size="10.00">/home/runner/work/logger</text>
<text text-anchor="start" x="336.5" y="-194" font-family="Helvetica,sans-Serif" font-size="10.00">_system/logger_system/sources</text>
<text text-anchor="middle" x="415" y="-183" font-family="Helvetica,sans-Serif" font-size="10.00">/logger/filters/log_filter.h</text>
</a>
</g>
</g>
<!-- Node2 -->
<g id="Node000002" class="node">
<title>Node2</title>
<g id="a_Node000002"><a xlink:title=" ">
<polygon fill="#e0e0e0" stroke="#999999" points="333.5,-74 176.5,-74 176.5,-55 333.5,-55 333.5,-74"/>
<text text-anchor="middle" x="255" y="-62" font-family="Helvetica,sans-Serif" font-size="10.00">interfaces/logger_interface.h</text>
</a>
</g>
</g>
<!-- Node1&#45;&gt;Node2 -->
<g id="edge1_Node000001_Node000002" class="edge">
<title>Node1&#45;&gt;Node2</title>
<g id="a_edge1_Node000001_Node000002"><a xlink:title=" ">
<path fill="none" stroke="#63b8ff" d="M387.51,-175.99C373.14,-165.59 355.39,-152.4 340,-140 315.58,-120.32 288.52,-96.17 271.63,-80.81"/>
<polygon fill="#63b8ff" stroke="#63b8ff" points="273.96,-78.19 264.22,-74.03 269.24,-83.36 273.96,-78.19"/>
</a>
</g>
</g>
<!-- Node3 -->
<g id="Node000003" class="node">
<title>Node3</title>
<g id="a_Node000003"><a xlink:href="log__filter__interface_8h.html" target="_top" xlink:title=" ">
<polygon fill="white" stroke="#666666" points="120,-140 0,-140 0,-110 120,-110 120,-140"/>
<text text-anchor="start" x="8" y="-128" font-family="Helvetica,sans-Serif" font-size="10.00">../interfaces/log_filter</text>
<text text-anchor="middle" x="60" y="-117" font-family="Helvetica,sans-Serif" font-size="10.00">_interface.h</text>
</a>
</g>
</g>
<!-- Node1&#45;&gt;Node3 -->
<g id="edge2_Node000001_Node000003" class="edge">
<title>Node1&#45;&gt;Node3</title>
<g id="a_edge2_Node000001_Node000003"><a xlink:title=" ">
<path fill="none" stroke="#63b8ff" d="M328.16,-178.5C267.26,-166.58 186.89,-150.84 130.07,-139.72"/>
<polygon fill="#63b8ff" stroke="#63b8ff" points="130.59,-136.25 120.1,-137.77 129.24,-143.12 130.59,-136.25"/>
</a>
</g>
</g>
<!-- Node4 -->
<g id="Node000004" class="node">
<title>Node4</title>
<g id="a_Node000004"><a xlink:title=" ">
<polygon fill="#e0e0e0" stroke="#999999" points="287,-19 243,-19 243,0 287,0 287,-19"/>
<text text-anchor="middle" x="265" y="-7" font-family="Helvetica,sans-Serif" font-size="10.00">string</text>
</a>
</g>
</g>
<!-- Node1&#45;&gt;Node4 -->
<g id="edge16_Node000001_Node000004" class="edge">
<title>Node1&#45;&gt;Node4</title>
<g id="a_edge16_Node000001_Node000004"><a xlink:title=" ">
<path fill="none" stroke="#63b8ff" d="M328.39,-177.84C271.79,-161.32 202.08,-130.38 167,-74 148.82,-44.78 197.84,-26.39 232.93,-17.32"/>
<polygon fill="#63b8ff" stroke="#63b8ff" points="233.95,-20.67 242.84,-14.9 232.29,-13.87 233.95,-20.67"/>
</a>
</g>
</g>
<!-- Node5 -->
<g id="Node000005" class="node">
<title>Node5</title>
<g id="a_Node000005"><a xlink:href="log__entry_8h.html" target="_top" xlink:title="Data structures for representing log entries and source locations.">
<polygon fill="white" stroke="#666666" points="480.5,-134.5 349.5,-134.5 349.5,-115.5 480.5,-115.5 480.5,-134.5"/>
<text text-anchor="middle" x="415" y="-122.5" font-family="Helvetica,sans-Serif" font-size="10.00">../interfaces/log_entry.h</text>
</a>
</g>
</g>
<!-- Node1&#45;&gt;Node5 -->
<g id="edge4_Node000001_Node000005" class="edge">
<title>Node1&#45;&gt;Node5</title>
<g id="a_edge4_Node000001_Node000005"><a xlink:title=" ">
<path fill="none" stroke="#63b8ff" d="M415,-175.77C415,-166.08 415,-154.46 415,-144.88"/>
<polygon fill="#63b8ff" stroke="#63b8ff" points="418.5,-144.82 415,-134.82 411.5,-144.82 418.5,-144.82"/>
</a>
</g>
</g>
<!-- Node12 -->
<g id="Node000012" class="node">
<title>Node12</title>
<g id="a_Node000012"><a xlink:title=" ">
<polygon fill="#e0e0e0" stroke="#999999" points="747,-19 689,-19 689,0 747,0 747,-19"/>
<text text-anchor="middle" x="718" y="-7" font-family="Helvetica,sans-Serif" font-size="10.00">memory</text>
</a>
</g>
</g>
<!-- Node1&#45;&gt;Node12 -->
<g id="edge18_Node000001_Node000012" class="edge">
<title>Node1&#45;&gt;Node12</title>
<g id="a_edge18_Node000001_Node000012"><a xlink:title=" ">
<path fill="none" stroke="#63b8ff" d="M467.9,-175.95C519.79,-155.29 599.7,-119.41 660,-74 677.81,-60.59 694.57,-41.22 705.45,-27.41"/>
<polygon fill="#63b8ff" stroke="#63b8ff" points="708.4,-29.32 711.7,-19.25 702.84,-25.06 708.4,-29.32"/>
</a>
</g>
</g>
<!-- Node14 -->
<g id="Node000014" class="node">
<title>Node14</title>
<g id="a_Node000014"><a xlink:title=" ">
<polygon fill="#e0e0e0" stroke="#999999" points="752,-134.5 708,-134.5 708,-115.5 752,-115.5 752,-134.5"/>
<text text-anchor="middle" x="730" y="-122.5" font-family="Helvetica,sans-Serif" font-size="10.00">regex</text>
</a>
</g>
</g>
<!-- Node1&#45;&gt;Node14 -->
<g id="edge17_Node000001_Node000014" class="edge">
<title>Node1&#45;&gt;Node14</title>
<g id="a_edge17_Node000001_Node000014"><a xlink:title=" ">
<path fill="none" stroke="#63b8ff" d="M501.72,-182.26C557.28,-172.8 630.58,-158.48 694,-140 695.93,-139.44 697.9,-138.81 699.88,-138.15"/>
<polygon fill="#63b8ff" stroke="#63b8ff" points="701.44,-141.31 709.65,-134.62 699.06,-134.73 701.44,-141.31"/>
</a>
</g>
</g>
<!-- Node15 -->
<g id="Node000015" class="node">
<title>Node15</title>
<g id="a_Node000015"><a xlink:title=" ">
<polygon fill="#e0e0e0" stroke="#999999" points="835.5,-134.5 770.5,-134.5 770.5,-115.5 835.5,-115.5 835.5,-134.5"/>
<text text-anchor="middle" x="803" y="-122.5" font-family="Helvetica,sans-Serif" font-size="10.00">functional</text>
</a>
</g>
</g>
<!-- Node1&#45;&gt;Node15 -->
<g id="edge19_Node000001_Node000015" class="edge">
<title>Node1&#45;&gt;Node15</title>
<g id="a_edge19_Node000001_Node000015"><a xlink:title=" ">
<path fill="none" stroke="#63b8ff" d="M501.81,-185.56C572.26,-176.53 673.85,-161.37 761,-140 763.97,-139.27 767.02,-138.43 770.07,-137.54"/>
<polygon fill="#63b8ff" stroke="#63b8ff" points="771.16,-140.86 779.65,-134.53 769.06,-134.18 771.16,-140.86"/>
</a>
</g>
</g>
<!-- Node3&#45;&gt;Node4 -->
<g id="edge3_Node000003_Node000004" class="edge">
<title>Node3&#45;&gt;Node4</title>
<g id="a_edge3_Node000003_Node000004"><a xlink:title=" ">
<path fill="none" stroke="#63b8ff" d="M71.73,-109.96C85.29,-94.54 108.97,-69.97 134,-55 165.26,-36.31 205.44,-24.15 233.02,-17.34"/>
<polygon fill="#63b8ff" stroke="#63b8ff" points="234,-20.7 242.92,-14.99 232.39,-13.89 234,-20.7"/>
</a>
</g>
</g>
<!-- Node5&#45;&gt;Node2 -->
<g id="edge15_Node000005_Node000002" class="edge">
<title>Node5&#45;&gt;Node2</title>
<g id="a_edge15_Node000005_Node000002"><a xlink:title=" ">
<path fill="none" stroke="#63b8ff" d="M391.73,-115.49C364.36,-105.49 318.73,-88.8 287.78,-77.49"/>
<polygon fill="#63b8ff" stroke="#63b8ff" points="288.89,-74.16 278.29,-74.02 286.48,-80.74 288.89,-74.16"/>
</a>
</g>
</g>
<!-- Node5&#45;&gt;Node4 -->
<g id="edge5_Node000005_Node000004" class="edge">
<title>Node5&#45;&gt;Node4</title>
<g id="a_edge5_Node000005_Node000004"><a xlink:title=" ">
<path fill="none" stroke="#63b8ff" d="M407.03,-115.25C394.18,-101.43 367.73,-74.18 342,-55 326.11,-43.15 306.8,-32 291.49,-23.82"/>
<polygon fill="#63b8ff" stroke="#63b8ff" points="293.02,-20.67 282.54,-19.13 289.77,-26.88 293.02,-20.67"/>
</a>
</g>
</g>
<!-- Node6 -->
<g id="Node000006" class="node">
<title>Node6</title>
<g id="a_Node000006"><a xlink:title=" ">
<polygon fill="#e0e0e0" stroke="#999999" points="440,-74 390,-74 390,-55 440,-55 440,-74"/>
<text text-anchor="middle" x="415" y="-62" font-family="Helvetica,sans-Serif" font-size="10.00">chrono</text>
</a>
</g>
</g>
<!-- Node5&#45;&gt;Node6 -->
<g id="edge6_Node000005_Node000006" class="edge">
<title>Node5&#45;&gt;Node6</title>
<g id="a_edge6_Node000005_Node000006"><a xlink:title=" ">
<path fill="none" stroke="#63b8ff" d="M415,-115.37C415,-107.25 415,-94.81 415,-84.39"/>
<polygon fill="#63b8ff" stroke="#63b8ff" points="418.5,-84.17 415,-74.17 411.5,-84.17 418.5,-84.17"/>
</a>
</g>
</g>
<!-- Node7 -->
<g id="Node000007" class="node">
<title>Node7</title>
<g id="a_Node000007"><a xlink:title=" ">
<polygon fill="#e0e0e0" stroke="#999999" points="514,-74 458,-74 458,-55 514,-55 514,-74"/>
<text text-anchor="middle" x="486" y="-62" font-family="Helvetica,sans-Serif" font-size="10.00">optional</text>
</a>
</g>
</g>
<!-- Node5&#45;&gt;Node7 -->
<g id="edge7_Node000005_Node000007" class="edge">
<title>Node5&#45;&gt;Node7</title>
<g id="a_edge7_Node000005_Node000007"><a xlink:title=" ">
<path fill="none" stroke="#63b8ff" d="M425.48,-115.37C436.49,-106.3 454.04,-91.84 467.41,-80.82"/>
<polygon fill="#63b8ff" stroke="#63b8ff" points="469.99,-83.23 475.48,-74.17 465.54,-77.83 469.99,-83.23"/>
</a>
</g>
</g>
<!-- Node8 -->
<g id="Node000008" class="node">
<title>Node8</title>
<g id="a_Node000008"><a xlink:href="small__string_8h.html" target="_top" xlink:title=" ">
<polygon fill="white" stroke="#666666" points="651.5,-74 532.5,-74 532.5,-55 651.5,-55 651.5,-74"/>
<text text-anchor="middle" x="592" y="-62" font-family="Helvetica,sans-Serif" font-size="10.00">../core/small_string.h</text>
</a>
</g>
</g>
<!-- Node5&#45;&gt;Node8 -->
<g id="edge8_Node000005_Node000008" class="edge">
<title>Node5&#45;&gt;Node8</title>
<g id="a_edge8_Node000005_Node000008"><a xlink:title=" ">
<path fill="none" stroke="#63b8ff" d="M440.74,-115.49C471.28,-105.4 522.37,-88.51 556.62,-77.19"/>
<polygon fill="#63b8ff" stroke="#63b8ff" points="557.84,-80.48 566.23,-74.02 555.64,-73.83 557.84,-80.48"/>
</a>
</g>
</g>
<!-- Node8&#45;&gt;Node4 -->
<g id="edge10_Node000008_Node000004" class="edge">
<title>Node8&#45;&gt;Node4</title>
<g id="a_edge10_Node000008_Node000004"><a xlink:title=" ">
<path fill="none" stroke="#63b8ff" d="M539.46,-54.98C471.11,-43.91 353.77,-24.89 297.27,-15.73"/>
<polygon fill="#63b8ff" stroke="#63b8ff" points="297.56,-12.23 287.13,-14.09 296.44,-19.14 297.56,-12.23"/>
</a>
</g>
</g>
<!-- Node9 -->
<g id="Node000009" class="node">
<title>Node9</title>
<g id="a_Node000009"><a xlink:title=" ">
<polygon fill="#e0e0e0" stroke="#999999" points="579,-19 529,-19 529,0 579,0 579,-19"/>
<text text-anchor="middle" x="554" y="-7" font-family="Helvetica,sans-Serif" font-size="10.00">cstring</text>
</a>
</g>
</g>
<!-- Node8&#45;&gt;Node9 -->
<g id="edge9_Node000008_Node000009" class="edge">
<title>Node8&#45;&gt;Node9</title>
<g id="a_edge9_Node000008_Node000009"><a xlink:title=" ">
<path fill="none" stroke="#63b8ff" d="M585.73,-54.75C580.41,-47.34 572.64,-36.5 566.12,-27.41"/>
<polygon fill="#63b8ff" stroke="#63b8ff" points="568.83,-25.18 560.16,-19.09 563.14,-29.26 568.83,-25.18"/>
</a>
</g>
</g>
<!-- Node10 -->
<g id="Node000010" class="node">
<title>Node10</title>
<g id="a_Node000010"><a xlink:title=" ">
<polygon fill="#e0e0e0" stroke="#999999" points="670.5,-19 597.5,-19 597.5,0 670.5,0 670.5,-19"/>
<text text-anchor="middle" x="634" y="-7" font-family="Helvetica,sans-Serif" font-size="10.00">string_view</text>
</a>
</g>
</g>
<!-- Node8&#45;&gt;Node10 -->
<g id="edge11_Node000008_Node000010" class="edge">
<title>Node8&#45;&gt;Node10</title>
<g id="a_edge11_Node000008_Node000010"><a xlink:title=" ">
<path fill="none" stroke="#63b8ff" d="M598.94,-54.75C604.87,-47.26 613.57,-36.28 620.82,-27.13"/>
<polygon fill="#63b8ff" stroke="#63b8ff" points="623.73,-29.1 627.19,-19.09 618.24,-24.75 623.73,-29.1"/>
</a>
</g>
</g>
<!-- Node11 -->
<g id="Node000011" class="node">
<title>Node11</title>
<g id="a_Node000011"><a xlink:title=" ">
<polygon fill="#e0e0e0" stroke="#999999" points="447,-19 383,-19 383,0 447,0 447,-19"/>
<text text-anchor="middle" x="415" y="-7" font-family="Helvetica,sans-Serif" font-size="10.00">algorithm</text>
</a>
</g>
</g>
<!-- Node8&#45;&gt;Node11 -->
<g id="edge12_Node000008_Node000011" class="edge">
<title>Node8&#45;&gt;Node11</title>
<g id="a_edge12_Node000008_Node000011"><a xlink:title=" ">
<path fill="none" stroke="#63b8ff" d="M563.56,-54.98C533.72,-46.05 486.62,-31.94 453.47,-22.02"/>
<polygon fill="#63b8ff" stroke="#63b8ff" points="454.24,-18.6 443.66,-19.08 452.24,-25.3 454.24,-18.6"/>
</a>
</g>
</g>
<!-- Node8&#45;&gt;Node12 -->
<g id="edge13_Node000008_Node000012" class="edge">
<title>Node8&#45;&gt;Node12</title>
<g id="a_edge13_Node000008_Node000012"><a xlink:title=" ">
<path fill="none" stroke="#63b8ff" d="M612.24,-54.98C632.7,-46.38 664.53,-32.99 687.93,-23.15"/>
<polygon fill="#63b8ff" stroke="#63b8ff" points="689.53,-26.27 697.39,-19.17 686.81,-19.82 689.53,-26.27"/>
</a>
</g>
</g>
<!-- Node13 -->
<g id="Node000013" class="node">
<title>Node13</title>
<g id="a_Node000013"><a xlink:title=" ">
<polygon fill="#e0e0e0" stroke="#999999" points="510.5,-19 465.5,-19 465.5,0 510.5,0 510.5,-19"/>
<text text-anchor="middle" x="488" y="-7" font-family="Helvetica,sans-Serif" font-size="10.00">utility</text>
</a>
</g>
</g>
<!-- Node8&#45;&gt;Node13 -->
<g id="edge14_Node000008_Node000013" class="edge">
<title>Node8&#45;&gt;Node13</title>
<g id="a_edge14_Node000008_Node000013"><a xlink:title=" ">
<path fill="none" stroke="#63b8ff" d="M575.29,-54.98C558.79,-46.57 533.3,-33.59 514.12,-23.81"/>
<polygon fill="#63b8ff" stroke="#63b8ff" points="515.51,-20.59 505.01,-19.17 512.33,-26.83 515.51,-20.59"/>
</a>
</g>
</g>
</g>
</svg>
