<?xml version="1.0" encoding="UTF-8" standalone="no"?>
<!DOCTYPE svg PUBLIC "-//W3C//DTD SVG 1.1//EN"
 "http://www.w3.org/Graphics/SVG/1.1/DTD/svg11.dtd">
<!-- Generated by graphviz version 2.43.0 (0)
 -->
<!-- Title: log_server.cpp Pages: 1 -->
<svg width="1205pt" height="137pt"
 viewBox="0.00 0.00 1205.00 137.00" xmlns="http://www.w3.org/2000/svg" xmlns:xlink="http://www.w3.org/1999/xlink">
<g id="graph0" class="graph" transform="scale(1 1) rotate(0) translate(4 133)">
<title>log_server.cpp</title>
<!-- Node1 -->
<g id="Node000001" class="node">
<title>Node1</title>
<g id="a_Node000001"><a xlink:title=" ">
<polygon fill="#999999" stroke="#666666" points="610.5,-129 523.5,-129 523.5,-110 610.5,-110 610.5,-129"/>
<text text-anchor="middle" x="567" y="-117" font-family="Helvetica,sans-Serif" font-size="10.00">log_server.cpp</text>
</a>
</g>
</g>
<!-- Node2 -->
<g id="Node000002" class="node">
<title>Node2</title>
<g id="a_Node000002"><a xlink:href="log__server_8h.html" target="_top" xlink:title=" ">
<polygon fill="white" stroke="#666666" points="303,-74 227,-74 227,-55 303,-55 303,-74"/>
<text text-anchor="middle" x="265" y="-62" font-family="Helvetica,sans-Serif" font-size="10.00">log_server.h</text>
</a>
</g>
</g>
<!-- Node1&#45;&gt;Node2 -->
<g id="edge1_Node000001_Node000002" class="edge">
<title>Node1&#45;&gt;Node2</title>
<g id="a_edge1_Node000001_Node000002"><a xlink:title=" ">
<path fill="none" stroke="#63b8ff" d="M523.41,-110.85C467.63,-101.06 371.3,-84.16 313.33,-73.98"/>
<polygon fill="#63b8ff" stroke="#63b8ff" points="313.77,-70.51 303.32,-72.22 312.56,-77.4 313.77,-70.51"/>
</a>
</g>
</g>
<!-- Node3 -->
<g id="Node000003" class="node">
<title>Node3</title>
<g id="a_Node000003"><a xlink:title=" ">
<polygon fill="#e0e0e0" stroke="#999999" points="48,-19 0,-19 0,0 48,0 48,-19"/>
<text text-anchor="middle" x="24" y="-7" font-family="Helvetica,sans-Serif" font-size="10.00">thread</text>
</a>
</g>
</g>
<!-- Node1&#45;&gt;Node3 -->
<g id="edge18_Node000001_Node000003" class="edge">
<title>Node1&#45;&gt;Node3</title>
<g id="a_edge18_Node000001_Node000003"><a xlink:title=" ">
<path fill="none" stroke="#63b8ff" d="M523.27,-119C446.06,-118.77 281.25,-113.18 149,-74 110.47,-62.58 69.65,-39.49 45.52,-24.52"/>
<polygon fill="#63b8ff" stroke="#63b8ff" points="47.16,-21.41 36.84,-19.03 43.42,-27.33 47.16,-21.41"/>
</a>
</g>
</g>
<!-- Node4 -->
<g id="Node000004" class="node">
<title>Node4</title>
<g id="a_Node000004"><a xlink:title=" ">
<polygon fill="#e0e0e0" stroke="#999999" points="116,-19 66,-19 66,0 116,0 116,-19"/>
<text text-anchor="middle" x="91" y="-7" font-family="Helvetica,sans-Serif" font-size="10.00">atomic</text>
</a>
</g>
</g>
<!-- Node1&#45;&gt;Node4 -->
<g id="edge19_Node000001_Node000004" class="edge">
<title>Node1&#45;&gt;Node4</title>
<g id="a_edge19_Node000001_Node000004"><a xlink:title=" ">
<path fill="none" stroke="#63b8ff" d="M523.29,-115.81C437.57,-110.14 250.5,-95.67 190,-74 158.97,-62.89 127.7,-40.54 108.84,-25.54"/>
<polygon fill="#63b8ff" stroke="#63b8ff" points="110.83,-22.65 100.86,-19.05 106.41,-28.08 110.83,-22.65"/>
</a>
</g>
</g>
<!-- Node5 -->
<g id="Node000005" class="node">
<title>Node5</title>
<g id="a_Node000005"><a xlink:title=" ">
<polygon fill="#e0e0e0" stroke="#999999" points="181.5,-19 134.5,-19 134.5,0 181.5,0 181.5,-19"/>
<text text-anchor="middle" x="158" y="-7" font-family="Helvetica,sans-Serif" font-size="10.00">vector</text>
</a>
</g>
</g>
<!-- Node1&#45;&gt;Node5 -->
<g id="edge20_Node000001_Node000005" class="edge">
<title>Node1&#45;&gt;Node5</title>
<g id="a_edge20_Node000001_Node000005"><a xlink:title=" ">
<path fill="none" stroke="#63b8ff" d="M523.22,-116.58C441.78,-112.41 270.48,-100.67 218,-74 197.17,-63.41 179.69,-42.58 169.06,-27.66"/>
<polygon fill="#63b8ff" stroke="#63b8ff" points="171.88,-25.58 163.36,-19.28 166.09,-29.52 171.88,-25.58"/>
</a>
</g>
</g>
<!-- Node7 -->
<g id="Node000007" class="node">
<title>Node7</title>
<g id="a_Node000007"><a xlink:title=" ">
<polygon fill="#e0e0e0" stroke="#999999" points="409.5,-19 344.5,-19 344.5,0 409.5,0 409.5,-19"/>
<text text-anchor="middle" x="377" y="-7" font-family="Helvetica,sans-Serif" font-size="10.00">functional</text>
</a>
</g>
</g>
<!-- Node1&#45;&gt;Node7 -->
<g id="edge23_Node000001_Node000007" class="edge">
<title>Node1&#45;&gt;Node7</title>
<g id="a_edge23_Node000001_Node000007"><a xlink:title=" ">
<path fill="none" stroke="#63b8ff" d="M523.41,-115.48C489.26,-111.08 442.28,-100.31 410,-74 395.88,-62.49 387.11,-43.33 382.19,-29.07"/>
<polygon fill="#63b8ff" stroke="#63b8ff" points="385.47,-27.82 379.16,-19.32 378.79,-29.9 385.47,-27.82"/>
</a>
</g>
</g>
<!-- Node8 -->
<g id="Node000008" class="node">
<title>Node8</title>
<g id="a_Node000008"><a xlink:title=" ">
<polygon fill="#e0e0e0" stroke="#999999" points="520.5,-19 427.5,-19 427.5,0 520.5,0 520.5,-19"/>
<text text-anchor="middle" x="474" y="-7" font-family="Helvetica,sans-Serif" font-size="10.00">unordered_map</text>
</a>
</g>
</g>
<!-- Node1&#45;&gt;Node8 -->
<g id="edge24_Node000001_Node000008" class="edge">
<title>Node1&#45;&gt;Node8</title>
<g id="a_edge24_Node000001_Node000008"><a xlink:title=" ">
<path fill="none" stroke="#63b8ff" d="M523.2,-118.46C488.77,-115.83 442.77,-105.97 419,-74 405.66,-56.06 428.02,-36.83 448.11,-24.29"/>
<polygon fill="#63b8ff" stroke="#63b8ff" points="449.92,-27.29 456.76,-19.19 446.37,-21.26 449.92,-27.29"/>
</a>
</g>
</g>
<!-- Node9 -->
<g id="Node000009" class="node">
<title>Node9</title>
<g id="a_Node000009"><a xlink:title=" ">
<polygon fill="#e0e0e0" stroke="#999999" points="587,-19 539,-19 539,0 587,0 587,-19"/>
<text text-anchor="middle" x="563" y="-7" font-family="Helvetica,sans-Serif" font-size="10.00">mutex</text>
</a>
</g>
</g>
<!-- Node1&#45;&gt;Node9 -->
<g id="edge21_Node000001_Node000009" class="edge">
<title>Node1&#45;&gt;Node9</title>
<g id="a_edge21_Node000001_Node000009"><a xlink:title=" ">
<path fill="none" stroke="#63b8ff" d="M523.18,-117.49C490.85,-114.16 448.83,-103.85 427,-74 422.01,-67.18 422.04,-61.84 427,-55 433.19,-46.46 491.02,-29.67 529.25,-19.33"/>
<polygon fill="#63b8ff" stroke="#63b8ff" points="530.22,-22.69 538.98,-16.72 528.41,-15.93 530.22,-22.69"/>
</a>
</g>
</g>
<!-- Node11 -->
<g id="Node000011" class="node">
<title>Node11</title>
<g id="a_Node000011"><a xlink:title=" ">
<polygon fill="#e0e0e0" stroke="#999999" points="512.5,-74 435.5,-74 435.5,-55 512.5,-55 512.5,-74"/>
<text text-anchor="middle" x="474" y="-62" font-family="Helvetica,sans-Serif" font-size="10.00">sys/socket.h</text>
</a>
</g>
</g>
<!-- Node1&#45;&gt;Node11 -->
<g id="edge10_Node000001_Node000011" class="edge">
<title>Node1&#45;&gt;Node11</title>
<g id="a_edge10_Node000001_Node000011"><a xlink:title=" ">
<path fill="none" stroke="#63b8ff" d="M552.06,-109.98C537.5,-101.69 515.13,-88.94 498.07,-79.22"/>
<polygon fill="#63b8ff" stroke="#63b8ff" points="499.64,-76.08 489.21,-74.17 496.17,-82.16 499.64,-76.08"/>
</a>
</g>
</g>
<!-- Node12 -->
<g id="Node000012" class="node">
<title>Node12</title>
<g id="a_Node000012"><a xlink:title=" ">
<polygon fill="#e0e0e0" stroke="#999999" points="603,-74 531,-74 531,-55 603,-55 603,-74"/>
<text text-anchor="middle" x="567" y="-62" font-family="Helvetica,sans-Serif" font-size="10.00">netinet/in.h</text>
</a>
</g>
</g>
<!-- Node1&#45;&gt;Node12 -->
<g id="edge11_Node000001_Node000012" class="edge">
<title>Node1&#45;&gt;Node12</title>
<g id="a_edge11_Node000001_Node000012"><a xlink:title=" ">
<path fill="none" stroke="#63b8ff" d="M567,-109.75C567,-102.8 567,-92.85 567,-84.13"/>
<polygon fill="#63b8ff" stroke="#63b8ff" points="570.5,-84.09 567,-74.09 563.5,-84.09 570.5,-84.09"/>
</a>
</g>
</g>
<!-- Node13 -->
<g id="Node000013" class="node">
<title>Node13</title>
<g id="a_Node000013"><a xlink:title=" ">
<polygon fill="#e0e0e0" stroke="#999999" points="690.5,-74 621.5,-74 621.5,-55 690.5,-55 690.5,-74"/>
<text text-anchor="middle" x="656" y="-62" font-family="Helvetica,sans-Serif" font-size="10.00">arpa/inet.h</text>
</a>
</g>
</g>
<!-- Node1&#45;&gt;Node13 -->
<g id="edge12_Node000001_Node000013" class="edge">
<title>Node1&#45;&gt;Node13</title>
<g id="a_edge12_Node000001_Node000013"><a xlink:title=" ">
<path fill="none" stroke="#63b8ff" d="M581.3,-109.98C595.1,-101.77 616.24,-89.18 632.51,-79.49"/>
<polygon fill="#63b8ff" stroke="#63b8ff" points="634.64,-82.29 641.44,-74.17 631.06,-76.28 634.64,-82.29"/>
</a>
</g>
</g>
<!-- Node14 -->
<g id="Node000014" class="node">
<title>Node14</title>
<g id="a_Node000014"><a xlink:title=" ">
<polygon fill="#e0e0e0" stroke="#999999" points="765,-74 709,-74 709,-55 765,-55 765,-74"/>
<text text-anchor="middle" x="737" y="-62" font-family="Helvetica,sans-Serif" font-size="10.00">unistd.h</text>
</a>
</g>
</g>
<!-- Node1&#45;&gt;Node14 -->
<g id="edge13_Node000001_Node000014" class="edge">
<title>Node1&#45;&gt;Node14</title>
<g id="a_edge13_Node000001_Node000014"><a xlink:title=" ">
<path fill="none" stroke="#63b8ff" d="M594.31,-109.98C622.85,-101.09 667.83,-87.07 699.64,-77.15"/>
<polygon fill="#63b8ff" stroke="#63b8ff" points="700.97,-80.4 709.47,-74.08 698.88,-73.72 700.97,-80.4"/>
</a>
</g>
</g>
<!-- Node15 -->
<g id="Node000015" class="node">
<title>Node15</title>
<g id="a_Node000015"><a xlink:title=" ">
<polygon fill="#e0e0e0" stroke="#999999" points="833,-74 783,-74 783,-55 833,-55 833,-74"/>
<text text-anchor="middle" x="808" y="-62" font-family="Helvetica,sans-Serif" font-size="10.00">cstring</text>
</a>
</g>
</g>
<!-- Node1&#45;&gt;Node15 -->
<g id="edge14_Node000001_Node000015" class="edge">
<title>Node1&#45;&gt;Node15</title>
<g id="a_edge14_Node000001_Node000015"><a xlink:title=" ">
<path fill="none" stroke="#63b8ff" d="M608.72,-109.96C648.47,-101.72 710.22,-88.68 772.74,-74.24"/>
<polygon fill="#63b8ff" stroke="#63b8ff" points="773.82,-77.58 782.77,-71.91 772.24,-70.76 773.82,-77.58"/>
</a>
</g>
</g>
<!-- Node16 -->
<g id="Node000016" class="node">
<title>Node16</title>
<g id="a_Node000016"><a xlink:title=" ">
<polygon fill="#e0e0e0" stroke="#999999" points="911,-74 851,-74 851,-55 911,-55 911,-74"/>
<text text-anchor="middle" x="881" y="-62" font-family="Helvetica,sans-Serif" font-size="10.00">iostream</text>
</a>
</g>
</g>
<!-- Node1&#45;&gt;Node16 -->
<g id="edge15_Node000001_Node000016" class="edge">
<title>Node1&#45;&gt;Node16</title>
<g id="a_edge15_Node000001_Node000016"><a xlink:title=" ">
<path fill="none" stroke="#63b8ff" d="M610.95,-112.14C663.32,-104.39 753.72,-90.5 840.75,-74.15"/>
<polygon fill="#63b8ff" stroke="#63b8ff" points="841.62,-77.55 850.8,-72.25 840.32,-70.67 841.62,-77.55"/>
</a>
</g>
</g>
<!-- Node17 -->
<g id="Node000017" class="node">
<title>Node17</title>
<g id="a_Node000017"><a xlink:title=" ">
<polygon fill="#e0e0e0" stroke="#999999" points="985,-74 929,-74 929,-55 985,-55 985,-74"/>
<text text-anchor="middle" x="957" y="-62" font-family="Helvetica,sans-Serif" font-size="10.00">sstream</text>
</a>
</g>
</g>
<!-- Node1&#45;&gt;Node17 -->
<g id="edge16_Node000001_Node000017" class="edge">
<title>Node1&#45;&gt;Node17</title>
<g id="a_edge16_Node000001_Node000017"><a xlink:title=" ">
<path fill="none" stroke="#63b8ff" d="M610.69,-114.42C675.69,-108.03 801.9,-94.44 918.6,-74.09"/>
<polygon fill="#63b8ff" stroke="#63b8ff" points="919.54,-77.48 928.78,-72.29 918.32,-70.58 919.54,-77.48"/>
</a>
</g>
</g>
<!-- Node18 -->
<g id="Node000018" class="node">
<title>Node18</title>
<g id="a_Node000018"><a xlink:title=" ">
<polygon fill="#e0e0e0" stroke="#999999" points="1047,-74 1003,-74 1003,-55 1047,-55 1047,-74"/>
<text text-anchor="middle" x="1025" y="-62" font-family="Helvetica,sans-Serif" font-size="10.00">regex</text>
</a>
</g>
</g>
<!-- Node1&#45;&gt;Node18 -->
<g id="edge17_Node000001_Node000018" class="edge">
<title>Node1&#45;&gt;Node18</title>
<g id="a_edge17_Node000001_Node000018"><a xlink:title=" ">
<path fill="none" stroke="#63b8ff" d="M610.68,-116.31C686.61,-112 847.91,-100.58 992.79,-73.93"/>
<polygon fill="#63b8ff" stroke="#63b8ff" points="993.56,-77.35 1002.75,-72.07 992.28,-70.47 993.56,-77.35"/>
</a>
</g>
</g>
<!-- Node19 -->
<g id="Node000019" class="node">
<title>Node19</title>
<g id="a_Node000019"><a xlink:title=" ">
<polygon fill="#e0e0e0" stroke="#999999" points="1129,-74 1065,-74 1065,-55 1129,-55 1129,-74"/>
<text text-anchor="middle" x="1097" y="-62" font-family="Helvetica,sans-Serif" font-size="10.00">algorithm</text>
</a>
</g>
</g>
<!-- Node1&#45;&gt;Node19 -->
<g id="edge22_Node000001_Node000019" class="edge">
<title>Node1&#45;&gt;Node19</title>
<g id="a_edge22_Node000001_Node000019"><a xlink:title=" ">
<path fill="none" stroke="#63b8ff" d="M610.7,-116.19C694.77,-111.4 885.01,-98.79 1054.72,-74.02"/>
<polygon fill="#63b8ff" stroke="#63b8ff" points="1055.45,-77.45 1064.83,-72.53 1054.43,-70.53 1055.45,-77.45"/>
</a>
</g>
</g>
<!-- Node20 -->
<g id="Node000020" class="node">
<title>Node20</title>
<g id="a_Node000020"><a xlink:title=" ">
<polygon fill="#e0e0e0" stroke="#999999" points="1197,-74 1147,-74 1147,-55 1197,-55 1197,-74"/>
<text text-anchor="middle" x="1172" y="-62" font-family="Helvetica,sans-Serif" font-size="10.00">cstdint</text>
</a>
</g>
</g>
<!-- Node1&#45;&gt;Node20 -->
<g id="edge25_Node000001_Node000020" class="edge">
<title>Node1&#45;&gt;Node20</title>
<g id="a_edge25_Node000001_Node000020"><a xlink:title=" ">
<path fill="none" stroke="#63b8ff" d="M610.63,-117.58C705.04,-115.07 935.37,-106.05 1136.97,-73.89"/>
<polygon fill="#63b8ff" stroke="#63b8ff" points="1137.53,-77.34 1146.85,-72.29 1136.42,-70.43 1137.53,-77.34"/>
</a>
</g>
</g>
<!-- Node2&#45;&gt;Node3 -->
<g id="edge2_Node000002_Node000003" class="edge">
<title>Node2&#45;&gt;Node3</title>
<g id="a_edge2_Node000002_Node000003"><a xlink:title=" ">
<path fill="none" stroke="#63b8ff" d="M226.94,-55.85C187.19,-47.75 122.8,-34.33 58.09,-19.18"/>
<polygon fill="#63b8ff" stroke="#63b8ff" points="58.66,-15.72 48.12,-16.84 57.05,-22.53 58.66,-15.72"/>
</a>
</g>
</g>
<!-- Node2&#45;&gt;Node4 -->
<g id="edge3_Node000002_Node000004" class="edge">
<title>Node2&#45;&gt;Node4</title>
<g id="a_edge3_Node000002_Node000004"><a xlink:title=" ">
<path fill="none" stroke="#63b8ff" d="M237.04,-54.98C206.75,-45.76 158.36,-31.02 125.67,-21.06"/>
<polygon fill="#63b8ff" stroke="#63b8ff" points="126.65,-17.7 116.06,-18.13 124.61,-24.4 126.65,-17.7"/>
</a>
</g>
</g>
<!-- Node2&#45;&gt;Node5 -->
<g id="edge4_Node000002_Node000005" class="edge">
<title>Node2&#45;&gt;Node5</title>
<g id="a_edge4_Node000002_Node000005"><a xlink:title=" ">
<path fill="none" stroke="#63b8ff" d="M247.81,-54.98C230.75,-46.54 204.37,-33.47 184.6,-23.68"/>
<polygon fill="#63b8ff" stroke="#63b8ff" points="186.02,-20.47 175.5,-19.17 182.91,-26.75 186.02,-20.47"/>
</a>
</g>
</g>
<!-- Node6 -->
<g id="Node000006" class="node">
<title>Node6</title>
<g id="a_Node000006"><a xlink:title=" ">
<polygon fill="#e0e0e0" stroke="#999999" points="258,-19 200,-19 200,0 258,0 258,-19"/>
<text text-anchor="middle" x="229" y="-7" font-family="Helvetica,sans-Serif" font-size="10.00">memory</text>
</a>
</g>
</g>
<!-- Node2&#45;&gt;Node6 -->
<g id="edge5_Node000002_Node000006" class="edge">
<title>Node2&#45;&gt;Node6</title>
<g id="a_edge5_Node000002_Node000006"><a xlink:title=" ">
<path fill="none" stroke="#63b8ff" d="M259.06,-54.75C254.02,-47.34 246.66,-36.5 240.49,-27.41"/>
<polygon fill="#63b8ff" stroke="#63b8ff" points="243.35,-25.39 234.83,-19.09 237.56,-29.33 243.35,-25.39"/>
</a>
</g>
</g>
<!-- Node2&#45;&gt;Node7 -->
<g id="edge6_Node000002_Node000007" class="edge">
<title>Node2&#45;&gt;Node7</title>
<g id="a_edge6_Node000002_Node000007"><a xlink:title=" ">
<path fill="none" stroke="#63b8ff" d="M282.99,-54.98C300.93,-46.5 328.72,-33.35 349.43,-23.54"/>
<polygon fill="#63b8ff" stroke="#63b8ff" points="351.14,-26.61 358.68,-19.17 348.14,-20.28 351.14,-26.61"/>
</a>
</g>
</g>
<!-- Node2&#45;&gt;Node8 -->
<g id="edge7_Node000002_Node000008" class="edge">
<title>Node2&#45;&gt;Node8</title>
<g id="a_edge7_Node000002_Node000008"><a xlink:title=" ">
<path fill="none" stroke="#63b8ff" d="M298.58,-54.98C334.35,-45.91 391.12,-31.52 430.34,-21.57"/>
<polygon fill="#63b8ff" stroke="#63b8ff" points="431.32,-24.93 440.16,-19.08 429.6,-18.15 431.32,-24.93"/>
</a>
</g>
</g>
<!-- Node2&#45;&gt;Node9 -->
<g id="edge8_Node000002_Node000009" class="edge">
<title>Node2&#45;&gt;Node9</title>
<g id="a_edge8_Node000002_Node000009"><a xlink:title=" ">
<path fill="none" stroke="#63b8ff" d="M303.37,-58.11C353.17,-50.89 442.93,-37.08 528.98,-19.06"/>
<polygon fill="#63b8ff" stroke="#63b8ff" points="529.85,-22.46 538.91,-16.96 528.4,-15.61 529.85,-22.46"/>
</a>
</g>
</g>
<!-- Node10 -->
<g id="Node000010" class="node">
<title>Node10</title>
<g id="a_Node000010"><a xlink:title=" ">
<polygon fill="#e0e0e0" stroke="#999999" points="326,-19 276,-19 276,0 326,0 326,-19"/>
<text text-anchor="middle" x="301" y="-7" font-family="Helvetica,sans-Serif" font-size="10.00">chrono</text>
</a>
</g>
</g>
<!-- Node2&#45;&gt;Node10 -->
<g id="edge9_Node000002_Node000010" class="edge">
<title>Node2&#45;&gt;Node10</title>
<g id="a_edge9_Node000002_Node000010"><a xlink:title=" ">
<path fill="none" stroke="#63b8ff" d="M270.94,-54.75C275.98,-47.34 283.34,-36.5 289.51,-27.41"/>
<polygon fill="#63b8ff" stroke="#63b8ff" points="292.44,-29.33 295.17,-19.09 286.65,-25.39 292.44,-29.33"/>
</a>
</g>
</g>
</g>
</svg>
