<?xml version="1.0" encoding="UTF-8" standalone="no"?>
<!DOCTYPE svg PUBLIC "-//W3C//DTD SVG 1.1//EN"
 "http://www.w3.org/Graphics/SVG/1.1/DTD/svg11.dtd">
<!-- Generated by graphviz version 2.43.0 (0)
 -->
<!-- Title: log_filter.h Pages: 1 -->
<svg width="574pt" height="203pt"
 viewBox="0.00 0.00 573.50 203.00" xmlns="http://www.w3.org/2000/svg" xmlns:xlink="http://www.w3.org/1999/xlink">
<g id="graph0" class="graph" transform="scale(1 1) rotate(0) translate(4 199)">
<title>log_filter.h</title>
<!-- Node1 -->
<g id="Node000001" class="node">
<title>Node1</title>
<g id="a_Node000001"><a xlink:title=" ">
<polygon fill="#999999" stroke="#666666" points="406,-195 338,-195 338,-176 406,-176 406,-195"/>
<text text-anchor="middle" x="372" y="-183" font-family="Helvetica,sans-Serif" font-size="10.00">log_filter.h</text>
</a>
</g>
</g>
<!-- Node2 -->
<g id="Node000002" class="node">
<title>Node2</title>
<g id="a_Node000002"><a xlink:href="logger__interface_8h.html" target="_top" xlink:title=" ">
<polygon fill="white" stroke="#666666" points="164,-79.5 50,-79.5 50,-60.5 164,-60.5 164,-79.5"/>
<text text-anchor="middle" x="107" y="-67.5" font-family="Helvetica,sans-Serif" font-size="10.00">../logger_interface.h</text>
</a>
</g>
</g>
<!-- Node1&#45;&gt;Node2 -->
<g id="edge1_Node000001_Node000002" class="edge">
<title>Node1&#45;&gt;Node2</title>
<g id="a_edge1_Node000001_Node000002"><a xlink:title=" ">
<path fill="none" stroke="#63b8ff" d="M337.93,-183.22C295.86,-180.31 223.33,-170.81 170,-140 147.93,-127.25 129.21,-104.15 118.05,-88.21"/>
<polygon fill="#63b8ff" stroke="#63b8ff" points="120.87,-86.13 112.38,-79.79 115.06,-90.04 120.87,-86.13"/>
</a>
</g>
</g>
<!-- Node3 -->
<g id="Node000003" class="node">
<title>Node3</title>
<g id="a_Node000003"><a xlink:title=" ">
<polygon fill="#e0e0e0" stroke="#999999" points="58,-19 0,-19 0,0 58,0 58,-19"/>
<text text-anchor="middle" x="29" y="-7" font-family="Helvetica,sans-Serif" font-size="10.00">memory</text>
</a>
</g>
</g>
<!-- Node1&#45;&gt;Node3 -->
<g id="edge14_Node000001_Node000003" class="edge">
<title>Node1&#45;&gt;Node3</title>
<g id="a_edge14_Node000001_Node000003"><a xlink:title=" ">
<path fill="none" stroke="#63b8ff" d="M337.61,-181.18C291.87,-176.02 208.98,-164.06 142,-140 93.9,-122.72 70.53,-126.72 41,-85 29.55,-68.82 27.44,-45.75 27.63,-29.58"/>
<polygon fill="#63b8ff" stroke="#63b8ff" points="31.15,-29.36 28.08,-19.22 24.15,-29.06 31.15,-29.36"/>
</a>
</g>
</g>
<!-- Node5 -->
<g id="Node000005" class="node">
<title>Node5</title>
<g id="a_Node000005"><a xlink:title=" ">
<polygon fill="#e0e0e0" stroke="#999999" points="304,-19 260,-19 260,0 304,0 304,-19"/>
<text text-anchor="middle" x="282" y="-7" font-family="Helvetica,sans-Serif" font-size="10.00">string</text>
</a>
</g>
</g>
<!-- Node1&#45;&gt;Node5 -->
<g id="edge12_Node000001_Node000005" class="edge">
<title>Node1&#45;&gt;Node5</title>
<g id="a_edge12_Node000001_Node000005"><a xlink:title=" ">
<path fill="none" stroke="#63b8ff" d="M373.07,-175.77C375.33,-153.58 378.46,-94.01 353,-55 343.61,-40.61 327.77,-30.03 313.43,-22.8"/>
<polygon fill="#63b8ff" stroke="#63b8ff" points="314.84,-19.6 304.3,-18.53 311.88,-25.94 314.84,-19.6"/>
</a>
</g>
</g>
<!-- Node6 -->
<g id="Node000006" class="node">
<title>Node6</title>
<g id="a_Node000006"><a xlink:href="log__filter__interface_8h.html" target="_top" xlink:title=" ">
<polygon fill="white" stroke="#666666" points="520,-85 400,-85 400,-55 520,-55 520,-85"/>
<text text-anchor="start" x="408" y="-73" font-family="Helvetica,sans-Serif" font-size="10.00">../interfaces/log_filter</text>
<text text-anchor="middle" x="460" y="-62" font-family="Helvetica,sans-Serif" font-size="10.00">_interface.h</text>
</a>
</g>
</g>
<!-- Node1&#45;&gt;Node6 -->
<g id="edge5_Node000001_Node000006" class="edge">
<title>Node1&#45;&gt;Node6</title>
<g id="a_edge5_Node000001_Node000006"><a xlink:title=" ">
<path fill="none" stroke="#63b8ff" d="M378.61,-175.97C392.12,-158.55 423.23,-118.42 442.84,-93.13"/>
<polygon fill="#63b8ff" stroke="#63b8ff" points="445.64,-95.23 449,-85.18 440.11,-90.94 445.64,-95.23"/>
</a>
</g>
</g>
<!-- Node7 -->
<g id="Node000007" class="node">
<title>Node7</title>
<g id="a_Node000007"><a xlink:href="log__entry_8h.html" target="_top" xlink:title=" ">
<polygon fill="white" stroke="#666666" points="310.5,-140 179.5,-140 179.5,-121 310.5,-121 310.5,-140"/>
<text text-anchor="middle" x="245" y="-128" font-family="Helvetica,sans-Serif" font-size="10.00">../interfaces/log_entry.h</text>
</a>
</g>
</g>
<!-- Node1&#45;&gt;Node7 -->
<g id="edge7_Node000001_Node000007" class="edge">
<title>Node1&#45;&gt;Node7</title>
<g id="a_edge7_Node000001_Node000007"><a xlink:title=" ">
<path fill="none" stroke="#63b8ff" d="M351.6,-175.98C330.98,-167.38 298.89,-153.99 275.31,-144.15"/>
<polygon fill="#63b8ff" stroke="#63b8ff" points="276.35,-140.79 265.78,-140.17 273.66,-147.25 276.35,-140.79"/>
</a>
</g>
</g>
<!-- Node10 -->
<g id="Node000010" class="node">
<title>Node10</title>
<g id="a_Node000010"><a xlink:title=" ">
<polygon fill="#e0e0e0" stroke="#999999" points="482,-140 438,-140 438,-121 482,-121 482,-140"/>
<text text-anchor="middle" x="460" y="-128" font-family="Helvetica,sans-Serif" font-size="10.00">regex</text>
</a>
</g>
</g>
<!-- Node1&#45;&gt;Node10 -->
<g id="edge13_Node000001_Node000010" class="edge">
<title>Node1&#45;&gt;Node10</title>
<g id="a_edge13_Node000001_Node000010"><a xlink:title=" ">
<path fill="none" stroke="#63b8ff" d="M386.14,-175.98C399.79,-167.77 420.69,-155.18 436.78,-145.49"/>
<polygon fill="#63b8ff" stroke="#63b8ff" points="438.84,-148.33 445.6,-140.17 435.23,-142.33 438.84,-148.33"/>
</a>
</g>
</g>
<!-- Node11 -->
<g id="Node000011" class="node">
<title>Node11</title>
<g id="a_Node000011"><a xlink:title=" ">
<polygon fill="#e0e0e0" stroke="#999999" points="565.5,-140 500.5,-140 500.5,-121 565.5,-121 565.5,-140"/>
<text text-anchor="middle" x="533" y="-128" font-family="Helvetica,sans-Serif" font-size="10.00">functional</text>
</a>
</g>
</g>
<!-- Node1&#45;&gt;Node11 -->
<g id="edge15_Node000001_Node000011" class="edge">
<title>Node1&#45;&gt;Node11</title>
<g id="a_edge15_Node000001_Node000011"><a xlink:title=" ">
<path fill="none" stroke="#63b8ff" d="M397.87,-175.98C424.78,-167.13 467.12,-153.19 497.23,-143.28"/>
<polygon fill="#63b8ff" stroke="#63b8ff" points="498.53,-146.53 506.93,-140.08 496.34,-139.88 498.53,-146.53"/>
</a>
</g>
</g>
<!-- Node2&#45;&gt;Node3 -->
<g id="edge2_Node000002_Node000003" class="edge">
<title>Node2&#45;&gt;Node3</title>
<g id="a_edge2_Node000002_Node000003"><a xlink:title=" ">
<path fill="none" stroke="#63b8ff" d="M95.49,-60.37C83.16,-51.12 63.38,-36.28 48.59,-25.19"/>
<polygon fill="#63b8ff" stroke="#63b8ff" points="50.66,-22.37 40.56,-19.17 46.46,-27.97 50.66,-22.37"/>
</a>
</g>
</g>
<!-- Node4 -->
<g id="Node000004" class="node">
<title>Node4</title>
<g id="a_Node000004"><a xlink:title=" ">
<polygon fill="#e0e0e0" stroke="#999999" points="131,-19 83,-19 83,0 131,0 131,-19"/>
<text text-anchor="middle" x="107" y="-7" font-family="Helvetica,sans-Serif" font-size="10.00">mutex</text>
</a>
</g>
</g>
<!-- Node2&#45;&gt;Node4 -->
<g id="edge3_Node000002_Node000004" class="edge">
<title>Node2&#45;&gt;Node4</title>
<g id="a_edge3_Node000002_Node000004"><a xlink:title=" ">
<path fill="none" stroke="#63b8ff" d="M107,-60.37C107,-52.25 107,-39.81 107,-29.39"/>
<polygon fill="#63b8ff" stroke="#63b8ff" points="110.5,-29.17 107,-19.17 103.5,-29.17 110.5,-29.17"/>
</a>
</g>
</g>
<!-- Node2&#45;&gt;Node5 -->
<g id="edge4_Node000002_Node000005" class="edge">
<title>Node2&#45;&gt;Node5</title>
<g id="a_edge4_Node000002_Node000005"><a xlink:title=" ">
<path fill="none" stroke="#63b8ff" d="M132.45,-60.49C163.55,-50.1 216.19,-32.5 250,-21.2"/>
<polygon fill="#63b8ff" stroke="#63b8ff" points="251.47,-24.39 259.85,-17.9 249.25,-17.76 251.47,-24.39"/>
</a>
</g>
</g>
<!-- Node6&#45;&gt;Node5 -->
<g id="edge6_Node000006_Node000005" class="edge">
<title>Node6&#45;&gt;Node5</title>
<g id="a_edge6_Node000006_Node000005"><a xlink:title=" ">
<path fill="none" stroke="#63b8ff" d="M417.36,-54.99C385.53,-44.53 342.72,-30.46 313.83,-20.96"/>
<polygon fill="#63b8ff" stroke="#63b8ff" points="314.83,-17.61 304.24,-17.81 312.65,-24.26 314.83,-17.61"/>
</a>
</g>
</g>
<!-- Node7&#45;&gt;Node2 -->
<g id="edge11_Node000007_Node000002" class="edge">
<title>Node7&#45;&gt;Node2</title>
<g id="a_edge11_Node000007_Node000002"><a xlink:title=" ">
<path fill="none" stroke="#63b8ff" d="M224.93,-120.99C201.63,-111.12 162.99,-94.73 136.32,-83.43"/>
<polygon fill="#63b8ff" stroke="#63b8ff" points="137.66,-80.2 127.09,-79.52 134.93,-86.64 137.66,-80.2"/>
</a>
</g>
</g>
<!-- Node7&#45;&gt;Node5 -->
<g id="edge8_Node000007_Node000005" class="edge">
<title>Node7&#45;&gt;Node5</title>
<g id="a_edge8_Node000007_Node000005"><a xlink:title=" ">
<path fill="none" stroke="#63b8ff" d="M235.44,-120.57C221.44,-106.36 198.33,-77.89 211,-55 219.49,-39.65 235.74,-28.89 250.55,-21.8"/>
<polygon fill="#63b8ff" stroke="#63b8ff" points="252.23,-24.88 259.98,-17.66 249.41,-18.47 252.23,-24.88"/>
</a>
</g>
</g>
<!-- Node8 -->
<g id="Node000008" class="node">
<title>Node8</title>
<g id="a_Node000008"><a xlink:title=" ">
<polygon fill="#e0e0e0" stroke="#999999" points="270,-79.5 220,-79.5 220,-60.5 270,-60.5 270,-79.5"/>
<text text-anchor="middle" x="245" y="-67.5" font-family="Helvetica,sans-Serif" font-size="10.00">chrono</text>
</a>
</g>
</g>
<!-- Node7&#45;&gt;Node8 -->
<g id="edge9_Node000007_Node000008" class="edge">
<title>Node7&#45;&gt;Node8</title>
<g id="a_edge9_Node000007_Node000008"><a xlink:title=" ">
<path fill="none" stroke="#63b8ff" d="M245,-120.87C245,-112.75 245,-100.31 245,-89.89"/>
<polygon fill="#63b8ff" stroke="#63b8ff" points="248.5,-89.67 245,-79.67 241.5,-89.67 248.5,-89.67"/>
</a>
</g>
</g>
<!-- Node9 -->
<g id="Node000009" class="node">
<title>Node9</title>
<g id="a_Node000009"><a xlink:title=" ">
<polygon fill="#e0e0e0" stroke="#999999" points="344,-79.5 288,-79.5 288,-60.5 344,-60.5 344,-79.5"/>
<text text-anchor="middle" x="316" y="-67.5" font-family="Helvetica,sans-Serif" font-size="10.00">optional</text>
</a>
</g>
</g>
<!-- Node7&#45;&gt;Node9 -->
<g id="edge10_Node000007_Node000009" class="edge">
<title>Node7&#45;&gt;Node9</title>
<g id="a_edge10_Node000007_Node000009"><a xlink:title=" ">
<path fill="none" stroke="#63b8ff" d="M255.48,-120.87C266.49,-111.8 284.04,-97.34 297.41,-86.32"/>
<polygon fill="#63b8ff" stroke="#63b8ff" points="299.99,-88.73 305.48,-79.67 295.54,-83.33 299.99,-88.73"/>
</a>
</g>
</g>
</g>
</svg>
