<?xml version="1.0" encoding="UTF-8" standalone="no"?>
<!DOCTYPE svg PUBLIC "-//W3C//DTD SVG 1.1//EN"
 "http://www.w3.org/Graphics/SVG/1.1/DTD/svg11.dtd">
<!-- Generated by graphviz version 2.43.0 (0)
 -->
<!-- Title: log_collector.cpp Pages: 1 -->
<svg width="753pt" height="258pt"
 viewBox="0.00 0.00 752.64 258.00" xmlns="http://www.w3.org/2000/svg" xmlns:xlink="http://www.w3.org/1999/xlink">
<g id="graph0" class="graph" transform="scale(1 1) rotate(0) translate(4 254)">
<title>log_collector.cpp</title>
<!-- Node1 -->
<g id="Node000001" class="node">
<title>Node1</title>
<g id="a_Node000001"><a xlink:title=" ">
<polygon fill="#999999" stroke="#666666" points="493.14,-250 395.14,-250 395.14,-231 493.14,-231 493.14,-250"/>
<text text-anchor="middle" x="444.14" y="-238" font-family="Helvetica,sans-Serif" font-size="10.00">log_collector.cpp</text>
</a>
</g>
</g>
<!-- Node2 -->
<g id="Node000002" class="node">
<title>Node2</title>
<g id="a_Node000002"><a xlink:href="log__collector_8h.html" target="_top" xlink:title=" ">
<polygon fill="white" stroke="#666666" points="195.64,-134.5 108.64,-134.5 108.64,-115.5 195.64,-115.5 195.64,-134.5"/>
<text text-anchor="middle" x="152.14" y="-122.5" font-family="Helvetica,sans-Serif" font-size="10.00">log_collector.h</text>
</a>
</g>
</g>
<!-- Node1&#45;&gt;Node2 -->
<g id="edge1_Node000001_Node000002" class="edge">
<title>Node1&#45;&gt;Node2</title>
<g id="a_edge1_Node000001_Node000002"><a xlink:title=" ">
<path fill="none" stroke="#63b8ff" d="M395.12,-239.57C345.33,-237.58 267.59,-228.65 210.14,-195 189.12,-182.69 172.21,-159.83 162.19,-143.81"/>
<polygon fill="#63b8ff" stroke="#63b8ff" points="164.99,-141.67 156.87,-134.87 158.98,-145.25 164.99,-141.67"/>
</a>
</g>
</g>
<!-- Node5 -->
<g id="Node000005" class="node">
<title>Node5</title>
<g id="a_Node000005"><a xlink:title=" ">
<polygon fill="#e0e0e0" stroke="#999999" points="290.14,-19 242.14,-19 242.14,0 290.14,0 290.14,-19"/>
<text text-anchor="middle" x="266.14" y="-7" font-family="Helvetica,sans-Serif" font-size="10.00">mutex</text>
</a>
</g>
</g>
<!-- Node1&#45;&gt;Node5 -->
<g id="edge30_Node000001_Node000005" class="edge">
<title>Node1&#45;&gt;Node5</title>
<g id="a_edge30_Node000001_Node000005"><a xlink:title=" ">
<path fill="none" stroke="#63b8ff" d="M423.66,-230.96C379.49,-211.19 276.59,-157.5 243.14,-74 236.89,-58.41 244.84,-40.39 253.05,-27.53"/>
<polygon fill="#63b8ff" stroke="#63b8ff" points="256.01,-29.4 258.87,-19.2 250.27,-25.39 256.01,-29.4"/>
</a>
</g>
</g>
<!-- Node11 -->
<g id="Node000011" class="node">
<title>Node11</title>
<g id="a_Node000011"><a xlink:href="base__writer_8h.html" target="_top" xlink:title=" ">
<polygon fill="white" stroke="#666666" points="554.14,-195 426.14,-195 426.14,-176 554.14,-176 554.14,-195"/>
<text text-anchor="middle" x="490.14" y="-183" font-family="Helvetica,sans-Serif" font-size="10.00">../writers/base_writer.h</text>
</a>
</g>
</g>
<!-- Node1&#45;&gt;Node11 -->
<g id="edge11_Node000001_Node000011" class="edge">
<title>Node1&#45;&gt;Node11</title>
<g id="a_edge11_Node000001_Node000011"><a xlink:title=" ">
<path fill="none" stroke="#63b8ff" d="M451.73,-230.75C458.3,-223.18 467.96,-212.05 475.95,-202.84"/>
<polygon fill="#63b8ff" stroke="#63b8ff" points="478.77,-204.94 482.68,-195.09 473.49,-200.35 478.77,-204.94"/>
</a>
</g>
</g>
<!-- Node16 -->
<g id="Node000016" class="node">
<title>Node16</title>
<g id="a_Node000016"><a xlink:href="log__entry_8h.html" target="_top" xlink:title=" ">
<polygon fill="white" stroke="#666666" points="463.64,-134.5 332.64,-134.5 332.64,-115.5 463.64,-115.5 463.64,-134.5"/>
<text text-anchor="middle" x="398.14" y="-122.5" font-family="Helvetica,sans-Serif" font-size="10.00">../interfaces/log_entry.h</text>
</a>
</g>
</g>
<!-- Node1&#45;&gt;Node16 -->
<g id="edge28_Node000001_Node000016" class="edge">
<title>Node1&#45;&gt;Node16</title>
<g id="a_edge28_Node000001_Node000016"><a xlink:title=" ">
<path fill="none" stroke="#63b8ff" d="M437.78,-230.69C431.75,-221.99 422.79,-208.11 417.14,-195 410.07,-178.61 404.96,-158.9 401.82,-144.75"/>
<polygon fill="#63b8ff" stroke="#63b8ff" points="405.21,-143.83 399.74,-134.76 398.36,-145.26 405.21,-143.83"/>
</a>
</g>
</g>
<!-- Node17 -->
<g id="Node000017" class="node">
<title>Node17</title>
<g id="a_Node000017"><a xlink:title=" ">
<polygon fill="#e0e0e0" stroke="#999999" points="619.64,-195 572.64,-195 572.64,-176 619.64,-176 619.64,-195"/>
<text text-anchor="middle" x="596.14" y="-183" font-family="Helvetica,sans-Serif" font-size="10.00">queue</text>
</a>
</g>
</g>
<!-- Node1&#45;&gt;Node17 -->
<g id="edge29_Node000001_Node000017" class="edge">
<title>Node1&#45;&gt;Node17</title>
<g id="a_edge29_Node000001_Node000017"><a xlink:title=" ">
<path fill="none" stroke="#63b8ff" d="M468.56,-230.98C494.08,-222.09 534.3,-208.06 562.75,-198.14"/>
<polygon fill="#63b8ff" stroke="#63b8ff" points="563.99,-201.42 572.28,-194.82 561.68,-194.81 563.99,-201.42"/>
</a>
</g>
</g>
<!-- Node18 -->
<g id="Node000018" class="node">
<title>Node18</title>
<g id="a_Node000018"><a xlink:title=" ">
<polygon fill="#e0e0e0" stroke="#999999" points="744.64,-195 637.64,-195 637.64,-176 744.64,-176 744.64,-195"/>
<text text-anchor="middle" x="691.14" y="-183" font-family="Helvetica,sans-Serif" font-size="10.00">condition_variable</text>
</a>
</g>
</g>
<!-- Node1&#45;&gt;Node18 -->
<g id="edge31_Node000001_Node000018" class="edge">
<title>Node1&#45;&gt;Node18</title>
<g id="a_edge31_Node000001_Node000018"><a xlink:title=" ">
<path fill="none" stroke="#63b8ff" d="M483.82,-230.98C526.64,-221.8 594.9,-207.15 641.3,-197.19"/>
<polygon fill="#63b8ff" stroke="#63b8ff" points="642.1,-200.6 651.14,-195.08 640.63,-193.76 642.1,-200.6"/>
</a>
</g>
</g>
<!-- Node3 -->
<g id="Node000003" class="node">
<title>Node3</title>
<g id="a_Node000003"><a xlink:href="logger__interface_8h.html" target="_top" xlink:title=" ">
<polygon fill="white" stroke="#666666" points="366.14,-74 252.14,-74 252.14,-55 366.14,-55 366.14,-74"/>
<text text-anchor="middle" x="309.14" y="-62" font-family="Helvetica,sans-Serif" font-size="10.00">../logger_interface.h</text>
</a>
</g>
</g>
<!-- Node2&#45;&gt;Node3 -->
<g id="edge2_Node000002_Node000003" class="edge">
<title>Node2&#45;&gt;Node3</title>
<g id="a_edge2_Node000002_Node000003"><a xlink:title=" ">
<path fill="none" stroke="#63b8ff" d="M174.97,-115.49C201.71,-105.53 246.21,-88.95 276.57,-77.63"/>
<polygon fill="#63b8ff" stroke="#63b8ff" points="278.13,-80.79 286.28,-74.02 275.69,-74.23 278.13,-80.79"/>
</a>
</g>
</g>
<!-- Node4 -->
<g id="Node000004" class="node">
<title>Node4</title>
<g id="a_Node000004"><a xlink:title=" ">
<polygon fill="#e0e0e0" stroke="#999999" points="141.14,-19 83.14,-19 83.14,0 141.14,0 141.14,-19"/>
<text text-anchor="middle" x="112.14" y="-7" font-family="Helvetica,sans-Serif" font-size="10.00">memory</text>
</a>
</g>
</g>
<!-- Node2&#45;&gt;Node4 -->
<g id="edge6_Node000002_Node000004" class="edge">
<title>Node2&#45;&gt;Node4</title>
<g id="a_edge6_Node000002_Node000004"><a xlink:title=" ">
<path fill="none" stroke="#63b8ff" d="M108.47,-122.17C74.18,-118.16 28.45,-106.55 5.14,-74 -15.59,-45.06 34.7,-27.07 73.17,-17.92"/>
<polygon fill="#63b8ff" stroke="#63b8ff" points="74.15,-21.29 83.14,-15.68 72.61,-14.46 74.15,-21.29"/>
</a>
</g>
</g>
<!-- Node7 -->
<g id="Node000007" class="node">
<title>Node7</title>
<g id="a_Node000007"><a xlink:title=" ">
<polygon fill="#e0e0e0" stroke="#999999" points="61.64,-74 14.64,-74 14.64,-55 61.64,-55 61.64,-74"/>
<text text-anchor="middle" x="38.14" y="-62" font-family="Helvetica,sans-Serif" font-size="10.00">vector</text>
</a>
</g>
</g>
<!-- Node2&#45;&gt;Node7 -->
<g id="edge7_Node000002_Node000007" class="edge">
<title>Node2&#45;&gt;Node7</title>
<g id="a_edge7_Node000002_Node000007"><a xlink:title=" ">
<path fill="none" stroke="#63b8ff" d="M135.32,-115.37C116.54,-105.73 85.93,-90.03 64.09,-78.81"/>
<polygon fill="#63b8ff" stroke="#63b8ff" points="65.52,-75.62 55.03,-74.17 62.33,-81.85 65.52,-75.62"/>
</a>
</g>
</g>
<!-- Node8 -->
<g id="Node000008" class="node">
<title>Node8</title>
<g id="a_Node000008"><a xlink:title=" ">
<polygon fill="#e0e0e0" stroke="#999999" points="128.14,-74 80.14,-74 80.14,-55 128.14,-55 128.14,-74"/>
<text text-anchor="middle" x="104.14" y="-62" font-family="Helvetica,sans-Serif" font-size="10.00">thread</text>
</a>
</g>
</g>
<!-- Node2&#45;&gt;Node8 -->
<g id="edge8_Node000002_Node000008" class="edge">
<title>Node2&#45;&gt;Node8</title>
<g id="a_edge8_Node000002_Node000008"><a xlink:title=" ">
<path fill="none" stroke="#63b8ff" d="M145.06,-115.37C137.89,-106.64 126.65,-92.93 117.75,-82.09"/>
<polygon fill="#63b8ff" stroke="#63b8ff" points="120.3,-79.68 111.25,-74.17 114.89,-84.12 120.3,-79.68"/>
</a>
</g>
</g>
<!-- Node9 -->
<g id="Node000009" class="node">
<title>Node9</title>
<g id="a_Node000009"><a xlink:title=" ">
<polygon fill="#e0e0e0" stroke="#999999" points="196.14,-74 146.14,-74 146.14,-55 196.14,-55 196.14,-74"/>
<text text-anchor="middle" x="171.14" y="-62" font-family="Helvetica,sans-Serif" font-size="10.00">atomic</text>
</a>
</g>
</g>
<!-- Node2&#45;&gt;Node9 -->
<g id="edge9_Node000002_Node000009" class="edge">
<title>Node2&#45;&gt;Node9</title>
<g id="a_edge9_Node000002_Node000009"><a xlink:title=" ">
<path fill="none" stroke="#63b8ff" d="M154.94,-115.37C157.64,-107.07 161.79,-94.28 165.22,-83.72"/>
<polygon fill="#63b8ff" stroke="#63b8ff" points="168.56,-84.76 168.32,-74.17 161.91,-82.6 168.56,-84.76"/>
</a>
</g>
</g>
<!-- Node10 -->
<g id="Node000010" class="node">
<title>Node10</title>
<g id="a_Node000010"><a xlink:title=" ">
<polygon fill="#e0e0e0" stroke="#999999" points="510.14,-74 460.14,-74 460.14,-55 510.14,-55 510.14,-74"/>
<text text-anchor="middle" x="485.14" y="-62" font-family="Helvetica,sans-Serif" font-size="10.00">chrono</text>
</a>
</g>
</g>
<!-- Node2&#45;&gt;Node10 -->
<g id="edge10_Node000002_Node000010" class="edge">
<title>Node2&#45;&gt;Node10</title>
<g id="a_edge10_Node000002_Node000010"><a xlink:title=" ">
<path fill="none" stroke="#63b8ff" d="M195.67,-116.35C262.33,-104.64 388.41,-82.49 449.79,-71.71"/>
<polygon fill="#63b8ff" stroke="#63b8ff" points="450.52,-75.13 459.77,-69.96 449.31,-68.24 450.52,-75.13"/>
</a>
</g>
</g>
<!-- Node3&#45;&gt;Node4 -->
<g id="edge3_Node000003_Node000004" class="edge">
<title>Node3&#45;&gt;Node4</title>
<g id="a_edge3_Node000003_Node000004"><a xlink:title=" ">
<path fill="none" stroke="#63b8ff" d="M277.49,-54.98C243.09,-45.73 188.1,-30.94 151.08,-20.98"/>
<polygon fill="#63b8ff" stroke="#63b8ff" points="151.71,-17.52 141.14,-18.3 149.89,-24.28 151.71,-17.52"/>
</a>
</g>
</g>
<!-- Node3&#45;&gt;Node5 -->
<g id="edge4_Node000003_Node000005" class="edge">
<title>Node3&#45;&gt;Node5</title>
<g id="a_edge4_Node000003_Node000005"><a xlink:title=" ">
<path fill="none" stroke="#63b8ff" d="M302.04,-54.75C295.96,-47.26 287.05,-36.28 279.63,-27.13"/>
<polygon fill="#63b8ff" stroke="#63b8ff" points="282.12,-24.65 273.11,-19.09 276.69,-29.06 282.12,-24.65"/>
</a>
</g>
</g>
<!-- Node6 -->
<g id="Node000006" class="node">
<title>Node6</title>
<g id="a_Node000006"><a xlink:title=" ">
<polygon fill="#e0e0e0" stroke="#999999" points="546.14,-19 502.14,-19 502.14,0 546.14,0 546.14,-19"/>
<text text-anchor="middle" x="524.14" y="-7" font-family="Helvetica,sans-Serif" font-size="10.00">string</text>
</a>
</g>
</g>
<!-- Node3&#45;&gt;Node6 -->
<g id="edge5_Node000003_Node000006" class="edge">
<title>Node3&#45;&gt;Node6</title>
<g id="a_edge5_Node000003_Node000006"><a xlink:title=" ">
<path fill="none" stroke="#63b8ff" d="M343.68,-54.98C384.63,-44.89 452.32,-28.2 492.13,-18.39"/>
<polygon fill="#63b8ff" stroke="#63b8ff" points="492.98,-21.79 501.85,-15.99 491.31,-14.99 492.98,-21.79"/>
</a>
</g>
</g>
<!-- Node11&#45;&gt;Node3 -->
<g id="edge14_Node000011_Node000003" class="edge">
<title>Node11&#45;&gt;Node3</title>
<g id="a_edge14_Node000011_Node000003"><a xlink:title=" ">
<path fill="none" stroke="#63b8ff" d="M425.92,-183.04C391.13,-178.8 350.07,-167.63 324.14,-140 310.2,-125.15 307.62,-101.12 307.76,-84.38"/>
<polygon fill="#63b8ff" stroke="#63b8ff" points="311.27,-84.3 308.19,-74.16 304.28,-84 311.27,-84.3"/>
</a>
</g>
</g>
<!-- Node11&#45;&gt;Node6 -->
<g id="edge12_Node000011_Node000006" class="edge">
<title>Node11&#45;&gt;Node6</title>
<g id="a_edge12_Node000011_Node000006"><a xlink:title=" ">
<path fill="none" stroke="#63b8ff" d="M493.01,-175.74C498.96,-157.19 512.62,-112.52 519.14,-74 521.65,-59.14 522.91,-42.11 523.53,-29.42"/>
<polygon fill="#63b8ff" stroke="#63b8ff" points="527.04,-29.32 523.94,-19.19 520.04,-29.04 527.04,-29.32"/>
</a>
</g>
</g>
<!-- Node11&#45;&gt;Node10 -->
<g id="edge13_Node000011_Node000010" class="edge">
<title>Node11&#45;&gt;Node10</title>
<g id="a_edge13_Node000011_Node000010"><a xlink:title=" ">
<path fill="none" stroke="#63b8ff" d="M489.78,-175.94C488.98,-156.91 487.04,-110.69 485.94,-84.47"/>
<polygon fill="#63b8ff" stroke="#63b8ff" points="489.42,-84.15 485.51,-74.3 482.43,-84.44 489.42,-84.15"/>
</a>
</g>
</g>
<!-- Node12 -->
<g id="Node000012" class="node">
<title>Node12</title>
<g id="a_Node000012"><a xlink:href="error__codes_8h.html" target="_top" xlink:title=" ">
<polygon fill="white" stroke="#666666" points="696.14,-74 604.14,-74 604.14,-55 696.14,-55 696.14,-74"/>
<text text-anchor="middle" x="650.14" y="-62" font-family="Helvetica,sans-Serif" font-size="10.00">../error_codes.h</text>
</a>
</g>
</g>
<!-- Node11&#45;&gt;Node12 -->
<g id="edge15_Node000011_Node000012" class="edge">
<title>Node11&#45;&gt;Node12</title>
<g id="a_edge15_Node000011_Node000012"><a xlink:title=" ">
<path fill="none" stroke="#63b8ff" d="M545.58,-175.98C602.42,-166.68 683.82,-151.58 693.14,-140 708.32,-121.13 687.01,-96.27 669.35,-80.59"/>
<polygon fill="#63b8ff" stroke="#63b8ff" points="671.54,-77.85 661.64,-74.08 667.03,-83.2 671.54,-77.85"/>
</a>
</g>
</g>
<!-- Node15 -->
<g id="Node000015" class="node">
<title>Node15</title>
<g id="a_Node000015"><a xlink:href="log__writer__interface_8h.html" target="_top" xlink:title=" ">
<polygon fill="white" stroke="#666666" points="684.14,-140 558.14,-140 558.14,-110 684.14,-110 684.14,-140"/>
<text text-anchor="start" x="566.14" y="-128" font-family="Helvetica,sans-Serif" font-size="10.00">../interfaces/log_writer</text>
<text text-anchor="middle" x="621.14" y="-117" font-family="Helvetica,sans-Serif" font-size="10.00">_interface.h</text>
</a>
</g>
</g>
<!-- Node11&#45;&gt;Node15 -->
<g id="edge19_Node000011_Node000015" class="edge">
<title>Node11&#45;&gt;Node15</title>
<g id="a_edge19_Node000011_Node000015"><a xlink:title=" ">
<path fill="none" stroke="#63b8ff" d="M509.19,-175.99C527.79,-167.68 556.7,-154.78 580.48,-144.16"/>
<polygon fill="#63b8ff" stroke="#63b8ff" points="581.94,-147.34 589.64,-140.06 579.09,-140.95 581.94,-147.34"/>
</a>
</g>
</g>
<!-- Node11&#45;&gt;Node16 -->
<g id="edge23_Node000011_Node000016" class="edge">
<title>Node11&#45;&gt;Node16</title>
<g id="a_edge23_Node000011_Node000016"><a xlink:title=" ">
<path fill="none" stroke="#63b8ff" d="M476.56,-175.87C461.75,-166.45 437.81,-151.23 420.27,-140.08"/>
<polygon fill="#63b8ff" stroke="#63b8ff" points="422.09,-137.08 411.77,-134.67 418.33,-142.99 422.09,-137.08"/>
</a>
</g>
</g>
<!-- Node12&#45;&gt;Node6 -->
<g id="edge16_Node000012_Node000006" class="edge">
<title>Node12&#45;&gt;Node6</title>
<g id="a_edge16_Node000012_Node000006"><a xlink:title=" ">
<path fill="none" stroke="#63b8ff" d="M629.89,-54.98C609.44,-46.38 577.61,-32.99 554.21,-23.15"/>
<polygon fill="#63b8ff" stroke="#63b8ff" points="555.33,-19.82 544.75,-19.17 552.61,-26.27 555.33,-19.82"/>
</a>
</g>
</g>
<!-- Node13 -->
<g id="Node000013" class="node">
<title>Node13</title>
<g id="a_Node000013"><a xlink:title=" ">
<polygon fill="#e0e0e0" stroke="#999999" points="620.14,-19 564.14,-19 564.14,0 620.14,0 620.14,-19"/>
<text text-anchor="middle" x="592.14" y="-7" font-family="Helvetica,sans-Serif" font-size="10.00">optional</text>
</a>
</g>
</g>
<!-- Node12&#45;&gt;Node13 -->
<g id="edge17_Node000012_Node000013" class="edge">
<title>Node12&#45;&gt;Node13</title>
<g id="a_edge17_Node000012_Node000013"><a xlink:title=" ">
<path fill="none" stroke="#63b8ff" d="M640.82,-54.98C632.33,-47.23 619.58,-35.58 609.26,-26.14"/>
<polygon fill="#63b8ff" stroke="#63b8ff" points="611.37,-23.33 601.63,-19.17 606.65,-28.5 611.37,-23.33"/>
</a>
</g>
</g>
<!-- Node14 -->
<g id="Node000014" class="node">
<title>Node14</title>
<g id="a_Node000014"><a xlink:title=" ">
<polygon fill="#e0e0e0" stroke="#999999" points="689.64,-19 638.64,-19 638.64,0 689.64,0 689.64,-19"/>
<text text-anchor="middle" x="664.14" y="-7" font-family="Helvetica,sans-Serif" font-size="10.00">variant</text>
</a>
</g>
</g>
<!-- Node12&#45;&gt;Node14 -->
<g id="edge18_Node000012_Node000014" class="edge">
<title>Node12&#45;&gt;Node14</title>
<g id="a_edge18_Node000012_Node000014"><a xlink:title=" ">
<path fill="none" stroke="#63b8ff" d="M652.45,-54.75C654.3,-47.72 656.97,-37.62 659.29,-28.84"/>
<polygon fill="#63b8ff" stroke="#63b8ff" points="662.7,-29.65 661.87,-19.09 655.93,-27.86 662.7,-29.65"/>
</a>
</g>
</g>
<!-- Node15&#45;&gt;Node6 -->
<g id="edge20_Node000015_Node000006" class="edge">
<title>Node15&#45;&gt;Node6</title>
<g id="a_edge20_Node000015_Node000006"><a xlink:title=" ">
<path fill="none" stroke="#63b8ff" d="M608.85,-109.63C590.85,-88.56 557.38,-49.4 538.35,-27.13"/>
<polygon fill="#63b8ff" stroke="#63b8ff" points="540.76,-24.56 531.6,-19.23 535.43,-29.11 540.76,-24.56"/>
</a>
</g>
</g>
<!-- Node15&#45;&gt;Node10 -->
<g id="edge21_Node000015_Node000010" class="edge">
<title>Node15&#45;&gt;Node10</title>
<g id="a_edge21_Node000015_Node000010"><a xlink:title=" ">
<path fill="none" stroke="#63b8ff" d="M588.56,-109.99C566.07,-100.31 536.41,-87.56 514.63,-78.18"/>
<polygon fill="#63b8ff" stroke="#63b8ff" points="515.79,-74.88 505.22,-74.14 513.03,-81.31 515.79,-74.88"/>
</a>
</g>
</g>
<!-- Node15&#45;&gt;Node12 -->
<g id="edge22_Node000015_Node000012" class="edge">
<title>Node15&#45;&gt;Node12</title>
<g id="a_edge22_Node000015_Node000012"><a xlink:title=" ">
<path fill="none" stroke="#63b8ff" d="M628.16,-109.84C632.11,-101.87 637.08,-91.84 641.3,-83.33"/>
<polygon fill="#63b8ff" stroke="#63b8ff" points="644.49,-84.78 645.79,-74.27 638.22,-81.67 644.49,-84.78"/>
</a>
</g>
</g>
<!-- Node16&#45;&gt;Node3 -->
<g id="edge27_Node000016_Node000003" class="edge">
<title>Node16&#45;&gt;Node3</title>
<g id="a_edge27_Node000016_Node000003"><a xlink:title=" ">
<path fill="none" stroke="#63b8ff" d="M385.01,-115.37C370.81,-106.04 347.94,-91.01 331.02,-79.88"/>
<polygon fill="#63b8ff" stroke="#63b8ff" points="332.6,-76.74 322.32,-74.17 328.76,-82.58 332.6,-76.74"/>
</a>
</g>
</g>
<!-- Node16&#45;&gt;Node6 -->
<g id="edge24_Node000016_Node000006" class="edge">
<title>Node16&#45;&gt;Node6</title>
<g id="a_edge24_Node000016_Node000006"><a xlink:title=" ">
<path fill="none" stroke="#63b8ff" d="M398.35,-115.23C399.14,-100.9 402.71,-72.32 418.14,-55 437.22,-33.58 468.29,-22.18 491.87,-16.31"/>
<polygon fill="#63b8ff" stroke="#63b8ff" points="492.81,-19.69 501.78,-14.05 491.25,-12.86 492.81,-19.69"/>
</a>
</g>
</g>
<!-- Node16&#45;&gt;Node10 -->
<g id="edge25_Node000016_Node000010" class="edge">
<title>Node16&#45;&gt;Node10</title>
<g id="a_edge25_Node000016_Node000010"><a xlink:title=" ">
<path fill="none" stroke="#63b8ff" d="M410.98,-115.37C424.85,-106.04 447.21,-91.01 463.75,-79.88"/>
<polygon fill="#63b8ff" stroke="#63b8ff" points="465.9,-82.65 472.25,-74.17 462,-76.84 465.9,-82.65"/>
</a>
</g>
</g>
<!-- Node16&#45;&gt;Node13 -->
<g id="edge26_Node000016_Node000013" class="edge">
<title>Node16&#45;&gt;Node13</title>
<g id="a_edge26_Node000016_Node000013"><a xlink:title=" ">
<path fill="none" stroke="#63b8ff" d="M402.45,-115.43C410.2,-100.86 427.87,-71.29 451.14,-55 467.84,-43.31 518.09,-29 553.83,-19.82"/>
<polygon fill="#63b8ff" stroke="#63b8ff" points="555.11,-23.1 563.94,-17.25 553.39,-16.32 555.11,-23.1"/>
</a>
</g>
</g>
</g>
</svg>
