<?xml version="1.0" encoding="UTF-8" standalone="no"?>
<!DOCTYPE svg PUBLIC "-//W3C//DTD SVG 1.1//EN"
 "http://www.w3.org/Graphics/SVG/1.1/DTD/svg11.dtd">
<!-- Generated by graphviz version 2.43.0 (0)
 -->
<!-- Title: log_sanitizer.h Pages: 1 -->
<svg width="871pt" height="258pt"
 viewBox="0.00 0.00 870.50 258.00" xmlns="http://www.w3.org/2000/svg" xmlns:xlink="http://www.w3.org/1999/xlink">
<g id="graph0" class="graph" transform="scale(1 1) rotate(0) translate(4 254)">
<title>log_sanitizer.h</title>
<!-- Node1 -->
<g id="Node000001" class="node">
<title>Node1</title>
<g id="a_Node000001"><a xlink:title=" ">
<polygon fill="#999999" stroke="#666666" points="765.5,-250 678.5,-250 678.5,-231 765.5,-231 765.5,-250"/>
<text text-anchor="middle" x="722" y="-238" font-family="Helvetica,sans-Serif" font-size="10.00">log_sanitizer.h</text>
</a>
</g>
</g>
<!-- Node2 -->
<g id="Node000002" class="node">
<title>Node2</title>
<g id="a_Node000002"><a xlink:href="log__filter_8h.html" target="_top" xlink:title=" ">
<polygon fill="white" stroke="#666666" points="646.5,-195 539.5,-195 539.5,-176 646.5,-176 646.5,-195"/>
<text text-anchor="middle" x="593" y="-183" font-family="Helvetica,sans-Serif" font-size="10.00">../filters/log_filter.h</text>
</a>
</g>
</g>
<!-- Node1&#45;&gt;Node2 -->
<g id="edge1_Node000001_Node000002" class="edge">
<title>Node1&#45;&gt;Node2</title>
<g id="a_edge1_Node000001_Node000002"><a xlink:title=" ">
<path fill="none" stroke="#63b8ff" d="M701.27,-230.98C680.24,-222.34 647.45,-208.87 623.46,-199.02"/>
<polygon fill="#63b8ff" stroke="#63b8ff" points="624.68,-195.73 614.1,-195.17 622.02,-202.21 624.68,-195.73"/>
</a>
</g>
</g>
<!-- Node16 -->
<g id="Node000016" class="node">
<title>Node16</title>
<g id="a_Node000016"><a xlink:title=" ">
<polygon fill="#e0e0e0" stroke="#999999" points="725,-134.5 681,-134.5 681,-115.5 725,-115.5 725,-134.5"/>
<text text-anchor="middle" x="703" y="-122.5" font-family="Helvetica,sans-Serif" font-size="10.00">regex</text>
</a>
</g>
</g>
<!-- Node1&#45;&gt;Node16 -->
<g id="edge24_Node000001_Node000016" class="edge">
<title>Node1&#45;&gt;Node16</title>
<g id="a_edge24_Node000001_Node000016"><a xlink:title=" ">
<path fill="none" stroke="#63b8ff" d="M720.57,-230.97C717.52,-212.73 710.29,-169.57 706.12,-144.64"/>
<polygon fill="#63b8ff" stroke="#63b8ff" points="709.55,-143.91 704.44,-134.63 702.64,-145.07 709.55,-143.91"/>
</a>
</g>
</g>
<!-- Node17 -->
<g id="Node000017" class="node">
<title>Node17</title>
<g id="a_Node000017"><a xlink:title=" ">
<polygon fill="#e0e0e0" stroke="#999999" points="808.5,-134.5 743.5,-134.5 743.5,-115.5 808.5,-115.5 808.5,-134.5"/>
<text text-anchor="middle" x="776" y="-122.5" font-family="Helvetica,sans-Serif" font-size="10.00">functional</text>
</a>
</g>
</g>
<!-- Node1&#45;&gt;Node17 -->
<g id="edge26_Node000001_Node000017" class="edge">
<title>Node1&#45;&gt;Node17</title>
<g id="a_edge26_Node000001_Node000017"><a xlink:title=" ">
<path fill="none" stroke="#63b8ff" d="M726.06,-230.97C734.82,-212.56 755.64,-168.79 767.45,-143.98"/>
<polygon fill="#63b8ff" stroke="#63b8ff" points="770.76,-145.16 771.89,-134.63 764.44,-142.16 770.76,-145.16"/>
</a>
</g>
</g>
<!-- Node18 -->
<g id="Node000018" class="node">
<title>Node18</title>
<g id="a_Node000018"><a xlink:title=" ">
<polygon fill="#e0e0e0" stroke="#999999" points="862.5,-195 769.5,-195 769.5,-176 862.5,-176 862.5,-195"/>
<text text-anchor="middle" x="816" y="-183" font-family="Helvetica,sans-Serif" font-size="10.00">unordered_map</text>
</a>
</g>
</g>
<!-- Node1&#45;&gt;Node18 -->
<g id="edge25_Node000001_Node000018" class="edge">
<title>Node1&#45;&gt;Node18</title>
<g id="a_edge25_Node000001_Node000018"><a xlink:title=" ">
<path fill="none" stroke="#63b8ff" d="M737.1,-230.98C751.82,-222.69 774.42,-209.94 791.67,-200.22"/>
<polygon fill="#63b8ff" stroke="#63b8ff" points="793.63,-203.13 800.62,-195.17 790.19,-197.03 793.63,-203.13"/>
</a>
</g>
</g>
<!-- Node3 -->
<g id="Node000003" class="node">
<title>Node3</title>
<g id="a_Node000003"><a xlink:href="logger__interface_8h.html" target="_top" xlink:title=" ">
<polygon fill="white" stroke="#666666" points="543,-74 429,-74 429,-55 543,-55 543,-74"/>
<text text-anchor="middle" x="486" y="-62" font-family="Helvetica,sans-Serif" font-size="10.00">../logger_interface.h</text>
</a>
</g>
</g>
<!-- Node2&#45;&gt;Node3 -->
<g id="edge2_Node000002_Node000003" class="edge">
<title>Node2&#45;&gt;Node3</title>
<g id="a_edge2_Node000002_Node000003"><a xlink:title=" ">
<path fill="none" stroke="#63b8ff" d="M553.13,-175.94C532.85,-169.49 509.67,-158.47 496,-140 484.26,-124.13 482.9,-101 483.76,-84.73"/>
<polygon fill="#63b8ff" stroke="#63b8ff" points="487.28,-84.57 484.65,-74.3 480.31,-83.97 487.28,-84.57"/>
</a>
</g>
</g>
<!-- Node4 -->
<g id="Node000004" class="node">
<title>Node4</title>
<g id="a_Node000004"><a xlink:title=" ">
<polygon fill="#e0e0e0" stroke="#999999" points="364,-19 306,-19 306,0 364,0 364,-19"/>
<text text-anchor="middle" x="335" y="-7" font-family="Helvetica,sans-Serif" font-size="10.00">memory</text>
</a>
</g>
</g>
<!-- Node2&#45;&gt;Node4 -->
<g id="edge22_Node000002_Node000004" class="edge">
<title>Node2&#45;&gt;Node4</title>
<g id="a_edge22_Node000002_Node000004"><a xlink:title=" ">
<path fill="none" stroke="#63b8ff" d="M539.33,-182.11C467.07,-177.91 343.44,-166.92 308,-140 276.1,-115.77 260.43,-91 278,-55 284.3,-42.09 296.35,-31.83 307.76,-24.43"/>
<polygon fill="#63b8ff" stroke="#63b8ff" points="309.86,-27.25 316.65,-19.12 306.27,-21.25 309.86,-27.25"/>
</a>
</g>
</g>
<!-- Node6 -->
<g id="Node000006" class="node">
<title>Node6</title>
<g id="a_Node000006"><a xlink:title=" ">
<polygon fill="#e0e0e0" stroke="#999999" points="593,-19 549,-19 549,0 593,0 593,-19"/>
<text text-anchor="middle" x="571" y="-7" font-family="Helvetica,sans-Serif" font-size="10.00">string</text>
</a>
</g>
</g>
<!-- Node2&#45;&gt;Node6 -->
<g id="edge20_Node000002_Node000006" class="edge">
<title>Node2&#45;&gt;Node6</title>
<g id="a_edge20_Node000002_Node000006"><a xlink:title=" ">
<path fill="none" stroke="#63b8ff" d="M604.93,-175.8C614.83,-167.77 628.19,-154.87 634,-140 638.85,-127.58 637.64,-122.83 634,-110 624.79,-77.57 601.31,-45.64 585.76,-27.02"/>
<polygon fill="#63b8ff" stroke="#63b8ff" points="588.23,-24.52 579.06,-19.22 582.92,-29.09 588.23,-24.52"/>
</a>
</g>
</g>
<!-- Node7 -->
<g id="Node000007" class="node">
<title>Node7</title>
<g id="a_Node000007"><a xlink:href="log__filter__interface_8h.html" target="_top" xlink:title=" ">
<polygon fill="white" stroke="#666666" points="625,-140 505,-140 505,-110 625,-110 625,-140"/>
<text text-anchor="start" x="513" y="-128" font-family="Helvetica,sans-Serif" font-size="10.00">../interfaces/log_filter</text>
<text text-anchor="middle" x="565" y="-117" font-family="Helvetica,sans-Serif" font-size="10.00">_interface.h</text>
</a>
</g>
</g>
<!-- Node2&#45;&gt;Node7 -->
<g id="edge6_Node000002_Node000007" class="edge">
<title>Node2&#45;&gt;Node7</title>
<g id="a_edge6_Node000002_Node000007"><a xlink:title=" ">
<path fill="none" stroke="#63b8ff" d="M588.87,-175.87C585.53,-168.89 580.66,-158.71 576.19,-149.38"/>
<polygon fill="#63b8ff" stroke="#63b8ff" points="579.23,-147.62 571.76,-140.11 572.92,-150.65 579.23,-147.62"/>
</a>
</g>
</g>
<!-- Node8 -->
<g id="Node000008" class="node">
<title>Node8</title>
<g id="a_Node000008"><a xlink:href="log__entry_8h.html" target="_top" xlink:title=" ">
<polygon fill="white" stroke="#666666" points="448.5,-134.5 317.5,-134.5 317.5,-115.5 448.5,-115.5 448.5,-134.5"/>
<text text-anchor="middle" x="383" y="-122.5" font-family="Helvetica,sans-Serif" font-size="10.00">../interfaces/log_entry.h</text>
</a>
</g>
</g>
<!-- Node2&#45;&gt;Node8 -->
<g id="edge8_Node000002_Node000008" class="edge">
<title>Node2&#45;&gt;Node8</title>
<g id="a_edge8_Node000002_Node000008"><a xlink:title=" ">
<path fill="none" stroke="#63b8ff" d="M562.46,-175.99C525.76,-165.77 464.05,-148.58 423.42,-137.26"/>
<polygon fill="#63b8ff" stroke="#63b8ff" points="424.15,-133.83 413.57,-134.52 422.27,-140.57 424.15,-133.83"/>
</a>
</g>
</g>
<!-- Node2&#45;&gt;Node16 -->
<g id="edge21_Node000002_Node000016" class="edge">
<title>Node2&#45;&gt;Node16</title>
<g id="a_edge21_Node000002_Node000016"><a xlink:title=" ">
<path fill="none" stroke="#63b8ff" d="M609.23,-175.87C627.27,-166.28 656.62,-150.67 677.68,-139.47"/>
<polygon fill="#63b8ff" stroke="#63b8ff" points="679.52,-142.45 686.7,-134.67 676.23,-136.27 679.52,-142.45"/>
</a>
</g>
</g>
<!-- Node2&#45;&gt;Node17 -->
<g id="edge23_Node000002_Node000017" class="edge">
<title>Node2&#45;&gt;Node17</title>
<g id="a_edge23_Node000002_Node000017"><a xlink:title=" ">
<path fill="none" stroke="#63b8ff" d="M620.6,-175.93C649.06,-167.07 694.69,-152.75 734,-140 736.28,-139.26 738.63,-138.49 741,-137.71"/>
<polygon fill="#63b8ff" stroke="#63b8ff" points="742.31,-140.97 750.7,-134.51 740.11,-134.32 742.31,-140.97"/>
</a>
</g>
</g>
<!-- Node3&#45;&gt;Node4 -->
<g id="edge3_Node000003_Node000004" class="edge">
<title>Node3&#45;&gt;Node4</title>
<g id="a_edge3_Node000003_Node000004"><a xlink:title=" ">
<path fill="none" stroke="#63b8ff" d="M461.74,-54.98C436.68,-46.19 397.37,-32.39 369.17,-22.49"/>
<polygon fill="#63b8ff" stroke="#63b8ff" points="370.3,-19.18 359.7,-19.17 367.98,-25.78 370.3,-19.18"/>
</a>
</g>
</g>
<!-- Node5 -->
<g id="Node000005" class="node">
<title>Node5</title>
<g id="a_Node000005"><a xlink:title=" ">
<polygon fill="#e0e0e0" stroke="#999999" points="510,-19 462,-19 462,0 510,0 510,-19"/>
<text text-anchor="middle" x="486" y="-7" font-family="Helvetica,sans-Serif" font-size="10.00">mutex</text>
</a>
</g>
</g>
<!-- Node3&#45;&gt;Node5 -->
<g id="edge4_Node000003_Node000005" class="edge">
<title>Node3&#45;&gt;Node5</title>
<g id="a_edge4_Node000003_Node000005"><a xlink:title=" ">
<path fill="none" stroke="#63b8ff" d="M486,-54.75C486,-47.8 486,-37.85 486,-29.13"/>
<polygon fill="#63b8ff" stroke="#63b8ff" points="489.5,-29.09 486,-19.09 482.5,-29.09 489.5,-29.09"/>
</a>
</g>
</g>
<!-- Node3&#45;&gt;Node6 -->
<g id="edge5_Node000003_Node000006" class="edge">
<title>Node3&#45;&gt;Node6</title>
<g id="a_edge5_Node000003_Node000006"><a xlink:title=" ">
<path fill="none" stroke="#63b8ff" d="M499.66,-54.98C512.84,-46.77 533.03,-34.18 548.57,-24.49"/>
<polygon fill="#63b8ff" stroke="#63b8ff" points="550.46,-27.43 557.09,-19.17 546.76,-21.49 550.46,-27.43"/>
</a>
</g>
</g>
<!-- Node7&#45;&gt;Node6 -->
<g id="edge7_Node000007_Node000006" class="edge">
<title>Node7&#45;&gt;Node6</title>
<g id="a_edge7_Node000007_Node000006"><a xlink:title=" ">
<path fill="none" stroke="#63b8ff" d="M572.28,-110C576.94,-100.21 582.56,-86.67 585,-74 587.97,-58.58 583.58,-41.18 578.95,-28.49"/>
<polygon fill="#63b8ff" stroke="#63b8ff" points="582.15,-27.06 575.17,-19.1 575.66,-29.68 582.15,-27.06"/>
</a>
</g>
</g>
<!-- Node8&#45;&gt;Node3 -->
<g id="edge19_Node000008_Node000003" class="edge">
<title>Node8&#45;&gt;Node3</title>
<g id="a_edge19_Node000008_Node000003"><a xlink:title=" ">
<path fill="none" stroke="#63b8ff" d="M398.2,-115.37C415.01,-105.82 442.32,-90.31 462.02,-79.12"/>
<polygon fill="#63b8ff" stroke="#63b8ff" points="463.77,-82.15 470.74,-74.17 460.32,-76.06 463.77,-82.15"/>
</a>
</g>
</g>
<!-- Node8&#45;&gt;Node6 -->
<g id="edge9_Node000008_Node000006" class="edge">
<title>Node8&#45;&gt;Node6</title>
<g id="a_edge9_Node000008_Node000006"><a xlink:title=" ">
<path fill="none" stroke="#63b8ff" d="M448.77,-119.4C483.66,-113.66 524.81,-101.11 552,-74 563.83,-62.2 568.35,-43.36 570.05,-29.26"/>
<polygon fill="#63b8ff" stroke="#63b8ff" points="573.55,-29.45 570.89,-19.2 566.57,-28.87 573.55,-29.45"/>
</a>
</g>
</g>
<!-- Node9 -->
<g id="Node000009" class="node">
<title>Node9</title>
<g id="a_Node000009"><a xlink:title=" ">
<polygon fill="#e0e0e0" stroke="#999999" points="337,-74 287,-74 287,-55 337,-55 337,-74"/>
<text text-anchor="middle" x="312" y="-62" font-family="Helvetica,sans-Serif" font-size="10.00">chrono</text>
</a>
</g>
</g>
<!-- Node8&#45;&gt;Node9 -->
<g id="edge10_Node000008_Node000009" class="edge">
<title>Node8&#45;&gt;Node9</title>
<g id="a_edge10_Node000008_Node000009"><a xlink:title=" ">
<path fill="none" stroke="#63b8ff" d="M372.52,-115.37C361.51,-106.3 343.96,-91.84 330.59,-80.82"/>
<polygon fill="#63b8ff" stroke="#63b8ff" points="332.46,-77.83 322.52,-74.17 328.01,-83.23 332.46,-77.83"/>
</a>
</g>
</g>
<!-- Node10 -->
<g id="Node000010" class="node">
<title>Node10</title>
<g id="a_Node000010"><a xlink:title=" ">
<polygon fill="#e0e0e0" stroke="#999999" points="411,-74 355,-74 355,-55 411,-55 411,-74"/>
<text text-anchor="middle" x="383" y="-62" font-family="Helvetica,sans-Serif" font-size="10.00">optional</text>
</a>
</g>
</g>
<!-- Node8&#45;&gt;Node10 -->
<g id="edge11_Node000008_Node000010" class="edge">
<title>Node8&#45;&gt;Node10</title>
<g id="a_edge11_Node000008_Node000010"><a xlink:title=" ">
<path fill="none" stroke="#63b8ff" d="M383,-115.37C383,-107.25 383,-94.81 383,-84.39"/>
<polygon fill="#63b8ff" stroke="#63b8ff" points="386.5,-84.17 383,-74.17 379.5,-84.17 386.5,-84.17"/>
</a>
</g>
</g>
<!-- Node11 -->
<g id="Node000011" class="node">
<title>Node11</title>
<g id="a_Node000011"><a xlink:href="small__string_8h.html" target="_top" xlink:title=" ">
<polygon fill="white" stroke="#666666" points="230.5,-74 111.5,-74 111.5,-55 230.5,-55 230.5,-74"/>
<text text-anchor="middle" x="171" y="-62" font-family="Helvetica,sans-Serif" font-size="10.00">../core/small_string.h</text>
</a>
</g>
</g>
<!-- Node8&#45;&gt;Node11 -->
<g id="edge12_Node000008_Node000011" class="edge">
<title>Node8&#45;&gt;Node11</title>
<g id="a_edge12_Node000008_Node000011"><a xlink:title=" ">
<path fill="none" stroke="#63b8ff" d="M352.17,-115.49C315.04,-105.25 252.55,-88 211.54,-76.69"/>
<polygon fill="#63b8ff" stroke="#63b8ff" points="212.43,-73.3 201.86,-74.02 210.57,-80.05 212.43,-73.3"/>
</a>
</g>
</g>
<!-- Node11&#45;&gt;Node4 -->
<g id="edge17_Node000011_Node000004" class="edge">
<title>Node11&#45;&gt;Node4</title>
<g id="a_edge17_Node000011_Node000004"><a xlink:title=" ">
<path fill="none" stroke="#63b8ff" d="M197.35,-54.98C224.76,-46.13 267.89,-32.19 298.56,-22.28"/>
<polygon fill="#63b8ff" stroke="#63b8ff" points="300,-25.49 308.44,-19.08 297.85,-18.83 300,-25.49"/>
</a>
</g>
</g>
<!-- Node11&#45;&gt;Node6 -->
<g id="edge14_Node000011_Node000006" class="edge">
<title>Node11&#45;&gt;Node6</title>
<g id="a_edge14_Node000011_Node000006"><a xlink:title=" ">
<path fill="none" stroke="#63b8ff" d="M230.51,-56.53C299.87,-48.26 417.89,-33.72 519,-19 525.42,-18.07 532.26,-17 538.82,-15.94"/>
<polygon fill="#63b8ff" stroke="#63b8ff" points="539.46,-19.38 548.76,-14.31 538.32,-12.47 539.46,-19.38"/>
</a>
</g>
</g>
<!-- Node12 -->
<g id="Node000012" class="node">
<title>Node12</title>
<g id="a_Node000012"><a xlink:title=" ">
<polygon fill="#e0e0e0" stroke="#999999" points="196,-19 146,-19 146,0 196,0 196,-19"/>
<text text-anchor="middle" x="171" y="-7" font-family="Helvetica,sans-Serif" font-size="10.00">cstring</text>
</a>
</g>
</g>
<!-- Node11&#45;&gt;Node12 -->
<g id="edge13_Node000011_Node000012" class="edge">
<title>Node11&#45;&gt;Node12</title>
<g id="a_edge13_Node000011_Node000012"><a xlink:title=" ">
<path fill="none" stroke="#63b8ff" d="M171,-54.75C171,-47.8 171,-37.85 171,-29.13"/>
<polygon fill="#63b8ff" stroke="#63b8ff" points="174.5,-29.09 171,-19.09 167.5,-29.09 174.5,-29.09"/>
</a>
</g>
</g>
<!-- Node13 -->
<g id="Node000013" class="node">
<title>Node13</title>
<g id="a_Node000013"><a xlink:title=" ">
<polygon fill="#e0e0e0" stroke="#999999" points="287.5,-19 214.5,-19 214.5,0 287.5,0 287.5,-19"/>
<text text-anchor="middle" x="251" y="-7" font-family="Helvetica,sans-Serif" font-size="10.00">string_view</text>
</a>
</g>
</g>
<!-- Node11&#45;&gt;Node13 -->
<g id="edge15_Node000011_Node000013" class="edge">
<title>Node11&#45;&gt;Node13</title>
<g id="a_edge15_Node000011_Node000013"><a xlink:title=" ">
<path fill="none" stroke="#63b8ff" d="M183.85,-54.98C196.14,-46.84 214.91,-34.41 229.48,-24.76"/>
<polygon fill="#63b8ff" stroke="#63b8ff" points="231.51,-27.61 237.91,-19.17 227.64,-21.78 231.51,-27.61"/>
</a>
</g>
</g>
<!-- Node14 -->
<g id="Node000014" class="node">
<title>Node14</title>
<g id="a_Node000014"><a xlink:title=" ">
<polygon fill="#e0e0e0" stroke="#999999" points="64,-19 0,-19 0,0 64,0 64,-19"/>
<text text-anchor="middle" x="32" y="-7" font-family="Helvetica,sans-Serif" font-size="10.00">algorithm</text>
</a>
</g>
</g>
<!-- Node11&#45;&gt;Node14 -->
<g id="edge16_Node000011_Node000014" class="edge">
<title>Node11&#45;&gt;Node14</title>
<g id="a_edge16_Node000011_Node000014"><a xlink:title=" ">
<path fill="none" stroke="#63b8ff" d="M148.67,-54.98C125.8,-46.27 90.04,-32.63 64.14,-22.75"/>
<polygon fill="#63b8ff" stroke="#63b8ff" points="65.33,-19.46 54.74,-19.17 62.84,-26 65.33,-19.46"/>
</a>
</g>
</g>
<!-- Node15 -->
<g id="Node000015" class="node">
<title>Node15</title>
<g id="a_Node000015"><a xlink:title=" ">
<polygon fill="#e0e0e0" stroke="#999999" points="127.5,-19 82.5,-19 82.5,0 127.5,0 127.5,-19"/>
<text text-anchor="middle" x="105" y="-7" font-family="Helvetica,sans-Serif" font-size="10.00">utility</text>
</a>
</g>
</g>
<!-- Node11&#45;&gt;Node15 -->
<g id="edge18_Node000011_Node000015" class="edge">
<title>Node11&#45;&gt;Node15</title>
<g id="a_edge18_Node000011_Node000015"><a xlink:title=" ">
<path fill="none" stroke="#63b8ff" d="M160.4,-54.98C150.54,-47.07 135.65,-35.11 123.78,-25.58"/>
<polygon fill="#63b8ff" stroke="#63b8ff" points="125.79,-22.7 115.8,-19.17 121.4,-28.16 125.79,-22.7"/>
</a>
</g>
</g>
</g>
</svg>
