<?xml version="1.0" encoding="UTF-8" standalone="no"?>
<!DOCTYPE svg PUBLIC "-//W3C//DTD SVG 1.1//EN"
 "http://www.w3.org/Graphics/SVG/1.1/DTD/svg11.dtd">
<!-- Generated by graphviz version 2.43.0 (0)
 -->
<!-- Title: log_entry.h Pages: 1 -->
<svg width="1153pt" height="247pt"
 viewBox="0.00 0.00 1152.50 247.00" xmlns="http://www.w3.org/2000/svg" xmlns:xlink="http://www.w3.org/1999/xlink">
<g id="graph0" class="graph" transform="scale(1 1) rotate(0) translate(4 243)">
<title>log_entry.h</title>
<!-- Node1 -->
<g id="Node000001" class="node">
<title>Node1</title>
<g id="a_Node000001"><a xlink:title=" ">
<polygon fill="#999999" stroke="#666666" points="734.5,-239 664.5,-239 664.5,-220 734.5,-220 734.5,-239"/>
<text text-anchor="middle" x="699.5" y="-227" font-family="Helvetica,sans-Serif" font-size="10.00">log_entry.h</text>
</a>
</g>
</g>
<!-- Node2 -->
<g id="Node000002" class="node">
<title>Node2</title>
<g id="a_Node000002"><a xlink:href="base__formatter_8h.html" target="_top" xlink:title=" ">
<polygon fill="white" stroke="#666666" points="604.5,-184 504.5,-184 504.5,-165 604.5,-165 604.5,-184"/>
<text text-anchor="middle" x="554.5" y="-172" font-family="Helvetica,sans-Serif" font-size="10.00">base_formatter.h</text>
</a>
</g>
</g>
<!-- Node1&#45;&gt;Node2 -->
<g id="edge1_Node000001_Node000002" class="edge">
<title>Node1&#45;&gt;Node2</title>
<g id="a_edge1_Node000001_Node000002"><a xlink:title=" ">
<path fill="none" stroke="#63b8ff" d="M666.81,-216.55C639.88,-206.71 602.34,-192.98 578.22,-184.17"/>
<polygon fill="#63b8ff" stroke="#63b8ff" points="665.61,-219.84 676.2,-219.98 668.01,-213.26 665.61,-219.84"/>
</a>
</g>
</g>
<!-- Node3 -->
<g id="Node000003" class="node">
<title>Node3</title>
<g id="a_Node000003"><a xlink:href="base__writer_8h.html" target="_top" xlink:title=" ">
<polygon fill="white" stroke="#666666" points="704.5,-184 622.5,-184 622.5,-165 704.5,-165 704.5,-184"/>
<text text-anchor="middle" x="663.5" y="-172" font-family="Helvetica,sans-Serif" font-size="10.00">base_writer.h</text>
</a>
</g>
</g>
<!-- Node1&#45;&gt;Node3 -->
<g id="edge2_Node000001_Node000003" class="edge">
<title>Node1&#45;&gt;Node3</title>
<g id="a_edge2_Node000001_Node000003"><a xlink:title=" ">
<path fill="none" stroke="#63b8ff" d="M687.88,-211.39C681.68,-202.27 674.33,-191.45 669.33,-184.09"/>
<polygon fill="#63b8ff" stroke="#63b8ff" points="685.04,-213.44 693.56,-219.75 690.83,-209.51 685.04,-213.44"/>
</a>
</g>
</g>
<!-- Node13 -->
<g id="Node000013" class="node">
<title>Node13</title>
<g id="a_Node000013"><a xlink:href="log__collector_8cpp.html" target="_top" xlink:title=" ">
<polygon fill="white" stroke="#666666" points="789.5,-129 691.5,-129 691.5,-110 789.5,-110 789.5,-129"/>
<text text-anchor="middle" x="740.5" y="-117" font-family="Helvetica,sans-Serif" font-size="10.00">log_collector.cpp</text>
</a>
</g>
</g>
<!-- Node1&#45;&gt;Node13 -->
<g id="edge19_Node000001_Node000013" class="edge">
<title>Node1&#45;&gt;Node13</title>
<g id="a_edge19_Node000001_Node000013"><a xlink:title=" ">
<path fill="none" stroke="#63b8ff" d="M706.48,-210.12C715.42,-186.56 730.57,-146.66 737.21,-129.16"/>
<polygon fill="#63b8ff" stroke="#63b8ff" points="703.13,-209.07 702.86,-219.66 709.68,-211.56 703.13,-209.07"/>
</a>
</g>
</g>
<!-- Node19 -->
<g id="Node000019" class="node">
<title>Node19</title>
<g id="a_Node000019"><a xlink:href="log__filter_8h.html" target="_top" xlink:title=" ">
<polygon fill="white" stroke="#666666" points="992.5,-184 924.5,-184 924.5,-165 992.5,-165 992.5,-184"/>
<text text-anchor="middle" x="958.5" y="-172" font-family="Helvetica,sans-Serif" font-size="10.00">log_filter.h</text>
</a>
</g>
</g>
<!-- Node1&#45;&gt;Node19 -->
<g id="edge20_Node000001_Node000019" class="edge">
<title>Node1&#45;&gt;Node19</title>
<g id="a_edge20_Node000001_Node000019"><a xlink:title=" ">
<path fill="none" stroke="#63b8ff" d="M744.81,-219.23C795.98,-208.76 878.08,-191.96 924.2,-182.52"/>
<polygon fill="#63b8ff" stroke="#63b8ff" points="743.79,-215.86 734.7,-221.3 745.2,-222.72 743.79,-215.86"/>
</a>
</g>
</g>
<!-- Node4 -->
<g id="Node000004" class="node">
<title>Node4</title>
<g id="a_Node000004"><a xlink:href="console__writer_8h.html" target="_top" xlink:title=" ">
<polygon fill="white" stroke="#666666" points="120.5,-129 24.5,-129 24.5,-110 120.5,-110 120.5,-129"/>
<text text-anchor="middle" x="72.5" y="-117" font-family="Helvetica,sans-Serif" font-size="10.00">console_writer.h</text>
</a>
</g>
</g>
<!-- Node3&#45;&gt;Node4 -->
<g id="edge3_Node000003_Node000004" class="edge">
<title>Node3&#45;&gt;Node4</title>
<g id="a_edge3_Node000003_Node000004"><a xlink:title=" ">
<path fill="none" stroke="#63b8ff" d="M612.12,-164.95C399.84,-139.46 343.48,-151.16 134.5,-129 129.96,-128.52 125.24,-127.97 120.53,-127.38"/>
<polygon fill="#63b8ff" stroke="#63b8ff" points="611.99,-168.46 622.34,-166.19 612.84,-161.51 611.99,-168.46"/>
</a>
</g>
</g>
<!-- Node6 -->
<g id="Node000006" class="node">
<title>Node6</title>
<g id="a_Node000006"><a xlink:href="encrypted__writer_8h.html" target="_top" xlink:title=" ">
<polygon fill="white" stroke="#666666" points="251,-129 144,-129 144,-110 251,-110 251,-129"/>
<text text-anchor="middle" x="197.5" y="-117" font-family="Helvetica,sans-Serif" font-size="10.00">encrypted_writer.h</text>
</a>
</g>
</g>
<!-- Node3&#45;&gt;Node6 -->
<g id="edge5_Node000003_Node000006" class="edge">
<title>Node3&#45;&gt;Node6</title>
<g id="a_edge5_Node000003_Node000006"><a xlink:title=" ">
<path fill="none" stroke="#63b8ff" d="M612.25,-164.9C461.71,-144.33 421.9,-144.96 274.5,-129 267.01,-128.19 259.12,-127.33 251.35,-126.47"/>
<polygon fill="#63b8ff" stroke="#63b8ff" points="611.95,-168.4 622.33,-166.29 612.9,-161.46 611.95,-168.4"/>
</a>
</g>
</g>
<!-- Node8 -->
<g id="Node000008" class="node">
<title>Node8</title>
<g id="a_Node000008"><a xlink:href="file__writer_8h.html" target="_top" xlink:title=" ">
<polygon fill="white" stroke="#666666" points="357.5,-129 283.5,-129 283.5,-110 357.5,-110 357.5,-129"/>
<text text-anchor="middle" x="320.5" y="-117" font-family="Helvetica,sans-Serif" font-size="10.00">file_writer.h</text>
</a>
</g>
</g>
<!-- Node3&#45;&gt;Node8 -->
<g id="edge7_Node000003_Node000008" class="edge">
<title>Node3&#45;&gt;Node8</title>
<g id="a_edge7_Node000003_Node000008"><a xlink:title=" ">
<path fill="none" stroke="#63b8ff" d="M612.13,-164.82C502.21,-147.65 472.75,-146.55 366.5,-129 363.62,-128.52 360.63,-128.01 357.64,-127.49"/>
<polygon fill="#63b8ff" stroke="#63b8ff" points="611.89,-168.32 622.31,-166.42 612.98,-161.41 611.89,-168.32"/>
</a>
</g>
</g>
<!-- Node12 -->
<g id="Node000012" class="node">
<title>Node12</title>
<g id="a_Node000012"><a xlink:href="health__check__system_8cpp.html" target="_top" xlink:title=" ">
<polygon fill="white" stroke="#666666" points="635,-129 492,-129 492,-110 635,-110 635,-129"/>
<text text-anchor="middle" x="563.5" y="-117" font-family="Helvetica,sans-Serif" font-size="10.00">health_check_system.cpp</text>
</a>
</g>
</g>
<!-- Node3&#45;&gt;Node12 -->
<g id="edge11_Node000003_Node000012" class="edge">
<title>Node3&#45;&gt;Node12</title>
<g id="a_edge11_Node000003_Node000012"><a xlink:title=" ">
<path fill="none" stroke="#63b8ff" d="M638.47,-160.23C620.13,-150.51 595.76,-137.6 579.86,-129.17"/>
<polygon fill="#63b8ff" stroke="#63b8ff" points="636.96,-163.39 647.43,-164.98 640.24,-157.21 636.96,-163.39"/>
</a>
</g>
</g>
<!-- Node3&#45;&gt;Node13 -->
<g id="edge12_Node000003_Node000013" class="edge">
<title>Node3&#45;&gt;Node13</title>
<g id="a_edge12_Node000003_Node000013"><a xlink:title=" ">
<path fill="none" stroke="#63b8ff" d="M684.35,-159.15C698.26,-149.57 716.11,-137.29 727.9,-129.17"/>
<polygon fill="#63b8ff" stroke="#63b8ff" points="682.12,-156.43 675.87,-164.98 686.09,-162.2 682.12,-156.43"/>
</a>
</g>
</g>
<!-- Node14 -->
<g id="Node000014" class="node">
<title>Node14</title>
<g id="a_Node000014"><a xlink:href="log__router_8h.html" target="_top" xlink:title=" ">
<polygon fill="white" stroke="#666666" points="995.5,-129 921.5,-129 921.5,-110 995.5,-110 995.5,-129"/>
<text text-anchor="middle" x="958.5" y="-117" font-family="Helvetica,sans-Serif" font-size="10.00">log_router.h</text>
</a>
</g>
</g>
<!-- Node3&#45;&gt;Node14 -->
<g id="edge13_Node000003_Node000014" class="edge">
<title>Node3&#45;&gt;Node14</title>
<g id="a_edge13_Node000003_Node000014"><a xlink:title=" ">
<path fill="none" stroke="#63b8ff" d="M714.92,-164.4C765.28,-155.47 844.19,-141.42 912.5,-129 915.38,-128.48 918.35,-127.93 921.35,-127.38"/>
<polygon fill="#63b8ff" stroke="#63b8ff" points="714.16,-160.98 704.93,-166.17 715.39,-167.87 714.16,-160.98"/>
</a>
</g>
</g>
<!-- Node15 -->
<g id="Node000015" class="node">
<title>Node15</title>
<g id="a_Node000015"><a xlink:href="logger_8cpp.html" target="_top" xlink:title=" ">
<polygon fill="white" stroke="#666666" points="992,-74 925,-74 925,-55 992,-55 992,-74"/>
<text text-anchor="middle" x="958.5" y="-62" font-family="Helvetica,sans-Serif" font-size="10.00">logger.cpp</text>
</a>
</g>
</g>
<!-- Node3&#45;&gt;Node15 -->
<g id="edge15_Node000003_Node000015" class="edge">
<title>Node3&#45;&gt;Node15</title>
<g id="a_edge15_Node000003_Node000015"><a xlink:title=" ">
<path fill="none" stroke="#63b8ff" d="M664.04,-154.3C665.51,-139.96 669.94,-121.02 682.5,-110 718.03,-78.84 859.23,-69.34 924.76,-66.57"/>
<polygon fill="#63b8ff" stroke="#63b8ff" points="660.53,-154.37 663.39,-164.57 667.51,-154.81 660.53,-154.37"/>
</a>
</g>
</g>
<!-- Node16 -->
<g id="Node000016" class="node">
<title>Node16</title>
<g id="a_Node000016"><a xlink:href="logger__builder_8h.html" target="_top" xlink:title=" ">
<polygon fill="white" stroke="#666666" points="903,-129 808,-129 808,-110 903,-110 903,-129"/>
<text text-anchor="middle" x="855.5" y="-117" font-family="Helvetica,sans-Serif" font-size="10.00">logger_builder.h</text>
</a>
</g>
</g>
<!-- Node3&#45;&gt;Node16 -->
<g id="edge16_Node000003_Node000016" class="edge">
<title>Node3&#45;&gt;Node16</title>
<g id="a_edge16_Node000003_Node000016"><a xlink:title=" ">
<path fill="none" stroke="#63b8ff" d="M704.03,-162.31C739.96,-152.39 791.66,-138.12 824.41,-129.08"/>
<polygon fill="#63b8ff" stroke="#63b8ff" points="703.06,-158.95 694.35,-164.98 704.92,-165.7 703.06,-158.95"/>
</a>
</g>
</g>
<!-- Node17 -->
<g id="Node000017" class="node">
<title>Node17</title>
<g id="a_Node000017"><a xlink:href="network__writer_8h.html" target="_top" xlink:title=" ">
<polygon fill="white" stroke="#666666" points="473.5,-129 375.5,-129 375.5,-110 473.5,-110 473.5,-129"/>
<text text-anchor="middle" x="424.5" y="-117" font-family="Helvetica,sans-Serif" font-size="10.00">network_writer.h</text>
</a>
</g>
</g>
<!-- Node3&#45;&gt;Node17 -->
<g id="edge17_Node000003_Node000017" class="edge">
<title>Node3&#45;&gt;Node17</title>
<g id="a_edge17_Node000003_Node000017"><a xlink:title=" ">
<path fill="none" stroke="#63b8ff" d="M615.32,-162.82C570.53,-152.88 504.66,-138.28 463.2,-129.08"/>
<polygon fill="#63b8ff" stroke="#63b8ff" points="614.58,-166.24 625.1,-164.98 616.1,-159.4 614.58,-166.24"/>
</a>
</g>
</g>
<!-- Node5 -->
<g id="Node000005" class="node">
<title>Node5</title>
<g id="a_Node000005"><a xlink:href="console__writer_8cpp.html" target="_top" xlink:title=" ">
<polygon fill="white" stroke="#666666" points="107,-74 0,-74 0,-55 107,-55 107,-74"/>
<text text-anchor="middle" x="53.5" y="-62" font-family="Helvetica,sans-Serif" font-size="10.00">console_writer.cpp</text>
</a>
</g>
</g>
<!-- Node4&#45;&gt;Node5 -->
<g id="edge4_Node000004_Node000005" class="edge">
<title>Node4&#45;&gt;Node5</title>
<g id="a_edge4_Node000004_Node000005"><a xlink:title=" ">
<path fill="none" stroke="#63b8ff" d="M65.95,-100.24C62.78,-91.37 59.11,-81.14 56.58,-74.09"/>
<polygon fill="#63b8ff" stroke="#63b8ff" points="62.69,-101.52 69.36,-109.75 69.28,-99.15 62.69,-101.52"/>
</a>
</g>
</g>
<!-- Node7 -->
<g id="Node000007" class="node">
<title>Node7</title>
<g id="a_Node000007"><a xlink:href="encrypted__writer_8cpp.html" target="_top" xlink:title=" ">
<polygon fill="white" stroke="#666666" points="244,-74 125,-74 125,-55 244,-55 244,-74"/>
<text text-anchor="middle" x="184.5" y="-62" font-family="Helvetica,sans-Serif" font-size="10.00">encrypted_writer.cpp</text>
</a>
</g>
</g>
<!-- Node6&#45;&gt;Node7 -->
<g id="edge6_Node000006_Node000007" class="edge">
<title>Node6&#45;&gt;Node7</title>
<g id="a_edge6_Node000006_Node000007"><a xlink:title=" ">
<path fill="none" stroke="#63b8ff" d="M192.95,-99.95C190.79,-91.15 188.32,-81.06 186.61,-74.09"/>
<polygon fill="#63b8ff" stroke="#63b8ff" points="189.57,-100.87 195.35,-109.75 196.37,-99.2 189.57,-100.87"/>
</a>
</g>
</g>
<!-- Node9 -->
<g id="Node000009" class="node">
<title>Node9</title>
<g id="a_Node000009"><a xlink:href="file__writer_8cpp.html" target="_top" xlink:title=" ">
<polygon fill="white" stroke="#666666" points="482,-74 397,-74 397,-55 482,-55 482,-74"/>
<text text-anchor="middle" x="439.5" y="-62" font-family="Helvetica,sans-Serif" font-size="10.00">file_writer.cpp</text>
</a>
</g>
</g>
<!-- Node8&#45;&gt;Node9 -->
<g id="edge8_Node000008_Node000009" class="edge">
<title>Node8&#45;&gt;Node9</title>
<g id="a_edge8_Node000008_Node000009"><a xlink:title=" ">
<path fill="none" stroke="#63b8ff" d="M348.8,-105.9C370.78,-96.11 400.68,-82.79 420.03,-74.17"/>
<polygon fill="#63b8ff" stroke="#63b8ff" points="347.33,-102.72 339.62,-109.98 350.18,-109.11 347.33,-102.72"/>
</a>
</g>
</g>
<!-- Node10 -->
<g id="Node000010" class="node">
<title>Node10</title>
<g id="a_Node000010"><a xlink:href="rotating__file__writer_8h.html" target="_top" xlink:title=" ">
<polygon fill="white" stroke="#666666" points="379,-74 262,-74 262,-55 379,-55 379,-74"/>
<text text-anchor="middle" x="320.5" y="-62" font-family="Helvetica,sans-Serif" font-size="10.00">rotating_file_writer.h</text>
</a>
</g>
</g>
<!-- Node8&#45;&gt;Node10 -->
<g id="edge9_Node000008_Node000010" class="edge">
<title>Node8&#45;&gt;Node10</title>
<g id="a_edge9_Node000008_Node000010"><a xlink:title=" ">
<path fill="none" stroke="#63b8ff" d="M320.5,-99.66C320.5,-90.93 320.5,-80.99 320.5,-74.09"/>
<polygon fill="#63b8ff" stroke="#63b8ff" points="317,-99.75 320.5,-109.75 324,-99.75 317,-99.75"/>
</a>
</g>
</g>
<!-- Node11 -->
<g id="Node000011" class="node">
<title>Node11</title>
<g id="a_Node000011"><a xlink:href="rotating__file__writer_8cpp.html" target="_top" xlink:title=" ">
<polygon fill="white" stroke="#666666" points="384.5,-19 256.5,-19 256.5,0 384.5,0 384.5,-19"/>
<text text-anchor="middle" x="320.5" y="-7" font-family="Helvetica,sans-Serif" font-size="10.00">rotating_file_writer.cpp</text>
</a>
</g>
</g>
<!-- Node10&#45;&gt;Node11 -->
<g id="edge10_Node000010_Node000011" class="edge">
<title>Node10&#45;&gt;Node11</title>
<g id="a_edge10_Node000010_Node000011"><a xlink:title=" ">
<path fill="none" stroke="#63b8ff" d="M320.5,-44.66C320.5,-35.93 320.5,-25.99 320.5,-19.09"/>
<polygon fill="#63b8ff" stroke="#63b8ff" points="317,-44.75 320.5,-54.75 324,-44.75 317,-44.75"/>
</a>
</g>
</g>
<!-- Node14&#45;&gt;Node15 -->
<g id="edge14_Node000014_Node000015" class="edge">
<title>Node14&#45;&gt;Node15</title>
<g id="a_edge14_Node000014_Node000015"><a xlink:title=" ">
<path fill="none" stroke="#63b8ff" d="M958.5,-99.66C958.5,-90.93 958.5,-80.99 958.5,-74.09"/>
<polygon fill="#63b8ff" stroke="#63b8ff" points="955,-99.75 958.5,-109.75 962,-99.75 955,-99.75"/>
</a>
</g>
</g>
<!-- Node18 -->
<g id="Node000018" class="node">
<title>Node18</title>
<g id="a_Node000018"><a xlink:href="network__writer_8cpp.html" target="_top" xlink:title=" ">
<polygon fill="white" stroke="#666666" points="610.5,-74 500.5,-74 500.5,-55 610.5,-55 610.5,-74"/>
<text text-anchor="middle" x="555.5" y="-62" font-family="Helvetica,sans-Serif" font-size="10.00">network_writer.cpp</text>
</a>
</g>
</g>
<!-- Node17&#45;&gt;Node18 -->
<g id="edge18_Node000017_Node000018" class="edge">
<title>Node17&#45;&gt;Node18</title>
<g id="a_edge18_Node000017_Node000018"><a xlink:title=" ">
<path fill="none" stroke="#63b8ff" d="M455,-106.16C479.25,-96.35 512.57,-82.87 534.07,-74.17"/>
<polygon fill="#63b8ff" stroke="#63b8ff" points="453.5,-102.99 445.55,-109.98 456.13,-109.48 453.5,-102.99"/>
</a>
</g>
</g>
<!-- Node19&#45;&gt;Node14 -->
<g id="edge21_Node000019_Node000014" class="edge">
<title>Node19&#45;&gt;Node14</title>
<g id="a_edge21_Node000019_Node000014"><a xlink:title=" ">
<path fill="none" stroke="#63b8ff" d="M958.5,-154.66C958.5,-145.93 958.5,-135.99 958.5,-129.09"/>
<polygon fill="#63b8ff" stroke="#63b8ff" points="955,-154.75 958.5,-164.75 962,-154.75 955,-154.75"/>
</a>
</g>
</g>
<!-- Node19&#45;&gt;Node15 -->
<g id="edge24_Node000019_Node000015" class="edge">
<title>Node19&#45;&gt;Node15</title>
<g id="a_edge24_Node000019_Node000015"><a xlink:title=" ">
<path fill="none" stroke="#63b8ff" d="M980.72,-158.74C996.03,-146.58 1012.3,-128.4 1004.5,-110 997.99,-94.65 983.32,-82.01 972.28,-74.18"/>
<polygon fill="#63b8ff" stroke="#63b8ff" points="978.44,-156.08 972.48,-164.84 982.6,-161.71 978.44,-156.08"/>
</a>
</g>
</g>
<!-- Node19&#45;&gt;Node16 -->
<g id="edge25_Node000019_Node000016" class="edge">
<title>Node19&#45;&gt;Node16</title>
<g id="a_edge25_Node000019_Node000016"><a xlink:title=" ">
<path fill="none" stroke="#63b8ff" d="M932.98,-160.37C914.06,-150.63 888.8,-137.64 872.35,-129.17"/>
<polygon fill="#63b8ff" stroke="#63b8ff" points="931.46,-163.52 941.95,-164.98 934.66,-157.3 931.46,-163.52"/>
</a>
</g>
</g>
<!-- Node20 -->
<g id="Node000020" class="node">
<title>Node20</title>
<g id="a_Node000020"><a xlink:href="log__sanitizer_8h.html" target="_top" xlink:title=" ">
<polygon fill="white" stroke="#666666" points="1139,-129 1052,-129 1052,-110 1139,-110 1139,-129"/>
<text text-anchor="middle" x="1095.5" y="-117" font-family="Helvetica,sans-Serif" font-size="10.00">log_sanitizer.h</text>
</a>
</g>
</g>
<!-- Node19&#45;&gt;Node20 -->
<g id="edge22_Node000019_Node000020" class="edge">
<title>Node19&#45;&gt;Node20</title>
<g id="a_edge22_Node000019_Node000020"><a xlink:title=" ">
<path fill="none" stroke="#63b8ff" d="M990.06,-161.29C1015.45,-151.47 1050.5,-137.91 1073.09,-129.17"/>
<polygon fill="#63b8ff" stroke="#63b8ff" points="988.58,-158.11 980.51,-164.98 991.1,-164.64 988.58,-158.11"/>
</a>
</g>
</g>
<!-- Node21 -->
<g id="Node000021" class="node">
<title>Node21</title>
<g id="a_Node000021"><a xlink:href="log__sanitizer_8cpp.html" target="_top" xlink:title=" ">
<polygon fill="white" stroke="#666666" points="1144.5,-74 1046.5,-74 1046.5,-55 1144.5,-55 1144.5,-74"/>
<text text-anchor="middle" x="1095.5" y="-62" font-family="Helvetica,sans-Serif" font-size="10.00">log_sanitizer.cpp</text>
</a>
</g>
</g>
<!-- Node20&#45;&gt;Node21 -->
<g id="edge23_Node000020_Node000021" class="edge">
<title>Node20&#45;&gt;Node21</title>
<g id="a_edge23_Node000020_Node000021"><a xlink:title=" ">
<path fill="none" stroke="#63b8ff" d="M1095.5,-99.66C1095.5,-90.93 1095.5,-80.99 1095.5,-74.09"/>
<polygon fill="#63b8ff" stroke="#63b8ff" points="1092,-99.75 1095.5,-109.75 1099,-99.75 1092,-99.75"/>
</a>
</g>
</g>
</g>
</svg>
