<?xml version="1.0" encoding="UTF-8" standalone="no"?>
<!DOCTYPE svg PUBLIC "-//W3C//DTD SVG 1.1//EN"
 "http://www.w3.org/Graphics/SVG/1.1/DTD/svg11.dtd">
<!-- Generated by graphviz version 2.43.0 (0)
 -->
<!-- Title: log_entry.h Pages: 1 -->
<svg width="278pt" height="137pt"
 viewBox="0.00 0.00 278.14 137.00" xmlns="http://www.w3.org/2000/svg" xmlns:xlink="http://www.w3.org/1999/xlink">
<g id="graph0" class="graph" transform="scale(1 1) rotate(0) translate(4 133)">
<title>log_entry.h</title>
<!-- Node1 -->
<g id="Node000001" class="node">
<title>Node1</title>
<g id="a_Node000001"><a xlink:title=" ">
<polygon fill="#999999" stroke="#666666" points="107.14,-129 37.14,-129 37.14,-110 107.14,-110 107.14,-129"/>
<text text-anchor="middle" x="72.14" y="-117" font-family="Helvetica,sans-Serif" font-size="10.00">log_entry.h</text>
</a>
</g>
</g>
<!-- Node2 -->
<g id="Node000002" class="node">
<title>Node2</title>
<g id="a_Node000002"><a xlink:title=" ">
<polygon fill="#e0e0e0" stroke="#999999" points="67.14,-19 23.14,-19 23.14,0 67.14,0 67.14,-19"/>
<text text-anchor="middle" x="45.14" y="-7" font-family="Helvetica,sans-Serif" font-size="10.00">string</text>
</a>
</g>
</g>
<!-- Node1&#45;&gt;Node2 -->
<g id="edge1_Node000001_Node000002" class="edge">
<title>Node1&#45;&gt;Node2</title>
<g id="a_edge1_Node000001_Node000002"><a xlink:title=" ">
<path fill="none" stroke="#63b8ff" d="M47.68,-109.86C31.87,-102.85 12.55,-91.27 3.14,-74 -6.31,-56.67 9.56,-37.95 24.43,-25.36"/>
<polygon fill="#63b8ff" stroke="#63b8ff" points="26.74,-27.99 32.41,-19.04 22.4,-22.5 26.74,-27.99"/>
</a>
</g>
</g>
<!-- Node3 -->
<g id="Node000003" class="node">
<title>Node3</title>
<g id="a_Node000003"><a xlink:title=" ">
<polygon fill="#e0e0e0" stroke="#999999" points="62.14,-74 12.14,-74 12.14,-55 62.14,-55 62.14,-74"/>
<text text-anchor="middle" x="37.14" y="-62" font-family="Helvetica,sans-Serif" font-size="10.00">chrono</text>
</a>
</g>
</g>
<!-- Node1&#45;&gt;Node3 -->
<g id="edge2_Node000001_Node000003" class="edge">
<title>Node1&#45;&gt;Node3</title>
<g id="a_edge2_Node000001_Node000003"><a xlink:title=" ">
<path fill="none" stroke="#63b8ff" d="M66.36,-109.75C61.52,-102.42 54.46,-91.73 48.5,-82.7"/>
<polygon fill="#63b8ff" stroke="#63b8ff" points="51.24,-80.5 42.81,-74.09 45.4,-84.36 51.24,-80.5"/>
</a>
</g>
</g>
<!-- Node4 -->
<g id="Node000004" class="node">
<title>Node4</title>
<g id="a_Node000004"><a xlink:title=" ">
<polygon fill="#e0e0e0" stroke="#999999" points="136.14,-74 80.14,-74 80.14,-55 136.14,-55 136.14,-74"/>
<text text-anchor="middle" x="108.14" y="-62" font-family="Helvetica,sans-Serif" font-size="10.00">optional</text>
</a>
</g>
</g>
<!-- Node1&#45;&gt;Node4 -->
<g id="edge3_Node000001_Node000004" class="edge">
<title>Node1&#45;&gt;Node4</title>
<g id="a_edge3_Node000001_Node000004"><a xlink:title=" ">
<path fill="none" stroke="#63b8ff" d="M78.09,-109.75C83.12,-102.34 90.48,-91.5 96.65,-82.41"/>
<polygon fill="#63b8ff" stroke="#63b8ff" points="99.58,-84.33 102.31,-74.09 93.79,-80.39 99.58,-84.33"/>
</a>
</g>
</g>
<!-- Node5 -->
<g id="Node000005" class="node">
<title>Node5</title>
<g id="a_Node000005"><a xlink:href="logger__interface_8h.html" target="_top" xlink:title=" ">
<polygon fill="white" stroke="#666666" points="268.14,-74 154.14,-74 154.14,-55 268.14,-55 268.14,-74"/>
<text text-anchor="middle" x="211.14" y="-62" font-family="Helvetica,sans-Serif" font-size="10.00">../logger_interface.h</text>
</a>
</g>
</g>
<!-- Node1&#45;&gt;Node5 -->
<g id="edge4_Node000001_Node000005" class="edge">
<title>Node1&#45;&gt;Node5</title>
<g id="a_edge4_Node000001_Node000005"><a xlink:title=" ">
<path fill="none" stroke="#63b8ff" d="M94.47,-109.98C117.34,-101.27 153.1,-87.63 179,-77.75"/>
<polygon fill="#63b8ff" stroke="#63b8ff" points="180.31,-81 188.4,-74.17 177.81,-74.46 180.31,-81"/>
</a>
</g>
</g>
<!-- Node5&#45;&gt;Node2 -->
<g id="edge7_Node000005_Node000002" class="edge">
<title>Node5&#45;&gt;Node2</title>
<g id="a_edge7_Node000005_Node000002"><a xlink:title=" ">
<path fill="none" stroke="#63b8ff" d="M184.47,-54.98C155.24,-45.65 108.36,-30.68 77.16,-20.72"/>
<polygon fill="#63b8ff" stroke="#63b8ff" points="77.82,-17.26 67.23,-17.55 75.69,-23.93 77.82,-17.26"/>
</a>
</g>
</g>
<!-- Node6 -->
<g id="Node000006" class="node">
<title>Node6</title>
<g id="a_Node000006"><a xlink:title=" ">
<polygon fill="#e0e0e0" stroke="#999999" points="204.14,-19 146.14,-19 146.14,0 204.14,0 204.14,-19"/>
<text text-anchor="middle" x="175.14" y="-7" font-family="Helvetica,sans-Serif" font-size="10.00">memory</text>
</a>
</g>
</g>
<!-- Node5&#45;&gt;Node6 -->
<g id="edge5_Node000005_Node000006" class="edge">
<title>Node5&#45;&gt;Node6</title>
<g id="a_edge5_Node000005_Node000006"><a xlink:title=" ">
<path fill="none" stroke="#63b8ff" d="M205.2,-54.75C200.16,-47.34 192.8,-36.5 186.63,-27.41"/>
<polygon fill="#63b8ff" stroke="#63b8ff" points="189.49,-25.39 180.98,-19.09 183.7,-29.33 189.49,-25.39"/>
</a>
</g>
</g>
<!-- Node7 -->
<g id="Node000007" class="node">
<title>Node7</title>
<g id="a_Node000007"><a xlink:title=" ">
<polygon fill="#e0e0e0" stroke="#999999" points="270.14,-19 222.14,-19 222.14,0 270.14,0 270.14,-19"/>
<text text-anchor="middle" x="246.14" y="-7" font-family="Helvetica,sans-Serif" font-size="10.00">mutex</text>
</a>
</g>
</g>
<!-- Node5&#45;&gt;Node7 -->
<g id="edge6_Node000005_Node000007" class="edge">
<title>Node5&#45;&gt;Node7</title>
<g id="a_edge6_Node000005_Node000007"><a xlink:title=" ">
<path fill="none" stroke="#63b8ff" d="M216.92,-54.75C221.76,-47.42 228.82,-36.73 234.79,-27.7"/>
<polygon fill="#63b8ff" stroke="#63b8ff" points="237.88,-29.36 240.47,-19.09 232.04,-25.5 237.88,-29.36"/>
</a>
</g>
</g>
</g>
</svg>
