<?xml version="1.0" encoding="UTF-8" standalone="no"?>
<!DOCTYPE svg PUBLIC "-//W3C//DTD SVG 1.1//EN"
 "http://www.w3.org/Graphics/SVG/1.1/DTD/svg11.dtd">
<!-- Generated by graphviz version 2.43.0 (0)
 -->
<!-- Title: log_filter.h Pages: 1 -->
<svg width="615pt" height="203pt"
 viewBox="0.00 0.00 614.50 203.00" xmlns="http://www.w3.org/2000/svg" xmlns:xlink="http://www.w3.org/1999/xlink">
<g id="graph0" class="graph" transform="scale(1 1) rotate(0) translate(4 199)">
<title>log_filter.h</title>
<!-- Node1 -->
<g id="Node000001" class="node">
<title>Node1</title>
<g id="a_Node000001"><a xlink:title=" ">
<polygon fill="#999999" stroke="#666666" points="285,-195 217,-195 217,-176 285,-176 285,-195"/>
<text text-anchor="middle" x="251" y="-183" font-family="Helvetica,sans-Serif" font-size="10.00">log_filter.h</text>
</a>
</g>
</g>
<!-- Node2 -->
<g id="Node000002" class="node">
<title>Node2</title>
<g id="a_Node000002"><a xlink:href="logger__interface_8h.html" target="_top" xlink:title=" ">
<polygon fill="white" stroke="#666666" points="147,-74 33,-74 33,-55 147,-55 147,-74"/>
<text text-anchor="middle" x="90" y="-62" font-family="Helvetica,sans-Serif" font-size="10.00">../logger_interface.h</text>
</a>
</g>
</g>
<!-- Node1&#45;&gt;Node2 -->
<g id="edge1_Node000001_Node000002" class="edge">
<title>Node1&#45;&gt;Node2</title>
<g id="a_edge1_Node000001_Node000002"><a xlink:title=" ">
<path fill="none" stroke="#63b8ff" d="M221.72,-176C200.15,-168.77 170.89,-156.86 149,-140 128.46,-124.18 110.9,-99.71 100.41,-83.17"/>
<polygon fill="#63b8ff" stroke="#63b8ff" points="103.29,-81.17 95.07,-74.47 97.32,-84.83 103.29,-81.17"/>
</a>
</g>
</g>
<!-- Node3 -->
<g id="Node000003" class="node">
<title>Node3</title>
<g id="a_Node000003"><a xlink:title=" ">
<polygon fill="#e0e0e0" stroke="#999999" points="58,-19 0,-19 0,0 58,0 58,-19"/>
<text text-anchor="middle" x="29" y="-7" font-family="Helvetica,sans-Serif" font-size="10.00">memory</text>
</a>
</g>
</g>
<!-- Node1&#45;&gt;Node3 -->
<g id="edge21_Node000001_Node000003" class="edge">
<title>Node1&#45;&gt;Node3</title>
<g id="a_edge21_Node000001_Node000003"><a xlink:title=" ">
<path fill="none" stroke="#63b8ff" d="M216.85,-180.36C163.09,-171.72 61.03,-146.14 24,-74 16.9,-60.17 19.11,-42.37 22.54,-29.14"/>
<polygon fill="#63b8ff" stroke="#63b8ff" points="25.98,-29.87 25.54,-19.28 19.28,-27.83 25.98,-29.87"/>
</a>
</g>
</g>
<!-- Node5 -->
<g id="Node000005" class="node">
<title>Node5</title>
<g id="a_Node000005"><a xlink:title=" ">
<polygon fill="#e0e0e0" stroke="#999999" points="197,-19 153,-19 153,0 197,0 197,-19"/>
<text text-anchor="middle" x="175" y="-7" font-family="Helvetica,sans-Serif" font-size="10.00">string</text>
</a>
</g>
</g>
<!-- Node1&#45;&gt;Node5 -->
<g id="edge19_Node000001_Node000005" class="edge">
<title>Node1&#45;&gt;Node5</title>
<g id="a_edge19_Node000001_Node000005"><a xlink:title=" ">
<path fill="none" stroke="#63b8ff" d="M227.17,-175.85C211.44,-168.78 191.95,-157.14 182,-140 161.72,-105.07 166.42,-55.51 171.06,-28.97"/>
<polygon fill="#63b8ff" stroke="#63b8ff" points="174.5,-29.6 172.96,-19.12 167.63,-28.27 174.5,-29.6"/>
</a>
</g>
</g>
<!-- Node6 -->
<g id="Node000006" class="node">
<title>Node6</title>
<g id="a_Node000006"><a xlink:href="log__filter__interface_8h.html" target="_top" xlink:title=" ">
<polygon fill="white" stroke="#666666" points="311,-140 191,-140 191,-110 311,-110 311,-140"/>
<text text-anchor="start" x="199" y="-128" font-family="Helvetica,sans-Serif" font-size="10.00">../interfaces/log_filter</text>
<text text-anchor="middle" x="251" y="-117" font-family="Helvetica,sans-Serif" font-size="10.00">_interface.h</text>
</a>
</g>
</g>
<!-- Node1&#45;&gt;Node6 -->
<g id="edge5_Node000001_Node000006" class="edge">
<title>Node1&#45;&gt;Node6</title>
<g id="a_edge5_Node000001_Node000006"><a xlink:title=" ">
<path fill="none" stroke="#63b8ff" d="M251,-175.87C251,-169.11 251,-159.35 251,-150.26"/>
<polygon fill="#63b8ff" stroke="#63b8ff" points="254.5,-150.11 251,-140.11 247.5,-150.11 254.5,-150.11"/>
</a>
</g>
</g>
<!-- Node7 -->
<g id="Node000007" class="node">
<title>Node7</title>
<g id="a_Node000007"><a xlink:href="log__entry_8h.html" target="_top" xlink:title=" ">
<polygon fill="white" stroke="#666666" points="460.5,-134.5 329.5,-134.5 329.5,-115.5 460.5,-115.5 460.5,-134.5"/>
<text text-anchor="middle" x="395" y="-122.5" font-family="Helvetica,sans-Serif" font-size="10.00">../interfaces/log_entry.h</text>
</a>
</g>
</g>
<!-- Node1&#45;&gt;Node7 -->
<g id="edge7_Node000001_Node000007" class="edge">
<title>Node1&#45;&gt;Node7</title>
<g id="a_edge7_Node000001_Node000007"><a xlink:title=" ">
<path fill="none" stroke="#63b8ff" d="M271.94,-175.99C296.36,-166.07 336.93,-149.59 364.77,-138.28"/>
<polygon fill="#63b8ff" stroke="#63b8ff" points="366.09,-141.52 374.04,-134.52 363.45,-135.04 366.09,-141.52"/>
</a>
</g>
</g>
<!-- Node15 -->
<g id="Node000015" class="node">
<title>Node15</title>
<g id="a_Node000015"><a xlink:title=" ">
<polygon fill="#e0e0e0" stroke="#999999" points="523,-134.5 479,-134.5 479,-115.5 523,-115.5 523,-134.5"/>
<text text-anchor="middle" x="501" y="-122.5" font-family="Helvetica,sans-Serif" font-size="10.00">regex</text>
</a>
</g>
</g>
<!-- Node1&#45;&gt;Node15 -->
<g id="edge20_Node000001_Node000015" class="edge">
<title>Node1&#45;&gt;Node15</title>
<g id="a_edge20_Node000001_Node000015"><a xlink:title=" ">
<path fill="none" stroke="#63b8ff" d="M285.37,-179.95C329.02,-173.62 406.31,-160.56 470,-140 471.44,-139.54 472.9,-139.02 474.37,-138.48"/>
<polygon fill="#63b8ff" stroke="#63b8ff" points="475.98,-141.6 483.89,-134.55 473.31,-135.13 475.98,-141.6"/>
</a>
</g>
</g>
<!-- Node16 -->
<g id="Node000016" class="node">
<title>Node16</title>
<g id="a_Node000016"><a xlink:title=" ">
<polygon fill="#e0e0e0" stroke="#999999" points="606.5,-134.5 541.5,-134.5 541.5,-115.5 606.5,-115.5 606.5,-134.5"/>
<text text-anchor="middle" x="574" y="-122.5" font-family="Helvetica,sans-Serif" font-size="10.00">functional</text>
</a>
</g>
</g>
<!-- Node1&#45;&gt;Node16 -->
<g id="edge22_Node000001_Node000016" class="edge">
<title>Node1&#45;&gt;Node16</title>
<g id="a_edge22_Node000001_Node000016"><a xlink:title=" ">
<path fill="none" stroke="#63b8ff" d="M285.1,-180.94C338.33,-174.96 444.19,-161.43 532,-140 534.97,-139.28 538.02,-138.44 541.07,-137.54"/>
<polygon fill="#63b8ff" stroke="#63b8ff" points="542.16,-140.87 550.65,-134.54 540.06,-134.19 542.16,-140.87"/>
</a>
</g>
</g>
<!-- Node2&#45;&gt;Node3 -->
<g id="edge2_Node000002_Node000003" class="edge">
<title>Node2&#45;&gt;Node3</title>
<g id="a_edge2_Node000002_Node000003"><a xlink:title=" ">
<path fill="none" stroke="#63b8ff" d="M80.2,-54.98C71.18,-47.15 57.59,-35.34 46.68,-25.86"/>
<polygon fill="#63b8ff" stroke="#63b8ff" points="48.82,-23.09 38.98,-19.17 44.23,-28.37 48.82,-23.09"/>
</a>
</g>
</g>
<!-- Node4 -->
<g id="Node000004" class="node">
<title>Node4</title>
<g id="a_Node000004"><a xlink:title=" ">
<polygon fill="#e0e0e0" stroke="#999999" points="124,-19 76,-19 76,0 124,0 124,-19"/>
<text text-anchor="middle" x="100" y="-7" font-family="Helvetica,sans-Serif" font-size="10.00">mutex</text>
</a>
</g>
</g>
<!-- Node2&#45;&gt;Node4 -->
<g id="edge3_Node000002_Node000004" class="edge">
<title>Node2&#45;&gt;Node4</title>
<g id="a_edge3_Node000002_Node000004"><a xlink:title=" ">
<path fill="none" stroke="#63b8ff" d="M91.65,-54.75C92.96,-47.8 94.84,-37.85 96.48,-29.13"/>
<polygon fill="#63b8ff" stroke="#63b8ff" points="99.96,-29.56 98.38,-19.09 93.09,-28.27 99.96,-29.56"/>
</a>
</g>
</g>
<!-- Node2&#45;&gt;Node5 -->
<g id="edge4_Node000002_Node000005" class="edge">
<title>Node2&#45;&gt;Node5</title>
<g id="a_edge4_Node000002_Node000005"><a xlink:title=" ">
<path fill="none" stroke="#63b8ff" d="M103.66,-54.98C116.84,-46.77 137.03,-34.18 152.57,-24.49"/>
<polygon fill="#63b8ff" stroke="#63b8ff" points="154.46,-27.43 161.09,-19.17 150.76,-21.49 154.46,-27.43"/>
</a>
</g>
</g>
<!-- Node6&#45;&gt;Node5 -->
<g id="edge6_Node000006_Node000005" class="edge">
<title>Node6&#45;&gt;Node5</title>
<g id="a_edge6_Node000006_Node000005"><a xlink:title=" ">
<path fill="none" stroke="#63b8ff" d="M241.37,-109.63C227.39,-88.75 201.51,-50.09 186.53,-27.72"/>
<polygon fill="#63b8ff" stroke="#63b8ff" points="189.32,-25.59 180.85,-19.23 183.5,-29.49 189.32,-25.59"/>
</a>
</g>
</g>
<!-- Node7&#45;&gt;Node2 -->
<g id="edge18_Node000007_Node000002" class="edge">
<title>Node7&#45;&gt;Node2</title>
<g id="a_edge18_Node000007_Node000002"><a xlink:title=" ">
<path fill="none" stroke="#63b8ff" d="M350.65,-115.49C295.99,-105.01 203.13,-87.2 144.26,-75.91"/>
<polygon fill="#63b8ff" stroke="#63b8ff" points="144.88,-72.46 134.4,-74.02 143.56,-79.34 144.88,-72.46"/>
</a>
</g>
</g>
<!-- Node7&#45;&gt;Node5 -->
<g id="edge8_Node000007_Node000005" class="edge">
<title>Node7&#45;&gt;Node5</title>
<g id="a_edge8_Node000007_Node000005"><a xlink:title=" ">
<path fill="none" stroke="#63b8ff" d="M368.92,-115.36C343.14,-106.41 302.88,-91.32 270,-74 242.55,-59.54 213.18,-39.04 194.48,-25.29"/>
<polygon fill="#63b8ff" stroke="#63b8ff" points="196.33,-22.3 186.22,-19.13 192.15,-27.91 196.33,-22.3"/>
</a>
</g>
</g>
<!-- Node8 -->
<g id="Node000008" class="node">
<title>Node8</title>
<g id="a_Node000008"><a xlink:title=" ">
<polygon fill="#e0e0e0" stroke="#999999" points="467,-74 417,-74 417,-55 467,-55 467,-74"/>
<text text-anchor="middle" x="442" y="-62" font-family="Helvetica,sans-Serif" font-size="10.00">chrono</text>
</a>
</g>
</g>
<!-- Node7&#45;&gt;Node8 -->
<g id="edge9_Node000007_Node000008" class="edge">
<title>Node7&#45;&gt;Node8</title>
<g id="a_edge9_Node000007_Node000008"><a xlink:title=" ">
<path fill="none" stroke="#63b8ff" d="M401.94,-115.37C408.95,-106.64 419.96,-92.93 428.67,-82.09"/>
<polygon fill="#63b8ff" stroke="#63b8ff" points="431.5,-84.16 435.04,-74.17 426.04,-79.77 431.5,-84.16"/>
</a>
</g>
</g>
<!-- Node9 -->
<g id="Node000009" class="node">
<title>Node9</title>
<g id="a_Node000009"><a xlink:title=" ">
<polygon fill="#e0e0e0" stroke="#999999" points="541,-74 485,-74 485,-55 541,-55 541,-74"/>
<text text-anchor="middle" x="513" y="-62" font-family="Helvetica,sans-Serif" font-size="10.00">optional</text>
</a>
</g>
</g>
<!-- Node7&#45;&gt;Node9 -->
<g id="edge10_Node000007_Node000009" class="edge">
<title>Node7&#45;&gt;Node9</title>
<g id="a_edge10_Node000007_Node000009"><a xlink:title=" ">
<path fill="none" stroke="#63b8ff" d="M412.16,-115.49C431.73,-105.79 463.97,-89.81 486.72,-78.53"/>
<polygon fill="#63b8ff" stroke="#63b8ff" points="488.42,-81.59 495.82,-74.02 485.31,-75.32 488.42,-81.59"/>
</a>
</g>
</g>
<!-- Node10 -->
<g id="Node000010" class="node">
<title>Node10</title>
<g id="a_Node000010"><a xlink:href="small__string_8h.html" target="_top" xlink:title=" ">
<polygon fill="white" stroke="#666666" points="398.5,-74 279.5,-74 279.5,-55 398.5,-55 398.5,-74"/>
<text text-anchor="middle" x="339" y="-62" font-family="Helvetica,sans-Serif" font-size="10.00">../core/small_string.h</text>
</a>
</g>
</g>
<!-- Node7&#45;&gt;Node10 -->
<g id="edge11_Node000007_Node000010" class="edge">
<title>Node7&#45;&gt;Node10</title>
<g id="a_edge11_Node000007_Node000010"><a xlink:title=" ">
<path fill="none" stroke="#63b8ff" d="M386.74,-115.37C378.22,-106.47 364.74,-92.39 354.27,-81.45"/>
<polygon fill="#63b8ff" stroke="#63b8ff" points="356.74,-78.97 347.3,-74.17 351.68,-83.81 356.74,-78.97"/>
</a>
</g>
</g>
<!-- Node10&#45;&gt;Node3 -->
<g id="edge16_Node000010_Node000003" class="edge">
<title>Node10&#45;&gt;Node3</title>
<g id="a_edge16_Node000010_Node000003"><a xlink:title=" ">
<path fill="none" stroke="#63b8ff" d="M280.73,-54.97C227.8,-46.99 147.34,-34.3 68.16,-19.13"/>
<polygon fill="#63b8ff" stroke="#63b8ff" points="68.49,-15.63 58.01,-17.17 67.17,-22.5 68.49,-15.63"/>
</a>
</g>
</g>
<!-- Node10&#45;&gt;Node5 -->
<g id="edge13_Node000010_Node000005" class="edge">
<title>Node10&#45;&gt;Node5</title>
<g id="a_edge13_Node000010_Node000005"><a xlink:title=" ">
<path fill="none" stroke="#63b8ff" d="M312.65,-54.98C283.85,-45.68 237.72,-30.77 206.9,-20.81"/>
<polygon fill="#63b8ff" stroke="#63b8ff" points="207.67,-17.38 197.08,-17.63 205.52,-24.04 207.67,-17.38"/>
</a>
</g>
</g>
<!-- Node11 -->
<g id="Node000011" class="node">
<title>Node11</title>
<g id="a_Node000011"><a xlink:title=" ">
<polygon fill="#e0e0e0" stroke="#999999" points="503,-19 453,-19 453,0 503,0 503,-19"/>
<text text-anchor="middle" x="478" y="-7" font-family="Helvetica,sans-Serif" font-size="10.00">cstring</text>
</a>
</g>
</g>
<!-- Node10&#45;&gt;Node11 -->
<g id="edge12_Node000010_Node000011" class="edge">
<title>Node10&#45;&gt;Node11</title>
<g id="a_edge12_Node000010_Node000011"><a xlink:title=" ">
<path fill="none" stroke="#63b8ff" d="M361.33,-54.98C384.2,-46.27 419.96,-32.63 445.86,-22.75"/>
<polygon fill="#63b8ff" stroke="#63b8ff" points="447.16,-26 455.26,-19.17 444.67,-19.46 447.16,-26"/>
</a>
</g>
</g>
<!-- Node12 -->
<g id="Node000012" class="node">
<title>Node12</title>
<g id="a_Node000012"><a xlink:title=" ">
<polygon fill="#e0e0e0" stroke="#999999" points="288.5,-19 215.5,-19 215.5,0 288.5,0 288.5,-19"/>
<text text-anchor="middle" x="252" y="-7" font-family="Helvetica,sans-Serif" font-size="10.00">string_view</text>
</a>
</g>
</g>
<!-- Node10&#45;&gt;Node12 -->
<g id="edge14_Node000010_Node000012" class="edge">
<title>Node10&#45;&gt;Node12</title>
<g id="a_edge14_Node000010_Node000012"><a xlink:title=" ">
<path fill="none" stroke="#63b8ff" d="M325.02,-54.98C311.53,-46.77 290.87,-34.18 274.96,-24.49"/>
<polygon fill="#63b8ff" stroke="#63b8ff" points="276.59,-21.38 266.23,-19.17 272.95,-27.36 276.59,-21.38"/>
</a>
</g>
</g>
<!-- Node13 -->
<g id="Node000013" class="node">
<title>Node13</title>
<g id="a_Node000013"><a xlink:title=" ">
<polygon fill="#e0e0e0" stroke="#999999" points="371,-19 307,-19 307,0 371,0 371,-19"/>
<text text-anchor="middle" x="339" y="-7" font-family="Helvetica,sans-Serif" font-size="10.00">algorithm</text>
</a>
</g>
</g>
<!-- Node10&#45;&gt;Node13 -->
<g id="edge15_Node000010_Node000013" class="edge">
<title>Node10&#45;&gt;Node13</title>
<g id="a_edge15_Node000010_Node000013"><a xlink:title=" ">
<path fill="none" stroke="#63b8ff" d="M339,-54.75C339,-47.8 339,-37.85 339,-29.13"/>
<polygon fill="#63b8ff" stroke="#63b8ff" points="342.5,-29.09 339,-19.09 335.5,-29.09 342.5,-29.09"/>
</a>
</g>
</g>
<!-- Node14 -->
<g id="Node000014" class="node">
<title>Node14</title>
<g id="a_Node000014"><a xlink:title=" ">
<polygon fill="#e0e0e0" stroke="#999999" points="434.5,-19 389.5,-19 389.5,0 434.5,0 434.5,-19"/>
<text text-anchor="middle" x="412" y="-7" font-family="Helvetica,sans-Serif" font-size="10.00">utility</text>
</a>
</g>
</g>
<!-- Node10&#45;&gt;Node14 -->
<g id="edge17_Node000010_Node000014" class="edge">
<title>Node10&#45;&gt;Node14</title>
<g id="a_edge17_Node000010_Node000014"><a xlink:title=" ">
<path fill="none" stroke="#63b8ff" d="M350.73,-54.98C361.73,-47 378.42,-34.88 391.6,-25.31"/>
<polygon fill="#63b8ff" stroke="#63b8ff" points="394.02,-27.88 400.06,-19.17 389.91,-22.21 394.02,-27.88"/>
</a>
</g>
</g>
</g>
</svg>
