<?xml version="1.0" encoding="UTF-8" standalone="no"?>
<!DOCTYPE svg PUBLIC "-//W3C//DTD SVG 1.1//EN"
 "http://www.w3.org/Graphics/SVG/1.1/DTD/svg11.dtd">
<!-- Generated by graphviz version 2.43.0 (0)
 -->
<!-- Title: log_writer_interface.h Pages: 1 -->
<svg width="1097pt" height="247pt"
 viewBox="0.00 0.00 1096.50 247.00" xmlns="http://www.w3.org/2000/svg" xmlns:xlink="http://www.w3.org/1999/xlink">
<g id="graph0" class="graph" transform="scale(1 1) rotate(0) translate(4 243)">
<title>log_writer_interface.h</title>
<!-- Node1 -->
<g id="Node000001" class="node">
<title>Node1</title>
<g id="a_Node000001"><a xlink:title=" ">
<polygon fill="#999999" stroke="#666666" points="646,-239 523,-239 523,-220 646,-220 646,-239"/>
<text text-anchor="middle" x="584.5" y="-227" font-family="Helvetica,sans-Serif" font-size="10.00">log_writer_interface.h</text>
</a>
</g>
</g>
<!-- Node2 -->
<g id="Node000002" class="node">
<title>Node2</title>
<g id="a_Node000002"><a xlink:href="base__writer_8h.html" target="_top" xlink:title=" ">
<polygon fill="white" stroke="#666666" points="625.5,-184 543.5,-184 543.5,-165 625.5,-165 625.5,-184"/>
<text text-anchor="middle" x="584.5" y="-172" font-family="Helvetica,sans-Serif" font-size="10.00">base_writer.h</text>
</a>
</g>
</g>
<!-- Node1&#45;&gt;Node2 -->
<g id="edge1_Node000001_Node000002" class="edge">
<title>Node1&#45;&gt;Node2</title>
<g id="a_edge1_Node000001_Node000002"><a xlink:title=" ">
<path fill="none" stroke="#63b8ff" d="M584.5,-209.66C584.5,-200.93 584.5,-190.99 584.5,-184.09"/>
<polygon fill="#63b8ff" stroke="#63b8ff" points="581,-209.75 584.5,-219.75 588,-209.75 581,-209.75"/>
</a>
</g>
</g>
<!-- Node3 -->
<g id="Node000003" class="node">
<title>Node3</title>
<g id="a_Node000003"><a xlink:href="batch__writer_8h.html" target="_top" xlink:title=" ">
<polygon fill="white" stroke="#666666" points="188.5,-129 102.5,-129 102.5,-110 188.5,-110 188.5,-129"/>
<text text-anchor="middle" x="145.5" y="-117" font-family="Helvetica,sans-Serif" font-size="10.00">batch_writer.h</text>
</a>
</g>
</g>
<!-- Node2&#45;&gt;Node3 -->
<g id="edge2_Node000002_Node000003" class="edge">
<title>Node2&#45;&gt;Node3</title>
<g id="a_edge2_Node000002_Node000003"><a xlink:title=" ">
<path fill="none" stroke="#63b8ff" d="M533.12,-168.04C459.71,-160.13 320.63,-144.68 202.5,-129 198.04,-128.41 193.38,-127.76 188.74,-127.1"/>
<polygon fill="#63b8ff" stroke="#63b8ff" points="533.14,-171.57 543.46,-169.16 533.89,-164.61 533.14,-171.57"/>
</a>
</g>
</g>
<!-- Node5 -->
<g id="Node000005" class="node">
<title>Node5</title>
<g id="a_Node000005"><a xlink:href="logger__builder_8h.html" target="_top" xlink:title=" ">
<polygon fill="white" stroke="#666666" points="210,-74 115,-74 115,-55 210,-55 210,-74"/>
<text text-anchor="middle" x="162.5" y="-62" font-family="Helvetica,sans-Serif" font-size="10.00">logger_builder.h</text>
</a>
</g>
</g>
<!-- Node2&#45;&gt;Node5 -->
<g id="edge18_Node000002_Node000005" class="edge">
<title>Node2&#45;&gt;Node5</title>
<g id="a_edge18_Node000002_Node000005"><a xlink:title=" ">
<path fill="none" stroke="#63b8ff" d="M533.4,-170.63C449.73,-165.33 287.6,-152.35 235.5,-129 206.99,-116.22 181.37,-88.49 169.49,-74.28"/>
<polygon fill="#63b8ff" stroke="#63b8ff" points="533.25,-174.13 543.45,-171.25 533.68,-167.14 533.25,-174.13"/>
</a>
</g>
</g>
<!-- Node6 -->
<g id="Node000006" class="node">
<title>Node6</title>
<g id="a_Node000006"><a xlink:href="console__writer_8h.html" target="_top" xlink:title=" ">
<polygon fill="white" stroke="#666666" points="340.5,-129 244.5,-129 244.5,-110 340.5,-110 340.5,-129"/>
<text text-anchor="middle" x="292.5" y="-117" font-family="Helvetica,sans-Serif" font-size="10.00">console_writer.h</text>
</a>
</g>
</g>
<!-- Node2&#45;&gt;Node6 -->
<g id="edge5_Node000002_Node000006" class="edge">
<title>Node2&#45;&gt;Node6</title>
<g id="a_edge5_Node000002_Node000006"><a xlink:title=" ">
<path fill="none" stroke="#63b8ff" d="M533.12,-164.17C478.5,-154.26 392.82,-138.71 339.8,-129.08"/>
<polygon fill="#63b8ff" stroke="#63b8ff" points="532.82,-167.68 543.28,-166.02 534.07,-160.79 532.82,-167.68"/>
</a>
</g>
</g>
<!-- Node8 -->
<g id="Node000008" class="node">
<title>Node8</title>
<g id="a_Node000008"><a xlink:href="encrypted__writer_8h.html" target="_top" xlink:title=" ">
<polygon fill="white" stroke="#666666" points="466,-129 359,-129 359,-110 466,-110 466,-129"/>
<text text-anchor="middle" x="412.5" y="-117" font-family="Helvetica,sans-Serif" font-size="10.00">encrypted_writer.h</text>
</a>
</g>
</g>
<!-- Node2&#45;&gt;Node8 -->
<g id="edge7_Node000002_Node000008" class="edge">
<title>Node2&#45;&gt;Node8</title>
<g id="a_edge7_Node000002_Node000008"><a xlink:title=" ">
<path fill="none" stroke="#63b8ff" d="M546.94,-161.93C514.82,-152.03 469.31,-138.01 440.35,-129.08"/>
<polygon fill="#63b8ff" stroke="#63b8ff" points="546.28,-165.38 556.87,-164.98 548.34,-158.69 546.28,-165.38"/>
</a>
</g>
</g>
<!-- Node10 -->
<g id="Node000010" class="node">
<title>Node10</title>
<g id="a_Node000010"><a xlink:href="file__writer_8h.html" target="_top" xlink:title=" ">
<polygon fill="white" stroke="#666666" points="558.5,-129 484.5,-129 484.5,-110 558.5,-110 558.5,-129"/>
<text text-anchor="middle" x="521.5" y="-117" font-family="Helvetica,sans-Serif" font-size="10.00">file_writer.h</text>
</a>
</g>
</g>
<!-- Node2&#45;&gt;Node10 -->
<g id="edge9_Node000002_Node000010" class="edge">
<title>Node2&#45;&gt;Node10</title>
<g id="a_edge9_Node000002_Node000010"><a xlink:title=" ">
<path fill="none" stroke="#63b8ff" d="M566.46,-158.32C555.23,-148.87 541.18,-137.06 531.81,-129.17"/>
<polygon fill="#63b8ff" stroke="#63b8ff" points="564.47,-161.23 574.38,-164.98 568.98,-155.87 564.47,-161.23"/>
</a>
</g>
</g>
<!-- Node14 -->
<g id="Node000014" class="node">
<title>Node14</title>
<g id="a_Node000014"><a xlink:href="health__check__system_8cpp.html" target="_top" xlink:title=" ">
<polygon fill="white" stroke="#666666" points="720,-129 577,-129 577,-110 720,-110 720,-129"/>
<text text-anchor="middle" x="648.5" y="-117" font-family="Helvetica,sans-Serif" font-size="10.00">health_check_system.cpp</text>
</a>
</g>
</g>
<!-- Node2&#45;&gt;Node14 -->
<g id="edge13_Node000002_Node000014" class="edge">
<title>Node2&#45;&gt;Node14</title>
<g id="a_edge13_Node000002_Node000014"><a xlink:title=" ">
<path fill="none" stroke="#63b8ff" d="M602.49,-158.6C613.96,-149.11 628.41,-137.13 638.03,-129.17"/>
<polygon fill="#63b8ff" stroke="#63b8ff" points="600.25,-155.91 594.78,-164.98 604.72,-161.3 600.25,-155.91"/>
</a>
</g>
</g>
<!-- Node15 -->
<g id="Node000015" class="node">
<title>Node15</title>
<g id="a_Node000015"><a xlink:href="log__collector_8cpp.html" target="_top" xlink:title=" ">
<polygon fill="white" stroke="#666666" points="836.5,-129 738.5,-129 738.5,-110 836.5,-110 836.5,-129"/>
<text text-anchor="middle" x="787.5" y="-117" font-family="Helvetica,sans-Serif" font-size="10.00">log_collector.cpp</text>
</a>
</g>
</g>
<!-- Node2&#45;&gt;Node15 -->
<g id="edge14_Node000002_Node000015" class="edge">
<title>Node2&#45;&gt;Node15</title>
<g id="a_edge14_Node000002_Node000015"><a xlink:title=" ">
<path fill="none" stroke="#63b8ff" d="M626.87,-162.44C664.87,-152.52 719.86,-138.16 754.63,-129.08"/>
<polygon fill="#63b8ff" stroke="#63b8ff" points="625.91,-159.07 617.12,-164.98 627.68,-165.84 625.91,-159.07"/>
</a>
</g>
</g>
<!-- Node16 -->
<g id="Node000016" class="node">
<title>Node16</title>
<g id="a_Node000016"><a xlink:href="log__router_8h.html" target="_top" xlink:title=" ">
<polygon fill="white" stroke="#666666" points="928.5,-129 854.5,-129 854.5,-110 928.5,-110 928.5,-129"/>
<text text-anchor="middle" x="891.5" y="-117" font-family="Helvetica,sans-Serif" font-size="10.00">log_router.h</text>
</a>
</g>
</g>
<!-- Node2&#45;&gt;Node16 -->
<g id="edge15_Node000002_Node000016" class="edge">
<title>Node2&#45;&gt;Node16</title>
<g id="a_edge15_Node000002_Node000016"><a xlink:title=" ">
<path fill="none" stroke="#63b8ff" d="M635.76,-164.98C688.42,-156.17 772.73,-141.93 845.5,-129 848.38,-128.49 851.36,-127.95 854.35,-127.41"/>
<polygon fill="#63b8ff" stroke="#63b8ff" points="634.95,-161.56 625.67,-166.66 636.11,-168.47 634.95,-161.56"/>
</a>
</g>
</g>
<!-- Node17 -->
<g id="Node000017" class="node">
<title>Node17</title>
<g id="a_Node000017"><a xlink:href="logger_8cpp.html" target="_top" xlink:title=" ">
<polygon fill="white" stroke="#666666" points="942,-74 875,-74 875,-55 942,-55 942,-74"/>
<text text-anchor="middle" x="908.5" y="-62" font-family="Helvetica,sans-Serif" font-size="10.00">logger.cpp</text>
</a>
</g>
</g>
<!-- Node2&#45;&gt;Node17 -->
<g id="edge17_Node000002_Node000017" class="edge">
<title>Node2&#45;&gt;Node17</title>
<g id="a_edge17_Node000002_Node000017"><a xlink:title=" ">
<path fill="none" stroke="#63b8ff" d="M635.56,-170.74C728.56,-165.19 917.86,-151.27 937.5,-129 952.09,-112.46 931.28,-87.34 918.03,-74.2"/>
<polygon fill="#63b8ff" stroke="#63b8ff" points="635.29,-167.25 625.52,-171.33 635.7,-174.24 635.29,-167.25"/>
</a>
</g>
</g>
<!-- Node18 -->
<g id="Node000018" class="node">
<title>Node18</title>
<g id="a_Node000018"><a xlink:href="network__writer_8h.html" target="_top" xlink:title=" ">
<polygon fill="white" stroke="#666666" points="1082.5,-129 984.5,-129 984.5,-110 1082.5,-110 1082.5,-129"/>
<text text-anchor="middle" x="1033.5" y="-117" font-family="Helvetica,sans-Serif" font-size="10.00">network_writer.h</text>
</a>
</g>
</g>
<!-- Node2&#45;&gt;Node18 -->
<g id="edge19_Node000002_Node000018" class="edge">
<title>Node2&#45;&gt;Node18</title>
<g id="a_edge19_Node000002_Node000018"><a xlink:title=" ">
<path fill="none" stroke="#63b8ff" d="M635.64,-167.92C709.58,-159.79 850.63,-143.99 970.5,-129 974.99,-128.44 979.66,-127.84 984.33,-127.23"/>
<polygon fill="#63b8ff" stroke="#63b8ff" points="635.22,-164.45 625.66,-169.02 635.99,-171.41 635.22,-164.45"/>
</a>
</g>
</g>
<!-- Node4 -->
<g id="Node000004" class="node">
<title>Node4</title>
<g id="a_Node000004"><a xlink:href="batch__writer_8cpp.html" target="_top" xlink:title=" ">
<polygon fill="white" stroke="#666666" points="97,-74 0,-74 0,-55 97,-55 97,-74"/>
<text text-anchor="middle" x="48.5" y="-62" font-family="Helvetica,sans-Serif" font-size="10.00">batch_writer.cpp</text>
</a>
</g>
</g>
<!-- Node3&#45;&gt;Node4 -->
<g id="edge3_Node000003_Node000004" class="edge">
<title>Node3&#45;&gt;Node4</title>
<g id="a_edge3_Node000003_Node000004"><a xlink:title=" ">
<path fill="none" stroke="#63b8ff" d="M120.73,-104.97C103,-95.28 79.65,-82.52 64.37,-74.17"/>
<polygon fill="#63b8ff" stroke="#63b8ff" points="119.46,-108.26 129.92,-109.98 122.82,-102.12 119.46,-108.26"/>
</a>
</g>
</g>
<!-- Node3&#45;&gt;Node5 -->
<g id="edge4_Node000003_Node000005" class="edge">
<title>Node3&#45;&gt;Node5</title>
<g id="a_edge4_Node000003_Node000005"><a xlink:title=" ">
<path fill="none" stroke="#63b8ff" d="M151.45,-99.95C154.27,-91.15 157.51,-81.06 159.75,-74.09"/>
<polygon fill="#63b8ff" stroke="#63b8ff" points="148.03,-99.16 148.31,-109.75 154.69,-101.29 148.03,-99.16"/>
</a>
</g>
</g>
<!-- Node7 -->
<g id="Node000007" class="node">
<title>Node7</title>
<g id="a_Node000007"><a xlink:href="console__writer_8cpp.html" target="_top" xlink:title=" ">
<polygon fill="white" stroke="#666666" points="335,-74 228,-74 228,-55 335,-55 335,-74"/>
<text text-anchor="middle" x="281.5" y="-62" font-family="Helvetica,sans-Serif" font-size="10.00">console_writer.cpp</text>
</a>
</g>
</g>
<!-- Node6&#45;&gt;Node7 -->
<g id="edge6_Node000006_Node000007" class="edge">
<title>Node6&#45;&gt;Node7</title>
<g id="a_edge6_Node000006_Node000007"><a xlink:title=" ">
<path fill="none" stroke="#63b8ff" d="M288.65,-99.95C286.82,-91.15 284.73,-81.06 283.28,-74.09"/>
<polygon fill="#63b8ff" stroke="#63b8ff" points="285.22,-100.67 290.68,-109.75 292.08,-99.25 285.22,-100.67"/>
</a>
</g>
</g>
<!-- Node9 -->
<g id="Node000009" class="node">
<title>Node9</title>
<g id="a_Node000009"><a xlink:href="encrypted__writer_8cpp.html" target="_top" xlink:title=" ">
<polygon fill="white" stroke="#666666" points="472,-74 353,-74 353,-55 472,-55 472,-74"/>
<text text-anchor="middle" x="412.5" y="-62" font-family="Helvetica,sans-Serif" font-size="10.00">encrypted_writer.cpp</text>
</a>
</g>
</g>
<!-- Node8&#45;&gt;Node9 -->
<g id="edge8_Node000008_Node000009" class="edge">
<title>Node8&#45;&gt;Node9</title>
<g id="a_edge8_Node000008_Node000009"><a xlink:title=" ">
<path fill="none" stroke="#63b8ff" d="M412.5,-99.66C412.5,-90.93 412.5,-80.99 412.5,-74.09"/>
<polygon fill="#63b8ff" stroke="#63b8ff" points="409,-99.75 412.5,-109.75 416,-99.75 409,-99.75"/>
</a>
</g>
</g>
<!-- Node11 -->
<g id="Node000011" class="node">
<title>Node11</title>
<g id="a_Node000011"><a xlink:href="file__writer_8cpp.html" target="_top" xlink:title=" ">
<polygon fill="white" stroke="#666666" points="575,-74 490,-74 490,-55 575,-55 575,-74"/>
<text text-anchor="middle" x="532.5" y="-62" font-family="Helvetica,sans-Serif" font-size="10.00">file_writer.cpp</text>
</a>
</g>
</g>
<!-- Node10&#45;&gt;Node11 -->
<g id="edge10_Node000010_Node000011" class="edge">
<title>Node10&#45;&gt;Node11</title>
<g id="a_edge10_Node000010_Node000011"><a xlink:title=" ">
<path fill="none" stroke="#63b8ff" d="M525.35,-99.95C527.18,-91.15 529.27,-81.06 530.72,-74.09"/>
<polygon fill="#63b8ff" stroke="#63b8ff" points="521.92,-99.25 523.32,-109.75 528.78,-100.67 521.92,-99.25"/>
</a>
</g>
</g>
<!-- Node12 -->
<g id="Node000012" class="node">
<title>Node12</title>
<g id="a_Node000012"><a xlink:href="rotating__file__writer_8h.html" target="_top" xlink:title=" ">
<polygon fill="white" stroke="#666666" points="710,-74 593,-74 593,-55 710,-55 710,-74"/>
<text text-anchor="middle" x="651.5" y="-62" font-family="Helvetica,sans-Serif" font-size="10.00">rotating_file_writer.h</text>
</a>
</g>
</g>
<!-- Node10&#45;&gt;Node12 -->
<g id="edge11_Node000010_Node000012" class="edge">
<title>Node10&#45;&gt;Node12</title>
<g id="a_edge11_Node000010_Node000012"><a xlink:title=" ">
<path fill="none" stroke="#63b8ff" d="M551.77,-106.16C575.84,-96.35 608.9,-82.87 630.23,-74.17"/>
<polygon fill="#63b8ff" stroke="#63b8ff" points="550.33,-102.97 542.39,-109.98 552.97,-109.45 550.33,-102.97"/>
</a>
</g>
</g>
<!-- Node13 -->
<g id="Node000013" class="node">
<title>Node13</title>
<g id="a_Node000013"><a xlink:href="rotating__file__writer_8cpp.html" target="_top" xlink:title=" ">
<polygon fill="white" stroke="#666666" points="715.5,-19 587.5,-19 587.5,0 715.5,0 715.5,-19"/>
<text text-anchor="middle" x="651.5" y="-7" font-family="Helvetica,sans-Serif" font-size="10.00">rotating_file_writer.cpp</text>
</a>
</g>
</g>
<!-- Node12&#45;&gt;Node13 -->
<g id="edge12_Node000012_Node000013" class="edge">
<title>Node12&#45;&gt;Node13</title>
<g id="a_edge12_Node000012_Node000013"><a xlink:title=" ">
<path fill="none" stroke="#63b8ff" d="M651.5,-44.66C651.5,-35.93 651.5,-25.99 651.5,-19.09"/>
<polygon fill="#63b8ff" stroke="#63b8ff" points="648,-44.75 651.5,-54.75 655,-44.75 648,-44.75"/>
</a>
</g>
</g>
<!-- Node16&#45;&gt;Node17 -->
<g id="edge16_Node000016_Node000017" class="edge">
<title>Node16&#45;&gt;Node17</title>
<g id="a_edge16_Node000016_Node000017"><a xlink:title=" ">
<path fill="none" stroke="#63b8ff" d="M897.45,-99.95C900.27,-91.15 903.51,-81.06 905.75,-74.09"/>
<polygon fill="#63b8ff" stroke="#63b8ff" points="894.03,-99.16 894.31,-109.75 900.69,-101.29 894.03,-99.16"/>
</a>
</g>
</g>
<!-- Node19 -->
<g id="Node000019" class="node">
<title>Node19</title>
<g id="a_Node000019"><a xlink:href="network__writer_8cpp.html" target="_top" xlink:title=" ">
<polygon fill="white" stroke="#666666" points="1088.5,-74 978.5,-74 978.5,-55 1088.5,-55 1088.5,-74"/>
<text text-anchor="middle" x="1033.5" y="-62" font-family="Helvetica,sans-Serif" font-size="10.00">network_writer.cpp</text>
</a>
</g>
</g>
<!-- Node18&#45;&gt;Node19 -->
<g id="edge20_Node000018_Node000019" class="edge">
<title>Node18&#45;&gt;Node19</title>
<g id="a_edge20_Node000018_Node000019"><a xlink:title=" ">
<path fill="none" stroke="#63b8ff" d="M1033.5,-99.66C1033.5,-90.93 1033.5,-80.99 1033.5,-74.09"/>
<polygon fill="#63b8ff" stroke="#63b8ff" points="1030,-99.75 1033.5,-109.75 1037,-99.75 1030,-99.75"/>
</a>
</g>
</g>
</g>
</svg>
