<?xml version="1.0" encoding="UTF-8" standalone="no"?>
<!DOCTYPE svg PUBLIC "-//W3C//DTD SVG 1.1//EN"
 "http://www.w3.org/Graphics/SVG/1.1/DTD/svg11.dtd">
<!-- Generated by graphviz version 2.43.0 (0)
 -->
<!-- Title: log_router.h Pages: 1 -->
<svg width="861pt" height="269pt"
 viewBox="0.00 0.00 861.00 269.00" xmlns="http://www.w3.org/2000/svg" xmlns:xlink="http://www.w3.org/1999/xlink">
<g id="graph0" class="graph" transform="scale(1 1) rotate(0) translate(4 265)">
<title>log_router.h</title>
<!-- Node1 -->
<g id="Node000001" class="node">
<title>Node1</title>
<g id="a_Node000001"><a xlink:title=" ">
<polygon fill="#999999" stroke="#666666" points="598,-261 524,-261 524,-242 598,-242 598,-261"/>
<text text-anchor="middle" x="561" y="-249" font-family="Helvetica,sans-Serif" font-size="10.00">log_router.h</text>
</a>
</g>
</g>
<!-- Node2 -->
<g id="Node000002" class="node">
<title>Node2</title>
<g id="a_Node000002"><a xlink:href="log__filter_8h.html" target="_top" xlink:title=" ">
<polygon fill="white" stroke="#666666" points="330.5,-206 223.5,-206 223.5,-187 330.5,-187 330.5,-206"/>
<text text-anchor="middle" x="277" y="-194" font-family="Helvetica,sans-Serif" font-size="10.00">../filters/log_filter.h</text>
</a>
</g>
</g>
<!-- Node1&#45;&gt;Node2 -->
<g id="edge1_Node000001_Node000002" class="edge">
<title>Node1&#45;&gt;Node2</title>
<g id="a_edge1_Node000001_Node000002"><a xlink:title=" ">
<path fill="none" stroke="#63b8ff" d="M523.87,-243.57C475.08,-234.47 388.96,-218.39 332.44,-207.85"/>
<polygon fill="#63b8ff" stroke="#63b8ff" points="333.06,-204.4 322.59,-206.01 331.78,-211.28 333.06,-204.4"/>
</a>
</g>
</g>
<!-- Node4 -->
<g id="Node000004" class="node">
<title>Node4</title>
<g id="a_Node000004"><a xlink:title=" ">
<polygon fill="#e0e0e0" stroke="#999999" points="58,-19 0,-19 0,0 58,0 58,-19"/>
<text text-anchor="middle" x="29" y="-7" font-family="Helvetica,sans-Serif" font-size="10.00">memory</text>
</a>
</g>
</g>
<!-- Node1&#45;&gt;Node4 -->
<g id="edge40_Node000001_Node000004" class="edge">
<title>Node1&#45;&gt;Node4</title>
<g id="a_edge40_Node000001_Node000004"><a xlink:title=" ">
<path fill="none" stroke="#63b8ff" d="M523.73,-247.83C420.05,-239.7 131.33,-211.95 62,-151 37.22,-129.21 35.77,-117.07 28,-85 24.86,-72.04 27.85,-68.33 28,-55 28.1,-46.49 28.29,-37.07 28.49,-29.09"/>
<polygon fill="#63b8ff" stroke="#63b8ff" points="31.99,-29.12 28.75,-19.03 24.99,-28.94 31.99,-29.12"/>
</a>
</g>
</g>
<!-- Node18 -->
<g id="Node000018" class="node">
<title>Node18</title>
<g id="a_Node000018"><a xlink:href="base__writer_8h.html" target="_top" xlink:title=" ">
<polygon fill="white" stroke="#666666" points="572,-206 444,-206 444,-187 572,-187 572,-206"/>
<text text-anchor="middle" x="508" y="-194" font-family="Helvetica,sans-Serif" font-size="10.00">../writers/base_writer.h</text>
</a>
</g>
</g>
<!-- Node1&#45;&gt;Node18 -->
<g id="edge24_Node000001_Node000018" class="edge">
<title>Node1&#45;&gt;Node18</title>
<g id="a_edge24_Node000001_Node000018"><a xlink:title=" ">
<path fill="none" stroke="#63b8ff" d="M552.25,-241.75C544.53,-234.03 533.1,-222.6 523.78,-213.28"/>
<polygon fill="#63b8ff" stroke="#63b8ff" points="526.14,-210.69 516.59,-206.09 521.19,-215.64 526.14,-210.69"/>
</a>
</g>
</g>
<!-- Node23 -->
<g id="Node000023" class="node">
<title>Node23</title>
<g id="a_Node000023"><a xlink:title=" ">
<polygon fill="#e0e0e0" stroke="#999999" points="637.5,-206 590.5,-206 590.5,-187 637.5,-187 637.5,-206"/>
<text text-anchor="middle" x="614" y="-194" font-family="Helvetica,sans-Serif" font-size="10.00">vector</text>
</a>
</g>
</g>
<!-- Node1&#45;&gt;Node23 -->
<g id="edge39_Node000001_Node000023" class="edge">
<title>Node1&#45;&gt;Node23</title>
<g id="a_edge39_Node000001_Node000023"><a xlink:title=" ">
<path fill="none" stroke="#63b8ff" d="M569.75,-241.75C577.47,-234.03 588.9,-222.6 598.22,-213.28"/>
<polygon fill="#63b8ff" stroke="#63b8ff" points="600.81,-215.64 605.41,-206.09 595.86,-210.69 600.81,-215.64"/>
</a>
</g>
</g>
<!-- Node24 -->
<g id="Node000024" class="node">
<title>Node24</title>
<g id="a_Node000024"><a xlink:title=" ">
<polygon fill="#e0e0e0" stroke="#999999" points="748.5,-206 655.5,-206 655.5,-187 748.5,-187 748.5,-206"/>
<text text-anchor="middle" x="702" y="-194" font-family="Helvetica,sans-Serif" font-size="10.00">unordered_map</text>
</a>
</g>
</g>
<!-- Node1&#45;&gt;Node24 -->
<g id="edge41_Node000001_Node000024" class="edge">
<title>Node1&#45;&gt;Node24</title>
<g id="a_edge41_Node000001_Node000024"><a xlink:title=" ">
<path fill="none" stroke="#63b8ff" d="M583.65,-241.98C606.85,-233.27 643.12,-219.63 669.4,-209.75"/>
<polygon fill="#63b8ff" stroke="#63b8ff" points="670.8,-212.97 678.93,-206.17 668.34,-206.41 670.8,-212.97"/>
</a>
</g>
</g>
<!-- Node25 -->
<g id="Node000025" class="node">
<title>Node25</title>
<g id="a_Node000025"><a xlink:title=" ">
<polygon fill="#e0e0e0" stroke="#999999" points="853,-206 767,-206 767,-187 853,-187 853,-206"/>
<text text-anchor="middle" x="810" y="-194" font-family="Helvetica,sans-Serif" font-size="10.00">unordered_set</text>
</a>
</g>
</g>
<!-- Node1&#45;&gt;Node25 -->
<g id="edge42_Node000001_Node000025" class="edge">
<title>Node1&#45;&gt;Node25</title>
<g id="a_edge42_Node000001_Node000025"><a xlink:title=" ">
<path fill="none" stroke="#63b8ff" d="M598.01,-242.62C641.01,-233.47 712.17,-218.32 760.05,-208.13"/>
<polygon fill="#63b8ff" stroke="#63b8ff" points="760.84,-211.54 769.9,-206.04 759.39,-204.69 760.84,-211.54"/>
</a>
</g>
</g>
<!-- Node3 -->
<g id="Node000003" class="node">
<title>Node3</title>
<g id="a_Node000003"><a xlink:href="logger__interface_8h.html" target="_top" xlink:title=" ">
<polygon fill="white" stroke="#666666" points="164,-79.5 50,-79.5 50,-60.5 164,-60.5 164,-79.5"/>
<text text-anchor="middle" x="107" y="-67.5" font-family="Helvetica,sans-Serif" font-size="10.00">../logger_interface.h</text>
</a>
</g>
</g>
<!-- Node2&#45;&gt;Node3 -->
<g id="edge2_Node000002_Node000003" class="edge">
<title>Node2&#45;&gt;Node3</title>
<g id="a_edge2_Node000002_Node000003"><a xlink:title=" ">
<path fill="none" stroke="#63b8ff" d="M223.24,-192.82C190.79,-188.36 151.01,-177.38 126,-151 110.46,-134.61 106.87,-107.91 106.4,-89.91"/>
<polygon fill="#63b8ff" stroke="#63b8ff" points="109.9,-89.78 106.43,-79.77 102.9,-89.76 109.9,-89.78"/>
</a>
</g>
</g>
<!-- Node2&#45;&gt;Node4 -->
<g id="edge22_Node000002_Node000004" class="edge">
<title>Node2&#45;&gt;Node4</title>
<g id="a_edge22_Node000002_Node000004"><a xlink:title=" ">
<path fill="none" stroke="#63b8ff" d="M223.3,-188.87C188.39,-182.83 142.86,-171.57 107,-151 71.01,-130.36 59.88,-121.94 41,-85 32.08,-67.54 29.48,-45.03 28.87,-29.34"/>
<polygon fill="#63b8ff" stroke="#63b8ff" points="32.37,-29.24 28.71,-19.3 25.37,-29.35 32.37,-29.24"/>
</a>
</g>
</g>
<!-- Node6 -->
<g id="Node000006" class="node">
<title>Node6</title>
<g id="a_Node000006"><a xlink:title=" ">
<polygon fill="#e0e0e0" stroke="#999999" points="448,-19 404,-19 404,0 448,0 448,-19"/>
<text text-anchor="middle" x="426" y="-7" font-family="Helvetica,sans-Serif" font-size="10.00">string</text>
</a>
</g>
</g>
<!-- Node2&#45;&gt;Node6 -->
<g id="edge20_Node000002_Node000006" class="edge">
<title>Node2&#45;&gt;Node6</title>
<g id="a_edge20_Node000002_Node000006"><a xlink:title=" ">
<path fill="none" stroke="#63b8ff" d="M279.5,-186.89C286.74,-163.25 309.72,-96.32 349,-55 361.86,-41.47 379.75,-30.8 395.05,-23.3"/>
<polygon fill="#63b8ff" stroke="#63b8ff" points="396.59,-26.44 404.17,-19.04 393.63,-20.1 396.59,-26.44"/>
</a>
</g>
</g>
<!-- Node7 -->
<g id="Node000007" class="node">
<title>Node7</title>
<g id="a_Node000007"><a xlink:href="log__filter__interface_8h.html" target="_top" xlink:title=" ">
<polygon fill="white" stroke="#666666" points="478,-85 358,-85 358,-55 478,-55 478,-85"/>
<text text-anchor="start" x="366" y="-73" font-family="Helvetica,sans-Serif" font-size="10.00">../interfaces/log_filter</text>
<text text-anchor="middle" x="418" y="-62" font-family="Helvetica,sans-Serif" font-size="10.00">_interface.h</text>
</a>
</g>
</g>
<!-- Node2&#45;&gt;Node7 -->
<g id="edge6_Node000002_Node000007" class="edge">
<title>Node2&#45;&gt;Node7</title>
<g id="a_edge6_Node000002_Node000007"><a xlink:title=" ">
<path fill="none" stroke="#63b8ff" d="M291.57,-186.99C305.4,-178.62 326.48,-165.07 343,-151 364.05,-133.07 385.36,-109.74 399.85,-92.9"/>
<polygon fill="#63b8ff" stroke="#63b8ff" points="402.58,-95.1 406.39,-85.21 397.24,-90.56 402.58,-95.1"/>
</a>
</g>
</g>
<!-- Node8 -->
<g id="Node000008" class="node">
<title>Node8</title>
<g id="a_Node000008"><a xlink:href="log__entry_8h.html" target="_top" xlink:title=" ">
<polygon fill="white" stroke="#666666" points="526.5,-145.5 395.5,-145.5 395.5,-126.5 526.5,-126.5 526.5,-145.5"/>
<text text-anchor="middle" x="461" y="-133.5" font-family="Helvetica,sans-Serif" font-size="10.00">../interfaces/log_entry.h</text>
</a>
</g>
</g>
<!-- Node2&#45;&gt;Node8 -->
<g id="edge8_Node000002_Node000008" class="edge">
<title>Node2&#45;&gt;Node8</title>
<g id="a_edge8_Node000002_Node000008"><a xlink:title=" ">
<path fill="none" stroke="#63b8ff" d="M303.76,-186.99C335.64,-176.86 389.07,-159.87 424.68,-148.55"/>
<polygon fill="#63b8ff" stroke="#63b8ff" points="425.74,-151.88 434.21,-145.52 423.62,-145.21 425.74,-151.88"/>
</a>
</g>
</g>
<!-- Node16 -->
<g id="Node000016" class="node">
<title>Node16</title>
<g id="a_Node000016"><a xlink:title=" ">
<polygon fill="#e0e0e0" stroke="#999999" points="179,-145.5 135,-145.5 135,-126.5 179,-126.5 179,-145.5"/>
<text text-anchor="middle" x="157" y="-133.5" font-family="Helvetica,sans-Serif" font-size="10.00">regex</text>
</a>
</g>
</g>
<!-- Node2&#45;&gt;Node16 -->
<g id="edge21_Node000002_Node000016" class="edge">
<title>Node2&#45;&gt;Node16</title>
<g id="a_edge21_Node000002_Node000016"><a xlink:title=" ">
<path fill="none" stroke="#63b8ff" d="M259.55,-186.99C239.64,-177.29 206.86,-161.31 183.73,-150.03"/>
<polygon fill="#63b8ff" stroke="#63b8ff" points="184.99,-146.75 174.47,-145.52 181.93,-153.04 184.99,-146.75"/>
</a>
</g>
</g>
<!-- Node17 -->
<g id="Node000017" class="node">
<title>Node17</title>
<g id="a_Node000017"><a xlink:title=" ">
<polygon fill="#e0e0e0" stroke="#999999" points="262.5,-145.5 197.5,-145.5 197.5,-126.5 262.5,-126.5 262.5,-145.5"/>
<text text-anchor="middle" x="230" y="-133.5" font-family="Helvetica,sans-Serif" font-size="10.00">functional</text>
</a>
</g>
</g>
<!-- Node2&#45;&gt;Node17 -->
<g id="edge23_Node000002_Node000017" class="edge">
<title>Node2&#45;&gt;Node17</title>
<g id="a_edge23_Node000002_Node000017"><a xlink:title=" ">
<path fill="none" stroke="#63b8ff" d="M270.06,-186.87C263.05,-178.14 252.04,-164.43 243.33,-153.59"/>
<polygon fill="#63b8ff" stroke="#63b8ff" points="245.96,-151.27 236.96,-145.67 240.5,-155.66 245.96,-151.27"/>
</a>
</g>
</g>
<!-- Node3&#45;&gt;Node4 -->
<g id="edge3_Node000003_Node000004" class="edge">
<title>Node3&#45;&gt;Node4</title>
<g id="a_edge3_Node000003_Node000004"><a xlink:title=" ">
<path fill="none" stroke="#63b8ff" d="M95.49,-60.37C83.16,-51.12 63.38,-36.28 48.59,-25.19"/>
<polygon fill="#63b8ff" stroke="#63b8ff" points="50.66,-22.37 40.56,-19.17 46.46,-27.97 50.66,-22.37"/>
</a>
</g>
</g>
<!-- Node5 -->
<g id="Node000005" class="node">
<title>Node5</title>
<g id="a_Node000005"><a xlink:title=" ">
<polygon fill="#e0e0e0" stroke="#999999" points="124,-19 76,-19 76,0 124,0 124,-19"/>
<text text-anchor="middle" x="100" y="-7" font-family="Helvetica,sans-Serif" font-size="10.00">mutex</text>
</a>
</g>
</g>
<!-- Node3&#45;&gt;Node5 -->
<g id="edge4_Node000003_Node000005" class="edge">
<title>Node3&#45;&gt;Node5</title>
<g id="a_edge4_Node000003_Node000005"><a xlink:title=" ">
<path fill="none" stroke="#63b8ff" d="M105.97,-60.37C105,-52.25 103.51,-39.81 102.26,-29.39"/>
<polygon fill="#63b8ff" stroke="#63b8ff" points="105.7,-28.68 101.04,-19.17 98.75,-29.51 105.7,-28.68"/>
</a>
</g>
</g>
<!-- Node3&#45;&gt;Node6 -->
<g id="edge5_Node000003_Node000006" class="edge">
<title>Node3&#45;&gt;Node6</title>
<g id="a_edge5_Node000003_Node000006"><a xlink:title=" ">
<path fill="none" stroke="#63b8ff" d="M146.04,-60.48C154.89,-58.62 164.26,-56.69 173,-55 252.17,-39.65 345.72,-23.78 393.84,-15.79"/>
<polygon fill="#63b8ff" stroke="#63b8ff" points="394.66,-19.2 403.96,-14.11 393.52,-12.29 394.66,-19.2"/>
</a>
</g>
</g>
<!-- Node7&#45;&gt;Node6 -->
<g id="edge7_Node000007_Node000006" class="edge">
<title>Node7&#45;&gt;Node6</title>
<g id="a_edge7_Node000007_Node000006"><a xlink:title=" ">
<path fill="none" stroke="#63b8ff" d="M419.94,-54.84C420.98,-47.21 422.28,-37.7 423.41,-29.45"/>
<polygon fill="#63b8ff" stroke="#63b8ff" points="426.91,-29.65 424.8,-19.27 419.98,-28.7 426.91,-29.65"/>
</a>
</g>
</g>
<!-- Node8&#45;&gt;Node3 -->
<g id="edge19_Node000008_Node000003" class="edge">
<title>Node8&#45;&gt;Node3</title>
<g id="a_edge19_Node000008_Node000003"><a xlink:title=" ">
<path fill="none" stroke="#63b8ff" d="M408.34,-126.46C350.51,-116.94 254.97,-100.8 173,-85 167.54,-83.95 161.83,-82.8 156.15,-81.64"/>
<polygon fill="#63b8ff" stroke="#63b8ff" points="156.54,-78.14 146.04,-79.53 155.12,-85 156.54,-78.14"/>
</a>
</g>
</g>
<!-- Node8&#45;&gt;Node6 -->
<g id="edge9_Node000008_Node000006" class="edge">
<title>Node8&#45;&gt;Node6</title>
<g id="a_edge9_Node000008_Node000006"><a xlink:title=" ">
<path fill="none" stroke="#63b8ff" d="M468.16,-126.25C479.59,-111.15 499.44,-79.48 487,-55 480.23,-41.68 467.4,-31.41 455.25,-24.1"/>
<polygon fill="#63b8ff" stroke="#63b8ff" points="456.64,-20.87 446.2,-19.09 453.25,-26.99 456.64,-20.87"/>
</a>
</g>
</g>
<!-- Node9 -->
<g id="Node000009" class="node">
<title>Node9</title>
<g id="a_Node000009"><a xlink:title=" ">
<polygon fill="#e0e0e0" stroke="#999999" points="660,-79.5 610,-79.5 610,-60.5 660,-60.5 660,-79.5"/>
<text text-anchor="middle" x="635" y="-67.5" font-family="Helvetica,sans-Serif" font-size="10.00">chrono</text>
</a>
</g>
</g>
<!-- Node8&#45;&gt;Node9 -->
<g id="edge10_Node000008_Node000009" class="edge">
<title>Node8&#45;&gt;Node9</title>
<g id="a_edge10_Node000008_Node000009"><a xlink:title=" ">
<path fill="none" stroke="#63b8ff" d="M484.47,-126.37C514.78,-115.22 567.71,-95.75 602.04,-83.12"/>
<polygon fill="#63b8ff" stroke="#63b8ff" points="603.45,-86.33 611.63,-79.6 601.03,-79.76 603.45,-86.33"/>
</a>
</g>
</g>
<!-- Node10 -->
<g id="Node000010" class="node">
<title>Node10</title>
<g id="a_Node000010"><a xlink:title=" ">
<polygon fill="#e0e0e0" stroke="#999999" points="622,-19 566,-19 566,0 622,0 622,-19"/>
<text text-anchor="middle" x="594" y="-7" font-family="Helvetica,sans-Serif" font-size="10.00">optional</text>
</a>
</g>
</g>
<!-- Node8&#45;&gt;Node10 -->
<g id="edge11_Node000008_Node000010" class="edge">
<title>Node8&#45;&gt;Node10</title>
<g id="a_edge11_Node000008_Node000010"><a xlink:title=" ">
<path fill="none" stroke="#63b8ff" d="M470.14,-126.44C492.26,-105.74 548.9,-52.71 577.28,-26.15"/>
<polygon fill="#63b8ff" stroke="#63b8ff" points="579.89,-28.51 584.79,-19.12 575.1,-23.4 579.89,-28.51"/>
</a>
</g>
</g>
<!-- Node11 -->
<g id="Node000011" class="node">
<title>Node11</title>
<g id="a_Node000011"><a xlink:href="small__string_8h.html" target="_top" xlink:title=" ">
<polygon fill="white" stroke="#666666" points="301.5,-79.5 182.5,-79.5 182.5,-60.5 301.5,-60.5 301.5,-79.5"/>
<text text-anchor="middle" x="242" y="-67.5" font-family="Helvetica,sans-Serif" font-size="10.00">../core/small_string.h</text>
</a>
</g>
</g>
<!-- Node8&#45;&gt;Node11 -->
<g id="edge12_Node000008_Node000011" class="edge">
<title>Node8&#45;&gt;Node11</title>
<g id="a_edge12_Node000008_Node000011"><a xlink:title=" ">
<path fill="none" stroke="#63b8ff" d="M431.46,-126.37C392.66,-115.03 324.4,-95.08 281.28,-82.48"/>
<polygon fill="#63b8ff" stroke="#63b8ff" points="282,-79.04 271.42,-79.6 280.03,-85.76 282,-79.04"/>
</a>
</g>
</g>
<!-- Node11&#45;&gt;Node4 -->
<g id="edge17_Node000011_Node000004" class="edge">
<title>Node11&#45;&gt;Node4</title>
<g id="a_edge17_Node000011_Node000004"><a xlink:title=" ">
<path fill="none" stroke="#63b8ff" d="M211.03,-60.49C173.19,-50.1 109.14,-32.51 67.98,-21.21"/>
<polygon fill="#63b8ff" stroke="#63b8ff" points="68.87,-17.82 58.3,-18.55 67.01,-24.57 68.87,-17.82"/>
</a>
</g>
</g>
<!-- Node11&#45;&gt;Node6 -->
<g id="edge14_Node000011_Node000006" class="edge">
<title>Node11&#45;&gt;Node6</title>
<g id="a_edge14_Node000011_Node000006"><a xlink:title=" ">
<path fill="none" stroke="#63b8ff" d="M268.76,-60.49C301.96,-49.94 358.52,-31.95 393.99,-20.68"/>
<polygon fill="#63b8ff" stroke="#63b8ff" points="395.36,-23.91 403.83,-17.55 393.24,-17.24 395.36,-23.91"/>
</a>
</g>
</g>
<!-- Node12 -->
<g id="Node000012" class="node">
<title>Node12</title>
<g id="a_Node000012"><a xlink:title=" ">
<polygon fill="#e0e0e0" stroke="#999999" points="274,-19 224,-19 224,0 274,0 274,-19"/>
<text text-anchor="middle" x="249" y="-7" font-family="Helvetica,sans-Serif" font-size="10.00">cstring</text>
</a>
</g>
</g>
<!-- Node11&#45;&gt;Node12 -->
<g id="edge13_Node000011_Node000012" class="edge">
<title>Node11&#45;&gt;Node12</title>
<g id="a_edge13_Node000011_Node000012"><a xlink:title=" ">
<path fill="none" stroke="#63b8ff" d="M243.03,-60.37C244,-52.25 245.49,-39.81 246.74,-29.39"/>
<polygon fill="#63b8ff" stroke="#63b8ff" points="250.25,-29.51 247.96,-19.17 243.3,-28.68 250.25,-29.51"/>
</a>
</g>
</g>
<!-- Node13 -->
<g id="Node000013" class="node">
<title>Node13</title>
<g id="a_Node000013"><a xlink:title=" ">
<polygon fill="#e0e0e0" stroke="#999999" points="365.5,-19 292.5,-19 292.5,0 365.5,0 365.5,-19"/>
<text text-anchor="middle" x="329" y="-7" font-family="Helvetica,sans-Serif" font-size="10.00">string_view</text>
</a>
</g>
</g>
<!-- Node11&#45;&gt;Node13 -->
<g id="edge15_Node000011_Node000013" class="edge">
<title>Node11&#45;&gt;Node13</title>
<g id="a_edge15_Node000011_Node000013"><a xlink:title=" ">
<path fill="none" stroke="#63b8ff" d="M254.84,-60.37C268.72,-51.04 291.07,-36.01 307.61,-24.88"/>
<polygon fill="#63b8ff" stroke="#63b8ff" points="309.76,-27.65 316.11,-19.17 305.86,-21.84 309.76,-27.65"/>
</a>
</g>
</g>
<!-- Node14 -->
<g id="Node000014" class="node">
<title>Node14</title>
<g id="a_Node000014"><a xlink:title=" ">
<polygon fill="#e0e0e0" stroke="#999999" points="206,-19 142,-19 142,0 206,0 206,-19"/>
<text text-anchor="middle" x="174" y="-7" font-family="Helvetica,sans-Serif" font-size="10.00">algorithm</text>
</a>
</g>
</g>
<!-- Node11&#45;&gt;Node14 -->
<g id="edge16_Node000011_Node000014" class="edge">
<title>Node11&#45;&gt;Node14</title>
<g id="a_edge16_Node000011_Node000014"><a xlink:title=" ">
<path fill="none" stroke="#63b8ff" d="M231.97,-60.37C221.42,-51.3 204.61,-36.84 191.81,-25.82"/>
<polygon fill="#63b8ff" stroke="#63b8ff" points="193.94,-23.04 184.07,-19.17 189.37,-28.34 193.94,-23.04"/>
</a>
</g>
</g>
<!-- Node15 -->
<g id="Node000015" class="node">
<title>Node15</title>
<g id="a_Node000015"><a xlink:title=" ">
<polygon fill="#e0e0e0" stroke="#999999" points="531.5,-19 486.5,-19 486.5,0 531.5,0 531.5,-19"/>
<text text-anchor="middle" x="509" y="-7" font-family="Helvetica,sans-Serif" font-size="10.00">utility</text>
</a>
</g>
</g>
<!-- Node11&#45;&gt;Node15 -->
<g id="edge18_Node000011_Node000015" class="edge">
<title>Node11&#45;&gt;Node15</title>
<g id="a_edge18_Node000011_Node000015"><a xlink:title=" ">
<path fill="none" stroke="#63b8ff" d="M280.82,-60.49C333.62,-48.93 427.12,-28.44 476.44,-17.63"/>
<polygon fill="#63b8ff" stroke="#63b8ff" points="477.25,-21.04 486.27,-15.48 475.75,-14.2 477.25,-21.04"/>
</a>
</g>
</g>
<!-- Node18&#45;&gt;Node3 -->
<g id="edge27_Node000018_Node000003" class="edge">
<title>Node18&#45;&gt;Node3</title>
<g id="a_edge27_Node000018_Node000003"><a xlink:title=" ">
<path fill="none" stroke="#63b8ff" d="M481.01,-186.93C437.05,-173 347.22,-144.6 271,-121 227.84,-107.64 178.2,-92.54 144.94,-82.47"/>
<polygon fill="#63b8ff" stroke="#63b8ff" points="145.76,-79.06 135.17,-79.51 143.73,-85.76 145.76,-79.06"/>
</a>
</g>
</g>
<!-- Node18&#45;&gt;Node6 -->
<g id="edge25_Node000018_Node000006" class="edge">
<title>Node18&#45;&gt;Node6</title>
<g id="a_edge25_Node000018_Node000006"><a xlink:title=" ">
<path fill="none" stroke="#63b8ff" d="M515.15,-186.97C521.77,-178.48 531.15,-164.75 535,-151 538.59,-138.16 537.98,-134 535,-121 527.7,-89.23 525.2,-78.87 503,-55 490.37,-41.42 472.65,-30.79 457.39,-23.33"/>
<polygon fill="#63b8ff" stroke="#63b8ff" points="458.82,-20.14 448.28,-19.1 455.87,-26.48 458.82,-20.14"/>
</a>
</g>
</g>
<!-- Node18&#45;&gt;Node8 -->
<g id="edge38_Node000018_Node000008" class="edge">
<title>Node18&#45;&gt;Node8</title>
<g id="a_edge38_Node000018_Node000008"><a xlink:title=" ">
<path fill="none" stroke="#63b8ff" d="M501.06,-186.87C494.05,-178.14 483.04,-164.43 474.33,-153.59"/>
<polygon fill="#63b8ff" stroke="#63b8ff" points="476.96,-151.27 467.96,-145.67 471.5,-155.66 476.96,-151.27"/>
</a>
</g>
</g>
<!-- Node18&#45;&gt;Node9 -->
<g id="edge26_Node000018_Node000009" class="edge">
<title>Node18&#45;&gt;Node9</title>
<g id="a_edge26_Node000018_Node000009"><a xlink:title=" ">
<path fill="none" stroke="#63b8ff" d="M521.84,-186.85C534.72,-178.48 554.12,-165.02 569,-151 590.01,-131.21 610.59,-104.83 623.04,-87.88"/>
<polygon fill="#63b8ff" stroke="#63b8ff" points="626.05,-89.69 629.07,-79.53 620.37,-85.59 626.05,-89.69"/>
</a>
</g>
</g>
<!-- Node19 -->
<g id="Node000019" class="node">
<title>Node19</title>
<g id="a_Node000019"><a xlink:href="error__codes_8h.html" target="_top" xlink:title=" ">
<polygon fill="white" stroke="#666666" points="808,-79.5 716,-79.5 716,-60.5 808,-60.5 808,-79.5"/>
<text text-anchor="middle" x="762" y="-67.5" font-family="Helvetica,sans-Serif" font-size="10.00">../error_codes.h</text>
</a>
</g>
</g>
<!-- Node18&#45;&gt;Node19 -->
<g id="edge28_Node000018_Node000019" class="edge">
<title>Node18&#45;&gt;Node19</title>
<g id="a_edge28_Node000018_Node000019"><a xlink:title=" ">
<path fill="none" stroke="#63b8ff" d="M572.02,-188.1C641.35,-179.45 743.73,-164.6 756,-151 770.83,-134.56 769.56,-107.68 766.46,-89.67"/>
<polygon fill="#63b8ff" stroke="#63b8ff" points="769.87,-88.87 764.42,-79.78 763.01,-90.28 769.87,-88.87"/>
</a>
</g>
</g>
<!-- Node22 -->
<g id="Node000022" class="node">
<title>Node22</title>
<g id="a_Node000022"><a xlink:href="log__writer__interface_8h.html" target="_top" xlink:title=" ">
<polygon fill="white" stroke="#666666" points="747,-151 621,-151 621,-121 747,-121 747,-151"/>
<text text-anchor="start" x="629" y="-139" font-family="Helvetica,sans-Serif" font-size="10.00">../interfaces/log_writer</text>
<text text-anchor="middle" x="684" y="-128" font-family="Helvetica,sans-Serif" font-size="10.00">_interface.h</text>
</a>
</g>
</g>
<!-- Node18&#45;&gt;Node22 -->
<g id="edge34_Node000018_Node000022" class="edge">
<title>Node18&#45;&gt;Node22</title>
<g id="a_edge34_Node000018_Node000022"><a xlink:title=" ">
<path fill="none" stroke="#63b8ff" d="M533.59,-186.99C559.25,-178.46 599.5,-165.09 631.91,-154.32"/>
<polygon fill="#63b8ff" stroke="#63b8ff" points="633.3,-157.54 641.69,-151.06 631.09,-150.9 633.3,-157.54"/>
</a>
</g>
</g>
<!-- Node19&#45;&gt;Node6 -->
<g id="edge29_Node000019_Node000006" class="edge">
<title>Node19&#45;&gt;Node6</title>
<g id="a_edge29_Node000019_Node000006"><a xlink:title=" ">
<path fill="none" stroke="#63b8ff" d="M727.19,-60.44C718.95,-58.54 710.19,-56.61 702,-55 602.63,-35.48 576.95,-35.32 477,-19 470.93,-18.01 464.45,-16.94 458.22,-15.9"/>
<polygon fill="#63b8ff" stroke="#63b8ff" points="458.53,-12.41 448.09,-14.21 457.37,-19.31 458.53,-12.41"/>
</a>
</g>
</g>
<!-- Node19&#45;&gt;Node10 -->
<g id="edge32_Node000019_Node000010" class="edge">
<title>Node19&#45;&gt;Node10</title>
<g id="a_edge32_Node000019_Node000010"><a xlink:title=" ">
<path fill="none" stroke="#63b8ff" d="M737.57,-60.49C708.71,-50.44 660.5,-33.66 628,-22.34"/>
<polygon fill="#63b8ff" stroke="#63b8ff" points="629.05,-19 618.46,-19.02 626.75,-25.61 629.05,-19"/>
</a>
</g>
</g>
<!-- Node19&#45;&gt;Node15 -->
<g id="edge31_Node000019_Node000015" class="edge">
<title>Node19&#45;&gt;Node15</title>
<g id="a_edge31_Node000019_Node000015"><a xlink:title=" ">
<path fill="none" stroke="#63b8ff" d="M725.51,-60.47C717.75,-58.66 709.61,-56.76 702,-55 645.66,-41.93 580.05,-26.83 541.66,-18"/>
<polygon fill="#63b8ff" stroke="#63b8ff" points="542.12,-14.52 531.59,-15.69 540.55,-21.34 542.12,-14.52"/>
</a>
</g>
</g>
<!-- Node20 -->
<g id="Node000020" class="node">
<title>Node20</title>
<g id="a_Node000020"><a xlink:title=" ">
<polygon fill="#e0e0e0" stroke="#999999" points="756.5,-19 691.5,-19 691.5,0 756.5,0 756.5,-19"/>
<text text-anchor="middle" x="724" y="-7" font-family="Helvetica,sans-Serif" font-size="10.00">stdexcept</text>
</a>
</g>
</g>
<!-- Node19&#45;&gt;Node20 -->
<g id="edge30_Node000019_Node000020" class="edge">
<title>Node19&#45;&gt;Node20</title>
<g id="a_edge30_Node000019_Node000020"><a xlink:title=" ">
<path fill="none" stroke="#63b8ff" d="M756.39,-60.37C750.84,-51.81 742.17,-38.47 735.2,-27.74"/>
<polygon fill="#63b8ff" stroke="#63b8ff" points="738.01,-25.65 729.63,-19.17 732.14,-29.46 738.01,-25.65"/>
</a>
</g>
</g>
<!-- Node21 -->
<g id="Node000021" class="node">
<title>Node21</title>
<g id="a_Node000021"><a xlink:title=" ">
<polygon fill="#e0e0e0" stroke="#999999" points="825.5,-19 774.5,-19 774.5,0 825.5,0 825.5,-19"/>
<text text-anchor="middle" x="800" y="-7" font-family="Helvetica,sans-Serif" font-size="10.00">variant</text>
</a>
</g>
</g>
<!-- Node19&#45;&gt;Node21 -->
<g id="edge33_Node000019_Node000021" class="edge">
<title>Node19&#45;&gt;Node21</title>
<g id="a_edge33_Node000019_Node000021"><a xlink:title=" ">
<path fill="none" stroke="#63b8ff" d="M767.61,-60.37C773.16,-51.81 781.83,-38.47 788.8,-27.74"/>
<polygon fill="#63b8ff" stroke="#63b8ff" points="791.86,-29.46 794.37,-19.17 785.99,-25.65 791.86,-29.46"/>
</a>
</g>
</g>
<!-- Node22&#45;&gt;Node6 -->
<g id="edge35_Node000022_Node000006" class="edge">
<title>Node22&#45;&gt;Node6</title>
<g id="a_edge35_Node000022_Node000006"><a xlink:title=" ">
<path fill="none" stroke="#63b8ff" d="M685.73,-120.97C687.09,-103.07 686.42,-72.35 669,-55 665.26,-51.27 523.33,-26.92 458.14,-15.9"/>
<polygon fill="#63b8ff" stroke="#63b8ff" points="458.45,-12.4 448.01,-14.19 457.29,-19.31 458.45,-12.4"/>
</a>
</g>
</g>
<!-- Node22&#45;&gt;Node9 -->
<g id="edge36_Node000022_Node000009" class="edge">
<title>Node22&#45;&gt;Node9</title>
<g id="a_edge36_Node000022_Node000009"><a xlink:title=" ">
<path fill="none" stroke="#63b8ff" d="M673.13,-120.8C665.71,-111.11 655.86,-98.24 648.02,-88.01"/>
<polygon fill="#63b8ff" stroke="#63b8ff" points="650.63,-85.66 641.77,-79.84 645.07,-89.91 650.63,-85.66"/>
</a>
</g>
</g>
<!-- Node22&#45;&gt;Node19 -->
<g id="edge37_Node000022_Node000019" class="edge">
<title>Node22&#45;&gt;Node19</title>
<g id="a_edge37_Node000022_Node000019"><a xlink:title=" ">
<path fill="none" stroke="#63b8ff" d="M701.31,-120.8C713.71,-110.62 730.4,-96.93 743.13,-86.48"/>
<polygon fill="#63b8ff" stroke="#63b8ff" points="745.71,-88.89 751.22,-79.84 741.27,-83.48 745.71,-88.89"/>
</a>
</g>
</g>
</g>
</svg>
