<?xml version="1.0" encoding="UTF-8" standalone="no"?>
<!DOCTYPE svg PUBLIC "-//W3C//DTD SVG 1.1//EN"
 "http://www.w3.org/Graphics/SVG/1.1/DTD/svg11.dtd">
<!-- Generated by graphviz version 2.43.0 (0)
 -->
<!-- Title: /home/runner/work/logger_system/logger_system/sources/logger/interfaces/log_entry.h Pages: 1 -->
<svg width="2340pt" height="390pt"
 viewBox="0.00 0.00 2340.00 390.00" xmlns="http://www.w3.org/2000/svg" xmlns:xlink="http://www.w3.org/1999/xlink">
<g id="graph0" class="graph" transform="scale(1 1) rotate(0) translate(4 386)">
<title>/home/runner/work/logger_system/logger_system/sources/logger/interfaces/log_entry.h</title>
<!-- Node1 -->
<g id="Node000001" class="node">
<title>Node1</title>
<g id="a_Node000001"><a xlink:title="Data structures for representing log entries and source locations.">
<polygon fill="#999999" stroke="#666666" points="997,-382 824,-382 824,-341 997,-341 997,-382"/>
<text text-anchor="start" x="832" y="-370" font-family="Helvetica,sans-Serif" font-size="10.00">/home/runner/work/logger</text>
<text text-anchor="start" x="832" y="-359" font-family="Helvetica,sans-Serif" font-size="10.00">_system/logger_system/sources</text>
<text text-anchor="middle" x="910.5" y="-348" font-family="Helvetica,sans-Serif" font-size="10.00">/logger/interfaces/log_entry.h</text>
</a>
</g>
</g>
<!-- Node2 -->
<g id="Node000002" class="node">
<title>Node2</title>
<g id="a_Node000002"><a xlink:href="log__collector_8cpp.html" target="_top" xlink:title=" ">
<polygon fill="white" stroke="#666666" points="634,-222.5 461,-222.5 461,-181.5 634,-181.5 634,-222.5"/>
<text text-anchor="start" x="469" y="-210.5" font-family="Helvetica,sans-Serif" font-size="10.00">/home/runner/work/logger</text>
<text text-anchor="start" x="469" y="-199.5" font-family="Helvetica,sans-Serif" font-size="10.00">_system/logger_system/sources</text>
<text text-anchor="middle" x="547.5" y="-188.5" font-family="Helvetica,sans-Serif" font-size="10.00">/logger/core/log_collector.cpp</text>
</a>
</g>
</g>
<!-- Node1&#45;&gt;Node2 -->
<g id="edge1_Node000001_Node000002" class="edge">
<title>Node1&#45;&gt;Node2</title>
<g id="a_edge1_Node000001_Node000002"><a xlink:title=" ">
<path fill="none" stroke="#63b8ff" d="M855.91,-336.82C784.08,-305.65 659.13,-251.44 592.45,-222.5"/>
<polygon fill="#63b8ff" stroke="#63b8ff" points="854.69,-340.1 865.26,-340.87 857.48,-333.68 854.69,-340.1"/>
</a>
</g>
</g>
<!-- Node3 -->
<g id="Node000003" class="node">
<title>Node3</title>
<g id="a_Node000003"><a xlink:href="log__filter_8h.html" target="_top" xlink:title=" ">
<polygon fill="white" stroke="#666666" points="328,-305 155,-305 155,-264 328,-264 328,-305"/>
<text text-anchor="start" x="163" y="-293" font-family="Helvetica,sans-Serif" font-size="10.00">/home/runner/work/logger</text>
<text text-anchor="start" x="163" y="-282" font-family="Helvetica,sans-Serif" font-size="10.00">_system/logger_system/sources</text>
<text text-anchor="middle" x="241.5" y="-271" font-family="Helvetica,sans-Serif" font-size="10.00">/logger/filters/log_filter.h</text>
</a>
</g>
</g>
<!-- Node1&#45;&gt;Node3 -->
<g id="edge2_Node000001_Node000003" class="edge">
<title>Node1&#45;&gt;Node3</title>
<g id="a_edge2_Node000001_Node000003"><a xlink:title=" ">
<path fill="none" stroke="#63b8ff" d="M813.74,-349.65C683.32,-335.03 453.11,-309.22 328.12,-295.21"/>
<polygon fill="#63b8ff" stroke="#63b8ff" points="813.4,-353.14 823.73,-350.77 814.18,-346.18 813.4,-353.14"/>
</a>
</g>
</g>
<!-- Node10 -->
<g id="Node000010" class="node">
<title>Node10</title>
<g id="a_Node000010"><a xlink:href="base__formatter_8h.html" target="_top" xlink:title=" ">
<polygon fill="white" stroke="#666666" points="1245,-305 1054,-305 1054,-264 1245,-264 1245,-305"/>
<text text-anchor="start" x="1062" y="-293" font-family="Helvetica,sans-Serif" font-size="10.00">/home/runner/work/logger</text>
<text text-anchor="start" x="1062" y="-282" font-family="Helvetica,sans-Serif" font-size="10.00">_system/logger_system/sources</text>
<text text-anchor="middle" x="1149.5" y="-271" font-family="Helvetica,sans-Serif" font-size="10.00">/logger/formatters/base_formatter.h</text>
</a>
</g>
</g>
<!-- Node1&#45;&gt;Node10 -->
<g id="edge10_Node000001_Node000010" class="edge">
<title>Node1&#45;&gt;Node10</title>
<g id="a_edge10_Node000001_Node000010"><a xlink:title=" ">
<path fill="none" stroke="#63b8ff" d="M982.38,-337.94C1015.78,-327.46 1055.11,-315.12 1087.23,-305.04"/>
<polygon fill="#63b8ff" stroke="#63b8ff" points="981.16,-334.66 972.67,-340.99 983.26,-341.34 981.16,-334.66"/>
</a>
</g>
</g>
<!-- Node11 -->
<g id="Node000011" class="node">
<title>Node11</title>
<g id="a_Node000011"><a xlink:href="base__writer_8h.html" target="_top" xlink:title="Abstract base class for all log output writers.">
<polygon fill="white" stroke="#666666" points="997,-305 824,-305 824,-264 997,-264 997,-305"/>
<text text-anchor="start" x="832" y="-293" font-family="Helvetica,sans-Serif" font-size="10.00">/home/runner/work/logger</text>
<text text-anchor="start" x="832" y="-282" font-family="Helvetica,sans-Serif" font-size="10.00">_system/logger_system/sources</text>
<text text-anchor="middle" x="910.5" y="-271" font-family="Helvetica,sans-Serif" font-size="10.00">/logger/writers/base_writer.h</text>
</a>
</g>
</g>
<!-- Node1&#45;&gt;Node11 -->
<g id="edge11_Node000001_Node000011" class="edge">
<title>Node1&#45;&gt;Node11</title>
<g id="a_edge11_Node000001_Node000011"><a xlink:title=" ">
<path fill="none" stroke="#63b8ff" d="M910.5,-330.69C910.5,-322.08 910.5,-312.9 910.5,-305.07"/>
<polygon fill="#63b8ff" stroke="#63b8ff" points="907,-330.79 910.5,-340.79 914,-330.79 907,-330.79"/>
</a>
</g>
</g>
<!-- Node14 -->
<g id="Node000014" class="node">
<title>Node14</title>
<g id="a_Node000014"><a xlink:href="batch__writer_8h.html" target="_top" xlink:title=" ">
<polygon fill="white" stroke="#666666" points="1284,-222.5 1111,-222.5 1111,-181.5 1284,-181.5 1284,-222.5"/>
<text text-anchor="start" x="1119" y="-210.5" font-family="Helvetica,sans-Serif" font-size="10.00">/home/runner/work/logger</text>
<text text-anchor="start" x="1119" y="-199.5" font-family="Helvetica,sans-Serif" font-size="10.00">_system/logger_system/sources</text>
<text text-anchor="middle" x="1197.5" y="-188.5" font-family="Helvetica,sans-Serif" font-size="10.00">/logger/writers/batch_writer.h</text>
</a>
</g>
</g>
<!-- Node1&#45;&gt;Node14 -->
<g id="edge33_Node000001_Node000014" class="edge">
<title>Node1&#45;&gt;Node14</title>
<g id="a_edge33_Node000001_Node000014"><a xlink:title=" ">
<path fill="none" stroke="#63b8ff" d="M958.53,-335.93C974.12,-327.06 991.1,-316.4 1005.5,-305 1025.22,-289.39 1023.67,-278.09 1044.5,-264 1070.67,-246.29 1102.75,-232.51 1130.77,-222.55"/>
<polygon fill="#63b8ff" stroke="#63b8ff" points="956.57,-333.02 949.54,-340.94 959.98,-339.13 956.57,-333.02"/>
</a>
</g>
</g>
<!-- Node4 -->
<g id="Node000004" class="node">
<title>Node4</title>
<g id="a_Node000004"><a xlink:href="logger__builder_8h.html" target="_top" xlink:title="Builder pattern implementation for flexible logger configuration.">
<polygon fill="white" stroke="#666666" points="929,-134.5 756,-134.5 756,-93.5 929,-93.5 929,-134.5"/>
<text text-anchor="start" x="764" y="-122.5" font-family="Helvetica,sans-Serif" font-size="10.00">/home/runner/work/logger</text>
<text text-anchor="start" x="764" y="-111.5" font-family="Helvetica,sans-Serif" font-size="10.00">_system/logger_system/sources</text>
<text text-anchor="middle" x="842.5" y="-100.5" font-family="Helvetica,sans-Serif" font-size="10.00">/logger/config/logger_builder.h</text>
</a>
</g>
</g>
<!-- Node3&#45;&gt;Node4 -->
<g id="edge3_Node000003_Node000004" class="edge">
<title>Node3&#45;&gt;Node4</title>
<g id="a_edge3_Node000003_Node000004"><a xlink:title=" ">
<path fill="none" stroke="#63b8ff" d="M237.89,-253.78C236.73,-229.27 239.6,-195.47 260.5,-176 278.37,-159.34 598.04,-133.27 755.83,-121.34"/>
<polygon fill="#63b8ff" stroke="#63b8ff" points="234.42,-254.26 238.63,-263.98 241.4,-253.75 234.42,-254.26"/>
</a>
</g>
</g>
<!-- Node6 -->
<g id="Node000006" class="node">
<title>Node6</title>
<g id="a_Node000006"><a xlink:href="logger_8cpp.html" target="_top" xlink:title=" ">
<polygon fill="white" stroke="#666666" points="443,-134.5 270,-134.5 270,-93.5 443,-93.5 443,-134.5"/>
<text text-anchor="start" x="278" y="-122.5" font-family="Helvetica,sans-Serif" font-size="10.00">/home/runner/work/logger</text>
<text text-anchor="start" x="278" y="-111.5" font-family="Helvetica,sans-Serif" font-size="10.00">_system/logger_system/sources</text>
<text text-anchor="middle" x="356.5" y="-100.5" font-family="Helvetica,sans-Serif" font-size="10.00">/logger/logger.cpp</text>
</a>
</g>
</g>
<!-- Node3&#45;&gt;Node6 -->
<g id="edge5_Node000003_Node000006" class="edge">
<title>Node3&#45;&gt;Node6</title>
<g id="a_edge5_Node000003_Node000006"><a xlink:title=" ">
<path fill="none" stroke="#63b8ff" d="M227.88,-254.03C219.45,-231.06 212.76,-199.27 227.5,-176 239.56,-156.95 259.35,-143.74 279.84,-134.62"/>
<polygon fill="#63b8ff" stroke="#63b8ff" points="224.74,-255.59 231.68,-263.59 231.24,-253.01 224.74,-255.59"/>
</a>
</g>
</g>
<!-- Node7 -->
<g id="Node000007" class="node">
<title>Node7</title>
<g id="a_Node000007"><a xlink:href="log__router_8h.html" target="_top" xlink:title=" ">
<polygon fill="white" stroke="#666666" points="443,-222.5 270,-222.5 270,-181.5 443,-181.5 443,-222.5"/>
<text text-anchor="start" x="278" y="-210.5" font-family="Helvetica,sans-Serif" font-size="10.00">/home/runner/work/logger</text>
<text text-anchor="start" x="278" y="-199.5" font-family="Helvetica,sans-Serif" font-size="10.00">_system/logger_system/sources</text>
<text text-anchor="middle" x="356.5" y="-188.5" font-family="Helvetica,sans-Serif" font-size="10.00">/logger/routing/log_router.h</text>
</a>
</g>
</g>
<!-- Node3&#45;&gt;Node7 -->
<g id="edge6_Node000003_Node000007" class="edge">
<title>Node3&#45;&gt;Node7</title>
<g id="a_edge6_Node000003_Node000007"><a xlink:title=" ">
<path fill="none" stroke="#63b8ff" d="M277.87,-258.04C294.16,-246.64 313.07,-233.4 328.26,-222.77"/>
<polygon fill="#63b8ff" stroke="#63b8ff" points="275.82,-255.21 269.63,-263.81 279.83,-260.94 275.82,-255.21"/>
</a>
</g>
</g>
<!-- Node8 -->
<g id="Node000008" class="node">
<title>Node8</title>
<g id="a_Node000008"><a xlink:href="log__sanitizer_8h.html" target="_top" xlink:title=" ">
<polygon fill="white" stroke="#666666" points="175,-222.5 2,-222.5 2,-181.5 175,-181.5 175,-222.5"/>
<text text-anchor="start" x="10" y="-210.5" font-family="Helvetica,sans-Serif" font-size="10.00">/home/runner/work/logger</text>
<text text-anchor="start" x="10" y="-199.5" font-family="Helvetica,sans-Serif" font-size="10.00">_system/logger_system/sources</text>
<text text-anchor="middle" x="88.5" y="-188.5" font-family="Helvetica,sans-Serif" font-size="10.00">/logger/security/log_sanitizer.h</text>
</a>
</g>
</g>
<!-- Node3&#45;&gt;Node8 -->
<g id="edge8_Node000003_Node000008" class="edge">
<title>Node3&#45;&gt;Node8</title>
<g id="a_edge8_Node000003_Node000008"><a xlink:title=" ">
<path fill="none" stroke="#63b8ff" d="M195.15,-259.11C172.94,-247.43 146.7,-233.62 125.81,-222.63"/>
<polygon fill="#63b8ff" stroke="#63b8ff" points="193.59,-262.25 204.07,-263.81 196.85,-256.05 193.59,-262.25"/>
</a>
</g>
</g>
<!-- Node5 -->
<g id="Node000005" class="node">
<title>Node5</title>
<g id="a_Node000005"><a xlink:href="logger__v1__compat_8h.html" target="_top" xlink:title="Compatibility wrapper for Logger System v1.x API.">
<polygon fill="white" stroke="#666666" points="1988,-52 1815,-52 1815,0 1988,0 1988,-52"/>
<text text-anchor="start" x="1823" y="-40" font-family="Helvetica,sans-Serif" font-size="10.00">/home/runner/work/logger</text>
<text text-anchor="start" x="1823" y="-29" font-family="Helvetica,sans-Serif" font-size="10.00">_system/logger_system/sources</text>
<text text-anchor="start" x="1823" y="-18" font-family="Helvetica,sans-Serif" font-size="10.00">/logger/compatibility/logger</text>
<text text-anchor="middle" x="1901.5" y="-7" font-family="Helvetica,sans-Serif" font-size="10.00">_v1_compat.h</text>
</a>
</g>
</g>
<!-- Node4&#45;&gt;Node5 -->
<g id="edge4_Node000004_Node000005" class="edge">
<title>Node4&#45;&gt;Node5</title>
<g id="a_edge4_Node000004_Node000005"><a xlink:title=" ">
<path fill="none" stroke="#63b8ff" d="M939.27,-102.11C982.2,-97.45 1033.34,-92.15 1079.5,-88 1347.27,-63.95 1664.74,-42.34 1814.74,-32.55"/>
<polygon fill="#63b8ff" stroke="#63b8ff" points="938.67,-98.65 929.11,-103.21 939.43,-105.61 938.67,-98.65"/>
</a>
</g>
</g>
<!-- Node7&#45;&gt;Node6 -->
<g id="edge7_Node000007_Node000006" class="edge">
<title>Node7&#45;&gt;Node6</title>
<g id="a_edge7_Node000007_Node000006"><a xlink:title=" ">
<path fill="none" stroke="#63b8ff" d="M356.5,-171.36C356.5,-159.26 356.5,-145.58 356.5,-134.74"/>
<polygon fill="#63b8ff" stroke="#63b8ff" points="353,-171.49 356.5,-181.49 360,-171.49 353,-171.49"/>
</a>
</g>
</g>
<!-- Node9 -->
<g id="Node000009" class="node">
<title>Node9</title>
<g id="a_Node000009"><a xlink:href="log__sanitizer_8cpp.html" target="_top" xlink:title=" ">
<polygon fill="white" stroke="#666666" points="177,-134.5 0,-134.5 0,-93.5 177,-93.5 177,-134.5"/>
<text text-anchor="start" x="8" y="-122.5" font-family="Helvetica,sans-Serif" font-size="10.00">/home/runner/work/logger</text>
<text text-anchor="start" x="8" y="-111.5" font-family="Helvetica,sans-Serif" font-size="10.00">_system/logger_system/sources</text>
<text text-anchor="middle" x="88.5" y="-100.5" font-family="Helvetica,sans-Serif" font-size="10.00">/logger/security/log_sanitizer.cpp</text>
</a>
</g>
</g>
<!-- Node8&#45;&gt;Node9 -->
<g id="edge9_Node000008_Node000009" class="edge">
<title>Node8&#45;&gt;Node9</title>
<g id="a_edge9_Node000008_Node000009"><a xlink:title=" ">
<path fill="none" stroke="#63b8ff" d="M88.5,-171.36C88.5,-159.26 88.5,-145.58 88.5,-134.74"/>
<polygon fill="#63b8ff" stroke="#63b8ff" points="85,-171.49 88.5,-181.49 92,-171.49 85,-171.49"/>
</a>
</g>
</g>
<!-- Node11&#45;&gt;Node2 -->
<g id="edge13_Node000011_Node000002" class="edge">
<title>Node11&#45;&gt;Node2</title>
<g id="a_edge13_Node000011_Node000002"><a xlink:title=" ">
<path fill="none" stroke="#63b8ff" d="M813.83,-263.84C764.31,-253.56 703.08,-240.53 648.5,-228 640.93,-226.26 633.05,-224.4 625.19,-222.51"/>
<polygon fill="#63b8ff" stroke="#63b8ff" points="813.4,-267.32 823.9,-265.92 814.82,-260.47 813.4,-267.32"/>
</a>
</g>
</g>
<!-- Node11&#45;&gt;Node4 -->
<g id="edge12_Node000011_Node000004" class="edge">
<title>Node11&#45;&gt;Node4</title>
<g id="a_edge12_Node000011_Node000004"><a xlink:title=" ">
<path fill="none" stroke="#63b8ff" d="M814.05,-266.61C772.97,-257.26 731.69,-244.23 719.5,-228 705.62,-209.52 707.32,-195.64 719.5,-176 731.25,-157.06 750.82,-143.82 770.94,-134.64"/>
<polygon fill="#63b8ff" stroke="#63b8ff" points="813.39,-270.05 823.91,-268.78 814.9,-263.21 813.39,-270.05"/>
</a>
</g>
</g>
<!-- Node11&#45;&gt;Node6 -->
<g id="edge15_Node000011_Node000006" class="edge">
<title>Node11&#45;&gt;Node6</title>
<g id="a_edge15_Node000011_Node000006"><a xlink:title=" ">
<path fill="none" stroke="#63b8ff" d="M814.16,-266C779.08,-257.4 739.86,-245.11 706.5,-228 673.89,-211.27 675.56,-191.82 642.5,-176 579.53,-145.87 501.69,-130.51 443.13,-122.75"/>
<polygon fill="#63b8ff" stroke="#63b8ff" points="813.4,-269.42 823.94,-268.33 815.02,-262.61 813.4,-269.42"/>
</a>
</g>
</g>
<!-- Node11&#45;&gt;Node7 -->
<g id="edge16_Node000011_Node000007" class="edge">
<title>Node11&#45;&gt;Node7</title>
<g id="a_edge16_Node000011_Node000007"><a xlink:title=" ">
<path fill="none" stroke="#63b8ff" d="M813.67,-275.68C720.37,-267.22 575.49,-251.7 451.5,-228 443.29,-226.43 434.75,-224.55 426.29,-222.53"/>
<polygon fill="#63b8ff" stroke="#63b8ff" points="813.39,-279.16 823.66,-276.57 814.02,-272.19 813.39,-279.16"/>
</a>
</g>
</g>
<!-- Node12 -->
<g id="Node000012" class="node">
<title>Node12</title>
<g id="a_Node000012"><a xlink:href="health__check__system_8cpp.html" target="_top" xlink:title=" ">
<polygon fill="white" stroke="#666666" points="902,-228 729,-228 729,-176 902,-176 902,-228"/>
<text text-anchor="start" x="737" y="-216" font-family="Helvetica,sans-Serif" font-size="10.00">/home/runner/work/logger</text>
<text text-anchor="start" x="737" y="-205" font-family="Helvetica,sans-Serif" font-size="10.00">_system/logger_system/sources</text>
<text text-anchor="start" x="737" y="-194" font-family="Helvetica,sans-Serif" font-size="10.00">/logger/health/health_check</text>
<text text-anchor="middle" x="815.5" y="-183" font-family="Helvetica,sans-Serif" font-size="10.00">_system.cpp</text>
</a>
</g>
</g>
<!-- Node11&#45;&gt;Node12 -->
<g id="edge14_Node000011_Node000012" class="edge">
<title>Node11&#45;&gt;Node12</title>
<g id="a_edge14_Node000011_Node000012"><a xlink:title=" ">
<path fill="none" stroke="#63b8ff" d="M879.3,-257.06C868.33,-247.76 856.03,-237.35 845.19,-228.16"/>
<polygon fill="#63b8ff" stroke="#63b8ff" points="877.12,-259.81 887.02,-263.6 881.65,-254.47 877.12,-259.81"/>
</a>
</g>
</g>
<!-- Node13 -->
<g id="Node000013" class="node">
<title>Node13</title>
<g id="a_Node000013"><a xlink:href="async__writer_8h.html" target="_top" xlink:title="Asynchronous wrapper for log writers.">
<polygon fill="white" stroke="#666666" points="1093,-222.5 920,-222.5 920,-181.5 1093,-181.5 1093,-222.5"/>
<text text-anchor="start" x="928" y="-210.5" font-family="Helvetica,sans-Serif" font-size="10.00">/home/runner/work/logger</text>
<text text-anchor="start" x="928" y="-199.5" font-family="Helvetica,sans-Serif" font-size="10.00">_system/logger_system/sources</text>
<text text-anchor="middle" x="1006.5" y="-188.5" font-family="Helvetica,sans-Serif" font-size="10.00">/logger/writers/async_writer.h</text>
</a>
</g>
</g>
<!-- Node11&#45;&gt;Node13 -->
<g id="edge17_Node000011_Node000013" class="edge">
<title>Node11&#45;&gt;Node13</title>
<g id="a_edge17_Node000011_Node000013"><a xlink:title=" ">
<path fill="none" stroke="#63b8ff" d="M942.23,-256.89C955.55,-245.72 970.76,-232.97 983.04,-222.67"/>
<polygon fill="#63b8ff" stroke="#63b8ff" points="939.64,-254.49 934.23,-263.6 944.14,-259.86 939.64,-254.49"/>
</a>
</g>
</g>
<!-- Node11&#45;&gt;Node14 -->
<g id="edge18_Node000011_Node000014" class="edge">
<title>Node11&#45;&gt;Node14</title>
<g id="a_edge18_Node000011_Node000014"><a xlink:title=" ">
<path fill="none" stroke="#63b8ff" d="M989.98,-261.21C1033.22,-249.08 1086.23,-234.21 1127.84,-222.54"/>
<polygon fill="#63b8ff" stroke="#63b8ff" points="989.02,-257.84 980.34,-263.91 990.91,-264.58 989.02,-257.84"/>
</a>
</g>
</g>
<!-- Node16 -->
<g id="Node000016" class="node">
<title>Node16</title>
<g id="a_Node000016"><a xlink:href="console__writer_8h.html" target="_top" xlink:title=" ">
<polygon fill="white" stroke="#666666" points="1869,-222.5 1696,-222.5 1696,-181.5 1869,-181.5 1869,-222.5"/>
<text text-anchor="start" x="1704" y="-210.5" font-family="Helvetica,sans-Serif" font-size="10.00">/home/runner/work/logger</text>
<text text-anchor="start" x="1704" y="-199.5" font-family="Helvetica,sans-Serif" font-size="10.00">_system/logger_system/sources</text>
<text text-anchor="middle" x="1782.5" y="-188.5" font-family="Helvetica,sans-Serif" font-size="10.00">/logger/writers/console_writer.h</text>
</a>
</g>
</g>
<!-- Node11&#45;&gt;Node16 -->
<g id="edge21_Node000011_Node000016" class="edge">
<title>Node11&#45;&gt;Node16</title>
<g id="a_edge21_Node000011_Node000016"><a xlink:title=" ">
<path fill="none" stroke="#63b8ff" d="M1007.22,-268.39C1019.74,-266.74 1032.41,-265.22 1044.5,-264 1327.52,-235.49 1402.32,-271.02 1683.5,-228 1692.79,-226.58 1702.47,-224.68 1711.99,-222.55"/>
<polygon fill="#63b8ff" stroke="#63b8ff" points="1006.66,-264.93 997.22,-269.74 1007.6,-271.87 1006.66,-264.93"/>
</a>
</g>
</g>
<!-- Node18 -->
<g id="Node000018" class="node">
<title>Node18</title>
<g id="a_Node000018"><a xlink:href="encrypted__writer_8h.html" target="_top" xlink:title=" ">
<polygon fill="white" stroke="#666666" points="1483,-222.5 1302,-222.5 1302,-181.5 1483,-181.5 1483,-222.5"/>
<text text-anchor="start" x="1310" y="-210.5" font-family="Helvetica,sans-Serif" font-size="10.00">/home/runner/work/logger</text>
<text text-anchor="start" x="1310" y="-199.5" font-family="Helvetica,sans-Serif" font-size="10.00">_system/logger_system/sources</text>
<text text-anchor="middle" x="1392.5" y="-188.5" font-family="Helvetica,sans-Serif" font-size="10.00">/logger/writers/encrypted_writer.h</text>
</a>
</g>
</g>
<!-- Node11&#45;&gt;Node18 -->
<g id="edge24_Node000011_Node000018" class="edge">
<title>Node11&#45;&gt;Node18</title>
<g id="a_edge24_Node000011_Node000018"><a xlink:title=" ">
<path fill="none" stroke="#63b8ff" d="M1007.34,-269.4C1019.85,-267.58 1032.48,-265.75 1044.5,-264 1154.72,-247.98 1183.22,-249.53 1292.5,-228 1300.75,-226.37 1309.34,-224.5 1317.87,-222.53"/>
<polygon fill="#63b8ff" stroke="#63b8ff" points="1006.75,-265.95 997.36,-270.86 1007.76,-272.88 1006.75,-265.95"/>
</a>
</g>
</g>
<!-- Node20 -->
<g id="Node000020" class="node">
<title>Node20</title>
<g id="a_Node000020"><a xlink:href="file__writer_8h.html" target="_top" xlink:title=" ">
<polygon fill="white" stroke="#666666" points="2101,-222.5 1928,-222.5 1928,-181.5 2101,-181.5 2101,-222.5"/>
<text text-anchor="start" x="1936" y="-210.5" font-family="Helvetica,sans-Serif" font-size="10.00">/home/runner/work/logger</text>
<text text-anchor="start" x="1936" y="-199.5" font-family="Helvetica,sans-Serif" font-size="10.00">_system/logger_system/sources</text>
<text text-anchor="middle" x="2014.5" y="-188.5" font-family="Helvetica,sans-Serif" font-size="10.00">/logger/writers/file_writer.h</text>
</a>
</g>
</g>
<!-- Node11&#45;&gt;Node20 -->
<g id="edge26_Node000011_Node000020" class="edge">
<title>Node11&#45;&gt;Node20</title>
<g id="a_edge26_Node000011_Node000020"><a xlink:title=" ">
<path fill="none" stroke="#63b8ff" d="M1007.2,-268.24C1019.73,-266.61 1032.4,-265.14 1044.5,-264 1413.88,-229.24 1509.83,-269.64 1878.5,-228 1894.48,-226.19 1911.42,-223.62 1927.71,-220.81"/>
<polygon fill="#63b8ff" stroke="#63b8ff" points="1006.65,-264.78 997.2,-269.57 1007.58,-271.72 1006.65,-264.78"/>
</a>
</g>
</g>
<!-- Node24 -->
<g id="Node000024" class="node">
<title>Node24</title>
<g id="a_Node000024"><a xlink:href="network__writer_8h.html" target="_top" xlink:title=" ">
<polygon fill="white" stroke="#666666" points="1674,-222.5 1501,-222.5 1501,-181.5 1674,-181.5 1674,-222.5"/>
<text text-anchor="start" x="1509" y="-210.5" font-family="Helvetica,sans-Serif" font-size="10.00">/home/runner/work/logger</text>
<text text-anchor="start" x="1509" y="-199.5" font-family="Helvetica,sans-Serif" font-size="10.00">_system/logger_system/sources</text>
<text text-anchor="middle" x="1587.5" y="-188.5" font-family="Helvetica,sans-Serif" font-size="10.00">/logger/writers/network_writer.h</text>
</a>
</g>
</g>
<!-- Node11&#45;&gt;Node24 -->
<g id="edge31_Node000011_Node000024" class="edge">
<title>Node11&#45;&gt;Node24</title>
<g id="a_edge31_Node000011_Node000024"><a xlink:title=" ">
<path fill="none" stroke="#63b8ff" d="M1007.25,-268.67C1019.77,-266.97 1032.43,-265.36 1044.5,-264 1242.99,-241.61 1295.58,-261.55 1492.5,-228 1501.16,-226.52 1510.18,-224.63 1519.06,-222.55"/>
<polygon fill="#63b8ff" stroke="#63b8ff" points="1006.68,-265.21 997.25,-270.04 1007.64,-272.15 1006.68,-265.21"/>
</a>
</g>
</g>
<!-- Node14&#45;&gt;Node4 -->
<g id="edge19_Node000014_Node000004" class="edge">
<title>Node14&#45;&gt;Node4</title>
<g id="a_edge19_Node000014_Node000004"><a xlink:title=" ">
<path fill="none" stroke="#63b8ff" d="M1113.22,-178.93C1109.26,-177.93 1105.34,-176.95 1101.5,-176 1043.66,-161.66 978.35,-146.28 927.78,-134.55"/>
<polygon fill="#63b8ff" stroke="#63b8ff" points="1112.57,-182.38 1123.12,-181.45 1114.29,-175.59 1112.57,-182.38"/>
</a>
</g>
</g>
<!-- Node15 -->
<g id="Node000015" class="node">
<title>Node15</title>
<g id="a_Node000015"><a xlink:href="batch__writer_8cpp.html" target="_top" xlink:title=" ">
<polygon fill="white" stroke="#666666" points="1262,-134.5 1089,-134.5 1089,-93.5 1262,-93.5 1262,-134.5"/>
<text text-anchor="start" x="1097" y="-122.5" font-family="Helvetica,sans-Serif" font-size="10.00">/home/runner/work/logger</text>
<text text-anchor="start" x="1097" y="-111.5" font-family="Helvetica,sans-Serif" font-size="10.00">_system/logger_system/sources</text>
<text text-anchor="middle" x="1175.5" y="-100.5" font-family="Helvetica,sans-Serif" font-size="10.00">/logger/writers/batch_writer.cpp</text>
</a>
</g>
</g>
<!-- Node14&#45;&gt;Node15 -->
<g id="edge20_Node000014_Node000015" class="edge">
<title>Node14&#45;&gt;Node15</title>
<g id="a_edge20_Node000014_Node000015"><a xlink:title=" ">
<path fill="none" stroke="#63b8ff" d="M1190.01,-171.73C1186.89,-159.53 1183.35,-145.69 1180.55,-134.74"/>
<polygon fill="#63b8ff" stroke="#63b8ff" points="1186.64,-172.66 1192.51,-181.49 1193.42,-170.93 1186.64,-172.66"/>
</a>
</g>
</g>
<!-- Node16&#45;&gt;Node5 -->
<g id="edge22_Node000016_Node000005" class="edge">
<title>Node16&#45;&gt;Node5</title>
<g id="a_edge22_Node000016_Node000005"><a xlink:title=" ">
<path fill="none" stroke="#63b8ff" d="M1841.46,-176.27C1857.03,-167.05 1872.31,-155.07 1882.5,-140 1900.22,-113.8 1903.26,-76.56 1903.02,-52.09"/>
<polygon fill="#63b8ff" stroke="#63b8ff" points="1839.33,-173.45 1832.3,-181.38 1842.74,-179.56 1839.33,-173.45"/>
</a>
</g>
</g>
<!-- Node17 -->
<g id="Node000017" class="node">
<title>Node17</title>
<g id="a_Node000017"><a xlink:href="console__writer_8cpp.html" target="_top" xlink:title=" ">
<polygon fill="white" stroke="#666666" points="1873,-134.5 1692,-134.5 1692,-93.5 1873,-93.5 1873,-134.5"/>
<text text-anchor="start" x="1700" y="-122.5" font-family="Helvetica,sans-Serif" font-size="10.00">/home/runner/work/logger</text>
<text text-anchor="start" x="1700" y="-111.5" font-family="Helvetica,sans-Serif" font-size="10.00">_system/logger_system/sources</text>
<text text-anchor="middle" x="1782.5" y="-100.5" font-family="Helvetica,sans-Serif" font-size="10.00">/logger/writers/console_writer.cpp</text>
</a>
</g>
</g>
<!-- Node16&#45;&gt;Node17 -->
<g id="edge23_Node000016_Node000017" class="edge">
<title>Node16&#45;&gt;Node17</title>
<g id="a_edge23_Node000016_Node000017"><a xlink:title=" ">
<path fill="none" stroke="#63b8ff" d="M1782.5,-171.36C1782.5,-159.26 1782.5,-145.58 1782.5,-134.74"/>
<polygon fill="#63b8ff" stroke="#63b8ff" points="1779,-171.49 1782.5,-181.49 1786,-171.49 1779,-171.49"/>
</a>
</g>
</g>
<!-- Node19 -->
<g id="Node000019" class="node">
<title>Node19</title>
<g id="a_Node000019"><a xlink:href="encrypted__writer_8cpp.html" target="_top" xlink:title=" ">
<polygon fill="white" stroke="#666666" points="1472.5,-134.5 1280.5,-134.5 1280.5,-93.5 1472.5,-93.5 1472.5,-134.5"/>
<text text-anchor="start" x="1288.5" y="-122.5" font-family="Helvetica,sans-Serif" font-size="10.00">/home/runner/work/logger</text>
<text text-anchor="start" x="1288.5" y="-111.5" font-family="Helvetica,sans-Serif" font-size="10.00">_system/logger_system/sources</text>
<text text-anchor="middle" x="1376.5" y="-100.5" font-family="Helvetica,sans-Serif" font-size="10.00">/logger/writers/encrypted_writer.cpp</text>
</a>
</g>
</g>
<!-- Node18&#45;&gt;Node19 -->
<g id="edge25_Node000018_Node000019" class="edge">
<title>Node18&#45;&gt;Node19</title>
<g id="a_edge25_Node000018_Node000019"><a xlink:title=" ">
<path fill="none" stroke="#63b8ff" d="M1386.99,-171.36C1384.73,-159.26 1382.19,-145.58 1380.17,-134.74"/>
<polygon fill="#63b8ff" stroke="#63b8ff" points="1383.6,-172.29 1388.87,-181.49 1390.48,-171.01 1383.6,-172.29"/>
</a>
</g>
</g>
<!-- Node20&#45;&gt;Node5 -->
<g id="edge27_Node000020_Node000005" class="edge">
<title>Node20&#45;&gt;Node5</title>
<g id="a_edge27_Node000020_Node000005"><a xlink:title=" ">
<path fill="none" stroke="#63b8ff" d="M1987.48,-174.09C1978.01,-163.9 1967.7,-151.88 1959.5,-140 1939.96,-111.69 1922.7,-75.92 1912.19,-52.3"/>
<polygon fill="#63b8ff" stroke="#63b8ff" points="1985.09,-176.66 1994.51,-181.5 1990.16,-171.84 1985.09,-176.66"/>
</a>
</g>
</g>
<!-- Node21 -->
<g id="Node000021" class="node">
<title>Node21</title>
<g id="a_Node000021"><a xlink:href="file__writer_8cpp.html" target="_top" xlink:title=" ">
<polygon fill="white" stroke="#666666" points="2141,-134.5 1968,-134.5 1968,-93.5 2141,-93.5 2141,-134.5"/>
<text text-anchor="start" x="1976" y="-122.5" font-family="Helvetica,sans-Serif" font-size="10.00">/home/runner/work/logger</text>
<text text-anchor="start" x="1976" y="-111.5" font-family="Helvetica,sans-Serif" font-size="10.00">_system/logger_system/sources</text>
<text text-anchor="middle" x="2054.5" y="-100.5" font-family="Helvetica,sans-Serif" font-size="10.00">/logger/writers/file_writer.cpp</text>
</a>
</g>
</g>
<!-- Node20&#45;&gt;Node21 -->
<g id="edge28_Node000020_Node000021" class="edge">
<title>Node20&#45;&gt;Node21</title>
<g id="a_edge28_Node000020_Node000021"><a xlink:title=" ">
<path fill="none" stroke="#63b8ff" d="M2027.94,-172.09C2033.66,-159.81 2040.17,-145.8 2045.32,-134.74"/>
<polygon fill="#63b8ff" stroke="#63b8ff" points="2024.62,-170.94 2023.58,-181.49 2030.97,-173.89 2024.62,-170.94"/>
</a>
</g>
</g>
<!-- Node22 -->
<g id="Node000022" class="node">
<title>Node22</title>
<g id="a_Node000022"><a xlink:href="rotating__file__writer_8h.html" target="_top" xlink:title=" ">
<polygon fill="white" stroke="#666666" points="2332,-140 2159,-140 2159,-88 2332,-88 2332,-140"/>
<text text-anchor="start" x="2167" y="-128" font-family="Helvetica,sans-Serif" font-size="10.00">/home/runner/work/logger</text>
<text text-anchor="start" x="2167" y="-117" font-family="Helvetica,sans-Serif" font-size="10.00">_system/logger_system/sources</text>
<text text-anchor="start" x="2167" y="-106" font-family="Helvetica,sans-Serif" font-size="10.00">/logger/writers/rotating_file</text>
<text text-anchor="middle" x="2245.5" y="-95" font-family="Helvetica,sans-Serif" font-size="10.00">_writer.h</text>
</a>
</g>
</g>
<!-- Node20&#45;&gt;Node22 -->
<g id="edge29_Node000020_Node000022" class="edge">
<title>Node20&#45;&gt;Node22</title>
<g id="a_edge29_Node000020_Node000022"><a xlink:title=" ">
<path fill="none" stroke="#63b8ff" d="M2076.41,-177.95C2107.74,-166.29 2145.83,-152.11 2177.93,-140.16"/>
<polygon fill="#63b8ff" stroke="#63b8ff" points="2075.07,-174.72 2066.92,-181.49 2077.51,-181.28 2075.07,-174.72"/>
</a>
</g>
</g>
<!-- Node23 -->
<g id="Node000023" class="node">
<title>Node23</title>
<g id="a_Node000023"><a xlink:href="rotating__file__writer_8cpp.html" target="_top" xlink:title=" ">
<polygon fill="white" stroke="#666666" points="2332,-52 2159,-52 2159,0 2332,0 2332,-52"/>
<text text-anchor="start" x="2167" y="-40" font-family="Helvetica,sans-Serif" font-size="10.00">/home/runner/work/logger</text>
<text text-anchor="start" x="2167" y="-29" font-family="Helvetica,sans-Serif" font-size="10.00">_system/logger_system/sources</text>
<text text-anchor="start" x="2167" y="-18" font-family="Helvetica,sans-Serif" font-size="10.00">/logger/writers/rotating_file</text>
<text text-anchor="middle" x="2245.5" y="-7" font-family="Helvetica,sans-Serif" font-size="10.00">_writer.cpp</text>
</a>
</g>
</g>
<!-- Node22&#45;&gt;Node23 -->
<g id="edge30_Node000022_Node000023" class="edge">
<title>Node22&#45;&gt;Node23</title>
<g id="a_edge30_Node000022_Node000023"><a xlink:title=" ">
<path fill="none" stroke="#63b8ff" d="M2245.5,-77.56C2245.5,-69.04 2245.5,-60.1 2245.5,-52.16"/>
<polygon fill="#63b8ff" stroke="#63b8ff" points="2242,-77.66 2245.5,-87.66 2249,-77.66 2242,-77.66"/>
</a>
</g>
</g>
<!-- Node25 -->
<g id="Node000025" class="node">
<title>Node25</title>
<g id="a_Node000025"><a xlink:href="network__writer_8cpp.html" target="_top" xlink:title=" ">
<polygon fill="white" stroke="#666666" points="1674,-134.5 1491,-134.5 1491,-93.5 1674,-93.5 1674,-134.5"/>
<text text-anchor="start" x="1499" y="-122.5" font-family="Helvetica,sans-Serif" font-size="10.00">/home/runner/work/logger</text>
<text text-anchor="start" x="1499" y="-111.5" font-family="Helvetica,sans-Serif" font-size="10.00">_system/logger_system/sources</text>
<text text-anchor="middle" x="1582.5" y="-100.5" font-family="Helvetica,sans-Serif" font-size="10.00">/logger/writers/network_writer.cpp</text>
</a>
</g>
</g>
<!-- Node24&#45;&gt;Node25 -->
<g id="edge32_Node000024_Node000025" class="edge">
<title>Node24&#45;&gt;Node25</title>
<g id="a_edge32_Node000024_Node000025"><a xlink:title=" ">
<path fill="none" stroke="#63b8ff" d="M1585.78,-171.36C1585.07,-159.26 1584.28,-145.58 1583.65,-134.74"/>
<polygon fill="#63b8ff" stroke="#63b8ff" points="1582.29,-171.71 1586.37,-181.49 1589.28,-171.3 1582.29,-171.71"/>
</a>
</g>
</g>
</g>
</svg>
