<?xml version="1.0" encoding="UTF-8" standalone="no"?>
<!DOCTYPE svg PUBLIC "-//W3C//DTD SVG 1.1//EN"
 "http://www.w3.org/Graphics/SVG/1.1/DTD/svg11.dtd">
<!-- Generated by graphviz version 2.43.0 (0)
 -->
<!-- Title: log_router.h Pages: 1 -->
<svg width="641pt" height="192pt"
 viewBox="0.00 0.00 641.00 192.00" xmlns="http://www.w3.org/2000/svg" xmlns:xlink="http://www.w3.org/1999/xlink">
<g id="graph0" class="graph" transform="scale(1 1) rotate(0) translate(4 188)">
<title>log_router.h</title>
<!-- Node1 -->
<g id="Node000001" class="node">
<title>Node1</title>
<g id="a_Node000001"><a xlink:title=" ">
<polygon fill="#999999" stroke="#666666" points="378,-184 304,-184 304,-165 378,-165 378,-184"/>
<text text-anchor="middle" x="341" y="-172" font-family="Helvetica,sans-Serif" font-size="10.00">log_router.h</text>
</a>
</g>
</g>
<!-- Node2 -->
<g id="Node000002" class="node">
<title>Node2</title>
<g id="a_Node000002"><a xlink:href="log__filter_8h.html" target="_top" xlink:title=" ">
<polygon fill="white" stroke="#666666" points="205.5,-129 98.5,-129 98.5,-110 205.5,-110 205.5,-129"/>
<text text-anchor="middle" x="152" y="-117" font-family="Helvetica,sans-Serif" font-size="10.00">../filters/log_filter.h</text>
</a>
</g>
</g>
<!-- Node1&#45;&gt;Node2 -->
<g id="edge1_Node000001_Node000002" class="edge">
<title>Node1&#45;&gt;Node2</title>
<g id="a_edge1_Node000001_Node000002"><a xlink:title=" ">
<path fill="none" stroke="#63b8ff" d="M310.63,-164.98C278.63,-156.01 228.04,-141.82 192.62,-131.89"/>
<polygon fill="#63b8ff" stroke="#63b8ff" points="193.18,-128.41 182.6,-129.08 191.29,-135.15 193.18,-128.41"/>
</a>
</g>
</g>
<!-- Node4 -->
<g id="Node000004" class="node">
<title>Node4</title>
<g id="a_Node000004"><a xlink:title=" ">
<polygon fill="#e0e0e0" stroke="#999999" points="58,-19 0,-19 0,0 58,0 58,-19"/>
<text text-anchor="middle" x="29" y="-7" font-family="Helvetica,sans-Serif" font-size="10.00">memory</text>
</a>
</g>
</g>
<!-- Node1&#45;&gt;Node4 -->
<g id="edge15_Node000001_Node000004" class="edge">
<title>Node1&#45;&gt;Node4</title>
<g id="a_edge15_Node000001_Node000004"><a xlink:title=" ">
<path fill="none" stroke="#63b8ff" d="M303.74,-173.78C252.51,-172.69 158.75,-165.32 89,-129 58.34,-113.03 48.47,-105.39 34,-74 27.55,-60.02 26.64,-42.46 27.15,-29.36"/>
<polygon fill="#63b8ff" stroke="#63b8ff" points="30.65,-29.41 27.86,-19.19 23.67,-28.92 30.65,-29.41"/>
</a>
</g>
</g>
<!-- Node9 -->
<g id="Node000009" class="node">
<title>Node9</title>
<g id="a_Node000009"><a xlink:href="base__writer_8h.html" target="_top" xlink:title=" ">
<polygon fill="white" stroke="#666666" points="352,-129 224,-129 224,-110 352,-110 352,-129"/>
<text text-anchor="middle" x="288" y="-117" font-family="Helvetica,sans-Serif" font-size="10.00">../writers/base_writer.h</text>
</a>
</g>
</g>
<!-- Node1&#45;&gt;Node9 -->
<g id="edge10_Node000001_Node000009" class="edge">
<title>Node1&#45;&gt;Node9</title>
<g id="a_edge10_Node000001_Node000009"><a xlink:title=" ">
<path fill="none" stroke="#63b8ff" d="M332.25,-164.75C324.53,-157.03 313.1,-145.6 303.78,-136.28"/>
<polygon fill="#63b8ff" stroke="#63b8ff" points="306.14,-133.69 296.59,-129.09 301.19,-138.64 306.14,-133.69"/>
</a>
</g>
</g>
<!-- Node11 -->
<g id="Node000011" class="node">
<title>Node11</title>
<g id="a_Node000011"><a xlink:title=" ">
<polygon fill="#e0e0e0" stroke="#999999" points="417.5,-129 370.5,-129 370.5,-110 417.5,-110 417.5,-129"/>
<text text-anchor="middle" x="394" y="-117" font-family="Helvetica,sans-Serif" font-size="10.00">vector</text>
</a>
</g>
</g>
<!-- Node1&#45;&gt;Node11 -->
<g id="edge14_Node000001_Node000011" class="edge">
<title>Node1&#45;&gt;Node11</title>
<g id="a_edge14_Node000001_Node000011"><a xlink:title=" ">
<path fill="none" stroke="#63b8ff" d="M349.75,-164.75C357.47,-157.03 368.9,-145.6 378.22,-136.28"/>
<polygon fill="#63b8ff" stroke="#63b8ff" points="380.81,-138.64 385.41,-129.09 375.86,-133.69 380.81,-138.64"/>
</a>
</g>
</g>
<!-- Node12 -->
<g id="Node000012" class="node">
<title>Node12</title>
<g id="a_Node000012"><a xlink:title=" ">
<polygon fill="#e0e0e0" stroke="#999999" points="528.5,-129 435.5,-129 435.5,-110 528.5,-110 528.5,-129"/>
<text text-anchor="middle" x="482" y="-117" font-family="Helvetica,sans-Serif" font-size="10.00">unordered_map</text>
</a>
</g>
</g>
<!-- Node1&#45;&gt;Node12 -->
<g id="edge16_Node000001_Node000012" class="edge">
<title>Node1&#45;&gt;Node12</title>
<g id="a_edge16_Node000001_Node000012"><a xlink:title=" ">
<path fill="none" stroke="#63b8ff" d="M363.65,-164.98C386.85,-156.27 423.12,-142.63 449.4,-132.75"/>
<polygon fill="#63b8ff" stroke="#63b8ff" points="450.8,-135.97 458.93,-129.17 448.34,-129.41 450.8,-135.97"/>
</a>
</g>
</g>
<!-- Node13 -->
<g id="Node000013" class="node">
<title>Node13</title>
<g id="a_Node000013"><a xlink:title=" ">
<polygon fill="#e0e0e0" stroke="#999999" points="633,-129 547,-129 547,-110 633,-110 633,-129"/>
<text text-anchor="middle" x="590" y="-117" font-family="Helvetica,sans-Serif" font-size="10.00">unordered_set</text>
</a>
</g>
</g>
<!-- Node1&#45;&gt;Node13 -->
<g id="edge17_Node000001_Node000013" class="edge">
<title>Node1&#45;&gt;Node13</title>
<g id="a_edge17_Node000001_Node000013"><a xlink:title=" ">
<path fill="none" stroke="#63b8ff" d="M378.01,-165.62C421.01,-156.47 492.17,-141.32 540.05,-131.13"/>
<polygon fill="#63b8ff" stroke="#63b8ff" points="540.84,-134.54 549.9,-129.04 539.39,-127.69 540.84,-134.54"/>
</a>
</g>
</g>
<!-- Node3 -->
<g id="Node000003" class="node">
<title>Node3</title>
<g id="a_Node000003"><a xlink:href="logger__interface_8h.html" target="_top" xlink:title=" ">
<polygon fill="white" stroke="#666666" points="317,-74 203,-74 203,-55 317,-55 317,-74"/>
<text text-anchor="middle" x="260" y="-62" font-family="Helvetica,sans-Serif" font-size="10.00">../logger_interface.h</text>
</a>
</g>
</g>
<!-- Node2&#45;&gt;Node3 -->
<g id="edge2_Node000002_Node000003" class="edge">
<title>Node2&#45;&gt;Node3</title>
<g id="a_edge2_Node000002_Node000003"><a xlink:title=" ">
<path fill="none" stroke="#63b8ff" d="M169.35,-109.98C186.57,-101.54 213.2,-88.47 233.15,-78.68"/>
<polygon fill="#63b8ff" stroke="#63b8ff" points="234.9,-81.72 242.33,-74.17 231.81,-75.43 234.9,-81.72"/>
</a>
</g>
</g>
<!-- Node2&#45;&gt;Node4 -->
<g id="edge8_Node000002_Node000004" class="edge">
<title>Node2&#45;&gt;Node4</title>
<g id="a_edge8_Node000002_Node000004"><a xlink:title=" ">
<path fill="none" stroke="#63b8ff" d="M111.27,-109.93C89.73,-103.44 64.41,-92.39 48,-74 37.11,-61.79 32.45,-43.56 30.47,-29.75"/>
<polygon fill="#63b8ff" stroke="#63b8ff" points="33.91,-29 29.35,-19.43 26.95,-29.75 33.91,-29"/>
</a>
</g>
</g>
<!-- Node6 -->
<g id="Node000006" class="node">
<title>Node6</title>
<g id="a_Node000006"><a xlink:title=" ">
<polygon fill="#e0e0e0" stroke="#999999" points="367,-19 323,-19 323,0 367,0 367,-19"/>
<text text-anchor="middle" x="345" y="-7" font-family="Helvetica,sans-Serif" font-size="10.00">string</text>
</a>
</g>
</g>
<!-- Node2&#45;&gt;Node6 -->
<g id="edge6_Node000002_Node000006" class="edge">
<title>Node2&#45;&gt;Node6</title>
<g id="a_edge6_Node000002_Node000006"><a xlink:title=" ">
<path fill="none" stroke="#63b8ff" d="M205.92,-110.64C250.39,-103.11 308.85,-90.47 326,-74 338.05,-62.43 342.54,-43.56 344.18,-29.39"/>
<polygon fill="#63b8ff" stroke="#63b8ff" points="347.68,-29.5 344.96,-19.26 340.7,-28.96 347.68,-29.5"/>
</a>
</g>
</g>
<!-- Node7 -->
<g id="Node000007" class="node">
<title>Node7</title>
<g id="a_Node000007"><a xlink:title=" ">
<polygon fill="#e0e0e0" stroke="#999999" points="101,-74 57,-74 57,-55 101,-55 101,-74"/>
<text text-anchor="middle" x="79" y="-62" font-family="Helvetica,sans-Serif" font-size="10.00">regex</text>
</a>
</g>
</g>
<!-- Node2&#45;&gt;Node7 -->
<g id="edge7_Node000002_Node000007" class="edge">
<title>Node2&#45;&gt;Node7</title>
<g id="a_edge7_Node000002_Node000007"><a xlink:title=" ">
<path fill="none" stroke="#63b8ff" d="M140.27,-109.98C129.27,-102 112.58,-89.88 99.4,-80.31"/>
<polygon fill="#63b8ff" stroke="#63b8ff" points="101.09,-77.21 90.94,-74.17 96.98,-82.88 101.09,-77.21"/>
</a>
</g>
</g>
<!-- Node8 -->
<g id="Node000008" class="node">
<title>Node8</title>
<g id="a_Node000008"><a xlink:title=" ">
<polygon fill="#e0e0e0" stroke="#999999" points="184.5,-74 119.5,-74 119.5,-55 184.5,-55 184.5,-74"/>
<text text-anchor="middle" x="152" y="-62" font-family="Helvetica,sans-Serif" font-size="10.00">functional</text>
</a>
</g>
</g>
<!-- Node2&#45;&gt;Node8 -->
<g id="edge9_Node000002_Node000008" class="edge">
<title>Node2&#45;&gt;Node8</title>
<g id="a_edge9_Node000002_Node000008"><a xlink:title=" ">
<path fill="none" stroke="#63b8ff" d="M152,-109.75C152,-102.8 152,-92.85 152,-84.13"/>
<polygon fill="#63b8ff" stroke="#63b8ff" points="155.5,-84.09 152,-74.09 148.5,-84.09 155.5,-84.09"/>
</a>
</g>
</g>
<!-- Node3&#45;&gt;Node4 -->
<g id="edge3_Node000003_Node000004" class="edge">
<title>Node3&#45;&gt;Node4</title>
<g id="a_edge3_Node000003_Node000004"><a xlink:title=" ">
<path fill="none" stroke="#63b8ff" d="M222.89,-54.98C180.5,-45.26 111.44,-29.42 68.2,-19.49"/>
<polygon fill="#63b8ff" stroke="#63b8ff" points="68.86,-16.05 58.33,-17.23 67.29,-22.88 68.86,-16.05"/>
</a>
</g>
</g>
<!-- Node5 -->
<g id="Node000005" class="node">
<title>Node5</title>
<g id="a_Node000005"><a xlink:title=" ">
<polygon fill="#e0e0e0" stroke="#999999" points="284,-19 236,-19 236,0 284,0 284,-19"/>
<text text-anchor="middle" x="260" y="-7" font-family="Helvetica,sans-Serif" font-size="10.00">mutex</text>
</a>
</g>
</g>
<!-- Node3&#45;&gt;Node5 -->
<g id="edge4_Node000003_Node000005" class="edge">
<title>Node3&#45;&gt;Node5</title>
<g id="a_edge4_Node000003_Node000005"><a xlink:title=" ">
<path fill="none" stroke="#63b8ff" d="M260,-54.75C260,-47.8 260,-37.85 260,-29.13"/>
<polygon fill="#63b8ff" stroke="#63b8ff" points="263.5,-29.09 260,-19.09 256.5,-29.09 263.5,-29.09"/>
</a>
</g>
</g>
<!-- Node3&#45;&gt;Node6 -->
<g id="edge5_Node000003_Node000006" class="edge">
<title>Node3&#45;&gt;Node6</title>
<g id="a_edge5_Node000003_Node000006"><a xlink:title=" ">
<path fill="none" stroke="#63b8ff" d="M273.66,-54.98C286.84,-46.77 307.03,-34.18 322.57,-24.49"/>
<polygon fill="#63b8ff" stroke="#63b8ff" points="324.46,-27.43 331.09,-19.17 320.76,-21.49 324.46,-27.43"/>
</a>
</g>
</g>
<!-- Node9&#45;&gt;Node3 -->
<g id="edge13_Node000009_Node000003" class="edge">
<title>Node9&#45;&gt;Node3</title>
<g id="a_edge13_Node000009_Node000003"><a xlink:title=" ">
<path fill="none" stroke="#63b8ff" d="M283.38,-109.75C279.54,-102.49 273.98,-91.95 269.24,-82.98"/>
<polygon fill="#63b8ff" stroke="#63b8ff" points="272.3,-81.3 264.54,-74.09 266.11,-84.57 272.3,-81.3"/>
</a>
</g>
</g>
<!-- Node9&#45;&gt;Node6 -->
<g id="edge11_Node000009_Node000006" class="edge">
<title>Node9&#45;&gt;Node6</title>
<g id="a_edge11_Node000009_Node000006"><a xlink:title=" ">
<path fill="none" stroke="#63b8ff" d="M313.51,-109.9C329.69,-102.96 349.35,-91.44 359,-74 366.84,-59.83 361.5,-41.61 355.29,-28.32"/>
<polygon fill="#63b8ff" stroke="#63b8ff" points="358.3,-26.52 350.57,-19.27 352.09,-29.75 358.3,-26.52"/>
</a>
</g>
</g>
<!-- Node10 -->
<g id="Node000010" class="node">
<title>Node10</title>
<g id="a_Node000010"><a xlink:title=" ">
<polygon fill="#e0e0e0" stroke="#999999" points="461,-74 411,-74 411,-55 461,-55 461,-74"/>
<text text-anchor="middle" x="436" y="-62" font-family="Helvetica,sans-Serif" font-size="10.00">chrono</text>
</a>
</g>
</g>
<!-- Node9&#45;&gt;Node10 -->
<g id="edge12_Node000009_Node000010" class="edge">
<title>Node9&#45;&gt;Node10</title>
<g id="a_edge12_Node000009_Node000010"><a xlink:title=" ">
<path fill="none" stroke="#63b8ff" d="M311.78,-109.98C336.23,-101.23 374.53,-87.51 402.15,-77.62"/>
<polygon fill="#63b8ff" stroke="#63b8ff" points="403.55,-80.84 411.79,-74.17 401.19,-74.25 403.55,-80.84"/>
</a>
</g>
</g>
</g>
</svg>
