<?xml version="1.0" encoding="UTF-8" standalone="no"?>
<!DOCTYPE svg PUBLIC "-//W3C//DTD SVG 1.1//EN"
 "http://www.w3.org/Graphics/SVG/1.1/DTD/svg11.dtd">
<!-- Generated by graphviz version 2.43.0 (0)
 -->
<!-- Title: log_collector.cpp Pages: 1 -->
<svg width="745pt" height="258pt"
 viewBox="0.00 0.00 744.87 258.00" xmlns="http://www.w3.org/2000/svg" xmlns:xlink="http://www.w3.org/1999/xlink">
<g id="graph0" class="graph" transform="scale(1 1) rotate(0) translate(4 254)">
<title>log_collector.cpp</title>
<!-- Node1 -->
<g id="Node000001" class="node">
<title>Node1</title>
<g id="a_Node000001"><a xlink:title=" ">
<polygon fill="#999999" stroke="#666666" points="338.33,-250 240.33,-250 240.33,-231 338.33,-231 338.33,-250"/>
<text text-anchor="middle" x="289.33" y="-238" font-family="Helvetica,sans-Serif" font-size="10.00">log_collector.cpp</text>
</a>
</g>
</g>
<!-- Node2 -->
<g id="Node000002" class="node">
<title>Node2</title>
<g id="a_Node000002"><a xlink:href="log__collector_8h.html" target="_top" xlink:title=" ">
<polygon fill="white" stroke="#666666" points="213.83,-195 126.83,-195 126.83,-176 213.83,-176 213.83,-195"/>
<text text-anchor="middle" x="170.33" y="-183" font-family="Helvetica,sans-Serif" font-size="10.00">log_collector.h</text>
</a>
</g>
</g>
<!-- Node1&#45;&gt;Node2 -->
<g id="edge1_Node000001_Node000002" class="edge">
<title>Node1&#45;&gt;Node2</title>
<g id="a_edge1_Node000001_Node000002"><a xlink:title=" ">
<path fill="none" stroke="#63b8ff" d="M270.21,-230.98C250.98,-222.42 221.09,-209.11 199.02,-199.28"/>
<polygon fill="#63b8ff" stroke="#63b8ff" points="200.35,-196.04 189.8,-195.17 197.51,-202.44 200.35,-196.04"/>
</a>
</g>
</g>
<!-- Node5 -->
<g id="Node000005" class="node">
<title>Node5</title>
<g id="a_Node000005"><a xlink:title=" ">
<polygon fill="#e0e0e0" stroke="#999999" points="49.33,-19 1.33,-19 1.33,0 49.33,0 49.33,-19"/>
<text text-anchor="middle" x="25.33" y="-7" font-family="Helvetica,sans-Serif" font-size="10.00">mutex</text>
</a>
</g>
</g>
<!-- Node1&#45;&gt;Node5 -->
<g id="edge30_Node000001_Node000005" class="edge">
<title>Node1&#45;&gt;Node5</title>
<g id="a_edge30_Node000001_Node000005"><a xlink:title=" ">
<path fill="none" stroke="#63b8ff" d="M240.18,-240.13C171.94,-237.89 52.08,-221.85 9.33,-140 -9.48,-104 5.91,-54.9 16.82,-28.71"/>
<polygon fill="#63b8ff" stroke="#63b8ff" points="20.14,-29.85 20.97,-19.29 13.73,-27.03 20.14,-29.85"/>
</a>
</g>
</g>
<!-- Node7 -->
<g id="Node000007" class="node">
<title>Node7</title>
<g id="a_Node000007"><a xlink:title=" ">
<polygon fill="#e0e0e0" stroke="#999999" points="65.83,-134.5 18.83,-134.5 18.83,-115.5 65.83,-115.5 65.83,-134.5"/>
<text text-anchor="middle" x="42.33" y="-122.5" font-family="Helvetica,sans-Serif" font-size="10.00">vector</text>
</a>
</g>
</g>
<!-- Node1&#45;&gt;Node7 -->
<g id="edge34_Node000001_Node000007" class="edge">
<title>Node1&#45;&gt;Node7</title>
<g id="a_edge34_Node000001_Node000007"><a xlink:title=" ">
<path fill="none" stroke="#63b8ff" d="M240.27,-233.34C204.51,-227.34 155.8,-215.94 117.33,-195 92.68,-181.58 69.78,-158.3 55.93,-142.53"/>
<polygon fill="#63b8ff" stroke="#63b8ff" points="58.36,-139.99 49.21,-134.65 53.03,-144.53 58.36,-139.99"/>
</a>
</g>
</g>
<!-- Node8 -->
<g id="Node000008" class="node">
<title>Node8</title>
<g id="a_Node000008"><a xlink:title=" ">
<polygon fill="#e0e0e0" stroke="#999999" points="246.33,-134.5 198.33,-134.5 198.33,-115.5 246.33,-115.5 246.33,-134.5"/>
<text text-anchor="middle" x="222.33" y="-122.5" font-family="Helvetica,sans-Serif" font-size="10.00">thread</text>
</a>
</g>
</g>
<!-- Node1&#45;&gt;Node8 -->
<g id="edge32_Node000001_Node000008" class="edge">
<title>Node1&#45;&gt;Node8</title>
<g id="a_edge32_Node000001_Node000008"><a xlink:title=" ">
<path fill="none" stroke="#63b8ff" d="M284.29,-230.97C273.33,-212.4 247.13,-168.01 232.55,-143.32"/>
<polygon fill="#63b8ff" stroke="#63b8ff" points="235.52,-141.46 227.42,-134.63 229.49,-145.02 235.52,-141.46"/>
</a>
</g>
</g>
<!-- Node9 -->
<g id="Node000009" class="node">
<title>Node9</title>
<g id="a_Node000009"><a xlink:title=" ">
<polygon fill="#e0e0e0" stroke="#999999" points="314.33,-134.5 264.33,-134.5 264.33,-115.5 314.33,-115.5 314.33,-134.5"/>
<text text-anchor="middle" x="289.33" y="-122.5" font-family="Helvetica,sans-Serif" font-size="10.00">atomic</text>
</a>
</g>
</g>
<!-- Node1&#45;&gt;Node9 -->
<g id="edge33_Node000001_Node000009" class="edge">
<title>Node1&#45;&gt;Node9</title>
<g id="a_edge33_Node000001_Node000009"><a xlink:title=" ">
<path fill="none" stroke="#63b8ff" d="M289.33,-230.97C289.33,-212.73 289.33,-169.57 289.33,-144.64"/>
<polygon fill="#63b8ff" stroke="#63b8ff" points="292.83,-144.63 289.33,-134.63 285.83,-144.63 292.83,-144.63"/>
</a>
</g>
</g>
<!-- Node11 -->
<g id="Node000011" class="node">
<title>Node11</title>
<g id="a_Node000011"><a xlink:href="base__writer_8h.html" target="_top" xlink:title=" ">
<polygon fill="white" stroke="#666666" points="500.33,-195 372.33,-195 372.33,-176 500.33,-176 500.33,-195"/>
<text text-anchor="middle" x="436.33" y="-183" font-family="Helvetica,sans-Serif" font-size="10.00">../writers/base_writer.h</text>
</a>
</g>
</g>
<!-- Node1&#45;&gt;Node11 -->
<g id="edge11_Node000001_Node000011" class="edge">
<title>Node1&#45;&gt;Node11</title>
<g id="a_edge11_Node000001_Node000011"><a xlink:title=" ">
<path fill="none" stroke="#63b8ff" d="M312.95,-230.98C337.23,-222.23 375.28,-208.51 402.7,-198.62"/>
<polygon fill="#63b8ff" stroke="#63b8ff" points="404.06,-201.85 412.28,-195.17 401.69,-195.27 404.06,-201.85"/>
</a>
</g>
</g>
<!-- Node16 -->
<g id="Node000016" class="node">
<title>Node16</title>
<g id="a_Node000016"><a xlink:href="log__entry_8h.html" target="_top" xlink:title=" ">
<polygon fill="white" stroke="#666666" points="501.83,-134.5 370.83,-134.5 370.83,-115.5 501.83,-115.5 501.83,-134.5"/>
<text text-anchor="middle" x="436.33" y="-122.5" font-family="Helvetica,sans-Serif" font-size="10.00">../interfaces/log_entry.h</text>
</a>
</g>
</g>
<!-- Node1&#45;&gt;Node16 -->
<g id="edge28_Node000001_Node000016" class="edge">
<title>Node1&#45;&gt;Node16</title>
<g id="a_edge28_Node000001_Node000016"><a xlink:title=" ">
<path fill="none" stroke="#63b8ff" d="M298.63,-230.94C312.39,-218.41 339.16,-194.56 363.33,-176 379.98,-163.22 399.65,-149.83 414.38,-140.14"/>
<polygon fill="#63b8ff" stroke="#63b8ff" points="416.38,-143.01 422.83,-134.61 412.55,-137.15 416.38,-143.01"/>
</a>
</g>
</g>
<!-- Node17 -->
<g id="Node000017" class="node">
<title>Node17</title>
<g id="a_Node000017"><a xlink:title=" ">
<polygon fill="#e0e0e0" stroke="#999999" points="565.83,-195 518.83,-195 518.83,-176 565.83,-176 565.83,-195"/>
<text text-anchor="middle" x="542.33" y="-183" font-family="Helvetica,sans-Serif" font-size="10.00">queue</text>
</a>
</g>
</g>
<!-- Node1&#45;&gt;Node17 -->
<g id="edge29_Node000001_Node000017" class="edge">
<title>Node1&#45;&gt;Node17</title>
<g id="a_edge29_Node000001_Node000017"><a xlink:title=" ">
<path fill="none" stroke="#63b8ff" d="M334.98,-230.99C377.41,-222.92 442.57,-210.11 508.43,-195.11"/>
<polygon fill="#63b8ff" stroke="#63b8ff" points="509.61,-198.43 518.57,-192.78 508.04,-191.6 509.61,-198.43"/>
</a>
</g>
</g>
<!-- Node18 -->
<g id="Node000018" class="node">
<title>Node18</title>
<g id="a_Node000018"><a xlink:title=" ">
<polygon fill="#e0e0e0" stroke="#999999" points="690.83,-195 583.83,-195 583.83,-176 690.83,-176 690.83,-195"/>
<text text-anchor="middle" x="637.33" y="-183" font-family="Helvetica,sans-Serif" font-size="10.00">condition_variable</text>
</a>
</g>
</g>
<!-- Node1&#45;&gt;Node18 -->
<g id="edge31_Node000001_Node000018" class="edge">
<title>Node1&#45;&gt;Node18</title>
<g id="a_edge31_Node000001_Node000018"><a xlink:title=" ">
<path fill="none" stroke="#63b8ff" d="M338.45,-232.02C400.02,-222.64 505.68,-206.55 573.47,-196.23"/>
<polygon fill="#63b8ff" stroke="#63b8ff" points="574.24,-199.65 583.6,-194.68 573.19,-192.73 574.24,-199.65"/>
</a>
</g>
</g>
<!-- Node3 -->
<g id="Node000003" class="node">
<title>Node3</title>
<g id="a_Node000003"><a xlink:href="logger__interface_8h.html" target="_top" xlink:title=" ">
<polygon fill="white" stroke="#666666" points="327.33,-74 213.33,-74 213.33,-55 327.33,-55 327.33,-74"/>
<text text-anchor="middle" x="270.33" y="-62" font-family="Helvetica,sans-Serif" font-size="10.00">../logger_interface.h</text>
</a>
</g>
</g>
<!-- Node2&#45;&gt;Node3 -->
<g id="edge2_Node000002_Node000003" class="edge">
<title>Node2&#45;&gt;Node3</title>
<g id="a_edge2_Node000002_Node000003"><a xlink:title=" ">
<path fill="none" stroke="#63b8ff" d="M164.94,-175.85C156.46,-161.03 142.37,-130.43 156.33,-110 167.35,-93.87 185.17,-83.58 203.47,-77.02"/>
<polygon fill="#63b8ff" stroke="#63b8ff" points="204.62,-80.33 213.06,-73.92 202.46,-73.67 204.62,-80.33"/>
</a>
</g>
</g>
<!-- Node4 -->
<g id="Node000004" class="node">
<title>Node4</title>
<g id="a_Node000004"><a xlink:title=" ">
<polygon fill="#e0e0e0" stroke="#999999" points="264.33,-19 206.33,-19 206.33,0 264.33,0 264.33,-19"/>
<text text-anchor="middle" x="235.33" y="-7" font-family="Helvetica,sans-Serif" font-size="10.00">memory</text>
</a>
</g>
</g>
<!-- Node2&#45;&gt;Node4 -->
<g id="edge6_Node000002_Node000004" class="edge">
<title>Node2&#45;&gt;Node4</title>
<g id="a_edge6_Node000002_Node000004"><a xlink:title=" ">
<path fill="none" stroke="#63b8ff" d="M163.8,-175.66C154.25,-161.59 138.51,-133.29 147.33,-110 160.96,-74.02 194.2,-42.67 215.7,-25.2"/>
<polygon fill="#63b8ff" stroke="#63b8ff" points="217.88,-27.94 223.57,-19 213.55,-22.44 217.88,-27.94"/>
</a>
</g>
</g>
<!-- Node2&#45;&gt;Node7 -->
<g id="edge7_Node000002_Node000007" class="edge">
<title>Node2&#45;&gt;Node7</title>
<g id="a_edge7_Node000002_Node000007"><a xlink:title=" ">
<path fill="none" stroke="#63b8ff" d="M151.72,-175.99C130.29,-166.2 94.89,-150.02 70.18,-138.73"/>
<polygon fill="#63b8ff" stroke="#63b8ff" points="71.51,-135.49 60.96,-134.52 68.6,-141.86 71.51,-135.49"/>
</a>
</g>
</g>
<!-- Node2&#45;&gt;Node8 -->
<g id="edge8_Node000002_Node000008" class="edge">
<title>Node2&#45;&gt;Node8</title>
<g id="a_edge8_Node000002_Node000008"><a xlink:title=" ">
<path fill="none" stroke="#63b8ff" d="M178,-175.87C185.84,-167.05 198.19,-153.16 207.86,-142.27"/>
<polygon fill="#63b8ff" stroke="#63b8ff" points="210.6,-144.47 214.62,-134.67 205.36,-139.82 210.6,-144.47"/>
</a>
</g>
</g>
<!-- Node2&#45;&gt;Node9 -->
<g id="edge9_Node000002_Node000009" class="edge">
<title>Node2&#45;&gt;Node9</title>
<g id="a_edge9_Node000002_Node000009"><a xlink:title=" ">
<path fill="none" stroke="#63b8ff" d="M187.63,-175.99C207.37,-166.29 239.88,-150.31 262.82,-139.03"/>
<polygon fill="#63b8ff" stroke="#63b8ff" points="264.57,-142.07 272,-134.52 261.49,-135.79 264.57,-142.07"/>
</a>
</g>
</g>
<!-- Node10 -->
<g id="Node000010" class="node">
<title>Node10</title>
<g id="a_Node000010"><a xlink:title=" ">
<polygon fill="#e0e0e0" stroke="#999999" points="540.33,-74 490.33,-74 490.33,-55 540.33,-55 540.33,-74"/>
<text text-anchor="middle" x="515.33" y="-62" font-family="Helvetica,sans-Serif" font-size="10.00">chrono</text>
</a>
</g>
</g>
<!-- Node2&#45;&gt;Node10 -->
<g id="edge10_Node000002_Node000010" class="edge">
<title>Node2&#45;&gt;Node10</title>
<g id="a_edge10_Node000002_Node000010"><a xlink:title=" ">
<path fill="none" stroke="#63b8ff" d="M169.7,-175.81C169.09,-160.09 170.3,-126.97 189.33,-110 210.8,-90.85 400.36,-74.28 480.16,-68.09"/>
<polygon fill="#63b8ff" stroke="#63b8ff" points="480.52,-71.57 490.22,-67.32 479.98,-64.6 480.52,-71.57"/>
</a>
</g>
</g>
<!-- Node3&#45;&gt;Node4 -->
<g id="edge3_Node000003_Node000004" class="edge">
<title>Node3&#45;&gt;Node4</title>
<g id="a_edge3_Node000003_Node000004"><a xlink:title=" ">
<path fill="none" stroke="#63b8ff" d="M264.55,-54.75C259.71,-47.42 252.65,-36.73 246.68,-27.7"/>
<polygon fill="#63b8ff" stroke="#63b8ff" points="249.43,-25.5 241,-19.09 243.59,-29.36 249.43,-25.5"/>
</a>
</g>
</g>
<!-- Node3&#45;&gt;Node5 -->
<g id="edge4_Node000003_Node000005" class="edge">
<title>Node3&#45;&gt;Node5</title>
<g id="a_edge4_Node000003_Node000005"><a xlink:title=" ">
<path fill="none" stroke="#63b8ff" d="M230.96,-54.98C183.4,-44.7 104.19,-27.56 59.22,-17.83"/>
<polygon fill="#63b8ff" stroke="#63b8ff" points="59.88,-14.39 49.37,-15.7 58.4,-21.24 59.88,-14.39"/>
</a>
</g>
</g>
<!-- Node6 -->
<g id="Node000006" class="node">
<title>Node6</title>
<g id="a_Node000006"><a xlink:title=" ">
<polygon fill="#e0e0e0" stroke="#999999" points="576.33,-19 532.33,-19 532.33,0 576.33,0 576.33,-19"/>
<text text-anchor="middle" x="554.33" y="-7" font-family="Helvetica,sans-Serif" font-size="10.00">string</text>
</a>
</g>
</g>
<!-- Node3&#45;&gt;Node6 -->
<g id="edge5_Node000003_Node000006" class="edge">
<title>Node3&#45;&gt;Node6</title>
<g id="a_edge5_Node000003_Node000006"><a xlink:title=" ">
<path fill="none" stroke="#63b8ff" d="M315.96,-54.98C373.63,-44.22 471.47,-25.96 521.99,-16.53"/>
<polygon fill="#63b8ff" stroke="#63b8ff" points="522.84,-19.94 532.02,-14.66 521.55,-13.06 522.84,-19.94"/>
</a>
</g>
</g>
<!-- Node11&#45;&gt;Node3 -->
<g id="edge14_Node000011_Node000003" class="edge">
<title>Node11&#45;&gt;Node3</title>
<g id="a_edge14_Node000011_Node000003"><a xlink:title=" ">
<path fill="none" stroke="#63b8ff" d="M420.63,-175.9C405.37,-167.36 381.73,-153.59 362.33,-140 347.77,-129.81 310.91,-99.4 288.51,-80.73"/>
<polygon fill="#63b8ff" stroke="#63b8ff" points="290.63,-77.94 280.71,-74.22 286.15,-83.31 290.63,-77.94"/>
</a>
</g>
</g>
<!-- Node11&#45;&gt;Node6 -->
<g id="edge12_Node000011_Node000006" class="edge">
<title>Node11&#45;&gt;Node6</title>
<g id="a_edge12_Node000011_Node000006"><a xlink:title=" ">
<path fill="none" stroke="#63b8ff" d="M469.82,-175.91C489.69,-169.2 513.94,-157.93 529.33,-140 556.21,-108.68 557.63,-57.27 556.12,-29.58"/>
<polygon fill="#63b8ff" stroke="#63b8ff" points="559.59,-29.01 555.36,-19.29 552.6,-29.53 559.59,-29.01"/>
</a>
</g>
</g>
<!-- Node11&#45;&gt;Node10 -->
<g id="edge13_Node000011_Node000010" class="edge">
<title>Node11&#45;&gt;Node10</title>
<g id="a_edge13_Node000011_Node000010"><a xlink:title=" ">
<path fill="none" stroke="#63b8ff" d="M463.29,-175.94C480.16,-169.07 500.66,-157.61 511.33,-140 521.48,-123.24 521.03,-100.27 518.96,-84.29"/>
<polygon fill="#63b8ff" stroke="#63b8ff" points="522.36,-83.38 517.3,-74.07 515.45,-84.5 522.36,-83.38"/>
</a>
</g>
</g>
<!-- Node12 -->
<g id="Node000012" class="node">
<title>Node12</title>
<g id="a_Node000012"><a xlink:href="error__codes_8h.html" target="_top" xlink:title=" ">
<polygon fill="white" stroke="#666666" points="726.33,-74 634.33,-74 634.33,-55 726.33,-55 726.33,-74"/>
<text text-anchor="middle" x="680.33" y="-62" font-family="Helvetica,sans-Serif" font-size="10.00">../error_codes.h</text>
</a>
</g>
</g>
<!-- Node11&#45;&gt;Node12 -->
<g id="edge15_Node000011_Node000012" class="edge">
<title>Node11&#45;&gt;Node12</title>
<g id="a_edge15_Node000011_Node000012"><a xlink:title=" ">
<path fill="none" stroke="#63b8ff" d="M500.42,-176.97C584.91,-166.74 723.83,-148.71 731.33,-140 747.97,-120.66 722.84,-95.8 702.32,-80.26"/>
<polygon fill="#63b8ff" stroke="#63b8ff" points="704.1,-77.23 693.95,-74.21 700,-82.9 704.1,-77.23"/>
</a>
</g>
</g>
<!-- Node15 -->
<g id="Node000015" class="node">
<title>Node15</title>
<g id="a_Node000015"><a xlink:href="log__writer__interface_8h.html" target="_top" xlink:title=" ">
<polygon fill="white" stroke="#666666" points="722.33,-140 596.33,-140 596.33,-110 722.33,-110 722.33,-140"/>
<text text-anchor="start" x="604.33" y="-128" font-family="Helvetica,sans-Serif" font-size="10.00">../interfaces/log_writer</text>
<text text-anchor="middle" x="659.33" y="-117" font-family="Helvetica,sans-Serif" font-size="10.00">_interface.h</text>
</a>
</g>
</g>
<!-- Node11&#45;&gt;Node15 -->
<g id="edge19_Node000011_Node000015" class="edge">
<title>Node11&#45;&gt;Node15</title>
<g id="a_edge19_Node000011_Node000015"><a xlink:title=" ">
<path fill="none" stroke="#63b8ff" d="M468.75,-175.99C501.97,-167.28 554.47,-153.51 595.96,-142.62"/>
<polygon fill="#63b8ff" stroke="#63b8ff" points="596.93,-145.99 605.72,-140.06 595.15,-139.22 596.93,-145.99"/>
</a>
</g>
</g>
<!-- Node11&#45;&gt;Node16 -->
<g id="edge23_Node000011_Node000016" class="edge">
<title>Node11&#45;&gt;Node16</title>
<g id="a_edge23_Node000011_Node000016"><a xlink:title=" ">
<path fill="none" stroke="#63b8ff" d="M436.33,-175.87C436.33,-167.75 436.33,-155.31 436.33,-144.89"/>
<polygon fill="#63b8ff" stroke="#63b8ff" points="439.83,-144.67 436.33,-134.67 432.83,-144.67 439.83,-144.67"/>
</a>
</g>
</g>
<!-- Node12&#45;&gt;Node6 -->
<g id="edge16_Node000012_Node000006" class="edge">
<title>Node12&#45;&gt;Node6</title>
<g id="a_edge16_Node000012_Node000006"><a xlink:title=" ">
<path fill="none" stroke="#63b8ff" d="M660.08,-54.98C639.63,-46.38 607.8,-32.99 584.4,-23.15"/>
<polygon fill="#63b8ff" stroke="#63b8ff" points="585.52,-19.82 574.94,-19.17 582.8,-26.27 585.52,-19.82"/>
</a>
</g>
</g>
<!-- Node13 -->
<g id="Node000013" class="node">
<title>Node13</title>
<g id="a_Node000013"><a xlink:title=" ">
<polygon fill="#e0e0e0" stroke="#999999" points="650.33,-19 594.33,-19 594.33,0 650.33,0 650.33,-19"/>
<text text-anchor="middle" x="622.33" y="-7" font-family="Helvetica,sans-Serif" font-size="10.00">optional</text>
</a>
</g>
</g>
<!-- Node12&#45;&gt;Node13 -->
<g id="edge17_Node000012_Node000013" class="edge">
<title>Node12&#45;&gt;Node13</title>
<g id="a_edge17_Node000012_Node000013"><a xlink:title=" ">
<path fill="none" stroke="#63b8ff" d="M671.01,-54.98C662.52,-47.23 649.77,-35.58 639.45,-26.14"/>
<polygon fill="#63b8ff" stroke="#63b8ff" points="641.56,-23.33 631.82,-19.17 636.84,-28.5 641.56,-23.33"/>
</a>
</g>
</g>
<!-- Node14 -->
<g id="Node000014" class="node">
<title>Node14</title>
<g id="a_Node000014"><a xlink:title=" ">
<polygon fill="#e0e0e0" stroke="#999999" points="719.83,-19 668.83,-19 668.83,0 719.83,0 719.83,-19"/>
<text text-anchor="middle" x="694.33" y="-7" font-family="Helvetica,sans-Serif" font-size="10.00">variant</text>
</a>
</g>
</g>
<!-- Node12&#45;&gt;Node14 -->
<g id="edge18_Node000012_Node000014" class="edge">
<title>Node12&#45;&gt;Node14</title>
<g id="a_edge18_Node000012_Node000014"><a xlink:title=" ">
<path fill="none" stroke="#63b8ff" d="M682.64,-54.75C684.5,-47.72 687.16,-37.62 689.48,-28.84"/>
<polygon fill="#63b8ff" stroke="#63b8ff" points="692.89,-29.65 692.06,-19.09 686.12,-27.86 692.89,-29.65"/>
</a>
</g>
</g>
<!-- Node15&#45;&gt;Node6 -->
<g id="edge20_Node000015_Node000006" class="edge">
<title>Node15&#45;&gt;Node6</title>
<g id="a_edge20_Node000015_Node000006"><a xlink:title=" ">
<path fill="none" stroke="#63b8ff" d="M646.03,-109.63C626.46,-88.47 589.99,-49.05 569.44,-26.83"/>
<polygon fill="#63b8ff" stroke="#63b8ff" points="571.76,-24.19 562.4,-19.23 566.63,-28.95 571.76,-24.19"/>
</a>
</g>
</g>
<!-- Node15&#45;&gt;Node10 -->
<g id="edge21_Node000015_Node000010" class="edge">
<title>Node15&#45;&gt;Node10</title>
<g id="a_edge21_Node000015_Node000010"><a xlink:title=" ">
<path fill="none" stroke="#63b8ff" d="M624.84,-109.99C600.81,-100.23 569.05,-87.33 545.93,-77.93"/>
<polygon fill="#63b8ff" stroke="#63b8ff" points="547.18,-74.66 536.59,-74.14 544.54,-81.15 547.18,-74.66"/>
</a>
</g>
</g>
<!-- Node15&#45;&gt;Node12 -->
<g id="edge22_Node000015_Node000012" class="edge">
<title>Node15&#45;&gt;Node12</title>
<g id="a_edge22_Node000015_Node000012"><a xlink:title=" ">
<path fill="none" stroke="#63b8ff" d="M664.41,-109.84C667.21,-102.04 670.72,-92.27 673.73,-83.89"/>
<polygon fill="#63b8ff" stroke="#63b8ff" points="677.1,-84.86 677.18,-74.27 670.51,-82.5 677.1,-84.86"/>
</a>
</g>
</g>
<!-- Node16&#45;&gt;Node3 -->
<g id="edge27_Node000016_Node000003" class="edge">
<title>Node16&#45;&gt;Node3</title>
<g id="a_edge27_Node000016_Node000003"><a xlink:title=" ">
<path fill="none" stroke="#63b8ff" d="M412.19,-115.49C383.79,-105.49 336.45,-88.8 304.34,-77.49"/>
<polygon fill="#63b8ff" stroke="#63b8ff" points="305.09,-74.04 294.5,-74.02 302.76,-80.64 305.09,-74.04"/>
</a>
</g>
</g>
<!-- Node16&#45;&gt;Node6 -->
<g id="edge24_Node000016_Node000006" class="edge">
<title>Node16&#45;&gt;Node6</title>
<g id="a_edge24_Node000016_Node000006"><a xlink:title=" ">
<path fill="none" stroke="#63b8ff" d="M435.37,-115.31C434.29,-101.1 434.24,-72.69 448.33,-55 466.31,-32.43 497.8,-21.16 521.8,-15.62"/>
<polygon fill="#63b8ff" stroke="#63b8ff" points="522.81,-18.99 531.89,-13.52 521.39,-12.13 522.81,-18.99"/>
</a>
</g>
</g>
<!-- Node16&#45;&gt;Node10 -->
<g id="edge25_Node000016_Node000010" class="edge">
<title>Node16&#45;&gt;Node10</title>
<g id="a_edge25_Node000016_Node000010"><a xlink:title=" ">
<path fill="none" stroke="#63b8ff" d="M447.98,-115.37C460.47,-106.12 480.51,-91.28 495.49,-80.19"/>
<polygon fill="#63b8ff" stroke="#63b8ff" points="497.67,-82.93 503.62,-74.17 493.5,-77.31 497.67,-82.93"/>
</a>
</g>
</g>
<!-- Node16&#45;&gt;Node13 -->
<g id="edge26_Node000016_Node000013" class="edge">
<title>Node16&#45;&gt;Node13</title>
<g id="a_edge26_Node000016_Node000013"><a xlink:title=" ">
<path fill="none" stroke="#63b8ff" d="M439.63,-115.42C445.68,-100.85 459.91,-71.26 481.33,-55 497.61,-42.64 548.21,-28.43 584.13,-19.46"/>
<polygon fill="#63b8ff" stroke="#63b8ff" points="585.41,-22.75 594.29,-16.97 583.74,-15.95 585.41,-22.75"/>
</a>
</g>
</g>
</g>
</svg>
