<?xml version="1.0" encoding="UTF-8" standalone="no"?>
<!DOCTYPE svg PUBLIC "-//W3C//DTD SVG 1.1//EN"
 "http://www.w3.org/Graphics/SVG/1.1/DTD/svg11.dtd">
<!-- Generated by graphviz version 2.43.0 (0)
 -->
<!-- Title: /home/runner/work/logger_system/logger_system/sources/logger/analysis/log_analyzer.h Pages: 1 -->
<svg width="755pt" height="104pt"
 viewBox="0.00 0.00 755.00 104.00" xmlns="http://www.w3.org/2000/svg" xmlns:xlink="http://www.w3.org/1999/xlink">
<g id="graph0" class="graph" transform="scale(1 1) rotate(0) translate(4 100)">
<title>/home/runner/work/logger_system/logger_system/sources/logger/analysis/log_analyzer.h</title>
<!-- Node1 -->
<g id="Node000001" class="node">
<title>Node1</title>
<g id="a_Node000001"><a xlink:title=" ">
<polygon fill="#999999" stroke="#666666" points="529,-96 356,-96 356,-55 529,-55 529,-96"/>
<text text-anchor="start" x="364" y="-84" font-family="Helvetica,sans-Serif" font-size="10.00">/home/runner/work/logger</text>
<text text-anchor="start" x="364" y="-73" font-family="Helvetica,sans-Serif" font-size="10.00">_system/logger_system/sources</text>
<text text-anchor="middle" x="442.5" y="-62" font-family="Helvetica,sans-Serif" font-size="10.00">/logger/analysis/log_analyzer.h</text>
</a>
</g>
</g>
<!-- Node2 -->
<g id="Node000002" class="node">
<title>Node2</title>
<g id="a_Node000002"><a xlink:title=" ">
<polygon fill="#e0e0e0" stroke="#999999" points="157,-19 0,-19 0,0 157,0 157,-19"/>
<text text-anchor="middle" x="78.5" y="-7" font-family="Helvetica,sans-Serif" font-size="10.00">interfaces/logger_interface.h</text>
</a>
</g>
</g>
<!-- Node1&#45;&gt;Node2 -->
<g id="edge1_Node000001_Node000002" class="edge">
<title>Node1&#45;&gt;Node2</title>
<g id="a_edge1_Node000001_Node000002"><a xlink:title=" ">
<path fill="none" stroke="#63b8ff" d="M355.78,-59.25C288.09,-47.35 195.92,-31.15 136.81,-20.75"/>
<polygon fill="#63b8ff" stroke="#63b8ff" points="137.34,-17.29 126.89,-19.01 136.13,-24.19 137.34,-17.29"/>
</a>
</g>
</g>
<!-- Node3 -->
<g id="Node000003" class="node">
<title>Node3</title>
<g id="a_Node000003"><a xlink:title=" ">
<polygon fill="#e0e0e0" stroke="#999999" points="268,-19 175,-19 175,0 268,0 268,-19"/>
<text text-anchor="middle" x="221.5" y="-7" font-family="Helvetica,sans-Serif" font-size="10.00">unordered_map</text>
</a>
</g>
</g>
<!-- Node1&#45;&gt;Node3 -->
<g id="edge2_Node000001_Node000003" class="edge">
<title>Node1&#45;&gt;Node3</title>
<g id="a_edge2_Node000001_Node000003"><a xlink:title=" ">
<path fill="none" stroke="#63b8ff" d="M374.99,-54.95C337.54,-44.1 292.27,-31 260.64,-21.84"/>
<polygon fill="#63b8ff" stroke="#63b8ff" points="261.46,-18.43 250.88,-19.01 259.51,-25.15 261.46,-18.43"/>
</a>
</g>
</g>
<!-- Node4 -->
<g id="Node000004" class="node">
<title>Node4</title>
<g id="a_Node000004"><a xlink:title=" ">
<polygon fill="#e0e0e0" stroke="#999999" points="333,-19 286,-19 286,0 333,0 333,-19"/>
<text text-anchor="middle" x="309.5" y="-7" font-family="Helvetica,sans-Serif" font-size="10.00">deque</text>
</a>
</g>
</g>
<!-- Node1&#45;&gt;Node4 -->
<g id="edge3_Node000001_Node000004" class="edge">
<title>Node1&#45;&gt;Node4</title>
<g id="a_edge3_Node000001_Node000004"><a xlink:title=" ">
<path fill="none" stroke="#63b8ff" d="M401.87,-54.95C380.67,-44.75 355.3,-32.54 336.52,-23.5"/>
<polygon fill="#63b8ff" stroke="#63b8ff" points="337.88,-20.27 327.35,-19.09 334.85,-26.58 337.88,-20.27"/>
</a>
</g>
</g>
<!-- Node5 -->
<g id="Node000005" class="node">
<title>Node5</title>
<g id="a_Node000005"><a xlink:title=" ">
<polygon fill="#e0e0e0" stroke="#999999" points="399.5,-19 351.5,-19 351.5,0 399.5,0 399.5,-19"/>
<text text-anchor="middle" x="375.5" y="-7" font-family="Helvetica,sans-Serif" font-size="10.00">mutex</text>
</a>
</g>
</g>
<!-- Node1&#45;&gt;Node5 -->
<g id="edge4_Node000001_Node000005" class="edge">
<title>Node1&#45;&gt;Node5</title>
<g id="a_edge4_Node000001_Node000005"><a xlink:title=" ">
<path fill="none" stroke="#63b8ff" d="M422.03,-54.95C412.39,-45.74 401.04,-34.9 391.96,-26.23"/>
<polygon fill="#63b8ff" stroke="#63b8ff" points="394.32,-23.64 384.67,-19.26 389.48,-28.7 394.32,-23.64"/>
</a>
</g>
</g>
<!-- Node6 -->
<g id="Node000006" class="node">
<title>Node6</title>
<g id="a_Node000006"><a xlink:title=" ">
<polygon fill="#e0e0e0" stroke="#999999" points="467.5,-19 417.5,-19 417.5,0 467.5,0 467.5,-19"/>
<text text-anchor="middle" x="442.5" y="-7" font-family="Helvetica,sans-Serif" font-size="10.00">chrono</text>
</a>
</g>
</g>
<!-- Node1&#45;&gt;Node6 -->
<g id="edge5_Node000001_Node000006" class="edge">
<title>Node1&#45;&gt;Node6</title>
<g id="a_edge5_Node000001_Node000006"><a xlink:title=" ">
<path fill="none" stroke="#63b8ff" d="M442.5,-54.95C442.5,-46.85 442.5,-37.5 442.5,-29.47"/>
<polygon fill="#63b8ff" stroke="#63b8ff" points="446,-29.26 442.5,-19.26 439,-29.26 446,-29.26"/>
</a>
</g>
</g>
<!-- Node7 -->
<g id="Node000007" class="node">
<title>Node7</title>
<g id="a_Node000007"><a xlink:title=" ">
<polygon fill="#e0e0e0" stroke="#999999" points="551,-19 486,-19 486,0 551,0 551,-19"/>
<text text-anchor="middle" x="518.5" y="-7" font-family="Helvetica,sans-Serif" font-size="10.00">functional</text>
</a>
</g>
</g>
<!-- Node1&#45;&gt;Node7 -->
<g id="edge6_Node000001_Node000007" class="edge">
<title>Node1&#45;&gt;Node7</title>
<g id="a_edge6_Node000001_Node000007"><a xlink:title=" ">
<path fill="none" stroke="#63b8ff" d="M465.72,-54.95C476.88,-45.55 490.05,-34.46 500.45,-25.7"/>
<polygon fill="#63b8ff" stroke="#63b8ff" points="502.7,-28.38 508.1,-19.26 498.19,-23.02 502.7,-28.38"/>
</a>
</g>
</g>
<!-- Node8 -->
<g id="Node000008" class="node">
<title>Node8</title>
<g id="a_Node000008"><a xlink:title=" ">
<polygon fill="#e0e0e0" stroke="#999999" points="619.5,-19 569.5,-19 569.5,0 619.5,0 619.5,-19"/>
<text text-anchor="middle" x="594.5" y="-7" font-family="Helvetica,sans-Serif" font-size="10.00">atomic</text>
</a>
</g>
</g>
<!-- Node1&#45;&gt;Node8 -->
<g id="edge7_Node000001_Node000008" class="edge">
<title>Node1&#45;&gt;Node8</title>
<g id="a_edge7_Node000001_Node000008"><a xlink:title=" ">
<path fill="none" stroke="#63b8ff" d="M488.93,-54.95C513.61,-44.56 543.22,-32.09 564.8,-23.01"/>
<polygon fill="#63b8ff" stroke="#63b8ff" points="566.24,-26.2 574.09,-19.09 563.52,-19.75 566.24,-26.2"/>
</a>
</g>
</g>
<!-- Node9 -->
<g id="Node000009" class="node">
<title>Node9</title>
<g id="a_Node000009"><a xlink:title=" ">
<polygon fill="#e0e0e0" stroke="#999999" points="681.5,-19 637.5,-19 637.5,0 681.5,0 681.5,-19"/>
<text text-anchor="middle" x="659.5" y="-7" font-family="Helvetica,sans-Serif" font-size="10.00">regex</text>
</a>
</g>
</g>
<!-- Node1&#45;&gt;Node9 -->
<g id="edge8_Node000001_Node000009" class="edge">
<title>Node1&#45;&gt;Node9</title>
<g id="a_edge8_Node000001_Node000009"><a xlink:title=" ">
<path fill="none" stroke="#63b8ff" d="M508.79,-54.95C548.2,-43.32 596.43,-29.1 627.54,-19.93"/>
<polygon fill="#63b8ff" stroke="#63b8ff" points="628.8,-23.2 637.4,-17.02 626.82,-16.49 628.8,-23.2"/>
</a>
</g>
</g>
<!-- Node10 -->
<g id="Node000010" class="node">
<title>Node10</title>
<g id="a_Node000010"><a xlink:title=" ">
<polygon fill="#e0e0e0" stroke="#999999" points="747,-19 700,-19 700,0 747,0 747,-19"/>
<text text-anchor="middle" x="723.5" y="-7" font-family="Helvetica,sans-Serif" font-size="10.00">vector</text>
</a>
</g>
</g>
<!-- Node1&#45;&gt;Node10 -->
<g id="edge9_Node000001_Node000010" class="edge">
<title>Node1&#45;&gt;Node10</title>
<g id="a_edge9_Node000001_Node000010"><a xlink:title=" ">
<path fill="none" stroke="#63b8ff" d="M529.02,-55.85C574.22,-45.93 630.67,-33.29 689.83,-19.1"/>
<polygon fill="#63b8ff" stroke="#63b8ff" points="690.83,-22.46 699.73,-16.72 689.19,-15.66 690.83,-22.46"/>
</a>
</g>
</g>
</g>
</svg>
