<?xml version="1.0" encoding="UTF-8" standalone="no"?>
<!DOCTYPE svg PUBLIC "-//W3C//DTD SVG 1.1//EN"
 "http://www.w3.org/Graphics/SVG/1.1/DTD/svg11.dtd">
<!-- Generated by graphviz version 2.43.0 (0)
 -->
<!-- Title: log_router.h Pages: 1 -->
<svg width="821pt" height="269pt"
 viewBox="0.00 0.00 821.00 269.00" xmlns="http://www.w3.org/2000/svg" xmlns:xlink="http://www.w3.org/1999/xlink">
<g id="graph0" class="graph" transform="scale(1 1) rotate(0) translate(4 265)">
<title>log_router.h</title>
<!-- Node1 -->
<g id="Node000001" class="node">
<title>Node1</title>
<g id="a_Node000001"><a xlink:title=" ">
<polygon fill="#999999" stroke="#666666" points="558,-261 484,-261 484,-242 558,-242 558,-261"/>
<text text-anchor="middle" x="521" y="-249" font-family="Helvetica,sans-Serif" font-size="10.00">log_router.h</text>
</a>
</g>
</g>
<!-- Node2 -->
<g id="Node000002" class="node">
<title>Node2</title>
<g id="a_Node000002"><a xlink:href="log__filter_8h.html" target="_top" xlink:title=" ">
<polygon fill="white" stroke="#666666" points="302.5,-206 195.5,-206 195.5,-187 302.5,-187 302.5,-206"/>
<text text-anchor="middle" x="249" y="-194" font-family="Helvetica,sans-Serif" font-size="10.00">../filters/log_filter.h</text>
</a>
</g>
</g>
<!-- Node1&#45;&gt;Node2 -->
<g id="edge1_Node000001_Node000002" class="edge">
<title>Node1&#45;&gt;Node2</title>
<g id="a_edge1_Node000001_Node000002"><a xlink:title=" ">
<path fill="none" stroke="#63b8ff" d="M483.75,-243.24C437,-234.13 356.48,-218.44 302.99,-208.02"/>
<polygon fill="#63b8ff" stroke="#63b8ff" points="303.48,-204.55 293,-206.07 302.14,-211.42 303.48,-204.55"/>
</a>
</g>
</g>
<!-- Node4 -->
<g id="Node000004" class="node">
<title>Node4</title>
<g id="a_Node000004"><a xlink:title=" ">
<polygon fill="#e0e0e0" stroke="#999999" points="58,-19 0,-19 0,0 58,0 58,-19"/>
<text text-anchor="middle" x="29" y="-7" font-family="Helvetica,sans-Serif" font-size="10.00">memory</text>
</a>
</g>
</g>
<!-- Node1&#45;&gt;Node4 -->
<g id="edge33_Node000001_Node000004" class="edge">
<title>Node1&#45;&gt;Node4</title>
<g id="a_edge33_Node000001_Node000004"><a xlink:title=" ">
<path fill="none" stroke="#63b8ff" d="M483.72,-248.9C378.75,-243.54 84.57,-222.3 27,-151 -1.26,-115.99 12.24,-58.5 21.99,-29.09"/>
<polygon fill="#63b8ff" stroke="#63b8ff" points="25.42,-29.9 25.45,-19.3 18.82,-27.56 25.42,-29.9"/>
</a>
</g>
</g>
<!-- Node13 -->
<g id="Node000013" class="node">
<title>Node13</title>
<g id="a_Node000013"><a xlink:href="base__writer_8h.html" target="_top" xlink:title=" ">
<polygon fill="white" stroke="#666666" points="532,-206 404,-206 404,-187 532,-187 532,-206"/>
<text text-anchor="middle" x="468" y="-194" font-family="Helvetica,sans-Serif" font-size="10.00">../writers/base_writer.h</text>
</a>
</g>
</g>
<!-- Node1&#45;&gt;Node13 -->
<g id="edge17_Node000001_Node000013" class="edge">
<title>Node1&#45;&gt;Node13</title>
<g id="a_edge17_Node000001_Node000013"><a xlink:title=" ">
<path fill="none" stroke="#63b8ff" d="M512.25,-241.75C504.53,-234.03 493.1,-222.6 483.78,-213.28"/>
<polygon fill="#63b8ff" stroke="#63b8ff" points="486.14,-210.69 476.59,-206.09 481.19,-215.64 486.14,-210.69"/>
</a>
</g>
</g>
<!-- Node19 -->
<g id="Node000019" class="node">
<title>Node19</title>
<g id="a_Node000019"><a xlink:title=" ">
<polygon fill="#e0e0e0" stroke="#999999" points="597.5,-206 550.5,-206 550.5,-187 597.5,-187 597.5,-206"/>
<text text-anchor="middle" x="574" y="-194" font-family="Helvetica,sans-Serif" font-size="10.00">vector</text>
</a>
</g>
</g>
<!-- Node1&#45;&gt;Node19 -->
<g id="edge32_Node000001_Node000019" class="edge">
<title>Node1&#45;&gt;Node19</title>
<g id="a_edge32_Node000001_Node000019"><a xlink:title=" ">
<path fill="none" stroke="#63b8ff" d="M529.75,-241.75C537.47,-234.03 548.9,-222.6 558.22,-213.28"/>
<polygon fill="#63b8ff" stroke="#63b8ff" points="560.81,-215.64 565.41,-206.09 555.86,-210.69 560.81,-215.64"/>
</a>
</g>
</g>
<!-- Node20 -->
<g id="Node000020" class="node">
<title>Node20</title>
<g id="a_Node000020"><a xlink:title=" ">
<polygon fill="#e0e0e0" stroke="#999999" points="708.5,-206 615.5,-206 615.5,-187 708.5,-187 708.5,-206"/>
<text text-anchor="middle" x="662" y="-194" font-family="Helvetica,sans-Serif" font-size="10.00">unordered_map</text>
</a>
</g>
</g>
<!-- Node1&#45;&gt;Node20 -->
<g id="edge34_Node000001_Node000020" class="edge">
<title>Node1&#45;&gt;Node20</title>
<g id="a_edge34_Node000001_Node000020"><a xlink:title=" ">
<path fill="none" stroke="#63b8ff" d="M543.65,-241.98C566.85,-233.27 603.12,-219.63 629.4,-209.75"/>
<polygon fill="#63b8ff" stroke="#63b8ff" points="630.8,-212.97 638.93,-206.17 628.34,-206.41 630.8,-212.97"/>
</a>
</g>
</g>
<!-- Node21 -->
<g id="Node000021" class="node">
<title>Node21</title>
<g id="a_Node000021"><a xlink:title=" ">
<polygon fill="#e0e0e0" stroke="#999999" points="813,-206 727,-206 727,-187 813,-187 813,-206"/>
<text text-anchor="middle" x="770" y="-194" font-family="Helvetica,sans-Serif" font-size="10.00">unordered_set</text>
</a>
</g>
</g>
<!-- Node1&#45;&gt;Node21 -->
<g id="edge35_Node000001_Node000021" class="edge">
<title>Node1&#45;&gt;Node21</title>
<g id="a_edge35_Node000001_Node000021"><a xlink:title=" ">
<path fill="none" stroke="#63b8ff" d="M558.01,-242.62C601.01,-233.47 672.17,-218.32 720.05,-208.13"/>
<polygon fill="#63b8ff" stroke="#63b8ff" points="720.84,-211.54 729.9,-206.04 719.39,-204.69 720.84,-211.54"/>
</a>
</g>
</g>
<!-- Node3 -->
<g id="Node000003" class="node">
<title>Node3</title>
<g id="a_Node000003"><a xlink:href="logger__interface_8h.html" target="_top" xlink:title=" ">
<polygon fill="white" stroke="#666666" points="214,-79.5 100,-79.5 100,-60.5 214,-60.5 214,-79.5"/>
<text text-anchor="middle" x="157" y="-67.5" font-family="Helvetica,sans-Serif" font-size="10.00">../logger_interface.h</text>
</a>
</g>
</g>
<!-- Node2&#45;&gt;Node3 -->
<g id="edge2_Node000002_Node000003" class="edge">
<title>Node2&#45;&gt;Node3</title>
<g id="a_edge2_Node000002_Node000003"><a xlink:title=" ">
<path fill="none" stroke="#63b8ff" d="M242.68,-186.94C227.58,-166.51 189.2,-114.57 169.33,-87.69"/>
<polygon fill="#63b8ff" stroke="#63b8ff" points="172.13,-85.58 163.37,-79.62 166.5,-89.74 172.13,-85.58"/>
</a>
</g>
</g>
<!-- Node2&#45;&gt;Node4 -->
<g id="edge15_Node000002_Node000004" class="edge">
<title>Node2&#45;&gt;Node4</title>
<g id="a_edge15_Node000002_Node000004"><a xlink:title=" ">
<path fill="none" stroke="#63b8ff" d="M195.04,-190.47C142.42,-184.39 67.54,-172.24 48,-151 17.12,-117.43 20.99,-58.83 25.48,-29.04"/>
<polygon fill="#63b8ff" stroke="#63b8ff" points="28.94,-29.58 27.16,-19.14 22.04,-28.41 28.94,-29.58"/>
</a>
</g>
</g>
<!-- Node6 -->
<g id="Node000006" class="node">
<title>Node6</title>
<g id="a_Node000006"><a xlink:title=" ">
<polygon fill="#e0e0e0" stroke="#999999" points="443,-19 399,-19 399,0 443,0 443,-19"/>
<text text-anchor="middle" x="421" y="-7" font-family="Helvetica,sans-Serif" font-size="10.00">string</text>
</a>
</g>
</g>
<!-- Node2&#45;&gt;Node6 -->
<g id="edge13_Node000002_Node000006" class="edge">
<title>Node2&#45;&gt;Node6</title>
<g id="a_edge13_Node000002_Node000006"><a xlink:title=" ">
<path fill="none" stroke="#63b8ff" d="M258.35,-186.96C278.04,-168.83 324.91,-124.92 361,-85 378.32,-65.85 396.73,-42.48 408.52,-27.08"/>
<polygon fill="#63b8ff" stroke="#63b8ff" points="411.38,-29.1 414.64,-19.02 405.81,-24.87 411.38,-29.1"/>
</a>
</g>
</g>
<!-- Node7 -->
<g id="Node000007" class="node">
<title>Node7</title>
<g id="a_Node000007"><a xlink:href="log__filter__interface_8h.html" target="_top" xlink:title=" ">
<polygon fill="white" stroke="#666666" points="352,-85 232,-85 232,-55 352,-55 352,-85"/>
<text text-anchor="start" x="240" y="-73" font-family="Helvetica,sans-Serif" font-size="10.00">../interfaces/log_filter</text>
<text text-anchor="middle" x="292" y="-62" font-family="Helvetica,sans-Serif" font-size="10.00">_interface.h</text>
</a>
</g>
</g>
<!-- Node2&#45;&gt;Node7 -->
<g id="edge6_Node000002_Node000007" class="edge">
<title>Node2&#45;&gt;Node7</title>
<g id="a_edge6_Node000002_Node000007"><a xlink:title=" ">
<path fill="none" stroke="#63b8ff" d="M251.96,-186.94C258.44,-168.15 274.13,-122.73 283.83,-94.64"/>
<polygon fill="#63b8ff" stroke="#63b8ff" points="287.15,-95.76 287.11,-85.16 280.54,-93.47 287.15,-95.76"/>
</a>
</g>
</g>
<!-- Node8 -->
<g id="Node000008" class="node">
<title>Node8</title>
<g id="a_Node000008"><a xlink:href="log__entry_8h.html" target="_top" xlink:title=" ">
<polygon fill="white" stroke="#666666" points="486.5,-145.5 355.5,-145.5 355.5,-126.5 486.5,-126.5 486.5,-145.5"/>
<text text-anchor="middle" x="421" y="-133.5" font-family="Helvetica,sans-Serif" font-size="10.00">../interfaces/log_entry.h</text>
</a>
</g>
</g>
<!-- Node2&#45;&gt;Node8 -->
<g id="edge8_Node000002_Node000008" class="edge">
<title>Node2&#45;&gt;Node8</title>
<g id="a_edge8_Node000002_Node000008"><a xlink:title=" ">
<path fill="none" stroke="#63b8ff" d="M274.01,-186.99C303.56,-176.94 352.91,-160.16 386.19,-148.84"/>
<polygon fill="#63b8ff" stroke="#63b8ff" points="387.62,-152.05 395.96,-145.52 385.37,-145.42 387.62,-152.05"/>
</a>
</g>
</g>
<!-- Node11 -->
<g id="Node000011" class="node">
<title>Node11</title>
<g id="a_Node000011"><a xlink:title=" ">
<polygon fill="#e0e0e0" stroke="#999999" points="101,-145.5 57,-145.5 57,-126.5 101,-126.5 101,-145.5"/>
<text text-anchor="middle" x="79" y="-133.5" font-family="Helvetica,sans-Serif" font-size="10.00">regex</text>
</a>
</g>
</g>
<!-- Node2&#45;&gt;Node11 -->
<g id="edge14_Node000002_Node000011" class="edge">
<title>Node2&#45;&gt;Node11</title>
<g id="a_edge14_Node000002_Node000011"><a xlink:title=" ">
<path fill="none" stroke="#63b8ff" d="M218.83,-186.93C190.44,-178.61 146.9,-165.18 110,-151 108.82,-150.55 107.62,-150.07 106.42,-149.58"/>
<polygon fill="#63b8ff" stroke="#63b8ff" points="107.78,-146.36 97.21,-145.64 105.03,-152.79 107.78,-146.36"/>
</a>
</g>
</g>
<!-- Node12 -->
<g id="Node000012" class="node">
<title>Node12</title>
<g id="a_Node000012"><a xlink:title=" ">
<polygon fill="#e0e0e0" stroke="#999999" points="184.5,-145.5 119.5,-145.5 119.5,-126.5 184.5,-126.5 184.5,-145.5"/>
<text text-anchor="middle" x="152" y="-133.5" font-family="Helvetica,sans-Serif" font-size="10.00">functional</text>
</a>
</g>
</g>
<!-- Node2&#45;&gt;Node12 -->
<g id="edge16_Node000002_Node000012" class="edge">
<title>Node2&#45;&gt;Node12</title>
<g id="a_edge16_Node000002_Node000012"><a xlink:title=" ">
<path fill="none" stroke="#63b8ff" d="M234.69,-186.87C219,-177.41 193.6,-162.09 175.09,-150.92"/>
<polygon fill="#63b8ff" stroke="#63b8ff" points="176.74,-147.83 166.37,-145.67 173.13,-153.83 176.74,-147.83"/>
</a>
</g>
</g>
<!-- Node3&#45;&gt;Node4 -->
<g id="edge3_Node000003_Node000004" class="edge">
<title>Node3&#45;&gt;Node4</title>
<g id="a_edge3_Node000003_Node000004"><a xlink:title=" ">
<path fill="none" stroke="#63b8ff" d="M138.39,-60.49C116.96,-50.7 81.56,-34.52 56.85,-23.23"/>
<polygon fill="#63b8ff" stroke="#63b8ff" points="58.18,-19.99 47.63,-19.02 55.28,-26.36 58.18,-19.99"/>
</a>
</g>
</g>
<!-- Node5 -->
<g id="Node000005" class="node">
<title>Node5</title>
<g id="a_Node000005"><a xlink:title=" ">
<polygon fill="#e0e0e0" stroke="#999999" points="181,-19 133,-19 133,0 181,0 181,-19"/>
<text text-anchor="middle" x="157" y="-7" font-family="Helvetica,sans-Serif" font-size="10.00">mutex</text>
</a>
</g>
</g>
<!-- Node3&#45;&gt;Node5 -->
<g id="edge4_Node000003_Node000005" class="edge">
<title>Node3&#45;&gt;Node5</title>
<g id="a_edge4_Node000003_Node000005"><a xlink:title=" ">
<path fill="none" stroke="#63b8ff" d="M157,-60.37C157,-52.25 157,-39.81 157,-29.39"/>
<polygon fill="#63b8ff" stroke="#63b8ff" points="160.5,-29.17 157,-19.17 153.5,-29.17 160.5,-29.17"/>
</a>
</g>
</g>
<!-- Node3&#45;&gt;Node6 -->
<g id="edge5_Node000003_Node000006" class="edge">
<title>Node3&#45;&gt;Node6</title>
<g id="a_edge5_Node000003_Node000006"><a xlink:title=" ">
<path fill="none" stroke="#63b8ff" d="M195.39,-60.49C247.61,-48.92 340.12,-28.42 388.88,-17.62"/>
<polygon fill="#63b8ff" stroke="#63b8ff" points="389.86,-20.98 398.87,-15.4 388.35,-14.15 389.86,-20.98"/>
</a>
</g>
</g>
<!-- Node7&#45;&gt;Node6 -->
<g id="edge7_Node000007_Node000006" class="edge">
<title>Node7&#45;&gt;Node6</title>
<g id="a_edge7_Node000007_Node000006"><a xlink:title=" ">
<path fill="none" stroke="#63b8ff" d="M322.9,-54.99C344.13,-45.36 372.11,-32.67 392.75,-23.31"/>
<polygon fill="#63b8ff" stroke="#63b8ff" points="394.29,-26.46 401.95,-19.14 391.4,-20.08 394.29,-26.46"/>
</a>
</g>
</g>
<!-- Node8&#45;&gt;Node3 -->
<g id="edge12_Node000008_Node000003" class="edge">
<title>Node8&#45;&gt;Node3</title>
<g id="a_edge12_Node000008_Node000003"><a xlink:title=" ">
<path fill="none" stroke="#63b8ff" d="M385.67,-126.44C338.25,-114.94 253.99,-94.51 202.06,-81.92"/>
<polygon fill="#63b8ff" stroke="#63b8ff" points="202.66,-78.47 192.12,-79.51 201.01,-85.27 202.66,-78.47"/>
</a>
</g>
</g>
<!-- Node8&#45;&gt;Node6 -->
<g id="edge9_Node000008_Node000006" class="edge">
<title>Node8&#45;&gt;Node6</title>
<g id="a_edge9_Node000008_Node000006"><a xlink:title=" ">
<path fill="none" stroke="#63b8ff" d="M421,-126.44C421,-106.54 421,-56.76 421,-29.35"/>
<polygon fill="#63b8ff" stroke="#63b8ff" points="424.5,-29.12 421,-19.12 417.5,-29.12 424.5,-29.12"/>
</a>
</g>
</g>
<!-- Node9 -->
<g id="Node000009" class="node">
<title>Node9</title>
<g id="a_Node000009"><a xlink:title=" ">
<polygon fill="#e0e0e0" stroke="#999999" points="585,-79.5 535,-79.5 535,-60.5 585,-60.5 585,-79.5"/>
<text text-anchor="middle" x="560" y="-67.5" font-family="Helvetica,sans-Serif" font-size="10.00">chrono</text>
</a>
</g>
</g>
<!-- Node8&#45;&gt;Node9 -->
<g id="edge10_Node000008_Node000009" class="edge">
<title>Node8&#45;&gt;Node9</title>
<g id="a_edge10_Node000008_Node000009"><a xlink:title=" ">
<path fill="none" stroke="#63b8ff" d="M439.75,-126.37C463.48,-115.44 504.57,-96.52 532.02,-83.88"/>
<polygon fill="#63b8ff" stroke="#63b8ff" points="533.49,-87.06 541.11,-79.7 530.56,-80.7 533.49,-87.06"/>
</a>
</g>
</g>
<!-- Node10 -->
<g id="Node000010" class="node">
<title>Node10</title>
<g id="a_Node000010"><a xlink:title=" ">
<polygon fill="#e0e0e0" stroke="#999999" points="544,-19 488,-19 488,0 544,0 544,-19"/>
<text text-anchor="middle" x="516" y="-7" font-family="Helvetica,sans-Serif" font-size="10.00">optional</text>
</a>
</g>
</g>
<!-- Node8&#45;&gt;Node10 -->
<g id="edge11_Node000008_Node000010" class="edge">
<title>Node8&#45;&gt;Node10</title>
<g id="a_edge11_Node000008_Node000010"><a xlink:title=" ">
<path fill="none" stroke="#63b8ff" d="M427.53,-126.44C443.12,-106.01 482.75,-54.07 503.26,-27.19"/>
<polygon fill="#63b8ff" stroke="#63b8ff" points="506.14,-29.19 509.42,-19.12 500.58,-24.94 506.14,-29.19"/>
</a>
</g>
</g>
<!-- Node13&#45;&gt;Node3 -->
<g id="edge20_Node000013_Node000003" class="edge">
<title>Node13&#45;&gt;Node3</title>
<g id="a_edge20_Node000013_Node000003"><a xlink:title=" ">
<path fill="none" stroke="#63b8ff" d="M443.56,-187C418.83,-178.29 379.56,-164.22 346,-151 288.72,-128.45 222.68,-99.9 185.79,-83.72"/>
<polygon fill="#63b8ff" stroke="#63b8ff" points="186.75,-80.32 176.19,-79.5 183.93,-86.73 186.75,-80.32"/>
</a>
</g>
</g>
<!-- Node13&#45;&gt;Node6 -->
<g id="edge18_Node000013_Node000006" class="edge">
<title>Node13&#45;&gt;Node6</title>
<g id="a_edge18_Node000013_Node000006"><a xlink:title=" ">
<path fill="none" stroke="#63b8ff" d="M475.15,-186.97C481.77,-178.48 491.15,-164.75 495,-151 498.59,-138.16 498.88,-133.76 495,-121 483.55,-83.33 454.53,-46.82 436.42,-26.64"/>
<polygon fill="#63b8ff" stroke="#63b8ff" points="438.98,-24.25 429.63,-19.26 433.83,-28.99 438.98,-24.25"/>
</a>
</g>
</g>
<!-- Node13&#45;&gt;Node8 -->
<g id="edge31_Node000013_Node000008" class="edge">
<title>Node13&#45;&gt;Node8</title>
<g id="a_edge31_Node000013_Node000008"><a xlink:title=" ">
<path fill="none" stroke="#63b8ff" d="M461.06,-186.87C454.05,-178.14 443.04,-164.43 434.33,-153.59"/>
<polygon fill="#63b8ff" stroke="#63b8ff" points="436.96,-151.27 427.96,-145.67 431.5,-155.66 436.96,-151.27"/>
</a>
</g>
</g>
<!-- Node13&#45;&gt;Node9 -->
<g id="edge19_Node000013_Node000009" class="edge">
<title>Node13&#45;&gt;Node9</title>
<g id="a_edge19_Node000013_Node000009"><a xlink:title=" ">
<path fill="none" stroke="#63b8ff" d="M484.55,-186.95C498.14,-179.19 517.02,-166.59 529,-151 543.14,-132.59 551.56,-106.94 555.97,-89.7"/>
<polygon fill="#63b8ff" stroke="#63b8ff" points="559.43,-90.27 558.32,-79.74 552.62,-88.67 559.43,-90.27"/>
</a>
</g>
</g>
<!-- Node14 -->
<g id="Node000014" class="node">
<title>Node14</title>
<g id="a_Node000014"><a xlink:href="error__codes_8h.html" target="_top" xlink:title=" ">
<polygon fill="white" stroke="#666666" points="733,-79.5 641,-79.5 641,-60.5 733,-60.5 733,-79.5"/>
<text text-anchor="middle" x="687" y="-67.5" font-family="Helvetica,sans-Serif" font-size="10.00">../error_codes.h</text>
</a>
</g>
</g>
<!-- Node13&#45;&gt;Node14 -->
<g id="edge21_Node000013_Node000014" class="edge">
<title>Node13&#45;&gt;Node14</title>
<g id="a_edge21_Node000013_Node000014"><a xlink:title=" ">
<path fill="none" stroke="#63b8ff" d="M526.15,-186.97C597.52,-176.23 709.9,-158.3 716,-151 731.42,-132.57 715.54,-105.27 701.91,-87.8"/>
<polygon fill="#63b8ff" stroke="#63b8ff" points="704.24,-85.13 695.16,-79.67 698.85,-89.6 704.24,-85.13"/>
</a>
</g>
</g>
<!-- Node18 -->
<g id="Node000018" class="node">
<title>Node18</title>
<g id="a_Node000018"><a xlink:href="log__writer__interface_8h.html" target="_top" xlink:title=" ">
<polygon fill="white" stroke="#666666" points="707,-151 581,-151 581,-121 707,-121 707,-151"/>
<text text-anchor="start" x="589" y="-139" font-family="Helvetica,sans-Serif" font-size="10.00">../interfaces/log_writer</text>
<text text-anchor="middle" x="644" y="-128" font-family="Helvetica,sans-Serif" font-size="10.00">_interface.h</text>
</a>
</g>
</g>
<!-- Node13&#45;&gt;Node18 -->
<g id="edge27_Node000013_Node000018" class="edge">
<title>Node13&#45;&gt;Node18</title>
<g id="a_edge27_Node000013_Node000018"><a xlink:title=" ">
<path fill="none" stroke="#63b8ff" d="M493.59,-186.99C519.25,-178.46 559.5,-165.09 591.91,-154.32"/>
<polygon fill="#63b8ff" stroke="#63b8ff" points="593.3,-157.54 601.69,-151.06 591.09,-150.9 593.3,-157.54"/>
</a>
</g>
</g>
<!-- Node14&#45;&gt;Node6 -->
<g id="edge22_Node000014_Node000006" class="edge">
<title>Node14&#45;&gt;Node6</title>
<g id="a_edge22_Node000014_Node000006"><a xlink:title=" ">
<path fill="none" stroke="#63b8ff" d="M650.85,-60.46C642.99,-58.64 634.72,-56.74 627,-55 565.59,-41.2 493.69,-25.85 453.13,-17.27"/>
<polygon fill="#63b8ff" stroke="#63b8ff" points="453.79,-13.83 443.28,-15.19 452.34,-20.68 453.79,-13.83"/>
</a>
</g>
</g>
<!-- Node14&#45;&gt;Node10 -->
<g id="edge25_Node000014_Node000010" class="edge">
<title>Node14&#45;&gt;Node10</title>
<g id="a_edge25_Node000014_Node000010"><a xlink:title=" ">
<path fill="none" stroke="#63b8ff" d="M662.14,-60.49C632.75,-50.44 583.69,-33.66 550.61,-22.34"/>
<polygon fill="#63b8ff" stroke="#63b8ff" points="551.49,-18.94 540.89,-19.02 549.22,-25.57 551.49,-18.94"/>
</a>
</g>
</g>
<!-- Node15 -->
<g id="Node000015" class="node">
<title>Node15</title>
<g id="a_Node000015"><a xlink:title=" ">
<polygon fill="#e0e0e0" stroke="#999999" points="646.5,-19 581.5,-19 581.5,0 646.5,0 646.5,-19"/>
<text text-anchor="middle" x="614" y="-7" font-family="Helvetica,sans-Serif" font-size="10.00">stdexcept</text>
</a>
</g>
</g>
<!-- Node14&#45;&gt;Node15 -->
<g id="edge23_Node000014_Node000015" class="edge">
<title>Node14&#45;&gt;Node15</title>
<g id="a_edge23_Node000014_Node000015"><a xlink:title=" ">
<path fill="none" stroke="#63b8ff" d="M676.23,-60.37C664.8,-51.21 646.52,-36.56 632.72,-25.51"/>
<polygon fill="#63b8ff" stroke="#63b8ff" points="634.81,-22.69 624.82,-19.17 630.43,-28.15 634.81,-22.69"/>
</a>
</g>
</g>
<!-- Node16 -->
<g id="Node000016" class="node">
<title>Node16</title>
<g id="a_Node000016"><a xlink:title=" ">
<polygon fill="#e0e0e0" stroke="#999999" points="709.5,-19 664.5,-19 664.5,0 709.5,0 709.5,-19"/>
<text text-anchor="middle" x="687" y="-7" font-family="Helvetica,sans-Serif" font-size="10.00">utility</text>
</a>
</g>
</g>
<!-- Node14&#45;&gt;Node16 -->
<g id="edge24_Node000014_Node000016" class="edge">
<title>Node14&#45;&gt;Node16</title>
<g id="a_edge24_Node000014_Node000016"><a xlink:title=" ">
<path fill="none" stroke="#63b8ff" d="M687,-60.37C687,-52.25 687,-39.81 687,-29.39"/>
<polygon fill="#63b8ff" stroke="#63b8ff" points="690.5,-29.17 687,-19.17 683.5,-29.17 690.5,-29.17"/>
</a>
</g>
</g>
<!-- Node17 -->
<g id="Node000017" class="node">
<title>Node17</title>
<g id="a_Node000017"><a xlink:title=" ">
<polygon fill="#e0e0e0" stroke="#999999" points="778.5,-19 727.5,-19 727.5,0 778.5,0 778.5,-19"/>
<text text-anchor="middle" x="753" y="-7" font-family="Helvetica,sans-Serif" font-size="10.00">variant</text>
</a>
</g>
</g>
<!-- Node14&#45;&gt;Node17 -->
<g id="edge26_Node000014_Node000017" class="edge">
<title>Node14&#45;&gt;Node17</title>
<g id="a_edge26_Node000014_Node000017"><a xlink:title=" ">
<path fill="none" stroke="#63b8ff" d="M696.74,-60.37C706.97,-51.3 723.29,-36.84 735.72,-25.82"/>
<polygon fill="#63b8ff" stroke="#63b8ff" points="738.06,-28.42 743.22,-19.17 733.42,-23.18 738.06,-28.42"/>
</a>
</g>
</g>
<!-- Node18&#45;&gt;Node6 -->
<g id="edge28_Node000018_Node000006" class="edge">
<title>Node18&#45;&gt;Node6</title>
<g id="a_edge28_Node000018_Node000006"><a xlink:title=" ">
<path fill="none" stroke="#63b8ff" d="M638.97,-120.82C631.83,-102.74 616.99,-71.84 594,-55 571.75,-38.71 496.93,-23.58 453.31,-15.86"/>
<polygon fill="#63b8ff" stroke="#63b8ff" points="453.66,-12.36 443.21,-14.1 452.46,-19.26 453.66,-12.36"/>
</a>
</g>
</g>
<!-- Node18&#45;&gt;Node9 -->
<g id="edge29_Node000018_Node000009" class="edge">
<title>Node18&#45;&gt;Node9</title>
<g id="a_edge29_Node000018_Node000009"><a xlink:title=" ">
<path fill="none" stroke="#63b8ff" d="M625.36,-120.8C611.88,-110.53 593.69,-96.67 579.92,-86.18"/>
<polygon fill="#63b8ff" stroke="#63b8ff" points="581.68,-83.12 571.61,-79.84 577.44,-88.69 581.68,-83.12"/>
</a>
</g>
</g>
<!-- Node18&#45;&gt;Node14 -->
<g id="edge30_Node000018_Node000014" class="edge">
<title>Node18&#45;&gt;Node14</title>
<g id="a_edge30_Node000018_Node000014"><a xlink:title=" ">
<path fill="none" stroke="#63b8ff" d="M653.54,-120.8C659.98,-111.21 668.52,-98.5 675.36,-88.32"/>
<polygon fill="#63b8ff" stroke="#63b8ff" points="678.39,-90.1 681.06,-79.84 672.58,-86.19 678.39,-90.1"/>
</a>
</g>
</g>
</g>
</svg>
