<?xml version="1.0" encoding="UTF-8" standalone="no"?>
<!DOCTYPE svg PUBLIC "-//W3C//DTD SVG 1.1//EN"
 "http://www.w3.org/Graphics/SVG/1.1/DTD/svg11.dtd">
<!-- Generated by graphviz version 2.43.0 (0)
 -->
<!-- Title: log_collector.cpp Pages: 1 -->
<svg width="1075pt" height="258pt"
 viewBox="0.00 0.00 1075.00 258.00" xmlns="http://www.w3.org/2000/svg" xmlns:xlink="http://www.w3.org/1999/xlink">
<g id="graph0" class="graph" transform="scale(1 1) rotate(0) translate(4 254)">
<title>log_collector.cpp</title>
<!-- Node1 -->
<g id="Node000001" class="node">
<title>Node1</title>
<g id="a_Node000001"><a xlink:title=" ">
<polygon fill="#999999" stroke="#666666" points="802.5,-250 704.5,-250 704.5,-231 802.5,-231 802.5,-250"/>
<text text-anchor="middle" x="753.5" y="-238" font-family="Helvetica,sans-Serif" font-size="10.00">log_collector.cpp</text>
</a>
</g>
</g>
<!-- Node2 -->
<g id="Node000002" class="node">
<title>Node2</title>
<g id="a_Node000002"><a xlink:href="log__collector_8h.html" target="_top" xlink:title=" ">
<polygon fill="white" stroke="#666666" points="687,-195 600,-195 600,-176 687,-176 687,-195"/>
<text text-anchor="middle" x="643.5" y="-183" font-family="Helvetica,sans-Serif" font-size="10.00">log_collector.h</text>
</a>
</g>
</g>
<!-- Node1&#45;&gt;Node2 -->
<g id="edge1_Node000001_Node000002" class="edge">
<title>Node1&#45;&gt;Node2</title>
<g id="a_edge1_Node000001_Node000002"><a xlink:title=" ">
<path fill="none" stroke="#63b8ff" d="M735.83,-230.98C718.21,-222.5 690.92,-209.35 670.57,-199.54"/>
<polygon fill="#63b8ff" stroke="#63b8ff" points="672.02,-196.36 661.49,-195.17 668.98,-202.66 672.02,-196.36"/>
</a>
</g>
</g>
<!-- Node5 -->
<g id="Node000005" class="node">
<title>Node5</title>
<g id="a_Node000005"><a xlink:title=" ">
<polygon fill="#e0e0e0" stroke="#999999" points="804.5,-19 756.5,-19 756.5,0 804.5,0 804.5,-19"/>
<text text-anchor="middle" x="780.5" y="-7" font-family="Helvetica,sans-Serif" font-size="10.00">mutex</text>
</a>
</g>
</g>
<!-- Node1&#45;&gt;Node5 -->
<g id="edge39_Node000001_Node000005" class="edge">
<title>Node1&#45;&gt;Node5</title>
<g id="a_edge39_Node000001_Node000005"><a xlink:title=" ">
<path fill="none" stroke="#63b8ff" d="M766.38,-230.96C788.03,-215.72 830.99,-181.51 847.5,-140 864.55,-97.13 823.35,-49.65 798.21,-25.87"/>
<polygon fill="#63b8ff" stroke="#63b8ff" points="800.45,-23.17 790.71,-19.01 795.73,-28.34 800.45,-23.17"/>
</a>
</g>
</g>
<!-- Node7 -->
<g id="Node000007" class="node">
<title>Node7</title>
<g id="a_Node000007"><a xlink:title=" ">
<polygon fill="#e0e0e0" stroke="#999999" points="704,-134.5 657,-134.5 657,-115.5 704,-115.5 704,-134.5"/>
<text text-anchor="middle" x="680.5" y="-122.5" font-family="Helvetica,sans-Serif" font-size="10.00">vector</text>
</a>
</g>
</g>
<!-- Node1&#45;&gt;Node7 -->
<g id="edge43_Node000001_Node000007" class="edge">
<title>Node1&#45;&gt;Node7</title>
<g id="a_edge43_Node000001_Node000007"><a xlink:title=" ">
<path fill="none" stroke="#63b8ff" d="M748.01,-230.97C736.07,-212.4 707.52,-168.01 691.64,-143.32"/>
<polygon fill="#63b8ff" stroke="#63b8ff" points="694.4,-141.15 686.05,-134.63 688.52,-144.93 694.4,-141.15"/>
</a>
</g>
</g>
<!-- Node8 -->
<g id="Node000008" class="node">
<title>Node8</title>
<g id="a_Node000008"><a xlink:title=" ">
<polygon fill="#e0e0e0" stroke="#999999" points="770.5,-134.5 722.5,-134.5 722.5,-115.5 770.5,-115.5 770.5,-134.5"/>
<text text-anchor="middle" x="746.5" y="-122.5" font-family="Helvetica,sans-Serif" font-size="10.00">thread</text>
</a>
</g>
</g>
<!-- Node1&#45;&gt;Node8 -->
<g id="edge41_Node000001_Node000008" class="edge">
<title>Node1&#45;&gt;Node8</title>
<g id="a_edge41_Node000001_Node000008"><a xlink:title=" ">
<path fill="none" stroke="#63b8ff" d="M752.97,-230.97C751.85,-212.73 749.19,-169.57 747.65,-144.64"/>
<polygon fill="#63b8ff" stroke="#63b8ff" points="751.14,-144.4 747.03,-134.63 744.15,-144.83 751.14,-144.4"/>
</a>
</g>
</g>
<!-- Node9 -->
<g id="Node000009" class="node">
<title>Node9</title>
<g id="a_Node000009"><a xlink:title=" ">
<polygon fill="#e0e0e0" stroke="#999999" points="838.5,-134.5 788.5,-134.5 788.5,-115.5 838.5,-115.5 838.5,-134.5"/>
<text text-anchor="middle" x="813.5" y="-122.5" font-family="Helvetica,sans-Serif" font-size="10.00">atomic</text>
</a>
</g>
</g>
<!-- Node1&#45;&gt;Node9 -->
<g id="edge42_Node000001_Node000009" class="edge">
<title>Node1&#45;&gt;Node9</title>
<g id="a_edge42_Node000001_Node000009"><a xlink:title=" ">
<path fill="none" stroke="#63b8ff" d="M758.01,-230.97C767.78,-212.48 791.09,-168.4 804.17,-143.64"/>
<polygon fill="#63b8ff" stroke="#63b8ff" points="807.36,-145.11 808.94,-134.63 801.17,-141.83 807.36,-145.11"/>
</a>
</g>
</g>
<!-- Node11 -->
<g id="Node000011" class="node">
<title>Node11</title>
<g id="a_Node000011"><a xlink:href="base__writer_8h.html" target="_top" xlink:title=" ">
<polygon fill="white" stroke="#666666" points="340.5,-195 212.5,-195 212.5,-176 340.5,-176 340.5,-195"/>
<text text-anchor="middle" x="276.5" y="-183" font-family="Helvetica,sans-Serif" font-size="10.00">../writers/base_writer.h</text>
</a>
</g>
</g>
<!-- Node1&#45;&gt;Node11 -->
<g id="edge11_Node000001_Node000011" class="edge">
<title>Node1&#45;&gt;Node11</title>
<g id="a_edge11_Node000001_Node000011"><a xlink:title=" ">
<path fill="none" stroke="#63b8ff" d="M704.25,-234.03C620.34,-224.7 449.19,-205.69 350.72,-194.75"/>
<polygon fill="#63b8ff" stroke="#63b8ff" points="350.87,-191.24 340.55,-193.62 350.1,-198.2 350.87,-191.24"/>
</a>
</g>
</g>
<!-- Node18 -->
<g id="Node000018" class="node">
<title>Node18</title>
<g id="a_Node000018"><a xlink:href="log__entry_8h.html" target="_top" xlink:title=" ">
<polygon fill="white" stroke="#666666" points="474,-134.5 343,-134.5 343,-115.5 474,-115.5 474,-134.5"/>
<text text-anchor="middle" x="408.5" y="-122.5" font-family="Helvetica,sans-Serif" font-size="10.00">../interfaces/log_entry.h</text>
</a>
</g>
</g>
<!-- Node1&#45;&gt;Node18 -->
<g id="edge37_Node000001_Node000018" class="edge">
<title>Node1&#45;&gt;Node18</title>
<g id="a_edge37_Node000001_Node000018"><a xlink:title=" ">
<path fill="none" stroke="#63b8ff" d="M718.56,-230.99C685.35,-222.67 634.16,-209.2 590.5,-195 536.16,-177.33 474.2,-152.89 438.39,-138.34"/>
<polygon fill="#63b8ff" stroke="#63b8ff" points="439.6,-135.06 429.01,-134.52 436.95,-141.54 439.6,-135.06"/>
</a>
</g>
</g>
<!-- Node23 -->
<g id="Node000023" class="node">
<title>Node23</title>
<g id="a_Node000023"><a xlink:title=" ">
<polygon fill="#e0e0e0" stroke="#999999" points="942,-195 895,-195 895,-176 942,-176 942,-195"/>
<text text-anchor="middle" x="918.5" y="-183" font-family="Helvetica,sans-Serif" font-size="10.00">queue</text>
</a>
</g>
</g>
<!-- Node1&#45;&gt;Node23 -->
<g id="edge38_Node000001_Node000023" class="edge">
<title>Node1&#45;&gt;Node23</title>
<g id="a_edge38_Node000001_Node000023"><a xlink:title=" ">
<path fill="none" stroke="#63b8ff" d="M780.01,-230.98C808.57,-221.81 854.09,-207.19 885.09,-197.23"/>
<polygon fill="#63b8ff" stroke="#63b8ff" points="886.54,-200.44 895,-194.05 884.4,-193.78 886.54,-200.44"/>
</a>
</g>
</g>
<!-- Node24 -->
<g id="Node000024" class="node">
<title>Node24</title>
<g id="a_Node000024"><a xlink:title=" ">
<polygon fill="#e0e0e0" stroke="#999999" points="1067,-195 960,-195 960,-176 1067,-176 1067,-195"/>
<text text-anchor="middle" x="1013.5" y="-183" font-family="Helvetica,sans-Serif" font-size="10.00">condition_variable</text>
</a>
</g>
</g>
<!-- Node1&#45;&gt;Node24 -->
<g id="edge40_Node000001_Node000024" class="edge">
<title>Node1&#45;&gt;Node24</title>
<g id="a_edge40_Node000001_Node000024"><a xlink:title=" ">
<path fill="none" stroke="#63b8ff" d="M795.27,-230.98C840.44,-221.78 912.5,-207.09 961.35,-197.13"/>
<polygon fill="#63b8ff" stroke="#63b8ff" points="962.3,-200.51 971.4,-195.08 960.9,-193.65 962.3,-200.51"/>
</a>
</g>
</g>
<!-- Node3 -->
<g id="Node000003" class="node">
<title>Node3</title>
<g id="a_Node000003"><a xlink:href="logger__interface_8h.html" target="_top" xlink:title=" ">
<polygon fill="white" stroke="#666666" points="647.5,-74 533.5,-74 533.5,-55 647.5,-55 647.5,-74"/>
<text text-anchor="middle" x="590.5" y="-62" font-family="Helvetica,sans-Serif" font-size="10.00">../logger_interface.h</text>
</a>
</g>
</g>
<!-- Node2&#45;&gt;Node3 -->
<g id="edge2_Node000002_Node000003" class="edge">
<title>Node2&#45;&gt;Node3</title>
<g id="a_edge2_Node000002_Node000003"><a xlink:title=" ">
<path fill="none" stroke="#63b8ff" d="M636.76,-175.71C630.34,-167.02 620.77,-153.15 614.5,-140 605.75,-121.64 599.03,-99.28 594.95,-83.88"/>
<polygon fill="#63b8ff" stroke="#63b8ff" points="598.31,-82.88 592.46,-74.05 591.53,-84.6 598.31,-82.88"/>
</a>
</g>
</g>
<!-- Node4 -->
<g id="Node000004" class="node">
<title>Node4</title>
<g id="a_Node000004"><a xlink:title=" ">
<polygon fill="#e0e0e0" stroke="#999999" points="652.5,-19 594.5,-19 594.5,0 652.5,0 652.5,-19"/>
<text text-anchor="middle" x="623.5" y="-7" font-family="Helvetica,sans-Serif" font-size="10.00">memory</text>
</a>
</g>
</g>
<!-- Node2&#45;&gt;Node4 -->
<g id="edge6_Node000002_Node000004" class="edge">
<title>Node2&#45;&gt;Node4</title>
<g id="a_edge6_Node000002_Node000004"><a xlink:title=" ">
<path fill="none" stroke="#63b8ff" d="M643.43,-175.73C643.44,-161.74 643.95,-133.57 647.5,-110 649.95,-93.69 654.48,-90.37 656.5,-74 657.53,-65.62 659.15,-63.02 656.5,-55 653.04,-44.54 646.07,-34.53 639.42,-26.66"/>
<polygon fill="#63b8ff" stroke="#63b8ff" points="641.83,-24.1 632.52,-19.04 636.64,-28.8 641.83,-24.1"/>
</a>
</g>
</g>
<!-- Node2&#45;&gt;Node7 -->
<g id="edge7_Node000002_Node000007" class="edge">
<title>Node2&#45;&gt;Node7</title>
<g id="a_edge7_Node000002_Node000007"><a xlink:title=" ">
<path fill="none" stroke="#63b8ff" d="M648.96,-175.87C654.37,-167.31 662.81,-153.97 669.6,-143.24"/>
<polygon fill="#63b8ff" stroke="#63b8ff" points="672.63,-144.99 675.02,-134.67 666.71,-141.25 672.63,-144.99"/>
</a>
</g>
</g>
<!-- Node2&#45;&gt;Node8 -->
<g id="edge8_Node000002_Node000008" class="edge">
<title>Node2&#45;&gt;Node8</title>
<g id="a_edge8_Node000002_Node000008"><a xlink:title=" ">
<path fill="none" stroke="#63b8ff" d="M658.7,-175.87C675.51,-166.32 702.82,-150.81 722.52,-139.62"/>
<polygon fill="#63b8ff" stroke="#63b8ff" points="724.27,-142.65 731.24,-134.67 720.82,-136.56 724.27,-142.65"/>
</a>
</g>
</g>
<!-- Node2&#45;&gt;Node9 -->
<g id="edge9_Node000002_Node000009" class="edge">
<title>Node2&#45;&gt;Node9</title>
<g id="a_edge9_Node000002_Node000009"><a xlink:title=" ">
<path fill="none" stroke="#63b8ff" d="M671.58,-175.98C699.23,-167.44 742.56,-153.63 779.5,-140 780.92,-139.48 782.37,-138.93 783.84,-138.37"/>
<polygon fill="#63b8ff" stroke="#63b8ff" points="785.46,-141.49 793.46,-134.54 782.88,-134.98 785.46,-141.49"/>
</a>
</g>
</g>
<!-- Node10 -->
<g id="Node000010" class="node">
<title>Node10</title>
<g id="a_Node000010"><a xlink:title=" ">
<polygon fill="#e0e0e0" stroke="#999999" points="301.5,-74 251.5,-74 251.5,-55 301.5,-55 301.5,-74"/>
<text text-anchor="middle" x="276.5" y="-62" font-family="Helvetica,sans-Serif" font-size="10.00">chrono</text>
</a>
</g>
</g>
<!-- Node2&#45;&gt;Node10 -->
<g id="edge10_Node000002_Node000010" class="edge">
<title>Node2&#45;&gt;Node10</title>
<g id="a_edge10_Node000002_Node000010"><a xlink:title=" ">
<path fill="none" stroke="#63b8ff" d="M599.73,-182.27C525.28,-177.82 377.77,-165.95 333.5,-140 310.95,-126.78 294.27,-100.86 284.96,-83.35"/>
<polygon fill="#63b8ff" stroke="#63b8ff" points="287.97,-81.54 280.35,-74.18 281.72,-84.68 287.97,-81.54"/>
</a>
</g>
</g>
<!-- Node3&#45;&gt;Node4 -->
<g id="edge3_Node000003_Node000004" class="edge">
<title>Node3&#45;&gt;Node4</title>
<g id="a_edge3_Node000003_Node000004"><a xlink:title=" ">
<path fill="none" stroke="#63b8ff" d="M595.95,-54.75C600.51,-47.42 607.17,-36.73 612.79,-27.7"/>
<polygon fill="#63b8ff" stroke="#63b8ff" points="615.84,-29.43 618.15,-19.09 609.9,-25.73 615.84,-29.43"/>
</a>
</g>
</g>
<!-- Node3&#45;&gt;Node5 -->
<g id="edge4_Node000003_Node000005" class="edge">
<title>Node3&#45;&gt;Node5</title>
<g id="a_edge4_Node000003_Node000005"><a xlink:title=" ">
<path fill="none" stroke="#63b8ff" d="M621.03,-54.98C655.3,-45.42 710.78,-29.95 746.44,-20"/>
<polygon fill="#63b8ff" stroke="#63b8ff" points="747.69,-23.29 756.38,-17.23 745.8,-16.54 747.69,-23.29"/>
</a>
</g>
</g>
<!-- Node6 -->
<g id="Node000006" class="node">
<title>Node6</title>
<g id="a_Node000006"><a xlink:title=" ">
<polygon fill="#e0e0e0" stroke="#999999" points="334.5,-19 290.5,-19 290.5,0 334.5,0 334.5,-19"/>
<text text-anchor="middle" x="312.5" y="-7" font-family="Helvetica,sans-Serif" font-size="10.00">string</text>
</a>
</g>
</g>
<!-- Node3&#45;&gt;Node6 -->
<g id="edge5_Node000003_Node000006" class="edge">
<title>Node3&#45;&gt;Node6</title>
<g id="a_edge5_Node000003_Node000006"><a xlink:title=" ">
<path fill="none" stroke="#63b8ff" d="M534.79,-54.92C486.8,-47.2 415.49,-34.95 344.76,-19.12"/>
<polygon fill="#63b8ff" stroke="#63b8ff" points="345.32,-15.66 334.79,-16.87 343.77,-22.49 345.32,-15.66"/>
</a>
</g>
</g>
<!-- Node11&#45;&gt;Node3 -->
<g id="edge14_Node000011_Node000003" class="edge">
<title>Node11&#45;&gt;Node3</title>
<g id="a_edge14_Node000011_Node000003"><a xlink:title=" ">
<path fill="none" stroke="#63b8ff" d="M340.68,-177.22C382.36,-170.91 437.17,-159.61 482.5,-140 517.44,-124.88 552.79,-97.75 573.12,-80.74"/>
<polygon fill="#63b8ff" stroke="#63b8ff" points="575.53,-83.28 580.87,-74.13 570.99,-77.95 575.53,-83.28"/>
</a>
</g>
</g>
<!-- Node11&#45;&gt;Node6 -->
<g id="edge12_Node000011_Node000006" class="edge">
<title>Node11&#45;&gt;Node6</title>
<g id="a_edge12_Node000011_Node000006"><a xlink:title=" ">
<path fill="none" stroke="#63b8ff" d="M270.04,-175.79C254.82,-154.12 219.67,-96.56 242.5,-55 250.8,-39.88 266.66,-29.17 281.18,-22.05"/>
<polygon fill="#63b8ff" stroke="#63b8ff" points="282.76,-25.18 290.44,-17.88 279.89,-18.8 282.76,-25.18"/>
</a>
</g>
</g>
<!-- Node11&#45;&gt;Node10 -->
<g id="edge13_Node000011_Node000010" class="edge">
<title>Node11&#45;&gt;Node10</title>
<g id="a_edge13_Node000011_Node000010"><a xlink:title=" ">
<path fill="none" stroke="#63b8ff" d="M276.5,-175.94C276.5,-156.91 276.5,-110.69 276.5,-84.47"/>
<polygon fill="#63b8ff" stroke="#63b8ff" points="280,-84.3 276.5,-74.3 273,-84.3 280,-84.3"/>
</a>
</g>
</g>
<!-- Node12 -->
<g id="Node000012" class="node">
<title>Node12</title>
<g id="a_Node000012"><a xlink:href="error__codes_8h.html" target="_top" xlink:title=" ">
<polygon fill="white" stroke="#666666" points="157.5,-74 65.5,-74 65.5,-55 157.5,-55 157.5,-74"/>
<text text-anchor="middle" x="111.5" y="-62" font-family="Helvetica,sans-Serif" font-size="10.00">../error_codes.h</text>
</a>
</g>
</g>
<!-- Node11&#45;&gt;Node12 -->
<g id="edge15_Node000011_Node000012" class="edge">
<title>Node11&#45;&gt;Node12</title>
<g id="a_edge15_Node000011_Node000012"><a xlink:title=" ">
<path fill="none" stroke="#63b8ff" d="M212.35,-178.92C160.18,-172.9 92.51,-161.18 75.5,-140 60.97,-121.9 79.12,-96.97 94.49,-81.05"/>
<polygon fill="#63b8ff" stroke="#63b8ff" points="96.96,-83.52 101.65,-74.02 92.06,-78.52 96.96,-83.52"/>
</a>
</g>
</g>
<!-- Node17 -->
<g id="Node000017" class="node">
<title>Node17</title>
<g id="a_Node000017"><a xlink:href="log__writer__interface_8h.html" target="_top" xlink:title=" ">
<polygon fill="white" stroke="#666666" points="210.5,-140 84.5,-140 84.5,-110 210.5,-110 210.5,-140"/>
<text text-anchor="start" x="92.5" y="-128" font-family="Helvetica,sans-Serif" font-size="10.00">../interfaces/log_writer</text>
<text text-anchor="middle" x="147.5" y="-117" font-family="Helvetica,sans-Serif" font-size="10.00">_interface.h</text>
</a>
</g>
</g>
<!-- Node11&#45;&gt;Node17 -->
<g id="edge21_Node000011_Node000017" class="edge">
<title>Node11&#45;&gt;Node17</title>
<g id="a_edge21_Node000011_Node000017"><a xlink:title=" ">
<path fill="none" stroke="#63b8ff" d="M257.74,-175.99C239.56,-167.75 211.4,-154.98 188.08,-144.4"/>
<polygon fill="#63b8ff" stroke="#63b8ff" points="189.32,-141.12 178.76,-140.18 186.43,-147.5 189.32,-141.12"/>
</a>
</g>
</g>
<!-- Node11&#45;&gt;Node18 -->
<g id="edge25_Node000011_Node000018" class="edge">
<title>Node11&#45;&gt;Node18</title>
<g id="a_edge25_Node000011_Node000018"><a xlink:title=" ">
<path fill="none" stroke="#63b8ff" d="M295.69,-175.99C317.89,-166.16 354.62,-149.88 380.12,-138.58"/>
<polygon fill="#63b8ff" stroke="#63b8ff" points="381.56,-141.77 389.28,-134.52 378.72,-135.37 381.56,-141.77"/>
</a>
</g>
</g>
<!-- Node12&#45;&gt;Node6 -->
<g id="edge16_Node000012_Node000006" class="edge">
<title>Node12&#45;&gt;Node6</title>
<g id="a_edge16_Node000012_Node000006"><a xlink:title=" ">
<path fill="none" stroke="#63b8ff" d="M143.9,-54.99C177.93,-46.05 232.98,-31.57 280.5,-19 280.6,-18.97 280.7,-18.95 280.8,-18.92"/>
<polygon fill="#63b8ff" stroke="#63b8ff" points="281.7,-22.3 290.47,-16.36 279.9,-15.54 281.7,-22.3"/>
</a>
</g>
</g>
<!-- Node13 -->
<g id="Node000013" class="node">
<title>Node13</title>
<g id="a_Node000013"><a xlink:title=" ">
<polygon fill="#e0e0e0" stroke="#999999" points="65,-19 0,-19 0,0 65,0 65,-19"/>
<text text-anchor="middle" x="32.5" y="-7" font-family="Helvetica,sans-Serif" font-size="10.00">stdexcept</text>
</a>
</g>
</g>
<!-- Node12&#45;&gt;Node13 -->
<g id="edge17_Node000012_Node000013" class="edge">
<title>Node12&#45;&gt;Node13</title>
<g id="a_edge17_Node000012_Node000013"><a xlink:title=" ">
<path fill="none" stroke="#63b8ff" d="M98.81,-54.98C86.67,-46.84 68.14,-34.41 53.75,-24.76"/>
<polygon fill="#63b8ff" stroke="#63b8ff" points="55.68,-21.84 45.42,-19.17 51.78,-27.65 55.68,-21.84"/>
</a>
</g>
</g>
<!-- Node14 -->
<g id="Node000014" class="node">
<title>Node14</title>
<g id="a_Node000014"><a xlink:title=" ">
<polygon fill="#e0e0e0" stroke="#999999" points="272,-19 227,-19 227,0 272,0 272,-19"/>
<text text-anchor="middle" x="249.5" y="-7" font-family="Helvetica,sans-Serif" font-size="10.00">utility</text>
</a>
</g>
</g>
<!-- Node12&#45;&gt;Node14 -->
<g id="edge18_Node000012_Node000014" class="edge">
<title>Node12&#45;&gt;Node14</title>
<g id="a_edge18_Node000012_Node000014"><a xlink:title=" ">
<path fill="none" stroke="#63b8ff" d="M133.67,-54.98C156.27,-46.3 191.56,-32.75 217.25,-22.88"/>
<polygon fill="#63b8ff" stroke="#63b8ff" points="218.84,-26.02 226.92,-19.17 216.33,-19.49 218.84,-26.02"/>
</a>
</g>
</g>
<!-- Node15 -->
<g id="Node000015" class="node">
<title>Node15</title>
<g id="a_Node000015"><a xlink:title=" ">
<polygon fill="#e0e0e0" stroke="#999999" points="208.5,-19 152.5,-19 152.5,0 208.5,0 208.5,-19"/>
<text text-anchor="middle" x="180.5" y="-7" font-family="Helvetica,sans-Serif" font-size="10.00">optional</text>
</a>
</g>
</g>
<!-- Node12&#45;&gt;Node15 -->
<g id="edge19_Node000012_Node000015" class="edge">
<title>Node12&#45;&gt;Node15</title>
<g id="a_edge19_Node000012_Node000015"><a xlink:title=" ">
<path fill="none" stroke="#63b8ff" d="M122.59,-54.98C132.99,-47 148.76,-34.88 161.22,-25.31"/>
<polygon fill="#63b8ff" stroke="#63b8ff" points="163.41,-28.04 169.21,-19.17 159.15,-22.49 163.41,-28.04"/>
</a>
</g>
</g>
<!-- Node16 -->
<g id="Node000016" class="node">
<title>Node16</title>
<g id="a_Node000016"><a xlink:title=" ">
<polygon fill="#e0e0e0" stroke="#999999" points="134,-19 83,-19 83,0 134,0 134,-19"/>
<text text-anchor="middle" x="108.5" y="-7" font-family="Helvetica,sans-Serif" font-size="10.00">variant</text>
</a>
</g>
</g>
<!-- Node12&#45;&gt;Node16 -->
<g id="edge20_Node000012_Node000016" class="edge">
<title>Node12&#45;&gt;Node16</title>
<g id="a_edge20_Node000012_Node000016"><a xlink:title=" ">
<path fill="none" stroke="#63b8ff" d="M111,-54.75C110.61,-47.8 110.05,-37.85 109.55,-29.13"/>
<polygon fill="#63b8ff" stroke="#63b8ff" points="113.05,-28.88 108.99,-19.09 106.06,-29.27 113.05,-28.88"/>
</a>
</g>
</g>
<!-- Node17&#45;&gt;Node6 -->
<g id="edge22_Node000017_Node000006" class="edge">
<title>Node17&#45;&gt;Node6</title>
<g id="a_edge22_Node000017_Node000006"><a xlink:title=" ">
<path fill="none" stroke="#63b8ff" d="M157.25,-109.92C168.4,-94.69 187.92,-70.51 209.5,-55 231.21,-39.39 259.25,-27.73 280.59,-20.27"/>
<polygon fill="#63b8ff" stroke="#63b8ff" points="281.82,-23.55 290.17,-17.04 279.58,-16.91 281.82,-23.55"/>
</a>
</g>
</g>
<!-- Node17&#45;&gt;Node10 -->
<g id="edge23_Node000017_Node000010" class="edge">
<title>Node17&#45;&gt;Node10</title>
<g id="a_edge23_Node000017_Node000010"><a xlink:title=" ">
<path fill="none" stroke="#63b8ff" d="M178.4,-109.99C199.63,-100.36 227.61,-87.67 248.25,-78.31"/>
<polygon fill="#63b8ff" stroke="#63b8ff" points="249.79,-81.46 257.45,-74.14 246.9,-75.08 249.79,-81.46"/>
</a>
</g>
</g>
<!-- Node17&#45;&gt;Node12 -->
<g id="edge24_Node000017_Node000012" class="edge">
<title>Node17&#45;&gt;Node12</title>
<g id="a_edge24_Node000017_Node000012"><a xlink:title=" ">
<path fill="none" stroke="#63b8ff" d="M138.79,-109.84C133.83,-101.78 127.57,-91.62 122.3,-83.06"/>
<polygon fill="#63b8ff" stroke="#63b8ff" points="125.12,-80.95 116.89,-74.27 119.15,-84.62 125.12,-80.95"/>
</a>
</g>
</g>
<!-- Node18&#45;&gt;Node3 -->
<g id="edge36_Node000018_Node000003" class="edge">
<title>Node18&#45;&gt;Node3</title>
<g id="a_edge36_Node000018_Node000003"><a xlink:title=" ">
<path fill="none" stroke="#63b8ff" d="M434.96,-115.49C466.37,-105.4 518.9,-88.51 554.12,-77.19"/>
<polygon fill="#63b8ff" stroke="#63b8ff" points="555.55,-80.41 564,-74.02 553.41,-73.74 555.55,-80.41"/>
</a>
</g>
</g>
<!-- Node18&#45;&gt;Node6 -->
<g id="edge26_Node000018_Node000006" class="edge">
<title>Node18&#45;&gt;Node6</title>
<g id="a_edge26_Node000018_Node000006"><a xlink:title=" ">
<path fill="none" stroke="#63b8ff" d="M401.28,-115.47C385.37,-96.65 347.03,-51.32 326.32,-26.84"/>
<polygon fill="#63b8ff" stroke="#63b8ff" points="328.93,-24.5 319.8,-19.13 323.58,-29.03 328.93,-24.5"/>
</a>
</g>
</g>
<!-- Node18&#45;&gt;Node10 -->
<g id="edge27_Node000018_Node000010" class="edge">
<title>Node18&#45;&gt;Node10</title>
<g id="a_edge27_Node000018_Node000010"><a xlink:title=" ">
<path fill="none" stroke="#63b8ff" d="M389.31,-115.49C367.11,-105.66 330.38,-89.38 304.88,-78.08"/>
<polygon fill="#63b8ff" stroke="#63b8ff" points="306.28,-74.87 295.72,-74.02 303.44,-81.27 306.28,-74.87"/>
</a>
</g>
</g>
<!-- Node18&#45;&gt;Node15 -->
<g id="edge28_Node000018_Node000015" class="edge">
<title>Node18&#45;&gt;Node15</title>
<g id="a_edge28_Node000018_Node000015"><a xlink:title=" ">
<path fill="none" stroke="#63b8ff" d="M398.26,-115.29C381.09,-101.04 344.98,-72.58 310.5,-55 280.82,-39.86 244.83,-28 218.26,-20.34"/>
<polygon fill="#63b8ff" stroke="#63b8ff" points="219.14,-16.95 208.56,-17.61 217.24,-23.69 219.14,-16.95"/>
</a>
</g>
</g>
<!-- Node19 -->
<g id="Node000019" class="node">
<title>Node19</title>
<g id="a_Node000019"><a xlink:href="small__string_8h.html" target="_top" xlink:title=" ">
<polygon fill="white" stroke="#666666" points="515,-74 396,-74 396,-55 515,-55 515,-74"/>
<text text-anchor="middle" x="455.5" y="-62" font-family="Helvetica,sans-Serif" font-size="10.00">../core/small_string.h</text>
</a>
</g>
</g>
<!-- Node18&#45;&gt;Node19 -->
<g id="edge29_Node000018_Node000019" class="edge">
<title>Node18&#45;&gt;Node19</title>
<g id="a_edge29_Node000018_Node000019"><a xlink:title=" ">
<path fill="none" stroke="#63b8ff" d="M415.44,-115.37C422.45,-106.64 433.46,-92.93 442.17,-82.09"/>
<polygon fill="#63b8ff" stroke="#63b8ff" points="445,-84.16 448.54,-74.17 439.54,-79.77 445,-84.16"/>
</a>
</g>
</g>
<!-- Node19&#45;&gt;Node4 -->
<g id="edge34_Node000019_Node000004" class="edge">
<title>Node19&#45;&gt;Node4</title>
<g id="a_edge34_Node000019_Node000004"><a xlink:title=" ">
<path fill="none" stroke="#63b8ff" d="M482.49,-54.98C510.7,-46.09 555.14,-32.07 586.58,-22.15"/>
<polygon fill="#63b8ff" stroke="#63b8ff" points="587.81,-25.43 596.3,-19.08 585.71,-18.75 587.81,-25.43"/>
</a>
</g>
</g>
<!-- Node19&#45;&gt;Node6 -->
<g id="edge31_Node000019_Node000006" class="edge">
<title>Node19&#45;&gt;Node6</title>
<g id="a_edge31_Node000019_Node000006"><a xlink:title=" ">
<path fill="none" stroke="#63b8ff" d="M432.52,-54.98C408.72,-46.16 371.34,-32.31 344.61,-22.4"/>
<polygon fill="#63b8ff" stroke="#63b8ff" points="345.54,-19.01 334.95,-18.82 343.11,-25.58 345.54,-19.01"/>
</a>
</g>
</g>
<!-- Node19&#45;&gt;Node14 -->
<g id="edge35_Node000019_Node000014" class="edge">
<title>Node19&#45;&gt;Node14</title>
<g id="a_edge35_Node000019_Node000014"><a xlink:title=" ">
<path fill="none" stroke="#63b8ff" d="M421.79,-54.98C388.71,-46.59 336.56,-33.31 282.06,-19.13"/>
<polygon fill="#63b8ff" stroke="#63b8ff" points="282.78,-15.7 272.22,-16.56 281.01,-22.47 282.78,-15.7"/>
</a>
</g>
</g>
<!-- Node20 -->
<g id="Node000020" class="node">
<title>Node20</title>
<g id="a_Node000020"><a xlink:title=" ">
<polygon fill="#e0e0e0" stroke="#999999" points="484.5,-19 434.5,-19 434.5,0 484.5,0 484.5,-19"/>
<text text-anchor="middle" x="459.5" y="-7" font-family="Helvetica,sans-Serif" font-size="10.00">cstring</text>
</a>
</g>
</g>
<!-- Node19&#45;&gt;Node20 -->
<g id="edge30_Node000019_Node000020" class="edge">
<title>Node19&#45;&gt;Node20</title>
<g id="a_edge30_Node000019_Node000020"><a xlink:title=" ">
<path fill="none" stroke="#63b8ff" d="M456.16,-54.75C456.68,-47.8 457.44,-37.85 458.09,-29.13"/>
<polygon fill="#63b8ff" stroke="#63b8ff" points="461.59,-29.32 458.85,-19.09 454.61,-28.8 461.59,-29.32"/>
</a>
</g>
</g>
<!-- Node21 -->
<g id="Node000021" class="node">
<title>Node21</title>
<g id="a_Node000021"><a xlink:title=" ">
<polygon fill="#e0e0e0" stroke="#999999" points="576,-19 503,-19 503,0 576,0 576,-19"/>
<text text-anchor="middle" x="539.5" y="-7" font-family="Helvetica,sans-Serif" font-size="10.00">string_view</text>
</a>
</g>
</g>
<!-- Node19&#45;&gt;Node21 -->
<g id="edge32_Node000019_Node000021" class="edge">
<title>Node19&#45;&gt;Node21</title>
<g id="a_edge32_Node000019_Node000021"><a xlink:title=" ">
<path fill="none" stroke="#63b8ff" d="M469,-54.98C481.9,-46.84 501.6,-34.41 516.9,-24.76"/>
<polygon fill="#63b8ff" stroke="#63b8ff" points="519.17,-27.47 525.76,-19.17 515.43,-21.55 519.17,-27.47"/>
</a>
</g>
</g>
<!-- Node22 -->
<g id="Node000022" class="node">
<title>Node22</title>
<g id="a_Node000022"><a xlink:title=" ">
<polygon fill="#e0e0e0" stroke="#999999" points="416.5,-19 352.5,-19 352.5,0 416.5,0 416.5,-19"/>
<text text-anchor="middle" x="384.5" y="-7" font-family="Helvetica,sans-Serif" font-size="10.00">algorithm</text>
</a>
</g>
</g>
<!-- Node19&#45;&gt;Node22 -->
<g id="edge33_Node000019_Node000022" class="edge">
<title>Node19&#45;&gt;Node22</title>
<g id="a_edge33_Node000019_Node000022"><a xlink:title=" ">
<path fill="none" stroke="#63b8ff" d="M444.09,-54.98C433.39,-47 417.16,-34.88 404.34,-25.31"/>
<polygon fill="#63b8ff" stroke="#63b8ff" points="406.22,-22.35 396.11,-19.17 402.03,-27.96 406.22,-22.35"/>
</a>
</g>
</g>
</g>
</svg>
