<?xml version="1.0" encoding="UTF-8" standalone="no"?>
<!DOCTYPE svg PUBLIC "-//W3C//DTD SVG 1.1//EN"
 "http://www.w3.org/Graphics/SVG/1.1/DTD/svg11.dtd">
<!-- Generated by graphviz version 2.43.0 (0)
 -->
<!-- Title: log_entry.h Pages: 1 -->
<svg width="1174pt" height="247pt"
 viewBox="0.00 0.00 1174.00 247.00" xmlns="http://www.w3.org/2000/svg" xmlns:xlink="http://www.w3.org/1999/xlink">
<g id="graph0" class="graph" transform="scale(1 1) rotate(0) translate(4 243)">
<title>log_entry.h</title>
<!-- Node1 -->
<g id="Node000001" class="node">
<title>Node1</title>
<g id="a_Node000001"><a xlink:title=" ">
<polygon fill="#999999" stroke="#666666" points="433,-239 363,-239 363,-220 433,-220 433,-239"/>
<text text-anchor="middle" x="398" y="-227" font-family="Helvetica,sans-Serif" font-size="10.00">log_entry.h</text>
</a>
</g>
</g>
<!-- Node2 -->
<g id="Node000002" class="node">
<title>Node2</title>
<g id="a_Node000002"><a xlink:href="base__formatter_8h.html" target="_top" xlink:title=" ">
<polygon fill="white" stroke="#666666" points="140,-184 40,-184 40,-165 140,-165 140,-184"/>
<text text-anchor="middle" x="90" y="-172" font-family="Helvetica,sans-Serif" font-size="10.00">base_formatter.h</text>
</a>
</g>
</g>
<!-- Node1&#45;&gt;Node2 -->
<g id="edge1_Node000001_Node000002" class="edge">
<title>Node1&#45;&gt;Node2</title>
<g id="a_edge1_Node000001_Node000002"><a xlink:title=" ">
<path fill="none" stroke="#63b8ff" d="M352.83,-220.73C295.89,-210.93 198.35,-194.15 139.46,-184.01"/>
<polygon fill="#63b8ff" stroke="#63b8ff" points="352.52,-224.23 362.97,-222.47 353.71,-217.33 352.52,-224.23"/>
</a>
</g>
</g>
<!-- Node3 -->
<g id="Node000003" class="node">
<title>Node3</title>
<g id="a_Node000003"><a xlink:href="base__writer_8h.html" target="_top" xlink:title=" ">
<polygon fill="white" stroke="#666666" points="548,-184 466,-184 466,-165 548,-165 548,-184"/>
<text text-anchor="middle" x="507" y="-172" font-family="Helvetica,sans-Serif" font-size="10.00">base_writer.h</text>
</a>
</g>
</g>
<!-- Node1&#45;&gt;Node3 -->
<g id="edge2_Node000001_Node000003" class="edge">
<title>Node1&#45;&gt;Node3</title>
<g id="a_edge2_Node000001_Node000003"><a xlink:title=" ">
<path fill="none" stroke="#63b8ff" d="M424.73,-215.5C444.79,-205.75 471.68,-192.68 489.17,-184.17"/>
<polygon fill="#63b8ff" stroke="#63b8ff" points="422.98,-212.46 415.51,-219.98 426.04,-218.76 422.98,-212.46"/>
</a>
</g>
</g>
<!-- Node4 -->
<g id="Node000004" class="node">
<title>Node4</title>
<g id="a_Node000004"><a xlink:href="batch__writer_8h.html" target="_top" xlink:title=" ">
<polygon fill="white" stroke="#666666" points="441,-129 355,-129 355,-110 441,-110 441,-129"/>
<text text-anchor="middle" x="398" y="-117" font-family="Helvetica,sans-Serif" font-size="10.00">batch_writer.h</text>
</a>
</g>
</g>
<!-- Node1&#45;&gt;Node4 -->
<g id="edge22_Node000001_Node000004" class="edge">
<title>Node1&#45;&gt;Node4</title>
<g id="a_edge22_Node000001_Node000004"><a xlink:title=" ">
<path fill="none" stroke="#63b8ff" d="M398,-209.48C398,-185.84 398,-146.5 398,-129.16"/>
<polygon fill="#63b8ff" stroke="#63b8ff" points="394.5,-209.66 398,-219.66 401.5,-209.66 394.5,-209.66"/>
</a>
</g>
</g>
<!-- Node16 -->
<g id="Node000016" class="node">
<title>Node16</title>
<g id="a_Node000016"><a xlink:href="log__collector_8cpp.html" target="_top" xlink:title=" ">
<polygon fill="white" stroke="#666666" points="1166,-129 1068,-129 1068,-110 1166,-110 1166,-129"/>
<text text-anchor="middle" x="1117" y="-117" font-family="Helvetica,sans-Serif" font-size="10.00">log_collector.cpp</text>
</a>
</g>
</g>
<!-- Node1&#45;&gt;Node16 -->
<g id="edge23_Node000001_Node000016" class="edge">
<title>Node1&#45;&gt;Node16</title>
<g id="a_edge23_Node000001_Node000016"><a xlink:title=" ">
<path fill="none" stroke="#63b8ff" d="M443.4,-221.68C571.5,-202.44 935.05,-147.83 1067.74,-127.9"/>
<polygon fill="#63b8ff" stroke="#63b8ff" points="442.53,-218.27 433.17,-223.22 443.57,-225.19 442.53,-218.27"/>
</a>
</g>
</g>
<!-- Node21 -->
<g id="Node000021" class="node">
<title>Node21</title>
<g id="a_Node000021"><a xlink:href="log__filter_8h.html" target="_top" xlink:title=" ">
<polygon fill="white" stroke="#666666" points="226,-184 158,-184 158,-165 226,-165 226,-184"/>
<text text-anchor="middle" x="192" y="-172" font-family="Helvetica,sans-Serif" font-size="10.00">log_filter.h</text>
</a>
</g>
</g>
<!-- Node1&#45;&gt;Node21 -->
<g id="edge24_Node000001_Node000021" class="edge">
<title>Node1&#45;&gt;Node21</title>
<g id="a_edge24_Node000001_Node000021"><a xlink:title=" ">
<path fill="none" stroke="#63b8ff" d="M355,-217.44C316.44,-207.52 260.64,-193.16 225.36,-184.08"/>
<polygon fill="#63b8ff" stroke="#63b8ff" points="354.35,-220.88 364.9,-219.98 356.09,-214.1 354.35,-220.88"/>
</a>
</g>
</g>
<!-- Node3&#45;&gt;Node4 -->
<g id="edge3_Node000003_Node000004" class="edge">
<title>Node3&#45;&gt;Node4</title>
<g id="a_edge3_Node000003_Node000004"><a xlink:title=" ">
<path fill="none" stroke="#63b8ff" d="M480.27,-160.5C460.21,-150.75 433.32,-137.68 415.83,-129.17"/>
<polygon fill="#63b8ff" stroke="#63b8ff" points="478.96,-163.76 489.49,-164.98 482.02,-157.46 478.96,-163.76"/>
</a>
</g>
</g>
<!-- Node6 -->
<g id="Node000006" class="node">
<title>Node6</title>
<g id="a_Node000006"><a xlink:href="logger__builder_8h.html" target="_top" xlink:title=" ">
<polygon fill="white" stroke="#666666" points="331.5,-74 236.5,-74 236.5,-55 331.5,-55 331.5,-74"/>
<text text-anchor="middle" x="284" y="-62" font-family="Helvetica,sans-Serif" font-size="10.00">logger_builder.h</text>
</a>
</g>
</g>
<!-- Node3&#45;&gt;Node6 -->
<g id="edge19_Node000003_Node000006" class="edge">
<title>Node3&#45;&gt;Node6</title>
<g id="a_edge19_Node000003_Node000006"><a xlink:title=" ">
<path fill="none" stroke="#63b8ff" d="M456.04,-166.48C422.95,-160.28 379.83,-148.98 346,-129 321.59,-114.58 300.24,-88.09 290.16,-74.32"/>
<polygon fill="#63b8ff" stroke="#63b8ff" points="455.51,-169.94 465.97,-168.25 456.74,-163.05 455.51,-169.94"/>
</a>
</g>
</g>
<!-- Node7 -->
<g id="Node000007" class="node">
<title>Node7</title>
<g id="a_Node000007"><a xlink:href="console__writer_8h.html" target="_top" xlink:title=" ">
<polygon fill="white" stroke="#666666" points="555,-129 459,-129 459,-110 555,-110 555,-129"/>
<text text-anchor="middle" x="507" y="-117" font-family="Helvetica,sans-Serif" font-size="10.00">console_writer.h</text>
</a>
</g>
</g>
<!-- Node3&#45;&gt;Node7 -->
<g id="edge6_Node000003_Node000007" class="edge">
<title>Node3&#45;&gt;Node7</title>
<g id="a_edge6_Node000003_Node000007"><a xlink:title=" ">
<path fill="none" stroke="#63b8ff" d="M507,-154.66C507,-145.93 507,-135.99 507,-129.09"/>
<polygon fill="#63b8ff" stroke="#63b8ff" points="503.5,-154.75 507,-164.75 510.5,-154.75 503.5,-154.75"/>
</a>
</g>
</g>
<!-- Node9 -->
<g id="Node000009" class="node">
<title>Node9</title>
<g id="a_Node000009"><a xlink:href="encrypted__writer_8h.html" target="_top" xlink:title=" ">
<polygon fill="white" stroke="#666666" points="680.5,-129 573.5,-129 573.5,-110 680.5,-110 680.5,-129"/>
<text text-anchor="middle" x="627" y="-117" font-family="Helvetica,sans-Serif" font-size="10.00">encrypted_writer.h</text>
</a>
</g>
</g>
<!-- Node3&#45;&gt;Node9 -->
<g id="edge8_Node000003_Node000009" class="edge">
<title>Node3&#45;&gt;Node9</title>
<g id="a_edge8_Node000003_Node000009"><a xlink:title=" ">
<path fill="none" stroke="#63b8ff" d="M535.53,-160.9C557.7,-151.11 587.85,-137.79 607.37,-129.17"/>
<polygon fill="#63b8ff" stroke="#63b8ff" points="534.01,-157.74 526.28,-164.98 536.84,-164.15 534.01,-157.74"/>
</a>
</g>
</g>
<!-- Node11 -->
<g id="Node000011" class="node">
<title>Node11</title>
<g id="a_Node000011"><a xlink:href="file__writer_8h.html" target="_top" xlink:title=" ">
<polygon fill="white" stroke="#666666" points="934,-129 860,-129 860,-110 934,-110 934,-129"/>
<text text-anchor="middle" x="897" y="-117" font-family="Helvetica,sans-Serif" font-size="10.00">file_writer.h</text>
</a>
</g>
</g>
<!-- Node3&#45;&gt;Node11 -->
<g id="edge10_Node000003_Node000011" class="edge">
<title>Node3&#45;&gt;Node11</title>
<g id="a_edge10_Node000003_Node000011"><a xlink:title=" ">
<path fill="none" stroke="#63b8ff" d="M558.48,-167.72C625.84,-159.96 747.52,-145.24 851,-129 853.89,-128.55 856.87,-128.05 859.87,-127.54"/>
<polygon fill="#63b8ff" stroke="#63b8ff" points="557.68,-164.29 548.14,-168.91 558.47,-171.24 557.68,-164.29"/>
</a>
</g>
</g>
<!-- Node15 -->
<g id="Node000015" class="node">
<title>Node15</title>
<g id="a_Node000015"><a xlink:href="health__check__system_8cpp.html" target="_top" xlink:title=" ">
<polygon fill="white" stroke="#666666" points="841.5,-129 698.5,-129 698.5,-110 841.5,-110 841.5,-129"/>
<text text-anchor="middle" x="770" y="-117" font-family="Helvetica,sans-Serif" font-size="10.00">health_check_system.cpp</text>
</a>
</g>
</g>
<!-- Node3&#45;&gt;Node15 -->
<g id="edge14_Node000003_Node000015" class="edge">
<title>Node3&#45;&gt;Node15</title>
<g id="a_edge14_Node000003_Node000015"><a xlink:title=" ">
<path fill="none" stroke="#63b8ff" d="M557.92,-163.24C607.24,-153.3 681.18,-138.4 727.45,-129.07"/>
<polygon fill="#63b8ff" stroke="#63b8ff" points="557.21,-159.81 548.09,-165.22 558.59,-166.67 557.21,-159.81"/>
</a>
</g>
</g>
<!-- Node3&#45;&gt;Node16 -->
<g id="edge15_Node000003_Node000016" class="edge">
<title>Node3&#45;&gt;Node16</title>
<g id="a_edge15_Node000003_Node000016"><a xlink:title=" ">
<path fill="none" stroke="#63b8ff" d="M558.48,-170.47C656.23,-164.47 875.35,-149.84 1059,-129 1061.93,-128.67 1064.94,-128.3 1067.98,-127.91"/>
<polygon fill="#63b8ff" stroke="#63b8ff" points="558.06,-166.99 548.29,-171.09 558.48,-173.98 558.06,-166.99"/>
</a>
</g>
</g>
<!-- Node17 -->
<g id="Node000017" class="node">
<title>Node17</title>
<g id="a_Node000017"><a xlink:href="log__router_8h.html" target="_top" xlink:title=" ">
<polygon fill="white" stroke="#666666" points="261,-129 187,-129 187,-110 261,-110 261,-129"/>
<text text-anchor="middle" x="224" y="-117" font-family="Helvetica,sans-Serif" font-size="10.00">log_router.h</text>
</a>
</g>
</g>
<!-- Node3&#45;&gt;Node17 -->
<g id="edge16_Node000003_Node000017" class="edge">
<title>Node3&#45;&gt;Node17</title>
<g id="a_edge16_Node000003_Node000017"><a xlink:title=" ">
<path fill="none" stroke="#63b8ff" d="M455.76,-163.9C399.63,-153.39 310.95,-136.78 261.14,-127.46"/>
<polygon fill="#63b8ff" stroke="#63b8ff" points="455.38,-167.39 465.85,-165.79 456.66,-160.51 455.38,-167.39"/>
</a>
</g>
</g>
<!-- Node18 -->
<g id="Node000018" class="node">
<title>Node18</title>
<g id="a_Node000018"><a xlink:href="logger_8cpp.html" target="_top" xlink:title=" ">
<polygon fill="white" stroke="#666666" points="218.5,-74 151.5,-74 151.5,-55 218.5,-55 218.5,-74"/>
<text text-anchor="middle" x="185" y="-62" font-family="Helvetica,sans-Serif" font-size="10.00">logger.cpp</text>
</a>
</g>
</g>
<!-- Node3&#45;&gt;Node18 -->
<g id="edge18_Node000003_Node000018" class="edge">
<title>Node3&#45;&gt;Node18</title>
<g id="a_edge18_Node000003_Node000018"><a xlink:title=" ">
<path fill="none" stroke="#63b8ff" d="M455.78,-164.53C417.27,-157.04 363.54,-145.02 318,-129 273.59,-113.37 224.31,-87.41 200.1,-74.04"/>
<polygon fill="#63b8ff" stroke="#63b8ff" points="455.24,-167.99 465.72,-166.42 456.55,-161.11 455.24,-167.99"/>
</a>
</g>
</g>
<!-- Node19 -->
<g id="Node000019" class="node">
<title>Node19</title>
<g id="a_Node000019"><a xlink:href="network__writer_8h.html" target="_top" xlink:title=" ">
<polygon fill="white" stroke="#666666" points="1050,-129 952,-129 952,-110 1050,-110 1050,-129"/>
<text text-anchor="middle" x="1001" y="-117" font-family="Helvetica,sans-Serif" font-size="10.00">network_writer.h</text>
</a>
</g>
</g>
<!-- Node3&#45;&gt;Node19 -->
<g id="edge20_Node000003_Node000019" class="edge">
<title>Node3&#45;&gt;Node19</title>
<g id="a_edge20_Node000003_Node000019"><a xlink:title=" ">
<path fill="none" stroke="#63b8ff" d="M558.25,-169C639.82,-161.68 804.15,-146.25 943,-129 945.93,-128.64 948.94,-128.25 951.97,-127.84"/>
<polygon fill="#63b8ff" stroke="#63b8ff" points="557.89,-165.52 548.24,-169.9 558.52,-172.49 557.89,-165.52"/>
</a>
</g>
</g>
<!-- Node5 -->
<g id="Node000005" class="node">
<title>Node5</title>
<g id="a_Node000005"><a xlink:href="batch__writer_8cpp.html" target="_top" xlink:title=" ">
<polygon fill="white" stroke="#666666" points="446.5,-74 349.5,-74 349.5,-55 446.5,-55 446.5,-74"/>
<text text-anchor="middle" x="398" y="-62" font-family="Helvetica,sans-Serif" font-size="10.00">batch_writer.cpp</text>
</a>
</g>
</g>
<!-- Node4&#45;&gt;Node5 -->
<g id="edge4_Node000004_Node000005" class="edge">
<title>Node4&#45;&gt;Node5</title>
<g id="a_edge4_Node000004_Node000005"><a xlink:title=" ">
<path fill="none" stroke="#63b8ff" d="M398,-99.66C398,-90.93 398,-80.99 398,-74.09"/>
<polygon fill="#63b8ff" stroke="#63b8ff" points="394.5,-99.75 398,-109.75 401.5,-99.75 394.5,-99.75"/>
</a>
</g>
</g>
<!-- Node4&#45;&gt;Node6 -->
<g id="edge5_Node000004_Node000006" class="edge">
<title>Node4&#45;&gt;Node6</title>
<g id="a_edge5_Node000004_Node000006"><a xlink:title=" ">
<path fill="none" stroke="#63b8ff" d="M370.61,-105.77C349.58,-95.99 321.11,-82.75 302.65,-74.17"/>
<polygon fill="#63b8ff" stroke="#63b8ff" points="369.14,-108.94 379.68,-109.98 372.09,-102.6 369.14,-108.94"/>
</a>
</g>
</g>
<!-- Node8 -->
<g id="Node000008" class="node">
<title>Node8</title>
<g id="a_Node000008"><a xlink:href="console__writer_8cpp.html" target="_top" xlink:title=" ">
<polygon fill="white" stroke="#666666" points="571.5,-74 464.5,-74 464.5,-55 571.5,-55 571.5,-74"/>
<text text-anchor="middle" x="518" y="-62" font-family="Helvetica,sans-Serif" font-size="10.00">console_writer.cpp</text>
</a>
</g>
</g>
<!-- Node7&#45;&gt;Node8 -->
<g id="edge7_Node000007_Node000008" class="edge">
<title>Node7&#45;&gt;Node8</title>
<g id="a_edge7_Node000007_Node000008"><a xlink:title=" ">
<path fill="none" stroke="#63b8ff" d="M510.85,-99.95C512.68,-91.15 514.77,-81.06 516.22,-74.09"/>
<polygon fill="#63b8ff" stroke="#63b8ff" points="507.42,-99.25 508.82,-109.75 514.28,-100.67 507.42,-99.25"/>
</a>
</g>
</g>
<!-- Node10 -->
<g id="Node000010" class="node">
<title>Node10</title>
<g id="a_Node000010"><a xlink:href="encrypted__writer_8cpp.html" target="_top" xlink:title=" ">
<polygon fill="white" stroke="#666666" points="708.5,-74 589.5,-74 589.5,-55 708.5,-55 708.5,-74"/>
<text text-anchor="middle" x="649" y="-62" font-family="Helvetica,sans-Serif" font-size="10.00">encrypted_writer.cpp</text>
</a>
</g>
</g>
<!-- Node9&#45;&gt;Node10 -->
<g id="edge9_Node000009_Node000010" class="edge">
<title>Node9&#45;&gt;Node10</title>
<g id="a_edge9_Node000009_Node000010"><a xlink:title=" ">
<path fill="none" stroke="#63b8ff" d="M634.58,-100.24C638.26,-91.37 642.51,-81.14 645.43,-74.09"/>
<polygon fill="#63b8ff" stroke="#63b8ff" points="631.23,-99.17 630.63,-109.75 637.7,-101.85 631.23,-99.17"/>
</a>
</g>
</g>
<!-- Node12 -->
<g id="Node000012" class="node">
<title>Node12</title>
<g id="a_Node000012"><a xlink:href="file__writer_8cpp.html" target="_top" xlink:title=" ">
<polygon fill="white" stroke="#666666" points="820.5,-74 735.5,-74 735.5,-55 820.5,-55 820.5,-74"/>
<text text-anchor="middle" x="778" y="-62" font-family="Helvetica,sans-Serif" font-size="10.00">file_writer.cpp</text>
</a>
</g>
</g>
<!-- Node11&#45;&gt;Node12 -->
<g id="edge11_Node000011_Node000012" class="edge">
<title>Node11&#45;&gt;Node12</title>
<g id="a_edge11_Node000011_Node000012"><a xlink:title=" ">
<path fill="none" stroke="#63b8ff" d="M868.7,-105.9C846.72,-96.11 816.82,-82.79 797.47,-74.17"/>
<polygon fill="#63b8ff" stroke="#63b8ff" points="867.32,-109.11 877.88,-109.98 870.17,-102.72 867.32,-109.11"/>
</a>
</g>
</g>
<!-- Node13 -->
<g id="Node000013" class="node">
<title>Node13</title>
<g id="a_Node000013"><a xlink:href="rotating__file__writer_8h.html" target="_top" xlink:title=" ">
<polygon fill="white" stroke="#666666" points="955.5,-74 838.5,-74 838.5,-55 955.5,-55 955.5,-74"/>
<text text-anchor="middle" x="897" y="-62" font-family="Helvetica,sans-Serif" font-size="10.00">rotating_file_writer.h</text>
</a>
</g>
</g>
<!-- Node11&#45;&gt;Node13 -->
<g id="edge12_Node000011_Node000013" class="edge">
<title>Node11&#45;&gt;Node13</title>
<g id="a_edge12_Node000011_Node000013"><a xlink:title=" ">
<path fill="none" stroke="#63b8ff" d="M897,-99.66C897,-90.93 897,-80.99 897,-74.09"/>
<polygon fill="#63b8ff" stroke="#63b8ff" points="893.5,-99.75 897,-109.75 900.5,-99.75 893.5,-99.75"/>
</a>
</g>
</g>
<!-- Node14 -->
<g id="Node000014" class="node">
<title>Node14</title>
<g id="a_Node000014"><a xlink:href="rotating__file__writer_8cpp.html" target="_top" xlink:title=" ">
<polygon fill="white" stroke="#666666" points="961,-19 833,-19 833,0 961,0 961,-19"/>
<text text-anchor="middle" x="897" y="-7" font-family="Helvetica,sans-Serif" font-size="10.00">rotating_file_writer.cpp</text>
</a>
</g>
</g>
<!-- Node13&#45;&gt;Node14 -->
<g id="edge13_Node000013_Node000014" class="edge">
<title>Node13&#45;&gt;Node14</title>
<g id="a_edge13_Node000013_Node000014"><a xlink:title=" ">
<path fill="none" stroke="#63b8ff" d="M897,-44.66C897,-35.93 897,-25.99 897,-19.09"/>
<polygon fill="#63b8ff" stroke="#63b8ff" points="893.5,-44.75 897,-54.75 900.5,-44.75 893.5,-44.75"/>
</a>
</g>
</g>
<!-- Node17&#45;&gt;Node18 -->
<g id="edge17_Node000017_Node000018" class="edge">
<title>Node17&#45;&gt;Node18</title>
<g id="a_edge17_Node000017_Node000018"><a xlink:title=" ">
<path fill="none" stroke="#63b8ff" d="M211.62,-101.67C204.86,-92.5 196.79,-81.52 191.32,-74.09"/>
<polygon fill="#63b8ff" stroke="#63b8ff" points="208.81,-103.77 217.56,-109.75 214.45,-99.62 208.81,-103.77"/>
</a>
</g>
</g>
<!-- Node20 -->
<g id="Node000020" class="node">
<title>Node20</title>
<g id="a_Node000020"><a xlink:href="network__writer_8cpp.html" target="_top" xlink:title=" ">
<polygon fill="white" stroke="#666666" points="1084,-74 974,-74 974,-55 1084,-55 1084,-74"/>
<text text-anchor="middle" x="1029" y="-62" font-family="Helvetica,sans-Serif" font-size="10.00">network_writer.cpp</text>
</a>
</g>
</g>
<!-- Node19&#45;&gt;Node20 -->
<g id="edge21_Node000019_Node000020" class="edge">
<title>Node19&#45;&gt;Node20</title>
<g id="a_edge21_Node000019_Node000020"><a xlink:title=" ">
<path fill="none" stroke="#63b8ff" d="M1010.34,-100.82C1015.09,-91.82 1020.66,-81.29 1024.46,-74.09"/>
<polygon fill="#63b8ff" stroke="#63b8ff" points="1007.2,-99.27 1005.62,-109.75 1013.39,-102.54 1007.2,-99.27"/>
</a>
</g>
</g>
<!-- Node21&#45;&gt;Node6 -->
<g id="edge29_Node000021_Node000006" class="edge">
<title>Node21&#45;&gt;Node6</title>
<g id="a_edge29_Node000021_Node000006"><a xlink:title=" ">
<path fill="none" stroke="#63b8ff" d="M181.48,-156.13C174.75,-142.57 168.85,-123.77 178,-110 191.09,-90.3 214.78,-79.31 236.44,-73.18"/>
<polygon fill="#63b8ff" stroke="#63b8ff" points="178.43,-157.86 186.32,-164.94 184.57,-154.49 178.43,-157.86"/>
</a>
</g>
</g>
<!-- Node21&#45;&gt;Node17 -->
<g id="edge25_Node000021_Node000017" class="edge">
<title>Node21&#45;&gt;Node17</title>
<g id="a_edge25_Node000021_Node000017"><a xlink:title=" ">
<path fill="none" stroke="#63b8ff" d="M202.5,-156.1C207.97,-147.04 214.42,-136.37 218.81,-129.09"/>
<polygon fill="#63b8ff" stroke="#63b8ff" points="199.46,-154.38 197.28,-164.75 205.45,-158 199.46,-154.38"/>
</a>
</g>
</g>
<!-- Node21&#45;&gt;Node18 -->
<g id="edge28_Node000021_Node000018" class="edge">
<title>Node21&#45;&gt;Node18</title>
<g id="a_edge28_Node000021_Node000018"><a xlink:title=" ">
<path fill="none" stroke="#63b8ff" d="M169.83,-158.88C160.29,-151.24 150.15,-140.97 145,-129 135.94,-107.94 158.24,-85.82 173.07,-74.06"/>
<polygon fill="#63b8ff" stroke="#63b8ff" points="167.81,-161.74 177.93,-164.89 171.99,-156.12 167.81,-161.74"/>
</a>
</g>
</g>
<!-- Node22 -->
<g id="Node000022" class="node">
<title>Node22</title>
<g id="a_Node000022"><a xlink:href="log__sanitizer_8h.html" target="_top" xlink:title=" ">
<polygon fill="white" stroke="#666666" points="92.5,-129 5.5,-129 5.5,-110 92.5,-110 92.5,-129"/>
<text text-anchor="middle" x="49" y="-117" font-family="Helvetica,sans-Serif" font-size="10.00">log_sanitizer.h</text>
</a>
</g>
</g>
<!-- Node21&#45;&gt;Node22 -->
<g id="edge26_Node000021_Node000022" class="edge">
<title>Node21&#45;&gt;Node22</title>
<g id="a_edge26_Node000021_Node000022"><a xlink:title=" ">
<path fill="none" stroke="#63b8ff" d="M159.41,-161.42C132.88,-151.59 96.07,-137.95 72.39,-129.17"/>
<polygon fill="#63b8ff" stroke="#63b8ff" points="158.43,-164.79 169.02,-164.98 160.86,-158.23 158.43,-164.79"/>
</a>
</g>
</g>
<!-- Node23 -->
<g id="Node000023" class="node">
<title>Node23</title>
<g id="a_Node000023"><a xlink:href="log__sanitizer_8cpp.html" target="_top" xlink:title=" ">
<polygon fill="white" stroke="#666666" points="98,-74 0,-74 0,-55 98,-55 98,-74"/>
<text text-anchor="middle" x="49" y="-62" font-family="Helvetica,sans-Serif" font-size="10.00">log_sanitizer.cpp</text>
</a>
</g>
</g>
<!-- Node22&#45;&gt;Node23 -->
<g id="edge27_Node000022_Node000023" class="edge">
<title>Node22&#45;&gt;Node23</title>
<g id="a_edge27_Node000022_Node000023"><a xlink:title=" ">
<path fill="none" stroke="#63b8ff" d="M49,-99.66C49,-90.93 49,-80.99 49,-74.09"/>
<polygon fill="#63b8ff" stroke="#63b8ff" points="45.5,-99.75 49,-109.75 52.5,-99.75 45.5,-99.75"/>
</a>
</g>
</g>
</g>
</svg>
