<?xml version="1.0" encoding="UTF-8" standalone="no"?>
<!DOCTYPE svg PUBLIC "-//W3C//DTD SVG 1.1//EN"
 "http://www.w3.org/Graphics/SVG/1.1/DTD/svg11.dtd">
<!-- Generated by graphviz version 2.43.0 (0)
 -->
<!-- Title: /home/runner/work/logger_system/logger_system/sources/logger/interfaces/log_formatter_interface.h Pages: 1 -->
<svg width="390pt" height="225pt"
 viewBox="0.00 0.00 390.00 225.00" xmlns="http://www.w3.org/2000/svg" xmlns:xlink="http://www.w3.org/1999/xlink">
<g id="graph0" class="graph" transform="scale(1 1) rotate(0) translate(4 221)">
<title>/home/runner/work/logger_system/logger_system/sources/logger/interfaces/log_formatter_interface.h</title>
<!-- Node1 -->
<g id="Node000001" class="node">
<title>Node1</title>
<g id="a_Node000001"><a xlink:title=" ">
<polygon fill="#999999" stroke="#666666" points="273,-217 100,-217 100,-165 273,-165 273,-217"/>
<text text-anchor="start" x="108" y="-205" font-family="Helvetica,sans-Serif" font-size="10.00">/home/runner/work/logger</text>
<text text-anchor="start" x="108" y="-194" font-family="Helvetica,sans-Serif" font-size="10.00">_system/logger_system/sources</text>
<text text-anchor="start" x="108" y="-183" font-family="Helvetica,sans-Serif" font-size="10.00">/logger/interfaces/log_formatter</text>
<text text-anchor="middle" x="186.5" y="-172" font-family="Helvetica,sans-Serif" font-size="10.00">_interface.h</text>
</a>
</g>
</g>
<!-- Node2 -->
<g id="Node000002" class="node">
<title>Node2</title>
<g id="a_Node000002"><a xlink:href="logger__builder_8h.html" target="_top" xlink:title="Builder pattern implementation for flexible logger configuration.">
<polygon fill="white" stroke="#666666" points="173,-129 0,-129 0,-88 173,-88 173,-129"/>
<text text-anchor="start" x="8" y="-117" font-family="Helvetica,sans-Serif" font-size="10.00">/home/runner/work/logger</text>
<text text-anchor="start" x="8" y="-106" font-family="Helvetica,sans-Serif" font-size="10.00">_system/logger_system/sources</text>
<text text-anchor="middle" x="86.5" y="-95" font-family="Helvetica,sans-Serif" font-size="10.00">/logger/config/logger_builder.h</text>
</a>
</g>
</g>
<!-- Node1&#45;&gt;Node2 -->
<g id="edge1_Node000001_Node000002" class="edge">
<title>Node1&#45;&gt;Node2</title>
<g id="a_edge1_Node000001_Node000002"><a xlink:title=" ">
<path fill="none" stroke="#63b8ff" d="M147.48,-158.59C135.16,-148.67 121.9,-138 110.9,-129.15"/>
<polygon fill="#63b8ff" stroke="#63b8ff" points="145.42,-161.43 155.41,-164.97 149.81,-155.97 145.42,-161.43"/>
</a>
</g>
</g>
<!-- Node4 -->
<g id="Node000004" class="node">
<title>Node4</title>
<g id="a_Node000004"><a xlink:href="base__formatter_8h.html" target="_top" xlink:title=" ">
<polygon fill="white" stroke="#666666" points="382,-129 191,-129 191,-88 382,-88 382,-129"/>
<text text-anchor="start" x="199" y="-117" font-family="Helvetica,sans-Serif" font-size="10.00">/home/runner/work/logger</text>
<text text-anchor="start" x="199" y="-106" font-family="Helvetica,sans-Serif" font-size="10.00">_system/logger_system/sources</text>
<text text-anchor="middle" x="286.5" y="-95" font-family="Helvetica,sans-Serif" font-size="10.00">/logger/formatters/base_formatter.h</text>
</a>
</g>
</g>
<!-- Node1&#45;&gt;Node4 -->
<g id="edge3_Node000001_Node000004" class="edge">
<title>Node1&#45;&gt;Node4</title>
<g id="a_edge3_Node000001_Node000004"><a xlink:title=" ">
<path fill="none" stroke="#63b8ff" d="M225.52,-158.59C237.84,-148.67 251.1,-138 262.1,-129.15"/>
<polygon fill="#63b8ff" stroke="#63b8ff" points="223.19,-155.97 217.59,-164.97 227.58,-161.43 223.19,-155.97"/>
</a>
</g>
</g>
<!-- Node3 -->
<g id="Node000003" class="node">
<title>Node3</title>
<g id="a_Node000003"><a xlink:href="logger__v1__compat_8h.html" target="_top" xlink:title="Compatibility wrapper for Logger System v1.x API.">
<polygon fill="white" stroke="#666666" points="173,-52 0,-52 0,0 173,0 173,-52"/>
<text text-anchor="start" x="8" y="-40" font-family="Helvetica,sans-Serif" font-size="10.00">/home/runner/work/logger</text>
<text text-anchor="start" x="8" y="-29" font-family="Helvetica,sans-Serif" font-size="10.00">_system/logger_system/sources</text>
<text text-anchor="start" x="8" y="-18" font-family="Helvetica,sans-Serif" font-size="10.00">/logger/compatibility/logger</text>
<text text-anchor="middle" x="86.5" y="-7" font-family="Helvetica,sans-Serif" font-size="10.00">_v1_compat.h</text>
</a>
</g>
</g>
<!-- Node2&#45;&gt;Node3 -->
<g id="edge2_Node000002_Node000003" class="edge">
<title>Node2&#45;&gt;Node3</title>
<g id="a_edge2_Node000002_Node000003"><a xlink:title=" ">
<path fill="none" stroke="#63b8ff" d="M86.5,-77.49C86.5,-69.15 86.5,-60.19 86.5,-52.16"/>
<polygon fill="#63b8ff" stroke="#63b8ff" points="83,-77.6 86.5,-87.6 90,-77.6 83,-77.6"/>
</a>
</g>
</g>
</g>
</svg>
