<?xml version="1.0" encoding="UTF-8" standalone="no"?>
<!DOCTYPE svg PUBLIC "-//W3C//DTD SVG 1.1//EN"
 "http://www.w3.org/Graphics/SVG/1.1/DTD/svg11.dtd">
<!-- Generated by graphviz version 2.43.0 (0)
 -->
<!-- Title: /home/runner/work/logger_system/logger_system/sources/logger/routing/log_router.h Pages: 1 -->
<svg width="980pt" height="291pt"
 viewBox="0.00 0.00 980.00 291.00" xmlns="http://www.w3.org/2000/svg" xmlns:xlink="http://www.w3.org/1999/xlink">
<g id="graph0" class="graph" transform="scale(1 1) rotate(0) translate(4 287)">
<title>/home/runner/work/logger_system/logger_system/sources/logger/routing/log_router.h</title>
<!-- Node1 -->
<g id="Node000001" class="node">
<title>Node1</title>
<g id="a_Node000001"><a xlink:title=" ">
<polygon fill="#999999" stroke="#666666" points="766.5,-283 593.5,-283 593.5,-242 766.5,-242 766.5,-283"/>
<text text-anchor="start" x="601.5" y="-271" font-family="Helvetica,sans-Serif" font-size="10.00">/home/runner/work/logger</text>
<text text-anchor="start" x="601.5" y="-260" font-family="Helvetica,sans-Serif" font-size="10.00">_system/logger_system/sources</text>
<text text-anchor="middle" x="680" y="-249" font-family="Helvetica,sans-Serif" font-size="10.00">/logger/routing/log_router.h</text>
</a>
</g>
</g>
<!-- Node2 -->
<g id="Node000002" class="node">
<title>Node2</title>
<g id="a_Node000002"><a xlink:href="log__filter_8h.html" target="_top" xlink:title=" ">
<polygon fill="white" stroke="#666666" points="341.5,-206 234.5,-206 234.5,-187 341.5,-187 341.5,-206"/>
<text text-anchor="middle" x="288" y="-194" font-family="Helvetica,sans-Serif" font-size="10.00">../filters/log_filter.h</text>
</a>
</g>
</g>
<!-- Node1&#45;&gt;Node2 -->
<g id="edge1_Node000001_Node000002" class="edge">
<title>Node1&#45;&gt;Node2</title>
<g id="a_edge1_Node000001_Node000002"><a xlink:title=" ">
<path fill="none" stroke="#63b8ff" d="M593.49,-247.38C519.97,-235.37 416.2,-218.43 350.52,-207.71"/>
<polygon fill="#63b8ff" stroke="#63b8ff" points="350.75,-204.2 340.32,-206.04 349.62,-211.11 350.75,-204.2"/>
</a>
</g>
</g>
<!-- Node13 -->
<g id="Node000013" class="node">
<title>Node13</title>
<g id="a_Node000013"><a xlink:title=" ">
<polygon fill="#e0e0e0" stroke="#999999" points="58,-24.5 0,-24.5 0,-5.5 58,-5.5 58,-24.5"/>
<text text-anchor="middle" x="29" y="-12.5" font-family="Helvetica,sans-Serif" font-size="10.00">memory</text>
</a>
</g>
</g>
<!-- Node1&#45;&gt;Node13 -->
<g id="edge36_Node000001_Node000013" class="edge">
<title>Node1&#45;&gt;Node13</title>
<g id="a_edge36_Node000001_Node000013"><a xlink:title=" ">
<path fill="none" stroke="#63b8ff" d="M593.35,-260.87C430.74,-257.57 90.06,-239.95 22,-151 -4.18,-116.79 10.78,-62.23 21.35,-34.1"/>
<polygon fill="#63b8ff" stroke="#63b8ff" points="24.64,-35.29 25.08,-24.7 18.13,-32.7 24.64,-35.29"/>
</a>
</g>
</g>
<!-- Node17 -->
<g id="Node000017" class="node">
<title>Node17</title>
<g id="a_Node000017"><a xlink:href="base__writer_8h.html" target="_top" xlink:title="Abstract base class for all log output writers.">
<polygon fill="white" stroke="#666666" points="691,-206 563,-206 563,-187 691,-187 691,-206"/>
<text text-anchor="middle" x="627" y="-194" font-family="Helvetica,sans-Serif" font-size="10.00">../writers/base_writer.h</text>
</a>
</g>
</g>
<!-- Node1&#45;&gt;Node17 -->
<g id="edge21_Node000001_Node000017" class="edge">
<title>Node1&#45;&gt;Node17</title>
<g id="a_edge21_Node000001_Node000017"><a xlink:title=" ">
<path fill="none" stroke="#63b8ff" d="M663.81,-241.95C656.41,-233.02 647.75,-222.55 640.68,-214.02"/>
<polygon fill="#63b8ff" stroke="#63b8ff" points="643.33,-211.73 634.25,-206.26 637.94,-216.19 643.33,-211.73"/>
</a>
</g>
</g>
<!-- Node22 -->
<g id="Node000022" class="node">
<title>Node22</title>
<g id="a_Node000022"><a xlink:title=" ">
<polygon fill="#e0e0e0" stroke="#999999" points="756.5,-206 709.5,-206 709.5,-187 756.5,-187 756.5,-206"/>
<text text-anchor="middle" x="733" y="-194" font-family="Helvetica,sans-Serif" font-size="10.00">vector</text>
</a>
</g>
</g>
<!-- Node1&#45;&gt;Node22 -->
<g id="edge35_Node000001_Node000022" class="edge">
<title>Node1&#45;&gt;Node22</title>
<g id="a_edge35_Node000001_Node000022"><a xlink:title=" ">
<path fill="none" stroke="#63b8ff" d="M696.19,-241.95C703.59,-233.02 712.25,-222.55 719.32,-214.02"/>
<polygon fill="#63b8ff" stroke="#63b8ff" points="722.06,-216.19 725.75,-206.26 716.67,-211.73 722.06,-216.19"/>
</a>
</g>
</g>
<!-- Node23 -->
<g id="Node000023" class="node">
<title>Node23</title>
<g id="a_Node000023"><a xlink:title=" ">
<polygon fill="#e0e0e0" stroke="#999999" points="867.5,-206 774.5,-206 774.5,-187 867.5,-187 867.5,-206"/>
<text text-anchor="middle" x="821" y="-194" font-family="Helvetica,sans-Serif" font-size="10.00">unordered_map</text>
</a>
</g>
</g>
<!-- Node1&#45;&gt;Node23 -->
<g id="edge37_Node000001_Node000023" class="edge">
<title>Node1&#45;&gt;Node23</title>
<g id="a_edge37_Node000001_Node000023"><a xlink:title=" ">
<path fill="none" stroke="#63b8ff" d="M723.07,-241.95C745.76,-231.65 772.94,-219.31 792.9,-210.25"/>
<polygon fill="#63b8ff" stroke="#63b8ff" points="794.41,-213.41 802.07,-206.09 791.52,-207.04 794.41,-213.41"/>
</a>
</g>
</g>
<!-- Node24 -->
<g id="Node000024" class="node">
<title>Node24</title>
<g id="a_Node000024"><a xlink:title=" ">
<polygon fill="#e0e0e0" stroke="#999999" points="972,-206 886,-206 886,-187 972,-187 972,-206"/>
<text text-anchor="middle" x="929" y="-194" font-family="Helvetica,sans-Serif" font-size="10.00">unordered_set</text>
</a>
</g>
</g>
<!-- Node1&#45;&gt;Node24 -->
<g id="edge38_Node000001_Node000024" class="edge">
<title>Node1&#45;&gt;Node24</title>
<g id="a_edge38_Node000001_Node000024"><a xlink:title=" ">
<path fill="none" stroke="#63b8ff" d="M756.06,-241.95C798.63,-231.01 850.14,-217.77 885.82,-208.6"/>
<polygon fill="#63b8ff" stroke="#63b8ff" points="887.08,-211.89 895.9,-206.01 885.34,-205.11 887.08,-211.89"/>
</a>
</g>
</g>
<!-- Node3 -->
<g id="Node000003" class="node">
<title>Node3</title>
<g id="a_Node000003"><a xlink:title=" ">
<polygon fill="#e0e0e0" stroke="#999999" points="623.5,-85 466.5,-85 466.5,-66 623.5,-66 623.5,-85"/>
<text text-anchor="middle" x="545" y="-73" font-family="Helvetica,sans-Serif" font-size="10.00">interfaces/logger_interface.h</text>
</a>
</g>
</g>
<!-- Node2&#45;&gt;Node3 -->
<g id="edge2_Node000002_Node000003" class="edge">
<title>Node2&#45;&gt;Node3</title>
<g id="a_edge2_Node000002_Node000003"><a xlink:title=" ">
<path fill="none" stroke="#63b8ff" d="M341.68,-194.24C410.44,-191.37 523.88,-181.93 550,-151 563.04,-135.56 558.35,-111.31 552.68,-94.69"/>
<polygon fill="#63b8ff" stroke="#63b8ff" points="555.83,-93.14 548.99,-85.05 549.3,-95.64 555.83,-93.14"/>
</a>
</g>
</g>
<!-- Node4 -->
<g id="Node000004" class="node">
<title>Node4</title>
<g id="a_Node000004"><a xlink:href="log__filter__interface_8h.html" target="_top" xlink:title=" ">
<polygon fill="white" stroke="#666666" points="392,-151 272,-151 272,-121 392,-121 392,-151"/>
<text text-anchor="start" x="280" y="-139" font-family="Helvetica,sans-Serif" font-size="10.00">../interfaces/log_filter</text>
<text text-anchor="middle" x="332" y="-128" font-family="Helvetica,sans-Serif" font-size="10.00">_interface.h</text>
</a>
</g>
</g>
<!-- Node2&#45;&gt;Node4 -->
<g id="edge3_Node000002_Node000004" class="edge">
<title>Node2&#45;&gt;Node4</title>
<g id="a_edge3_Node000002_Node000004"><a xlink:title=" ">
<path fill="none" stroke="#63b8ff" d="M294.49,-186.87C299.97,-179.59 308.04,-168.85 315.3,-159.2"/>
<polygon fill="#63b8ff" stroke="#63b8ff" points="318.17,-161.21 321.38,-151.11 312.58,-157 318.17,-161.21"/>
</a>
</g>
</g>
<!-- Node5 -->
<g id="Node000005" class="node">
<title>Node5</title>
<g id="a_Node000005"><a xlink:title=" ">
<polygon fill="#e0e0e0" stroke="#999999" points="426,-24.5 382,-24.5 382,-5.5 426,-5.5 426,-24.5"/>
<text text-anchor="middle" x="404" y="-12.5" font-family="Helvetica,sans-Serif" font-size="10.00">string</text>
</a>
</g>
</g>
<!-- Node2&#45;&gt;Node5 -->
<g id="edge17_Node000002_Node000005" class="edge">
<title>Node2&#45;&gt;Node5</title>
<g id="a_edge17_Node000002_Node000005"><a xlink:title=" ">
<path fill="none" stroke="#63b8ff" d="M280.86,-186.92C269.97,-172.73 251.61,-143.68 263,-121 275.69,-95.73 343.88,-52.03 380.58,-29.82"/>
<polygon fill="#63b8ff" stroke="#63b8ff" points="382.4,-32.81 389.18,-24.66 378.8,-26.81 382.4,-32.81"/>
</a>
</g>
</g>
<!-- Node6 -->
<g id="Node000006" class="node">
<title>Node6</title>
<g id="a_Node000006"><a xlink:href="log__entry_8h.html" target="_top" xlink:title="Data structures for representing log entries and source locations.">
<polygon fill="white" stroke="#666666" points="541.5,-145.5 410.5,-145.5 410.5,-126.5 541.5,-126.5 541.5,-145.5"/>
<text text-anchor="middle" x="476" y="-133.5" font-family="Helvetica,sans-Serif" font-size="10.00">../interfaces/log_entry.h</text>
</a>
</g>
</g>
<!-- Node2&#45;&gt;Node6 -->
<g id="edge5_Node000002_Node000006" class="edge">
<title>Node2&#45;&gt;Node6</title>
<g id="a_edge5_Node000002_Node000006"><a xlink:title=" ">
<path fill="none" stroke="#63b8ff" d="M315.34,-186.99C347.92,-176.86 402.51,-159.87 438.89,-148.55"/>
<polygon fill="#63b8ff" stroke="#63b8ff" points="440.12,-151.83 448.63,-145.52 438.04,-145.15 440.12,-151.83"/>
</a>
</g>
</g>
<!-- Node2&#45;&gt;Node13 -->
<g id="edge19_Node000002_Node000013" class="edge">
<title>Node2&#45;&gt;Node13</title>
<g id="a_edge19_Node000002_Node000013"><a xlink:title=" ">
<path fill="none" stroke="#63b8ff" d="M250.76,-186.94C224.81,-179.89 190.13,-168.22 163,-151 110.67,-117.79 63.05,-60.71 41.35,-32.61"/>
<polygon fill="#63b8ff" stroke="#63b8ff" points="44.09,-30.42 35.25,-24.58 38.51,-34.66 44.09,-30.42"/>
</a>
</g>
</g>
<!-- Node15 -->
<g id="Node000015" class="node">
<title>Node15</title>
<g id="a_Node000015"><a xlink:title=" ">
<polygon fill="#e0e0e0" stroke="#999999" points="216,-145.5 172,-145.5 172,-126.5 216,-126.5 216,-145.5"/>
<text text-anchor="middle" x="194" y="-133.5" font-family="Helvetica,sans-Serif" font-size="10.00">regex</text>
</a>
</g>
</g>
<!-- Node2&#45;&gt;Node15 -->
<g id="edge18_Node000002_Node000015" class="edge">
<title>Node2&#45;&gt;Node15</title>
<g id="a_edge18_Node000002_Node000015"><a xlink:title=" ">
<path fill="none" stroke="#63b8ff" d="M274.13,-186.87C259,-177.45 234.54,-162.23 216.62,-151.08"/>
<polygon fill="#63b8ff" stroke="#63b8ff" points="218.27,-147.98 207.93,-145.67 214.57,-153.92 218.27,-147.98"/>
</a>
</g>
</g>
<!-- Node16 -->
<g id="Node000016" class="node">
<title>Node16</title>
<g id="a_Node000016"><a xlink:title=" ">
<polygon fill="#e0e0e0" stroke="#999999" points="96.5,-145.5 31.5,-145.5 31.5,-126.5 96.5,-126.5 96.5,-145.5"/>
<text text-anchor="middle" x="64" y="-133.5" font-family="Helvetica,sans-Serif" font-size="10.00">functional</text>
</a>
</g>
</g>
<!-- Node2&#45;&gt;Node16 -->
<g id="edge20_Node000002_Node000016" class="edge">
<title>Node2&#45;&gt;Node16</title>
<g id="a_edge20_Node000002_Node000016"><a xlink:title=" ">
<path fill="none" stroke="#63b8ff" d="M251.95,-186.92C216.1,-178.27 159.58,-164.34 111,-151 108.06,-150.19 105.02,-149.34 101.96,-148.46"/>
<polygon fill="#63b8ff" stroke="#63b8ff" points="102.86,-145.08 92.28,-145.64 100.9,-151.8 102.86,-145.08"/>
</a>
</g>
</g>
<!-- Node4&#45;&gt;Node5 -->
<g id="edge4_Node000004_Node000005" class="edge">
<title>Node4&#45;&gt;Node5</title>
<g id="a_edge4_Node000004_Node000005"><a xlink:title=" ">
<path fill="none" stroke="#63b8ff" d="M333.33,-120.88C335.23,-106.27 339.7,-83.21 350,-66 358.26,-52.2 371.46,-39.88 382.74,-30.92"/>
<polygon fill="#63b8ff" stroke="#63b8ff" points="385.02,-33.59 390.88,-24.76 380.79,-28 385.02,-33.59"/>
</a>
</g>
</g>
<!-- Node6&#45;&gt;Node3 -->
<g id="edge16_Node000006_Node000003" class="edge">
<title>Node6&#45;&gt;Node3</title>
<g id="a_edge16_Node000006_Node000003"><a xlink:title=" ">
<path fill="none" stroke="#63b8ff" d="M486.18,-126.37C496.88,-117.3 513.94,-102.84 526.93,-91.82"/>
<polygon fill="#63b8ff" stroke="#63b8ff" points="529.41,-94.3 534.78,-85.17 524.89,-88.96 529.41,-94.3"/>
</a>
</g>
</g>
<!-- Node6&#45;&gt;Node5 -->
<g id="edge6_Node000006_Node000005" class="edge">
<title>Node6&#45;&gt;Node5</title>
<g id="a_edge6_Node000006_Node000005"><a xlink:title=" ">
<path fill="none" stroke="#63b8ff" d="M442.29,-126.45C421.24,-119.17 395.79,-106.4 383,-85 373.3,-68.78 382.34,-47.7 391.39,-33.13"/>
<polygon fill="#63b8ff" stroke="#63b8ff" points="394.45,-34.86 397.15,-24.61 388.65,-30.94 394.45,-34.86"/>
</a>
</g>
</g>
<!-- Node7 -->
<g id="Node000007" class="node">
<title>Node7</title>
<g id="a_Node000007"><a xlink:title=" ">
<polygon fill="#e0e0e0" stroke="#999999" points="730,-85 680,-85 680,-66 730,-66 730,-85"/>
<text text-anchor="middle" x="705" y="-73" font-family="Helvetica,sans-Serif" font-size="10.00">chrono</text>
</a>
</g>
</g>
<!-- Node6&#45;&gt;Node7 -->
<g id="edge7_Node000006_Node000007" class="edge">
<title>Node6&#45;&gt;Node7</title>
<g id="a_edge7_Node000006_Node000007"><a xlink:title=" ">
<path fill="none" stroke="#63b8ff" d="M509.3,-126.49C552.13,-115.55 626.21,-96.63 669.9,-85.47"/>
<polygon fill="#63b8ff" stroke="#63b8ff" points="670.97,-88.81 679.79,-82.94 669.24,-82.02 670.97,-88.81"/>
</a>
</g>
</g>
<!-- Node8 -->
<g id="Node000008" class="node">
<title>Node8</title>
<g id="a_Node000008"><a xlink:title=" ">
<polygon fill="#e0e0e0" stroke="#999999" points="448,-85 392,-85 392,-66 448,-66 448,-85"/>
<text text-anchor="middle" x="420" y="-73" font-family="Helvetica,sans-Serif" font-size="10.00">optional</text>
</a>
</g>
</g>
<!-- Node6&#45;&gt;Node8 -->
<g id="edge8_Node000006_Node000008" class="edge">
<title>Node6&#45;&gt;Node8</title>
<g id="a_edge8_Node000006_Node000008"><a xlink:title=" ">
<path fill="none" stroke="#63b8ff" d="M467.74,-126.37C459.22,-117.47 445.74,-103.39 435.27,-92.45"/>
<polygon fill="#63b8ff" stroke="#63b8ff" points="437.74,-89.97 428.3,-85.17 432.68,-94.81 437.74,-89.97"/>
</a>
</g>
</g>
<!-- Node9 -->
<g id="Node000009" class="node">
<title>Node9</title>
<g id="a_Node000009"><a xlink:href="small__string_8h.html" target="_top" xlink:title=" ">
<polygon fill="white" stroke="#666666" points="259.5,-85 140.5,-85 140.5,-66 259.5,-66 259.5,-85"/>
<text text-anchor="middle" x="200" y="-73" font-family="Helvetica,sans-Serif" font-size="10.00">../core/small_string.h</text>
</a>
</g>
</g>
<!-- Node6&#45;&gt;Node9 -->
<g id="edge9_Node000006_Node000009" class="edge">
<title>Node6&#45;&gt;Node9</title>
<g id="a_edge9_Node000006_Node000009"><a xlink:title=" ">
<path fill="none" stroke="#63b8ff" d="M435.87,-126.49C386.71,-116.07 303.41,-98.42 250.1,-87.12"/>
<polygon fill="#63b8ff" stroke="#63b8ff" points="250.69,-83.67 240.18,-85.02 249.24,-90.51 250.69,-83.67"/>
</a>
</g>
</g>
<!-- Node9&#45;&gt;Node5 -->
<g id="edge11_Node000009_Node000005" class="edge">
<title>Node9&#45;&gt;Node5</title>
<g id="a_edge11_Node000009_Node000005"><a xlink:title=" ">
<path fill="none" stroke="#63b8ff" d="M240.5,-65.94C275.7,-58.05 327.83,-45.27 372,-30 373.43,-29.5 374.89,-28.97 376.36,-28.42"/>
<polygon fill="#63b8ff" stroke="#63b8ff" points="377.99,-31.53 385.92,-24.51 375.34,-25.05 377.99,-31.53"/>
</a>
</g>
</g>
<!-- Node10 -->
<g id="Node000010" class="node">
<title>Node10</title>
<g id="a_Node000010"><a xlink:title=" ">
<polygon fill="#e0e0e0" stroke="#999999" points="300,-24.5 250,-24.5 250,-5.5 300,-5.5 300,-24.5"/>
<text text-anchor="middle" x="275" y="-12.5" font-family="Helvetica,sans-Serif" font-size="10.00">cstring</text>
</a>
</g>
</g>
<!-- Node9&#45;&gt;Node10 -->
<g id="edge10_Node000009_Node000010" class="edge">
<title>Node9&#45;&gt;Node10</title>
<g id="a_edge10_Node000009_Node000010"><a xlink:title=" ">
<path fill="none" stroke="#63b8ff" d="M211.07,-65.87C222.81,-56.71 241.59,-42.06 255.76,-31.01"/>
<polygon fill="#63b8ff" stroke="#63b8ff" points="258.16,-33.58 263.89,-24.67 253.85,-28.06 258.16,-33.58"/>
</a>
</g>
</g>
<!-- Node11 -->
<g id="Node000011" class="node">
<title>Node11</title>
<g id="a_Node000011"><a xlink:title=" ">
<polygon fill="#e0e0e0" stroke="#999999" points="149.5,-24.5 76.5,-24.5 76.5,-5.5 149.5,-5.5 149.5,-24.5"/>
<text text-anchor="middle" x="113" y="-12.5" font-family="Helvetica,sans-Serif" font-size="10.00">string_view</text>
</a>
</g>
</g>
<!-- Node9&#45;&gt;Node11 -->
<g id="edge12_Node000009_Node000011" class="edge">
<title>Node9&#45;&gt;Node11</title>
<g id="a_edge12_Node000009_Node000011"><a xlink:title=" ">
<path fill="none" stroke="#63b8ff" d="M187.16,-65.87C173.28,-56.54 150.93,-41.51 134.39,-30.38"/>
<polygon fill="#63b8ff" stroke="#63b8ff" points="136.14,-27.34 125.89,-24.67 132.24,-33.15 136.14,-27.34"/>
</a>
</g>
</g>
<!-- Node12 -->
<g id="Node000012" class="node">
<title>Node12</title>
<g id="a_Node000012"><a xlink:title=" ">
<polygon fill="#e0e0e0" stroke="#999999" points="232,-24.5 168,-24.5 168,-5.5 232,-5.5 232,-24.5"/>
<text text-anchor="middle" x="200" y="-12.5" font-family="Helvetica,sans-Serif" font-size="10.00">algorithm</text>
</a>
</g>
</g>
<!-- Node9&#45;&gt;Node12 -->
<g id="edge13_Node000009_Node000012" class="edge">
<title>Node9&#45;&gt;Node12</title>
<g id="a_edge13_Node000009_Node000012"><a xlink:title=" ">
<path fill="none" stroke="#63b8ff" d="M200,-65.87C200,-57.75 200,-45.31 200,-34.89"/>
<polygon fill="#63b8ff" stroke="#63b8ff" points="203.5,-34.67 200,-24.67 196.5,-34.67 203.5,-34.67"/>
</a>
</g>
</g>
<!-- Node9&#45;&gt;Node13 -->
<g id="edge14_Node000009_Node000013" class="edge">
<title>Node9&#45;&gt;Node13</title>
<g id="a_edge14_Node000009_Node000013"><a xlink:title=" ">
<path fill="none" stroke="#63b8ff" d="M173.42,-65.87C146.52,-57.07 103.75,-42.92 67,-30 65.16,-29.35 63.27,-28.68 61.37,-28"/>
<polygon fill="#63b8ff" stroke="#63b8ff" points="62.46,-24.67 51.87,-24.55 60.07,-31.25 62.46,-24.67"/>
</a>
</g>
</g>
<!-- Node14 -->
<g id="Node000014" class="node">
<title>Node14</title>
<g id="a_Node000014"><a xlink:title=" ">
<polygon fill="#e0e0e0" stroke="#999999" points="363.5,-24.5 318.5,-24.5 318.5,-5.5 363.5,-5.5 363.5,-24.5"/>
<text text-anchor="middle" x="341" y="-12.5" font-family="Helvetica,sans-Serif" font-size="10.00">utility</text>
</a>
</g>
</g>
<!-- Node9&#45;&gt;Node14 -->
<g id="edge15_Node000009_Node000014" class="edge">
<title>Node9&#45;&gt;Node14</title>
<g id="a_edge15_Node000009_Node000014"><a xlink:title=" ">
<path fill="none" stroke="#63b8ff" d="M221.37,-65.96C243.39,-57.11 278.69,-42.82 309,-30 310.16,-29.51 311.35,-29 312.54,-28.49"/>
<polygon fill="#63b8ff" stroke="#63b8ff" points="313.95,-31.7 321.74,-24.52 311.17,-25.27 313.95,-31.7"/>
</a>
</g>
</g>
<!-- Node17&#45;&gt;Node3 -->
<g id="edge24_Node000017_Node000003" class="edge">
<title>Node17&#45;&gt;Node3</title>
<g id="a_edge24_Node000017_Node000003"><a xlink:title=" ">
<path fill="none" stroke="#63b8ff" d="M622.74,-186.9C615.54,-172.68 600.17,-143.58 584,-121 576.91,-111.1 568.03,-100.83 560.53,-92.66"/>
<polygon fill="#63b8ff" stroke="#63b8ff" points="563,-90.18 553.61,-85.27 557.89,-94.96 563,-90.18"/>
</a>
</g>
</g>
<!-- Node17&#45;&gt;Node5 -->
<g id="edge22_Node000017_Node000005" class="edge">
<title>Node17&#45;&gt;Node5</title>
<g id="a_edge22_Node000017_Node000005"><a xlink:title=" ">
<path fill="none" stroke="#63b8ff" d="M630.82,-186.74C640.11,-163.96 661.05,-102.11 632,-66 607.84,-35.97 493.68,-22.96 436.62,-18.26"/>
<polygon fill="#63b8ff" stroke="#63b8ff" points="436.59,-14.74 426.34,-17.45 436.04,-21.72 436.59,-14.74"/>
</a>
</g>
</g>
<!-- Node17&#45;&gt;Node6 -->
<g id="edge34_Node000017_Node000006" class="edge">
<title>Node17&#45;&gt;Node6</title>
<g id="a_edge34_Node000017_Node000006"><a xlink:title=" ">
<path fill="none" stroke="#63b8ff" d="M605.04,-186.99C579.32,-177.03 536.52,-160.45 507.32,-149.13"/>
<polygon fill="#63b8ff" stroke="#63b8ff" points="508.57,-145.87 497.98,-145.52 506.04,-152.39 508.57,-145.87"/>
</a>
</g>
</g>
<!-- Node17&#45;&gt;Node7 -->
<g id="edge23_Node000017_Node000007" class="edge">
<title>Node17&#45;&gt;Node7</title>
<g id="a_edge23_Node000017_Node000007"><a xlink:title=" ">
<path fill="none" stroke="#63b8ff" d="M633.83,-186.81C640.68,-177.97 651.43,-163.78 660,-151 672.7,-132.06 686.07,-109.55 694.9,-94.27"/>
<polygon fill="#63b8ff" stroke="#63b8ff" points="698.06,-95.8 700,-85.38 691.99,-92.32 698.06,-95.8"/>
</a>
</g>
</g>
<!-- Node18 -->
<g id="Node000018" class="node">
<title>Node18</title>
<g id="a_Node000018"><a xlink:href="error__codes_8h.html" target="_top" xlink:title=" ">
<polygon fill="white" stroke="#666666" points="878,-85 786,-85 786,-66 878,-66 878,-85"/>
<text text-anchor="middle" x="832" y="-73" font-family="Helvetica,sans-Serif" font-size="10.00">../error_codes.h</text>
</a>
</g>
</g>
<!-- Node17&#45;&gt;Node18 -->
<g id="edge25_Node000017_Node000018" class="edge">
<title>Node17&#45;&gt;Node18</title>
<g id="a_edge25_Node000017_Node000018"><a xlink:title=" ">
<path fill="none" stroke="#63b8ff" d="M689.31,-186.97C750.77,-177.93 836.96,-163.27 847,-151 860.01,-135.1 851.64,-110.99 843.1,-94.53"/>
<polygon fill="#63b8ff" stroke="#63b8ff" points="845.91,-92.39 837.94,-85.41 839.82,-95.84 845.91,-92.39"/>
</a>
</g>
</g>
<!-- Node21 -->
<g id="Node000021" class="node">
<title>Node21</title>
<g id="a_Node000021"><a xlink:href="log__writer__interface_8h.html" target="_top" xlink:title=" ">
<polygon fill="white" stroke="#666666" points="838,-151 712,-151 712,-121 838,-121 838,-151"/>
<text text-anchor="start" x="720" y="-139" font-family="Helvetica,sans-Serif" font-size="10.00">../interfaces/log_writer</text>
<text text-anchor="middle" x="775" y="-128" font-family="Helvetica,sans-Serif" font-size="10.00">_interface.h</text>
</a>
</g>
</g>
<!-- Node17&#45;&gt;Node21 -->
<g id="edge30_Node000017_Node000021" class="edge">
<title>Node17&#45;&gt;Node21</title>
<g id="a_edge30_Node000017_Node000021"><a xlink:title=" ">
<path fill="none" stroke="#63b8ff" d="M648.52,-186.99C669.73,-178.61 702.78,-165.55 729.78,-154.87"/>
<polygon fill="#63b8ff" stroke="#63b8ff" points="731.41,-158 739.42,-151.06 728.83,-151.49 731.41,-158"/>
</a>
</g>
</g>
<!-- Node18&#45;&gt;Node5 -->
<g id="edge26_Node000018_Node000005" class="edge">
<title>Node18&#45;&gt;Node5</title>
<g id="a_edge26_Node000018_Node000005"><a xlink:title=" ">
<path fill="none" stroke="#63b8ff" d="M785.82,-67.93C781.15,-67.27 776.48,-66.62 772,-66 648.24,-48.83 500.97,-29 436.71,-20.38"/>
<polygon fill="#63b8ff" stroke="#63b8ff" points="436.78,-16.86 426.41,-19 435.85,-23.8 436.78,-16.86"/>
</a>
</g>
</g>
<!-- Node18&#45;&gt;Node14 -->
<g id="edge28_Node000018_Node000014" class="edge">
<title>Node18&#45;&gt;Node14</title>
<g id="a_edge28_Node000018_Node000014"><a xlink:title=" ">
<path fill="none" stroke="#63b8ff" d="M785.79,-70.21C671.29,-59.56 382.93,-32.58 373,-30 371.11,-29.51 369.18,-28.92 367.27,-28.26"/>
<polygon fill="#63b8ff" stroke="#63b8ff" points="368.5,-24.99 357.92,-24.58 365.94,-31.5 368.5,-24.99"/>
</a>
</g>
</g>
<!-- Node19 -->
<g id="Node000019" class="node">
<title>Node19</title>
<g id="a_Node000019"><a xlink:title=" ">
<polygon fill="#e0e0e0" stroke="#999999" points="806.5,-24.5 741.5,-24.5 741.5,-5.5 806.5,-5.5 806.5,-24.5"/>
<text text-anchor="middle" x="774" y="-12.5" font-family="Helvetica,sans-Serif" font-size="10.00">stdexcept</text>
</a>
</g>
</g>
<!-- Node18&#45;&gt;Node19 -->
<g id="edge27_Node000018_Node000019" class="edge">
<title>Node18&#45;&gt;Node19</title>
<g id="a_edge27_Node000018_Node000019"><a xlink:title=" ">
<path fill="none" stroke="#63b8ff" d="M823.44,-65.87C814.62,-56.97 800.66,-42.89 789.82,-31.95"/>
<polygon fill="#63b8ff" stroke="#63b8ff" points="792.12,-29.3 782.59,-24.67 787.15,-34.23 792.12,-29.3"/>
</a>
</g>
</g>
<!-- Node20 -->
<g id="Node000020" class="node">
<title>Node20</title>
<g id="a_Node000020"><a xlink:title=" ">
<polygon fill="#e0e0e0" stroke="#999999" points="953,-30 825,-30 825,0 953,0 953,-30"/>
<text text-anchor="start" x="833" y="-18" font-family="Helvetica,sans-Serif" font-size="10.00">thread_base/sync/error</text>
<text text-anchor="middle" x="889" y="-7" font-family="Helvetica,sans-Serif" font-size="10.00">_handling.h</text>
</a>
</g>
</g>
<!-- Node18&#45;&gt;Node20 -->
<g id="edge29_Node000018_Node000020" class="edge">
<title>Node18&#45;&gt;Node20</title>
<g id="a_edge29_Node000018_Node000020"><a xlink:title=" ">
<path fill="none" stroke="#63b8ff" d="M840.41,-65.87C847.72,-58.37 858.6,-47.2 868.22,-37.33"/>
<polygon fill="#63b8ff" stroke="#63b8ff" points="870.78,-39.72 875.25,-30.11 865.76,-34.83 870.78,-39.72"/>
</a>
</g>
</g>
<!-- Node21&#45;&gt;Node5 -->
<g id="edge31_Node000021_Node000005" class="edge">
<title>Node21&#45;&gt;Node5</title>
<g id="a_edge31_Node000021_Node000005"><a xlink:title=" ">
<path fill="none" stroke="#63b8ff" d="M771.72,-120.81C767.21,-104.77 757.49,-79.17 739,-66 690.73,-31.61 510.76,-20.38 436.43,-17.16"/>
<polygon fill="#63b8ff" stroke="#63b8ff" points="436.39,-13.65 426.26,-16.74 436.1,-20.64 436.39,-13.65"/>
</a>
</g>
</g>
<!-- Node21&#45;&gt;Node7 -->
<g id="edge32_Node000021_Node000007" class="edge">
<title>Node21&#45;&gt;Node7</title>
<g id="a_edge32_Node000021_Node000007"><a xlink:title=" ">
<path fill="none" stroke="#63b8ff" d="M758.05,-120.84C747.58,-112.09 734.14,-100.85 723.41,-91.88"/>
<polygon fill="#63b8ff" stroke="#63b8ff" points="725.41,-88.99 715.49,-85.27 720.92,-94.36 725.41,-88.99"/>
</a>
</g>
</g>
<!-- Node21&#45;&gt;Node18 -->
<g id="edge33_Node000021_Node000018" class="edge">
<title>Node21&#45;&gt;Node18</title>
<g id="a_edge33_Node000021_Node000018"><a xlink:title=" ">
<path fill="none" stroke="#63b8ff" d="M788.8,-120.84C797.07,-112.35 807.62,-101.52 816.23,-92.69"/>
<polygon fill="#63b8ff" stroke="#63b8ff" points="818.99,-94.87 823.46,-85.27 813.97,-89.99 818.99,-94.87"/>
</a>
</g>
</g>
</g>
</svg>
