<?xml version="1.0" encoding="UTF-8" standalone="no"?>
<!DOCTYPE svg PUBLIC "-//W3C//DTD SVG 1.1//EN"
 "http://www.w3.org/Graphics/SVG/1.1/DTD/svg11.dtd">
<!-- Generated by graphviz version 2.43.0 (0)
 -->
<!-- Title: /home/runner/work/logger_system/logger_system/sources/logger/security/log_sanitizer.cpp Pages: 1 -->
<svg width="1033pt" height="335pt"
 viewBox="0.00 0.00 1033.00 335.00" xmlns="http://www.w3.org/2000/svg" xmlns:xlink="http://www.w3.org/1999/xlink">
<g id="graph0" class="graph" transform="scale(1 1) rotate(0) translate(4 331)">
<title>/home/runner/work/logger_system/logger_system/sources/logger/security/log_sanitizer.cpp</title>
<!-- Node1 -->
<g id="Node000001" class="node">
<title>Node1</title>
<g id="a_Node000001"><a xlink:title=" ">
<polygon fill="#999999" stroke="#666666" points="827,-327 650,-327 650,-286 827,-286 827,-327"/>
<text text-anchor="start" x="658" y="-315" font-family="Helvetica,sans-Serif" font-size="10.00">/home/runner/work/logger</text>
<text text-anchor="start" x="658" y="-304" font-family="Helvetica,sans-Serif" font-size="10.00">_system/logger_system/sources</text>
<text text-anchor="middle" x="738.5" y="-293" font-family="Helvetica,sans-Serif" font-size="10.00">/logger/security/log_sanitizer.cpp</text>
</a>
</g>
</g>
<!-- Node2 -->
<g id="Node000002" class="node">
<title>Node2</title>
<g id="a_Node000002"><a xlink:href="log__sanitizer_8h.html" target="_top" xlink:title=" ">
<polygon fill="white" stroke="#666666" points="556,-250 469,-250 469,-231 556,-231 556,-250"/>
<text text-anchor="middle" x="512.5" y="-238" font-family="Helvetica,sans-Serif" font-size="10.00">log_sanitizer.h</text>
</a>
</g>
</g>
<!-- Node1&#45;&gt;Node2 -->
<g id="edge1_Node000001_Node000002" class="edge">
<title>Node1&#45;&gt;Node2</title>
<g id="a_edge1_Node000001_Node000002"><a xlink:title=" ">
<path fill="none" stroke="#63b8ff" d="M669.46,-285.95C631.16,-275.1 584.88,-262 552.53,-252.84"/>
<polygon fill="#63b8ff" stroke="#63b8ff" points="553.12,-249.37 542.54,-250.01 551.21,-256.1 553.12,-249.37"/>
</a>
</g>
</g>
<!-- Node13 -->
<g id="Node000013" class="node">
<title>Node13</title>
<g id="a_Node000013"><a xlink:title=" ">
<polygon fill="#e0e0e0" stroke="#999999" points="770.5,-19 706.5,-19 706.5,0 770.5,0 770.5,-19"/>
<text text-anchor="middle" x="738.5" y="-7" font-family="Helvetica,sans-Serif" font-size="10.00">algorithm</text>
</a>
</g>
</g>
<!-- Node1&#45;&gt;Node13 -->
<g id="edge25_Node000001_Node000013" class="edge">
<title>Node1&#45;&gt;Node13</title>
<g id="a_edge25_Node000001_Node000013"><a xlink:title=" ">
<path fill="none" stroke="#63b8ff" d="M738.5,-285.71C738.5,-262.09 738.5,-221.41 738.5,-186.5 738.5,-186.5 738.5,-186.5 738.5,-124 738.5,-90.61 738.5,-51.69 738.5,-29.19"/>
<polygon fill="#63b8ff" stroke="#63b8ff" points="742,-29.04 738.5,-19.04 735,-29.04 742,-29.04"/>
</a>
</g>
</g>
<!-- Node14 -->
<g id="Node000014" class="node">
<title>Node14</title>
<g id="a_Node000014"><a xlink:title=" ">
<polygon fill="#e0e0e0" stroke="#999999" points="688.5,-19 630.5,-19 630.5,0 688.5,0 688.5,-19"/>
<text text-anchor="middle" x="659.5" y="-7" font-family="Helvetica,sans-Serif" font-size="10.00">memory</text>
</a>
</g>
</g>
<!-- Node1&#45;&gt;Node14 -->
<g id="edge31_Node000001_Node000014" class="edge">
<title>Node1&#45;&gt;Node14</title>
<g id="a_edge31_Node000001_Node000014"><a xlink:title=" ">
<path fill="none" stroke="#63b8ff" d="M728.12,-285.9C716.87,-262.8 700.5,-222.93 700.5,-186.5 700.5,-186.5 700.5,-186.5 700.5,-124 700.5,-88.21 682.24,-49.64 670.09,-27.94"/>
<polygon fill="#63b8ff" stroke="#63b8ff" points="673.08,-26.12 665.03,-19.23 667.03,-29.63 673.08,-26.12"/>
</a>
</g>
</g>
<!-- Node16 -->
<g id="Node000016" class="node">
<title>Node16</title>
<g id="a_Node000016"><a xlink:title=" ">
<polygon fill="#e0e0e0" stroke="#999999" points="672.5,-134.5 628.5,-134.5 628.5,-115.5 672.5,-115.5 672.5,-134.5"/>
<text text-anchor="middle" x="650.5" y="-122.5" font-family="Helvetica,sans-Serif" font-size="10.00">regex</text>
</a>
</g>
</g>
<!-- Node1&#45;&gt;Node16 -->
<g id="edge27_Node000001_Node000016" class="edge">
<title>Node1&#45;&gt;Node16</title>
<g id="a_edge27_Node000001_Node000016"><a xlink:title=" ">
<path fill="none" stroke="#63b8ff" d="M715.66,-285.8C705.47,-275.95 694.08,-263.31 686.5,-250 666.97,-215.71 657.28,-169.94 653.13,-144.7"/>
<polygon fill="#63b8ff" stroke="#63b8ff" points="656.56,-144.02 651.59,-134.66 649.64,-145.07 656.56,-144.02"/>
</a>
</g>
</g>
<!-- Node18 -->
<g id="Node000018" class="node">
<title>Node18</title>
<g id="a_Node000018"><a xlink:title=" ">
<polygon fill="#e0e0e0" stroke="#999999" points="634,-195 541,-195 541,-176 634,-176 634,-195"/>
<text text-anchor="middle" x="587.5" y="-183" font-family="Helvetica,sans-Serif" font-size="10.00">unordered_map</text>
</a>
</g>
</g>
<!-- Node1&#45;&gt;Node18 -->
<g id="edge30_Node000001_Node000018" class="edge">
<title>Node1&#45;&gt;Node18</title>
<g id="a_edge30_Node000001_Node000018"><a xlink:title=" ">
<path fill="none" stroke="#63b8ff" d="M702.06,-285.86C685.1,-276.02 665.07,-263.37 648.5,-250 630.93,-235.82 613.34,-216.88 601.59,-203.38"/>
<polygon fill="#63b8ff" stroke="#63b8ff" points="603.93,-200.73 594.77,-195.4 598.61,-205.27 603.93,-200.73"/>
</a>
</g>
</g>
<!-- Node19 -->
<g id="Node000019" class="node">
<title>Node19</title>
<g id="a_Node000019"><a xlink:title=" ">
<polygon fill="#e0e0e0" stroke="#999999" points="826.5,-250 766.5,-250 766.5,-231 826.5,-231 826.5,-250"/>
<text text-anchor="middle" x="796.5" y="-238" font-family="Helvetica,sans-Serif" font-size="10.00">iostream</text>
</a>
</g>
</g>
<!-- Node1&#45;&gt;Node19 -->
<g id="edge26_Node000001_Node000019" class="edge">
<title>Node1&#45;&gt;Node19</title>
<g id="a_edge26_Node000001_Node000019"><a xlink:title=" ">
<path fill="none" stroke="#63b8ff" d="M756.22,-285.95C764.4,-276.92 774,-266.33 781.77,-257.75"/>
<polygon fill="#63b8ff" stroke="#63b8ff" points="784.44,-260.02 788.56,-250.26 779.25,-255.32 784.44,-260.02"/>
</a>
</g>
</g>
<!-- Node20 -->
<g id="Node000020" class="node">
<title>Node20</title>
<g id="a_Node000020"><a xlink:title=" ">
<polygon fill="#e0e0e0" stroke="#999999" points="892.5,-250 844.5,-250 844.5,-231 892.5,-231 892.5,-250"/>
<text text-anchor="middle" x="868.5" y="-238" font-family="Helvetica,sans-Serif" font-size="10.00">mutex</text>
</a>
</g>
</g>
<!-- Node1&#45;&gt;Node20 -->
<g id="edge28_Node000001_Node000020" class="edge">
<title>Node1&#45;&gt;Node20</title>
<g id="a_edge28_Node000001_Node000020"><a xlink:title=" ">
<path fill="none" stroke="#63b8ff" d="M778.21,-285.95C798.84,-275.79 823.51,-263.65 841.84,-254.63"/>
<polygon fill="#63b8ff" stroke="#63b8ff" points="843.62,-257.65 851.05,-250.09 840.53,-251.37 843.62,-257.65"/>
</a>
</g>
</g>
<!-- Node21 -->
<g id="Node000021" class="node">
<title>Node21</title>
<g id="a_Node000021"><a xlink:title=" ">
<polygon fill="#e0e0e0" stroke="#999999" points="958,-250 911,-250 911,-231 958,-231 958,-250"/>
<text text-anchor="middle" x="934.5" y="-238" font-family="Helvetica,sans-Serif" font-size="10.00">vector</text>
</a>
</g>
</g>
<!-- Node1&#45;&gt;Node21 -->
<g id="edge29_Node000001_Node000021" class="edge">
<title>Node1&#45;&gt;Node21</title>
<g id="a_edge29_Node000001_Node000021"><a xlink:title=" ">
<path fill="none" stroke="#63b8ff" d="M798.37,-285.95C832.06,-274.95 872.87,-261.62 900.97,-252.45"/>
<polygon fill="#63b8ff" stroke="#63b8ff" points="902.29,-255.7 910.71,-249.27 900.12,-249.04 902.29,-255.7"/>
</a>
</g>
</g>
<!-- Node22 -->
<g id="Node000022" class="node">
<title>Node22</title>
<g id="a_Node000022"><a xlink:title=" ">
<polygon fill="#e0e0e0" stroke="#999999" points="1025,-250 976,-250 976,-231 1025,-231 1025,-250"/>
<text text-anchor="middle" x="1000.5" y="-238" font-family="Helvetica,sans-Serif" font-size="10.00">cctype</text>
</a>
</g>
</g>
<!-- Node1&#45;&gt;Node22 -->
<g id="edge32_Node000001_Node000022" class="edge">
<title>Node1&#45;&gt;Node22</title>
<g id="a_edge32_Node000001_Node000022"><a xlink:title=" ">
<path fill="none" stroke="#63b8ff" d="M820.45,-285.94C861.58,-276.05 912.42,-263.72 965.67,-250.43"/>
<polygon fill="#63b8ff" stroke="#63b8ff" points="966.79,-253.76 975.64,-247.94 965.09,-246.97 966.79,-253.76"/>
</a>
</g>
</g>
<!-- Node3 -->
<g id="Node000003" class="node">
<title>Node3</title>
<g id="a_Node000003"><a xlink:href="log__filter_8h.html" target="_top" xlink:title=" ">
<polygon fill="white" stroke="#666666" points="450,-195 343,-195 343,-176 450,-176 450,-195"/>
<text text-anchor="middle" x="396.5" y="-183" font-family="Helvetica,sans-Serif" font-size="10.00">../filters/log_filter.h</text>
</a>
</g>
</g>
<!-- Node2&#45;&gt;Node3 -->
<g id="edge2_Node000002_Node000003" class="edge">
<title>Node2&#45;&gt;Node3</title>
<g id="a_edge2_Node000002_Node000003"><a xlink:title=" ">
<path fill="none" stroke="#63b8ff" d="M493.86,-230.98C475.2,-222.46 446.25,-209.23 424.76,-199.41"/>
<polygon fill="#63b8ff" stroke="#63b8ff" points="426.03,-196.14 415.48,-195.17 423.12,-202.51 426.03,-196.14"/>
</a>
</g>
</g>
<!-- Node2&#45;&gt;Node16 -->
<g id="edge22_Node000002_Node000016" class="edge">
<title>Node2&#45;&gt;Node16</title>
<g id="a_edge22_Node000002_Node000016"><a xlink:title=" ">
<path fill="none" stroke="#63b8ff" d="M512.96,-230.99C514.12,-217.66 518.2,-191.74 532.5,-176 535.65,-172.53 585.7,-152 619.6,-138.34"/>
<polygon fill="#63b8ff" stroke="#63b8ff" points="621.13,-141.5 629.1,-134.53 618.52,-135.01 621.13,-141.5"/>
</a>
</g>
</g>
<!-- Node17 -->
<g id="Node000017" class="node">
<title>Node17</title>
<g id="a_Node000017"><a xlink:title=" ">
<polygon fill="#e0e0e0" stroke="#999999" points="65,-134.5 0,-134.5 0,-115.5 65,-115.5 65,-134.5"/>
<text text-anchor="middle" x="32.5" y="-122.5" font-family="Helvetica,sans-Serif" font-size="10.00">functional</text>
</a>
</g>
</g>
<!-- Node2&#45;&gt;Node17 -->
<g id="edge24_Node000002_Node000017" class="edge">
<title>Node2&#45;&gt;Node17</title>
<g id="a_edge24_Node000002_Node000017"><a xlink:title=" ">
<path fill="none" stroke="#63b8ff" d="M471.39,-230.97C394.22,-214.74 222.52,-177.69 79.5,-140 76.37,-139.18 73.14,-138.29 69.89,-137.37"/>
<polygon fill="#63b8ff" stroke="#63b8ff" points="70.83,-134 60.25,-134.59 68.89,-140.72 70.83,-134"/>
</a>
</g>
</g>
<!-- Node2&#45;&gt;Node18 -->
<g id="edge23_Node000002_Node000018" class="edge">
<title>Node2&#45;&gt;Node18</title>
<g id="a_edge23_Node000002_Node000018"><a xlink:title=" ">
<path fill="none" stroke="#63b8ff" d="M524.55,-230.98C535.96,-222.92 553.33,-210.65 566.93,-201.03"/>
<polygon fill="#63b8ff" stroke="#63b8ff" points="569.08,-203.8 575.23,-195.17 565.04,-198.08 569.08,-203.8"/>
</a>
</g>
</g>
<!-- Node4 -->
<g id="Node000004" class="node">
<title>Node4</title>
<g id="a_Node000004"><a xlink:title=" ">
<polygon fill="#e0e0e0" stroke="#999999" points="634,-74 477,-74 477,-55 634,-55 634,-74"/>
<text text-anchor="middle" x="555.5" y="-62" font-family="Helvetica,sans-Serif" font-size="10.00">interfaces/logger_interface.h</text>
</a>
</g>
</g>
<!-- Node3&#45;&gt;Node4 -->
<g id="edge3_Node000003_Node000004" class="edge">
<title>Node3&#45;&gt;Node4</title>
<g id="a_edge3_Node000003_Node000004"><a xlink:title=" ">
<path fill="none" stroke="#63b8ff" d="M407.93,-175.94C434.73,-155.88 501.87,-105.64 535.56,-80.42"/>
<polygon fill="#63b8ff" stroke="#63b8ff" points="537.83,-83.1 543.74,-74.3 533.64,-77.49 537.83,-83.1"/>
</a>
</g>
</g>
<!-- Node5 -->
<g id="Node000005" class="node">
<title>Node5</title>
<g id="a_Node000005"><a xlink:href="log__filter__interface_8h.html" target="_top" xlink:title=" ">
<polygon fill="white" stroke="#666666" points="260.5,-140 140.5,-140 140.5,-110 260.5,-110 260.5,-140"/>
<text text-anchor="start" x="148.5" y="-128" font-family="Helvetica,sans-Serif" font-size="10.00">../interfaces/log_filter</text>
<text text-anchor="middle" x="200.5" y="-117" font-family="Helvetica,sans-Serif" font-size="10.00">_interface.h</text>
</a>
</g>
</g>
<!-- Node3&#45;&gt;Node5 -->
<g id="edge4_Node000003_Node000005" class="edge">
<title>Node3&#45;&gt;Node5</title>
<g id="a_edge4_Node000003_Node000005"><a xlink:title=" ">
<path fill="none" stroke="#63b8ff" d="M368,-175.99C339.18,-167.39 293.83,-153.86 257.58,-143.04"/>
<polygon fill="#63b8ff" stroke="#63b8ff" points="258.2,-139.57 247.62,-140.06 256.2,-146.28 258.2,-139.57"/>
</a>
</g>
</g>
<!-- Node6 -->
<g id="Node000006" class="node">
<title>Node6</title>
<g id="a_Node000006"><a xlink:title=" ">
<polygon fill="#e0e0e0" stroke="#999999" points="172.5,-19 128.5,-19 128.5,0 172.5,0 172.5,-19"/>
<text text-anchor="middle" x="150.5" y="-7" font-family="Helvetica,sans-Serif" font-size="10.00">string</text>
</a>
</g>
</g>
<!-- Node3&#45;&gt;Node6 -->
<g id="edge18_Node000003_Node000006" class="edge">
<title>Node3&#45;&gt;Node6</title>
<g id="a_edge18_Node000003_Node000006"><a xlink:title=" ">
<path fill="none" stroke="#63b8ff" d="M342.97,-179.2C269.52,-171.39 145,-155.96 131.5,-140 104.57,-108.17 126,-55.45 140.3,-28.13"/>
<polygon fill="#63b8ff" stroke="#63b8ff" points="143.41,-29.75 145.15,-19.3 137.27,-26.38 143.41,-29.75"/>
</a>
</g>
</g>
<!-- Node7 -->
<g id="Node000007" class="node">
<title>Node7</title>
<g id="a_Node000007"><a xlink:href="log__entry_8h.html" target="_top" xlink:title="Data structures for representing log entries and source locations.">
<polygon fill="white" stroke="#666666" points="447,-134.5 316,-134.5 316,-115.5 447,-115.5 447,-134.5"/>
<text text-anchor="middle" x="381.5" y="-122.5" font-family="Helvetica,sans-Serif" font-size="10.00">../interfaces/log_entry.h</text>
</a>
</g>
</g>
<!-- Node3&#45;&gt;Node7 -->
<g id="edge6_Node000003_Node000007" class="edge">
<title>Node3&#45;&gt;Node7</title>
<g id="a_edge6_Node000003_Node000007"><a xlink:title=" ">
<path fill="none" stroke="#63b8ff" d="M394.29,-175.87C392.18,-167.66 388.95,-155.04 386.26,-144.55"/>
<polygon fill="#63b8ff" stroke="#63b8ff" points="389.6,-143.48 383.72,-134.67 382.82,-145.22 389.6,-143.48"/>
</a>
</g>
</g>
<!-- Node3&#45;&gt;Node14 -->
<g id="edge20_Node000003_Node000014" class="edge">
<title>Node3&#45;&gt;Node14</title>
<g id="a_edge20_Node000003_Node000014"><a xlink:title=" ">
<path fill="none" stroke="#63b8ff" d="M445,-175.95C501.16,-163.48 592.45,-134.8 643.5,-74 653.9,-61.62 657.68,-43.4 658.99,-29.65"/>
<polygon fill="#63b8ff" stroke="#63b8ff" points="662.5,-29.57 659.6,-19.38 655.51,-29.15 662.5,-29.57"/>
</a>
</g>
</g>
<!-- Node3&#45;&gt;Node16 -->
<g id="edge19_Node000003_Node000016" class="edge">
<title>Node3&#45;&gt;Node16</title>
<g id="a_edge19_Node000003_Node000016"><a xlink:title=" ">
<path fill="none" stroke="#63b8ff" d="M450.43,-176.11C494.93,-168.57 559.47,-156.19 614.5,-140 616.43,-139.43 618.4,-138.81 620.38,-138.14"/>
<polygon fill="#63b8ff" stroke="#63b8ff" points="621.94,-141.3 630.15,-134.61 619.55,-134.72 621.94,-141.3"/>
</a>
</g>
</g>
<!-- Node3&#45;&gt;Node17 -->
<g id="edge21_Node000003_Node000017" class="edge">
<title>Node3&#45;&gt;Node17</title>
<g id="a_edge21_Node000003_Node000017"><a xlink:title=" ">
<path fill="none" stroke="#63b8ff" d="M342.78,-179.44C279.38,-172.9 171,-159.93 79.5,-140 75.88,-139.21 72.12,-138.28 68.39,-137.29"/>
<polygon fill="#63b8ff" stroke="#63b8ff" points="69.24,-133.89 58.67,-134.55 67.34,-140.63 69.24,-133.89"/>
</a>
</g>
</g>
<!-- Node5&#45;&gt;Node6 -->
<g id="edge5_Node000005_Node000006" class="edge">
<title>Node5&#45;&gt;Node6</title>
<g id="a_edge5_Node000005_Node000006"><a xlink:title=" ">
<path fill="none" stroke="#63b8ff" d="M182.88,-109.72C173,-100.63 161.49,-87.95 155.5,-74 149.42,-59.85 148.48,-42.31 148.88,-29.26"/>
<polygon fill="#63b8ff" stroke="#63b8ff" points="152.38,-29.32 149.48,-19.13 145.39,-28.9 152.38,-29.32"/>
</a>
</g>
</g>
<!-- Node7&#45;&gt;Node4 -->
<g id="edge17_Node000007_Node000004" class="edge">
<title>Node7&#45;&gt;Node4</title>
<g id="a_edge17_Node000007_Node000004"><a xlink:title=" ">
<path fill="none" stroke="#63b8ff" d="M406.8,-115.49C436.7,-105.44 486.62,-88.66 520.28,-77.34"/>
<polygon fill="#63b8ff" stroke="#63b8ff" points="521.81,-80.52 530.17,-74.02 519.57,-73.89 521.81,-80.52"/>
</a>
</g>
</g>
<!-- Node7&#45;&gt;Node6 -->
<g id="edge7_Node000007_Node000006" class="edge">
<title>Node7&#45;&gt;Node6</title>
<g id="a_edge7_Node000007_Node000006"><a xlink:title=" ">
<path fill="none" stroke="#63b8ff" d="M331.17,-115.44C281.83,-106.26 210.88,-90.75 188.5,-74 173.27,-62.6 162.95,-43.15 156.95,-28.77"/>
<polygon fill="#63b8ff" stroke="#63b8ff" points="160.19,-27.46 153.34,-19.38 153.66,-29.97 160.19,-27.46"/>
</a>
</g>
</g>
<!-- Node8 -->
<g id="Node000008" class="node">
<title>Node8</title>
<g id="a_Node000008"><a xlink:title=" ">
<polygon fill="#e0e0e0" stroke="#999999" points="247.5,-74 197.5,-74 197.5,-55 247.5,-55 247.5,-74"/>
<text text-anchor="middle" x="222.5" y="-62" font-family="Helvetica,sans-Serif" font-size="10.00">chrono</text>
</a>
</g>
</g>
<!-- Node7&#45;&gt;Node8 -->
<g id="edge8_Node000007_Node000008" class="edge">
<title>Node7&#45;&gt;Node8</title>
<g id="a_edge8_Node000007_Node000008"><a xlink:title=" ">
<path fill="none" stroke="#63b8ff" d="M358.38,-115.49C331.18,-105.49 285.83,-88.8 255.08,-77.49"/>
<polygon fill="#63b8ff" stroke="#63b8ff" points="256.24,-74.18 245.65,-74.02 253.82,-80.75 256.24,-74.18"/>
</a>
</g>
</g>
<!-- Node9 -->
<g id="Node000009" class="node">
<title>Node9</title>
<g id="a_Node000009"><a xlink:title=" ">
<polygon fill="#e0e0e0" stroke="#999999" points="321.5,-74 265.5,-74 265.5,-55 321.5,-55 321.5,-74"/>
<text text-anchor="middle" x="293.5" y="-62" font-family="Helvetica,sans-Serif" font-size="10.00">optional</text>
</a>
</g>
</g>
<!-- Node7&#45;&gt;Node9 -->
<g id="edge9_Node000007_Node000009" class="edge">
<title>Node7&#45;&gt;Node9</title>
<g id="a_edge9_Node000007_Node000009"><a xlink:title=" ">
<path fill="none" stroke="#63b8ff" d="M368.52,-115.37C354.48,-106.04 331.87,-91.01 315.14,-79.88"/>
<polygon fill="#63b8ff" stroke="#63b8ff" points="316.8,-76.79 306.54,-74.17 312.93,-82.62 316.8,-76.79"/>
</a>
</g>
</g>
<!-- Node10 -->
<g id="Node000010" class="node">
<title>Node10</title>
<g id="a_Node000010"><a xlink:href="small__string_8h.html" target="_top" xlink:title=" ">
<polygon fill="white" stroke="#666666" points="459,-74 340,-74 340,-55 459,-55 459,-74"/>
<text text-anchor="middle" x="399.5" y="-62" font-family="Helvetica,sans-Serif" font-size="10.00">../core/small_string.h</text>
</a>
</g>
</g>
<!-- Node7&#45;&gt;Node10 -->
<g id="edge10_Node000007_Node000010" class="edge">
<title>Node7&#45;&gt;Node10</title>
<g id="a_edge10_Node000007_Node000010"><a xlink:title=" ">
<path fill="none" stroke="#63b8ff" d="M384.16,-115.37C386.68,-107.16 390.56,-94.54 393.79,-84.05"/>
<polygon fill="#63b8ff" stroke="#63b8ff" points="397.24,-84.75 396.83,-74.17 390.55,-82.7 397.24,-84.75"/>
</a>
</g>
</g>
<!-- Node10&#45;&gt;Node6 -->
<g id="edge12_Node000010_Node000006" class="edge">
<title>Node10&#45;&gt;Node6</title>
<g id="a_edge12_Node000010_Node000006"><a xlink:title=" ">
<path fill="none" stroke="#63b8ff" d="M359.49,-54.98C310.26,-44.51 227.66,-26.92 182.45,-17.3"/>
<polygon fill="#63b8ff" stroke="#63b8ff" points="183.11,-13.86 172.6,-15.2 181.65,-20.71 183.11,-13.86"/>
</a>
</g>
</g>
<!-- Node11 -->
<g id="Node000011" class="node">
<title>Node11</title>
<g id="a_Node000011"><a xlink:title=" ">
<polygon fill="#e0e0e0" stroke="#999999" points="490.5,-19 440.5,-19 440.5,0 490.5,0 490.5,-19"/>
<text text-anchor="middle" x="465.5" y="-7" font-family="Helvetica,sans-Serif" font-size="10.00">cstring</text>
</a>
</g>
</g>
<!-- Node10&#45;&gt;Node11 -->
<g id="edge11_Node000010_Node000011" class="edge">
<title>Node10&#45;&gt;Node11</title>
<g id="a_edge11_Node000010_Node000011"><a xlink:title=" ">
<path fill="none" stroke="#63b8ff" d="M410.1,-54.98C419.96,-47.07 434.85,-35.11 446.72,-25.58"/>
<polygon fill="#63b8ff" stroke="#63b8ff" points="449.1,-28.16 454.7,-19.17 444.71,-22.7 449.1,-28.16"/>
</a>
</g>
</g>
<!-- Node12 -->
<g id="Node000012" class="node">
<title>Node12</title>
<g id="a_Node000012"><a xlink:title=" ">
<polygon fill="#e0e0e0" stroke="#999999" points="359,-19 286,-19 286,0 359,0 359,-19"/>
<text text-anchor="middle" x="322.5" y="-7" font-family="Helvetica,sans-Serif" font-size="10.00">string_view</text>
</a>
</g>
</g>
<!-- Node10&#45;&gt;Node12 -->
<g id="edge13_Node000010_Node000012" class="edge">
<title>Node10&#45;&gt;Node12</title>
<g id="a_edge13_Node000010_Node000012"><a xlink:title=" ">
<path fill="none" stroke="#63b8ff" d="M387.13,-54.98C375.41,-46.92 357.58,-34.65 343.61,-25.03"/>
<polygon fill="#63b8ff" stroke="#63b8ff" points="345.32,-21.96 335.1,-19.17 341.35,-27.72 345.32,-21.96"/>
</a>
</g>
</g>
<!-- Node10&#45;&gt;Node13 -->
<g id="edge14_Node000010_Node000013" class="edge">
<title>Node10&#45;&gt;Node13</title>
<g id="a_edge14_Node000010_Node000013"><a xlink:title=" ">
<path fill="none" stroke="#63b8ff" d="M459.03,-55.61C517.12,-47.69 608.22,-34.67 696.4,-19.11"/>
<polygon fill="#63b8ff" stroke="#63b8ff" points="697.07,-22.55 706.3,-17.35 695.85,-15.66 697.07,-22.55"/>
</a>
</g>
</g>
<!-- Node10&#45;&gt;Node14 -->
<g id="edge15_Node000010_Node000014" class="edge">
<title>Node10&#45;&gt;Node14</title>
<g id="a_edge15_Node000010_Node000014"><a xlink:title=" ">
<path fill="none" stroke="#63b8ff" d="M441.27,-54.98C490.62,-44.93 572.08,-28.32 620.29,-18.49"/>
<polygon fill="#63b8ff" stroke="#63b8ff" points="621.24,-21.87 630.34,-16.45 619.84,-15.01 621.24,-21.87"/>
</a>
</g>
</g>
<!-- Node15 -->
<g id="Node000015" class="node">
<title>Node15</title>
<g id="a_Node000015"><a xlink:title=" ">
<polygon fill="#e0e0e0" stroke="#999999" points="422,-19 377,-19 377,0 422,0 422,-19"/>
<text text-anchor="middle" x="399.5" y="-7" font-family="Helvetica,sans-Serif" font-size="10.00">utility</text>
</a>
</g>
</g>
<!-- Node10&#45;&gt;Node15 -->
<g id="edge16_Node000010_Node000015" class="edge">
<title>Node10&#45;&gt;Node15</title>
<g id="a_edge16_Node000010_Node000015"><a xlink:title=" ">
<path fill="none" stroke="#63b8ff" d="M399.5,-54.75C399.5,-47.8 399.5,-37.85 399.5,-29.13"/>
<polygon fill="#63b8ff" stroke="#63b8ff" points="403,-29.09 399.5,-19.09 396,-29.09 403,-29.09"/>
</a>
</g>
</g>
</g>
</svg>
