<?xml version="1.0" encoding="UTF-8" standalone="no"?>
<!DOCTYPE svg PUBLIC "-//W3C//DTD SVG 1.1//EN"
 "http://www.w3.org/Graphics/SVG/1.1/DTD/svg11.dtd">
<!-- Generated by graphviz version 2.43.0 (0)
 -->
<!-- Title: log_sanitizer.cpp Pages: 1 -->
<svg width="948pt" height="313pt"
 viewBox="0.00 0.00 948.10 313.00" xmlns="http://www.w3.org/2000/svg" xmlns:xlink="http://www.w3.org/1999/xlink">
<g id="graph0" class="graph" transform="scale(1 1) rotate(0) translate(4 309)">
<title>log_sanitizer.cpp</title>
<!-- Node1 -->
<g id="Node000001" class="node">
<title>Node1</title>
<g id="a_Node000001"><a xlink:title=" ">
<polygon fill="#999999" stroke="#666666" points="686.6,-305 588.6,-305 588.6,-286 686.6,-286 686.6,-305"/>
<text text-anchor="middle" x="637.6" y="-293" font-family="Helvetica,sans-Serif" font-size="10.00">log_sanitizer.cpp</text>
</a>
</g>
</g>
<!-- Node2 -->
<g id="Node000002" class="node">
<title>Node2</title>
<g id="a_Node000002"><a xlink:href="log__sanitizer_8h.html" target="_top" xlink:title=" ">
<polygon fill="white" stroke="#666666" points="455.1,-250 368.1,-250 368.1,-231 455.1,-231 455.1,-250"/>
<text text-anchor="middle" x="411.6" y="-238" font-family="Helvetica,sans-Serif" font-size="10.00">log_sanitizer.h</text>
</a>
</g>
</g>
<!-- Node1&#45;&gt;Node2 -->
<g id="edge1_Node000001_Node000002" class="edge">
<title>Node1&#45;&gt;Node2</title>
<g id="a_edge1_Node000001_Node000002"><a xlink:title=" ">
<path fill="none" stroke="#63b8ff" d="M601.29,-285.98C562.36,-276.86 500.44,-262.33 458,-252.38"/>
<polygon fill="#63b8ff" stroke="#63b8ff" points="458.73,-248.96 448.19,-250.08 457.13,-255.77 458.73,-248.96"/>
</a>
</g>
</g>
<!-- Node5 -->
<g id="Node000005" class="node">
<title>Node5</title>
<g id="a_Node000005"><a xlink:title=" ">
<polygon fill="#e0e0e0" stroke="#999999" points="477.6,-19 419.6,-19 419.6,0 477.6,0 477.6,-19"/>
<text text-anchor="middle" x="448.6" y="-7" font-family="Helvetica,sans-Serif" font-size="10.00">memory</text>
</a>
</g>
</g>
<!-- Node1&#45;&gt;Node5 -->
<g id="edge27_Node000001_Node000005" class="edge">
<title>Node1&#45;&gt;Node5</title>
<g id="a_edge27_Node000001_Node000005"><a xlink:title=" ">
<path fill="none" stroke="#63b8ff" d="M632.31,-285.9C621.87,-268.07 599.6,-225.46 599.6,-186.5 599.6,-186.5 599.6,-186.5 599.6,-129.5 599.6,-72.4 532.17,-38.48 487.43,-22.25"/>
<polygon fill="#63b8ff" stroke="#63b8ff" points="488.31,-18.85 477.71,-18.87 486.01,-25.46 488.31,-18.85"/>
</a>
</g>
</g>
<!-- Node6 -->
<g id="Node000006" class="node">
<title>Node6</title>
<g id="a_Node000006"><a xlink:title=" ">
<polygon fill="#e0e0e0" stroke="#999999" points="582.6,-19 534.6,-19 534.6,0 582.6,0 582.6,-19"/>
<text text-anchor="middle" x="558.6" y="-7" font-family="Helvetica,sans-Serif" font-size="10.00">mutex</text>
</a>
</g>
</g>
<!-- Node1&#45;&gt;Node6 -->
<g id="edge24_Node000001_Node000006" class="edge">
<title>Node1&#45;&gt;Node6</title>
<g id="a_edge24_Node000001_Node000006"><a xlink:title=" ">
<path fill="none" stroke="#63b8ff" d="M637.6,-285.82C637.6,-267.48 637.6,-223.44 637.6,-186.5 637.6,-186.5 637.6,-186.5 637.6,-129.5 637.6,-94.71 633.27,-83.69 613.6,-55 605.38,-43.01 593,-32.6 582.07,-24.86"/>
<polygon fill="#63b8ff" stroke="#63b8ff" points="583.97,-21.92 573.72,-19.25 580.07,-27.74 583.97,-21.92"/>
</a>
</g>
</g>
<!-- Node12 -->
<g id="Node000012" class="node">
<title>Node12</title>
<g id="a_Node000012"><a xlink:title=" ">
<polygon fill="#e0e0e0" stroke="#999999" points="553.6,-140 509.6,-140 509.6,-121 553.6,-121 553.6,-140"/>
<text text-anchor="middle" x="531.6" y="-128" font-family="Helvetica,sans-Serif" font-size="10.00">regex</text>
</a>
</g>
</g>
<!-- Node1&#45;&gt;Node12 -->
<g id="edge23_Node000001_Node000012" class="edge">
<title>Node1&#45;&gt;Node12</title>
<g id="a_edge23_Node000001_Node000012"><a xlink:title=" ">
<path fill="none" stroke="#63b8ff" d="M624.65,-285.9C613.18,-277.75 596.6,-264.62 585.6,-250 561.78,-218.36 545.27,-174.54 537.22,-150.02"/>
<polygon fill="#63b8ff" stroke="#63b8ff" points="540.48,-148.7 534.13,-140.22 533.81,-150.81 540.48,-148.7"/>
</a>
</g>
</g>
<!-- Node14 -->
<g id="Node000014" class="node">
<title>Node14</title>
<g id="a_Node000014"><a xlink:title=" ">
<polygon fill="#e0e0e0" stroke="#999999" points="533.1,-195 440.1,-195 440.1,-176 533.1,-176 533.1,-195"/>
<text text-anchor="middle" x="486.6" y="-183" font-family="Helvetica,sans-Serif" font-size="10.00">unordered_map</text>
</a>
</g>
</g>
<!-- Node1&#45;&gt;Node14 -->
<g id="edge26_Node000001_Node000014" class="edge">
<title>Node1&#45;&gt;Node14</title>
<g id="a_edge26_Node000001_Node000014"><a xlink:title=" ">
<path fill="none" stroke="#63b8ff" d="M614.93,-285.88C595.96,-278.07 568.69,-265.45 547.6,-250 529.19,-236.51 511.5,-217.16 499.96,-203.37"/>
<polygon fill="#63b8ff" stroke="#63b8ff" points="502.35,-200.76 493.32,-195.23 496.93,-205.19 502.35,-200.76"/>
</a>
</g>
</g>
<!-- Node15 -->
<g id="Node000015" class="node">
<title>Node15</title>
<g id="a_Node000015"><a xlink:title=" ">
<polygon fill="#e0e0e0" stroke="#999999" points="729.6,-250 665.6,-250 665.6,-231 729.6,-231 729.6,-250"/>
<text text-anchor="middle" x="697.6" y="-238" font-family="Helvetica,sans-Serif" font-size="10.00">algorithm</text>
</a>
</g>
</g>
<!-- Node1&#45;&gt;Node15 -->
<g id="edge21_Node000001_Node000015" class="edge">
<title>Node1&#45;&gt;Node15</title>
<g id="a_edge21_Node000001_Node000015"><a xlink:title=" ">
<path fill="none" stroke="#63b8ff" d="M647.24,-285.98C656.11,-278.15 669.47,-266.34 680.21,-256.86"/>
<polygon fill="#63b8ff" stroke="#63b8ff" points="682.6,-259.41 687.78,-250.17 677.97,-254.17 682.6,-259.41"/>
</a>
</g>
</g>
<!-- Node16 -->
<g id="Node000016" class="node">
<title>Node16</title>
<g id="a_Node000016"><a xlink:title=" ">
<polygon fill="#e0e0e0" stroke="#999999" points="807.6,-250 747.6,-250 747.6,-231 807.6,-231 807.6,-250"/>
<text text-anchor="middle" x="777.6" y="-238" font-family="Helvetica,sans-Serif" font-size="10.00">iostream</text>
</a>
</g>
</g>
<!-- Node1&#45;&gt;Node16 -->
<g id="edge22_Node000001_Node000016" class="edge">
<title>Node1&#45;&gt;Node16</title>
<g id="a_edge22_Node000001_Node000016"><a xlink:title=" ">
<path fill="none" stroke="#63b8ff" d="M660.09,-285.98C683.12,-277.27 719.14,-263.63 745.23,-253.75"/>
<polygon fill="#63b8ff" stroke="#63b8ff" points="746.58,-256.98 754.69,-250.17 744.1,-250.44 746.58,-256.98"/>
</a>
</g>
</g>
<!-- Node17 -->
<g id="Node000017" class="node">
<title>Node17</title>
<g id="a_Node000017"><a xlink:title=" ">
<polygon fill="#e0e0e0" stroke="#999999" points="873.1,-250 826.1,-250 826.1,-231 873.1,-231 873.1,-250"/>
<text text-anchor="middle" x="849.6" y="-238" font-family="Helvetica,sans-Serif" font-size="10.00">vector</text>
</a>
</g>
</g>
<!-- Node1&#45;&gt;Node17 -->
<g id="edge25_Node000001_Node000017" class="edge">
<title>Node1&#45;&gt;Node17</title>
<g id="a_edge25_Node000001_Node000017"><a xlink:title=" ">
<path fill="none" stroke="#63b8ff" d="M672.27,-285.97C706.37,-277.56 760.17,-264.25 816.09,-250.11"/>
<polygon fill="#63b8ff" stroke="#63b8ff" points="816.97,-253.5 825.81,-247.65 815.26,-246.71 816.97,-253.5"/>
</a>
</g>
</g>
<!-- Node18 -->
<g id="Node000018" class="node">
<title>Node18</title>
<g id="a_Node000018"><a xlink:title=" ">
<polygon fill="#e0e0e0" stroke="#999999" points="940.1,-250 891.1,-250 891.1,-231 940.1,-231 940.1,-250"/>
<text text-anchor="middle" x="915.6" y="-238" font-family="Helvetica,sans-Serif" font-size="10.00">cctype</text>
</a>
</g>
</g>
<!-- Node1&#45;&gt;Node18 -->
<g id="edge28_Node000001_Node000018" class="edge">
<title>Node1&#45;&gt;Node18</title>
<g id="a_edge28_Node000001_Node000018"><a xlink:title=" ">
<path fill="none" stroke="#63b8ff" d="M686.61,-286.67C734.09,-278.85 808.32,-265.98 881,-250.24"/>
<polygon fill="#63b8ff" stroke="#63b8ff" points="881.76,-253.65 890.78,-248.1 880.26,-246.82 881.76,-253.65"/>
</a>
</g>
</g>
<!-- Node3 -->
<g id="Node000003" class="node">
<title>Node3</title>
<g id="a_Node000003"><a xlink:href="log__filter_8h.html" target="_top" xlink:title=" ">
<polygon fill="white" stroke="#666666" points="345.1,-195 238.1,-195 238.1,-176 345.1,-176 345.1,-195"/>
<text text-anchor="middle" x="291.6" y="-183" font-family="Helvetica,sans-Serif" font-size="10.00">../filters/log_filter.h</text>
</a>
</g>
</g>
<!-- Node2&#45;&gt;Node3 -->
<g id="edge2_Node000002_Node000003" class="edge">
<title>Node2&#45;&gt;Node3</title>
<g id="a_edge2_Node000002_Node000003"><a xlink:title=" ">
<path fill="none" stroke="#63b8ff" d="M392.32,-230.98C372.93,-222.42 342.79,-209.11 320.53,-199.28"/>
<polygon fill="#63b8ff" stroke="#63b8ff" points="321.79,-196.01 311.23,-195.17 318.96,-202.41 321.79,-196.01"/>
</a>
</g>
</g>
<!-- Node2&#45;&gt;Node12 -->
<g id="edge18_Node000002_Node000012" class="edge">
<title>Node2&#45;&gt;Node12</title>
<g id="a_edge18_Node000002_Node000012"><a xlink:title=" ">
<path fill="none" stroke="#63b8ff" d="M411.97,-230.59C412.98,-217.17 416.74,-191.7 430.6,-176 440.21,-165.11 473.87,-151.51 499.72,-142.23"/>
<polygon fill="#63b8ff" stroke="#63b8ff" points="500.9,-145.52 509.17,-138.9 498.58,-138.92 500.9,-145.52"/>
</a>
</g>
</g>
<!-- Node13 -->
<g id="Node000013" class="node">
<title>Node13</title>
<g id="a_Node000013"><a xlink:title=" ">
<polygon fill="#e0e0e0" stroke="#999999" points="491.1,-140 426.1,-140 426.1,-121 491.1,-121 491.1,-140"/>
<text text-anchor="middle" x="458.6" y="-128" font-family="Helvetica,sans-Serif" font-size="10.00">functional</text>
</a>
</g>
</g>
<!-- Node2&#45;&gt;Node13 -->
<g id="edge20_Node000002_Node000013" class="edge">
<title>Node2&#45;&gt;Node13</title>
<g id="a_edge20_Node000002_Node000013"><a xlink:title=" ">
<path fill="none" stroke="#63b8ff" d="M406.19,-230.82C399.05,-218.15 388.39,-194.11 397.6,-176 404.37,-162.68 417.2,-152.41 429.35,-145.1"/>
<polygon fill="#63b8ff" stroke="#63b8ff" points="431.34,-147.99 438.4,-140.09 427.96,-141.87 431.34,-147.99"/>
</a>
</g>
</g>
<!-- Node2&#45;&gt;Node14 -->
<g id="edge19_Node000002_Node000014" class="edge">
<title>Node2&#45;&gt;Node14</title>
<g id="a_edge19_Node000002_Node000014"><a xlink:title=" ">
<path fill="none" stroke="#63b8ff" d="M423.65,-230.98C435.06,-222.92 452.43,-210.65 466.03,-201.03"/>
<polygon fill="#63b8ff" stroke="#63b8ff" points="468.18,-203.8 474.33,-195.17 464.14,-198.08 468.18,-203.8"/>
</a>
</g>
</g>
<!-- Node4 -->
<g id="Node000004" class="node">
<title>Node4</title>
<g id="a_Node000004"><a xlink:href="logger__interface_8h.html" target="_top" xlink:title=" ">
<polygon fill="white" stroke="#666666" points="420.6,-79.5 306.6,-79.5 306.6,-60.5 420.6,-60.5 420.6,-79.5"/>
<text text-anchor="middle" x="363.6" y="-67.5" font-family="Helvetica,sans-Serif" font-size="10.00">../logger_interface.h</text>
</a>
</g>
</g>
<!-- Node3&#45;&gt;Node4 -->
<g id="edge3_Node000003_Node000004" class="edge">
<title>Node3&#45;&gt;Node4</title>
<g id="a_edge3_Node000003_Node000004"><a xlink:title=" ">
<path fill="none" stroke="#63b8ff" d="M297.01,-175.97C308.79,-157.4 336.95,-113.01 352.61,-88.32"/>
<polygon fill="#63b8ff" stroke="#63b8ff" points="355.72,-89.95 358.12,-79.63 349.81,-86.2 355.72,-89.95"/>
</a>
</g>
</g>
<!-- Node3&#45;&gt;Node5 -->
<g id="edge16_Node000003_Node000005" class="edge">
<title>Node3&#45;&gt;Node5</title>
<g id="a_edge16_Node000003_Node000005"><a xlink:title=" ">
<path fill="none" stroke="#63b8ff" d="M310.95,-175.97C341.1,-161.67 399,-129.92 429.6,-85 440.96,-68.31 445.53,-45.33 447.37,-29.32"/>
<polygon fill="#63b8ff" stroke="#63b8ff" points="450.88,-29.36 448.28,-19.09 443.9,-28.74 450.88,-29.36"/>
</a>
</g>
</g>
<!-- Node7 -->
<g id="Node000007" class="node">
<title>Node7</title>
<g id="a_Node000007"><a xlink:title=" ">
<polygon fill="#e0e0e0" stroke="#999999" points="135.6,-19 91.6,-19 91.6,0 135.6,0 135.6,-19"/>
<text text-anchor="middle" x="113.6" y="-7" font-family="Helvetica,sans-Serif" font-size="10.00">string</text>
</a>
</g>
</g>
<!-- Node3&#45;&gt;Node7 -->
<g id="edge14_Node000003_Node000007" class="edge">
<title>Node3&#45;&gt;Node7</title>
<g id="a_edge14_Node000003_Node000007"><a xlink:title=" ">
<path fill="none" stroke="#63b8ff" d="M237.94,-179.47C175.94,-172.84 78.47,-159.66 47.6,-140 12.54,-117.67 -14.35,-89.65 8.6,-55 24.67,-30.74 56.9,-19.66 81.44,-14.64"/>
<polygon fill="#63b8ff" stroke="#63b8ff" points="82.2,-18.05 91.42,-12.83 80.95,-11.17 82.2,-18.05"/>
</a>
</g>
</g>
<!-- Node8 -->
<g id="Node000008" class="node">
<title>Node8</title>
<g id="a_Node000008"><a xlink:href="log__filter__interface_8h.html" target="_top" xlink:title=" ">
<polygon fill="white" stroke="#666666" points="288.6,-85 168.6,-85 168.6,-55 288.6,-55 288.6,-85"/>
<text text-anchor="start" x="176.6" y="-73" font-family="Helvetica,sans-Serif" font-size="10.00">../interfaces/log_filter</text>
<text text-anchor="middle" x="228.6" y="-62" font-family="Helvetica,sans-Serif" font-size="10.00">_interface.h</text>
</a>
</g>
</g>
<!-- Node3&#45;&gt;Node8 -->
<g id="edge7_Node000003_Node000008" class="edge">
<title>Node3&#45;&gt;Node8</title>
<g id="a_edge7_Node000003_Node000008"><a xlink:title=" ">
<path fill="none" stroke="#63b8ff" d="M286.86,-175.97C277.32,-158.78 255.5,-119.47 241.44,-94.13"/>
<polygon fill="#63b8ff" stroke="#63b8ff" points="244.38,-92.23 236.47,-85.18 238.26,-95.62 244.38,-92.23"/>
</a>
</g>
</g>
<!-- Node9 -->
<g id="Node000009" class="node">
<title>Node9</title>
<g id="a_Node000009"><a xlink:href="log__entry_8h.html" target="_top" xlink:title=" ">
<polygon fill="white" stroke="#666666" points="188.1,-140 57.1,-140 57.1,-121 188.1,-121 188.1,-140"/>
<text text-anchor="middle" x="122.6" y="-128" font-family="Helvetica,sans-Serif" font-size="10.00">../interfaces/log_entry.h</text>
</a>
</g>
</g>
<!-- Node3&#45;&gt;Node9 -->
<g id="edge9_Node000003_Node000009" class="edge">
<title>Node3&#45;&gt;Node9</title>
<g id="a_edge9_Node000003_Node000009"><a xlink:title=" ">
<path fill="none" stroke="#63b8ff" d="M264.44,-175.98C236.07,-167.09 191.37,-153.07 159.74,-143.15"/>
<polygon fill="#63b8ff" stroke="#63b8ff" points="160.55,-139.73 149.96,-140.08 158.46,-146.41 160.55,-139.73"/>
</a>
</g>
</g>
<!-- Node3&#45;&gt;Node12 -->
<g id="edge15_Node000003_Node000012" class="edge">
<title>Node3&#45;&gt;Node12</title>
<g id="a_edge15_Node000003_Node000012"><a xlink:title=" ">
<path fill="none" stroke="#63b8ff" d="M335.4,-175.94C375.65,-167.9 437.18,-155.19 499.31,-140.21"/>
<polygon fill="#63b8ff" stroke="#63b8ff" points="500.4,-143.55 509.29,-137.78 498.74,-136.74 500.4,-143.55"/>
</a>
</g>
</g>
<!-- Node3&#45;&gt;Node13 -->
<g id="edge17_Node000003_Node000013" class="edge">
<title>Node3&#45;&gt;Node13</title>
<g id="a_edge17_Node000003_Node000013"><a xlink:title=" ">
<path fill="none" stroke="#63b8ff" d="M318.43,-175.98C346.47,-167.09 390.64,-153.07 421.9,-143.15"/>
<polygon fill="#63b8ff" stroke="#63b8ff" points="423.08,-146.44 431.56,-140.08 420.97,-139.77 423.08,-146.44"/>
</a>
</g>
</g>
<!-- Node4&#45;&gt;Node5 -->
<g id="edge4_Node000004_Node000005" class="edge">
<title>Node4&#45;&gt;Node5</title>
<g id="a_edge4_Node000004_Node000005"><a xlink:title=" ">
<path fill="none" stroke="#63b8ff" d="M376.14,-60.37C389.7,-51.04 411.54,-36.01 427.7,-24.88"/>
<polygon fill="#63b8ff" stroke="#63b8ff" points="429.75,-27.72 436,-19.17 425.78,-21.95 429.75,-27.72"/>
</a>
</g>
</g>
<!-- Node4&#45;&gt;Node6 -->
<g id="edge5_Node000004_Node000006" class="edge">
<title>Node4&#45;&gt;Node6</title>
<g id="a_edge5_Node000004_Node000006"><a xlink:title=" ">
<path fill="none" stroke="#63b8ff" d="M391.95,-60.49C427.1,-49.95 486.94,-32 524.54,-20.72"/>
<polygon fill="#63b8ff" stroke="#63b8ff" points="525.94,-23.95 534.51,-17.73 523.93,-17.25 525.94,-23.95"/>
</a>
</g>
</g>
<!-- Node4&#45;&gt;Node7 -->
<g id="edge6_Node000004_Node000007" class="edge">
<title>Node4&#45;&gt;Node7</title>
<g id="a_edge6_Node000004_Node000007"><a xlink:title=" ">
<path fill="none" stroke="#63b8ff" d="M327.25,-60.49C278.4,-49.06 192.33,-28.92 145.74,-18.02"/>
<polygon fill="#63b8ff" stroke="#63b8ff" points="146.41,-14.58 135.88,-15.71 144.82,-21.4 146.41,-14.58"/>
</a>
</g>
</g>
<!-- Node8&#45;&gt;Node7 -->
<g id="edge8_Node000008_Node000007" class="edge">
<title>Node8&#45;&gt;Node7</title>
<g id="a_edge8_Node000008_Node000007"><a xlink:title=" ">
<path fill="none" stroke="#63b8ff" d="M201.05,-54.99C182.38,-45.49 157.86,-33.02 139.53,-23.69"/>
<polygon fill="#63b8ff" stroke="#63b8ff" points="141.08,-20.55 130.58,-19.14 137.91,-26.79 141.08,-20.55"/>
</a>
</g>
</g>
<!-- Node9&#45;&gt;Node4 -->
<g id="edge13_Node000009_Node000004" class="edge">
<title>Node9&#45;&gt;Node4</title>
<g id="a_edge13_Node000009_Node000004"><a xlink:title=" ">
<path fill="none" stroke="#63b8ff" d="M157.64,-120.99C200.21,-110.66 272.09,-93.21 318.69,-81.9"/>
<polygon fill="#63b8ff" stroke="#63b8ff" points="319.62,-85.28 328.51,-79.52 317.97,-78.47 319.62,-85.28"/>
</a>
</g>
</g>
<!-- Node9&#45;&gt;Node7 -->
<g id="edge10_Node000009_Node000007" class="edge">
<title>Node9&#45;&gt;Node7</title>
<g id="a_edge10_Node000009_Node000007"><a xlink:title=" ">
<path fill="none" stroke="#63b8ff" d="M73.02,-120.98C52.25,-114.7 30.06,-103.82 17.6,-85 10.24,-73.88 10.42,-66.24 17.6,-55 31.6,-33.08 59.47,-21.8 81.6,-16.09"/>
<polygon fill="#63b8ff" stroke="#63b8ff" points="82.64,-19.44 91.6,-13.77 81.06,-12.62 82.64,-19.44"/>
</a>
</g>
</g>
<!-- Node10 -->
<g id="Node000010" class="node">
<title>Node10</title>
<g id="a_Node000010"><a xlink:title=" ">
<polygon fill="#e0e0e0" stroke="#999999" points="76.6,-79.5 26.6,-79.5 26.6,-60.5 76.6,-60.5 76.6,-79.5"/>
<text text-anchor="middle" x="51.6" y="-67.5" font-family="Helvetica,sans-Serif" font-size="10.00">chrono</text>
</a>
</g>
</g>
<!-- Node9&#45;&gt;Node10 -->
<g id="edge11_Node000009_Node000010" class="edge">
<title>Node9&#45;&gt;Node10</title>
<g id="a_edge11_Node000009_Node000010"><a xlink:title=" ">
<path fill="none" stroke="#63b8ff" d="M112.12,-120.87C101.11,-111.8 83.56,-97.34 70.19,-86.32"/>
<polygon fill="#63b8ff" stroke="#63b8ff" points="72.06,-83.33 62.12,-79.67 67.61,-88.73 72.06,-83.33"/>
</a>
</g>
</g>
<!-- Node11 -->
<g id="Node000011" class="node">
<title>Node11</title>
<g id="a_Node000011"><a xlink:title=" ">
<polygon fill="#e0e0e0" stroke="#999999" points="150.6,-79.5 94.6,-79.5 94.6,-60.5 150.6,-60.5 150.6,-79.5"/>
<text text-anchor="middle" x="122.6" y="-67.5" font-family="Helvetica,sans-Serif" font-size="10.00">optional</text>
</a>
</g>
</g>
<!-- Node9&#45;&gt;Node11 -->
<g id="edge12_Node000009_Node000011" class="edge">
<title>Node9&#45;&gt;Node11</title>
<g id="a_edge12_Node000009_Node000011"><a xlink:title=" ">
<path fill="none" stroke="#63b8ff" d="M122.6,-120.87C122.6,-112.75 122.6,-100.31 122.6,-89.89"/>
<polygon fill="#63b8ff" stroke="#63b8ff" points="126.1,-89.67 122.6,-79.67 119.1,-89.67 126.1,-89.67"/>
</a>
</g>
</g>
</g>
</svg>
