<?xml version="1.0" encoding="UTF-8" standalone="no"?>
<!DOCTYPE svg PUBLIC "-//W3C//DTD SVG 1.1//EN"
 "http://www.w3.org/Graphics/SVG/1.1/DTD/svg11.dtd">
<!-- Generated by graphviz version 2.43.0 (0)
 -->
<!-- Title: /home/runner/work/logger_system/logger_system/sources/logger/server/log_server.cpp Pages: 1 -->
<svg width="1205pt" height="159pt"
 viewBox="0.00 0.00 1205.00 159.00" xmlns="http://www.w3.org/2000/svg" xmlns:xlink="http://www.w3.org/1999/xlink">
<g id="graph0" class="graph" transform="scale(1 1) rotate(0) translate(4 155)">
<title>/home/runner/work/logger_system/logger_system/sources/logger/server/log_server.cpp</title>
<!-- Node1 -->
<g id="Node000001" class="node">
<title>Node1</title>
<g id="a_Node000001"><a xlink:title=" ">
<polygon fill="#999999" stroke="#666666" points="653.5,-151 480.5,-151 480.5,-110 653.5,-110 653.5,-151"/>
<text text-anchor="start" x="488.5" y="-139" font-family="Helvetica,sans-Serif" font-size="10.00">/home/runner/work/logger</text>
<text text-anchor="start" x="488.5" y="-128" font-family="Helvetica,sans-Serif" font-size="10.00">_system/logger_system/sources</text>
<text text-anchor="middle" x="567" y="-117" font-family="Helvetica,sans-Serif" font-size="10.00">/logger/server/log_server.cpp</text>
</a>
</g>
</g>
<!-- Node2 -->
<g id="Node000002" class="node">
<title>Node2</title>
<g id="a_Node000002"><a xlink:href="log__server_8h.html" target="_top" xlink:title=" ">
<polygon fill="white" stroke="#666666" points="303,-74 227,-74 227,-55 303,-55 303,-74"/>
<text text-anchor="middle" x="265" y="-62" font-family="Helvetica,sans-Serif" font-size="10.00">log_server.h</text>
</a>
</g>
</g>
<!-- Node1&#45;&gt;Node2 -->
<g id="edge1_Node000001_Node000002" class="edge">
<title>Node1&#45;&gt;Node2</title>
<g id="a_edge1_Node000001_Node000002"><a xlink:title=" ">
<path fill="none" stroke="#63b8ff" d="M480.46,-111.16C426.13,-99.65 358.09,-85.23 313.17,-75.71"/>
<polygon fill="#63b8ff" stroke="#63b8ff" points="313.62,-72.23 303.11,-73.58 312.17,-79.07 313.62,-72.23"/>
</a>
</g>
</g>
<!-- Node3 -->
<g id="Node000003" class="node">
<title>Node3</title>
<g id="a_Node000003"><a xlink:title=" ">
<polygon fill="#e0e0e0" stroke="#999999" points="48,-19 0,-19 0,0 48,0 48,-19"/>
<text text-anchor="middle" x="24" y="-7" font-family="Helvetica,sans-Serif" font-size="10.00">thread</text>
</a>
</g>
</g>
<!-- Node1&#45;&gt;Node3 -->
<g id="edge18_Node000001_Node000003" class="edge">
<title>Node1&#45;&gt;Node3</title>
<g id="a_edge18_Node000001_Node000003"><a xlink:title=" ">
<path fill="none" stroke="#63b8ff" d="M480.32,-126.5C394.49,-121.56 260.16,-108.51 149,-74 110.83,-62.15 70.2,-39.38 45.97,-24.57"/>
<polygon fill="#63b8ff" stroke="#63b8ff" points="47.57,-21.44 37.23,-19.14 43.87,-27.39 47.57,-21.44"/>
</a>
</g>
</g>
<!-- Node4 -->
<g id="Node000004" class="node">
<title>Node4</title>
<g id="a_Node000004"><a xlink:title=" ">
<polygon fill="#e0e0e0" stroke="#999999" points="116,-19 66,-19 66,0 116,0 116,-19"/>
<text text-anchor="middle" x="91" y="-7" font-family="Helvetica,sans-Serif" font-size="10.00">atomic</text>
</a>
</g>
</g>
<!-- Node1&#45;&gt;Node4 -->
<g id="edge19_Node000001_Node000004" class="edge">
<title>Node1&#45;&gt;Node4</title>
<g id="a_edge19_Node000001_Node000004"><a xlink:title=" ">
<path fill="none" stroke="#63b8ff" d="M480.2,-127.08C402.08,-122.51 285.26,-109.66 190,-74 159.29,-62.5 128.16,-40.45 109.21,-25.6"/>
<polygon fill="#63b8ff" stroke="#63b8ff" points="111.17,-22.68 101.18,-19.16 106.79,-28.15 111.17,-22.68"/>
</a>
</g>
</g>
<!-- Node5 -->
<g id="Node000005" class="node">
<title>Node5</title>
<g id="a_Node000005"><a xlink:title=" ">
<polygon fill="#e0e0e0" stroke="#999999" points="181.5,-19 134.5,-19 134.5,0 181.5,0 181.5,-19"/>
<text text-anchor="middle" x="158" y="-7" font-family="Helvetica,sans-Serif" font-size="10.00">vector</text>
</a>
</g>
</g>
<!-- Node1&#45;&gt;Node5 -->
<g id="edge20_Node000001_Node000005" class="edge">
<title>Node1&#45;&gt;Node5</title>
<g id="a_edge20_Node000001_Node000005"><a xlink:title=" ">
<path fill="none" stroke="#63b8ff" d="M480.2,-122.13C392.01,-113.51 262.29,-97.38 218,-74 197.34,-63.09 179.82,-42.32 169.14,-27.51"/>
<polygon fill="#63b8ff" stroke="#63b8ff" points="171.97,-25.44 163.41,-19.19 166.2,-29.41 171.97,-25.44"/>
</a>
</g>
</g>
<!-- Node7 -->
<g id="Node000007" class="node">
<title>Node7</title>
<g id="a_Node000007"><a xlink:title=" ">
<polygon fill="#e0e0e0" stroke="#999999" points="409.5,-19 344.5,-19 344.5,0 409.5,0 409.5,-19"/>
<text text-anchor="middle" x="377" y="-7" font-family="Helvetica,sans-Serif" font-size="10.00">functional</text>
</a>
</g>
</g>
<!-- Node1&#45;&gt;Node7 -->
<g id="edge23_Node000001_Node000007" class="edge">
<title>Node1&#45;&gt;Node7</title>
<g id="a_edge23_Node000001_Node000007"><a xlink:title=" ">
<path fill="none" stroke="#63b8ff" d="M480.43,-111.18C455.99,-102.87 430.72,-90.97 411,-74 397.1,-62.04 387.97,-42.95 382.7,-28.82"/>
<polygon fill="#63b8ff" stroke="#63b8ff" points="385.96,-27.52 379.42,-19.18 379.33,-29.78 385.96,-27.52"/>
</a>
</g>
</g>
<!-- Node8 -->
<g id="Node000008" class="node">
<title>Node8</title>
<g id="a_Node000008"><a xlink:title=" ">
<polygon fill="#e0e0e0" stroke="#999999" points="520.5,-19 427.5,-19 427.5,0 520.5,0 520.5,-19"/>
<text text-anchor="middle" x="474" y="-7" font-family="Helvetica,sans-Serif" font-size="10.00">unordered_map</text>
</a>
</g>
</g>
<!-- Node1&#45;&gt;Node8 -->
<g id="edge24_Node000001_Node000008" class="edge">
<title>Node1&#45;&gt;Node8</title>
<g id="a_edge24_Node000001_Node000008"><a xlink:title=" ">
<path fill="none" stroke="#63b8ff" d="M480.31,-115.9C456.54,-107.75 433.38,-94.75 419,-74 406.32,-55.7 428.31,-36.65 448.14,-24.25"/>
<polygon fill="#63b8ff" stroke="#63b8ff" points="450.12,-27.14 456.96,-19.05 446.57,-21.11 450.12,-27.14"/>
</a>
</g>
</g>
<!-- Node9 -->
<g id="Node000009" class="node">
<title>Node9</title>
<g id="a_Node000009"><a xlink:title=" ">
<polygon fill="#e0e0e0" stroke="#999999" points="587,-19 539,-19 539,0 587,0 587,-19"/>
<text text-anchor="middle" x="563" y="-7" font-family="Helvetica,sans-Serif" font-size="10.00">mutex</text>
</a>
</g>
</g>
<!-- Node1&#45;&gt;Node9 -->
<g id="edge21_Node000001_Node000009" class="edge">
<title>Node1&#45;&gt;Node9</title>
<g id="a_edge21_Node000001_Node000009"><a xlink:title=" ">
<path fill="none" stroke="#63b8ff" d="M480.5,-113.19C459.58,-104.97 439.63,-92.6 427,-74 422.26,-67.01 422.04,-61.84 427,-55 433.19,-46.46 491.02,-29.67 529.25,-19.33"/>
<polygon fill="#63b8ff" stroke="#63b8ff" points="530.22,-22.69 538.98,-16.72 528.41,-15.93 530.22,-22.69"/>
</a>
</g>
</g>
<!-- Node11 -->
<g id="Node000011" class="node">
<title>Node11</title>
<g id="a_Node000011"><a xlink:title=" ">
<polygon fill="#e0e0e0" stroke="#999999" points="512.5,-74 435.5,-74 435.5,-55 512.5,-55 512.5,-74"/>
<text text-anchor="middle" x="474" y="-62" font-family="Helvetica,sans-Serif" font-size="10.00">sys/socket.h</text>
</a>
</g>
</g>
<!-- Node1&#45;&gt;Node11 -->
<g id="edge10_Node000001_Node000011" class="edge">
<title>Node1&#45;&gt;Node11</title>
<g id="a_edge10_Node000001_Node000011"><a xlink:title=" ">
<path fill="none" stroke="#63b8ff" d="M538.59,-109.95C524.66,-100.37 508.17,-89.02 495.34,-80.19"/>
<polygon fill="#63b8ff" stroke="#63b8ff" points="496.95,-77.05 486.73,-74.26 492.98,-82.81 496.95,-77.05"/>
</a>
</g>
</g>
<!-- Node12 -->
<g id="Node000012" class="node">
<title>Node12</title>
<g id="a_Node000012"><a xlink:title=" ">
<polygon fill="#e0e0e0" stroke="#999999" points="603,-74 531,-74 531,-55 603,-55 603,-74"/>
<text text-anchor="middle" x="567" y="-62" font-family="Helvetica,sans-Serif" font-size="10.00">netinet/in.h</text>
</a>
</g>
</g>
<!-- Node1&#45;&gt;Node12 -->
<g id="edge11_Node000001_Node000012" class="edge">
<title>Node1&#45;&gt;Node12</title>
<g id="a_edge11_Node000001_Node000012"><a xlink:title=" ">
<path fill="none" stroke="#63b8ff" d="M567,-109.95C567,-101.85 567,-92.5 567,-84.47"/>
<polygon fill="#63b8ff" stroke="#63b8ff" points="570.5,-84.26 567,-74.26 563.5,-84.26 570.5,-84.26"/>
</a>
</g>
</g>
<!-- Node13 -->
<g id="Node000013" class="node">
<title>Node13</title>
<g id="a_Node000013"><a xlink:title=" ">
<polygon fill="#e0e0e0" stroke="#999999" points="690.5,-74 621.5,-74 621.5,-55 690.5,-55 690.5,-74"/>
<text text-anchor="middle" x="656" y="-62" font-family="Helvetica,sans-Serif" font-size="10.00">arpa/inet.h</text>
</a>
</g>
</g>
<!-- Node1&#45;&gt;Node13 -->
<g id="edge12_Node000001_Node000013" class="edge">
<title>Node1&#45;&gt;Node13</title>
<g id="a_edge12_Node000001_Node000013"><a xlink:title=" ">
<path fill="none" stroke="#63b8ff" d="M594.19,-109.95C607.51,-100.37 623.3,-89.02 635.58,-80.19"/>
<polygon fill="#63b8ff" stroke="#63b8ff" points="637.74,-82.94 643.82,-74.26 633.66,-77.26 637.74,-82.94"/>
</a>
</g>
</g>
<!-- Node14 -->
<g id="Node000014" class="node">
<title>Node14</title>
<g id="a_Node000014"><a xlink:title=" ">
<polygon fill="#e0e0e0" stroke="#999999" points="765,-74 709,-74 709,-55 765,-55 765,-74"/>
<text text-anchor="middle" x="737" y="-62" font-family="Helvetica,sans-Serif" font-size="10.00">unistd.h</text>
</a>
</g>
</g>
<!-- Node1&#45;&gt;Node14 -->
<g id="edge13_Node000001_Node000014" class="edge">
<title>Node1&#45;&gt;Node14</title>
<g id="a_edge13_Node000001_Node000014"><a xlink:title=" ">
<path fill="none" stroke="#63b8ff" d="M618.93,-109.95C646.91,-99.42 680.55,-86.75 704.75,-77.64"/>
<polygon fill="#63b8ff" stroke="#63b8ff" points="706.05,-80.89 714.18,-74.09 703.59,-74.34 706.05,-80.89"/>
</a>
</g>
</g>
<!-- Node15 -->
<g id="Node000015" class="node">
<title>Node15</title>
<g id="a_Node000015"><a xlink:title=" ">
<polygon fill="#e0e0e0" stroke="#999999" points="833,-74 783,-74 783,-55 833,-55 833,-74"/>
<text text-anchor="middle" x="808" y="-62" font-family="Helvetica,sans-Serif" font-size="10.00">cstring</text>
</a>
</g>
</g>
<!-- Node1&#45;&gt;Node15 -->
<g id="edge14_Node000001_Node000015" class="edge">
<title>Node1&#45;&gt;Node15</title>
<g id="a_edge14_Node000001_Node000015"><a xlink:title=" ">
<path fill="none" stroke="#63b8ff" d="M640.62,-109.95C684.52,-98.29 738.27,-84.02 772.81,-74.84"/>
<polygon fill="#63b8ff" stroke="#63b8ff" points="774.12,-78.12 782.88,-72.17 772.32,-71.35 774.12,-78.12"/>
</a>
</g>
</g>
<!-- Node16 -->
<g id="Node000016" class="node">
<title>Node16</title>
<g id="a_Node000016"><a xlink:title=" ">
<polygon fill="#e0e0e0" stroke="#999999" points="911,-74 851,-74 851,-55 911,-55 911,-74"/>
<text text-anchor="middle" x="881" y="-62" font-family="Helvetica,sans-Serif" font-size="10.00">iostream</text>
</a>
</g>
</g>
<!-- Node1&#45;&gt;Node16 -->
<g id="edge15_Node000001_Node000016" class="edge">
<title>Node1&#45;&gt;Node16</title>
<g id="a_edge15_Node000001_Node000016"><a xlink:title=" ">
<path fill="none" stroke="#63b8ff" d="M653.77,-112.34C705.39,-102.05 772.45,-88.54 840.7,-74.25"/>
<polygon fill="#63b8ff" stroke="#63b8ff" points="841.71,-77.61 850.78,-72.14 840.27,-70.76 841.71,-77.61"/>
</a>
</g>
</g>
<!-- Node17 -->
<g id="Node000017" class="node">
<title>Node17</title>
<g id="a_Node000017"><a xlink:title=" ">
<polygon fill="#e0e0e0" stroke="#999999" points="985,-74 929,-74 929,-55 985,-55 985,-74"/>
<text text-anchor="middle" x="957" y="-62" font-family="Helvetica,sans-Serif" font-size="10.00">sstream</text>
</a>
</g>
</g>
<!-- Node1&#45;&gt;Node17 -->
<g id="edge16_Node000001_Node000017" class="edge">
<title>Node1&#45;&gt;Node17</title>
<g id="a_edge16_Node000001_Node000017"><a xlink:title=" ">
<path fill="none" stroke="#63b8ff" d="M653.61,-117.61C722.87,-107.69 822.66,-92.53 918.86,-74.11"/>
<polygon fill="#63b8ff" stroke="#63b8ff" points="919.61,-77.53 928.76,-72.2 918.28,-70.66 919.61,-77.53"/>
</a>
</g>
</g>
<!-- Node18 -->
<g id="Node000018" class="node">
<title>Node18</title>
<g id="a_Node000018"><a xlink:title=" ">
<polygon fill="#e0e0e0" stroke="#999999" points="1047,-74 1003,-74 1003,-55 1047,-55 1047,-74"/>
<text text-anchor="middle" x="1025" y="-62" font-family="Helvetica,sans-Serif" font-size="10.00">regex</text>
</a>
</g>
</g>
<!-- Node1&#45;&gt;Node18 -->
<g id="edge17_Node000001_Node000018" class="edge">
<title>Node1&#45;&gt;Node18</title>
<g id="a_edge17_Node000001_Node000018"><a xlink:title=" ">
<path fill="none" stroke="#63b8ff" d="M653.86,-121.77C738.26,-113.44 870.11,-98.29 992.79,-73.99"/>
<polygon fill="#63b8ff" stroke="#63b8ff" points="993.62,-77.4 1002.74,-72 992.24,-70.54 993.62,-77.4"/>
</a>
</g>
</g>
<!-- Node19 -->
<g id="Node000019" class="node">
<title>Node19</title>
<g id="a_Node000019"><a xlink:title=" ">
<polygon fill="#e0e0e0" stroke="#999999" points="1129,-74 1065,-74 1065,-55 1129,-55 1129,-74"/>
<text text-anchor="middle" x="1097" y="-62" font-family="Helvetica,sans-Serif" font-size="10.00">algorithm</text>
</a>
</g>
</g>
<!-- Node1&#45;&gt;Node19 -->
<g id="edge22_Node000001_Node000019" class="edge">
<title>Node1&#45;&gt;Node19</title>
<g id="a_edge22_Node000001_Node000019"><a xlink:title=" ">
<path fill="none" stroke="#63b8ff" d="M653.89,-122.06C749.72,-113.3 908.62,-97.16 1054.77,-74.06"/>
<polygon fill="#63b8ff" stroke="#63b8ff" points="1055.5,-77.49 1064.82,-72.46 1054.4,-70.58 1055.5,-77.49"/>
</a>
</g>
</g>
<!-- Node20 -->
<g id="Node000020" class="node">
<title>Node20</title>
<g id="a_Node000020"><a xlink:title=" ">
<polygon fill="#e0e0e0" stroke="#999999" points="1197,-74 1147,-74 1147,-55 1197,-55 1197,-74"/>
<text text-anchor="middle" x="1172" y="-62" font-family="Helvetica,sans-Serif" font-size="10.00">cstdint</text>
</a>
</g>
</g>
<!-- Node1&#45;&gt;Node20 -->
<g id="edge25_Node000001_Node000020" class="edge">
<title>Node1&#45;&gt;Node20</title>
<g id="a_edge25_Node000001_Node000020"><a xlink:title=" ">
<path fill="none" stroke="#63b8ff" d="M653.63,-125.08C763.89,-118.56 960.26,-103.95 1136.84,-73.95"/>
<polygon fill="#63b8ff" stroke="#63b8ff" points="1137.58,-77.38 1146.84,-72.23 1136.39,-70.48 1137.58,-77.38"/>
</a>
</g>
</g>
<!-- Node2&#45;&gt;Node3 -->
<g id="edge2_Node000002_Node000003" class="edge">
<title>Node2&#45;&gt;Node3</title>
<g id="a_edge2_Node000002_Node000003"><a xlink:title=" ">
<path fill="none" stroke="#63b8ff" d="M226.94,-55.85C187.19,-47.75 122.8,-34.33 58.09,-19.18"/>
<polygon fill="#63b8ff" stroke="#63b8ff" points="58.66,-15.72 48.12,-16.84 57.05,-22.53 58.66,-15.72"/>
</a>
</g>
</g>
<!-- Node2&#45;&gt;Node4 -->
<g id="edge3_Node000002_Node000004" class="edge">
<title>Node2&#45;&gt;Node4</title>
<g id="a_edge3_Node000002_Node000004"><a xlink:title=" ">
<path fill="none" stroke="#63b8ff" d="M237.04,-54.98C206.75,-45.76 158.36,-31.02 125.67,-21.06"/>
<polygon fill="#63b8ff" stroke="#63b8ff" points="126.65,-17.7 116.06,-18.13 124.61,-24.4 126.65,-17.7"/>
</a>
</g>
</g>
<!-- Node2&#45;&gt;Node5 -->
<g id="edge4_Node000002_Node000005" class="edge">
<title>Node2&#45;&gt;Node5</title>
<g id="a_edge4_Node000002_Node000005"><a xlink:title=" ">
<path fill="none" stroke="#63b8ff" d="M247.81,-54.98C230.75,-46.54 204.37,-33.47 184.6,-23.68"/>
<polygon fill="#63b8ff" stroke="#63b8ff" points="186.02,-20.47 175.5,-19.17 182.91,-26.75 186.02,-20.47"/>
</a>
</g>
</g>
<!-- Node6 -->
<g id="Node000006" class="node">
<title>Node6</title>
<g id="a_Node000006"><a xlink:title=" ">
<polygon fill="#e0e0e0" stroke="#999999" points="258,-19 200,-19 200,0 258,0 258,-19"/>
<text text-anchor="middle" x="229" y="-7" font-family="Helvetica,sans-Serif" font-size="10.00">memory</text>
</a>
</g>
</g>
<!-- Node2&#45;&gt;Node6 -->
<g id="edge5_Node000002_Node000006" class="edge">
<title>Node2&#45;&gt;Node6</title>
<g id="a_edge5_Node000002_Node000006"><a xlink:title=" ">
<path fill="none" stroke="#63b8ff" d="M259.06,-54.75C254.02,-47.34 246.66,-36.5 240.49,-27.41"/>
<polygon fill="#63b8ff" stroke="#63b8ff" points="243.35,-25.39 234.83,-19.09 237.56,-29.33 243.35,-25.39"/>
</a>
</g>
</g>
<!-- Node2&#45;&gt;Node7 -->
<g id="edge6_Node000002_Node000007" class="edge">
<title>Node2&#45;&gt;Node7</title>
<g id="a_edge6_Node000002_Node000007"><a xlink:title=" ">
<path fill="none" stroke="#63b8ff" d="M282.99,-54.98C300.93,-46.5 328.72,-33.35 349.43,-23.54"/>
<polygon fill="#63b8ff" stroke="#63b8ff" points="351.14,-26.61 358.68,-19.17 348.14,-20.28 351.14,-26.61"/>
</a>
</g>
</g>
<!-- Node2&#45;&gt;Node8 -->
<g id="edge7_Node000002_Node000008" class="edge">
<title>Node2&#45;&gt;Node8</title>
<g id="a_edge7_Node000002_Node000008"><a xlink:title=" ">
<path fill="none" stroke="#63b8ff" d="M298.58,-54.98C334.35,-45.91 391.12,-31.52 430.34,-21.57"/>
<polygon fill="#63b8ff" stroke="#63b8ff" points="431.32,-24.93 440.16,-19.08 429.6,-18.15 431.32,-24.93"/>
</a>
</g>
</g>
<!-- Node2&#45;&gt;Node9 -->
<g id="edge8_Node000002_Node000009" class="edge">
<title>Node2&#45;&gt;Node9</title>
<g id="a_edge8_Node000002_Node000009"><a xlink:title=" ">
<path fill="none" stroke="#63b8ff" d="M303.37,-58.11C353.17,-50.89 442.93,-37.08 528.98,-19.06"/>
<polygon fill="#63b8ff" stroke="#63b8ff" points="529.85,-22.46 538.91,-16.96 528.4,-15.61 529.85,-22.46"/>
</a>
</g>
</g>
<!-- Node10 -->
<g id="Node000010" class="node">
<title>Node10</title>
<g id="a_Node000010"><a xlink:title=" ">
<polygon fill="#e0e0e0" stroke="#999999" points="326,-19 276,-19 276,0 326,0 326,-19"/>
<text text-anchor="middle" x="301" y="-7" font-family="Helvetica,sans-Serif" font-size="10.00">chrono</text>
</a>
</g>
</g>
<!-- Node2&#45;&gt;Node10 -->
<g id="edge9_Node000002_Node000010" class="edge">
<title>Node2&#45;&gt;Node10</title>
<g id="a_edge9_Node000002_Node000010"><a xlink:title=" ">
<path fill="none" stroke="#63b8ff" d="M270.94,-54.75C275.98,-47.34 283.34,-36.5 289.51,-27.41"/>
<polygon fill="#63b8ff" stroke="#63b8ff" points="292.44,-29.33 295.17,-19.09 286.65,-25.39 292.44,-29.33"/>
</a>
</g>
</g>
</g>
</svg>
