<?xml version="1.0" encoding="UTF-8" standalone="no"?>
<!DOCTYPE svg PUBLIC "-//W3C//DTD SVG 1.1//EN"
 "http://www.w3.org/Graphics/SVG/1.1/DTD/svg11.dtd">
<!-- Generated by graphviz version 2.43.0 (0)
 -->
<!-- Title: log_router.h Pages: 1 -->
<svg width="821pt" height="269pt"
 viewBox="0.00 0.00 821.00 269.00" xmlns="http://www.w3.org/2000/svg" xmlns:xlink="http://www.w3.org/1999/xlink">
<g id="graph0" class="graph" transform="scale(1 1) rotate(0) translate(4 265)">
<title>log_router.h</title>
<!-- Node1 -->
<g id="Node000001" class="node">
<title>Node1</title>
<g id="a_Node000001"><a xlink:title=" ">
<polygon fill="#999999" stroke="#666666" points="558,-261 484,-261 484,-242 558,-242 558,-261"/>
<text text-anchor="middle" x="521" y="-249" font-family="Helvetica,sans-Serif" font-size="10.00">log_router.h</text>
</a>
</g>
</g>
<!-- Node2 -->
<g id="Node000002" class="node">
<title>Node2</title>
<g id="a_Node000002"><a xlink:href="log__filter_8h.html" target="_top" xlink:title=" ">
<polygon fill="white" stroke="#666666" points="285.5,-206 178.5,-206 178.5,-187 285.5,-187 285.5,-206"/>
<text text-anchor="middle" x="232" y="-194" font-family="Helvetica,sans-Serif" font-size="10.00">../filters/log_filter.h</text>
</a>
</g>
</g>
<!-- Node1&#45;&gt;Node2 -->
<g id="edge1_Node000001_Node000002" class="edge">
<title>Node1&#45;&gt;Node2</title>
<g id="a_edge1_Node000001_Node000002"><a xlink:title=" ">
<path fill="none" stroke="#63b8ff" d="M483.81,-243.68C434.34,-234.61 346.42,-218.48 288.67,-207.89"/>
<polygon fill="#63b8ff" stroke="#63b8ff" points="289.07,-204.41 278.6,-206.05 287.81,-211.29 289.07,-204.41"/>
</a>
</g>
</g>
<!-- Node4 -->
<g id="Node000004" class="node">
<title>Node4</title>
<g id="a_Node000004"><a xlink:title=" ">
<polygon fill="#e0e0e0" stroke="#999999" points="58,-19 0,-19 0,0 58,0 58,-19"/>
<text text-anchor="middle" x="29" y="-7" font-family="Helvetica,sans-Serif" font-size="10.00">memory</text>
</a>
</g>
</g>
<!-- Node1&#45;&gt;Node4 -->
<g id="edge32_Node000001_Node000004" class="edge">
<title>Node1&#45;&gt;Node4</title>
<g id="a_edge32_Node000001_Node000004"><a xlink:title=" ">
<path fill="none" stroke="#63b8ff" d="M483.71,-248.96C378.73,-243.74 84.6,-222.85 28,-151 0.16,-115.66 12.95,-58.31 22.28,-29.01"/>
<polygon fill="#63b8ff" stroke="#63b8ff" points="25.69,-29.86 25.6,-19.26 19.07,-27.6 25.69,-29.86"/>
</a>
</g>
</g>
<!-- Node13 -->
<g id="Node000013" class="node">
<title>Node13</title>
<g id="a_Node000013"><a xlink:href="base__writer_8h.html" target="_top" xlink:title=" ">
<polygon fill="white" stroke="#666666" points="532,-206 404,-206 404,-187 532,-187 532,-206"/>
<text text-anchor="middle" x="468" y="-194" font-family="Helvetica,sans-Serif" font-size="10.00">../writers/base_writer.h</text>
</a>
</g>
</g>
<!-- Node1&#45;&gt;Node13 -->
<g id="edge17_Node000001_Node000013" class="edge">
<title>Node1&#45;&gt;Node13</title>
<g id="a_edge17_Node000001_Node000013"><a xlink:title=" ">
<path fill="none" stroke="#63b8ff" d="M512.25,-241.75C504.53,-234.03 493.1,-222.6 483.78,-213.28"/>
<polygon fill="#63b8ff" stroke="#63b8ff" points="486.14,-210.69 476.59,-206.09 481.19,-215.64 486.14,-210.69"/>
</a>
</g>
</g>
<!-- Node18 -->
<g id="Node000018" class="node">
<title>Node18</title>
<g id="a_Node000018"><a xlink:title=" ">
<polygon fill="#e0e0e0" stroke="#999999" points="597.5,-206 550.5,-206 550.5,-187 597.5,-187 597.5,-206"/>
<text text-anchor="middle" x="574" y="-194" font-family="Helvetica,sans-Serif" font-size="10.00">vector</text>
</a>
</g>
</g>
<!-- Node1&#45;&gt;Node18 -->
<g id="edge31_Node000001_Node000018" class="edge">
<title>Node1&#45;&gt;Node18</title>
<g id="a_edge31_Node000001_Node000018"><a xlink:title=" ">
<path fill="none" stroke="#63b8ff" d="M529.75,-241.75C537.47,-234.03 548.9,-222.6 558.22,-213.28"/>
<polygon fill="#63b8ff" stroke="#63b8ff" points="560.81,-215.64 565.41,-206.09 555.86,-210.69 560.81,-215.64"/>
</a>
</g>
</g>
<!-- Node19 -->
<g id="Node000019" class="node">
<title>Node19</title>
<g id="a_Node000019"><a xlink:title=" ">
<polygon fill="#e0e0e0" stroke="#999999" points="708.5,-206 615.5,-206 615.5,-187 708.5,-187 708.5,-206"/>
<text text-anchor="middle" x="662" y="-194" font-family="Helvetica,sans-Serif" font-size="10.00">unordered_map</text>
</a>
</g>
</g>
<!-- Node1&#45;&gt;Node19 -->
<g id="edge33_Node000001_Node000019" class="edge">
<title>Node1&#45;&gt;Node19</title>
<g id="a_edge33_Node000001_Node000019"><a xlink:title=" ">
<path fill="none" stroke="#63b8ff" d="M543.65,-241.98C566.85,-233.27 603.12,-219.63 629.4,-209.75"/>
<polygon fill="#63b8ff" stroke="#63b8ff" points="630.8,-212.97 638.93,-206.17 628.34,-206.41 630.8,-212.97"/>
</a>
</g>
</g>
<!-- Node20 -->
<g id="Node000020" class="node">
<title>Node20</title>
<g id="a_Node000020"><a xlink:title=" ">
<polygon fill="#e0e0e0" stroke="#999999" points="813,-206 727,-206 727,-187 813,-187 813,-206"/>
<text text-anchor="middle" x="770" y="-194" font-family="Helvetica,sans-Serif" font-size="10.00">unordered_set</text>
</a>
</g>
</g>
<!-- Node1&#45;&gt;Node20 -->
<g id="edge34_Node000001_Node000020" class="edge">
<title>Node1&#45;&gt;Node20</title>
<g id="a_edge34_Node000001_Node000020"><a xlink:title=" ">
<path fill="none" stroke="#63b8ff" d="M558.01,-242.62C601.01,-233.47 672.17,-218.32 720.05,-208.13"/>
<polygon fill="#63b8ff" stroke="#63b8ff" points="720.84,-211.54 729.9,-206.04 719.39,-204.69 720.84,-211.54"/>
</a>
</g>
</g>
<!-- Node3 -->
<g id="Node000003" class="node">
<title>Node3</title>
<g id="a_Node000003"><a xlink:href="logger__interface_8h.html" target="_top" xlink:title=" ">
<polygon fill="white" stroke="#666666" points="393,-79.5 279,-79.5 279,-60.5 393,-60.5 393,-79.5"/>
<text text-anchor="middle" x="336" y="-67.5" font-family="Helvetica,sans-Serif" font-size="10.00">../logger_interface.h</text>
</a>
</g>
</g>
<!-- Node2&#45;&gt;Node3 -->
<g id="edge2_Node000002_Node000003" class="edge">
<title>Node2&#45;&gt;Node3</title>
<g id="a_edge2_Node000002_Node000003"><a xlink:title=" ">
<path fill="none" stroke="#63b8ff" d="M239.15,-186.94C256.29,-166.42 299.98,-114.12 322.35,-87.34"/>
<polygon fill="#63b8ff" stroke="#63b8ff" points="325.08,-89.54 328.8,-79.62 319.7,-85.05 325.08,-89.54"/>
</a>
</g>
</g>
<!-- Node2&#45;&gt;Node4 -->
<g id="edge15_Node000002_Node000004" class="edge">
<title>Node2&#45;&gt;Node4</title>
<g id="a_edge15_Node000002_Node000004"><a xlink:title=" ">
<path fill="none" stroke="#63b8ff" d="M178.48,-189.28C130.57,-182.55 65.28,-170.16 48,-151 17.58,-117.28 21.14,-59.18 25.5,-29.36"/>
<polygon fill="#63b8ff" stroke="#63b8ff" points="29.02,-29.54 27.2,-19.11 22.11,-28.4 29.02,-29.54"/>
</a>
</g>
</g>
<!-- Node6 -->
<g id="Node000006" class="node">
<title>Node6</title>
<g id="a_Node000006"><a xlink:title=" ">
<polygon fill="#e0e0e0" stroke="#999999" points="443,-19 399,-19 399,0 443,0 443,-19"/>
<text text-anchor="middle" x="421" y="-7" font-family="Helvetica,sans-Serif" font-size="10.00">string</text>
</a>
</g>
</g>
<!-- Node2&#45;&gt;Node6 -->
<g id="edge13_Node000002_Node000006" class="edge">
<title>Node2&#45;&gt;Node6</title>
<g id="a_edge13_Node000002_Node000006"><a xlink:title=" ">
<path fill="none" stroke="#63b8ff" d="M231.64,-186.85C231.11,-162.51 233.08,-92.76 270,-55 286.53,-38.09 349.7,-23.71 388.91,-16.16"/>
<polygon fill="#63b8ff" stroke="#63b8ff" points="389.62,-19.59 398.8,-14.31 388.32,-12.71 389.62,-19.59"/>
</a>
</g>
</g>
<!-- Node7 -->
<g id="Node000007" class="node">
<title>Node7</title>
<g id="a_Node000007"><a xlink:href="log__filter__interface_8h.html" target="_top" xlink:title=" ">
<polygon fill="white" stroke="#666666" points="223,-85 103,-85 103,-55 223,-55 223,-85"/>
<text text-anchor="start" x="111" y="-73" font-family="Helvetica,sans-Serif" font-size="10.00">../interfaces/log_filter</text>
<text text-anchor="middle" x="163" y="-62" font-family="Helvetica,sans-Serif" font-size="10.00">_interface.h</text>
</a>
</g>
</g>
<!-- Node2&#45;&gt;Node7 -->
<g id="edge6_Node000002_Node000007" class="edge">
<title>Node2&#45;&gt;Node7</title>
<g id="a_edge6_Node000002_Node000007"><a xlink:title=" ">
<path fill="none" stroke="#63b8ff" d="M227.6,-186.69C220.54,-172.66 206.14,-144.43 193,-121 187.98,-112.05 182.23,-102.35 177.12,-93.9"/>
<polygon fill="#63b8ff" stroke="#63b8ff" points="180.08,-92.03 171.89,-85.31 174.1,-95.67 180.08,-92.03"/>
</a>
</g>
</g>
<!-- Node8 -->
<g id="Node000008" class="node">
<title>Node8</title>
<g id="a_Node000008"><a xlink:href="log__entry_8h.html" target="_top" xlink:title=" ">
<polygon fill="white" stroke="#666666" points="486.5,-145.5 355.5,-145.5 355.5,-126.5 486.5,-126.5 486.5,-145.5"/>
<text text-anchor="middle" x="421" y="-133.5" font-family="Helvetica,sans-Serif" font-size="10.00">../interfaces/log_entry.h</text>
</a>
</g>
</g>
<!-- Node2&#45;&gt;Node8 -->
<g id="edge8_Node000002_Node000008" class="edge">
<title>Node2&#45;&gt;Node8</title>
<g id="a_edge8_Node000002_Node000008"><a xlink:title=" ">
<path fill="none" stroke="#63b8ff" d="M259.48,-186.99C292.24,-176.86 347.12,-159.87 383.69,-148.55"/>
<polygon fill="#63b8ff" stroke="#63b8ff" points="384.97,-151.82 393.48,-145.52 382.9,-145.13 384.97,-151.82"/>
</a>
</g>
</g>
<!-- Node11 -->
<g id="Node000011" class="node">
<title>Node11</title>
<g id="a_Node000011"><a xlink:title=" ">
<polygon fill="#e0e0e0" stroke="#999999" points="101,-145.5 57,-145.5 57,-126.5 101,-126.5 101,-145.5"/>
<text text-anchor="middle" x="79" y="-133.5" font-family="Helvetica,sans-Serif" font-size="10.00">regex</text>
</a>
</g>
</g>
<!-- Node2&#45;&gt;Node11 -->
<g id="edge14_Node000002_Node000011" class="edge">
<title>Node2&#45;&gt;Node11</title>
<g id="a_edge14_Node000002_Node000011"><a xlink:title=" ">
<path fill="none" stroke="#63b8ff" d="M206.56,-186.84C181.73,-178.24 142.99,-164.44 110,-151 108.83,-150.52 107.64,-150.03 106.44,-149.52"/>
<polygon fill="#63b8ff" stroke="#63b8ff" points="107.83,-146.31 97.26,-145.52 105.03,-152.72 107.83,-146.31"/>
</a>
</g>
</g>
<!-- Node12 -->
<g id="Node000012" class="node">
<title>Node12</title>
<g id="a_Node000012"><a xlink:title=" ">
<polygon fill="#e0e0e0" stroke="#999999" points="184.5,-145.5 119.5,-145.5 119.5,-126.5 184.5,-126.5 184.5,-145.5"/>
<text text-anchor="middle" x="152" y="-133.5" font-family="Helvetica,sans-Serif" font-size="10.00">functional</text>
</a>
</g>
</g>
<!-- Node2&#45;&gt;Node12 -->
<g id="edge16_Node000002_Node000012" class="edge">
<title>Node2&#45;&gt;Node12</title>
<g id="a_edge16_Node000002_Node000012"><a xlink:title=" ">
<path fill="none" stroke="#63b8ff" d="M220.2,-186.87C207.55,-177.62 187.26,-162.78 172.09,-151.69"/>
<polygon fill="#63b8ff" stroke="#63b8ff" points="173.99,-148.74 163.85,-145.67 169.86,-154.4 173.99,-148.74"/>
</a>
</g>
</g>
<!-- Node3&#45;&gt;Node4 -->
<g id="edge3_Node000003_Node000004" class="edge">
<title>Node3&#45;&gt;Node4</title>
<g id="a_edge3_Node000003_Node000004"><a xlink:title=" ">
<path fill="none" stroke="#63b8ff" d="M291.36,-60.49C231.24,-49.04 125.23,-28.84 68.1,-17.95"/>
<polygon fill="#63b8ff" stroke="#63b8ff" points="68.5,-14.46 58.02,-16.03 67.19,-21.34 68.5,-14.46"/>
</a>
</g>
</g>
<!-- Node5 -->
<g id="Node000005" class="node">
<title>Node5</title>
<g id="a_Node000005"><a xlink:title=" ">
<polygon fill="#e0e0e0" stroke="#999999" points="360,-19 312,-19 312,0 360,0 360,-19"/>
<text text-anchor="middle" x="336" y="-7" font-family="Helvetica,sans-Serif" font-size="10.00">mutex</text>
</a>
</g>
</g>
<!-- Node3&#45;&gt;Node5 -->
<g id="edge4_Node000003_Node000005" class="edge">
<title>Node3&#45;&gt;Node5</title>
<g id="a_edge4_Node000003_Node000005"><a xlink:title=" ">
<path fill="none" stroke="#63b8ff" d="M336,-60.37C336,-52.25 336,-39.81 336,-29.39"/>
<polygon fill="#63b8ff" stroke="#63b8ff" points="339.5,-29.17 336,-19.17 332.5,-29.17 339.5,-29.17"/>
</a>
</g>
</g>
<!-- Node3&#45;&gt;Node6 -->
<g id="edge5_Node000003_Node000006" class="edge">
<title>Node3&#45;&gt;Node6</title>
<g id="a_edge5_Node000003_Node000006"><a xlink:title=" ">
<path fill="none" stroke="#63b8ff" d="M348.54,-60.37C362.1,-51.04 383.94,-36.01 400.1,-24.88"/>
<polygon fill="#63b8ff" stroke="#63b8ff" points="402.15,-27.72 408.41,-19.17 398.18,-21.95 402.15,-27.72"/>
</a>
</g>
</g>
<!-- Node7&#45;&gt;Node6 -->
<g id="edge7_Node000007_Node000006" class="edge">
<title>Node7&#45;&gt;Node6</title>
<g id="a_edge7_Node000007_Node000006"><a xlink:title=" ">
<path fill="none" stroke="#63b8ff" d="M223.16,-55.36C274.91,-43.62 347.57,-27.15 388.9,-17.78"/>
<polygon fill="#63b8ff" stroke="#63b8ff" points="389.72,-21.18 398.7,-15.56 388.17,-14.35 389.72,-21.18"/>
</a>
</g>
</g>
<!-- Node8&#45;&gt;Node3 -->
<g id="edge12_Node000008_Node000003" class="edge">
<title>Node8&#45;&gt;Node3</title>
<g id="a_edge12_Node000008_Node000003"><a xlink:title=" ">
<path fill="none" stroke="#63b8ff" d="M409.54,-126.37C395.72,-115.97 372.29,-98.32 355.59,-85.75"/>
<polygon fill="#63b8ff" stroke="#63b8ff" points="357.65,-82.92 347.55,-79.7 353.44,-88.51 357.65,-82.92"/>
</a>
</g>
</g>
<!-- Node8&#45;&gt;Node6 -->
<g id="edge9_Node000008_Node000006" class="edge">
<title>Node8&#45;&gt;Node6</title>
<g id="a_edge9_Node000008_Node000006"><a xlink:title=" ">
<path fill="none" stroke="#63b8ff" d="M421,-126.44C421,-106.54 421,-56.76 421,-29.35"/>
<polygon fill="#63b8ff" stroke="#63b8ff" points="424.5,-29.12 421,-19.12 417.5,-29.12 424.5,-29.12"/>
</a>
</g>
</g>
<!-- Node9 -->
<g id="Node000009" class="node">
<title>Node9</title>
<g id="a_Node000009"><a xlink:title=" ">
<polygon fill="#e0e0e0" stroke="#999999" points="540,-79.5 490,-79.5 490,-60.5 540,-60.5 540,-79.5"/>
<text text-anchor="middle" x="515" y="-67.5" font-family="Helvetica,sans-Serif" font-size="10.00">chrono</text>
</a>
</g>
</g>
<!-- Node8&#45;&gt;Node9 -->
<g id="edge10_Node000008_Node000009" class="edge">
<title>Node8&#45;&gt;Node9</title>
<g id="a_edge10_Node000008_Node000009"><a xlink:title=" ">
<path fill="none" stroke="#63b8ff" d="M433.68,-126.37C449.09,-115.87 475.35,-98 493.85,-85.4"/>
<polygon fill="#63b8ff" stroke="#63b8ff" points="495.93,-88.22 502.22,-79.7 491.99,-82.43 495.93,-88.22"/>
</a>
</g>
</g>
<!-- Node10 -->
<g id="Node000010" class="node">
<title>Node10</title>
<g id="a_Node000010"><a xlink:title=" ">
<polygon fill="#e0e0e0" stroke="#999999" points="601,-19 545,-19 545,0 601,0 601,-19"/>
<text text-anchor="middle" x="573" y="-7" font-family="Helvetica,sans-Serif" font-size="10.00">optional</text>
</a>
</g>
</g>
<!-- Node8&#45;&gt;Node10 -->
<g id="edge11_Node000008_Node000010" class="edge">
<title>Node8&#45;&gt;Node10</title>
<g id="a_edge11_Node000008_Node000010"><a xlink:title=" ">
<path fill="none" stroke="#63b8ff" d="M425.55,-126.47C434.38,-110.59 455.27,-76.19 481,-55 497.83,-41.14 519.71,-30.33 537.91,-22.84"/>
<polygon fill="#63b8ff" stroke="#63b8ff" points="539.3,-26.05 547.31,-19.12 536.72,-19.54 539.3,-26.05"/>
</a>
</g>
</g>
<!-- Node13&#45;&gt;Node3 -->
<g id="edge20_Node000013_Node000003" class="edge">
<title>Node13&#45;&gt;Node3</title>
<g id="a_edge20_Node000013_Node000003"><a xlink:title=" ">
<path fill="none" stroke="#63b8ff" d="M407.4,-187C384.81,-180.74 361.03,-169.87 346,-151 332.2,-133.68 331.64,-107.2 333.22,-89.51"/>
<polygon fill="#63b8ff" stroke="#63b8ff" points="336.7,-89.91 334.42,-79.56 329.75,-89.07 336.7,-89.91"/>
</a>
</g>
</g>
<!-- Node13&#45;&gt;Node6 -->
<g id="edge18_Node000013_Node000006" class="edge">
<title>Node13&#45;&gt;Node6</title>
<g id="a_edge18_Node000013_Node000006"><a xlink:title=" ">
<path fill="none" stroke="#63b8ff" d="M526.14,-186.99C584.9,-177.8 668.38,-162.87 678,-151 686.39,-140.64 684.35,-132.73 678,-121 633.72,-39.17 511.79,-17.93 453.22,-12.42"/>
<polygon fill="#63b8ff" stroke="#63b8ff" points="453.32,-8.92 443.06,-11.57 452.73,-15.9 453.32,-8.92"/>
</a>
</g>
</g>
<!-- Node13&#45;&gt;Node8 -->
<g id="edge30_Node000013_Node000008" class="edge">
<title>Node13&#45;&gt;Node8</title>
<g id="a_edge30_Node000013_Node000008"><a xlink:title=" ">
<path fill="none" stroke="#63b8ff" d="M461.06,-186.87C454.05,-178.14 443.04,-164.43 434.33,-153.59"/>
<polygon fill="#63b8ff" stroke="#63b8ff" points="436.96,-151.27 427.96,-145.67 431.5,-155.66 436.96,-151.27"/>
</a>
</g>
</g>
<!-- Node13&#45;&gt;Node9 -->
<g id="edge19_Node000013_Node000009" class="edge">
<title>Node13&#45;&gt;Node9</title>
<g id="a_edge19_Node000013_Node000009"><a xlink:title=" ">
<path fill="none" stroke="#63b8ff" d="M474.42,-186.72C480.51,-178.04 489.5,-164.18 495,-151 503.42,-130.82 508.91,-106.24 511.97,-89.69"/>
<polygon fill="#63b8ff" stroke="#63b8ff" points="515.45,-90.13 513.71,-79.68 508.55,-88.93 515.45,-90.13"/>
</a>
</g>
</g>
<!-- Node14 -->
<g id="Node000014" class="node">
<title>Node14</title>
<g id="a_Node000014"><a xlink:href="error__codes_8h.html" target="_top" xlink:title=" ">
<polygon fill="white" stroke="#666666" points="781,-79.5 689,-79.5 689,-60.5 781,-60.5 781,-79.5"/>
<text text-anchor="middle" x="735" y="-67.5" font-family="Helvetica,sans-Serif" font-size="10.00">../error_codes.h</text>
</a>
</g>
</g>
<!-- Node13&#45;&gt;Node14 -->
<g id="edge21_Node000013_Node000014" class="edge">
<title>Node13&#45;&gt;Node14</title>
<g id="a_edge21_Node000013_Node000014"><a xlink:title=" ">
<path fill="none" stroke="#63b8ff" d="M532.07,-187.27C599.5,-178.06 697.74,-162.87 711,-151 728.36,-135.46 733.38,-107.92 734.71,-89.56"/>
<polygon fill="#63b8ff" stroke="#63b8ff" points="738.21,-89.64 735.15,-79.5 731.22,-89.34 738.21,-89.64"/>
</a>
</g>
</g>
<!-- Node17 -->
<g id="Node000017" class="node">
<title>Node17</title>
<g id="a_Node000017"><a xlink:href="log__writer__interface_8h.html" target="_top" xlink:title=" ">
<polygon fill="white" stroke="#666666" points="669,-151 543,-151 543,-121 669,-121 669,-151"/>
<text text-anchor="start" x="551" y="-139" font-family="Helvetica,sans-Serif" font-size="10.00">../interfaces/log_writer</text>
<text text-anchor="middle" x="606" y="-128" font-family="Helvetica,sans-Serif" font-size="10.00">_interface.h</text>
</a>
</g>
</g>
<!-- Node13&#45;&gt;Node17 -->
<g id="edge26_Node000013_Node000017" class="edge">
<title>Node13&#45;&gt;Node17</title>
<g id="a_edge26_Node000013_Node000017"><a xlink:title=" ">
<path fill="none" stroke="#63b8ff" d="M488.07,-186.99C507.75,-178.65 538.39,-165.66 563.5,-155.02"/>
<polygon fill="#63b8ff" stroke="#63b8ff" points="564.98,-158.19 572.82,-151.06 562.25,-151.74 564.98,-158.19"/>
</a>
</g>
</g>
<!-- Node14&#45;&gt;Node6 -->
<g id="edge22_Node000014_Node000006" class="edge">
<title>Node14&#45;&gt;Node6</title>
<g id="a_edge22_Node000014_Node000006"><a xlink:title=" ">
<path fill="none" stroke="#63b8ff" d="M699.86,-60.45C691.71,-58.57 683.07,-56.65 675,-55 595.68,-38.81 501.69,-23.29 453.33,-15.57"/>
<polygon fill="#63b8ff" stroke="#63b8ff" points="453.59,-12.07 443.16,-13.96 452.49,-18.98 453.59,-12.07"/>
</a>
</g>
</g>
<!-- Node14&#45;&gt;Node10 -->
<g id="edge24_Node000014_Node000010" class="edge">
<title>Node14&#45;&gt;Node10</title>
<g id="a_edge24_Node000014_Node000010"><a xlink:title=" ">
<path fill="none" stroke="#63b8ff" d="M711.44,-60.49C683.73,-50.49 637.53,-33.8 606.19,-22.49"/>
<polygon fill="#63b8ff" stroke="#63b8ff" points="607.18,-19.12 596.58,-19.02 604.8,-25.71 607.18,-19.12"/>
</a>
</g>
</g>
<!-- Node15 -->
<g id="Node000015" class="node">
<title>Node15</title>
<g id="a_Node000015"><a xlink:title=" ">
<polygon fill="#e0e0e0" stroke="#999999" points="729.5,-19 664.5,-19 664.5,0 729.5,0 729.5,-19"/>
<text text-anchor="middle" x="697" y="-7" font-family="Helvetica,sans-Serif" font-size="10.00">stdexcept</text>
</a>
</g>
</g>
<!-- Node14&#45;&gt;Node15 -->
<g id="edge23_Node000014_Node000015" class="edge">
<title>Node14&#45;&gt;Node15</title>
<g id="a_edge23_Node000014_Node000015"><a xlink:title=" ">
<path fill="none" stroke="#63b8ff" d="M729.39,-60.37C723.84,-51.81 715.17,-38.47 708.2,-27.74"/>
<polygon fill="#63b8ff" stroke="#63b8ff" points="711.01,-25.65 702.63,-19.17 705.14,-29.46 711.01,-25.65"/>
</a>
</g>
</g>
<!-- Node16 -->
<g id="Node000016" class="node">
<title>Node16</title>
<g id="a_Node000016"><a xlink:title=" ">
<polygon fill="#e0e0e0" stroke="#999999" points="798.5,-19 747.5,-19 747.5,0 798.5,0 798.5,-19"/>
<text text-anchor="middle" x="773" y="-7" font-family="Helvetica,sans-Serif" font-size="10.00">variant</text>
</a>
</g>
</g>
<!-- Node14&#45;&gt;Node16 -->
<g id="edge25_Node000014_Node000016" class="edge">
<title>Node14&#45;&gt;Node16</title>
<g id="a_edge25_Node000014_Node000016"><a xlink:title=" ">
<path fill="none" stroke="#63b8ff" d="M740.61,-60.37C746.16,-51.81 754.83,-38.47 761.8,-27.74"/>
<polygon fill="#63b8ff" stroke="#63b8ff" points="764.86,-29.46 767.37,-19.17 758.99,-25.65 764.86,-29.46"/>
</a>
</g>
</g>
<!-- Node17&#45;&gt;Node6 -->
<g id="edge27_Node000017_Node000006" class="edge">
<title>Node17&#45;&gt;Node6</title>
<g id="a_edge27_Node000017_Node000006"><a xlink:title=" ">
<path fill="none" stroke="#63b8ff" d="M599.36,-120.8C590.34,-103.01 572.61,-72.69 549,-55 520.45,-33.61 480.82,-21.94 453.24,-15.99"/>
<polygon fill="#63b8ff" stroke="#63b8ff" points="453.81,-12.53 443.32,-13.98 452.42,-19.4 453.81,-12.53"/>
</a>
</g>
</g>
<!-- Node17&#45;&gt;Node9 -->
<g id="edge28_Node000017_Node000009" class="edge">
<title>Node17&#45;&gt;Node9</title>
<g id="a_edge28_Node000017_Node000009"><a xlink:title=" ">
<path fill="none" stroke="#63b8ff" d="M585.8,-120.8C570.97,-110.37 550.89,-96.24 535.89,-85.69"/>
<polygon fill="#63b8ff" stroke="#63b8ff" points="537.5,-82.55 527.31,-79.66 533.48,-88.27 537.5,-82.55"/>
</a>
</g>
</g>
<!-- Node17&#45;&gt;Node14 -->
<g id="edge29_Node000017_Node000014" class="edge">
<title>Node17&#45;&gt;Node14</title>
<g id="a_edge29_Node000017_Node000014"><a xlink:title=" ">
<path fill="none" stroke="#63b8ff" d="M634.31,-120.95C656.43,-109.98 686.96,-94.83 708.58,-84.11"/>
<polygon fill="#63b8ff" stroke="#63b8ff" points="710.43,-87.1 717.83,-79.52 707.32,-80.83 710.43,-87.1"/>
</a>
</g>
</g>
</g>
</svg>
