<?xml version="1.0" encoding="UTF-8" standalone="no"?>
<!DOCTYPE svg PUBLIC "-//W3C//DTD SVG 1.1//EN"
 "http://www.w3.org/Graphics/SVG/1.1/DTD/svg11.dtd">
<!-- Generated by graphviz version 2.43.0 (0)
 -->
<!-- Title: logger_interface.h Pages: 1 -->
<svg width="1659pt" height="302pt"
 viewBox="0.00 0.00 1658.50 302.00" xmlns="http://www.w3.org/2000/svg" xmlns:xlink="http://www.w3.org/1999/xlink">
<g id="graph0" class="graph" transform="scale(1 1) rotate(0) translate(4 298)">
<title>logger_interface.h</title>
<!-- Node1 -->
<g id="Node000001" class="node">
<title>Node1</title>
<g id="a_Node000001"><a xlink:title=" ">
<polygon fill="#999999" stroke="#666666" points="1207,-294 1102,-294 1102,-275 1207,-275 1207,-294"/>
<text text-anchor="middle" x="1154.5" y="-282" font-family="Helvetica,sans-Serif" font-size="10.00">logger_interface.h</text>
</a>
</g>
</g>
<!-- Node2 -->
<g id="Node000002" class="node">
<title>Node2</title>
<g id="a_Node000002"><a xlink:href="base__writer_8h.html" target="_top" xlink:title=" ">
<polygon fill="white" stroke="#666666" points="760.5,-184 678.5,-184 678.5,-165 760.5,-165 760.5,-184"/>
<text text-anchor="middle" x="719.5" y="-172" font-family="Helvetica,sans-Serif" font-size="10.00">base_writer.h</text>
</a>
</g>
</g>
<!-- Node1&#45;&gt;Node2 -->
<g id="edge1_Node000001_Node000002" class="edge">
<title>Node1&#45;&gt;Node2</title>
<g id="a_edge1_Node000001_Node000002"><a xlink:title=" ">
<path fill="none" stroke="#63b8ff" d="M1091.65,-274.88C1041.18,-267.33 968.71,-255.05 906.5,-239 845.41,-223.24 775.53,-197.33 741.06,-184"/>
<polygon fill="#63b8ff" stroke="#63b8ff" points="1091.35,-278.38 1101.76,-276.38 1092.37,-271.45 1091.35,-278.38"/>
</a>
</g>
</g>
<!-- Node18 -->
<g id="Node000018" class="node">
<title>Node18</title>
<g id="a_Node000018"><a xlink:href="log__analyzer_8h.html" target="_top" xlink:title=" ">
<polygon fill="white" stroke="#666666" points="1379,-239 1292,-239 1292,-220 1379,-220 1379,-239"/>
<text text-anchor="middle" x="1335.5" y="-227" font-family="Helvetica,sans-Serif" font-size="10.00">log_analyzer.h</text>
</a>
</g>
</g>
<!-- Node1&#45;&gt;Node18 -->
<g id="edge18_Node000001_Node000018" class="edge">
<title>Node1&#45;&gt;Node18</title>
<g id="a_edge18_Node000001_Node000018"><a xlink:title=" ">
<path fill="none" stroke="#63b8ff" d="M1193.58,-272.06C1227.41,-262.15 1275.58,-248.04 1306.19,-239.08"/>
<polygon fill="#63b8ff" stroke="#63b8ff" points="1192.19,-268.82 1183.58,-274.98 1194.16,-275.53 1192.19,-268.82"/>
</a>
</g>
</g>
<!-- Node20 -->
<g id="Node000020" class="node">
<title>Node20</title>
<g id="a_Node000020"><a xlink:href="log__collector_8h.html" target="_top" xlink:title=" ">
<polygon fill="white" stroke="#666666" points="884,-184 797,-184 797,-165 884,-165 884,-184"/>
<text text-anchor="middle" x="840.5" y="-172" font-family="Helvetica,sans-Serif" font-size="10.00">log_collector.h</text>
</a>
</g>
</g>
<!-- Node1&#45;&gt;Node20 -->
<g id="edge20_Node000001_Node000020" class="edge">
<title>Node1&#45;&gt;Node20</title>
<g id="a_edge20_Node000001_Node000020"><a xlink:title=" ">
<path fill="none" stroke="#63b8ff" d="M1091.71,-275.57C1049.61,-268.94 993.48,-257.5 946.5,-239 909.57,-224.45 870.66,-197.77 851.92,-184.09"/>
<polygon fill="#63b8ff" stroke="#63b8ff" points="1091.41,-279.07 1101.83,-277.12 1092.47,-272.15 1091.41,-279.07"/>
</a>
</g>
</g>
<!-- Node21 -->
<g id="Node000021" class="node">
<title>Node21</title>
<g id="a_Node000021"><a xlink:href="log__entry_8h.html" target="_top" xlink:title=" ">
<polygon fill="white" stroke="#666666" points="1025.5,-239 955.5,-239 955.5,-220 1025.5,-220 1025.5,-239"/>
<text text-anchor="middle" x="990.5" y="-227" font-family="Helvetica,sans-Serif" font-size="10.00">log_entry.h</text>
</a>
</g>
</g>
<!-- Node1&#45;&gt;Node21 -->
<g id="edge24_Node000001_Node000021" class="edge">
<title>Node1&#45;&gt;Node21</title>
<g id="a_edge24_Node000001_Node000021"><a xlink:title=" ">
<path fill="none" stroke="#63b8ff" d="M1118.29,-271.8C1087.68,-261.91 1044.55,-247.97 1017.06,-239.08"/>
<polygon fill="#63b8ff" stroke="#63b8ff" points="1117.56,-275.24 1128.15,-274.98 1119.71,-268.58 1117.56,-275.24"/>
</a>
</g>
</g>
<!-- Node23 -->
<g id="Node000023" class="node">
<title>Node23</title>
<g id="a_Node000023"><a xlink:href="log__filter_8h.html" target="_top" xlink:title=" ">
<polygon fill="white" stroke="#666666" points="1126.5,-184 1058.5,-184 1058.5,-165 1126.5,-165 1126.5,-184"/>
<text text-anchor="middle" x="1092.5" y="-172" font-family="Helvetica,sans-Serif" font-size="10.00">log_filter.h</text>
</a>
</g>
</g>
<!-- Node1&#45;&gt;Node23 -->
<g id="edge34_Node000001_Node000023" class="edge">
<title>Node1&#45;&gt;Node23</title>
<g id="a_edge34_Node000001_Node000023"><a xlink:title=" ">
<path fill="none" stroke="#63b8ff" d="M1144.31,-265.76C1130.84,-242.28 1107.61,-201.81 1097.47,-184.16"/>
<polygon fill="#63b8ff" stroke="#63b8ff" points="1141.41,-267.73 1149.43,-274.66 1147.48,-264.25 1141.41,-267.73"/>
</a>
</g>
</g>
<!-- Node26 -->
<g id="Node000026" class="node">
<title>Node26</title>
<g id="a_Node000026"><a xlink:href="logger_8h.html" target="_top" xlink:title=" ">
<polygon fill="white" stroke="#666666" points="1200.5,-184 1144.5,-184 1144.5,-165 1200.5,-165 1200.5,-184"/>
<text text-anchor="middle" x="1172.5" y="-172" font-family="Helvetica,sans-Serif" font-size="10.00">logger.h</text>
</a>
</g>
</g>
<!-- Node1&#45;&gt;Node26 -->
<g id="edge35_Node000001_Node000026" class="edge">
<title>Node1&#45;&gt;Node26</title>
<g id="a_edge35_Node000001_Node000026"><a xlink:title=" ">
<path fill="none" stroke="#63b8ff" d="M1157.67,-264.48C1161.61,-240.84 1168.17,-201.5 1171.06,-184.16"/>
<polygon fill="#63b8ff" stroke="#63b8ff" points="1154.16,-264.22 1155.97,-274.66 1161.07,-265.37 1154.16,-264.22"/>
</a>
</g>
</g>
<!-- Node27 -->
<g id="Node000027" class="node">
<title>Node27</title>
<g id="a_Node000027"><a xlink:href="logger__config_8h.html" target="_top" xlink:title=" ">
<polygon fill="white" stroke="#666666" points="1274,-239 1183,-239 1183,-220 1274,-220 1274,-239"/>
<text text-anchor="middle" x="1228.5" y="-227" font-family="Helvetica,sans-Serif" font-size="10.00">logger_config.h</text>
</a>
</g>
</g>
<!-- Node1&#45;&gt;Node27 -->
<g id="edge38_Node000001_Node000027" class="edge">
<title>Node1&#45;&gt;Node27</title>
<g id="a_edge38_Node000001_Node000027"><a xlink:title=" ">
<path fill="none" stroke="#63b8ff" d="M1174.53,-269.15C1187.91,-259.57 1205.06,-247.29 1216.39,-239.17"/>
<polygon fill="#63b8ff" stroke="#63b8ff" points="1172.48,-266.32 1166.39,-274.98 1176.56,-272.01 1172.48,-266.32"/>
</a>
</g>
</g>
<!-- Node29 -->
<g id="Node000029" class="node">
<title>Node29</title>
<g id="a_Node000029"><a xlink:href="overflow__policy_8h.html" target="_top" xlink:title=" ">
<polygon fill="white" stroke="#666666" points="1498,-239 1397,-239 1397,-220 1498,-220 1498,-239"/>
<text text-anchor="middle" x="1447.5" y="-227" font-family="Helvetica,sans-Serif" font-size="10.00">overflow_policy.h</text>
</a>
</g>
</g>
<!-- Node1&#45;&gt;Node29 -->
<g id="edge42_Node000001_Node000029" class="edge">
<title>Node1&#45;&gt;Node29</title>
<g id="a_edge42_Node000001_Node000029"><a xlink:title=" ">
<path fill="none" stroke="#63b8ff" d="M1211.5,-273.19C1266.44,-263.25 1348.59,-248.39 1400.06,-239.08"/>
<polygon fill="#63b8ff" stroke="#63b8ff" points="1210.79,-269.76 1201.58,-274.98 1212.04,-276.65 1210.79,-269.76"/>
</a>
</g>
</g>
<!-- Node31 -->
<g id="Node000031" class="node">
<title>Node31</title>
<g id="a_Node000031"><a xlink:href="structured__logger_8h.html" target="_top" xlink:title=" ">
<polygon fill="white" stroke="#666666" points="1626.5,-239 1516.5,-239 1516.5,-220 1626.5,-220 1626.5,-239"/>
<text text-anchor="middle" x="1571.5" y="-227" font-family="Helvetica,sans-Serif" font-size="10.00">structured_logger.h</text>
</a>
</g>
</g>
<!-- Node1&#45;&gt;Node31 -->
<g id="edge44_Node000001_Node000031" class="edge">
<title>Node1&#45;&gt;Node31</title>
<g id="a_edge44_Node000001_Node000031"><a xlink:title=" ">
<path fill="none" stroke="#63b8ff" d="M1217.21,-275.72C1287.8,-266.94 1405.91,-252.15 1507.5,-239 1510.39,-238.63 1513.35,-238.24 1516.35,-237.85"/>
<polygon fill="#63b8ff" stroke="#63b8ff" points="1216.63,-272.27 1207.14,-276.97 1217.5,-279.21 1216.63,-272.27"/>
</a>
</g>
</g>
<!-- Node3 -->
<g id="Node000003" class="node">
<title>Node3</title>
<g id="a_Node000003"><a xlink:href="console__writer_8h.html" target="_top" xlink:title=" ">
<polygon fill="white" stroke="#666666" points="465.5,-129 369.5,-129 369.5,-110 465.5,-110 465.5,-129"/>
<text text-anchor="middle" x="417.5" y="-117" font-family="Helvetica,sans-Serif" font-size="10.00">console_writer.h</text>
</a>
</g>
</g>
<!-- Node2&#45;&gt;Node3 -->
<g id="edge2_Node000002_Node000003" class="edge">
<title>Node2&#45;&gt;Node3</title>
<g id="a_edge2_Node000002_Node000003"><a xlink:title=" ">
<path fill="none" stroke="#63b8ff" d="M668.29,-164.51C611.65,-154.57 521.09,-138.68 465.69,-128.96"/>
<polygon fill="#63b8ff" stroke="#63b8ff" points="668,-168.02 678.46,-166.3 669.21,-161.12 668,-168.02"/>
</a>
</g>
</g>
<!-- Node5 -->
<g id="Node000005" class="node">
<title>Node5</title>
<g id="a_Node000005"><a xlink:href="encrypted__writer_8h.html" target="_top" xlink:title=" ">
<polygon fill="white" stroke="#666666" points="591,-129 484,-129 484,-110 591,-110 591,-129"/>
<text text-anchor="middle" x="537.5" y="-117" font-family="Helvetica,sans-Serif" font-size="10.00">encrypted_writer.h</text>
</a>
</g>
</g>
<!-- Node2&#45;&gt;Node5 -->
<g id="edge4_Node000002_Node000005" class="edge">
<title>Node2&#45;&gt;Node5</title>
<g id="a_edge4_Node000002_Node000005"><a xlink:title=" ">
<path fill="none" stroke="#63b8ff" d="M680.64,-162.18C646.6,-152.27 597.88,-138.08 566.97,-129.08"/>
<polygon fill="#63b8ff" stroke="#63b8ff" points="679.68,-165.55 690.26,-164.98 681.64,-158.83 679.68,-165.55"/>
</a>
</g>
</g>
<!-- Node7 -->
<g id="Node000007" class="node">
<title>Node7</title>
<g id="a_Node000007"><a xlink:href="file__writer_8h.html" target="_top" xlink:title=" ">
<polygon fill="white" stroke="#666666" points="198.5,-129 124.5,-129 124.5,-110 198.5,-110 198.5,-129"/>
<text text-anchor="middle" x="161.5" y="-117" font-family="Helvetica,sans-Serif" font-size="10.00">file_writer.h</text>
</a>
</g>
</g>
<!-- Node2&#45;&gt;Node7 -->
<g id="edge6_Node000002_Node000007" class="edge">
<title>Node2&#45;&gt;Node7</title>
<g id="a_edge6_Node000002_Node000007"><a xlink:title=" ">
<path fill="none" stroke="#63b8ff" d="M668.32,-169.06C580.39,-161.38 395,-144.88 238.5,-129 225.52,-127.68 211.32,-126.14 198.69,-124.74"/>
<polygon fill="#63b8ff" stroke="#63b8ff" points="668.03,-172.55 678.3,-169.94 668.64,-165.58 668.03,-172.55"/>
</a>
</g>
</g>
<!-- Node11 -->
<g id="Node000011" class="node">
<title>Node11</title>
<g id="a_Node000011"><a xlink:href="health__check__system_8cpp.html" target="_top" xlink:title=" ">
<polygon fill="white" stroke="#666666" points="791,-129 648,-129 648,-110 791,-110 791,-129"/>
<text text-anchor="middle" x="719.5" y="-117" font-family="Helvetica,sans-Serif" font-size="10.00">health_check_system.cpp</text>
</a>
</g>
</g>
<!-- Node2&#45;&gt;Node11 -->
<g id="edge10_Node000002_Node000011" class="edge">
<title>Node2&#45;&gt;Node11</title>
<g id="a_edge10_Node000002_Node000011"><a xlink:title=" ">
<path fill="none" stroke="#63b8ff" d="M719.5,-154.66C719.5,-145.93 719.5,-135.99 719.5,-129.09"/>
<polygon fill="#63b8ff" stroke="#63b8ff" points="716,-154.75 719.5,-164.75 723,-154.75 716,-154.75"/>
</a>
</g>
</g>
<!-- Node12 -->
<g id="Node000012" class="node">
<title>Node12</title>
<g id="a_Node000012"><a xlink:href="log__collector_8cpp.html" target="_top" xlink:title=" ">
<polygon fill="white" stroke="#666666" points="907.5,-129 809.5,-129 809.5,-110 907.5,-110 907.5,-129"/>
<text text-anchor="middle" x="858.5" y="-117" font-family="Helvetica,sans-Serif" font-size="10.00">log_collector.cpp</text>
</a>
</g>
</g>
<!-- Node2&#45;&gt;Node12 -->
<g id="edge11_Node000002_Node000012" class="edge">
<title>Node2&#45;&gt;Node12</title>
<g id="a_edge11_Node000002_Node000012"><a xlink:title=" ">
<path fill="none" stroke="#63b8ff" d="M751.18,-161.42C776.97,-151.59 812.74,-137.95 835.76,-129.17"/>
<polygon fill="#63b8ff" stroke="#63b8ff" points="749.93,-158.15 741.83,-164.98 752.42,-164.69 749.93,-158.15"/>
</a>
</g>
</g>
<!-- Node13 -->
<g id="Node000013" class="node">
<title>Node13</title>
<g id="a_Node000013"><a xlink:href="log__router_8h.html" target="_top" xlink:title=" ">
<polygon fill="white" stroke="#666666" points="999.5,-129 925.5,-129 925.5,-110 999.5,-110 999.5,-129"/>
<text text-anchor="middle" x="962.5" y="-117" font-family="Helvetica,sans-Serif" font-size="10.00">log_router.h</text>
</a>
</g>
</g>
<!-- Node2&#45;&gt;Node13 -->
<g id="edge12_Node000002_Node000013" class="edge">
<title>Node2&#45;&gt;Node13</title>
<g id="a_edge12_Node000002_Node000013"><a xlink:title=" ">
<path fill="none" stroke="#63b8ff" d="M768.35,-162.85C814.62,-152.75 883.1,-137.82 925.15,-128.65"/>
<polygon fill="#63b8ff" stroke="#63b8ff" points="767.57,-159.43 758.54,-164.98 769.06,-166.27 767.57,-159.43"/>
</a>
</g>
</g>
<!-- Node14 -->
<g id="Node000014" class="node">
<title>Node14</title>
<g id="a_Node000014"><a xlink:href="logger_8cpp.html" target="_top" xlink:title=" ">
<polygon fill="white" stroke="#666666" points="1061,-74 994,-74 994,-55 1061,-55 1061,-74"/>
<text text-anchor="middle" x="1027.5" y="-62" font-family="Helvetica,sans-Serif" font-size="10.00">logger.cpp</text>
</a>
</g>
</g>
<!-- Node2&#45;&gt;Node14 -->
<g id="edge14_Node000002_Node000014" class="edge">
<title>Node2&#45;&gt;Node14</title>
<g id="a_edge14_Node000002_Node000014"><a xlink:title=" ">
<path fill="none" stroke="#63b8ff" d="M683,-161.29C653.64,-149.58 620.06,-130.66 638.5,-110 662,-83.66 903.54,-70.76 993.76,-66.84"/>
<polygon fill="#63b8ff" stroke="#63b8ff" points="682.13,-164.7 692.72,-164.98 684.61,-158.16 682.13,-164.7"/>
</a>
</g>
</g>
<!-- Node15 -->
<g id="Node000015" class="node">
<title>Node15</title>
<g id="a_Node000015"><a xlink:href="logger__builder_8h.html" target="_top" xlink:title=" ">
<polygon fill="white" stroke="#666666" points="1294,-129 1199,-129 1199,-110 1294,-110 1294,-129"/>
<text text-anchor="middle" x="1246.5" y="-117" font-family="Helvetica,sans-Serif" font-size="10.00">logger_builder.h</text>
</a>
</g>
</g>
<!-- Node2&#45;&gt;Node15 -->
<g id="edge15_Node000002_Node000015" class="edge">
<title>Node2&#45;&gt;Node15</title>
<g id="a_edge15_Node000002_Node000015"><a xlink:title=" ">
<path fill="none" stroke="#63b8ff" d="M770.86,-166.89C776.47,-166.22 782.1,-165.58 787.5,-165 965.86,-145.87 1011.38,-150.24 1189.5,-129 1192.58,-128.63 1195.75,-128.23 1198.94,-127.81"/>
<polygon fill="#63b8ff" stroke="#63b8ff" points="770.33,-163.42 760.83,-168.1 771.17,-170.37 770.33,-163.42"/>
</a>
</g>
</g>
<!-- Node16 -->
<g id="Node000016" class="node">
<title>Node16</title>
<g id="a_Node000016"><a xlink:href="network__writer_8h.html" target="_top" xlink:title=" ">
<polygon fill="white" stroke="#666666" points="345.5,-129 247.5,-129 247.5,-110 345.5,-110 345.5,-129"/>
<text text-anchor="middle" x="296.5" y="-117" font-family="Helvetica,sans-Serif" font-size="10.00">network_writer.h</text>
</a>
</g>
</g>
<!-- Node2&#45;&gt;Node16 -->
<g id="edge16_Node000002_Node000016" class="edge">
<title>Node2&#45;&gt;Node16</title>
<g id="a_edge16_Node000002_Node000016"><a xlink:title=" ">
<path fill="none" stroke="#63b8ff" d="M668.03,-167.26C598.31,-158.78 469.97,-143.05 360.5,-129 355.72,-128.39 350.74,-127.74 345.76,-127.09"/>
<polygon fill="#63b8ff" stroke="#63b8ff" points="667.95,-170.78 678.3,-168.51 668.79,-163.83 667.95,-170.78"/>
</a>
</g>
</g>
<!-- Node4 -->
<g id="Node000004" class="node">
<title>Node4</title>
<g id="a_Node000004"><a xlink:href="console__writer_8cpp.html" target="_top" xlink:title=" ">
<polygon fill="white" stroke="#666666" points="474,-74 367,-74 367,-55 474,-55 474,-74"/>
<text text-anchor="middle" x="420.5" y="-62" font-family="Helvetica,sans-Serif" font-size="10.00">console_writer.cpp</text>
</a>
</g>
</g>
<!-- Node3&#45;&gt;Node4 -->
<g id="edge3_Node000003_Node000004" class="edge">
<title>Node3&#45;&gt;Node4</title>
<g id="a_edge3_Node000003_Node000004"><a xlink:title=" ">
<path fill="none" stroke="#63b8ff" d="M418.57,-99.66C419.06,-90.93 419.62,-80.99 420.01,-74.09"/>
<polygon fill="#63b8ff" stroke="#63b8ff" points="415.07,-99.57 418,-109.75 422.06,-99.96 415.07,-99.57"/>
</a>
</g>
</g>
<!-- Node6 -->
<g id="Node000006" class="node">
<title>Node6</title>
<g id="a_Node000006"><a xlink:href="encrypted__writer_8cpp.html" target="_top" xlink:title=" ">
<polygon fill="white" stroke="#666666" points="611,-74 492,-74 492,-55 611,-55 611,-74"/>
<text text-anchor="middle" x="551.5" y="-62" font-family="Helvetica,sans-Serif" font-size="10.00">encrypted_writer.cpp</text>
</a>
</g>
</g>
<!-- Node5&#45;&gt;Node6 -->
<g id="edge5_Node000005_Node000006" class="edge">
<title>Node5&#45;&gt;Node6</title>
<g id="a_edge5_Node000005_Node000006"><a xlink:title=" ">
<path fill="none" stroke="#63b8ff" d="M542.4,-99.95C544.72,-91.15 547.39,-81.06 549.23,-74.09"/>
<polygon fill="#63b8ff" stroke="#63b8ff" points="538.98,-99.19 539.81,-109.75 545.75,-100.97 538.98,-99.19"/>
</a>
</g>
</g>
<!-- Node8 -->
<g id="Node000008" class="node">
<title>Node8</title>
<g id="a_Node000008"><a xlink:href="file__writer_8cpp.html" target="_top" xlink:title=" ">
<polygon fill="white" stroke="#666666" points="85,-74 0,-74 0,-55 85,-55 85,-74"/>
<text text-anchor="middle" x="42.5" y="-62" font-family="Helvetica,sans-Serif" font-size="10.00">file_writer.cpp</text>
</a>
</g>
</g>
<!-- Node7&#45;&gt;Node8 -->
<g id="edge7_Node000007_Node000008" class="edge">
<title>Node7&#45;&gt;Node8</title>
<g id="a_edge7_Node000007_Node000008"><a xlink:title=" ">
<path fill="none" stroke="#63b8ff" d="M133.2,-105.9C111.22,-96.11 81.32,-82.79 61.97,-74.17"/>
<polygon fill="#63b8ff" stroke="#63b8ff" points="131.82,-109.11 142.38,-109.98 134.67,-102.72 131.82,-109.11"/>
</a>
</g>
</g>
<!-- Node9 -->
<g id="Node000009" class="node">
<title>Node9</title>
<g id="a_Node000009"><a xlink:href="rotating__file__writer_8h.html" target="_top" xlink:title=" ">
<polygon fill="white" stroke="#666666" points="220,-74 103,-74 103,-55 220,-55 220,-74"/>
<text text-anchor="middle" x="161.5" y="-62" font-family="Helvetica,sans-Serif" font-size="10.00">rotating_file_writer.h</text>
</a>
</g>
</g>
<!-- Node7&#45;&gt;Node9 -->
<g id="edge8_Node000007_Node000009" class="edge">
<title>Node7&#45;&gt;Node9</title>
<g id="a_edge8_Node000007_Node000009"><a xlink:title=" ">
<path fill="none" stroke="#63b8ff" d="M161.5,-99.66C161.5,-90.93 161.5,-80.99 161.5,-74.09"/>
<polygon fill="#63b8ff" stroke="#63b8ff" points="158,-99.75 161.5,-109.75 165,-99.75 158,-99.75"/>
</a>
</g>
</g>
<!-- Node10 -->
<g id="Node000010" class="node">
<title>Node10</title>
<g id="a_Node000010"><a xlink:href="rotating__file__writer_8cpp.html" target="_top" xlink:title=" ">
<polygon fill="white" stroke="#666666" points="225.5,-19 97.5,-19 97.5,0 225.5,0 225.5,-19"/>
<text text-anchor="middle" x="161.5" y="-7" font-family="Helvetica,sans-Serif" font-size="10.00">rotating_file_writer.cpp</text>
</a>
</g>
</g>
<!-- Node9&#45;&gt;Node10 -->
<g id="edge9_Node000009_Node000010" class="edge">
<title>Node9&#45;&gt;Node10</title>
<g id="a_edge9_Node000009_Node000010"><a xlink:title=" ">
<path fill="none" stroke="#63b8ff" d="M161.5,-44.66C161.5,-35.93 161.5,-25.99 161.5,-19.09"/>
<polygon fill="#63b8ff" stroke="#63b8ff" points="158,-44.75 161.5,-54.75 165,-44.75 158,-44.75"/>
</a>
</g>
</g>
<!-- Node13&#45;&gt;Node14 -->
<g id="edge13_Node000013_Node000014" class="edge">
<title>Node13&#45;&gt;Node14</title>
<g id="a_edge13_Node000013_Node000014"><a xlink:title=" ">
<path fill="none" stroke="#63b8ff" d="M980.77,-103.6C992.42,-94.11 1007.1,-82.13 1016.87,-74.17"/>
<polygon fill="#63b8ff" stroke="#63b8ff" points="978.48,-100.95 972.94,-109.98 982.91,-106.38 978.48,-100.95"/>
</a>
</g>
</g>
<!-- Node17 -->
<g id="Node000017" class="node">
<title>Node17</title>
<g id="a_Node000017"><a xlink:href="network__writer_8cpp.html" target="_top" xlink:title=" ">
<polygon fill="white" stroke="#666666" points="348.5,-74 238.5,-74 238.5,-55 348.5,-55 348.5,-74"/>
<text text-anchor="middle" x="293.5" y="-62" font-family="Helvetica,sans-Serif" font-size="10.00">network_writer.cpp</text>
</a>
</g>
</g>
<!-- Node16&#45;&gt;Node17 -->
<g id="edge17_Node000016_Node000017" class="edge">
<title>Node16&#45;&gt;Node17</title>
<g id="a_edge17_Node000016_Node000017"><a xlink:title=" ">
<path fill="none" stroke="#63b8ff" d="M295.43,-99.66C294.94,-90.93 294.38,-80.99 293.99,-74.09"/>
<polygon fill="#63b8ff" stroke="#63b8ff" points="291.94,-99.96 296,-109.75 298.93,-99.57 291.94,-99.96"/>
</a>
</g>
</g>
<!-- Node19 -->
<g id="Node000019" class="node">
<title>Node19</title>
<g id="a_Node000019"><a xlink:href="log__analyzer_8cpp.html" target="_top" xlink:title=" ">
<polygon fill="white" stroke="#666666" points="1520.5,-184 1422.5,-184 1422.5,-165 1520.5,-165 1520.5,-184"/>
<text text-anchor="middle" x="1471.5" y="-172" font-family="Helvetica,sans-Serif" font-size="10.00">log_analyzer.cpp</text>
</a>
</g>
</g>
<!-- Node18&#45;&gt;Node19 -->
<g id="edge19_Node000018_Node000019" class="edge">
<title>Node18&#45;&gt;Node19</title>
<g id="a_edge19_Node000018_Node000019"><a xlink:title=" ">
<path fill="none" stroke="#63b8ff" d="M1366.83,-216.29C1392.04,-206.47 1426.83,-192.91 1449.25,-184.17"/>
<polygon fill="#63b8ff" stroke="#63b8ff" points="1365.4,-213.09 1357.35,-219.98 1367.94,-219.61 1365.4,-213.09"/>
</a>
</g>
</g>
<!-- Node20&#45;&gt;Node11 -->
<g id="edge21_Node000020_Node000011" class="edge">
<title>Node20&#45;&gt;Node11</title>
<g id="a_edge21_Node000020_Node000011"><a xlink:title=" ">
<path fill="none" stroke="#63b8ff" d="M811.73,-160.9C789.38,-151.11 758.98,-137.79 739.29,-129.17"/>
<polygon fill="#63b8ff" stroke="#63b8ff" points="810.5,-164.18 821.06,-164.98 813.3,-157.77 810.5,-164.18"/>
</a>
</g>
</g>
<!-- Node20&#45;&gt;Node12 -->
<g id="edge22_Node000020_Node000012" class="edge">
<title>Node20&#45;&gt;Node12</title>
<g id="a_edge22_Node000020_Node000012"><a xlink:title=" ">
<path fill="none" stroke="#63b8ff" d="M846.7,-155.24C849.71,-146.37 853.19,-136.14 855.58,-129.09"/>
<polygon fill="#63b8ff" stroke="#63b8ff" points="843.37,-154.15 843.47,-164.75 850,-156.4 843.37,-154.15"/>
</a>
</g>
</g>
<!-- Node20&#45;&gt;Node14 -->
<g id="edge23_Node000020_Node000014" class="edge">
<title>Node20&#45;&gt;Node14</title>
<g id="a_edge23_Node000020_Node000014"><a xlink:title=" ">
<path fill="none" stroke="#63b8ff" d="M894.32,-165.1C937.04,-157.39 992.2,-144.79 1008.5,-129 1023.71,-114.27 1026.87,-87.91 1027.45,-74.25"/>
<polygon fill="#63b8ff" stroke="#63b8ff" points="893.56,-161.68 884.31,-166.85 894.77,-168.57 893.56,-161.68"/>
</a>
</g>
</g>
<!-- Node21&#45;&gt;Node2 -->
<g id="edge26_Node000021_Node000002" class="edge">
<title>Node21&#45;&gt;Node2</title>
<g id="a_edge26_Node000021_Node000002"><a xlink:title=" ">
<path fill="none" stroke="#63b8ff" d="M945.51,-219.7C894.09,-209.64 810.62,-193.32 760.79,-183.58"/>
<polygon fill="#63b8ff" stroke="#63b8ff" points="944.86,-223.14 955.35,-221.63 946.21,-216.27 944.86,-223.14"/>
</a>
</g>
</g>
<!-- Node21&#45;&gt;Node12 -->
<g id="edge27_Node000021_Node000012" class="edge">
<title>Node21&#45;&gt;Node12</title>
<g id="a_edge27_Node000021_Node000012"><a xlink:title=" ">
<path fill="none" stroke="#63b8ff" d="M970.43,-213.9C958.89,-205.38 944.21,-194.3 931.5,-184 908.27,-165.17 882.05,-141.83 868.23,-129.35"/>
<polygon fill="#63b8ff" stroke="#63b8ff" points="968.43,-216.77 978.56,-219.87 972.57,-211.13 968.43,-216.77"/>
</a>
</g>
</g>
<!-- Node22 -->
<g id="Node000022" class="node">
<title>Node22</title>
<g id="a_Node000022"><a xlink:href="base__formatter_8h.html" target="_top" xlink:title=" ">
<polygon fill="white" stroke="#666666" points="1040.5,-184 940.5,-184 940.5,-165 1040.5,-165 1040.5,-184"/>
<text text-anchor="middle" x="990.5" y="-172" font-family="Helvetica,sans-Serif" font-size="10.00">base_formatter.h</text>
</a>
</g>
</g>
<!-- Node21&#45;&gt;Node22 -->
<g id="edge25_Node000021_Node000022" class="edge">
<title>Node21&#45;&gt;Node22</title>
<g id="a_edge25_Node000021_Node000022"><a xlink:title=" ">
<path fill="none" stroke="#63b8ff" d="M990.5,-209.66C990.5,-200.93 990.5,-190.99 990.5,-184.09"/>
<polygon fill="#63b8ff" stroke="#63b8ff" points="987,-209.75 990.5,-219.75 994,-209.75 987,-209.75"/>
</a>
</g>
</g>
<!-- Node21&#45;&gt;Node23 -->
<g id="edge28_Node000021_Node000023" class="edge">
<title>Node21&#45;&gt;Node23</title>
<g id="a_edge28_Node000021_Node000023"><a xlink:title=" ">
<path fill="none" stroke="#63b8ff" d="M1015.77,-215.37C1034.51,-205.63 1059.52,-192.64 1075.81,-184.17"/>
<polygon fill="#63b8ff" stroke="#63b8ff" points="1014.15,-212.27 1006.89,-219.98 1017.38,-218.48 1014.15,-212.27"/>
</a>
</g>
</g>
<!-- Node23&#45;&gt;Node13 -->
<g id="edge29_Node000023_Node000013" class="edge">
<title>Node23&#45;&gt;Node13</title>
<g id="a_edge29_Node000023_Node000013"><a xlink:title=" ">
<path fill="none" stroke="#63b8ff" d="M1062.23,-161.16C1038.16,-151.35 1005.1,-137.87 983.77,-129.17"/>
<polygon fill="#63b8ff" stroke="#63b8ff" points="1061.03,-164.45 1071.61,-164.98 1063.67,-157.97 1061.03,-164.45"/>
</a>
</g>
</g>
<!-- Node23&#45;&gt;Node14 -->
<g id="edge32_Node000023_Node000014" class="edge">
<title>Node23&#45;&gt;Node14</title>
<g id="a_edge32_Node000023_Node000014"><a xlink:title=" ">
<path fill="none" stroke="#63b8ff" d="M1082.01,-156.07C1067.91,-132.64 1043.38,-91.89 1032.71,-74.16"/>
<polygon fill="#63b8ff" stroke="#63b8ff" points="1079.03,-157.9 1087.18,-164.66 1085.02,-154.29 1079.03,-157.9"/>
</a>
</g>
</g>
<!-- Node23&#45;&gt;Node15 -->
<g id="edge33_Node000023_Node000015" class="edge">
<title>Node23&#45;&gt;Node15</title>
<g id="a_edge33_Node000023_Node000015"><a xlink:title=" ">
<path fill="none" stroke="#63b8ff" d="M1126.88,-161.67C1155.59,-151.79 1195.86,-137.93 1221.56,-129.08"/>
<polygon fill="#63b8ff" stroke="#63b8ff" points="1125.56,-158.42 1117.24,-164.98 1127.84,-165.04 1125.56,-158.42"/>
</a>
</g>
</g>
<!-- Node24 -->
<g id="Node000024" class="node">
<title>Node24</title>
<g id="a_Node000024"><a xlink:href="log__sanitizer_8h.html" target="_top" xlink:title=" ">
<polygon fill="white" stroke="#666666" points="1181,-129 1094,-129 1094,-110 1181,-110 1181,-129"/>
<text text-anchor="middle" x="1137.5" y="-117" font-family="Helvetica,sans-Serif" font-size="10.00">log_sanitizer.h</text>
</a>
</g>
</g>
<!-- Node23&#45;&gt;Node24 -->
<g id="edge30_Node000023_Node000024" class="edge">
<title>Node23&#45;&gt;Node24</title>
<g id="a_edge30_Node000023_Node000024"><a xlink:title=" ">
<path fill="none" stroke="#63b8ff" d="M1106.55,-156.96C1114.39,-147.72 1123.83,-136.6 1130.21,-129.09"/>
<polygon fill="#63b8ff" stroke="#63b8ff" points="1103.74,-154.86 1099.93,-164.75 1109.07,-159.39 1103.74,-154.86"/>
</a>
</g>
</g>
<!-- Node25 -->
<g id="Node000025" class="node">
<title>Node25</title>
<g id="a_Node000025"><a xlink:href="log__sanitizer_8cpp.html" target="_top" xlink:title=" ">
<polygon fill="white" stroke="#666666" points="1186.5,-74 1088.5,-74 1088.5,-55 1186.5,-55 1186.5,-74"/>
<text text-anchor="middle" x="1137.5" y="-62" font-family="Helvetica,sans-Serif" font-size="10.00">log_sanitizer.cpp</text>
</a>
</g>
</g>
<!-- Node24&#45;&gt;Node25 -->
<g id="edge31_Node000024_Node000025" class="edge">
<title>Node24&#45;&gt;Node25</title>
<g id="a_edge31_Node000024_Node000025"><a xlink:title=" ">
<path fill="none" stroke="#63b8ff" d="M1137.5,-99.66C1137.5,-90.93 1137.5,-80.99 1137.5,-74.09"/>
<polygon fill="#63b8ff" stroke="#63b8ff" points="1134,-99.75 1137.5,-109.75 1141,-99.75 1134,-99.75"/>
</a>
</g>
</g>
<!-- Node26&#45;&gt;Node14 -->
<g id="edge36_Node000026_Node000014" class="edge">
<title>Node26&#45;&gt;Node14</title>
<g id="a_edge36_Node000026_Node000014"><a xlink:title=" ">
<path fill="none" stroke="#63b8ff" d="M1210.6,-168.7C1258.52,-161.16 1331.25,-143.76 1302.5,-110 1269.96,-71.78 1129.05,-82.05 1079.5,-74 1073.54,-73.03 1067.2,-72 1061.07,-71"/>
<polygon fill="#63b8ff" stroke="#63b8ff" points="1209.88,-165.27 1200.51,-170.21 1210.91,-172.2 1209.88,-165.27"/>
</a>
</g>
</g>
<!-- Node26&#45;&gt;Node15 -->
<g id="edge37_Node000026_Node000015" class="edge">
<title>Node26&#45;&gt;Node15</title>
<g id="a_edge37_Node000026_Node000015"><a xlink:title=" ">
<path fill="none" stroke="#63b8ff" d="M1192.53,-159.15C1205.91,-149.57 1223.06,-137.29 1234.39,-129.17"/>
<polygon fill="#63b8ff" stroke="#63b8ff" points="1190.48,-156.32 1184.39,-164.98 1194.56,-162.01 1190.48,-156.32"/>
</a>
</g>
</g>
<!-- Node27&#45;&gt;Node15 -->
<g id="edge41_Node000027_Node000015" class="edge">
<title>Node27&#45;&gt;Node15</title>
<g id="a_edge41_Node000027_Node000015"><a xlink:title=" ">
<path fill="none" stroke="#63b8ff" d="M1231.67,-209.48C1235.61,-185.84 1242.17,-146.5 1245.06,-129.16"/>
<polygon fill="#63b8ff" stroke="#63b8ff" points="1228.16,-209.22 1229.97,-219.66 1235.07,-210.37 1228.16,-209.22"/>
</a>
</g>
</g>
<!-- Node28 -->
<g id="Node000028" class="node">
<title>Node28</title>
<g id="a_Node000028"><a xlink:href="config__strategy__interface_8h.html" target="_top" xlink:title=" ">
<polygon fill="white" stroke="#666666" points="1405,-184 1256,-184 1256,-165 1405,-165 1405,-184"/>
<text text-anchor="middle" x="1330.5" y="-172" font-family="Helvetica,sans-Serif" font-size="10.00">config_strategy_interface.h</text>
</a>
</g>
</g>
<!-- Node27&#45;&gt;Node28 -->
<g id="edge39_Node000027_Node000028" class="edge">
<title>Node27&#45;&gt;Node28</title>
<g id="a_edge39_Node000027_Node000028"><a xlink:title=" ">
<path fill="none" stroke="#63b8ff" d="M1253.77,-215.37C1272.51,-205.63 1297.52,-192.64 1313.81,-184.17"/>
<polygon fill="#63b8ff" stroke="#63b8ff" points="1252.15,-212.27 1244.89,-219.98 1255.38,-218.48 1252.15,-212.27"/>
</a>
</g>
</g>
<!-- Node28&#45;&gt;Node15 -->
<g id="edge40_Node000028_Node000015" class="edge">
<title>Node28&#45;&gt;Node15</title>
<g id="a_edge40_Node000028_Node000015"><a xlink:title=" ">
<path fill="none" stroke="#63b8ff" d="M1308.19,-159.42C1292.95,-149.81 1273.23,-137.37 1260.24,-129.17"/>
<polygon fill="#63b8ff" stroke="#63b8ff" points="1306.68,-162.61 1317,-164.98 1310.41,-156.69 1306.68,-162.61"/>
</a>
</g>
</g>
<!-- Node30 -->
<g id="Node000030" class="node">
<title>Node30</title>
<g id="a_Node000030"><a xlink:href="overflow__policy_8cpp.html" target="_top" xlink:title=" ">
<polygon fill="white" stroke="#666666" points="1650.5,-184 1538.5,-184 1538.5,-165 1650.5,-165 1650.5,-184"/>
<text text-anchor="middle" x="1594.5" y="-172" font-family="Helvetica,sans-Serif" font-size="10.00">overflow_policy.cpp</text>
</a>
</g>
</g>
<!-- Node29&#45;&gt;Node30 -->
<g id="edge43_Node000029_Node000030" class="edge">
<title>Node29&#45;&gt;Node30</title>
<g id="a_edge43_Node000029_Node000030"><a xlink:title=" ">
<path fill="none" stroke="#63b8ff" d="M1480.64,-216.55C1507.94,-206.71 1546,-192.98 1570.45,-184.17"/>
<polygon fill="#63b8ff" stroke="#63b8ff" points="1479.34,-213.3 1471.12,-219.98 1481.71,-219.89 1479.34,-213.3"/>
</a>
</g>
</g>
</g>
</svg>
