<?xml version="1.0" encoding="UTF-8" standalone="no"?>
<!DOCTYPE svg PUBLIC "-//W3C//DTD SVG 1.1//EN"
 "http://www.w3.org/Graphics/SVG/1.1/DTD/svg11.dtd">
<!-- Generated by graphviz version 2.43.0 (0)
 -->
<!-- Title: logger_builder.h Pages: 1 -->
<svg width="1312pt" height="280pt"
 viewBox="0.00 0.00 1311.99 280.00" xmlns="http://www.w3.org/2000/svg" xmlns:xlink="http://www.w3.org/1999/xlink">
<g id="graph0" class="graph" transform="scale(1 1) rotate(0) translate(4 276)">
<title>logger_builder.h</title>
<!-- Node1 -->
<g id="Node000001" class="node">
<title>Node1</title>
<g id="a_Node000001"><a xlink:title=" ">
<polygon fill="#999999" stroke="#666666" points="767.7,-272 672.7,-272 672.7,-253 767.7,-253 767.7,-272"/>
<text text-anchor="middle" x="720.2" y="-260" font-family="Helvetica,sans-Serif" font-size="10.00">logger_builder.h</text>
</a>
</g>
</g>
<!-- Node2 -->
<g id="Node000002" class="node">
<title>Node2</title>
<g id="a_Node000002"><a xlink:href="logger__config_8h.html" target="_top" xlink:title=" ">
<polygon fill="white" stroke="#666666" points="283.7,-145.5 192.7,-145.5 192.7,-126.5 283.7,-126.5 283.7,-145.5"/>
<text text-anchor="middle" x="238.2" y="-133.5" font-family="Helvetica,sans-Serif" font-size="10.00">logger_config.h</text>
</a>
</g>
</g>
<!-- Node1&#45;&gt;Node2 -->
<g id="edge1_Node000001_Node000002" class="edge">
<title>Node1&#45;&gt;Node2</title>
<g id="a_edge1_Node000001_Node000002"><a xlink:title=" ">
<path fill="none" stroke="#63b8ff" d="M672.46,-259.32C564.62,-254.01 309.11,-239.24 277.2,-217 256.54,-202.6 246.38,-174.1 241.72,-155.3"/>
<polygon fill="#63b8ff" stroke="#63b8ff" points="245.14,-154.55 239.58,-145.53 238.3,-156.05 245.14,-154.55"/>
</a>
</g>
</g>
<!-- Node10 -->
<g id="Node000010" class="node">
<title>Node10</title>
<g id="a_Node000010"><a xlink:title=" ">
<polygon fill="#e0e0e0" stroke="#999999" points="1186.2,-19 1128.2,-19 1128.2,0 1186.2,0 1186.2,-19"/>
<text text-anchor="middle" x="1157.2" y="-7" font-family="Helvetica,sans-Serif" font-size="10.00">memory</text>
</a>
</g>
</g>
<!-- Node1&#45;&gt;Node10 -->
<g id="edge52_Node000001_Node000010" class="edge">
<title>Node1&#45;&gt;Node10</title>
<g id="a_edge52_Node000001_Node000010"><a xlink:title=" ">
<path fill="none" stroke="#63b8ff" d="M767.9,-260.49C894.93,-256.62 1235.8,-238.15 1295.2,-151 1331.65,-97.52 1238.74,-46.31 1187.85,-23.25"/>
<polygon fill="#63b8ff" stroke="#63b8ff" points="1189.14,-20 1178.58,-19.15 1186.31,-26.4 1189.14,-20"/>
</a>
</g>
</g>
<!-- Node12 -->
<g id="Node000012" class="node">
<title>Node12</title>
<g id="a_Node000012"><a xlink:href="logger_8h.html" target="_top" xlink:title=" ">
<polygon fill="white" stroke="#666666" points="1060.7,-211.5 995.7,-211.5 995.7,-192.5 1060.7,-192.5 1060.7,-211.5"/>
<text text-anchor="middle" x="1028.2" y="-199.5" font-family="Helvetica,sans-Serif" font-size="10.00">../logger.h</text>
</a>
</g>
</g>
<!-- Node1&#45;&gt;Node12 -->
<g id="edge13_Node000001_Node000012" class="edge">
<title>Node1&#45;&gt;Node12</title>
<g id="a_edge13_Node000001_Node000012"><a xlink:title=" ">
<path fill="none" stroke="#63b8ff" d="M764.99,-252.99C824.17,-241.75 927.68,-222.09 985.69,-211.07"/>
<polygon fill="#63b8ff" stroke="#63b8ff" points="986.46,-214.49 995.63,-209.19 985.15,-207.61 986.46,-214.49"/>
</a>
</g>
</g>
<!-- Node13 -->
<g id="Node000013" class="node">
<title>Node13</title>
<g id="a_Node000013"><a xlink:title=" ">
<polygon fill="#e0e0e0" stroke="#999999" points="1285.7,-145.5 1238.7,-145.5 1238.7,-126.5 1285.7,-126.5 1285.7,-145.5"/>
<text text-anchor="middle" x="1262.2" y="-133.5" font-family="Helvetica,sans-Serif" font-size="10.00">vector</text>
</a>
</g>
</g>
<!-- Node1&#45;&gt;Node13 -->
<g id="edge53_Node000001_Node000013" class="edge">
<title>Node1&#45;&gt;Node13</title>
<g id="a_edge53_Node000001_Node000013"><a xlink:title=" ">
<path fill="none" stroke="#63b8ff" d="M767.96,-259.48C836.07,-255.69 964.56,-245.17 1070.2,-217 1132.07,-200.5 1200.35,-168.47 1236.48,-150.35"/>
<polygon fill="#63b8ff" stroke="#63b8ff" points="1238.45,-153.27 1245.78,-145.63 1235.28,-147.03 1238.45,-153.27"/>
</a>
</g>
</g>
<!-- Node19 -->
<g id="Node000019" class="node">
<title>Node19</title>
<g id="a_Node000019"><a xlink:href="base__writer_8h.html" target="_top" xlink:title=" ">
<polygon fill="white" stroke="#666666" points="414.2,-211.5 286.2,-211.5 286.2,-192.5 414.2,-192.5 414.2,-211.5"/>
<text text-anchor="middle" x="350.2" y="-199.5" font-family="Helvetica,sans-Serif" font-size="10.00">../writers/base_writer.h</text>
</a>
</g>
</g>
<!-- Node1&#45;&gt;Node19 -->
<g id="edge27_Node000001_Node000019" class="edge">
<title>Node1&#45;&gt;Node19</title>
<g id="a_edge27_Node000001_Node000019"><a xlink:title=" ">
<path fill="none" stroke="#63b8ff" d="M672.59,-253.97C606.78,-243.57 487.86,-224.76 414.3,-213.13"/>
<polygon fill="#63b8ff" stroke="#63b8ff" points="414.65,-209.65 404.23,-211.54 413.56,-216.56 414.65,-209.65"/>
</a>
</g>
</g>
<!-- Node22 -->
<g id="Node000022" class="node">
<title>Node22</title>
<g id="a_Node000022"><a xlink:href="log__filter_8h.html" target="_top" xlink:title=" ">
<polygon fill="white" stroke="#666666" points="773.7,-211.5 666.7,-211.5 666.7,-192.5 773.7,-192.5 773.7,-211.5"/>
<text text-anchor="middle" x="720.2" y="-199.5" font-family="Helvetica,sans-Serif" font-size="10.00">../filters/log_filter.h</text>
</a>
</g>
</g>
<!-- Node1&#45;&gt;Node22 -->
<g id="edge41_Node000001_Node000022" class="edge">
<title>Node1&#45;&gt;Node22</title>
<g id="a_edge41_Node000001_Node000022"><a xlink:title=" ">
<path fill="none" stroke="#63b8ff" d="M720.2,-252.87C720.2,-244.75 720.2,-232.31 720.2,-221.89"/>
<polygon fill="#63b8ff" stroke="#63b8ff" points="723.7,-221.67 720.2,-211.67 716.7,-221.67 723.7,-221.67"/>
</a>
</g>
</g>
<!-- Node26 -->
<g id="Node000026" class="node">
<title>Node26</title>
<g id="a_Node000026"><a xlink:href="log__formatter__interface_8h.html" target="_top" xlink:title=" ">
<polygon fill="white" stroke="#666666" points="648.2,-217 504.2,-217 504.2,-187 648.2,-187 648.2,-217"/>
<text text-anchor="start" x="512.2" y="-205" font-family="Helvetica,sans-Serif" font-size="10.00">../interfaces/log_formatter</text>
<text text-anchor="middle" x="576.2" y="-194" font-family="Helvetica,sans-Serif" font-size="10.00">_interface.h</text>
</a>
</g>
</g>
<!-- Node1&#45;&gt;Node26 -->
<g id="edge50_Node000001_Node000026" class="edge">
<title>Node1&#45;&gt;Node26</title>
<g id="a_edge50_Node000001_Node000026"><a xlink:title=" ">
<path fill="none" stroke="#63b8ff" d="M699.26,-252.99C678.63,-244.61 646.47,-231.55 620.2,-220.87"/>
<polygon fill="#63b8ff" stroke="#63b8ff" points="621.4,-217.59 610.82,-217.06 618.77,-224.07 621.4,-217.59"/>
</a>
</g>
</g>
<!-- Node3 -->
<g id="Node000003" class="node">
<title>Node3</title>
<g id="a_Node000003"><a xlink:title=" ">
<polygon fill="#e0e0e0" stroke="#999999" points="337.2,-79.5 287.2,-79.5 287.2,-60.5 337.2,-60.5 337.2,-79.5"/>
<text text-anchor="middle" x="312.2" y="-67.5" font-family="Helvetica,sans-Serif" font-size="10.00">chrono</text>
</a>
</g>
</g>
<!-- Node2&#45;&gt;Node3 -->
<g id="edge2_Node000002_Node000003" class="edge">
<title>Node2&#45;&gt;Node3</title>
<g id="a_edge2_Node000002_Node000003"><a xlink:title=" ">
<path fill="none" stroke="#63b8ff" d="M248.18,-126.37C259.92,-116.21 279.64,-99.16 294.1,-86.65"/>
<polygon fill="#63b8ff" stroke="#63b8ff" points="296.63,-89.09 301.9,-79.91 292.05,-83.8 296.63,-89.09"/>
</a>
</g>
</g>
<!-- Node4 -->
<g id="Node000004" class="node">
<title>Node4</title>
<g id="a_Node000004"><a xlink:title=" ">
<polygon fill="#e0e0e0" stroke="#999999" points="520.2,-19 476.2,-19 476.2,0 520.2,0 520.2,-19"/>
<text text-anchor="middle" x="498.2" y="-7" font-family="Helvetica,sans-Serif" font-size="10.00">string</text>
</a>
</g>
</g>
<!-- Node2&#45;&gt;Node4 -->
<g id="edge3_Node000002_Node000004" class="edge">
<title>Node2&#45;&gt;Node4</title>
<g id="a_edge3_Node000002_Node000004"><a xlink:title=" ">
<path fill="none" stroke="#63b8ff" d="M239.89,-126.42C243.64,-109.81 254.28,-73.31 278.2,-55 307.28,-32.74 412.27,-19.18 466.01,-13.54"/>
<polygon fill="#63b8ff" stroke="#63b8ff" points="466.44,-17.02 476.04,-12.52 465.73,-10.05 466.44,-17.02"/>
</a>
</g>
</g>
<!-- Node5 -->
<g id="Node000005" class="node">
<title>Node5</title>
<g id="a_Node000005"><a xlink:title=" ">
<polygon fill="#e0e0e0" stroke="#999999" points="231.2,-79.5 187.2,-79.5 187.2,-60.5 231.2,-60.5 231.2,-79.5"/>
<text text-anchor="middle" x="209.2" y="-67.5" font-family="Helvetica,sans-Serif" font-size="10.00">limits</text>
</a>
</g>
</g>
<!-- Node2&#45;&gt;Node5 -->
<g id="edge4_Node000002_Node000005" class="edge">
<title>Node2&#45;&gt;Node5</title>
<g id="a_edge4_Node000002_Node000005"><a xlink:title=" ">
<path fill="none" stroke="#63b8ff" d="M234.29,-126.37C229.99,-116.88 222.96,-101.36 217.43,-89.16"/>
<polygon fill="#63b8ff" stroke="#63b8ff" points="220.55,-87.57 213.24,-79.91 214.18,-90.46 220.55,-87.57"/>
</a>
</g>
</g>
<!-- Node6 -->
<g id="Node000006" class="node">
<title>Node6</title>
<g id="a_Node000006"><a xlink:href="error__codes_8h.html" target="_top" xlink:title=" ">
<polygon fill="white" stroke="#666666" points="131.2,-79.5 39.2,-79.5 39.2,-60.5 131.2,-60.5 131.2,-79.5"/>
<text text-anchor="middle" x="85.2" y="-67.5" font-family="Helvetica,sans-Serif" font-size="10.00">../error_codes.h</text>
</a>
</g>
</g>
<!-- Node2&#45;&gt;Node6 -->
<g id="edge5_Node000002_Node000006" class="edge">
<title>Node2&#45;&gt;Node6</title>
<g id="a_edge5_Node000002_Node000006"><a xlink:title=" ">
<path fill="none" stroke="#63b8ff" d="M217.57,-126.37C191.33,-115.39 145.82,-96.36 115.61,-83.72"/>
<polygon fill="#63b8ff" stroke="#63b8ff" points="116.57,-80.33 106,-79.7 113.87,-86.79 116.57,-80.33"/>
</a>
</g>
</g>
<!-- Node9 -->
<g id="Node000009" class="node">
<title>Node9</title>
<g id="a_Node000009"><a xlink:href="logger__interface_8h.html" target="_top" xlink:title=" ">
<polygon fill="white" stroke="#666666" points="820.2,-79.5 706.2,-79.5 706.2,-60.5 820.2,-60.5 820.2,-79.5"/>
<text text-anchor="middle" x="763.2" y="-67.5" font-family="Helvetica,sans-Serif" font-size="10.00">../logger_interface.h</text>
</a>
</g>
</g>
<!-- Node2&#45;&gt;Node9 -->
<g id="edge9_Node000002_Node000009" class="edge">
<title>Node2&#45;&gt;Node9</title>
<g id="a_edge9_Node000002_Node000009"><a xlink:title=" ">
<path fill="none" stroke="#63b8ff" d="M283.97,-130.08C398.12,-117.79 687.05,-86.63 697.2,-85 703.42,-84 709.95,-82.81 716.37,-81.54"/>
<polygon fill="#63b8ff" stroke="#63b8ff" points="717.22,-84.94 726.32,-79.51 715.82,-78.08 717.22,-84.94"/>
</a>
</g>
</g>
<!-- Node6&#45;&gt;Node4 -->
<g id="edge6_Node000006_Node000004" class="edge">
<title>Node6&#45;&gt;Node4</title>
<g id="a_edge6_Node000006_Node000004"><a xlink:title=" ">
<path fill="none" stroke="#63b8ff" d="M119.03,-60.46C127.53,-58.49 136.67,-56.53 145.2,-55 262.74,-33.94 404.06,-19.31 466.21,-13.41"/>
<polygon fill="#63b8ff" stroke="#63b8ff" points="466.56,-16.89 476.19,-12.47 465.9,-9.92 466.56,-16.89"/>
</a>
</g>
</g>
<!-- Node7 -->
<g id="Node000007" class="node">
<title>Node7</title>
<g id="a_Node000007"><a xlink:title=" ">
<polygon fill="#e0e0e0" stroke="#999999" points="311.2,-19 255.2,-19 255.2,0 311.2,0 311.2,-19"/>
<text text-anchor="middle" x="283.2" y="-7" font-family="Helvetica,sans-Serif" font-size="10.00">optional</text>
</a>
</g>
</g>
<!-- Node6&#45;&gt;Node7 -->
<g id="edge7_Node000006_Node000007" class="edge">
<title>Node6&#45;&gt;Node7</title>
<g id="a_edge7_Node000006_Node000007"><a xlink:title=" ">
<path fill="none" stroke="#63b8ff" d="M113.99,-60.49C148.65,-50.25 206.96,-33.03 245.26,-21.71"/>
<polygon fill="#63b8ff" stroke="#63b8ff" points="246.42,-25.02 255.02,-18.83 244.43,-18.3 246.42,-25.02"/>
</a>
</g>
</g>
<!-- Node8 -->
<g id="Node000008" class="node">
<title>Node8</title>
<g id="a_Node000008"><a xlink:title=" ">
<polygon fill="#e0e0e0" stroke="#999999" points="110.7,-19 59.7,-19 59.7,0 110.7,0 110.7,-19"/>
<text text-anchor="middle" x="85.2" y="-7" font-family="Helvetica,sans-Serif" font-size="10.00">variant</text>
</a>
</g>
</g>
<!-- Node6&#45;&gt;Node8 -->
<g id="edge8_Node000006_Node000008" class="edge">
<title>Node6&#45;&gt;Node8</title>
<g id="a_edge8_Node000006_Node000008"><a xlink:title=" ">
<path fill="none" stroke="#63b8ff" d="M85.2,-60.37C85.2,-52.25 85.2,-39.81 85.2,-29.39"/>
<polygon fill="#63b8ff" stroke="#63b8ff" points="88.7,-29.17 85.2,-19.17 81.7,-29.17 88.7,-29.17"/>
</a>
</g>
</g>
<!-- Node9&#45;&gt;Node4 -->
<g id="edge12_Node000009_Node000004" class="edge">
<title>Node9&#45;&gt;Node4</title>
<g id="a_edge12_Node000009_Node000004"><a xlink:title=" ">
<path fill="none" stroke="#63b8ff" d="M724.67,-60.49C672.24,-48.92 579.38,-28.42 530.45,-17.62"/>
<polygon fill="#63b8ff" stroke="#63b8ff" points="530.94,-14.14 520.42,-15.4 529.43,-20.98 530.94,-14.14"/>
</a>
</g>
</g>
<!-- Node9&#45;&gt;Node10 -->
<g id="edge10_Node000009_Node000010" class="edge">
<title>Node9&#45;&gt;Node10</title>
<g id="a_edge10_Node000009_Node000010"><a xlink:title=" ">
<path fill="none" stroke="#63b8ff" d="M820.49,-60.49C901.69,-48.44 1048.14,-26.69 1118.03,-16.32"/>
<polygon fill="#63b8ff" stroke="#63b8ff" points="1118.79,-19.74 1128.17,-14.81 1117.76,-12.82 1118.79,-19.74"/>
</a>
</g>
</g>
<!-- Node11 -->
<g id="Node000011" class="node">
<title>Node11</title>
<g id="a_Node000011"><a xlink:title=" ">
<polygon fill="#e0e0e0" stroke="#999999" points="849.2,-19 801.2,-19 801.2,0 849.2,0 849.2,-19"/>
<text text-anchor="middle" x="825.2" y="-7" font-family="Helvetica,sans-Serif" font-size="10.00">mutex</text>
</a>
</g>
</g>
<!-- Node9&#45;&gt;Node11 -->
<g id="edge11_Node000009_Node000011" class="edge">
<title>Node9&#45;&gt;Node11</title>
<g id="a_edge11_Node000009_Node000011"><a xlink:title=" ">
<path fill="none" stroke="#63b8ff" d="M772.35,-60.37C781.87,-51.38 797,-37.11 808.63,-26.14"/>
<polygon fill="#63b8ff" stroke="#63b8ff" points="811.14,-28.58 816.01,-19.17 806.34,-23.48 811.14,-28.58"/>
</a>
</g>
</g>
<!-- Node12&#45;&gt;Node6 -->
<g id="edge19_Node000012_Node000006" class="edge">
<title>Node12&#45;&gt;Node6</title>
<g id="a_edge19_Node000012_Node000006"><a xlink:title=" ">
<path fill="none" stroke="#63b8ff" d="M995.58,-199.06C948.47,-196.27 858.67,-191.03 782.2,-187 740.93,-184.83 67.71,-180.92 39.2,-151 20.65,-131.53 46.21,-103.19 66,-85.99"/>
<polygon fill="#63b8ff" stroke="#63b8ff" points="68.28,-88.65 73.73,-79.57 63.8,-83.27 68.28,-88.65"/>
</a>
</g>
</g>
<!-- Node12&#45;&gt;Node9 -->
<g id="edge18_Node000012_Node000009" class="edge">
<title>Node12&#45;&gt;Node9</title>
<g id="a_edge18_Node000012_Node000009"><a xlink:title=" ">
<path fill="none" stroke="#63b8ff" d="M1000.39,-192.48C972.63,-183.57 929.04,-168.45 893.2,-151 852.67,-131.26 808.6,-102.43 783.6,-85.31"/>
<polygon fill="#63b8ff" stroke="#63b8ff" points="785.5,-82.37 775.29,-79.57 781.52,-88.13 785.5,-82.37"/>
</a>
</g>
</g>
<!-- Node12&#45;&gt;Node10 -->
<g id="edge14_Node000012_Node000010" class="edge">
<title>Node12&#45;&gt;Node10</title>
<g id="a_edge14_Node000012_Node000010"><a xlink:title=" ">
<path fill="none" stroke="#63b8ff" d="M1051.08,-192.48C1056.06,-190.65 1061.3,-188.74 1066.2,-187 1112.68,-170.47 1136.95,-186.51 1171.2,-151 1201.46,-119.63 1205.17,-96.28 1191.2,-55 1187.64,-44.47 1180.48,-34.48 1173.65,-26.63"/>
<polygon fill="#63b8ff" stroke="#63b8ff" points="1176.19,-24.23 1166.81,-19.31 1171.07,-29.01 1176.19,-24.23"/>
</a>
</g>
</g>
<!-- Node12&#45;&gt;Node13 -->
<g id="edge15_Node000012_Node000013" class="edge">
<title>Node12&#45;&gt;Node13</title>
<g id="a_edge15_Node000012_Node000013"><a xlink:title=" ">
<path fill="none" stroke="#63b8ff" d="M1060.74,-193.78C1099.86,-184.86 1167.36,-168.67 1224.2,-151 1226.33,-150.34 1228.51,-149.63 1230.7,-148.89"/>
<polygon fill="#63b8ff" stroke="#63b8ff" points="1231.96,-152.15 1240.23,-145.53 1229.63,-145.55 1231.96,-152.15"/>
</a>
</g>
</g>
<!-- Node14 -->
<g id="Node000014" class="node">
<title>Node14</title>
<g id="a_Node000014"><a xlink:title=" ">
<polygon fill="#e0e0e0" stroke="#999999" points="1182.2,-79.5 1132.2,-79.5 1132.2,-60.5 1182.2,-60.5 1182.2,-79.5"/>
<text text-anchor="middle" x="1157.2" y="-67.5" font-family="Helvetica,sans-Serif" font-size="10.00">atomic</text>
</a>
</g>
</g>
<!-- Node12&#45;&gt;Node14 -->
<g id="edge16_Node000012_Node000014" class="edge">
<title>Node12&#45;&gt;Node14</title>
<g id="a_edge16_Node000012_Node000014"><a xlink:title=" ">
<path fill="none" stroke="#63b8ff" d="M1060.82,-197.66C1090.23,-192.75 1132.01,-180.67 1153.2,-151 1165.86,-133.27 1164.52,-107.28 1161.58,-89.77"/>
<polygon fill="#63b8ff" stroke="#63b8ff" points="1164.95,-88.78 1159.54,-79.67 1158.09,-90.17 1164.95,-88.78"/>
</a>
</g>
</g>
<!-- Node15 -->
<g id="Node000015" class="node">
<title>Node15</title>
<g id="a_Node000015"><a xlink:title=" ">
<polygon fill="#e0e0e0" stroke="#999999" points="1144.2,-145.5 1096.2,-145.5 1096.2,-126.5 1144.2,-126.5 1144.2,-145.5"/>
<text text-anchor="middle" x="1120.2" y="-133.5" font-family="Helvetica,sans-Serif" font-size="10.00">thread</text>
</a>
</g>
</g>
<!-- Node12&#45;&gt;Node15 -->
<g id="edge17_Node000012_Node000015" class="edge">
<title>Node12&#45;&gt;Node15</title>
<g id="a_edge17_Node000012_Node000015"><a xlink:title=" ">
<path fill="none" stroke="#63b8ff" d="M1040.61,-192.37C1055.56,-181.97 1080.93,-164.32 1099,-151.75"/>
<polygon fill="#63b8ff" stroke="#63b8ff" points="1101.49,-154.28 1107.7,-145.7 1097.49,-148.54 1101.49,-154.28"/>
</a>
</g>
</g>
<!-- Node16 -->
<g id="Node000016" class="node">
<title>Node16</title>
<g id="a_Node000016"><a xlink:href="logger__metrics_8h.html" target="_top" xlink:title=" ">
<polygon fill="white" stroke="#666666" points="1040.2,-145.5 902.2,-145.5 902.2,-126.5 1040.2,-126.5 1040.2,-145.5"/>
<text text-anchor="middle" x="971.2" y="-133.5" font-family="Helvetica,sans-Serif" font-size="10.00">metrics/logger_metrics.h</text>
</a>
</g>
</g>
<!-- Node12&#45;&gt;Node16 -->
<g id="edge20_Node000012_Node000016" class="edge">
<title>Node12&#45;&gt;Node16</title>
<g id="a_edge20_Node000012_Node000016"><a xlink:title=" ">
<path fill="none" stroke="#63b8ff" d="M1020.51,-192.37C1011.72,-182.5 997.13,-166.11 986.09,-153.72"/>
<polygon fill="#63b8ff" stroke="#63b8ff" points="988.4,-151.05 979.13,-145.91 983.17,-155.7 988.4,-151.05"/>
</a>
</g>
</g>
<!-- Node16&#45;&gt;Node3 -->
<g id="edge22_Node000016_Node000003" class="edge">
<title>Node16&#45;&gt;Node3</title>
<g id="a_edge22_Node000016_Node000003"><a xlink:title=" ">
<path fill="none" stroke="#63b8ff" d="M901.92,-128.27C762.47,-114.73 452.27,-84.6 347.53,-74.43"/>
<polygon fill="#63b8ff" stroke="#63b8ff" points="347.77,-70.94 337.48,-73.45 347.09,-77.91 347.77,-70.94"/>
</a>
</g>
</g>
<!-- Node16&#45;&gt;Node4 -->
<g id="edge24_Node000016_Node000004" class="edge">
<title>Node16&#45;&gt;Node4</title>
<g id="a_edge24_Node000016_Node000004"><a xlink:title=" ">
<path fill="none" stroke="#63b8ff" d="M949.76,-126.34C928.22,-117.26 894.39,-101.98 867.2,-85 848.95,-73.6 849.01,-63.4 829.2,-55 775.76,-32.34 603.44,-17.91 530.88,-12.69"/>
<polygon fill="#63b8ff" stroke="#63b8ff" points="530.75,-9.17 520.53,-11.96 530.26,-16.16 530.75,-9.17"/>
</a>
</g>
</g>
<!-- Node16&#45;&gt;Node11 -->
<g id="edge26_Node000016_Node000011" class="edge">
<title>Node16&#45;&gt;Node11</title>
<g id="a_edge26_Node000016_Node000011"><a xlink:title=" ">
<path fill="none" stroke="#63b8ff" d="M959.24,-126.5C945.79,-116.82 923.47,-100.36 905.2,-85 882.19,-65.66 857.03,-41.73 841.19,-26.3"/>
<polygon fill="#63b8ff" stroke="#63b8ff" points="843.41,-23.57 833.81,-19.07 838.51,-28.57 843.41,-23.57"/>
</a>
</g>
</g>
<!-- Node16&#45;&gt;Node14 -->
<g id="edge21_Node000016_Node000014" class="edge">
<title>Node16&#45;&gt;Node14</title>
<g id="a_edge21_Node000016_Node000014"><a xlink:title=" ">
<path fill="none" stroke="#63b8ff" d="M996.29,-126.37C1028.82,-115.17 1085.75,-95.58 1122.44,-82.96"/>
<polygon fill="#63b8ff" stroke="#63b8ff" points="1123.9,-86.16 1132.22,-79.6 1121.62,-79.54 1123.9,-86.16"/>
</a>
</g>
</g>
<!-- Node17 -->
<g id="Node000017" class="node">
<title>Node17</title>
<g id="a_Node000017"><a xlink:title=" ">
<polygon fill="#e0e0e0" stroke="#999999" points="964.2,-79.5 914.2,-79.5 914.2,-60.5 964.2,-60.5 964.2,-79.5"/>
<text text-anchor="middle" x="939.2" y="-67.5" font-family="Helvetica,sans-Serif" font-size="10.00">cstdint</text>
</a>
</g>
</g>
<!-- Node16&#45;&gt;Node17 -->
<g id="edge23_Node000016_Node000017" class="edge">
<title>Node16&#45;&gt;Node17</title>
<g id="a_edge23_Node000016_Node000017"><a xlink:title=" ">
<path fill="none" stroke="#63b8ff" d="M966.89,-126.37C962.14,-116.88 954.38,-101.36 948.28,-89.16"/>
<polygon fill="#63b8ff" stroke="#63b8ff" points="951.26,-87.28 943.65,-79.91 945,-90.41 951.26,-87.28"/>
</a>
</g>
</g>
<!-- Node18 -->
<g id="Node000018" class="node">
<title>Node18</title>
<g id="a_Node000018"><a xlink:title=" ">
<polygon fill="#e0e0e0" stroke="#999999" points="1075.7,-79.5 982.7,-79.5 982.7,-60.5 1075.7,-60.5 1075.7,-79.5"/>
<text text-anchor="middle" x="1029.2" y="-67.5" font-family="Helvetica,sans-Serif" font-size="10.00">unordered_map</text>
</a>
</g>
</g>
<!-- Node16&#45;&gt;Node18 -->
<g id="edge25_Node000016_Node000018" class="edge">
<title>Node16&#45;&gt;Node18</title>
<g id="a_edge25_Node000016_Node000018"><a xlink:title=" ">
<path fill="none" stroke="#63b8ff" d="M979.02,-126.37C988.05,-116.4 1003.11,-99.79 1014.37,-87.36"/>
<polygon fill="#63b8ff" stroke="#63b8ff" points="1017.01,-89.67 1021.13,-79.91 1011.82,-84.96 1017.01,-89.67"/>
</a>
</g>
</g>
<!-- Node19&#45;&gt;Node3 -->
<g id="edge29_Node000019_Node000003" class="edge">
<title>Node19&#45;&gt;Node3</title>
<g id="a_edge29_Node000019_Node000003"><a xlink:title=" ">
<path fill="none" stroke="#63b8ff" d="M347.71,-192.47C341.64,-171.73 326.01,-118.24 317.66,-89.66"/>
<polygon fill="#63b8ff" stroke="#63b8ff" points="320.92,-88.35 314.75,-79.73 314.2,-90.31 320.92,-88.35"/>
</a>
</g>
</g>
<!-- Node19&#45;&gt;Node4 -->
<g id="edge28_Node000019_Node000004" class="edge">
<title>Node19&#45;&gt;Node4</title>
<g id="a_edge28_Node000019_Node000004"><a xlink:title=" ">
<path fill="none" stroke="#63b8ff" d="M350.52,-192.41C351.45,-177.01 355.07,-144.15 369.2,-121 395.53,-77.84 444.45,-42.93 473.9,-24.58"/>
<polygon fill="#63b8ff" stroke="#63b8ff" points="475.99,-27.4 482.72,-19.21 472.36,-21.42 475.99,-27.4"/>
</a>
</g>
</g>
<!-- Node19&#45;&gt;Node6 -->
<g id="edge31_Node000019_Node000006" class="edge">
<title>Node19&#45;&gt;Node6</title>
<g id="a_edge31_Node000019_Node000006"><a xlink:title=" ">
<path fill="none" stroke="#63b8ff" d="M285.9,-201.25C196.51,-200.06 41.64,-191.96 6.2,-151 -15.33,-126.12 25.75,-99.32 56.31,-83.91"/>
<polygon fill="#63b8ff" stroke="#63b8ff" points="57.91,-87.03 65.38,-79.51 54.86,-80.73 57.91,-87.03"/>
</a>
</g>
</g>
<!-- Node19&#45;&gt;Node9 -->
<g id="edge30_Node000019_Node000009" class="edge">
<title>Node19&#45;&gt;Node9</title>
<g id="a_edge30_Node000019_Node000009"><a xlink:title=" ">
<path fill="none" stroke="#63b8ff" d="M379.71,-192.47C413.32,-182.7 469.83,-166.09 518.2,-151 593.37,-127.55 680.97,-98.53 728.39,-82.69"/>
<polygon fill="#63b8ff" stroke="#63b8ff" points="729.5,-86 737.88,-79.51 727.28,-79.37 729.5,-86"/>
</a>
</g>
</g>
<!-- Node20 -->
<g id="Node000020" class="node">
<title>Node20</title>
<g id="a_Node000020"><a xlink:href="log__writer__interface_8h.html" target="_top" xlink:title=" ">
<polygon fill="white" stroke="#666666" points="174.2,-151 48.2,-151 48.2,-121 174.2,-121 174.2,-151"/>
<text text-anchor="start" x="56.2" y="-139" font-family="Helvetica,sans-Serif" font-size="10.00">../interfaces/log_writer</text>
<text text-anchor="middle" x="111.2" y="-128" font-family="Helvetica,sans-Serif" font-size="10.00">_interface.h</text>
</a>
</g>
</g>
<!-- Node19&#45;&gt;Node20 -->
<g id="edge32_Node000019_Node000020" class="edge">
<title>Node19&#45;&gt;Node20</title>
<g id="a_edge32_Node000019_Node000020"><a xlink:title=" ">
<path fill="none" stroke="#63b8ff" d="M317.97,-192.37C281.17,-182.51 220.1,-166.16 173.84,-153.77"/>
<polygon fill="#63b8ff" stroke="#63b8ff" points="174.48,-150.32 163.91,-151.12 172.67,-157.08 174.48,-150.32"/>
</a>
</g>
</g>
<!-- Node21 -->
<g id="Node000021" class="node">
<title>Node21</title>
<g id="a_Node000021"><a xlink:href="log__entry_8h.html" target="_top" xlink:title=" ">
<polygon fill="white" stroke="#666666" points="509.7,-145.5 378.7,-145.5 378.7,-126.5 509.7,-126.5 509.7,-145.5"/>
<text text-anchor="middle" x="444.2" y="-133.5" font-family="Helvetica,sans-Serif" font-size="10.00">../interfaces/log_entry.h</text>
</a>
</g>
</g>
<!-- Node19&#45;&gt;Node21 -->
<g id="edge36_Node000019_Node000021" class="edge">
<title>Node19&#45;&gt;Node21</title>
<g id="a_edge36_Node000019_Node000021"><a xlink:title=" ">
<path fill="none" stroke="#63b8ff" d="M362.88,-192.37C378.3,-181.87 404.55,-164 423.05,-151.4"/>
<polygon fill="#63b8ff" stroke="#63b8ff" points="425.13,-154.22 431.42,-145.7 421.19,-148.43 425.13,-154.22"/>
</a>
</g>
</g>
<!-- Node20&#45;&gt;Node3 -->
<g id="edge34_Node000020_Node000003" class="edge">
<title>Node20&#45;&gt;Node3</title>
<g id="a_edge34_Node000020_Node000003"><a xlink:title=" ">
<path fill="none" stroke="#63b8ff" d="M155.31,-120.95C191.97,-109.28 243.42,-92.9 277.26,-82.12"/>
<polygon fill="#63b8ff" stroke="#63b8ff" points="278.7,-85.34 287.17,-78.97 276.58,-78.67 278.7,-85.34"/>
</a>
</g>
</g>
<!-- Node20&#45;&gt;Node4 -->
<g id="edge33_Node000020_Node000004" class="edge">
<title>Node20&#45;&gt;Node4</title>
<g id="a_edge33_Node000020_Node000004"><a xlink:title=" ">
<path fill="none" stroke="#63b8ff" d="M118.57,-120.97C129.1,-102.47 150.31,-70.45 178.2,-55 227.2,-27.85 394.55,-15.98 465.73,-12.07"/>
<polygon fill="#63b8ff" stroke="#63b8ff" points="466.11,-15.55 475.91,-11.53 465.74,-8.56 466.11,-15.55"/>
</a>
</g>
</g>
<!-- Node20&#45;&gt;Node6 -->
<g id="edge35_Node000020_Node000006" class="edge">
<title>Node20&#45;&gt;Node6</title>
<g id="a_edge35_Node000020_Node000006"><a xlink:title=" ">
<path fill="none" stroke="#63b8ff" d="M105.43,-120.8C101.66,-111.5 96.69,-99.27 92.62,-89.26"/>
<polygon fill="#63b8ff" stroke="#63b8ff" points="95.8,-87.79 88.79,-79.84 89.31,-90.43 95.8,-87.79"/>
</a>
</g>
</g>
<!-- Node21&#45;&gt;Node3 -->
<g id="edge38_Node000021_Node000003" class="edge">
<title>Node21&#45;&gt;Node3</title>
<g id="a_edge38_Node000021_Node000003"><a xlink:title=" ">
<path fill="none" stroke="#63b8ff" d="M426.4,-126.37C404.06,-115.54 365.52,-96.85 339.46,-84.22"/>
<polygon fill="#63b8ff" stroke="#63b8ff" points="340.67,-80.91 330.14,-79.7 337.61,-87.21 340.67,-80.91"/>
</a>
</g>
</g>
<!-- Node21&#45;&gt;Node4 -->
<g id="edge37_Node000021_Node000004" class="edge">
<title>Node21&#45;&gt;Node4</title>
<g id="a_edge37_Node000021_Node000004"><a xlink:title=" ">
<path fill="none" stroke="#63b8ff" d="M447.91,-126.44C456.62,-106.36 478.52,-55.87 490.34,-28.62"/>
<polygon fill="#63b8ff" stroke="#63b8ff" points="493.69,-29.68 494.46,-19.12 487.27,-26.9 493.69,-29.68"/>
</a>
</g>
</g>
<!-- Node21&#45;&gt;Node7 -->
<g id="edge39_Node000021_Node000007" class="edge">
<title>Node21&#45;&gt;Node7</title>
<g id="a_edge39_Node000021_Node000007"><a xlink:title=" ">
<path fill="none" stroke="#63b8ff" d="M434.09,-126.35C416.52,-111.42 379.08,-79.98 346.2,-55 332.47,-44.57 316.62,-33.37 304.25,-24.82"/>
<polygon fill="#63b8ff" stroke="#63b8ff" points="306.16,-21.89 295.94,-19.11 302.2,-27.66 306.16,-21.89"/>
</a>
</g>
</g>
<!-- Node21&#45;&gt;Node9 -->
<g id="edge40_Node000021_Node000009" class="edge">
<title>Node21&#45;&gt;Node9</title>
<g id="a_edge40_Node000021_Node000009"><a xlink:title=" ">
<path fill="none" stroke="#63b8ff" d="M488.57,-126.43C539.12,-116.61 624.17,-99.96 697.2,-85 702.51,-83.91 708.05,-82.76 713.57,-81.6"/>
<polygon fill="#63b8ff" stroke="#63b8ff" points="714.37,-85.01 723.43,-79.53 712.93,-78.16 714.37,-85.01"/>
</a>
</g>
</g>
<!-- Node22&#45;&gt;Node4 -->
<g id="edge46_Node000022_Node000004" class="edge">
<title>Node22&#45;&gt;Node4</title>
<g id="a_edge46_Node000022_Node000004"><a xlink:title=" ">
<path fill="none" stroke="#63b8ff" d="M705.44,-192.25C675.85,-174.33 607.95,-131.22 559.2,-85 540.34,-67.12 521.89,-43.48 510.3,-27.67"/>
<polygon fill="#63b8ff" stroke="#63b8ff" points="513.01,-25.44 504.33,-19.37 507.33,-29.53 513.01,-25.44"/>
</a>
</g>
</g>
<!-- Node22&#45;&gt;Node9 -->
<g id="edge42_Node000022_Node000009" class="edge">
<title>Node22&#45;&gt;Node9</title>
<g id="a_edge42_Node000022_Node000009"><a xlink:title=" ">
<path fill="none" stroke="#63b8ff" d="M756.78,-192.36C778.42,-185.17 804.09,-172.52 817.2,-151 831.46,-127.61 805.49,-101.47 784.85,-85.63"/>
<polygon fill="#63b8ff" stroke="#63b8ff" points="786.88,-82.78 776.74,-79.7 782.75,-88.43 786.88,-82.78"/>
</a>
</g>
</g>
<!-- Node22&#45;&gt;Node10 -->
<g id="edge48_Node000022_Node000010" class="edge">
<title>Node22&#45;&gt;Node10</title>
<g id="a_edge48_Node000022_Node000010"><a xlink:title=" ">
<path fill="none" stroke="#63b8ff" d="M773.76,-197.7C854.71,-191.91 1003.61,-177.9 1049.2,-151 1050.03,-150.51 1115.51,-64.99 1144.1,-27.63"/>
<polygon fill="#63b8ff" stroke="#63b8ff" points="1147.21,-29.32 1150.51,-19.25 1141.65,-25.07 1147.21,-29.32"/>
</a>
</g>
</g>
<!-- Node22&#45;&gt;Node21 -->
<g id="edge45_Node000022_Node000021" class="edge">
<title>Node22&#45;&gt;Node21</title>
<g id="a_edge45_Node000022_Node000021"><a xlink:title=" ">
<path fill="none" stroke="#63b8ff" d="M683.26,-192.44C633.59,-180.92 545.23,-160.43 490.97,-147.84"/>
<polygon fill="#63b8ff" stroke="#63b8ff" points="491.45,-144.36 480.92,-145.51 489.87,-151.18 491.45,-144.36"/>
</a>
</g>
</g>
<!-- Node23 -->
<g id="Node000023" class="node">
<title>Node23</title>
<g id="a_Node000023"><a xlink:href="log__filter__interface_8h.html" target="_top" xlink:title=" ">
<polygon fill="white" stroke="#666666" points="688.2,-85 568.2,-85 568.2,-55 688.2,-55 688.2,-85"/>
<text text-anchor="start" x="576.2" y="-73" font-family="Helvetica,sans-Serif" font-size="10.00">../interfaces/log_filter</text>
<text text-anchor="middle" x="628.2" y="-62" font-family="Helvetica,sans-Serif" font-size="10.00">_interface.h</text>
</a>
</g>
</g>
<!-- Node22&#45;&gt;Node23 -->
<g id="edge43_Node000022_Node000023" class="edge">
<title>Node22&#45;&gt;Node23</title>
<g id="a_edge43_Node000022_Node000023"><a xlink:title=" ">
<path fill="none" stroke="#63b8ff" d="M710.34,-192.49C699.8,-183.06 683.01,-167.06 671.2,-151 658.12,-133.22 646.49,-110.97 638.64,-94.45"/>
<polygon fill="#63b8ff" stroke="#63b8ff" points="641.63,-92.6 634.25,-85 635.28,-95.55 641.63,-92.6"/>
</a>
</g>
</g>
<!-- Node24 -->
<g id="Node000024" class="node">
<title>Node24</title>
<g id="a_Node000024"><a xlink:title=" ">
<polygon fill="#e0e0e0" stroke="#999999" points="808.2,-145.5 764.2,-145.5 764.2,-126.5 808.2,-126.5 808.2,-145.5"/>
<text text-anchor="middle" x="786.2" y="-133.5" font-family="Helvetica,sans-Serif" font-size="10.00">regex</text>
</a>
</g>
</g>
<!-- Node22&#45;&gt;Node24 -->
<g id="edge47_Node000022_Node000024" class="edge">
<title>Node22&#45;&gt;Node24</title>
<g id="a_edge47_Node000022_Node000024"><a xlink:title=" ">
<path fill="none" stroke="#63b8ff" d="M729.1,-192.37C739.48,-182.31 756.83,-165.48 769.69,-153.01"/>
<polygon fill="#63b8ff" stroke="#63b8ff" points="772.27,-155.38 777.02,-145.91 767.4,-150.35 772.27,-155.38"/>
</a>
</g>
</g>
<!-- Node25 -->
<g id="Node000025" class="node">
<title>Node25</title>
<g id="a_Node000025"><a xlink:title=" ">
<polygon fill="#e0e0e0" stroke="#999999" points="745.7,-145.5 680.7,-145.5 680.7,-126.5 745.7,-126.5 745.7,-145.5"/>
<text text-anchor="middle" x="713.2" y="-133.5" font-family="Helvetica,sans-Serif" font-size="10.00">functional</text>
</a>
</g>
</g>
<!-- Node22&#45;&gt;Node25 -->
<g id="edge49_Node000022_Node000025" class="edge">
<title>Node22&#45;&gt;Node25</title>
<g id="a_edge49_Node000022_Node000025"><a xlink:title=" ">
<path fill="none" stroke="#63b8ff" d="M719.26,-192.37C718.24,-183.07 716.59,-167.98 715.27,-155.9"/>
<polygon fill="#63b8ff" stroke="#63b8ff" points="718.74,-155.47 714.17,-145.91 711.78,-156.23 718.74,-155.47"/>
</a>
</g>
</g>
<!-- Node23&#45;&gt;Node4 -->
<g id="edge44_Node000023_Node000004" class="edge">
<title>Node23&#45;&gt;Node4</title>
<g id="a_edge44_Node000023_Node000004"><a xlink:title=" ">
<path fill="none" stroke="#63b8ff" d="M597.06,-54.99C575.66,-45.36 547.47,-32.67 526.67,-23.31"/>
<polygon fill="#63b8ff" stroke="#63b8ff" points="527.95,-20.05 517.4,-19.14 525.08,-26.43 527.95,-20.05"/>
</a>
</g>
</g>
<!-- Node26&#45;&gt;Node4 -->
<g id="edge51_Node000026_Node000004" class="edge">
<title>Node26&#45;&gt;Node4</title>
<g id="a_edge51_Node000026_Node000004"><a xlink:title=" ">
<path fill="none" stroke="#63b8ff" d="M569.82,-186.8C560.1,-165.03 541.13,-122.02 526.2,-85 518.55,-66.03 510.38,-44.08 504.86,-28.94"/>
<polygon fill="#63b8ff" stroke="#63b8ff" points="508.05,-27.47 501.34,-19.27 501.47,-29.86 508.05,-27.47"/>
</a>
</g>
</g>
</g>
</svg>
