<?xml version="1.0" encoding="UTF-8" standalone="no"?>
<!DOCTYPE svg PUBLIC "-//W3C//DTD SVG 1.1//EN"
 "http://www.w3.org/Graphics/SVG/1.1/DTD/svg11.dtd">
<!-- Generated by graphviz version 2.43.0 (0)
 -->
<!-- Title: logger.h Pages: 1 -->
<svg width="1219pt" height="390pt"
 viewBox="0.00 0.00 1218.96 390.00" xmlns="http://www.w3.org/2000/svg" xmlns:xlink="http://www.w3.org/1999/xlink">
<g id="graph0" class="graph" transform="scale(1 1) rotate(0) translate(4 386)">
<title>logger.h</title>
<!-- Node1 -->
<g id="Node000001" class="node">
<title>Node1</title>
<g id="a_Node000001"><a xlink:title=" ">
<polygon fill="#999999" stroke="#666666" points="810.96,-382 754.96,-382 754.96,-363 810.96,-363 810.96,-382"/>
<text text-anchor="middle" x="782.96" y="-370" font-family="Helvetica,sans-Serif" font-size="10.00">logger.h</text>
</a>
</g>
</g>
<!-- Node2 -->
<g id="Node000002" class="node">
<title>Node2</title>
<g id="a_Node000002"><a xlink:title=" ">
<polygon fill="#e0e0e0" stroke="#999999" points="385.96,-134.5 327.96,-134.5 327.96,-115.5 385.96,-115.5 385.96,-134.5"/>
<text text-anchor="middle" x="356.96" y="-122.5" font-family="Helvetica,sans-Serif" font-size="10.00">memory</text>
</a>
</g>
</g>
<!-- Node1&#45;&gt;Node2 -->
<g id="edge1_Node000001_Node000002" class="edge">
<title>Node1&#45;&gt;Node2</title>
<g id="a_edge1_Node000001_Node000002"><a xlink:title=" ">
<path fill="none" stroke="#63b8ff" d="M754.9,-369.95C709.44,-366.63 617.55,-356.56 545.96,-327 498.61,-307.45 380.36,-240.58 356.96,-195 348.94,-179.37 350.11,-159.01 352.57,-144.47"/>
<polygon fill="#63b8ff" stroke="#63b8ff" points="356,-145.15 354.57,-134.65 349.14,-143.75 356,-145.15"/>
</a>
</g>
</g>
<!-- Node3 -->
<g id="Node000003" class="node">
<title>Node3</title>
<g id="a_Node000003"><a xlink:title=" ">
<polygon fill="#e0e0e0" stroke="#999999" points="1075.46,-74 1028.46,-74 1028.46,-55 1075.46,-55 1075.46,-74"/>
<text text-anchor="middle" x="1051.96" y="-62" font-family="Helvetica,sans-Serif" font-size="10.00">vector</text>
</a>
</g>
</g>
<!-- Node1&#45;&gt;Node3 -->
<g id="edge2_Node000001_Node000003" class="edge">
<title>Node1&#45;&gt;Node3</title>
<g id="a_edge2_Node000001_Node000003"><a xlink:title=" ">
<path fill="none" stroke="#63b8ff" d="M811.18,-366.45C838.78,-360.49 881.06,-348.54 911.96,-327 993.98,-269.84 1003.44,-234.18 1036.96,-140 1043.45,-121.77 1047.43,-99.99 1049.64,-84.7"/>
<polygon fill="#63b8ff" stroke="#63b8ff" points="1053.16,-84.81 1051,-74.44 1046.22,-83.89 1053.16,-84.81"/>
</a>
</g>
</g>
<!-- Node4 -->
<g id="Node000004" class="node">
<title>Node4</title>
<g id="a_Node000004"><a xlink:title=" ">
<polygon fill="#e0e0e0" stroke="#999999" points="870.96,-74 820.96,-74 820.96,-55 870.96,-55 870.96,-74"/>
<text text-anchor="middle" x="845.96" y="-62" font-family="Helvetica,sans-Serif" font-size="10.00">atomic</text>
</a>
</g>
</g>
<!-- Node1&#45;&gt;Node4 -->
<g id="edge3_Node000001_Node000004" class="edge">
<title>Node1&#45;&gt;Node4</title>
<g id="a_edge3_Node000001_Node000004"><a xlink:title=" ">
<path fill="none" stroke="#63b8ff" d="M811.05,-363.64C832.81,-356.56 862.88,-344.56 884.96,-327 908.52,-308.27 1010.97,-171 1020.96,-140 1025.05,-127.31 1029.15,-120.53 1020.96,-110 1004,-88.19 927.43,-75.32 881.38,-69.41"/>
<polygon fill="#63b8ff" stroke="#63b8ff" points="881.57,-65.91 871.21,-68.16 880.71,-72.86 881.57,-65.91"/>
</a>
</g>
</g>
<!-- Node5 -->
<g id="Node000005" class="node">
<title>Node5</title>
<g id="a_Node000005"><a xlink:title=" ">
<polygon fill="#e0e0e0" stroke="#999999" points="1210.96,-321.5 1162.96,-321.5 1162.96,-302.5 1210.96,-302.5 1210.96,-321.5"/>
<text text-anchor="middle" x="1186.96" y="-309.5" font-family="Helvetica,sans-Serif" font-size="10.00">thread</text>
</a>
</g>
</g>
<!-- Node1&#45;&gt;Node5 -->
<g id="edge4_Node000001_Node000005" class="edge">
<title>Node1&#45;&gt;Node5</title>
<g id="a_edge4_Node000001_Node000005"><a xlink:title=" ">
<path fill="none" stroke="#63b8ff" d="M811.37,-370.29C873.43,-367.16 1025.45,-356.83 1148.96,-327 1151.47,-326.39 1154.05,-325.67 1156.61,-324.88"/>
<polygon fill="#63b8ff" stroke="#63b8ff" points="1157.98,-328.12 1166.33,-321.59 1155.73,-321.49 1157.98,-328.12"/>
</a>
</g>
</g>
<!-- Node6 -->
<g id="Node000006" class="node">
<title>Node6</title>
<g id="a_Node000006"><a xlink:href="logger__interface_8h.html" target="_top" xlink:title=" ">
<polygon fill="white" stroke="#666666" points="471.46,-195 366.46,-195 366.46,-176 471.46,-176 471.46,-195"/>
<text text-anchor="middle" x="418.96" y="-183" font-family="Helvetica,sans-Serif" font-size="10.00">logger_interface.h</text>
</a>
</g>
</g>
<!-- Node1&#45;&gt;Node6 -->
<g id="edge5_Node000001_Node000006" class="edge">
<title>Node1&#45;&gt;Node6</title>
<g id="a_edge5_Node000001_Node000006"><a xlink:title=" ">
<path fill="none" stroke="#63b8ff" d="M754.67,-365.76C699.27,-353.53 574.21,-321.02 485.96,-261 462.9,-245.32 442.45,-220.06 430.38,-203.37"/>
<polygon fill="#63b8ff" stroke="#63b8ff" points="433.18,-201.27 424.58,-195.1 427.45,-205.29 433.18,-201.27"/>
</a>
</g>
</g>
<!-- Node9 -->
<g id="Node000009" class="node">
<title>Node9</title>
<g id="a_Node000009"><a xlink:href="error__codes_8h.html" target="_top" xlink:title=" ">
<polygon fill="white" stroke="#666666" points="1010.46,-74 927.46,-74 927.46,-55 1010.46,-55 1010.46,-74"/>
<text text-anchor="middle" x="968.96" y="-62" font-family="Helvetica,sans-Serif" font-size="10.00">error_codes.h</text>
</a>
</g>
</g>
<!-- Node1&#45;&gt;Node9 -->
<g id="edge9_Node000001_Node000009" class="edge">
<title>Node1&#45;&gt;Node9</title>
<g id="a_edge9_Node000001_Node000009"><a xlink:title=" ">
<path fill="none" stroke="#63b8ff" d="M811.15,-372.17C883.36,-373.23 1072.02,-371.58 1110.96,-327 1134.01,-300.62 1139.66,-235.94 1036.96,-110 1026.31,-96.94 1010.8,-86.38 997.28,-78.83"/>
<polygon fill="#63b8ff" stroke="#63b8ff" points="998.79,-75.67 988.32,-74.09 995.52,-81.86 998.79,-75.67"/>
</a>
</g>
</g>
<!-- Node14 -->
<g id="Node000014" class="node">
<title>Node14</title>
<g id="a_Node000014"><a xlink:href="logger__metrics_8h.html" target="_top" xlink:title=" ">
<polygon fill="white" stroke="#666666" points="703.96,-195 565.96,-195 565.96,-176 703.96,-176 703.96,-195"/>
<text text-anchor="middle" x="634.96" y="-183" font-family="Helvetica,sans-Serif" font-size="10.00">metrics/logger_metrics.h</text>
</a>
</g>
</g>
<!-- Node1&#45;&gt;Node14 -->
<g id="edge15_Node000001_Node000014" class="edge">
<title>Node1&#45;&gt;Node14</title>
<g id="a_edge15_Node000001_Node000014"><a xlink:title=" ">
<path fill="none" stroke="#63b8ff" d="M763.3,-362.87C747.62,-355.22 725.89,-342.82 710.96,-327 675.85,-289.8 651.88,-233.28 641.23,-204.58"/>
<polygon fill="#63b8ff" stroke="#63b8ff" points="644.48,-203.27 637.8,-195.04 637.89,-205.64 644.48,-203.27"/>
</a>
</g>
</g>
<!-- Node18 -->
<g id="Node000018" class="node">
<title>Node18</title>
<g id="a_Node000018"><a xlink:href="di__container__interface_8h.html" target="_top" xlink:title="Abstract interface for dependency injection container.">
<polygon fill="white" stroke="#666666" points="253.96,-195 107.96,-195 107.96,-176 253.96,-176 253.96,-195"/>
<text text-anchor="middle" x="180.96" y="-183" font-family="Helvetica,sans-Serif" font-size="10.00">di/di_container_interface.h</text>
</a>
</g>
</g>
<!-- Node1&#45;&gt;Node18 -->
<g id="edge22_Node000001_Node000018" class="edge">
<title>Node1&#45;&gt;Node18</title>
<g id="a_edge22_Node000001_Node000018"><a xlink:title=" ">
<path fill="none" stroke="#63b8ff" d="M754.67,-370.84C689.09,-368.76 521.96,-360.34 386.96,-327 308.68,-307.67 277.45,-315.44 217.96,-261 201.36,-245.81 191.26,-221.5 185.89,-204.81"/>
<polygon fill="#63b8ff" stroke="#63b8ff" points="189.22,-203.71 183.04,-195.11 182.51,-205.69 189.22,-203.71"/>
</a>
</g>
</g>
<!-- Node20 -->
<g id="Node000020" class="node">
<title>Node20</title>
<g id="a_Node000020"><a xlink:href="di__container__factory_8h.html" target="_top" xlink:title="Factory for creating appropriate DI containers.">
<polygon fill="white" stroke="#666666" points="165.96,-321.5 29.96,-321.5 29.96,-302.5 165.96,-302.5 165.96,-321.5"/>
<text text-anchor="middle" x="97.96" y="-309.5" font-family="Helvetica,sans-Serif" font-size="10.00">di/di_container_factory.h</text>
</a>
</g>
</g>
<!-- Node1&#45;&gt;Node20 -->
<g id="edge27_Node000001_Node000020" class="edge">
<title>Node1&#45;&gt;Node20</title>
<g id="a_edge27_Node000001_Node000020"><a xlink:title=" ">
<path fill="none" stroke="#63b8ff" d="M754.86,-370.26C669.16,-366.3 403.64,-352.68 184.96,-327 175.6,-325.9 165.71,-324.52 156.08,-323.06"/>
<polygon fill="#63b8ff" stroke="#63b8ff" points="156.6,-319.59 146.18,-321.51 155.52,-326.51 156.6,-319.59"/>
</a>
</g>
</g>
<!-- Node23 -->
<g id="Node000023" class="node">
<title>Node23</title>
<g id="a_Node000023"><a xlink:href="monitoring__interface_8h.html" target="_top" xlink:title="Abstract interface for monitoring and metrics collection.">
<polygon fill="white" stroke="#666666" points="1011.96,-140 885.96,-140 885.96,-110 1011.96,-110 1011.96,-140"/>
<text text-anchor="start" x="893.96" y="-128" font-family="Helvetica,sans-Serif" font-size="10.00">monitoring/monitoring</text>
<text text-anchor="middle" x="948.96" y="-117" font-family="Helvetica,sans-Serif" font-size="10.00">_interface.h</text>
</a>
</g>
</g>
<!-- Node1&#45;&gt;Node23 -->
<g id="edge35_Node000001_Node000023" class="edge">
<title>Node1&#45;&gt;Node23</title>
<g id="a_edge35_Node000001_Node000023"><a xlink:title=" ">
<path fill="none" stroke="#63b8ff" d="M799.88,-362.86C815.08,-354.69 837.62,-341.53 854.96,-327 885.12,-301.73 894.45,-295.17 913.96,-261 934.1,-225.73 942.87,-178.72 946.53,-150.5"/>
<polygon fill="#63b8ff" stroke="#63b8ff" points="950.03,-150.67 947.73,-140.33 943.08,-149.85 950.03,-150.67"/>
</a>
</g>
</g>
<!-- Node24 -->
<g id="Node000024" class="node">
<title>Node24</title>
<g id="a_Node000024"><a xlink:href="monitoring__factory_8h.html" target="_top" xlink:title="Factory for creating appropriate monitoring implementations.">
<polygon fill="white" stroke="#666666" points="845.96,-327 719.96,-327 719.96,-297 845.96,-297 845.96,-327"/>
<text text-anchor="start" x="727.96" y="-315" font-family="Helvetica,sans-Serif" font-size="10.00">monitoring/monitoring</text>
<text text-anchor="middle" x="782.96" y="-304" font-family="Helvetica,sans-Serif" font-size="10.00">_factory.h</text>
</a>
</g>
</g>
<!-- Node1&#45;&gt;Node24 -->
<g id="edge42_Node000001_Node000024" class="edge">
<title>Node1&#45;&gt;Node24</title>
<g id="a_edge42_Node000001_Node000024"><a xlink:title=" ">
<path fill="none" stroke="#63b8ff" d="M782.96,-362.87C782.96,-356.11 782.96,-346.35 782.96,-337.26"/>
<polygon fill="#63b8ff" stroke="#63b8ff" points="786.46,-337.11 782.96,-327.11 779.46,-337.11 786.46,-337.11"/>
</a>
</g>
</g>
<!-- Node6&#45;&gt;Node2 -->
<g id="edge6_Node000006_Node000002" class="edge">
<title>Node6&#45;&gt;Node2</title>
<g id="a_edge6_Node000006_Node000002"><a xlink:title=" ">
<path fill="none" stroke="#63b8ff" d="M409.81,-175.87C400.29,-166.88 385.17,-152.61 373.53,-141.64"/>
<polygon fill="#63b8ff" stroke="#63b8ff" points="375.82,-138.98 366.15,-134.67 371.02,-144.08 375.82,-138.98"/>
</a>
</g>
</g>
<!-- Node7 -->
<g id="Node000007" class="node">
<title>Node7</title>
<g id="a_Node000007"><a xlink:title=" ">
<polygon fill="#e0e0e0" stroke="#999999" points="451.96,-134.5 403.96,-134.5 403.96,-115.5 451.96,-115.5 451.96,-134.5"/>
<text text-anchor="middle" x="427.96" y="-122.5" font-family="Helvetica,sans-Serif" font-size="10.00">mutex</text>
</a>
</g>
</g>
<!-- Node6&#45;&gt;Node7 -->
<g id="edge7_Node000006_Node000007" class="edge">
<title>Node6&#45;&gt;Node7</title>
<g id="a_edge7_Node000006_Node000007"><a xlink:title=" ">
<path fill="none" stroke="#63b8ff" d="M420.29,-175.87C421.55,-167.66 423.49,-155.04 425.11,-144.55"/>
<polygon fill="#63b8ff" stroke="#63b8ff" points="428.57,-145.08 426.63,-134.67 421.65,-144.02 428.57,-145.08"/>
</a>
</g>
</g>
<!-- Node8 -->
<g id="Node000008" class="node">
<title>Node8</title>
<g id="a_Node000008"><a xlink:title=" ">
<polygon fill="#e0e0e0" stroke="#999999" points="501.96,-19 457.96,-19 457.96,0 501.96,0 501.96,-19"/>
<text text-anchor="middle" x="479.96" y="-7" font-family="Helvetica,sans-Serif" font-size="10.00">string</text>
</a>
</g>
</g>
<!-- Node6&#45;&gt;Node8 -->
<g id="edge8_Node000006_Node000008" class="edge">
<title>Node6&#45;&gt;Node8</title>
<g id="a_edge8_Node000006_Node000008"><a xlink:title=" ">
<path fill="none" stroke="#63b8ff" d="M373.5,-175.96C353.19,-169.64 331.12,-158.72 318.96,-140 311.7,-128.82 312.47,-121.65 318.96,-110 346.43,-60.73 409.45,-32.8 448,-19.74"/>
<polygon fill="#63b8ff" stroke="#63b8ff" points="449.27,-23.01 457.7,-16.59 447.11,-16.35 449.27,-23.01"/>
</a>
</g>
</g>
<!-- Node9&#45;&gt;Node8 -->
<g id="edge10_Node000009_Node000008" class="edge">
<title>Node9&#45;&gt;Node8</title>
<g id="a_edge10_Node000009_Node000008"><a xlink:title=" ">
<path fill="none" stroke="#63b8ff" d="M927.4,-56.96C922.54,-56.27 917.64,-55.6 912.96,-55 763.58,-36 584.4,-19.62 512.32,-13.29"/>
<polygon fill="#63b8ff" stroke="#63b8ff" points="512.35,-9.78 502.09,-12.39 511.74,-16.75 512.35,-9.78"/>
</a>
</g>
</g>
<!-- Node10 -->
<g id="Node000010" class="node">
<title>Node10</title>
<g id="a_Node000010"><a xlink:title=" ">
<polygon fill="#e0e0e0" stroke="#999999" points="893.46,-19 828.46,-19 828.46,0 893.46,0 893.46,-19"/>
<text text-anchor="middle" x="860.96" y="-7" font-family="Helvetica,sans-Serif" font-size="10.00">stdexcept</text>
</a>
</g>
</g>
<!-- Node9&#45;&gt;Node10 -->
<g id="edge11_Node000009_Node000010" class="edge">
<title>Node9&#45;&gt;Node10</title>
<g id="a_edge11_Node000009_Node000010"><a xlink:title=" ">
<path fill="none" stroke="#63b8ff" d="M951.61,-54.98C934.39,-46.54 907.76,-33.47 887.82,-23.68"/>
<polygon fill="#63b8ff" stroke="#63b8ff" points="889.15,-20.43 878.63,-19.17 886.07,-26.72 889.15,-20.43"/>
</a>
</g>
</g>
<!-- Node11 -->
<g id="Node000011" class="node">
<title>Node11</title>
<g id="a_Node000011"><a xlink:title=" ">
<polygon fill="#e0e0e0" stroke="#999999" points="956.46,-19 911.46,-19 911.46,0 956.46,0 956.46,-19"/>
<text text-anchor="middle" x="933.96" y="-7" font-family="Helvetica,sans-Serif" font-size="10.00">utility</text>
</a>
</g>
</g>
<!-- Node9&#45;&gt;Node11 -->
<g id="edge12_Node000009_Node000011" class="edge">
<title>Node9&#45;&gt;Node11</title>
<g id="a_edge12_Node000009_Node000011"><a xlink:title=" ">
<path fill="none" stroke="#63b8ff" d="M963.18,-54.75C958.34,-47.42 951.28,-36.73 945.32,-27.7"/>
<polygon fill="#63b8ff" stroke="#63b8ff" points="948.07,-25.5 939.63,-19.09 942.22,-29.36 948.07,-25.5"/>
</a>
</g>
</g>
<!-- Node12 -->
<g id="Node000012" class="node">
<title>Node12</title>
<g id="a_Node000012"><a xlink:title=" ">
<polygon fill="#e0e0e0" stroke="#999999" points="1030.96,-19 974.96,-19 974.96,0 1030.96,0 1030.96,-19"/>
<text text-anchor="middle" x="1002.96" y="-7" font-family="Helvetica,sans-Serif" font-size="10.00">optional</text>
</a>
</g>
</g>
<!-- Node9&#45;&gt;Node12 -->
<g id="edge13_Node000009_Node000012" class="edge">
<title>Node9&#45;&gt;Node12</title>
<g id="a_edge13_Node000009_Node000012"><a xlink:title=" ">
<path fill="none" stroke="#63b8ff" d="M974.58,-54.75C979.28,-47.42 986.14,-36.73 991.93,-27.7"/>
<polygon fill="#63b8ff" stroke="#63b8ff" points="995,-29.4 997.45,-19.09 989.11,-25.62 995,-29.4"/>
</a>
</g>
</g>
<!-- Node13 -->
<g id="Node000013" class="node">
<title>Node13</title>
<g id="a_Node000013"><a xlink:title=" ">
<polygon fill="#e0e0e0" stroke="#999999" points="1100.46,-19 1049.46,-19 1049.46,0 1100.46,0 1100.46,-19"/>
<text text-anchor="middle" x="1074.96" y="-7" font-family="Helvetica,sans-Serif" font-size="10.00">variant</text>
</a>
</g>
</g>
<!-- Node9&#45;&gt;Node13 -->
<g id="edge14_Node000009_Node000013" class="edge">
<title>Node9&#45;&gt;Node13</title>
<g id="a_edge14_Node000009_Node000013"><a xlink:title=" ">
<path fill="none" stroke="#63b8ff" d="M985.99,-54.98C1002.89,-46.54 1029.03,-33.47 1048.61,-23.68"/>
<polygon fill="#63b8ff" stroke="#63b8ff" points="1050.24,-26.77 1057.62,-19.17 1047.11,-20.51 1050.24,-26.77"/>
</a>
</g>
</g>
<!-- Node14&#45;&gt;Node4 -->
<g id="edge16_Node000014_Node000004" class="edge">
<title>Node14&#45;&gt;Node4</title>
<g id="a_edge16_Node000014_Node000004"><a xlink:title=" ">
<path fill="none" stroke="#63b8ff" d="M627.69,-175.64C616.19,-160.52 596.71,-129.46 612.96,-110 640.08,-77.53 753.57,-82.67 810.76,-73.83"/>
<polygon fill="#63b8ff" stroke="#63b8ff" points="811.55,-77.24 820.75,-72 810.29,-70.35 811.55,-77.24"/>
</a>
</g>
</g>
<!-- Node14&#45;&gt;Node7 -->
<g id="edge21_Node000014_Node000007" class="edge">
<title>Node14&#45;&gt;Node7</title>
<g id="a_edge21_Node000014_Node000007"><a xlink:title=" ">
<path fill="none" stroke="#63b8ff" d="M598.41,-175.95C563.99,-167.64 511.11,-154.22 465.96,-140 463.84,-139.33 461.66,-138.61 459.47,-137.87"/>
<polygon fill="#63b8ff" stroke="#63b8ff" points="460.54,-134.53 449.94,-134.5 458.2,-141.13 460.54,-134.53"/>
</a>
</g>
</g>
<!-- Node14&#45;&gt;Node8 -->
<g id="edge19_Node000014_Node000008" class="edge">
<title>Node14&#45;&gt;Node8</title>
<g id="a_edge19_Node000014_Node000008"><a xlink:title=" ">
<path fill="none" stroke="#63b8ff" d="M597.51,-175.95C575.92,-169.33 549.63,-158.14 531.96,-140 501.35,-108.58 488.03,-56.83 482.85,-29.22"/>
<polygon fill="#63b8ff" stroke="#63b8ff" points="486.29,-28.56 481.15,-19.3 479.39,-29.75 486.29,-28.56"/>
</a>
</g>
</g>
<!-- Node15 -->
<g id="Node000015" class="node">
<title>Node15</title>
<g id="a_Node000015"><a xlink:title=" ">
<polygon fill="#e0e0e0" stroke="#999999" points="802.96,-74 752.96,-74 752.96,-55 802.96,-55 802.96,-74"/>
<text text-anchor="middle" x="777.96" y="-62" font-family="Helvetica,sans-Serif" font-size="10.00">chrono</text>
</a>
</g>
</g>
<!-- Node14&#45;&gt;Node15 -->
<g id="edge17_Node000014_Node000015" class="edge">
<title>Node14&#45;&gt;Node15</title>
<g id="a_edge17_Node000014_Node000015"><a xlink:title=" ">
<path fill="none" stroke="#63b8ff" d="M617.5,-175.88C604.49,-168.38 587.69,-156.18 579.96,-140 574.22,-127.97 571.63,-120.41 579.96,-110 599.99,-84.97 691.58,-73.04 742.88,-68.23"/>
<polygon fill="#63b8ff" stroke="#63b8ff" points="743.23,-71.72 752.88,-67.34 742.61,-64.74 743.23,-71.72"/>
</a>
</g>
</g>
<!-- Node16 -->
<g id="Node000016" class="node">
<title>Node16</title>
<g id="a_Node000016"><a xlink:title=" ">
<polygon fill="#e0e0e0" stroke="#999999" points="671.96,-134.5 621.96,-134.5 621.96,-115.5 671.96,-115.5 671.96,-134.5"/>
<text text-anchor="middle" x="646.96" y="-122.5" font-family="Helvetica,sans-Serif" font-size="10.00">cstdint</text>
</a>
</g>
</g>
<!-- Node14&#45;&gt;Node16 -->
<g id="edge18_Node000014_Node000016" class="edge">
<title>Node14&#45;&gt;Node16</title>
<g id="a_edge18_Node000014_Node000016"><a xlink:title=" ">
<path fill="none" stroke="#63b8ff" d="M636.73,-175.87C638.42,-167.66 641,-155.04 643.16,-144.55"/>
<polygon fill="#63b8ff" stroke="#63b8ff" points="646.6,-145.17 645.18,-134.67 639.75,-143.76 646.6,-145.17"/>
</a>
</g>
</g>
<!-- Node17 -->
<g id="Node000017" class="node">
<title>Node17</title>
<g id="a_Node000017"><a xlink:title=" ">
<polygon fill="#e0e0e0" stroke="#999999" points="674.46,-74 581.46,-74 581.46,-55 674.46,-55 674.46,-74"/>
<text text-anchor="middle" x="627.96" y="-62" font-family="Helvetica,sans-Serif" font-size="10.00">unordered_map</text>
</a>
</g>
</g>
<!-- Node14&#45;&gt;Node17 -->
<g id="edge20_Node000014_Node000017" class="edge">
<title>Node14&#45;&gt;Node17</title>
<g id="a_edge20_Node000014_Node000017"><a xlink:title=" ">
<path fill="none" stroke="#63b8ff" d="M594.76,-175.87C575.27,-169.45 553.6,-158.48 541.96,-140 534.85,-128.72 535.03,-121.39 541.96,-110 551.15,-94.9 567.31,-84.69 583.15,-77.91"/>
<polygon fill="#63b8ff" stroke="#63b8ff" points="584.86,-81 592.91,-74.12 582.32,-74.48 584.86,-81"/>
</a>
</g>
</g>
<!-- Node18&#45;&gt;Node2 -->
<g id="edge23_Node000018_Node000002" class="edge">
<title>Node18&#45;&gt;Node2</title>
<g id="a_edge23_Node000018_Node000002"><a xlink:title=" ">
<path fill="none" stroke="#63b8ff" d="M206.55,-175.99C236.92,-165.9 287.73,-149.01 321.78,-137.69"/>
<polygon fill="#63b8ff" stroke="#63b8ff" points="322.95,-140.99 331.34,-134.52 320.75,-134.35 322.95,-140.99"/>
</a>
</g>
</g>
<!-- Node18&#45;&gt;Node8 -->
<g id="edge25_Node000018_Node000008" class="edge">
<title>Node18&#45;&gt;Node8</title>
<g id="a_edge25_Node000018_Node000008"><a xlink:title=" ">
<path fill="none" stroke="#63b8ff" d="M161.38,-175.98C147.29,-168.68 129.36,-156.68 120.96,-140 114.97,-128.09 112.89,-120.61 120.96,-110 161.05,-57.28 366.77,-25.23 447.44,-14.52"/>
<polygon fill="#63b8ff" stroke="#63b8ff" points="448.06,-17.97 457.53,-13.21 447.16,-11.03 448.06,-17.97"/>
</a>
</g>
</g>
<!-- Node18&#45;&gt;Node9 -->
<g id="edge26_Node000018_Node000009" class="edge">
<title>Node18&#45;&gt;Node9</title>
<g id="a_edge26_Node000018_Node000009"><a xlink:title=" ">
<path fill="none" stroke="#63b8ff" d="M192.74,-175.82C215.67,-159.48 268.45,-124.5 318.96,-110 439.04,-75.53 755.43,-83.94 879.96,-74 892.05,-73.04 905.05,-71.87 917.28,-70.71"/>
<polygon fill="#63b8ff" stroke="#63b8ff" points="917.71,-74.19 927.33,-69.75 917.04,-67.22 917.71,-74.19"/>
</a>
</g>
</g>
<!-- Node19 -->
<g id="Node000019" class="node">
<title>Node19</title>
<g id="a_Node000019"><a xlink:title=" ">
<polygon fill="#e0e0e0" stroke="#999999" points="195.46,-134.5 130.46,-134.5 130.46,-115.5 195.46,-115.5 195.46,-134.5"/>
<text text-anchor="middle" x="162.96" y="-122.5" font-family="Helvetica,sans-Serif" font-size="10.00">functional</text>
</a>
</g>
</g>
<!-- Node18&#45;&gt;Node19 -->
<g id="edge24_Node000018_Node000019" class="edge">
<title>Node18&#45;&gt;Node19</title>
<g id="a_edge24_Node000018_Node000019"><a xlink:title=" ">
<path fill="none" stroke="#63b8ff" d="M178.31,-175.87C175.78,-167.66 171.9,-155.04 168.67,-144.55"/>
<polygon fill="#63b8ff" stroke="#63b8ff" points="171.91,-143.2 165.63,-134.67 165.22,-145.25 171.91,-143.2"/>
</a>
</g>
</g>
<!-- Node20&#45;&gt;Node18 -->
<g id="edge28_Node000020_Node000018" class="edge">
<title>Node20&#45;&gt;Node18</title>
<g id="a_edge28_Node000020_Node000018"><a xlink:title=" ">
<path fill="none" stroke="#63b8ff" d="M73.42,-302.43C38.79,-289.02 -17.68,-261.41 5.96,-231 18.36,-215.05 62.63,-203.88 103.53,-196.72"/>
<polygon fill="#63b8ff" stroke="#63b8ff" points="104.28,-200.15 113.56,-195.03 103.12,-193.24 104.28,-200.15"/>
</a>
</g>
</g>
<!-- Node21 -->
<g id="Node000021" class="node">
<title>Node21</title>
<g id="a_Node000021"><a xlink:href="lightweight__di__container_8h.html" target="_top" xlink:title="Lightweight dependency injection container implementation.">
<polygon fill="white" stroke="#666666" points="372.46,-255.5 227.46,-255.5 227.46,-236.5 372.46,-236.5 372.46,-255.5"/>
<text text-anchor="middle" x="299.96" y="-243.5" font-family="Helvetica,sans-Serif" font-size="10.00">lightweight_di_container.h</text>
</a>
</g>
</g>
<!-- Node20&#45;&gt;Node21 -->
<g id="edge29_Node000020_Node000021" class="edge">
<title>Node20&#45;&gt;Node21</title>
<g id="a_edge29_Node000020_Node000021"><a xlink:title=" ">
<path fill="none" stroke="#63b8ff" d="M125.2,-302.37C160.84,-291.08 223.43,-271.25 263.23,-258.64"/>
<polygon fill="#63b8ff" stroke="#63b8ff" points="264.35,-261.95 272.83,-255.6 262.24,-255.28 264.35,-261.95"/>
</a>
</g>
</g>
<!-- Node22 -->
<g id="Node000022" class="node">
<title>Node22</title>
<g id="a_Node000022"><a xlink:href="thread__system__di__adapter_8h.html" target="_top" xlink:title="Adapter for thread_system&#39;s service container.">
<polygon fill="white" stroke="#666666" points="170.46,-255.5 15.46,-255.5 15.46,-236.5 170.46,-236.5 170.46,-255.5"/>
<text text-anchor="middle" x="92.96" y="-243.5" font-family="Helvetica,sans-Serif" font-size="10.00">thread_system_di_adapter.h</text>
</a>
</g>
</g>
<!-- Node20&#45;&gt;Node22 -->
<g id="edge33_Node000020_Node000022" class="edge">
<title>Node20&#45;&gt;Node22</title>
<g id="a_edge33_Node000020_Node000022"><a xlink:title=" ">
<path fill="none" stroke="#63b8ff" d="M97.29,-302.37C96.56,-293.07 95.38,-277.98 94.44,-265.9"/>
<polygon fill="#63b8ff" stroke="#63b8ff" points="97.93,-265.6 93.66,-255.91 90.95,-266.15 97.93,-265.6"/>
</a>
</g>
</g>
<!-- Node21&#45;&gt;Node7 -->
<g id="edge32_Node000021_Node000007" class="edge">
<title>Node21&#45;&gt;Node7</title>
<g id="a_edge32_Node000021_Node000007"><a xlink:title=" ">
<path fill="none" stroke="#63b8ff" d="M358.95,-236.42C405.58,-228.3 465.19,-214.43 479.96,-195 494.35,-176.07 470.98,-154.12 451.09,-140.16"/>
<polygon fill="#63b8ff" stroke="#63b8ff" points="452.89,-137.15 442.63,-134.51 449.01,-142.97 452.89,-137.15"/>
</a>
</g>
</g>
<!-- Node21&#45;&gt;Node17 -->
<g id="edge31_Node000021_Node000017" class="edge">
<title>Node21&#45;&gt;Node17</title>
<g id="a_edge31_Node000021_Node000017"><a xlink:title=" ">
<path fill="none" stroke="#63b8ff" d="M298.05,-236.22C293.39,-212.2 284.21,-144.87 318.96,-110 353.34,-75.51 491.68,-67.52 571.12,-65.81"/>
<polygon fill="#63b8ff" stroke="#63b8ff" points="571.51,-69.31 581.44,-65.62 571.38,-62.31 571.51,-69.31"/>
</a>
</g>
</g>
<!-- Node21&#45;&gt;Node18 -->
<g id="edge30_Node000021_Node000018" class="edge">
<title>Node21&#45;&gt;Node18</title>
<g id="a_edge30_Node000021_Node000018"><a xlink:title=" ">
<path fill="none" stroke="#63b8ff" d="M282.66,-236.49C262.92,-226.79 230.41,-210.81 207.47,-199.53"/>
<polygon fill="#63b8ff" stroke="#63b8ff" points="208.8,-196.29 198.29,-195.02 205.72,-202.57 208.8,-196.29"/>
</a>
</g>
</g>
<!-- Node22&#45;&gt;Node18 -->
<g id="edge34_Node000022_Node000018" class="edge">
<title>Node22&#45;&gt;Node18</title>
<g id="a_edge34_Node000022_Node000018"><a xlink:title=" ">
<path fill="none" stroke="#63b8ff" d="M105.95,-236.37C119.98,-227.04 142.59,-212.01 159.32,-200.88"/>
<polygon fill="#63b8ff" stroke="#63b8ff" points="161.53,-203.62 167.92,-195.17 157.66,-197.79 161.53,-203.62"/>
</a>
</g>
</g>
<!-- Node23&#45;&gt;Node3 -->
<g id="edge38_Node000023_Node000003" class="edge">
<title>Node23&#45;&gt;Node3</title>
<g id="a_edge38_Node000023_Node000003"><a xlink:title=" ">
<path fill="none" stroke="#63b8ff" d="M973.63,-109.99C990.05,-100.66 1011.52,-88.47 1027.82,-79.21"/>
<polygon fill="#63b8ff" stroke="#63b8ff" points="1029.78,-82.12 1036.75,-74.14 1026.33,-76.03 1029.78,-82.12"/>
</a>
</g>
</g>
<!-- Node23&#45;&gt;Node4 -->
<g id="edge40_Node000023_Node000004" class="edge">
<title>Node23&#45;&gt;Node4</title>
<g id="a_edge40_Node000023_Node000004"><a xlink:title=" ">
<path fill="none" stroke="#63b8ff" d="M924.29,-109.99C907.87,-100.66 886.41,-88.47 870.1,-79.21"/>
<polygon fill="#63b8ff" stroke="#63b8ff" points="871.6,-76.03 861.17,-74.14 868.14,-82.12 871.6,-76.03"/>
</a>
</g>
</g>
<!-- Node23&#45;&gt;Node8 -->
<g id="edge36_Node000023_Node000008" class="edge">
<title>Node23&#45;&gt;Node8</title>
<g id="a_edge36_Node000023_Node000008"><a xlink:title=" ">
<path fill="none" stroke="#63b8ff" d="M939.41,-109.81C927.57,-93.5 905.77,-67.4 879.96,-55 815.03,-23.79 595.17,-13.99 512.1,-11.35"/>
<polygon fill="#63b8ff" stroke="#63b8ff" points="512.09,-7.85 501.99,-11.05 511.88,-14.85 512.09,-7.85"/>
</a>
</g>
</g>
<!-- Node23&#45;&gt;Node9 -->
<g id="edge41_Node000023_Node000009" class="edge">
<title>Node23&#45;&gt;Node9</title>
<g id="a_edge41_Node000023_Node000009"><a xlink:title=" ">
<path fill="none" stroke="#63b8ff" d="M953.8,-109.84C956.47,-102.04 959.81,-92.27 962.68,-83.89"/>
<polygon fill="#63b8ff" stroke="#63b8ff" points="966.04,-84.86 965.96,-74.27 959.42,-82.6 966.04,-84.86"/>
</a>
</g>
</g>
<!-- Node23&#45;&gt;Node15 -->
<g id="edge39_Node000023_Node000015" class="edge">
<title>Node23&#45;&gt;Node15</title>
<g id="a_edge39_Node000023_Node000015"><a xlink:title=" ">
<path fill="none" stroke="#63b8ff" d="M908,-109.99C878.96,-100.05 840.41,-86.86 812.84,-77.43"/>
<polygon fill="#63b8ff" stroke="#63b8ff" points="813.81,-74.06 803.22,-74.14 811.54,-80.69 813.81,-74.06"/>
</a>
</g>
</g>
<!-- Node23&#45;&gt;Node17 -->
<g id="edge37_Node000023_Node000017" class="edge">
<title>Node23&#45;&gt;Node17</title>
<g id="a_edge37_Node000023_Node000017"><a xlink:title=" ">
<path fill="none" stroke="#63b8ff" d="M885.93,-112.51C827.48,-101.86 741.3,-86.15 684.89,-75.88"/>
<polygon fill="#63b8ff" stroke="#63b8ff" points="685.19,-72.37 674.72,-74.02 683.93,-79.26 685.19,-72.37"/>
</a>
</g>
</g>
<!-- Node24&#45;&gt;Node2 -->
<g id="edge57_Node000024_Node000002" class="edge">
<title>Node24&#45;&gt;Node2</title>
<g id="a_edge57_Node000024_Node000002"><a xlink:title=" ">
<path fill="none" stroke="#63b8ff" d="M752.14,-296.86C697.53,-271.91 580.1,-218.65 479.96,-176 448.88,-162.76 413.08,-148.3 388.14,-138.35"/>
<polygon fill="#63b8ff" stroke="#63b8ff" points="389.41,-135.08 378.83,-134.63 386.82,-141.59 389.41,-135.08"/>
</a>
</g>
</g>
<!-- Node24&#45;&gt;Node23 -->
<g id="edge43_Node000024_Node000023" class="edge">
<title>Node24&#45;&gt;Node23</title>
<g id="a_edge43_Node000024_Node000023"><a xlink:title=" ">
<path fill="none" stroke="#63b8ff" d="M833.05,-296.91C853.45,-289.09 875.94,-277.51 891.96,-261 907.93,-244.53 929.69,-184.27 941.15,-150.09"/>
<polygon fill="#63b8ff" stroke="#63b8ff" points="944.54,-150.99 944.36,-140.4 937.9,-148.79 944.54,-150.99"/>
</a>
</g>
</g>
<!-- Node25 -->
<g id="Node000025" class="node">
<title>Node25</title>
<g id="a_Node000025"><a xlink:href="basic__monitor_8h.html" target="_top" xlink:title="Basic monitoring implementation with no external dependencies.">
<polygon fill="white" stroke="#666666" points="815.96,-195 721.96,-195 721.96,-176 815.96,-176 815.96,-195"/>
<text text-anchor="middle" x="768.96" y="-183" font-family="Helvetica,sans-Serif" font-size="10.00">basic_monitor.h</text>
</a>
</g>
</g>
<!-- Node24&#45;&gt;Node25 -->
<g id="edge44_Node000024_Node000025" class="edge">
<title>Node24&#45;&gt;Node25</title>
<g id="a_edge44_Node000024_Node000025"><a xlink:title=" ">
<path fill="none" stroke="#63b8ff" d="M766.12,-296.65C756.76,-287.52 746.01,-274.85 740.96,-261 736.4,-248.47 737.27,-243.81 740.96,-231 743.83,-221.06 749.65,-211.2 755.24,-203.29"/>
<polygon fill="#63b8ff" stroke="#63b8ff" points="758.04,-205.39 761.29,-195.3 752.46,-201.16 758.04,-205.39"/>
</a>
</g>
</g>
<!-- Node27 -->
<g id="Node000027" class="node">
<title>Node27</title>
<g id="a_Node000027"><a xlink:href="thread__system__monitor__adapter_8h.html" target="_top" xlink:title="Adapter for thread_system&#39;s monitoring capabilities.">
<polygon fill="white" stroke="#666666" points="882.46,-261 749.46,-261 749.46,-231 882.46,-231 882.46,-261"/>
<text text-anchor="start" x="757.46" y="-249" font-family="Helvetica,sans-Serif" font-size="10.00">thread_system_monitor</text>
<text text-anchor="middle" x="815.96" y="-238" font-family="Helvetica,sans-Serif" font-size="10.00">_adapter.h</text>
</a>
</g>
</g>
<!-- Node24&#45;&gt;Node27 -->
<g id="edge54_Node000024_Node000027" class="edge">
<title>Node24&#45;&gt;Node27</title>
<g id="a_edge54_Node000024_Node000027"><a xlink:title=" ">
<path fill="none" stroke="#63b8ff" d="M790.29,-296.8C794.3,-289.01 799.38,-279.16 803.96,-270.28"/>
<polygon fill="#63b8ff" stroke="#63b8ff" points="807.19,-271.66 808.66,-261.16 800.96,-268.45 807.19,-271.66"/>
</a>
</g>
</g>
<!-- Node25&#45;&gt;Node2 -->
<g id="edge47_Node000025_Node000002" class="edge">
<title>Node25&#45;&gt;Node2</title>
<g id="a_edge47_Node000025_Node000002"><a xlink:title=" ">
<path fill="none" stroke="#63b8ff" d="M721.93,-177.23C718.89,-176.8 715.89,-176.39 712.96,-176 571.96,-157.32 533.36,-172.82 394.96,-140 392.45,-139.4 389.87,-138.69 387.31,-137.91"/>
<polygon fill="#63b8ff" stroke="#63b8ff" points="388.19,-134.51 377.59,-134.62 385.94,-141.14 388.19,-134.51"/>
</a>
</g>
</g>
<!-- Node25&#45;&gt;Node3 -->
<g id="edge49_Node000025_Node000003" class="edge">
<title>Node25&#45;&gt;Node3</title>
<g id="a_edge49_Node000025_Node000003"><a xlink:title=" ">
<path fill="none" stroke="#63b8ff" d="M816.03,-181.53C880.02,-176.62 990.07,-164.76 1020.96,-140 1038.09,-126.27 1045.86,-101.44 1049.32,-84.24"/>
<polygon fill="#63b8ff" stroke="#63b8ff" points="1052.79,-84.68 1051.02,-74.23 1045.89,-83.51 1052.79,-84.68"/>
</a>
</g>
</g>
<!-- Node25&#45;&gt;Node4 -->
<g id="edge48_Node000025_Node000004" class="edge">
<title>Node25&#45;&gt;Node4</title>
<g id="a_edge48_Node000025_Node000004"><a xlink:title=" ">
<path fill="none" stroke="#63b8ff" d="M780.76,-175.75C791.19,-167.5 806.22,-154.3 815.96,-140 827.82,-122.58 836.13,-99.77 840.95,-84"/>
<polygon fill="#63b8ff" stroke="#63b8ff" points="844.33,-84.93 843.73,-74.36 837.6,-82.99 844.33,-84.93"/>
</a>
</g>
</g>
<!-- Node25&#45;&gt;Node7 -->
<g id="edge46_Node000025_Node000007" class="edge">
<title>Node25&#45;&gt;Node7</title>
<g id="a_edge46_Node000025_Node000007"><a xlink:title=" ">
<path fill="none" stroke="#63b8ff" d="M721.91,-176.43C652.3,-164.49 523.54,-142.4 462.19,-131.87"/>
<polygon fill="#63b8ff" stroke="#63b8ff" points="462.69,-128.41 452.24,-130.17 461.51,-135.31 462.69,-128.41"/>
</a>
</g>
</g>
<!-- Node25&#45;&gt;Node15 -->
<g id="edge51_Node000025_Node000015" class="edge">
<title>Node25&#45;&gt;Node15</title>
<g id="a_edge51_Node000025_Node000015"><a xlink:title=" ">
<path fill="none" stroke="#63b8ff" d="M777.71,-175.9C785.52,-167.56 796.41,-154.13 800.96,-140 805.05,-127.31 804.11,-122.96 800.96,-110 798.65,-100.51 793.94,-90.78 789.38,-82.85"/>
<polygon fill="#63b8ff" stroke="#63b8ff" points="792.29,-80.89 784.07,-74.2 786.32,-84.55 792.29,-80.89"/>
</a>
</g>
</g>
<!-- Node25&#45;&gt;Node16 -->
<g id="edge53_Node000025_Node000016" class="edge">
<title>Node25&#45;&gt;Node16</title>
<g id="a_edge53_Node000025_Node000016"><a xlink:title=" ">
<path fill="none" stroke="#63b8ff" d="M751.22,-175.99C730.89,-166.25 697.36,-150.16 673.82,-138.88"/>
<polygon fill="#63b8ff" stroke="#63b8ff" points="675.25,-135.68 664.72,-134.52 672.23,-142 675.25,-135.68"/>
</a>
</g>
</g>
<!-- Node25&#45;&gt;Node17 -->
<g id="edge50_Node000025_Node000017" class="edge">
<title>Node25&#45;&gt;Node17</title>
<g id="a_edge50_Node000025_Node000017"><a xlink:title=" ">
<path fill="none" stroke="#63b8ff" d="M758.94,-176C742.62,-162.15 709.27,-133.87 680.96,-110 669.34,-100.2 656.25,-89.21 645.99,-80.61"/>
<polygon fill="#63b8ff" stroke="#63b8ff" points="648.04,-77.76 638.13,-74.02 643.55,-83.13 648.04,-77.76"/>
</a>
</g>
</g>
<!-- Node25&#45;&gt;Node23 -->
<g id="edge45_Node000025_Node000023" class="edge">
<title>Node25&#45;&gt;Node23</title>
<g id="a_edge45_Node000025_Node000023"><a xlink:title=" ">
<path fill="none" stroke="#63b8ff" d="M795.14,-175.99C821.49,-167.43 862.9,-153.97 896.11,-143.18"/>
<polygon fill="#63b8ff" stroke="#63b8ff" points="897.26,-146.48 905.69,-140.06 895.1,-139.83 897.26,-146.48"/>
</a>
</g>
</g>
<!-- Node26 -->
<g id="Node000026" class="node">
<title>Node26</title>
<g id="a_Node000026"><a xlink:title=" ">
<polygon fill="#e0e0e0" stroke="#999999" points="791.96,-134.5 727.96,-134.5 727.96,-115.5 791.96,-115.5 791.96,-134.5"/>
<text text-anchor="middle" x="759.96" y="-122.5" font-family="Helvetica,sans-Serif" font-size="10.00">algorithm</text>
</a>
</g>
</g>
<!-- Node25&#45;&gt;Node26 -->
<g id="edge52_Node000025_Node000026" class="edge">
<title>Node25&#45;&gt;Node26</title>
<g id="a_edge52_Node000025_Node000026"><a xlink:title=" ">
<path fill="none" stroke="#63b8ff" d="M767.63,-175.87C766.37,-167.66 764.43,-155.04 762.82,-144.55"/>
<polygon fill="#63b8ff" stroke="#63b8ff" points="766.28,-144.02 761.3,-134.67 759.36,-145.08 766.28,-144.02"/>
</a>
</g>
</g>
<!-- Node27&#45;&gt;Node23 -->
<g id="edge55_Node000027_Node000023" class="edge">
<title>Node27&#45;&gt;Node23</title>
<g id="a_edge55_Node000027_Node000023"><a xlink:title=" ">
<path fill="none" stroke="#63b8ff" d="M831.74,-230.88C855.04,-210.04 898.78,-170.9 925.75,-146.77"/>
<polygon fill="#63b8ff" stroke="#63b8ff" points="928.08,-149.38 933.2,-140.1 923.42,-144.16 928.08,-149.38"/>
</a>
</g>
</g>
<!-- Node27&#45;&gt;Node25 -->
<g id="edge56_Node000027_Node000025" class="edge">
<title>Node27&#45;&gt;Node25</title>
<g id="a_edge56_Node000027_Node000025"><a xlink:title=" ">
<path fill="none" stroke="#63b8ff" d="M804.58,-230.84C797.9,-222.52 789.42,-211.96 782.4,-203.23"/>
<polygon fill="#63b8ff" stroke="#63b8ff" points="785,-200.87 776,-195.27 779.54,-205.25 785,-200.87"/>
</a>
</g>
</g>
</g>
</svg>
