<?xml version="1.0" encoding="UTF-8" standalone="no"?>
<!DOCTYPE svg PUBLIC "-//W3C//DTD SVG 1.1//EN"
 "http://www.w3.org/Graphics/SVG/1.1/DTD/svg11.dtd">
<!-- Generated by graphviz version 2.43.0 (0)
 -->
<!-- Title: logger_interface.h Pages: 1 -->
<svg width="1474pt" height="302pt"
 viewBox="0.00 0.00 1474.12 302.00" xmlns="http://www.w3.org/2000/svg" xmlns:xlink="http://www.w3.org/1999/xlink">
<g id="graph0" class="graph" transform="scale(1 1) rotate(0) translate(4 298)">
<title>logger_interface.h</title>
<!-- Node1 -->
<g id="Node000001" class="node">
<title>Node1</title>
<g id="a_Node000001"><a xlink:title=" ">
<polygon fill="#999999" stroke="#666666" points="827,-294 722,-294 722,-275 827,-275 827,-294"/>
<text text-anchor="middle" x="774.5" y="-282" font-family="Helvetica,sans-Serif" font-size="10.00">logger_interface.h</text>
</a>
</g>
</g>
<!-- Node2 -->
<g id="Node000002" class="node">
<title>Node2</title>
<g id="a_Node000002"><a xlink:href="base__writer_8h.html" target="_top" xlink:title=" ">
<polygon fill="white" stroke="#666666" points="827.5,-184 745.5,-184 745.5,-165 827.5,-165 827.5,-184"/>
<text text-anchor="middle" x="786.5" y="-172" font-family="Helvetica,sans-Serif" font-size="10.00">base_writer.h</text>
</a>
</g>
</g>
<!-- Node1&#45;&gt;Node2 -->
<g id="edge1_Node000001_Node000002" class="edge">
<title>Node1&#45;&gt;Node2</title>
<g id="a_edge1_Node000001_Node000002"><a xlink:title=" ">
<path fill="none" stroke="#63b8ff" d="M776.61,-264.48C779.24,-240.84 783.61,-201.5 785.54,-184.16"/>
<polygon fill="#63b8ff" stroke="#63b8ff" points="773.11,-264.34 775.48,-274.66 780.07,-265.11 773.11,-264.34"/>
</a>
</g>
</g>
<!-- Node20 -->
<g id="Node000020" class="node">
<title>Node20</title>
<g id="a_Node000020"><a xlink:href="log__analyzer_8h.html" target="_top" xlink:title=" ">
<polygon fill="white" stroke="#666666" points="928,-239 841,-239 841,-220 928,-220 928,-239"/>
<text text-anchor="middle" x="884.5" y="-227" font-family="Helvetica,sans-Serif" font-size="10.00">log_analyzer.h</text>
</a>
</g>
</g>
<!-- Node1&#45;&gt;Node20 -->
<g id="edge21_Node000001_Node000020" class="edge">
<title>Node1&#45;&gt;Node20</title>
<g id="a_edge21_Node000001_Node000020"><a xlink:title=" ">
<path fill="none" stroke="#63b8ff" d="M801.2,-270.63C821.47,-260.87 848.77,-247.71 866.51,-239.17"/>
<polygon fill="#63b8ff" stroke="#63b8ff" points="799.66,-267.49 792.17,-274.98 802.7,-273.8 799.66,-267.49"/>
</a>
</g>
</g>
<!-- Node22 -->
<g id="Node000022" class="node">
<title>Node22</title>
<g id="a_Node000022"><a xlink:href="log__collector_8h.html" target="_top" xlink:title=" ">
<polygon fill="white" stroke="#666666" points="1197,-184 1110,-184 1110,-165 1197,-165 1197,-184"/>
<text text-anchor="middle" x="1153.5" y="-172" font-family="Helvetica,sans-Serif" font-size="10.00">log_collector.h</text>
</a>
</g>
</g>
<!-- Node1&#45;&gt;Node22 -->
<g id="edge23_Node000001_Node000022" class="edge">
<title>Node1&#45;&gt;Node22</title>
<g id="a_edge23_Node000001_Node000022"><a xlink:title=" ">
<path fill="none" stroke="#63b8ff" d="M785.12,-265.97C795.12,-251.12 811.54,-230.6 831.5,-220 878.85,-194.85 1033.28,-182.52 1109.77,-177.83"/>
<polygon fill="#63b8ff" stroke="#63b8ff" points="781.94,-264.44 779.5,-274.75 787.84,-268.22 781.94,-264.44"/>
</a>
</g>
</g>
<!-- Node23 -->
<g id="Node000023" class="node">
<title>Node23</title>
<g id="a_Node000023"><a xlink:href="log__entry_8h.html" target="_top" xlink:title=" ">
<polygon fill="white" stroke="#666666" points="723.5,-239 653.5,-239 653.5,-220 723.5,-220 723.5,-239"/>
<text text-anchor="middle" x="688.5" y="-227" font-family="Helvetica,sans-Serif" font-size="10.00">log_entry.h</text>
</a>
</g>
</g>
<!-- Node1&#45;&gt;Node23 -->
<g id="edge27_Node000001_Node000023" class="edge">
<title>Node1&#45;&gt;Node23</title>
<g id="a_edge27_Node000001_Node000023"><a xlink:title=" ">
<path fill="none" stroke="#63b8ff" d="M752.1,-269.7C736.43,-260.04 715.99,-247.44 702.57,-239.17"/>
<polygon fill="#63b8ff" stroke="#63b8ff" points="750.33,-272.72 760.68,-274.98 754.01,-266.76 750.33,-272.72"/>
</a>
</g>
</g>
<!-- Node25 -->
<g id="Node000025" class="node">
<title>Node25</title>
<g id="a_Node000025"><a xlink:href="log__filter_8h.html" target="_top" xlink:title=" ">
<polygon fill="white" stroke="#666666" points="608.5,-184 540.5,-184 540.5,-165 608.5,-165 608.5,-184"/>
<text text-anchor="middle" x="574.5" y="-172" font-family="Helvetica,sans-Serif" font-size="10.00">log_filter.h</text>
</a>
</g>
</g>
<!-- Node1&#45;&gt;Node25 -->
<g id="edge38_Node000001_Node000025" class="edge">
<title>Node1&#45;&gt;Node25</title>
<g id="a_edge38_Node000001_Node000025"><a xlink:title=" ">
<path fill="none" stroke="#63b8ff" d="M727.07,-272.28C701.51,-265.03 670.07,-254.1 644.5,-239 618.5,-223.65 593.71,-197.56 581.83,-184.1"/>
<polygon fill="#63b8ff" stroke="#63b8ff" points="726.33,-275.71 736.9,-274.98 728.18,-268.96 726.33,-275.71"/>
</a>
</g>
</g>
<!-- Node28 -->
<g id="Node000028" class="node">
<title>Node28</title>
<g id="a_Node000028"><a xlink:href="logger_8h.html" target="_top" xlink:title=" ">
<polygon fill="white" stroke="#666666" points="298.5,-129 242.5,-129 242.5,-110 298.5,-110 298.5,-129"/>
<text text-anchor="middle" x="270.5" y="-117" font-family="Helvetica,sans-Serif" font-size="10.00">logger.h</text>
</a>
</g>
</g>
<!-- Node1&#45;&gt;Node28 -->
<g id="edge39_Node000001_Node000028" class="edge">
<title>Node1&#45;&gt;Node28</title>
<g id="a_edge39_Node000001_Node000028"><a xlink:title=" ">
<path fill="none" stroke="#63b8ff" d="M731.8,-272.27C699.68,-263.65 654.64,-251.19 615.5,-239 493.36,-200.97 349.17,-149.17 293.77,-129.02"/>
<polygon fill="#63b8ff" stroke="#63b8ff" points="731.19,-275.73 741.75,-274.93 733,-268.97 731.19,-275.73"/>
</a>
</g>
</g>
<!-- Node29 -->
<g id="Node000029" class="node">
<title>Node29</title>
<g id="a_Node000029"><a xlink:href="logger__config_8h.html" target="_top" xlink:title=" ">
<polygon fill="white" stroke="#666666" points="222,-184 131,-184 131,-165 222,-165 222,-184"/>
<text text-anchor="middle" x="176.5" y="-172" font-family="Helvetica,sans-Serif" font-size="10.00">logger_config.h</text>
</a>
</g>
</g>
<!-- Node1&#45;&gt;Node29 -->
<g id="edge42_Node000001_Node000029" class="edge">
<title>Node1&#45;&gt;Node29</title>
<g id="a_edge42_Node000001_Node000029"><a xlink:title=" ">
<path fill="none" stroke="#63b8ff" d="M711.61,-280.98C630.37,-276.75 484.97,-265.86 363.5,-239 301.23,-225.23 230.73,-197.95 196.83,-184.06"/>
<polygon fill="#63b8ff" stroke="#63b8ff" points="711.51,-284.48 721.67,-281.49 711.86,-277.49 711.51,-284.48"/>
</a>
</g>
</g>
<!-- Node31 -->
<g id="Node000031" class="node">
<title>Node31</title>
<g id="a_Node000031"><a xlink:href="overflow__policy_8h.html" target="_top" xlink:title=" ">
<polygon fill="white" stroke="#666666" points="1047,-239 946,-239 946,-220 1047,-220 1047,-239"/>
<text text-anchor="middle" x="996.5" y="-227" font-family="Helvetica,sans-Serif" font-size="10.00">overflow_policy.h</text>
</a>
</g>
</g>
<!-- Node1&#45;&gt;Node31 -->
<g id="edge46_Node000001_Node000031" class="edge">
<title>Node1&#45;&gt;Node31</title>
<g id="a_edge46_Node000001_Node000031"><a xlink:title=" ">
<path fill="none" stroke="#63b8ff" d="M820.04,-272.63C861.63,-262.7 922.28,-248.22 960.55,-239.08"/>
<polygon fill="#63b8ff" stroke="#63b8ff" points="819.08,-269.26 810.17,-274.98 820.71,-276.07 819.08,-269.26"/>
</a>
</g>
</g>
<!-- Node33 -->
<g id="Node000033" class="node">
<title>Node33</title>
<g id="a_Node000033"><a xlink:href="structured__logger_8h.html" target="_top" xlink:title=" ">
<polygon fill="white" stroke="#666666" points="1175.5,-239 1065.5,-239 1065.5,-220 1175.5,-220 1175.5,-239"/>
<text text-anchor="middle" x="1120.5" y="-227" font-family="Helvetica,sans-Serif" font-size="10.00">structured_logger.h</text>
</a>
</g>
</g>
<!-- Node1&#45;&gt;Node33 -->
<g id="edge48_Node000001_Node000033" class="edge">
<title>Node1&#45;&gt;Node33</title>
<g id="a_edge48_Node000001_Node000033"><a xlink:title=" ">
<path fill="none" stroke="#63b8ff" d="M837.19,-273.9C902.33,-263.92 1003.29,-248.45 1065.45,-238.93"/>
<polygon fill="#63b8ff" stroke="#63b8ff" points="836.4,-270.48 827.05,-275.45 837.46,-277.4 836.4,-270.48"/>
</a>
</g>
</g>
<!-- Node3 -->
<g id="Node000003" class="node">
<title>Node3</title>
<g id="a_Node000003"><a xlink:href="batch__writer_8h.html" target="_top" xlink:title=" ">
<polygon fill="white" stroke="#666666" points="440.5,-129 354.5,-129 354.5,-110 440.5,-110 440.5,-129"/>
<text text-anchor="middle" x="397.5" y="-117" font-family="Helvetica,sans-Serif" font-size="10.00">batch_writer.h</text>
</a>
</g>
</g>
<!-- Node2&#45;&gt;Node3 -->
<g id="edge2_Node000002_Node000003" class="edge">
<title>Node2&#45;&gt;Node3</title>
<g id="a_edge2_Node000002_Node000003"><a xlink:title=" ">
<path fill="none" stroke="#63b8ff" d="M735.16,-164.86C607.61,-146.27 573.5,-146.91 449.5,-129 446.6,-128.58 443.62,-128.14 440.61,-127.67"/>
<polygon fill="#63b8ff" stroke="#63b8ff" points="734.92,-168.36 745.32,-166.35 735.94,-161.44 734.92,-168.36"/>
</a>
</g>
</g>
<!-- Node5 -->
<g id="Node000005" class="node">
<title>Node5</title>
<g id="a_Node000005"><a xlink:href="logger__builder_8h.html" target="_top" xlink:title=" ">
<polygon fill="white" stroke="#666666" points="290,-74 195,-74 195,-55 290,-55 290,-74"/>
<text text-anchor="middle" x="242.5" y="-62" font-family="Helvetica,sans-Serif" font-size="10.00">logger_builder.h</text>
</a>
</g>
</g>
<!-- Node2&#45;&gt;Node5 -->
<g id="edge18_Node000002_Node000005" class="edge">
<title>Node2&#45;&gt;Node5</title>
<g id="a_edge18_Node000002_Node000005"><a xlink:title=" ">
<path fill="none" stroke="#63b8ff" d="M735.35,-164.98C561.48,-143.88 507.96,-183.23 345.5,-129 326.37,-122.62 278,-90.09 255.01,-74.22"/>
<polygon fill="#63b8ff" stroke="#63b8ff" points="734.98,-168.46 745.34,-166.25 735.85,-161.52 734.98,-168.46"/>
</a>
</g>
</g>
<!-- Node6 -->
<g id="Node000006" class="node">
<title>Node6</title>
<g id="a_Node000006"><a xlink:href="console__writer_8h.html" target="_top" xlink:title=" ">
<polygon fill="white" stroke="#666666" points="1162.5,-129 1066.5,-129 1066.5,-110 1162.5,-110 1162.5,-129"/>
<text text-anchor="middle" x="1114.5" y="-117" font-family="Helvetica,sans-Serif" font-size="10.00">console_writer.h</text>
</a>
</g>
</g>
<!-- Node2&#45;&gt;Node6 -->
<g id="edge5_Node000002_Node000006" class="edge">
<title>Node2&#45;&gt;Node6</title>
<g id="a_edge5_Node000002_Node000006"><a xlink:title=" ">
<path fill="none" stroke="#63b8ff" d="M837.74,-165.22C900.26,-155.12 1005.16,-138.17 1066.28,-128.29"/>
<polygon fill="#63b8ff" stroke="#63b8ff" points="837.02,-161.79 827.71,-166.84 838.14,-168.7 837.02,-161.79"/>
</a>
</g>
</g>
<!-- Node8 -->
<g id="Node000008" class="node">
<title>Node8</title>
<g id="a_Node000008"><a xlink:href="encrypted__writer_8h.html" target="_top" xlink:title=" ">
<polygon fill="white" stroke="#666666" points="840,-129 733,-129 733,-110 840,-110 840,-129"/>
<text text-anchor="middle" x="786.5" y="-117" font-family="Helvetica,sans-Serif" font-size="10.00">encrypted_writer.h</text>
</a>
</g>
</g>
<!-- Node2&#45;&gt;Node8 -->
<g id="edge7_Node000002_Node000008" class="edge">
<title>Node2&#45;&gt;Node8</title>
<g id="a_edge7_Node000002_Node000008"><a xlink:title=" ">
<path fill="none" stroke="#63b8ff" d="M786.5,-154.66C786.5,-145.93 786.5,-135.99 786.5,-129.09"/>
<polygon fill="#63b8ff" stroke="#63b8ff" points="783,-154.75 786.5,-164.75 790,-154.75 783,-154.75"/>
</a>
</g>
</g>
<!-- Node10 -->
<g id="Node000010" class="node">
<title>Node10</title>
<g id="a_Node000010"><a xlink:href="file__writer_8h.html" target="_top" xlink:title=" ">
<polygon fill="white" stroke="#666666" points="932.5,-129 858.5,-129 858.5,-110 932.5,-110 932.5,-129"/>
<text text-anchor="middle" x="895.5" y="-117" font-family="Helvetica,sans-Serif" font-size="10.00">file_writer.h</text>
</a>
</g>
</g>
<!-- Node2&#45;&gt;Node10 -->
<g id="edge9_Node000002_Node000010" class="edge">
<title>Node2&#45;&gt;Node10</title>
<g id="a_edge9_Node000002_Node000010"><a xlink:title=" ">
<path fill="none" stroke="#63b8ff" d="M813.23,-160.5C833.29,-150.75 860.18,-137.68 877.67,-129.17"/>
<polygon fill="#63b8ff" stroke="#63b8ff" points="811.48,-157.46 804.01,-164.98 814.54,-163.76 811.48,-157.46"/>
</a>
</g>
</g>
<!-- Node14 -->
<g id="Node000014" class="node">
<title>Node14</title>
<g id="a_Node000014"><a xlink:href="health__check__system_8cpp.html" target="_top" xlink:title=" ">
<polygon fill="white" stroke="#666666" points="1440,-129 1297,-129 1297,-110 1440,-110 1440,-129"/>
<text text-anchor="middle" x="1368.5" y="-117" font-family="Helvetica,sans-Serif" font-size="10.00">health_check_system.cpp</text>
</a>
</g>
</g>
<!-- Node2&#45;&gt;Node14 -->
<g id="edge13_Node000002_Node000014" class="edge">
<title>Node2&#45;&gt;Node14</title>
<g id="a_edge13_Node000002_Node000014"><a xlink:title=" ">
<path fill="none" stroke="#63b8ff" d="M837.78,-169.22C928.51,-161.58 1123.26,-144.91 1287.5,-129 1290.6,-128.7 1293.76,-128.39 1296.95,-128.07"/>
<polygon fill="#63b8ff" stroke="#63b8ff" points="837.43,-165.73 827.76,-170.06 838.02,-172.71 837.43,-165.73"/>
</a>
</g>
</g>
<!-- Node15 -->
<g id="Node000015" class="node">
<title>Node15</title>
<g id="a_Node000015"><a xlink:href="log__collector_8cpp.html" target="_top" xlink:title=" ">
<polygon fill="white" stroke="#666666" points="1278.5,-129 1180.5,-129 1180.5,-110 1278.5,-110 1278.5,-129"/>
<text text-anchor="middle" x="1229.5" y="-117" font-family="Helvetica,sans-Serif" font-size="10.00">log_collector.cpp</text>
</a>
</g>
</g>
<!-- Node2&#45;&gt;Node15 -->
<g id="edge14_Node000002_Node000015" class="edge">
<title>Node2&#45;&gt;Node15</title>
<g id="a_edge14_Node000002_Node000015"><a xlink:title=" ">
<path fill="none" stroke="#63b8ff" d="M837.53,-168.1C911.31,-160.18 1052.03,-144.66 1171.5,-129 1174.43,-128.62 1177.43,-128.21 1180.47,-127.79"/>
<polygon fill="#63b8ff" stroke="#63b8ff" points="837.15,-164.62 827.58,-169.17 837.89,-171.58 837.15,-164.62"/>
</a>
</g>
</g>
<!-- Node16 -->
<g id="Node000016" class="node">
<title>Node16</title>
<g id="a_Node000016"><a xlink:href="log__router_8h.html" target="_top" xlink:title=" ">
<polygon fill="white" stroke="#666666" points="676.5,-129 602.5,-129 602.5,-110 676.5,-110 676.5,-129"/>
<text text-anchor="middle" x="639.5" y="-117" font-family="Helvetica,sans-Serif" font-size="10.00">log_router.h</text>
</a>
</g>
</g>
<!-- Node2&#45;&gt;Node16 -->
<g id="edge15_Node000002_Node000016" class="edge">
<title>Node2&#45;&gt;Node16</title>
<g id="a_edge15_Node000002_Node000016"><a xlink:title=" ">
<path fill="none" stroke="#63b8ff" d="M753.36,-161.55C726.06,-151.71 688,-137.98 663.55,-129.17"/>
<polygon fill="#63b8ff" stroke="#63b8ff" points="752.29,-164.89 762.88,-164.98 754.66,-158.3 752.29,-164.89"/>
</a>
</g>
</g>
<!-- Node17 -->
<g id="Node000017" class="node">
<title>Node17</title>
<g id="a_Node000017"><a xlink:href="logger_8cpp.html" target="_top" xlink:title=" ">
<polygon fill="white" stroke="#666666" points="660,-74 593,-74 593,-55 660,-55 660,-74"/>
<text text-anchor="middle" x="626.5" y="-62" font-family="Helvetica,sans-Serif" font-size="10.00">logger.cpp</text>
</a>
</g>
</g>
<!-- Node2&#45;&gt;Node17 -->
<g id="edge17_Node000002_Node000017" class="edge">
<title>Node2&#45;&gt;Node17</title>
<g id="a_edge17_Node000002_Node000017"><a xlink:title=" ">
<path fill="none" stroke="#63b8ff" d="M765.03,-159.01C731.27,-136.22 666.82,-92.72 639.38,-74.2"/>
<polygon fill="#63b8ff" stroke="#63b8ff" points="763.43,-162.15 773.68,-164.84 767.35,-156.35 763.43,-162.15"/>
</a>
</g>
</g>
<!-- Node18 -->
<g id="Node000018" class="node">
<title>Node18</title>
<g id="a_Node000018"><a xlink:href="network__writer_8h.html" target="_top" xlink:title=" ">
<polygon fill="white" stroke="#666666" points="1048.5,-129 950.5,-129 950.5,-110 1048.5,-110 1048.5,-129"/>
<text text-anchor="middle" x="999.5" y="-117" font-family="Helvetica,sans-Serif" font-size="10.00">network_writer.h</text>
</a>
</g>
</g>
<!-- Node2&#45;&gt;Node18 -->
<g id="edge19_Node000002_Node000018" class="edge">
<title>Node2&#45;&gt;Node18</title>
<g id="a_edge19_Node000002_Node000018"><a xlink:title=" ">
<path fill="none" stroke="#63b8ff" d="M830.45,-162.56C870.34,-152.64 928.37,-138.2 965.01,-129.08"/>
<polygon fill="#63b8ff" stroke="#63b8ff" points="829.58,-159.17 820.72,-164.98 831.27,-165.97 829.58,-159.17"/>
</a>
</g>
</g>
<!-- Node4 -->
<g id="Node000004" class="node">
<title>Node4</title>
<g id="a_Node000004"><a xlink:href="batch__writer_8cpp.html" target="_top" xlink:title=" ">
<polygon fill="white" stroke="#666666" points="440,-74 343,-74 343,-55 440,-55 440,-74"/>
<text text-anchor="middle" x="391.5" y="-62" font-family="Helvetica,sans-Serif" font-size="10.00">batch_writer.cpp</text>
</a>
</g>
</g>
<!-- Node3&#45;&gt;Node4 -->
<g id="edge3_Node000003_Node000004" class="edge">
<title>Node3&#45;&gt;Node4</title>
<g id="a_edge3_Node000003_Node000004"><a xlink:title=" ">
<path fill="none" stroke="#63b8ff" d="M395.37,-99.66C394.38,-90.93 393.25,-80.99 392.47,-74.09"/>
<polygon fill="#63b8ff" stroke="#63b8ff" points="391.91,-100.21 396.51,-109.75 398.86,-99.42 391.91,-100.21"/>
</a>
</g>
</g>
<!-- Node3&#45;&gt;Node5 -->
<g id="edge4_Node000003_Node000005" class="edge">
<title>Node3&#45;&gt;Node5</title>
<g id="a_edge4_Node000003_Node000005"><a xlink:title=" ">
<path fill="none" stroke="#63b8ff" d="M362.9,-106.67C334,-96.79 293.47,-82.93 267.6,-74.08"/>
<polygon fill="#63b8ff" stroke="#63b8ff" points="362,-110.06 372.6,-109.98 364.27,-103.44 362,-110.06"/>
</a>
</g>
</g>
<!-- Node7 -->
<g id="Node000007" class="node">
<title>Node7</title>
<g id="a_Node000007"><a xlink:href="console__writer_8cpp.html" target="_top" xlink:title=" ">
<polygon fill="white" stroke="#666666" points="1289,-74 1182,-74 1182,-55 1289,-55 1289,-74"/>
<text text-anchor="middle" x="1235.5" y="-62" font-family="Helvetica,sans-Serif" font-size="10.00">console_writer.cpp</text>
</a>
</g>
</g>
<!-- Node6&#45;&gt;Node7 -->
<g id="edge6_Node000006_Node000007" class="edge">
<title>Node6&#45;&gt;Node7</title>
<g id="a_edge6_Node000006_Node000007"><a xlink:title=" ">
<path fill="none" stroke="#63b8ff" d="M1143.27,-105.9C1165.62,-96.11 1196.02,-82.79 1215.71,-74.17"/>
<polygon fill="#63b8ff" stroke="#63b8ff" points="1141.7,-102.77 1133.94,-109.98 1144.5,-109.18 1141.7,-102.77"/>
</a>
</g>
</g>
<!-- Node9 -->
<g id="Node000009" class="node">
<title>Node9</title>
<g id="a_Node000009"><a xlink:href="encrypted__writer_8cpp.html" target="_top" xlink:title=" ">
<polygon fill="white" stroke="#666666" points="797,-74 678,-74 678,-55 797,-55 797,-74"/>
<text text-anchor="middle" x="737.5" y="-62" font-family="Helvetica,sans-Serif" font-size="10.00">encrypted_writer.cpp</text>
</a>
</g>
</g>
<!-- Node8&#45;&gt;Node9 -->
<g id="edge8_Node000008_Node000009" class="edge">
<title>Node8&#45;&gt;Node9</title>
<g id="a_edge8_Node000008_Node000009"><a xlink:title=" ">
<path fill="none" stroke="#63b8ff" d="M771.47,-102.24C762.88,-92.95 752.46,-81.68 745.44,-74.09"/>
<polygon fill="#63b8ff" stroke="#63b8ff" points="769.05,-104.78 778.41,-109.75 774.19,-100.03 769.05,-104.78"/>
</a>
</g>
</g>
<!-- Node11 -->
<g id="Node000011" class="node">
<title>Node11</title>
<g id="a_Node000011"><a xlink:href="file__writer_8cpp.html" target="_top" xlink:title=" ">
<polygon fill="white" stroke="#666666" points="900,-74 815,-74 815,-55 900,-55 900,-74"/>
<text text-anchor="middle" x="857.5" y="-62" font-family="Helvetica,sans-Serif" font-size="10.00">file_writer.cpp</text>
</a>
</g>
</g>
<!-- Node10&#45;&gt;Node11 -->
<g id="edge10_Node000010_Node000011" class="edge">
<title>Node10&#45;&gt;Node11</title>
<g id="a_edge10_Node000010_Node000011"><a xlink:title=" ">
<path fill="none" stroke="#63b8ff" d="M883.23,-101.39C876.69,-92.27 868.93,-81.45 863.66,-74.09"/>
<polygon fill="#63b8ff" stroke="#63b8ff" points="880.55,-103.66 889.23,-109.75 886.24,-99.58 880.55,-103.66"/>
</a>
</g>
</g>
<!-- Node12 -->
<g id="Node000012" class="node">
<title>Node12</title>
<g id="a_Node000012"><a xlink:href="rotating__file__writer_8h.html" target="_top" xlink:title=" ">
<polygon fill="white" stroke="#666666" points="1035,-74 918,-74 918,-55 1035,-55 1035,-74"/>
<text text-anchor="middle" x="976.5" y="-62" font-family="Helvetica,sans-Serif" font-size="10.00">rotating_file_writer.h</text>
</a>
</g>
</g>
<!-- Node10&#45;&gt;Node12 -->
<g id="edge11_Node000010_Node000012" class="edge">
<title>Node10&#45;&gt;Node12</title>
<g id="a_edge11_Node000010_Node000012"><a xlink:title=" ">
<path fill="none" stroke="#63b8ff" d="M917.01,-104.42C931.71,-94.81 950.72,-82.37 963.25,-74.17"/>
<polygon fill="#63b8ff" stroke="#63b8ff" points="914.97,-101.58 908.51,-109.98 918.8,-107.44 914.97,-101.58"/>
</a>
</g>
</g>
<!-- Node13 -->
<g id="Node000013" class="node">
<title>Node13</title>
<g id="a_Node000013"><a xlink:href="rotating__file__writer_8cpp.html" target="_top" xlink:title=" ">
<polygon fill="white" stroke="#666666" points="1040.5,-19 912.5,-19 912.5,0 1040.5,0 1040.5,-19"/>
<text text-anchor="middle" x="976.5" y="-7" font-family="Helvetica,sans-Serif" font-size="10.00">rotating_file_writer.cpp</text>
</a>
</g>
</g>
<!-- Node12&#45;&gt;Node13 -->
<g id="edge12_Node000012_Node000013" class="edge">
<title>Node12&#45;&gt;Node13</title>
<g id="a_edge12_Node000012_Node000013"><a xlink:title=" ">
<path fill="none" stroke="#63b8ff" d="M976.5,-44.66C976.5,-35.93 976.5,-25.99 976.5,-19.09"/>
<polygon fill="#63b8ff" stroke="#63b8ff" points="973,-44.75 976.5,-54.75 980,-44.75 973,-44.75"/>
</a>
</g>
</g>
<!-- Node16&#45;&gt;Node17 -->
<g id="edge16_Node000016_Node000017" class="edge">
<title>Node16&#45;&gt;Node17</title>
<g id="a_edge16_Node000016_Node000017"><a xlink:title=" ">
<path fill="none" stroke="#63b8ff" d="M634.95,-99.95C632.79,-91.15 630.32,-81.06 628.61,-74.09"/>
<polygon fill="#63b8ff" stroke="#63b8ff" points="631.57,-100.87 637.35,-109.75 638.37,-99.2 631.57,-100.87"/>
</a>
</g>
</g>
<!-- Node19 -->
<g id="Node000019" class="node">
<title>Node19</title>
<g id="a_Node000019"><a xlink:href="network__writer_8cpp.html" target="_top" xlink:title=" ">
<polygon fill="white" stroke="#666666" points="1163.5,-74 1053.5,-74 1053.5,-55 1163.5,-55 1163.5,-74"/>
<text text-anchor="middle" x="1108.5" y="-62" font-family="Helvetica,sans-Serif" font-size="10.00">network_writer.cpp</text>
</a>
</g>
</g>
<!-- Node18&#45;&gt;Node19 -->
<g id="edge20_Node000018_Node000019" class="edge">
<title>Node18&#45;&gt;Node19</title>
<g id="a_edge20_Node000018_Node000019"><a xlink:title=" ">
<path fill="none" stroke="#63b8ff" d="M1026.23,-105.5C1046.29,-95.75 1073.18,-82.68 1090.67,-74.17"/>
<polygon fill="#63b8ff" stroke="#63b8ff" points="1024.48,-102.46 1017.01,-109.98 1027.54,-108.76 1024.48,-102.46"/>
</a>
</g>
</g>
<!-- Node21 -->
<g id="Node000021" class="node">
<title>Node21</title>
<g id="a_Node000021"><a xlink:href="log__analyzer_8cpp.html" target="_top" xlink:title=" ">
<polygon fill="white" stroke="#666666" points="1313.5,-184 1215.5,-184 1215.5,-165 1313.5,-165 1313.5,-184"/>
<text text-anchor="middle" x="1264.5" y="-172" font-family="Helvetica,sans-Serif" font-size="10.00">log_analyzer.cpp</text>
</a>
</g>
</g>
<!-- Node20&#45;&gt;Node21 -->
<g id="edge22_Node000020_Node000021" class="edge">
<title>Node20&#45;&gt;Node21</title>
<g id="a_edge22_Node000020_Node000021"><a xlink:title=" ">
<path fill="none" stroke="#63b8ff" d="M938.07,-219.8C1057.47,-202.17 1089.18,-200.16 1205.5,-184 1208.68,-183.56 1211.95,-183.1 1215.25,-182.63"/>
<polygon fill="#63b8ff" stroke="#63b8ff" points="937.56,-216.34 928.18,-221.27 938.58,-223.26 937.56,-216.34"/>
</a>
</g>
</g>
<!-- Node22&#45;&gt;Node14 -->
<g id="edge24_Node000022_Node000014" class="edge">
<title>Node22&#45;&gt;Node14</title>
<g id="a_edge24_Node000022_Node000014"><a xlink:title=" ">
<path fill="none" stroke="#63b8ff" d="M1197.86,-162.56C1238.13,-152.64 1296.7,-138.2 1333.69,-129.08"/>
<polygon fill="#63b8ff" stroke="#63b8ff" points="1196.92,-159.19 1188.04,-164.98 1198.59,-165.99 1196.92,-159.19"/>
</a>
</g>
</g>
<!-- Node22&#45;&gt;Node15 -->
<g id="edge25_Node000022_Node000015" class="edge">
<title>Node22&#45;&gt;Node15</title>
<g id="a_edge25_Node000022_Node000015"><a xlink:title=" ">
<path fill="none" stroke="#63b8ff" d="M1174.08,-159.15C1187.81,-149.57 1205.43,-137.29 1217.07,-129.17"/>
<polygon fill="#63b8ff" stroke="#63b8ff" points="1171.91,-156.39 1165.71,-164.98 1175.92,-162.14 1171.91,-156.39"/>
</a>
</g>
</g>
<!-- Node22&#45;&gt;Node17 -->
<g id="edge26_Node000022_Node000017" class="edge">
<title>Node22&#45;&gt;Node17</title>
<g id="a_edge26_Node000022_Node000017"><a xlink:title=" ">
<path fill="none" stroke="#63b8ff" d="M1207.11,-165.08C1327.21,-150.32 1523.88,-187.89 1449.5,-110 1419.5,-78.59 711.61,-79.32 668.5,-74 665.84,-73.67 663.1,-73.27 660.35,-72.82"/>
<polygon fill="#63b8ff" stroke="#63b8ff" points="1206.59,-161.62 1197.17,-166.45 1207.55,-168.55 1206.59,-161.62"/>
</a>
</g>
</g>
<!-- Node23&#45;&gt;Node2 -->
<g id="edge29_Node000023_Node000002" class="edge">
<title>Node23&#45;&gt;Node2</title>
<g id="a_edge29_Node000023_Node000002"><a xlink:title=" ">
<path fill="none" stroke="#63b8ff" d="M713.53,-214.97C731.44,-205.28 755.03,-192.52 770.47,-184.17"/>
<polygon fill="#63b8ff" stroke="#63b8ff" points="711.38,-212.15 704.25,-219.98 714.71,-218.31 711.38,-212.15"/>
</a>
</g>
</g>
<!-- Node23&#45;&gt;Node3 -->
<g id="edge30_Node000023_Node000003" class="edge">
<title>Node23&#45;&gt;Node3</title>
<g id="a_edge30_Node000023_Node000003"><a xlink:title=" ">
<path fill="none" stroke="#63b8ff" d="M643.48,-217.86C611.74,-209.85 568.47,-197.89 531.5,-184 487.4,-167.43 437.87,-142.1 413.22,-129"/>
<polygon fill="#63b8ff" stroke="#63b8ff" points="642.8,-221.3 653.35,-220.32 644.5,-214.51 642.8,-221.3"/>
</a>
</g>
</g>
<!-- Node23&#45;&gt;Node15 -->
<g id="edge31_Node000023_Node000015" class="edge">
<title>Node23&#45;&gt;Node15</title>
<g id="a_edge31_Node000023_Node000015"><a xlink:title=" ">
<path fill="none" stroke="#63b8ff" d="M733.63,-219.49C836.35,-198.98 1086.45,-149.06 1186.8,-129.02"/>
<polygon fill="#63b8ff" stroke="#63b8ff" points="732.7,-216.11 723.58,-221.5 734.07,-222.97 732.7,-216.11"/>
</a>
</g>
</g>
<!-- Node24 -->
<g id="Node000024" class="node">
<title>Node24</title>
<g id="a_Node000024"><a xlink:href="base__formatter_8h.html" target="_top" xlink:title=" ">
<polygon fill="white" stroke="#666666" points="727.5,-184 627.5,-184 627.5,-165 727.5,-165 727.5,-184"/>
<text text-anchor="middle" x="677.5" y="-172" font-family="Helvetica,sans-Serif" font-size="10.00">base_formatter.h</text>
</a>
</g>
</g>
<!-- Node23&#45;&gt;Node24 -->
<g id="edge28_Node000023_Node000024" class="edge">
<title>Node23&#45;&gt;Node24</title>
<g id="a_edge28_Node000023_Node000024"><a xlink:title=" ">
<path fill="none" stroke="#63b8ff" d="M684.65,-209.95C682.82,-201.15 680.73,-191.06 679.28,-184.09"/>
<polygon fill="#63b8ff" stroke="#63b8ff" points="681.22,-210.67 686.68,-219.75 688.08,-209.25 681.22,-210.67"/>
</a>
</g>
</g>
<!-- Node23&#45;&gt;Node25 -->
<g id="edge32_Node000023_Node000025" class="edge">
<title>Node23&#45;&gt;Node25</title>
<g id="a_edge32_Node000023_Node000025"><a xlink:title=" ">
<path fill="none" stroke="#63b8ff" d="M661.11,-215.77C640.08,-205.99 611.61,-192.75 593.15,-184.17"/>
<polygon fill="#63b8ff" stroke="#63b8ff" points="659.64,-218.94 670.18,-219.98 662.59,-212.6 659.64,-218.94"/>
</a>
</g>
</g>
<!-- Node25&#45;&gt;Node5 -->
<g id="edge37_Node000025_Node000005" class="edge">
<title>Node25&#45;&gt;Node5</title>
<g id="a_edge37_Node000025_Node000005"><a xlink:title=" ">
<path fill="none" stroke="#63b8ff" d="M530.31,-170.94C442.5,-165.39 252.8,-150.99 233.5,-129 219.98,-113.6 230.55,-87.54 237.56,-74.09"/>
<polygon fill="#63b8ff" stroke="#63b8ff" points="530.3,-174.44 540.49,-171.57 530.73,-167.46 530.3,-174.44"/>
</a>
</g>
</g>
<!-- Node25&#45;&gt;Node16 -->
<g id="edge33_Node000025_Node000016" class="edge">
<title>Node25&#45;&gt;Node16</title>
<g id="a_edge33_Node000025_Node000016"><a xlink:title=" ">
<path fill="none" stroke="#63b8ff" d="M592.77,-158.6C604.42,-149.11 619.1,-137.13 628.87,-129.17"/>
<polygon fill="#63b8ff" stroke="#63b8ff" points="590.48,-155.95 584.94,-164.98 594.91,-161.38 590.48,-155.95"/>
</a>
</g>
</g>
<!-- Node25&#45;&gt;Node17 -->
<g id="edge36_Node000025_Node000017" class="edge">
<title>Node25&#45;&gt;Node17</title>
<g id="a_edge36_Node000025_Node000017"><a xlink:title=" ">
<path fill="none" stroke="#63b8ff" d="M578.27,-154.86C581.33,-141.85 586.32,-124.32 593.5,-110 600.31,-96.41 611.28,-82.65 618.69,-74.1"/>
<polygon fill="#63b8ff" stroke="#63b8ff" points="574.79,-154.41 576.08,-164.93 581.63,-155.91 574.79,-154.41"/>
</a>
</g>
</g>
<!-- Node26 -->
<g id="Node000026" class="node">
<title>Node26</title>
<g id="a_Node000026"><a xlink:href="log__sanitizer_8h.html" target="_top" xlink:title=" ">
<polygon fill="white" stroke="#666666" points="546,-129 459,-129 459,-110 546,-110 546,-129"/>
<text text-anchor="middle" x="502.5" y="-117" font-family="Helvetica,sans-Serif" font-size="10.00">log_sanitizer.h</text>
</a>
</g>
</g>
<!-- Node25&#45;&gt;Node26 -->
<g id="edge34_Node000025_Node000026" class="edge">
<title>Node25&#45;&gt;Node26</title>
<g id="a_edge34_Node000025_Node000026"><a xlink:title=" ">
<path fill="none" stroke="#63b8ff" d="M554.63,-158.88C541.68,-149.34 525.2,-137.21 514.28,-129.17"/>
<polygon fill="#63b8ff" stroke="#63b8ff" points="552.8,-161.88 562.93,-164.98 556.95,-156.24 552.8,-161.88"/>
</a>
</g>
</g>
<!-- Node27 -->
<g id="Node000027" class="node">
<title>Node27</title>
<g id="a_Node000027"><a xlink:href="log__sanitizer_8cpp.html" target="_top" xlink:title=" ">
<polygon fill="white" stroke="#666666" points="556.5,-74 458.5,-74 458.5,-55 556.5,-55 556.5,-74"/>
<text text-anchor="middle" x="507.5" y="-62" font-family="Helvetica,sans-Serif" font-size="10.00">log_sanitizer.cpp</text>
</a>
</g>
</g>
<!-- Node26&#45;&gt;Node27 -->
<g id="edge35_Node000026_Node000027" class="edge">
<title>Node26&#45;&gt;Node27</title>
<g id="a_edge35_Node000026_Node000027"><a xlink:title=" ">
<path fill="none" stroke="#63b8ff" d="M504.28,-99.66C505.1,-90.93 506.04,-80.99 506.69,-74.09"/>
<polygon fill="#63b8ff" stroke="#63b8ff" points="500.78,-99.46 503.33,-109.75 507.75,-100.12 500.78,-99.46"/>
</a>
</g>
</g>
<!-- Node28&#45;&gt;Node5 -->
<g id="edge41_Node000028_Node000005" class="edge">
<title>Node28&#45;&gt;Node5</title>
<g id="a_edge41_Node000028_Node000005"><a xlink:title=" ">
<path fill="none" stroke="#63b8ff" d="M261.16,-100.82C256.41,-91.82 250.84,-81.29 247.04,-74.09"/>
<polygon fill="#63b8ff" stroke="#63b8ff" points="258.11,-102.54 265.88,-109.75 264.3,-99.27 258.11,-102.54"/>
</a>
</g>
</g>
<!-- Node28&#45;&gt;Node17 -->
<g id="edge40_Node000028_Node000017" class="edge">
<title>Node28&#45;&gt;Node17</title>
<g id="a_edge40_Node000028_Node000017"><a xlink:title=" ">
<path fill="none" stroke="#63b8ff" d="M308.89,-112.78C378.97,-102.35 526.51,-80.39 592.89,-70.5"/>
<polygon fill="#63b8ff" stroke="#63b8ff" points="308.11,-109.36 298.73,-114.3 309.14,-116.29 308.11,-109.36"/>
</a>
</g>
</g>
<!-- Node29&#45;&gt;Node5 -->
<g id="edge45_Node000029_Node000005" class="edge">
<title>Node29&#45;&gt;Node5</title>
<g id="a_edge45_Node000029_Node000005"><a xlink:title=" ">
<path fill="none" stroke="#63b8ff" d="M181.38,-154.99C185.34,-141.83 191.71,-124.05 200.5,-110 209.29,-95.95 222.96,-82.5 232.3,-74.13"/>
<polygon fill="#63b8ff" stroke="#63b8ff" points="177.96,-154.21 178.62,-164.79 184.7,-156.11 177.96,-154.21"/>
</a>
</g>
</g>
<!-- Node30 -->
<g id="Node000030" class="node">
<title>Node30</title>
<g id="a_Node000030"><a xlink:href="config__strategy__interface_8h.html" target="_top" xlink:title=" ">
<polygon fill="white" stroke="#666666" points="149,-129 0,-129 0,-110 149,-110 149,-129"/>
<text text-anchor="middle" x="74.5" y="-117" font-family="Helvetica,sans-Serif" font-size="10.00">config_strategy_interface.h</text>
</a>
</g>
</g>
<!-- Node29&#45;&gt;Node30 -->
<g id="edge43_Node000029_Node000030" class="edge">
<title>Node29&#45;&gt;Node30</title>
<g id="a_edge43_Node000029_Node000030"><a xlink:title=" ">
<path fill="none" stroke="#63b8ff" d="M151.23,-160.37C132.49,-150.63 107.48,-137.64 91.19,-129.17"/>
<polygon fill="#63b8ff" stroke="#63b8ff" points="149.62,-163.48 160.11,-164.98 152.85,-157.27 149.62,-163.48"/>
</a>
</g>
</g>
<!-- Node30&#45;&gt;Node5 -->
<g id="edge44_Node000030_Node000005" class="edge">
<title>Node30&#45;&gt;Node5</title>
<g id="a_edge44_Node000030_Node000005"><a xlink:title=" ">
<path fill="none" stroke="#63b8ff" d="M111.18,-106.93C142.56,-97.03 187.01,-83.01 215.3,-74.08"/>
<polygon fill="#63b8ff" stroke="#63b8ff" points="109.98,-103.64 101.49,-109.98 112.08,-110.31 109.98,-103.64"/>
</a>
</g>
</g>
<!-- Node32 -->
<g id="Node000032" class="node">
<title>Node32</title>
<g id="a_Node000032"><a xlink:href="overflow__policy_8cpp.html" target="_top" xlink:title=" ">
<polygon fill="white" stroke="#666666" points="1443.5,-184 1331.5,-184 1331.5,-165 1443.5,-165 1443.5,-184"/>
<text text-anchor="middle" x="1387.5" y="-172" font-family="Helvetica,sans-Serif" font-size="10.00">overflow_policy.cpp</text>
</a>
</g>
</g>
<!-- Node31&#45;&gt;Node32 -->
<g id="edge47_Node000031_Node000032" class="edge">
<title>Node31&#45;&gt;Node32</title>
<g id="a_edge47_Node000031_Node000032"><a xlink:title=" ">
<path fill="none" stroke="#63b8ff" d="M1057.17,-219.92C1159.97,-205.75 1267.45,-191.4 1331.26,-182.94"/>
<polygon fill="#63b8ff" stroke="#63b8ff" points="1056.66,-216.45 1047.24,-221.29 1057.62,-223.39 1056.66,-216.45"/>
</a>
</g>
</g>
</g>
</svg>
