<?xml version="1.0" encoding="UTF-8" standalone="no"?>
<!DOCTYPE svg PUBLIC "-//W3C//DTD SVG 1.1//EN"
 "http://www.w3.org/Graphics/SVG/1.1/DTD/svg11.dtd">
<!-- Generated by graphviz version 2.43.0 (0)
 -->
<!-- Title: logger.cpp Pages: 1 -->
<svg width="1484pt" height="324pt"
 viewBox="0.00 0.00 1483.84 324.00" xmlns="http://www.w3.org/2000/svg" xmlns:xlink="http://www.w3.org/1999/xlink">
<g id="graph0" class="graph" transform="scale(1 1) rotate(0) translate(4 320)">
<title>logger.cpp</title>
<!-- Node1 -->
<g id="Node000001" class="node">
<title>Node1</title>
<g id="a_Node000001"><a xlink:title=" ">
<polygon fill="#999999" stroke="#666666" points="946.36,-316 879.36,-316 879.36,-297 946.36,-297 946.36,-316"/>
<text text-anchor="middle" x="912.86" y="-304" font-family="Helvetica,sans-Serif" font-size="10.00">logger.cpp</text>
</a>
</g>
</g>
<!-- Node2 -->
<g id="Node000002" class="node">
<title>Node2</title>
<g id="a_Node000002"><a xlink:href="logger_8h.html" target="_top" xlink:title=" ">
<polygon fill="white" stroke="#666666" points="401.86,-206 345.86,-206 345.86,-187 401.86,-187 401.86,-206"/>
<text text-anchor="middle" x="373.86" y="-194" font-family="Helvetica,sans-Serif" font-size="10.00">logger.h</text>
</a>
</g>
</g>
<!-- Node1&#45;&gt;Node2 -->
<g id="edge1_Node000001_Node000002" class="edge">
<title>Node1&#45;&gt;Node2</title>
<g id="a_edge1_Node000001_Node000002"><a xlink:title=" ">
<path fill="none" stroke="#63b8ff" d="M879.03,-299.51C832.51,-291.21 746.22,-275.59 672.86,-261 579.03,-242.34 469.07,-218.47 412.24,-205.98"/>
<polygon fill="#63b8ff" stroke="#63b8ff" points="412.78,-202.52 402.26,-203.79 411.27,-209.35 412.78,-202.52"/>
</a>
</g>
</g>
<!-- Node8 -->
<g id="Node000008" class="node">
<title>Node8</title>
<g id="a_Node000008"><a xlink:title=" ">
<polygon fill="#e0e0e0" stroke="#999999" points="281.86,-19 233.86,-19 233.86,0 281.86,0 281.86,-19"/>
<text text-anchor="middle" x="257.86" y="-7" font-family="Helvetica,sans-Serif" font-size="10.00">mutex</text>
</a>
</g>
</g>
<!-- Node1&#45;&gt;Node8 -->
<g id="edge61_Node000001_Node000008" class="edge">
<title>Node1&#45;&gt;Node8</title>
<g id="a_edge61_Node000001_Node000008"><a xlink:title=" ">
<path fill="none" stroke="#63b8ff" d="M879.36,-305.12C715,-302.83 1.86,-287.69 1.86,-197.5 1.86,-197.5 1.86,-197.5 1.86,-135 1.86,-98.46 -5.59,-80.22 20.86,-55 49.46,-27.73 164.73,-16.48 223.31,-12.45"/>
<polygon fill="#63b8ff" stroke="#63b8ff" points="223.81,-15.93 233.56,-11.78 223.35,-8.94 223.81,-15.93"/>
</a>
</g>
</g>
<!-- Node14 -->
<g id="Node000014" class="node">
<title>Node14</title>
<g id="a_Node000014"><a xlink:title=" ">
<polygon fill="#e0e0e0" stroke="#999999" points="1048.86,-79.5 998.86,-79.5 998.86,-60.5 1048.86,-60.5 1048.86,-79.5"/>
<text text-anchor="middle" x="1023.86" y="-67.5" font-family="Helvetica,sans-Serif" font-size="10.00">chrono</text>
</a>
</g>
</g>
<!-- Node1&#45;&gt;Node14 -->
<g id="edge58_Node000001_Node000014" class="edge">
<title>Node1&#45;&gt;Node14</title>
<g id="a_edge58_Node000001_Node000014"><a xlink:title=" ">
<path fill="none" stroke="#63b8ff" d="M920.26,-296.84C938.87,-274.49 987.59,-212.28 1007.86,-151 1014.66,-130.46 1019.04,-105.95 1021.47,-89.52"/>
<polygon fill="#63b8ff" stroke="#63b8ff" points="1024.94,-89.97 1022.85,-79.58 1018.01,-89.01 1024.94,-89.97"/>
</a>
</g>
</g>
<!-- Node17 -->
<g id="Node000017" class="node">
<title>Node17</title>
<g id="a_Node000017"><a xlink:href="log__collector_8h.html" target="_top" xlink:title=" ">
<polygon fill="white" stroke="#666666" points="649.36,-206 538.36,-206 538.36,-187 649.36,-187 649.36,-206"/>
<text text-anchor="middle" x="593.86" y="-194" font-family="Helvetica,sans-Serif" font-size="10.00">core/log_collector.h</text>
</a>
</g>
</g>
<!-- Node1&#45;&gt;Node17 -->
<g id="edge21_Node000001_Node000017" class="edge">
<title>Node1&#45;&gt;Node17</title>
<g id="a_edge21_Node000001_Node000017"><a xlink:title=" ">
<path fill="none" stroke="#63b8ff" d="M879.22,-300.19C840.34,-293.48 774.78,-280.42 720.86,-261 683.02,-247.37 641.83,-225.32 616.93,-211.12"/>
<polygon fill="#63b8ff" stroke="#63b8ff" points="618.63,-208.06 608.22,-206.1 615.13,-214.13 618.63,-208.06"/>
</a>
</g>
</g>
<!-- Node18 -->
<g id="Node000018" class="node">
<title>Node18</title>
<g id="a_Node000018"><a xlink:href="base__writer_8h.html" target="_top" xlink:title=" ">
<polygon fill="white" stroke="#666666" points="972.36,-206 853.36,-206 853.36,-187 972.36,-187 972.36,-206"/>
<text text-anchor="middle" x="912.86" y="-194" font-family="Helvetica,sans-Serif" font-size="10.00">writers/base_writer.h</text>
</a>
</g>
</g>
<!-- Node1&#45;&gt;Node18 -->
<g id="edge28_Node000001_Node000018" class="edge">
<title>Node1&#45;&gt;Node18</title>
<g id="a_edge28_Node000001_Node000018"><a xlink:title=" ">
<path fill="none" stroke="#63b8ff" d="M912.86,-296.66C912.86,-279.17 912.86,-239.8 912.86,-216.27"/>
<polygon fill="#63b8ff" stroke="#63b8ff" points="916.36,-216.16 912.86,-206.16 909.36,-216.16 916.36,-216.16"/>
</a>
</g>
</g>
<!-- Node21 -->
<g id="Node000021" class="node">
<title>Node21</title>
<g id="a_Node000021"><a xlink:href="log__filter_8h.html" target="_top" xlink:title=" ">
<polygon fill="white" stroke="#666666" points="1278.86,-206 1180.86,-206 1180.86,-187 1278.86,-187 1278.86,-206"/>
<text text-anchor="middle" x="1229.86" y="-194" font-family="Helvetica,sans-Serif" font-size="10.00">filters/log_filter.h</text>
</a>
</g>
</g>
<!-- Node1&#45;&gt;Node21 -->
<g id="edge42_Node000001_Node000021" class="edge">
<title>Node1&#45;&gt;Node21</title>
<g id="a_edge42_Node000001_Node000021"><a xlink:title=" ">
<path fill="none" stroke="#63b8ff" d="M943.89,-296.96C973.09,-288.65 1017.89,-275.25 1055.86,-261 1075.42,-253.66 1079.4,-249.59 1098.86,-242 1130.21,-229.78 1166.49,-217.6 1192.9,-209.09"/>
<polygon fill="#63b8ff" stroke="#63b8ff" points="1194.06,-212.39 1202.51,-206.01 1191.92,-205.73 1194.06,-212.39"/>
</a>
</g>
</g>
<!-- Node25 -->
<g id="Node000025" class="node">
<title>Node25</title>
<g id="a_Node000025"><a xlink:href="log__router_8h.html" target="_top" xlink:title=" ">
<polygon fill="white" stroke="#666666" points="841.86,-261 729.86,-261 729.86,-242 841.86,-242 841.86,-261"/>
<text text-anchor="middle" x="785.86" y="-249" font-family="Helvetica,sans-Serif" font-size="10.00">routing/log_router.h</text>
</a>
</g>
</g>
<!-- Node1&#45;&gt;Node25 -->
<g id="edge51_Node000001_Node000025" class="edge">
<title>Node1&#45;&gt;Node25</title>
<g id="a_edge51_Node000001_Node000025"><a xlink:title=" ">
<path fill="none" stroke="#63b8ff" d="M892.46,-296.98C871.84,-288.38 839.76,-274.99 816.17,-265.15"/>
<polygon fill="#63b8ff" stroke="#63b8ff" points="817.21,-261.79 806.64,-261.17 814.52,-268.25 817.21,-261.79"/>
</a>
</g>
</g>
<!-- Node27 -->
<g id="Node000027" class="node">
<title>Node27</title>
<g id="a_Node000027"><a xlink:title=" ">
<polygon fill="#e0e0e0" stroke="#999999" points="1163.86,-261 1107.86,-261 1107.86,-242 1163.86,-242 1163.86,-261"/>
<text text-anchor="middle" x="1135.86" y="-249" font-family="Helvetica,sans-Serif" font-size="10.00">sstream</text>
</a>
</g>
</g>
<!-- Node1&#45;&gt;Node27 -->
<g id="edge59_Node000001_Node000027" class="edge">
<title>Node1&#45;&gt;Node27</title>
<g id="a_edge59_Node000001_Node000027"><a xlink:title=" ">
<path fill="none" stroke="#63b8ff" d="M946.73,-297.45C987.37,-287.79 1055.31,-271.64 1097.74,-261.56"/>
<polygon fill="#63b8ff" stroke="#63b8ff" points="1098.77,-264.91 1107.69,-259.2 1097.15,-258.1 1098.77,-264.91"/>
</a>
</g>
</g>
<!-- Node28 -->
<g id="Node000028" class="node">
<title>Node28</title>
<g id="a_Node000028"><a xlink:title=" ">
<polygon fill="#e0e0e0" stroke="#999999" points="1237.86,-261 1181.86,-261 1181.86,-242 1237.86,-242 1237.86,-261"/>
<text text-anchor="middle" x="1209.86" y="-249" font-family="Helvetica,sans-Serif" font-size="10.00">iomanip</text>
</a>
</g>
</g>
<!-- Node1&#45;&gt;Node28 -->
<g id="edge60_Node000001_Node000028" class="edge">
<title>Node1&#45;&gt;Node28</title>
<g id="a_edge60_Node000001_Node000028"><a xlink:title=" ">
<path fill="none" stroke="#63b8ff" d="M946.63,-300.34C994.49,-292.9 1085,-278.32 1171.62,-261.16"/>
<polygon fill="#63b8ff" stroke="#63b8ff" points="1172.49,-264.55 1181.62,-259.16 1171.12,-257.69 1172.49,-264.55"/>
</a>
</g>
</g>
<!-- Node3 -->
<g id="Node000003" class="node">
<title>Node3</title>
<g id="a_Node000003"><a xlink:title=" ">
<polygon fill="#e0e0e0" stroke="#999999" points="736.86,-19 678.86,-19 678.86,0 736.86,0 736.86,-19"/>
<text text-anchor="middle" x="707.86" y="-7" font-family="Helvetica,sans-Serif" font-size="10.00">memory</text>
</a>
</g>
</g>
<!-- Node2&#45;&gt;Node3 -->
<g id="edge2_Node000002_Node000003" class="edge">
<title>Node2&#45;&gt;Node3</title>
<g id="a_edge2_Node000002_Node000003"><a xlink:title=" ">
<path fill="none" stroke="#63b8ff" d="M345.43,-194.57C287.99,-192.04 161.36,-182.89 134.86,-151 109.11,-120.01 160.71,-61.61 170.86,-55 212.3,-28.03 551.49,-15.26 668.42,-11.63"/>
<polygon fill="#63b8ff" stroke="#63b8ff" points="668.81,-15.11 678.7,-11.31 668.6,-8.12 668.81,-15.11"/>
</a>
</g>
</g>
<!-- Node4 -->
<g id="Node000004" class="node">
<title>Node4</title>
<g id="a_Node000004"><a xlink:title=" ">
<polygon fill="#e0e0e0" stroke="#999999" points="489.36,-145.5 442.36,-145.5 442.36,-126.5 489.36,-126.5 489.36,-145.5"/>
<text text-anchor="middle" x="465.86" y="-133.5" font-family="Helvetica,sans-Serif" font-size="10.00">vector</text>
</a>
</g>
</g>
<!-- Node2&#45;&gt;Node4 -->
<g id="edge3_Node000002_Node000004" class="edge">
<title>Node2&#45;&gt;Node4</title>
<g id="a_edge3_Node000002_Node000004"><a xlink:title=" ">
<path fill="none" stroke="#63b8ff" d="M387.44,-186.87C402.25,-177.45 426.19,-162.23 443.73,-151.08"/>
<polygon fill="#63b8ff" stroke="#63b8ff" points="445.67,-153.99 452.23,-145.67 441.91,-148.08 445.67,-153.99"/>
</a>
</g>
</g>
<!-- Node5 -->
<g id="Node000005" class="node">
<title>Node5</title>
<g id="a_Node000005"><a xlink:title=" ">
<polygon fill="#e0e0e0" stroke="#999999" points="335.86,-79.5 285.86,-79.5 285.86,-60.5 335.86,-60.5 335.86,-79.5"/>
<text text-anchor="middle" x="310.86" y="-67.5" font-family="Helvetica,sans-Serif" font-size="10.00">atomic</text>
</a>
</g>
</g>
<!-- Node2&#45;&gt;Node5 -->
<g id="edge4_Node000002_Node000005" class="edge">
<title>Node2&#45;&gt;Node5</title>
<g id="a_edge4_Node000002_Node000005"><a xlink:title=" ">
<path fill="none" stroke="#63b8ff" d="M363.92,-186.92C354.85,-178.6 341.72,-165.17 333.86,-151 323.16,-131.69 317.04,-106.94 313.85,-90.12"/>
<polygon fill="#63b8ff" stroke="#63b8ff" points="317.23,-89.16 312.08,-79.9 310.33,-90.35 317.23,-89.16"/>
</a>
</g>
</g>
<!-- Node6 -->
<g id="Node000006" class="node">
<title>Node6</title>
<g id="a_Node000006"><a xlink:title=" ">
<polygon fill="#e0e0e0" stroke="#999999" points="423.86,-145.5 375.86,-145.5 375.86,-126.5 423.86,-126.5 423.86,-145.5"/>
<text text-anchor="middle" x="399.86" y="-133.5" font-family="Helvetica,sans-Serif" font-size="10.00">thread</text>
</a>
</g>
</g>
<!-- Node2&#45;&gt;Node6 -->
<g id="edge5_Node000002_Node000006" class="edge">
<title>Node2&#45;&gt;Node6</title>
<g id="a_edge5_Node000002_Node000006"><a xlink:title=" ">
<path fill="none" stroke="#63b8ff" d="M377.7,-186.87C381.42,-178.49 387.19,-165.51 391.91,-154.89"/>
<polygon fill="#63b8ff" stroke="#63b8ff" points="395.15,-156.23 396.01,-145.67 388.75,-153.38 395.15,-156.23"/>
</a>
</g>
</g>
<!-- Node7 -->
<g id="Node000007" class="node">
<title>Node7</title>
<g id="a_Node000007"><a xlink:href="logger__interface_8h.html" target="_top" xlink:title=" ">
<polygon fill="white" stroke="#666666" points="841.36,-79.5 736.36,-79.5 736.36,-60.5 841.36,-60.5 841.36,-79.5"/>
<text text-anchor="middle" x="788.86" y="-67.5" font-family="Helvetica,sans-Serif" font-size="10.00">logger_interface.h</text>
</a>
</g>
</g>
<!-- Node2&#45;&gt;Node7 -->
<g id="edge6_Node000002_Node000007" class="edge">
<title>Node2&#45;&gt;Node7</title>
<g id="a_edge6_Node000002_Node000007"><a xlink:title=" ">
<path fill="none" stroke="#63b8ff" d="M369.44,-186.88C362.26,-171.55 350.47,-139.45 366.86,-121 368.34,-119.33 608.47,-91.64 725.79,-78.21"/>
<polygon fill="#63b8ff" stroke="#63b8ff" points="726.53,-81.64 736.07,-77.03 725.73,-74.69 726.53,-81.64"/>
</a>
</g>
</g>
<!-- Node10 -->
<g id="Node000010" class="node">
<title>Node10</title>
<g id="a_Node000010"><a xlink:href="error__codes_8h.html" target="_top" xlink:title=" ">
<polygon fill="white" stroke="#666666" points="942.36,-79.5 859.36,-79.5 859.36,-60.5 942.36,-60.5 942.36,-79.5"/>
<text text-anchor="middle" x="900.86" y="-67.5" font-family="Helvetica,sans-Serif" font-size="10.00">error_codes.h</text>
</a>
</g>
</g>
<!-- Node2&#45;&gt;Node10 -->
<g id="edge10_Node000002_Node000010" class="edge">
<title>Node2&#45;&gt;Node10</title>
<g id="a_edge10_Node000002_Node000010"><a xlink:title=" ">
<path fill="none" stroke="#63b8ff" d="M401.93,-189.47C475.72,-173.5 681.21,-128.38 850.86,-85 854.28,-84.12 857.83,-83.19 861.38,-82.23"/>
<polygon fill="#63b8ff" stroke="#63b8ff" points="862.59,-85.53 871.31,-79.51 860.74,-78.78 862.59,-85.53"/>
</a>
</g>
</g>
<!-- Node13 -->
<g id="Node000013" class="node">
<title>Node13</title>
<g id="a_Node000013"><a xlink:href="logger__metrics_8h.html" target="_top" xlink:title=" ">
<polygon fill="white" stroke="#666666" points="281.86,-145.5 143.86,-145.5 143.86,-126.5 281.86,-126.5 281.86,-145.5"/>
<text text-anchor="middle" x="212.86" y="-133.5" font-family="Helvetica,sans-Serif" font-size="10.00">metrics/logger_metrics.h</text>
</a>
</g>
</g>
<!-- Node2&#45;&gt;Node13 -->
<g id="edge14_Node000002_Node000013" class="edge">
<title>Node2&#45;&gt;Node13</title>
<g id="a_edge14_Node000002_Node000013"><a xlink:title=" ">
<path fill="none" stroke="#63b8ff" d="M350.45,-186.99C322.91,-176.99 276.99,-160.3 245.85,-148.99"/>
<polygon fill="#63b8ff" stroke="#63b8ff" points="246.9,-145.64 236.3,-145.52 244.5,-152.22 246.9,-145.64"/>
</a>
</g>
</g>
<!-- Node7&#45;&gt;Node3 -->
<g id="edge7_Node000007_Node000003" class="edge">
<title>Node7&#45;&gt;Node3</title>
<g id="a_edge7_Node000007_Node000003"><a xlink:title=" ">
<path fill="none" stroke="#63b8ff" d="M776.91,-60.37C764.11,-51.12 743.56,-36.28 728.21,-25.19"/>
<polygon fill="#63b8ff" stroke="#63b8ff" points="730.02,-22.18 719.86,-19.17 725.92,-27.86 730.02,-22.18"/>
</a>
</g>
</g>
<!-- Node7&#45;&gt;Node8 -->
<g id="edge8_Node000007_Node000008" class="edge">
<title>Node7&#45;&gt;Node8</title>
<g id="a_edge8_Node000007_Node000008"><a xlink:title=" ">
<path fill="none" stroke="#63b8ff" d="M736.01,-63.18C627.5,-51.22 382.26,-24.2 292.02,-14.26"/>
<polygon fill="#63b8ff" stroke="#63b8ff" points="292.37,-10.78 282.05,-13.16 291.6,-17.74 292.37,-10.78"/>
</a>
</g>
</g>
<!-- Node9 -->
<g id="Node000009" class="node">
<title>Node9</title>
<g id="a_Node000009"><a xlink:title=" ">
<polygon fill="#e0e0e0" stroke="#999999" points="1197.86,-19 1153.86,-19 1153.86,0 1197.86,0 1197.86,-19"/>
<text text-anchor="middle" x="1175.86" y="-7" font-family="Helvetica,sans-Serif" font-size="10.00">string</text>
</a>
</g>
</g>
<!-- Node7&#45;&gt;Node9 -->
<g id="edge9_Node000007_Node000009" class="edge">
<title>Node7&#45;&gt;Node9</title>
<g id="a_edge9_Node000007_Node000009"><a xlink:title=" ">
<path fill="none" stroke="#63b8ff" d="M824.16,-60.48C832.86,-58.53 842.18,-56.57 850.86,-55 957.43,-35.71 1085.01,-20.52 1143.58,-13.99"/>
<polygon fill="#63b8ff" stroke="#63b8ff" points="1144.14,-17.45 1153.69,-12.87 1143.37,-10.49 1144.14,-17.45"/>
</a>
</g>
</g>
<!-- Node10&#45;&gt;Node9 -->
<g id="edge11_Node000010_Node000009" class="edge">
<title>Node10&#45;&gt;Node9</title>
<g id="a_edge11_Node000010_Node000009"><a xlink:title=" ">
<path fill="none" stroke="#63b8ff" d="M933.97,-60.46C941.48,-58.6 949.43,-56.68 956.86,-55 1023.11,-40 1101.16,-24.7 1143.9,-16.53"/>
<polygon fill="#63b8ff" stroke="#63b8ff" points="1144.55,-19.97 1153.72,-14.66 1143.24,-13.09 1144.55,-19.97"/>
</a>
</g>
</g>
<!-- Node11 -->
<g id="Node000011" class="node">
<title>Node11</title>
<g id="a_Node000011"><a xlink:title=" ">
<polygon fill="#e0e0e0" stroke="#999999" points="1081.86,-19 1025.86,-19 1025.86,0 1081.86,0 1081.86,-19"/>
<text text-anchor="middle" x="1053.86" y="-7" font-family="Helvetica,sans-Serif" font-size="10.00">optional</text>
</a>
</g>
</g>
<!-- Node10&#45;&gt;Node11 -->
<g id="edge12_Node000010_Node000011" class="edge">
<title>Node10&#45;&gt;Node11</title>
<g id="a_edge12_Node000010_Node000011"><a xlink:title=" ">
<path fill="none" stroke="#63b8ff" d="M923.11,-60.49C949.17,-50.53 992.54,-33.95 1022.13,-22.63"/>
<polygon fill="#63b8ff" stroke="#63b8ff" points="1023.5,-25.86 1031.59,-19.02 1021,-19.32 1023.5,-25.86"/>
</a>
</g>
</g>
<!-- Node12 -->
<g id="Node000012" class="node">
<title>Node12</title>
<g id="a_Node000012"><a xlink:title=" ">
<polygon fill="#e0e0e0" stroke="#999999" points="926.36,-19 875.36,-19 875.36,0 926.36,0 926.36,-19"/>
<text text-anchor="middle" x="900.86" y="-7" font-family="Helvetica,sans-Serif" font-size="10.00">variant</text>
</a>
</g>
</g>
<!-- Node10&#45;&gt;Node12 -->
<g id="edge13_Node000010_Node000012" class="edge">
<title>Node10&#45;&gt;Node12</title>
<g id="a_edge13_Node000010_Node000012"><a xlink:title=" ">
<path fill="none" stroke="#63b8ff" d="M900.86,-60.37C900.86,-52.25 900.86,-39.81 900.86,-29.39"/>
<polygon fill="#63b8ff" stroke="#63b8ff" points="904.36,-29.17 900.86,-19.17 897.36,-29.17 904.36,-29.17"/>
</a>
</g>
</g>
<!-- Node13&#45;&gt;Node5 -->
<g id="edge15_Node000013_Node000005" class="edge">
<title>Node13&#45;&gt;Node5</title>
<g id="a_edge15_Node000013_Node000005"><a xlink:title=" ">
<path fill="none" stroke="#63b8ff" d="M226.08,-126.37C242.23,-115.82 269.77,-97.84 289.07,-85.23"/>
<polygon fill="#63b8ff" stroke="#63b8ff" points="291.08,-88.1 297.54,-79.7 287.26,-82.24 291.08,-88.1"/>
</a>
</g>
</g>
<!-- Node13&#45;&gt;Node8 -->
<g id="edge20_Node000013_Node000008" class="edge">
<title>Node13&#45;&gt;Node8</title>
<g id="a_edge20_Node000013_Node000008"><a xlink:title=" ">
<path fill="none" stroke="#63b8ff" d="M218.1,-126.43C223.86,-116.69 233.07,-100.17 238.86,-85 245.84,-66.72 251.06,-44.94 254.24,-29.66"/>
<polygon fill="#63b8ff" stroke="#63b8ff" points="257.76,-29.91 256.28,-19.42 250.9,-28.55 257.76,-29.91"/>
</a>
</g>
</g>
<!-- Node13&#45;&gt;Node9 -->
<g id="edge18_Node000013_Node000009" class="edge">
<title>Node13&#45;&gt;Node9</title>
<g id="a_edge18_Node000013_Node000009"><a xlink:title=" ">
<path fill="none" stroke="#63b8ff" d="M261.73,-126.49C353.07,-110.78 555.97,-76.86 727.86,-55 888.69,-34.55 929.54,-35.07 1090.86,-19 1108.25,-17.27 1127.63,-15.33 1143.5,-13.74"/>
<polygon fill="#63b8ff" stroke="#63b8ff" points="1144.25,-17.19 1153.85,-12.71 1143.55,-10.22 1144.25,-17.19"/>
</a>
</g>
</g>
<!-- Node13&#45;&gt;Node14 -->
<g id="edge16_Node000013_Node000014" class="edge">
<title>Node13&#45;&gt;Node14</title>
<g id="a_edge16_Node000013_Node000014"><a xlink:title=" ">
<path fill="none" stroke="#63b8ff" d="M282.2,-128.26C308.68,-125.8 339.16,-123.11 366.86,-121 626.6,-101.21 693.46,-117.93 951.86,-85 963.98,-83.46 977.12,-81.1 988.82,-78.77"/>
<polygon fill="#63b8ff" stroke="#63b8ff" points="989.58,-82.18 998.67,-76.74 988.17,-75.33 989.58,-82.18"/>
</a>
</g>
</g>
<!-- Node15 -->
<g id="Node000015" class="node">
<title>Node15</title>
<g id="a_Node000015"><a xlink:title=" ">
<polygon fill="#e0e0e0" stroke="#999999" points="229.86,-79.5 179.86,-79.5 179.86,-60.5 229.86,-60.5 229.86,-79.5"/>
<text text-anchor="middle" x="204.86" y="-67.5" font-family="Helvetica,sans-Serif" font-size="10.00">cstdint</text>
</a>
</g>
</g>
<!-- Node13&#45;&gt;Node15 -->
<g id="edge17_Node000013_Node000015" class="edge">
<title>Node13&#45;&gt;Node15</title>
<g id="a_edge17_Node000013_Node000015"><a xlink:title=" ">
<path fill="none" stroke="#63b8ff" d="M211.78,-126.37C210.62,-117.07 208.73,-101.98 207.22,-89.9"/>
<polygon fill="#63b8ff" stroke="#63b8ff" points="210.69,-89.39 205.98,-79.91 203.74,-90.26 210.69,-89.39"/>
</a>
</g>
</g>
<!-- Node16 -->
<g id="Node000016" class="node">
<title>Node16</title>
<g id="a_Node000016"><a xlink:title=" ">
<polygon fill="#e0e0e0" stroke="#999999" points="123.36,-79.5 30.36,-79.5 30.36,-60.5 123.36,-60.5 123.36,-79.5"/>
<text text-anchor="middle" x="76.86" y="-67.5" font-family="Helvetica,sans-Serif" font-size="10.00">unordered_map</text>
</a>
</g>
</g>
<!-- Node13&#45;&gt;Node16 -->
<g id="edge19_Node000013_Node000016" class="edge">
<title>Node13&#45;&gt;Node16</title>
<g id="a_edge19_Node000013_Node000016"><a xlink:title=" ">
<path fill="none" stroke="#63b8ff" d="M194.52,-126.37C171.4,-115.49 131.45,-96.69 104.59,-84.05"/>
<polygon fill="#63b8ff" stroke="#63b8ff" points="105.89,-80.79 95.35,-79.7 102.91,-87.12 105.89,-80.79"/>
</a>
</g>
</g>
<!-- Node17&#45;&gt;Node3 -->
<g id="edge23_Node000017_Node000003" class="edge">
<title>Node17&#45;&gt;Node3</title>
<g id="a_edge23_Node000017_Node000003"><a xlink:title=" ">
<path fill="none" stroke="#63b8ff" d="M596.03,-186.85C599.81,-172.56 608.43,-143.37 620.86,-121 641.19,-84.42 673.3,-47.3 692.3,-26.75"/>
<polygon fill="#63b8ff" stroke="#63b8ff" points="695.05,-28.93 699.34,-19.24 689.94,-24.14 695.05,-28.93"/>
</a>
</g>
</g>
<!-- Node17&#45;&gt;Node4 -->
<g id="edge24_Node000017_Node000004" class="edge">
<title>Node17&#45;&gt;Node4</title>
<g id="a_edge24_Node000017_Node000004"><a xlink:title=" ">
<path fill="none" stroke="#63b8ff" d="M575.25,-186.99C553.83,-177.2 518.42,-161.02 493.71,-149.73"/>
<polygon fill="#63b8ff" stroke="#63b8ff" points="495.05,-146.49 484.5,-145.52 492.14,-152.86 495.05,-146.49"/>
</a>
</g>
</g>
<!-- Node17&#45;&gt;Node5 -->
<g id="edge26_Node000017_Node000005" class="edge">
<title>Node17&#45;&gt;Node5</title>
<g id="a_edge26_Node000017_Node000005"><a xlink:title=" ">
<path fill="none" stroke="#63b8ff" d="M585.53,-186.98C569.94,-171.54 534.69,-138.86 498.86,-121 448.99,-96.14 385.32,-82.55 346.34,-76.04"/>
<polygon fill="#63b8ff" stroke="#63b8ff" points="346.47,-72.51 336.04,-74.38 345.36,-79.42 346.47,-72.51"/>
</a>
</g>
</g>
<!-- Node17&#45;&gt;Node6 -->
<g id="edge25_Node000017_Node000006" class="edge">
<title>Node17&#45;&gt;Node6</title>
<g id="a_edge25_Node000017_Node000006"><a xlink:title=" ">
<path fill="none" stroke="#63b8ff" d="M558.54,-186.97C525.87,-178.77 476.13,-165.52 433.86,-151 432.24,-150.44 430.59,-149.85 428.93,-149.23"/>
<polygon fill="#63b8ff" stroke="#63b8ff" points="430.07,-145.92 419.49,-145.55 427.53,-152.44 430.07,-145.92"/>
</a>
</g>
</g>
<!-- Node17&#45;&gt;Node7 -->
<g id="edge22_Node000017_Node000007" class="edge">
<title>Node17&#45;&gt;Node7</title>
<g id="a_edge22_Node000017_Node000007"><a xlink:title=" ">
<path fill="none" stroke="#63b8ff" d="M598.9,-186.89C608.28,-171.59 629.81,-139.53 655.86,-121 681.53,-102.75 714.68,-90.26 741.46,-82.33"/>
<polygon fill="#63b8ff" stroke="#63b8ff" points="742.73,-85.61 751.39,-79.52 740.81,-78.88 742.73,-85.61"/>
</a>
</g>
</g>
<!-- Node17&#45;&gt;Node14 -->
<g id="edge27_Node000017_Node000014" class="edge">
<title>Node17&#45;&gt;Node14</title>
<g id="a_edge27_Node000017_Node000014"><a xlink:title=" ">
<path fill="none" stroke="#63b8ff" d="M621.21,-187C666.68,-172.91 760.79,-144.01 840.86,-121 892.22,-106.24 951.98,-90.11 988.87,-80.27"/>
<polygon fill="#63b8ff" stroke="#63b8ff" points="989.88,-83.62 998.64,-77.67 988.08,-76.86 989.88,-83.62"/>
</a>
</g>
</g>
<!-- Node18&#45;&gt;Node7 -->
<g id="edge31_Node000018_Node000007" class="edge">
<title>Node18&#45;&gt;Node7</title>
<g id="a_edge31_Node000018_Node000007"><a xlink:title=" ">
<path fill="none" stroke="#63b8ff" d="M889.62,-186.98C872.05,-179.61 848.24,-167.53 831.86,-151 814.31,-133.28 802.03,-106.92 795.21,-89.36"/>
<polygon fill="#63b8ff" stroke="#63b8ff" points="798.4,-87.9 791.67,-79.72 791.83,-90.31 798.4,-87.9"/>
</a>
</g>
</g>
<!-- Node18&#45;&gt;Node9 -->
<g id="edge29_Node000018_Node000009" class="edge">
<title>Node18&#45;&gt;Node9</title>
<g id="a_edge29_Node000018_Node000009"><a xlink:title=" ">
<path fill="none" stroke="#63b8ff" d="M972.51,-195.41C1050.49,-193.87 1180.73,-185.97 1210.86,-151 1241.66,-115.26 1208.49,-56.4 1188.59,-27.54"/>
<polygon fill="#63b8ff" stroke="#63b8ff" points="1191.35,-25.39 1182.69,-19.29 1185.66,-29.46 1191.35,-25.39"/>
</a>
</g>
</g>
<!-- Node18&#45;&gt;Node10 -->
<g id="edge32_Node000018_Node000010" class="edge">
<title>Node18&#45;&gt;Node10</title>
<g id="a_edge32_Node000018_Node000010"><a xlink:title=" ">
<path fill="none" stroke="#63b8ff" d="M887.01,-186.99C870.6,-180.09 850.67,-168.58 840.86,-151 834.37,-139.35 835.21,-133.07 840.86,-121 848.01,-105.74 862.37,-93.51 875.24,-84.96"/>
<polygon fill="#63b8ff" stroke="#63b8ff" points="877.16,-87.89 883.81,-79.65 873.47,-81.94 877.16,-87.89"/>
</a>
</g>
</g>
<!-- Node18&#45;&gt;Node14 -->
<g id="edge30_Node000018_Node000014" class="edge">
<title>Node18&#45;&gt;Node14</title>
<g id="a_edge30_Node000018_Node000014"><a xlink:title=" ">
<path fill="none" stroke="#63b8ff" d="M933.02,-186.88C948.78,-179.31 970.37,-167.02 984.86,-151 1001.26,-132.88 1012.28,-106.61 1018.31,-89.18"/>
<polygon fill="#63b8ff" stroke="#63b8ff" points="1021.66,-90.21 1021.43,-79.62 1015,-88.05 1021.66,-90.21"/>
</a>
</g>
</g>
<!-- Node19 -->
<g id="Node000019" class="node">
<title>Node19</title>
<g id="a_Node000019"><a xlink:href="log__writer__interface_8h.html" target="_top" xlink:title=" ">
<polygon fill="white" stroke="#666666" points="975.86,-151 849.86,-151 849.86,-121 975.86,-121 975.86,-151"/>
<text text-anchor="start" x="857.86" y="-139" font-family="Helvetica,sans-Serif" font-size="10.00">../interfaces/log_writer</text>
<text text-anchor="middle" x="912.86" y="-128" font-family="Helvetica,sans-Serif" font-size="10.00">_interface.h</text>
</a>
</g>
</g>
<!-- Node18&#45;&gt;Node19 -->
<g id="edge33_Node000018_Node000019" class="edge">
<title>Node18&#45;&gt;Node19</title>
<g id="a_edge33_Node000018_Node000019"><a xlink:title=" ">
<path fill="none" stroke="#63b8ff" d="M912.86,-186.87C912.86,-180.11 912.86,-170.35 912.86,-161.26"/>
<polygon fill="#63b8ff" stroke="#63b8ff" points="916.36,-161.11 912.86,-151.11 909.36,-161.11 916.36,-161.11"/>
</a>
</g>
</g>
<!-- Node20 -->
<g id="Node000020" class="node">
<title>Node20</title>
<g id="a_Node000020"><a xlink:href="log__entry_8h.html" target="_top" xlink:title=" ">
<polygon fill="white" stroke="#666666" points="1201.36,-145.5 1070.36,-145.5 1070.36,-126.5 1201.36,-126.5 1201.36,-145.5"/>
<text text-anchor="middle" x="1135.86" y="-133.5" font-family="Helvetica,sans-Serif" font-size="10.00">../interfaces/log_entry.h</text>
</a>
</g>
</g>
<!-- Node18&#45;&gt;Node20 -->
<g id="edge37_Node000018_Node000020" class="edge">
<title>Node18&#45;&gt;Node20</title>
<g id="a_edge37_Node000018_Node000020"><a xlink:title=" ">
<path fill="none" stroke="#63b8ff" d="M945.29,-186.99C984.43,-176.73 1050.36,-159.43 1093.49,-148.12"/>
<polygon fill="#63b8ff" stroke="#63b8ff" points="1094.61,-151.44 1103.4,-145.52 1092.84,-144.67 1094.61,-151.44"/>
</a>
</g>
</g>
<!-- Node19&#45;&gt;Node9 -->
<g id="edge34_Node000019_Node000009" class="edge">
<title>Node19&#45;&gt;Node9</title>
<g id="a_edge34_Node000019_Node000009"><a xlink:title=" ">
<path fill="none" stroke="#63b8ff" d="M922.54,-120.76C935.64,-102.63 960.75,-71.66 989.86,-55 1038.86,-26.97 1104.81,-16.54 1143.59,-12.7"/>
<polygon fill="#63b8ff" stroke="#63b8ff" points="1144.13,-16.17 1153.77,-11.78 1143.5,-9.2 1144.13,-16.17"/>
</a>
</g>
</g>
<!-- Node19&#45;&gt;Node10 -->
<g id="edge36_Node000019_Node000010" class="edge">
<title>Node19&#45;&gt;Node10</title>
<g id="a_edge36_Node000019_Node000010"><a xlink:title=" ">
<path fill="none" stroke="#63b8ff" d="M910.2,-120.8C908.49,-111.7 906.26,-99.79 904.41,-89.9"/>
<polygon fill="#63b8ff" stroke="#63b8ff" points="907.8,-89.03 902.52,-79.84 900.92,-90.32 907.8,-89.03"/>
</a>
</g>
</g>
<!-- Node19&#45;&gt;Node14 -->
<g id="edge35_Node000019_Node000014" class="edge">
<title>Node19&#45;&gt;Node14</title>
<g id="a_edge35_Node000019_Node000014"><a xlink:title=" ">
<path fill="none" stroke="#63b8ff" d="M937.22,-120.95C956,-110.13 981.82,-95.24 1000.37,-84.54"/>
<polygon fill="#63b8ff" stroke="#63b8ff" points="1002.17,-87.54 1009.09,-79.52 998.68,-81.48 1002.17,-87.54"/>
</a>
</g>
</g>
<!-- Node20&#45;&gt;Node7 -->
<g id="edge41_Node000020_Node000007" class="edge">
<title>Node20&#45;&gt;Node7</title>
<g id="a_edge41_Node000020_Node000007"><a xlink:title=" ">
<path fill="none" stroke="#63b8ff" d="M1082.67,-126.46C1025.31,-117.06 931.39,-101.15 850.86,-85 845.79,-83.98 840.49,-82.87 835.22,-81.72"/>
<polygon fill="#63b8ff" stroke="#63b8ff" points="835.71,-78.25 825.19,-79.51 834.2,-85.08 835.71,-78.25"/>
</a>
</g>
</g>
<!-- Node20&#45;&gt;Node9 -->
<g id="edge38_Node000020_Node000009" class="edge">
<title>Node20&#45;&gt;Node9</title>
<g id="a_edge38_Node000020_Node000009"><a xlink:title=" ">
<path fill="none" stroke="#63b8ff" d="M1138.61,-126.44C1145.03,-106.45 1161.14,-56.32 1169.92,-28.98"/>
<polygon fill="#63b8ff" stroke="#63b8ff" points="1173.37,-29.71 1173.09,-19.12 1166.7,-27.57 1173.37,-29.71"/>
</a>
</g>
</g>
<!-- Node20&#45;&gt;Node11 -->
<g id="edge40_Node000020_Node000011" class="edge">
<title>Node20&#45;&gt;Node11</title>
<g id="a_edge40_Node000020_Node000011"><a xlink:title=" ">
<path fill="none" stroke="#63b8ff" d="M1130.23,-126.44C1116.83,-106.1 1082.86,-54.53 1065.09,-27.54"/>
<polygon fill="#63b8ff" stroke="#63b8ff" points="1067.96,-25.54 1059.54,-19.12 1062.12,-29.39 1067.96,-25.54"/>
</a>
</g>
</g>
<!-- Node20&#45;&gt;Node14 -->
<g id="edge39_Node000020_Node000014" class="edge">
<title>Node20&#45;&gt;Node14</title>
<g id="a_edge39_Node000020_Node000014"><a xlink:title=" ">
<path fill="none" stroke="#63b8ff" d="M1120.76,-126.37C1102.05,-115.68 1069.97,-97.35 1047.87,-84.72"/>
<polygon fill="#63b8ff" stroke="#63b8ff" points="1049.5,-81.62 1039.09,-79.7 1046.03,-87.7 1049.5,-81.62"/>
</a>
</g>
</g>
<!-- Node21&#45;&gt;Node3 -->
<g id="edge49_Node000021_Node000003" class="edge">
<title>Node21&#45;&gt;Node3</title>
<g id="a_edge49_Node000021_Node000003"><a xlink:title=" ">
<path fill="none" stroke="#63b8ff" d="M1230,-186.56C1229.76,-171.32 1227.16,-140.09 1210.86,-121 1162.78,-64.68 1129.3,-74.53 1057.86,-55 947.88,-24.93 812.8,-15.06 747.26,-11.92"/>
<polygon fill="#63b8ff" stroke="#63b8ff" points="747.13,-8.41 736.98,-11.45 746.81,-15.4 747.13,-8.41"/>
</a>
</g>
</g>
<!-- Node21&#45;&gt;Node7 -->
<g id="edge43_Node000021_Node000007" class="edge">
<title>Node21&#45;&gt;Node7</title>
<g id="a_edge43_Node000021_Node000007"><a xlink:title=" ">
<path fill="none" stroke="#63b8ff" d="M1180.56,-195.01C1088.91,-193.26 896.57,-185.47 840.86,-151 817.79,-136.72 802.96,-107.97 795.26,-89.11"/>
<polygon fill="#63b8ff" stroke="#63b8ff" points="798.46,-87.67 791.63,-79.57 791.92,-90.16 798.46,-87.67"/>
</a>
</g>
</g>
<!-- Node21&#45;&gt;Node9 -->
<g id="edge47_Node000021_Node000009" class="edge">
<title>Node21&#45;&gt;Node9</title>
<g id="a_edge47_Node000021_Node000009"><a xlink:title=" ">
<path fill="none" stroke="#63b8ff" d="M1279.01,-193.59C1342.28,-189.99 1446.94,-179.74 1470.86,-151 1479.39,-140.75 1474.86,-133.72 1470.86,-121 1460.15,-86.89 1454.97,-74.28 1424.86,-55 1389.44,-32.32 1267.59,-18.66 1208.5,-13.23"/>
<polygon fill="#63b8ff" stroke="#63b8ff" points="1208.51,-9.71 1198.24,-12.31 1207.88,-16.69 1208.51,-9.71"/>
</a>
</g>
</g>
<!-- Node21&#45;&gt;Node20 -->
<g id="edge46_Node000021_Node000020" class="edge">
<title>Node21&#45;&gt;Node20</title>
<g id="a_edge46_Node000021_Node000020"><a xlink:title=" ">
<path fill="none" stroke="#63b8ff" d="M1215.99,-186.87C1200.86,-177.45 1176.4,-162.23 1158.48,-151.08"/>
<polygon fill="#63b8ff" stroke="#63b8ff" points="1160.13,-147.98 1149.79,-145.67 1156.43,-153.92 1160.13,-147.98"/>
</a>
</g>
</g>
<!-- Node22 -->
<g id="Node000022" class="node">
<title>Node22</title>
<g id="a_Node000022"><a xlink:href="log__filter__interface_8h.html" target="_top" xlink:title=" ">
<polygon fill="white" stroke="#666666" points="1415.86,-85 1295.86,-85 1295.86,-55 1415.86,-55 1415.86,-85"/>
<text text-anchor="start" x="1303.86" y="-73" font-family="Helvetica,sans-Serif" font-size="10.00">../interfaces/log_filter</text>
<text text-anchor="middle" x="1355.86" y="-62" font-family="Helvetica,sans-Serif" font-size="10.00">_interface.h</text>
</a>
</g>
</g>
<!-- Node21&#45;&gt;Node22 -->
<g id="edge44_Node000021_Node000022" class="edge">
<title>Node21&#45;&gt;Node22</title>
<g id="a_edge44_Node000021_Node000022"><a xlink:title=" ">
<path fill="none" stroke="#63b8ff" d="M1240.54,-186.98C1251.27,-178.27 1268.16,-164.18 1281.86,-151 1301.55,-132.06 1322.56,-109.04 1337.15,-92.56"/>
<polygon fill="#63b8ff" stroke="#63b8ff" points="1339.78,-94.87 1343.76,-85.05 1334.53,-90.25 1339.78,-94.87"/>
</a>
</g>
</g>
<!-- Node23 -->
<g id="Node000023" class="node">
<title>Node23</title>
<g id="a_Node000023"><a xlink:title=" ">
<polygon fill="#e0e0e0" stroke="#999999" points="1377.86,-145.5 1333.86,-145.5 1333.86,-126.5 1377.86,-126.5 1377.86,-145.5"/>
<text text-anchor="middle" x="1355.86" y="-133.5" font-family="Helvetica,sans-Serif" font-size="10.00">regex</text>
</a>
</g>
</g>
<!-- Node21&#45;&gt;Node23 -->
<g id="edge48_Node000021_Node000023" class="edge">
<title>Node21&#45;&gt;Node23</title>
<g id="a_edge48_Node000021_Node000023"><a xlink:title=" ">
<path fill="none" stroke="#63b8ff" d="M1248.18,-186.99C1269.27,-177.2 1304.12,-161.02 1328.45,-149.73"/>
<polygon fill="#63b8ff" stroke="#63b8ff" points="1329.92,-152.9 1337.52,-145.52 1326.97,-146.55 1329.92,-152.9"/>
</a>
</g>
</g>
<!-- Node24 -->
<g id="Node000024" class="node">
<title>Node24</title>
<g id="a_Node000024"><a xlink:title=" ">
<polygon fill="#e0e0e0" stroke="#999999" points="1461.36,-145.5 1396.36,-145.5 1396.36,-126.5 1461.36,-126.5 1461.36,-145.5"/>
<text text-anchor="middle" x="1428.86" y="-133.5" font-family="Helvetica,sans-Serif" font-size="10.00">functional</text>
</a>
</g>
</g>
<!-- Node21&#45;&gt;Node24 -->
<g id="edge50_Node000021_Node000024" class="edge">
<title>Node21&#45;&gt;Node24</title>
<g id="a_edge50_Node000021_Node000024"><a xlink:title=" ">
<path fill="none" stroke="#63b8ff" d="M1261.56,-186.97C1293.36,-178.31 1343.68,-164.31 1386.86,-151 1389.16,-150.29 1391.51,-149.55 1393.89,-148.79"/>
<polygon fill="#63b8ff" stroke="#63b8ff" points="1395.18,-152.05 1403.6,-145.63 1393.01,-145.4 1395.18,-152.05"/>
</a>
</g>
</g>
<!-- Node22&#45;&gt;Node9 -->
<g id="edge45_Node000022_Node000009" class="edge">
<title>Node22&#45;&gt;Node9</title>
<g id="a_edge45_Node000022_Node000009"><a xlink:title=" ">
<path fill="none" stroke="#63b8ff" d="M1312.75,-54.99C1280.56,-44.53 1237.26,-30.46 1208.05,-20.96"/>
<polygon fill="#63b8ff" stroke="#63b8ff" points="1208.94,-17.57 1198.35,-17.81 1206.78,-24.23 1208.94,-17.57"/>
</a>
</g>
</g>
<!-- Node25&#45;&gt;Node3 -->
<g id="edge55_Node000025_Node000003" class="edge">
<title>Node25&#45;&gt;Node3</title>
<g id="a_edge55_Node000025_Node000003"><a xlink:title=" ">
<path fill="none" stroke="#63b8ff" d="M770.87,-241.99C758.76,-234.25 742.37,-221.66 733.86,-206 702.3,-147.9 703.56,-66.22 706.08,-29.58"/>
<polygon fill="#63b8ff" stroke="#63b8ff" points="709.59,-29.61 706.91,-19.36 702.62,-29.05 709.59,-29.61"/>
</a>
</g>
</g>
<!-- Node25&#45;&gt;Node4 -->
<g id="edge54_Node000025_Node000004" class="edge">
<title>Node25&#45;&gt;Node4</title>
<g id="a_edge54_Node000025_Node000004"><a xlink:title=" ">
<path fill="none" stroke="#63b8ff" d="M729.83,-250.89C675.59,-249.02 592.59,-240.07 529.86,-206 507.3,-193.74 488.32,-170.53 477.03,-154.44"/>
<polygon fill="#63b8ff" stroke="#63b8ff" points="479.78,-152.26 471.3,-145.92 473.97,-156.17 479.78,-152.26"/>
</a>
</g>
</g>
<!-- Node25&#45;&gt;Node16 -->
<g id="edge56_Node000025_Node000016" class="edge">
<title>Node25&#45;&gt;Node16</title>
<g id="a_edge56_Node000025_Node000016"><a xlink:title=" ">
<path fill="none" stroke="#63b8ff" d="M729.75,-248.86C587.64,-243.68 218.05,-223.4 122.86,-151 102.29,-135.35 89.38,-107.65 82.64,-89.31"/>
<polygon fill="#63b8ff" stroke="#63b8ff" points="85.92,-88.08 79.38,-79.75 79.3,-90.34 85.92,-88.08"/>
</a>
</g>
</g>
<!-- Node25&#45;&gt;Node18 -->
<g id="edge53_Node000025_Node000018" class="edge">
<title>Node25&#45;&gt;Node18</title>
<g id="a_edge53_Node000025_Node000018"><a xlink:title=" ">
<path fill="none" stroke="#63b8ff" d="M806.27,-241.98C826.88,-233.38 858.97,-219.99 882.56,-210.15"/>
<polygon fill="#63b8ff" stroke="#63b8ff" points="884.21,-213.25 892.09,-206.17 881.51,-206.79 884.21,-213.25"/>
</a>
</g>
</g>
<!-- Node25&#45;&gt;Node21 -->
<g id="edge52_Node000025_Node000021" class="edge">
<title>Node25&#45;&gt;Node21</title>
<g id="a_edge52_Node000025_Node000021"><a xlink:title=" ">
<path fill="none" stroke="#63b8ff" d="M842.09,-243.79C926.29,-233.74 1084.41,-214.86 1170.43,-204.59"/>
<polygon fill="#63b8ff" stroke="#63b8ff" points="1171.04,-208.05 1180.56,-203.39 1170.21,-201.1 1171.04,-208.05"/>
</a>
</g>
</g>
<!-- Node26 -->
<g id="Node000026" class="node">
<title>Node26</title>
<g id="a_Node000026"><a xlink:title=" ">
<polygon fill="#e0e0e0" stroke="#999999" points="828.86,-206 742.86,-206 742.86,-187 828.86,-187 828.86,-206"/>
<text text-anchor="middle" x="785.86" y="-194" font-family="Helvetica,sans-Serif" font-size="10.00">unordered_set</text>
</a>
</g>
</g>
<!-- Node25&#45;&gt;Node26 -->
<g id="edge57_Node000025_Node000026" class="edge">
<title>Node25&#45;&gt;Node26</title>
<g id="a_edge57_Node000025_Node000026"><a xlink:title=" ">
<path fill="none" stroke="#63b8ff" d="M785.86,-241.75C785.86,-234.8 785.86,-224.85 785.86,-216.13"/>
<polygon fill="#63b8ff" stroke="#63b8ff" points="789.36,-216.09 785.86,-206.09 782.36,-216.09 789.36,-216.09"/>
</a>
</g>
</g>
</g>
</svg>
