<?xml version="1.0" encoding="UTF-8" standalone="no"?>
<!DOCTYPE svg PUBLIC "-//W3C//DTD SVG 1.1//EN"
 "http://www.w3.org/Graphics/SVG/1.1/DTD/svg11.dtd">
<!-- Generated by graphviz version 2.43.0 (0)
 -->
<!-- Title: logger_interface.h Pages: 1 -->
<svg width="1386pt" height="302pt"
 viewBox="0.00 0.00 1385.50 302.00" xmlns="http://www.w3.org/2000/svg" xmlns:xlink="http://www.w3.org/1999/xlink">
<g id="graph0" class="graph" transform="scale(1 1) rotate(0) translate(4 298)">
<title>logger_interface.h</title>
<!-- Node1 -->
<g id="Node000001" class="node">
<title>Node1</title>
<g id="a_Node000001"><a xlink:title=" ">
<polygon fill="#999999" stroke="#666666" points="1024,-294 919,-294 919,-275 1024,-275 1024,-294"/>
<text text-anchor="middle" x="971.5" y="-282" font-family="Helvetica,sans-Serif" font-size="10.00">logger_interface.h</text>
</a>
</g>
</g>
<!-- Node2 -->
<g id="Node000002" class="node">
<title>Node2</title>
<g id="a_Node000002"><a xlink:href="base__writer_8h.html" target="_top" xlink:title=" ">
<polygon fill="white" stroke="#666666" points="635.5,-184 553.5,-184 553.5,-165 635.5,-165 635.5,-184"/>
<text text-anchor="middle" x="594.5" y="-172" font-family="Helvetica,sans-Serif" font-size="10.00">base_writer.h</text>
</a>
</g>
</g>
<!-- Node1&#45;&gt;Node2 -->
<g id="edge1_Node000001_Node000002" class="edge">
<title>Node1&#45;&gt;Node2</title>
<g id="a_edge1_Node000001_Node000002"><a xlink:title=" ">
<path fill="none" stroke="#63b8ff" d="M908.7,-280.27C851.98,-275.75 767.01,-264.9 697.5,-239 660.89,-225.35 623.1,-198.02 605.18,-184.09"/>
<polygon fill="#63b8ff" stroke="#63b8ff" points="908.72,-283.78 918.95,-281.05 909.24,-276.8 908.72,-283.78"/>
</a>
</g>
</g>
<!-- Node17 -->
<g id="Node000017" class="node">
<title>Node17</title>
<g id="a_Node000017"><a xlink:href="log__analyzer_8h.html" target="_top" xlink:title=" ">
<polygon fill="white" stroke="#666666" points="1233,-239 1146,-239 1146,-220 1233,-220 1233,-239"/>
<text text-anchor="middle" x="1189.5" y="-227" font-family="Helvetica,sans-Serif" font-size="10.00">log_analyzer.h</text>
</a>
</g>
</g>
<!-- Node1&#45;&gt;Node17 -->
<g id="edge17_Node000001_Node000017" class="edge">
<title>Node1&#45;&gt;Node17</title>
<g id="a_edge17_Node000001_Node000017"><a xlink:title=" ">
<path fill="none" stroke="#63b8ff" d="M1016.48,-272.56C1057.31,-262.64 1116.7,-248.2 1154.2,-239.08"/>
<polygon fill="#63b8ff" stroke="#63b8ff" points="1015.42,-269.22 1006.53,-274.98 1017.07,-276.02 1015.42,-269.22"/>
</a>
</g>
</g>
<!-- Node19 -->
<g id="Node000019" class="node">
<title>Node19</title>
<g id="a_Node000019"><a xlink:href="log__collector_8h.html" target="_top" xlink:title=" ">
<polygon fill="white" stroke="#666666" points="897,-184 810,-184 810,-165 897,-165 897,-184"/>
<text text-anchor="middle" x="853.5" y="-172" font-family="Helvetica,sans-Serif" font-size="10.00">log_collector.h</text>
</a>
</g>
</g>
<!-- Node1&#45;&gt;Node19 -->
<g id="edge19_Node000001_Node000019" class="edge">
<title>Node1&#45;&gt;Node19</title>
<g id="a_edge19_Node000001_Node000019"><a xlink:title=" ">
<path fill="none" stroke="#63b8ff" d="M954.46,-267.91C929.25,-244.83 882.85,-202.37 862.96,-184.16"/>
<polygon fill="#63b8ff" stroke="#63b8ff" points="952.1,-270.49 961.84,-274.66 956.83,-265.33 952.1,-270.49"/>
</a>
</g>
</g>
<!-- Node20 -->
<g id="Node000020" class="node">
<title>Node20</title>
<g id="a_Node000020"><a xlink:href="log__entry_8h.html" target="_top" xlink:title=" ">
<polygon fill="white" stroke="#666666" points="776.5,-239 706.5,-239 706.5,-220 776.5,-220 776.5,-239"/>
<text text-anchor="middle" x="741.5" y="-227" font-family="Helvetica,sans-Serif" font-size="10.00">log_entry.h</text>
</a>
</g>
</g>
<!-- Node1&#45;&gt;Node20 -->
<g id="edge22_Node000001_Node000020" class="edge">
<title>Node1&#45;&gt;Node20</title>
<g id="a_edge22_Node000001_Node000020"><a xlink:title=" ">
<path fill="none" stroke="#63b8ff" d="M924.71,-272.72C880.93,-262.63 816.49,-247.78 776.85,-238.65"/>
<polygon fill="#63b8ff" stroke="#63b8ff" points="924.02,-276.15 934.55,-274.98 925.59,-269.33 924.02,-276.15"/>
</a>
</g>
</g>
<!-- Node22 -->
<g id="Node000022" class="node">
<title>Node22</title>
<g id="a_Node000022"><a xlink:href="log__filter_8h.html" target="_top" xlink:title=" ">
<polygon fill="white" stroke="#666666" points="983.5,-184 915.5,-184 915.5,-165 983.5,-165 983.5,-184"/>
<text text-anchor="middle" x="949.5" y="-172" font-family="Helvetica,sans-Serif" font-size="10.00">log_filter.h</text>
</a>
</g>
</g>
<!-- Node1&#45;&gt;Node22 -->
<g id="edge32_Node000001_Node000022" class="edge">
<title>Node1&#45;&gt;Node22</title>
<g id="a_edge32_Node000001_Node000022"><a xlink:title=" ">
<path fill="none" stroke="#63b8ff" d="M967.69,-264.8C962.88,-241.2 954.81,-201.58 951.26,-184.16"/>
<polygon fill="#63b8ff" stroke="#63b8ff" points="964.27,-265.56 969.7,-274.66 971.13,-264.16 964.27,-265.56"/>
</a>
</g>
</g>
<!-- Node25 -->
<g id="Node000025" class="node">
<title>Node25</title>
<g id="a_Node000025"><a xlink:href="logger_8h.html" target="_top" xlink:title=" ">
<polygon fill="white" stroke="#666666" points="1057.5,-184 1001.5,-184 1001.5,-165 1057.5,-165 1057.5,-184"/>
<text text-anchor="middle" x="1029.5" y="-172" font-family="Helvetica,sans-Serif" font-size="10.00">logger.h</text>
</a>
</g>
</g>
<!-- Node1&#45;&gt;Node25 -->
<g id="edge33_Node000001_Node000025" class="edge">
<title>Node1&#45;&gt;Node25</title>
<g id="a_edge33_Node000001_Node000025"><a xlink:title=" ">
<path fill="none" stroke="#63b8ff" d="M981.03,-265.76C993.64,-242.28 1015.37,-201.81 1024.85,-184.16"/>
<polygon fill="#63b8ff" stroke="#63b8ff" points="977.89,-264.2 976.25,-274.66 984.06,-267.51 977.89,-264.2"/>
</a>
</g>
</g>
<!-- Node26 -->
<g id="Node000026" class="node">
<title>Node26</title>
<g id="a_Node000026"><a xlink:href="logger__config_8h.html" target="_top" xlink:title=" ">
<polygon fill="white" stroke="#666666" points="1128,-239 1037,-239 1037,-220 1128,-220 1128,-239"/>
<text text-anchor="middle" x="1082.5" y="-227" font-family="Helvetica,sans-Serif" font-size="10.00">logger_config.h</text>
</a>
</g>
</g>
<!-- Node1&#45;&gt;Node26 -->
<g id="edge36_Node000001_Node000026" class="edge">
<title>Node1&#45;&gt;Node26</title>
<g id="a_edge36_Node000001_Node000026"><a xlink:title=" ">
<path fill="none" stroke="#63b8ff" d="M998.45,-270.63C1018.89,-260.87 1046.45,-247.71 1064.34,-239.17"/>
<polygon fill="#63b8ff" stroke="#63b8ff" points="996.85,-267.52 989.33,-274.98 999.87,-273.83 996.85,-267.52"/>
</a>
</g>
</g>
<!-- Node28 -->
<g id="Node000028" class="node">
<title>Node28</title>
<g id="a_Node000028"><a xlink:href="structured__logger_8h.html" target="_top" xlink:title=" ">
<polygon fill="white" stroke="#666666" points="1361.5,-239 1251.5,-239 1251.5,-220 1361.5,-220 1361.5,-239"/>
<text text-anchor="middle" x="1306.5" y="-227" font-family="Helvetica,sans-Serif" font-size="10.00">structured_logger.h</text>
</a>
</g>
</g>
<!-- Node1&#45;&gt;Node28 -->
<g id="edge40_Node000001_Node000028" class="edge">
<title>Node1&#45;&gt;Node28</title>
<g id="a_edge40_Node000001_Node000028"><a xlink:title=" ">
<path fill="none" stroke="#63b8ff" d="M1034.41,-273.55C1097.37,-263.59 1193.18,-248.43 1252.71,-239.01"/>
<polygon fill="#63b8ff" stroke="#63b8ff" points="1033.54,-270.14 1024.21,-275.16 1034.64,-277.05 1033.54,-270.14"/>
</a>
</g>
</g>
<!-- Node3 -->
<g id="Node000003" class="node">
<title>Node3</title>
<g id="a_Node000003"><a xlink:href="console__writer_8h.html" target="_top" xlink:title=" ">
<polygon fill="white" stroke="#666666" points="579.5,-129 483.5,-129 483.5,-110 579.5,-110 579.5,-129"/>
<text text-anchor="middle" x="531.5" y="-117" font-family="Helvetica,sans-Serif" font-size="10.00">console_writer.h</text>
</a>
</g>
</g>
<!-- Node2&#45;&gt;Node3 -->
<g id="edge2_Node000002_Node000003" class="edge">
<title>Node2&#45;&gt;Node3</title>
<g id="a_edge2_Node000002_Node000003"><a xlink:title=" ">
<path fill="none" stroke="#63b8ff" d="M576.46,-158.32C565.23,-148.87 551.18,-137.06 541.81,-129.17"/>
<polygon fill="#63b8ff" stroke="#63b8ff" points="574.47,-161.23 584.38,-164.98 578.98,-155.87 574.47,-161.23"/>
</a>
</g>
</g>
<!-- Node5 -->
<g id="Node000005" class="node">
<title>Node5</title>
<g id="a_Node000005"><a xlink:href="encrypted__writer_8h.html" target="_top" xlink:title=" ">
<polygon fill="white" stroke="#666666" points="178,-129 71,-129 71,-110 178,-110 178,-129"/>
<text text-anchor="middle" x="124.5" y="-117" font-family="Helvetica,sans-Serif" font-size="10.00">encrypted_writer.h</text>
</a>
</g>
</g>
<!-- Node2&#45;&gt;Node5 -->
<g id="edge4_Node000002_Node000005" class="edge">
<title>Node2&#45;&gt;Node5</title>
<g id="a_edge4_Node000002_Node000005"><a xlink:title=" ">
<path fill="none" stroke="#63b8ff" d="M543.01,-167.69C453.38,-157.59 269.55,-136.86 178.32,-126.57"/>
<polygon fill="#63b8ff" stroke="#63b8ff" points="542.87,-171.2 553.2,-168.84 543.66,-164.24 542.87,-171.2"/>
</a>
</g>
</g>
<!-- Node7 -->
<g id="Node000007" class="node">
<title>Node7</title>
<g id="a_Node000007"><a xlink:href="file__writer_8h.html" target="_top" xlink:title=" ">
<polygon fill="white" stroke="#666666" points="335.5,-129 261.5,-129 261.5,-110 335.5,-110 335.5,-129"/>
<text text-anchor="middle" x="298.5" y="-117" font-family="Helvetica,sans-Serif" font-size="10.00">file_writer.h</text>
</a>
</g>
</g>
<!-- Node2&#45;&gt;Node7 -->
<g id="edge6_Node000002_Node000007" class="edge">
<title>Node2&#45;&gt;Node7</title>
<g id="a_edge6_Node000002_Node000007"><a xlink:title=" ">
<path fill="none" stroke="#63b8ff" d="M543.45,-164.36C484.25,-153.76 388.07,-136.54 335.58,-127.14"/>
<polygon fill="#63b8ff" stroke="#63b8ff" points="542.88,-167.81 553.34,-166.13 544.12,-160.92 542.88,-167.81"/>
</a>
</g>
</g>
<!-- Node11 -->
<g id="Node000011" class="node">
<title>Node11</title>
<g id="a_Node000011"><a xlink:href="log__collector_8cpp.html" target="_top" xlink:title=" ">
<polygon fill="white" stroke="#666666" points="733.5,-129 635.5,-129 635.5,-110 733.5,-110 733.5,-129"/>
<text text-anchor="middle" x="684.5" y="-117" font-family="Helvetica,sans-Serif" font-size="10.00">log_collector.cpp</text>
</a>
</g>
</g>
<!-- Node2&#45;&gt;Node11 -->
<g id="edge10_Node000002_Node000011" class="edge">
<title>Node2&#45;&gt;Node11</title>
<g id="a_edge10_Node000002_Node000011"><a xlink:title=" ">
<path fill="none" stroke="#63b8ff" d="M617.94,-159.7C634.34,-150.04 655.73,-137.44 669.78,-129.17"/>
<polygon fill="#63b8ff" stroke="#63b8ff" points="615.8,-156.89 608.96,-164.98 619.35,-162.93 615.8,-156.89"/>
</a>
</g>
</g>
<!-- Node12 -->
<g id="Node000012" class="node">
<title>Node12</title>
<g id="a_Node000012"><a xlink:href="log__router_8h.html" target="_top" xlink:title=" ">
<polygon fill="white" stroke="#666666" points="825.5,-129 751.5,-129 751.5,-110 825.5,-110 825.5,-129"/>
<text text-anchor="middle" x="788.5" y="-117" font-family="Helvetica,sans-Serif" font-size="10.00">log_router.h</text>
</a>
</g>
</g>
<!-- Node2&#45;&gt;Node12 -->
<g id="edge11_Node000002_Node000012" class="edge">
<title>Node2&#45;&gt;Node12</title>
<g id="a_edge11_Node000002_Node000012"><a xlink:title=" ">
<path fill="none" stroke="#63b8ff" d="M635.46,-162.31C671.76,-152.39 724,-138.12 757.09,-129.08"/>
<polygon fill="#63b8ff" stroke="#63b8ff" points="634.39,-158.97 625.67,-164.98 636.24,-165.73 634.39,-158.97"/>
</a>
</g>
</g>
<!-- Node13 -->
<g id="Node000013" class="node">
<title>Node13</title>
<g id="a_Node000013"><a xlink:href="logger_8cpp.html" target="_top" xlink:title=" ">
<polygon fill="white" stroke="#666666" points="887,-74 820,-74 820,-55 887,-55 887,-74"/>
<text text-anchor="middle" x="853.5" y="-62" font-family="Helvetica,sans-Serif" font-size="10.00">logger.cpp</text>
</a>
</g>
</g>
<!-- Node2&#45;&gt;Node13 -->
<g id="edge13_Node000002_Node000013" class="edge">
<title>Node2&#45;&gt;Node13</title>
<g id="a_edge13_Node000002_Node000013"><a xlink:title=" ">
<path fill="none" stroke="#63b8ff" d="M598.99,-155.09C603.5,-140.6 611.92,-121.06 626.5,-110 656.5,-87.25 764.33,-73.95 819.88,-68.47"/>
<polygon fill="#63b8ff" stroke="#63b8ff" points="595.55,-154.39 596.27,-164.97 602.3,-156.25 595.55,-154.39"/>
</a>
</g>
</g>
<!-- Node14 -->
<g id="Node000014" class="node">
<title>Node14</title>
<g id="a_Node000014"><a xlink:href="logger__builder_8h.html" target="_top" xlink:title=" ">
<polygon fill="white" stroke="#666666" points="1120,-129 1025,-129 1025,-110 1120,-110 1120,-129"/>
<text text-anchor="middle" x="1072.5" y="-117" font-family="Helvetica,sans-Serif" font-size="10.00">logger_builder.h</text>
</a>
</g>
</g>
<!-- Node2&#45;&gt;Node14 -->
<g id="edge14_Node000002_Node000014" class="edge">
<title>Node2&#45;&gt;Node14</title>
<g id="a_edge14_Node000002_Node000014"><a xlink:title=" ">
<path fill="none" stroke="#63b8ff" d="M645.7,-168.36C741.65,-158.7 945.15,-137.96 1015.5,-129 1018.58,-128.61 1021.74,-128.19 1024.94,-127.75"/>
<polygon fill="#63b8ff" stroke="#63b8ff" points="645.26,-164.89 635.66,-169.38 645.96,-171.86 645.26,-164.89"/>
</a>
</g>
</g>
<!-- Node15 -->
<g id="Node000015" class="node">
<title>Node15</title>
<g id="a_Node000015"><a xlink:href="network__writer_8h.html" target="_top" xlink:title=" ">
<polygon fill="white" stroke="#666666" points="465.5,-129 367.5,-129 367.5,-110 465.5,-110 465.5,-129"/>
<text text-anchor="middle" x="416.5" y="-117" font-family="Helvetica,sans-Serif" font-size="10.00">network_writer.h</text>
</a>
</g>
</g>
<!-- Node2&#45;&gt;Node15 -->
<g id="edge15_Node000002_Node000015" class="edge">
<title>Node2&#45;&gt;Node15</title>
<g id="a_edge15_Node000002_Node000015"><a xlink:title=" ">
<path fill="none" stroke="#63b8ff" d="M556.06,-162.06C522.8,-152.15 475.42,-138.04 445.32,-129.08"/>
<polygon fill="#63b8ff" stroke="#63b8ff" points="555.32,-165.49 565.9,-164.98 557.32,-158.78 555.32,-165.49"/>
</a>
</g>
</g>
<!-- Node4 -->
<g id="Node000004" class="node">
<title>Node4</title>
<g id="a_Node000004"><a xlink:href="console__writer_8cpp.html" target="_top" xlink:title=" ">
<polygon fill="white" stroke="#666666" points="611,-74 504,-74 504,-55 611,-55 611,-74"/>
<text text-anchor="middle" x="557.5" y="-62" font-family="Helvetica,sans-Serif" font-size="10.00">console_writer.cpp</text>
</a>
</g>
</g>
<!-- Node3&#45;&gt;Node4 -->
<g id="edge3_Node000003_Node000004" class="edge">
<title>Node3&#45;&gt;Node4</title>
<g id="a_edge3_Node000003_Node000004"><a xlink:title=" ">
<path fill="none" stroke="#63b8ff" d="M540.32,-100.53C544.7,-91.6 549.79,-81.22 553.29,-74.09"/>
<polygon fill="#63b8ff" stroke="#63b8ff" points="537.06,-99.23 535.79,-109.75 543.34,-102.31 537.06,-99.23"/>
</a>
</g>
</g>
<!-- Node6 -->
<g id="Node000006" class="node">
<title>Node6</title>
<g id="a_Node000006"><a xlink:href="encrypted__writer_8cpp.html" target="_top" xlink:title=" ">
<polygon fill="white" stroke="#666666" points="119,-74 0,-74 0,-55 119,-55 119,-74"/>
<text text-anchor="middle" x="59.5" y="-62" font-family="Helvetica,sans-Serif" font-size="10.00">encrypted_writer.cpp</text>
</a>
</g>
</g>
<!-- Node5&#45;&gt;Node6 -->
<g id="edge5_Node000005_Node000006" class="edge">
<title>Node5&#45;&gt;Node6</title>
<g id="a_edge5_Node000005_Node000006"><a xlink:title=" ">
<path fill="none" stroke="#63b8ff" d="M106.23,-103.6C94.58,-94.11 79.9,-82.13 70.13,-74.17"/>
<polygon fill="#63b8ff" stroke="#63b8ff" points="104.09,-106.38 114.06,-109.98 108.52,-100.95 104.09,-106.38"/>
</a>
</g>
</g>
<!-- Node8 -->
<g id="Node000008" class="node">
<title>Node8</title>
<g id="a_Node000008"><a xlink:href="file__writer_8cpp.html" target="_top" xlink:title=" ">
<polygon fill="white" stroke="#666666" points="222,-74 137,-74 137,-55 222,-55 222,-74"/>
<text text-anchor="middle" x="179.5" y="-62" font-family="Helvetica,sans-Serif" font-size="10.00">file_writer.cpp</text>
</a>
</g>
</g>
<!-- Node7&#45;&gt;Node8 -->
<g id="edge7_Node000007_Node000008" class="edge">
<title>Node7&#45;&gt;Node8</title>
<g id="a_edge7_Node000007_Node000008"><a xlink:title=" ">
<path fill="none" stroke="#63b8ff" d="M270.2,-105.9C248.22,-96.11 218.32,-82.79 198.97,-74.17"/>
<polygon fill="#63b8ff" stroke="#63b8ff" points="268.82,-109.11 279.38,-109.98 271.67,-102.72 268.82,-109.11"/>
</a>
</g>
</g>
<!-- Node9 -->
<g id="Node000009" class="node">
<title>Node9</title>
<g id="a_Node000009"><a xlink:href="rotating__file__writer_8h.html" target="_top" xlink:title=" ">
<polygon fill="white" stroke="#666666" points="357,-74 240,-74 240,-55 357,-55 357,-74"/>
<text text-anchor="middle" x="298.5" y="-62" font-family="Helvetica,sans-Serif" font-size="10.00">rotating_file_writer.h</text>
</a>
</g>
</g>
<!-- Node7&#45;&gt;Node9 -->
<g id="edge8_Node000007_Node000009" class="edge">
<title>Node7&#45;&gt;Node9</title>
<g id="a_edge8_Node000007_Node000009"><a xlink:title=" ">
<path fill="none" stroke="#63b8ff" d="M298.5,-99.66C298.5,-90.93 298.5,-80.99 298.5,-74.09"/>
<polygon fill="#63b8ff" stroke="#63b8ff" points="295,-99.75 298.5,-109.75 302,-99.75 295,-99.75"/>
</a>
</g>
</g>
<!-- Node10 -->
<g id="Node000010" class="node">
<title>Node10</title>
<g id="a_Node000010"><a xlink:href="rotating__file__writer_8cpp.html" target="_top" xlink:title=" ">
<polygon fill="white" stroke="#666666" points="362.5,-19 234.5,-19 234.5,0 362.5,0 362.5,-19"/>
<text text-anchor="middle" x="298.5" y="-7" font-family="Helvetica,sans-Serif" font-size="10.00">rotating_file_writer.cpp</text>
</a>
</g>
</g>
<!-- Node9&#45;&gt;Node10 -->
<g id="edge9_Node000009_Node000010" class="edge">
<title>Node9&#45;&gt;Node10</title>
<g id="a_edge9_Node000009_Node000010"><a xlink:title=" ">
<path fill="none" stroke="#63b8ff" d="M298.5,-44.66C298.5,-35.93 298.5,-25.99 298.5,-19.09"/>
<polygon fill="#63b8ff" stroke="#63b8ff" points="295,-44.75 298.5,-54.75 302,-44.75 295,-44.75"/>
</a>
</g>
</g>
<!-- Node12&#45;&gt;Node13 -->
<g id="edge12_Node000012_Node000013" class="edge">
<title>Node12&#45;&gt;Node13</title>
<g id="a_edge12_Node000012_Node000013"><a xlink:title=" ">
<path fill="none" stroke="#63b8ff" d="M806.77,-103.6C818.42,-94.11 833.1,-82.13 842.87,-74.17"/>
<polygon fill="#63b8ff" stroke="#63b8ff" points="804.48,-100.95 798.94,-109.98 808.91,-106.38 804.48,-100.95"/>
</a>
</g>
</g>
<!-- Node16 -->
<g id="Node000016" class="node">
<title>Node16</title>
<g id="a_Node000016"><a xlink:href="network__writer_8cpp.html" target="_top" xlink:title=" ">
<polygon fill="white" stroke="#666666" points="485.5,-74 375.5,-74 375.5,-55 485.5,-55 485.5,-74"/>
<text text-anchor="middle" x="430.5" y="-62" font-family="Helvetica,sans-Serif" font-size="10.00">network_writer.cpp</text>
</a>
</g>
</g>
<!-- Node15&#45;&gt;Node16 -->
<g id="edge16_Node000015_Node000016" class="edge">
<title>Node15&#45;&gt;Node16</title>
<g id="a_edge16_Node000015_Node000016"><a xlink:title=" ">
<path fill="none" stroke="#63b8ff" d="M421.4,-99.95C423.72,-91.15 426.39,-81.06 428.23,-74.09"/>
<polygon fill="#63b8ff" stroke="#63b8ff" points="417.98,-99.19 418.81,-109.75 424.75,-100.97 417.98,-99.19"/>
</a>
</g>
</g>
<!-- Node18 -->
<g id="Node000018" class="node">
<title>Node18</title>
<g id="a_Node000018"><a xlink:href="log__analyzer_8cpp.html" target="_top" xlink:title=" ">
<polygon fill="white" stroke="#666666" points="1377.5,-184 1279.5,-184 1279.5,-165 1377.5,-165 1377.5,-184"/>
<text text-anchor="middle" x="1328.5" y="-172" font-family="Helvetica,sans-Serif" font-size="10.00">log_analyzer.cpp</text>
</a>
</g>
</g>
<!-- Node17&#45;&gt;Node18 -->
<g id="edge18_Node000017_Node000018" class="edge">
<title>Node17&#45;&gt;Node18</title>
<g id="a_edge18_Node000017_Node000018"><a xlink:title=" ">
<path fill="none" stroke="#63b8ff" d="M1221.18,-216.42C1246.97,-206.59 1282.74,-192.95 1305.76,-184.17"/>
<polygon fill="#63b8ff" stroke="#63b8ff" points="1219.93,-213.15 1211.83,-219.98 1222.42,-219.69 1219.93,-213.15"/>
</a>
</g>
</g>
<!-- Node19&#45;&gt;Node11 -->
<g id="edge20_Node000019_Node000011" class="edge">
<title>Node19&#45;&gt;Node11</title>
<g id="a_edge20_Node000019_Node000011"><a xlink:title=" ">
<path fill="none" stroke="#63b8ff" d="M816.6,-161.93C785.03,-152.03 740.32,-138.01 711.87,-129.08"/>
<polygon fill="#63b8ff" stroke="#63b8ff" points="815.76,-165.33 826.35,-164.98 817.85,-158.65 815.76,-165.33"/>
</a>
</g>
</g>
<!-- Node19&#45;&gt;Node13 -->
<g id="edge21_Node000019_Node000013" class="edge">
<title>Node19&#45;&gt;Node13</title>
<g id="a_edge21_Node000019_Node000013"><a xlink:title=" ">
<path fill="none" stroke="#63b8ff" d="M853.5,-154.48C853.5,-130.84 853.5,-91.5 853.5,-74.16"/>
<polygon fill="#63b8ff" stroke="#63b8ff" points="850,-154.66 853.5,-164.66 857,-154.66 850,-154.66"/>
</a>
</g>
</g>
<!-- Node20&#45;&gt;Node2 -->
<g id="edge24_Node000020_Node000002" class="edge">
<title>Node20&#45;&gt;Node2</title>
<g id="a_edge24_Node000020_Node000002"><a xlink:title=" ">
<path fill="none" stroke="#63b8ff" d="M708.36,-216.55C681.06,-206.71 643,-192.98 618.55,-184.17"/>
<polygon fill="#63b8ff" stroke="#63b8ff" points="707.29,-219.89 717.88,-219.98 709.66,-213.3 707.29,-219.89"/>
</a>
</g>
</g>
<!-- Node20&#45;&gt;Node11 -->
<g id="edge25_Node000020_Node000011" class="edge">
<title>Node20&#45;&gt;Node11</title>
<g id="a_edge25_Node000020_Node000011"><a xlink:title=" ">
<path fill="none" stroke="#63b8ff" d="M713.43,-214.84C701.6,-207.48 689.07,-197.18 682.5,-184 673.65,-166.23 678.23,-142.06 681.73,-129.27"/>
<polygon fill="#63b8ff" stroke="#63b8ff" points="711.82,-217.95 722.23,-219.9 715.3,-211.88 711.82,-217.95"/>
</a>
</g>
</g>
<!-- Node21 -->
<g id="Node000021" class="node">
<title>Node21</title>
<g id="a_Node000021"><a xlink:href="base__formatter_8h.html" target="_top" xlink:title=" ">
<polygon fill="white" stroke="#666666" points="791.5,-184 691.5,-184 691.5,-165 791.5,-165 791.5,-184"/>
<text text-anchor="middle" x="741.5" y="-172" font-family="Helvetica,sans-Serif" font-size="10.00">base_formatter.h</text>
</a>
</g>
</g>
<!-- Node20&#45;&gt;Node21 -->
<g id="edge23_Node000020_Node000021" class="edge">
<title>Node20&#45;&gt;Node21</title>
<g id="a_edge23_Node000020_Node000021"><a xlink:title=" ">
<path fill="none" stroke="#63b8ff" d="M741.5,-209.66C741.5,-200.93 741.5,-190.99 741.5,-184.09"/>
<polygon fill="#63b8ff" stroke="#63b8ff" points="738,-209.75 741.5,-219.75 745,-209.75 738,-209.75"/>
</a>
</g>
</g>
<!-- Node20&#45;&gt;Node22 -->
<g id="edge26_Node000020_Node000022" class="edge">
<title>Node20&#45;&gt;Node22</title>
<g id="a_edge26_Node000020_Node000022"><a xlink:title=" ">
<path fill="none" stroke="#63b8ff" d="M784.91,-217.44C823.85,-207.52 880.19,-193.16 915.82,-184.08"/>
<polygon fill="#63b8ff" stroke="#63b8ff" points="783.74,-214.12 774.92,-219.98 785.47,-220.91 783.74,-214.12"/>
</a>
</g>
</g>
<!-- Node22&#45;&gt;Node12 -->
<g id="edge27_Node000022_Node000012" class="edge">
<title>Node22&#45;&gt;Node12</title>
<g id="a_edge27_Node000022_Node000012"><a xlink:title=" ">
<path fill="none" stroke="#63b8ff" d="M913.95,-161.8C883.91,-151.91 841.56,-137.97 814.57,-129.08"/>
<polygon fill="#63b8ff" stroke="#63b8ff" points="913.04,-165.18 923.63,-164.98 915.23,-158.53 913.04,-165.18"/>
</a>
</g>
</g>
<!-- Node22&#45;&gt;Node13 -->
<g id="edge30_Node000022_Node000013" class="edge">
<title>Node22&#45;&gt;Node13</title>
<g id="a_edge30_Node000022_Node000013"><a xlink:title=" ">
<path fill="none" stroke="#63b8ff" d="M934.83,-157C914.15,-133.73 877.17,-92.13 861.2,-74.16"/>
<polygon fill="#63b8ff" stroke="#63b8ff" points="932.38,-159.51 941.64,-164.66 937.62,-154.86 932.38,-159.51"/>
</a>
</g>
</g>
<!-- Node22&#45;&gt;Node14 -->
<g id="edge31_Node000022_Node000014" class="edge">
<title>Node22&#45;&gt;Node14</title>
<g id="a_edge31_Node000022_Node000014"><a xlink:title=" ">
<path fill="none" stroke="#63b8ff" d="M978.75,-160.9C1001.47,-151.11 1032.37,-137.79 1052.38,-129.17"/>
<polygon fill="#63b8ff" stroke="#63b8ff" points="977.06,-157.81 969.26,-164.98 979.83,-164.24 977.06,-157.81"/>
</a>
</g>
</g>
<!-- Node23 -->
<g id="Node000023" class="node">
<title>Node23</title>
<g id="a_Node000023"><a xlink:href="log__sanitizer_8h.html" target="_top" xlink:title=" ">
<polygon fill="white" stroke="#666666" points="1007,-129 920,-129 920,-110 1007,-110 1007,-129"/>
<text text-anchor="middle" x="963.5" y="-117" font-family="Helvetica,sans-Serif" font-size="10.00">log_sanitizer.h</text>
</a>
</g>
</g>
<!-- Node22&#45;&gt;Node23 -->
<g id="edge28_Node000022_Node000023" class="edge">
<title>Node22&#45;&gt;Node23</title>
<g id="a_edge28_Node000022_Node000023"><a xlink:title=" ">
<path fill="none" stroke="#63b8ff" d="M954.4,-154.95C956.72,-146.15 959.39,-136.06 961.23,-129.09"/>
<polygon fill="#63b8ff" stroke="#63b8ff" points="950.98,-154.19 951.81,-164.75 957.75,-155.97 950.98,-154.19"/>
</a>
</g>
</g>
<!-- Node24 -->
<g id="Node000024" class="node">
<title>Node24</title>
<g id="a_Node000024"><a xlink:href="log__sanitizer_8cpp.html" target="_top" xlink:title=" ">
<polygon fill="white" stroke="#666666" points="1012.5,-74 914.5,-74 914.5,-55 1012.5,-55 1012.5,-74"/>
<text text-anchor="middle" x="963.5" y="-62" font-family="Helvetica,sans-Serif" font-size="10.00">log_sanitizer.cpp</text>
</a>
</g>
</g>
<!-- Node23&#45;&gt;Node24 -->
<g id="edge29_Node000023_Node000024" class="edge">
<title>Node23&#45;&gt;Node24</title>
<g id="a_edge29_Node000023_Node000024"><a xlink:title=" ">
<path fill="none" stroke="#63b8ff" d="M963.5,-99.66C963.5,-90.93 963.5,-80.99 963.5,-74.09"/>
<polygon fill="#63b8ff" stroke="#63b8ff" points="960,-99.75 963.5,-109.75 967,-99.75 960,-99.75"/>
</a>
</g>
</g>
<!-- Node25&#45;&gt;Node13 -->
<g id="edge34_Node000025_Node000013" class="edge">
<title>Node25&#45;&gt;Node13</title>
<g id="a_edge34_Node000025_Node000013"><a xlink:title=" ">
<path fill="none" stroke="#63b8ff" d="M1067.7,-164.67C1104.4,-154.42 1151.32,-135.61 1129.5,-110 1096.8,-71.63 955.27,-82.07 905.5,-74 899.54,-73.03 893.2,-72 887.06,-71"/>
<polygon fill="#63b8ff" stroke="#63b8ff" points="1066.45,-161.38 1057.68,-167.33 1068.24,-168.14 1066.45,-161.38"/>
</a>
</g>
</g>
<!-- Node25&#45;&gt;Node14 -->
<g id="edge35_Node000025_Node000014" class="edge">
<title>Node25&#45;&gt;Node14</title>
<g id="a_edge35_Node000025_Node000014"><a xlink:title=" ">
<path fill="none" stroke="#63b8ff" d="M1042.92,-156.96C1050.41,-147.72 1059.44,-136.6 1065.53,-129.09"/>
<polygon fill="#63b8ff" stroke="#63b8ff" points="1040.18,-154.78 1036.6,-164.75 1045.62,-159.19 1040.18,-154.78"/>
</a>
</g>
</g>
<!-- Node26&#45;&gt;Node14 -->
<g id="edge39_Node000026_Node000014" class="edge">
<title>Node26&#45;&gt;Node14</title>
<g id="a_edge39_Node000026_Node000014"><a xlink:title=" ">
<path fill="none" stroke="#63b8ff" d="M1080.74,-209.48C1078.55,-185.84 1074.91,-146.5 1073.3,-129.16"/>
<polygon fill="#63b8ff" stroke="#63b8ff" points="1077.27,-210.03 1081.68,-219.66 1084.24,-209.38 1077.27,-210.03"/>
</a>
</g>
</g>
<!-- Node27 -->
<g id="Node000027" class="node">
<title>Node27</title>
<g id="a_Node000027"><a xlink:href="config__strategy__interface_8h.html" target="_top" xlink:title=" ">
<polygon fill="white" stroke="#666666" points="1262,-184 1113,-184 1113,-165 1262,-165 1262,-184"/>
<text text-anchor="middle" x="1187.5" y="-172" font-family="Helvetica,sans-Serif" font-size="10.00">config_strategy_interface.h</text>
</a>
</g>
</g>
<!-- Node26&#45;&gt;Node27 -->
<g id="edge37_Node000026_Node000027" class="edge">
<title>Node26&#45;&gt;Node27</title>
<g id="a_edge37_Node000026_Node000027"><a xlink:title=" ">
<path fill="none" stroke="#63b8ff" d="M1108.52,-215.37C1127.8,-205.63 1153.55,-192.64 1170.32,-184.17"/>
<polygon fill="#63b8ff" stroke="#63b8ff" points="1106.72,-212.35 1099.37,-219.98 1109.87,-218.6 1106.72,-212.35"/>
</a>
</g>
</g>
<!-- Node27&#45;&gt;Node14 -->
<g id="edge38_Node000027_Node000014" class="edge">
<title>Node27&#45;&gt;Node14</title>
<g id="a_edge38_Node000027_Node000014"><a xlink:title=" ">
<path fill="none" stroke="#63b8ff" d="M1159.87,-160.77C1138.66,-150.99 1109.94,-137.75 1091.31,-129.17"/>
<polygon fill="#63b8ff" stroke="#63b8ff" points="1158.48,-163.98 1169.02,-164.98 1161.41,-157.62 1158.48,-163.98"/>
</a>
</g>
</g>
</g>
</svg>
