<?xml version="1.0" encoding="UTF-8" standalone="no"?>
<!DOCTYPE svg PUBLIC "-//W3C//DTD SVG 1.1//EN"
 "http://www.w3.org/Graphics/SVG/1.1/DTD/svg11.dtd">
<!-- Generated by graphviz version 2.43.0 (0)
 -->
<!-- Title: /home/runner/work/logger_system/logger_system/sources/logger/config/logger_config.h Pages: 1 -->
<svg width="444pt" height="170pt"
 viewBox="0.00 0.00 443.50 170.00" xmlns="http://www.w3.org/2000/svg" xmlns:xlink="http://www.w3.org/1999/xlink">
<g id="graph0" class="graph" transform="scale(1 1) rotate(0) translate(4 166)">
<title>/home/runner/work/logger_system/logger_system/sources/logger/config/logger_config.h</title>
<!-- Node1 -->
<g id="Node000001" class="node">
<title>Node1</title>
<g id="a_Node000001"><a xlink:title=" ">
<polygon fill="#999999" stroke="#666666" points="214.5,-162 41.5,-162 41.5,-121 214.5,-121 214.5,-162"/>
<text text-anchor="start" x="49.5" y="-150" font-family="Helvetica,sans-Serif" font-size="10.00">/home/runner/work/logger</text>
<text text-anchor="start" x="49.5" y="-139" font-family="Helvetica,sans-Serif" font-size="10.00">_system/logger_system/sources</text>
<text text-anchor="middle" x="128" y="-128" font-family="Helvetica,sans-Serif" font-size="10.00">/logger/config/logger_config.h</text>
</a>
</g>
</g>
<!-- Node2 -->
<g id="Node000002" class="node">
<title>Node2</title>
<g id="a_Node000002"><a xlink:title=" ">
<polygon fill="#e0e0e0" stroke="#999999" points="50,-85 0,-85 0,-66 50,-66 50,-85"/>
<text text-anchor="middle" x="25" y="-73" font-family="Helvetica,sans-Serif" font-size="10.00">chrono</text>
</a>
</g>
</g>
<!-- Node1&#45;&gt;Node2 -->
<g id="edge1_Node000001_Node000002" class="edge">
<title>Node1&#45;&gt;Node2</title>
<g id="a_edge1_Node000001_Node000002"><a xlink:title=" ">
<path fill="none" stroke="#63b8ff" d="M96.54,-120.95C80.72,-111.12 61.91,-99.43 47.55,-90.51"/>
<polygon fill="#63b8ff" stroke="#63b8ff" points="49.17,-87.4 38.83,-85.09 45.47,-93.34 49.17,-87.4"/>
</a>
</g>
</g>
<!-- Node3 -->
<g id="Node000003" class="node">
<title>Node3</title>
<g id="a_Node000003"><a xlink:title=" ">
<polygon fill="#e0e0e0" stroke="#999999" points="100,-24.5 56,-24.5 56,-5.5 100,-5.5 100,-24.5"/>
<text text-anchor="middle" x="78" y="-12.5" font-family="Helvetica,sans-Serif" font-size="10.00">string</text>
</a>
</g>
</g>
<!-- Node1&#45;&gt;Node3 -->
<g id="edge2_Node000001_Node000003" class="edge">
<title>Node1&#45;&gt;Node3</title>
<g id="a_edge2_Node000001_Node000003"><a xlink:title=" ">
<path fill="none" stroke="#63b8ff" d="M115.46,-120.78C109.27,-110.43 102.07,-97.36 97,-85 90.23,-68.49 85.08,-48.79 81.86,-34.67"/>
<polygon fill="#63b8ff" stroke="#63b8ff" points="85.24,-33.75 79.69,-24.72 78.4,-35.23 85.24,-33.75"/>
</a>
</g>
</g>
<!-- Node4 -->
<g id="Node000004" class="node">
<title>Node4</title>
<g id="a_Node000004"><a xlink:title=" ">
<polygon fill="#e0e0e0" stroke="#999999" points="150,-85 106,-85 106,-66 150,-66 150,-85"/>
<text text-anchor="middle" x="128" y="-73" font-family="Helvetica,sans-Serif" font-size="10.00">limits</text>
</a>
</g>
</g>
<!-- Node1&#45;&gt;Node4 -->
<g id="edge3_Node000001_Node000004" class="edge">
<title>Node1&#45;&gt;Node4</title>
<g id="a_edge3_Node000001_Node000004"><a xlink:title=" ">
<path fill="none" stroke="#63b8ff" d="M128,-120.95C128,-112.85 128,-103.5 128,-95.47"/>
<polygon fill="#63b8ff" stroke="#63b8ff" points="131.5,-95.26 128,-85.26 124.5,-95.26 131.5,-95.26"/>
</a>
</g>
</g>
<!-- Node5 -->
<g id="Node000005" class="node">
<title>Node5</title>
<g id="a_Node000005"><a xlink:href="error__codes_8h.html" target="_top" xlink:title=" ">
<polygon fill="white" stroke="#666666" points="260,-85 168,-85 168,-66 260,-66 260,-85"/>
<text text-anchor="middle" x="214" y="-73" font-family="Helvetica,sans-Serif" font-size="10.00">../error_codes.h</text>
</a>
</g>
</g>
<!-- Node1&#45;&gt;Node5 -->
<g id="edge4_Node000001_Node000005" class="edge">
<title>Node1&#45;&gt;Node5</title>
<g id="a_edge4_Node000001_Node000005"><a xlink:title=" ">
<path fill="none" stroke="#63b8ff" d="M154.27,-120.95C167.02,-111.46 182.1,-100.24 193.92,-91.44"/>
<polygon fill="#63b8ff" stroke="#63b8ff" points="196.3,-94.04 202.23,-85.26 192.12,-88.42 196.3,-94.04"/>
</a>
</g>
</g>
<!-- Node9 -->
<g id="Node000009" class="node">
<title>Node9</title>
<g id="a_Node000009"><a xlink:title=" ">
<polygon fill="#e0e0e0" stroke="#999999" points="435.5,-85 278.5,-85 278.5,-66 435.5,-66 435.5,-85"/>
<text text-anchor="middle" x="357" y="-73" font-family="Helvetica,sans-Serif" font-size="10.00">interfaces/logger_interface.h</text>
</a>
</g>
</g>
<!-- Node1&#45;&gt;Node9 -->
<g id="edge9_Node000001_Node000009" class="edge">
<title>Node1&#45;&gt;Node9</title>
<g id="a_edge9_Node000001_Node000009"><a xlink:title=" ">
<path fill="none" stroke="#63b8ff" d="M197.95,-120.95C236.93,-110.06 284.07,-96.88 316.86,-87.72"/>
<polygon fill="#63b8ff" stroke="#63b8ff" points="317.87,-91.07 326.56,-85.01 315.98,-84.33 317.87,-91.07"/>
</a>
</g>
</g>
<!-- Node5&#45;&gt;Node3 -->
<g id="edge5_Node000005_Node000003" class="edge">
<title>Node5&#45;&gt;Node3</title>
<g id="a_edge5_Node000005_Node000003"><a xlink:title=" ">
<path fill="none" stroke="#63b8ff" d="M193.42,-65.94C172.2,-57.09 138.2,-42.78 109,-30 108,-29.56 106.98,-29.11 105.95,-28.66"/>
<polygon fill="#63b8ff" stroke="#63b8ff" points="107.21,-25.39 96.66,-24.51 104.36,-31.78 107.21,-25.39"/>
</a>
</g>
</g>
<!-- Node6 -->
<g id="Node000006" class="node">
<title>Node6</title>
<g id="a_Node000006"><a xlink:title=" ">
<polygon fill="#e0e0e0" stroke="#999999" points="183.5,-24.5 118.5,-24.5 118.5,-5.5 183.5,-5.5 183.5,-24.5"/>
<text text-anchor="middle" x="151" y="-12.5" font-family="Helvetica,sans-Serif" font-size="10.00">stdexcept</text>
</a>
</g>
</g>
<!-- Node5&#45;&gt;Node6 -->
<g id="edge6_Node000005_Node000006" class="edge">
<title>Node5&#45;&gt;Node6</title>
<g id="a_edge6_Node000005_Node000006"><a xlink:title=" ">
<path fill="none" stroke="#63b8ff" d="M204.7,-65.87C195.03,-56.88 179.66,-42.61 167.84,-31.64"/>
<polygon fill="#63b8ff" stroke="#63b8ff" points="170.04,-28.91 160.33,-24.67 165.28,-34.04 170.04,-28.91"/>
</a>
</g>
</g>
<!-- Node7 -->
<g id="Node000007" class="node">
<title>Node7</title>
<g id="a_Node000007"><a xlink:title=" ">
<polygon fill="#e0e0e0" stroke="#999999" points="246.5,-24.5 201.5,-24.5 201.5,-5.5 246.5,-5.5 246.5,-24.5"/>
<text text-anchor="middle" x="224" y="-12.5" font-family="Helvetica,sans-Serif" font-size="10.00">utility</text>
</a>
</g>
</g>
<!-- Node5&#45;&gt;Node7 -->
<g id="edge7_Node000005_Node000007" class="edge">
<title>Node5&#45;&gt;Node7</title>
<g id="a_edge7_Node000005_Node000007"><a xlink:title=" ">
<path fill="none" stroke="#63b8ff" d="M215.48,-65.87C216.88,-57.66 219.04,-45.04 220.83,-34.55"/>
<polygon fill="#63b8ff" stroke="#63b8ff" points="224.28,-35.11 222.52,-24.67 217.38,-33.93 224.28,-35.11"/>
</a>
</g>
</g>
<!-- Node8 -->
<g id="Node000008" class="node">
<title>Node8</title>
<g id="a_Node000008"><a xlink:title=" ">
<polygon fill="#e0e0e0" stroke="#999999" points="393,-30 265,-30 265,0 393,0 393,-30"/>
<text text-anchor="start" x="273" y="-18" font-family="Helvetica,sans-Serif" font-size="10.00">thread_base/sync/error</text>
<text text-anchor="middle" x="329" y="-7" font-family="Helvetica,sans-Serif" font-size="10.00">_handling.h</text>
</a>
</g>
</g>
<!-- Node5&#45;&gt;Node8 -->
<g id="edge8_Node000005_Node000008" class="edge">
<title>Node5&#45;&gt;Node8</title>
<g id="a_edge8_Node000005_Node000008"><a xlink:title=" ">
<path fill="none" stroke="#63b8ff" d="M230.97,-65.87C247.01,-57.71 271.6,-45.2 292.15,-34.75"/>
<polygon fill="#63b8ff" stroke="#63b8ff" points="293.93,-37.77 301.25,-30.11 290.75,-31.53 293.93,-37.77"/>
</a>
</g>
</g>
</g>
</svg>
