<?xml version="1.0" encoding="UTF-8" standalone="no"?>
<!DOCTYPE svg PUBLIC "-//W3C//DTD SVG 1.1//EN"
 "http://www.w3.org/Graphics/SVG/1.1/DTD/svg11.dtd">
<!-- Generated by graphviz version 2.43.0 (0)
 -->
<!-- Title: logger_interface.h Pages: 1 -->
<svg width="1086pt" height="247pt"
 viewBox="0.00 0.00 1085.50 247.00" xmlns="http://www.w3.org/2000/svg" xmlns:xlink="http://www.w3.org/1999/xlink">
<g id="graph0" class="graph" transform="scale(1 1) rotate(0) translate(4 243)">
<title>logger_interface.h</title>
<!-- Node1 -->
<g id="Node000001" class="node">
<title>Node1</title>
<g id="a_Node000001"><a xlink:title=" ">
<polygon fill="#999999" stroke="#666666" points="822,-239 717,-239 717,-220 822,-220 822,-239"/>
<text text-anchor="middle" x="769.5" y="-227" font-family="Helvetica,sans-Serif" font-size="10.00">logger_interface.h</text>
</a>
</g>
</g>
<!-- Node2 -->
<g id="Node000002" class="node">
<title>Node2</title>
<g id="a_Node000002"><a xlink:href="base__writer_8h.html" target="_top" xlink:title=" ">
<polygon fill="white" stroke="#666666" points="495.5,-184 413.5,-184 413.5,-165 495.5,-165 495.5,-184"/>
<text text-anchor="middle" x="454.5" y="-172" font-family="Helvetica,sans-Serif" font-size="10.00">base_writer.h</text>
</a>
</g>
</g>
<!-- Node1&#45;&gt;Node2 -->
<g id="edge1_Node000001_Node000002" class="edge">
<title>Node1&#45;&gt;Node2</title>
<g id="a_edge1_Node000001_Node000002"><a xlink:title=" ">
<path fill="none" stroke="#63b8ff" d="M708.76,-218.28C646.18,-207.75 550.31,-191.62 495.93,-182.47"/>
<polygon fill="#63b8ff" stroke="#63b8ff" points="708.45,-221.78 718.89,-219.98 709.61,-214.87 708.45,-221.78"/>
</a>
</g>
</g>
<!-- Node16 -->
<g id="Node000016" class="node">
<title>Node16</title>
<g id="a_Node000016"><a xlink:href="log__analyzer_8h.html" target="_top" xlink:title=" ">
<polygon fill="white" stroke="#666666" points="949,-184 862,-184 862,-165 949,-165 949,-184"/>
<text text-anchor="middle" x="905.5" y="-172" font-family="Helvetica,sans-Serif" font-size="10.00">log_analyzer.h</text>
</a>
</g>
</g>
<!-- Node1&#45;&gt;Node16 -->
<g id="edge16_Node000001_Node000016" class="edge">
<title>Node1&#45;&gt;Node16</title>
<g id="a_edge16_Node000001_Node000016"><a xlink:title=" ">
<path fill="none" stroke="#63b8ff" d="M800.83,-216.29C826.04,-206.47 860.83,-192.91 883.25,-184.17"/>
<polygon fill="#63b8ff" stroke="#63b8ff" points="799.4,-213.09 791.35,-219.98 801.94,-219.61 799.4,-213.09"/>
</a>
</g>
</g>
<!-- Node18 -->
<g id="Node000018" class="node">
<title>Node18</title>
<g id="a_Node000018"><a xlink:href="log__collector_8h.html" target="_top" xlink:title=" ">
<polygon fill="white" stroke="#666666" points="683,-184 596,-184 596,-165 683,-165 683,-184"/>
<text text-anchor="middle" x="639.5" y="-172" font-family="Helvetica,sans-Serif" font-size="10.00">log_collector.h</text>
</a>
</g>
</g>
<!-- Node1&#45;&gt;Node18 -->
<g id="edge18_Node000001_Node000018" class="edge">
<title>Node1&#45;&gt;Node18</title>
<g id="a_edge18_Node000001_Node000018"><a xlink:title=" ">
<path fill="none" stroke="#63b8ff" d="M739.23,-216.16C715.16,-206.35 682.1,-192.87 660.77,-184.17"/>
<polygon fill="#63b8ff" stroke="#63b8ff" points="738.03,-219.45 748.61,-219.98 740.67,-212.97 738.03,-219.45"/>
</a>
</g>
</g>
<!-- Node19 -->
<g id="Node000019" class="node">
<title>Node19</title>
<g id="a_Node000019"><a xlink:href="log__filter_8h.html" target="_top" xlink:title=" ">
<polygon fill="white" stroke="#666666" points="843.5,-184 775.5,-184 775.5,-165 843.5,-165 843.5,-184"/>
<text text-anchor="middle" x="809.5" y="-172" font-family="Helvetica,sans-Serif" font-size="10.00">log_filter.h</text>
</a>
</g>
</g>
<!-- Node1&#45;&gt;Node19 -->
<g id="edge21_Node000001_Node000019" class="edge">
<title>Node1&#45;&gt;Node19</title>
<g id="a_edge21_Node000001_Node000019"><a xlink:title=" ">
<path fill="none" stroke="#63b8ff" d="M782.2,-211.67C789.13,-202.5 797.41,-191.52 803.02,-184.09"/>
<polygon fill="#63b8ff" stroke="#63b8ff" points="779.34,-209.66 776.11,-219.75 784.92,-213.87 779.34,-209.66"/>
</a>
</g>
</g>
<!-- Node22 -->
<g id="Node000022" class="node">
<title>Node22</title>
<g id="a_Node000022"><a xlink:href="logger_8h.html" target="_top" xlink:title=" ">
<polygon fill="white" stroke="#666666" points="757.5,-184 701.5,-184 701.5,-165 757.5,-165 757.5,-184"/>
<text text-anchor="middle" x="729.5" y="-172" font-family="Helvetica,sans-Serif" font-size="10.00">logger.h</text>
</a>
</g>
</g>
<!-- Node1&#45;&gt;Node22 -->
<g id="edge26_Node000001_Node000022" class="edge">
<title>Node1&#45;&gt;Node22</title>
<g id="a_edge26_Node000001_Node000022"><a xlink:title=" ">
<path fill="none" stroke="#63b8ff" d="M756.8,-211.67C749.87,-202.5 741.59,-191.52 735.98,-184.09"/>
<polygon fill="#63b8ff" stroke="#63b8ff" points="754.08,-213.87 762.89,-219.75 759.66,-209.66 754.08,-213.87"/>
</a>
</g>
</g>
<!-- Node23 -->
<g id="Node000023" class="node">
<title>Node23</title>
<g id="a_Node000023"><a xlink:href="structured__logger_8h.html" target="_top" xlink:title=" ">
<polygon fill="white" stroke="#666666" points="1077.5,-184 967.5,-184 967.5,-165 1077.5,-165 1077.5,-184"/>
<text text-anchor="middle" x="1022.5" y="-172" font-family="Helvetica,sans-Serif" font-size="10.00">structured_logger.h</text>
</a>
</g>
</g>
<!-- Node1&#45;&gt;Node23 -->
<g id="edge28_Node000001_Node000023" class="edge">
<title>Node1&#45;&gt;Node23</title>
<g id="a_edge28_Node000001_Node000023"><a xlink:title=" ">
<path fill="none" stroke="#63b8ff" d="M820.2,-217.88C867.62,-207.94 937.55,-193.3 981.53,-184.08"/>
<polygon fill="#63b8ff" stroke="#63b8ff" points="819.22,-214.51 810.15,-219.98 820.65,-221.36 819.22,-214.51"/>
</a>
</g>
</g>
<!-- Node3 -->
<g id="Node000003" class="node">
<title>Node3</title>
<g id="a_Node000003"><a xlink:href="console__writer_8h.html" target="_top" xlink:title=" ">
<polygon fill="white" stroke="#666666" points="113.5,-129 17.5,-129 17.5,-110 113.5,-110 113.5,-129"/>
<text text-anchor="middle" x="65.5" y="-117" font-family="Helvetica,sans-Serif" font-size="10.00">console_writer.h</text>
</a>
</g>
</g>
<!-- Node2&#45;&gt;Node3 -->
<g id="edge2_Node000002_Node000003" class="edge">
<title>Node2&#45;&gt;Node3</title>
<g id="a_edge2_Node000002_Node000003"><a xlink:title=" ">
<path fill="none" stroke="#63b8ff" d="M403.18,-166.53C338.78,-157.78 224.96,-142.31 127.5,-129 122.98,-128.38 118.27,-127.74 113.56,-127.09"/>
<polygon fill="#63b8ff" stroke="#63b8ff" points="403.08,-170.05 413.46,-167.93 404.02,-163.11 403.08,-170.05"/>
</a>
</g>
</g>
<!-- Node5 -->
<g id="Node000005" class="node">
<title>Node5</title>
<g id="a_Node000005"><a xlink:href="encrypted__writer_8h.html" target="_top" xlink:title=" ">
<polygon fill="white" stroke="#666666" points="244,-129 137,-129 137,-110 244,-110 244,-129"/>
<text text-anchor="middle" x="190.5" y="-117" font-family="Helvetica,sans-Serif" font-size="10.00">encrypted_writer.h</text>
</a>
</g>
</g>
<!-- Node2&#45;&gt;Node5 -->
<g id="edge4_Node000002_Node000005" class="edge">
<title>Node2&#45;&gt;Node5</title>
<g id="a_edge4_Node000002_Node000005"><a xlink:title=" ">
<path fill="none" stroke="#63b8ff" d="M403.39,-163.24C353.88,-153.3 279.66,-138.4 233.21,-129.07"/>
<polygon fill="#63b8ff" stroke="#63b8ff" points="402.76,-166.68 413.25,-165.22 404.13,-159.82 402.76,-166.68"/>
</a>
</g>
</g>
<!-- Node7 -->
<g id="Node000007" class="node">
<title>Node7</title>
<g id="a_Node000007"><a xlink:href="file__writer_8h.html" target="_top" xlink:title=" ">
<polygon fill="white" stroke="#666666" points="458.5,-129 384.5,-129 384.5,-110 458.5,-110 458.5,-129"/>
<text text-anchor="middle" x="421.5" y="-117" font-family="Helvetica,sans-Serif" font-size="10.00">file_writer.h</text>
</a>
</g>
</g>
<!-- Node2&#45;&gt;Node7 -->
<g id="edge6_Node000002_Node000007" class="edge">
<title>Node2&#45;&gt;Node7</title>
<g id="a_edge6_Node000002_Node000007"><a xlink:title=" ">
<path fill="none" stroke="#63b8ff" d="M443.67,-156.1C438.03,-147.04 431.38,-136.37 426.85,-129.09"/>
<polygon fill="#63b8ff" stroke="#63b8ff" points="440.79,-158.11 449.05,-164.75 446.74,-154.41 440.79,-158.11"/>
</a>
</g>
</g>
<!-- Node11 -->
<g id="Node000011" class="node">
<title>Node11</title>
<g id="a_Node000011"><a xlink:href="log__collector_8cpp.html" target="_top" xlink:title=" ">
<polygon fill="white" stroke="#666666" points="612.5,-129 514.5,-129 514.5,-110 612.5,-110 612.5,-129"/>
<text text-anchor="middle" x="563.5" y="-117" font-family="Helvetica,sans-Serif" font-size="10.00">log_collector.cpp</text>
</a>
</g>
</g>
<!-- Node2&#45;&gt;Node11 -->
<g id="edge10_Node000002_Node000011" class="edge">
<title>Node2&#45;&gt;Node11</title>
<g id="a_edge10_Node000002_Node000011"><a xlink:title=" ">
<path fill="none" stroke="#63b8ff" d="M481.23,-160.5C501.29,-150.75 528.18,-137.68 545.67,-129.17"/>
<polygon fill="#63b8ff" stroke="#63b8ff" points="479.48,-157.46 472.01,-164.98 482.54,-163.76 479.48,-157.46"/>
</a>
</g>
</g>
<!-- Node12 -->
<g id="Node000012" class="node">
<title>Node12</title>
<g id="a_Node000012"><a xlink:href="log__router_8h.html" target="_top" xlink:title=" ">
<polygon fill="white" stroke="#666666" points="742.5,-129 668.5,-129 668.5,-110 742.5,-110 742.5,-129"/>
<text text-anchor="middle" x="705.5" y="-117" font-family="Helvetica,sans-Serif" font-size="10.00">log_router.h</text>
</a>
</g>
</g>
<!-- Node2&#45;&gt;Node12 -->
<g id="edge11_Node000002_Node000012" class="edge">
<title>Node2&#45;&gt;Node12</title>
<g id="a_edge11_Node000002_Node000012"><a xlink:title=" ">
<path fill="none" stroke="#63b8ff" d="M504.75,-162.89C552.99,-152.7 624.76,-137.55 668.14,-128.39"/>
<polygon fill="#63b8ff" stroke="#63b8ff" points="503.89,-159.49 494.83,-164.98 505.33,-166.34 503.89,-159.49"/>
</a>
</g>
</g>
<!-- Node13 -->
<g id="Node000013" class="node">
<title>Node13</title>
<g id="a_Node000013"><a xlink:href="logger_8cpp.html" target="_top" xlink:title=" ">
<polygon fill="white" stroke="#666666" points="739,-74 672,-74 672,-55 739,-55 739,-74"/>
<text text-anchor="middle" x="705.5" y="-62" font-family="Helvetica,sans-Serif" font-size="10.00">logger.cpp</text>
</a>
</g>
</g>
<!-- Node2&#45;&gt;Node13 -->
<g id="edge13_Node000002_Node000013" class="edge">
<title>Node2&#45;&gt;Node13</title>
<g id="a_edge13_Node000002_Node000013"><a xlink:title=" ">
<path fill="none" stroke="#63b8ff" d="M464.03,-155.94C472.86,-141.38 487.36,-121.29 505.5,-110 532.98,-92.9 622.48,-77.62 671.92,-70.22"/>
<polygon fill="#63b8ff" stroke="#63b8ff" points="460.79,-154.55 458.85,-164.97 466.86,-158.04 460.79,-154.55"/>
</a>
</g>
</g>
<!-- Node14 -->
<g id="Node000014" class="node">
<title>Node14</title>
<g id="a_Node000014"><a xlink:href="network__writer_8h.html" target="_top" xlink:title=" ">
<polygon fill="white" stroke="#666666" points="366.5,-129 268.5,-129 268.5,-110 366.5,-110 366.5,-129"/>
<text text-anchor="middle" x="317.5" y="-117" font-family="Helvetica,sans-Serif" font-size="10.00">network_writer.h</text>
</a>
</g>
</g>
<!-- Node2&#45;&gt;Node14 -->
<g id="edge14_Node000002_Node000014" class="edge">
<title>Node2&#45;&gt;Node14</title>
<g id="a_edge14_Node000002_Node000014"><a xlink:title=" ">
<path fill="none" stroke="#63b8ff" d="M422.94,-161.29C397.55,-151.47 362.5,-137.91 339.91,-129.17"/>
<polygon fill="#63b8ff" stroke="#63b8ff" points="421.9,-164.64 432.49,-164.98 424.42,-158.11 421.9,-164.64"/>
</a>
</g>
</g>
<!-- Node4 -->
<g id="Node000004" class="node">
<title>Node4</title>
<g id="a_Node000004"><a xlink:href="console__writer_8cpp.html" target="_top" xlink:title=" ">
<polygon fill="white" stroke="#666666" points="107,-74 0,-74 0,-55 107,-55 107,-74"/>
<text text-anchor="middle" x="53.5" y="-62" font-family="Helvetica,sans-Serif" font-size="10.00">console_writer.cpp</text>
</a>
</g>
</g>
<!-- Node3&#45;&gt;Node4 -->
<g id="edge3_Node000003_Node000004" class="edge">
<title>Node3&#45;&gt;Node4</title>
<g id="a_edge3_Node000003_Node000004"><a xlink:title=" ">
<path fill="none" stroke="#63b8ff" d="M61.3,-99.95C59.31,-91.15 57.02,-81.06 55.44,-74.09"/>
<polygon fill="#63b8ff" stroke="#63b8ff" points="57.9,-100.77 63.52,-109.75 64.72,-99.22 57.9,-100.77"/>
</a>
</g>
</g>
<!-- Node6 -->
<g id="Node000006" class="node">
<title>Node6</title>
<g id="a_Node000006"><a xlink:href="encrypted__writer_8cpp.html" target="_top" xlink:title=" ">
<polygon fill="white" stroke="#666666" points="244,-74 125,-74 125,-55 244,-55 244,-74"/>
<text text-anchor="middle" x="184.5" y="-62" font-family="Helvetica,sans-Serif" font-size="10.00">encrypted_writer.cpp</text>
</a>
</g>
</g>
<!-- Node5&#45;&gt;Node6 -->
<g id="edge5_Node000005_Node000006" class="edge">
<title>Node5&#45;&gt;Node6</title>
<g id="a_edge5_Node000005_Node000006"><a xlink:title=" ">
<path fill="none" stroke="#63b8ff" d="M188.37,-99.66C187.38,-90.93 186.25,-80.99 185.47,-74.09"/>
<polygon fill="#63b8ff" stroke="#63b8ff" points="184.91,-100.21 189.51,-109.75 191.86,-99.42 184.91,-100.21"/>
</a>
</g>
</g>
<!-- Node8 -->
<g id="Node000008" class="node">
<title>Node8</title>
<g id="a_Node000008"><a xlink:href="file__writer_8cpp.html" target="_top" xlink:title=" ">
<polygon fill="white" stroke="#666666" points="611,-74 526,-74 526,-55 611,-55 611,-74"/>
<text text-anchor="middle" x="568.5" y="-62" font-family="Helvetica,sans-Serif" font-size="10.00">file_writer.cpp</text>
</a>
</g>
</g>
<!-- Node7&#45;&gt;Node8 -->
<g id="edge7_Node000007_Node000008" class="edge">
<title>Node7&#45;&gt;Node8</title>
<g id="a_edge7_Node000007_Node000008"><a xlink:title=" ">
<path fill="none" stroke="#63b8ff" d="M454.64,-106.55C481.94,-96.71 520,-82.98 544.45,-74.17"/>
<polygon fill="#63b8ff" stroke="#63b8ff" points="453.34,-103.3 445.12,-109.98 455.71,-109.89 453.34,-103.3"/>
</a>
</g>
</g>
<!-- Node9 -->
<g id="Node000009" class="node">
<title>Node9</title>
<g id="a_Node000009"><a xlink:href="rotating__file__writer_8h.html" target="_top" xlink:title=" ">
<polygon fill="white" stroke="#666666" points="508,-74 391,-74 391,-55 508,-55 508,-74"/>
<text text-anchor="middle" x="449.5" y="-62" font-family="Helvetica,sans-Serif" font-size="10.00">rotating_file_writer.h</text>
</a>
</g>
</g>
<!-- Node7&#45;&gt;Node9 -->
<g id="edge8_Node000007_Node000009" class="edge">
<title>Node7&#45;&gt;Node9</title>
<g id="a_edge8_Node000007_Node000009"><a xlink:title=" ">
<path fill="none" stroke="#63b8ff" d="M430.84,-100.82C435.59,-91.82 441.16,-81.29 444.96,-74.09"/>
<polygon fill="#63b8ff" stroke="#63b8ff" points="427.7,-99.27 426.12,-109.75 433.89,-102.54 427.7,-99.27"/>
</a>
</g>
</g>
<!-- Node10 -->
<g id="Node000010" class="node">
<title>Node10</title>
<g id="a_Node000010"><a xlink:href="rotating__file__writer_8cpp.html" target="_top" xlink:title=" ">
<polygon fill="white" stroke="#666666" points="513.5,-19 385.5,-19 385.5,0 513.5,0 513.5,-19"/>
<text text-anchor="middle" x="449.5" y="-7" font-family="Helvetica,sans-Serif" font-size="10.00">rotating_file_writer.cpp</text>
</a>
</g>
</g>
<!-- Node9&#45;&gt;Node10 -->
<g id="edge9_Node000009_Node000010" class="edge">
<title>Node9&#45;&gt;Node10</title>
<g id="a_edge9_Node000009_Node000010"><a xlink:title=" ">
<path fill="none" stroke="#63b8ff" d="M449.5,-44.66C449.5,-35.93 449.5,-25.99 449.5,-19.09"/>
<polygon fill="#63b8ff" stroke="#63b8ff" points="446,-44.75 449.5,-54.75 453,-44.75 446,-44.75"/>
</a>
</g>
</g>
<!-- Node12&#45;&gt;Node13 -->
<g id="edge12_Node000012_Node000013" class="edge">
<title>Node12&#45;&gt;Node13</title>
<g id="a_edge12_Node000012_Node000013"><a xlink:title=" ">
<path fill="none" stroke="#63b8ff" d="M705.5,-99.66C705.5,-90.93 705.5,-80.99 705.5,-74.09"/>
<polygon fill="#63b8ff" stroke="#63b8ff" points="702,-99.75 705.5,-109.75 709,-99.75 702,-99.75"/>
</a>
</g>
</g>
<!-- Node15 -->
<g id="Node000015" class="node">
<title>Node15</title>
<g id="a_Node000015"><a xlink:href="network__writer_8cpp.html" target="_top" xlink:title=" ">
<polygon fill="white" stroke="#666666" points="372.5,-74 262.5,-74 262.5,-55 372.5,-55 372.5,-74"/>
<text text-anchor="middle" x="317.5" y="-62" font-family="Helvetica,sans-Serif" font-size="10.00">network_writer.cpp</text>
</a>
</g>
</g>
<!-- Node14&#45;&gt;Node15 -->
<g id="edge15_Node000014_Node000015" class="edge">
<title>Node14&#45;&gt;Node15</title>
<g id="a_edge15_Node000014_Node000015"><a xlink:title=" ">
<path fill="none" stroke="#63b8ff" d="M317.5,-99.66C317.5,-90.93 317.5,-80.99 317.5,-74.09"/>
<polygon fill="#63b8ff" stroke="#63b8ff" points="314,-99.75 317.5,-109.75 321,-99.75 314,-99.75"/>
</a>
</g>
</g>
<!-- Node17 -->
<g id="Node000017" class="node">
<title>Node17</title>
<g id="a_Node000017"><a xlink:href="log__analyzer_8cpp.html" target="_top" xlink:title=" ">
<polygon fill="white" stroke="#666666" points="1040.5,-129 942.5,-129 942.5,-110 1040.5,-110 1040.5,-129"/>
<text text-anchor="middle" x="991.5" y="-117" font-family="Helvetica,sans-Serif" font-size="10.00">log_analyzer.cpp</text>
</a>
</g>
</g>
<!-- Node16&#45;&gt;Node17 -->
<g id="edge17_Node000016_Node000017" class="edge">
<title>Node16&#45;&gt;Node17</title>
<g id="a_edge17_Node000016_Node000017"><a xlink:title=" ">
<path fill="none" stroke="#63b8ff" d="M927.9,-159.7C943.57,-150.04 964.01,-137.44 977.43,-129.17"/>
<polygon fill="#63b8ff" stroke="#63b8ff" points="925.99,-156.76 919.32,-164.98 929.67,-162.72 925.99,-156.76"/>
</a>
</g>
</g>
<!-- Node18&#45;&gt;Node11 -->
<g id="edge19_Node000018_Node000011" class="edge">
<title>Node18&#45;&gt;Node11</title>
<g id="a_edge19_Node000018_Node000011"><a xlink:title=" ">
<path fill="none" stroke="#63b8ff" d="M618.92,-159.15C605.19,-149.57 587.57,-137.29 575.93,-129.17"/>
<polygon fill="#63b8ff" stroke="#63b8ff" points="617.08,-162.14 627.29,-164.98 621.09,-156.39 617.08,-162.14"/>
</a>
</g>
</g>
<!-- Node18&#45;&gt;Node13 -->
<g id="edge20_Node000018_Node000013" class="edge">
<title>Node18&#45;&gt;Node13</title>
<g id="a_edge20_Node000018_Node000013"><a xlink:title=" ">
<path fill="none" stroke="#63b8ff" d="M642.82,-154.86C645.76,-141.62 650.96,-123.83 659.5,-110 668.5,-95.44 683.31,-82.3 693.7,-74.13"/>
<polygon fill="#63b8ff" stroke="#63b8ff" points="639.38,-154.22 640.85,-164.71 646.24,-155.59 639.38,-154.22"/>
</a>
</g>
</g>
<!-- Node19&#45;&gt;Node12 -->
<g id="edge22_Node000019_Node000012" class="edge">
<title>Node19&#45;&gt;Node12</title>
<g id="a_edge22_Node000019_Node000012"><a xlink:title=" ">
<path fill="none" stroke="#63b8ff" d="M783.73,-160.37C764.63,-150.63 739.13,-137.64 722.51,-129.17"/>
<polygon fill="#63b8ff" stroke="#63b8ff" points="782.29,-163.56 792.79,-164.98 785.47,-157.33 782.29,-163.56"/>
</a>
</g>
</g>
<!-- Node19&#45;&gt;Node13 -->
<g id="edge25_Node000019_Node000013" class="edge">
<title>Node19&#45;&gt;Node13</title>
<g id="a_edge25_Node000019_Node000013"><a xlink:title=" ">
<path fill="none" stroke="#63b8ff" d="M800.16,-155.83C792.51,-142.35 780.79,-123.81 767.5,-110 753.35,-95.3 733.79,-82.18 720.45,-74.06"/>
<polygon fill="#63b8ff" stroke="#63b8ff" points="797.31,-157.91 805.18,-164.99 803.44,-154.54 797.31,-157.91"/>
</a>
</g>
</g>
<!-- Node20 -->
<g id="Node000020" class="node">
<title>Node20</title>
<g id="a_Node000020"><a xlink:href="log__sanitizer_8h.html" target="_top" xlink:title=" ">
<polygon fill="white" stroke="#666666" points="924,-129 837,-129 837,-110 924,-110 924,-129"/>
<text text-anchor="middle" x="880.5" y="-117" font-family="Helvetica,sans-Serif" font-size="10.00">log_sanitizer.h</text>
</a>
</g>
</g>
<!-- Node19&#45;&gt;Node20 -->
<g id="edge23_Node000019_Node000020" class="edge">
<title>Node19&#45;&gt;Node20</title>
<g id="a_edge23_Node000019_Node000020"><a xlink:title=" ">
<path fill="none" stroke="#63b8ff" d="M829.09,-158.88C841.87,-149.34 858.11,-137.21 868.89,-129.17"/>
<polygon fill="#63b8ff" stroke="#63b8ff" points="826.83,-156.2 820.91,-164.98 831.01,-161.81 826.83,-156.2"/>
</a>
</g>
</g>
<!-- Node21 -->
<g id="Node000021" class="node">
<title>Node21</title>
<g id="a_Node000021"><a xlink:href="log__sanitizer_8cpp.html" target="_top" xlink:title=" ">
<polygon fill="white" stroke="#666666" points="929.5,-74 831.5,-74 831.5,-55 929.5,-55 929.5,-74"/>
<text text-anchor="middle" x="880.5" y="-62" font-family="Helvetica,sans-Serif" font-size="10.00">log_sanitizer.cpp</text>
</a>
</g>
</g>
<!-- Node20&#45;&gt;Node21 -->
<g id="edge24_Node000020_Node000021" class="edge">
<title>Node20&#45;&gt;Node21</title>
<g id="a_edge24_Node000020_Node000021"><a xlink:title=" ">
<path fill="none" stroke="#63b8ff" d="M880.5,-99.66C880.5,-90.93 880.5,-80.99 880.5,-74.09"/>
<polygon fill="#63b8ff" stroke="#63b8ff" points="877,-99.75 880.5,-109.75 884,-99.75 877,-99.75"/>
</a>
</g>
</g>
<!-- Node22&#45;&gt;Node13 -->
<g id="edge27_Node000022_Node000013" class="edge">
<title>Node22&#45;&gt;Node13</title>
<g id="a_edge27_Node000022_Node000013"><a xlink:title=" ">
<path fill="none" stroke="#63b8ff" d="M742.34,-156.35C750.36,-143.43 758.02,-125.39 751.5,-110 744.99,-94.65 730.32,-82.01 719.28,-74.18"/>
<polygon fill="#63b8ff" stroke="#63b8ff" points="739.37,-154.5 736.64,-164.73 745.16,-158.43 739.37,-154.5"/>
</a>
</g>
</g>
</g>
</svg>
