<?xml version="1.0" encoding="UTF-8" standalone="no"?>
<!DOCTYPE svg PUBLIC "-//W3C//DTD SVG 1.1//EN"
 "http://www.w3.org/Graphics/SVG/1.1/DTD/svg11.dtd">
<!-- Generated by graphviz version 2.43.0 (0)
 -->
<!-- Title: logger.cpp Pages: 1 -->
<svg width="1030pt" height="247pt"
 viewBox="0.00 0.00 1030.31 247.00" xmlns="http://www.w3.org/2000/svg" xmlns:xlink="http://www.w3.org/1999/xlink">
<g id="graph0" class="graph" transform="scale(1 1) rotate(0) translate(4 243)">
<title>logger.cpp</title>
<!-- Node1 -->
<g id="Node000001" class="node">
<title>Node1</title>
<g id="a_Node000001"><a xlink:title=" ">
<polygon fill="#999999" stroke="#666666" points="601.31,-239 534.31,-239 534.31,-220 601.31,-220 601.31,-239"/>
<text text-anchor="middle" x="567.81" y="-227" font-family="Helvetica,sans-Serif" font-size="10.00">logger.cpp</text>
</a>
</g>
</g>
<!-- Node2 -->
<g id="Node000002" class="node">
<title>Node2</title>
<g id="a_Node000002"><a xlink:href="logger_8h.html" target="_top" xlink:title=" ">
<polygon fill="white" stroke="#666666" points="445.81,-184 389.81,-184 389.81,-165 445.81,-165 445.81,-184"/>
<text text-anchor="middle" x="417.81" y="-172" font-family="Helvetica,sans-Serif" font-size="10.00">logger.h</text>
</a>
</g>
</g>
<!-- Node1&#45;&gt;Node2 -->
<g id="edge1_Node000001_Node000002" class="edge">
<title>Node1&#45;&gt;Node2</title>
<g id="a_edge1_Node000001_Node000002"><a xlink:title=" ">
<path fill="none" stroke="#63b8ff" d="M543.71,-219.98C518.93,-211.23 480.11,-197.51 452.12,-187.62"/>
<polygon fill="#63b8ff" stroke="#63b8ff" points="452.94,-184.2 442.35,-184.17 450.61,-190.8 452.94,-184.2"/>
</a>
</g>
</g>
<!-- Node8 -->
<g id="Node000008" class="node">
<title>Node8</title>
<g id="a_Node000008"><a xlink:title=" ">
<polygon fill="#e0e0e0" stroke="#999999" points="228.81,-19 180.81,-19 180.81,0 228.81,0 228.81,-19"/>
<text text-anchor="middle" x="204.81" y="-7" font-family="Helvetica,sans-Serif" font-size="10.00">mutex</text>
</a>
</g>
</g>
<!-- Node1&#45;&gt;Node8 -->
<g id="edge44_Node000001_Node000008" class="edge">
<title>Node1&#45;&gt;Node8</title>
<g id="a_edge44_Node000001_Node000008"><a xlink:title=" ">
<path fill="none" stroke="#63b8ff" d="M534.3,-227.66C426.25,-224.69 91.88,-213.19 53.81,-184 6.58,-147.78 -19.09,-101.71 17.81,-55 36.51,-31.34 122.01,-18.9 170.67,-13.64"/>
<polygon fill="#63b8ff" stroke="#63b8ff" points="171.16,-17.11 180.75,-12.6 170.44,-10.15 171.16,-17.11"/>
</a>
</g>
</g>
<!-- Node11 -->
<g id="Node000011" class="node">
<title>Node11</title>
<g id="a_Node000011"><a xlink:title=" ">
<polygon fill="#e0e0e0" stroke="#999999" points="88.81,-74 38.81,-74 38.81,-55 88.81,-55 88.81,-74"/>
<text text-anchor="middle" x="63.81" y="-62" font-family="Helvetica,sans-Serif" font-size="10.00">chrono</text>
</a>
</g>
</g>
<!-- Node1&#45;&gt;Node11 -->
<g id="edge41_Node000001_Node000011" class="edge">
<title>Node1&#45;&gt;Node11</title>
<g id="a_edge41_Node000001_Node000011"><a xlink:title=" ">
<path fill="none" stroke="#63b8ff" d="M534.14,-228.01C427.28,-226.12 100.9,-217.62 68.81,-184 43.31,-157.28 51.09,-109.83 58.03,-83.81"/>
<polygon fill="#63b8ff" stroke="#63b8ff" points="61.43,-84.68 60.86,-74.1 54.7,-82.72 61.43,-84.68"/>
</a>
</g>
</g>
<!-- Node14 -->
<g id="Node000014" class="node">
<title>Node14</title>
<g id="a_Node000014"><a xlink:href="log__collector_8h.html" target="_top" xlink:title=" ">
<polygon fill="white" stroke="#666666" points="189.31,-184 78.31,-184 78.31,-165 189.31,-165 189.31,-184"/>
<text text-anchor="middle" x="133.81" y="-172" font-family="Helvetica,sans-Serif" font-size="10.00">core/log_collector.h</text>
</a>
</g>
</g>
<!-- Node1&#45;&gt;Node14 -->
<g id="edge17_Node000001_Node000014" class="edge">
<title>Node1&#45;&gt;Node14</title>
<g id="a_edge17_Node000001_Node000014"><a xlink:title=" ">
<path fill="none" stroke="#63b8ff" d="M534.12,-224.39C462.35,-215.62 293.29,-194.98 199.46,-183.52"/>
<polygon fill="#63b8ff" stroke="#63b8ff" points="199.86,-180.04 189.51,-182.3 199.01,-186.99 199.86,-180.04"/>
</a>
</g>
</g>
<!-- Node15 -->
<g id="Node000015" class="node">
<title>Node15</title>
<g id="a_Node000015"><a xlink:href="base__writer_8h.html" target="_top" xlink:title=" ">
<polygon fill="white" stroke="#666666" points="669.31,-129 550.31,-129 550.31,-110 669.31,-110 669.31,-129"/>
<text text-anchor="middle" x="609.81" y="-117" font-family="Helvetica,sans-Serif" font-size="10.00">writers/base_writer.h</text>
</a>
</g>
</g>
<!-- Node1&#45;&gt;Node15 -->
<g id="edge24_Node000001_Node000015" class="edge">
<title>Node1&#45;&gt;Node15</title>
<g id="a_edge24_Node000001_Node000015"><a xlink:title=" ">
<path fill="none" stroke="#63b8ff" d="M569.89,-219.7C572.95,-207.27 579.14,-183.99 586.81,-165 590.52,-155.83 595.47,-146.02 599.83,-137.95"/>
<polygon fill="#63b8ff" stroke="#63b8ff" points="602.93,-139.58 604.73,-129.14 596.81,-136.18 602.93,-139.58"/>
</a>
</g>
</g>
<!-- Node16 -->
<g id="Node000016" class="node">
<title>Node16</title>
<g id="a_Node000016"><a xlink:href="log__filter_8h.html" target="_top" xlink:title=" ">
<polygon fill="white" stroke="#666666" points="965.81,-129 867.81,-129 867.81,-110 965.81,-110 965.81,-129"/>
<text text-anchor="middle" x="916.81" y="-117" font-family="Helvetica,sans-Serif" font-size="10.00">filters/log_filter.h</text>
</a>
</g>
</g>
<!-- Node1&#45;&gt;Node16 -->
<g id="edge28_Node000001_Node000016" class="edge">
<title>Node1&#45;&gt;Node16</title>
<g id="a_edge28_Node000001_Node000016"><a xlink:title=" ">
<path fill="none" stroke="#63b8ff" d="M601.51,-220.22C632.09,-212.3 678.15,-199.3 716.81,-184 734.37,-177.05 737.18,-171.76 754.81,-165 791.84,-150.82 835.22,-139.15 867.77,-131.32"/>
<polygon fill="#63b8ff" stroke="#63b8ff" points="868.58,-134.73 877.5,-129.02 866.96,-127.92 868.58,-134.73"/>
</a>
</g>
</g>
<!-- Node19 -->
<g id="Node000019" class="node">
<title>Node19</title>
<g id="a_Node000019"><a xlink:href="log__router_8h.html" target="_top" xlink:title=" ">
<polygon fill="white" stroke="#666666" points="707.81,-184 595.81,-184 595.81,-165 707.81,-165 707.81,-184"/>
<text text-anchor="middle" x="651.81" y="-172" font-family="Helvetica,sans-Serif" font-size="10.00">routing/log_router.h</text>
</a>
</g>
</g>
<!-- Node1&#45;&gt;Node19 -->
<g id="edge34_Node000001_Node000019" class="edge">
<title>Node1&#45;&gt;Node19</title>
<g id="a_edge34_Node000001_Node000019"><a xlink:title=" ">
<path fill="none" stroke="#63b8ff" d="M581.31,-219.98C594.21,-211.84 613.91,-199.41 629.21,-189.76"/>
<polygon fill="#63b8ff" stroke="#63b8ff" points="631.48,-192.47 638.07,-184.17 627.74,-186.55 631.48,-192.47"/>
</a>
</g>
</g>
<!-- Node21 -->
<g id="Node000021" class="node">
<title>Node21</title>
<g id="a_Node000021"><a xlink:title=" ">
<polygon fill="#e0e0e0" stroke="#999999" points="819.81,-184 763.81,-184 763.81,-165 819.81,-165 819.81,-184"/>
<text text-anchor="middle" x="791.81" y="-172" font-family="Helvetica,sans-Serif" font-size="10.00">sstream</text>
</a>
</g>
</g>
<!-- Node1&#45;&gt;Node21 -->
<g id="edge42_Node000001_Node000021" class="edge">
<title>Node1&#45;&gt;Node21</title>
<g id="a_edge42_Node000001_Node000021"><a xlink:title=" ">
<path fill="none" stroke="#63b8ff" d="M601.35,-220.57C642.25,-210.89 711.21,-194.57 753.97,-184.45"/>
<polygon fill="#63b8ff" stroke="#63b8ff" points="754.8,-187.85 763.72,-182.15 753.19,-181.04 754.8,-187.85"/>
</a>
</g>
</g>
<!-- Node22 -->
<g id="Node000022" class="node">
<title>Node22</title>
<g id="a_Node000022"><a xlink:title=" ">
<polygon fill="#e0e0e0" stroke="#999999" points="893.81,-184 837.81,-184 837.81,-165 893.81,-165 893.81,-184"/>
<text text-anchor="middle" x="865.81" y="-172" font-family="Helvetica,sans-Serif" font-size="10.00">iomanip</text>
</a>
</g>
</g>
<!-- Node1&#45;&gt;Node22 -->
<g id="edge43_Node000001_Node000022" class="edge">
<title>Node1&#45;&gt;Node22</title>
<g id="a_edge43_Node000001_Node000022"><a xlink:title=" ">
<path fill="none" stroke="#63b8ff" d="M601.71,-223.35C649.75,-215.92 740.61,-201.36 827.53,-184.16"/>
<polygon fill="#63b8ff" stroke="#63b8ff" points="828.44,-187.55 837.56,-182.16 827.07,-180.69 828.44,-187.55"/>
</a>
</g>
</g>
<!-- Node3 -->
<g id="Node000003" class="node">
<title>Node3</title>
<g id="a_Node000003"><a xlink:title=" ">
<polygon fill="#e0e0e0" stroke="#999999" points="574.81,-19 516.81,-19 516.81,0 574.81,0 574.81,-19"/>
<text text-anchor="middle" x="545.81" y="-7" font-family="Helvetica,sans-Serif" font-size="10.00">memory</text>
</a>
</g>
</g>
<!-- Node2&#45;&gt;Node3 -->
<g id="edge2_Node000002_Node000003" class="edge">
<title>Node2&#45;&gt;Node3</title>
<g id="a_edge2_Node000002_Node000003"><a xlink:title=" ">
<path fill="none" stroke="#63b8ff" d="M419.39,-164.84C421.93,-152.2 427.72,-128.2 437.81,-110 458.4,-72.86 497.91,-41.93 523.01,-24.85"/>
<polygon fill="#63b8ff" stroke="#63b8ff" points="525.14,-27.64 531.54,-19.2 521.27,-21.81 525.14,-27.64"/>
</a>
</g>
</g>
<!-- Node4 -->
<g id="Node000004" class="node">
<title>Node4</title>
<g id="a_Node000004"><a xlink:title=" ">
<polygon fill="#e0e0e0" stroke="#999999" points="493.31,-129 446.31,-129 446.31,-110 493.31,-110 493.31,-129"/>
<text text-anchor="middle" x="469.81" y="-117" font-family="Helvetica,sans-Serif" font-size="10.00">vector</text>
</a>
</g>
</g>
<!-- Node2&#45;&gt;Node4 -->
<g id="edge3_Node000002_Node000004" class="edge">
<title>Node2&#45;&gt;Node4</title>
<g id="a_edge3_Node000002_Node000004"><a xlink:title=" ">
<path fill="none" stroke="#63b8ff" d="M426.4,-164.75C433.97,-157.03 445.19,-145.6 454.33,-136.28"/>
<polygon fill="#63b8ff" stroke="#63b8ff" points="456.88,-138.68 461.38,-129.09 451.88,-133.78 456.88,-138.68"/>
</a>
</g>
</g>
<!-- Node5 -->
<g id="Node000005" class="node">
<title>Node5</title>
<g id="a_Node000005"><a xlink:title=" ">
<polygon fill="#e0e0e0" stroke="#999999" points="176.81,-74 126.81,-74 126.81,-55 176.81,-55 176.81,-74"/>
<text text-anchor="middle" x="151.81" y="-62" font-family="Helvetica,sans-Serif" font-size="10.00">atomic</text>
</a>
</g>
</g>
<!-- Node2&#45;&gt;Node5 -->
<g id="edge4_Node000002_Node000005" class="edge">
<title>Node2&#45;&gt;Node5</title>
<g id="a_edge4_Node000002_Node000005"><a xlink:title=" ">
<path fill="none" stroke="#63b8ff" d="M389.48,-173.37C346.55,-171.95 263.76,-164.39 204.81,-129 186.03,-117.72 170.81,-97.33 161.57,-82.7"/>
<polygon fill="#63b8ff" stroke="#63b8ff" points="164.54,-80.84 156.4,-74.06 158.54,-84.44 164.54,-80.84"/>
</a>
</g>
</g>
<!-- Node6 -->
<g id="Node000006" class="node">
<title>Node6</title>
<g id="a_Node000006"><a xlink:title=" ">
<polygon fill="#e0e0e0" stroke="#999999" points="157.81,-129 109.81,-129 109.81,-110 157.81,-110 157.81,-129"/>
<text text-anchor="middle" x="133.81" y="-117" font-family="Helvetica,sans-Serif" font-size="10.00">thread</text>
</a>
</g>
</g>
<!-- Node2&#45;&gt;Node6 -->
<g id="edge5_Node000002_Node000006" class="edge">
<title>Node2&#45;&gt;Node6</title>
<g id="a_edge5_Node000002_Node000006"><a xlink:title=" ">
<path fill="none" stroke="#63b8ff" d="M389.7,-168.8C343.93,-161.07 250.51,-144.91 171.81,-129 170.54,-128.74 169.25,-128.48 167.95,-128.21"/>
<polygon fill="#63b8ff" stroke="#63b8ff" points="168.41,-124.73 157.9,-126.05 166.94,-131.57 168.41,-124.73"/>
</a>
</g>
</g>
<!-- Node7 -->
<g id="Node000007" class="node">
<title>Node7</title>
<g id="a_Node000007"><a xlink:href="logger__interface_8h.html" target="_top" xlink:title=" ">
<polygon fill="white" stroke="#666666" points="598.31,-74 493.31,-74 493.31,-55 598.31,-55 598.31,-74"/>
<text text-anchor="middle" x="545.81" y="-62" font-family="Helvetica,sans-Serif" font-size="10.00">logger_interface.h</text>
</a>
</g>
</g>
<!-- Node2&#45;&gt;Node7 -->
<g id="edge6_Node000002_Node000007" class="edge">
<title>Node2&#45;&gt;Node7</title>
<g id="a_edge6_Node000002_Node000007"><a xlink:title=" ">
<path fill="none" stroke="#63b8ff" d="M441.36,-164.88C459.58,-157.39 484.67,-145.2 502.81,-129 517.36,-116.01 529.33,-97.1 536.92,-83.3"/>
<polygon fill="#63b8ff" stroke="#63b8ff" points="540.09,-84.79 541.64,-74.3 533.89,-81.53 540.09,-84.79"/>
</a>
</g>
</g>
<!-- Node10 -->
<g id="Node000010" class="node">
<title>Node10</title>
<g id="a_Node000010"><a xlink:href="logger__metrics_8h.html" target="_top" xlink:title=" ">
<polygon fill="white" stroke="#666666" points="351.81,-129 213.81,-129 213.81,-110 351.81,-110 351.81,-129"/>
<text text-anchor="middle" x="282.81" y="-117" font-family="Helvetica,sans-Serif" font-size="10.00">metrics/logger_metrics.h</text>
</a>
</g>
</g>
<!-- Node2&#45;&gt;Node10 -->
<g id="edge10_Node000002_Node000010" class="edge">
<title>Node2&#45;&gt;Node10</title>
<g id="a_edge10_Node000002_Node000010"><a xlink:title=" ">
<path fill="none" stroke="#63b8ff" d="M396.12,-164.98C374.01,-156.3 339.49,-142.75 314.36,-132.88"/>
<polygon fill="#63b8ff" stroke="#63b8ff" points="315.48,-129.57 304.9,-129.17 312.92,-136.08 315.48,-129.57"/>
</a>
</g>
</g>
<!-- Node7&#45;&gt;Node3 -->
<g id="edge7_Node000007_Node000003" class="edge">
<title>Node7&#45;&gt;Node3</title>
<g id="a_edge7_Node000007_Node000003"><a xlink:title=" ">
<path fill="none" stroke="#63b8ff" d="M545.81,-54.75C545.81,-47.8 545.81,-37.85 545.81,-29.13"/>
<polygon fill="#63b8ff" stroke="#63b8ff" points="549.31,-29.09 545.81,-19.09 542.31,-29.09 549.31,-29.09"/>
</a>
</g>
</g>
<!-- Node7&#45;&gt;Node8 -->
<g id="edge8_Node000007_Node000008" class="edge">
<title>Node7&#45;&gt;Node8</title>
<g id="a_edge8_Node000007_Node000008"><a xlink:title=" ">
<path fill="none" stroke="#63b8ff" d="M493.28,-55.33C422.6,-44.35 298.89,-25.12 239.1,-15.83"/>
<polygon fill="#63b8ff" stroke="#63b8ff" points="239.46,-12.34 229.04,-14.27 238.39,-19.26 239.46,-12.34"/>
</a>
</g>
</g>
<!-- Node9 -->
<g id="Node000009" class="node">
<title>Node9</title>
<g id="a_Node000009"><a xlink:title=" ">
<polygon fill="#e0e0e0" stroke="#999999" points="736.81,-19 692.81,-19 692.81,0 736.81,0 736.81,-19"/>
<text text-anchor="middle" x="714.81" y="-7" font-family="Helvetica,sans-Serif" font-size="10.00">string</text>
</a>
</g>
</g>
<!-- Node7&#45;&gt;Node9 -->
<g id="edge9_Node000007_Node000009" class="edge">
<title>Node7&#45;&gt;Node9</title>
<g id="a_edge9_Node000007_Node000009"><a xlink:title=" ">
<path fill="none" stroke="#63b8ff" d="M572.96,-54.98C602.94,-45.58 651.14,-30.47 682.89,-20.51"/>
<polygon fill="#63b8ff" stroke="#63b8ff" points="684.09,-23.8 692.58,-17.47 681.99,-17.12 684.09,-23.8"/>
</a>
</g>
</g>
<!-- Node10&#45;&gt;Node5 -->
<g id="edge11_Node000010_Node000005" class="edge">
<title>Node10&#45;&gt;Node5</title>
<g id="a_edge11_Node000010_Node000005"><a xlink:title=" ">
<path fill="none" stroke="#63b8ff" d="M261.76,-109.98C240.4,-101.34 207.11,-87.87 182.75,-78.02"/>
<polygon fill="#63b8ff" stroke="#63b8ff" points="183.82,-74.68 173.24,-74.17 181.2,-81.17 183.82,-74.68"/>
</a>
</g>
</g>
<!-- Node10&#45;&gt;Node8 -->
<g id="edge16_Node000010_Node000008" class="edge">
<title>Node10&#45;&gt;Node8</title>
<g id="a_edge16_Node000010_Node000008"><a xlink:title=" ">
<path fill="none" stroke="#63b8ff" d="M266.23,-109.9C252.92,-102.19 234.73,-89.69 223.81,-74 214.47,-60.57 209.64,-42.47 207.2,-29.03"/>
<polygon fill="#63b8ff" stroke="#63b8ff" points="210.64,-28.39 205.66,-19.04 203.72,-29.46 210.64,-28.39"/>
</a>
</g>
</g>
<!-- Node10&#45;&gt;Node9 -->
<g id="edge14_Node000010_Node000009" class="edge">
<title>Node10&#45;&gt;Node9</title>
<g id="a_edge14_Node000010_Node000009"><a xlink:title=" ">
<path fill="none" stroke="#63b8ff" d="M286.48,-109.72C292.92,-95.51 307.73,-67.77 329.81,-55 360.11,-37.48 595.49,-19.04 682.57,-12.75"/>
<polygon fill="#63b8ff" stroke="#63b8ff" points="682.94,-16.24 692.66,-12.03 682.44,-9.25 682.94,-16.24"/>
</a>
</g>
</g>
<!-- Node10&#45;&gt;Node11 -->
<g id="edge12_Node000010_Node000011" class="edge">
<title>Node10&#45;&gt;Node11</title>
<g id="a_edge12_Node000010_Node000011"><a xlink:title=" ">
<path fill="none" stroke="#63b8ff" d="M247.62,-109.98C206.72,-100.08 139.61,-83.84 98.79,-73.97"/>
<polygon fill="#63b8ff" stroke="#63b8ff" points="99.55,-70.55 89.01,-71.6 97.91,-77.35 99.55,-70.55"/>
</a>
</g>
</g>
<!-- Node12 -->
<g id="Node000012" class="node">
<title>Node12</title>
<g id="a_Node000012"><a xlink:title=" ">
<polygon fill="#e0e0e0" stroke="#999999" points="282.81,-74 232.81,-74 232.81,-55 282.81,-55 282.81,-74"/>
<text text-anchor="middle" x="257.81" y="-62" font-family="Helvetica,sans-Serif" font-size="10.00">cstdint</text>
</a>
</g>
</g>
<!-- Node10&#45;&gt;Node12 -->
<g id="edge13_Node000010_Node000012" class="edge">
<title>Node10&#45;&gt;Node12</title>
<g id="a_edge13_Node000010_Node000012"><a xlink:title=" ">
<path fill="none" stroke="#63b8ff" d="M278.68,-109.75C275.3,-102.57 270.39,-92.18 266.19,-83.27"/>
<polygon fill="#63b8ff" stroke="#63b8ff" points="269.29,-81.64 261.86,-74.09 262.96,-84.63 269.29,-81.64"/>
</a>
</g>
</g>
<!-- Node13 -->
<g id="Node000013" class="node">
<title>Node13</title>
<g id="a_Node000013"><a xlink:title=" ">
<polygon fill="#e0e0e0" stroke="#999999" points="432.31,-74 339.31,-74 339.31,-55 432.31,-55 432.31,-74"/>
<text text-anchor="middle" x="385.81" y="-62" font-family="Helvetica,sans-Serif" font-size="10.00">unordered_map</text>
</a>
</g>
</g>
<!-- Node10&#45;&gt;Node13 -->
<g id="edge15_Node000010_Node000013" class="edge">
<title>Node10&#45;&gt;Node13</title>
<g id="a_edge15_Node000010_Node000013"><a xlink:title=" ">
<path fill="none" stroke="#63b8ff" d="M299.36,-109.98C315.71,-101.57 340.94,-88.59 359.94,-78.81"/>
<polygon fill="#63b8ff" stroke="#63b8ff" points="361.67,-81.86 368.96,-74.17 358.47,-75.63 361.67,-81.86"/>
</a>
</g>
</g>
<!-- Node14&#45;&gt;Node3 -->
<g id="edge19_Node000014_Node000003" class="edge">
<title>Node14&#45;&gt;Node3</title>
<g id="a_edge19_Node000014_Node000003"><a xlink:title=" ">
<path fill="none" stroke="#63b8ff" d="M116.03,-164.91C77.52,-145.22 -7.29,-95.44 29.81,-55 61.86,-20.06 391.36,-12.49 506.42,-10.9"/>
<polygon fill="#63b8ff" stroke="#63b8ff" points="506.6,-14.4 516.55,-10.77 506.51,-7.4 506.6,-14.4"/>
</a>
</g>
</g>
<!-- Node14&#45;&gt;Node4 -->
<g id="edge20_Node000014_Node000004" class="edge">
<title>Node14&#45;&gt;Node4</title>
<g id="a_edge20_Node000014_Node000004"><a xlink:title=" ">
<path fill="none" stroke="#63b8ff" d="M187.8,-164.98C257.82,-153.94 377.9,-135 436.15,-125.81"/>
<polygon fill="#63b8ff" stroke="#63b8ff" points="436.95,-129.23 446.28,-124.21 435.86,-122.31 436.95,-129.23"/>
</a>
</g>
</g>
<!-- Node14&#45;&gt;Node5 -->
<g id="edge22_Node000014_Node000005" class="edge">
<title>Node14&#45;&gt;Node5</title>
<g id="a_edge22_Node000014_Node000005"><a xlink:title=" ">
<path fill="none" stroke="#63b8ff" d="M123.51,-164.6C110.75,-152.45 91.76,-129.91 100.81,-110 106.43,-97.63 117.38,-87.36 127.7,-79.81"/>
<polygon fill="#63b8ff" stroke="#63b8ff" points="129.77,-82.63 136.08,-74.12 125.84,-76.84 129.77,-82.63"/>
</a>
</g>
</g>
<!-- Node14&#45;&gt;Node6 -->
<g id="edge21_Node000014_Node000006" class="edge">
<title>Node14&#45;&gt;Node6</title>
<g id="a_edge21_Node000014_Node000006"><a xlink:title=" ">
<path fill="none" stroke="#63b8ff" d="M133.81,-164.75C133.81,-157.8 133.81,-147.85 133.81,-139.13"/>
<polygon fill="#63b8ff" stroke="#63b8ff" points="137.31,-139.09 133.81,-129.09 130.31,-139.09 137.31,-139.09"/>
</a>
</g>
</g>
<!-- Node14&#45;&gt;Node7 -->
<g id="edge18_Node000014_Node000007" class="edge">
<title>Node14&#45;&gt;Node7</title>
<g id="a_edge18_Node000014_Node000007"><a xlink:title=" ">
<path fill="none" stroke="#63b8ff" d="M188.41,-164.96C234.69,-157.2 302.63,-144.61 360.81,-129 415.82,-114.24 478.16,-91.56 514.62,-77.68"/>
<polygon fill="#63b8ff" stroke="#63b8ff" points="516.1,-80.86 524.18,-74.01 513.59,-74.32 516.1,-80.86"/>
</a>
</g>
</g>
<!-- Node14&#45;&gt;Node11 -->
<g id="edge23_Node000014_Node000011" class="edge">
<title>Node14&#45;&gt;Node11</title>
<g id="a_edge23_Node000014_Node000011"><a xlink:title=" ">
<path fill="none" stroke="#63b8ff" d="M124.99,-164.87C116.55,-156.3 103.8,-142.52 94.81,-129 85.16,-114.49 76.68,-96.54 71.04,-83.42"/>
<polygon fill="#63b8ff" stroke="#63b8ff" points="74.23,-81.99 67.15,-74.11 67.77,-84.68 74.23,-81.99"/>
</a>
</g>
</g>
<!-- Node15&#45;&gt;Node7 -->
<g id="edge27_Node000015_Node000007" class="edge">
<title>Node15&#45;&gt;Node7</title>
<g id="a_edge27_Node000015_Node000007"><a xlink:title=" ">
<path fill="none" stroke="#63b8ff" d="M599.53,-109.98C589.97,-102.07 575.53,-90.11 564.03,-80.58"/>
<polygon fill="#63b8ff" stroke="#63b8ff" points="566.22,-77.85 556.28,-74.17 561.75,-83.24 566.22,-77.85"/>
</a>
</g>
</g>
<!-- Node15&#45;&gt;Node9 -->
<g id="edge25_Node000015_Node000009" class="edge">
<title>Node15&#45;&gt;Node9</title>
<g id="a_edge25_Node000015_Node000009"><a xlink:title=" ">
<path fill="none" stroke="#63b8ff" d="M618.4,-109.66C636.1,-91.46 676.85,-49.55 699.29,-26.47"/>
<polygon fill="#63b8ff" stroke="#63b8ff" points="701.93,-28.77 706.39,-19.16 696.91,-23.89 701.93,-28.77"/>
</a>
</g>
</g>
<!-- Node15&#45;&gt;Node11 -->
<g id="edge26_Node000015_Node000011" class="edge">
<title>Node15&#45;&gt;Node11</title>
<g id="a_edge26_Node000015_Node000011"><a xlink:title=" ">
<path fill="none" stroke="#63b8ff" d="M550.01,-113.59C437.88,-104.3 199.95,-84.17 117.81,-74 111.78,-73.25 105.38,-72.35 99.18,-71.41"/>
<polygon fill="#63b8ff" stroke="#63b8ff" points="99.46,-67.91 89.04,-69.82 98.38,-74.83 99.46,-67.91"/>
</a>
</g>
</g>
<!-- Node16&#45;&gt;Node3 -->
<g id="edge32_Node000016_Node000003" class="edge">
<title>Node16&#45;&gt;Node3</title>
<g id="a_edge32_Node000016_Node000003"><a xlink:title=" ">
<path fill="none" stroke="#63b8ff" d="M899.69,-109.9C872.27,-96.44 816.53,-70.36 766.81,-55 704.5,-35.75 629.66,-22.71 585.02,-15.95"/>
<polygon fill="#63b8ff" stroke="#63b8ff" points="585.29,-12.45 574.88,-14.44 584.26,-19.37 585.29,-12.45"/>
</a>
</g>
</g>
<!-- Node16&#45;&gt;Node7 -->
<g id="edge29_Node000016_Node000007" class="edge">
<title>Node16&#45;&gt;Node7</title>
<g id="a_edge29_Node000016_Node000007"><a xlink:title=" ">
<path fill="none" stroke="#63b8ff" d="M867.55,-111.46C800.81,-101.93 681.64,-84.9 608.57,-74.47"/>
<polygon fill="#63b8ff" stroke="#63b8ff" points="608.97,-70.99 598.58,-73.04 607.98,-77.92 608.97,-70.99"/>
</a>
</g>
</g>
<!-- Node16&#45;&gt;Node9 -->
<g id="edge30_Node000016_Node000009" class="edge">
<title>Node16&#45;&gt;Node9</title>
<g id="a_edge30_Node000016_Node000009"><a xlink:title=" ">
<path fill="none" stroke="#63b8ff" d="M908.95,-109.94C896.23,-96.54 869.81,-70.53 842.81,-55 812.38,-37.5 773.95,-25.28 747.17,-18.14"/>
<polygon fill="#63b8ff" stroke="#63b8ff" points="747.73,-14.67 737.17,-15.56 745.98,-21.44 747.73,-14.67"/>
</a>
</g>
</g>
<!-- Node17 -->
<g id="Node000017" class="node">
<title>Node17</title>
<g id="a_Node000017"><a xlink:title=" ">
<polygon fill="#e0e0e0" stroke="#999999" points="938.81,-74 894.81,-74 894.81,-55 938.81,-55 938.81,-74"/>
<text text-anchor="middle" x="916.81" y="-62" font-family="Helvetica,sans-Serif" font-size="10.00">regex</text>
</a>
</g>
</g>
<!-- Node16&#45;&gt;Node17 -->
<g id="edge31_Node000016_Node000017" class="edge">
<title>Node16&#45;&gt;Node17</title>
<g id="a_edge31_Node000016_Node000017"><a xlink:title=" ">
<path fill="none" stroke="#63b8ff" d="M916.81,-109.75C916.81,-102.8 916.81,-92.85 916.81,-84.13"/>
<polygon fill="#63b8ff" stroke="#63b8ff" points="920.31,-84.09 916.81,-74.09 913.31,-84.09 920.31,-84.09"/>
</a>
</g>
</g>
<!-- Node18 -->
<g id="Node000018" class="node">
<title>Node18</title>
<g id="a_Node000018"><a xlink:title=" ">
<polygon fill="#e0e0e0" stroke="#999999" points="1022.31,-74 957.31,-74 957.31,-55 1022.31,-55 1022.31,-74"/>
<text text-anchor="middle" x="989.81" y="-62" font-family="Helvetica,sans-Serif" font-size="10.00">functional</text>
</a>
</g>
</g>
<!-- Node16&#45;&gt;Node18 -->
<g id="edge33_Node000016_Node000018" class="edge">
<title>Node16&#45;&gt;Node18</title>
<g id="a_edge33_Node000016_Node000018"><a xlink:title=" ">
<path fill="none" stroke="#63b8ff" d="M928.54,-109.98C939.54,-102 956.23,-89.88 969.41,-80.31"/>
<polygon fill="#63b8ff" stroke="#63b8ff" points="971.83,-82.88 977.87,-74.17 967.72,-77.21 971.83,-82.88"/>
</a>
</g>
</g>
<!-- Node19&#45;&gt;Node3 -->
<g id="edge38_Node000019_Node000003" class="edge">
<title>Node19&#45;&gt;Node3</title>
<g id="a_edge38_Node000019_Node000003"><a xlink:title=" ">
<path fill="none" stroke="#63b8ff" d="M702.28,-164.93C740.35,-157.32 787.96,-144.93 799.81,-129 804.85,-122.22 804.57,-116.98 799.81,-110 751.32,-38.92 643.71,-18.61 585.33,-12.82"/>
<polygon fill="#63b8ff" stroke="#63b8ff" points="585.3,-9.3 575.03,-11.89 584.68,-16.27 585.3,-9.3"/>
</a>
</g>
</g>
<!-- Node19&#45;&gt;Node4 -->
<g id="edge37_Node000019_Node000004" class="edge">
<title>Node19&#45;&gt;Node4</title>
<g id="a_edge37_Node000019_Node000004"><a xlink:title=" ">
<path fill="none" stroke="#63b8ff" d="M622.57,-164.98C590.06,-155.52 537.64,-140.25 503.45,-130.3"/>
<polygon fill="#63b8ff" stroke="#63b8ff" points="504.05,-126.83 493.47,-127.39 502.09,-133.55 504.05,-126.83"/>
</a>
</g>
</g>
<!-- Node19&#45;&gt;Node13 -->
<g id="edge39_Node000019_Node000013" class="edge">
<title>Node19&#45;&gt;Node13</title>
<g id="a_edge39_Node000019_Node000013"><a xlink:title=" ">
<path fill="none" stroke="#63b8ff" d="M708.19,-165.46C754.7,-156.54 809.09,-139.39 782.81,-110 777.19,-103.72 551,-81.3 442.6,-70.89"/>
<polygon fill="#63b8ff" stroke="#63b8ff" points="442.78,-67.39 432.49,-69.92 442.11,-74.36 442.78,-67.39"/>
</a>
</g>
</g>
<!-- Node19&#45;&gt;Node15 -->
<g id="edge36_Node000019_Node000015" class="edge">
<title>Node19&#45;&gt;Node15</title>
<g id="a_edge36_Node000019_Node000015"><a xlink:title=" ">
<path fill="none" stroke="#63b8ff" d="M644.88,-164.75C638.94,-157.26 630.24,-146.28 622.99,-137.13"/>
<polygon fill="#63b8ff" stroke="#63b8ff" points="625.57,-134.75 616.62,-129.09 620.09,-139.1 625.57,-134.75"/>
</a>
</g>
</g>
<!-- Node19&#45;&gt;Node16 -->
<g id="edge35_Node000019_Node000016" class="edge">
<title>Node19&#45;&gt;Node16</title>
<g id="a_edge35_Node000019_Node000016"><a xlink:title=" ">
<path fill="none" stroke="#63b8ff" d="M694.39,-164.98C740.52,-155.76 814.17,-141.03 863.97,-131.07"/>
<polygon fill="#63b8ff" stroke="#63b8ff" points="864.78,-134.48 873.9,-129.08 863.41,-127.61 864.78,-134.48"/>
</a>
</g>
</g>
<!-- Node20 -->
<g id="Node000020" class="node">
<title>Node20</title>
<g id="a_Node000020"><a xlink:title=" ">
<polygon fill="#e0e0e0" stroke="#999999" points="773.81,-129 687.81,-129 687.81,-110 773.81,-110 773.81,-129"/>
<text text-anchor="middle" x="730.81" y="-117" font-family="Helvetica,sans-Serif" font-size="10.00">unordered_set</text>
</a>
</g>
</g>
<!-- Node19&#45;&gt;Node20 -->
<g id="edge40_Node000019_Node000020" class="edge">
<title>Node19&#45;&gt;Node20</title>
<g id="a_edge40_Node000019_Node000020"><a xlink:title=" ">
<path fill="none" stroke="#63b8ff" d="M664.5,-164.98C676.64,-156.84 695.17,-144.41 709.56,-134.76"/>
<polygon fill="#63b8ff" stroke="#63b8ff" points="711.53,-137.65 717.89,-129.17 707.63,-131.84 711.53,-137.65"/>
</a>
</g>
</g>
</g>
</svg>
