<?xml version="1.0" encoding="UTF-8" standalone="no"?>
<!DOCTYPE svg PUBLIC "-//W3C//DTD SVG 1.1//EN"
 "http://www.w3.org/Graphics/SVG/1.1/DTD/svg11.dtd">
<!-- Generated by graphviz version 2.43.0 (0)
 -->
<!-- Title: logger.cpp Pages: 1 -->
<svg width="1510pt" height="324pt"
 viewBox="0.00 0.00 1510.28 324.00" xmlns="http://www.w3.org/2000/svg" xmlns:xlink="http://www.w3.org/1999/xlink">
<g id="graph0" class="graph" transform="scale(1 1) rotate(0) translate(4 320)">
<title>logger.cpp</title>
<!-- Node1 -->
<g id="Node000001" class="node">
<title>Node1</title>
<g id="a_Node000001"><a xlink:title=" ">
<polygon fill="#999999" stroke="#666666" points="773.9,-316 706.9,-316 706.9,-297 773.9,-297 773.9,-316"/>
<text text-anchor="middle" x="740.4" y="-304" font-family="Helvetica,sans-Serif" font-size="10.00">logger.cpp</text>
</a>
</g>
</g>
<!-- Node2 -->
<g id="Node000002" class="node">
<title>Node2</title>
<g id="a_Node000002"><a xlink:href="logger_8h.html" target="_top" xlink:title=" ">
<polygon fill="white" stroke="#666666" points="412.4,-206 356.4,-206 356.4,-187 412.4,-187 412.4,-206"/>
<text text-anchor="middle" x="384.4" y="-194" font-family="Helvetica,sans-Serif" font-size="10.00">logger.h</text>
</a>
</g>
</g>
<!-- Node1&#45;&gt;Node2 -->
<g id="edge1_Node000001_Node000002" class="edge">
<title>Node1&#45;&gt;Node2</title>
<g id="a_edge1_Node000001_Node000002"><a xlink:title=" ">
<path fill="none" stroke="#63b8ff" d="M712.17,-296.94C648.68,-277.68 494.61,-230.94 422.64,-209.1"/>
<polygon fill="#63b8ff" stroke="#63b8ff" points="423.22,-205.62 412.63,-206.07 421.19,-212.32 423.22,-205.62"/>
</a>
</g>
</g>
<!-- Node8 -->
<g id="Node000008" class="node">
<title>Node8</title>
<g id="a_Node000008"><a xlink:title=" ">
<polygon fill="#e0e0e0" stroke="#999999" points="175.4,-19 127.4,-19 127.4,0 175.4,0 175.4,-19"/>
<text text-anchor="middle" x="151.4" y="-7" font-family="Helvetica,sans-Serif" font-size="10.00">mutex</text>
</a>
</g>
</g>
<!-- Node1&#45;&gt;Node8 -->
<g id="edge61_Node000001_Node000008" class="edge">
<title>Node1&#45;&gt;Node8</title>
<g id="a_edge61_Node000001_Node000008"><a xlink:title=" ">
<path fill="none" stroke="#63b8ff" d="M706.73,-304.18C562.16,-298.09 1.4,-269.79 1.4,-197.5 1.4,-197.5 1.4,-197.5 1.4,-135 1.4,-98.46 -4.2,-82.03 20.4,-55 45.27,-27.67 87.56,-17.11 117.36,-13.04"/>
<polygon fill="#63b8ff" stroke="#63b8ff" points="117.81,-16.52 127.32,-11.86 116.98,-9.57 117.81,-16.52"/>
</a>
</g>
</g>
<!-- Node14 -->
<g id="Node000014" class="node">
<title>Node14</title>
<g id="a_Node000014"><a xlink:title=" ">
<polygon fill="#e0e0e0" stroke="#999999" points="1226.4,-79.5 1176.4,-79.5 1176.4,-60.5 1226.4,-60.5 1226.4,-79.5"/>
<text text-anchor="middle" x="1201.4" y="-67.5" font-family="Helvetica,sans-Serif" font-size="10.00">chrono</text>
</a>
</g>
</g>
<!-- Node1&#45;&gt;Node14 -->
<g id="edge58_Node000001_Node000014" class="edge">
<title>Node1&#45;&gt;Node14</title>
<g id="a_edge58_Node000001_Node000014"><a xlink:title=" ">
<path fill="none" stroke="#63b8ff" d="M773.94,-304.14C876.11,-299.21 1180.09,-278.6 1239.4,-206 1268.04,-170.93 1235.01,-115.57 1214.8,-87.9"/>
<polygon fill="#63b8ff" stroke="#63b8ff" points="1217.38,-85.51 1208.55,-79.65 1211.8,-89.74 1217.38,-85.51"/>
</a>
</g>
</g>
<!-- Node16 -->
<g id="Node000016" class="node">
<title>Node16</title>
<g id="a_Node000016"><a xlink:title=" ">
<polygon fill="#e0e0e0" stroke="#999999" points="122.9,-79.5 29.9,-79.5 29.9,-60.5 122.9,-60.5 122.9,-79.5"/>
<text text-anchor="middle" x="76.4" y="-67.5" font-family="Helvetica,sans-Serif" font-size="10.00">unordered_map</text>
</a>
</g>
</g>
<!-- Node1&#45;&gt;Node16 -->
<g id="edge62_Node000001_Node000016" class="edge">
<title>Node1&#45;&gt;Node16</title>
<g id="a_edge62_Node000001_Node000016"><a xlink:title=" ">
<path fill="none" stroke="#63b8ff" d="M706.62,-301.63C624.42,-291.63 408.03,-261.71 235.4,-206 179.57,-187.98 157.37,-191.99 115.4,-151 97.82,-133.84 87.03,-107.13 81.38,-89.36"/>
<polygon fill="#63b8ff" stroke="#63b8ff" points="84.69,-88.22 78.51,-79.61 77.98,-90.2 84.69,-88.22"/>
</a>
</g>
</g>
<!-- Node17 -->
<g id="Node000017" class="node">
<title>Node17</title>
<g id="a_Node000017"><a xlink:href="log__collector_8h.html" target="_top" xlink:title=" ">
<polygon fill="white" stroke="#666666" points="598.9,-206 487.9,-206 487.9,-187 598.9,-187 598.9,-206"/>
<text text-anchor="middle" x="543.4" y="-194" font-family="Helvetica,sans-Serif" font-size="10.00">core/log_collector.h</text>
</a>
</g>
</g>
<!-- Node1&#45;&gt;Node17 -->
<g id="edge21_Node000001_Node000017" class="edge">
<title>Node1&#45;&gt;Node17</title>
<g id="a_edge21_Node000001_Node000017"><a xlink:title=" ">
<path fill="none" stroke="#63b8ff" d="M715.46,-296.91C693.3,-288.86 660.35,-275.87 633.4,-261 607.45,-246.68 579.93,-226.42 562.26,-212.67"/>
<polygon fill="#63b8ff" stroke="#63b8ff" points="563.99,-209.58 553.97,-206.13 559.66,-215.08 563.99,-209.58"/>
</a>
</g>
</g>
<!-- Node18 -->
<g id="Node000018" class="node">
<title>Node18</title>
<g id="a_Node000018"><a xlink:href="base__writer_8h.html" target="_top" xlink:title=" ">
<polygon fill="white" stroke="#666666" points="1229.9,-206 1110.9,-206 1110.9,-187 1229.9,-187 1229.9,-206"/>
<text text-anchor="middle" x="1170.4" y="-194" font-family="Helvetica,sans-Serif" font-size="10.00">writers/base_writer.h</text>
</a>
</g>
</g>
<!-- Node1&#45;&gt;Node18 -->
<g id="edge28_Node000001_Node000018" class="edge">
<title>Node1&#45;&gt;Node18</title>
<g id="a_edge28_Node000001_Node000018"><a xlink:title=" ">
<path fill="none" stroke="#63b8ff" d="M774.14,-297.03C851.37,-277.63 1040.91,-230.02 1126.81,-208.45"/>
<polygon fill="#63b8ff" stroke="#63b8ff" points="1127.67,-211.84 1136.52,-206.01 1125.97,-205.05 1127.67,-211.84"/>
</a>
</g>
</g>
<!-- Node21 -->
<g id="Node000021" class="node">
<title>Node21</title>
<g id="a_Node000021"><a xlink:href="log__filter_8h.html" target="_top" xlink:title=" ">
<polygon fill="white" stroke="#666666" points="862.4,-206 764.4,-206 764.4,-187 862.4,-187 862.4,-206"/>
<text text-anchor="middle" x="813.4" y="-194" font-family="Helvetica,sans-Serif" font-size="10.00">filters/log_filter.h</text>
</a>
</g>
</g>
<!-- Node1&#45;&gt;Node21 -->
<g id="edge42_Node000001_Node000021" class="edge">
<title>Node1&#45;&gt;Node21</title>
<g id="a_edge42_Node000001_Node000021"><a xlink:title=" ">
<path fill="none" stroke="#63b8ff" d="M746.37,-296.66C758.46,-278.77 786.02,-238 801.78,-214.69"/>
<polygon fill="#63b8ff" stroke="#63b8ff" points="804.85,-216.4 807.55,-206.16 799.05,-212.48 804.85,-216.4"/>
</a>
</g>
</g>
<!-- Node25 -->
<g id="Node000025" class="node">
<title>Node25</title>
<g id="a_Node000025"><a xlink:href="log__router_8h.html" target="_top" xlink:title=" ">
<polygon fill="white" stroke="#666666" points="754.4,-261 642.4,-261 642.4,-242 754.4,-242 754.4,-261"/>
<text text-anchor="middle" x="698.4" y="-249" font-family="Helvetica,sans-Serif" font-size="10.00">routing/log_router.h</text>
</a>
</g>
</g>
<!-- Node1&#45;&gt;Node25 -->
<g id="edge51_Node000001_Node000025" class="edge">
<title>Node1&#45;&gt;Node25</title>
<g id="a_edge51_Node000001_Node000025"><a xlink:title=" ">
<path fill="none" stroke="#63b8ff" d="M733.46,-296.75C727.53,-289.26 718.83,-278.28 711.57,-269.13"/>
<polygon fill="#63b8ff" stroke="#63b8ff" points="714.16,-266.75 705.21,-261.09 708.67,-271.1 714.16,-266.75"/>
</a>
</g>
</g>
<!-- Node27 -->
<g id="Node000027" class="node">
<title>Node27</title>
<g id="a_Node000027"><a xlink:title=" ">
<polygon fill="#e0e0e0" stroke="#999999" points="1383.4,-261 1327.4,-261 1327.4,-242 1383.4,-242 1383.4,-261"/>
<text text-anchor="middle" x="1355.4" y="-249" font-family="Helvetica,sans-Serif" font-size="10.00">sstream</text>
</a>
</g>
</g>
<!-- Node1&#45;&gt;Node27 -->
<g id="edge59_Node000001_Node000027" class="edge">
<title>Node1&#45;&gt;Node27</title>
<g id="a_edge59_Node000001_Node000027"><a xlink:title=" ">
<path fill="none" stroke="#63b8ff" d="M774.14,-304.32C862.85,-300.91 1109.83,-289.4 1313.4,-261 1314.5,-260.85 1315.62,-260.68 1316.75,-260.51"/>
<polygon fill="#63b8ff" stroke="#63b8ff" points="1317.75,-263.88 1327.01,-258.73 1316.56,-256.99 1317.75,-263.88"/>
</a>
</g>
</g>
<!-- Node28 -->
<g id="Node000028" class="node">
<title>Node28</title>
<g id="a_Node000028"><a xlink:title=" ">
<polygon fill="#e0e0e0" stroke="#999999" points="1457.4,-261 1401.4,-261 1401.4,-242 1457.4,-242 1457.4,-261"/>
<text text-anchor="middle" x="1429.4" y="-249" font-family="Helvetica,sans-Serif" font-size="10.00">iomanip</text>
</a>
</g>
</g>
<!-- Node1&#45;&gt;Node28 -->
<g id="edge60_Node000001_Node000028" class="edge">
<title>Node1&#45;&gt;Node28</title>
<g id="a_edge60_Node000001_Node000028"><a xlink:title=" ">
<path fill="none" stroke="#63b8ff" d="M774.19,-305.07C869.69,-303.45 1149.75,-295.98 1391.19,-260.93"/>
<polygon fill="#63b8ff" stroke="#63b8ff" points="1391.82,-264.38 1401.2,-259.46 1390.8,-257.45 1391.82,-264.38"/>
</a>
</g>
</g>
<!-- Node3 -->
<g id="Node000003" class="node">
<title>Node3</title>
<g id="a_Node000003"><a xlink:title=" ">
<polygon fill="#e0e0e0" stroke="#999999" points="652.4,-19 594.4,-19 594.4,0 652.4,0 652.4,-19"/>
<text text-anchor="middle" x="623.4" y="-7" font-family="Helvetica,sans-Serif" font-size="10.00">memory</text>
</a>
</g>
</g>
<!-- Node2&#45;&gt;Node3 -->
<g id="edge2_Node000002_Node000003" class="edge">
<title>Node2&#45;&gt;Node3</title>
<g id="a_edge2_Node000002_Node000003"><a xlink:title=" ">
<path fill="none" stroke="#63b8ff" d="M356.15,-194.08C302.33,-190.73 188.33,-180.26 164.4,-151 155.96,-140.68 160.53,-133.76 164.4,-121 174.61,-87.26 178.25,-73.27 208.4,-55 270.99,-17.07 493.2,-11.29 584.15,-10.54"/>
<polygon fill="#63b8ff" stroke="#63b8ff" points="584.34,-14.04 594.32,-10.47 584.3,-7.04 584.34,-14.04"/>
</a>
</g>
</g>
<!-- Node4 -->
<g id="Node000004" class="node">
<title>Node4</title>
<g id="a_Node000004"><a xlink:title=" ">
<polygon fill="#e0e0e0" stroke="#999999" points="452.9,-145.5 405.9,-145.5 405.9,-126.5 452.9,-126.5 452.9,-145.5"/>
<text text-anchor="middle" x="429.4" y="-133.5" font-family="Helvetica,sans-Serif" font-size="10.00">vector</text>
</a>
</g>
</g>
<!-- Node2&#45;&gt;Node4 -->
<g id="edge3_Node000002_Node000004" class="edge">
<title>Node2&#45;&gt;Node4</title>
<g id="a_edge3_Node000002_Node000004"><a xlink:title=" ">
<path fill="none" stroke="#63b8ff" d="M391.04,-186.87C397.69,-178.23 408.09,-164.7 416.39,-153.92"/>
<polygon fill="#63b8ff" stroke="#63b8ff" points="419.41,-155.73 422.73,-145.67 413.86,-151.46 419.41,-155.73"/>
</a>
</g>
</g>
<!-- Node5 -->
<g id="Node000005" class="node">
<title>Node5</title>
<g id="a_Node000005"><a xlink:title=" ">
<polygon fill="#e0e0e0" stroke="#999999" points="373.4,-79.5 323.4,-79.5 323.4,-60.5 373.4,-60.5 373.4,-79.5"/>
<text text-anchor="middle" x="348.4" y="-67.5" font-family="Helvetica,sans-Serif" font-size="10.00">atomic</text>
</a>
</g>
</g>
<!-- Node2&#45;&gt;Node5 -->
<g id="edge4_Node000002_Node000005" class="edge">
<title>Node2&#45;&gt;Node5</title>
<g id="a_edge4_Node000002_Node000005"><a xlink:title=" ">
<path fill="none" stroke="#63b8ff" d="M379.53,-186.91C374.76,-178.14 367.61,-164 363.4,-151 356.75,-130.46 352.69,-105.95 350.51,-89.52"/>
<polygon fill="#63b8ff" stroke="#63b8ff" points="353.98,-89.08 349.28,-79.59 347.03,-89.94 353.98,-89.08"/>
</a>
</g>
</g>
<!-- Node6 -->
<g id="Node000006" class="node">
<title>Node6</title>
<g id="a_Node000006"><a xlink:title=" ">
<polygon fill="#e0e0e0" stroke="#999999" points="519.4,-145.5 471.4,-145.5 471.4,-126.5 519.4,-126.5 519.4,-145.5"/>
<text text-anchor="middle" x="495.4" y="-133.5" font-family="Helvetica,sans-Serif" font-size="10.00">thread</text>
</a>
</g>
</g>
<!-- Node2&#45;&gt;Node6 -->
<g id="edge5_Node000002_Node000006" class="edge">
<title>Node2&#45;&gt;Node6</title>
<g id="a_edge5_Node000002_Node000006"><a xlink:title=" ">
<path fill="none" stroke="#63b8ff" d="M400.78,-186.87C418.98,-177.28 448.59,-161.67 469.85,-150.47"/>
<polygon fill="#63b8ff" stroke="#63b8ff" points="471.74,-153.43 478.95,-145.67 468.47,-147.23 471.74,-153.43"/>
</a>
</g>
</g>
<!-- Node7 -->
<g id="Node000007" class="node">
<title>Node7</title>
<g id="a_Node000007"><a xlink:href="logger__interface_8h.html" target="_top" xlink:title=" ">
<polygon fill="white" stroke="#666666" points="794.9,-79.5 689.9,-79.5 689.9,-60.5 794.9,-60.5 794.9,-79.5"/>
<text text-anchor="middle" x="742.4" y="-67.5" font-family="Helvetica,sans-Serif" font-size="10.00">logger_interface.h</text>
</a>
</g>
</g>
<!-- Node2&#45;&gt;Node7 -->
<g id="edge6_Node000002_Node000007" class="edge">
<title>Node2&#45;&gt;Node7</title>
<g id="a_edge6_Node000002_Node000007"><a xlink:title=" ">
<path fill="none" stroke="#63b8ff" d="M383.01,-186.91C381.03,-171.34 379.41,-138.47 397.4,-121 436.44,-83.07 590.95,-73.76 679.38,-71.57"/>
<polygon fill="#63b8ff" stroke="#63b8ff" points="679.65,-75.07 689.56,-71.35 679.49,-68.07 679.65,-75.07"/>
</a>
</g>
</g>
<!-- Node10 -->
<g id="Node000010" class="node">
<title>Node10</title>
<g id="a_Node000010"><a xlink:href="error__codes_8h.html" target="_top" xlink:title=" ">
<polygon fill="white" stroke="#666666" points="1431.9,-79.5 1348.9,-79.5 1348.9,-60.5 1431.9,-60.5 1431.9,-79.5"/>
<text text-anchor="middle" x="1390.4" y="-67.5" font-family="Helvetica,sans-Serif" font-size="10.00">error_codes.h</text>
</a>
</g>
</g>
<!-- Node2&#45;&gt;Node10 -->
<g id="edge10_Node000002_Node000010" class="edge">
<title>Node2&#45;&gt;Node10</title>
<g id="a_edge10_Node000002_Node000010"><a xlink:title=" ">
<path fill="none" stroke="#63b8ff" d="M412.64,-192.58C431.52,-190.73 456.92,-188.42 479.4,-187 533.94,-183.56 1424.47,-190.34 1462.4,-151 1484.4,-128.18 1445.63,-100.47 1416.96,-84.38"/>
<polygon fill="#63b8ff" stroke="#63b8ff" points="1418.56,-81.26 1408.1,-79.58 1415.23,-87.42 1418.56,-81.26"/>
</a>
</g>
</g>
<!-- Node13 -->
<g id="Node000013" class="node">
<title>Node13</title>
<g id="a_Node000013"><a xlink:href="logger__metrics_8h.html" target="_top" xlink:title=" ">
<polygon fill="white" stroke="#666666" points="311.4,-145.5 173.4,-145.5 173.4,-126.5 311.4,-126.5 311.4,-145.5"/>
<text text-anchor="middle" x="242.4" y="-133.5" font-family="Helvetica,sans-Serif" font-size="10.00">metrics/logger_metrics.h</text>
</a>
</g>
</g>
<!-- Node2&#45;&gt;Node13 -->
<g id="edge14_Node000002_Node000013" class="edge">
<title>Node2&#45;&gt;Node13</title>
<g id="a_edge14_Node000002_Node000013"><a xlink:title=" ">
<path fill="none" stroke="#63b8ff" d="M363.75,-186.99C339.77,-177.12 300.01,-160.73 272.57,-149.43"/>
<polygon fill="#63b8ff" stroke="#63b8ff" points="273.65,-146.09 263.07,-145.52 270.98,-152.56 273.65,-146.09"/>
</a>
</g>
</g>
<!-- Node7&#45;&gt;Node3 -->
<g id="edge7_Node000007_Node000003" class="edge">
<title>Node7&#45;&gt;Node3</title>
<g id="a_edge7_Node000007_Node000003"><a xlink:title=" ">
<path fill="none" stroke="#63b8ff" d="M725.09,-60.49C705.35,-50.79 672.84,-34.81 649.9,-23.53"/>
<polygon fill="#63b8ff" stroke="#63b8ff" points="651.24,-20.29 640.72,-19.02 648.15,-26.57 651.24,-20.29"/>
</a>
</g>
</g>
<!-- Node7&#45;&gt;Node8 -->
<g id="edge8_Node000007_Node000008" class="edge">
<title>Node7&#45;&gt;Node8</title>
<g id="a_edge8_Node000007_Node000008"><a xlink:title=" ">
<path fill="none" stroke="#63b8ff" d="M689.69,-63.78C570.81,-52.02 284.51,-23.68 185.65,-13.89"/>
<polygon fill="#63b8ff" stroke="#63b8ff" points="185.9,-10.4 175.61,-12.9 185.21,-17.36 185.9,-10.4"/>
</a>
</g>
</g>
<!-- Node9 -->
<g id="Node000009" class="node">
<title>Node9</title>
<g id="a_Node000009"><a xlink:title=" ">
<polygon fill="#e0e0e0" stroke="#999999" points="1028.4,-19 984.4,-19 984.4,0 1028.4,0 1028.4,-19"/>
<text text-anchor="middle" x="1006.4" y="-7" font-family="Helvetica,sans-Serif" font-size="10.00">string</text>
</a>
</g>
</g>
<!-- Node7&#45;&gt;Node9 -->
<g id="edge9_Node000007_Node000009" class="edge">
<title>Node7&#45;&gt;Node9</title>
<g id="a_edge9_Node000007_Node000009"><a xlink:title=" ">
<path fill="none" stroke="#63b8ff" d="M780.1,-60.45C788.12,-58.65 796.54,-56.75 804.4,-55 864.4,-41.62 934.49,-26.23 974.34,-17.51"/>
<polygon fill="#63b8ff" stroke="#63b8ff" points="975.25,-20.89 984.27,-15.33 973.75,-14.05 975.25,-20.89"/>
</a>
</g>
</g>
<!-- Node10&#45;&gt;Node9 -->
<g id="edge11_Node000010_Node000009" class="edge">
<title>Node10&#45;&gt;Node9</title>
<g id="a_edge11_Node000010_Node000009"><a xlink:title=" ">
<path fill="none" stroke="#63b8ff" d="M1352.45,-60.47C1343.29,-58.55 1333.51,-56.6 1324.4,-55 1220.47,-36.73 1096.36,-21.15 1038.75,-14.27"/>
<polygon fill="#63b8ff" stroke="#63b8ff" points="1038.8,-10.75 1028.46,-13.05 1037.98,-17.7 1038.8,-10.75"/>
</a>
</g>
</g>
<!-- Node11 -->
<g id="Node000011" class="node">
<title>Node11</title>
<g id="a_Node000011"><a xlink:title=" ">
<polygon fill="#e0e0e0" stroke="#999999" points="1257.4,-19 1201.4,-19 1201.4,0 1257.4,0 1257.4,-19"/>
<text text-anchor="middle" x="1229.4" y="-7" font-family="Helvetica,sans-Serif" font-size="10.00">optional</text>
</a>
</g>
</g>
<!-- Node10&#45;&gt;Node11 -->
<g id="edge12_Node000010_Node000011" class="edge">
<title>Node10&#45;&gt;Node11</title>
<g id="a_edge12_Node000010_Node000011"><a xlink:title=" ">
<path fill="none" stroke="#63b8ff" d="M1366.99,-60.49C1339.44,-50.49 1293.53,-33.8 1262.39,-22.49"/>
<polygon fill="#63b8ff" stroke="#63b8ff" points="1263.43,-19.14 1252.84,-19.02 1261.04,-25.72 1263.43,-19.14"/>
</a>
</g>
</g>
<!-- Node12 -->
<g id="Node000012" class="node">
<title>Node12</title>
<g id="a_Node000012"><a xlink:title=" ">
<polygon fill="#e0e0e0" stroke="#999999" points="1415.9,-19 1364.9,-19 1364.9,0 1415.9,0 1415.9,-19"/>
<text text-anchor="middle" x="1390.4" y="-7" font-family="Helvetica,sans-Serif" font-size="10.00">variant</text>
</a>
</g>
</g>
<!-- Node10&#45;&gt;Node12 -->
<g id="edge13_Node000010_Node000012" class="edge">
<title>Node10&#45;&gt;Node12</title>
<g id="a_edge13_Node000010_Node000012"><a xlink:title=" ">
<path fill="none" stroke="#63b8ff" d="M1390.4,-60.37C1390.4,-52.25 1390.4,-39.81 1390.4,-29.39"/>
<polygon fill="#63b8ff" stroke="#63b8ff" points="1393.9,-29.17 1390.4,-19.17 1386.9,-29.17 1393.9,-29.17"/>
</a>
</g>
</g>
<!-- Node13&#45;&gt;Node5 -->
<g id="edge15_Node000013_Node000005" class="edge">
<title>Node13&#45;&gt;Node5</title>
<g id="a_edge15_Node000013_Node000005"><a xlink:title=" ">
<path fill="none" stroke="#63b8ff" d="M256.69,-126.37C274.32,-115.73 304.49,-97.51 325.39,-84.89"/>
<polygon fill="#63b8ff" stroke="#63b8ff" points="327.24,-87.86 333.99,-79.7 323.62,-81.87 327.24,-87.86"/>
</a>
</g>
</g>
<!-- Node13&#45;&gt;Node8 -->
<g id="edge20_Node000013_Node000008" class="edge">
<title>Node13&#45;&gt;Node8</title>
<g id="a_edge20_Node000013_Node000008"><a xlink:title=" ">
<path fill="none" stroke="#63b8ff" d="M236.14,-126.44C221.21,-106.01 183.25,-54.07 163.6,-27.19"/>
<polygon fill="#63b8ff" stroke="#63b8ff" points="166.42,-25.13 157.7,-19.12 160.77,-29.26 166.42,-25.13"/>
</a>
</g>
</g>
<!-- Node13&#45;&gt;Node9 -->
<g id="edge18_Node000013_Node000009" class="edge">
<title>Node13&#45;&gt;Node9</title>
<g id="a_edge18_Node000013_Node000009"><a xlink:title=" ">
<path fill="none" stroke="#63b8ff" d="M247.13,-126.24C257,-108.99 281.61,-70.88 314.4,-55 374.2,-26.03 845.6,-13.93 974.13,-11.15"/>
<polygon fill="#63b8ff" stroke="#63b8ff" points="974.21,-14.65 984.14,-10.94 974.06,-7.65 974.21,-14.65"/>
</a>
</g>
</g>
<!-- Node13&#45;&gt;Node14 -->
<g id="edge16_Node000013_Node000014" class="edge">
<title>Node13&#45;&gt;Node14</title>
<g id="a_edge16_Node000013_Node000014"><a xlink:title=" ">
<path fill="none" stroke="#63b8ff" d="M311.42,-128.35C338.25,-125.87 369.25,-123.15 397.4,-121 694.6,-98.34 1054.19,-78.76 1166.31,-72.83"/>
<polygon fill="#63b8ff" stroke="#63b8ff" points="1166.57,-76.32 1176.37,-72.3 1166.2,-69.33 1166.57,-76.32"/>
</a>
</g>
</g>
<!-- Node15 -->
<g id="Node000015" class="node">
<title>Node15</title>
<g id="a_Node000015"><a xlink:title=" ">
<polygon fill="#e0e0e0" stroke="#999999" points="267.4,-79.5 217.4,-79.5 217.4,-60.5 267.4,-60.5 267.4,-79.5"/>
<text text-anchor="middle" x="242.4" y="-67.5" font-family="Helvetica,sans-Serif" font-size="10.00">cstdint</text>
</a>
</g>
</g>
<!-- Node13&#45;&gt;Node15 -->
<g id="edge17_Node000013_Node000015" class="edge">
<title>Node13&#45;&gt;Node15</title>
<g id="a_edge17_Node000013_Node000015"><a xlink:title=" ">
<path fill="none" stroke="#63b8ff" d="M242.4,-126.37C242.4,-117.16 242.4,-102.29 242.4,-90.27"/>
<polygon fill="#63b8ff" stroke="#63b8ff" points="245.9,-89.91 242.4,-79.91 238.9,-89.91 245.9,-89.91"/>
</a>
</g>
</g>
<!-- Node13&#45;&gt;Node16 -->
<g id="edge19_Node000013_Node000016" class="edge">
<title>Node13&#45;&gt;Node16</title>
<g id="a_edge19_Node000013_Node000016"><a xlink:title=" ">
<path fill="none" stroke="#63b8ff" d="M220.01,-126.37C191.22,-115.27 141.03,-95.92 108.26,-83.28"/>
<polygon fill="#63b8ff" stroke="#63b8ff" points="109.29,-79.93 98.7,-79.6 106.77,-86.46 109.29,-79.93"/>
</a>
</g>
</g>
<!-- Node17&#45;&gt;Node3 -->
<g id="edge23_Node000017_Node000003" class="edge">
<title>Node17&#45;&gt;Node3</title>
<g id="a_edge23_Node000017_Node000003"><a xlink:title=" ">
<path fill="none" stroke="#63b8ff" d="M547.26,-186.58C559.64,-157.94 598.54,-67.98 615.44,-28.91"/>
<polygon fill="#63b8ff" stroke="#63b8ff" points="618.82,-29.9 619.58,-19.33 612.4,-27.12 618.82,-29.9"/>
</a>
</g>
</g>
<!-- Node17&#45;&gt;Node4 -->
<g id="edge24_Node000017_Node000004" class="edge">
<title>Node17&#45;&gt;Node4</title>
<g id="a_edge24_Node000017_Node000004"><a xlink:title=" ">
<path fill="none" stroke="#63b8ff" d="M526.58,-186.87C507.8,-177.23 477.19,-161.53 455.35,-150.31"/>
<polygon fill="#63b8ff" stroke="#63b8ff" points="456.78,-147.12 446.29,-145.67 453.59,-153.35 456.78,-147.12"/>
</a>
</g>
</g>
<!-- Node17&#45;&gt;Node5 -->
<g id="edge26_Node000017_Node000005" class="edge">
<title>Node17&#45;&gt;Node5</title>
<g id="a_edge26_Node000017_Node000005"><a xlink:title=" ">
<path fill="none" stroke="#63b8ff" d="M544.33,-186.86C545.46,-171.5 545.47,-139.35 528.4,-121 491.01,-80.8 424.37,-71.9 383.51,-70.49"/>
<polygon fill="#63b8ff" stroke="#63b8ff" points="383.53,-66.99 373.46,-70.27 383.38,-73.99 383.53,-66.99"/>
</a>
</g>
</g>
<!-- Node17&#45;&gt;Node6 -->
<g id="edge25_Node000017_Node000006" class="edge">
<title>Node17&#45;&gt;Node6</title>
<g id="a_edge25_Node000017_Node000006"><a xlink:title=" ">
<path fill="none" stroke="#63b8ff" d="M536.32,-186.87C529.16,-178.14 517.91,-164.43 509.01,-153.59"/>
<polygon fill="#63b8ff" stroke="#63b8ff" points="511.56,-151.18 502.51,-145.67 506.15,-155.62 511.56,-151.18"/>
</a>
</g>
</g>
<!-- Node17&#45;&gt;Node7 -->
<g id="edge22_Node000017_Node000007" class="edge">
<title>Node17&#45;&gt;Node7</title>
<g id="a_edge22_Node000017_Node000007"><a xlink:title=" ">
<path fill="none" stroke="#63b8ff" d="M557.08,-186.94C590.87,-165.8 678.59,-110.92 720.05,-84.98"/>
<polygon fill="#63b8ff" stroke="#63b8ff" points="722,-87.89 728.62,-79.62 718.29,-81.95 722,-87.89"/>
</a>
</g>
</g>
<!-- Node17&#45;&gt;Node14 -->
<g id="edge27_Node000017_Node000014" class="edge">
<title>Node17&#45;&gt;Node14</title>
<g id="a_edge27_Node000017_Node000014"><a xlink:title=" ">
<path fill="none" stroke="#63b8ff" d="M571.96,-186.98C623.68,-171.82 736.47,-139.97 833.4,-121 954.48,-97.31 1100.15,-81.1 1166.01,-74.42"/>
<polygon fill="#63b8ff" stroke="#63b8ff" points="1166.64,-77.88 1176.25,-73.4 1165.95,-70.91 1166.64,-77.88"/>
</a>
</g>
</g>
<!-- Node18&#45;&gt;Node7 -->
<g id="edge31_Node000018_Node000007" class="edge">
<title>Node18&#45;&gt;Node7</title>
<g id="a_edge31_Node000018_Node000007"><a xlink:title=" ">
<path fill="none" stroke="#63b8ff" d="M1141.49,-186.87C1117.6,-179.15 1083.2,-166.64 1055.4,-151 1036.34,-140.28 1036.44,-129.76 1016.4,-121 928.82,-82.73 898.16,-103.53 804.4,-85 799.32,-84 794.02,-82.89 788.75,-81.75"/>
<polygon fill="#63b8ff" stroke="#63b8ff" points="789.24,-78.28 778.72,-79.55 787.73,-85.11 789.24,-78.28"/>
</a>
</g>
</g>
<!-- Node18&#45;&gt;Node9 -->
<g id="edge29_Node000018_Node000009" class="edge">
<title>Node18&#45;&gt;Node9</title>
<g id="a_edge29_Node000018_Node000009"><a xlink:title=" ">
<path fill="none" stroke="#63b8ff" d="M1184,-186.96C1195.47,-179.05 1211.42,-166.21 1220.4,-151 1242.36,-113.82 1262.87,-88.32 1235.4,-55 1210.83,-25.2 1095.78,-15.1 1038.69,-11.89"/>
<polygon fill="#63b8ff" stroke="#63b8ff" points="1038.59,-8.38 1028.42,-11.35 1038.22,-15.37 1038.59,-8.38"/>
</a>
</g>
</g>
<!-- Node18&#45;&gt;Node10 -->
<g id="edge32_Node000018_Node000010" class="edge">
<title>Node18&#45;&gt;Node10</title>
<g id="a_edge32_Node000018_Node000010"><a xlink:title=" ">
<path fill="none" stroke="#63b8ff" d="M1230.06,-196.28C1314.31,-195.95 1461.66,-189.68 1495.4,-151 1520.54,-122.18 1468.3,-96.95 1428.87,-82.86"/>
<polygon fill="#63b8ff" stroke="#63b8ff" points="1429.77,-79.47 1419.18,-79.53 1427.49,-86.09 1429.77,-79.47"/>
</a>
</g>
</g>
<!-- Node18&#45;&gt;Node14 -->
<g id="edge30_Node000018_Node000014" class="edge">
<title>Node18&#45;&gt;Node14</title>
<g id="a_edge30_Node000018_Node000014"><a xlink:title=" ">
<path fill="none" stroke="#63b8ff" d="M1180,-186.69C1188.27,-178.41 1199.6,-165.18 1204.4,-151 1211.2,-130.89 1208.82,-106.3 1205.79,-89.73"/>
<polygon fill="#63b8ff" stroke="#63b8ff" points="1209.16,-88.77 1203.69,-79.7 1202.31,-90.2 1209.16,-88.77"/>
</a>
</g>
</g>
<!-- Node19 -->
<g id="Node000019" class="node">
<title>Node19</title>
<g id="a_Node000019"><a xlink:href="log__writer__interface_8h.html" target="_top" xlink:title=" ">
<polygon fill="white" stroke="#666666" points="1453.4,-151 1327.4,-151 1327.4,-121 1453.4,-121 1453.4,-151"/>
<text text-anchor="start" x="1335.4" y="-139" font-family="Helvetica,sans-Serif" font-size="10.00">../interfaces/log_writer</text>
<text text-anchor="middle" x="1390.4" y="-128" font-family="Helvetica,sans-Serif" font-size="10.00">_interface.h</text>
</a>
</g>
</g>
<!-- Node18&#45;&gt;Node19 -->
<g id="edge33_Node000018_Node000019" class="edge">
<title>Node18&#45;&gt;Node19</title>
<g id="a_edge33_Node000018_Node000019"><a xlink:title=" ">
<path fill="none" stroke="#63b8ff" d="M1202.39,-186.99C1235.09,-178.3 1286.73,-164.57 1327.63,-153.69"/>
<polygon fill="#63b8ff" stroke="#63b8ff" points="1328.74,-157.02 1337.51,-151.06 1326.94,-150.25 1328.74,-157.02"/>
</a>
</g>
</g>
<!-- Node20 -->
<g id="Node000020" class="node">
<title>Node20</title>
<g id="a_Node000020"><a xlink:href="log__entry_8h.html" target="_top" xlink:title=" ">
<polygon fill="white" stroke="#666666" points="1194.9,-145.5 1063.9,-145.5 1063.9,-126.5 1194.9,-126.5 1194.9,-145.5"/>
<text text-anchor="middle" x="1129.4" y="-133.5" font-family="Helvetica,sans-Serif" font-size="10.00">../interfaces/log_entry.h</text>
</a>
</g>
</g>
<!-- Node18&#45;&gt;Node20 -->
<g id="edge37_Node000018_Node000020" class="edge">
<title>Node18&#45;&gt;Node20</title>
<g id="a_edge37_Node000018_Node000020"><a xlink:title=" ">
<path fill="none" stroke="#63b8ff" d="M1164.35,-186.87C1158.29,-178.23 1148.81,-164.7 1141.25,-153.92"/>
<polygon fill="#63b8ff" stroke="#63b8ff" points="1144.08,-151.85 1135.47,-145.67 1138.35,-155.87 1144.08,-151.85"/>
</a>
</g>
</g>
<!-- Node19&#45;&gt;Node9 -->
<g id="edge34_Node000019_Node000009" class="edge">
<title>Node19&#45;&gt;Node9</title>
<g id="a_edge34_Node000019_Node000009"><a xlink:title=" ">
<path fill="none" stroke="#63b8ff" d="M1374.99,-120.85C1354.09,-102.52 1314.83,-71.02 1275.4,-55 1194.54,-22.15 1090.61,-13.54 1038.79,-11.29"/>
<polygon fill="#63b8ff" stroke="#63b8ff" points="1038.68,-7.78 1028.55,-10.9 1038.41,-14.77 1038.68,-7.78"/>
</a>
</g>
</g>
<!-- Node19&#45;&gt;Node10 -->
<g id="edge36_Node000019_Node000010" class="edge">
<title>Node19&#45;&gt;Node10</title>
<g id="a_edge36_Node000019_Node000010"><a xlink:title=" ">
<path fill="none" stroke="#63b8ff" d="M1390.4,-120.8C1390.4,-111.7 1390.4,-99.79 1390.4,-89.9"/>
<polygon fill="#63b8ff" stroke="#63b8ff" points="1393.9,-89.84 1390.4,-79.84 1386.9,-89.84 1393.9,-89.84"/>
</a>
</g>
</g>
<!-- Node19&#45;&gt;Node14 -->
<g id="edge35_Node000019_Node000014" class="edge">
<title>Node19&#45;&gt;Node14</title>
<g id="a_edge35_Node000019_Node000014"><a xlink:title=" ">
<path fill="none" stroke="#63b8ff" d="M1348.92,-120.95C1315.19,-109.53 1268.14,-93.6 1236.31,-82.82"/>
<polygon fill="#63b8ff" stroke="#63b8ff" points="1237.15,-79.41 1226.55,-79.52 1234.9,-86.04 1237.15,-79.41"/>
</a>
</g>
</g>
<!-- Node20&#45;&gt;Node7 -->
<g id="edge41_Node000020_Node000007" class="edge">
<title>Node20&#45;&gt;Node7</title>
<g id="a_edge41_Node000020_Node000007"><a xlink:title=" ">
<path fill="none" stroke="#63b8ff" d="M1082.06,-126.49C1071.33,-124.63 1059.98,-122.7 1049.4,-121 940.74,-103.51 912.6,-105.14 804.4,-85 799.04,-84 793.45,-82.87 787.9,-81.69"/>
<polygon fill="#63b8ff" stroke="#63b8ff" points="788.56,-78.25 778.04,-79.54 787.06,-85.09 788.56,-78.25"/>
</a>
</g>
</g>
<!-- Node20&#45;&gt;Node9 -->
<g id="edge38_Node000020_Node000009" class="edge">
<title>Node20&#45;&gt;Node9</title>
<g id="a_edge38_Node000020_Node000009"><a xlink:title=" ">
<path fill="none" stroke="#63b8ff" d="M1120.94,-126.44C1100.58,-105.83 1048.55,-53.17 1022.2,-26.5"/>
<polygon fill="#63b8ff" stroke="#63b8ff" points="1024.43,-23.77 1014.91,-19.12 1019.45,-28.69 1024.43,-23.77"/>
</a>
</g>
</g>
<!-- Node20&#45;&gt;Node11 -->
<g id="edge40_Node000020_Node000011" class="edge">
<title>Node20&#45;&gt;Node11</title>
<g id="a_edge40_Node000020_Node000011"><a xlink:title=" ">
<path fill="none" stroke="#63b8ff" d="M1131.94,-126.26C1136.81,-110.63 1148.67,-77.42 1167.4,-55 1177.62,-42.76 1191.93,-32.2 1204.23,-24.44"/>
<polygon fill="#63b8ff" stroke="#63b8ff" points="1206.38,-27.23 1213.14,-19.07 1202.77,-21.23 1206.38,-27.23"/>
</a>
</g>
</g>
<!-- Node20&#45;&gt;Node14 -->
<g id="edge39_Node000020_Node000014" class="edge">
<title>Node20&#45;&gt;Node14</title>
<g id="a_edge39_Node000020_Node000014"><a xlink:title=" ">
<path fill="none" stroke="#63b8ff" d="M1139.11,-126.37C1150.53,-116.21 1169.72,-99.16 1183.79,-86.65"/>
<polygon fill="#63b8ff" stroke="#63b8ff" points="1186.23,-89.16 1191.38,-79.91 1181.58,-83.93 1186.23,-89.16"/>
</a>
</g>
</g>
<!-- Node21&#45;&gt;Node3 -->
<g id="edge49_Node000021_Node000003" class="edge">
<title>Node21&#45;&gt;Node3</title>
<g id="a_edge49_Node000021_Node000003"><a xlink:title=" ">
<path fill="none" stroke="#63b8ff" d="M801.38,-186.81C777.27,-169.1 721.87,-126.93 681.4,-85 663.7,-66.66 646.1,-43.12 635.02,-27.46"/>
<polygon fill="#63b8ff" stroke="#63b8ff" points="637.88,-25.44 629.29,-19.24 632.14,-29.45 637.88,-25.44"/>
</a>
</g>
</g>
<!-- Node21&#45;&gt;Node7 -->
<g id="edge43_Node000021_Node000007" class="edge">
<title>Node21&#45;&gt;Node7</title>
<g id="a_edge43_Node000021_Node000007"><a xlink:title=" ">
<path fill="none" stroke="#63b8ff" d="M808.52,-186.94C796.97,-166.69 767.76,-115.47 752.32,-88.4"/>
<polygon fill="#63b8ff" stroke="#63b8ff" points="755.31,-86.57 747.31,-79.62 749.23,-90.04 755.31,-86.57"/>
</a>
</g>
</g>
<!-- Node21&#45;&gt;Node9 -->
<g id="edge47_Node000021_Node000009" class="edge">
<title>Node21&#45;&gt;Node9</title>
<g id="a_edge47_Node000021_Node000009"><a xlink:title=" ">
<path fill="none" stroke="#63b8ff" d="M845.82,-186.95C867.59,-179.98 895.92,-168.41 916.4,-151 957.48,-116.08 986.4,-57.66 999.13,-28.38"/>
<polygon fill="#63b8ff" stroke="#63b8ff" points="1002.42,-29.58 1003.08,-19 995.97,-26.86 1002.42,-29.58"/>
</a>
</g>
</g>
<!-- Node21&#45;&gt;Node20 -->
<g id="edge46_Node000021_Node000020" class="edge">
<title>Node21&#45;&gt;Node20</title>
<g id="a_edge46_Node000021_Node000020"><a xlink:title=" ">
<path fill="none" stroke="#63b8ff" d="M859.35,-186.99C916.1,-176.49 1012.59,-158.62 1073.56,-147.34"/>
<polygon fill="#63b8ff" stroke="#63b8ff" points="1074.2,-150.78 1083.39,-145.52 1072.92,-143.9 1074.2,-150.78"/>
</a>
</g>
</g>
<!-- Node22 -->
<g id="Node000022" class="node">
<title>Node22</title>
<g id="a_Node000022"><a xlink:href="log__filter__interface_8h.html" target="_top" xlink:title=" ">
<polygon fill="white" stroke="#666666" points="933.4,-85 813.4,-85 813.4,-55 933.4,-55 933.4,-85"/>
<text text-anchor="start" x="821.4" y="-73" font-family="Helvetica,sans-Serif" font-size="10.00">../interfaces/log_filter</text>
<text text-anchor="middle" x="873.4" y="-62" font-family="Helvetica,sans-Serif" font-size="10.00">_interface.h</text>
</a>
</g>
</g>
<!-- Node21&#45;&gt;Node22 -->
<g id="edge44_Node000021_Node000022" class="edge">
<title>Node21&#45;&gt;Node22</title>
<g id="a_edge44_Node000021_Node000022"><a xlink:title=" ">
<path fill="none" stroke="#63b8ff" d="M814.54,-186.82C816.69,-172.48 822.15,-143.22 833.4,-121 838.44,-111.03 845.69,-101.18 852.64,-92.9"/>
<polygon fill="#63b8ff" stroke="#63b8ff" points="855.43,-95.02 859.39,-85.19 850.17,-90.41 855.43,-95.02"/>
</a>
</g>
</g>
<!-- Node23 -->
<g id="Node000023" class="node">
<title>Node23</title>
<g id="a_Node000023"><a xlink:title=" ">
<polygon fill="#e0e0e0" stroke="#999999" points="1007.4,-145.5 963.4,-145.5 963.4,-126.5 1007.4,-126.5 1007.4,-145.5"/>
<text text-anchor="middle" x="985.4" y="-133.5" font-family="Helvetica,sans-Serif" font-size="10.00">regex</text>
</a>
</g>
</g>
<!-- Node21&#45;&gt;Node23 -->
<g id="edge48_Node000021_Node000023" class="edge">
<title>Node21&#45;&gt;Node23</title>
<g id="a_edge48_Node000021_Node000023"><a xlink:title=" ">
<path fill="none" stroke="#63b8ff" d="M840.9,-186.99C868.48,-178.34 912.09,-164.35 949.4,-151 951,-150.43 952.65,-149.83 954.3,-149.21"/>
<polygon fill="#63b8ff" stroke="#63b8ff" points="955.65,-152.45 963.77,-145.63 953.18,-145.9 955.65,-152.45"/>
</a>
</g>
</g>
<!-- Node24 -->
<g id="Node000024" class="node">
<title>Node24</title>
<g id="a_Node000024"><a xlink:title=" ">
<polygon fill="#e0e0e0" stroke="#999999" points="906.9,-145.5 841.9,-145.5 841.9,-126.5 906.9,-126.5 906.9,-145.5"/>
<text text-anchor="middle" x="874.4" y="-133.5" font-family="Helvetica,sans-Serif" font-size="10.00">functional</text>
</a>
</g>
</g>
<!-- Node21&#45;&gt;Node24 -->
<g id="edge50_Node000021_Node000024" class="edge">
<title>Node21&#45;&gt;Node24</title>
<g id="a_edge50_Node000021_Node000024"><a xlink:title=" ">
<path fill="none" stroke="#63b8ff" d="M822.4,-186.87C831.77,-177.88 846.65,-163.61 858.1,-152.64"/>
<polygon fill="#63b8ff" stroke="#63b8ff" points="860.57,-155.12 865.36,-145.67 855.72,-150.06 860.57,-155.12"/>
</a>
</g>
</g>
<!-- Node22&#45;&gt;Node9 -->
<g id="edge45_Node000022_Node000009" class="edge">
<title>Node22&#45;&gt;Node9</title>
<g id="a_edge45_Node000022_Node000009"><a xlink:title=" ">
<path fill="none" stroke="#63b8ff" d="M905.26,-54.99C927.25,-45.31 956.25,-32.56 977.56,-23.18"/>
<polygon fill="#63b8ff" stroke="#63b8ff" points="979.01,-26.37 986.76,-19.14 976.19,-19.96 979.01,-26.37"/>
</a>
</g>
</g>
<!-- Node25&#45;&gt;Node3 -->
<g id="edge55_Node000025_Node000003" class="edge">
<title>Node25&#45;&gt;Node3</title>
<g id="a_edge55_Node000025_Node000003"><a xlink:title=" ">
<path fill="none" stroke="#63b8ff" d="M682.86,-241.71C670.76,-233.96 654.68,-221.52 646.4,-206 615.34,-147.77 618.05,-66.15 621.26,-29.56"/>
<polygon fill="#63b8ff" stroke="#63b8ff" points="624.77,-29.65 622.27,-19.35 617.8,-28.95 624.77,-29.65"/>
</a>
</g>
</g>
<!-- Node25&#45;&gt;Node4 -->
<g id="edge54_Node000025_Node000004" class="edge">
<title>Node25&#45;&gt;Node4</title>
<g id="a_edge54_Node000025_Node000004"><a xlink:title=" ">
<path fill="none" stroke="#63b8ff" d="M642.02,-250.14C595.11,-247.37 528.33,-237.51 479.4,-206 460.22,-193.65 446,-171.14 437.73,-155.19"/>
<polygon fill="#63b8ff" stroke="#63b8ff" points="440.69,-153.28 433.16,-145.83 434.4,-156.35 440.69,-153.28"/>
</a>
</g>
</g>
<!-- Node25&#45;&gt;Node16 -->
<g id="edge56_Node000025_Node000016" class="edge">
<title>Node25&#45;&gt;Node16</title>
<g id="a_edge56_Node000025_Node000016"><a xlink:title=" ">
<path fill="none" stroke="#63b8ff" d="M642.34,-246.06C572.69,-239.92 450.44,-227.16 347.4,-206 260.45,-188.14 231.75,-196.28 155.4,-151 127.7,-134.57 102.89,-106.09 88.75,-87.91"/>
<polygon fill="#63b8ff" stroke="#63b8ff" points="91.52,-85.78 82.7,-79.92 85.94,-90 91.52,-85.78"/>
</a>
</g>
</g>
<!-- Node25&#45;&gt;Node18 -->
<g id="edge53_Node000025_Node000018" class="edge">
<title>Node25&#45;&gt;Node18</title>
<g id="a_edge53_Node000025_Node000018"><a xlink:title=" ">
<path fill="none" stroke="#63b8ff" d="M754.86,-244.16C841.39,-234.44 1006.61,-215.89 1100.55,-205.34"/>
<polygon fill="#63b8ff" stroke="#63b8ff" points="1100.98,-208.82 1110.53,-204.22 1100.2,-201.86 1100.98,-208.82"/>
</a>
</g>
</g>
<!-- Node25&#45;&gt;Node21 -->
<g id="edge52_Node000025_Node000021" class="edge">
<title>Node25&#45;&gt;Node21</title>
<g id="a_edge52_Node000025_Node000021"><a xlink:title=" ">
<path fill="none" stroke="#63b8ff" d="M716.88,-241.98C735.38,-233.46 764.08,-220.23 785.38,-210.41"/>
<polygon fill="#63b8ff" stroke="#63b8ff" points="786.97,-213.53 794.59,-206.17 784.04,-207.18 786.97,-213.53"/>
</a>
</g>
</g>
<!-- Node26 -->
<g id="Node000026" class="node">
<title>Node26</title>
<g id="a_Node000026"><a xlink:title=" ">
<polygon fill="#e0e0e0" stroke="#999999" points="741.4,-206 655.4,-206 655.4,-187 741.4,-187 741.4,-206"/>
<text text-anchor="middle" x="698.4" y="-194" font-family="Helvetica,sans-Serif" font-size="10.00">unordered_set</text>
</a>
</g>
</g>
<!-- Node25&#45;&gt;Node26 -->
<g id="edge57_Node000025_Node000026" class="edge">
<title>Node25&#45;&gt;Node26</title>
<g id="a_edge57_Node000025_Node000026"><a xlink:title=" ">
<path fill="none" stroke="#63b8ff" d="M698.4,-241.75C698.4,-234.8 698.4,-224.85 698.4,-216.13"/>
<polygon fill="#63b8ff" stroke="#63b8ff" points="701.9,-216.09 698.4,-206.09 694.9,-216.09 701.9,-216.09"/>
</a>
</g>
</g>
</g>
</svg>
