<?xml version="1.0" encoding="UTF-8" standalone="no"?>
<!DOCTYPE svg PUBLIC "-//W3C//DTD SVG 1.1//EN"
 "http://www.w3.org/Graphics/SVG/1.1/DTD/svg11.dtd">
<!-- Generated by graphviz version 2.43.0 (0)
 -->
<!-- Title: logger_interface.h Pages: 1 -->
<svg width="1341pt" height="302pt"
 viewBox="0.00 0.00 1340.50 302.00" xmlns="http://www.w3.org/2000/svg" xmlns:xlink="http://www.w3.org/1999/xlink">
<g id="graph0" class="graph" transform="scale(1 1) rotate(0) translate(4 298)">
<title>logger_interface.h</title>
<!-- Node1 -->
<g id="Node000001" class="node">
<title>Node1</title>
<g id="a_Node000001"><a xlink:title=" ">
<polygon fill="#999999" stroke="#666666" points="1030,-294 925,-294 925,-275 1030,-275 1030,-294"/>
<text text-anchor="middle" x="977.5" y="-282" font-family="Helvetica,sans-Serif" font-size="10.00">logger_interface.h</text>
</a>
</g>
</g>
<!-- Node2 -->
<g id="Node000002" class="node">
<title>Node2</title>
<g id="a_Node000002"><a xlink:href="base__writer_8h.html" target="_top" xlink:title=" ">
<polygon fill="white" stroke="#666666" points="656.5,-184 574.5,-184 574.5,-165 656.5,-165 656.5,-184"/>
<text text-anchor="middle" x="615.5" y="-172" font-family="Helvetica,sans-Serif" font-size="10.00">base_writer.h</text>
</a>
</g>
</g>
<!-- Node1&#45;&gt;Node2 -->
<g id="edge1_Node000001_Node000002" class="edge">
<title>Node1&#45;&gt;Node2</title>
<g id="a_edge1_Node000001_Node000002"><a xlink:title=" ">
<path fill="none" stroke="#63b8ff" d="M914.82,-279.45C861.25,-274.43 782.85,-263.32 718.5,-239 681.95,-225.19 644.14,-197.93 626.19,-184.05"/>
<polygon fill="#63b8ff" stroke="#63b8ff" points="914.59,-282.94 924.86,-280.35 915.21,-275.97 914.59,-282.94"/>
</a>
</g>
</g>
<!-- Node17 -->
<g id="Node000017" class="node">
<title>Node17</title>
<g id="a_Node000017"><a xlink:href="log__analyzer_8h.html" target="_top" xlink:title=" ">
<polygon fill="white" stroke="#666666" points="1204,-239 1117,-239 1117,-220 1204,-220 1204,-239"/>
<text text-anchor="middle" x="1160.5" y="-227" font-family="Helvetica,sans-Serif" font-size="10.00">log_analyzer.h</text>
</a>
</g>
</g>
<!-- Node1&#45;&gt;Node17 -->
<g id="edge17_Node000001_Node000017" class="edge">
<title>Node1&#45;&gt;Node17</title>
<g id="a_edge17_Node000001_Node000017"><a xlink:title=" ">
<path fill="none" stroke="#63b8ff" d="M1016.57,-272.18C1050.8,-262.27 1099.79,-248.08 1130.87,-239.08"/>
<polygon fill="#63b8ff" stroke="#63b8ff" points="1015.53,-268.84 1006.9,-274.98 1017.48,-275.56 1015.53,-268.84"/>
</a>
</g>
</g>
<!-- Node19 -->
<g id="Node000019" class="node">
<title>Node19</title>
<g id="a_Node000019"><a xlink:href="log__collector_8h.html" target="_top" xlink:title=" ">
<polygon fill="white" stroke="#666666" points="918,-184 831,-184 831,-165 918,-165 918,-184"/>
<text text-anchor="middle" x="874.5" y="-172" font-family="Helvetica,sans-Serif" font-size="10.00">log_collector.h</text>
</a>
</g>
</g>
<!-- Node1&#45;&gt;Node19 -->
<g id="edge19_Node000001_Node000019" class="edge">
<title>Node1&#45;&gt;Node19</title>
<g id="a_edge19_Node000001_Node000019"><a xlink:title=" ">
<path fill="none" stroke="#63b8ff" d="M962.05,-267.3C939.92,-244.1 899.97,-202.21 882.76,-184.16"/>
<polygon fill="#63b8ff" stroke="#63b8ff" points="959.64,-269.84 969.07,-274.66 964.7,-265.01 959.64,-269.84"/>
</a>
</g>
</g>
<!-- Node20 -->
<g id="Node000020" class="node">
<title>Node20</title>
<g id="a_Node000020"><a xlink:href="log__entry_8h.html" target="_top" xlink:title=" ">
<polygon fill="white" stroke="#666666" points="797.5,-239 727.5,-239 727.5,-220 797.5,-220 797.5,-239"/>
<text text-anchor="middle" x="762.5" y="-227" font-family="Helvetica,sans-Serif" font-size="10.00">log_entry.h</text>
</a>
</g>
</g>
<!-- Node1&#45;&gt;Node20 -->
<g id="edge22_Node000001_Node000020" class="edge">
<title>Node1&#45;&gt;Node20</title>
<g id="a_edge22_Node000001_Node000020"><a xlink:title=" ">
<path fill="none" stroke="#63b8ff" d="M933.14,-272.56C892.87,-262.64 834.3,-248.2 797.31,-239.08"/>
<polygon fill="#63b8ff" stroke="#63b8ff" points="932.41,-275.99 942.96,-274.98 934.08,-269.19 932.41,-275.99"/>
</a>
</g>
</g>
<!-- Node22 -->
<g id="Node000022" class="node">
<title>Node22</title>
<g id="a_Node000022"><a xlink:href="log__filter_8h.html" target="_top" xlink:title=" ">
<polygon fill="white" stroke="#666666" points="1004.5,-184 936.5,-184 936.5,-165 1004.5,-165 1004.5,-184"/>
<text text-anchor="middle" x="970.5" y="-172" font-family="Helvetica,sans-Serif" font-size="10.00">log_filter.h</text>
</a>
</g>
</g>
<!-- Node1&#45;&gt;Node22 -->
<g id="edge32_Node000001_Node000022" class="edge">
<title>Node1&#45;&gt;Node22</title>
<g id="a_edge32_Node000001_Node000022"><a xlink:title=" ">
<path fill="none" stroke="#63b8ff" d="M968.94,-265.59C965.6,-257.64 962.17,-248.05 960.5,-239 956.9,-219.46 963.14,-196.4 967.28,-184.15"/>
<polygon fill="#63b8ff" stroke="#63b8ff" points="965.84,-267.22 973.13,-274.91 972.23,-264.35 965.84,-267.22"/>
</a>
</g>
</g>
<!-- Node25 -->
<g id="Node000025" class="node">
<title>Node25</title>
<g id="a_Node000025"><a xlink:href="logger_8h.html" target="_top" xlink:title=" ">
<polygon fill="white" stroke="#666666" points="1116.5,-184 1060.5,-184 1060.5,-165 1116.5,-165 1116.5,-184"/>
<text text-anchor="middle" x="1088.5" y="-172" font-family="Helvetica,sans-Serif" font-size="10.00">logger.h</text>
</a>
</g>
</g>
<!-- Node1&#45;&gt;Node25 -->
<g id="edge33_Node000001_Node000025" class="edge">
<title>Node1&#45;&gt;Node25</title>
<g id="a_edge33_Node000001_Node000025"><a xlink:title=" ">
<path fill="none" stroke="#63b8ff" d="M1019.75,-271.5C1037.32,-264.58 1056.59,-254.16 1069.5,-239 1083.08,-223.06 1086.95,-197.69 1088.06,-184.35"/>
<polygon fill="#63b8ff" stroke="#63b8ff" points="1018.39,-268.27 1010.21,-274.99 1020.8,-274.84 1018.39,-268.27"/>
</a>
</g>
</g>
<!-- Node26 -->
<g id="Node000026" class="node">
<title>Node26</title>
<g id="a_Node000026"><a xlink:href="logger__config_8h.html" target="_top" xlink:title=" ">
<polygon fill="white" stroke="#666666" points="1060,-239 969,-239 969,-220 1060,-220 1060,-239"/>
<text text-anchor="middle" x="1014.5" y="-227" font-family="Helvetica,sans-Serif" font-size="10.00">logger_config.h</text>
</a>
</g>
</g>
<!-- Node1&#45;&gt;Node26 -->
<g id="edge36_Node000001_Node000026" class="edge">
<title>Node1&#45;&gt;Node26</title>
<g id="a_edge36_Node000001_Node000026"><a xlink:title=" ">
<path fill="none" stroke="#63b8ff" d="M989.45,-266.39C995.81,-257.27 1003.37,-246.45 1008.5,-239.09"/>
<polygon fill="#63b8ff" stroke="#63b8ff" points="986.46,-264.55 983.61,-274.75 992.2,-268.55 986.46,-264.55"/>
</a>
</g>
</g>
<!-- Node27 -->
<g id="Node000027" class="node">
<title>Node27</title>
<g id="a_Node000027"><a xlink:href="structured__logger_8h.html" target="_top" xlink:title=" ">
<polygon fill="white" stroke="#666666" points="1332.5,-239 1222.5,-239 1222.5,-220 1332.5,-220 1332.5,-239"/>
<text text-anchor="middle" x="1277.5" y="-227" font-family="Helvetica,sans-Serif" font-size="10.00">structured_logger.h</text>
</a>
</g>
</g>
<!-- Node1&#45;&gt;Node27 -->
<g id="edge38_Node000001_Node000027" class="edge">
<title>Node1&#45;&gt;Node27</title>
<g id="a_edge38_Node000001_Node000027"><a xlink:title=" ">
<path fill="none" stroke="#63b8ff" d="M1035.86,-273.19C1092.11,-263.25 1176.22,-248.39 1228.92,-239.08"/>
<polygon fill="#63b8ff" stroke="#63b8ff" points="1034.94,-269.8 1025.7,-274.98 1036.16,-276.69 1034.94,-269.8"/>
</a>
</g>
</g>
<!-- Node3 -->
<g id="Node000003" class="node">
<title>Node3</title>
<g id="a_Node000003"><a xlink:href="console__writer_8h.html" target="_top" xlink:title=" ">
<polygon fill="white" stroke="#666666" points="465.5,-129 369.5,-129 369.5,-110 465.5,-110 465.5,-129"/>
<text text-anchor="middle" x="417.5" y="-117" font-family="Helvetica,sans-Serif" font-size="10.00">console_writer.h</text>
</a>
</g>
</g>
<!-- Node2&#45;&gt;Node3 -->
<g id="edge2_Node000002_Node000003" class="edge">
<title>Node2&#45;&gt;Node3</title>
<g id="a_edge2_Node000002_Node000003"><a xlink:title=" ">
<path fill="none" stroke="#63b8ff" d="M573.7,-162.31C536.65,-152.39 483.33,-138.12 449.56,-129.08"/>
<polygon fill="#63b8ff" stroke="#63b8ff" points="573.12,-165.78 583.69,-164.98 574.93,-159.02 573.12,-165.78"/>
</a>
</g>
</g>
<!-- Node5 -->
<g id="Node000005" class="node">
<title>Node5</title>
<g id="a_Node000005"><a xlink:href="encrypted__writer_8h.html" target="_top" xlink:title=" ">
<polygon fill="white" stroke="#666666" points="591,-129 484,-129 484,-110 591,-110 591,-129"/>
<text text-anchor="middle" x="537.5" y="-117" font-family="Helvetica,sans-Serif" font-size="10.00">encrypted_writer.h</text>
</a>
</g>
</g>
<!-- Node2&#45;&gt;Node5 -->
<g id="edge4_Node000002_Node000005" class="edge">
<title>Node2&#45;&gt;Node5</title>
<g id="a_edge4_Node000002_Node000005"><a xlink:title=" ">
<path fill="none" stroke="#63b8ff" d="M594.38,-159.15C580.29,-149.57 562.21,-137.29 550.26,-129.17"/>
<polygon fill="#63b8ff" stroke="#63b8ff" points="592.73,-162.26 602.97,-164.98 596.66,-156.47 592.73,-162.26"/>
</a>
</g>
</g>
<!-- Node7 -->
<g id="Node000007" class="node">
<title>Node7</title>
<g id="a_Node000007"><a xlink:href="file__writer_8h.html" target="_top" xlink:title=" ">
<polygon fill="white" stroke="#666666" points="198.5,-129 124.5,-129 124.5,-110 198.5,-110 198.5,-129"/>
<text text-anchor="middle" x="161.5" y="-117" font-family="Helvetica,sans-Serif" font-size="10.00">file_writer.h</text>
</a>
</g>
</g>
<!-- Node2&#45;&gt;Node7 -->
<g id="edge6_Node000002_Node000007" class="edge">
<title>Node2&#45;&gt;Node7</title>
<g id="a_edge6_Node000002_Node000007"><a xlink:title=" ">
<path fill="none" stroke="#63b8ff" d="M564.47,-167.54C472.18,-156.77 279.63,-134.29 198.65,-124.84"/>
<polygon fill="#63b8ff" stroke="#63b8ff" points="564.07,-171.02 574.41,-168.7 564.88,-164.07 564.07,-171.02"/>
</a>
</g>
</g>
<!-- Node11 -->
<g id="Node000011" class="node">
<title>Node11</title>
<g id="a_Node000011"><a xlink:href="log__collector_8cpp.html" target="_top" xlink:title=" ">
<polygon fill="white" stroke="#666666" points="745.5,-129 647.5,-129 647.5,-110 745.5,-110 745.5,-129"/>
<text text-anchor="middle" x="696.5" y="-117" font-family="Helvetica,sans-Serif" font-size="10.00">log_collector.cpp</text>
</a>
</g>
</g>
<!-- Node2&#45;&gt;Node11 -->
<g id="edge10_Node000002_Node000011" class="edge">
<title>Node2&#45;&gt;Node11</title>
<g id="a_edge10_Node000002_Node000011"><a xlink:title=" ">
<path fill="none" stroke="#63b8ff" d="M637.01,-159.42C651.71,-149.81 670.72,-137.37 683.25,-129.17"/>
<polygon fill="#63b8ff" stroke="#63b8ff" points="634.97,-156.58 628.51,-164.98 638.8,-162.44 634.97,-156.58"/>
</a>
</g>
</g>
<!-- Node12 -->
<g id="Node000012" class="node">
<title>Node12</title>
<g id="a_Node000012"><a xlink:href="log__router_8h.html" target="_top" xlink:title=" ">
<polygon fill="white" stroke="#666666" points="837.5,-129 763.5,-129 763.5,-110 837.5,-110 837.5,-129"/>
<text text-anchor="middle" x="800.5" y="-117" font-family="Helvetica,sans-Serif" font-size="10.00">log_router.h</text>
</a>
</g>
</g>
<!-- Node2&#45;&gt;Node12 -->
<g id="edge11_Node000002_Node000012" class="edge">
<title>Node2&#45;&gt;Node12</title>
<g id="a_edge11_Node000002_Node000012"><a xlink:title=" ">
<path fill="none" stroke="#63b8ff" d="M655,-162.18C689.6,-152.27 739.13,-138.08 770.54,-129.08"/>
<polygon fill="#63b8ff" stroke="#63b8ff" points="653.87,-158.87 645.22,-164.98 655.8,-165.6 653.87,-158.87"/>
</a>
</g>
</g>
<!-- Node13 -->
<g id="Node000013" class="node">
<title>Node13</title>
<g id="a_Node000013"><a xlink:href="logger_8cpp.html" target="_top" xlink:title=" ">
<polygon fill="white" stroke="#666666" points="899,-74 832,-74 832,-55 899,-55 899,-74"/>
<text text-anchor="middle" x="865.5" y="-62" font-family="Helvetica,sans-Serif" font-size="10.00">logger.cpp</text>
</a>
</g>
</g>
<!-- Node2&#45;&gt;Node13 -->
<g id="edge13_Node000002_Node000013" class="edge">
<title>Node2&#45;&gt;Node13</title>
<g id="a_edge13_Node000002_Node000013"><a xlink:title=" ">
<path fill="none" stroke="#63b8ff" d="M617.43,-154.33C619.91,-140.01 625.57,-121.08 638.5,-110 667.09,-85.5 775.57,-73.02 831.58,-68.09"/>
<polygon fill="#63b8ff" stroke="#63b8ff" points="613.92,-154.21 616.05,-164.59 620.85,-155.15 613.92,-154.21"/>
</a>
</g>
</g>
<!-- Node14 -->
<g id="Node000014" class="node">
<title>Node14</title>
<g id="a_Node000014"><a xlink:href="logger__builder_8h.html" target="_top" xlink:title=" ">
<polygon fill="white" stroke="#666666" points="1132,-129 1037,-129 1037,-110 1132,-110 1132,-129"/>
<text text-anchor="middle" x="1084.5" y="-117" font-family="Helvetica,sans-Serif" font-size="10.00">logger_builder.h</text>
</a>
</g>
</g>
<!-- Node2&#45;&gt;Node14 -->
<g id="edge14_Node000002_Node000014" class="edge">
<title>Node2&#45;&gt;Node14</title>
<g id="a_edge14_Node000002_Node000014"><a xlink:title=" ">
<path fill="none" stroke="#63b8ff" d="M666.73,-168.26C761.26,-158.55 959.74,-137.92 1028.5,-129 1031.23,-128.65 1034.03,-128.27 1036.86,-127.87"/>
<polygon fill="#63b8ff" stroke="#63b8ff" points="666.14,-164.8 656.55,-169.31 666.85,-171.77 666.14,-164.8"/>
</a>
</g>
</g>
<!-- Node15 -->
<g id="Node000015" class="node">
<title>Node15</title>
<g id="a_Node000015"><a xlink:href="network__writer_8h.html" target="_top" xlink:title=" ">
<polygon fill="white" stroke="#666666" points="345.5,-129 247.5,-129 247.5,-110 345.5,-110 345.5,-129"/>
<text text-anchor="middle" x="296.5" y="-117" font-family="Helvetica,sans-Serif" font-size="10.00">network_writer.h</text>
</a>
</g>
</g>
<!-- Node2&#45;&gt;Node15 -->
<g id="edge15_Node000002_Node000015" class="edge">
<title>Node2&#45;&gt;Node15</title>
<g id="a_edge15_Node000002_Node000015"><a xlink:title=" ">
<path fill="none" stroke="#63b8ff" d="M564.42,-165.01C504.28,-155.02 405.1,-138.54 345.76,-128.68"/>
<polygon fill="#63b8ff" stroke="#63b8ff" points="564.01,-168.49 574.45,-166.68 565.16,-161.59 564.01,-168.49"/>
</a>
</g>
</g>
<!-- Node4 -->
<g id="Node000004" class="node">
<title>Node4</title>
<g id="a_Node000004"><a xlink:href="console__writer_8cpp.html" target="_top" xlink:title=" ">
<polygon fill="white" stroke="#666666" points="474,-74 367,-74 367,-55 474,-55 474,-74"/>
<text text-anchor="middle" x="420.5" y="-62" font-family="Helvetica,sans-Serif" font-size="10.00">console_writer.cpp</text>
</a>
</g>
</g>
<!-- Node3&#45;&gt;Node4 -->
<g id="edge3_Node000003_Node000004" class="edge">
<title>Node3&#45;&gt;Node4</title>
<g id="a_edge3_Node000003_Node000004"><a xlink:title=" ">
<path fill="none" stroke="#63b8ff" d="M418.57,-99.66C419.06,-90.93 419.62,-80.99 420.01,-74.09"/>
<polygon fill="#63b8ff" stroke="#63b8ff" points="415.07,-99.57 418,-109.75 422.06,-99.96 415.07,-99.57"/>
</a>
</g>
</g>
<!-- Node6 -->
<g id="Node000006" class="node">
<title>Node6</title>
<g id="a_Node000006"><a xlink:href="encrypted__writer_8cpp.html" target="_top" xlink:title=" ">
<polygon fill="white" stroke="#666666" points="611,-74 492,-74 492,-55 611,-55 611,-74"/>
<text text-anchor="middle" x="551.5" y="-62" font-family="Helvetica,sans-Serif" font-size="10.00">encrypted_writer.cpp</text>
</a>
</g>
</g>
<!-- Node5&#45;&gt;Node6 -->
<g id="edge5_Node000005_Node000006" class="edge">
<title>Node5&#45;&gt;Node6</title>
<g id="a_edge5_Node000005_Node000006"><a xlink:title=" ">
<path fill="none" stroke="#63b8ff" d="M542.4,-99.95C544.72,-91.15 547.39,-81.06 549.23,-74.09"/>
<polygon fill="#63b8ff" stroke="#63b8ff" points="538.98,-99.19 539.81,-109.75 545.75,-100.97 538.98,-99.19"/>
</a>
</g>
</g>
<!-- Node8 -->
<g id="Node000008" class="node">
<title>Node8</title>
<g id="a_Node000008"><a xlink:href="file__writer_8cpp.html" target="_top" xlink:title=" ">
<polygon fill="white" stroke="#666666" points="85,-74 0,-74 0,-55 85,-55 85,-74"/>
<text text-anchor="middle" x="42.5" y="-62" font-family="Helvetica,sans-Serif" font-size="10.00">file_writer.cpp</text>
</a>
</g>
</g>
<!-- Node7&#45;&gt;Node8 -->
<g id="edge7_Node000007_Node000008" class="edge">
<title>Node7&#45;&gt;Node8</title>
<g id="a_edge7_Node000007_Node000008"><a xlink:title=" ">
<path fill="none" stroke="#63b8ff" d="M133.2,-105.9C111.22,-96.11 81.32,-82.79 61.97,-74.17"/>
<polygon fill="#63b8ff" stroke="#63b8ff" points="131.82,-109.11 142.38,-109.98 134.67,-102.72 131.82,-109.11"/>
</a>
</g>
</g>
<!-- Node9 -->
<g id="Node000009" class="node">
<title>Node9</title>
<g id="a_Node000009"><a xlink:href="rotating__file__writer_8h.html" target="_top" xlink:title=" ">
<polygon fill="white" stroke="#666666" points="220,-74 103,-74 103,-55 220,-55 220,-74"/>
<text text-anchor="middle" x="161.5" y="-62" font-family="Helvetica,sans-Serif" font-size="10.00">rotating_file_writer.h</text>
</a>
</g>
</g>
<!-- Node7&#45;&gt;Node9 -->
<g id="edge8_Node000007_Node000009" class="edge">
<title>Node7&#45;&gt;Node9</title>
<g id="a_edge8_Node000007_Node000009"><a xlink:title=" ">
<path fill="none" stroke="#63b8ff" d="M161.5,-99.66C161.5,-90.93 161.5,-80.99 161.5,-74.09"/>
<polygon fill="#63b8ff" stroke="#63b8ff" points="158,-99.75 161.5,-109.75 165,-99.75 158,-99.75"/>
</a>
</g>
</g>
<!-- Node10 -->
<g id="Node000010" class="node">
<title>Node10</title>
<g id="a_Node000010"><a xlink:href="rotating__file__writer_8cpp.html" target="_top" xlink:title=" ">
<polygon fill="white" stroke="#666666" points="225.5,-19 97.5,-19 97.5,0 225.5,0 225.5,-19"/>
<text text-anchor="middle" x="161.5" y="-7" font-family="Helvetica,sans-Serif" font-size="10.00">rotating_file_writer.cpp</text>
</a>
</g>
</g>
<!-- Node9&#45;&gt;Node10 -->
<g id="edge9_Node000009_Node000010" class="edge">
<title>Node9&#45;&gt;Node10</title>
<g id="a_edge9_Node000009_Node000010"><a xlink:title=" ">
<path fill="none" stroke="#63b8ff" d="M161.5,-44.66C161.5,-35.93 161.5,-25.99 161.5,-19.09"/>
<polygon fill="#63b8ff" stroke="#63b8ff" points="158,-44.75 161.5,-54.75 165,-44.75 158,-44.75"/>
</a>
</g>
</g>
<!-- Node12&#45;&gt;Node13 -->
<g id="edge12_Node000012_Node000013" class="edge">
<title>Node12&#45;&gt;Node13</title>
<g id="a_edge12_Node000012_Node000013"><a xlink:title=" ">
<path fill="none" stroke="#63b8ff" d="M818.77,-103.6C830.42,-94.11 845.1,-82.13 854.87,-74.17"/>
<polygon fill="#63b8ff" stroke="#63b8ff" points="816.48,-100.95 810.94,-109.98 820.91,-106.38 816.48,-100.95"/>
</a>
</g>
</g>
<!-- Node16 -->
<g id="Node000016" class="node">
<title>Node16</title>
<g id="a_Node000016"><a xlink:href="network__writer_8cpp.html" target="_top" xlink:title=" ">
<polygon fill="white" stroke="#666666" points="348.5,-74 238.5,-74 238.5,-55 348.5,-55 348.5,-74"/>
<text text-anchor="middle" x="293.5" y="-62" font-family="Helvetica,sans-Serif" font-size="10.00">network_writer.cpp</text>
</a>
</g>
</g>
<!-- Node15&#45;&gt;Node16 -->
<g id="edge16_Node000015_Node000016" class="edge">
<title>Node15&#45;&gt;Node16</title>
<g id="a_edge16_Node000015_Node000016"><a xlink:title=" ">
<path fill="none" stroke="#63b8ff" d="M295.43,-99.66C294.94,-90.93 294.38,-80.99 293.99,-74.09"/>
<polygon fill="#63b8ff" stroke="#63b8ff" points="291.94,-99.96 296,-109.75 298.93,-99.57 291.94,-99.96"/>
</a>
</g>
</g>
<!-- Node18 -->
<g id="Node000018" class="node">
<title>Node18</title>
<g id="a_Node000018"><a xlink:href="log__analyzer_8cpp.html" target="_top" xlink:title=" ">
<polygon fill="white" stroke="#666666" points="1232.5,-184 1134.5,-184 1134.5,-165 1232.5,-165 1232.5,-184"/>
<text text-anchor="middle" x="1183.5" y="-172" font-family="Helvetica,sans-Serif" font-size="10.00">log_analyzer.cpp</text>
</a>
</g>
</g>
<!-- Node17&#45;&gt;Node18 -->
<g id="edge18_Node000017_Node000018" class="edge">
<title>Node17&#45;&gt;Node18</title>
<g id="a_edge18_Node000017_Node000018"><a xlink:title=" ">
<path fill="none" stroke="#63b8ff" d="M1168.3,-210.53C1172.18,-201.6 1176.68,-191.22 1179.77,-184.09"/>
<polygon fill="#63b8ff" stroke="#63b8ff" points="1165.07,-209.18 1164.3,-219.75 1171.49,-211.97 1165.07,-209.18"/>
</a>
</g>
</g>
<!-- Node19&#45;&gt;Node11 -->
<g id="edge20_Node000019_Node000011" class="edge">
<title>Node19&#45;&gt;Node11</title>
<g id="a_edge20_Node000019_Node000011"><a xlink:title=" ">
<path fill="none" stroke="#63b8ff" d="M836.06,-162.06C802.8,-152.15 755.42,-138.04 725.32,-129.08"/>
<polygon fill="#63b8ff" stroke="#63b8ff" points="835.32,-165.49 845.9,-164.98 837.32,-158.78 835.32,-165.49"/>
</a>
</g>
</g>
<!-- Node19&#45;&gt;Node13 -->
<g id="edge21_Node000019_Node000013" class="edge">
<title>Node19&#45;&gt;Node13</title>
<g id="a_edge21_Node000019_Node000013"><a xlink:title=" ">
<path fill="none" stroke="#63b8ff" d="M872.92,-154.48C870.95,-130.84 867.67,-91.5 866.22,-74.16"/>
<polygon fill="#63b8ff" stroke="#63b8ff" points="869.45,-154.99 873.76,-164.66 876.42,-154.41 869.45,-154.99"/>
</a>
</g>
</g>
<!-- Node20&#45;&gt;Node2 -->
<g id="edge24_Node000020_Node000002" class="edge">
<title>Node20&#45;&gt;Node2</title>
<g id="a_edge24_Node000020_Node000002"><a xlink:title=" ">
<path fill="none" stroke="#63b8ff" d="M729.36,-216.55C702.06,-206.71 664,-192.98 639.55,-184.17"/>
<polygon fill="#63b8ff" stroke="#63b8ff" points="728.29,-219.89 738.88,-219.98 730.66,-213.3 728.29,-219.89"/>
</a>
</g>
</g>
<!-- Node20&#45;&gt;Node11 -->
<g id="edge25_Node000020_Node000011" class="edge">
<title>Node20&#45;&gt;Node11</title>
<g id="a_edge25_Node000020_Node000011"><a xlink:title=" ">
<path fill="none" stroke="#63b8ff" d="M735.57,-214.8C723.74,-207.35 710.88,-196.97 703.5,-184 693.63,-166.65 694.18,-142.3 695.37,-129.38"/>
<polygon fill="#63b8ff" stroke="#63b8ff" points="733.92,-217.89 744.31,-219.93 737.46,-211.85 733.92,-217.89"/>
</a>
</g>
</g>
<!-- Node21 -->
<g id="Node000021" class="node">
<title>Node21</title>
<g id="a_Node000021"><a xlink:href="base__formatter_8h.html" target="_top" xlink:title=" ">
<polygon fill="white" stroke="#666666" points="812.5,-184 712.5,-184 712.5,-165 812.5,-165 812.5,-184"/>
<text text-anchor="middle" x="762.5" y="-172" font-family="Helvetica,sans-Serif" font-size="10.00">base_formatter.h</text>
</a>
</g>
</g>
<!-- Node20&#45;&gt;Node21 -->
<g id="edge23_Node000020_Node000021" class="edge">
<title>Node20&#45;&gt;Node21</title>
<g id="a_edge23_Node000020_Node000021"><a xlink:title=" ">
<path fill="none" stroke="#63b8ff" d="M762.5,-209.66C762.5,-200.93 762.5,-190.99 762.5,-184.09"/>
<polygon fill="#63b8ff" stroke="#63b8ff" points="759,-209.75 762.5,-219.75 766,-209.75 759,-209.75"/>
</a>
</g>
</g>
<!-- Node20&#45;&gt;Node22 -->
<g id="edge26_Node000020_Node000022" class="edge">
<title>Node20&#45;&gt;Node22</title>
<g id="a_edge26_Node000020_Node000022"><a xlink:title=" ">
<path fill="none" stroke="#63b8ff" d="M805.91,-217.44C844.85,-207.52 901.19,-193.16 936.82,-184.08"/>
<polygon fill="#63b8ff" stroke="#63b8ff" points="804.74,-214.12 795.92,-219.98 806.47,-220.91 804.74,-214.12"/>
</a>
</g>
</g>
<!-- Node22&#45;&gt;Node12 -->
<g id="edge27_Node000022_Node000012" class="edge">
<title>Node22&#45;&gt;Node12</title>
<g id="a_edge27_Node000022_Node000012"><a xlink:title=" ">
<path fill="none" stroke="#63b8ff" d="M933.38,-161.93C901.63,-152.03 856.65,-138.01 828.03,-129.08"/>
<polygon fill="#63b8ff" stroke="#63b8ff" points="932.6,-165.35 943.19,-164.98 934.68,-158.67 932.6,-165.35"/>
</a>
</g>
</g>
<!-- Node22&#45;&gt;Node13 -->
<g id="edge30_Node000022_Node000013" class="edge">
<title>Node22&#45;&gt;Node13</title>
<g id="a_edge30_Node000022_Node000013"><a xlink:title=" ">
<path fill="none" stroke="#63b8ff" d="M953.36,-157.83C944.32,-149.43 933.15,-138.82 923.5,-129 904.88,-110.04 884.11,-86.75 873.19,-74.31"/>
<polygon fill="#63b8ff" stroke="#63b8ff" points="951.22,-160.62 960.94,-164.83 955.97,-155.48 951.22,-160.62"/>
</a>
</g>
</g>
<!-- Node22&#45;&gt;Node14 -->
<g id="edge31_Node000022_Node000014" class="edge">
<title>Node22&#45;&gt;Node14</title>
<g id="a_edge31_Node000022_Node000014"><a xlink:title=" ">
<path fill="none" stroke="#63b8ff" d="M997.89,-160.77C1018.92,-150.99 1047.39,-137.75 1065.85,-129.17"/>
<polygon fill="#63b8ff" stroke="#63b8ff" points="996.41,-157.6 988.82,-164.98 999.36,-163.94 996.41,-157.6"/>
</a>
</g>
</g>
<!-- Node23 -->
<g id="Node000023" class="node">
<title>Node23</title>
<g id="a_Node000023"><a xlink:href="log__sanitizer_8h.html" target="_top" xlink:title=" ">
<polygon fill="white" stroke="#666666" points="1019,-129 932,-129 932,-110 1019,-110 1019,-129"/>
<text text-anchor="middle" x="975.5" y="-117" font-family="Helvetica,sans-Serif" font-size="10.00">log_sanitizer.h</text>
</a>
</g>
</g>
<!-- Node22&#45;&gt;Node23 -->
<g id="edge28_Node000022_Node000023" class="edge">
<title>Node22&#45;&gt;Node23</title>
<g id="a_edge28_Node000022_Node000023"><a xlink:title=" ">
<path fill="none" stroke="#63b8ff" d="M972.28,-154.66C973.1,-145.93 974.04,-135.99 974.69,-129.09"/>
<polygon fill="#63b8ff" stroke="#63b8ff" points="968.78,-154.46 971.33,-164.75 975.75,-155.12 968.78,-154.46"/>
</a>
</g>
</g>
<!-- Node24 -->
<g id="Node000024" class="node">
<title>Node24</title>
<g id="a_Node000024"><a xlink:href="log__sanitizer_8cpp.html" target="_top" xlink:title=" ">
<polygon fill="white" stroke="#666666" points="1024.5,-74 926.5,-74 926.5,-55 1024.5,-55 1024.5,-74"/>
<text text-anchor="middle" x="975.5" y="-62" font-family="Helvetica,sans-Serif" font-size="10.00">log_sanitizer.cpp</text>
</a>
</g>
</g>
<!-- Node23&#45;&gt;Node24 -->
<g id="edge29_Node000023_Node000024" class="edge">
<title>Node23&#45;&gt;Node24</title>
<g id="a_edge29_Node000023_Node000024"><a xlink:title=" ">
<path fill="none" stroke="#63b8ff" d="M975.5,-99.66C975.5,-90.93 975.5,-80.99 975.5,-74.09"/>
<polygon fill="#63b8ff" stroke="#63b8ff" points="972,-99.75 975.5,-109.75 979,-99.75 972,-99.75"/>
</a>
</g>
</g>
<!-- Node25&#45;&gt;Node13 -->
<g id="edge34_Node000025_Node000013" class="edge">
<title>Node25&#45;&gt;Node13</title>
<g id="a_edge34_Node000025_Node000013"><a xlink:title=" ">
<path fill="none" stroke="#63b8ff" d="M1113.46,-159.57C1133.45,-146.66 1155.94,-126.95 1141.5,-110 1108.8,-71.63 967.27,-82.07 917.5,-74 911.54,-73.03 905.2,-72 899.06,-71"/>
<polygon fill="#63b8ff" stroke="#63b8ff" points="1111.58,-156.62 1104.88,-164.83 1115.24,-162.59 1111.58,-156.62"/>
</a>
</g>
</g>
<!-- Node25&#45;&gt;Node14 -->
<g id="edge35_Node000025_Node000014" class="edge">
<title>Node25&#45;&gt;Node14</title>
<g id="a_edge35_Node000025_Node000014"><a xlink:title=" ">
<path fill="none" stroke="#63b8ff" d="M1087.08,-154.66C1086.42,-145.93 1085.67,-135.99 1085.15,-129.09"/>
<polygon fill="#63b8ff" stroke="#63b8ff" points="1083.6,-155.04 1087.84,-164.75 1090.58,-154.51 1083.6,-155.04"/>
</a>
</g>
</g>
<!-- Node26&#45;&gt;Node14 -->
<g id="edge37_Node000026_Node000014" class="edge">
<title>Node26&#45;&gt;Node14</title>
<g id="a_edge37_Node000026_Node000014"><a xlink:title=" ">
<path fill="none" stroke="#63b8ff" d="M1024.07,-210.89C1031.26,-197.97 1041.54,-180.11 1051.5,-165 1059.97,-152.15 1070.74,-137.98 1077.63,-129.16"/>
<polygon fill="#63b8ff" stroke="#63b8ff" points="1020.98,-209.24 1019.23,-219.69 1027.12,-212.61 1020.98,-209.24"/>
</a>
</g>
</g>
</g>
</svg>
