<?xml version="1.0" encoding="UTF-8" standalone="no"?>
<!DOCTYPE svg PUBLIC "-//W3C//DTD SVG 1.1//EN"
 "http://www.w3.org/Graphics/SVG/1.1/DTD/svg11.dtd">
<!-- Generated by graphviz version 2.43.0 (0)
 -->
<!-- Title: logger.h Pages: 1 -->
<svg width="654pt" height="137pt"
 viewBox="0.00 0.00 653.50 137.00" xmlns="http://www.w3.org/2000/svg" xmlns:xlink="http://www.w3.org/1999/xlink">
<g id="graph0" class="graph" transform="scale(1 1) rotate(0) translate(4 133)">
<title>logger.h</title>
<!-- Node1 -->
<g id="Node000001" class="node">
<title>Node1</title>
<g id="a_Node000001"><a xlink:title=" ">
<polygon fill="#999999" stroke="#666666" points="362,-129 306,-129 306,-110 362,-110 362,-129"/>
<text text-anchor="middle" x="334" y="-117" font-family="Helvetica,sans-Serif" font-size="10.00">logger.h</text>
</a>
</g>
</g>
<!-- Node2 -->
<g id="Node000002" class="node">
<title>Node2</title>
<g id="a_Node000002"><a xlink:title=" ">
<polygon fill="#e0e0e0" stroke="#999999" points="202,-19 144,-19 144,0 202,0 202,-19"/>
<text text-anchor="middle" x="173" y="-7" font-family="Helvetica,sans-Serif" font-size="10.00">memory</text>
</a>
</g>
</g>
<!-- Node1&#45;&gt;Node2 -->
<g id="edge1_Node000001_Node000002" class="edge">
<title>Node1&#45;&gt;Node2</title>
<g id="a_edge1_Node000001_Node000002"><a xlink:title=" ">
<path fill="none" stroke="#63b8ff" d="M305.73,-117.43C273.55,-114.67 221.49,-105.28 191,-74 179.39,-62.09 175.16,-43.26 173.67,-29.2"/>
<polygon fill="#63b8ff" stroke="#63b8ff" points="177.16,-28.9 172.98,-19.16 170.17,-29.38 177.16,-28.9"/>
</a>
</g>
</g>
<!-- Node3 -->
<g id="Node000003" class="node">
<title>Node3</title>
<g id="a_Node000003"><a xlink:title=" ">
<polygon fill="#e0e0e0" stroke="#999999" points="565.5,-74 518.5,-74 518.5,-55 565.5,-55 565.5,-74"/>
<text text-anchor="middle" x="542" y="-62" font-family="Helvetica,sans-Serif" font-size="10.00">vector</text>
</a>
</g>
</g>
<!-- Node1&#45;&gt;Node3 -->
<g id="edge2_Node000001_Node000003" class="edge">
<title>Node1&#45;&gt;Node3</title>
<g id="a_edge2_Node000001_Node000003"><a xlink:title=" ">
<path fill="none" stroke="#63b8ff" d="M362.19,-111.36C394.89,-103.07 450.69,-88.91 508.21,-74.2"/>
<polygon fill="#63b8ff" stroke="#63b8ff" points="509.39,-77.51 518.21,-71.64 507.65,-70.73 509.39,-77.51"/>
</a>
</g>
</g>
<!-- Node4 -->
<g id="Node000004" class="node">
<title>Node4</title>
<g id="a_Node000004"><a xlink:title=" ">
<polygon fill="#e0e0e0" stroke="#999999" points="398,-19 348,-19 348,0 398,0 398,-19"/>
<text text-anchor="middle" x="373" y="-7" font-family="Helvetica,sans-Serif" font-size="10.00">atomic</text>
</a>
</g>
</g>
<!-- Node1&#45;&gt;Node4 -->
<g id="edge3_Node000001_Node000004" class="edge">
<title>Node1&#45;&gt;Node4</title>
<g id="a_edge3_Node000001_Node000004"><a xlink:title=" ">
<path fill="none" stroke="#63b8ff" d="M336.23,-109.75C339.46,-97.4 345.85,-74.19 353,-55 356.33,-46.07 360.59,-36.4 364.33,-28.35"/>
<polygon fill="#63b8ff" stroke="#63b8ff" points="367.54,-29.76 368.67,-19.22 361.21,-26.75 367.54,-29.76"/>
</a>
</g>
</g>
<!-- Node5 -->
<g id="Node000005" class="node">
<title>Node5</title>
<g id="a_Node000005"><a xlink:title=" ">
<polygon fill="#e0e0e0" stroke="#999999" points="632,-74 584,-74 584,-55 632,-55 632,-74"/>
<text text-anchor="middle" x="608" y="-62" font-family="Helvetica,sans-Serif" font-size="10.00">thread</text>
</a>
</g>
</g>
<!-- Node1&#45;&gt;Node5 -->
<g id="edge4_Node000001_Node000005" class="edge">
<title>Node1&#45;&gt;Node5</title>
<g id="a_edge4_Node000001_Node000005"><a xlink:title=" ">
<path fill="none" stroke="#63b8ff" d="M362.33,-113.93C405.78,-106.77 491.68,-92.06 574.12,-74.07"/>
<polygon fill="#63b8ff" stroke="#63b8ff" points="574.88,-77.48 583.9,-71.91 573.38,-70.65 574.88,-77.48"/>
</a>
</g>
</g>
<!-- Node6 -->
<g id="Node000006" class="node">
<title>Node6</title>
<g id="a_Node000006"><a xlink:href="logger__interface_8h.html" target="_top" xlink:title=" ">
<polygon fill="white" stroke="#666666" points="305.5,-74 200.5,-74 200.5,-55 305.5,-55 305.5,-74"/>
<text text-anchor="middle" x="253" y="-62" font-family="Helvetica,sans-Serif" font-size="10.00">logger_interface.h</text>
</a>
</g>
</g>
<!-- Node1&#45;&gt;Node6 -->
<g id="edge5_Node000001_Node000006" class="edge">
<title>Node1&#45;&gt;Node6</title>
<g id="a_edge5_Node000001_Node000006"><a xlink:title=" ">
<path fill="none" stroke="#63b8ff" d="M320.99,-109.98C308.54,-101.84 289.54,-89.41 274.79,-79.76"/>
<polygon fill="#63b8ff" stroke="#63b8ff" points="276.54,-76.72 266.25,-74.17 272.7,-82.57 276.54,-76.72"/>
</a>
</g>
</g>
<!-- Node9 -->
<g id="Node000009" class="node">
<title>Node9</title>
<g id="a_Node000009"><a xlink:href="error__codes_8h.html" target="_top" xlink:title=" ">
<polygon fill="white" stroke="#666666" points="142.5,-74 59.5,-74 59.5,-55 142.5,-55 142.5,-74"/>
<text text-anchor="middle" x="101" y="-62" font-family="Helvetica,sans-Serif" font-size="10.00">error_codes.h</text>
</a>
</g>
</g>
<!-- Node1&#45;&gt;Node9 -->
<g id="edge9_Node000001_Node000009" class="edge">
<title>Node1&#45;&gt;Node9</title>
<g id="a_edge9_Node000001_Node000009"><a xlink:title=" ">
<path fill="none" stroke="#63b8ff" d="M305.89,-112.11C266.88,-103.23 195.77,-87.06 148.45,-76.29"/>
<polygon fill="#63b8ff" stroke="#63b8ff" points="148.97,-72.82 138.44,-74.02 147.42,-79.65 148.97,-72.82"/>
</a>
</g>
</g>
<!-- Node12 -->
<g id="Node000012" class="node">
<title>Node12</title>
<g id="a_Node000012"><a xlink:href="logger__metrics_8h.html" target="_top" xlink:title=" ">
<polygon fill="white" stroke="#666666" points="500,-74 362,-74 362,-55 500,-55 500,-74"/>
<text text-anchor="middle" x="431" y="-62" font-family="Helvetica,sans-Serif" font-size="10.00">metrics/logger_metrics.h</text>
</a>
</g>
</g>
<!-- Node1&#45;&gt;Node12 -->
<g id="edge13_Node000001_Node000012" class="edge">
<title>Node1&#45;&gt;Node12</title>
<g id="a_edge13_Node000001_Node000012"><a xlink:title=" ">
<path fill="none" stroke="#63b8ff" d="M349.58,-109.98C364.77,-101.69 388.1,-88.94 405.9,-79.22"/>
<polygon fill="#63b8ff" stroke="#63b8ff" points="408.03,-82.04 415.13,-74.17 404.68,-75.89 408.03,-82.04"/>
</a>
</g>
</g>
<!-- Node6&#45;&gt;Node2 -->
<g id="edge6_Node000006_Node000002" class="edge">
<title>Node6&#45;&gt;Node2</title>
<g id="a_edge6_Node000006_Node000002"><a xlink:title=" ">
<path fill="none" stroke="#63b8ff" d="M240.15,-54.98C227.86,-46.84 209.09,-34.41 194.52,-24.76"/>
<polygon fill="#63b8ff" stroke="#63b8ff" points="196.36,-21.78 186.09,-19.17 192.49,-27.61 196.36,-21.78"/>
</a>
</g>
</g>
<!-- Node7 -->
<g id="Node000007" class="node">
<title>Node7</title>
<g id="a_Node000007"><a xlink:title=" ">
<polygon fill="#e0e0e0" stroke="#999999" points="330,-19 282,-19 282,0 330,0 330,-19"/>
<text text-anchor="middle" x="306" y="-7" font-family="Helvetica,sans-Serif" font-size="10.00">mutex</text>
</a>
</g>
</g>
<!-- Node6&#45;&gt;Node7 -->
<g id="edge7_Node000006_Node000007" class="edge">
<title>Node6&#45;&gt;Node7</title>
<g id="a_edge7_Node000006_Node000007"><a xlink:title=" ">
<path fill="none" stroke="#63b8ff" d="M261.75,-54.75C269.47,-47.03 280.9,-35.6 290.22,-26.28"/>
<polygon fill="#63b8ff" stroke="#63b8ff" points="292.81,-28.64 297.41,-19.09 287.86,-23.69 292.81,-28.64"/>
</a>
</g>
</g>
<!-- Node8 -->
<g id="Node000008" class="node">
<title>Node8</title>
<g id="a_Node000008"><a xlink:title=" ">
<polygon fill="#e0e0e0" stroke="#999999" points="264,-19 220,-19 220,0 264,0 264,-19"/>
<text text-anchor="middle" x="242" y="-7" font-family="Helvetica,sans-Serif" font-size="10.00">string</text>
</a>
</g>
</g>
<!-- Node6&#45;&gt;Node8 -->
<g id="edge8_Node000006_Node000008" class="edge">
<title>Node6&#45;&gt;Node8</title>
<g id="a_edge8_Node000006_Node000008"><a xlink:title=" ">
<path fill="none" stroke="#63b8ff" d="M251.18,-54.75C249.74,-47.8 247.68,-37.85 245.87,-29.13"/>
<polygon fill="#63b8ff" stroke="#63b8ff" points="249.24,-28.17 243.78,-19.09 242.39,-29.59 249.24,-28.17"/>
</a>
</g>
</g>
<!-- Node9&#45;&gt;Node8 -->
<g id="edge10_Node000009_Node000008" class="edge">
<title>Node9&#45;&gt;Node8</title>
<g id="a_edge10_Node000009_Node000008"><a xlink:title=" ">
<path fill="none" stroke="#63b8ff" d="M123.65,-54.98C147.12,-46.16 183.99,-32.31 210.33,-22.4"/>
<polygon fill="#63b8ff" stroke="#63b8ff" points="211.74,-25.61 219.87,-18.82 209.27,-19.06 211.74,-25.61"/>
</a>
</g>
</g>
<!-- Node10 -->
<g id="Node000010" class="node">
<title>Node10</title>
<g id="a_Node000010"><a xlink:title=" ">
<polygon fill="#e0e0e0" stroke="#999999" points="56,-19 0,-19 0,0 56,0 56,-19"/>
<text text-anchor="middle" x="28" y="-7" font-family="Helvetica,sans-Serif" font-size="10.00">optional</text>
</a>
</g>
</g>
<!-- Node9&#45;&gt;Node10 -->
<g id="edge11_Node000009_Node000010" class="edge">
<title>Node9&#45;&gt;Node10</title>
<g id="a_edge11_Node000009_Node000010"><a xlink:title=" ">
<path fill="none" stroke="#63b8ff" d="M89.27,-54.98C78.27,-47 61.58,-34.88 48.4,-25.31"/>
<polygon fill="#63b8ff" stroke="#63b8ff" points="50.09,-22.21 39.94,-19.17 45.98,-27.88 50.09,-22.21"/>
</a>
</g>
</g>
<!-- Node11 -->
<g id="Node000011" class="node">
<title>Node11</title>
<g id="a_Node000011"><a xlink:title=" ">
<polygon fill="#e0e0e0" stroke="#999999" points="125.5,-19 74.5,-19 74.5,0 125.5,0 125.5,-19"/>
<text text-anchor="middle" x="100" y="-7" font-family="Helvetica,sans-Serif" font-size="10.00">variant</text>
</a>
</g>
</g>
<!-- Node9&#45;&gt;Node11 -->
<g id="edge12_Node000009_Node000011" class="edge">
<title>Node9&#45;&gt;Node11</title>
<g id="a_edge12_Node000009_Node000011"><a xlink:title=" ">
<path fill="none" stroke="#63b8ff" d="M100.83,-54.75C100.7,-47.8 100.52,-37.85 100.35,-29.13"/>
<polygon fill="#63b8ff" stroke="#63b8ff" points="103.85,-29.02 100.16,-19.09 96.85,-29.15 103.85,-29.02"/>
</a>
</g>
</g>
<!-- Node12&#45;&gt;Node4 -->
<g id="edge14_Node000012_Node000004" class="edge">
<title>Node12&#45;&gt;Node4</title>
<g id="a_edge14_Node000012_Node000004"><a xlink:title=" ">
<path fill="none" stroke="#63b8ff" d="M421.68,-54.98C413.19,-47.23 400.44,-35.58 390.12,-26.14"/>
<polygon fill="#63b8ff" stroke="#63b8ff" points="392.23,-23.33 382.49,-19.17 387.51,-28.5 392.23,-23.33"/>
</a>
</g>
</g>
<!-- Node12&#45;&gt;Node7 -->
<g id="edge19_Node000012_Node000007" class="edge">
<title>Node12&#45;&gt;Node7</title>
<g id="a_edge19_Node000012_Node000007"><a xlink:title=" ">
<path fill="none" stroke="#63b8ff" d="M410.92,-54.98C390.63,-46.38 359.04,-32.99 335.83,-23.15"/>
<polygon fill="#63b8ff" stroke="#63b8ff" points="337.02,-19.85 326.45,-19.17 334.29,-26.3 337.02,-19.85"/>
</a>
</g>
</g>
<!-- Node12&#45;&gt;Node8 -->
<g id="edge17_Node000012_Node000008" class="edge">
<title>Node12&#45;&gt;Node8</title>
<g id="a_edge17_Node000012_Node000008"><a xlink:title=" ">
<path fill="none" stroke="#63b8ff" d="M400.63,-54.98C365.87,-45.24 309.19,-29.34 273.83,-19.43"/>
<polygon fill="#63b8ff" stroke="#63b8ff" points="274.6,-16.01 264.02,-16.68 272.71,-22.75 274.6,-16.01"/>
</a>
</g>
</g>
<!-- Node13 -->
<g id="Node000013" class="node">
<title>Node13</title>
<g id="a_Node000013"><a xlink:title=" ">
<polygon fill="#e0e0e0" stroke="#999999" points="466,-19 416,-19 416,0 466,0 466,-19"/>
<text text-anchor="middle" x="441" y="-7" font-family="Helvetica,sans-Serif" font-size="10.00">chrono</text>
</a>
</g>
</g>
<!-- Node12&#45;&gt;Node13 -->
<g id="edge15_Node000012_Node000013" class="edge">
<title>Node12&#45;&gt;Node13</title>
<g id="a_edge15_Node000012_Node000013"><a xlink:title=" ">
<path fill="none" stroke="#63b8ff" d="M432.65,-54.75C433.96,-47.8 435.84,-37.85 437.48,-29.13"/>
<polygon fill="#63b8ff" stroke="#63b8ff" points="440.96,-29.56 439.38,-19.09 434.09,-28.27 440.96,-29.56"/>
</a>
</g>
</g>
<!-- Node14 -->
<g id="Node000014" class="node">
<title>Node14</title>
<g id="a_Node000014"><a xlink:title=" ">
<polygon fill="#e0e0e0" stroke="#999999" points="534,-19 484,-19 484,0 534,0 534,-19"/>
<text text-anchor="middle" x="509" y="-7" font-family="Helvetica,sans-Serif" font-size="10.00">cstdint</text>
</a>
</g>
</g>
<!-- Node12&#45;&gt;Node14 -->
<g id="edge16_Node000012_Node000014" class="edge">
<title>Node12&#45;&gt;Node14</title>
<g id="a_edge16_Node000012_Node000014"><a xlink:title=" ">
<path fill="none" stroke="#63b8ff" d="M443.53,-54.98C455.4,-46.92 473.46,-34.65 487.61,-25.03"/>
<polygon fill="#63b8ff" stroke="#63b8ff" points="489.94,-27.69 496.24,-19.17 486,-21.9 489.94,-27.69"/>
</a>
</g>
</g>
<!-- Node15 -->
<g id="Node000015" class="node">
<title>Node15</title>
<g id="a_Node000015"><a xlink:title=" ">
<polygon fill="#e0e0e0" stroke="#999999" points="645.5,-19 552.5,-19 552.5,0 645.5,0 645.5,-19"/>
<text text-anchor="middle" x="599" y="-7" font-family="Helvetica,sans-Serif" font-size="10.00">unordered_map</text>
</a>
</g>
</g>
<!-- Node12&#45;&gt;Node15 -->
<g id="edge18_Node000012_Node000015" class="edge">
<title>Node12&#45;&gt;Node15</title>
<g id="a_edge18_Node000012_Node000015"><a xlink:title=" ">
<path fill="none" stroke="#63b8ff" d="M457.99,-54.98C486.2,-46.09 530.64,-32.07 562.08,-22.15"/>
<polygon fill="#63b8ff" stroke="#63b8ff" points="563.31,-25.43 571.8,-19.08 561.21,-18.75 563.31,-25.43"/>
</a>
</g>
</g>
</g>
</svg>
