<?xml version="1.0" encoding="UTF-8" standalone="no"?>
<!DOCTYPE svg PUBLIC "-//W3C//DTD SVG 1.1//EN"
 "http://www.w3.org/Graphics/SVG/1.1/DTD/svg11.dtd">
<!-- Generated by graphviz version 2.43.0 (0)
 -->
<!-- Title: /home/runner/work/logger_system/logger_system/sources/logger/logger.h Pages: 1 -->
<svg width="1380pt" height="434pt"
 viewBox="0.00 0.00 1379.50 434.00" xmlns="http://www.w3.org/2000/svg" xmlns:xlink="http://www.w3.org/1999/xlink">
<g id="graph0" class="graph" transform="scale(1 1) rotate(0) translate(4 430)">
<title>/home/runner/work/logger_system/logger_system/sources/logger/logger.h</title>
<!-- Node1 -->
<g id="Node000001" class="node">
<title>Node1</title>
<g id="a_Node000001"><a xlink:title="High&#45;performance, thread&#45;safe logging system with asynchronous capabilities.">
<polygon fill="#999999" stroke="#666666" points="951.5,-426 778.5,-426 778.5,-385 951.5,-385 951.5,-426"/>
<text text-anchor="start" x="786.5" y="-414" font-family="Helvetica,sans-Serif" font-size="10.00">/home/runner/work/logger</text>
<text text-anchor="start" x="786.5" y="-403" font-family="Helvetica,sans-Serif" font-size="10.00">_system/logger_system/sources</text>
<text text-anchor="middle" x="865" y="-392" font-family="Helvetica,sans-Serif" font-size="10.00">/logger/logger.h</text>
</a>
</g>
</g>
<!-- Node2 -->
<g id="Node000002" class="node">
<title>Node2</title>
<g id="a_Node000002"><a xlink:title=" ">
<polygon fill="#e0e0e0" stroke="#999999" points="570,-145.5 512,-145.5 512,-126.5 570,-126.5 570,-145.5"/>
<text text-anchor="middle" x="541" y="-133.5" font-family="Helvetica,sans-Serif" font-size="10.00">memory</text>
</a>
</g>
</g>
<!-- Node1&#45;&gt;Node2 -->
<g id="edge1_Node000001_Node000002" class="edge">
<title>Node1&#45;&gt;Node2</title>
<g id="a_edge1_Node000001_Node000002"><a xlink:title=" ">
<path fill="none" stroke="#63b8ff" d="M778.27,-386.41C749.35,-377.91 717.93,-365.83 692,-349 626,-306.15 615.82,-283.66 574,-217 561.69,-197.37 552.23,-172.36 546.66,-155.57"/>
<polygon fill="#63b8ff" stroke="#63b8ff" points="549.94,-154.34 543.57,-145.87 543.27,-156.46 549.94,-154.34"/>
</a>
</g>
</g>
<!-- Node3 -->
<g id="Node000003" class="node">
<title>Node3</title>
<g id="a_Node000003"><a xlink:title=" ">
<polygon fill="#e0e0e0" stroke="#999999" points="1067.5,-85 1020.5,-85 1020.5,-66 1067.5,-66 1067.5,-85"/>
<text text-anchor="middle" x="1044" y="-73" font-family="Helvetica,sans-Serif" font-size="10.00">vector</text>
</a>
</g>
</g>
<!-- Node1&#45;&gt;Node3 -->
<g id="edge2_Node000001_Node000003" class="edge">
<title>Node1&#45;&gt;Node3</title>
<g id="a_edge2_Node000001_Node000003"><a xlink:title=" ">
<path fill="none" stroke="#63b8ff" d="M951.7,-386.58C1012.14,-368.44 1082,-333.51 1082,-269 1082,-269 1082,-269 1082,-201 1082,-161.63 1064.4,-118.18 1053.16,-94.45"/>
<polygon fill="#63b8ff" stroke="#63b8ff" points="1056.21,-92.71 1048.66,-85.28 1049.92,-95.8 1056.21,-92.71"/>
</a>
</g>
</g>
<!-- Node4 -->
<g id="Node000004" class="node">
<title>Node4</title>
<g id="a_Node000004"><a xlink:title=" ">
<polygon fill="#e0e0e0" stroke="#999999" points="858,-85 808,-85 808,-66 858,-66 858,-85"/>
<text text-anchor="middle" x="833" y="-73" font-family="Helvetica,sans-Serif" font-size="10.00">atomic</text>
</a>
</g>
</g>
<!-- Node1&#45;&gt;Node4 -->
<g id="edge3_Node000001_Node000004" class="edge">
<title>Node1&#45;&gt;Node4</title>
<g id="a_edge3_Node000001_Node000004"><a xlink:title=" ">
<path fill="none" stroke="#63b8ff" d="M908.84,-384.95C950.23,-363.16 1006,-323.66 1006,-269 1006,-269 1006,-269 1006,-201 1006,-164.46 1012.21,-147.46 987,-121 956.2,-88.68 903.54,-79.39 868.5,-76.96"/>
<polygon fill="#63b8ff" stroke="#63b8ff" points="868.41,-73.45 858.24,-76.41 868.03,-80.44 868.41,-73.45"/>
</a>
</g>
</g>
<!-- Node5 -->
<g id="Node000005" class="node">
<title>Node5</title>
<g id="a_Node000005"><a xlink:title=" ">
<polygon fill="#e0e0e0" stroke="#999999" points="1196,-343.5 1148,-343.5 1148,-324.5 1196,-324.5 1196,-343.5"/>
<text text-anchor="middle" x="1172" y="-331.5" font-family="Helvetica,sans-Serif" font-size="10.00">thread</text>
</a>
</g>
</g>
<!-- Node1&#45;&gt;Node5 -->
<g id="edge4_Node000001_Node000005" class="edge">
<title>Node1&#45;&gt;Node5</title>
<g id="a_edge4_Node000001_Node000005"><a xlink:title=" ">
<path fill="none" stroke="#63b8ff" d="M951.51,-390.05C1004.64,-380.34 1073.82,-366.19 1134,-349 1136.28,-348.35 1138.62,-347.63 1140.97,-346.86"/>
<polygon fill="#63b8ff" stroke="#63b8ff" points="1142.18,-350.14 1150.48,-343.56 1139.89,-343.53 1142.18,-350.14"/>
</a>
</g>
</g>
<!-- Node6 -->
<g id="Node000006" class="node">
<title>Node6</title>
<g id="a_Node000006"><a xlink:title=" ">
<polygon fill="#e0e0e0" stroke="#999999" points="1371.5,-343.5 1214.5,-343.5 1214.5,-324.5 1371.5,-324.5 1371.5,-343.5"/>
<text text-anchor="middle" x="1293" y="-331.5" font-family="Helvetica,sans-Serif" font-size="10.00">interfaces/logger_interface.h</text>
</a>
</g>
</g>
<!-- Node1&#45;&gt;Node6 -->
<g id="edge5_Node000001_Node000006" class="edge">
<title>Node1&#45;&gt;Node6</title>
<g id="a_edge5_Node000001_Node000006"><a xlink:title=" ">
<path fill="none" stroke="#63b8ff" d="M951.61,-390.44C1034.31,-377.01 1156.92,-357.1 1230.5,-345.15"/>
<polygon fill="#63b8ff" stroke="#63b8ff" points="1231.23,-348.58 1240.54,-343.52 1230.11,-341.67 1231.23,-348.58"/>
</a>
</g>
</g>
<!-- Node7 -->
<g id="Node000007" class="node">
<title>Node7</title>
<g id="a_Node000007"><a xlink:title=" ">
<polygon fill="#e0e0e0" stroke="#999999" points="800,-30 672,-30 672,0 800,0 800,-30"/>
<text text-anchor="start" x="680" y="-18" font-family="Helvetica,sans-Serif" font-size="10.00">thread_base/sync/error</text>
<text text-anchor="middle" x="736" y="-7" font-family="Helvetica,sans-Serif" font-size="10.00">_handling.h</text>
</a>
</g>
</g>
<!-- Node1&#45;&gt;Node7 -->
<g id="edge6_Node000001_Node000007" class="edge">
<title>Node1&#45;&gt;Node7</title>
<g id="a_edge6_Node000001_Node000007"><a xlink:title=" ">
<path fill="none" stroke="#63b8ff" d="M951.69,-394.36C1025.61,-380.31 1120,-347.08 1120,-269 1120,-269 1120,-269 1120,-135 1120,-98.87 1107.23,-85.79 1077,-66 1034.32,-38.07 897.23,-25.16 810.42,-19.66"/>
<polygon fill="#63b8ff" stroke="#63b8ff" points="810.55,-16.16 800.36,-19.04 810.12,-23.15 810.55,-16.16"/>
</a>
</g>
</g>
<!-- Node8 -->
<g id="Node000008" class="node">
<title>Node8</title>
<g id="a_Node000008"><a xlink:href="error__codes_8h.html" target="_top" xlink:title=" ">
<polygon fill="white" stroke="#666666" points="199.5,-85 116.5,-85 116.5,-66 199.5,-66 199.5,-85"/>
<text text-anchor="middle" x="158" y="-73" font-family="Helvetica,sans-Serif" font-size="10.00">error_codes.h</text>
</a>
</g>
</g>
<!-- Node1&#45;&gt;Node8 -->
<g id="edge7_Node000001_Node000008" class="edge">
<title>Node1&#45;&gt;Node8</title>
<g id="a_edge7_Node000001_Node000008"><a xlink:title=" ">
<path fill="none" stroke="#63b8ff" d="M778.48,-401.79C616.82,-396.05 274.95,-380.53 161,-349 83.99,-327.69 0,-348.9 0,-269 0,-269 0,-269 0,-201 0,-140.68 71.92,-105.08 118.71,-88.31"/>
<polygon fill="#63b8ff" stroke="#63b8ff" points="119.97,-91.58 128.28,-85.01 117.69,-84.96 119.97,-91.58"/>
</a>
</g>
</g>
<!-- Node12 -->
<g id="Node000012" class="node">
<title>Node12</title>
<g id="a_Node000012"><a xlink:href="logger__metrics_8h.html" target="_top" xlink:title=" ">
<polygon fill="white" stroke="#666666" points="490,-211.5 352,-211.5 352,-192.5 490,-192.5 490,-211.5"/>
<text text-anchor="middle" x="421" y="-199.5" font-family="Helvetica,sans-Serif" font-size="10.00">metrics/logger_metrics.h</text>
</a>
</g>
</g>
<!-- Node1&#45;&gt;Node12 -->
<g id="edge12_Node000001_Node000012" class="edge">
<title>Node1&#45;&gt;Node12</title>
<g id="a_edge12_Node000001_Node000012"><a xlink:title=" ">
<path fill="none" stroke="#63b8ff" d="M778.22,-398.39C695.58,-391.03 578.55,-376.13 542,-349 503.7,-320.56 525.35,-288.96 494,-253 480.96,-238.04 462.49,-225.45 447.39,-216.64"/>
<polygon fill="#63b8ff" stroke="#63b8ff" points="448.94,-213.5 438.51,-211.66 445.52,-219.6 448.94,-213.5"/>
</a>
</g>
</g>
<!-- Node17 -->
<g id="Node000017" class="node">
<title>Node17</title>
<g id="a_Node000017"><a xlink:href="di__container__interface_8h.html" target="_top" xlink:title="Abstract interface for dependency injection container.">
<polygon fill="white" stroke="#666666" points="174,-211.5 28,-211.5 28,-192.5 174,-192.5 174,-211.5"/>
<text text-anchor="middle" x="101" y="-199.5" font-family="Helvetica,sans-Serif" font-size="10.00">di/di_container_interface.h</text>
</a>
</g>
</g>
<!-- Node1&#45;&gt;Node17 -->
<g id="edge19_Node000001_Node000017" class="edge">
<title>Node1&#45;&gt;Node17</title>
<g id="a_edge19_Node000001_Node000017"><a xlink:title=" ">
<path fill="none" stroke="#63b8ff" d="M778.47,-400.88C633.38,-394.11 347.47,-377.57 251,-349 190.76,-331.16 166.18,-331.29 126,-283 111.42,-265.47 105.32,-239.43 102.78,-221.87"/>
<polygon fill="#63b8ff" stroke="#63b8ff" points="106.23,-221.24 101.58,-211.72 99.28,-222.06 106.23,-221.24"/>
</a>
</g>
</g>
<!-- Node19 -->
<g id="Node000019" class="node">
<title>Node19</title>
<g id="a_Node000019"><a xlink:href="di__container__factory_8h.html" target="_top" xlink:title="Factory for creating appropriate DI containers.">
<polygon fill="white" stroke="#666666" points="396,-343.5 260,-343.5 260,-324.5 396,-324.5 396,-343.5"/>
<text text-anchor="middle" x="328" y="-331.5" font-family="Helvetica,sans-Serif" font-size="10.00">di/di_container_factory.h</text>
</a>
</g>
</g>
<!-- Node1&#45;&gt;Node19 -->
<g id="edge24_Node000001_Node000019" class="edge">
<title>Node1&#45;&gt;Node19</title>
<g id="a_edge24_Node000001_Node000019"><a xlink:title=" ">
<path fill="none" stroke="#63b8ff" d="M778.42,-393.3C674.85,-379.89 503.08,-357.66 404.28,-344.87"/>
<polygon fill="#63b8ff" stroke="#63b8ff" points="404.44,-341.36 394.08,-343.55 403.54,-348.31 404.44,-341.36"/>
</a>
</g>
</g>
<!-- Node23 -->
<g id="Node000023" class="node">
<title>Node23</title>
<g id="a_Node000023"><a xlink:href="monitoring__interface_8h.html" target="_top" xlink:title="Abstract interface for monitoring and metrics collection.">
<polygon fill="white" stroke="#666666" points="978,-151 852,-151 852,-121 978,-121 978,-151"/>
<text text-anchor="start" x="860" y="-139" font-family="Helvetica,sans-Serif" font-size="10.00">monitoring/monitoring</text>
<text text-anchor="middle" x="915" y="-128" font-family="Helvetica,sans-Serif" font-size="10.00">_interface.h</text>
</a>
</g>
</g>
<!-- Node1&#45;&gt;Node23 -->
<g id="edge33_Node000001_Node000023" class="edge">
<title>Node1&#45;&gt;Node23</title>
<g id="a_edge33_Node000001_Node000023"><a xlink:title=" ">
<path fill="none" stroke="#63b8ff" d="M873.72,-384.76C888.05,-351.13 915.97,-280.22 926,-217 928.96,-198.32 925.75,-177.12 922.05,-161.24"/>
<polygon fill="#63b8ff" stroke="#63b8ff" points="925.34,-160.01 919.47,-151.19 918.56,-161.74 925.34,-160.01"/>
</a>
</g>
</g>
<!-- Node24 -->
<g id="Node000024" class="node">
<title>Node24</title>
<g id="a_Node000024"><a xlink:href="monitoring__factory_8h.html" target="_top" xlink:title="Factory for creating appropriate monitoring implementations.">
<polygon fill="white" stroke="#666666" points="827,-349 701,-349 701,-319 827,-319 827,-349"/>
<text text-anchor="start" x="709" y="-337" font-family="Helvetica,sans-Serif" font-size="10.00">monitoring/monitoring</text>
<text text-anchor="middle" x="764" y="-326" font-family="Helvetica,sans-Serif" font-size="10.00">_factory.h</text>
</a>
</g>
</g>
<!-- Node1&#45;&gt;Node24 -->
<g id="edge40_Node000001_Node000024" class="edge">
<title>Node1&#45;&gt;Node24</title>
<g id="a_edge40_Node000001_Node000024"><a xlink:title=" ">
<path fill="none" stroke="#63b8ff" d="M836.6,-384.96C823,-375.6 806.75,-364.42 793.07,-355.01"/>
<polygon fill="#63b8ff" stroke="#63b8ff" points="794.73,-351.9 784.51,-349.11 790.76,-357.66 794.73,-351.9"/>
</a>
</g>
</g>
<!-- Node8&#45;&gt;Node7 -->
<g id="edge11_Node000008_Node000007" class="edge">
<title>Node8&#45;&gt;Node7</title>
<g id="a_edge11_Node000008_Node000007"><a xlink:title=" ">
<path fill="none" stroke="#63b8ff" d="M199.57,-70.29C296.5,-60.48 538.6,-35.98 661.66,-23.52"/>
<polygon fill="#63b8ff" stroke="#63b8ff" points="662.16,-26.99 671.75,-22.5 661.45,-20.03 662.16,-26.99"/>
</a>
</g>
</g>
<!-- Node9 -->
<g id="Node000009" class="node">
<title>Node9</title>
<g id="a_Node000009"><a xlink:title=" ">
<polygon fill="#e0e0e0" stroke="#999999" points="279,-24.5 235,-24.5 235,-5.5 279,-5.5 279,-24.5"/>
<text text-anchor="middle" x="257" y="-12.5" font-family="Helvetica,sans-Serif" font-size="10.00">string</text>
</a>
</g>
</g>
<!-- Node8&#45;&gt;Node9 -->
<g id="edge8_Node000008_Node000009" class="edge">
<title>Node8&#45;&gt;Node9</title>
<g id="a_edge8_Node000008_Node000009"><a xlink:title=" ">
<path fill="none" stroke="#63b8ff" d="M172.61,-65.87C188.69,-56.36 214.78,-40.95 233.7,-29.77"/>
<polygon fill="#63b8ff" stroke="#63b8ff" points="235.5,-32.77 242.33,-24.67 231.94,-26.74 235.5,-32.77"/>
</a>
</g>
</g>
<!-- Node10 -->
<g id="Node000010" class="node">
<title>Node10</title>
<g id="a_Node000010"><a xlink:title=" ">
<polygon fill="#e0e0e0" stroke="#999999" points="199.5,-24.5 134.5,-24.5 134.5,-5.5 199.5,-5.5 199.5,-24.5"/>
<text text-anchor="middle" x="167" y="-12.5" font-family="Helvetica,sans-Serif" font-size="10.00">stdexcept</text>
</a>
</g>
</g>
<!-- Node8&#45;&gt;Node10 -->
<g id="edge9_Node000008_Node000010" class="edge">
<title>Node8&#45;&gt;Node10</title>
<g id="a_edge9_Node000008_Node000010"><a xlink:title=" ">
<path fill="none" stroke="#63b8ff" d="M159.33,-65.87C160.59,-57.66 162.53,-45.04 164.15,-34.55"/>
<polygon fill="#63b8ff" stroke="#63b8ff" points="167.61,-35.08 165.67,-24.67 160.69,-34.02 167.61,-35.08"/>
</a>
</g>
</g>
<!-- Node11 -->
<g id="Node000011" class="node">
<title>Node11</title>
<g id="a_Node000011"><a xlink:title=" ">
<polygon fill="#e0e0e0" stroke="#999999" points="116.5,-24.5 71.5,-24.5 71.5,-5.5 116.5,-5.5 116.5,-24.5"/>
<text text-anchor="middle" x="94" y="-12.5" font-family="Helvetica,sans-Serif" font-size="10.00">utility</text>
</a>
</g>
</g>
<!-- Node8&#45;&gt;Node11 -->
<g id="edge10_Node000008_Node000011" class="edge">
<title>Node8&#45;&gt;Node11</title>
<g id="a_edge10_Node000008_Node000011"><a xlink:title=" ">
<path fill="none" stroke="#63b8ff" d="M148.56,-65.87C138.73,-56.88 123.11,-42.61 111.11,-31.64"/>
<polygon fill="#63b8ff" stroke="#63b8ff" points="113.22,-28.83 103.48,-24.67 108.5,-34 113.22,-28.83"/>
</a>
</g>
</g>
<!-- Node12&#45;&gt;Node4 -->
<g id="edge13_Node000012_Node000004" class="edge">
<title>Node12&#45;&gt;Node4</title>
<g id="a_edge13_Node000012_Node000004"><a xlink:title=" ">
<path fill="none" stroke="#63b8ff" d="M419.8,-192.47C418.01,-175.94 416.76,-139.58 437,-121 443.64,-114.91 701.99,-89.23 797.76,-79.91"/>
<polygon fill="#63b8ff" stroke="#63b8ff" points="798.21,-83.38 807.82,-78.93 797.53,-76.41 798.21,-83.38"/>
</a>
</g>
</g>
<!-- Node12&#45;&gt;Node9 -->
<g id="edge16_Node000012_Node000009" class="edge">
<title>Node12&#45;&gt;Node9</title>
<g id="a_edge16_Node000012_Node000009"><a xlink:title=" ">
<path fill="none" stroke="#63b8ff" d="M407.9,-192.34C394.34,-183.04 372.94,-167.36 357,-151 319.65,-112.68 284.47,-59.95 267.54,-33.14"/>
<polygon fill="#63b8ff" stroke="#63b8ff" points="270.42,-31.14 262.15,-24.51 264.48,-34.85 270.42,-31.14"/>
</a>
</g>
</g>
<!-- Node13 -->
<g id="Node000013" class="node">
<title>Node13</title>
<g id="a_Node000013"><a xlink:title=" ">
<polygon fill="#e0e0e0" stroke="#999999" points="729,-85 679,-85 679,-66 729,-66 729,-85"/>
<text text-anchor="middle" x="704" y="-73" font-family="Helvetica,sans-Serif" font-size="10.00">chrono</text>
</a>
</g>
</g>
<!-- Node12&#45;&gt;Node13 -->
<g id="edge14_Node000012_Node000013" class="edge">
<title>Node12&#45;&gt;Node13</title>
<g id="a_edge14_Node000012_Node000013"><a xlink:title=" ">
<path fill="none" stroke="#63b8ff" d="M415,-192.37C404.66,-176.32 386.19,-141.64 404,-121 421.12,-101.15 593.13,-85.26 668.7,-79.17"/>
<polygon fill="#63b8ff" stroke="#63b8ff" points="669.01,-82.66 678.7,-78.38 668.45,-75.68 669.01,-82.66"/>
</a>
</g>
</g>
<!-- Node14 -->
<g id="Node000014" class="node">
<title>Node14</title>
<g id="a_Node000014"><a xlink:title=" ">
<polygon fill="#e0e0e0" stroke="#999999" points="638,-145.5 588,-145.5 588,-126.5 638,-126.5 638,-145.5"/>
<text text-anchor="middle" x="613" y="-133.5" font-family="Helvetica,sans-Serif" font-size="10.00">cstdint</text>
</a>
</g>
</g>
<!-- Node12&#45;&gt;Node14 -->
<g id="edge15_Node000012_Node000014" class="edge">
<title>Node12&#45;&gt;Node14</title>
<g id="a_edge15_Node000012_Node000014"><a xlink:title=" ">
<path fill="none" stroke="#63b8ff" d="M450.66,-192.43C482.6,-183.01 534.79,-167.07 579,-151 580.42,-150.48 581.88,-149.94 583.34,-149.38"/>
<polygon fill="#63b8ff" stroke="#63b8ff" points="584.96,-152.51 592.97,-145.57 582.39,-146 584.96,-152.51"/>
</a>
</g>
</g>
<!-- Node15 -->
<g id="Node000015" class="node">
<title>Node15</title>
<g id="a_Node000015"><a xlink:title=" ">
<polygon fill="#e0e0e0" stroke="#999999" points="524.5,-85 431.5,-85 431.5,-66 524.5,-66 524.5,-85"/>
<text text-anchor="middle" x="478" y="-73" font-family="Helvetica,sans-Serif" font-size="10.00">unordered_map</text>
</a>
</g>
</g>
<!-- Node12&#45;&gt;Node15 -->
<g id="edge17_Node000012_Node000015" class="edge">
<title>Node12&#45;&gt;Node15</title>
<g id="a_edge17_Node000012_Node000015"><a xlink:title=" ">
<path fill="none" stroke="#63b8ff" d="M407.31,-192.38C385.81,-177.74 348.3,-147.08 366,-121 378.63,-102.39 400.4,-91.57 421.4,-85.27"/>
<polygon fill="#63b8ff" stroke="#63b8ff" points="422.54,-88.58 431.28,-82.6 420.72,-81.83 422.54,-88.58"/>
</a>
</g>
</g>
<!-- Node16 -->
<g id="Node000016" class="node">
<title>Node16</title>
<g id="a_Node000016"><a xlink:title=" ">
<polygon fill="#e0e0e0" stroke="#999999" points="494,-145.5 446,-145.5 446,-126.5 494,-126.5 494,-145.5"/>
<text text-anchor="middle" x="470" y="-133.5" font-family="Helvetica,sans-Serif" font-size="10.00">mutex</text>
</a>
</g>
</g>
<!-- Node12&#45;&gt;Node16 -->
<g id="edge18_Node000012_Node000016" class="edge">
<title>Node12&#45;&gt;Node16</title>
<g id="a_edge18_Node000012_Node000016"><a xlink:title=" ">
<path fill="none" stroke="#63b8ff" d="M427.61,-192.37C435.09,-182.59 447.47,-166.42 456.93,-154.08"/>
<polygon fill="#63b8ff" stroke="#63b8ff" points="459.88,-155.97 463.18,-145.91 454.32,-151.72 459.88,-155.97"/>
</a>
</g>
</g>
<!-- Node17&#45;&gt;Node2 -->
<g id="edge20_Node000017_Node000002" class="edge">
<title>Node17&#45;&gt;Node2</title>
<g id="a_edge20_Node000017_Node000002"><a xlink:title=" ">
<path fill="none" stroke="#63b8ff" d="M148.19,-192.47C159.57,-190.54 171.7,-188.6 183,-187 324.71,-166.95 363.73,-183.98 503,-151 505.51,-150.4 508.09,-149.69 510.66,-148.91"/>
<polygon fill="#63b8ff" stroke="#63b8ff" points="512.02,-152.14 520.37,-145.62 509.78,-145.51 512.02,-152.14"/>
</a>
</g>
</g>
<!-- Node17&#45;&gt;Node8 -->
<g id="edge23_Node000017_Node000008" class="edge">
<title>Node17&#45;&gt;Node8</title>
<g id="a_edge23_Node000017_Node000008"><a xlink:title=" ">
<path fill="none" stroke="#63b8ff" d="M101.91,-192.15C103.75,-176.9 108.83,-145 121,-121 126.26,-110.62 134.33,-100.53 141.59,-92.59"/>
<polygon fill="#63b8ff" stroke="#63b8ff" points="144.32,-94.8 148.72,-85.17 139.27,-89.96 144.32,-94.8"/>
</a>
</g>
</g>
<!-- Node17&#45;&gt;Node9 -->
<g id="edge22_Node000017_Node000009" class="edge">
<title>Node17&#45;&gt;Node9</title>
<g id="a_edge22_Node000017_Node000009"><a xlink:title=" ">
<path fill="none" stroke="#63b8ff" d="M132.68,-192.41C155.24,-184.84 184.83,-171.72 204,-151 235.11,-117.37 248.77,-63.36 254.07,-34.92"/>
<polygon fill="#63b8ff" stroke="#63b8ff" points="257.57,-35.19 255.81,-24.74 250.67,-34.01 257.57,-35.19"/>
</a>
</g>
</g>
<!-- Node18 -->
<g id="Node000018" class="node">
<title>Node18</title>
<g id="a_Node000018"><a xlink:title=" ">
<polygon fill="#e0e0e0" stroke="#999999" points="194.5,-145.5 129.5,-145.5 129.5,-126.5 194.5,-126.5 194.5,-145.5"/>
<text text-anchor="middle" x="162" y="-133.5" font-family="Helvetica,sans-Serif" font-size="10.00">functional</text>
</a>
</g>
</g>
<!-- Node17&#45;&gt;Node18 -->
<g id="edge21_Node000017_Node000018" class="edge">
<title>Node17&#45;&gt;Node18</title>
<g id="a_edge21_Node000017_Node000018"><a xlink:title=" ">
<path fill="none" stroke="#63b8ff" d="M109.23,-192.37C118.72,-182.4 134.56,-165.79 146.41,-153.36"/>
<polygon fill="#63b8ff" stroke="#63b8ff" points="149.15,-155.56 153.51,-145.91 144.08,-150.73 149.15,-155.56"/>
</a>
</g>
</g>
<!-- Node19&#45;&gt;Node17 -->
<g id="edge25_Node000019_Node000017" class="edge">
<title>Node19&#45;&gt;Node17</title>
<g id="a_edge25_Node000019_Node000017"><a xlink:title=" ">
<path fill="none" stroke="#63b8ff" d="M263.8,-324.48C229.93,-317.55 189.07,-305.13 158,-283 135.5,-266.97 118.65,-239.19 109.31,-220.95"/>
<polygon fill="#63b8ff" stroke="#63b8ff" points="112.44,-219.39 104.91,-211.94 106.15,-222.46 112.44,-219.39"/>
</a>
</g>
</g>
<!-- Node20 -->
<g id="Node000020" class="node">
<title>Node20</title>
<g id="a_Node000020"><a xlink:href="lightweight__di__container_8h.html" target="_top" xlink:title="Lightweight dependency injection container implementation.">
<polygon fill="white" stroke="#666666" points="484.5,-277.5 339.5,-277.5 339.5,-258.5 484.5,-258.5 484.5,-277.5"/>
<text text-anchor="middle" x="412" y="-265.5" font-family="Helvetica,sans-Serif" font-size="10.00">lightweight_di_container.h</text>
</a>
</g>
</g>
<!-- Node19&#45;&gt;Node20 -->
<g id="edge26_Node000019_Node000020" class="edge">
<title>Node19&#45;&gt;Node20</title>
<g id="a_edge26_Node000019_Node000020"><a xlink:title=" ">
<path fill="none" stroke="#63b8ff" d="M339.33,-324.37C352.86,-314.06 375.72,-296.65 392.19,-284.09"/>
<polygon fill="#63b8ff" stroke="#63b8ff" points="394.75,-286.54 400.58,-277.7 390.51,-280.98 394.75,-286.54"/>
</a>
</g>
</g>
<!-- Node21 -->
<g id="Node000021" class="node">
<title>Node21</title>
<g id="a_Node000021"><a xlink:href="thread__system__di__adapter_8h.html" target="_top" xlink:title="Adapter for thread_system&#39;s service container.">
<polygon fill="white" stroke="#666666" points="321.5,-277.5 166.5,-277.5 166.5,-258.5 321.5,-258.5 321.5,-277.5"/>
<text text-anchor="middle" x="244" y="-265.5" font-family="Helvetica,sans-Serif" font-size="10.00">thread_system_di_adapter.h</text>
</a>
</g>
</g>
<!-- Node19&#45;&gt;Node21 -->
<g id="edge30_Node000019_Node000021" class="edge">
<title>Node19&#45;&gt;Node21</title>
<g id="a_edge30_Node000019_Node000021"><a xlink:title=" ">
<path fill="none" stroke="#63b8ff" d="M316.67,-324.37C303.14,-314.06 280.28,-296.65 263.81,-284.09"/>
<polygon fill="#63b8ff" stroke="#63b8ff" points="265.49,-280.98 255.42,-277.7 261.25,-286.54 265.49,-280.98"/>
</a>
</g>
</g>
<!-- Node20&#45;&gt;Node15 -->
<g id="edge28_Node000020_Node000015" class="edge">
<title>Node20&#45;&gt;Node15</title>
<g id="a_edge28_Node000020_Node000015"><a xlink:title=" ">
<path fill="none" stroke="#63b8ff" d="M391.17,-258.39C374.75,-250.35 353.02,-236.63 343,-217 331.42,-194.31 352.39,-126.32 357,-121 373.35,-102.12 398.43,-91.25 421.52,-84.99"/>
<polygon fill="#63b8ff" stroke="#63b8ff" points="422.4,-88.37 431.27,-82.57 420.72,-81.58 422.4,-88.37"/>
</a>
</g>
</g>
<!-- Node20&#45;&gt;Node16 -->
<g id="edge29_Node000020_Node000016" class="edge">
<title>Node20&#45;&gt;Node16</title>
<g id="a_edge29_Node000020_Node000016"><a xlink:title=" ">
<path fill="none" stroke="#63b8ff" d="M442.31,-258.35C462.27,-250.9 486.87,-237.96 499,-217 510.74,-196.72 496.79,-170.85 484.49,-154.11"/>
<polygon fill="#63b8ff" stroke="#63b8ff" points="486.93,-151.55 478,-145.85 481.42,-155.87 486.93,-151.55"/>
</a>
</g>
</g>
<!-- Node20&#45;&gt;Node17 -->
<g id="edge27_Node000020_Node000017" class="edge">
<title>Node20&#45;&gt;Node17</title>
<g id="a_edge27_Node000020_Node000017"><a xlink:title=" ">
<path fill="none" stroke="#63b8ff" d="M370.38,-258.44C313.94,-246.82 213.18,-226.09 152.18,-213.53"/>
<polygon fill="#63b8ff" stroke="#63b8ff" points="152.87,-210.1 142.37,-211.51 151.46,-216.96 152.87,-210.1"/>
</a>
</g>
</g>
<!-- Node21&#45;&gt;Node17 -->
<g id="edge31_Node000021_Node000017" class="edge">
<title>Node21&#45;&gt;Node17</title>
<g id="a_edge31_Node000021_Node000017"><a xlink:title=" ">
<path fill="none" stroke="#63b8ff" d="M224.71,-258.37C200.3,-247.44 158.03,-228.52 129.79,-215.88"/>
<polygon fill="#63b8ff" stroke="#63b8ff" points="130.99,-212.59 120.44,-211.7 128.13,-218.98 130.99,-212.59"/>
</a>
</g>
</g>
<!-- Node22 -->
<g id="Node000022" class="node">
<title>Node22</title>
<g id="a_Node000022"><a xlink:title=" ">
<polygon fill="#e0e0e0" stroke="#999999" points="296,-217 192,-217 192,-187 296,-187 296,-217"/>
<text text-anchor="start" x="200" y="-205" font-family="Helvetica,sans-Serif" font-size="10.00">interfaces/service</text>
<text text-anchor="middle" x="244" y="-194" font-family="Helvetica,sans-Serif" font-size="10.00">_container.h</text>
</a>
</g>
</g>
<!-- Node21&#45;&gt;Node22 -->
<g id="edge32_Node000021_Node000022" class="edge">
<title>Node21&#45;&gt;Node22</title>
<g id="a_edge32_Node000021_Node000022"><a xlink:title=" ">
<path fill="none" stroke="#63b8ff" d="M244,-258.37C244,-250.49 244,-238.45 244,-227.6"/>
<polygon fill="#63b8ff" stroke="#63b8ff" points="247.5,-227.36 244,-217.36 240.5,-227.36 247.5,-227.36"/>
</a>
</g>
</g>
<!-- Node23&#45;&gt;Node3 -->
<g id="edge36_Node000023_Node000003" class="edge">
<title>Node23&#45;&gt;Node3</title>
<g id="a_edge36_Node000023_Node000003"><a xlink:title=" ">
<path fill="none" stroke="#63b8ff" d="M945.9,-120.99C967.13,-111.36 995.11,-98.67 1015.75,-89.31"/>
<polygon fill="#63b8ff" stroke="#63b8ff" points="1017.29,-92.46 1024.95,-85.14 1014.4,-86.08 1017.29,-92.46"/>
</a>
</g>
</g>
<!-- Node23&#45;&gt;Node4 -->
<g id="edge38_Node000023_Node000004" class="edge">
<title>Node23&#45;&gt;Node4</title>
<g id="a_edge38_Node000023_Node000004"><a xlink:title=" ">
<path fill="none" stroke="#63b8ff" d="M895.15,-120.84C882.52,-111.83 866.2,-100.18 853.45,-91.09"/>
<polygon fill="#63b8ff" stroke="#63b8ff" points="855.46,-88.22 845.29,-85.27 851.4,-93.92 855.46,-88.22"/>
</a>
</g>
</g>
<!-- Node23&#45;&gt;Node8 -->
<g id="edge39_Node000023_Node000008" class="edge">
<title>Node23&#45;&gt;Node8</title>
<g id="a_edge39_Node000023_Node000008"><a xlink:title=" ">
<path fill="none" stroke="#63b8ff" d="M851.96,-126.34C836.61,-124.41 820.23,-122.49 805,-121 584.09,-99.36 319.73,-84.66 209.85,-79.04"/>
<polygon fill="#63b8ff" stroke="#63b8ff" points="209.87,-75.54 199.7,-78.53 209.51,-82.53 209.87,-75.54"/>
</a>
</g>
</g>
<!-- Node23&#45;&gt;Node9 -->
<g id="edge34_Node000023_Node000009" class="edge">
<title>Node23&#45;&gt;Node9</title>
<g id="a_edge34_Node000023_Node000009"><a xlink:title=" ">
<path fill="none" stroke="#63b8ff" d="M909.54,-120.77C902.45,-104.43 888.37,-78.3 867,-66 816.71,-37.05 408.14,-21.1 289.31,-17.04"/>
<polygon fill="#63b8ff" stroke="#63b8ff" points="289.16,-13.54 279.04,-16.7 288.92,-20.53 289.16,-13.54"/>
</a>
</g>
</g>
<!-- Node23&#45;&gt;Node13 -->
<g id="edge37_Node000023_Node000013" class="edge">
<title>Node23&#45;&gt;Node13</title>
<g id="a_edge37_Node000023_Node000013"><a xlink:title=" ">
<path fill="none" stroke="#63b8ff" d="M864.46,-120.99C825.79,-110.27 773.45,-95.75 739.22,-86.26"/>
<polygon fill="#63b8ff" stroke="#63b8ff" points="739.78,-82.79 729.21,-83.49 737.91,-89.53 739.78,-82.79"/>
</a>
</g>
</g>
<!-- Node23&#45;&gt;Node15 -->
<g id="edge35_Node000023_Node000015" class="edge">
<title>Node23&#45;&gt;Node15</title>
<g id="a_edge35_Node000023_Node000015"><a xlink:title=" ">
<path fill="none" stroke="#63b8ff" d="M851.92,-126.56C766.81,-115.16 616.46,-95.03 534.73,-84.09"/>
<polygon fill="#63b8ff" stroke="#63b8ff" points="535.01,-80.6 524.64,-82.74 534.08,-87.54 535.01,-80.6"/>
</a>
</g>
</g>
<!-- Node24&#45;&gt;Node2 -->
<g id="edge56_Node000024_Node000002" class="edge">
<title>Node24&#45;&gt;Node2</title>
<g id="a_edge56_Node000024_Node000002"><a xlink:title=" ">
<path fill="none" stroke="#63b8ff" d="M731.31,-318.9C712.67,-310.04 689.42,-297.54 671,-283 620.76,-243.34 573.99,-182.88 552.84,-153.79"/>
<polygon fill="#63b8ff" stroke="#63b8ff" points="555.58,-151.6 546.91,-145.51 549.89,-155.68 555.58,-151.6"/>
</a>
</g>
</g>
<!-- Node24&#45;&gt;Node23 -->
<g id="edge41_Node000024_Node000023" class="edge">
<title>Node24&#45;&gt;Node23</title>
<g id="a_edge41_Node000024_Node000023"><a xlink:title=" ">
<path fill="none" stroke="#63b8ff" d="M794.8,-318.98C829.99,-301.04 885.73,-266.26 909,-217 917.17,-199.71 918.3,-177.95 917.59,-161.49"/>
<polygon fill="#63b8ff" stroke="#63b8ff" points="921.05,-160.8 916.88,-151.06 914.07,-161.28 921.05,-160.8"/>
</a>
</g>
</g>
<!-- Node25 -->
<g id="Node000025" class="node">
<title>Node25</title>
<g id="a_Node000025"><a xlink:href="basic__monitor_8h.html" target="_top" xlink:title="Basic monitoring implementation with no external dependencies.">
<polygon fill="white" stroke="#666666" points="716,-211.5 622,-211.5 622,-192.5 716,-192.5 716,-211.5"/>
<text text-anchor="middle" x="669" y="-199.5" font-family="Helvetica,sans-Serif" font-size="10.00">basic_monitor.h</text>
</a>
</g>
</g>
<!-- Node24&#45;&gt;Node25 -->
<g id="edge42_Node000024_Node000025" class="edge">
<title>Node24&#45;&gt;Node25</title>
<g id="a_edge42_Node000024_Node000025"><a xlink:title=" ">
<path fill="none" stroke="#63b8ff" d="M732.53,-318.86C717.26,-310.49 699.91,-298.48 689,-283 676.2,-264.84 671.57,-239.3 669.91,-222"/>
<polygon fill="#63b8ff" stroke="#63b8ff" points="673.36,-221.26 669.17,-211.53 666.38,-221.75 673.36,-221.26"/>
</a>
</g>
</g>
<!-- Node27 -->
<g id="Node000027" class="node">
<title>Node27</title>
<g id="a_Node000027"><a xlink:href="thread__system__monitor__adapter_8h.html" target="_top" xlink:title="Adapter for thread_system&#39;s monitoring capabilities.">
<polygon fill="white" stroke="#666666" points="830.5,-283 697.5,-283 697.5,-253 830.5,-253 830.5,-283"/>
<text text-anchor="start" x="705.5" y="-271" font-family="Helvetica,sans-Serif" font-size="10.00">thread_system_monitor</text>
<text text-anchor="middle" x="764" y="-260" font-family="Helvetica,sans-Serif" font-size="10.00">_adapter.h</text>
</a>
</g>
</g>
<!-- Node24&#45;&gt;Node27 -->
<g id="edge52_Node000024_Node000027" class="edge">
<title>Node24&#45;&gt;Node27</title>
<g id="a_edge52_Node000024_Node000027"><a xlink:title=" ">
<path fill="none" stroke="#63b8ff" d="M764,-318.8C764,-311.34 764,-301.99 764,-293.41"/>
<polygon fill="#63b8ff" stroke="#63b8ff" points="767.5,-293.16 764,-283.16 760.5,-293.16 767.5,-293.16"/>
</a>
</g>
</g>
<!-- Node25&#45;&gt;Node2 -->
<g id="edge45_Node000025_Node000002" class="edge">
<title>Node25&#45;&gt;Node2</title>
<g id="a_edge45_Node000025_Node000002"><a xlink:title=" ">
<path fill="none" stroke="#63b8ff" d="M651.74,-192.37C630.08,-181.54 592.71,-162.85 567.43,-150.22"/>
<polygon fill="#63b8ff" stroke="#63b8ff" points="568.91,-147.04 558.4,-145.7 565.78,-153.3 568.91,-147.04"/>
</a>
</g>
</g>
<!-- Node25&#45;&gt;Node3 -->
<g id="edge47_Node000025_Node000003" class="edge">
<title>Node25&#45;&gt;Node3</title>
<g id="a_edge47_Node000025_Node000003"><a xlink:title=" ">
<path fill="none" stroke="#63b8ff" d="M716.09,-193.82C803.9,-180.41 984.1,-152.73 987,-151 1009.46,-137.63 1026.16,-111.74 1035.5,-94.29"/>
<polygon fill="#63b8ff" stroke="#63b8ff" points="1038.73,-95.64 1040.13,-85.14 1032.49,-92.48 1038.73,-95.64"/>
</a>
</g>
</g>
<!-- Node25&#45;&gt;Node4 -->
<g id="edge46_Node000025_Node000004" class="edge">
<title>Node25&#45;&gt;Node4</title>
<g id="a_edge46_Node000025_Node000004"><a xlink:title=" ">
<path fill="none" stroke="#63b8ff" d="M716.25,-193.86C745.21,-187.24 781.17,-174.66 805,-151 820.14,-135.97 827.2,-111.98 830.42,-95.29"/>
<polygon fill="#63b8ff" stroke="#63b8ff" points="833.93,-95.55 832.09,-85.11 827.02,-94.42 833.93,-95.55"/>
</a>
</g>
</g>
<!-- Node25&#45;&gt;Node13 -->
<g id="edge49_Node000025_Node000013" class="edge">
<title>Node25&#45;&gt;Node13</title>
<g id="a_edge49_Node000025_Node000013"><a xlink:title=" ">
<path fill="none" stroke="#63b8ff" d="M671.41,-192.44C677.03,-172.45 691.12,-122.32 698.8,-94.98"/>
<polygon fill="#63b8ff" stroke="#63b8ff" points="702.24,-95.69 701.58,-85.12 695.5,-93.8 702.24,-95.69"/>
</a>
</g>
</g>
<!-- Node25&#45;&gt;Node14 -->
<g id="edge51_Node000025_Node000014" class="edge">
<title>Node25&#45;&gt;Node14</title>
<g id="a_edge51_Node000025_Node000014"><a xlink:title=" ">
<path fill="none" stroke="#63b8ff" d="M661.45,-192.37C652.81,-182.5 638.47,-166.11 627.63,-153.72"/>
<polygon fill="#63b8ff" stroke="#63b8ff" points="630.01,-151.13 620.79,-145.91 624.74,-155.74 630.01,-151.13"/>
</a>
</g>
</g>
<!-- Node25&#45;&gt;Node15 -->
<g id="edge48_Node000025_Node000015" class="edge">
<title>Node25&#45;&gt;Node15</title>
<g id="a_edge48_Node000025_Node000015"><a xlink:title=" ">
<path fill="none" stroke="#63b8ff" d="M669.25,-192.15C669.21,-175.72 666.66,-140.45 647,-121 617.52,-91.84 571.36,-81.13 534.73,-77.49"/>
<polygon fill="#63b8ff" stroke="#63b8ff" points="534.93,-73.99 524.67,-76.63 534.34,-80.97 534.93,-73.99"/>
</a>
</g>
</g>
<!-- Node25&#45;&gt;Node16 -->
<g id="edge44_Node000025_Node000016" class="edge">
<title>Node25&#45;&gt;Node16</title>
<g id="a_edge44_Node000025_Node000016"><a xlink:title=" ">
<path fill="none" stroke="#63b8ff" d="M636.84,-192.43C603.15,-183.2 548.85,-167.58 503,-151 501.61,-150.5 500.19,-149.97 498.77,-149.42"/>
<polygon fill="#63b8ff" stroke="#63b8ff" points="499.99,-146.14 489.4,-145.65 497.37,-152.63 499.99,-146.14"/>
</a>
</g>
</g>
<!-- Node25&#45;&gt;Node23 -->
<g id="edge43_Node000025_Node000023" class="edge">
<title>Node25&#45;&gt;Node23</title>
<g id="a_edge43_Node000025_Node000023"><a xlink:title=" ">
<path fill="none" stroke="#63b8ff" d="M701.92,-192.44C739.93,-182.55 803.36,-166.05 851.15,-153.61"/>
<polygon fill="#63b8ff" stroke="#63b8ff" points="852.3,-156.93 861.09,-151.02 850.53,-150.16 852.3,-156.93"/>
</a>
</g>
</g>
<!-- Node26 -->
<g id="Node000026" class="node">
<title>Node26</title>
<g id="a_Node000026"><a xlink:title=" ">
<polygon fill="#e0e0e0" stroke="#999999" points="796,-145.5 732,-145.5 732,-126.5 796,-126.5 796,-145.5"/>
<text text-anchor="middle" x="764" y="-133.5" font-family="Helvetica,sans-Serif" font-size="10.00">algorithm</text>
</a>
</g>
</g>
<!-- Node25&#45;&gt;Node26 -->
<g id="edge50_Node000025_Node000026" class="edge">
<title>Node25&#45;&gt;Node26</title>
<g id="a_edge50_Node000025_Node000026"><a xlink:title=" ">
<path fill="none" stroke="#63b8ff" d="M681.81,-192.37C697.39,-181.87 723.93,-164 742.62,-151.4"/>
<polygon fill="#63b8ff" stroke="#63b8ff" points="744.75,-154.19 751.09,-145.7 740.84,-148.38 744.75,-154.19"/>
</a>
</g>
</g>
<!-- Node27&#45;&gt;Node23 -->
<g id="edge53_Node000027_Node000023" class="edge">
<title>Node27&#45;&gt;Node23</title>
<g id="a_edge53_Node000027_Node000023"><a xlink:title=" ">
<path fill="none" stroke="#63b8ff" d="M759.14,-252.76C754.2,-235.47 749.07,-206.24 763,-187 772.93,-173.28 807.9,-161.28 841.79,-152.48"/>
<polygon fill="#63b8ff" stroke="#63b8ff" points="842.93,-155.8 851.78,-149.97 841.22,-149.02 842.93,-155.8"/>
</a>
</g>
</g>
<!-- Node27&#45;&gt;Node25 -->
<g id="edge54_Node000027_Node000025" class="edge">
<title>Node27&#45;&gt;Node25</title>
<g id="a_edge54_Node000027_Node000025"><a xlink:title=" ">
<path fill="none" stroke="#63b8ff" d="M742.92,-252.8C727.29,-242.27 706.07,-227.97 690.37,-217.4"/>
<polygon fill="#63b8ff" stroke="#63b8ff" points="692.1,-214.34 681.85,-211.66 688.19,-220.15 692.1,-214.34"/>
</a>
</g>
</g>
<!-- Node28 -->
<g id="Node000028" class="node">
<title>Node28</title>
<g id="a_Node000028"><a xlink:title=" ">
<polygon fill="#e0e0e0" stroke="#999999" points="900,-217 772,-217 772,-187 900,-187 900,-217"/>
<text text-anchor="start" x="780" y="-205" font-family="Helvetica,sans-Serif" font-size="10.00">interfaces/monitorable</text>
<text text-anchor="middle" x="836" y="-194" font-family="Helvetica,sans-Serif" font-size="10.00">_interface.h</text>
</a>
</g>
</g>
<!-- Node27&#45;&gt;Node28 -->
<g id="edge55_Node000027_Node000028" class="edge">
<title>Node27&#45;&gt;Node28</title>
<g id="a_edge55_Node000027_Node000028"><a xlink:title=" ">
<path fill="none" stroke="#63b8ff" d="M779.98,-252.8C789.49,-244.34 801.73,-233.46 812.34,-224.03"/>
<polygon fill="#63b8ff" stroke="#63b8ff" points="814.92,-226.42 820.07,-217.16 810.27,-221.19 814.92,-226.42"/>
</a>
</g>
</g>
</g>
</svg>
