<?xml version="1.0" encoding="UTF-8" standalone="no"?>
<!DOCTYPE svg PUBLIC "-//W3C//DTD SVG 1.1//EN"
 "http://www.w3.org/Graphics/SVG/1.1/DTD/svg11.dtd">
<!-- Generated by graphviz version 2.43.0 (0)
 -->
<!-- Title: monitoring_interface.h Pages: 1 -->
<svg width="479pt" height="137pt"
 viewBox="0.00 0.00 478.89 137.00" xmlns="http://www.w3.org/2000/svg" xmlns:xlink="http://www.w3.org/1999/xlink">
<g id="graph0" class="graph" transform="scale(1 1) rotate(0) translate(4 133)">
<title>monitoring_interface.h</title>
<!-- Node1 -->
<g id="Node000001" class="node">
<title>Node1</title>
<g id="a_Node000001"><a xlink:title="Abstract interface for monitoring and metrics collection.">
<polygon fill="#999999" stroke="#666666" points="246.39,-129 118.39,-129 118.39,-110 246.39,-110 246.39,-129"/>
<text text-anchor="middle" x="182.39" y="-117" font-family="Helvetica,sans-Serif" font-size="10.00">monitoring_interface.h</text>
</a>
</g>
</g>
<!-- Node2 -->
<g id="Node000002" class="node">
<title>Node2</title>
<g id="a_Node000002"><a xlink:title=" ">
<polygon fill="#e0e0e0" stroke="#999999" points="126.39,-19 82.39,-19 82.39,0 126.39,0 126.39,-19"/>
<text text-anchor="middle" x="104.39" y="-7" font-family="Helvetica,sans-Serif" font-size="10.00">string</text>
</a>
</g>
</g>
<!-- Node1&#45;&gt;Node2 -->
<g id="edge1_Node000001_Node000002" class="edge">
<title>Node1&#45;&gt;Node2</title>
<g id="a_edge1_Node000001_Node000002"><a xlink:title=" ">
<path fill="none" stroke="#63b8ff" d="M117.98,-110.66C73.29,-103.74 19.37,-91.93 5.39,-74 -16.19,-46.33 35.81,-27.19 72.33,-17.6"/>
<polygon fill="#63b8ff" stroke="#63b8ff" points="73.29,-20.97 82.15,-15.15 71.6,-14.18 73.29,-20.97"/>
</a>
</g>
</g>
<!-- Node3 -->
<g id="Node000003" class="node">
<title>Node3</title>
<g id="a_Node000003"><a xlink:title=" ">
<polygon fill="#e0e0e0" stroke="#999999" points="107.89,-74 14.89,-74 14.89,-55 107.89,-55 107.89,-74"/>
<text text-anchor="middle" x="61.39" y="-62" font-family="Helvetica,sans-Serif" font-size="10.00">unordered_map</text>
</a>
</g>
</g>
<!-- Node1&#45;&gt;Node3 -->
<g id="edge2_Node000001_Node000003" class="edge">
<title>Node1&#45;&gt;Node3</title>
<g id="a_edge2_Node000001_Node000003"><a xlink:title=" ">
<path fill="none" stroke="#63b8ff" d="M162.95,-109.98C143.39,-101.42 113.01,-88.11 90.56,-78.28"/>
<polygon fill="#63b8ff" stroke="#63b8ff" points="91.75,-74.98 81.18,-74.17 88.94,-81.39 91.75,-74.98"/>
</a>
</g>
</g>
<!-- Node4 -->
<g id="Node000004" class="node">
<title>Node4</title>
<g id="a_Node000004"><a xlink:title=" ">
<polygon fill="#e0e0e0" stroke="#999999" points="172.89,-74 125.89,-74 125.89,-55 172.89,-55 172.89,-74"/>
<text text-anchor="middle" x="149.39" y="-62" font-family="Helvetica,sans-Serif" font-size="10.00">vector</text>
</a>
</g>
</g>
<!-- Node1&#45;&gt;Node4 -->
<g id="edge3_Node000001_Node000004" class="edge">
<title>Node1&#45;&gt;Node4</title>
<g id="a_edge3_Node000001_Node000004"><a xlink:title=" ">
<path fill="none" stroke="#63b8ff" d="M176.94,-109.75C172.37,-102.42 165.72,-91.73 160.09,-82.7"/>
<polygon fill="#63b8ff" stroke="#63b8ff" points="162.99,-80.73 154.74,-74.09 157.05,-84.43 162.99,-80.73"/>
</a>
</g>
</g>
<!-- Node5 -->
<g id="Node000005" class="node">
<title>Node5</title>
<g id="a_Node000005"><a xlink:title=" ">
<polygon fill="#e0e0e0" stroke="#999999" points="241.39,-74 191.39,-74 191.39,-55 241.39,-55 241.39,-74"/>
<text text-anchor="middle" x="216.39" y="-62" font-family="Helvetica,sans-Serif" font-size="10.00">chrono</text>
</a>
</g>
</g>
<!-- Node1&#45;&gt;Node5 -->
<g id="edge4_Node000001_Node000005" class="edge">
<title>Node1&#45;&gt;Node5</title>
<g id="a_edge4_Node000001_Node000005"><a xlink:title=" ">
<path fill="none" stroke="#63b8ff" d="M188,-109.75C192.71,-102.42 199.56,-91.73 205.36,-82.7"/>
<polygon fill="#63b8ff" stroke="#63b8ff" points="208.42,-84.4 210.88,-74.09 202.53,-80.62 208.42,-84.4"/>
</a>
</g>
</g>
<!-- Node6 -->
<g id="Node000006" class="node">
<title>Node6</title>
<g id="a_Node000006"><a xlink:title=" ">
<polygon fill="#e0e0e0" stroke="#999999" points="309.39,-74 259.39,-74 259.39,-55 309.39,-55 309.39,-74"/>
<text text-anchor="middle" x="284.39" y="-62" font-family="Helvetica,sans-Serif" font-size="10.00">atomic</text>
</a>
</g>
</g>
<!-- Node1&#45;&gt;Node6 -->
<g id="edge5_Node000001_Node000006" class="edge">
<title>Node1&#45;&gt;Node6</title>
<g id="a_edge5_Node000001_Node000006"><a xlink:title=" ">
<path fill="none" stroke="#63b8ff" d="M198.78,-109.98C214.96,-101.57 239.96,-88.59 258.77,-78.81"/>
<polygon fill="#63b8ff" stroke="#63b8ff" points="260.44,-81.89 267.7,-74.17 257.21,-75.68 260.44,-81.89"/>
</a>
</g>
</g>
<!-- Node7 -->
<g id="Node000007" class="node">
<title>Node7</title>
<g id="a_Node000007"><a xlink:href="error__codes_8h.html" target="_top" xlink:title=" ">
<polygon fill="white" stroke="#666666" points="419.39,-74 327.39,-74 327.39,-55 419.39,-55 419.39,-74"/>
<text text-anchor="middle" x="373.39" y="-62" font-family="Helvetica,sans-Serif" font-size="10.00">../error_codes.h</text>
</a>
</g>
</g>
<!-- Node1&#45;&gt;Node7 -->
<g id="edge6_Node000001_Node000007" class="edge">
<title>Node1&#45;&gt;Node7</title>
<g id="a_edge6_Node000001_Node000007"><a xlink:title=" ">
<path fill="none" stroke="#63b8ff" d="M213.08,-109.98C245.56,-100.97 296.98,-86.7 332.8,-76.76"/>
<polygon fill="#63b8ff" stroke="#63b8ff" points="333.76,-80.13 342.46,-74.08 331.89,-73.38 333.76,-80.13"/>
</a>
</g>
</g>
<!-- Node7&#45;&gt;Node2 -->
<g id="edge7_Node000007_Node000002" class="edge">
<title>Node7&#45;&gt;Node2</title>
<g id="a_edge7_Node000007_Node000002"><a xlink:title=" ">
<path fill="none" stroke="#63b8ff" d="M330.17,-54.98C276.07,-44.33 184.66,-26.32 136.42,-16.81"/>
<polygon fill="#63b8ff" stroke="#63b8ff" points="137.02,-13.36 126.53,-14.86 135.66,-20.23 137.02,-13.36"/>
</a>
</g>
</g>
<!-- Node8 -->
<g id="Node000008" class="node">
<title>Node8</title>
<g id="a_Node000008"><a xlink:title=" ">
<polygon fill="#e0e0e0" stroke="#999999" points="326.89,-19 261.89,-19 261.89,0 326.89,0 326.89,-19"/>
<text text-anchor="middle" x="294.39" y="-7" font-family="Helvetica,sans-Serif" font-size="10.00">stdexcept</text>
</a>
</g>
</g>
<!-- Node7&#45;&gt;Node8 -->
<g id="edge8_Node000007_Node000008" class="edge">
<title>Node7&#45;&gt;Node8</title>
<g id="a_edge8_Node000007_Node000008"><a xlink:title=" ">
<path fill="none" stroke="#63b8ff" d="M360.7,-54.98C348.56,-46.84 330.03,-34.41 315.64,-24.76"/>
<polygon fill="#63b8ff" stroke="#63b8ff" points="317.57,-21.84 307.31,-19.17 313.67,-27.65 317.57,-21.84"/>
</a>
</g>
</g>
<!-- Node9 -->
<g id="Node000009" class="node">
<title>Node9</title>
<g id="a_Node000009"><a xlink:title=" ">
<polygon fill="#e0e0e0" stroke="#999999" points="401.39,-19 345.39,-19 345.39,0 401.39,0 401.39,-19"/>
<text text-anchor="middle" x="373.39" y="-7" font-family="Helvetica,sans-Serif" font-size="10.00">optional</text>
</a>
</g>
</g>
<!-- Node7&#45;&gt;Node9 -->
<g id="edge9_Node000007_Node000009" class="edge">
<title>Node7&#45;&gt;Node9</title>
<g id="a_edge9_Node000007_Node000009"><a xlink:title=" ">
<path fill="none" stroke="#63b8ff" d="M373.39,-54.75C373.39,-47.8 373.39,-37.85 373.39,-29.13"/>
<polygon fill="#63b8ff" stroke="#63b8ff" points="376.89,-29.09 373.39,-19.09 369.89,-29.09 376.89,-29.09"/>
</a>
</g>
</g>
<!-- Node10 -->
<g id="Node000010" class="node">
<title>Node10</title>
<g id="a_Node000010"><a xlink:title=" ">
<polygon fill="#e0e0e0" stroke="#999999" points="470.89,-19 419.89,-19 419.89,0 470.89,0 470.89,-19"/>
<text text-anchor="middle" x="445.39" y="-7" font-family="Helvetica,sans-Serif" font-size="10.00">variant</text>
</a>
</g>
</g>
<!-- Node7&#45;&gt;Node10 -->
<g id="edge10_Node000007_Node000010" class="edge">
<title>Node7&#45;&gt;Node10</title>
<g id="a_edge10_Node000007_Node000010"><a xlink:title=" ">
<path fill="none" stroke="#63b8ff" d="M384.96,-54.98C395.81,-47 412.27,-34.88 425.27,-25.31"/>
<polygon fill="#63b8ff" stroke="#63b8ff" points="427.63,-27.92 433.61,-19.17 423.48,-22.28 427.63,-27.92"/>
</a>
</g>
</g>
</g>
</svg>
