<?xml version="1.0" encoding="UTF-8" standalone="no"?>
<!DOCTYPE svg PUBLIC "-//W3C//DTD SVG 1.1//EN"
 "http://www.w3.org/Graphics/SVG/1.1/DTD/svg11.dtd">
<!-- Generated by graphviz version 2.43.0 (0)
 -->
<!-- Title: /home/runner/work/logger_system/logger_system/sources/logger/monitoring/monitoring_interface.h Pages: 1 -->
<svg width="550pt" height="181pt"
 viewBox="0.00 0.00 550.19 181.00" xmlns="http://www.w3.org/2000/svg" xmlns:xlink="http://www.w3.org/1999/xlink">
<g id="graph0" class="graph" transform="scale(1 1) rotate(0) translate(4 177)">
<title>/home/runner/work/logger_system/logger_system/sources/logger/monitoring/monitoring_interface.h</title>
<!-- Node1 -->
<g id="Node000001" class="node">
<title>Node1</title>
<g id="a_Node000001"><a xlink:title="Abstract interface for monitoring and metrics collection.">
<polygon fill="#999999" stroke="#666666" points="268.69,-173 95.69,-173 95.69,-121 268.69,-121 268.69,-173"/>
<text text-anchor="start" x="103.69" y="-161" font-family="Helvetica,sans-Serif" font-size="10.00">/home/runner/work/logger</text>
<text text-anchor="start" x="103.69" y="-150" font-family="Helvetica,sans-Serif" font-size="10.00">_system/logger_system/sources</text>
<text text-anchor="start" x="103.69" y="-139" font-family="Helvetica,sans-Serif" font-size="10.00">/logger/monitoring/monitoring</text>
<text text-anchor="middle" x="182.19" y="-128" font-family="Helvetica,sans-Serif" font-size="10.00">_interface.h</text>
</a>
</g>
</g>
<!-- Node2 -->
<g id="Node000002" class="node">
<title>Node2</title>
<g id="a_Node000002"><a xlink:title=" ">
<polygon fill="#e0e0e0" stroke="#999999" points="129.19,-24.5 85.19,-24.5 85.19,-5.5 129.19,-5.5 129.19,-24.5"/>
<text text-anchor="middle" x="107.19" y="-12.5" font-family="Helvetica,sans-Serif" font-size="10.00">string</text>
</a>
</g>
</g>
<!-- Node1&#45;&gt;Node2 -->
<g id="edge1_Node000001_Node000002" class="edge">
<title>Node1&#45;&gt;Node2</title>
<g id="a_edge1_Node000001_Node000002"><a xlink:title=" ">
<path fill="none" stroke="#63b8ff" d="M95.4,-137.51C61.55,-129.47 25.95,-114.11 5.19,-85 -16.25,-54.93 37.7,-34.02 75.05,-23.6"/>
<polygon fill="#63b8ff" stroke="#63b8ff" points="76.3,-26.89 85.07,-20.94 74.5,-20.13 76.3,-26.89"/>
</a>
</g>
</g>
<!-- Node3 -->
<g id="Node000003" class="node">
<title>Node3</title>
<g id="a_Node000003"><a xlink:title=" ">
<polygon fill="#e0e0e0" stroke="#999999" points="107.69,-85 14.69,-85 14.69,-66 107.69,-66 107.69,-85"/>
<text text-anchor="middle" x="61.19" y="-73" font-family="Helvetica,sans-Serif" font-size="10.00">unordered_map</text>
</a>
</g>
</g>
<!-- Node1&#45;&gt;Node3 -->
<g id="edge2_Node000001_Node000003" class="edge">
<title>Node1&#45;&gt;Node3</title>
<g id="a_edge2_Node000001_Node000003"><a xlink:title=" ">
<path fill="none" stroke="#63b8ff" d="M138.51,-120.91C120.46,-110.54 100.24,-98.93 85,-90.18"/>
<polygon fill="#63b8ff" stroke="#63b8ff" points="86.64,-87.08 76.23,-85.14 83.15,-93.15 86.64,-87.08"/>
</a>
</g>
</g>
<!-- Node4 -->
<g id="Node000004" class="node">
<title>Node4</title>
<g id="a_Node000004"><a xlink:title=" ">
<polygon fill="#e0e0e0" stroke="#999999" points="172.69,-85 125.69,-85 125.69,-66 172.69,-66 172.69,-85"/>
<text text-anchor="middle" x="149.19" y="-73" font-family="Helvetica,sans-Serif" font-size="10.00">vector</text>
</a>
</g>
</g>
<!-- Node1&#45;&gt;Node4 -->
<g id="edge3_Node000001_Node000004" class="edge">
<title>Node1&#45;&gt;Node4</title>
<g id="a_edge3_Node000001_Node000004"><a xlink:title=" ">
<path fill="none" stroke="#63b8ff" d="M170.28,-120.91C166.12,-112.16 161.55,-102.52 157.72,-94.47"/>
<polygon fill="#63b8ff" stroke="#63b8ff" points="160.82,-92.83 153.37,-85.3 154.5,-95.84 160.82,-92.83"/>
</a>
</g>
</g>
<!-- Node5 -->
<g id="Node000005" class="node">
<title>Node5</title>
<g id="a_Node000005"><a xlink:title=" ">
<polygon fill="#e0e0e0" stroke="#999999" points="241.19,-85 191.19,-85 191.19,-66 241.19,-66 241.19,-85"/>
<text text-anchor="middle" x="216.19" y="-73" font-family="Helvetica,sans-Serif" font-size="10.00">chrono</text>
</a>
</g>
</g>
<!-- Node1&#45;&gt;Node5 -->
<g id="edge4_Node000001_Node000005" class="edge">
<title>Node1&#45;&gt;Node5</title>
<g id="a_edge4_Node000001_Node000005"><a xlink:title=" ">
<path fill="none" stroke="#63b8ff" d="M194.47,-120.91C198.75,-112.16 203.46,-102.52 207.4,-94.47"/>
<polygon fill="#63b8ff" stroke="#63b8ff" points="210.63,-95.82 211.89,-85.3 204.35,-92.75 210.63,-95.82"/>
</a>
</g>
</g>
<!-- Node6 -->
<g id="Node000006" class="node">
<title>Node6</title>
<g id="a_Node000006"><a xlink:title=" ">
<polygon fill="#e0e0e0" stroke="#999999" points="309.19,-85 259.19,-85 259.19,-66 309.19,-66 309.19,-85"/>
<text text-anchor="middle" x="284.19" y="-73" font-family="Helvetica,sans-Serif" font-size="10.00">atomic</text>
</a>
</g>
</g>
<!-- Node1&#45;&gt;Node6 -->
<g id="edge5_Node000001_Node000006" class="edge">
<title>Node1&#45;&gt;Node6</title>
<g id="a_edge5_Node000001_Node000006"><a xlink:title=" ">
<path fill="none" stroke="#63b8ff" d="M219.02,-120.91C233.71,-110.9 250.11,-99.72 262.78,-91.09"/>
<polygon fill="#63b8ff" stroke="#63b8ff" points="264.98,-93.83 271.27,-85.3 261.04,-88.04 264.98,-93.83"/>
</a>
</g>
</g>
<!-- Node7 -->
<g id="Node000007" class="node">
<title>Node7</title>
<g id="a_Node000007"><a xlink:href="error__codes_8h.html" target="_top" xlink:title=" ">
<polygon fill="white" stroke="#666666" points="419.19,-85 327.19,-85 327.19,-66 419.19,-66 419.19,-85"/>
<text text-anchor="middle" x="373.19" y="-73" font-family="Helvetica,sans-Serif" font-size="10.00">../error_codes.h</text>
</a>
</g>
</g>
<!-- Node1&#45;&gt;Node7 -->
<g id="edge6_Node000001_Node000007" class="edge">
<title>Node1&#45;&gt;Node7</title>
<g id="a_edge6_Node000001_Node000007"><a xlink:title=" ">
<path fill="none" stroke="#63b8ff" d="M251.15,-120.91C281.39,-109.91 315.49,-97.5 339.94,-88.6"/>
<polygon fill="#63b8ff" stroke="#63b8ff" points="341.26,-91.84 349.46,-85.14 338.87,-85.27 341.26,-91.84"/>
</a>
</g>
</g>
<!-- Node7&#45;&gt;Node2 -->
<g id="edge7_Node000007_Node000002" class="edge">
<title>Node7&#45;&gt;Node2</title>
<g id="a_edge7_Node000007_Node000002"><a xlink:title=" ">
<path fill="none" stroke="#63b8ff" d="M334.51,-65.99C281.89,-54.42 188.68,-33.92 139.56,-23.12"/>
<polygon fill="#63b8ff" stroke="#63b8ff" points="140.01,-19.63 129.49,-20.9 138.51,-26.47 140.01,-19.63"/>
</a>
</g>
</g>
<!-- Node8 -->
<g id="Node000008" class="node">
<title>Node8</title>
<g id="a_Node000008"><a xlink:title=" ">
<polygon fill="#e0e0e0" stroke="#999999" points="332.69,-24.5 267.69,-24.5 267.69,-5.5 332.69,-5.5 332.69,-24.5"/>
<text text-anchor="middle" x="300.19" y="-12.5" font-family="Helvetica,sans-Serif" font-size="10.00">stdexcept</text>
</a>
</g>
</g>
<!-- Node7&#45;&gt;Node8 -->
<g id="edge8_Node000007_Node000008" class="edge">
<title>Node7&#45;&gt;Node8</title>
<g id="a_edge8_Node000007_Node000008"><a xlink:title=" ">
<path fill="none" stroke="#63b8ff" d="M362.42,-65.87C350.99,-56.71 332.71,-42.06 318.92,-31.01"/>
<polygon fill="#63b8ff" stroke="#63b8ff" points="321,-28.19 311.01,-24.67 316.62,-33.65 321,-28.19"/>
</a>
</g>
</g>
<!-- Node9 -->
<g id="Node000009" class="node">
<title>Node9</title>
<g id="a_Node000009"><a xlink:title=" ">
<polygon fill="#e0e0e0" stroke="#999999" points="395.69,-24.5 350.69,-24.5 350.69,-5.5 395.69,-5.5 395.69,-24.5"/>
<text text-anchor="middle" x="373.19" y="-12.5" font-family="Helvetica,sans-Serif" font-size="10.00">utility</text>
</a>
</g>
</g>
<!-- Node7&#45;&gt;Node9 -->
<g id="edge9_Node000007_Node000009" class="edge">
<title>Node7&#45;&gt;Node9</title>
<g id="a_edge9_Node000007_Node000009"><a xlink:title=" ">
<path fill="none" stroke="#63b8ff" d="M373.19,-65.87C373.19,-57.75 373.19,-45.31 373.19,-34.89"/>
<polygon fill="#63b8ff" stroke="#63b8ff" points="376.69,-34.67 373.19,-24.67 369.69,-34.67 376.69,-34.67"/>
</a>
</g>
</g>
<!-- Node10 -->
<g id="Node000010" class="node">
<title>Node10</title>
<g id="a_Node000010"><a xlink:title=" ">
<polygon fill="#e0e0e0" stroke="#999999" points="542.19,-30 414.19,-30 414.19,0 542.19,0 542.19,-30"/>
<text text-anchor="start" x="422.19" y="-18" font-family="Helvetica,sans-Serif" font-size="10.00">thread_base/sync/error</text>
<text text-anchor="middle" x="478.19" y="-7" font-family="Helvetica,sans-Serif" font-size="10.00">_handling.h</text>
</a>
</g>
</g>
<!-- Node7&#45;&gt;Node10 -->
<g id="edge10_Node000007_Node000010" class="edge">
<title>Node7&#45;&gt;Node10</title>
<g id="a_edge10_Node000007_Node000010"><a xlink:title=" ">
<path fill="none" stroke="#63b8ff" d="M388.68,-65.87C403.2,-57.78 425.38,-45.42 444.03,-35.03"/>
<polygon fill="#63b8ff" stroke="#63b8ff" points="445.83,-38.04 452.86,-30.11 442.42,-31.92 445.83,-38.04"/>
</a>
</g>
</g>
</g>
</svg>
