<?xml version="1.0" encoding="UTF-8" standalone="no"?>
<!DOCTYPE svg PUBLIC "-//W3C//DTD SVG 1.1//EN"
 "http://www.w3.org/Graphics/SVG/1.1/DTD/svg11.dtd">
<!-- Generated by graphviz version 2.43.0 (0)
 -->
<!-- Title: monitoring_interface.h Pages: 1 -->
<svg width="252pt" height="313pt"
 viewBox="0.00 0.00 251.57 313.00" xmlns="http://www.w3.org/2000/svg" xmlns:xlink="http://www.w3.org/1999/xlink">
<g id="graph0" class="graph" transform="scale(1 1) rotate(0) translate(4 309)">
<title>monitoring_interface.h</title>
<!-- Node1 -->
<g id="Node000001" class="node">
<title>Node1</title>
<g id="a_Node000001"><a xlink:title="Abstract interface for monitoring and metrics collection.">
<polygon fill="#999999" stroke="#666666" points="220.07,-305 92.07,-305 92.07,-286 220.07,-286 220.07,-305"/>
<text text-anchor="middle" x="156.07" y="-293" font-family="Helvetica,sans-Serif" font-size="10.00">monitoring_interface.h</text>
</a>
</g>
</g>
<!-- Node2 -->
<g id="Node000002" class="node">
<title>Node2</title>
<g id="a_Node000002"><a xlink:href="basic__monitor_8h.html" target="_top" xlink:title="Basic monitoring implementation with no external dependencies.">
<polygon fill="white" stroke="#666666" points="109.07,-250 15.07,-250 15.07,-231 109.07,-231 109.07,-250"/>
<text text-anchor="middle" x="62.07" y="-238" font-family="Helvetica,sans-Serif" font-size="10.00">basic_monitor.h</text>
</a>
</g>
</g>
<!-- Node1&#45;&gt;Node2 -->
<g id="edge1_Node000001_Node000002" class="edge">
<title>Node1&#45;&gt;Node2</title>
<g id="a_edge1_Node000001_Node000002"><a xlink:title=" ">
<path fill="none" stroke="#63b8ff" d="M132.07,-280.97C114.88,-271.28 92.26,-258.52 77.45,-250.17"/>
<polygon fill="#63b8ff" stroke="#63b8ff" points="130.54,-284.12 140.97,-285.98 133.98,-278.02 130.54,-284.12"/>
</a>
</g>
</g>
<!-- Node3 -->
<g id="Node000003" class="node">
<title>Node3</title>
<g id="a_Node000003"><a xlink:href="monitoring__factory_8h.html" target="_top" xlink:title="Factory for creating appropriate monitoring implementations.">
<polygon fill="white" stroke="#666666" points="161.57,-129 44.57,-129 44.57,-110 161.57,-110 161.57,-129"/>
<text text-anchor="middle" x="103.07" y="-117" font-family="Helvetica,sans-Serif" font-size="10.00">monitoring_factory.h</text>
</a>
</g>
</g>
<!-- Node1&#45;&gt;Node3 -->
<g id="edge9_Node000001_Node000003" class="edge">
<title>Node1&#45;&gt;Node3</title>
<g id="a_edge9_Node000001_Node000003"><a xlink:title=" ">
<path fill="none" stroke="#63b8ff" d="M160.81,-275.73C166.4,-249.55 172.95,-201.21 156.07,-165 148.61,-148.99 132.24,-136.7 119.66,-129.13"/>
<polygon fill="#63b8ff" stroke="#63b8ff" points="157.33,-275.25 158.47,-285.79 164.14,-276.84 157.33,-275.25"/>
</a>
</g>
</g>
<!-- Node4 -->
<g id="Node000004" class="node">
<title>Node4</title>
<g id="a_Node000004"><a xlink:href="logger_8h.html" target="_top" xlink:title=" ">
<polygon fill="white" stroke="#666666" points="174.07,-74 118.07,-74 118.07,-55 174.07,-55 174.07,-74"/>
<text text-anchor="middle" x="146.07" y="-62" font-family="Helvetica,sans-Serif" font-size="10.00">logger.h</text>
</a>
</g>
</g>
<!-- Node1&#45;&gt;Node4 -->
<g id="edge8_Node000001_Node000004" class="edge">
<title>Node1&#45;&gt;Node4</title>
<g id="a_edge8_Node000001_Node000004"><a xlink:title=" ">
<path fill="none" stroke="#63b8ff" d="M167.49,-277.15C172.05,-269.22 176.76,-259.49 179.07,-250 181.07,-241.79 179.35,-239.44 179.07,-231 177.29,-177.13 186.43,-161.66 171.07,-110 167.08,-96.58 158.49,-82.77 152.5,-74.17"/>
<polygon fill="#63b8ff" stroke="#63b8ff" points="164.43,-275.45 162.18,-285.8 170.4,-279.11 164.43,-275.45"/>
</a>
</g>
</g>
<!-- Node7 -->
<g id="Node000007" class="node">
<title>Node7</title>
<g id="a_Node000007"><a xlink:href="thread__system__monitor__adapter_8h.html" target="_top" xlink:title="Adapter for thread_system&#39;s monitoring capabilities.">
<polygon fill="white" stroke="#666666" points="146.57,-195 13.57,-195 13.57,-165 146.57,-165 146.57,-195"/>
<text text-anchor="start" x="21.57" y="-183" font-family="Helvetica,sans-Serif" font-size="10.00">thread_system_monitor</text>
<text text-anchor="middle" x="80.07" y="-172" font-family="Helvetica,sans-Serif" font-size="10.00">_adapter.h</text>
</a>
</g>
</g>
<!-- Node1&#45;&gt;Node7 -->
<g id="edge10_Node000001_Node000007" class="edge">
<title>Node1&#45;&gt;Node7</title>
<g id="a_edge10_Node000001_Node000007"><a xlink:title=" ">
<path fill="none" stroke="#63b8ff" d="M146.23,-276.89C138.84,-263.96 128.28,-246.1 118.07,-231 109.64,-218.54 99.26,-204.98 91.48,-195.13"/>
<polygon fill="#63b8ff" stroke="#63b8ff" points="143.24,-278.7 151.21,-285.68 149.33,-275.26 143.24,-278.7"/>
</a>
</g>
</g>
<!-- Node2&#45;&gt;Node3 -->
<g id="edge2_Node000002_Node000003" class="edge">
<title>Node2&#45;&gt;Node3</title>
<g id="a_edge2_Node000002_Node000003"><a xlink:title=" ">
<path fill="none" stroke="#63b8ff" d="M34.83,-225.57C23.43,-218.17 11.37,-207.91 5.07,-195 -0.78,-183.02 -2.15,-176.21 5.07,-165 17.11,-146.31 39.14,-135.38 59.26,-129.03"/>
<polygon fill="#63b8ff" stroke="#63b8ff" points="33.34,-228.75 43.72,-230.88 36.93,-222.75 33.34,-228.75"/>
</a>
</g>
</g>
<!-- Node2&#45;&gt;Node7 -->
<g id="edge6_Node000002_Node000007" class="edge">
<title>Node2&#45;&gt;Node7</title>
<g id="a_edge6_Node000002_Node000007"><a xlink:title=" ">
<path fill="none" stroke="#63b8ff" d="M67.7,-221.22C70.29,-212.79 73.32,-202.95 75.73,-195.11"/>
<polygon fill="#63b8ff" stroke="#63b8ff" points="64.32,-220.28 64.73,-230.87 71.01,-222.34 64.32,-220.28"/>
</a>
</g>
</g>
<!-- Node3&#45;&gt;Node4 -->
<g id="edge3_Node000003_Node000004" class="edge">
<title>Node3&#45;&gt;Node4</title>
<g id="a_edge3_Node000003_Node000004"><a xlink:title=" ">
<path fill="none" stroke="#63b8ff" d="M116.49,-101.96C123.99,-92.72 133.01,-81.6 139.1,-74.09"/>
<polygon fill="#63b8ff" stroke="#63b8ff" points="113.76,-99.78 110.17,-109.75 119.19,-104.19 113.76,-99.78"/>
</a>
</g>
</g>
<!-- Node5 -->
<g id="Node000005" class="node">
<title>Node5</title>
<g id="a_Node000005"><a xlink:href="logger_8cpp.html" target="_top" xlink:title=" ">
<polygon fill="white" stroke="#666666" points="130.57,-19 63.57,-19 63.57,0 130.57,0 130.57,-19"/>
<text text-anchor="middle" x="97.07" y="-7" font-family="Helvetica,sans-Serif" font-size="10.00">logger.cpp</text>
</a>
</g>
</g>
<!-- Node4&#45;&gt;Node5 -->
<g id="edge4_Node000004_Node000005" class="edge">
<title>Node4&#45;&gt;Node5</title>
<g id="a_edge4_Node000004_Node000005"><a xlink:title=" ">
<path fill="none" stroke="#63b8ff" d="M131.04,-47.24C122.45,-37.95 112.03,-26.68 105.01,-19.09"/>
<polygon fill="#63b8ff" stroke="#63b8ff" points="128.62,-49.78 137.98,-54.75 133.76,-45.03 128.62,-49.78"/>
</a>
</g>
</g>
<!-- Node6 -->
<g id="Node000006" class="node">
<title>Node6</title>
<g id="a_Node000006"><a xlink:href="logger__builder_8h.html" target="_top" xlink:title=" ">
<polygon fill="white" stroke="#666666" points="243.57,-19 148.57,-19 148.57,0 243.57,0 243.57,-19"/>
<text text-anchor="middle" x="196.07" y="-7" font-family="Helvetica,sans-Serif" font-size="10.00">logger_builder.h</text>
</a>
</g>
</g>
<!-- Node4&#45;&gt;Node6 -->
<g id="edge5_Node000004_Node000006" class="edge">
<title>Node4&#45;&gt;Node6</title>
<g id="a_edge5_Node000004_Node000006"><a xlink:title=" ">
<path fill="none" stroke="#63b8ff" d="M161.41,-47.24C170.18,-37.95 180.81,-26.68 187.97,-19.09"/>
<polygon fill="#63b8ff" stroke="#63b8ff" points="158.64,-45.07 154.33,-54.75 163.74,-49.88 158.64,-45.07"/>
</a>
</g>
</g>
<!-- Node7&#45;&gt;Node3 -->
<g id="edge7_Node000007_Node000003" class="edge">
<title>Node7&#45;&gt;Node3</title>
<g id="a_edge7_Node000007_Node000003"><a xlink:title=" ">
<path fill="none" stroke="#63b8ff" d="M89.38,-155.34C92.99,-146.14 96.91,-136.17 99.63,-129.27"/>
<polygon fill="#63b8ff" stroke="#63b8ff" points="86.04,-154.25 85.64,-164.84 92.56,-156.81 86.04,-154.25"/>
</a>
</g>
</g>
</g>
</svg>
