<?xml version="1.0" encoding="UTF-8" standalone="no"?>
<!DOCTYPE svg PUBLIC "-//W3C//DTD SVG 1.1//EN"
 "http://www.w3.org/Graphics/SVG/1.1/DTD/svg11.dtd">
<!-- Generated by graphviz version 2.43.0 (0)
 -->
<!-- Title: monitoring_interface.h Pages: 1 -->
<svg width="444pt" height="137pt"
 viewBox="0.00 0.00 444.16 137.00" xmlns="http://www.w3.org/2000/svg" xmlns:xlink="http://www.w3.org/1999/xlink">
<g id="graph0" class="graph" transform="scale(1 1) rotate(0) translate(4 133)">
<title>monitoring_interface.h</title>
<!-- Node1 -->
<g id="Node000001" class="node">
<title>Node1</title>
<g id="a_Node000001"><a xlink:title="Abstract interface for monitoring and metrics collection.">
<polygon fill="#999999" stroke="#666666" points="247.66,-129 119.66,-129 119.66,-110 247.66,-110 247.66,-129"/>
<text text-anchor="middle" x="183.66" y="-117" font-family="Helvetica,sans-Serif" font-size="10.00">monitoring_interface.h</text>
</a>
</g>
</g>
<!-- Node2 -->
<g id="Node000002" class="node">
<title>Node2</title>
<g id="a_Node000002"><a xlink:title=" ">
<polygon fill="#e0e0e0" stroke="#999999" points="169.66,-19 125.66,-19 125.66,0 169.66,0 169.66,-19"/>
<text text-anchor="middle" x="147.66" y="-7" font-family="Helvetica,sans-Serif" font-size="10.00">string</text>
</a>
</g>
</g>
<!-- Node1&#45;&gt;Node2 -->
<g id="edge1_Node000001_Node000002" class="edge">
<title>Node1&#45;&gt;Node2</title>
<g id="a_edge1_Node000001_Node000002"><a xlink:title=" ">
<path fill="none" stroke="#63b8ff" d="M119.25,-110.66C74.56,-103.74 20.64,-91.93 6.66,-74 -24.17,-34.47 64.98,-18.82 115.49,-13.25"/>
<polygon fill="#63b8ff" stroke="#63b8ff" points="116.04,-16.71 125.63,-12.21 115.32,-9.75 116.04,-16.71"/>
</a>
</g>
</g>
<!-- Node3 -->
<g id="Node000003" class="node">
<title>Node3</title>
<g id="a_Node000003"><a xlink:title=" ">
<polygon fill="#e0e0e0" stroke="#999999" points="109.16,-74 16.16,-74 16.16,-55 109.16,-55 109.16,-74"/>
<text text-anchor="middle" x="62.66" y="-62" font-family="Helvetica,sans-Serif" font-size="10.00">unordered_map</text>
</a>
</g>
</g>
<!-- Node1&#45;&gt;Node3 -->
<g id="edge2_Node000001_Node000003" class="edge">
<title>Node1&#45;&gt;Node3</title>
<g id="a_edge2_Node000001_Node000003"><a xlink:title=" ">
<path fill="none" stroke="#63b8ff" d="M164.22,-109.98C144.66,-101.42 114.28,-88.11 91.83,-78.28"/>
<polygon fill="#63b8ff" stroke="#63b8ff" points="93.02,-74.98 82.45,-74.17 90.21,-81.39 93.02,-74.98"/>
</a>
</g>
</g>
<!-- Node4 -->
<g id="Node000004" class="node">
<title>Node4</title>
<g id="a_Node000004"><a xlink:title=" ">
<polygon fill="#e0e0e0" stroke="#999999" points="174.16,-74 127.16,-74 127.16,-55 174.16,-55 174.16,-74"/>
<text text-anchor="middle" x="150.66" y="-62" font-family="Helvetica,sans-Serif" font-size="10.00">vector</text>
</a>
</g>
</g>
<!-- Node1&#45;&gt;Node4 -->
<g id="edge3_Node000001_Node000004" class="edge">
<title>Node1&#45;&gt;Node4</title>
<g id="a_edge3_Node000001_Node000004"><a xlink:title=" ">
<path fill="none" stroke="#63b8ff" d="M178.21,-109.75C173.64,-102.42 166.99,-91.73 161.37,-82.7"/>
<polygon fill="#63b8ff" stroke="#63b8ff" points="164.26,-80.73 156.01,-74.09 158.32,-84.43 164.26,-80.73"/>
</a>
</g>
</g>
<!-- Node5 -->
<g id="Node000005" class="node">
<title>Node5</title>
<g id="a_Node000005"><a xlink:title=" ">
<polygon fill="#e0e0e0" stroke="#999999" points="242.66,-74 192.66,-74 192.66,-55 242.66,-55 242.66,-74"/>
<text text-anchor="middle" x="217.66" y="-62" font-family="Helvetica,sans-Serif" font-size="10.00">chrono</text>
</a>
</g>
</g>
<!-- Node1&#45;&gt;Node5 -->
<g id="edge4_Node000001_Node000005" class="edge">
<title>Node1&#45;&gt;Node5</title>
<g id="a_edge4_Node000001_Node000005"><a xlink:title=" ">
<path fill="none" stroke="#63b8ff" d="M189.27,-109.75C193.98,-102.42 200.83,-91.73 206.63,-82.7"/>
<polygon fill="#63b8ff" stroke="#63b8ff" points="209.69,-84.4 212.15,-74.09 203.8,-80.62 209.69,-84.4"/>
</a>
</g>
</g>
<!-- Node6 -->
<g id="Node000006" class="node">
<title>Node6</title>
<g id="a_Node000006"><a xlink:title=" ">
<polygon fill="#e0e0e0" stroke="#999999" points="310.66,-74 260.66,-74 260.66,-55 310.66,-55 310.66,-74"/>
<text text-anchor="middle" x="285.66" y="-62" font-family="Helvetica,sans-Serif" font-size="10.00">atomic</text>
</a>
</g>
</g>
<!-- Node1&#45;&gt;Node6 -->
<g id="edge5_Node000001_Node000006" class="edge">
<title>Node1&#45;&gt;Node6</title>
<g id="a_edge5_Node000001_Node000006"><a xlink:title=" ">
<path fill="none" stroke="#63b8ff" d="M200.05,-109.98C216.23,-101.57 241.23,-88.59 260.04,-78.81"/>
<polygon fill="#63b8ff" stroke="#63b8ff" points="261.71,-81.89 268.97,-74.17 258.48,-75.68 261.71,-81.89"/>
</a>
</g>
</g>
<!-- Node7 -->
<g id="Node000007" class="node">
<title>Node7</title>
<g id="a_Node000007"><a xlink:href="error__codes_8h.html" target="_top" xlink:title=" ">
<polygon fill="white" stroke="#666666" points="420.66,-74 328.66,-74 328.66,-55 420.66,-55 420.66,-74"/>
<text text-anchor="middle" x="374.66" y="-62" font-family="Helvetica,sans-Serif" font-size="10.00">../error_codes.h</text>
</a>
</g>
</g>
<!-- Node1&#45;&gt;Node7 -->
<g id="edge6_Node000001_Node000007" class="edge">
<title>Node1&#45;&gt;Node7</title>
<g id="a_edge6_Node000001_Node000007"><a xlink:title=" ">
<path fill="none" stroke="#63b8ff" d="M214.35,-109.98C246.83,-100.97 298.25,-86.7 334.07,-76.76"/>
<polygon fill="#63b8ff" stroke="#63b8ff" points="335.03,-80.13 343.73,-74.08 333.16,-73.38 335.03,-80.13"/>
</a>
</g>
</g>
<!-- Node7&#45;&gt;Node2 -->
<g id="edge7_Node000007_Node000002" class="edge">
<title>Node7&#45;&gt;Node2</title>
<g id="a_edge7_Node000007_Node000002"><a xlink:title=" ">
<path fill="none" stroke="#63b8ff" d="M338.19,-54.98C294.4,-44.76 221.65,-27.78 179.86,-18.02"/>
<polygon fill="#63b8ff" stroke="#63b8ff" points="180.47,-14.57 169.93,-15.7 178.88,-21.38 180.47,-14.57"/>
</a>
</g>
</g>
<!-- Node8 -->
<g id="Node000008" class="node">
<title>Node8</title>
<g id="a_Node000008"><a xlink:title=" ">
<polygon fill="#e0e0e0" stroke="#999999" points="366.66,-19 310.66,-19 310.66,0 366.66,0 366.66,-19"/>
<text text-anchor="middle" x="338.66" y="-7" font-family="Helvetica,sans-Serif" font-size="10.00">optional</text>
</a>
</g>
</g>
<!-- Node7&#45;&gt;Node8 -->
<g id="edge8_Node000007_Node000008" class="edge">
<title>Node7&#45;&gt;Node8</title>
<g id="a_edge8_Node000007_Node000008"><a xlink:title=" ">
<path fill="none" stroke="#63b8ff" d="M368.71,-54.75C363.68,-47.34 356.32,-36.5 350.14,-27.41"/>
<polygon fill="#63b8ff" stroke="#63b8ff" points="353.01,-25.39 344.49,-19.09 347.22,-29.33 353.01,-25.39"/>
</a>
</g>
</g>
<!-- Node9 -->
<g id="Node000009" class="node">
<title>Node9</title>
<g id="a_Node000009"><a xlink:title=" ">
<polygon fill="#e0e0e0" stroke="#999999" points="436.16,-19 385.16,-19 385.16,0 436.16,0 436.16,-19"/>
<text text-anchor="middle" x="410.66" y="-7" font-family="Helvetica,sans-Serif" font-size="10.00">variant</text>
</a>
</g>
</g>
<!-- Node7&#45;&gt;Node9 -->
<g id="edge9_Node000007_Node000009" class="edge">
<title>Node7&#45;&gt;Node9</title>
<g id="a_edge9_Node000007_Node000009"><a xlink:title=" ">
<path fill="none" stroke="#63b8ff" d="M380.6,-54.75C385.64,-47.34 393,-36.5 399.17,-27.41"/>
<polygon fill="#63b8ff" stroke="#63b8ff" points="402.1,-29.33 404.82,-19.09 396.31,-25.39 402.1,-29.33"/>
</a>
</g>
</g>
</g>
</svg>
