<?xml version="1.0" encoding="UTF-8" standalone="no"?>
<!DOCTYPE svg PUBLIC "-//W3C//DTD SVG 1.1//EN"
 "http://www.w3.org/Graphics/SVG/1.1/DTD/svg11.dtd">
<!-- Generated by graphviz version 2.43.0 (0)
 -->
<!-- Title: /home/runner/work/logger_system/logger_system/sources/logger/monitoring/monitoring_factory.h Pages: 1 -->
<svg width="641pt" height="368pt"
 viewBox="0.00 0.00 641.00 368.00" xmlns="http://www.w3.org/2000/svg" xmlns:xlink="http://www.w3.org/1999/xlink">
<g id="graph0" class="graph" transform="scale(1 1) rotate(0) translate(4 364)">
<title>/home/runner/work/logger_system/logger_system/sources/logger/monitoring/monitoring_factory.h</title>
<!-- Node1 -->
<g id="Node000001" class="node">
<title>Node1</title>
<g id="a_Node000001"><a xlink:title="Factory for creating appropriate monitoring implementations.">
<polygon fill="#999999" stroke="#666666" points="452.5,-360 279.5,-360 279.5,-308 452.5,-308 452.5,-360"/>
<text text-anchor="start" x="287.5" y="-348" font-family="Helvetica,sans-Serif" font-size="10.00">/home/runner/work/logger</text>
<text text-anchor="start" x="287.5" y="-337" font-family="Helvetica,sans-Serif" font-size="10.00">_system/logger_system/sources</text>
<text text-anchor="start" x="287.5" y="-326" font-family="Helvetica,sans-Serif" font-size="10.00">/logger/monitoring/monitoring</text>
<text text-anchor="middle" x="366" y="-315" font-family="Helvetica,sans-Serif" font-size="10.00">_factory.h</text>
</a>
</g>
</g>
<!-- Node2 -->
<g id="Node000002" class="node">
<title>Node2</title>
<g id="a_Node000002"><a xlink:href="monitoring__interface_8h.html" target="_top" xlink:title="Abstract interface for monitoring and metrics collection.">
<polygon fill="white" stroke="#666666" points="189,-140 61,-140 61,-121 189,-121 189,-140"/>
<text text-anchor="middle" x="125" y="-128" font-family="Helvetica,sans-Serif" font-size="10.00">monitoring_interface.h</text>
</a>
</g>
</g>
<!-- Node1&#45;&gt;Node2 -->
<g id="edge1_Node000001_Node000002" class="edge">
<title>Node1&#45;&gt;Node2</title>
<g id="a_edge1_Node000001_Node000002"><a xlink:title=" ">
<path fill="none" stroke="#63b8ff" d="M297.89,-307.97C250.98,-287.4 190.7,-253.82 154,-206 141.09,-189.18 133.26,-165.91 129.05,-149.87"/>
<polygon fill="#63b8ff" stroke="#63b8ff" points="132.44,-149 126.69,-140.1 125.63,-150.64 132.44,-149"/>
</a>
</g>
</g>
<!-- Node12 -->
<g id="Node000012" class="node">
<title>Node12</title>
<g id="a_Node000012"><a xlink:href="basic__monitor_8h.html" target="_top" xlink:title="Basic monitoring implementation with no external dependencies.">
<polygon fill="white" stroke="#666666" points="461,-200.5 367,-200.5 367,-181.5 461,-181.5 461,-200.5"/>
<text text-anchor="middle" x="414" y="-188.5" font-family="Helvetica,sans-Serif" font-size="10.00">basic_monitor.h</text>
</a>
</g>
</g>
<!-- Node1&#45;&gt;Node12 -->
<g id="edge12_Node000001_Node000012" class="edge">
<title>Node1&#45;&gt;Node12</title>
<g id="a_edge12_Node000001_Node000012"><a xlink:title=" ">
<path fill="none" stroke="#63b8ff" d="M379.36,-307.98C384.76,-297.14 390.72,-284.17 395,-272 402.24,-251.43 407.61,-226.93 410.75,-210.51"/>
<polygon fill="#63b8ff" stroke="#63b8ff" points="414.21,-211.04 412.58,-200.58 407.33,-209.78 414.21,-211.04"/>
</a>
</g>
</g>
<!-- Node14 -->
<g id="Node000014" class="node">
<title>Node14</title>
<g id="a_Node000014"><a xlink:title=" ">
<polygon fill="#e0e0e0" stroke="#999999" points="633,-140 575,-140 575,-121 633,-121 633,-140"/>
<text text-anchor="middle" x="604" y="-128" font-family="Helvetica,sans-Serif" font-size="10.00">memory</text>
</a>
</g>
</g>
<!-- Node1&#45;&gt;Node14 -->
<g id="edge26_Node000001_Node000014" class="edge">
<title>Node1&#45;&gt;Node14</title>
<g id="a_edge26_Node000001_Node000014"><a xlink:title=" ">
<path fill="none" stroke="#63b8ff" d="M395.66,-307.89C445.69,-265.54 545.34,-181.16 586.05,-146.7"/>
<polygon fill="#63b8ff" stroke="#63b8ff" points="588.43,-149.27 593.8,-140.13 583.91,-143.92 588.43,-149.27"/>
</a>
</g>
</g>
<!-- Node17 -->
<g id="Node000017" class="node">
<title>Node17</title>
<g id="a_Node000017"><a xlink:href="thread__system__monitor__adapter_8h.html" target="_top" xlink:title="Adapter for thread_system&#39;s monitoring capabilities.">
<polygon fill="white" stroke="#666666" points="385.5,-272 252.5,-272 252.5,-242 385.5,-242 385.5,-272"/>
<text text-anchor="start" x="260.5" y="-260" font-family="Helvetica,sans-Serif" font-size="10.00">thread_system_monitor</text>
<text text-anchor="middle" x="319" y="-249" font-family="Helvetica,sans-Serif" font-size="10.00">_adapter.h</text>
</a>
</g>
</g>
<!-- Node1&#45;&gt;Node17 -->
<g id="edge22_Node000001_Node000017" class="edge">
<title>Node1&#45;&gt;Node17</title>
<g id="a_edge22_Node000001_Node000017"><a xlink:title=" ">
<path fill="none" stroke="#63b8ff" d="M350.09,-307.61C344.69,-298.99 338.69,-289.43 333.42,-281.01"/>
<polygon fill="#63b8ff" stroke="#63b8ff" points="336.32,-279.04 328.04,-272.43 330.39,-282.76 336.32,-279.04"/>
</a>
</g>
</g>
<!-- Node3 -->
<g id="Node000003" class="node">
<title>Node3</title>
<g id="a_Node000003"><a xlink:title=" ">
<polygon fill="#e0e0e0" stroke="#999999" points="44,-24.5 0,-24.5 0,-5.5 44,-5.5 44,-24.5"/>
<text text-anchor="middle" x="22" y="-12.5" font-family="Helvetica,sans-Serif" font-size="10.00">string</text>
</a>
</g>
</g>
<!-- Node2&#45;&gt;Node3 -->
<g id="edge2_Node000002_Node000003" class="edge">
<title>Node2&#45;&gt;Node3</title>
<g id="a_edge2_Node000002_Node000003"><a xlink:title=" ">
<path fill="none" stroke="#63b8ff" d="M112.63,-120.78C101.14,-112.36 83.91,-98.87 71,-85 55.89,-68.77 41.57,-47.69 32.35,-33.12"/>
<polygon fill="#63b8ff" stroke="#63b8ff" points="35.32,-31.27 27.08,-24.61 29.37,-34.95 35.32,-31.27"/>
</a>
</g>
</g>
<!-- Node4 -->
<g id="Node000004" class="node">
<title>Node4</title>
<g id="a_Node000004"><a xlink:title=" ">
<polygon fill="#e0e0e0" stroke="#999999" points="483.5,-85 390.5,-85 390.5,-66 483.5,-66 483.5,-85"/>
<text text-anchor="middle" x="437" y="-73" font-family="Helvetica,sans-Serif" font-size="10.00">unordered_map</text>
</a>
</g>
</g>
<!-- Node2&#45;&gt;Node4 -->
<g id="edge3_Node000002_Node000004" class="edge">
<title>Node2&#45;&gt;Node4</title>
<g id="a_edge3_Node000002_Node000004"><a xlink:title=" ">
<path fill="none" stroke="#63b8ff" d="M175.13,-120.98C231.11,-111.48 321.53,-96.12 380.12,-86.16"/>
<polygon fill="#63b8ff" stroke="#63b8ff" points="381.04,-89.56 390.31,-84.43 379.87,-82.66 381.04,-89.56"/>
</a>
</g>
</g>
<!-- Node5 -->
<g id="Node000005" class="node">
<title>Node5</title>
<g id="a_Node000005"><a xlink:title=" ">
<polygon fill="#e0e0e0" stroke="#999999" points="558.5,-85 511.5,-85 511.5,-66 558.5,-66 558.5,-85"/>
<text text-anchor="middle" x="535" y="-73" font-family="Helvetica,sans-Serif" font-size="10.00">vector</text>
</a>
</g>
</g>
<!-- Node2&#45;&gt;Node5 -->
<g id="edge4_Node000002_Node000005" class="edge">
<title>Node2&#45;&gt;Node5</title>
<g id="a_edge4_Node000002_Node000005"><a xlink:title=" ">
<path fill="none" stroke="#63b8ff" d="M189.04,-123.31C262.62,-115.84 386.9,-102.12 493,-85 495.66,-84.57 498.41,-84.09 501.17,-83.59"/>
<polygon fill="#63b8ff" stroke="#63b8ff" points="501.91,-87.01 511.07,-81.68 500.59,-80.13 501.91,-87.01"/>
</a>
</g>
</g>
<!-- Node6 -->
<g id="Node000006" class="node">
<title>Node6</title>
<g id="a_Node000006"><a xlink:title=" ">
<polygon fill="#e0e0e0" stroke="#999999" points="241,-85 191,-85 191,-66 241,-66 241,-85"/>
<text text-anchor="middle" x="216" y="-73" font-family="Helvetica,sans-Serif" font-size="10.00">chrono</text>
</a>
</g>
</g>
<!-- Node2&#45;&gt;Node6 -->
<g id="edge5_Node000002_Node000006" class="edge">
<title>Node2&#45;&gt;Node6</title>
<g id="a_edge5_Node000002_Node000006"><a xlink:title=" ">
<path fill="none" stroke="#63b8ff" d="M139.62,-120.98C153.86,-112.69 175.75,-99.94 192.45,-90.22"/>
<polygon fill="#63b8ff" stroke="#63b8ff" points="194.23,-93.23 201.11,-85.17 190.71,-87.18 194.23,-93.23"/>
</a>
</g>
</g>
<!-- Node7 -->
<g id="Node000007" class="node">
<title>Node7</title>
<g id="a_Node000007"><a xlink:title=" ">
<polygon fill="#e0e0e0" stroke="#999999" points="351,-85 301,-85 301,-66 351,-66 351,-85"/>
<text text-anchor="middle" x="326" y="-73" font-family="Helvetica,sans-Serif" font-size="10.00">atomic</text>
</a>
</g>
</g>
<!-- Node2&#45;&gt;Node7 -->
<g id="edge6_Node000002_Node000007" class="edge">
<title>Node2&#45;&gt;Node7</title>
<g id="a_edge6_Node000002_Node000007"><a xlink:title=" ">
<path fill="none" stroke="#63b8ff" d="M157.29,-120.98C193.81,-111.36 253.08,-95.73 290.76,-85.79"/>
<polygon fill="#63b8ff" stroke="#63b8ff" points="292.01,-89.08 300.78,-83.15 290.22,-82.31 292.01,-89.08"/>
</a>
</g>
</g>
<!-- Node8 -->
<g id="Node000008" class="node">
<title>Node8</title>
<g id="a_Node000008"><a xlink:href="error__codes_8h.html" target="_top" xlink:title=" ">
<polygon fill="white" stroke="#666666" points="172,-85 80,-85 80,-66 172,-66 172,-85"/>
<text text-anchor="middle" x="126" y="-73" font-family="Helvetica,sans-Serif" font-size="10.00">../error_codes.h</text>
</a>
</g>
</g>
<!-- Node2&#45;&gt;Node8 -->
<g id="edge7_Node000002_Node000008" class="edge">
<title>Node2&#45;&gt;Node8</title>
<g id="a_edge7_Node000002_Node000008"><a xlink:title=" ">
<path fill="none" stroke="#63b8ff" d="M125.17,-120.75C125.3,-113.8 125.48,-103.85 125.65,-95.13"/>
<polygon fill="#63b8ff" stroke="#63b8ff" points="129.15,-95.15 125.84,-85.09 122.15,-95.02 129.15,-95.15"/>
</a>
</g>
</g>
<!-- Node8&#45;&gt;Node3 -->
<g id="edge8_Node000008_Node000003" class="edge">
<title>Node8&#45;&gt;Node3</title>
<g id="a_edge8_Node000008_Node000003"><a xlink:title=" ">
<path fill="none" stroke="#63b8ff" d="M110.65,-65.87C93.68,-56.32 66.1,-40.81 46.21,-29.62"/>
<polygon fill="#63b8ff" stroke="#63b8ff" points="47.84,-26.52 37.41,-24.67 44.41,-32.62 47.84,-26.52"/>
</a>
</g>
</g>
<!-- Node9 -->
<g id="Node000009" class="node">
<title>Node9</title>
<g id="a_Node000009"><a xlink:title=" ">
<polygon fill="#e0e0e0" stroke="#999999" points="273.5,-24.5 208.5,-24.5 208.5,-5.5 273.5,-5.5 273.5,-24.5"/>
<text text-anchor="middle" x="241" y="-12.5" font-family="Helvetica,sans-Serif" font-size="10.00">stdexcept</text>
</a>
</g>
</g>
<!-- Node8&#45;&gt;Node9 -->
<g id="edge9_Node000008_Node000009" class="edge">
<title>Node8&#45;&gt;Node9</title>
<g id="a_edge9_Node000008_Node000009"><a xlink:title=" ">
<path fill="none" stroke="#63b8ff" d="M142.97,-65.87C161.91,-56.23 192.79,-40.53 214.83,-29.31"/>
<polygon fill="#63b8ff" stroke="#63b8ff" points="216.64,-32.32 223.96,-24.67 213.46,-26.08 216.64,-32.32"/>
</a>
</g>
</g>
<!-- Node10 -->
<g id="Node000010" class="node">
<title>Node10</title>
<g id="a_Node000010"><a xlink:title=" ">
<polygon fill="#e0e0e0" stroke="#999999" points="336.5,-24.5 291.5,-24.5 291.5,-5.5 336.5,-5.5 336.5,-24.5"/>
<text text-anchor="middle" x="314" y="-12.5" font-family="Helvetica,sans-Serif" font-size="10.00">utility</text>
</a>
</g>
</g>
<!-- Node8&#45;&gt;Node10 -->
<g id="edge10_Node000008_Node000010" class="edge">
<title>Node8&#45;&gt;Node10</title>
<g id="a_edge10_Node000008_Node000010"><a xlink:title=" ">
<path fill="none" stroke="#63b8ff" d="M161.71,-65.99C193.84,-57.95 242.15,-44.92 283,-30 284.22,-29.56 285.45,-29.08 286.7,-28.59"/>
<polygon fill="#63b8ff" stroke="#63b8ff" points="288.3,-31.71 296.16,-24.6 285.58,-25.27 288.3,-31.71"/>
</a>
</g>
</g>
<!-- Node11 -->
<g id="Node000011" class="node">
<title>Node11</title>
<g id="a_Node000011"><a xlink:title=" ">
<polygon fill="#e0e0e0" stroke="#999999" points="190,-30 62,-30 62,0 190,0 190,-30"/>
<text text-anchor="start" x="70" y="-18" font-family="Helvetica,sans-Serif" font-size="10.00">thread_base/sync/error</text>
<text text-anchor="middle" x="126" y="-7" font-family="Helvetica,sans-Serif" font-size="10.00">_handling.h</text>
</a>
</g>
</g>
<!-- Node8&#45;&gt;Node11 -->
<g id="edge11_Node000008_Node000011" class="edge">
<title>Node8&#45;&gt;Node11</title>
<g id="a_edge11_Node000008_Node000011"><a xlink:title=" ">
<path fill="none" stroke="#63b8ff" d="M126,-65.87C126,-59.11 126,-49.35 126,-40.26"/>
<polygon fill="#63b8ff" stroke="#63b8ff" points="129.5,-40.11 126,-30.11 122.5,-40.11 129.5,-40.11"/>
</a>
</g>
</g>
<!-- Node12&#45;&gt;Node2 -->
<g id="edge13_Node000012_Node000002" class="edge">
<title>Node12&#45;&gt;Node2</title>
<g id="a_edge13_Node000012_Node000002"><a xlink:title=" ">
<path fill="none" stroke="#63b8ff" d="M371.98,-181.49C320.4,-171.05 232.92,-153.35 177.11,-142.05"/>
<polygon fill="#63b8ff" stroke="#63b8ff" points="177.57,-138.57 167.07,-140.02 176.18,-145.43 177.57,-138.57"/>
</a>
</g>
</g>
<!-- Node12&#45;&gt;Node4 -->
<g id="edge18_Node000012_Node000004" class="edge">
<title>Node12&#45;&gt;Node4</title>
<g id="a_edge18_Node000012_Node000004"><a xlink:title=" ">
<path fill="none" stroke="#63b8ff" d="M435.76,-181.39C452.6,-173.42 474.72,-159.81 485,-140 494.48,-121.72 476.66,-103.2 460.11,-90.92"/>
<polygon fill="#63b8ff" stroke="#63b8ff" points="461.93,-87.93 451.72,-85.1 457.94,-93.68 461.93,-87.93"/>
</a>
</g>
</g>
<!-- Node12&#45;&gt;Node5 -->
<g id="edge17_Node000012_Node000005" class="edge">
<title>Node12&#45;&gt;Node5</title>
<g id="a_edge17_Node000012_Node000005"><a xlink:title=" ">
<path fill="none" stroke="#63b8ff" d="M435.59,-181.41C454.42,-173.07 481.53,-158.9 500,-140 512.76,-126.94 522.3,-108.3 528.17,-94.59"/>
<polygon fill="#63b8ff" stroke="#63b8ff" points="531.44,-95.83 531.93,-85.24 524.95,-93.21 531.44,-95.83"/>
</a>
</g>
</g>
<!-- Node12&#45;&gt;Node6 -->
<g id="edge19_Node000012_Node000006" class="edge">
<title>Node12&#45;&gt;Node6</title>
<g id="a_edge19_Node000012_Node000006"><a xlink:title=" ">
<path fill="none" stroke="#63b8ff" d="M366.75,-181.96C320.58,-173.22 254.61,-158.04 236,-140 223.95,-128.32 219.14,-109.46 217.22,-95.33"/>
<polygon fill="#63b8ff" stroke="#63b8ff" points="220.69,-94.84 216.23,-85.23 213.73,-95.53 220.69,-94.84"/>
</a>
</g>
</g>
<!-- Node12&#45;&gt;Node7 -->
<g id="edge16_Node000012_Node000007" class="edge">
<title>Node12&#45;&gt;Node7</title>
<g id="a_edge16_Node000012_Node000007"><a xlink:title=" ">
<path fill="none" stroke="#63b8ff" d="M425.03,-181.35C440.82,-167.91 466.45,-141.43 452,-121 441.25,-105.81 394.51,-92.18 361.09,-84.13"/>
<polygon fill="#63b8ff" stroke="#63b8ff" points="361.74,-80.68 351.2,-81.81 360.14,-87.5 361.74,-80.68"/>
</a>
</g>
</g>
<!-- Node13 -->
<g id="Node000013" class="node">
<title>Node13</title>
<g id="a_Node000013"><a xlink:title=" ">
<polygon fill="#e0e0e0" stroke="#999999" points="293,-140 245,-140 245,-121 293,-121 293,-140"/>
<text text-anchor="middle" x="269" y="-128" font-family="Helvetica,sans-Serif" font-size="10.00">mutex</text>
</a>
</g>
</g>
<!-- Node12&#45;&gt;Node13 -->
<g id="edge14_Node000012_Node000013" class="edge">
<title>Node12&#45;&gt;Node13</title>
<g id="a_edge14_Node000012_Node000013"><a xlink:title=" ">
<path fill="none" stroke="#63b8ff" d="M392.92,-181.49C368.32,-171.57 327.47,-155.09 299.44,-143.78"/>
<polygon fill="#63b8ff" stroke="#63b8ff" points="300.69,-140.51 290.11,-140.02 298.07,-147 300.69,-140.51"/>
</a>
</g>
</g>
<!-- Node12&#45;&gt;Node14 -->
<g id="edge15_Node000012_Node000014" class="edge">
<title>Node12&#45;&gt;Node14</title>
<g id="a_edge15_Node000012_Node000014"><a xlink:title=" ">
<path fill="none" stroke="#63b8ff" d="M441.63,-181.49C474.55,-171.36 529.73,-154.37 566.49,-143.05"/>
<polygon fill="#63b8ff" stroke="#63b8ff" points="567.81,-146.3 576.34,-140.02 565.75,-139.61 567.81,-146.3"/>
</a>
</g>
</g>
<!-- Node15 -->
<g id="Node000015" class="node">
<title>Node15</title>
<g id="a_Node000015"><a xlink:title=" ">
<polygon fill="#e0e0e0" stroke="#999999" points="375,-140 311,-140 311,-121 375,-121 375,-140"/>
<text text-anchor="middle" x="343" y="-128" font-family="Helvetica,sans-Serif" font-size="10.00">algorithm</text>
</a>
</g>
</g>
<!-- Node12&#45;&gt;Node15 -->
<g id="edge20_Node000012_Node000015" class="edge">
<title>Node12&#45;&gt;Node15</title>
<g id="a_edge20_Node000012_Node000015"><a xlink:title=" ">
<path fill="none" stroke="#63b8ff" d="M403.52,-181.37C392.51,-172.3 374.96,-157.84 361.59,-146.82"/>
<polygon fill="#63b8ff" stroke="#63b8ff" points="363.46,-143.83 353.52,-140.17 359.01,-149.23 363.46,-143.83"/>
</a>
</g>
</g>
<!-- Node16 -->
<g id="Node000016" class="node">
<title>Node16</title>
<g id="a_Node000016"><a xlink:title=" ">
<polygon fill="#e0e0e0" stroke="#999999" points="443,-140 393,-140 393,-121 443,-121 443,-140"/>
<text text-anchor="middle" x="418" y="-128" font-family="Helvetica,sans-Serif" font-size="10.00">cstdint</text>
</a>
</g>
</g>
<!-- Node12&#45;&gt;Node16 -->
<g id="edge21_Node000012_Node000016" class="edge">
<title>Node12&#45;&gt;Node16</title>
<g id="a_edge21_Node000012_Node000016"><a xlink:title=" ">
<path fill="none" stroke="#63b8ff" d="M414.59,-181.37C415.15,-173.25 416,-160.81 416.71,-150.39"/>
<polygon fill="#63b8ff" stroke="#63b8ff" points="420.22,-150.38 417.41,-140.17 413.23,-149.91 420.22,-150.38"/>
</a>
</g>
</g>
<!-- Node17&#45;&gt;Node2 -->
<g id="edge23_Node000017_Node000002" class="edge">
<title>Node17&#45;&gt;Node2</title>
<g id="a_edge23_Node000017_Node000002"><a xlink:title=" ">
<path fill="none" stroke="#63b8ff" d="M319.77,-241.78C319.91,-223.95 317.32,-193.6 300,-176 285.14,-160.9 237.19,-149.34 195.23,-141.79"/>
<polygon fill="#63b8ff" stroke="#63b8ff" points="195.73,-138.33 185.27,-140.05 194.52,-145.22 195.73,-138.33"/>
</a>
</g>
</g>
<!-- Node17&#45;&gt;Node12 -->
<g id="edge24_Node000017_Node000012" class="edge">
<title>Node17&#45;&gt;Node12</title>
<g id="a_edge24_Node000017_Node000012"><a xlink:title=" ">
<path fill="none" stroke="#63b8ff" d="M340.08,-241.8C355.71,-231.27 376.93,-216.97 392.63,-206.4"/>
<polygon fill="#63b8ff" stroke="#63b8ff" points="394.81,-209.15 401.15,-200.66 390.9,-203.34 394.81,-209.15"/>
</a>
</g>
</g>
<!-- Node18 -->
<g id="Node000018" class="node">
<title>Node18</title>
<g id="a_Node000018"><a xlink:title=" ">
<polygon fill="#e0e0e0" stroke="#999999" points="291,-206 163,-206 163,-176 291,-176 291,-206"/>
<text text-anchor="start" x="171" y="-194" font-family="Helvetica,sans-Serif" font-size="10.00">interfaces/monitorable</text>
<text text-anchor="middle" x="227" y="-183" font-family="Helvetica,sans-Serif" font-size="10.00">_interface.h</text>
</a>
</g>
</g>
<!-- Node17&#45;&gt;Node18 -->
<g id="edge25_Node000017_Node000018" class="edge">
<title>Node17&#45;&gt;Node18</title>
<g id="a_edge25_Node000017_Node000018"><a xlink:title=" ">
<path fill="none" stroke="#63b8ff" d="M298.58,-241.8C285.96,-233.01 269.56,-221.61 255.65,-211.93"/>
<polygon fill="#63b8ff" stroke="#63b8ff" points="257.57,-209 247.36,-206.16 253.57,-214.75 257.57,-209"/>
</a>
</g>
</g>
</g>
</svg>
