<?xml version="1.0" encoding="UTF-8" standalone="no"?>
<!DOCTYPE svg PUBLIC "-//W3C//DTD SVG 1.1//EN"
 "http://www.w3.org/Graphics/SVG/1.1/DTD/svg11.dtd">
<!-- Generated by graphviz version 2.43.0 (0)
 -->
<!-- Title: /home/runner/work/logger_system/logger_system/sources/logger/monitoring/monitoring_interface.h Pages: 1 -->
<svg width="547pt" height="566pt"
 viewBox="0.00 0.00 547.07 566.00" xmlns="http://www.w3.org/2000/svg" xmlns:xlink="http://www.w3.org/1999/xlink">
<g id="graph0" class="graph" transform="scale(1 1) rotate(0) translate(4 562)">
<title>/home/runner/work/logger_system/logger_system/sources/logger/monitoring/monitoring_interface.h</title>
<!-- Node1 -->
<g id="Node000001" class="node">
<title>Node1</title>
<g id="a_Node000001"><a xlink:title="Abstract interface for monitoring and metrics collection.">
<polygon fill="#999999" stroke="#666666" points="405,-558 232,-558 232,-506 405,-506 405,-558"/>
<text text-anchor="start" x="240" y="-546" font-family="Helvetica,sans-Serif" font-size="10.00">/home/runner/work/logger</text>
<text text-anchor="start" x="240" y="-535" font-family="Helvetica,sans-Serif" font-size="10.00">_system/logger_system/sources</text>
<text text-anchor="start" x="240" y="-524" font-family="Helvetica,sans-Serif" font-size="10.00">/logger/monitoring/monitoring</text>
<text text-anchor="middle" x="318.5" y="-513" font-family="Helvetica,sans-Serif" font-size="10.00">_interface.h</text>
</a>
</g>
</g>
<!-- Node2 -->
<g id="Node000002" class="node">
<title>Node2</title>
<g id="a_Node000002"><a xlink:href="logger__builder_8h.html" target="_top" xlink:title="Builder pattern implementation for flexible logger configuration.">
<polygon fill="white" stroke="#666666" points="173,-129 0,-129 0,-88 173,-88 173,-129"/>
<text text-anchor="start" x="8" y="-117" font-family="Helvetica,sans-Serif" font-size="10.00">/home/runner/work/logger</text>
<text text-anchor="start" x="8" y="-106" font-family="Helvetica,sans-Serif" font-size="10.00">_system/logger_system/sources</text>
<text text-anchor="middle" x="86.5" y="-95" font-family="Helvetica,sans-Serif" font-size="10.00">/logger/config/logger_builder.h</text>
</a>
</g>
</g>
<!-- Node1&#45;&gt;Node2 -->
<g id="edge1_Node000001_Node000002" class="edge">
<title>Node1&#45;&gt;Node2</title>
<g id="a_edge1_Node000001_Node000002"><a xlink:title=" ">
<path fill="none" stroke="#63b8ff" d="M221.45,-520.6C153.7,-511.28 71.31,-495.15 47.5,-470 12.49,-433.02 28.5,-407.93 28.5,-357 28.5,-357 28.5,-357 28.5,-267 28.5,-214.55 57.17,-157.99 74.2,-129.03"/>
<polygon fill="#63b8ff" stroke="#63b8ff" points="221.38,-524.12 231.76,-521.98 222.31,-517.18 221.38,-524.12"/>
</a>
</g>
</g>
<!-- Node4 -->
<g id="Node000004" class="node">
<title>Node4</title>
<g id="a_Node000004"><a xlink:href="health__check__system_8h.html" target="_top" xlink:title=" ">
<polygon fill="white" stroke="#666666" points="230,-470 57,-470 57,-418 230,-418 230,-470"/>
<text text-anchor="start" x="65" y="-458" font-family="Helvetica,sans-Serif" font-size="10.00">/home/runner/work/logger</text>
<text text-anchor="start" x="65" y="-447" font-family="Helvetica,sans-Serif" font-size="10.00">_system/logger_system/sources</text>
<text text-anchor="start" x="65" y="-436" font-family="Helvetica,sans-Serif" font-size="10.00">/logger/health/health_check</text>
<text text-anchor="middle" x="143.5" y="-425" font-family="Helvetica,sans-Serif" font-size="10.00">_system.h</text>
</a>
</g>
</g>
<!-- Node1&#45;&gt;Node4 -->
<g id="edge3_Node000001_Node000004" class="edge">
<title>Node1&#45;&gt;Node4</title>
<g id="a_edge3_Node000001_Node000004"><a xlink:title=" ">
<path fill="none" stroke="#63b8ff" d="M258.37,-501.45C237.63,-491.26 214.61,-479.94 194.65,-470.14"/>
<polygon fill="#63b8ff" stroke="#63b8ff" points="256.89,-504.62 267.41,-505.89 259.98,-498.34 256.89,-504.62"/>
</a>
</g>
</g>
<!-- Node6 -->
<g id="Node000006" class="node">
<title>Node6</title>
<g id="a_Node000006"><a xlink:href="logger_8h.html" target="_top" xlink:title="High&#45;performance, thread&#45;safe logging system with asynchronous capabilities.">
<polygon fill="white" stroke="#666666" points="345,-206 172,-206 172,-165 345,-165 345,-206"/>
<text text-anchor="start" x="180" y="-194" font-family="Helvetica,sans-Serif" font-size="10.00">/home/runner/work/logger</text>
<text text-anchor="start" x="180" y="-183" font-family="Helvetica,sans-Serif" font-size="10.00">_system/logger_system/sources</text>
<text text-anchor="middle" x="258.5" y="-172" font-family="Helvetica,sans-Serif" font-size="10.00">/logger/logger.h</text>
</a>
</g>
</g>
<!-- Node1&#45;&gt;Node6 -->
<g id="edge5_Node000001_Node000006" class="edge">
<title>Node1&#45;&gt;Node6</title>
<g id="a_edge5_Node000001_Node000006"><a xlink:title=" ">
<path fill="none" stroke="#63b8ff" d="M290.9,-497.77C285.16,-489.2 279.84,-479.66 276.5,-470 243.84,-375.62 251.59,-253.17 256.25,-206.1"/>
<polygon fill="#63b8ff" stroke="#63b8ff" points="288.09,-499.85 296.73,-505.98 293.8,-495.8 288.09,-499.85"/>
</a>
</g>
</g>
<!-- Node8 -->
<g id="Node000008" class="node">
<title>Node8</title>
<g id="a_Node000008"><a xlink:href="basic__monitor_8h.html" target="_top" xlink:title="Basic monitoring implementation with no external dependencies.">
<polygon fill="white" stroke="#666666" points="473,-464.5 286,-464.5 286,-423.5 473,-423.5 473,-464.5"/>
<text text-anchor="start" x="294" y="-452.5" font-family="Helvetica,sans-Serif" font-size="10.00">/home/runner/work/logger</text>
<text text-anchor="start" x="294" y="-441.5" font-family="Helvetica,sans-Serif" font-size="10.00">_system/logger_system/sources</text>
<text text-anchor="middle" x="379.5" y="-430.5" font-family="Helvetica,sans-Serif" font-size="10.00">/logger/monitoring/basic_monitor.h</text>
</a>
</g>
</g>
<!-- Node1&#45;&gt;Node8 -->
<g id="edge9_Node000001_Node000008" class="edge">
<title>Node1&#45;&gt;Node8</title>
<g id="a_edge9_Node000001_Node000008"><a xlink:title=" ">
<path fill="none" stroke="#63b8ff" d="M342.32,-497.42C350.18,-486.34 358.65,-474.39 365.52,-464.7"/>
<polygon fill="#63b8ff" stroke="#63b8ff" points="339.4,-495.48 336.47,-505.66 345.11,-499.53 339.4,-495.48"/>
</a>
</g>
</g>
<!-- Node9 -->
<g id="Node000009" class="node">
<title>Node9</title>
<g id="a_Node000009"><a xlink:href="monitoring__factory_8h.html" target="_top" xlink:title="Factory for creating appropriate monitoring implementations.">
<polygon fill="white" stroke="#666666" points="483,-294 310,-294 310,-242 483,-242 483,-294"/>
<text text-anchor="start" x="318" y="-282" font-family="Helvetica,sans-Serif" font-size="10.00">/home/runner/work/logger</text>
<text text-anchor="start" x="318" y="-271" font-family="Helvetica,sans-Serif" font-size="10.00">_system/logger_system/sources</text>
<text text-anchor="start" x="318" y="-260" font-family="Helvetica,sans-Serif" font-size="10.00">/logger/monitoring/monitoring</text>
<text text-anchor="middle" x="396.5" y="-249" font-family="Helvetica,sans-Serif" font-size="10.00">_factory.h</text>
</a>
</g>
</g>
<!-- Node1&#45;&gt;Node9 -->
<g id="edge14_Node000001_Node000009" class="edge">
<title>Node1&#45;&gt;Node9</title>
<g id="a_edge14_Node000001_Node000009"><a xlink:title=" ">
<path fill="none" stroke="#63b8ff" d="M415.01,-517.63C445.86,-508.81 477.64,-494.2 499.5,-470 541.63,-423.36 552.63,-383.41 519.5,-330 509.89,-314.5 495.04,-302.82 478.94,-294.06"/>
<polygon fill="#63b8ff" stroke="#63b8ff" points="413.79,-514.33 405.04,-520.29 415.6,-521.09 413.79,-514.33"/>
</a>
</g>
</g>
<!-- Node10 -->
<g id="Node000010" class="node">
<title>Node10</title>
<g id="a_Node000010"><a xlink:href="thread__system__monitor__adapter_8h.html" target="_top" xlink:title="Adapter for thread_system&#39;s monitoring capabilities.">
<polygon fill="white" stroke="#666666" points="510.5,-382 328.5,-382 328.5,-330 510.5,-330 510.5,-382"/>
<text text-anchor="start" x="336.5" y="-370" font-family="Helvetica,sans-Serif" font-size="10.00">/home/runner/work/logger</text>
<text text-anchor="start" x="336.5" y="-359" font-family="Helvetica,sans-Serif" font-size="10.00">_system/logger_system/sources</text>
<text text-anchor="start" x="336.5" y="-348" font-family="Helvetica,sans-Serif" font-size="10.00">/logger/monitoring/thread_system</text>
<text text-anchor="middle" x="419.5" y="-337" font-family="Helvetica,sans-Serif" font-size="10.00">_monitor_adapter.h</text>
</a>
</g>
</g>
<!-- Node1&#45;&gt;Node10 -->
<g id="edge15_Node000001_Node000010" class="edge">
<title>Node1&#45;&gt;Node10</title>
<g id="a_edge15_Node000001_Node000010"><a xlink:title=" ">
<path fill="none" stroke="#63b8ff" d="M414.96,-515.76C440.79,-506.78 465.86,-492.56 481.5,-470 494.67,-451.01 490.43,-439.32 481.5,-418 475.72,-404.21 465.14,-391.97 454.34,-382.13"/>
<polygon fill="#63b8ff" stroke="#63b8ff" points="413.87,-512.43 405.42,-518.83 416.01,-519.09 413.87,-512.43"/>
</a>
</g>
</g>
<!-- Node3 -->
<g id="Node000003" class="node">
<title>Node3</title>
<g id="a_Node000003"><a xlink:href="logger__v1__compat_8h.html" target="_top" xlink:title="Compatibility wrapper for Logger System v1.x API.">
<polygon fill="white" stroke="#666666" points="230,-52 57,-52 57,0 230,0 230,-52"/>
<text text-anchor="start" x="65" y="-40" font-family="Helvetica,sans-Serif" font-size="10.00">/home/runner/work/logger</text>
<text text-anchor="start" x="65" y="-29" font-family="Helvetica,sans-Serif" font-size="10.00">_system/logger_system/sources</text>
<text text-anchor="start" x="65" y="-18" font-family="Helvetica,sans-Serif" font-size="10.00">/logger/compatibility/logger</text>
<text text-anchor="middle" x="143.5" y="-7" font-family="Helvetica,sans-Serif" font-size="10.00">_v1_compat.h</text>
</a>
</g>
</g>
<!-- Node2&#45;&gt;Node3 -->
<g id="edge2_Node000002_Node000003" class="edge">
<title>Node2&#45;&gt;Node3</title>
<g id="a_edge2_Node000002_Node000003"><a xlink:title=" ">
<path fill="none" stroke="#63b8ff" d="M106.38,-79.43C112.66,-70.55 119.56,-60.81 125.69,-52.16"/>
<polygon fill="#63b8ff" stroke="#63b8ff" points="103.51,-77.42 100.59,-87.6 109.23,-81.46 103.51,-77.42"/>
</a>
</g>
</g>
<!-- Node5 -->
<g id="Node000005" class="node">
<title>Node5</title>
<g id="a_Node000005"><a xlink:href="health__check__system_8cpp.html" target="_top" xlink:title=" ">
<polygon fill="white" stroke="#666666" points="230,-382 57,-382 57,-330 230,-330 230,-382"/>
<text text-anchor="start" x="65" y="-370" font-family="Helvetica,sans-Serif" font-size="10.00">/home/runner/work/logger</text>
<text text-anchor="start" x="65" y="-359" font-family="Helvetica,sans-Serif" font-size="10.00">_system/logger_system/sources</text>
<text text-anchor="start" x="65" y="-348" font-family="Helvetica,sans-Serif" font-size="10.00">/logger/health/health_check</text>
<text text-anchor="middle" x="143.5" y="-337" font-family="Helvetica,sans-Serif" font-size="10.00">_system.cpp</text>
</a>
</g>
</g>
<!-- Node4&#45;&gt;Node5 -->
<g id="edge4_Node000004_Node000005" class="edge">
<title>Node4&#45;&gt;Node5</title>
<g id="a_edge4_Node000004_Node000005"><a xlink:title=" ">
<path fill="none" stroke="#63b8ff" d="M143.5,-407.56C143.5,-399.04 143.5,-390.1 143.5,-382.16"/>
<polygon fill="#63b8ff" stroke="#63b8ff" points="140,-407.66 143.5,-417.66 147,-407.66 140,-407.66"/>
</a>
</g>
</g>
<!-- Node6&#45;&gt;Node2 -->
<g id="edge7_Node000006_Node000002" class="edge">
<title>Node6&#45;&gt;Node2</title>
<g id="a_edge7_Node000006_Node000002"><a xlink:title=" ">
<path fill="none" stroke="#63b8ff" d="M204.28,-160.86C180.8,-150.62 153.64,-138.77 131.32,-129.04"/>
<polygon fill="#63b8ff" stroke="#63b8ff" points="203.19,-164.2 213.76,-164.99 205.99,-157.79 203.19,-164.2"/>
</a>
</g>
</g>
<!-- Node6&#45;&gt;Node3 -->
<g id="edge6_Node000006_Node000003" class="edge">
<title>Node6&#45;&gt;Node3</title>
<g id="a_edge6_Node000006_Node000003"><a xlink:title=" ">
<path fill="none" stroke="#63b8ff" d="M238.15,-156.62C216.52,-127 182.63,-80.59 161.81,-52.08"/>
<polygon fill="#63b8ff" stroke="#63b8ff" points="235.44,-158.86 244.17,-164.87 241.1,-154.73 235.44,-158.86"/>
</a>
</g>
</g>
<!-- Node7 -->
<g id="Node000007" class="node">
<title>Node7</title>
<g id="a_Node000007"><a xlink:href="logger_8cpp.html" target="_top" xlink:title=" ">
<polygon fill="white" stroke="#666666" points="403,-129 230,-129 230,-88 403,-88 403,-129"/>
<text text-anchor="start" x="238" y="-117" font-family="Helvetica,sans-Serif" font-size="10.00">/home/runner/work/logger</text>
<text text-anchor="start" x="238" y="-106" font-family="Helvetica,sans-Serif" font-size="10.00">_system/logger_system/sources</text>
<text text-anchor="middle" x="316.5" y="-95" font-family="Helvetica,sans-Serif" font-size="10.00">/logger/logger.cpp</text>
</a>
</g>
</g>
<!-- Node6&#45;&gt;Node7 -->
<g id="edge8_Node000006_Node000007" class="edge">
<title>Node6&#45;&gt;Node7</title>
<g id="a_edge8_Node000006_Node000007"><a xlink:title=" ">
<path fill="none" stroke="#63b8ff" d="M280.02,-156.67C287.11,-147.5 294.85,-137.5 301.36,-129.07"/>
<polygon fill="#63b8ff" stroke="#63b8ff" points="277.09,-154.74 273.74,-164.79 282.63,-159.03 277.09,-154.74"/>
</a>
</g>
</g>
<!-- Node8&#45;&gt;Node9 -->
<g id="edge10_Node000008_Node000009" class="edge">
<title>Node8&#45;&gt;Node9</title>
<g id="a_edge10_Node000008_Node000009"><a xlink:title=" ">
<path fill="none" stroke="#63b8ff" d="M344.45,-416.41C334.45,-406.78 324.84,-395.04 319.5,-382 310.74,-360.61 309.44,-350.81 319.5,-330 326.48,-315.57 338.71,-303.51 351.41,-294.03"/>
<polygon fill="#63b8ff" stroke="#63b8ff" points="342.34,-419.22 352.1,-423.34 347.04,-414.04 342.34,-419.22"/>
</a>
</g>
</g>
<!-- Node8&#45;&gt;Node10 -->
<g id="edge12_Node000008_Node000010" class="edge">
<title>Node8&#45;&gt;Node10</title>
<g id="a_edge12_Node000008_Node000010"><a xlink:title=" ">
<path fill="none" stroke="#63b8ff" d="M392.8,-414.4C397.63,-404.02 403.04,-392.39 407.72,-382.32"/>
<polygon fill="#63b8ff" stroke="#63b8ff" points="389.62,-412.94 388.58,-423.49 395.97,-415.89 389.62,-412.94"/>
</a>
</g>
</g>
<!-- Node9&#45;&gt;Node6 -->
<g id="edge11_Node000009_Node000006" class="edge">
<title>Node9&#45;&gt;Node6</title>
<g id="a_edge11_Node000009_Node000006"><a xlink:title=" ">
<path fill="none" stroke="#63b8ff" d="M344.59,-236.72C327.05,-226.49 307.93,-215.33 292.18,-206.15"/>
<polygon fill="#63b8ff" stroke="#63b8ff" points="343.19,-239.96 353.59,-241.97 346.72,-233.91 343.19,-239.96"/>
</a>
</g>
</g>
<!-- Node10&#45;&gt;Node9 -->
<g id="edge13_Node000010_Node000009" class="edge">
<title>Node10&#45;&gt;Node9</title>
<g id="a_edge13_Node000010_Node000009"><a xlink:title=" ">
<path fill="none" stroke="#63b8ff" d="M410.1,-319.84C407.79,-311.23 405.38,-302.19 403.23,-294.16"/>
<polygon fill="#63b8ff" stroke="#63b8ff" points="406.76,-320.91 412.72,-329.66 413.52,-319.1 406.76,-320.91"/>
</a>
</g>
</g>
</g>
</svg>
