<?xml version="1.0" encoding="UTF-8" standalone="no"?>
<!DOCTYPE svg PUBLIC "-//W3C//DTD SVG 1.1//EN"
 "http://www.w3.org/Graphics/SVG/1.1/DTD/svg11.dtd">
<!-- Generated by graphviz version 2.43.0 (0)
 -->
<!-- Title: monitoring_interface.h Pages: 1 -->
<svg width="513pt" height="137pt"
 viewBox="0.00 0.00 512.95 137.00" xmlns="http://www.w3.org/2000/svg" xmlns:xlink="http://www.w3.org/1999/xlink">
<g id="graph0" class="graph" transform="scale(1 1) rotate(0) translate(4 133)">
<title>monitoring_interface.h</title>
<!-- Node1 -->
<g id="Node000001" class="node">
<title>Node1</title>
<g id="a_Node000001"><a xlink:title="Abstract interface for monitoring and metrics collection.">
<polygon fill="#999999" stroke="#666666" points="246.45,-129 118.45,-129 118.45,-110 246.45,-110 246.45,-129"/>
<text text-anchor="middle" x="182.45" y="-117" font-family="Helvetica,sans-Serif" font-size="10.00">monitoring_interface.h</text>
</a>
</g>
</g>
<!-- Node2 -->
<g id="Node000002" class="node">
<title>Node2</title>
<g id="a_Node000002"><a xlink:title=" ">
<polygon fill="#e0e0e0" stroke="#999999" points="128.45,-19 84.45,-19 84.45,0 128.45,0 128.45,-19"/>
<text text-anchor="middle" x="106.45" y="-7" font-family="Helvetica,sans-Serif" font-size="10.00">string</text>
</a>
</g>
</g>
<!-- Node1&#45;&gt;Node2 -->
<g id="edge1_Node000001_Node000002" class="edge">
<title>Node1&#45;&gt;Node2</title>
<g id="a_edge1_Node000001_Node000002"><a xlink:title=" ">
<path fill="none" stroke="#63b8ff" d="M118.04,-110.66C73.35,-103.74 19.43,-91.93 5.45,-74 -16.55,-45.78 37.13,-26.73 74.38,-17.32"/>
<polygon fill="#63b8ff" stroke="#63b8ff" points="75.46,-20.66 84.37,-14.93 73.83,-13.86 75.46,-20.66"/>
</a>
</g>
</g>
<!-- Node3 -->
<g id="Node000003" class="node">
<title>Node3</title>
<g id="a_Node000003"><a xlink:title=" ">
<polygon fill="#e0e0e0" stroke="#999999" points="107.95,-74 14.95,-74 14.95,-55 107.95,-55 107.95,-74"/>
<text text-anchor="middle" x="61.45" y="-62" font-family="Helvetica,sans-Serif" font-size="10.00">unordered_map</text>
</a>
</g>
</g>
<!-- Node1&#45;&gt;Node3 -->
<g id="edge2_Node000001_Node000003" class="edge">
<title>Node1&#45;&gt;Node3</title>
<g id="a_edge2_Node000001_Node000003"><a xlink:title=" ">
<path fill="none" stroke="#63b8ff" d="M163.01,-109.98C143.45,-101.42 113.07,-88.11 90.62,-78.28"/>
<polygon fill="#63b8ff" stroke="#63b8ff" points="91.81,-74.98 81.24,-74.17 89,-81.39 91.81,-74.98"/>
</a>
</g>
</g>
<!-- Node4 -->
<g id="Node000004" class="node">
<title>Node4</title>
<g id="a_Node000004"><a xlink:title=" ">
<polygon fill="#e0e0e0" stroke="#999999" points="172.95,-74 125.95,-74 125.95,-55 172.95,-55 172.95,-74"/>
<text text-anchor="middle" x="149.45" y="-62" font-family="Helvetica,sans-Serif" font-size="10.00">vector</text>
</a>
</g>
</g>
<!-- Node1&#45;&gt;Node4 -->
<g id="edge3_Node000001_Node000004" class="edge">
<title>Node1&#45;&gt;Node4</title>
<g id="a_edge3_Node000001_Node000004"><a xlink:title=" ">
<path fill="none" stroke="#63b8ff" d="M177,-109.75C172.43,-102.42 165.78,-91.73 160.15,-82.7"/>
<polygon fill="#63b8ff" stroke="#63b8ff" points="163.05,-80.73 154.8,-74.09 157.11,-84.43 163.05,-80.73"/>
</a>
</g>
</g>
<!-- Node5 -->
<g id="Node000005" class="node">
<title>Node5</title>
<g id="a_Node000005"><a xlink:title=" ">
<polygon fill="#e0e0e0" stroke="#999999" points="241.45,-74 191.45,-74 191.45,-55 241.45,-55 241.45,-74"/>
<text text-anchor="middle" x="216.45" y="-62" font-family="Helvetica,sans-Serif" font-size="10.00">chrono</text>
</a>
</g>
</g>
<!-- Node1&#45;&gt;Node5 -->
<g id="edge4_Node000001_Node000005" class="edge">
<title>Node1&#45;&gt;Node5</title>
<g id="a_edge4_Node000001_Node000005"><a xlink:title=" ">
<path fill="none" stroke="#63b8ff" d="M188.06,-109.75C192.77,-102.42 199.62,-91.73 205.42,-82.7"/>
<polygon fill="#63b8ff" stroke="#63b8ff" points="208.48,-84.4 210.94,-74.09 202.59,-80.62 208.48,-84.4"/>
</a>
</g>
</g>
<!-- Node6 -->
<g id="Node000006" class="node">
<title>Node6</title>
<g id="a_Node000006"><a xlink:title=" ">
<polygon fill="#e0e0e0" stroke="#999999" points="309.45,-74 259.45,-74 259.45,-55 309.45,-55 309.45,-74"/>
<text text-anchor="middle" x="284.45" y="-62" font-family="Helvetica,sans-Serif" font-size="10.00">atomic</text>
</a>
</g>
</g>
<!-- Node1&#45;&gt;Node6 -->
<g id="edge5_Node000001_Node000006" class="edge">
<title>Node1&#45;&gt;Node6</title>
<g id="a_edge5_Node000001_Node000006"><a xlink:title=" ">
<path fill="none" stroke="#63b8ff" d="M198.84,-109.98C215.02,-101.57 240.02,-88.59 258.83,-78.81"/>
<polygon fill="#63b8ff" stroke="#63b8ff" points="260.5,-81.89 267.76,-74.17 257.27,-75.68 260.5,-81.89"/>
</a>
</g>
</g>
<!-- Node7 -->
<g id="Node000007" class="node">
<title>Node7</title>
<g id="a_Node000007"><a xlink:href="error__codes_8h.html" target="_top" xlink:title=" ">
<polygon fill="white" stroke="#666666" points="419.45,-74 327.45,-74 327.45,-55 419.45,-55 419.45,-74"/>
<text text-anchor="middle" x="373.45" y="-62" font-family="Helvetica,sans-Serif" font-size="10.00">../error_codes.h</text>
</a>
</g>
</g>
<!-- Node1&#45;&gt;Node7 -->
<g id="edge6_Node000001_Node000007" class="edge">
<title>Node1&#45;&gt;Node7</title>
<g id="a_edge6_Node000001_Node000007"><a xlink:title=" ">
<path fill="none" stroke="#63b8ff" d="M213.14,-109.98C245.62,-100.97 297.04,-86.7 332.86,-76.76"/>
<polygon fill="#63b8ff" stroke="#63b8ff" points="333.82,-80.13 342.52,-74.08 331.95,-73.38 333.82,-80.13"/>
</a>
</g>
</g>
<!-- Node7&#45;&gt;Node2 -->
<g id="edge7_Node000007_Node000002" class="edge">
<title>Node7&#45;&gt;Node2</title>
<g id="a_edge7_Node000007_Node000002"><a xlink:title=" ">
<path fill="none" stroke="#63b8ff" d="M330.55,-54.98C276.99,-44.35 186.59,-26.41 138.61,-16.88"/>
<polygon fill="#63b8ff" stroke="#63b8ff" points="139.25,-13.44 128.76,-14.93 137.89,-20.31 139.25,-13.44"/>
</a>
</g>
</g>
<!-- Node8 -->
<g id="Node000008" class="node">
<title>Node8</title>
<g id="a_Node000008"><a xlink:title=" ">
<polygon fill="#e0e0e0" stroke="#999999" points="297.95,-19 232.95,-19 232.95,0 297.95,0 297.95,-19"/>
<text text-anchor="middle" x="265.45" y="-7" font-family="Helvetica,sans-Serif" font-size="10.00">stdexcept</text>
</a>
</g>
</g>
<!-- Node7&#45;&gt;Node8 -->
<g id="edge8_Node000007_Node000008" class="edge">
<title>Node7&#45;&gt;Node8</title>
<g id="a_edge8_Node000007_Node000008"><a xlink:title=" ">
<path fill="none" stroke="#63b8ff" d="M356.1,-54.98C338.88,-46.54 312.25,-33.47 292.3,-23.68"/>
<polygon fill="#63b8ff" stroke="#63b8ff" points="293.63,-20.43 283.12,-19.17 290.55,-26.72 293.63,-20.43"/>
</a>
</g>
</g>
<!-- Node9 -->
<g id="Node000009" class="node">
<title>Node9</title>
<g id="a_Node000009"><a xlink:title=" ">
<polygon fill="#e0e0e0" stroke="#999999" points="360.95,-19 315.95,-19 315.95,0 360.95,0 360.95,-19"/>
<text text-anchor="middle" x="338.45" y="-7" font-family="Helvetica,sans-Serif" font-size="10.00">utility</text>
</a>
</g>
</g>
<!-- Node7&#45;&gt;Node9 -->
<g id="edge9_Node000007_Node000009" class="edge">
<title>Node7&#45;&gt;Node9</title>
<g id="a_edge9_Node000007_Node000009"><a xlink:title=" ">
<path fill="none" stroke="#63b8ff" d="M367.67,-54.75C362.83,-47.42 355.77,-36.73 349.8,-27.7"/>
<polygon fill="#63b8ff" stroke="#63b8ff" points="352.55,-25.5 344.12,-19.09 346.71,-29.36 352.55,-25.5"/>
</a>
</g>
</g>
<!-- Node10 -->
<g id="Node000010" class="node">
<title>Node10</title>
<g id="a_Node000010"><a xlink:title=" ">
<polygon fill="#e0e0e0" stroke="#999999" points="435.45,-19 379.45,-19 379.45,0 435.45,0 435.45,-19"/>
<text text-anchor="middle" x="407.45" y="-7" font-family="Helvetica,sans-Serif" font-size="10.00">optional</text>
</a>
</g>
</g>
<!-- Node7&#45;&gt;Node10 -->
<g id="edge10_Node000007_Node000010" class="edge">
<title>Node7&#45;&gt;Node10</title>
<g id="a_edge10_Node000007_Node000010"><a xlink:title=" ">
<path fill="none" stroke="#63b8ff" d="M379.06,-54.75C383.77,-47.42 390.62,-36.73 396.42,-27.7"/>
<polygon fill="#63b8ff" stroke="#63b8ff" points="399.48,-29.4 401.94,-19.09 393.59,-25.62 399.48,-29.4"/>
</a>
</g>
</g>
<!-- Node11 -->
<g id="Node000011" class="node">
<title>Node11</title>
<g id="a_Node000011"><a xlink:title=" ">
<polygon fill="#e0e0e0" stroke="#999999" points="504.95,-19 453.95,-19 453.95,0 504.95,0 504.95,-19"/>
<text text-anchor="middle" x="479.45" y="-7" font-family="Helvetica,sans-Serif" font-size="10.00">variant</text>
</a>
</g>
</g>
<!-- Node7&#45;&gt;Node11 -->
<g id="edge11_Node000007_Node000011" class="edge">
<title>Node7&#45;&gt;Node11</title>
<g id="a_edge11_Node000007_Node000011"><a xlink:title=" ">
<path fill="none" stroke="#63b8ff" d="M390.48,-54.98C407.38,-46.54 433.51,-33.47 453.09,-23.68"/>
<polygon fill="#63b8ff" stroke="#63b8ff" points="454.73,-26.77 462.11,-19.17 451.6,-20.51 454.73,-26.77"/>
</a>
</g>
</g>
</g>
</svg>
