<?xml version="1.0" encoding="UTF-8" standalone="no"?>
<!DOCTYPE svg PUBLIC "-//W3C//DTD SVG 1.1//EN"
 "http://www.w3.org/Graphics/SVG/1.1/DTD/svg11.dtd">
<!-- Generated by graphviz version 2.43.0 (0)
 -->
<!-- Title: monitoring_interface.h Pages: 1 -->
<svg width="394pt" height="313pt"
 viewBox="0.00 0.00 393.60 313.00" xmlns="http://www.w3.org/2000/svg" xmlns:xlink="http://www.w3.org/1999/xlink">
<g id="graph0" class="graph" transform="scale(1 1) rotate(0) translate(4 309)">
<title>monitoring_interface.h</title>
<!-- Node1 -->
<g id="Node000001" class="node">
<title>Node1</title>
<g id="a_Node000001"><a xlink:title="Abstract interface for monitoring and metrics collection.">
<polygon fill="#999999" stroke="#666666" points="240.1,-305 112.1,-305 112.1,-286 240.1,-286 240.1,-305"/>
<text text-anchor="middle" x="176.1" y="-293" font-family="Helvetica,sans-Serif" font-size="10.00">monitoring_interface.h</text>
</a>
</g>
</g>
<!-- Node2 -->
<g id="Node000002" class="node">
<title>Node2</title>
<g id="a_Node000002"><a xlink:href="basic__monitor_8h.html" target="_top" xlink:title="Basic monitoring implementation with no external dependencies.">
<polygon fill="white" stroke="#666666" points="110.1,-250 16.1,-250 16.1,-231 110.1,-231 110.1,-250"/>
<text text-anchor="middle" x="63.1" y="-238" font-family="Helvetica,sans-Serif" font-size="10.00">basic_monitor.h</text>
</a>
</g>
</g>
<!-- Node1&#45;&gt;Node2 -->
<g id="edge1_Node000001_Node000002" class="edge">
<title>Node1&#45;&gt;Node2</title>
<g id="a_edge1_Node000001_Node000002"><a xlink:title=" ">
<path fill="none" stroke="#63b8ff" d="M148.66,-281.63C127.85,-271.87 99.8,-258.71 81.58,-250.17"/>
<polygon fill="#63b8ff" stroke="#63b8ff" points="147.4,-284.91 157.94,-285.98 150.37,-278.57 147.4,-284.91"/>
</a>
</g>
</g>
<!-- Node3 -->
<g id="Node000003" class="node">
<title>Node3</title>
<g id="a_Node000003"><a xlink:href="monitoring__factory_8h.html" target="_top" xlink:title="Factory for creating appropriate monitoring implementations.">
<polygon fill="white" stroke="#666666" points="162.6,-129 45.6,-129 45.6,-110 162.6,-110 162.6,-129"/>
<text text-anchor="middle" x="104.1" y="-117" font-family="Helvetica,sans-Serif" font-size="10.00">monitoring_factory.h</text>
</a>
</g>
</g>
<!-- Node1&#45;&gt;Node3 -->
<g id="edge11_Node000001_Node000003" class="edge">
<title>Node1&#45;&gt;Node3</title>
<g id="a_edge11_Node000001_Node000003"><a xlink:title=" ">
<path fill="none" stroke="#63b8ff" d="M177.36,-275.85C178.3,-249.45 176.87,-200.43 157.1,-165 148.43,-149.47 132.07,-137.03 119.81,-129.29"/>
<polygon fill="#63b8ff" stroke="#63b8ff" points="173.86,-275.8 176.84,-285.97 180.85,-276.17 173.86,-275.8"/>
</a>
</g>
</g>
<!-- Node4 -->
<g id="Node000004" class="node">
<title>Node4</title>
<g id="a_Node000004"><a xlink:href="logger_8h.html" target="_top" xlink:title=" ">
<polygon fill="white" stroke="#666666" points="175.1,-74 119.1,-74 119.1,-55 175.1,-55 175.1,-74"/>
<text text-anchor="middle" x="147.1" y="-62" font-family="Helvetica,sans-Serif" font-size="10.00">logger.h</text>
</a>
</g>
</g>
<!-- Node1&#45;&gt;Node4 -->
<g id="edge10_Node000001_Node000004" class="edge">
<title>Node1&#45;&gt;Node4</title>
<g id="a_edge10_Node000001_Node000004"><a xlink:title=" ">
<path fill="none" stroke="#63b8ff" d="M183.24,-276.18C185.97,-268.26 188.74,-258.81 190.1,-250 191.38,-241.65 190.72,-239.42 190.1,-231 186.08,-176.78 189.7,-161.44 172.1,-110 167.56,-96.75 159.1,-82.91 153.29,-74.25"/>
<polygon fill="#63b8ff" stroke="#63b8ff" points="179.86,-275.23 179.7,-285.82 186.43,-277.65 179.86,-275.23"/>
</a>
</g>
</g>
<!-- Node7 -->
<g id="Node000007" class="node">
<title>Node7</title>
<g id="a_Node000007"><a xlink:href="thread__system__monitor__adapter_8h.html" target="_top" xlink:title="Adapter for thread_system&#39;s monitoring capabilities.">
<polygon fill="white" stroke="#666666" points="147.6,-195 14.6,-195 14.6,-165 147.6,-165 147.6,-195"/>
<text text-anchor="start" x="22.6" y="-183" font-family="Helvetica,sans-Serif" font-size="10.00">thread_system_monitor</text>
<text text-anchor="middle" x="81.1" y="-172" font-family="Helvetica,sans-Serif" font-size="10.00">_adapter.h</text>
</a>
</g>
</g>
<!-- Node1&#45;&gt;Node7 -->
<g id="edge12_Node000001_Node000007" class="edge">
<title>Node1&#45;&gt;Node7</title>
<g id="a_edge12_Node000001_Node000007"><a xlink:title=" ">
<path fill="none" stroke="#63b8ff" d="M162.35,-278.08C143.68,-255.77 110.61,-216.26 92.97,-195.18"/>
<polygon fill="#63b8ff" stroke="#63b8ff" points="159.85,-280.55 168.95,-285.97 165.22,-276.05 159.85,-280.55"/>
</a>
</g>
</g>
<!-- Node8 -->
<g id="Node000008" class="node">
<title>Node8</title>
<g id="a_Node000008"><a xlink:href="health__check__system_8h.html" target="_top" xlink:title=" ">
<polygon fill="white" stroke="#666666" points="376.6,-250 245.6,-250 245.6,-231 376.6,-231 376.6,-250"/>
<text text-anchor="middle" x="311.1" y="-238" font-family="Helvetica,sans-Serif" font-size="10.00">health_check_system.h</text>
</a>
</g>
</g>
<!-- Node1&#45;&gt;Node8 -->
<g id="edge8_Node000001_Node000008" class="edge">
<title>Node1&#45;&gt;Node8</title>
<g id="a_edge8_Node000001_Node000008"><a xlink:title=" ">
<path fill="none" stroke="#63b8ff" d="M207.2,-282.29C232.22,-272.47 266.76,-258.91 289.01,-250.17"/>
<polygon fill="#63b8ff" stroke="#63b8ff" points="205.81,-279.07 197.79,-285.98 208.37,-285.59 205.81,-279.07"/>
</a>
</g>
</g>
<!-- Node2&#45;&gt;Node3 -->
<g id="edge2_Node000002_Node000003" class="edge">
<title>Node2&#45;&gt;Node3</title>
<g id="a_edge2_Node000002_Node000003"><a xlink:title=" ">
<path fill="none" stroke="#63b8ff" d="M35.73,-225.89C24.03,-218.5 11.58,-208.15 5.1,-195 -0.8,-183.04 -2.15,-176.2 5.1,-165 17.17,-146.33 39.15,-135.42 59.34,-129.08"/>
<polygon fill="#63b8ff" stroke="#63b8ff" points="34.03,-228.95 44.43,-230.97 37.56,-222.9 34.03,-228.95"/>
</a>
</g>
</g>
<!-- Node2&#45;&gt;Node7 -->
<g id="edge6_Node000002_Node000007" class="edge">
<title>Node2&#45;&gt;Node7</title>
<g id="a_edge6_Node000002_Node000007"><a xlink:title=" ">
<path fill="none" stroke="#63b8ff" d="M68.72,-221.22C71.31,-212.79 74.34,-202.95 76.75,-195.11"/>
<polygon fill="#63b8ff" stroke="#63b8ff" points="65.35,-220.28 65.75,-230.87 72.04,-222.34 65.35,-220.28"/>
</a>
</g>
</g>
<!-- Node3&#45;&gt;Node4 -->
<g id="edge3_Node000003_Node000004" class="edge">
<title>Node3&#45;&gt;Node4</title>
<g id="a_edge3_Node000003_Node000004"><a xlink:title=" ">
<path fill="none" stroke="#63b8ff" d="M117.52,-101.96C125.01,-92.72 134.03,-81.6 140.13,-74.09"/>
<polygon fill="#63b8ff" stroke="#63b8ff" points="114.78,-99.78 111.2,-109.75 120.21,-104.19 114.78,-99.78"/>
</a>
</g>
</g>
<!-- Node5 -->
<g id="Node000005" class="node">
<title>Node5</title>
<g id="a_Node000005"><a xlink:href="logger_8cpp.html" target="_top" xlink:title=" ">
<polygon fill="white" stroke="#666666" points="131.6,-19 64.6,-19 64.6,0 131.6,0 131.6,-19"/>
<text text-anchor="middle" x="98.1" y="-7" font-family="Helvetica,sans-Serif" font-size="10.00">logger.cpp</text>
</a>
</g>
</g>
<!-- Node4&#45;&gt;Node5 -->
<g id="edge4_Node000004_Node000005" class="edge">
<title>Node4&#45;&gt;Node5</title>
<g id="a_edge4_Node000004_Node000005"><a xlink:title=" ">
<path fill="none" stroke="#63b8ff" d="M132.06,-47.24C123.47,-37.95 113.05,-26.68 106.04,-19.09"/>
<polygon fill="#63b8ff" stroke="#63b8ff" points="129.65,-49.78 139,-54.75 134.79,-45.03 129.65,-49.78"/>
</a>
</g>
</g>
<!-- Node6 -->
<g id="Node000006" class="node">
<title>Node6</title>
<g id="a_Node000006"><a xlink:href="logger__builder_8h.html" target="_top" xlink:title=" ">
<polygon fill="white" stroke="#666666" points="244.6,-19 149.6,-19 149.6,0 244.6,0 244.6,-19"/>
<text text-anchor="middle" x="197.1" y="-7" font-family="Helvetica,sans-Serif" font-size="10.00">logger_builder.h</text>
</a>
</g>
</g>
<!-- Node4&#45;&gt;Node6 -->
<g id="edge5_Node000004_Node000006" class="edge">
<title>Node4&#45;&gt;Node6</title>
<g id="a_edge5_Node000004_Node000006"><a xlink:title=" ">
<path fill="none" stroke="#63b8ff" d="M162.44,-47.24C171.2,-37.95 181.83,-26.68 188.99,-19.09"/>
<polygon fill="#63b8ff" stroke="#63b8ff" points="159.67,-45.07 155.35,-54.75 164.76,-49.88 159.67,-45.07"/>
</a>
</g>
</g>
<!-- Node7&#45;&gt;Node3 -->
<g id="edge7_Node000007_Node000003" class="edge">
<title>Node7&#45;&gt;Node3</title>
<g id="a_edge7_Node000007_Node000003"><a xlink:title=" ">
<path fill="none" stroke="#63b8ff" d="M90.4,-155.34C94.02,-146.14 97.93,-136.17 100.65,-129.27"/>
<polygon fill="#63b8ff" stroke="#63b8ff" points="87.06,-154.25 86.66,-164.84 93.58,-156.81 87.06,-154.25"/>
</a>
</g>
</g>
<!-- Node9 -->
<g id="Node000009" class="node">
<title>Node9</title>
<g id="a_Node000009"><a xlink:href="health__check__system_8cpp.html" target="_top" xlink:title=" ">
<polygon fill="white" stroke="#666666" points="385.6,-189.5 242.6,-189.5 242.6,-170.5 385.6,-170.5 385.6,-189.5"/>
<text text-anchor="middle" x="314.1" y="-177.5" font-family="Helvetica,sans-Serif" font-size="10.00">health_check_system.cpp</text>
</a>
</g>
</g>
<!-- Node8&#45;&gt;Node9 -->
<g id="edge9_Node000008_Node000009" class="edge">
<title>Node8&#45;&gt;Node9</title>
<g id="a_edge9_Node000008_Node000009"><a xlink:title=" ">
<path fill="none" stroke="#63b8ff" d="M312.06,-220.66C312.6,-210.24 313.23,-197.8 313.65,-189.67"/>
<polygon fill="#63b8ff" stroke="#63b8ff" points="308.55,-220.7 311.54,-230.87 315.55,-221.06 308.55,-220.7"/>
</a>
</g>
</g>
</g>
</svg>
