<?xml version="1.0" encoding="UTF-8" standalone="no"?>
<!DOCTYPE svg PUBLIC "-//W3C//DTD SVG 1.1//EN"
 "http://www.w3.org/Graphics/SVG/1.1/DTD/svg11.dtd">
<!-- Generated by graphviz version 2.43.0 (0)
 -->
<!-- Title: network_writer.cpp Pages: 1 -->
<svg width="962pt" height="313pt"
 viewBox="0.00 0.00 962.00 313.00" xmlns="http://www.w3.org/2000/svg" xmlns:xlink="http://www.w3.org/1999/xlink">
<g id="graph0" class="graph" transform="scale(1 1) rotate(0) translate(4 309)">
<title>network_writer.cpp</title>
<!-- Node1 -->
<g id="Node000001" class="node">
<title>Node1</title>
<g id="a_Node000001"><a xlink:title=" ">
<polygon fill="#999999" stroke="#666666" points="616,-305 506,-305 506,-286 616,-286 616,-305"/>
<text text-anchor="middle" x="561" y="-293" font-family="Helvetica,sans-Serif" font-size="10.00">network_writer.cpp</text>
</a>
</g>
</g>
<!-- Node2 -->
<g id="Node000002" class="node">
<title>Node2</title>
<g id="a_Node000002"><a xlink:href="network__writer_8h.html" target="_top" xlink:title=" ">
<polygon fill="white" stroke="#666666" points="243,-250 145,-250 145,-231 243,-231 243,-250"/>
<text text-anchor="middle" x="194" y="-238" font-family="Helvetica,sans-Serif" font-size="10.00">network_writer.h</text>
</a>
</g>
</g>
<!-- Node1&#45;&gt;Node2 -->
<g id="edge1_Node000001_Node000002" class="edge">
<title>Node1&#45;&gt;Node2</title>
<g id="a_edge1_Node000001_Node000002"><a xlink:title=" ">
<path fill="none" stroke="#63b8ff" d="M505.66,-286.51C437.62,-276.68 322.62,-260.08 252.96,-250.02"/>
<polygon fill="#63b8ff" stroke="#63b8ff" points="253.42,-246.55 243.03,-248.58 252.42,-253.47 253.42,-246.55"/>
</a>
</g>
</g>
<!-- Node17 -->
<g id="Node000017" class="node">
<title>Node17</title>
<g id="a_Node000017"><a xlink:title=" ">
<polygon fill="#e0e0e0" stroke="#999999" points="168,-19 118,-19 118,0 168,0 168,-19"/>
<text text-anchor="middle" x="143" y="-7" font-family="Helvetica,sans-Serif" font-size="10.00">cstring</text>
</a>
</g>
</g>
<!-- Node1&#45;&gt;Node17 -->
<g id="edge43_Node000001_Node000017" class="edge">
<title>Node1&#45;&gt;Node17</title>
<g id="a_edge43_Node000001_Node000017"><a xlink:title=" ">
<path fill="none" stroke="#63b8ff" d="M505.92,-294.52C423.83,-293.25 265.22,-285.84 136,-250 71.72,-232.17 0,-253.21 0,-186.5 0,-186.5 0,-186.5 0,-124 0,-68.98 65.75,-36.39 108.08,-21.11"/>
<polygon fill="#63b8ff" stroke="#63b8ff" points="109.45,-24.34 117.76,-17.77 107.17,-17.72 109.45,-24.34"/>
</a>
</g>
</g>
<!-- Node25 -->
<g id="Node000025" class="node">
<title>Node25</title>
<g id="a_Node000025"><a xlink:title=" ">
<polygon fill="#e0e0e0" stroke="#999999" points="338.5,-250 261.5,-250 261.5,-231 338.5,-231 338.5,-250"/>
<text text-anchor="middle" x="300" y="-238" font-family="Helvetica,sans-Serif" font-size="10.00">sys/socket.h</text>
</a>
</g>
</g>
<!-- Node1&#45;&gt;Node25 -->
<g id="edge38_Node000001_Node000025" class="edge">
<title>Node1&#45;&gt;Node25</title>
<g id="a_edge38_Node000001_Node000025"><a xlink:title=" ">
<path fill="none" stroke="#63b8ff" d="M519.07,-285.98C472.65,-276.56 397.94,-261.39 348.9,-251.43"/>
<polygon fill="#63b8ff" stroke="#63b8ff" points="349.34,-247.95 338.85,-249.39 347.95,-254.81 349.34,-247.95"/>
</a>
</g>
</g>
<!-- Node26 -->
<g id="Node000026" class="node">
<title>Node26</title>
<g id="a_Node000026"><a xlink:title=" ">
<polygon fill="#e0e0e0" stroke="#999999" points="429,-250 357,-250 357,-231 429,-231 429,-250"/>
<text text-anchor="middle" x="393" y="-238" font-family="Helvetica,sans-Serif" font-size="10.00">netinet/in.h</text>
</a>
</g>
</g>
<!-- Node1&#45;&gt;Node26 -->
<g id="edge39_Node000001_Node000026" class="edge">
<title>Node1&#45;&gt;Node26</title>
<g id="a_edge39_Node000001_Node000026"><a xlink:title=" ">
<path fill="none" stroke="#63b8ff" d="M534.01,-285.98C505.8,-277.09 461.36,-263.07 429.92,-253.15"/>
<polygon fill="#63b8ff" stroke="#63b8ff" points="430.79,-249.75 420.2,-250.08 428.69,-256.43 430.79,-249.75"/>
</a>
</g>
</g>
<!-- Node27 -->
<g id="Node000027" class="node">
<title>Node27</title>
<g id="a_Node000027"><a xlink:title=" ">
<polygon fill="#e0e0e0" stroke="#999999" points="516.5,-250 447.5,-250 447.5,-231 516.5,-231 516.5,-250"/>
<text text-anchor="middle" x="482" y="-238" font-family="Helvetica,sans-Serif" font-size="10.00">arpa/inet.h</text>
</a>
</g>
</g>
<!-- Node1&#45;&gt;Node27 -->
<g id="edge40_Node000001_Node000027" class="edge">
<title>Node1&#45;&gt;Node27</title>
<g id="a_edge40_Node000001_Node000027"><a xlink:title=" ">
<path fill="none" stroke="#63b8ff" d="M548.31,-285.98C536.17,-277.84 517.64,-265.41 503.25,-255.76"/>
<polygon fill="#63b8ff" stroke="#63b8ff" points="505.18,-252.84 494.92,-250.17 501.28,-258.65 505.18,-252.84"/>
</a>
</g>
</g>
<!-- Node28 -->
<g id="Node000028" class="node">
<title>Node28</title>
<g id="a_Node000028"><a xlink:title=" ">
<polygon fill="#e0e0e0" stroke="#999999" points="587.5,-250 534.5,-250 534.5,-231 587.5,-231 587.5,-250"/>
<text text-anchor="middle" x="561" y="-238" font-family="Helvetica,sans-Serif" font-size="10.00">netdb.h</text>
</a>
</g>
</g>
<!-- Node1&#45;&gt;Node28 -->
<g id="edge41_Node000001_Node000028" class="edge">
<title>Node1&#45;&gt;Node28</title>
<g id="a_edge41_Node000001_Node000028"><a xlink:title=" ">
<path fill="none" stroke="#63b8ff" d="M561,-285.75C561,-278.8 561,-268.85 561,-260.13"/>
<polygon fill="#63b8ff" stroke="#63b8ff" points="564.5,-260.09 561,-250.09 557.5,-260.09 564.5,-260.09"/>
</a>
</g>
</g>
<!-- Node29 -->
<g id="Node000029" class="node">
<title>Node29</title>
<g id="a_Node000029"><a xlink:title=" ">
<polygon fill="#e0e0e0" stroke="#999999" points="662,-250 606,-250 606,-231 662,-231 662,-250"/>
<text text-anchor="middle" x="634" y="-238" font-family="Helvetica,sans-Serif" font-size="10.00">unistd.h</text>
</a>
</g>
</g>
<!-- Node1&#45;&gt;Node29 -->
<g id="edge42_Node000001_Node000029" class="edge">
<title>Node1&#45;&gt;Node29</title>
<g id="a_edge42_Node000001_Node000029"><a xlink:title=" ">
<path fill="none" stroke="#63b8ff" d="M572.73,-285.98C583.73,-278 600.42,-265.88 613.6,-256.31"/>
<polygon fill="#63b8ff" stroke="#63b8ff" points="616.02,-258.88 622.06,-250.17 611.91,-253.21 616.02,-258.88"/>
</a>
</g>
</g>
<!-- Node30 -->
<g id="Node000030" class="node">
<title>Node30</title>
<g id="a_Node000030"><a xlink:title=" ">
<polygon fill="#e0e0e0" stroke="#999999" points="727.5,-250 680.5,-250 680.5,-231 727.5,-231 727.5,-250"/>
<text text-anchor="middle" x="704" y="-238" font-family="Helvetica,sans-Serif" font-size="10.00">cerrno</text>
</a>
</g>
</g>
<!-- Node1&#45;&gt;Node30 -->
<g id="edge44_Node000001_Node000030" class="edge">
<title>Node1&#45;&gt;Node30</title>
<g id="a_edge44_Node000001_Node000030"><a xlink:title=" ">
<path fill="none" stroke="#63b8ff" d="M583.98,-285.98C607.5,-277.27 644.29,-263.63 670.94,-253.75"/>
<polygon fill="#63b8ff" stroke="#63b8ff" points="672.45,-256.93 680.61,-250.17 670.01,-250.36 672.45,-256.93"/>
</a>
</g>
</g>
<!-- Node31 -->
<g id="Node000031" class="node">
<title>Node31</title>
<g id="a_Node000031"><a xlink:title=" ">
<polygon fill="#e0e0e0" stroke="#999999" points="802,-250 746,-250 746,-231 802,-231 802,-250"/>
<text text-anchor="middle" x="774" y="-238" font-family="Helvetica,sans-Serif" font-size="10.00">sstream</text>
</a>
</g>
</g>
<!-- Node1&#45;&gt;Node31 -->
<g id="edge45_Node000001_Node000031" class="edge">
<title>Node1&#45;&gt;Node31</title>
<g id="a_edge45_Node000001_Node000031"><a xlink:title=" ">
<path fill="none" stroke="#63b8ff" d="M595.22,-285.98C633.73,-276.4 696.12,-260.88 736.09,-250.93"/>
<polygon fill="#63b8ff" stroke="#63b8ff" points="737.12,-254.28 745.98,-248.47 735.43,-247.49 737.12,-254.28"/>
</a>
</g>
</g>
<!-- Node32 -->
<g id="Node000032" class="node">
<title>Node32</title>
<g id="a_Node000032"><a xlink:title=" ">
<polygon fill="#e0e0e0" stroke="#999999" points="876,-250 820,-250 820,-231 876,-231 876,-250"/>
<text text-anchor="middle" x="848" y="-238" font-family="Helvetica,sans-Serif" font-size="10.00">iomanip</text>
</a>
</g>
</g>
<!-- Node1&#45;&gt;Node32 -->
<g id="edge46_Node000001_Node000032" class="edge">
<title>Node1&#45;&gt;Node32</title>
<g id="a_edge46_Node000001_Node000032"><a xlink:title=" ">
<path fill="none" stroke="#63b8ff" d="M613.34,-285.96C661.84,-277.87 736.23,-265.02 809.84,-250.16"/>
<polygon fill="#63b8ff" stroke="#63b8ff" points="810.65,-253.56 819.75,-248.14 809.25,-246.7 810.65,-253.56"/>
</a>
</g>
</g>
<!-- Node33 -->
<g id="Node000033" class="node">
<title>Node33</title>
<g id="a_Node000033"><a xlink:title=" ">
<polygon fill="#e0e0e0" stroke="#999999" points="954,-250 894,-250 894,-231 954,-231 954,-250"/>
<text text-anchor="middle" x="924" y="-238" font-family="Helvetica,sans-Serif" font-size="10.00">iostream</text>
</a>
</g>
</g>
<!-- Node1&#45;&gt;Node33 -->
<g id="edge47_Node000001_Node000033" class="edge">
<title>Node1&#45;&gt;Node33</title>
<g id="a_edge47_Node000001_Node000033"><a xlink:title=" ">
<path fill="none" stroke="#63b8ff" d="M616.24,-288.25C678.81,-280.86 784.02,-267.55 883.86,-250.08"/>
<polygon fill="#63b8ff" stroke="#63b8ff" points="884.57,-253.51 893.81,-248.32 883.36,-246.62 884.57,-253.51"/>
</a>
</g>
</g>
<!-- Node3 -->
<g id="Node000003" class="node">
<title>Node3</title>
<g id="a_Node000003"><a xlink:href="base__writer_8h.html" target="_top" xlink:title=" ">
<polygon fill="white" stroke="#666666" points="579,-195 497,-195 497,-176 579,-176 579,-195"/>
<text text-anchor="middle" x="538" y="-183" font-family="Helvetica,sans-Serif" font-size="10.00">base_writer.h</text>
</a>
</g>
</g>
<!-- Node2&#45;&gt;Node3 -->
<g id="edge2_Node000002_Node000003" class="edge">
<title>Node2&#45;&gt;Node3</title>
<g id="a_edge2_Node000002_Node000003"><a xlink:title=" ">
<path fill="none" stroke="#63b8ff" d="M243.2,-232.33C299.57,-224.06 394.98,-209.86 486.79,-195.17"/>
<polygon fill="#63b8ff" stroke="#63b8ff" points="487.49,-198.6 496.81,-193.56 486.38,-191.69 487.49,-198.6"/>
</a>
</g>
</g>
<!-- Node7 -->
<g id="Node000007" class="node">
<title>Node7</title>
<g id="a_Node000007"><a xlink:title=" ">
<polygon fill="#e0e0e0" stroke="#999999" points="244,-19 186,-19 186,0 244,0 244,-19"/>
<text text-anchor="middle" x="215" y="-7" font-family="Helvetica,sans-Serif" font-size="10.00">memory</text>
</a>
</g>
</g>
<!-- Node2&#45;&gt;Node7 -->
<g id="edge35_Node000002_Node000007" class="edge">
<title>Node2&#45;&gt;Node7</title>
<g id="a_edge35_Node000002_Node000007"><a xlink:title=" ">
<path fill="none" stroke="#63b8ff" d="M149.24,-230.92C129.05,-224.58 107.08,-213.67 95,-195 90.41,-187.91 93.27,-184.27 95,-176 107.03,-118.54 110.24,-99.95 148,-55 158.8,-42.14 174.24,-31.55 187.57,-23.92"/>
<polygon fill="#63b8ff" stroke="#63b8ff" points="189.27,-26.98 196.39,-19.13 185.93,-20.83 189.27,-26.98"/>
</a>
</g>
</g>
<!-- Node8 -->
<g id="Node000008" class="node">
<title>Node8</title>
<g id="a_Node000008"><a xlink:title=" ">
<polygon fill="#e0e0e0" stroke="#999999" points="100,-19 52,-19 52,0 100,0 100,-19"/>
<text text-anchor="middle" x="76" y="-7" font-family="Helvetica,sans-Serif" font-size="10.00">mutex</text>
</a>
</g>
</g>
<!-- Node2&#45;&gt;Node8 -->
<g id="edge36_Node000002_Node000008" class="edge">
<title>Node2&#45;&gt;Node8</title>
<g id="a_edge36_Node000002_Node000008"><a xlink:title=" ">
<path fill="none" stroke="#63b8ff" d="M151.83,-230.93C131.39,-224.53 108.41,-213.56 95,-195 58.59,-144.59 66.3,-65.25 72.28,-29.31"/>
<polygon fill="#63b8ff" stroke="#63b8ff" points="75.77,-29.72 74.11,-19.26 68.88,-28.47 75.77,-29.72"/>
</a>
</g>
</g>
<!-- Node20 -->
<g id="Node000020" class="node">
<title>Node20</title>
<g id="a_Node000020"><a xlink:title=" ">
<polygon fill="#e0e0e0" stroke="#999999" points="152,-195 104,-195 104,-176 152,-176 152,-195"/>
<text text-anchor="middle" x="128" y="-183" font-family="Helvetica,sans-Serif" font-size="10.00">thread</text>
</a>
</g>
</g>
<!-- Node2&#45;&gt;Node20 -->
<g id="edge31_Node000002_Node000020" class="edge">
<title>Node2&#45;&gt;Node20</title>
<g id="a_edge31_Node000002_Node000020"><a xlink:title=" ">
<path fill="none" stroke="#63b8ff" d="M183.4,-230.98C173.54,-223.07 158.65,-211.11 146.78,-201.58"/>
<polygon fill="#63b8ff" stroke="#63b8ff" points="148.79,-198.7 138.8,-195.17 144.4,-204.16 148.79,-198.7"/>
</a>
</g>
</g>
<!-- Node21 -->
<g id="Node000021" class="node">
<title>Node21</title>
<g id="a_Node000021"><a xlink:title=" ">
<polygon fill="#e0e0e0" stroke="#999999" points="217.5,-195 170.5,-195 170.5,-176 217.5,-176 217.5,-195"/>
<text text-anchor="middle" x="194" y="-183" font-family="Helvetica,sans-Serif" font-size="10.00">queue</text>
</a>
</g>
</g>
<!-- Node2&#45;&gt;Node21 -->
<g id="edge32_Node000002_Node000021" class="edge">
<title>Node2&#45;&gt;Node21</title>
<g id="a_edge32_Node000002_Node000021"><a xlink:title=" ">
<path fill="none" stroke="#63b8ff" d="M194,-230.75C194,-223.8 194,-213.85 194,-205.13"/>
<polygon fill="#63b8ff" stroke="#63b8ff" points="197.5,-205.09 194,-195.09 190.5,-205.09 197.5,-205.09"/>
</a>
</g>
</g>
<!-- Node22 -->
<g id="Node000022" class="node">
<title>Node22</title>
<g id="a_Node000022"><a xlink:title=" ">
<polygon fill="#e0e0e0" stroke="#999999" points="342.5,-195 235.5,-195 235.5,-176 342.5,-176 342.5,-195"/>
<text text-anchor="middle" x="289" y="-183" font-family="Helvetica,sans-Serif" font-size="10.00">condition_variable</text>
</a>
</g>
</g>
<!-- Node2&#45;&gt;Node22 -->
<g id="edge33_Node000002_Node000022" class="edge">
<title>Node2&#45;&gt;Node22</title>
<g id="a_edge33_Node000002_Node000022"><a xlink:title=" ">
<path fill="none" stroke="#63b8ff" d="M209.26,-230.98C224.13,-222.69 246.98,-209.94 264.42,-200.22"/>
<polygon fill="#63b8ff" stroke="#63b8ff" points="266.43,-203.1 273.46,-195.17 263.02,-196.99 266.43,-203.1"/>
</a>
</g>
</g>
<!-- Node23 -->
<g id="Node000023" class="node">
<title>Node23</title>
<g id="a_Node000023"><a xlink:title=" ">
<polygon fill="#e0e0e0" stroke="#999999" points="411,-195 361,-195 361,-176 411,-176 411,-195"/>
<text text-anchor="middle" x="386" y="-183" font-family="Helvetica,sans-Serif" font-size="10.00">atomic</text>
</a>
</g>
</g>
<!-- Node2&#45;&gt;Node23 -->
<g id="edge34_Node000002_Node000023" class="edge">
<title>Node2&#45;&gt;Node23</title>
<g id="a_edge34_Node000002_Node000023"><a xlink:title=" ">
<path fill="none" stroke="#63b8ff" d="M224.85,-230.98C259.2,-221.5 314.61,-206.21 350.67,-196.25"/>
<polygon fill="#63b8ff" stroke="#63b8ff" points="352.04,-199.51 360.75,-193.47 350.17,-192.76 352.04,-199.51"/>
</a>
</g>
</g>
<!-- Node24 -->
<g id="Node000024" class="node">
<title>Node24</title>
<g id="a_Node000024"><a xlink:title=" ">
<polygon fill="#e0e0e0" stroke="#999999" points="479,-195 429,-195 429,-176 479,-176 479,-195"/>
<text text-anchor="middle" x="454" y="-183" font-family="Helvetica,sans-Serif" font-size="10.00">cstdint</text>
</a>
</g>
</g>
<!-- Node2&#45;&gt;Node24 -->
<g id="edge37_Node000002_Node000024" class="edge">
<title>Node2&#45;&gt;Node24</title>
<g id="a_edge37_Node000002_Node000024"><a xlink:title=" ">
<path fill="none" stroke="#63b8ff" d="M240.89,-230.98C284.55,-222.89 351.68,-210.04 418.87,-195.16"/>
<polygon fill="#63b8ff" stroke="#63b8ff" points="419.78,-198.55 428.78,-192.96 418.26,-191.72 419.78,-198.55"/>
</a>
</g>
</g>
<!-- Node4 -->
<g id="Node000004" class="node">
<title>Node4</title>
<g id="a_Node000004"><a xlink:title=" ">
<polygon fill="#e0e0e0" stroke="#999999" points="493,-19 449,-19 449,0 493,0 493,-19"/>
<text text-anchor="middle" x="471" y="-7" font-family="Helvetica,sans-Serif" font-size="10.00">string</text>
</a>
</g>
</g>
<!-- Node3&#45;&gt;Node4 -->
<g id="edge3_Node000003_Node000004" class="edge">
<title>Node3&#45;&gt;Node4</title>
<g id="a_edge3_Node000003_Node000004"><a xlink:title=" ">
<path fill="none" stroke="#63b8ff" d="M534.59,-175.63C524.1,-148.4 492.22,-65.61 477.99,-28.65"/>
<polygon fill="#63b8ff" stroke="#63b8ff" points="481.19,-27.22 474.33,-19.14 474.66,-29.73 481.19,-27.22"/>
</a>
</g>
</g>
<!-- Node5 -->
<g id="Node000005" class="node">
<title>Node5</title>
<g id="a_Node000005"><a xlink:title=" ">
<polygon fill="#e0e0e0" stroke="#999999" points="591,-74 541,-74 541,-55 591,-55 591,-74"/>
<text text-anchor="middle" x="566" y="-62" font-family="Helvetica,sans-Serif" font-size="10.00">chrono</text>
</a>
</g>
</g>
<!-- Node3&#45;&gt;Node5 -->
<g id="edge4_Node000003_Node000005" class="edge">
<title>Node3&#45;&gt;Node5</title>
<g id="a_edge4_Node000003_Node000005"><a xlink:title=" ">
<path fill="none" stroke="#63b8ff" d="M536.64,-175.56C534.79,-161.36 532.44,-132.88 539,-110 541.83,-100.14 547.46,-90.27 552.85,-82.34"/>
<polygon fill="#63b8ff" stroke="#63b8ff" points="555.84,-84.18 558.89,-74.04 550.18,-80.07 555.84,-84.18"/>
</a>
</g>
</g>
<!-- Node6 -->
<g id="Node000006" class="node">
<title>Node6</title>
<g id="a_Node000006"><a xlink:href="logger__interface_8h.html" target="_top" xlink:title=" ">
<polygon fill="white" stroke="#666666" points="271,-74 157,-74 157,-55 271,-55 271,-74"/>
<text text-anchor="middle" x="214" y="-62" font-family="Helvetica,sans-Serif" font-size="10.00">../logger_interface.h</text>
</a>
</g>
</g>
<!-- Node3&#45;&gt;Node6 -->
<g id="edge5_Node000003_Node000006" class="edge">
<title>Node3&#45;&gt;Node6</title>
<g id="a_edge5_Node000003_Node000006"><a xlink:title=" ">
<path fill="none" stroke="#63b8ff" d="M496.79,-177.09C432.71,-165.49 315.59,-143.97 307,-140 276.01,-125.68 246.34,-98.87 229.15,-81.62"/>
<polygon fill="#63b8ff" stroke="#63b8ff" points="231.25,-78.75 221.77,-74.02 226.23,-83.63 231.25,-78.75"/>
</a>
</g>
</g>
<!-- Node9 -->
<g id="Node000009" class="node">
<title>Node9</title>
<g id="a_Node000009"><a xlink:href="error__codes_8h.html" target="_top" xlink:title=" ">
<polygon fill="white" stroke="#666666" points="739,-74 647,-74 647,-55 739,-55 739,-74"/>
<text text-anchor="middle" x="693" y="-62" font-family="Helvetica,sans-Serif" font-size="10.00">../error_codes.h</text>
</a>
</g>
</g>
<!-- Node3&#45;&gt;Node9 -->
<g id="edge9_Node000003_Node000009" class="edge">
<title>Node3&#45;&gt;Node9</title>
<g id="a_edge9_Node000003_Node000009"><a xlink:title=" ">
<path fill="none" stroke="#63b8ff" d="M579.19,-183.39C612.37,-180.16 657.54,-170.03 683,-140 696.03,-124.63 696.98,-100.71 695.68,-84.13"/>
<polygon fill="#63b8ff" stroke="#63b8ff" points="699.14,-83.58 694.55,-74.03 692.19,-84.36 699.14,-83.58"/>
</a>
</g>
</g>
<!-- Node14 -->
<g id="Node000014" class="node">
<title>Node14</title>
<g id="a_Node000014"><a xlink:href="log__writer__interface_8h.html" target="_top" xlink:title=" ">
<polygon fill="white" stroke="#666666" points="674,-140 548,-140 548,-110 674,-110 674,-140"/>
<text text-anchor="start" x="556" y="-128" font-family="Helvetica,sans-Serif" font-size="10.00">../interfaces/log_writer</text>
<text text-anchor="middle" x="611" y="-117" font-family="Helvetica,sans-Serif" font-size="10.00">_interface.h</text>
</a>
</g>
</g>
<!-- Node3&#45;&gt;Node14 -->
<g id="edge15_Node000003_Node000014" class="edge">
<title>Node3&#45;&gt;Node14</title>
<g id="a_edge15_Node000003_Node000014"><a xlink:title=" ">
<path fill="none" stroke="#63b8ff" d="M548.77,-175.87C558.4,-168.15 572.89,-156.54 585.47,-146.46"/>
<polygon fill="#63b8ff" stroke="#63b8ff" points="587.77,-149.1 593.39,-140.11 583.39,-143.64 587.77,-149.1"/>
</a>
</g>
</g>
<!-- Node15 -->
<g id="Node000015" class="node">
<title>Node15</title>
<g id="a_Node000015"><a xlink:href="log__entry_8h.html" target="_top" xlink:title=" ">
<polygon fill="white" stroke="#666666" points="446.5,-134.5 315.5,-134.5 315.5,-115.5 446.5,-115.5 446.5,-134.5"/>
<text text-anchor="middle" x="381" y="-122.5" font-family="Helvetica,sans-Serif" font-size="10.00">../interfaces/log_entry.h</text>
</a>
</g>
</g>
<!-- Node3&#45;&gt;Node15 -->
<g id="edge19_Node000003_Node000015" class="edge">
<title>Node3&#45;&gt;Node15</title>
<g id="a_edge19_Node000003_Node000015"><a xlink:title=" ">
<path fill="none" stroke="#63b8ff" d="M515.17,-175.99C488.43,-166.03 443.92,-149.45 413.56,-138.13"/>
<polygon fill="#63b8ff" stroke="#63b8ff" points="414.45,-134.73 403.86,-134.52 412.01,-141.29 414.45,-134.73"/>
</a>
</g>
</g>
<!-- Node6&#45;&gt;Node4 -->
<g id="edge8_Node000006_Node000004" class="edge">
<title>Node6&#45;&gt;Node4</title>
<g id="a_edge8_Node000006_Node000004"><a xlink:title=" ">
<path fill="none" stroke="#63b8ff" d="M259.18,-55C304.12,-46.41 374.98,-32.52 436,-19 436.91,-18.8 437.83,-18.59 438.76,-18.38"/>
<polygon fill="#63b8ff" stroke="#63b8ff" points="439.87,-21.72 448.81,-16.03 438.28,-14.9 439.87,-21.72"/>
</a>
</g>
</g>
<!-- Node6&#45;&gt;Node7 -->
<g id="edge6_Node000006_Node000007" class="edge">
<title>Node6&#45;&gt;Node7</title>
<g id="a_edge6_Node000006_Node000007"><a xlink:title=" ">
<path fill="none" stroke="#63b8ff" d="M214.17,-54.75C214.3,-47.8 214.48,-37.85 214.65,-29.13"/>
<polygon fill="#63b8ff" stroke="#63b8ff" points="218.15,-29.15 214.84,-19.09 211.15,-29.02 218.15,-29.15"/>
</a>
</g>
</g>
<!-- Node6&#45;&gt;Node8 -->
<g id="edge7_Node000006_Node000008" class="edge">
<title>Node6&#45;&gt;Node8</title>
<g id="a_edge7_Node000006_Node000008"><a xlink:title=" ">
<path fill="none" stroke="#63b8ff" d="M191.83,-54.98C169.23,-46.3 133.94,-32.75 108.25,-22.88"/>
<polygon fill="#63b8ff" stroke="#63b8ff" points="109.17,-19.49 98.58,-19.17 106.66,-26.02 109.17,-19.49"/>
</a>
</g>
</g>
<!-- Node9&#45;&gt;Node4 -->
<g id="edge10_Node000009_Node000004" class="edge">
<title>Node9&#45;&gt;Node4</title>
<g id="a_edge10_Node000009_Node000004"><a xlink:title=" ">
<path fill="none" stroke="#63b8ff" d="M657.33,-54.98C614.71,-44.81 544.04,-27.94 503.07,-18.16"/>
<polygon fill="#63b8ff" stroke="#63b8ff" points="503.63,-14.69 493.09,-15.77 502,-21.5 503.63,-14.69"/>
</a>
</g>
</g>
<!-- Node10 -->
<g id="Node000010" class="node">
<title>Node10</title>
<g id="a_Node000010"><a xlink:title=" ">
<polygon fill="#e0e0e0" stroke="#999999" points="724.5,-19 659.5,-19 659.5,0 724.5,0 724.5,-19"/>
<text text-anchor="middle" x="692" y="-7" font-family="Helvetica,sans-Serif" font-size="10.00">stdexcept</text>
</a>
</g>
</g>
<!-- Node9&#45;&gt;Node10 -->
<g id="edge11_Node000009_Node000010" class="edge">
<title>Node9&#45;&gt;Node10</title>
<g id="a_edge11_Node000009_Node000010"><a xlink:title=" ">
<path fill="none" stroke="#63b8ff" d="M692.83,-54.75C692.7,-47.8 692.52,-37.85 692.35,-29.13"/>
<polygon fill="#63b8ff" stroke="#63b8ff" points="695.85,-29.02 692.16,-19.09 688.85,-29.15 695.85,-29.02"/>
</a>
</g>
</g>
<!-- Node11 -->
<g id="Node000011" class="node">
<title>Node11</title>
<g id="a_Node000011"><a xlink:title=" ">
<polygon fill="#e0e0e0" stroke="#999999" points="562.5,-19 517.5,-19 517.5,0 562.5,0 562.5,-19"/>
<text text-anchor="middle" x="540" y="-7" font-family="Helvetica,sans-Serif" font-size="10.00">utility</text>
</a>
</g>
</g>
<!-- Node9&#45;&gt;Node11 -->
<g id="edge12_Node000009_Node000011" class="edge">
<title>Node9&#45;&gt;Node11</title>
<g id="a_edge12_Node000009_Node000011"><a xlink:title=" ">
<path fill="none" stroke="#63b8ff" d="M668.42,-54.98C642.27,-45.93 600.81,-31.56 572.1,-21.62"/>
<polygon fill="#63b8ff" stroke="#63b8ff" points="573.12,-18.27 562.53,-18.3 570.83,-24.88 573.12,-18.27"/>
</a>
</g>
</g>
<!-- Node12 -->
<g id="Node000012" class="node">
<title>Node12</title>
<g id="a_Node000012"><a xlink:title=" ">
<polygon fill="#e0e0e0" stroke="#999999" points="640,-19 584,-19 584,0 640,0 640,-19"/>
<text text-anchor="middle" x="612" y="-7" font-family="Helvetica,sans-Serif" font-size="10.00">optional</text>
</a>
</g>
</g>
<!-- Node9&#45;&gt;Node12 -->
<g id="edge13_Node000009_Node000012" class="edge">
<title>Node9&#45;&gt;Node12</title>
<g id="a_edge13_Node000009_Node000012"><a xlink:title=" ">
<path fill="none" stroke="#63b8ff" d="M679.99,-54.98C667.54,-46.84 648.54,-34.41 633.79,-24.76"/>
<polygon fill="#63b8ff" stroke="#63b8ff" points="635.54,-21.72 625.25,-19.17 631.7,-27.57 635.54,-21.72"/>
</a>
</g>
</g>
<!-- Node13 -->
<g id="Node000013" class="node">
<title>Node13</title>
<g id="a_Node000013"><a xlink:title=" ">
<polygon fill="#e0e0e0" stroke="#999999" points="793.5,-19 742.5,-19 742.5,0 793.5,0 793.5,-19"/>
<text text-anchor="middle" x="768" y="-7" font-family="Helvetica,sans-Serif" font-size="10.00">variant</text>
</a>
</g>
</g>
<!-- Node9&#45;&gt;Node13 -->
<g id="edge14_Node000009_Node000013" class="edge">
<title>Node9&#45;&gt;Node13</title>
<g id="a_edge14_Node000009_Node000013"><a xlink:title=" ">
<path fill="none" stroke="#63b8ff" d="M705.05,-54.98C716.46,-46.92 733.83,-34.65 747.43,-25.03"/>
<polygon fill="#63b8ff" stroke="#63b8ff" points="749.58,-27.8 755.73,-19.17 745.54,-22.08 749.58,-27.8"/>
</a>
</g>
</g>
<!-- Node14&#45;&gt;Node4 -->
<g id="edge16_Node000014_Node000004" class="edge">
<title>Node14&#45;&gt;Node4</title>
<g id="a_edge16_Node000014_Node000004"><a xlink:title=" ">
<path fill="none" stroke="#63b8ff" d="M612.7,-109.85C613.72,-94.56 612.87,-70.33 600,-55 587.37,-39.95 536.96,-25.73 503.03,-17.57"/>
<polygon fill="#63b8ff" stroke="#63b8ff" points="503.62,-14.12 493.09,-15.24 502.02,-20.93 503.62,-14.12"/>
</a>
</g>
</g>
<!-- Node14&#45;&gt;Node5 -->
<g id="edge17_Node000014_Node000005" class="edge">
<title>Node14&#45;&gt;Node5</title>
<g id="a_edge17_Node000014_Node000005"><a xlink:title=" ">
<path fill="none" stroke="#63b8ff" d="M600.11,-109.84C593.71,-101.52 585.58,-90.96 578.87,-82.23"/>
<polygon fill="#63b8ff" stroke="#63b8ff" points="581.61,-80.06 572.74,-74.27 576.07,-84.33 581.61,-80.06"/>
</a>
</g>
</g>
<!-- Node14&#45;&gt;Node9 -->
<g id="edge18_Node000014_Node000009" class="edge">
<title>Node14&#45;&gt;Node9</title>
<g id="a_edge18_Node000014_Node000009"><a xlink:title=" ">
<path fill="none" stroke="#63b8ff" d="M630.85,-109.84C643.48,-100.83 659.8,-89.18 672.55,-80.09"/>
<polygon fill="#63b8ff" stroke="#63b8ff" points="674.6,-82.92 680.71,-74.27 670.54,-77.22 674.6,-82.92"/>
</a>
</g>
</g>
<!-- Node15&#45;&gt;Node4 -->
<g id="edge20_Node000015_Node000004" class="edge">
<title>Node15&#45;&gt;Node4</title>
<g id="a_edge20_Node000015_Node000004"><a xlink:title=" ">
<path fill="none" stroke="#63b8ff" d="M387.76,-115.47C402.62,-96.74 438.31,-51.72 457.79,-27.16"/>
<polygon fill="#63b8ff" stroke="#63b8ff" points="460.69,-29.14 464.16,-19.13 455.2,-24.79 460.69,-29.14"/>
</a>
</g>
</g>
<!-- Node15&#45;&gt;Node5 -->
<g id="edge21_Node000015_Node000005" class="edge">
<title>Node15&#45;&gt;Node5</title>
<g id="a_edge21_Node000015_Node000005"><a xlink:title=" ">
<path fill="none" stroke="#63b8ff" d="M407.9,-115.49C440.51,-105.18 495.53,-87.78 531.3,-76.47"/>
<polygon fill="#63b8ff" stroke="#63b8ff" points="532.37,-79.81 540.85,-73.45 530.26,-73.13 532.37,-79.81"/>
</a>
</g>
</g>
<!-- Node15&#45;&gt;Node6 -->
<g id="edge30_Node000015_Node000006" class="edge">
<title>Node15&#45;&gt;Node6</title>
<g id="a_edge30_Node000015_Node000006"><a xlink:title=" ">
<path fill="none" stroke="#63b8ff" d="M356.72,-115.49C328.02,-105.44 280.11,-88.66 247.8,-77.34"/>
<polygon fill="#63b8ff" stroke="#63b8ff" points="248.91,-74.02 238.31,-74.02 246.59,-80.63 248.91,-74.02"/>
</a>
</g>
</g>
<!-- Node15&#45;&gt;Node12 -->
<g id="edge22_Node000015_Node000012" class="edge">
<title>Node15&#45;&gt;Node12</title>
<g id="a_edge22_Node000015_Node000012"><a xlink:title=" ">
<path fill="none" stroke="#63b8ff" d="M398.36,-115.47C438.41,-95.79 537.48,-47.11 585.32,-23.61"/>
<polygon fill="#63b8ff" stroke="#63b8ff" points="587,-26.68 594.44,-19.13 583.92,-20.4 587,-26.68"/>
</a>
</g>
</g>
<!-- Node16 -->
<g id="Node000016" class="node">
<title>Node16</title>
<g id="a_Node000016"><a xlink:href="small__string_8h.html" target="_top" xlink:title=" ">
<polygon fill="white" stroke="#666666" points="408.5,-74 289.5,-74 289.5,-55 408.5,-55 408.5,-74"/>
<text text-anchor="middle" x="349" y="-62" font-family="Helvetica,sans-Serif" font-size="10.00">../core/small_string.h</text>
</a>
</g>
</g>
<!-- Node15&#45;&gt;Node16 -->
<g id="edge23_Node000015_Node000016" class="edge">
<title>Node15&#45;&gt;Node16</title>
<g id="a_edge23_Node000015_Node000016"><a xlink:title=" ">
<path fill="none" stroke="#63b8ff" d="M376.28,-115.37C371.65,-106.9 364.45,-93.74 358.61,-83.07"/>
<polygon fill="#63b8ff" stroke="#63b8ff" points="361.61,-81.26 353.74,-74.17 355.47,-84.62 361.61,-81.26"/>
</a>
</g>
</g>
<!-- Node16&#45;&gt;Node4 -->
<g id="edge25_Node000016_Node000004" class="edge">
<title>Node16&#45;&gt;Node4</title>
<g id="a_edge25_Node000016_Node000004"><a xlink:title=" ">
<path fill="none" stroke="#63b8ff" d="M368.6,-54.98C388.32,-46.42 418.95,-33.11 441.58,-23.28"/>
<polygon fill="#63b8ff" stroke="#63b8ff" points="443.26,-26.37 451.04,-19.17 440.48,-19.94 443.26,-26.37"/>
</a>
</g>
</g>
<!-- Node16&#45;&gt;Node7 -->
<g id="edge28_Node000016_Node000007" class="edge">
<title>Node16&#45;&gt;Node7</title>
<g id="a_edge28_Node000016_Node000007"><a xlink:title=" ">
<path fill="none" stroke="#63b8ff" d="M327.47,-54.98C305.53,-46.3 271.26,-32.75 246.31,-22.88"/>
<polygon fill="#63b8ff" stroke="#63b8ff" points="247.51,-19.59 236.92,-19.17 244.93,-26.1 247.51,-19.59"/>
</a>
</g>
</g>
<!-- Node16&#45;&gt;Node11 -->
<g id="edge29_Node000016_Node000011" class="edge">
<title>Node16&#45;&gt;Node11</title>
<g id="a_edge29_Node000016_Node000011"><a xlink:title=" ">
<path fill="none" stroke="#63b8ff" d="M379.69,-54.98C414.72,-45.26 471.78,-29.43 507.54,-19.51"/>
<polygon fill="#63b8ff" stroke="#63b8ff" points="508.76,-22.8 517.46,-16.75 506.89,-16.06 508.76,-22.8"/>
</a>
</g>
</g>
<!-- Node16&#45;&gt;Node17 -->
<g id="edge24_Node000016_Node000017" class="edge">
<title>Node16&#45;&gt;Node17</title>
<g id="a_edge24_Node000016_Node000017"><a xlink:title=" ">
<path fill="none" stroke="#63b8ff" d="M315.9,-54.98C278.11,-45.26 216.54,-29.42 177.98,-19.5"/>
<polygon fill="#63b8ff" stroke="#63b8ff" points="178.78,-16.09 168.22,-16.99 177.04,-22.87 178.78,-16.09"/>
</a>
</g>
</g>
<!-- Node18 -->
<g id="Node000018" class="node">
<title>Node18</title>
<g id="a_Node000018"><a xlink:title=" ">
<polygon fill="#e0e0e0" stroke="#999999" points="344.5,-19 271.5,-19 271.5,0 344.5,0 344.5,-19"/>
<text text-anchor="middle" x="308" y="-7" font-family="Helvetica,sans-Serif" font-size="10.00">string_view</text>
</a>
</g>
</g>
<!-- Node16&#45;&gt;Node18 -->
<g id="edge26_Node000016_Node000018" class="edge">
<title>Node16&#45;&gt;Node18</title>
<g id="a_edge26_Node000016_Node000018"><a xlink:title=" ">
<path fill="none" stroke="#63b8ff" d="M342.23,-54.75C336.44,-47.26 327.94,-36.28 320.86,-27.13"/>
<polygon fill="#63b8ff" stroke="#63b8ff" points="323.53,-24.86 314.64,-19.09 317.99,-29.14 323.53,-24.86"/>
</a>
</g>
</g>
<!-- Node19 -->
<g id="Node000019" class="node">
<title>Node19</title>
<g id="a_Node000019"><a xlink:title=" ">
<polygon fill="#e0e0e0" stroke="#999999" points="427,-19 363,-19 363,0 427,0 427,-19"/>
<text text-anchor="middle" x="395" y="-7" font-family="Helvetica,sans-Serif" font-size="10.00">algorithm</text>
</a>
</g>
</g>
<!-- Node16&#45;&gt;Node19 -->
<g id="edge27_Node000016_Node000019" class="edge">
<title>Node16&#45;&gt;Node19</title>
<g id="a_edge27_Node000016_Node000019"><a xlink:title=" ">
<path fill="none" stroke="#63b8ff" d="M356.6,-54.75C363.16,-47.18 372.82,-36.05 380.81,-26.84"/>
<polygon fill="#63b8ff" stroke="#63b8ff" points="383.63,-28.94 387.55,-19.09 378.35,-24.35 383.63,-28.94"/>
</a>
</g>
</g>
</g>
</svg>
