<?xml version="1.0" encoding="UTF-8" standalone="no"?>
<!DOCTYPE svg PUBLIC "-//W3C//DTD SVG 1.1//EN"
 "http://www.w3.org/Graphics/SVG/1.1/DTD/svg11.dtd">
<!-- Generated by graphviz version 2.43.0 (0)
 -->
<!-- Title: network_writer.cpp Pages: 1 -->
<svg width="1334pt" height="313pt"
 viewBox="0.00 0.00 1334.44 313.00" xmlns="http://www.w3.org/2000/svg" xmlns:xlink="http://www.w3.org/1999/xlink">
<g id="graph0" class="graph" transform="scale(1 1) rotate(0) translate(4 309)">
<title>network_writer.cpp</title>
<!-- Node1 -->
<g id="Node000001" class="node">
<title>Node1</title>
<g id="a_Node000001"><a xlink:title=" ">
<polygon fill="#999999" stroke="#666666" points="1022.44,-305 912.44,-305 912.44,-286 1022.44,-286 1022.44,-305"/>
<text text-anchor="middle" x="967.44" y="-293" font-family="Helvetica,sans-Serif" font-size="10.00">network_writer.cpp</text>
</a>
</g>
</g>
<!-- Node2 -->
<g id="Node000002" class="node">
<title>Node2</title>
<g id="a_Node000002"><a xlink:href="network__writer_8h.html" target="_top" xlink:title=" ">
<polygon fill="white" stroke="#666666" points="613.44,-250 515.44,-250 515.44,-231 613.44,-231 613.44,-250"/>
<text text-anchor="middle" x="564.44" y="-238" font-family="Helvetica,sans-Serif" font-size="10.00">network_writer.h</text>
</a>
</g>
</g>
<!-- Node1&#45;&gt;Node2 -->
<g id="edge1_Node000001_Node000002" class="edge">
<title>Node1&#45;&gt;Node2</title>
<g id="a_edge1_Node000001_Node000002"><a xlink:title=" ">
<path fill="none" stroke="#63b8ff" d="M912.29,-287.62C846.39,-279.33 732.47,-264.84 623.84,-250.04"/>
<polygon fill="#63b8ff" stroke="#63b8ff" points="624.07,-246.53 613.69,-248.65 623.12,-253.47 624.07,-246.53"/>
</a>
</g>
</g>
<!-- Node18 -->
<g id="Node000018" class="node">
<title>Node18</title>
<g id="a_Node000018"><a xlink:title=" ">
<polygon fill="#e0e0e0" stroke="#999999" points="708.94,-250 631.94,-250 631.94,-231 708.94,-231 708.94,-250"/>
<text text-anchor="middle" x="670.44" y="-238" font-family="Helvetica,sans-Serif" font-size="10.00">sys/socket.h</text>
</a>
</g>
</g>
<!-- Node1&#45;&gt;Node18 -->
<g id="edge27_Node000001_Node000018" class="edge">
<title>Node1&#45;&gt;Node18</title>
<g id="a_edge27_Node000001_Node000018"><a xlink:title=" ">
<path fill="none" stroke="#63b8ff" d="M919.72,-285.98C864.61,-276.15 774.44,-260.06 718.98,-250.16"/>
<polygon fill="#63b8ff" stroke="#63b8ff" points="719.51,-246.7 709.05,-248.39 718.28,-253.59 719.51,-246.7"/>
</a>
</g>
</g>
<!-- Node19 -->
<g id="Node000019" class="node">
<title>Node19</title>
<g id="a_Node000019"><a xlink:title=" ">
<polygon fill="#e0e0e0" stroke="#999999" points="799.44,-250 727.44,-250 727.44,-231 799.44,-231 799.44,-250"/>
<text text-anchor="middle" x="763.44" y="-238" font-family="Helvetica,sans-Serif" font-size="10.00">netinet/in.h</text>
</a>
</g>
</g>
<!-- Node1&#45;&gt;Node19 -->
<g id="edge28_Node000001_Node000019" class="edge">
<title>Node1&#45;&gt;Node19</title>
<g id="a_edge28_Node000001_Node000019"><a xlink:title=" ">
<path fill="none" stroke="#63b8ff" d="M934.66,-285.98C899.82,-276.93 844.57,-262.58 806.3,-252.64"/>
<polygon fill="#63b8ff" stroke="#63b8ff" points="807.03,-249.21 796.47,-250.08 805.27,-255.98 807.03,-249.21"/>
</a>
</g>
</g>
<!-- Node20 -->
<g id="Node000020" class="node">
<title>Node20</title>
<g id="a_Node000020"><a xlink:title=" ">
<polygon fill="#e0e0e0" stroke="#999999" points="886.94,-250 817.94,-250 817.94,-231 886.94,-231 886.94,-250"/>
<text text-anchor="middle" x="852.44" y="-238" font-family="Helvetica,sans-Serif" font-size="10.00">arpa/inet.h</text>
</a>
</g>
</g>
<!-- Node1&#45;&gt;Node20 -->
<g id="edge29_Node000001_Node000020" class="edge">
<title>Node1&#45;&gt;Node20</title>
<g id="a_edge29_Node000001_Node000020"><a xlink:title=" ">
<path fill="none" stroke="#63b8ff" d="M948.96,-285.98C930.46,-277.46 901.76,-264.23 880.45,-254.41"/>
<polygon fill="#63b8ff" stroke="#63b8ff" points="881.8,-251.18 871.25,-250.17 878.87,-257.53 881.8,-251.18"/>
</a>
</g>
</g>
<!-- Node21 -->
<g id="Node000021" class="node">
<title>Node21</title>
<g id="a_Node000021"><a xlink:title=" ">
<polygon fill="#e0e0e0" stroke="#999999" points="957.94,-250 904.94,-250 904.94,-231 957.94,-231 957.94,-250"/>
<text text-anchor="middle" x="931.44" y="-238" font-family="Helvetica,sans-Serif" font-size="10.00">netdb.h</text>
</a>
</g>
</g>
<!-- Node1&#45;&gt;Node21 -->
<g id="edge30_Node000001_Node000021" class="edge">
<title>Node1&#45;&gt;Node21</title>
<g id="a_edge30_Node000001_Node000021"><a xlink:title=" ">
<path fill="none" stroke="#63b8ff" d="M961.49,-285.75C956.46,-278.34 949.1,-267.5 942.92,-258.41"/>
<polygon fill="#63b8ff" stroke="#63b8ff" points="945.79,-256.39 937.27,-250.09 940,-260.33 945.79,-256.39"/>
</a>
</g>
</g>
<!-- Node22 -->
<g id="Node000022" class="node">
<title>Node22</title>
<g id="a_Node000022"><a xlink:title=" ">
<polygon fill="#e0e0e0" stroke="#999999" points="1032.44,-250 976.44,-250 976.44,-231 1032.44,-231 1032.44,-250"/>
<text text-anchor="middle" x="1004.44" y="-238" font-family="Helvetica,sans-Serif" font-size="10.00">unistd.h</text>
</a>
</g>
</g>
<!-- Node1&#45;&gt;Node22 -->
<g id="edge31_Node000001_Node000022" class="edge">
<title>Node1&#45;&gt;Node22</title>
<g id="a_edge31_Node000001_Node000022"><a xlink:title=" ">
<path fill="none" stroke="#63b8ff" d="M973.55,-285.75C978.72,-278.34 986.28,-267.5 992.63,-258.41"/>
<polygon fill="#63b8ff" stroke="#63b8ff" points="995.59,-260.29 998.44,-250.09 989.85,-256.29 995.59,-260.29"/>
</a>
</g>
</g>
<!-- Node23 -->
<g id="Node000023" class="node">
<title>Node23</title>
<g id="a_Node000023"><a xlink:title=" ">
<polygon fill="#e0e0e0" stroke="#999999" points="1100.44,-250 1050.44,-250 1050.44,-231 1100.44,-231 1100.44,-250"/>
<text text-anchor="middle" x="1075.44" y="-238" font-family="Helvetica,sans-Serif" font-size="10.00">cstring</text>
</a>
</g>
</g>
<!-- Node1&#45;&gt;Node23 -->
<g id="edge32_Node000001_Node000023" class="edge">
<title>Node1&#45;&gt;Node23</title>
<g id="a_edge32_Node000001_Node000023"><a xlink:title=" ">
<path fill="none" stroke="#63b8ff" d="M984.79,-285.98C1002.01,-277.54 1028.64,-264.47 1048.58,-254.68"/>
<polygon fill="#63b8ff" stroke="#63b8ff" points="1050.33,-257.72 1057.77,-250.17 1047.25,-251.43 1050.33,-257.72"/>
</a>
</g>
</g>
<!-- Node24 -->
<g id="Node000024" class="node">
<title>Node24</title>
<g id="a_Node000024"><a xlink:title=" ">
<polygon fill="#e0e0e0" stroke="#999999" points="1174.44,-250 1118.44,-250 1118.44,-231 1174.44,-231 1174.44,-250"/>
<text text-anchor="middle" x="1146.44" y="-238" font-family="Helvetica,sans-Serif" font-size="10.00">sstream</text>
</a>
</g>
</g>
<!-- Node1&#45;&gt;Node24 -->
<g id="edge33_Node000001_Node000024" class="edge">
<title>Node1&#45;&gt;Node24</title>
<g id="a_edge33_Node000001_Node000024"><a xlink:title=" ">
<path fill="none" stroke="#63b8ff" d="M996.2,-285.98C1026.65,-276.97 1074.86,-262.69 1108.43,-252.75"/>
<polygon fill="#63b8ff" stroke="#63b8ff" points="1109.75,-256.01 1118.34,-249.82 1107.76,-249.3 1109.75,-256.01"/>
</a>
</g>
</g>
<!-- Node25 -->
<g id="Node000025" class="node">
<title>Node25</title>
<g id="a_Node000025"><a xlink:title=" ">
<polygon fill="#e0e0e0" stroke="#999999" points="1248.44,-250 1192.44,-250 1192.44,-231 1248.44,-231 1248.44,-250"/>
<text text-anchor="middle" x="1220.44" y="-238" font-family="Helvetica,sans-Serif" font-size="10.00">iomanip</text>
</a>
</g>
</g>
<!-- Node1&#45;&gt;Node25 -->
<g id="edge34_Node000001_Node000025" class="edge">
<title>Node1&#45;&gt;Node25</title>
<g id="a_edge34_Node000001_Node000025"><a xlink:title=" ">
<path fill="none" stroke="#63b8ff" d="M1010.53,-285.92C1052.04,-277.59 1116.86,-264.41 1182.12,-250.25"/>
<polygon fill="#63b8ff" stroke="#63b8ff" points="1183.14,-253.61 1192.17,-248.06 1181.66,-246.77 1183.14,-253.61"/>
</a>
</g>
</g>
<!-- Node26 -->
<g id="Node000026" class="node">
<title>Node26</title>
<g id="a_Node000026"><a xlink:title=" ">
<polygon fill="#e0e0e0" stroke="#999999" points="1326.44,-250 1266.44,-250 1266.44,-231 1326.44,-231 1326.44,-250"/>
<text text-anchor="middle" x="1296.44" y="-238" font-family="Helvetica,sans-Serif" font-size="10.00">iostream</text>
</a>
</g>
</g>
<!-- Node1&#45;&gt;Node26 -->
<g id="edge35_Node000001_Node000026" class="edge">
<title>Node1&#45;&gt;Node26</title>
<g id="a_edge35_Node000001_Node000026"><a xlink:title=" ">
<path fill="none" stroke="#63b8ff" d="M1022.67,-287.07C1078.97,-279.26 1169.06,-266.12 1256.18,-250.14"/>
<polygon fill="#63b8ff" stroke="#63b8ff" points="1257.05,-253.54 1266.24,-248.28 1255.77,-246.65 1257.05,-253.54"/>
</a>
</g>
</g>
<!-- Node3 -->
<g id="Node000003" class="node">
<title>Node3</title>
<g id="a_Node000003"><a xlink:href="base__writer_8h.html" target="_top" xlink:title=" ">
<polygon fill="white" stroke="#666666" points="303.44,-195 221.44,-195 221.44,-176 303.44,-176 303.44,-195"/>
<text text-anchor="middle" x="262.44" y="-183" font-family="Helvetica,sans-Serif" font-size="10.00">base_writer.h</text>
</a>
</g>
</g>
<!-- Node2&#45;&gt;Node3 -->
<g id="edge2_Node000002_Node000003" class="edge">
<title>Node2&#45;&gt;Node3</title>
<g id="a_edge2_Node000002_Node000003"><a xlink:title=" ">
<path fill="none" stroke="#63b8ff" d="M515.92,-230.98C460.51,-221.26 370.24,-205.42 313.71,-195.5"/>
<polygon fill="#63b8ff" stroke="#63b8ff" points="314.02,-192 303.56,-193.72 312.81,-198.89 314.02,-192"/>
</a>
</g>
</g>
<!-- Node7 -->
<g id="Node000007" class="node">
<title>Node7</title>
<g id="a_Node000007"><a xlink:title=" ">
<polygon fill="#e0e0e0" stroke="#999999" points="501.44,-19 443.44,-19 443.44,0 501.44,0 501.44,-19"/>
<text text-anchor="middle" x="472.44" y="-7" font-family="Helvetica,sans-Serif" font-size="10.00">memory</text>
</a>
</g>
</g>
<!-- Node2&#45;&gt;Node7 -->
<g id="edge26_Node000002_Node000007" class="edge">
<title>Node2&#45;&gt;Node7</title>
<g id="a_edge26_Node000002_Node000007"><a xlink:title=" ">
<path fill="none" stroke="#63b8ff" d="M543.34,-230.94C528.28,-223.68 508.91,-211.76 498.44,-195 465.47,-142.27 467.35,-64.67 470.34,-29.31"/>
<polygon fill="#63b8ff" stroke="#63b8ff" points="473.85,-29.32 471.34,-19.03 466.89,-28.64 473.85,-29.32"/>
</a>
</g>
</g>
<!-- Node14 -->
<g id="Node000014" class="node">
<title>Node14</title>
<g id="a_Node000014"><a xlink:title=" ">
<polygon fill="#e0e0e0" stroke="#999999" points="555.44,-195 507.44,-195 507.44,-176 555.44,-176 555.44,-195"/>
<text text-anchor="middle" x="531.44" y="-183" font-family="Helvetica,sans-Serif" font-size="10.00">thread</text>
</a>
</g>
</g>
<!-- Node2&#45;&gt;Node14 -->
<g id="edge22_Node000002_Node000014" class="edge">
<title>Node2&#45;&gt;Node14</title>
<g id="a_edge22_Node000002_Node000014"><a xlink:title=" ">
<path fill="none" stroke="#63b8ff" d="M558.99,-230.75C554.42,-223.42 547.77,-212.73 542.14,-203.7"/>
<polygon fill="#63b8ff" stroke="#63b8ff" points="545.04,-201.73 536.79,-195.09 539.1,-205.43 545.04,-201.73"/>
</a>
</g>
</g>
<!-- Node15 -->
<g id="Node000015" class="node">
<title>Node15</title>
<g id="a_Node000015"><a xlink:title=" ">
<polygon fill="#e0e0e0" stroke="#999999" points="620.94,-195 573.94,-195 573.94,-176 620.94,-176 620.94,-195"/>
<text text-anchor="middle" x="597.44" y="-183" font-family="Helvetica,sans-Serif" font-size="10.00">queue</text>
</a>
</g>
</g>
<!-- Node2&#45;&gt;Node15 -->
<g id="edge23_Node000002_Node000015" class="edge">
<title>Node2&#45;&gt;Node15</title>
<g id="a_edge23_Node000002_Node000015"><a xlink:title=" ">
<path fill="none" stroke="#63b8ff" d="M569.89,-230.75C574.45,-223.42 581.11,-212.73 586.73,-203.7"/>
<polygon fill="#63b8ff" stroke="#63b8ff" points="589.78,-205.43 592.09,-195.09 583.83,-201.73 589.78,-205.43"/>
</a>
</g>
</g>
<!-- Node16 -->
<g id="Node000016" class="node">
<title>Node16</title>
<g id="a_Node000016"><a xlink:title=" ">
<polygon fill="#e0e0e0" stroke="#999999" points="745.94,-195 638.94,-195 638.94,-176 745.94,-176 745.94,-195"/>
<text text-anchor="middle" x="692.44" y="-183" font-family="Helvetica,sans-Serif" font-size="10.00">condition_variable</text>
</a>
</g>
</g>
<!-- Node2&#45;&gt;Node16 -->
<g id="edge24_Node000002_Node000016" class="edge">
<title>Node2&#45;&gt;Node16</title>
<g id="a_edge24_Node000002_Node000016"><a xlink:title=" ">
<path fill="none" stroke="#63b8ff" d="M585,-230.98C605.87,-222.34 638.41,-208.87 662.21,-199.02"/>
<polygon fill="#63b8ff" stroke="#63b8ff" points="663.6,-202.23 671.5,-195.17 660.92,-195.76 663.6,-202.23"/>
</a>
</g>
</g>
<!-- Node17 -->
<g id="Node000017" class="node">
<title>Node17</title>
<g id="a_Node000017"><a xlink:title=" ">
<polygon fill="#e0e0e0" stroke="#999999" points="814.44,-195 764.44,-195 764.44,-176 814.44,-176 814.44,-195"/>
<text text-anchor="middle" x="789.44" y="-183" font-family="Helvetica,sans-Serif" font-size="10.00">atomic</text>
</a>
</g>
</g>
<!-- Node2&#45;&gt;Node17 -->
<g id="edge25_Node000002_Node000017" class="edge">
<title>Node2&#45;&gt;Node17</title>
<g id="a_edge25_Node000002_Node000017"><a xlink:title=" ">
<path fill="none" stroke="#63b8ff" d="M601.81,-230.98C638.31,-222.62 695.7,-209.36 754.39,-195.23"/>
<polygon fill="#63b8ff" stroke="#63b8ff" points="755.3,-198.61 764.2,-192.86 753.66,-191.8 755.3,-198.61"/>
</a>
</g>
</g>
<!-- Node4 -->
<g id="Node000004" class="node">
<title>Node4</title>
<g id="a_Node000004"><a xlink:title=" ">
<polygon fill="#e0e0e0" stroke="#999999" points="288.44,-19 244.44,-19 244.44,0 288.44,0 288.44,-19"/>
<text text-anchor="middle" x="266.44" y="-7" font-family="Helvetica,sans-Serif" font-size="10.00">string</text>
</a>
</g>
</g>
<!-- Node3&#45;&gt;Node4 -->
<g id="edge3_Node000003_Node000004" class="edge">
<title>Node3&#45;&gt;Node4</title>
<g id="a_edge3_Node000003_Node000004"><a xlink:title=" ">
<path fill="none" stroke="#63b8ff" d="M290.09,-175.98C307.02,-169.17 327.32,-157.76 337.44,-140 344.04,-128.41 341.5,-122.7 337.44,-110 326.72,-76.52 300.15,-44.71 282.73,-26.43"/>
<polygon fill="#63b8ff" stroke="#63b8ff" points="284.96,-23.71 275.45,-19.02 279.96,-28.61 284.96,-23.71"/>
</a>
</g>
</g>
<!-- Node5 -->
<g id="Node000005" class="node">
<title>Node5</title>
<g id="a_Node000005"><a xlink:title=" ">
<polygon fill="#e0e0e0" stroke="#999999" points="200.44,-74 150.44,-74 150.44,-55 200.44,-55 200.44,-74"/>
<text text-anchor="middle" x="175.44" y="-62" font-family="Helvetica,sans-Serif" font-size="10.00">chrono</text>
</a>
</g>
</g>
<!-- Node3&#45;&gt;Node5 -->
<g id="edge4_Node000003_Node000005" class="edge">
<title>Node3&#45;&gt;Node5</title>
<g id="a_edge4_Node000003_Node000005"><a xlink:title=" ">
<path fill="none" stroke="#63b8ff" d="M237.58,-175.88C221.03,-168.83 200.22,-157.19 188.44,-140 177.21,-123.62 174.71,-100.58 174.55,-84.48"/>
<polygon fill="#63b8ff" stroke="#63b8ff" points="178.05,-84.23 174.75,-74.17 171.05,-84.1 178.05,-84.23"/>
</a>
</g>
</g>
<!-- Node6 -->
<g id="Node000006" class="node">
<title>Node6</title>
<g id="a_Node000006"><a xlink:href="logger__interface_8h.html" target="_top" xlink:title=" ">
<polygon fill="white" stroke="#666666" points="451.44,-74 337.44,-74 337.44,-55 451.44,-55 451.44,-74"/>
<text text-anchor="middle" x="394.44" y="-62" font-family="Helvetica,sans-Serif" font-size="10.00">../logger_interface.h</text>
</a>
</g>
</g>
<!-- Node3&#45;&gt;Node6 -->
<g id="edge5_Node000003_Node000006" class="edge">
<title>Node3&#45;&gt;Node6</title>
<g id="a_edge5_Node000003_Node000006"><a xlink:title=" ">
<path fill="none" stroke="#63b8ff" d="M303.49,-176.48C326.03,-170.1 352.89,-158.99 370.44,-140 384.67,-124.59 390.47,-100.67 392.82,-84.11"/>
<polygon fill="#63b8ff" stroke="#63b8ff" points="396.32,-84.35 393.97,-74.02 389.36,-83.56 396.32,-84.35"/>
</a>
</g>
</g>
<!-- Node9 -->
<g id="Node000009" class="node">
<title>Node9</title>
<g id="a_Node000009"><a xlink:href="error__codes_8h.html" target="_top" xlink:title=" ">
<polygon fill="white" stroke="#666666" points="94.44,-74 2.44,-74 2.44,-55 94.44,-55 94.44,-74"/>
<text text-anchor="middle" x="48.44" y="-62" font-family="Helvetica,sans-Serif" font-size="10.00">../error_codes.h</text>
</a>
</g>
</g>
<!-- Node3&#45;&gt;Node9 -->
<g id="edge9_Node000003_Node000009" class="edge">
<title>Node3&#45;&gt;Node9</title>
<g id="a_edge9_Node000003_Node000009"><a xlink:title=" ">
<path fill="none" stroke="#63b8ff" d="M221.38,-183.56C155.94,-181.11 32.56,-172.22 5.44,-140 -10.16,-121.47 11.26,-96.52 29.06,-80.72"/>
<polygon fill="#63b8ff" stroke="#63b8ff" points="31.44,-83.29 36.83,-74.16 26.93,-77.94 31.44,-83.29"/>
</a>
</g>
</g>
<!-- Node12 -->
<g id="Node000012" class="node">
<title>Node12</title>
<g id="a_Node000012"><a xlink:href="log__writer__interface_8h.html" target="_top" xlink:title=" ">
<polygon fill="white" stroke="#666666" points="140.44,-140 14.44,-140 14.44,-110 140.44,-110 140.44,-140"/>
<text text-anchor="start" x="22.44" y="-128" font-family="Helvetica,sans-Serif" font-size="10.00">../interfaces/log_writer</text>
<text text-anchor="middle" x="77.44" y="-117" font-family="Helvetica,sans-Serif" font-size="10.00">_interface.h</text>
</a>
</g>
</g>
<!-- Node3&#45;&gt;Node12 -->
<g id="edge13_Node000003_Node000012" class="edge">
<title>Node3&#45;&gt;Node12</title>
<g id="a_edge13_Node000003_Node000012"><a xlink:title=" ">
<path fill="none" stroke="#63b8ff" d="M235.54,-175.99C208.45,-167.43 165.89,-153.97 131.76,-143.18"/>
<polygon fill="#63b8ff" stroke="#63b8ff" points="132.5,-139.74 121.91,-140.06 130.39,-146.42 132.5,-139.74"/>
</a>
</g>
</g>
<!-- Node13 -->
<g id="Node000013" class="node">
<title>Node13</title>
<g id="a_Node000013"><a xlink:href="log__entry_8h.html" target="_top" xlink:title=" ">
<polygon fill="white" stroke="#666666" points="327.94,-134.5 196.94,-134.5 196.94,-115.5 327.94,-115.5 327.94,-134.5"/>
<text text-anchor="middle" x="262.44" y="-122.5" font-family="Helvetica,sans-Serif" font-size="10.00">../interfaces/log_entry.h</text>
</a>
</g>
</g>
<!-- Node3&#45;&gt;Node13 -->
<g id="edge17_Node000003_Node000013" class="edge">
<title>Node3&#45;&gt;Node13</title>
<g id="a_edge17_Node000003_Node000013"><a xlink:title=" ">
<path fill="none" stroke="#63b8ff" d="M262.44,-175.87C262.44,-167.75 262.44,-155.31 262.44,-144.89"/>
<polygon fill="#63b8ff" stroke="#63b8ff" points="265.94,-144.67 262.44,-134.67 258.94,-144.67 265.94,-144.67"/>
</a>
</g>
</g>
<!-- Node6&#45;&gt;Node4 -->
<g id="edge8_Node000006_Node000004" class="edge">
<title>Node6&#45;&gt;Node4</title>
<g id="a_edge8_Node000006_Node000004"><a xlink:title=" ">
<path fill="none" stroke="#63b8ff" d="M373.87,-54.98C353,-46.34 320.47,-32.87 296.66,-23.02"/>
<polygon fill="#63b8ff" stroke="#63b8ff" points="297.96,-19.76 287.38,-19.17 295.28,-26.23 297.96,-19.76"/>
</a>
</g>
</g>
<!-- Node6&#45;&gt;Node7 -->
<g id="edge6_Node000006_Node000007" class="edge">
<title>Node6&#45;&gt;Node7</title>
<g id="a_edge6_Node000006_Node000007"><a xlink:title=" ">
<path fill="none" stroke="#63b8ff" d="M406.97,-54.98C418.84,-46.92 436.9,-34.65 451.05,-25.03"/>
<polygon fill="#63b8ff" stroke="#63b8ff" points="453.37,-27.69 459.68,-19.17 449.44,-21.9 453.37,-27.69"/>
</a>
</g>
</g>
<!-- Node8 -->
<g id="Node000008" class="node">
<title>Node8</title>
<g id="a_Node000008"><a xlink:title=" ">
<polygon fill="#e0e0e0" stroke="#999999" points="418.44,-19 370.44,-19 370.44,0 418.44,0 418.44,-19"/>
<text text-anchor="middle" x="394.44" y="-7" font-family="Helvetica,sans-Serif" font-size="10.00">mutex</text>
</a>
</g>
</g>
<!-- Node6&#45;&gt;Node8 -->
<g id="edge7_Node000006_Node000008" class="edge">
<title>Node6&#45;&gt;Node8</title>
<g id="a_edge7_Node000006_Node000008"><a xlink:title=" ">
<path fill="none" stroke="#63b8ff" d="M394.44,-54.75C394.44,-47.8 394.44,-37.85 394.44,-29.13"/>
<polygon fill="#63b8ff" stroke="#63b8ff" points="397.94,-29.09 394.44,-19.09 390.94,-29.09 397.94,-29.09"/>
</a>
</g>
</g>
<!-- Node9&#45;&gt;Node4 -->
<g id="edge10_Node000009_Node000004" class="edge">
<title>Node9&#45;&gt;Node4</title>
<g id="a_edge10_Node000009_Node000004"><a xlink:title=" ">
<path fill="none" stroke="#63b8ff" d="M83.46,-54.98C125.09,-44.86 193.98,-28.11 234.3,-18.31"/>
<polygon fill="#63b8ff" stroke="#63b8ff" points="235.26,-21.68 244.15,-15.92 233.6,-14.88 235.26,-21.68"/>
</a>
</g>
</g>
<!-- Node10 -->
<g id="Node000010" class="node">
<title>Node10</title>
<g id="a_Node000010"><a xlink:title=" ">
<polygon fill="#e0e0e0" stroke="#999999" points="187.44,-19 131.44,-19 131.44,0 187.44,0 187.44,-19"/>
<text text-anchor="middle" x="159.44" y="-7" font-family="Helvetica,sans-Serif" font-size="10.00">optional</text>
</a>
</g>
</g>
<!-- Node9&#45;&gt;Node10 -->
<g id="edge11_Node000009_Node000010" class="edge">
<title>Node9&#45;&gt;Node10</title>
<g id="a_edge11_Node000009_Node000010"><a xlink:title=" ">
<path fill="none" stroke="#63b8ff" d="M66.27,-54.98C84.05,-46.5 111.58,-33.35 132.12,-23.54"/>
<polygon fill="#63b8ff" stroke="#63b8ff" points="133.76,-26.64 141.28,-19.17 130.75,-20.32 133.76,-26.64"/>
</a>
</g>
</g>
<!-- Node11 -->
<g id="Node000011" class="node">
<title>Node11</title>
<g id="a_Node000011"><a xlink:title=" ">
<polygon fill="#e0e0e0" stroke="#999999" points="73.94,-19 22.94,-19 22.94,0 73.94,0 73.94,-19"/>
<text text-anchor="middle" x="48.44" y="-7" font-family="Helvetica,sans-Serif" font-size="10.00">variant</text>
</a>
</g>
</g>
<!-- Node9&#45;&gt;Node11 -->
<g id="edge12_Node000009_Node000011" class="edge">
<title>Node9&#45;&gt;Node11</title>
<g id="a_edge12_Node000009_Node000011"><a xlink:title=" ">
<path fill="none" stroke="#63b8ff" d="M48.44,-54.75C48.44,-47.8 48.44,-37.85 48.44,-29.13"/>
<polygon fill="#63b8ff" stroke="#63b8ff" points="51.94,-29.09 48.44,-19.09 44.94,-29.09 51.94,-29.09"/>
</a>
</g>
</g>
<!-- Node12&#45;&gt;Node4 -->
<g id="edge14_Node000012_Node000004" class="edge">
<title>Node12&#45;&gt;Node4</title>
<g id="a_edge14_Node000012_Node000004"><a xlink:title=" ">
<path fill="none" stroke="#63b8ff" d="M87.21,-109.94C98.6,-94.5 118.79,-69.92 141.44,-55 170.14,-36.09 207.84,-24.11 234.31,-17.4"/>
<polygon fill="#63b8ff" stroke="#63b8ff" points="235.31,-20.76 244.2,-15.01 233.66,-13.96 235.31,-20.76"/>
</a>
</g>
</g>
<!-- Node12&#45;&gt;Node5 -->
<g id="edge15_Node000012_Node000005" class="edge">
<title>Node12&#45;&gt;Node5</title>
<g id="a_edge15_Node000012_Node000005"><a xlink:title=" ">
<path fill="none" stroke="#63b8ff" d="M101.16,-109.84C116.64,-100.6 136.76,-88.59 152.15,-79.4"/>
<polygon fill="#63b8ff" stroke="#63b8ff" points="154.25,-82.23 161.04,-74.09 150.66,-76.21 154.25,-82.23"/>
</a>
</g>
</g>
<!-- Node12&#45;&gt;Node9 -->
<g id="edge16_Node000012_Node000009" class="edge">
<title>Node12&#45;&gt;Node9</title>
<g id="a_edge16_Node000012_Node000009"><a xlink:title=" ">
<path fill="none" stroke="#63b8ff" d="M70.42,-109.84C66.47,-101.87 61.49,-91.84 57.28,-83.33"/>
<polygon fill="#63b8ff" stroke="#63b8ff" points="60.36,-81.67 52.78,-74.27 54.09,-84.78 60.36,-81.67"/>
</a>
</g>
</g>
<!-- Node13&#45;&gt;Node4 -->
<g id="edge18_Node000013_Node000004" class="edge">
<title>Node13&#45;&gt;Node4</title>
<g id="a_edge18_Node000013_Node000004"><a xlink:title=" ">
<path fill="none" stroke="#63b8ff" d="M262.74,-115.47C263.38,-97.23 264.9,-54.07 265.78,-29.14"/>
<polygon fill="#63b8ff" stroke="#63b8ff" points="269.28,-29.25 266.13,-19.13 262.28,-29 269.28,-29.25"/>
</a>
</g>
</g>
<!-- Node13&#45;&gt;Node5 -->
<g id="edge19_Node000013_Node000005" class="edge">
<title>Node13&#45;&gt;Node5</title>
<g id="a_edge19_Node000013_Node000005"><a xlink:title=" ">
<path fill="none" stroke="#63b8ff" d="M249.6,-115.37C235.72,-106.04 213.37,-91.01 196.83,-79.88"/>
<polygon fill="#63b8ff" stroke="#63b8ff" points="198.58,-76.84 188.33,-74.17 194.67,-82.65 198.58,-76.84"/>
</a>
</g>
</g>
<!-- Node13&#45;&gt;Node6 -->
<g id="edge21_Node000013_Node000006" class="edge">
<title>Node13&#45;&gt;Node6</title>
<g id="a_edge21_Node000013_Node000006"><a xlink:title=" ">
<path fill="none" stroke="#63b8ff" d="M281.63,-115.49C303.82,-105.66 340.56,-89.38 366.05,-78.08"/>
<polygon fill="#63b8ff" stroke="#63b8ff" points="367.5,-81.27 375.22,-74.02 364.66,-74.87 367.5,-81.27"/>
</a>
</g>
</g>
<!-- Node13&#45;&gt;Node10 -->
<g id="edge20_Node000013_Node000010" class="edge">
<title>Node13&#45;&gt;Node10</title>
<g id="a_edge20_Node000013_Node000010"><a xlink:title=" ">
<path fill="none" stroke="#63b8ff" d="M256.41,-115.08C247.05,-101.51 228.16,-75.13 209.44,-55 199.77,-44.6 187.93,-33.99 178.21,-25.74"/>
<polygon fill="#63b8ff" stroke="#63b8ff" points="180.24,-22.87 170.31,-19.16 175.75,-28.25 180.24,-22.87"/>
</a>
</g>
</g>
</g>
</svg>
