<?xml version="1.0" encoding="UTF-8" standalone="no"?>
<!DOCTYPE svg PUBLIC "-//W3C//DTD SVG 1.1//EN"
 "http://www.w3.org/Graphics/SVG/1.1/DTD/svg11.dtd">
<!-- Generated by graphviz version 2.43.0 (0)
 -->
<!-- Title: /home/runner/work/logger_system/logger_system/sources/logger/writers/network_writer.cpp Pages: 1 -->
<svg width="1686pt" height="346pt"
 viewBox="0.00 0.00 1685.50 346.00" xmlns="http://www.w3.org/2000/svg" xmlns:xlink="http://www.w3.org/1999/xlink">
<g id="graph0" class="graph" transform="scale(1 1) rotate(0) translate(4 342)">
<title>/home/runner/work/logger_system/logger_system/sources/logger/writers/network_writer.cpp</title>
<!-- Node1 -->
<g id="Node000001" class="node">
<title>Node1</title>
<g id="a_Node000001"><a xlink:title=" ">
<polygon fill="#999999" stroke="#666666" points="1376,-338 1193,-338 1193,-297 1376,-297 1376,-338"/>
<text text-anchor="start" x="1201" y="-326" font-family="Helvetica,sans-Serif" font-size="10.00">/home/runner/work/logger</text>
<text text-anchor="start" x="1201" y="-315" font-family="Helvetica,sans-Serif" font-size="10.00">_system/logger_system/sources</text>
<text text-anchor="middle" x="1284.5" y="-304" font-family="Helvetica,sans-Serif" font-size="10.00">/logger/writers/network_writer.cpp</text>
</a>
</g>
</g>
<!-- Node2 -->
<g id="Node000002" class="node">
<title>Node2</title>
<g id="a_Node000002"><a xlink:href="network__writer_8h.html" target="_top" xlink:title=" ">
<polygon fill="white" stroke="#666666" points="782.5,-261 684.5,-261 684.5,-242 782.5,-242 782.5,-261"/>
<text text-anchor="middle" x="733.5" y="-249" font-family="Helvetica,sans-Serif" font-size="10.00">network_writer.h</text>
</a>
</g>
</g>
<!-- Node1&#45;&gt;Node2 -->
<g id="edge1_Node000001_Node000002" class="edge">
<title>Node1&#45;&gt;Node2</title>
<g id="a_edge1_Node000001_Node000002"><a xlink:title=" ">
<path fill="none" stroke="#63b8ff" d="M1192.9,-305.86C1079.22,-292.66 888.68,-270.52 792.64,-259.37"/>
<polygon fill="#63b8ff" stroke="#63b8ff" points="792.86,-255.87 782.53,-258.19 792.06,-262.83 792.86,-255.87"/>
</a>
</g>
</g>
<!-- Node15 -->
<g id="Node000015" class="node">
<title>Node15</title>
<g id="a_Node000015"><a xlink:title=" ">
<polygon fill="#e0e0e0" stroke="#999999" points="929.5,-24.5 879.5,-24.5 879.5,-5.5 929.5,-5.5 929.5,-24.5"/>
<text text-anchor="middle" x="904.5" y="-12.5" font-family="Helvetica,sans-Serif" font-size="10.00">cstring</text>
</a>
</g>
</g>
<!-- Node1&#45;&gt;Node15 -->
<g id="edge39_Node000001_Node000015" class="edge">
<title>Node1&#45;&gt;Node15</title>
<g id="a_edge39_Node000001_Node000015"><a xlink:title=" ">
<path fill="none" stroke="#63b8ff" d="M1192.88,-310.36C1114,-303.26 1008.05,-288.78 976.5,-261 954.29,-241.45 956.5,-227.09 956.5,-197.5 956.5,-197.5 956.5,-197.5 956.5,-135 956.5,-95.94 932.68,-55.25 917.29,-33.02"/>
<polygon fill="#63b8ff" stroke="#63b8ff" points="919.98,-30.76 911.3,-24.68 914.29,-34.85 919.98,-30.76"/>
</a>
</g>
</g>
<!-- Node25 -->
<g id="Node000025" class="node">
<title>Node25</title>
<g id="a_Node000025"><a xlink:title=" ">
<polygon fill="#e0e0e0" stroke="#999999" points="1062,-261 985,-261 985,-242 1062,-242 1062,-261"/>
<text text-anchor="middle" x="1023.5" y="-249" font-family="Helvetica,sans-Serif" font-size="10.00">sys/socket.h</text>
</a>
</g>
</g>
<!-- Node1&#45;&gt;Node25 -->
<g id="edge34_Node000001_Node000025" class="edge">
<title>Node1&#45;&gt;Node25</title>
<g id="a_edge34_Node000001_Node000025"><a xlink:title=" ">
<path fill="none" stroke="#63b8ff" d="M1204.77,-296.95C1159.96,-285.96 1105.69,-272.65 1068.28,-263.48"/>
<polygon fill="#63b8ff" stroke="#63b8ff" points="1068.74,-259.99 1058.2,-261.01 1067.08,-266.79 1068.74,-259.99"/>
</a>
</g>
</g>
<!-- Node26 -->
<g id="Node000026" class="node">
<title>Node26</title>
<g id="a_Node000026"><a xlink:title=" ">
<polygon fill="#e0e0e0" stroke="#999999" points="1152.5,-261 1080.5,-261 1080.5,-242 1152.5,-242 1152.5,-261"/>
<text text-anchor="middle" x="1116.5" y="-249" font-family="Helvetica,sans-Serif" font-size="10.00">netinet/in.h</text>
</a>
</g>
</g>
<!-- Node1&#45;&gt;Node26 -->
<g id="edge35_Node000001_Node000026" class="edge">
<title>Node1&#45;&gt;Node26</title>
<g id="a_edge35_Node000001_Node000026"><a xlink:title=" ">
<path fill="none" stroke="#63b8ff" d="M1233.18,-296.95C1205.66,-286.46 1172.58,-273.87 1148.69,-264.76"/>
<polygon fill="#63b8ff" stroke="#63b8ff" points="1149.64,-261.38 1139.05,-261.09 1147.15,-267.92 1149.64,-261.38"/>
</a>
</g>
</g>
<!-- Node27 -->
<g id="Node000027" class="node">
<title>Node27</title>
<g id="a_Node000027"><a xlink:title=" ">
<polygon fill="#e0e0e0" stroke="#999999" points="1240,-261 1171,-261 1171,-242 1240,-242 1240,-261"/>
<text text-anchor="middle" x="1205.5" y="-249" font-family="Helvetica,sans-Serif" font-size="10.00">arpa/inet.h</text>
</a>
</g>
</g>
<!-- Node1&#45;&gt;Node27 -->
<g id="edge36_Node000001_Node000027" class="edge">
<title>Node1&#45;&gt;Node27</title>
<g id="a_edge36_Node000001_Node000027"><a xlink:title=" ">
<path fill="none" stroke="#63b8ff" d="M1260.37,-296.95C1248.77,-287.55 1235.07,-276.46 1224.27,-267.7"/>
<polygon fill="#63b8ff" stroke="#63b8ff" points="1226.29,-264.84 1216.31,-261.26 1221.88,-270.27 1226.29,-264.84"/>
</a>
</g>
</g>
<!-- Node28 -->
<g id="Node000028" class="node">
<title>Node28</title>
<g id="a_Node000028"><a xlink:title=" ">
<polygon fill="#e0e0e0" stroke="#999999" points="1311,-261 1258,-261 1258,-242 1311,-242 1311,-261"/>
<text text-anchor="middle" x="1284.5" y="-249" font-family="Helvetica,sans-Serif" font-size="10.00">netdb.h</text>
</a>
</g>
</g>
<!-- Node1&#45;&gt;Node28 -->
<g id="edge37_Node000001_Node000028" class="edge">
<title>Node1&#45;&gt;Node28</title>
<g id="a_edge37_Node000001_Node000028"><a xlink:title=" ">
<path fill="none" stroke="#63b8ff" d="M1284.5,-296.95C1284.5,-288.85 1284.5,-279.5 1284.5,-271.47"/>
<polygon fill="#63b8ff" stroke="#63b8ff" points="1288,-271.26 1284.5,-261.26 1281,-271.26 1288,-271.26"/>
</a>
</g>
</g>
<!-- Node29 -->
<g id="Node000029" class="node">
<title>Node29</title>
<g id="a_Node000029"><a xlink:title=" ">
<polygon fill="#e0e0e0" stroke="#999999" points="1385.5,-261 1329.5,-261 1329.5,-242 1385.5,-242 1385.5,-261"/>
<text text-anchor="middle" x="1357.5" y="-249" font-family="Helvetica,sans-Serif" font-size="10.00">unistd.h</text>
</a>
</g>
</g>
<!-- Node1&#45;&gt;Node29 -->
<g id="edge38_Node000001_Node000029" class="edge">
<title>Node1&#45;&gt;Node29</title>
<g id="a_edge38_Node000001_Node000029"><a xlink:title=" ">
<path fill="none" stroke="#63b8ff" d="M1306.8,-296.95C1317.41,-287.65 1329.92,-276.68 1339.86,-267.96"/>
<polygon fill="#63b8ff" stroke="#63b8ff" points="1342.3,-270.48 1347.51,-261.26 1337.68,-265.22 1342.3,-270.48"/>
</a>
</g>
</g>
<!-- Node30 -->
<g id="Node000030" class="node">
<title>Node30</title>
<g id="a_Node000030"><a xlink:title=" ">
<polygon fill="#e0e0e0" stroke="#999999" points="1451,-261 1404,-261 1404,-242 1451,-242 1451,-261"/>
<text text-anchor="middle" x="1427.5" y="-249" font-family="Helvetica,sans-Serif" font-size="10.00">cerrno</text>
</a>
</g>
</g>
<!-- Node1&#45;&gt;Node30 -->
<g id="edge40_Node000001_Node000030" class="edge">
<title>Node1&#45;&gt;Node30</title>
<g id="a_edge40_Node000001_Node000030"><a xlink:title=" ">
<path fill="none" stroke="#63b8ff" d="M1328.18,-296.95C1351.19,-286.65 1378.76,-274.31 1399,-265.25"/>
<polygon fill="#63b8ff" stroke="#63b8ff" points="1400.6,-268.37 1408.3,-261.09 1397.75,-261.98 1400.6,-268.37"/>
</a>
</g>
</g>
<!-- Node31 -->
<g id="Node000031" class="node">
<title>Node31</title>
<g id="a_Node000031"><a xlink:title=" ">
<polygon fill="#e0e0e0" stroke="#999999" points="1525.5,-261 1469.5,-261 1469.5,-242 1525.5,-242 1525.5,-261"/>
<text text-anchor="middle" x="1497.5" y="-249" font-family="Helvetica,sans-Serif" font-size="10.00">sstream</text>
</a>
</g>
</g>
<!-- Node1&#45;&gt;Node31 -->
<g id="edge41_Node000001_Node000031" class="edge">
<title>Node1&#45;&gt;Node31</title>
<g id="a_edge41_Node000001_Node000031"><a xlink:title=" ">
<path fill="none" stroke="#63b8ff" d="M1349.56,-296.95C1385.62,-286.12 1429.18,-273.03 1459.66,-263.87"/>
<polygon fill="#63b8ff" stroke="#63b8ff" points="1460.89,-267.15 1469.46,-260.92 1458.88,-260.45 1460.89,-267.15"/>
</a>
</g>
</g>
<!-- Node32 -->
<g id="Node000032" class="node">
<title>Node32</title>
<g id="a_Node000032"><a xlink:title=" ">
<polygon fill="#e0e0e0" stroke="#999999" points="1599.5,-261 1543.5,-261 1543.5,-242 1599.5,-242 1599.5,-261"/>
<text text-anchor="middle" x="1571.5" y="-249" font-family="Helvetica,sans-Serif" font-size="10.00">iomanip</text>
</a>
</g>
</g>
<!-- Node1&#45;&gt;Node32 -->
<g id="edge42_Node000001_Node000032" class="edge">
<title>Node1&#45;&gt;Node32</title>
<g id="a_edge42_Node000001_Node000032"><a xlink:title=" ">
<path fill="none" stroke="#63b8ff" d="M1373.34,-296.94C1418.6,-286.94 1474.76,-274.47 1533.41,-261.24"/>
<polygon fill="#63b8ff" stroke="#63b8ff" points="1534.24,-264.64 1543.22,-259.02 1532.7,-257.81 1534.24,-264.64"/>
</a>
</g>
</g>
<!-- Node33 -->
<g id="Node000033" class="node">
<title>Node33</title>
<g id="a_Node000033"><a xlink:title=" ">
<polygon fill="#e0e0e0" stroke="#999999" points="1677.5,-261 1617.5,-261 1617.5,-242 1677.5,-242 1677.5,-261"/>
<text text-anchor="middle" x="1647.5" y="-249" font-family="Helvetica,sans-Serif" font-size="10.00">iostream</text>
</a>
</g>
</g>
<!-- Node1&#45;&gt;Node33 -->
<g id="edge43_Node000001_Node000033" class="edge">
<title>Node1&#45;&gt;Node33</title>
<g id="a_edge43_Node000001_Node000033"><a xlink:title=" ">
<path fill="none" stroke="#63b8ff" d="M1376.17,-301.92C1438.69,-291.72 1523.59,-277.35 1607.35,-261.16"/>
<polygon fill="#63b8ff" stroke="#63b8ff" points="1608.15,-264.57 1617.29,-259.22 1606.81,-257.7 1608.15,-264.57"/>
</a>
</g>
</g>
<!-- Node3 -->
<g id="Node000003" class="node">
<title>Node3</title>
<g id="a_Node000003"><a xlink:href="base__writer_8h.html" target="_top" xlink:title="Abstract base class for all log output writers.">
<polygon fill="white" stroke="#666666" points="353.5,-206 271.5,-206 271.5,-187 353.5,-187 353.5,-206"/>
<text text-anchor="middle" x="312.5" y="-194" font-family="Helvetica,sans-Serif" font-size="10.00">base_writer.h</text>
</a>
</g>
</g>
<!-- Node2&#45;&gt;Node3 -->
<g id="edge2_Node000002_Node000003" class="edge">
<title>Node2&#45;&gt;Node3</title>
<g id="a_edge2_Node000002_Node000003"><a xlink:title=" ">
<path fill="none" stroke="#63b8ff" d="M684.38,-244.32C604.09,-234.21 445.51,-214.25 363.82,-203.96"/>
<polygon fill="#63b8ff" stroke="#63b8ff" points="364.13,-200.47 353.77,-202.7 363.25,-207.42 364.13,-200.47"/>
</a>
</g>
</g>
<!-- Node18 -->
<g id="Node000018" class="node">
<title>Node18</title>
<g id="a_Node000018"><a xlink:title=" ">
<polygon fill="#e0e0e0" stroke="#999999" points="766.5,-24.5 708.5,-24.5 708.5,-5.5 766.5,-5.5 766.5,-24.5"/>
<text text-anchor="middle" x="737.5" y="-12.5" font-family="Helvetica,sans-Serif" font-size="10.00">memory</text>
</a>
</g>
</g>
<!-- Node2&#45;&gt;Node18 -->
<g id="edge31_Node000002_Node000018" class="edge">
<title>Node2&#45;&gt;Node18</title>
<g id="a_edge31_Node000002_Node000018"><a xlink:title=" ">
<path fill="none" stroke="#63b8ff" d="M743.11,-241.69C751.37,-233.41 762.7,-220.18 767.5,-206 787.44,-147.06 784.11,-125.96 767.5,-66 764.18,-54 757.12,-41.99 750.69,-32.75"/>
<polygon fill="#63b8ff" stroke="#63b8ff" points="753.38,-30.5 744.62,-24.53 747.75,-34.66 753.38,-30.5"/>
</a>
</g>
</g>
<!-- Node19 -->
<g id="Node000019" class="node">
<title>Node19</title>
<g id="a_Node000019"><a xlink:title=" ">
<polygon fill="#e0e0e0" stroke="#999999" points="862.5,-206 814.5,-206 814.5,-187 862.5,-187 862.5,-206"/>
<text text-anchor="middle" x="838.5" y="-194" font-family="Helvetica,sans-Serif" font-size="10.00">thread</text>
</a>
</g>
</g>
<!-- Node2&#45;&gt;Node19 -->
<g id="edge27_Node000002_Node000019" class="edge">
<title>Node2&#45;&gt;Node19</title>
<g id="a_edge27_Node000002_Node000019"><a xlink:title=" ">
<path fill="none" stroke="#63b8ff" d="M750.37,-241.98C767.11,-233.54 793,-220.47 812.39,-210.68"/>
<polygon fill="#63b8ff" stroke="#63b8ff" points="813.97,-213.8 821.32,-206.17 810.82,-207.55 813.97,-213.8"/>
</a>
</g>
</g>
<!-- Node20 -->
<g id="Node000020" class="node">
<title>Node20</title>
<g id="a_Node000020"><a xlink:title=" ">
<polygon fill="#e0e0e0" stroke="#999999" points="928,-206 881,-206 881,-187 928,-187 928,-206"/>
<text text-anchor="middle" x="904.5" y="-194" font-family="Helvetica,sans-Serif" font-size="10.00">queue</text>
</a>
</g>
</g>
<!-- Node2&#45;&gt;Node20 -->
<g id="edge28_Node000002_Node000020" class="edge">
<title>Node2&#45;&gt;Node20</title>
<g id="a_edge28_Node000002_Node000020"><a xlink:title=" ">
<path fill="none" stroke="#63b8ff" d="M760.97,-241.98C790.96,-232.69 838.98,-217.81 871.11,-207.85"/>
<polygon fill="#63b8ff" stroke="#63b8ff" points="872.43,-211.1 880.95,-204.8 870.36,-204.42 872.43,-211.1"/>
</a>
</g>
</g>
<!-- Node21 -->
<g id="Node000021" class="node">
<title>Node21</title>
<g id="a_Node000021"><a xlink:title=" ">
<polygon fill="#e0e0e0" stroke="#999999" points="556,-206 449,-206 449,-187 556,-187 556,-206"/>
<text text-anchor="middle" x="502.5" y="-194" font-family="Helvetica,sans-Serif" font-size="10.00">condition_variable</text>
</a>
</g>
</g>
<!-- Node2&#45;&gt;Node21 -->
<g id="edge29_Node000002_Node000021" class="edge">
<title>Node2&#45;&gt;Node21</title>
<g id="a_edge29_Node000002_Node000021"><a xlink:title=" ">
<path fill="none" stroke="#63b8ff" d="M696.39,-241.98C656.51,-232.84 593.04,-218.27 549.66,-208.32"/>
<polygon fill="#63b8ff" stroke="#63b8ff" points="550.43,-204.91 539.91,-206.08 548.87,-211.73 550.43,-204.91"/>
</a>
</g>
</g>
<!-- Node22 -->
<g id="Node000022" class="node">
<title>Node22</title>
<g id="a_Node000022"><a xlink:title=" ">
<polygon fill="#e0e0e0" stroke="#999999" points="624.5,-206 574.5,-206 574.5,-187 624.5,-187 624.5,-206"/>
<text text-anchor="middle" x="599.5" y="-194" font-family="Helvetica,sans-Serif" font-size="10.00">atomic</text>
</a>
</g>
</g>
<!-- Node2&#45;&gt;Node22 -->
<g id="edge30_Node000002_Node000022" class="edge">
<title>Node2&#45;&gt;Node22</title>
<g id="a_edge30_Node000002_Node000022"><a xlink:title=" ">
<path fill="none" stroke="#63b8ff" d="M711.97,-241.98C690.03,-233.3 655.76,-219.75 630.81,-209.88"/>
<polygon fill="#63b8ff" stroke="#63b8ff" points="632.01,-206.59 621.42,-206.17 629.43,-213.1 632.01,-206.59"/>
</a>
</g>
</g>
<!-- Node23 -->
<g id="Node000023" class="node">
<title>Node23</title>
<g id="a_Node000023"><a xlink:title=" ">
<polygon fill="#e0e0e0" stroke="#999999" points="690.5,-206 642.5,-206 642.5,-187 690.5,-187 690.5,-206"/>
<text text-anchor="middle" x="666.5" y="-194" font-family="Helvetica,sans-Serif" font-size="10.00">mutex</text>
</a>
</g>
</g>
<!-- Node2&#45;&gt;Node23 -->
<g id="edge32_Node000002_Node000023" class="edge">
<title>Node2&#45;&gt;Node23</title>
<g id="a_edge32_Node000002_Node000023"><a xlink:title=" ">
<path fill="none" stroke="#63b8ff" d="M722.74,-241.98C712.73,-234.07 697.61,-222.11 685.57,-212.58"/>
<polygon fill="#63b8ff" stroke="#63b8ff" points="687.47,-209.63 677.46,-206.17 683.13,-215.12 687.47,-209.63"/>
</a>
</g>
</g>
<!-- Node24 -->
<g id="Node000024" class="node">
<title>Node24</title>
<g id="a_Node000024"><a xlink:title=" ">
<polygon fill="#e0e0e0" stroke="#999999" points="758.5,-206 708.5,-206 708.5,-187 758.5,-187 758.5,-206"/>
<text text-anchor="middle" x="733.5" y="-194" font-family="Helvetica,sans-Serif" font-size="10.00">cstdint</text>
</a>
</g>
</g>
<!-- Node2&#45;&gt;Node24 -->
<g id="edge33_Node000002_Node000024" class="edge">
<title>Node2&#45;&gt;Node24</title>
<g id="a_edge33_Node000002_Node000024"><a xlink:title=" ">
<path fill="none" stroke="#63b8ff" d="M733.5,-241.75C733.5,-234.8 733.5,-224.85 733.5,-216.13"/>
<polygon fill="#63b8ff" stroke="#63b8ff" points="737,-216.09 733.5,-206.09 730,-216.09 737,-216.09"/>
</a>
</g>
</g>
<!-- Node4 -->
<g id="Node000004" class="node">
<title>Node4</title>
<g id="a_Node000004"><a xlink:title=" ">
<polygon fill="#e0e0e0" stroke="#999999" points="277.5,-24.5 233.5,-24.5 233.5,-5.5 277.5,-5.5 277.5,-24.5"/>
<text text-anchor="middle" x="255.5" y="-12.5" font-family="Helvetica,sans-Serif" font-size="10.00">string</text>
</a>
</g>
</g>
<!-- Node3&#45;&gt;Node4 -->
<g id="edge3_Node000003_Node000004" class="edge">
<title>Node3&#45;&gt;Node4</title>
<g id="a_edge3_Node000003_Node000004"><a xlink:title=" ">
<path fill="none" stroke="#63b8ff" d="M309.36,-186.96C302.61,-168.49 286.37,-123.37 274.5,-85 269.23,-67.95 263.89,-48.32 260.22,-34.36"/>
<polygon fill="#63b8ff" stroke="#63b8ff" points="263.57,-33.35 257.67,-24.55 256.8,-35.11 263.57,-33.35"/>
</a>
</g>
</g>
<!-- Node5 -->
<g id="Node000005" class="node">
<title>Node5</title>
<g id="a_Node000005"><a xlink:title=" ">
<polygon fill="#e0e0e0" stroke="#999999" points="333.5,-85 283.5,-85 283.5,-66 333.5,-66 333.5,-85"/>
<text text-anchor="middle" x="308.5" y="-73" font-family="Helvetica,sans-Serif" font-size="10.00">chrono</text>
</a>
</g>
</g>
<!-- Node3&#45;&gt;Node5 -->
<g id="edge4_Node000003_Node000005" class="edge">
<title>Node3&#45;&gt;Node5</title>
<g id="a_edge4_Node000003_Node000005"><a xlink:title=" ">
<path fill="none" stroke="#63b8ff" d="M312.21,-186.94C311.57,-167.91 310.02,-121.69 309.14,-95.47"/>
<polygon fill="#63b8ff" stroke="#63b8ff" points="312.63,-95.18 308.8,-85.3 305.63,-95.41 312.63,-95.18"/>
</a>
</g>
</g>
<!-- Node6 -->
<g id="Node000006" class="node">
<title>Node6</title>
<g id="a_Node000006"><a xlink:title=" ">
<polygon fill="#e0e0e0" stroke="#999999" points="758,-85 601,-85 601,-66 758,-66 758,-85"/>
<text text-anchor="middle" x="679.5" y="-73" font-family="Helvetica,sans-Serif" font-size="10.00">interfaces/logger_interface.h</text>
</a>
</g>
</g>
<!-- Node3&#45;&gt;Node6 -->
<g id="edge5_Node000003_Node000006" class="edge">
<title>Node3&#45;&gt;Node6</title>
<g id="a_edge5_Node000003_Node000006"><a xlink:title=" ">
<path fill="none" stroke="#63b8ff" d="M351.81,-186.94C387.53,-178.82 441.52,-165.71 487.5,-151 546.43,-132.15 613.41,-104.75 650.64,-88.96"/>
<polygon fill="#63b8ff" stroke="#63b8ff" points="652.06,-92.17 659.88,-85.02 649.31,-85.73 652.06,-92.17"/>
</a>
</g>
</g>
<!-- Node7 -->
<g id="Node000007" class="node">
<title>Node7</title>
<g id="a_Node000007"><a xlink:href="error__codes_8h.html" target="_top" xlink:title=" ">
<polygon fill="white" stroke="#666666" points="189.5,-85 97.5,-85 97.5,-66 189.5,-66 189.5,-85"/>
<text text-anchor="middle" x="143.5" y="-73" font-family="Helvetica,sans-Serif" font-size="10.00">../error_codes.h</text>
</a>
</g>
</g>
<!-- Node3&#45;&gt;Node7 -->
<g id="edge6_Node000003_Node000007" class="edge">
<title>Node3&#45;&gt;Node7</title>
<g id="a_edge6_Node000003_Node000007"><a xlink:title=" ">
<path fill="none" stroke="#63b8ff" d="M271.2,-192.32C218.31,-187.29 131.13,-175.46 111.5,-151 97.39,-133.43 113.44,-108.7 127.45,-92.63"/>
<polygon fill="#63b8ff" stroke="#63b8ff" points="130.19,-94.82 134.42,-85.11 125.06,-90.07 130.19,-94.82"/>
</a>
</g>
</g>
<!-- Node11 -->
<g id="Node000011" class="node">
<title>Node11</title>
<g id="a_Node000011"><a xlink:href="log__writer__interface_8h.html" target="_top" xlink:title=" ">
<polygon fill="white" stroke="#666666" points="246.5,-151 120.5,-151 120.5,-121 246.5,-121 246.5,-151"/>
<text text-anchor="start" x="128.5" y="-139" font-family="Helvetica,sans-Serif" font-size="10.00">../interfaces/log_writer</text>
<text text-anchor="middle" x="183.5" y="-128" font-family="Helvetica,sans-Serif" font-size="10.00">_interface.h</text>
</a>
</g>
</g>
<!-- Node3&#45;&gt;Node11 -->
<g id="edge11_Node000003_Node000011" class="edge">
<title>Node3&#45;&gt;Node11</title>
<g id="a_edge11_Node000003_Node000011"><a xlink:title=" ">
<path fill="none" stroke="#63b8ff" d="M293.74,-186.99C275.56,-178.75 247.4,-165.98 224.08,-155.4"/>
<polygon fill="#63b8ff" stroke="#63b8ff" points="225.32,-152.12 214.76,-151.18 222.43,-158.5 225.32,-152.12"/>
</a>
</g>
</g>
<!-- Node12 -->
<g id="Node000012" class="node">
<title>Node12</title>
<g id="a_Node000012"><a xlink:href="log__entry_8h.html" target="_top" xlink:title="Data structures for representing log entries and source locations.">
<polygon fill="white" stroke="#666666" points="479,-145.5 348,-145.5 348,-126.5 479,-126.5 479,-145.5"/>
<text text-anchor="middle" x="413.5" y="-133.5" font-family="Helvetica,sans-Serif" font-size="10.00">../interfaces/log_entry.h</text>
</a>
</g>
</g>
<!-- Node3&#45;&gt;Node12 -->
<g id="edge15_Node000003_Node000012" class="edge">
<title>Node3&#45;&gt;Node12</title>
<g id="a_edge15_Node000003_Node000012"><a xlink:title=" ">
<path fill="none" stroke="#63b8ff" d="M327.4,-186.87C343.81,-177.36 370.43,-161.95 389.73,-150.77"/>
<polygon fill="#63b8ff" stroke="#63b8ff" points="391.64,-153.71 398.54,-145.67 388.13,-147.65 391.64,-153.71"/>
</a>
</g>
</g>
<!-- Node7&#45;&gt;Node4 -->
<g id="edge7_Node000007_Node000004" class="edge">
<title>Node7&#45;&gt;Node4</title>
<g id="a_edge7_Node000007_Node000004"><a xlink:title=" ">
<path fill="none" stroke="#63b8ff" d="M160.03,-65.87C178.47,-56.23 208.54,-40.53 230.01,-29.31"/>
<polygon fill="#63b8ff" stroke="#63b8ff" points="231.66,-32.4 238.91,-24.67 228.42,-26.19 231.66,-32.4"/>
</a>
</g>
</g>
<!-- Node8 -->
<g id="Node000008" class="node">
<title>Node8</title>
<g id="a_Node000008"><a xlink:title=" ">
<polygon fill="#e0e0e0" stroke="#999999" points="65,-24.5 0,-24.5 0,-5.5 65,-5.5 65,-24.5"/>
<text text-anchor="middle" x="32.5" y="-12.5" font-family="Helvetica,sans-Serif" font-size="10.00">stdexcept</text>
</a>
</g>
</g>
<!-- Node7&#45;&gt;Node8 -->
<g id="edge8_Node000007_Node000008" class="edge">
<title>Node7&#45;&gt;Node8</title>
<g id="a_edge8_Node000007_Node000008"><a xlink:title=" ">
<path fill="none" stroke="#63b8ff" d="M127.12,-65.87C108.92,-56.28 79.3,-40.67 58.05,-29.47"/>
<polygon fill="#63b8ff" stroke="#63b8ff" points="59.42,-26.23 48.95,-24.67 56.16,-32.43 59.42,-26.23"/>
</a>
</g>
</g>
<!-- Node9 -->
<g id="Node000009" class="node">
<title>Node9</title>
<g id="a_Node000009"><a xlink:title=" ">
<polygon fill="#e0e0e0" stroke="#999999" points="405,-24.5 360,-24.5 360,-5.5 405,-5.5 405,-24.5"/>
<text text-anchor="middle" x="382.5" y="-12.5" font-family="Helvetica,sans-Serif" font-size="10.00">utility</text>
</a>
</g>
</g>
<!-- Node7&#45;&gt;Node9 -->
<g id="edge9_Node000007_Node000009" class="edge">
<title>Node7&#45;&gt;Node9</title>
<g id="a_edge9_Node000007_Node000009"><a xlink:title=" ">
<path fill="none" stroke="#63b8ff" d="M178.25,-65.99C224.37,-54.7 305.2,-34.92 350.1,-23.93"/>
<polygon fill="#63b8ff" stroke="#63b8ff" points="351.03,-27.31 359.91,-21.53 349.36,-20.51 351.03,-27.31"/>
</a>
</g>
</g>
<!-- Node10 -->
<g id="Node000010" class="node">
<title>Node10</title>
<g id="a_Node000010"><a xlink:title=" ">
<polygon fill="#e0e0e0" stroke="#999999" points="211.5,-30 83.5,-30 83.5,0 211.5,0 211.5,-30"/>
<text text-anchor="start" x="91.5" y="-18" font-family="Helvetica,sans-Serif" font-size="10.00">thread_base/sync/error</text>
<text text-anchor="middle" x="147.5" y="-7" font-family="Helvetica,sans-Serif" font-size="10.00">_handling.h</text>
</a>
</g>
</g>
<!-- Node7&#45;&gt;Node10 -->
<g id="edge10_Node000007_Node000010" class="edge">
<title>Node7&#45;&gt;Node10</title>
<g id="a_edge10_Node000007_Node000010"><a xlink:title=" ">
<path fill="none" stroke="#63b8ff" d="M144.09,-65.87C144.55,-59.11 145.22,-49.35 145.84,-40.26"/>
<polygon fill="#63b8ff" stroke="#63b8ff" points="149.34,-40.33 146.53,-30.11 142.36,-39.85 149.34,-40.33"/>
</a>
</g>
</g>
<!-- Node11&#45;&gt;Node4 -->
<g id="edge12_Node000011_Node000004" class="edge">
<title>Node11&#45;&gt;Node4</title>
<g id="a_edge12_Node000011_Node000004"><a xlink:title=" ">
<path fill="none" stroke="#63b8ff" d="M192.04,-120.88C205.27,-99.02 230.67,-57.04 245,-33.36"/>
<polygon fill="#63b8ff" stroke="#63b8ff" points="248.05,-35.08 250.23,-24.71 242.06,-31.46 248.05,-35.08"/>
</a>
</g>
</g>
<!-- Node11&#45;&gt;Node5 -->
<g id="edge13_Node000011_Node000005" class="edge">
<title>Node11&#45;&gt;Node5</title>
<g id="a_edge13_Node000011_Node000005"><a xlink:title=" ">
<path fill="none" stroke="#63b8ff" d="M213.44,-120.99C233.92,-111.4 260.88,-98.79 280.85,-89.44"/>
<polygon fill="#63b8ff" stroke="#63b8ff" points="282.47,-92.55 290.04,-85.14 279.5,-86.21 282.47,-92.55"/>
</a>
</g>
</g>
<!-- Node11&#45;&gt;Node7 -->
<g id="edge14_Node000011_Node000007" class="edge">
<title>Node11&#45;&gt;Node7</title>
<g id="a_edge14_Node000011_Node000007"><a xlink:title=" ">
<path fill="none" stroke="#63b8ff" d="M173.82,-120.84C168.25,-112.69 161.21,-102.4 155.32,-93.78"/>
<polygon fill="#63b8ff" stroke="#63b8ff" points="158.03,-91.55 149.49,-85.27 152.25,-95.5 158.03,-91.55"/>
</a>
</g>
</g>
<!-- Node12&#45;&gt;Node4 -->
<g id="edge16_Node000012_Node000004" class="edge">
<title>Node12&#45;&gt;Node4</title>
<g id="a_edge16_Node000012_Node000004"><a xlink:title=" ">
<path fill="none" stroke="#63b8ff" d="M405.8,-126.22C393.38,-112.36 367.75,-85.05 342.5,-66 323.61,-51.75 300.27,-38.54 282.52,-29.28"/>
<polygon fill="#63b8ff" stroke="#63b8ff" points="283.8,-26.01 273.3,-24.57 280.61,-32.24 283.8,-26.01"/>
</a>
</g>
</g>
<!-- Node12&#45;&gt;Node5 -->
<g id="edge17_Node000012_Node000005" class="edge">
<title>Node12&#45;&gt;Node5</title>
<g id="a_edge17_Node000012_Node000005"><a xlink:title=" ">
<path fill="none" stroke="#63b8ff" d="M398.01,-126.37C380.87,-116.82 353.03,-101.31 332.94,-90.12"/>
<polygon fill="#63b8ff" stroke="#63b8ff" points="334.5,-86.98 324.06,-85.17 331.09,-93.09 334.5,-86.98"/>
</a>
</g>
</g>
<!-- Node12&#45;&gt;Node6 -->
<g id="edge26_Node000012_Node000006" class="edge">
<title>Node12&#45;&gt;Node6</title>
<g id="a_edge26_Node000012_Node000006"><a xlink:title=" ">
<path fill="none" stroke="#63b8ff" d="M452.18,-126.49C499.46,-116.1 579.5,-98.49 630.9,-87.19"/>
<polygon fill="#63b8ff" stroke="#63b8ff" points="631.76,-90.58 640.77,-85.02 630.26,-83.75 631.76,-90.58"/>
</a>
</g>
</g>
<!-- Node13 -->
<g id="Node000013" class="node">
<title>Node13</title>
<g id="a_Node000013"><a xlink:title=" ">
<polygon fill="#e0e0e0" stroke="#999999" points="445.5,-85 389.5,-85 389.5,-66 445.5,-66 445.5,-85"/>
<text text-anchor="middle" x="417.5" y="-73" font-family="Helvetica,sans-Serif" font-size="10.00">optional</text>
</a>
</g>
</g>
<!-- Node12&#45;&gt;Node13 -->
<g id="edge18_Node000012_Node000013" class="edge">
<title>Node12&#45;&gt;Node13</title>
<g id="a_edge18_Node000012_Node000013"><a xlink:title=" ">
<path fill="none" stroke="#63b8ff" d="M414.09,-126.37C414.65,-118.25 415.5,-105.81 416.21,-95.39"/>
<polygon fill="#63b8ff" stroke="#63b8ff" points="419.72,-95.38 416.91,-85.17 412.73,-94.91 419.72,-95.38"/>
</a>
</g>
</g>
<!-- Node14 -->
<g id="Node000014" class="node">
<title>Node14</title>
<g id="a_Node000014"><a xlink:href="small__string_8h.html" target="_top" xlink:title=" ">
<polygon fill="white" stroke="#666666" points="583,-85 464,-85 464,-66 583,-66 583,-85"/>
<text text-anchor="middle" x="523.5" y="-73" font-family="Helvetica,sans-Serif" font-size="10.00">../core/small_string.h</text>
</a>
</g>
</g>
<!-- Node12&#45;&gt;Node14 -->
<g id="edge19_Node000012_Node000014" class="edge">
<title>Node12&#45;&gt;Node14</title>
<g id="a_edge19_Node000012_Node000014"><a xlink:title=" ">
<path fill="none" stroke="#63b8ff" d="M429.73,-126.37C447.77,-116.78 477.12,-101.17 498.18,-89.97"/>
<polygon fill="#63b8ff" stroke="#63b8ff" points="500.02,-92.95 507.2,-85.17 496.73,-86.77 500.02,-92.95"/>
</a>
</g>
</g>
<!-- Node14&#45;&gt;Node4 -->
<g id="edge21_Node000014_Node000004" class="edge">
<title>Node14&#45;&gt;Node4</title>
<g id="a_edge21_Node000014_Node000004"><a xlink:title=" ">
<path fill="none" stroke="#63b8ff" d="M484.53,-65.99C431.27,-54.37 336.73,-33.73 287.42,-22.97"/>
<polygon fill="#63b8ff" stroke="#63b8ff" points="288.14,-19.54 277.62,-20.83 286.64,-26.38 288.14,-19.54"/>
</a>
</g>
</g>
<!-- Node14&#45;&gt;Node9 -->
<g id="edge25_Node000014_Node000009" class="edge">
<title>Node14&#45;&gt;Node9</title>
<g id="a_edge25_Node000014_Node000009"><a xlink:title=" ">
<path fill="none" stroke="#63b8ff" d="M503,-65.99C479.19,-56.12 439.71,-39.73 412.46,-28.43"/>
<polygon fill="#63b8ff" stroke="#63b8ff" points="413.61,-25.12 403.03,-24.52 410.92,-31.58 413.61,-25.12"/>
</a>
</g>
</g>
<!-- Node14&#45;&gt;Node15 -->
<g id="edge20_Node000014_Node000015" class="edge">
<title>Node14&#45;&gt;Node15</title>
<g id="a_edge20_Node000014_Node000015"><a xlink:title=" ">
<path fill="none" stroke="#63b8ff" d="M578.9,-65.99C658.44,-53.78 802.71,-31.63 869.2,-21.42"/>
<polygon fill="#63b8ff" stroke="#63b8ff" points="869.83,-24.86 879.19,-19.89 868.77,-17.95 869.83,-24.86"/>
</a>
</g>
</g>
<!-- Node16 -->
<g id="Node000016" class="node">
<title>Node16</title>
<g id="a_Node000016"><a xlink:title=" ">
<polygon fill="#e0e0e0" stroke="#999999" points="516,-24.5 443,-24.5 443,-5.5 516,-5.5 516,-24.5"/>
<text text-anchor="middle" x="479.5" y="-12.5" font-family="Helvetica,sans-Serif" font-size="10.00">string_view</text>
</a>
</g>
</g>
<!-- Node14&#45;&gt;Node16 -->
<g id="edge22_Node000014_Node000016" class="edge">
<title>Node14&#45;&gt;Node16</title>
<g id="a_edge22_Node000014_Node000016"><a xlink:title=" ">
<path fill="none" stroke="#63b8ff" d="M517.01,-65.87C510.51,-57.23 500.34,-43.7 492.22,-32.92"/>
<polygon fill="#63b8ff" stroke="#63b8ff" points="494.83,-30.56 486.02,-24.67 489.23,-34.76 494.83,-30.56"/>
</a>
</g>
</g>
<!-- Node17 -->
<g id="Node000017" class="node">
<title>Node17</title>
<g id="a_Node000017"><a xlink:title=" ">
<polygon fill="#e0e0e0" stroke="#999999" points="598.5,-24.5 534.5,-24.5 534.5,-5.5 598.5,-5.5 598.5,-24.5"/>
<text text-anchor="middle" x="566.5" y="-12.5" font-family="Helvetica,sans-Serif" font-size="10.00">algorithm</text>
</a>
</g>
</g>
<!-- Node14&#45;&gt;Node17 -->
<g id="edge23_Node000014_Node000017" class="edge">
<title>Node14&#45;&gt;Node17</title>
<g id="a_edge23_Node000014_Node000017"><a xlink:title=" ">
<path fill="none" stroke="#63b8ff" d="M529.84,-65.87C536.2,-57.23 546.14,-43.7 554.07,-32.92"/>
<polygon fill="#63b8ff" stroke="#63b8ff" points="557.03,-34.8 560.13,-24.67 551.39,-30.65 557.03,-34.8"/>
</a>
</g>
</g>
<!-- Node14&#45;&gt;Node18 -->
<g id="edge24_Node000014_Node000018" class="edge">
<title>Node14&#45;&gt;Node18</title>
<g id="a_edge24_Node000014_Node000018"><a xlink:title=" ">
<path fill="none" stroke="#63b8ff" d="M554.62,-65.99C592.74,-55.57 657.35,-37.91 698.68,-26.61"/>
<polygon fill="#63b8ff" stroke="#63b8ff" points="699.68,-29.97 708.41,-23.95 697.84,-23.21 699.68,-29.97"/>
</a>
</g>
</g>
</g>
</svg>
