<?xml version="1.0" encoding="UTF-8" standalone="no"?>
<!DOCTYPE svg PUBLIC "-//W3C//DTD SVG 1.1//EN"
 "http://www.w3.org/Graphics/SVG/1.1/DTD/svg11.dtd">
<!-- Generated by graphviz version 2.43.0 (0)
 -->
<!-- Title: network_writer.cpp Pages: 1 -->
<svg width="1459pt" height="313pt"
 viewBox="0.00 0.00 1459.00 313.00" xmlns="http://www.w3.org/2000/svg" xmlns:xlink="http://www.w3.org/1999/xlink">
<g id="graph0" class="graph" transform="scale(1 1) rotate(0) translate(4 309)">
<title>network_writer.cpp</title>
<!-- Node1 -->
<g id="Node000001" class="node">
<title>Node1</title>
<g id="a_Node000001"><a xlink:title=" ">
<polygon fill="#999999" stroke="#666666" points="1118,-305 1008,-305 1008,-286 1118,-286 1118,-305"/>
<text text-anchor="middle" x="1063" y="-293" font-family="Helvetica,sans-Serif" font-size="10.00">network_writer.cpp</text>
</a>
</g>
</g>
<!-- Node2 -->
<g id="Node000002" class="node">
<title>Node2</title>
<g id="a_Node000002"><a xlink:href="network__writer_8h.html" target="_top" xlink:title=" ">
<polygon fill="white" stroke="#666666" points="672,-250 574,-250 574,-231 672,-231 672,-250"/>
<text text-anchor="middle" x="623" y="-238" font-family="Helvetica,sans-Serif" font-size="10.00">network_writer.h</text>
</a>
</g>
</g>
<!-- Node1&#45;&gt;Node2 -->
<g id="edge1_Node000001_Node000002" class="edge">
<title>Node1&#45;&gt;Node2</title>
<g id="a_edge1_Node000001_Node000002"><a xlink:title=" ">
<path fill="none" stroke="#63b8ff" d="M1007.73,-288.52C935.51,-280.59 804.85,-265.89 682.19,-249.99"/>
<polygon fill="#63b8ff" stroke="#63b8ff" points="682.61,-246.51 672.24,-248.69 681.71,-253.46 682.61,-246.51"/>
</a>
</g>
</g>
<!-- Node19 -->
<g id="Node000019" class="node">
<title>Node19</title>
<g id="a_Node000019"><a xlink:title=" ">
<polygon fill="#e0e0e0" stroke="#999999" points="767.5,-250 690.5,-250 690.5,-231 767.5,-231 767.5,-250"/>
<text text-anchor="middle" x="729" y="-238" font-family="Helvetica,sans-Serif" font-size="10.00">sys/socket.h</text>
</a>
</g>
</g>
<!-- Node1&#45;&gt;Node19 -->
<g id="edge29_Node000001_Node000019" class="edge">
<title>Node1&#45;&gt;Node19</title>
<g id="a_edge29_Node000001_Node000019"><a xlink:title=" ">
<path fill="none" stroke="#63b8ff" d="M1007.85,-286.27C952.35,-277.91 864.03,-264.39 777.5,-250.05"/>
<polygon fill="#63b8ff" stroke="#63b8ff" points="777.94,-246.58 767.5,-248.39 776.79,-253.48 777.94,-246.58"/>
</a>
</g>
</g>
<!-- Node20 -->
<g id="Node000020" class="node">
<title>Node20</title>
<g id="a_Node000020"><a xlink:title=" ">
<polygon fill="#e0e0e0" stroke="#999999" points="858,-250 786,-250 786,-231 858,-231 858,-250"/>
<text text-anchor="middle" x="822" y="-238" font-family="Helvetica,sans-Serif" font-size="10.00">netinet/in.h</text>
</a>
</g>
</g>
<!-- Node1&#45;&gt;Node20 -->
<g id="edge30_Node000001_Node000020" class="edge">
<title>Node1&#45;&gt;Node20</title>
<g id="a_edge30_Node000001_Node000020"><a xlink:title=" ">
<path fill="none" stroke="#63b8ff" d="M1024.28,-285.98C981.73,-276.63 913.41,-261.6 868.12,-251.64"/>
<polygon fill="#63b8ff" stroke="#63b8ff" points="868.78,-248.2 858.26,-249.47 867.27,-255.04 868.78,-248.2"/>
</a>
</g>
</g>
<!-- Node21 -->
<g id="Node000021" class="node">
<title>Node21</title>
<g id="a_Node000021"><a xlink:title=" ">
<polygon fill="#e0e0e0" stroke="#999999" points="945.5,-250 876.5,-250 876.5,-231 945.5,-231 945.5,-250"/>
<text text-anchor="middle" x="911" y="-238" font-family="Helvetica,sans-Serif" font-size="10.00">arpa/inet.h</text>
</a>
</g>
</g>
<!-- Node1&#45;&gt;Node21 -->
<g id="edge31_Node000001_Node000021" class="edge">
<title>Node1&#45;&gt;Node21</title>
<g id="a_edge31_Node000001_Node000021"><a xlink:title=" ">
<path fill="none" stroke="#63b8ff" d="M1038.58,-285.98C1013.28,-277.16 973.55,-263.31 945.14,-253.41"/>
<polygon fill="#63b8ff" stroke="#63b8ff" points="946.21,-250.07 935.61,-250.08 943.9,-256.68 946.21,-250.07"/>
</a>
</g>
</g>
<!-- Node22 -->
<g id="Node000022" class="node">
<title>Node22</title>
<g id="a_Node000022"><a xlink:title=" ">
<polygon fill="#e0e0e0" stroke="#999999" points="1016.5,-250 963.5,-250 963.5,-231 1016.5,-231 1016.5,-250"/>
<text text-anchor="middle" x="990" y="-238" font-family="Helvetica,sans-Serif" font-size="10.00">netdb.h</text>
</a>
</g>
</g>
<!-- Node1&#45;&gt;Node22 -->
<g id="edge32_Node000001_Node000022" class="edge">
<title>Node1&#45;&gt;Node22</title>
<g id="a_edge32_Node000001_Node000022"><a xlink:title=" ">
<path fill="none" stroke="#63b8ff" d="M1051.27,-285.98C1040.27,-278 1023.58,-265.88 1010.4,-256.31"/>
<polygon fill="#63b8ff" stroke="#63b8ff" points="1012.09,-253.21 1001.94,-250.17 1007.98,-258.88 1012.09,-253.21"/>
</a>
</g>
</g>
<!-- Node23 -->
<g id="Node000023" class="node">
<title>Node23</title>
<g id="a_Node000023"><a xlink:title=" ">
<polygon fill="#e0e0e0" stroke="#999999" points="1091,-250 1035,-250 1035,-231 1091,-231 1091,-250"/>
<text text-anchor="middle" x="1063" y="-238" font-family="Helvetica,sans-Serif" font-size="10.00">unistd.h</text>
</a>
</g>
</g>
<!-- Node1&#45;&gt;Node23 -->
<g id="edge33_Node000001_Node000023" class="edge">
<title>Node1&#45;&gt;Node23</title>
<g id="a_edge33_Node000001_Node000023"><a xlink:title=" ">
<path fill="none" stroke="#63b8ff" d="M1063,-285.75C1063,-278.8 1063,-268.85 1063,-260.13"/>
<polygon fill="#63b8ff" stroke="#63b8ff" points="1066.5,-260.09 1063,-250.09 1059.5,-260.09 1066.5,-260.09"/>
</a>
</g>
</g>
<!-- Node24 -->
<g id="Node000024" class="node">
<title>Node24</title>
<g id="a_Node000024"><a xlink:title=" ">
<polygon fill="#e0e0e0" stroke="#999999" points="1159,-250 1109,-250 1109,-231 1159,-231 1159,-250"/>
<text text-anchor="middle" x="1134" y="-238" font-family="Helvetica,sans-Serif" font-size="10.00">cstring</text>
</a>
</g>
</g>
<!-- Node1&#45;&gt;Node24 -->
<g id="edge34_Node000001_Node000024" class="edge">
<title>Node1&#45;&gt;Node24</title>
<g id="a_edge34_Node000001_Node000024"><a xlink:title=" ">
<path fill="none" stroke="#63b8ff" d="M1074.41,-285.98C1085.11,-278 1101.34,-265.88 1114.16,-256.31"/>
<polygon fill="#63b8ff" stroke="#63b8ff" points="1116.47,-258.96 1122.39,-250.17 1112.28,-253.35 1116.47,-258.96"/>
</a>
</g>
</g>
<!-- Node25 -->
<g id="Node000025" class="node">
<title>Node25</title>
<g id="a_Node000025"><a xlink:title=" ">
<polygon fill="#e0e0e0" stroke="#999999" points="1224.5,-250 1177.5,-250 1177.5,-231 1224.5,-231 1224.5,-250"/>
<text text-anchor="middle" x="1201" y="-238" font-family="Helvetica,sans-Serif" font-size="10.00">cerrno</text>
</a>
</g>
</g>
<!-- Node1&#45;&gt;Node25 -->
<g id="edge35_Node000001_Node000025" class="edge">
<title>Node1&#45;&gt;Node25</title>
<g id="a_edge35_Node000001_Node000025"><a xlink:title=" ">
<path fill="none" stroke="#63b8ff" d="M1085.17,-285.98C1107.77,-277.3 1143.06,-263.75 1168.75,-253.88"/>
<polygon fill="#63b8ff" stroke="#63b8ff" points="1170.34,-257.02 1178.42,-250.17 1167.83,-250.49 1170.34,-257.02"/>
</a>
</g>
</g>
<!-- Node26 -->
<g id="Node000026" class="node">
<title>Node26</title>
<g id="a_Node000026"><a xlink:title=" ">
<polygon fill="#e0e0e0" stroke="#999999" points="1299,-250 1243,-250 1243,-231 1299,-231 1299,-250"/>
<text text-anchor="middle" x="1271" y="-238" font-family="Helvetica,sans-Serif" font-size="10.00">sstream</text>
</a>
</g>
</g>
<!-- Node1&#45;&gt;Node26 -->
<g id="edge36_Node000001_Node000026" class="edge">
<title>Node1&#45;&gt;Node26</title>
<g id="a_edge36_Node000001_Node000026"><a xlink:title=" ">
<path fill="none" stroke="#63b8ff" d="M1096.42,-285.98C1133.74,-276.48 1194.01,-261.12 1233.07,-251.17"/>
<polygon fill="#63b8ff" stroke="#63b8ff" points="1234.17,-254.5 1243,-248.63 1232.44,-247.71 1234.17,-254.5"/>
</a>
</g>
</g>
<!-- Node27 -->
<g id="Node000027" class="node">
<title>Node27</title>
<g id="a_Node000027"><a xlink:title=" ">
<polygon fill="#e0e0e0" stroke="#999999" points="1373,-250 1317,-250 1317,-231 1373,-231 1373,-250"/>
<text text-anchor="middle" x="1345" y="-238" font-family="Helvetica,sans-Serif" font-size="10.00">iomanip</text>
</a>
</g>
</g>
<!-- Node1&#45;&gt;Node27 -->
<g id="edge37_Node000001_Node000027" class="edge">
<title>Node1&#45;&gt;Node27</title>
<g id="a_edge37_Node000001_Node000027"><a xlink:title=" ">
<path fill="none" stroke="#63b8ff" d="M1113.81,-285.98C1161.22,-277.86 1234.18,-264.98 1306.54,-250.23"/>
<polygon fill="#63b8ff" stroke="#63b8ff" points="1307.65,-253.57 1316.75,-248.13 1306.25,-246.71 1307.65,-253.57"/>
</a>
</g>
</g>
<!-- Node28 -->
<g id="Node000028" class="node">
<title>Node28</title>
<g id="a_Node000028"><a xlink:title=" ">
<polygon fill="#e0e0e0" stroke="#999999" points="1451,-250 1391,-250 1391,-231 1451,-231 1451,-250"/>
<text text-anchor="middle" x="1421" y="-238" font-family="Helvetica,sans-Serif" font-size="10.00">iostream</text>
</a>
</g>
</g>
<!-- Node1&#45;&gt;Node28 -->
<g id="edge38_Node000001_Node000028" class="edge">
<title>Node1&#45;&gt;Node28</title>
<g id="a_edge38_Node000001_Node000028"><a xlink:title=" ">
<path fill="none" stroke="#63b8ff" d="M1118.24,-288.09C1179.89,-280.64 1282.81,-267.35 1380.74,-250.11"/>
<polygon fill="#63b8ff" stroke="#63b8ff" points="1381.58,-253.51 1390.81,-248.32 1380.35,-246.62 1381.58,-253.51"/>
</a>
</g>
</g>
<!-- Node3 -->
<g id="Node000003" class="node">
<title>Node3</title>
<g id="a_Node000003"><a xlink:href="base__writer_8h.html" target="_top" xlink:title=" ">
<polygon fill="white" stroke="#666666" points="315,-195 233,-195 233,-176 315,-176 315,-195"/>
<text text-anchor="middle" x="274" y="-183" font-family="Helvetica,sans-Serif" font-size="10.00">base_writer.h</text>
</a>
</g>
</g>
<!-- Node2&#45;&gt;Node3 -->
<g id="edge2_Node000002_Node000003" class="edge">
<title>Node2&#45;&gt;Node3</title>
<g id="a_edge2_Node000002_Node000003"><a xlink:title=" ">
<path fill="none" stroke="#63b8ff" d="M573.74,-232.02C508.01,-222.04 392.2,-204.45 325.4,-194.31"/>
<polygon fill="#63b8ff" stroke="#63b8ff" points="325.53,-190.79 315.12,-192.74 324.48,-197.71 325.53,-190.79"/>
</a>
</g>
</g>
<!-- Node7 -->
<g id="Node000007" class="node">
<title>Node7</title>
<g id="a_Node000007"><a xlink:title=" ">
<polygon fill="#e0e0e0" stroke="#999999" points="457,-19 399,-19 399,0 457,0 457,-19"/>
<text text-anchor="middle" x="428" y="-7" font-family="Helvetica,sans-Serif" font-size="10.00">memory</text>
</a>
</g>
</g>
<!-- Node2&#45;&gt;Node7 -->
<g id="edge26_Node000002_Node000007" class="edge">
<title>Node2&#45;&gt;Node7</title>
<g id="a_edge26_Node000002_Node000007"><a xlink:title=" ">
<path fill="none" stroke="#63b8ff" d="M598.96,-230.95C581.49,-223.7 558.33,-211.78 543,-195 497.11,-144.75 521.89,-109.39 481,-55 472.31,-43.45 460.09,-32.92 449.56,-25.01"/>
<polygon fill="#63b8ff" stroke="#63b8ff" points="451.4,-22.02 441.24,-19.02 447.31,-27.7 451.4,-22.02"/>
</a>
</g>
</g>
<!-- Node8 -->
<g id="Node000008" class="node">
<title>Node8</title>
<g id="a_Node000008"><a xlink:title=" ">
<polygon fill="#e0e0e0" stroke="#999999" points="549,-19 501,-19 501,0 549,0 549,-19"/>
<text text-anchor="middle" x="525" y="-7" font-family="Helvetica,sans-Serif" font-size="10.00">mutex</text>
</a>
</g>
</g>
<!-- Node2&#45;&gt;Node8 -->
<g id="edge27_Node000002_Node000008" class="edge">
<title>Node2&#45;&gt;Node8</title>
<g id="a_edge27_Node000002_Node000008"><a xlink:title=" ">
<path fill="none" stroke="#63b8ff" d="M602.37,-230.99C587.35,-223.7 567.82,-211.7 557,-195 523.03,-142.53 522.03,-64.81 523.65,-29.36"/>
<polygon fill="#63b8ff" stroke="#63b8ff" points="527.16,-29.24 524.25,-19.05 520.17,-28.83 527.16,-29.24"/>
</a>
</g>
</g>
<!-- Node14 -->
<g id="Node000014" class="node">
<title>Node14</title>
<g id="a_Node000014"><a xlink:title=" ">
<polygon fill="#e0e0e0" stroke="#999999" points="614,-195 566,-195 566,-176 614,-176 614,-195"/>
<text text-anchor="middle" x="590" y="-183" font-family="Helvetica,sans-Serif" font-size="10.00">thread</text>
</a>
</g>
</g>
<!-- Node2&#45;&gt;Node14 -->
<g id="edge22_Node000002_Node000014" class="edge">
<title>Node2&#45;&gt;Node14</title>
<g id="a_edge22_Node000002_Node000014"><a xlink:title=" ">
<path fill="none" stroke="#63b8ff" d="M617.55,-230.75C612.99,-223.42 606.33,-212.73 600.71,-203.7"/>
<polygon fill="#63b8ff" stroke="#63b8ff" points="603.6,-201.73 595.35,-195.09 597.66,-205.43 603.6,-201.73"/>
</a>
</g>
</g>
<!-- Node15 -->
<g id="Node000015" class="node">
<title>Node15</title>
<g id="a_Node000015"><a xlink:title=" ">
<polygon fill="#e0e0e0" stroke="#999999" points="679.5,-195 632.5,-195 632.5,-176 679.5,-176 679.5,-195"/>
<text text-anchor="middle" x="656" y="-183" font-family="Helvetica,sans-Serif" font-size="10.00">queue</text>
</a>
</g>
</g>
<!-- Node2&#45;&gt;Node15 -->
<g id="edge23_Node000002_Node000015" class="edge">
<title>Node2&#45;&gt;Node15</title>
<g id="a_edge23_Node000002_Node000015"><a xlink:title=" ">
<path fill="none" stroke="#63b8ff" d="M628.45,-230.75C633.01,-223.42 639.67,-212.73 645.29,-203.7"/>
<polygon fill="#63b8ff" stroke="#63b8ff" points="648.34,-205.43 650.65,-195.09 642.4,-201.73 648.34,-205.43"/>
</a>
</g>
</g>
<!-- Node16 -->
<g id="Node000016" class="node">
<title>Node16</title>
<g id="a_Node000016"><a xlink:title=" ">
<polygon fill="#e0e0e0" stroke="#999999" points="804.5,-195 697.5,-195 697.5,-176 804.5,-176 804.5,-195"/>
<text text-anchor="middle" x="751" y="-183" font-family="Helvetica,sans-Serif" font-size="10.00">condition_variable</text>
</a>
</g>
</g>
<!-- Node2&#45;&gt;Node16 -->
<g id="edge24_Node000002_Node000016" class="edge">
<title>Node2&#45;&gt;Node16</title>
<g id="a_edge24_Node000002_Node000016"><a xlink:title=" ">
<path fill="none" stroke="#63b8ff" d="M643.57,-230.98C664.43,-222.34 696.97,-208.87 720.77,-199.02"/>
<polygon fill="#63b8ff" stroke="#63b8ff" points="722.16,-202.23 730.06,-195.17 719.48,-195.76 722.16,-202.23"/>
</a>
</g>
</g>
<!-- Node17 -->
<g id="Node000017" class="node">
<title>Node17</title>
<g id="a_Node000017"><a xlink:title=" ">
<polygon fill="#e0e0e0" stroke="#999999" points="873,-195 823,-195 823,-176 873,-176 873,-195"/>
<text text-anchor="middle" x="848" y="-183" font-family="Helvetica,sans-Serif" font-size="10.00">atomic</text>
</a>
</g>
</g>
<!-- Node2&#45;&gt;Node17 -->
<g id="edge25_Node000002_Node000017" class="edge">
<title>Node2&#45;&gt;Node17</title>
<g id="a_edge25_Node000002_Node000017"><a xlink:title=" ">
<path fill="none" stroke="#63b8ff" d="M660.37,-230.98C696.88,-222.62 754.26,-209.36 812.95,-195.23"/>
<polygon fill="#63b8ff" stroke="#63b8ff" points="813.86,-198.61 822.76,-192.86 812.22,-191.8 813.86,-198.61"/>
</a>
</g>
</g>
<!-- Node18 -->
<g id="Node000018" class="node">
<title>Node18</title>
<g id="a_Node000018"><a xlink:title=" ">
<polygon fill="#e0e0e0" stroke="#999999" points="941,-195 891,-195 891,-176 941,-176 941,-195"/>
<text text-anchor="middle" x="916" y="-183" font-family="Helvetica,sans-Serif" font-size="10.00">cstdint</text>
</a>
</g>
</g>
<!-- Node2&#45;&gt;Node18 -->
<g id="edge28_Node000002_Node000018" class="edge">
<title>Node2&#45;&gt;Node18</title>
<g id="a_edge28_Node000002_Node000018"><a xlink:title=" ">
<path fill="none" stroke="#63b8ff" d="M672.38,-232.14C722.5,-224.42 802.55,-211.4 880.77,-195.13"/>
<polygon fill="#63b8ff" stroke="#63b8ff" points="881.73,-198.5 890.8,-193.02 880.29,-191.65 881.73,-198.5"/>
</a>
</g>
</g>
<!-- Node4 -->
<g id="Node000004" class="node">
<title>Node4</title>
<g id="a_Node000004"><a xlink:title=" ">
<polygon fill="#e0e0e0" stroke="#999999" points="207,-19 163,-19 163,0 207,0 207,-19"/>
<text text-anchor="middle" x="185" y="-7" font-family="Helvetica,sans-Serif" font-size="10.00">string</text>
</a>
</g>
</g>
<!-- Node3&#45;&gt;Node4 -->
<g id="edge3_Node000003_Node000004" class="edge">
<title>Node3&#45;&gt;Node4</title>
<g id="a_edge3_Node000003_Node000004"><a xlink:title=" ">
<path fill="none" stroke="#63b8ff" d="M232.81,-178.98C189.54,-172.24 125.73,-159.29 111,-140 81.7,-101.62 134.34,-50.45 165.1,-25.48"/>
<polygon fill="#63b8ff" stroke="#63b8ff" points="167.43,-28.1 173.11,-19.16 163.09,-22.61 167.43,-28.1"/>
</a>
</g>
</g>
<!-- Node5 -->
<g id="Node000005" class="node">
<title>Node5</title>
<g id="a_Node000005"><a xlink:title=" ">
<polygon fill="#e0e0e0" stroke="#999999" points="264,-74 214,-74 214,-55 264,-55 264,-74"/>
<text text-anchor="middle" x="239" y="-62" font-family="Helvetica,sans-Serif" font-size="10.00">chrono</text>
</a>
</g>
</g>
<!-- Node3&#45;&gt;Node5 -->
<g id="edge4_Node000003_Node000005" class="edge">
<title>Node3&#45;&gt;Node5</title>
<g id="a_edge4_Node000003_Node000005"><a xlink:title=" ">
<path fill="none" stroke="#63b8ff" d="M272.04,-175.71C268.86,-161.7 262.2,-133.48 255,-110 252.32,-101.27 248.95,-91.72 245.99,-83.72"/>
<polygon fill="#63b8ff" stroke="#63b8ff" points="249.24,-82.41 242.44,-74.28 242.69,-84.87 249.24,-82.41"/>
</a>
</g>
</g>
<!-- Node6 -->
<g id="Node000006" class="node">
<title>Node6</title>
<g id="a_Node000006"><a xlink:href="logger__interface_8h.html" target="_top" xlink:title=" ">
<polygon fill="white" stroke="#666666" points="472,-74 358,-74 358,-55 472,-55 472,-74"/>
<text text-anchor="middle" x="415" y="-62" font-family="Helvetica,sans-Serif" font-size="10.00">../logger_interface.h</text>
</a>
</g>
</g>
<!-- Node3&#45;&gt;Node6 -->
<g id="edge5_Node000003_Node000006" class="edge">
<title>Node3&#45;&gt;Node6</title>
<g id="a_edge5_Node000003_Node000006"><a xlink:title=" ">
<path fill="none" stroke="#63b8ff" d="M315.07,-179.44C359.93,-172.97 427.49,-160.13 443,-140 456.38,-122.64 442.43,-98.19 429.88,-82.1"/>
<polygon fill="#63b8ff" stroke="#63b8ff" points="432.32,-79.57 423.23,-74.12 426.94,-84.05 432.32,-79.57"/>
</a>
</g>
</g>
<!-- Node9 -->
<g id="Node000009" class="node">
<title>Node9</title>
<g id="a_Node000009"><a xlink:href="error__codes_8h.html" target="_top" xlink:title=" ">
<polygon fill="white" stroke="#666666" points="92,-74 0,-74 0,-55 92,-55 92,-74"/>
<text text-anchor="middle" x="46" y="-62" font-family="Helvetica,sans-Serif" font-size="10.00">../error_codes.h</text>
</a>
</g>
</g>
<!-- Node3&#45;&gt;Node9 -->
<g id="edge9_Node000003_Node000009" class="edge">
<title>Node3&#45;&gt;Node9</title>
<g id="a_edge9_Node000003_Node000009"><a xlink:title=" ">
<path fill="none" stroke="#63b8ff" d="M232.87,-179.59C182.55,-172.84 101.2,-159.31 78,-140 61.05,-125.89 52.86,-101.15 49.06,-84.07"/>
<polygon fill="#63b8ff" stroke="#63b8ff" points="52.47,-83.3 47.14,-74.14 45.6,-84.62 52.47,-83.3"/>
</a>
</g>
</g>
<!-- Node12 -->
<g id="Node000012" class="node">
<title>Node12</title>
<g id="a_Node000012"><a xlink:href="log__writer__interface_8h.html" target="_top" xlink:title=" ">
<polygon fill="white" stroke="#666666" points="246,-140 120,-140 120,-110 246,-110 246,-140"/>
<text text-anchor="start" x="128" y="-128" font-family="Helvetica,sans-Serif" font-size="10.00">../interfaces/log_writer</text>
<text text-anchor="middle" x="183" y="-117" font-family="Helvetica,sans-Serif" font-size="10.00">_interface.h</text>
</a>
</g>
</g>
<!-- Node3&#45;&gt;Node12 -->
<g id="edge13_Node000003_Node000012" class="edge">
<title>Node3&#45;&gt;Node12</title>
<g id="a_edge13_Node000003_Node000012"><a xlink:title=" ">
<path fill="none" stroke="#63b8ff" d="M260.57,-175.87C248.23,-167.93 229.47,-155.87 213.49,-145.6"/>
<polygon fill="#63b8ff" stroke="#63b8ff" points="215.26,-142.58 204.96,-140.11 211.48,-148.47 215.26,-142.58"/>
</a>
</g>
</g>
<!-- Node13 -->
<g id="Node000013" class="node">
<title>Node13</title>
<g id="a_Node000013"><a xlink:href="log__entry_8h.html" target="_top" xlink:title=" ">
<polygon fill="white" stroke="#666666" points="433.5,-134.5 302.5,-134.5 302.5,-115.5 433.5,-115.5 433.5,-134.5"/>
<text text-anchor="middle" x="368" y="-122.5" font-family="Helvetica,sans-Serif" font-size="10.00">../interfaces/log_entry.h</text>
</a>
</g>
</g>
<!-- Node3&#45;&gt;Node13 -->
<g id="edge17_Node000003_Node000013" class="edge">
<title>Node3&#45;&gt;Node13</title>
<g id="a_edge17_Node000003_Node000013"><a xlink:title=" ">
<path fill="none" stroke="#63b8ff" d="M287.87,-175.87C303,-166.45 327.46,-151.23 345.38,-140.08"/>
<polygon fill="#63b8ff" stroke="#63b8ff" points="347.43,-142.92 354.07,-134.67 343.73,-136.98 347.43,-142.92"/>
</a>
</g>
</g>
<!-- Node6&#45;&gt;Node4 -->
<g id="edge8_Node000006_Node000004" class="edge">
<title>Node6&#45;&gt;Node4</title>
<g id="a_edge8_Node000006_Node000004"><a xlink:title=" ">
<path fill="none" stroke="#63b8ff" d="M378.05,-54.98C333.47,-44.71 259.27,-27.61 217.02,-17.88"/>
<polygon fill="#63b8ff" stroke="#63b8ff" points="217.79,-14.46 207.26,-15.63 216.21,-21.28 217.79,-14.46"/>
</a>
</g>
</g>
<!-- Node6&#45;&gt;Node7 -->
<g id="edge6_Node000006_Node000007" class="edge">
<title>Node6&#45;&gt;Node7</title>
<g id="a_edge6_Node000006_Node000007"><a xlink:title=" ">
<path fill="none" stroke="#63b8ff" d="M417.15,-54.75C418.87,-47.72 421.35,-37.62 423.5,-28.84"/>
<polygon fill="#63b8ff" stroke="#63b8ff" points="426.91,-29.63 425.89,-19.09 420.11,-27.97 426.91,-29.63"/>
</a>
</g>
</g>
<!-- Node6&#45;&gt;Node8 -->
<g id="edge7_Node000006_Node000008" class="edge">
<title>Node6&#45;&gt;Node8</title>
<g id="a_edge7_Node000006_Node000008"><a xlink:title=" ">
<path fill="none" stroke="#63b8ff" d="M432.67,-54.98C450.29,-46.5 477.58,-33.35 497.93,-23.54"/>
<polygon fill="#63b8ff" stroke="#63b8ff" points="499.52,-26.66 507.01,-19.17 496.48,-20.36 499.52,-26.66"/>
</a>
</g>
</g>
<!-- Node9&#45;&gt;Node4 -->
<g id="edge10_Node000009_Node000004" class="edge">
<title>Node9&#45;&gt;Node4</title>
<g id="a_edge10_Node000009_Node000004"><a xlink:title=" ">
<path fill="none" stroke="#63b8ff" d="M68.33,-54.98C91.33,-46.21 127.38,-32.47 153.32,-22.58"/>
<polygon fill="#63b8ff" stroke="#63b8ff" points="154.63,-25.83 162.72,-18.99 152.13,-19.29 154.63,-25.83"/>
</a>
</g>
</g>
<!-- Node10 -->
<g id="Node000010" class="node">
<title>Node10</title>
<g id="a_Node000010"><a xlink:title=" ">
<polygon fill="#e0e0e0" stroke="#999999" points="145,-19 89,-19 89,0 145,0 145,-19"/>
<text text-anchor="middle" x="117" y="-7" font-family="Helvetica,sans-Serif" font-size="10.00">optional</text>
</a>
</g>
</g>
<!-- Node9&#45;&gt;Node10 -->
<g id="edge11_Node000009_Node000010" class="edge">
<title>Node9&#45;&gt;Node10</title>
<g id="a_edge11_Node000009_Node000010"><a xlink:title=" ">
<path fill="none" stroke="#63b8ff" d="M57.41,-54.98C68.11,-47 84.34,-34.88 97.16,-25.31"/>
<polygon fill="#63b8ff" stroke="#63b8ff" points="99.47,-27.96 105.39,-19.17 95.28,-22.35 99.47,-27.96"/>
</a>
</g>
</g>
<!-- Node11 -->
<g id="Node000011" class="node">
<title>Node11</title>
<g id="a_Node000011"><a xlink:title=" ">
<polygon fill="#e0e0e0" stroke="#999999" points="70.5,-19 19.5,-19 19.5,0 70.5,0 70.5,-19"/>
<text text-anchor="middle" x="45" y="-7" font-family="Helvetica,sans-Serif" font-size="10.00">variant</text>
</a>
</g>
</g>
<!-- Node9&#45;&gt;Node11 -->
<g id="edge12_Node000009_Node000011" class="edge">
<title>Node9&#45;&gt;Node11</title>
<g id="a_edge12_Node000009_Node000011"><a xlink:title=" ">
<path fill="none" stroke="#63b8ff" d="M45.83,-54.75C45.7,-47.8 45.52,-37.85 45.35,-29.13"/>
<polygon fill="#63b8ff" stroke="#63b8ff" points="48.85,-29.02 45.16,-19.09 41.85,-29.15 48.85,-29.02"/>
</a>
</g>
</g>
<!-- Node12&#45;&gt;Node4 -->
<g id="edge14_Node000012_Node000004" class="edge">
<title>Node12&#45;&gt;Node4</title>
<g id="a_edge14_Node000012_Node000004"><a xlink:title=" ">
<path fill="none" stroke="#63b8ff" d="M183.25,-109.63C183.61,-89.21 184.27,-51.81 184.67,-29.24"/>
<polygon fill="#63b8ff" stroke="#63b8ff" points="188.17,-29.29 184.85,-19.23 181.17,-29.17 188.17,-29.29"/>
</a>
</g>
</g>
<!-- Node12&#45;&gt;Node5 -->
<g id="edge15_Node000012_Node000005" class="edge">
<title>Node12&#45;&gt;Node5</title>
<g id="a_edge15_Node000012_Node000005"><a xlink:title=" ">
<path fill="none" stroke="#63b8ff" d="M196.56,-109.84C204.68,-101.35 215.05,-90.52 223.5,-81.69"/>
<polygon fill="#63b8ff" stroke="#63b8ff" points="226.22,-83.91 230.61,-74.27 221.17,-79.07 226.22,-83.91"/>
</a>
</g>
</g>
<!-- Node12&#45;&gt;Node9 -->
<g id="edge16_Node000012_Node000009" class="edge">
<title>Node12&#45;&gt;Node9</title>
<g id="a_edge16_Node000012_Node000009"><a xlink:title=" ">
<path fill="none" stroke="#63b8ff" d="M150.19,-109.99C127.53,-100.31 97.65,-87.56 75.7,-78.18"/>
<polygon fill="#63b8ff" stroke="#63b8ff" points="76.8,-74.85 66.23,-74.14 74.05,-81.29 76.8,-74.85"/>
</a>
</g>
</g>
<!-- Node13&#45;&gt;Node4 -->
<g id="edge18_Node000013_Node000004" class="edge">
<title>Node13&#45;&gt;Node4</title>
<g id="a_edge18_Node000013_Node000004"><a xlink:title=" ">
<path fill="none" stroke="#63b8ff" d="M362.19,-115.11C352.29,-100.61 330.8,-71.8 306,-55 278.64,-36.46 242.59,-24.5 216.97,-17.7"/>
<polygon fill="#63b8ff" stroke="#63b8ff" points="217.58,-14.25 207.03,-15.18 215.86,-21.03 217.58,-14.25"/>
</a>
</g>
</g>
<!-- Node13&#45;&gt;Node5 -->
<g id="edge19_Node000013_Node000005" class="edge">
<title>Node13&#45;&gt;Node5</title>
<g id="a_edge19_Node000013_Node000005"><a xlink:title=" ">
<path fill="none" stroke="#63b8ff" d="M349.24,-115.49C327.65,-105.7 291.97,-89.52 267.07,-78.23"/>
<polygon fill="#63b8ff" stroke="#63b8ff" points="268.33,-74.96 257.78,-74.02 265.44,-81.33 268.33,-74.96"/>
</a>
</g>
</g>
<!-- Node13&#45;&gt;Node6 -->
<g id="edge21_Node000013_Node000006" class="edge">
<title>Node13&#45;&gt;Node6</title>
<g id="a_edge21_Node000013_Node000006"><a xlink:title=" ">
<path fill="none" stroke="#63b8ff" d="M374.94,-115.37C381.95,-106.64 392.96,-92.93 401.67,-82.09"/>
<polygon fill="#63b8ff" stroke="#63b8ff" points="404.5,-84.16 408.04,-74.17 399.04,-79.77 404.5,-84.16"/>
</a>
</g>
</g>
<!-- Node13&#45;&gt;Node10 -->
<g id="edge20_Node000013_Node000010" class="edge">
<title>Node13&#45;&gt;Node10</title>
<g id="a_edge20_Node000013_Node000010"><a xlink:title=" ">
<path fill="none" stroke="#63b8ff" d="M358.49,-115.3C342.17,-100.81 307.27,-71.68 273,-55 252.21,-44.88 193.91,-29.43 154.77,-19.66"/>
<polygon fill="#63b8ff" stroke="#63b8ff" points="155.57,-16.25 145.02,-17.24 153.88,-23.04 155.57,-16.25"/>
</a>
</g>
</g>
</g>
</svg>
