<?xml version="1.0" encoding="UTF-8" standalone="no"?>
<!DOCTYPE svg PUBLIC "-//W3C//DTD SVG 1.1//EN"
 "http://www.w3.org/Graphics/SVG/1.1/DTD/svg11.dtd">
<!-- Generated by graphviz version 2.43.0 (0)
 -->
<!-- Title: /home/runner/work/logger_system/logger_system/sources/logger/writers/network_writer.h Pages: 1 -->
<svg width="1279pt" height="291pt"
 viewBox="0.00 0.00 1279.00 291.00" xmlns="http://www.w3.org/2000/svg" xmlns:xlink="http://www.w3.org/1999/xlink">
<g id="graph0" class="graph" transform="scale(1 1) rotate(0) translate(4 287)">
<title>/home/runner/work/logger_system/logger_system/sources/logger/writers/network_writer.h</title>
<!-- Node1 -->
<g id="Node000001" class="node">
<title>Node1</title>
<g id="a_Node000001"><a xlink:title=" ">
<polygon fill="#999999" stroke="#666666" points="1053.5,-283 880.5,-283 880.5,-242 1053.5,-242 1053.5,-283"/>
<text text-anchor="start" x="888.5" y="-271" font-family="Helvetica,sans-Serif" font-size="10.00">/home/runner/work/logger</text>
<text text-anchor="start" x="888.5" y="-260" font-family="Helvetica,sans-Serif" font-size="10.00">_system/logger_system/sources</text>
<text text-anchor="middle" x="967" y="-249" font-family="Helvetica,sans-Serif" font-size="10.00">/logger/writers/network_writer.h</text>
</a>
</g>
</g>
<!-- Node2 -->
<g id="Node000002" class="node">
<title>Node2</title>
<g id="a_Node000002"><a xlink:href="base__writer_8h.html" target="_top" xlink:title="Abstract base class for all log output writers.">
<polygon fill="white" stroke="#666666" points="456,-206 374,-206 374,-187 456,-187 456,-206"/>
<text text-anchor="middle" x="415" y="-194" font-family="Helvetica,sans-Serif" font-size="10.00">base_writer.h</text>
</a>
</g>
</g>
<!-- Node1&#45;&gt;Node2 -->
<g id="edge1_Node000001_Node000002" class="edge">
<title>Node1&#45;&gt;Node2</title>
<g id="a_edge1_Node000001_Node000002"><a xlink:title=" ">
<path fill="none" stroke="#63b8ff" d="M880.45,-251.46C764.2,-237.99 561.29,-214.46 466.52,-203.47"/>
<polygon fill="#63b8ff" stroke="#63b8ff" points="466.66,-199.97 456.33,-202.29 465.86,-206.92 466.66,-199.97"/>
</a>
</g>
</g>
<!-- Node17 -->
<g id="Node000017" class="node">
<title>Node17</title>
<g id="a_Node000017"><a xlink:title=" ">
<polygon fill="#e0e0e0" stroke="#999999" points="781,-24.5 723,-24.5 723,-5.5 781,-5.5 781,-24.5"/>
<text text-anchor="middle" x="752" y="-12.5" font-family="Helvetica,sans-Serif" font-size="10.00">memory</text>
</a>
</g>
</g>
<!-- Node1&#45;&gt;Node17 -->
<g id="edge30_Node000001_Node000017" class="edge">
<title>Node1&#45;&gt;Node17</title>
<g id="a_edge30_Node000001_Node000017"><a xlink:title=" ">
<path fill="none" stroke="#63b8ff" d="M880.46,-243.59C858.53,-235.35 836.75,-223.38 821,-206 777.7,-158.23 808.7,-125.13 783,-66 777.99,-54.48 770.64,-42.49 764.35,-33.13"/>
<polygon fill="#63b8ff" stroke="#63b8ff" points="767.13,-30.99 758.55,-24.78 761.38,-34.99 767.13,-30.99"/>
</a>
</g>
</g>
<!-- Node18 -->
<g id="Node000018" class="node">
<title>Node18</title>
<g id="a_Node000018"><a xlink:title=" ">
<polygon fill="#e0e0e0" stroke="#999999" points="878,-206 830,-206 830,-187 878,-187 878,-206"/>
<text text-anchor="middle" x="854" y="-194" font-family="Helvetica,sans-Serif" font-size="10.00">thread</text>
</a>
</g>
</g>
<!-- Node1&#45;&gt;Node18 -->
<g id="edge26_Node000001_Node000018" class="edge">
<title>Node1&#45;&gt;Node18</title>
<g id="a_edge26_Node000001_Node000018"><a xlink:title=" ">
<path fill="none" stroke="#63b8ff" d="M932.48,-241.95C914.96,-232.03 894.1,-220.21 878.29,-211.25"/>
<polygon fill="#63b8ff" stroke="#63b8ff" points="879.6,-207.97 869.17,-206.09 876.15,-214.07 879.6,-207.97"/>
</a>
</g>
</g>
<!-- Node19 -->
<g id="Node000019" class="node">
<title>Node19</title>
<g id="a_Node000019"><a xlink:title=" ">
<polygon fill="#e0e0e0" stroke="#999999" points="943.5,-206 896.5,-206 896.5,-187 943.5,-187 943.5,-206"/>
<text text-anchor="middle" x="920" y="-194" font-family="Helvetica,sans-Serif" font-size="10.00">queue</text>
</a>
</g>
</g>
<!-- Node1&#45;&gt;Node19 -->
<g id="edge27_Node000001_Node000019" class="edge">
<title>Node1&#45;&gt;Node19</title>
<g id="a_edge27_Node000001_Node000019"><a xlink:title=" ">
<path fill="none" stroke="#63b8ff" d="M952.64,-241.95C946.22,-233.2 938.72,-222.99 932.52,-214.56"/>
<polygon fill="#63b8ff" stroke="#63b8ff" points="935.17,-212.25 926.43,-206.26 929.53,-216.39 935.17,-212.25"/>
</a>
</g>
</g>
<!-- Node20 -->
<g id="Node000020" class="node">
<title>Node20</title>
<g id="a_Node000020"><a xlink:title=" ">
<polygon fill="#e0e0e0" stroke="#999999" points="1068.5,-206 961.5,-206 961.5,-187 1068.5,-187 1068.5,-206"/>
<text text-anchor="middle" x="1015" y="-194" font-family="Helvetica,sans-Serif" font-size="10.00">condition_variable</text>
</a>
</g>
</g>
<!-- Node1&#45;&gt;Node20 -->
<g id="edge28_Node000001_Node000020" class="edge">
<title>Node1&#45;&gt;Node20</title>
<g id="a_edge28_Node000001_Node000020"><a xlink:title=" ">
<path fill="none" stroke="#63b8ff" d="M981.66,-241.95C988.29,-233.11 996.05,-222.77 1002.41,-214.29"/>
<polygon fill="#63b8ff" stroke="#63b8ff" points="1005.23,-216.36 1008.43,-206.26 999.63,-212.16 1005.23,-216.36"/>
</a>
</g>
</g>
<!-- Node21 -->
<g id="Node000021" class="node">
<title>Node21</title>
<g id="a_Node000021"><a xlink:title=" ">
<polygon fill="#e0e0e0" stroke="#999999" points="1137,-206 1087,-206 1087,-187 1137,-187 1137,-206"/>
<text text-anchor="middle" x="1112" y="-194" font-family="Helvetica,sans-Serif" font-size="10.00">atomic</text>
</a>
</g>
</g>
<!-- Node1&#45;&gt;Node21 -->
<g id="edge29_Node000001_Node000021" class="edge">
<title>Node1&#45;&gt;Node21</title>
<g id="a_edge29_Node000001_Node000021"><a xlink:title=" ">
<path fill="none" stroke="#63b8ff" d="M1011.29,-241.95C1034.73,-231.6 1062.83,-219.2 1083.38,-210.13"/>
<polygon fill="#63b8ff" stroke="#63b8ff" points="1084.8,-213.33 1092.53,-206.09 1081.97,-206.93 1084.8,-213.33"/>
</a>
</g>
</g>
<!-- Node22 -->
<g id="Node000022" class="node">
<title>Node22</title>
<g id="a_Node000022"><a xlink:title=" ">
<polygon fill="#e0e0e0" stroke="#999999" points="1203,-206 1155,-206 1155,-187 1203,-187 1203,-206"/>
<text text-anchor="middle" x="1179" y="-194" font-family="Helvetica,sans-Serif" font-size="10.00">mutex</text>
</a>
</g>
</g>
<!-- Node1&#45;&gt;Node22 -->
<g id="edge31_Node000001_Node000022" class="edge">
<title>Node1&#45;&gt;Node22</title>
<g id="a_edge31_Node000001_Node000022"><a xlink:title=" ">
<path fill="none" stroke="#63b8ff" d="M1031.76,-241.95C1069.17,-230.65 1114.71,-216.91 1145.15,-207.72"/>
<polygon fill="#63b8ff" stroke="#63b8ff" points="1146.29,-211.03 1154.86,-204.79 1144.27,-204.33 1146.29,-211.03"/>
</a>
</g>
</g>
<!-- Node23 -->
<g id="Node000023" class="node">
<title>Node23</title>
<g id="a_Node000023"><a xlink:title=" ">
<polygon fill="#e0e0e0" stroke="#999999" points="1271,-206 1221,-206 1221,-187 1271,-187 1271,-206"/>
<text text-anchor="middle" x="1246" y="-194" font-family="Helvetica,sans-Serif" font-size="10.00">cstdint</text>
</a>
</g>
</g>
<!-- Node1&#45;&gt;Node23 -->
<g id="edge32_Node000001_Node000023" class="edge">
<title>Node1&#45;&gt;Node23</title>
<g id="a_edge32_Node000001_Node000023"><a xlink:title=" ">
<path fill="none" stroke="#63b8ff" d="M1053.56,-242.38C1097.94,-232.47 1153.08,-219.96 1210.73,-206.26"/>
<polygon fill="#63b8ff" stroke="#63b8ff" points="1211.85,-209.6 1220.76,-203.88 1210.23,-202.79 1211.85,-209.6"/>
</a>
</g>
</g>
<!-- Node3 -->
<g id="Node000003" class="node">
<title>Node3</title>
<g id="a_Node000003"><a xlink:title=" ">
<polygon fill="#e0e0e0" stroke="#999999" points="293,-24.5 249,-24.5 249,-5.5 293,-5.5 293,-24.5"/>
<text text-anchor="middle" x="271" y="-12.5" font-family="Helvetica,sans-Serif" font-size="10.00">string</text>
</a>
</g>
</g>
<!-- Node2&#45;&gt;Node3 -->
<g id="edge2_Node000002_Node000003" class="edge">
<title>Node2&#45;&gt;Node3</title>
<g id="a_edge2_Node000002_Node000003"><a xlink:title=" ">
<path fill="none" stroke="#63b8ff" d="M373.81,-189.98C330.54,-183.24 266.73,-170.29 252,-151 225.52,-116.32 247.03,-61.58 261.15,-33.65"/>
<polygon fill="#63b8ff" stroke="#63b8ff" points="264.32,-35.14 265.91,-24.66 258.13,-31.86 264.32,-35.14"/>
</a>
</g>
</g>
<!-- Node4 -->
<g id="Node000004" class="node">
<title>Node4</title>
<g id="a_Node000004"><a xlink:title=" ">
<polygon fill="#e0e0e0" stroke="#999999" points="349,-85 299,-85 299,-66 349,-66 349,-85"/>
<text text-anchor="middle" x="324" y="-73" font-family="Helvetica,sans-Serif" font-size="10.00">chrono</text>
</a>
</g>
</g>
<!-- Node2&#45;&gt;Node4 -->
<g id="edge3_Node000002_Node000004" class="edge">
<title>Node2&#45;&gt;Node4</title>
<g id="a_edge3_Node000002_Node000004"><a xlink:title=" ">
<path fill="none" stroke="#63b8ff" d="M414.83,-186.8C414.14,-171.92 410.85,-141.23 396,-121 385.87,-107.2 370.05,-96.75 355.82,-89.45"/>
<polygon fill="#63b8ff" stroke="#63b8ff" points="357.3,-86.28 346.77,-85.11 354.27,-92.59 357.3,-86.28"/>
</a>
</g>
</g>
<!-- Node5 -->
<g id="Node000005" class="node">
<title>Node5</title>
<g id="a_Node000005"><a xlink:title=" ">
<polygon fill="#e0e0e0" stroke="#999999" points="773.5,-85 616.5,-85 616.5,-66 773.5,-66 773.5,-85"/>
<text text-anchor="middle" x="695" y="-73" font-family="Helvetica,sans-Serif" font-size="10.00">interfaces/logger_interface.h</text>
</a>
</g>
</g>
<!-- Node2&#45;&gt;Node5 -->
<g id="edge4_Node000002_Node000005" class="edge">
<title>Node2&#45;&gt;Node5</title>
<g id="a_edge4_Node000002_Node000005"><a xlink:title=" ">
<path fill="none" stroke="#63b8ff" d="M456.25,-188.63C491.29,-181.87 542.39,-169.8 584,-151 619.32,-135.04 655.79,-108.2 676.88,-91.47"/>
<polygon fill="#63b8ff" stroke="#63b8ff" points="679.1,-94.18 684.68,-85.18 674.7,-88.73 679.1,-94.18"/>
</a>
</g>
</g>
<!-- Node6 -->
<g id="Node000006" class="node">
<title>Node6</title>
<g id="a_Node000006"><a xlink:href="error__codes_8h.html" target="_top" xlink:title=" ">
<polygon fill="white" stroke="#666666" points="205,-85 113,-85 113,-66 205,-66 205,-85"/>
<text text-anchor="middle" x="159" y="-73" font-family="Helvetica,sans-Serif" font-size="10.00">../error_codes.h</text>
</a>
</g>
</g>
<!-- Node2&#45;&gt;Node6 -->
<g id="edge5_Node000002_Node000006" class="edge">
<title>Node2&#45;&gt;Node6</title>
<g id="a_edge5_Node000002_Node000006"><a xlink:title=" ">
<path fill="none" stroke="#63b8ff" d="M373.75,-193.95C331.89,-190.68 266.66,-180.75 219,-151 196.51,-136.96 178.73,-111.45 168.54,-94.25"/>
<polygon fill="#63b8ff" stroke="#63b8ff" points="171.41,-92.2 163.44,-85.22 165.31,-95.65 171.41,-92.2"/>
</a>
</g>
</g>
<!-- Node10 -->
<g id="Node000010" class="node">
<title>Node10</title>
<g id="a_Node000010"><a xlink:href="log__writer__interface_8h.html" target="_top" xlink:title=" ">
<polygon fill="white" stroke="#666666" points="387,-151 261,-151 261,-121 387,-121 387,-151"/>
<text text-anchor="start" x="269" y="-139" font-family="Helvetica,sans-Serif" font-size="10.00">../interfaces/log_writer</text>
<text text-anchor="middle" x="324" y="-128" font-family="Helvetica,sans-Serif" font-size="10.00">_interface.h</text>
</a>
</g>
</g>
<!-- Node2&#45;&gt;Node10 -->
<g id="edge10_Node000002_Node000010" class="edge">
<title>Node2&#45;&gt;Node10</title>
<g id="a_edge10_Node000002_Node000010"><a xlink:title=" ">
<path fill="none" stroke="#63b8ff" d="M401.57,-186.87C389.23,-178.93 370.47,-166.87 354.49,-156.6"/>
<polygon fill="#63b8ff" stroke="#63b8ff" points="356.26,-153.58 345.96,-151.11 352.48,-159.47 356.26,-153.58"/>
</a>
</g>
</g>
<!-- Node11 -->
<g id="Node000011" class="node">
<title>Node11</title>
<g id="a_Node000011"><a xlink:href="log__entry_8h.html" target="_top" xlink:title="Data structures for representing log entries and source locations.">
<polygon fill="white" stroke="#666666" points="574.5,-145.5 443.5,-145.5 443.5,-126.5 574.5,-126.5 574.5,-145.5"/>
<text text-anchor="middle" x="509" y="-133.5" font-family="Helvetica,sans-Serif" font-size="10.00">../interfaces/log_entry.h</text>
</a>
</g>
</g>
<!-- Node2&#45;&gt;Node11 -->
<g id="edge14_Node000002_Node000011" class="edge">
<title>Node2&#45;&gt;Node11</title>
<g id="a_edge14_Node000002_Node000011"><a xlink:title=" ">
<path fill="none" stroke="#63b8ff" d="M428.87,-186.87C444,-177.45 468.46,-162.23 486.38,-151.08"/>
<polygon fill="#63b8ff" stroke="#63b8ff" points="488.43,-153.92 495.07,-145.67 484.73,-147.98 488.43,-153.92"/>
</a>
</g>
</g>
<!-- Node6&#45;&gt;Node3 -->
<g id="edge6_Node000006_Node000003" class="edge">
<title>Node6&#45;&gt;Node3</title>
<g id="a_edge6_Node000006_Node000003"><a xlink:title=" ">
<path fill="none" stroke="#63b8ff" d="M175.53,-65.87C193.97,-56.23 224.04,-40.53 245.51,-29.31"/>
<polygon fill="#63b8ff" stroke="#63b8ff" points="247.16,-32.4 254.41,-24.67 243.92,-26.19 247.16,-32.4"/>
</a>
</g>
</g>
<!-- Node7 -->
<g id="Node000007" class="node">
<title>Node7</title>
<g id="a_Node000007"><a xlink:title=" ">
<polygon fill="#e0e0e0" stroke="#999999" points="211.5,-24.5 146.5,-24.5 146.5,-5.5 211.5,-5.5 211.5,-24.5"/>
<text text-anchor="middle" x="179" y="-12.5" font-family="Helvetica,sans-Serif" font-size="10.00">stdexcept</text>
</a>
</g>
</g>
<!-- Node6&#45;&gt;Node7 -->
<g id="edge7_Node000006_Node000007" class="edge">
<title>Node6&#45;&gt;Node7</title>
<g id="a_edge7_Node000006_Node000007"><a xlink:title=" ">
<path fill="none" stroke="#63b8ff" d="M161.95,-65.87C164.79,-57.57 169.16,-44.78 172.77,-34.22"/>
<polygon fill="#63b8ff" stroke="#63b8ff" points="176.11,-35.26 176.04,-24.67 169.49,-33 176.11,-35.26"/>
</a>
</g>
</g>
<!-- Node8 -->
<g id="Node000008" class="node">
<title>Node8</title>
<g id="a_Node000008"><a xlink:title=" ">
<polygon fill="#e0e0e0" stroke="#999999" points="385.5,-24.5 340.5,-24.5 340.5,-5.5 385.5,-5.5 385.5,-24.5"/>
<text text-anchor="middle" x="363" y="-12.5" font-family="Helvetica,sans-Serif" font-size="10.00">utility</text>
</a>
</g>
</g>
<!-- Node6&#45;&gt;Node8 -->
<g id="edge8_Node000006_Node000008" class="edge">
<title>Node6&#45;&gt;Node8</title>
<g id="a_edge8_Node000006_Node000008"><a xlink:title=" ">
<path fill="none" stroke="#63b8ff" d="M188.66,-65.99C226.4,-55.17 291.35,-36.55 330.43,-25.34"/>
<polygon fill="#63b8ff" stroke="#63b8ff" points="331.6,-28.65 340.24,-22.53 329.67,-21.92 331.6,-28.65"/>
</a>
</g>
</g>
<!-- Node9 -->
<g id="Node000009" class="node">
<title>Node9</title>
<g id="a_Node000009"><a xlink:title=" ">
<polygon fill="#e0e0e0" stroke="#999999" points="128,-30 0,-30 0,0 128,0 128,-30"/>
<text text-anchor="start" x="8" y="-18" font-family="Helvetica,sans-Serif" font-size="10.00">thread_base/sync/error</text>
<text text-anchor="middle" x="64" y="-7" font-family="Helvetica,sans-Serif" font-size="10.00">_handling.h</text>
</a>
</g>
</g>
<!-- Node6&#45;&gt;Node9 -->
<g id="edge9_Node000006_Node000009" class="edge">
<title>Node6&#45;&gt;Node9</title>
<g id="a_edge9_Node000006_Node000009"><a xlink:title=" ">
<path fill="none" stroke="#63b8ff" d="M144.98,-65.87C132.09,-57.93 112.51,-45.87 95.83,-35.6"/>
<polygon fill="#63b8ff" stroke="#63b8ff" points="97.27,-32.38 86.92,-30.11 93.6,-38.34 97.27,-32.38"/>
</a>
</g>
</g>
<!-- Node10&#45;&gt;Node3 -->
<g id="edge11_Node000010_Node000003" class="edge">
<title>Node10&#45;&gt;Node3</title>
<g id="a_edge11_Node000010_Node000003"><a xlink:title=" ">
<path fill="none" stroke="#63b8ff" d="M312.54,-120.88C305.21,-111.26 295.99,-97.96 290,-85 282.51,-68.8 277.45,-49.06 274.44,-34.85"/>
<polygon fill="#63b8ff" stroke="#63b8ff" points="277.83,-33.95 272.47,-24.82 270.96,-35.31 277.83,-33.95"/>
</a>
</g>
</g>
<!-- Node10&#45;&gt;Node4 -->
<g id="edge12_Node000010_Node000004" class="edge">
<title>Node10&#45;&gt;Node4</title>
<g id="a_edge12_Node000010_Node000004"><a xlink:title=" ">
<path fill="none" stroke="#63b8ff" d="M324,-120.84C324,-113.21 324,-103.7 324,-95.45"/>
<polygon fill="#63b8ff" stroke="#63b8ff" points="327.5,-95.27 324,-85.27 320.5,-95.27 327.5,-95.27"/>
</a>
</g>
</g>
<!-- Node10&#45;&gt;Node6 -->
<g id="edge13_Node000010_Node000006" class="edge">
<title>Node10&#45;&gt;Node6</title>
<g id="a_edge13_Node000010_Node000006"><a xlink:title=" ">
<path fill="none" stroke="#63b8ff" d="M284.48,-120.99C256.58,-111.1 219.59,-97.98 193,-88.56"/>
<polygon fill="#63b8ff" stroke="#63b8ff" points="193.96,-85.18 183.37,-85.14 191.62,-91.78 193.96,-85.18"/>
</a>
</g>
</g>
<!-- Node11&#45;&gt;Node3 -->
<g id="edge15_Node000011_Node000003" class="edge">
<title>Node11&#45;&gt;Node3</title>
<g id="a_edge15_Node000011_Node000003"><a xlink:title=" ">
<path fill="none" stroke="#63b8ff" d="M487.92,-126.33C465.03,-116.76 427.52,-100.63 396,-85 359.97,-67.13 319.39,-44.19 294.51,-29.79"/>
<polygon fill="#63b8ff" stroke="#63b8ff" points="296.19,-26.71 285.78,-24.71 292.67,-32.77 296.19,-26.71"/>
</a>
</g>
</g>
<!-- Node11&#45;&gt;Node4 -->
<g id="edge16_Node000011_Node000004" class="edge">
<title>Node11&#45;&gt;Node4</title>
<g id="a_edge16_Node000011_Node000004"><a xlink:title=" ">
<path fill="none" stroke="#63b8ff" d="M482.1,-126.49C449.49,-116.18 394.47,-98.78 358.7,-87.47"/>
<polygon fill="#63b8ff" stroke="#63b8ff" points="359.74,-84.13 349.15,-84.45 357.63,-90.81 359.74,-84.13"/>
</a>
</g>
</g>
<!-- Node11&#45;&gt;Node5 -->
<g id="edge25_Node000011_Node000005" class="edge">
<title>Node11&#45;&gt;Node5</title>
<g id="a_edge25_Node000011_Node000005"><a xlink:title=" ">
<path fill="none" stroke="#63b8ff" d="M536.05,-126.49C568.28,-116.36 622.29,-99.37 658.28,-88.05"/>
<polygon fill="#63b8ff" stroke="#63b8ff" points="659.43,-91.36 667.92,-85.02 657.33,-84.68 659.43,-91.36"/>
</a>
</g>
</g>
<!-- Node12 -->
<g id="Node000012" class="node">
<title>Node12</title>
<g id="a_Node000012"><a xlink:title=" ">
<polygon fill="#e0e0e0" stroke="#999999" points="461,-85 405,-85 405,-66 461,-66 461,-85"/>
<text text-anchor="middle" x="433" y="-73" font-family="Helvetica,sans-Serif" font-size="10.00">optional</text>
</a>
</g>
</g>
<!-- Node11&#45;&gt;Node12 -->
<g id="edge17_Node000011_Node000012" class="edge">
<title>Node11&#45;&gt;Node12</title>
<g id="a_edge17_Node000011_Node000012"><a xlink:title=" ">
<path fill="none" stroke="#63b8ff" d="M497.79,-126.37C485.89,-117.21 466.86,-102.56 452.49,-91.51"/>
<polygon fill="#63b8ff" stroke="#63b8ff" points="454.32,-88.49 444.26,-85.17 450.05,-94.04 454.32,-88.49"/>
</a>
</g>
</g>
<!-- Node13 -->
<g id="Node000013" class="node">
<title>Node13</title>
<g id="a_Node000013"><a xlink:href="small__string_8h.html" target="_top" xlink:title=" ">
<polygon fill="white" stroke="#666666" points="598.5,-85 479.5,-85 479.5,-66 598.5,-66 598.5,-85"/>
<text text-anchor="middle" x="539" y="-73" font-family="Helvetica,sans-Serif" font-size="10.00">../core/small_string.h</text>
</a>
</g>
</g>
<!-- Node11&#45;&gt;Node13 -->
<g id="edge18_Node000011_Node000013" class="edge">
<title>Node11&#45;&gt;Node13</title>
<g id="a_edge18_Node000011_Node000013"><a xlink:title=" ">
<path fill="none" stroke="#63b8ff" d="M513.43,-126.37C517.77,-117.9 524.52,-104.74 529.99,-94.07"/>
<polygon fill="#63b8ff" stroke="#63b8ff" points="533.11,-95.66 534.56,-85.17 526.88,-92.47 533.11,-95.66"/>
</a>
</g>
</g>
<!-- Node13&#45;&gt;Node3 -->
<g id="edge20_Node000013_Node000003" class="edge">
<title>Node13&#45;&gt;Node3</title>
<g id="a_edge20_Node000013_Node000003"><a xlink:title=" ">
<path fill="none" stroke="#63b8ff" d="M497.91,-65.94C455.91,-57.14 388.84,-42.93 331,-30 321.9,-27.96 312.04,-25.69 302.99,-23.58"/>
<polygon fill="#63b8ff" stroke="#63b8ff" points="303.74,-20.16 293.2,-21.28 302.14,-26.98 303.74,-20.16"/>
</a>
</g>
</g>
<!-- Node13&#45;&gt;Node8 -->
<g id="edge24_Node000013_Node000008" class="edge">
<title>Node13&#45;&gt;Node8</title>
<g id="a_edge24_Node000013_Node000008"><a xlink:title=" ">
<path fill="none" stroke="#63b8ff" d="M513.41,-65.99C482.22,-55.63 429.48,-38.1 395.46,-26.79"/>
<polygon fill="#63b8ff" stroke="#63b8ff" points="396.14,-23.33 385.55,-23.5 393.94,-29.97 396.14,-23.33"/>
</a>
</g>
</g>
<!-- Node14 -->
<g id="Node000014" class="node">
<title>Node14</title>
<g id="a_Node000014"><a xlink:title=" ">
<polygon fill="#e0e0e0" stroke="#999999" points="564,-24.5 514,-24.5 514,-5.5 564,-5.5 564,-24.5"/>
<text text-anchor="middle" x="539" y="-12.5" font-family="Helvetica,sans-Serif" font-size="10.00">cstring</text>
</a>
</g>
</g>
<!-- Node13&#45;&gt;Node14 -->
<g id="edge19_Node000013_Node000014" class="edge">
<title>Node13&#45;&gt;Node14</title>
<g id="a_edge19_Node000013_Node000014"><a xlink:title=" ">
<path fill="none" stroke="#63b8ff" d="M539,-65.87C539,-57.75 539,-45.31 539,-34.89"/>
<polygon fill="#63b8ff" stroke="#63b8ff" points="542.5,-34.67 539,-24.67 535.5,-34.67 542.5,-34.67"/>
</a>
</g>
</g>
<!-- Node15 -->
<g id="Node000015" class="node">
<title>Node15</title>
<g id="a_Node000015"><a xlink:title=" ">
<polygon fill="#e0e0e0" stroke="#999999" points="655.5,-24.5 582.5,-24.5 582.5,-5.5 655.5,-5.5 655.5,-24.5"/>
<text text-anchor="middle" x="619" y="-12.5" font-family="Helvetica,sans-Serif" font-size="10.00">string_view</text>
</a>
</g>
</g>
<!-- Node13&#45;&gt;Node15 -->
<g id="edge21_Node000013_Node000015" class="edge">
<title>Node13&#45;&gt;Node15</title>
<g id="a_edge21_Node000013_Node000015"><a xlink:title=" ">
<path fill="none" stroke="#63b8ff" d="M550.8,-65.87C563.45,-56.62 583.74,-41.78 598.91,-30.69"/>
<polygon fill="#63b8ff" stroke="#63b8ff" points="601.14,-33.4 607.15,-24.67 597.01,-27.74 601.14,-33.4"/>
</a>
</g>
</g>
<!-- Node16 -->
<g id="Node000016" class="node">
<title>Node16</title>
<g id="a_Node000016"><a xlink:title=" ">
<polygon fill="#e0e0e0" stroke="#999999" points="496,-24.5 432,-24.5 432,-5.5 496,-5.5 496,-24.5"/>
<text text-anchor="middle" x="464" y="-12.5" font-family="Helvetica,sans-Serif" font-size="10.00">algorithm</text>
</a>
</g>
</g>
<!-- Node13&#45;&gt;Node16 -->
<g id="edge22_Node000013_Node000016" class="edge">
<title>Node13&#45;&gt;Node16</title>
<g id="a_edge22_Node000013_Node000016"><a xlink:title=" ">
<path fill="none" stroke="#63b8ff" d="M527.93,-65.87C516.19,-56.71 497.41,-42.06 483.24,-31.01"/>
<polygon fill="#63b8ff" stroke="#63b8ff" points="485.15,-28.06 475.11,-24.67 480.84,-33.58 485.15,-28.06"/>
</a>
</g>
</g>
<!-- Node13&#45;&gt;Node17 -->
<g id="edge23_Node000013_Node000017" class="edge">
<title>Node13&#45;&gt;Node17</title>
<g id="a_edge23_Node000013_Node000017"><a xlink:title=" ">
<path fill="none" stroke="#63b8ff" d="M569.97,-65.99C607.81,-55.6 671.86,-38.01 713.02,-26.71"/>
<polygon fill="#63b8ff" stroke="#63b8ff" points="713.99,-30.07 722.7,-24.05 712.13,-23.32 713.99,-30.07"/>
</a>
</g>
</g>
</g>
</svg>
