<?xml version="1.0" encoding="UTF-8" standalone="no"?>
<!DOCTYPE svg PUBLIC "-//W3C//DTD SVG 1.1//EN"
 "http://www.w3.org/Graphics/SVG/1.1/DTD/svg11.dtd">
<!-- Generated by graphviz version 2.43.0 (0)
 -->
<!-- Title: network_writer.cpp Pages: 1 -->
<svg width="1078pt" height="247pt"
 viewBox="0.00 0.00 1077.69 247.00" xmlns="http://www.w3.org/2000/svg" xmlns:xlink="http://www.w3.org/1999/xlink">
<g id="graph0" class="graph" transform="scale(1 1) rotate(0) translate(4 243)">
<title>network_writer.cpp</title>
<!-- Node1 -->
<g id="Node000001" class="node">
<title>Node1</title>
<g id="a_Node000001"><a xlink:title=" ">
<polygon fill="#999999" stroke="#666666" points="765.69,-239 655.69,-239 655.69,-220 765.69,-220 765.69,-239"/>
<text text-anchor="middle" x="710.69" y="-227" font-family="Helvetica,sans-Serif" font-size="10.00">network_writer.cpp</text>
</a>
</g>
</g>
<!-- Node2 -->
<g id="Node000002" class="node">
<title>Node2</title>
<g id="a_Node000002"><a xlink:href="network__writer_8h.html" target="_top" xlink:title=" ">
<polygon fill="white" stroke="#666666" points="356.69,-184 258.69,-184 258.69,-165 356.69,-165 356.69,-184"/>
<text text-anchor="middle" x="307.69" y="-172" font-family="Helvetica,sans-Serif" font-size="10.00">network_writer.h</text>
</a>
</g>
</g>
<!-- Node1&#45;&gt;Node2 -->
<g id="edge1_Node000001_Node000002" class="edge">
<title>Node1&#45;&gt;Node2</title>
<g id="a_edge1_Node000001_Node000002"><a xlink:title=" ">
<path fill="none" stroke="#63b8ff" d="M655.55,-221.62C589.64,-213.33 475.73,-198.84 367.1,-184.04"/>
<polygon fill="#63b8ff" stroke="#63b8ff" points="367.32,-180.53 356.94,-182.65 366.38,-187.47 367.32,-180.53"/>
</a>
</g>
</g>
<!-- Node13 -->
<g id="Node000013" class="node">
<title>Node13</title>
<g id="a_Node000013"><a xlink:title=" ">
<polygon fill="#e0e0e0" stroke="#999999" points="452.19,-184 375.19,-184 375.19,-165 452.19,-165 452.19,-184"/>
<text text-anchor="middle" x="413.69" y="-172" font-family="Helvetica,sans-Serif" font-size="10.00">sys/socket.h</text>
</a>
</g>
</g>
<!-- Node1&#45;&gt;Node13 -->
<g id="edge14_Node000001_Node000013" class="edge">
<title>Node1&#45;&gt;Node13</title>
<g id="a_edge14_Node000001_Node000013"><a xlink:title=" ">
<path fill="none" stroke="#63b8ff" d="M662.97,-219.98C607.87,-210.15 517.7,-194.06 462.24,-184.16"/>
<polygon fill="#63b8ff" stroke="#63b8ff" points="462.76,-180.7 452.3,-182.39 461.53,-187.59 462.76,-180.7"/>
</a>
</g>
</g>
<!-- Node14 -->
<g id="Node000014" class="node">
<title>Node14</title>
<g id="a_Node000014"><a xlink:title=" ">
<polygon fill="#e0e0e0" stroke="#999999" points="542.69,-184 470.69,-184 470.69,-165 542.69,-165 542.69,-184"/>
<text text-anchor="middle" x="506.69" y="-172" font-family="Helvetica,sans-Serif" font-size="10.00">netinet/in.h</text>
</a>
</g>
</g>
<!-- Node1&#45;&gt;Node14 -->
<g id="edge15_Node000001_Node000014" class="edge">
<title>Node1&#45;&gt;Node14</title>
<g id="a_edge15_Node000001_Node000014"><a xlink:title=" ">
<path fill="none" stroke="#63b8ff" d="M677.92,-219.98C643.07,-210.93 587.83,-196.58 549.55,-186.64"/>
<polygon fill="#63b8ff" stroke="#63b8ff" points="550.28,-183.21 539.73,-184.08 548.52,-189.98 550.28,-183.21"/>
</a>
</g>
</g>
<!-- Node15 -->
<g id="Node000015" class="node">
<title>Node15</title>
<g id="a_Node000015"><a xlink:title=" ">
<polygon fill="#e0e0e0" stroke="#999999" points="630.19,-184 561.19,-184 561.19,-165 630.19,-165 630.19,-184"/>
<text text-anchor="middle" x="595.69" y="-172" font-family="Helvetica,sans-Serif" font-size="10.00">arpa/inet.h</text>
</a>
</g>
</g>
<!-- Node1&#45;&gt;Node15 -->
<g id="edge16_Node000001_Node000015" class="edge">
<title>Node1&#45;&gt;Node15</title>
<g id="a_edge16_Node000001_Node000015"><a xlink:title=" ">
<path fill="none" stroke="#63b8ff" d="M692.22,-219.98C673.72,-211.46 645.01,-198.23 623.71,-188.41"/>
<polygon fill="#63b8ff" stroke="#63b8ff" points="625.05,-185.18 614.51,-184.17 622.12,-191.53 625.05,-185.18"/>
</a>
</g>
</g>
<!-- Node16 -->
<g id="Node000016" class="node">
<title>Node16</title>
<g id="a_Node000016"><a xlink:title=" ">
<polygon fill="#e0e0e0" stroke="#999999" points="701.19,-184 648.19,-184 648.19,-165 701.19,-165 701.19,-184"/>
<text text-anchor="middle" x="674.69" y="-172" font-family="Helvetica,sans-Serif" font-size="10.00">netdb.h</text>
</a>
</g>
</g>
<!-- Node1&#45;&gt;Node16 -->
<g id="edge17_Node000001_Node000016" class="edge">
<title>Node1&#45;&gt;Node16</title>
<g id="a_edge17_Node000001_Node000016"><a xlink:title=" ">
<path fill="none" stroke="#63b8ff" d="M704.75,-219.75C699.72,-212.34 692.36,-201.5 686.18,-192.41"/>
<polygon fill="#63b8ff" stroke="#63b8ff" points="689.04,-190.39 680.53,-184.09 683.25,-194.33 689.04,-190.39"/>
</a>
</g>
</g>
<!-- Node17 -->
<g id="Node000017" class="node">
<title>Node17</title>
<g id="a_Node000017"><a xlink:title=" ">
<polygon fill="#e0e0e0" stroke="#999999" points="775.69,-184 719.69,-184 719.69,-165 775.69,-165 775.69,-184"/>
<text text-anchor="middle" x="747.69" y="-172" font-family="Helvetica,sans-Serif" font-size="10.00">unistd.h</text>
</a>
</g>
</g>
<!-- Node1&#45;&gt;Node17 -->
<g id="edge18_Node000001_Node000017" class="edge">
<title>Node1&#45;&gt;Node17</title>
<g id="a_edge18_Node000001_Node000017"><a xlink:title=" ">
<path fill="none" stroke="#63b8ff" d="M716.8,-219.75C721.97,-212.34 729.54,-201.5 735.89,-192.41"/>
<polygon fill="#63b8ff" stroke="#63b8ff" points="738.84,-194.29 741.7,-184.09 733.1,-190.29 738.84,-194.29"/>
</a>
</g>
</g>
<!-- Node18 -->
<g id="Node000018" class="node">
<title>Node18</title>
<g id="a_Node000018"><a xlink:title=" ">
<polygon fill="#e0e0e0" stroke="#999999" points="843.69,-184 793.69,-184 793.69,-165 843.69,-165 843.69,-184"/>
<text text-anchor="middle" x="818.69" y="-172" font-family="Helvetica,sans-Serif" font-size="10.00">cstring</text>
</a>
</g>
</g>
<!-- Node1&#45;&gt;Node18 -->
<g id="edge19_Node000001_Node000018" class="edge">
<title>Node1&#45;&gt;Node18</title>
<g id="a_edge19_Node000001_Node000018"><a xlink:title=" ">
<path fill="none" stroke="#63b8ff" d="M728.04,-219.98C745.26,-211.54 771.89,-198.47 791.84,-188.68"/>
<polygon fill="#63b8ff" stroke="#63b8ff" points="793.59,-191.72 801.02,-184.17 790.51,-185.43 793.59,-191.72"/>
</a>
</g>
</g>
<!-- Node19 -->
<g id="Node000019" class="node">
<title>Node19</title>
<g id="a_Node000019"><a xlink:title=" ">
<polygon fill="#e0e0e0" stroke="#999999" points="917.69,-184 861.69,-184 861.69,-165 917.69,-165 917.69,-184"/>
<text text-anchor="middle" x="889.69" y="-172" font-family="Helvetica,sans-Serif" font-size="10.00">sstream</text>
</a>
</g>
</g>
<!-- Node1&#45;&gt;Node19 -->
<g id="edge20_Node000001_Node000019" class="edge">
<title>Node1&#45;&gt;Node19</title>
<g id="a_edge20_Node000001_Node000019"><a xlink:title=" ">
<path fill="none" stroke="#63b8ff" d="M739.45,-219.98C769.9,-210.97 818.12,-196.69 851.68,-186.75"/>
<polygon fill="#63b8ff" stroke="#63b8ff" points="853,-190.01 861.59,-183.82 851.01,-183.3 853,-190.01"/>
</a>
</g>
</g>
<!-- Node20 -->
<g id="Node000020" class="node">
<title>Node20</title>
<g id="a_Node000020"><a xlink:title=" ">
<polygon fill="#e0e0e0" stroke="#999999" points="991.69,-184 935.69,-184 935.69,-165 991.69,-165 991.69,-184"/>
<text text-anchor="middle" x="963.69" y="-172" font-family="Helvetica,sans-Serif" font-size="10.00">iomanip</text>
</a>
</g>
</g>
<!-- Node1&#45;&gt;Node20 -->
<g id="edge21_Node000001_Node000020" class="edge">
<title>Node1&#45;&gt;Node20</title>
<g id="a_edge21_Node000001_Node000020"><a xlink:title=" ">
<path fill="none" stroke="#63b8ff" d="M753.78,-219.92C795.29,-211.59 860.12,-198.41 925.38,-184.25"/>
<polygon fill="#63b8ff" stroke="#63b8ff" points="926.4,-187.61 935.43,-182.06 924.91,-180.77 926.4,-187.61"/>
</a>
</g>
</g>
<!-- Node21 -->
<g id="Node000021" class="node">
<title>Node21</title>
<g id="a_Node000021"><a xlink:title=" ">
<polygon fill="#e0e0e0" stroke="#999999" points="1069.69,-184 1009.69,-184 1009.69,-165 1069.69,-165 1069.69,-184"/>
<text text-anchor="middle" x="1039.69" y="-172" font-family="Helvetica,sans-Serif" font-size="10.00">iostream</text>
</a>
</g>
</g>
<!-- Node1&#45;&gt;Node21 -->
<g id="edge22_Node000001_Node000021" class="edge">
<title>Node1&#45;&gt;Node21</title>
<g id="a_edge22_Node000001_Node000021"><a xlink:title=" ">
<path fill="none" stroke="#63b8ff" d="M765.92,-221.07C822.23,-213.26 912.32,-200.12 999.44,-184.14"/>
<polygon fill="#63b8ff" stroke="#63b8ff" points="1000.3,-187.54 1009.5,-182.28 999.03,-180.65 1000.3,-187.54"/>
</a>
</g>
</g>
<!-- Node3 -->
<g id="Node000003" class="node">
<title>Node3</title>
<g id="a_Node000003"><a xlink:href="base__writer_8h.html" target="_top" xlink:title=" ">
<polygon fill="white" stroke="#666666" points="128.69,-129 46.69,-129 46.69,-110 128.69,-110 128.69,-129"/>
<text text-anchor="middle" x="87.69" y="-117" font-family="Helvetica,sans-Serif" font-size="10.00">base_writer.h</text>
</a>
</g>
</g>
<!-- Node2&#45;&gt;Node3 -->
<g id="edge2_Node000002_Node000003" class="edge">
<title>Node2&#45;&gt;Node3</title>
<g id="a_edge2_Node000002_Node000003"><a xlink:title=" ">
<path fill="none" stroke="#63b8ff" d="M272.35,-164.98C234.53,-155.87 174.43,-141.4 133.13,-131.45"/>
<polygon fill="#63b8ff" stroke="#63b8ff" points="133.86,-128.02 123.32,-129.08 132.22,-134.83 133.86,-128.02"/>
</a>
</g>
</g>
<!-- Node7 -->
<g id="Node000007" class="node">
<title>Node7</title>
<g id="a_Node000007"><a xlink:title=" ">
<polygon fill="#e0e0e0" stroke="#999999" points="244.69,-19 186.69,-19 186.69,0 244.69,0 244.69,-19"/>
<text text-anchor="middle" x="215.69" y="-7" font-family="Helvetica,sans-Serif" font-size="10.00">memory</text>
</a>
</g>
</g>
<!-- Node2&#45;&gt;Node7 -->
<g id="edge13_Node000002_Node000007" class="edge">
<title>Node2&#45;&gt;Node7</title>
<g id="a_edge13_Node000002_Node000007"><a xlink:title=" ">
<path fill="none" stroke="#63b8ff" d="M287.27,-164.85C272.36,-157.48 252.88,-145.46 241.69,-129 220.95,-98.47 216.42,-54.21 215.63,-29.32"/>
<polygon fill="#63b8ff" stroke="#63b8ff" points="219.13,-29.04 215.48,-19.09 212.13,-29.14 219.13,-29.04"/>
</a>
</g>
</g>
<!-- Node9 -->
<g id="Node000009" class="node">
<title>Node9</title>
<g id="a_Node000009"><a xlink:title=" ">
<polygon fill="#e0e0e0" stroke="#999999" points="298.69,-129 250.69,-129 250.69,-110 298.69,-110 298.69,-129"/>
<text text-anchor="middle" x="274.69" y="-117" font-family="Helvetica,sans-Serif" font-size="10.00">thread</text>
</a>
</g>
</g>
<!-- Node2&#45;&gt;Node9 -->
<g id="edge9_Node000002_Node000009" class="edge">
<title>Node2&#45;&gt;Node9</title>
<g id="a_edge9_Node000002_Node000009"><a xlink:title=" ">
<path fill="none" stroke="#63b8ff" d="M302.24,-164.75C297.68,-157.42 291.02,-146.73 285.4,-137.7"/>
<polygon fill="#63b8ff" stroke="#63b8ff" points="288.3,-135.73 280.04,-129.09 282.35,-139.43 288.3,-135.73"/>
</a>
</g>
</g>
<!-- Node10 -->
<g id="Node000010" class="node">
<title>Node10</title>
<g id="a_Node000010"><a xlink:title=" ">
<polygon fill="#e0e0e0" stroke="#999999" points="364.19,-129 317.19,-129 317.19,-110 364.19,-110 364.19,-129"/>
<text text-anchor="middle" x="340.69" y="-117" font-family="Helvetica,sans-Serif" font-size="10.00">queue</text>
</a>
</g>
</g>
<!-- Node2&#45;&gt;Node10 -->
<g id="edge10_Node000002_Node000010" class="edge">
<title>Node2&#45;&gt;Node10</title>
<g id="a_edge10_Node000002_Node000010"><a xlink:title=" ">
<path fill="none" stroke="#63b8ff" d="M313.14,-164.75C317.71,-157.42 324.36,-146.73 329.99,-137.7"/>
<polygon fill="#63b8ff" stroke="#63b8ff" points="333.03,-139.43 335.34,-129.09 327.09,-135.73 333.03,-139.43"/>
</a>
</g>
</g>
<!-- Node11 -->
<g id="Node000011" class="node">
<title>Node11</title>
<g id="a_Node000011"><a xlink:title=" ">
<polygon fill="#e0e0e0" stroke="#999999" points="489.19,-129 382.19,-129 382.19,-110 489.19,-110 489.19,-129"/>
<text text-anchor="middle" x="435.69" y="-117" font-family="Helvetica,sans-Serif" font-size="10.00">condition_variable</text>
</a>
</g>
</g>
<!-- Node2&#45;&gt;Node11 -->
<g id="edge11_Node000002_Node000011" class="edge">
<title>Node2&#45;&gt;Node11</title>
<g id="a_edge11_Node000002_Node000011"><a xlink:title=" ">
<path fill="none" stroke="#63b8ff" d="M328.26,-164.98C349.13,-156.34 381.66,-142.87 405.47,-133.02"/>
<polygon fill="#63b8ff" stroke="#63b8ff" points="406.85,-136.23 414.75,-129.17 404.17,-129.76 406.85,-136.23"/>
</a>
</g>
</g>
<!-- Node12 -->
<g id="Node000012" class="node">
<title>Node12</title>
<g id="a_Node000012"><a xlink:title=" ">
<polygon fill="#e0e0e0" stroke="#999999" points="557.69,-129 507.69,-129 507.69,-110 557.69,-110 557.69,-129"/>
<text text-anchor="middle" x="532.69" y="-117" font-family="Helvetica,sans-Serif" font-size="10.00">atomic</text>
</a>
</g>
</g>
<!-- Node2&#45;&gt;Node12 -->
<g id="edge12_Node000002_Node000012" class="edge">
<title>Node2&#45;&gt;Node12</title>
<g id="a_edge12_Node000002_Node000012"><a xlink:title=" ">
<path fill="none" stroke="#63b8ff" d="M345.07,-164.98C381.57,-156.62 438.95,-143.36 497.64,-129.23"/>
<polygon fill="#63b8ff" stroke="#63b8ff" points="498.55,-132.61 507.45,-126.86 496.91,-125.8 498.55,-132.61"/>
</a>
</g>
</g>
<!-- Node4 -->
<g id="Node000004" class="node">
<title>Node4</title>
<g id="a_Node000004"><a xlink:title=" ">
<polygon fill="#e0e0e0" stroke="#999999" points="51.69,-19 7.69,-19 7.69,0 51.69,0 51.69,-19"/>
<text text-anchor="middle" x="29.69" y="-7" font-family="Helvetica,sans-Serif" font-size="10.00">string</text>
</a>
</g>
</g>
<!-- Node3&#45;&gt;Node4 -->
<g id="edge3_Node000003_Node000004" class="edge">
<title>Node3&#45;&gt;Node4</title>
<g id="a_edge3_Node000003_Node000004"><a xlink:title=" ">
<path fill="none" stroke="#63b8ff" d="M54.29,-109.98C35.91,-103.4 14.67,-92.24 3.69,-74 -5.38,-58.93 4.66,-40.12 14.79,-26.9"/>
<polygon fill="#63b8ff" stroke="#63b8ff" points="17.56,-29.04 21.25,-19.11 12.17,-24.57 17.56,-29.04"/>
</a>
</g>
</g>
<!-- Node5 -->
<g id="Node000005" class="node">
<title>Node5</title>
<g id="a_Node000005"><a xlink:title=" ">
<polygon fill="#e0e0e0" stroke="#999999" points="62.69,-74 12.69,-74 12.69,-55 62.69,-55 62.69,-74"/>
<text text-anchor="middle" x="37.69" y="-62" font-family="Helvetica,sans-Serif" font-size="10.00">chrono</text>
</a>
</g>
</g>
<!-- Node3&#45;&gt;Node5 -->
<g id="edge4_Node000003_Node000005" class="edge">
<title>Node3&#45;&gt;Node5</title>
<g id="a_edge4_Node000003_Node000005"><a xlink:title=" ">
<path fill="none" stroke="#63b8ff" d="M79.44,-109.75C72.23,-102.11 61.58,-90.82 52.85,-81.56"/>
<polygon fill="#63b8ff" stroke="#63b8ff" points="55.2,-78.96 45.8,-74.09 50.11,-83.76 55.2,-78.96"/>
</a>
</g>
</g>
<!-- Node6 -->
<g id="Node000006" class="node">
<title>Node6</title>
<g id="a_Node000006"><a xlink:href="logger__interface_8h.html" target="_top" xlink:title=" ">
<polygon fill="white" stroke="#666666" points="194.69,-74 80.69,-74 80.69,-55 194.69,-55 194.69,-74"/>
<text text-anchor="middle" x="137.69" y="-62" font-family="Helvetica,sans-Serif" font-size="10.00">../logger_interface.h</text>
</a>
</g>
</g>
<!-- Node3&#45;&gt;Node6 -->
<g id="edge5_Node000003_Node000006" class="edge">
<title>Node3&#45;&gt;Node6</title>
<g id="a_edge5_Node000003_Node000006"><a xlink:title=" ">
<path fill="none" stroke="#63b8ff" d="M95.95,-109.75C103.16,-102.11 113.8,-90.82 122.54,-81.56"/>
<polygon fill="#63b8ff" stroke="#63b8ff" points="125.27,-83.76 129.59,-74.09 120.18,-78.96 125.27,-83.76"/>
</a>
</g>
</g>
<!-- Node6&#45;&gt;Node4 -->
<g id="edge8_Node000006_Node000004" class="edge">
<title>Node6&#45;&gt;Node4</title>
<g id="a_edge8_Node000006_Node000004"><a xlink:title=" ">
<path fill="none" stroke="#63b8ff" d="M120.34,-54.98C103.12,-46.54 76.49,-33.47 56.55,-23.68"/>
<polygon fill="#63b8ff" stroke="#63b8ff" points="57.88,-20.43 47.36,-19.17 54.8,-26.72 57.88,-20.43"/>
</a>
</g>
</g>
<!-- Node6&#45;&gt;Node7 -->
<g id="edge6_Node000006_Node000007" class="edge">
<title>Node6&#45;&gt;Node7</title>
<g id="a_edge6_Node000006_Node000007"><a xlink:title=" ">
<path fill="none" stroke="#63b8ff" d="M150.22,-54.98C162.09,-46.92 180.16,-34.65 194.3,-25.03"/>
<polygon fill="#63b8ff" stroke="#63b8ff" points="196.63,-27.69 202.93,-19.17 192.69,-21.9 196.63,-27.69"/>
</a>
</g>
</g>
<!-- Node8 -->
<g id="Node000008" class="node">
<title>Node8</title>
<g id="a_Node000008"><a xlink:title=" ">
<polygon fill="#e0e0e0" stroke="#999999" points="161.69,-19 113.69,-19 113.69,0 161.69,0 161.69,-19"/>
<text text-anchor="middle" x="137.69" y="-7" font-family="Helvetica,sans-Serif" font-size="10.00">mutex</text>
</a>
</g>
</g>
<!-- Node6&#45;&gt;Node8 -->
<g id="edge7_Node000006_Node000008" class="edge">
<title>Node6&#45;&gt;Node8</title>
<g id="a_edge7_Node000006_Node000008"><a xlink:title=" ">
<path fill="none" stroke="#63b8ff" d="M137.69,-54.75C137.69,-47.8 137.69,-37.85 137.69,-29.13"/>
<polygon fill="#63b8ff" stroke="#63b8ff" points="141.19,-29.09 137.69,-19.09 134.19,-29.09 141.19,-29.09"/>
</a>
</g>
</g>
</g>
</svg>
