<?xml version="1.0" encoding="UTF-8" standalone="no"?>
<!DOCTYPE svg PUBLIC "-//W3C//DTD SVG 1.1//EN"
 "http://www.w3.org/Graphics/SVG/1.1/DTD/svg11.dtd">
<!-- Generated by graphviz version 2.43.0 (0)
 -->
<!-- Title: network_writer.cpp Pages: 1 -->
<svg width="1522pt" height="313pt"
 viewBox="0.00 0.00 1521.50 313.00" xmlns="http://www.w3.org/2000/svg" xmlns:xlink="http://www.w3.org/1999/xlink">
<g id="graph0" class="graph" transform="scale(1 1) rotate(0) translate(4 309)">
<title>network_writer.cpp</title>
<!-- Node1 -->
<g id="Node000001" class="node">
<title>Node1</title>
<g id="a_Node000001"><a xlink:title=" ">
<polygon fill="#999999" stroke="#666666" points="1180.5,-305 1070.5,-305 1070.5,-286 1180.5,-286 1180.5,-305"/>
<text text-anchor="middle" x="1125.5" y="-293" font-family="Helvetica,sans-Serif" font-size="10.00">network_writer.cpp</text>
</a>
</g>
</g>
<!-- Node2 -->
<g id="Node000002" class="node">
<title>Node2</title>
<g id="a_Node000002"><a xlink:href="network__writer_8h.html" target="_top" xlink:title=" ">
<polygon fill="white" stroke="#666666" points="734.5,-250 636.5,-250 636.5,-231 734.5,-231 734.5,-250"/>
<text text-anchor="middle" x="685.5" y="-238" font-family="Helvetica,sans-Serif" font-size="10.00">network_writer.h</text>
</a>
</g>
</g>
<!-- Node1&#45;&gt;Node2 -->
<g id="edge1_Node000001_Node000002" class="edge">
<title>Node1&#45;&gt;Node2</title>
<g id="a_edge1_Node000001_Node000002"><a xlink:title=" ">
<path fill="none" stroke="#63b8ff" d="M1070.23,-288.52C998.01,-280.59 867.35,-265.89 744.69,-249.99"/>
<polygon fill="#63b8ff" stroke="#63b8ff" points="745.11,-246.51 734.74,-248.69 744.21,-253.46 745.11,-246.51"/>
</a>
</g>
</g>
<!-- Node20 -->
<g id="Node000020" class="node">
<title>Node20</title>
<g id="a_Node000020"><a xlink:title=" ">
<polygon fill="#e0e0e0" stroke="#999999" points="830,-250 753,-250 753,-231 830,-231 830,-250"/>
<text text-anchor="middle" x="791.5" y="-238" font-family="Helvetica,sans-Serif" font-size="10.00">sys/socket.h</text>
</a>
</g>
</g>
<!-- Node1&#45;&gt;Node20 -->
<g id="edge30_Node000001_Node000020" class="edge">
<title>Node1&#45;&gt;Node20</title>
<g id="a_edge30_Node000001_Node000020"><a xlink:title=" ">
<path fill="none" stroke="#63b8ff" d="M1070.35,-286.27C1014.85,-277.91 926.53,-264.39 840,-250.05"/>
<polygon fill="#63b8ff" stroke="#63b8ff" points="840.44,-246.58 830,-248.39 839.29,-253.48 840.44,-246.58"/>
</a>
</g>
</g>
<!-- Node21 -->
<g id="Node000021" class="node">
<title>Node21</title>
<g id="a_Node000021"><a xlink:title=" ">
<polygon fill="#e0e0e0" stroke="#999999" points="920.5,-250 848.5,-250 848.5,-231 920.5,-231 920.5,-250"/>
<text text-anchor="middle" x="884.5" y="-238" font-family="Helvetica,sans-Serif" font-size="10.00">netinet/in.h</text>
</a>
</g>
</g>
<!-- Node1&#45;&gt;Node21 -->
<g id="edge31_Node000001_Node000021" class="edge">
<title>Node1&#45;&gt;Node21</title>
<g id="a_edge31_Node000001_Node000021"><a xlink:title=" ">
<path fill="none" stroke="#63b8ff" d="M1086.78,-285.98C1044.23,-276.63 975.91,-261.6 930.62,-251.64"/>
<polygon fill="#63b8ff" stroke="#63b8ff" points="931.28,-248.2 920.76,-249.47 929.77,-255.04 931.28,-248.2"/>
</a>
</g>
</g>
<!-- Node22 -->
<g id="Node000022" class="node">
<title>Node22</title>
<g id="a_Node000022"><a xlink:title=" ">
<polygon fill="#e0e0e0" stroke="#999999" points="1008,-250 939,-250 939,-231 1008,-231 1008,-250"/>
<text text-anchor="middle" x="973.5" y="-238" font-family="Helvetica,sans-Serif" font-size="10.00">arpa/inet.h</text>
</a>
</g>
</g>
<!-- Node1&#45;&gt;Node22 -->
<g id="edge32_Node000001_Node000022" class="edge">
<title>Node1&#45;&gt;Node22</title>
<g id="a_edge32_Node000001_Node000022"><a xlink:title=" ">
<path fill="none" stroke="#63b8ff" d="M1101.08,-285.98C1075.78,-277.16 1036.05,-263.31 1007.64,-253.41"/>
<polygon fill="#63b8ff" stroke="#63b8ff" points="1008.71,-250.07 998.11,-250.08 1006.4,-256.68 1008.71,-250.07"/>
</a>
</g>
</g>
<!-- Node23 -->
<g id="Node000023" class="node">
<title>Node23</title>
<g id="a_Node000023"><a xlink:title=" ">
<polygon fill="#e0e0e0" stroke="#999999" points="1079,-250 1026,-250 1026,-231 1079,-231 1079,-250"/>
<text text-anchor="middle" x="1052.5" y="-238" font-family="Helvetica,sans-Serif" font-size="10.00">netdb.h</text>
</a>
</g>
</g>
<!-- Node1&#45;&gt;Node23 -->
<g id="edge33_Node000001_Node000023" class="edge">
<title>Node1&#45;&gt;Node23</title>
<g id="a_edge33_Node000001_Node000023"><a xlink:title=" ">
<path fill="none" stroke="#63b8ff" d="M1113.77,-285.98C1102.77,-278 1086.08,-265.88 1072.9,-256.31"/>
<polygon fill="#63b8ff" stroke="#63b8ff" points="1074.59,-253.21 1064.44,-250.17 1070.48,-258.88 1074.59,-253.21"/>
</a>
</g>
</g>
<!-- Node24 -->
<g id="Node000024" class="node">
<title>Node24</title>
<g id="a_Node000024"><a xlink:title=" ">
<polygon fill="#e0e0e0" stroke="#999999" points="1153.5,-250 1097.5,-250 1097.5,-231 1153.5,-231 1153.5,-250"/>
<text text-anchor="middle" x="1125.5" y="-238" font-family="Helvetica,sans-Serif" font-size="10.00">unistd.h</text>
</a>
</g>
</g>
<!-- Node1&#45;&gt;Node24 -->
<g id="edge34_Node000001_Node000024" class="edge">
<title>Node1&#45;&gt;Node24</title>
<g id="a_edge34_Node000001_Node000024"><a xlink:title=" ">
<path fill="none" stroke="#63b8ff" d="M1125.5,-285.75C1125.5,-278.8 1125.5,-268.85 1125.5,-260.13"/>
<polygon fill="#63b8ff" stroke="#63b8ff" points="1129,-260.09 1125.5,-250.09 1122,-260.09 1129,-260.09"/>
</a>
</g>
</g>
<!-- Node25 -->
<g id="Node000025" class="node">
<title>Node25</title>
<g id="a_Node000025"><a xlink:title=" ">
<polygon fill="#e0e0e0" stroke="#999999" points="1221.5,-250 1171.5,-250 1171.5,-231 1221.5,-231 1221.5,-250"/>
<text text-anchor="middle" x="1196.5" y="-238" font-family="Helvetica,sans-Serif" font-size="10.00">cstring</text>
</a>
</g>
</g>
<!-- Node1&#45;&gt;Node25 -->
<g id="edge35_Node000001_Node000025" class="edge">
<title>Node1&#45;&gt;Node25</title>
<g id="a_edge35_Node000001_Node000025"><a xlink:title=" ">
<path fill="none" stroke="#63b8ff" d="M1136.91,-285.98C1147.61,-278 1163.84,-265.88 1176.66,-256.31"/>
<polygon fill="#63b8ff" stroke="#63b8ff" points="1178.97,-258.96 1184.89,-250.17 1174.78,-253.35 1178.97,-258.96"/>
</a>
</g>
</g>
<!-- Node26 -->
<g id="Node000026" class="node">
<title>Node26</title>
<g id="a_Node000026"><a xlink:title=" ">
<polygon fill="#e0e0e0" stroke="#999999" points="1287,-250 1240,-250 1240,-231 1287,-231 1287,-250"/>
<text text-anchor="middle" x="1263.5" y="-238" font-family="Helvetica,sans-Serif" font-size="10.00">cerrno</text>
</a>
</g>
</g>
<!-- Node1&#45;&gt;Node26 -->
<g id="edge36_Node000001_Node000026" class="edge">
<title>Node1&#45;&gt;Node26</title>
<g id="a_edge36_Node000001_Node000026"><a xlink:title=" ">
<path fill="none" stroke="#63b8ff" d="M1147.67,-285.98C1170.27,-277.3 1205.56,-263.75 1231.25,-253.88"/>
<polygon fill="#63b8ff" stroke="#63b8ff" points="1232.84,-257.02 1240.92,-250.17 1230.33,-250.49 1232.84,-257.02"/>
</a>
</g>
</g>
<!-- Node27 -->
<g id="Node000027" class="node">
<title>Node27</title>
<g id="a_Node000027"><a xlink:title=" ">
<polygon fill="#e0e0e0" stroke="#999999" points="1361.5,-250 1305.5,-250 1305.5,-231 1361.5,-231 1361.5,-250"/>
<text text-anchor="middle" x="1333.5" y="-238" font-family="Helvetica,sans-Serif" font-size="10.00">sstream</text>
</a>
</g>
</g>
<!-- Node1&#45;&gt;Node27 -->
<g id="edge37_Node000001_Node000027" class="edge">
<title>Node1&#45;&gt;Node27</title>
<g id="a_edge37_Node000001_Node000027"><a xlink:title=" ">
<path fill="none" stroke="#63b8ff" d="M1158.92,-285.98C1196.24,-276.48 1256.51,-261.12 1295.57,-251.17"/>
<polygon fill="#63b8ff" stroke="#63b8ff" points="1296.67,-254.5 1305.5,-248.63 1294.94,-247.71 1296.67,-254.5"/>
</a>
</g>
</g>
<!-- Node28 -->
<g id="Node000028" class="node">
<title>Node28</title>
<g id="a_Node000028"><a xlink:title=" ">
<polygon fill="#e0e0e0" stroke="#999999" points="1435.5,-250 1379.5,-250 1379.5,-231 1435.5,-231 1435.5,-250"/>
<text text-anchor="middle" x="1407.5" y="-238" font-family="Helvetica,sans-Serif" font-size="10.00">iomanip</text>
</a>
</g>
</g>
<!-- Node1&#45;&gt;Node28 -->
<g id="edge38_Node000001_Node000028" class="edge">
<title>Node1&#45;&gt;Node28</title>
<g id="a_edge38_Node000001_Node000028"><a xlink:title=" ">
<path fill="none" stroke="#63b8ff" d="M1176.31,-285.98C1223.72,-277.86 1296.68,-264.98 1369.04,-250.23"/>
<polygon fill="#63b8ff" stroke="#63b8ff" points="1370.15,-253.57 1379.25,-248.13 1368.75,-246.71 1370.15,-253.57"/>
</a>
</g>
</g>
<!-- Node29 -->
<g id="Node000029" class="node">
<title>Node29</title>
<g id="a_Node000029"><a xlink:title=" ">
<polygon fill="#e0e0e0" stroke="#999999" points="1513.5,-250 1453.5,-250 1453.5,-231 1513.5,-231 1513.5,-250"/>
<text text-anchor="middle" x="1483.5" y="-238" font-family="Helvetica,sans-Serif" font-size="10.00">iostream</text>
</a>
</g>
</g>
<!-- Node1&#45;&gt;Node29 -->
<g id="edge39_Node000001_Node000029" class="edge">
<title>Node1&#45;&gt;Node29</title>
<g id="a_edge39_Node000001_Node000029"><a xlink:title=" ">
<path fill="none" stroke="#63b8ff" d="M1180.74,-288.09C1242.39,-280.64 1345.31,-267.35 1443.24,-250.11"/>
<polygon fill="#63b8ff" stroke="#63b8ff" points="1444.08,-253.51 1453.31,-248.32 1442.85,-246.62 1444.08,-253.51"/>
</a>
</g>
</g>
<!-- Node3 -->
<g id="Node000003" class="node">
<title>Node3</title>
<g id="a_Node000003"><a xlink:href="base__writer_8h.html" target="_top" xlink:title=" ">
<polygon fill="white" stroke="#666666" points="377.5,-195 295.5,-195 295.5,-176 377.5,-176 377.5,-195"/>
<text text-anchor="middle" x="336.5" y="-183" font-family="Helvetica,sans-Serif" font-size="10.00">base_writer.h</text>
</a>
</g>
</g>
<!-- Node2&#45;&gt;Node3 -->
<g id="edge2_Node000002_Node000003" class="edge">
<title>Node2&#45;&gt;Node3</title>
<g id="a_edge2_Node000002_Node000003"><a xlink:title=" ">
<path fill="none" stroke="#63b8ff" d="M636.24,-232.02C570.51,-222.04 454.7,-204.45 387.9,-194.31"/>
<polygon fill="#63b8ff" stroke="#63b8ff" points="388.03,-190.79 377.62,-192.74 386.98,-197.71 388.03,-190.79"/>
</a>
</g>
</g>
<!-- Node7 -->
<g id="Node000007" class="node">
<title>Node7</title>
<g id="a_Node000007"><a xlink:title=" ">
<polygon fill="#e0e0e0" stroke="#999999" points="519.5,-19 461.5,-19 461.5,0 519.5,0 519.5,-19"/>
<text text-anchor="middle" x="490.5" y="-7" font-family="Helvetica,sans-Serif" font-size="10.00">memory</text>
</a>
</g>
</g>
<!-- Node2&#45;&gt;Node7 -->
<g id="edge27_Node000002_Node000007" class="edge">
<title>Node2&#45;&gt;Node7</title>
<g id="a_edge27_Node000002_Node000007"><a xlink:title=" ">
<path fill="none" stroke="#63b8ff" d="M661.46,-230.95C643.99,-223.7 620.83,-211.78 605.5,-195 559.61,-144.75 584.39,-109.39 543.5,-55 534.81,-43.45 522.59,-32.92 512.06,-25.01"/>
<polygon fill="#63b8ff" stroke="#63b8ff" points="513.9,-22.02 503.74,-19.02 509.81,-27.7 513.9,-22.02"/>
</a>
</g>
</g>
<!-- Node8 -->
<g id="Node000008" class="node">
<title>Node8</title>
<g id="a_Node000008"><a xlink:title=" ">
<polygon fill="#e0e0e0" stroke="#999999" points="611.5,-19 563.5,-19 563.5,0 611.5,0 611.5,-19"/>
<text text-anchor="middle" x="587.5" y="-7" font-family="Helvetica,sans-Serif" font-size="10.00">mutex</text>
</a>
</g>
</g>
<!-- Node2&#45;&gt;Node8 -->
<g id="edge28_Node000002_Node000008" class="edge">
<title>Node2&#45;&gt;Node8</title>
<g id="a_edge28_Node000002_Node000008"><a xlink:title=" ">
<path fill="none" stroke="#63b8ff" d="M664.87,-230.99C649.85,-223.7 630.32,-211.7 619.5,-195 585.53,-142.53 584.53,-64.81 586.15,-29.36"/>
<polygon fill="#63b8ff" stroke="#63b8ff" points="589.66,-29.24 586.75,-19.05 582.67,-28.83 589.66,-29.24"/>
</a>
</g>
</g>
<!-- Node15 -->
<g id="Node000015" class="node">
<title>Node15</title>
<g id="a_Node000015"><a xlink:title=" ">
<polygon fill="#e0e0e0" stroke="#999999" points="676.5,-195 628.5,-195 628.5,-176 676.5,-176 676.5,-195"/>
<text text-anchor="middle" x="652.5" y="-183" font-family="Helvetica,sans-Serif" font-size="10.00">thread</text>
</a>
</g>
</g>
<!-- Node2&#45;&gt;Node15 -->
<g id="edge23_Node000002_Node000015" class="edge">
<title>Node2&#45;&gt;Node15</title>
<g id="a_edge23_Node000002_Node000015"><a xlink:title=" ">
<path fill="none" stroke="#63b8ff" d="M680.05,-230.75C675.49,-223.42 668.83,-212.73 663.21,-203.7"/>
<polygon fill="#63b8ff" stroke="#63b8ff" points="666.1,-201.73 657.85,-195.09 660.16,-205.43 666.1,-201.73"/>
</a>
</g>
</g>
<!-- Node16 -->
<g id="Node000016" class="node">
<title>Node16</title>
<g id="a_Node000016"><a xlink:title=" ">
<polygon fill="#e0e0e0" stroke="#999999" points="742,-195 695,-195 695,-176 742,-176 742,-195"/>
<text text-anchor="middle" x="718.5" y="-183" font-family="Helvetica,sans-Serif" font-size="10.00">queue</text>
</a>
</g>
</g>
<!-- Node2&#45;&gt;Node16 -->
<g id="edge24_Node000002_Node000016" class="edge">
<title>Node2&#45;&gt;Node16</title>
<g id="a_edge24_Node000002_Node000016"><a xlink:title=" ">
<path fill="none" stroke="#63b8ff" d="M690.95,-230.75C695.51,-223.42 702.17,-212.73 707.79,-203.7"/>
<polygon fill="#63b8ff" stroke="#63b8ff" points="710.84,-205.43 713.15,-195.09 704.9,-201.73 710.84,-205.43"/>
</a>
</g>
</g>
<!-- Node17 -->
<g id="Node000017" class="node">
<title>Node17</title>
<g id="a_Node000017"><a xlink:title=" ">
<polygon fill="#e0e0e0" stroke="#999999" points="867,-195 760,-195 760,-176 867,-176 867,-195"/>
<text text-anchor="middle" x="813.5" y="-183" font-family="Helvetica,sans-Serif" font-size="10.00">condition_variable</text>
</a>
</g>
</g>
<!-- Node2&#45;&gt;Node17 -->
<g id="edge25_Node000002_Node000017" class="edge">
<title>Node2&#45;&gt;Node17</title>
<g id="a_edge25_Node000002_Node000017"><a xlink:title=" ">
<path fill="none" stroke="#63b8ff" d="M706.07,-230.98C726.93,-222.34 759.47,-208.87 783.27,-199.02"/>
<polygon fill="#63b8ff" stroke="#63b8ff" points="784.66,-202.23 792.56,-195.17 781.98,-195.76 784.66,-202.23"/>
</a>
</g>
</g>
<!-- Node18 -->
<g id="Node000018" class="node">
<title>Node18</title>
<g id="a_Node000018"><a xlink:title=" ">
<polygon fill="#e0e0e0" stroke="#999999" points="935.5,-195 885.5,-195 885.5,-176 935.5,-176 935.5,-195"/>
<text text-anchor="middle" x="910.5" y="-183" font-family="Helvetica,sans-Serif" font-size="10.00">atomic</text>
</a>
</g>
</g>
<!-- Node2&#45;&gt;Node18 -->
<g id="edge26_Node000002_Node000018" class="edge">
<title>Node2&#45;&gt;Node18</title>
<g id="a_edge26_Node000002_Node000018"><a xlink:title=" ">
<path fill="none" stroke="#63b8ff" d="M722.87,-230.98C759.38,-222.62 816.76,-209.36 875.45,-195.23"/>
<polygon fill="#63b8ff" stroke="#63b8ff" points="876.36,-198.61 885.26,-192.86 874.72,-191.8 876.36,-198.61"/>
</a>
</g>
</g>
<!-- Node19 -->
<g id="Node000019" class="node">
<title>Node19</title>
<g id="a_Node000019"><a xlink:title=" ">
<polygon fill="#e0e0e0" stroke="#999999" points="1003.5,-195 953.5,-195 953.5,-176 1003.5,-176 1003.5,-195"/>
<text text-anchor="middle" x="978.5" y="-183" font-family="Helvetica,sans-Serif" font-size="10.00">cstdint</text>
</a>
</g>
</g>
<!-- Node2&#45;&gt;Node19 -->
<g id="edge29_Node000002_Node000019" class="edge">
<title>Node2&#45;&gt;Node19</title>
<g id="a_edge29_Node000002_Node000019"><a xlink:title=" ">
<path fill="none" stroke="#63b8ff" d="M734.88,-232.14C785,-224.42 865.05,-211.4 943.27,-195.13"/>
<polygon fill="#63b8ff" stroke="#63b8ff" points="944.23,-198.5 953.3,-193.02 942.79,-191.65 944.23,-198.5"/>
</a>
</g>
</g>
<!-- Node4 -->
<g id="Node000004" class="node">
<title>Node4</title>
<g id="a_Node000004"><a xlink:title=" ">
<polygon fill="#e0e0e0" stroke="#999999" points="270.5,-19 226.5,-19 226.5,0 270.5,0 270.5,-19"/>
<text text-anchor="middle" x="248.5" y="-7" font-family="Helvetica,sans-Serif" font-size="10.00">string</text>
</a>
</g>
</g>
<!-- Node3&#45;&gt;Node4 -->
<g id="edge3_Node000003_Node000004" class="edge">
<title>Node3&#45;&gt;Node4</title>
<g id="a_edge3_Node000003_Node000004"><a xlink:title=" ">
<path fill="none" stroke="#63b8ff" d="M295.31,-178.98C252.04,-172.24 188.23,-159.29 173.5,-140 144.1,-101.5 197.32,-50.38 228.4,-25.45"/>
<polygon fill="#63b8ff" stroke="#63b8ff" points="230.75,-28.05 236.49,-19.14 226.45,-22.53 230.75,-28.05"/>
</a>
</g>
</g>
<!-- Node5 -->
<g id="Node000005" class="node">
<title>Node5</title>
<g id="a_Node000005"><a xlink:title=" ">
<polygon fill="#e0e0e0" stroke="#999999" points="326.5,-74 276.5,-74 276.5,-55 326.5,-55 326.5,-74"/>
<text text-anchor="middle" x="301.5" y="-62" font-family="Helvetica,sans-Serif" font-size="10.00">chrono</text>
</a>
</g>
</g>
<!-- Node3&#45;&gt;Node5 -->
<g id="edge4_Node000003_Node000005" class="edge">
<title>Node3&#45;&gt;Node5</title>
<g id="a_edge4_Node000003_Node000005"><a xlink:title=" ">
<path fill="none" stroke="#63b8ff" d="M334.54,-175.71C331.36,-161.7 324.7,-133.48 317.5,-110 314.82,-101.27 311.45,-91.72 308.49,-83.72"/>
<polygon fill="#63b8ff" stroke="#63b8ff" points="311.74,-82.41 304.94,-74.28 305.19,-84.87 311.74,-82.41"/>
</a>
</g>
</g>
<!-- Node6 -->
<g id="Node000006" class="node">
<title>Node6</title>
<g id="a_Node000006"><a xlink:href="logger__interface_8h.html" target="_top" xlink:title=" ">
<polygon fill="white" stroke="#666666" points="534.5,-74 420.5,-74 420.5,-55 534.5,-55 534.5,-74"/>
<text text-anchor="middle" x="477.5" y="-62" font-family="Helvetica,sans-Serif" font-size="10.00">../logger_interface.h</text>
</a>
</g>
</g>
<!-- Node3&#45;&gt;Node6 -->
<g id="edge5_Node000003_Node000006" class="edge">
<title>Node3&#45;&gt;Node6</title>
<g id="a_edge5_Node000003_Node000006"><a xlink:title=" ">
<path fill="none" stroke="#63b8ff" d="M377.57,-179.44C422.43,-172.97 489.99,-160.13 505.5,-140 518.88,-122.64 504.93,-98.19 492.38,-82.1"/>
<polygon fill="#63b8ff" stroke="#63b8ff" points="494.82,-79.57 485.73,-74.12 489.44,-84.05 494.82,-79.57"/>
</a>
</g>
</g>
<!-- Node9 -->
<g id="Node000009" class="node">
<title>Node9</title>
<g id="a_Node000009"><a xlink:href="error__codes_8h.html" target="_top" xlink:title=" ">
<polygon fill="white" stroke="#666666" points="154.5,-74 62.5,-74 62.5,-55 154.5,-55 154.5,-74"/>
<text text-anchor="middle" x="108.5" y="-62" font-family="Helvetica,sans-Serif" font-size="10.00">../error_codes.h</text>
</a>
</g>
</g>
<!-- Node3&#45;&gt;Node9 -->
<g id="edge9_Node000003_Node000009" class="edge">
<title>Node3&#45;&gt;Node9</title>
<g id="a_edge9_Node000003_Node000009"><a xlink:title=" ">
<path fill="none" stroke="#63b8ff" d="M295.37,-179.59C245.05,-172.84 163.7,-159.31 140.5,-140 123.55,-125.89 115.36,-101.15 111.56,-84.07"/>
<polygon fill="#63b8ff" stroke="#63b8ff" points="114.97,-83.3 109.64,-74.14 108.1,-84.62 114.97,-83.3"/>
</a>
</g>
</g>
<!-- Node13 -->
<g id="Node000013" class="node">
<title>Node13</title>
<g id="a_Node000013"><a xlink:href="log__writer__interface_8h.html" target="_top" xlink:title=" ">
<polygon fill="white" stroke="#666666" points="308.5,-140 182.5,-140 182.5,-110 308.5,-110 308.5,-140"/>
<text text-anchor="start" x="190.5" y="-128" font-family="Helvetica,sans-Serif" font-size="10.00">../interfaces/log_writer</text>
<text text-anchor="middle" x="245.5" y="-117" font-family="Helvetica,sans-Serif" font-size="10.00">_interface.h</text>
</a>
</g>
</g>
<!-- Node3&#45;&gt;Node13 -->
<g id="edge14_Node000003_Node000013" class="edge">
<title>Node3&#45;&gt;Node13</title>
<g id="a_edge14_Node000003_Node000013"><a xlink:title=" ">
<path fill="none" stroke="#63b8ff" d="M323.07,-175.87C310.73,-167.93 291.97,-155.87 275.99,-145.6"/>
<polygon fill="#63b8ff" stroke="#63b8ff" points="277.76,-142.58 267.46,-140.11 273.98,-148.47 277.76,-142.58"/>
</a>
</g>
</g>
<!-- Node14 -->
<g id="Node000014" class="node">
<title>Node14</title>
<g id="a_Node000014"><a xlink:href="log__entry_8h.html" target="_top" xlink:title=" ">
<polygon fill="white" stroke="#666666" points="496,-134.5 365,-134.5 365,-115.5 496,-115.5 496,-134.5"/>
<text text-anchor="middle" x="430.5" y="-122.5" font-family="Helvetica,sans-Serif" font-size="10.00">../interfaces/log_entry.h</text>
</a>
</g>
</g>
<!-- Node3&#45;&gt;Node14 -->
<g id="edge18_Node000003_Node000014" class="edge">
<title>Node3&#45;&gt;Node14</title>
<g id="a_edge18_Node000003_Node000014"><a xlink:title=" ">
<path fill="none" stroke="#63b8ff" d="M350.37,-175.87C365.5,-166.45 389.96,-151.23 407.88,-140.08"/>
<polygon fill="#63b8ff" stroke="#63b8ff" points="409.93,-142.92 416.57,-134.67 406.23,-136.98 409.93,-142.92"/>
</a>
</g>
</g>
<!-- Node6&#45;&gt;Node4 -->
<g id="edge8_Node000006_Node000004" class="edge">
<title>Node6&#45;&gt;Node4</title>
<g id="a_edge8_Node000006_Node000004"><a xlink:title=" ">
<path fill="none" stroke="#63b8ff" d="M440.71,-54.98C396.42,-44.73 322.75,-27.69 280.65,-17.94"/>
<polygon fill="#63b8ff" stroke="#63b8ff" points="281.19,-14.47 270.66,-15.63 279.61,-21.29 281.19,-14.47"/>
</a>
</g>
</g>
<!-- Node6&#45;&gt;Node7 -->
<g id="edge6_Node000006_Node000007" class="edge">
<title>Node6&#45;&gt;Node7</title>
<g id="a_edge6_Node000006_Node000007"><a xlink:title=" ">
<path fill="none" stroke="#63b8ff" d="M479.65,-54.75C481.37,-47.72 483.85,-37.62 486,-28.84"/>
<polygon fill="#63b8ff" stroke="#63b8ff" points="489.41,-29.63 488.39,-19.09 482.61,-27.97 489.41,-29.63"/>
</a>
</g>
</g>
<!-- Node6&#45;&gt;Node8 -->
<g id="edge7_Node000006_Node000008" class="edge">
<title>Node6&#45;&gt;Node8</title>
<g id="a_edge7_Node000006_Node000008"><a xlink:title=" ">
<path fill="none" stroke="#63b8ff" d="M495.17,-54.98C512.79,-46.5 540.08,-33.35 560.43,-23.54"/>
<polygon fill="#63b8ff" stroke="#63b8ff" points="562.02,-26.66 569.51,-19.17 558.98,-20.36 562.02,-26.66"/>
</a>
</g>
</g>
<!-- Node9&#45;&gt;Node4 -->
<g id="edge10_Node000009_Node000004" class="edge">
<title>Node9&#45;&gt;Node4</title>
<g id="a_edge10_Node000009_Node000004"><a xlink:title=" ">
<path fill="none" stroke="#63b8ff" d="M130.99,-54.98C154.16,-46.21 190.47,-32.47 216.6,-22.58"/>
<polygon fill="#63b8ff" stroke="#63b8ff" points="217.95,-25.81 226.06,-18.99 215.47,-19.26 217.95,-25.81"/>
</a>
</g>
</g>
<!-- Node10 -->
<g id="Node000010" class="node">
<title>Node10</title>
<g id="a_Node000010"><a xlink:title=" ">
<polygon fill="#e0e0e0" stroke="#999999" points="65,-19 0,-19 0,0 65,0 65,-19"/>
<text text-anchor="middle" x="32.5" y="-7" font-family="Helvetica,sans-Serif" font-size="10.00">stdexcept</text>
</a>
</g>
</g>
<!-- Node9&#45;&gt;Node10 -->
<g id="edge11_Node000009_Node000010" class="edge">
<title>Node9&#45;&gt;Node10</title>
<g id="a_edge11_Node000009_Node000010"><a xlink:title=" ">
<path fill="none" stroke="#63b8ff" d="M96.29,-54.98C84.72,-46.92 67.12,-34.65 53.34,-25.03"/>
<polygon fill="#63b8ff" stroke="#63b8ff" points="55.14,-22.02 44.93,-19.17 51.13,-27.76 55.14,-22.02"/>
</a>
</g>
</g>
<!-- Node11 -->
<g id="Node000011" class="node">
<title>Node11</title>
<g id="a_Node000011"><a xlink:title=" ">
<polygon fill="#e0e0e0" stroke="#999999" points="208.5,-19 152.5,-19 152.5,0 208.5,0 208.5,-19"/>
<text text-anchor="middle" x="180.5" y="-7" font-family="Helvetica,sans-Serif" font-size="10.00">optional</text>
</a>
</g>
</g>
<!-- Node9&#45;&gt;Node11 -->
<g id="edge12_Node000009_Node000011" class="edge">
<title>Node9&#45;&gt;Node11</title>
<g id="a_edge12_Node000009_Node000011"><a xlink:title=" ">
<path fill="none" stroke="#63b8ff" d="M120.07,-54.98C130.92,-47 147.38,-34.88 160.38,-25.31"/>
<polygon fill="#63b8ff" stroke="#63b8ff" points="162.74,-27.92 168.72,-19.17 158.59,-22.28 162.74,-27.92"/>
</a>
</g>
</g>
<!-- Node12 -->
<g id="Node000012" class="node">
<title>Node12</title>
<g id="a_Node000012"><a xlink:title=" ">
<polygon fill="#e0e0e0" stroke="#999999" points="134,-19 83,-19 83,0 134,0 134,-19"/>
<text text-anchor="middle" x="108.5" y="-7" font-family="Helvetica,sans-Serif" font-size="10.00">variant</text>
</a>
</g>
</g>
<!-- Node9&#45;&gt;Node12 -->
<g id="edge13_Node000009_Node000012" class="edge">
<title>Node9&#45;&gt;Node12</title>
<g id="a_edge13_Node000009_Node000012"><a xlink:title=" ">
<path fill="none" stroke="#63b8ff" d="M108.5,-54.75C108.5,-47.8 108.5,-37.85 108.5,-29.13"/>
<polygon fill="#63b8ff" stroke="#63b8ff" points="112,-29.09 108.5,-19.09 105,-29.09 112,-29.09"/>
</a>
</g>
</g>
<!-- Node13&#45;&gt;Node4 -->
<g id="edge15_Node000013_Node000004" class="edge">
<title>Node13&#45;&gt;Node4</title>
<g id="a_edge15_Node000013_Node000004"><a xlink:title=" ">
<path fill="none" stroke="#63b8ff" d="M245.88,-109.63C246.42,-89.21 247.41,-51.81 248,-29.24"/>
<polygon fill="#63b8ff" stroke="#63b8ff" points="251.5,-29.32 248.27,-19.23 244.51,-29.13 251.5,-29.32"/>
</a>
</g>
</g>
<!-- Node13&#45;&gt;Node5 -->
<g id="edge16_Node000013_Node000005" class="edge">
<title>Node13&#45;&gt;Node5</title>
<g id="a_edge16_Node000013_Node000005"><a xlink:title=" ">
<path fill="none" stroke="#63b8ff" d="M259.06,-109.84C267.18,-101.35 277.55,-90.52 286,-81.69"/>
<polygon fill="#63b8ff" stroke="#63b8ff" points="288.72,-83.91 293.11,-74.27 283.67,-79.07 288.72,-83.91"/>
</a>
</g>
</g>
<!-- Node13&#45;&gt;Node9 -->
<g id="edge17_Node000013_Node000009" class="edge">
<title>Node13&#45;&gt;Node9</title>
<g id="a_edge17_Node000013_Node000009"><a xlink:title=" ">
<path fill="none" stroke="#63b8ff" d="M212.69,-109.99C190.03,-100.31 160.15,-87.56 138.2,-78.18"/>
<polygon fill="#63b8ff" stroke="#63b8ff" points="139.3,-74.85 128.73,-74.14 136.55,-81.29 139.3,-74.85"/>
</a>
</g>
</g>
<!-- Node14&#45;&gt;Node4 -->
<g id="edge19_Node000014_Node000004" class="edge">
<title>Node14&#45;&gt;Node4</title>
<g id="a_edge19_Node000014_Node000004"><a xlink:title=" ">
<path fill="none" stroke="#63b8ff" d="M424.69,-115.12C414.78,-100.63 393.27,-71.84 368.5,-55 341.53,-36.67 306.04,-24.73 280.66,-17.88"/>
<polygon fill="#63b8ff" stroke="#63b8ff" points="281.36,-14.44 270.8,-15.33 279.61,-21.22 281.36,-14.44"/>
</a>
</g>
</g>
<!-- Node14&#45;&gt;Node5 -->
<g id="edge20_Node000014_Node000005" class="edge">
<title>Node14&#45;&gt;Node5</title>
<g id="a_edge20_Node000014_Node000005"><a xlink:title=" ">
<path fill="none" stroke="#63b8ff" d="M411.74,-115.49C390.15,-105.7 354.47,-89.52 329.57,-78.23"/>
<polygon fill="#63b8ff" stroke="#63b8ff" points="330.83,-74.96 320.28,-74.02 327.94,-81.33 330.83,-74.96"/>
</a>
</g>
</g>
<!-- Node14&#45;&gt;Node6 -->
<g id="edge22_Node000014_Node000006" class="edge">
<title>Node14&#45;&gt;Node6</title>
<g id="a_edge22_Node000014_Node000006"><a xlink:title=" ">
<path fill="none" stroke="#63b8ff" d="M437.44,-115.37C444.45,-106.64 455.46,-92.93 464.17,-82.09"/>
<polygon fill="#63b8ff" stroke="#63b8ff" points="467,-84.16 470.54,-74.17 461.54,-79.77 467,-84.16"/>
</a>
</g>
</g>
<!-- Node14&#45;&gt;Node11 -->
<g id="edge21_Node000014_Node000011" class="edge">
<title>Node14&#45;&gt;Node11</title>
<g id="a_edge21_Node000014_Node000011"><a xlink:title=" ">
<path fill="none" stroke="#63b8ff" d="M420.98,-115.31C404.66,-100.83 369.76,-71.71 335.5,-55 314.94,-44.97 257.48,-29.62 218.6,-19.82"/>
<polygon fill="#63b8ff" stroke="#63b8ff" points="219.21,-16.36 208.66,-17.33 217.51,-23.15 219.21,-16.36"/>
</a>
</g>
</g>
</g>
</svg>
