<?xml version="1.0" encoding="UTF-8" standalone="no"?>
<!DOCTYPE svg PUBLIC "-//W3C//DTD SVG 1.1//EN"
 "http://www.w3.org/Graphics/SVG/1.1/DTD/svg11.dtd">
<!-- Generated by graphviz version 2.43.0 (0)
 -->
<!-- Title: /home/runner/work/logger_system/logger_system/sources/logger/flow/overflow_policy.cpp Pages: 1 -->
<svg width="1002pt" height="225pt"
 viewBox="0.00 0.00 1001.50 225.00" xmlns="http://www.w3.org/2000/svg" xmlns:xlink="http://www.w3.org/1999/xlink">
<g id="graph0" class="graph" transform="scale(1 1) rotate(0) translate(4 221)">
<title>/home/runner/work/logger_system/logger_system/sources/logger/flow/overflow_policy.cpp</title>
<!-- Node1 -->
<g id="Node000001" class="node">
<title>Node1</title>
<g id="a_Node000001"><a xlink:title=" ">
<polygon fill="#999999" stroke="#666666" points="673.5,-217 500.5,-217 500.5,-176 673.5,-176 673.5,-217"/>
<text text-anchor="start" x="508.5" y="-205" font-family="Helvetica,sans-Serif" font-size="10.00">/home/runner/work/logger</text>
<text text-anchor="start" x="508.5" y="-194" font-family="Helvetica,sans-Serif" font-size="10.00">_system/logger_system/sources</text>
<text text-anchor="middle" x="587" y="-183" font-family="Helvetica,sans-Serif" font-size="10.00">/logger/flow/overflow_policy.cpp</text>
</a>
</g>
</g>
<!-- Node2 -->
<g id="Node000002" class="node">
<title>Node2</title>
<g id="a_Node000002"><a xlink:href="overflow__policy_8h.html" target="_top" xlink:title=" ">
<polygon fill="white" stroke="#666666" points="499.5,-140 398.5,-140 398.5,-121 499.5,-121 499.5,-140"/>
<text text-anchor="middle" x="449" y="-128" font-family="Helvetica,sans-Serif" font-size="10.00">overflow_policy.h</text>
</a>
</g>
</g>
<!-- Node1&#45;&gt;Node2 -->
<g id="edge1_Node000001_Node000002" class="edge">
<title>Node1&#45;&gt;Node2</title>
<g id="a_edge1_Node000001_Node000002"><a xlink:title=" ">
<path fill="none" stroke="#63b8ff" d="M544.85,-175.95C522.74,-165.7 496.28,-153.43 476.77,-144.38"/>
<polygon fill="#63b8ff" stroke="#63b8ff" points="478.07,-141.12 467.53,-140.09 475.13,-147.47 478.07,-141.12"/>
</a>
</g>
</g>
<!-- Node16 -->
<g id="Node000016" class="node">
<title>Node16</title>
<g id="a_Node000016"><a xlink:title=" ">
<polygon fill="#e0e0e0" stroke="#999999" points="582,-140 518,-140 518,-121 582,-121 582,-140"/>
<text text-anchor="middle" x="550" y="-128" font-family="Helvetica,sans-Serif" font-size="10.00">algorithm</text>
</a>
</g>
</g>
<!-- Node1&#45;&gt;Node16 -->
<g id="edge17_Node000001_Node000016" class="edge">
<title>Node1&#45;&gt;Node16</title>
<g id="a_edge17_Node000001_Node000016"><a xlink:title=" ">
<path fill="none" stroke="#63b8ff" d="M575.7,-175.95C570.75,-167.39 564.99,-157.42 560.17,-149.1"/>
<polygon fill="#63b8ff" stroke="#63b8ff" points="563.1,-147.17 555.06,-140.26 557.04,-150.67 563.1,-147.17"/>
</a>
</g>
</g>
<!-- Node17 -->
<g id="Node000017" class="node">
<title>Node17</title>
<g id="a_Node000017"><a xlink:title=" ">
<polygon fill="#e0e0e0" stroke="#999999" points="647.5,-140 600.5,-140 600.5,-121 647.5,-121 647.5,-140"/>
<text text-anchor="middle" x="624" y="-128" font-family="Helvetica,sans-Serif" font-size="10.00">deque</text>
</a>
</g>
</g>
<!-- Node1&#45;&gt;Node17 -->
<g id="edge18_Node000001_Node000017" class="edge">
<title>Node1&#45;&gt;Node17</title>
<g id="a_edge18_Node000001_Node000017"><a xlink:title=" ">
<path fill="none" stroke="#63b8ff" d="M598.3,-175.95C603.25,-167.39 609.01,-157.42 613.83,-149.1"/>
<polygon fill="#63b8ff" stroke="#63b8ff" points="616.96,-150.67 618.94,-140.26 610.9,-147.17 616.96,-150.67"/>
</a>
</g>
</g>
<!-- Node18 -->
<g id="Node000018" class="node">
<title>Node18</title>
<g id="a_Node000018"><a xlink:title=" ">
<polygon fill="#e0e0e0" stroke="#999999" points="722,-140 666,-140 666,-121 722,-121 722,-140"/>
<text text-anchor="middle" x="694" y="-128" font-family="Helvetica,sans-Serif" font-size="10.00">numeric</text>
</a>
</g>
</g>
<!-- Node1&#45;&gt;Node18 -->
<g id="edge19_Node000001_Node000018" class="edge">
<title>Node1&#45;&gt;Node18</title>
<g id="a_edge19_Node000001_Node000018"><a xlink:title=" ">
<path fill="none" stroke="#63b8ff" d="M619.68,-175.95C636.28,-166.03 656.03,-154.21 671,-145.25"/>
<polygon fill="#63b8ff" stroke="#63b8ff" points="672.85,-148.23 679.64,-140.09 669.26,-142.22 672.85,-148.23"/>
</a>
</g>
</g>
<!-- Node3 -->
<g id="Node000003" class="node">
<title>Node3</title>
<g id="a_Node000003"><a xlink:href="error__codes_8h.html" target="_top" xlink:title=" ">
<polygon fill="white" stroke="#666666" points="227,-85 135,-85 135,-66 227,-66 227,-85"/>
<text text-anchor="middle" x="181" y="-73" font-family="Helvetica,sans-Serif" font-size="10.00">../error_codes.h</text>
</a>
</g>
</g>
<!-- Node2&#45;&gt;Node3 -->
<g id="edge2_Node000002_Node000003" class="edge">
<title>Node2&#45;&gt;Node3</title>
<g id="a_edge2_Node000002_Node000003"><a xlink:title=" ">
<path fill="none" stroke="#63b8ff" d="M405.94,-120.98C359.29,-111.76 284.8,-97.03 234.44,-87.07"/>
<polygon fill="#63b8ff" stroke="#63b8ff" points="234.89,-83.59 224.4,-85.08 233.53,-90.46 234.89,-83.59"/>
</a>
</g>
</g>
<!-- Node4 -->
<g id="Node000004" class="node">
<title>Node4</title>
<g id="a_Node000004"><a xlink:title=" ">
<polygon fill="#e0e0e0" stroke="#999999" points="44,-24.5 0,-24.5 0,-5.5 44,-5.5 44,-24.5"/>
<text text-anchor="middle" x="22" y="-12.5" font-family="Helvetica,sans-Serif" font-size="10.00">string</text>
</a>
</g>
</g>
<!-- Node2&#45;&gt;Node4 -->
<g id="edge15_Node000002_Node000004" class="edge">
<title>Node2&#45;&gt;Node4</title>
<g id="a_edge15_Node000002_Node000004"><a xlink:title=" ">
<path fill="none" stroke="#63b8ff" d="M398.33,-129.42C333.24,-127.8 217.74,-119.67 126,-85 92.63,-72.39 59.17,-47.46 39.53,-31.27"/>
<polygon fill="#63b8ff" stroke="#63b8ff" points="41.67,-28.5 31.77,-24.73 37.16,-33.85 41.67,-28.5"/>
</a>
</g>
</g>
<!-- Node6 -->
<g id="Node000006" class="node">
<title>Node6</title>
<g id="a_Node000006"><a xlink:title=" ">
<polygon fill="#e0e0e0" stroke="#999999" points="337.5,-24.5 292.5,-24.5 292.5,-5.5 337.5,-5.5 337.5,-24.5"/>
<text text-anchor="middle" x="315" y="-12.5" font-family="Helvetica,sans-Serif" font-size="10.00">utility</text>
</a>
</g>
</g>
<!-- Node2&#45;&gt;Node6 -->
<g id="edge14_Node000002_Node000006" class="edge">
<title>Node2&#45;&gt;Node6</title>
<g id="a_edge14_Node000002_Node000006"><a xlink:title=" ">
<path fill="none" stroke="#63b8ff" d="M398.38,-123.52C352.3,-116.92 289.2,-104.55 274,-85 260.48,-67.61 279.3,-45.37 295.67,-30.92"/>
<polygon fill="#63b8ff" stroke="#63b8ff" points="297.93,-33.6 303.36,-24.5 293.44,-28.22 297.93,-33.6"/>
</a>
</g>
</g>
<!-- Node8 -->
<g id="Node000008" class="node">
<title>Node8</title>
<g id="a_Node000008"><a xlink:title=" ">
<polygon fill="#e0e0e0" stroke="#999999" points="341,-85 283,-85 283,-66 341,-66 341,-85"/>
<text text-anchor="middle" x="312" y="-73" font-family="Helvetica,sans-Serif" font-size="10.00">memory</text>
</a>
</g>
</g>
<!-- Node2&#45;&gt;Node8 -->
<g id="edge7_Node000002_Node000008" class="edge">
<title>Node2&#45;&gt;Node8</title>
<g id="a_edge7_Node000002_Node000008"><a xlink:title=" ">
<path fill="none" stroke="#63b8ff" d="M426.99,-120.98C404.55,-112.3 369.52,-98.75 344.01,-88.88"/>
<polygon fill="#63b8ff" stroke="#63b8ff" points="345,-85.51 334.41,-85.17 342.48,-92.04 345,-85.51"/>
</a>
</g>
</g>
<!-- Node9 -->
<g id="Node000009" class="node">
<title>Node9</title>
<g id="a_Node000009"><a xlink:title=" ">
<polygon fill="#e0e0e0" stroke="#999999" points="406.5,-85 359.5,-85 359.5,-66 406.5,-66 406.5,-85"/>
<text text-anchor="middle" x="383" y="-73" font-family="Helvetica,sans-Serif" font-size="10.00">queue</text>
</a>
</g>
</g>
<!-- Node2&#45;&gt;Node9 -->
<g id="edge8_Node000002_Node000009" class="edge">
<title>Node2&#45;&gt;Node9</title>
<g id="a_edge8_Node000002_Node000009"><a xlink:title=" ">
<path fill="none" stroke="#63b8ff" d="M438.4,-120.98C428.54,-113.07 413.65,-101.11 401.78,-91.58"/>
<polygon fill="#63b8ff" stroke="#63b8ff" points="403.79,-88.7 393.8,-85.17 399.4,-94.16 403.79,-88.7"/>
</a>
</g>
</g>
<!-- Node10 -->
<g id="Node000010" class="node">
<title>Node10</title>
<g id="a_Node000010"><a xlink:title=" ">
<polygon fill="#e0e0e0" stroke="#999999" points="473,-85 425,-85 425,-66 473,-66 473,-85"/>
<text text-anchor="middle" x="449" y="-73" font-family="Helvetica,sans-Serif" font-size="10.00">mutex</text>
</a>
</g>
</g>
<!-- Node2&#45;&gt;Node10 -->
<g id="edge9_Node000002_Node000010" class="edge">
<title>Node2&#45;&gt;Node10</title>
<g id="a_edge9_Node000002_Node000010"><a xlink:title=" ">
<path fill="none" stroke="#63b8ff" d="M449,-120.75C449,-113.8 449,-103.85 449,-95.13"/>
<polygon fill="#63b8ff" stroke="#63b8ff" points="452.5,-95.09 449,-85.09 445.5,-95.09 452.5,-95.09"/>
</a>
</g>
</g>
<!-- Node11 -->
<g id="Node000011" class="node">
<title>Node11</title>
<g id="a_Node000011"><a xlink:title=" ">
<polygon fill="#e0e0e0" stroke="#999999" points="598.5,-85 491.5,-85 491.5,-66 598.5,-66 598.5,-85"/>
<text text-anchor="middle" x="545" y="-73" font-family="Helvetica,sans-Serif" font-size="10.00">condition_variable</text>
</a>
</g>
</g>
<!-- Node2&#45;&gt;Node11 -->
<g id="edge10_Node000002_Node000011" class="edge">
<title>Node2&#45;&gt;Node11</title>
<g id="a_edge10_Node000002_Node000011"><a xlink:title=" ">
<path fill="none" stroke="#63b8ff" d="M464.42,-120.98C479.45,-112.69 502.54,-99.94 520.16,-90.22"/>
<polygon fill="#63b8ff" stroke="#63b8ff" points="522.23,-93.07 529.3,-85.17 518.85,-86.94 522.23,-93.07"/>
</a>
</g>
</g>
<!-- Node12 -->
<g id="Node000012" class="node">
<title>Node12</title>
<g id="a_Node000012"><a xlink:title=" ">
<polygon fill="#e0e0e0" stroke="#999999" points="667,-85 617,-85 617,-66 667,-66 667,-85"/>
<text text-anchor="middle" x="642" y="-73" font-family="Helvetica,sans-Serif" font-size="10.00">chrono</text>
</a>
</g>
</g>
<!-- Node2&#45;&gt;Node12 -->
<g id="edge11_Node000002_Node000012" class="edge">
<title>Node2&#45;&gt;Node12</title>
<g id="a_edge11_Node000002_Node000012"><a xlink:title=" ">
<path fill="none" stroke="#63b8ff" d="M480.01,-120.98C514.78,-111.44 571.03,-95.99 607.26,-86.04"/>
<polygon fill="#63b8ff" stroke="#63b8ff" points="608.19,-89.41 616.91,-83.39 606.34,-82.66 608.19,-89.41"/>
</a>
</g>
</g>
<!-- Node13 -->
<g id="Node000013" class="node">
<title>Node13</title>
<g id="a_Node000013"><a xlink:title=" ">
<polygon fill="#e0e0e0" stroke="#999999" points="735,-85 685,-85 685,-66 735,-66 735,-85"/>
<text text-anchor="middle" x="710" y="-73" font-family="Helvetica,sans-Serif" font-size="10.00">atomic</text>
</a>
</g>
</g>
<!-- Node2&#45;&gt;Node13 -->
<g id="edge12_Node000002_Node000013" class="edge">
<title>Node2&#45;&gt;Node13</title>
<g id="a_edge12_Node000002_Node000013"><a xlink:title=" ">
<path fill="none" stroke="#63b8ff" d="M496.1,-121C539.96,-112.92 607.38,-100.08 674.83,-85.17"/>
<polygon fill="#63b8ff" stroke="#63b8ff" points="675.78,-88.55 684.78,-82.96 674.26,-81.71 675.78,-88.55"/>
</a>
</g>
</g>
<!-- Node14 -->
<g id="Node000014" class="node">
<title>Node14</title>
<g id="a_Node000014"><a xlink:title=" ">
<polygon fill="#e0e0e0" stroke="#999999" points="818.5,-85 753.5,-85 753.5,-66 818.5,-66 818.5,-85"/>
<text text-anchor="middle" x="786" y="-73" font-family="Helvetica,sans-Serif" font-size="10.00">functional</text>
</a>
</g>
</g>
<!-- Node2&#45;&gt;Node14 -->
<g id="edge13_Node000002_Node000014" class="edge">
<title>Node2&#45;&gt;Node14</title>
<g id="a_edge13_Node000002_Node000014"><a xlink:title=" ">
<path fill="none" stroke="#63b8ff" d="M499.72,-122.16C567.2,-112.35 683.96,-95.18 743.41,-85"/>
<polygon fill="#63b8ff" stroke="#63b8ff" points="744.22,-88.42 753.47,-83.25 743.02,-81.52 744.22,-88.42"/>
</a>
</g>
</g>
<!-- Node15 -->
<g id="Node000015" class="node">
<title>Node15</title>
<g id="a_Node000015"><a xlink:title=" ">
<polygon fill="#e0e0e0" stroke="#999999" points="993.5,-85 836.5,-85 836.5,-66 993.5,-66 993.5,-85"/>
<text text-anchor="middle" x="915" y="-73" font-family="Helvetica,sans-Serif" font-size="10.00">interfaces/logger_interface.h</text>
</a>
</g>
</g>
<!-- Node2&#45;&gt;Node15 -->
<g id="edge16_Node000002_Node000015" class="edge">
<title>Node2&#45;&gt;Node15</title>
<g id="a_edge16_Node000002_Node000015"><a xlink:title=" ">
<path fill="none" stroke="#63b8ff" d="M499.72,-122.2C502.86,-121.78 505.97,-121.38 509,-121 618.07,-107.3 743.94,-93.87 826.25,-85.41"/>
<polygon fill="#63b8ff" stroke="#63b8ff" points="826.73,-88.88 836.32,-84.38 826.02,-81.92 826.73,-88.88"/>
</a>
</g>
</g>
<!-- Node3&#45;&gt;Node4 -->
<g id="edge3_Node000003_Node000004" class="edge">
<title>Node3&#45;&gt;Node4</title>
<g id="a_edge3_Node000003_Node000004"><a xlink:title=" ">
<path fill="none" stroke="#63b8ff" d="M154.27,-65.98C128.19,-57.49 87.53,-43.77 53,-30 51.83,-29.53 50.63,-29.05 49.43,-28.55"/>
<polygon fill="#63b8ff" stroke="#63b8ff" points="50.81,-25.33 40.24,-24.57 48.03,-31.75 50.81,-25.33"/>
</a>
</g>
</g>
<!-- Node5 -->
<g id="Node000005" class="node">
<title>Node5</title>
<g id="a_Node000005"><a xlink:title=" ">
<polygon fill="#e0e0e0" stroke="#999999" points="127.5,-24.5 62.5,-24.5 62.5,-5.5 127.5,-5.5 127.5,-24.5"/>
<text text-anchor="middle" x="95" y="-12.5" font-family="Helvetica,sans-Serif" font-size="10.00">stdexcept</text>
</a>
</g>
</g>
<!-- Node3&#45;&gt;Node5 -->
<g id="edge4_Node000003_Node000005" class="edge">
<title>Node3&#45;&gt;Node5</title>
<g id="a_edge4_Node000003_Node000005"><a xlink:title=" ">
<path fill="none" stroke="#63b8ff" d="M168.31,-65.87C154.59,-56.54 132.5,-41.51 116.15,-30.38"/>
<polygon fill="#63b8ff" stroke="#63b8ff" points="117.98,-27.4 107.74,-24.67 114.04,-33.19 117.98,-27.4"/>
</a>
</g>
</g>
<!-- Node3&#45;&gt;Node6 -->
<g id="edge5_Node000003_Node000006" class="edge">
<title>Node3&#45;&gt;Node6</title>
<g id="a_edge5_Node000003_Node000006"><a xlink:title=" ">
<path fill="none" stroke="#63b8ff" d="M200.56,-65.98C221.09,-57.02 254.32,-42.53 283,-30 284,-29.56 285.02,-29.12 286.05,-28.67"/>
<polygon fill="#63b8ff" stroke="#63b8ff" points="287.61,-31.8 295.37,-24.59 284.81,-25.39 287.61,-31.8"/>
</a>
</g>
</g>
<!-- Node7 -->
<g id="Node000007" class="node">
<title>Node7</title>
<g id="a_Node000007"><a xlink:title=" ">
<polygon fill="#e0e0e0" stroke="#999999" points="274,-30 146,-30 146,0 274,0 274,-30"/>
<text text-anchor="start" x="154" y="-18" font-family="Helvetica,sans-Serif" font-size="10.00">thread_base/sync/error</text>
<text text-anchor="middle" x="210" y="-7" font-family="Helvetica,sans-Serif" font-size="10.00">_handling.h</text>
</a>
</g>
</g>
<!-- Node3&#45;&gt;Node7 -->
<g id="edge6_Node000003_Node000007" class="edge">
<title>Node3&#45;&gt;Node7</title>
<g id="a_edge6_Node000003_Node000007"><a xlink:title=" ">
<path fill="none" stroke="#63b8ff" d="M185.28,-65.87C188.78,-58.81 193.89,-48.5 198.56,-39.08"/>
<polygon fill="#63b8ff" stroke="#63b8ff" points="201.7,-40.63 203,-30.11 195.43,-37.52 201.7,-40.63"/>
</a>
</g>
</g>
</g>
</svg>
