<?xml version="1.0" encoding="UTF-8" standalone="no"?>
<!DOCTYPE svg PUBLIC "-//W3C//DTD SVG 1.1//EN"
 "http://www.w3.org/Graphics/SVG/1.1/DTD/svg11.dtd">
<!-- Generated by graphviz version 2.43.0 (0)
 -->
<!-- Title: overflow_policy.cpp Pages: 1 -->
<svg width="717pt" height="192pt"
 viewBox="0.00 0.00 716.50 192.00" xmlns="http://www.w3.org/2000/svg" xmlns:xlink="http://www.w3.org/1999/xlink">
<g id="graph0" class="graph" transform="scale(1 1) rotate(0) translate(4 188)">
<title>overflow_policy.cpp</title>
<!-- Node1 -->
<g id="Node000001" class="node">
<title>Node1</title>
<g id="a_Node000001"><a xlink:title=" ">
<polygon fill="#999999" stroke="#666666" points="534,-184 422,-184 422,-165 534,-165 534,-184"/>
<text text-anchor="middle" x="478" y="-172" font-family="Helvetica,sans-Serif" font-size="10.00">overflow_policy.cpp</text>
</a>
</g>
</g>
<!-- Node2 -->
<g id="Node000002" class="node">
<title>Node2</title>
<g id="a_Node000002"><a xlink:href="overflow__policy_8h.html" target="_top" xlink:title=" ">
<polygon fill="white" stroke="#666666" points="390.5,-129 289.5,-129 289.5,-110 390.5,-110 390.5,-129"/>
<text text-anchor="middle" x="340" y="-117" font-family="Helvetica,sans-Serif" font-size="10.00">overflow_policy.h</text>
</a>
</g>
</g>
<!-- Node1&#45;&gt;Node2 -->
<g id="edge1_Node000001_Node000002" class="edge">
<title>Node1&#45;&gt;Node2</title>
<g id="a_edge1_Node000001_Node000002"><a xlink:title=" ">
<path fill="none" stroke="#63b8ff" d="M455.83,-164.98C433.23,-156.3 397.94,-142.75 372.25,-132.88"/>
<polygon fill="#63b8ff" stroke="#63b8ff" points="373.17,-129.49 362.58,-129.17 370.66,-136.02 373.17,-129.49"/>
</a>
</g>
</g>
<!-- Node15 -->
<g id="Node000015" class="node">
<title>Node15</title>
<g id="a_Node000015"><a xlink:title=" ">
<polygon fill="#e0e0e0" stroke="#999999" points="473,-129 409,-129 409,-110 473,-110 473,-129"/>
<text text-anchor="middle" x="441" y="-117" font-family="Helvetica,sans-Serif" font-size="10.00">algorithm</text>
</a>
</g>
</g>
<!-- Node1&#45;&gt;Node15 -->
<g id="edge17_Node000001_Node000015" class="edge">
<title>Node1&#45;&gt;Node15</title>
<g id="a_edge17_Node000001_Node000015"><a xlink:title=" ">
<path fill="none" stroke="#63b8ff" d="M471.89,-164.75C466.72,-157.34 459.15,-146.5 452.81,-137.41"/>
<polygon fill="#63b8ff" stroke="#63b8ff" points="455.59,-135.29 447,-129.09 449.85,-139.29 455.59,-135.29"/>
</a>
</g>
</g>
<!-- Node16 -->
<g id="Node000016" class="node">
<title>Node16</title>
<g id="a_Node000016"><a xlink:title=" ">
<polygon fill="#e0e0e0" stroke="#999999" points="538.5,-129 491.5,-129 491.5,-110 538.5,-110 538.5,-129"/>
<text text-anchor="middle" x="515" y="-117" font-family="Helvetica,sans-Serif" font-size="10.00">deque</text>
</a>
</g>
</g>
<!-- Node1&#45;&gt;Node16 -->
<g id="edge18_Node000001_Node000016" class="edge">
<title>Node1&#45;&gt;Node16</title>
<g id="a_edge18_Node000001_Node000016"><a xlink:title=" ">
<path fill="none" stroke="#63b8ff" d="M484.11,-164.75C489.28,-157.34 496.85,-146.5 503.19,-137.41"/>
<polygon fill="#63b8ff" stroke="#63b8ff" points="506.15,-139.29 509,-129.09 500.41,-135.29 506.15,-139.29"/>
</a>
</g>
</g>
<!-- Node17 -->
<g id="Node000017" class="node">
<title>Node17</title>
<g id="a_Node000017"><a xlink:title=" ">
<polygon fill="#e0e0e0" stroke="#999999" points="613,-129 557,-129 557,-110 613,-110 613,-129"/>
<text text-anchor="middle" x="585" y="-117" font-family="Helvetica,sans-Serif" font-size="10.00">numeric</text>
</a>
</g>
</g>
<!-- Node1&#45;&gt;Node17 -->
<g id="edge19_Node000001_Node000017" class="edge">
<title>Node1&#45;&gt;Node17</title>
<g id="a_edge19_Node000001_Node000017"><a xlink:title=" ">
<path fill="none" stroke="#63b8ff" d="M495.19,-164.98C512.25,-156.54 538.63,-143.47 558.4,-133.68"/>
<polygon fill="#63b8ff" stroke="#63b8ff" points="560.09,-136.75 567.5,-129.17 556.98,-130.47 560.09,-136.75"/>
</a>
</g>
</g>
<!-- Node3 -->
<g id="Node000003" class="node">
<title>Node3</title>
<g id="a_Node000003"><a xlink:href="error__codes_8h.html" target="_top" xlink:title=" ">
<polygon fill="white" stroke="#666666" points="298,-74 206,-74 206,-55 298,-55 298,-74"/>
<text text-anchor="middle" x="252" y="-62" font-family="Helvetica,sans-Serif" font-size="10.00">../error_codes.h</text>
</a>
</g>
</g>
<!-- Node2&#45;&gt;Node3 -->
<g id="edge2_Node000002_Node000003" class="edge">
<title>Node2&#45;&gt;Node3</title>
<g id="a_edge2_Node000002_Node000003"><a xlink:title=" ">
<path fill="none" stroke="#63b8ff" d="M325.86,-109.98C312.21,-101.77 291.31,-89.18 275.22,-79.49"/>
<polygon fill="#63b8ff" stroke="#63b8ff" points="276.77,-76.33 266.4,-74.17 273.16,-82.33 276.77,-76.33"/>
</a>
</g>
</g>
<!-- Node7 -->
<g id="Node000007" class="node">
<title>Node7</title>
<g id="a_Node000007"><a xlink:title=" ">
<polygon fill="#e0e0e0" stroke="#999999" points="58,-19 0,-19 0,0 58,0 58,-19"/>
<text text-anchor="middle" x="29" y="-7" font-family="Helvetica,sans-Serif" font-size="10.00">memory</text>
</a>
</g>
</g>
<!-- Node2&#45;&gt;Node7 -->
<g id="edge6_Node000002_Node000007" class="edge">
<title>Node2&#45;&gt;Node7</title>
<g id="a_edge6_Node000002_Node000007"><a xlink:title=" ">
<path fill="none" stroke="#63b8ff" d="M289.44,-116.38C217.79,-112.43 91.48,-101.65 56,-74 42,-63.08 35.16,-43.52 31.88,-28.99"/>
<polygon fill="#63b8ff" stroke="#63b8ff" points="35.3,-28.25 30.01,-19.07 28.43,-29.55 35.3,-28.25"/>
</a>
</g>
</g>
<!-- Node8 -->
<g id="Node000008" class="node">
<title>Node8</title>
<g id="a_Node000008"><a xlink:title=" ">
<polygon fill="#e0e0e0" stroke="#999999" points="363.5,-74 316.5,-74 316.5,-55 363.5,-55 363.5,-74"/>
<text text-anchor="middle" x="340" y="-62" font-family="Helvetica,sans-Serif" font-size="10.00">queue</text>
</a>
</g>
</g>
<!-- Node2&#45;&gt;Node8 -->
<g id="edge7_Node000002_Node000008" class="edge">
<title>Node2&#45;&gt;Node8</title>
<g id="a_edge7_Node000002_Node000008"><a xlink:title=" ">
<path fill="none" stroke="#63b8ff" d="M340,-109.75C340,-102.8 340,-92.85 340,-84.13"/>
<polygon fill="#63b8ff" stroke="#63b8ff" points="343.5,-84.09 340,-74.09 336.5,-84.09 343.5,-84.09"/>
</a>
</g>
</g>
<!-- Node9 -->
<g id="Node000009" class="node">
<title>Node9</title>
<g id="a_Node000009"><a xlink:title=" ">
<polygon fill="#e0e0e0" stroke="#999999" points="135,-19 87,-19 87,0 135,0 135,-19"/>
<text text-anchor="middle" x="111" y="-7" font-family="Helvetica,sans-Serif" font-size="10.00">mutex</text>
</a>
</g>
</g>
<!-- Node2&#45;&gt;Node9 -->
<g id="edge8_Node000002_Node000009" class="edge">
<title>Node2&#45;&gt;Node9</title>
<g id="a_edge8_Node000002_Node000009"><a xlink:title=" ">
<path fill="none" stroke="#63b8ff" d="M289.44,-117.84C218.05,-115.7 93.25,-107.19 65,-74 51.35,-57.96 70.99,-38.12 88.68,-24.93"/>
<polygon fill="#63b8ff" stroke="#63b8ff" points="90.89,-27.65 97.05,-19.03 86.85,-21.93 90.89,-27.65"/>
</a>
</g>
</g>
<!-- Node10 -->
<g id="Node000010" class="node">
<title>Node10</title>
<g id="a_Node000010"><a xlink:title=" ">
<polygon fill="#e0e0e0" stroke="#999999" points="488.5,-74 381.5,-74 381.5,-55 488.5,-55 488.5,-74"/>
<text text-anchor="middle" x="435" y="-62" font-family="Helvetica,sans-Serif" font-size="10.00">condition_variable</text>
</a>
</g>
</g>
<!-- Node2&#45;&gt;Node10 -->
<g id="edge9_Node000002_Node000010" class="edge">
<title>Node2&#45;&gt;Node10</title>
<g id="a_edge9_Node000002_Node000010"><a xlink:title=" ">
<path fill="none" stroke="#63b8ff" d="M355.26,-109.98C370.13,-101.69 392.98,-88.94 410.42,-79.22"/>
<polygon fill="#63b8ff" stroke="#63b8ff" points="412.43,-82.1 419.46,-74.17 409.02,-75.99 412.43,-82.1"/>
</a>
</g>
</g>
<!-- Node11 -->
<g id="Node000011" class="node">
<title>Node11</title>
<g id="a_Node000011"><a xlink:title=" ">
<polygon fill="#e0e0e0" stroke="#999999" points="557,-74 507,-74 507,-55 557,-55 557,-74"/>
<text text-anchor="middle" x="532" y="-62" font-family="Helvetica,sans-Serif" font-size="10.00">chrono</text>
</a>
</g>
</g>
<!-- Node2&#45;&gt;Node11 -->
<g id="edge10_Node000002_Node000011" class="edge">
<title>Node2&#45;&gt;Node11</title>
<g id="a_edge10_Node000002_Node000011"><a xlink:title=" ">
<path fill="none" stroke="#63b8ff" d="M370.85,-109.98C405.2,-100.5 460.61,-85.21 496.67,-75.25"/>
<polygon fill="#63b8ff" stroke="#63b8ff" points="498.04,-78.51 506.75,-72.47 496.17,-71.76 498.04,-78.51"/>
</a>
</g>
</g>
<!-- Node12 -->
<g id="Node000012" class="node">
<title>Node12</title>
<g id="a_Node000012"><a xlink:title=" ">
<polygon fill="#e0e0e0" stroke="#999999" points="625,-74 575,-74 575,-55 625,-55 625,-74"/>
<text text-anchor="middle" x="600" y="-62" font-family="Helvetica,sans-Serif" font-size="10.00">atomic</text>
</a>
</g>
</g>
<!-- Node2&#45;&gt;Node12 -->
<g id="edge11_Node000002_Node000012" class="edge">
<title>Node2&#45;&gt;Node12</title>
<g id="a_edge11_Node000002_Node000012"><a xlink:title=" ">
<path fill="none" stroke="#63b8ff" d="M386.89,-109.98C430.55,-101.89 497.68,-89.04 564.87,-74.16"/>
<polygon fill="#63b8ff" stroke="#63b8ff" points="565.78,-77.55 574.78,-71.96 564.26,-70.72 565.78,-77.55"/>
</a>
</g>
</g>
<!-- Node13 -->
<g id="Node000013" class="node">
<title>Node13</title>
<g id="a_Node000013"><a xlink:title=" ">
<polygon fill="#e0e0e0" stroke="#999999" points="708.5,-74 643.5,-74 643.5,-55 708.5,-55 708.5,-74"/>
<text text-anchor="middle" x="676" y="-62" font-family="Helvetica,sans-Serif" font-size="10.00">functional</text>
</a>
</g>
</g>
<!-- Node2&#45;&gt;Node13 -->
<g id="edge12_Node000002_Node000013" class="edge">
<title>Node2&#45;&gt;Node13</title>
<g id="a_edge12_Node000002_Node000013"><a xlink:title=" ">
<path fill="none" stroke="#63b8ff" d="M390.55,-111.16C457.8,-101.34 574.16,-84.16 633.43,-74"/>
<polygon fill="#63b8ff" stroke="#63b8ff" points="634.22,-77.42 643.47,-72.25 633.02,-70.52 634.22,-77.42"/>
</a>
</g>
</g>
<!-- Node14 -->
<g id="Node000014" class="node">
<title>Node14</title>
<g id="a_Node000014"><a xlink:href="logger__interface_8h.html" target="_top" xlink:title=" ">
<polygon fill="white" stroke="#666666" points="188,-74 74,-74 74,-55 188,-55 188,-74"/>
<text text-anchor="middle" x="131" y="-62" font-family="Helvetica,sans-Serif" font-size="10.00">../logger_interface.h</text>
</a>
</g>
</g>
<!-- Node2&#45;&gt;Node14 -->
<g id="edge13_Node000002_Node000014" class="edge">
<title>Node2&#45;&gt;Node14</title>
<g id="a_edge13_Node000002_Node000014"><a xlink:title=" ">
<path fill="none" stroke="#63b8ff" d="M306.42,-109.98C270.65,-100.91 213.88,-86.52 174.66,-76.57"/>
<polygon fill="#63b8ff" stroke="#63b8ff" points="175.4,-73.15 164.84,-74.08 173.68,-79.93 175.4,-73.15"/>
</a>
</g>
</g>
<!-- Node4 -->
<g id="Node000004" class="node">
<title>Node4</title>
<g id="a_Node000004"><a xlink:title=" ">
<polygon fill="#e0e0e0" stroke="#999999" points="202,-19 158,-19 158,0 202,0 202,-19"/>
<text text-anchor="middle" x="180" y="-7" font-family="Helvetica,sans-Serif" font-size="10.00">string</text>
</a>
</g>
</g>
<!-- Node3&#45;&gt;Node4 -->
<g id="edge3_Node000003_Node000004" class="edge">
<title>Node3&#45;&gt;Node4</title>
<g id="a_edge3_Node000003_Node000004"><a xlink:title=" ">
<path fill="none" stroke="#63b8ff" d="M240.43,-54.98C229.58,-47 213.12,-34.88 200.12,-25.31"/>
<polygon fill="#63b8ff" stroke="#63b8ff" points="201.91,-22.28 191.78,-19.17 197.76,-27.92 201.91,-22.28"/>
</a>
</g>
</g>
<!-- Node5 -->
<g id="Node000005" class="node">
<title>Node5</title>
<g id="a_Node000005"><a xlink:title=" ">
<polygon fill="#e0e0e0" stroke="#999999" points="349,-19 293,-19 293,0 349,0 349,-19"/>
<text text-anchor="middle" x="321" y="-7" font-family="Helvetica,sans-Serif" font-size="10.00">optional</text>
</a>
</g>
</g>
<!-- Node3&#45;&gt;Node5 -->
<g id="edge4_Node000003_Node000005" class="edge">
<title>Node3&#45;&gt;Node5</title>
<g id="a_edge4_Node000003_Node000005"><a xlink:title=" ">
<path fill="none" stroke="#63b8ff" d="M263.09,-54.98C273.49,-47 289.26,-34.88 301.72,-25.31"/>
<polygon fill="#63b8ff" stroke="#63b8ff" points="303.91,-28.04 309.71,-19.17 299.65,-22.49 303.91,-28.04"/>
</a>
</g>
</g>
<!-- Node6 -->
<g id="Node000006" class="node">
<title>Node6</title>
<g id="a_Node000006"><a xlink:title=" ">
<polygon fill="#e0e0e0" stroke="#999999" points="274.5,-19 223.5,-19 223.5,0 274.5,0 274.5,-19"/>
<text text-anchor="middle" x="249" y="-7" font-family="Helvetica,sans-Serif" font-size="10.00">variant</text>
</a>
</g>
</g>
<!-- Node3&#45;&gt;Node6 -->
<g id="edge5_Node000003_Node000006" class="edge">
<title>Node3&#45;&gt;Node6</title>
<g id="a_edge5_Node000003_Node000006"><a xlink:title=" ">
<path fill="none" stroke="#63b8ff" d="M251.5,-54.75C251.11,-47.8 250.55,-37.85 250.05,-29.13"/>
<polygon fill="#63b8ff" stroke="#63b8ff" points="253.55,-28.88 249.49,-19.09 246.56,-29.27 253.55,-28.88"/>
</a>
</g>
</g>
<!-- Node14&#45;&gt;Node4 -->
<g id="edge16_Node000014_Node000004" class="edge">
<title>Node14&#45;&gt;Node4</title>
<g id="a_edge16_Node000014_Node000004"><a xlink:title=" ">
<path fill="none" stroke="#63b8ff" d="M139.09,-54.75C146.16,-47.11 156.59,-35.82 165.15,-26.56"/>
<polygon fill="#63b8ff" stroke="#63b8ff" points="167.84,-28.81 172.06,-19.09 162.7,-24.06 167.84,-28.81"/>
</a>
</g>
</g>
<!-- Node14&#45;&gt;Node7 -->
<g id="edge14_Node000014_Node000007" class="edge">
<title>Node14&#45;&gt;Node7</title>
<g id="a_edge14_Node000014_Node000007"><a xlink:title=" ">
<path fill="none" stroke="#63b8ff" d="M114.61,-54.98C98.43,-46.57 73.43,-33.59 54.62,-23.81"/>
<polygon fill="#63b8ff" stroke="#63b8ff" points="56.17,-20.68 45.69,-19.17 52.95,-26.89 56.17,-20.68"/>
</a>
</g>
</g>
<!-- Node14&#45;&gt;Node9 -->
<g id="edge15_Node000014_Node000009" class="edge">
<title>Node14&#45;&gt;Node9</title>
<g id="a_edge15_Node000014_Node000009"><a xlink:title=" ">
<path fill="none" stroke="#63b8ff" d="M127.7,-54.75C125.02,-47.65 121.15,-37.4 117.81,-28.56"/>
<polygon fill="#63b8ff" stroke="#63b8ff" points="121.05,-27.21 114.24,-19.09 114.5,-29.68 121.05,-27.21"/>
</a>
</g>
</g>
</g>
</svg>
