<?xml version="1.0" encoding="UTF-8" standalone="no"?>
<!DOCTYPE svg PUBLIC "-//W3C//DTD SVG 1.1//EN"
 "http://www.w3.org/Graphics/SVG/1.1/DTD/svg11.dtd">
<!-- Generated by graphviz version 2.43.0 (0)
 -->
<!-- Title: /home/runner/work/logger_system/logger_system/sources/logger/flow/overflow_policy.h Pages: 1 -->
<svg width="1002pt" height="170pt"
 viewBox="0.00 0.00 1001.50 170.00" xmlns="http://www.w3.org/2000/svg" xmlns:xlink="http://www.w3.org/1999/xlink">
<g id="graph0" class="graph" transform="scale(1 1) rotate(0) translate(4 166)">
<title>/home/runner/work/logger_system/logger_system/sources/logger/flow/overflow_policy.h</title>
<!-- Node1 -->
<g id="Node000001" class="node">
<title>Node1</title>
<g id="a_Node000001"><a xlink:title=" ">
<polygon fill="#999999" stroke="#666666" points="535.5,-162 362.5,-162 362.5,-121 535.5,-121 535.5,-162"/>
<text text-anchor="start" x="370.5" y="-150" font-family="Helvetica,sans-Serif" font-size="10.00">/home/runner/work/logger</text>
<text text-anchor="start" x="370.5" y="-139" font-family="Helvetica,sans-Serif" font-size="10.00">_system/logger_system/sources</text>
<text text-anchor="middle" x="449" y="-128" font-family="Helvetica,sans-Serif" font-size="10.00">/logger/flow/overflow_policy.h</text>
</a>
</g>
</g>
<!-- Node2 -->
<g id="Node000002" class="node">
<title>Node2</title>
<g id="a_Node000002"><a xlink:href="error__codes_8h.html" target="_top" xlink:title=" ">
<polygon fill="white" stroke="#666666" points="227,-85 135,-85 135,-66 227,-66 227,-85"/>
<text text-anchor="middle" x="181" y="-73" font-family="Helvetica,sans-Serif" font-size="10.00">../error_codes.h</text>
</a>
</g>
</g>
<!-- Node1&#45;&gt;Node2 -->
<g id="edge1_Node000001_Node000002" class="edge">
<title>Node1&#45;&gt;Node2</title>
<g id="a_edge1_Node000001_Node000002"><a xlink:title=" ">
<path fill="none" stroke="#63b8ff" d="M367.13,-120.95C320.93,-109.92 264.92,-96.54 226.49,-87.36"/>
<polygon fill="#63b8ff" stroke="#63b8ff" points="227.17,-83.93 216.63,-85.01 225.54,-90.74 227.17,-83.93"/>
</a>
</g>
</g>
<!-- Node3 -->
<g id="Node000003" class="node">
<title>Node3</title>
<g id="a_Node000003"><a xlink:title=" ">
<polygon fill="#e0e0e0" stroke="#999999" points="44,-24.5 0,-24.5 0,-5.5 44,-5.5 44,-24.5"/>
<text text-anchor="middle" x="22" y="-12.5" font-family="Helvetica,sans-Serif" font-size="10.00">string</text>
</a>
</g>
</g>
<!-- Node1&#45;&gt;Node3 -->
<g id="edge14_Node000001_Node000003" class="edge">
<title>Node1&#45;&gt;Node3</title>
<g id="a_edge14_Node000001_Node000003"><a xlink:title=" ">
<path fill="none" stroke="#63b8ff" d="M362.39,-135.39C295.8,-129.16 202.55,-115.39 126,-85 92.84,-71.84 59.32,-47.07 39.62,-31.06"/>
<polygon fill="#63b8ff" stroke="#63b8ff" points="41.75,-28.29 31.82,-24.6 37.28,-33.68 41.75,-28.29"/>
</a>
</g>
</g>
<!-- Node5 -->
<g id="Node000005" class="node">
<title>Node5</title>
<g id="a_Node000005"><a xlink:title=" ">
<polygon fill="#e0e0e0" stroke="#999999" points="337.5,-24.5 292.5,-24.5 292.5,-5.5 337.5,-5.5 337.5,-24.5"/>
<text text-anchor="middle" x="315" y="-12.5" font-family="Helvetica,sans-Serif" font-size="10.00">utility</text>
</a>
</g>
</g>
<!-- Node1&#45;&gt;Node5 -->
<g id="edge13_Node000001_Node000005" class="edge">
<title>Node1&#45;&gt;Node5</title>
<g id="a_edge13_Node000001_Node000005"><a xlink:title=" ">
<path fill="none" stroke="#63b8ff" d="M362.46,-134.35C329.29,-127.26 294.52,-113.03 274,-85 261.17,-67.48 279.16,-45.72 295.19,-31.38"/>
<polygon fill="#63b8ff" stroke="#63b8ff" points="297.83,-33.73 303.23,-24.61 293.32,-28.38 297.83,-33.73"/>
</a>
</g>
</g>
<!-- Node7 -->
<g id="Node000007" class="node">
<title>Node7</title>
<g id="a_Node000007"><a xlink:title=" ">
<polygon fill="#e0e0e0" stroke="#999999" points="341,-85 283,-85 283,-66 341,-66 341,-85"/>
<text text-anchor="middle" x="312" y="-73" font-family="Helvetica,sans-Serif" font-size="10.00">memory</text>
</a>
</g>
</g>
<!-- Node1&#45;&gt;Node7 -->
<g id="edge6_Node000001_Node000007" class="edge">
<title>Node1&#45;&gt;Node7</title>
<g id="a_edge6_Node000001_Node000007"><a xlink:title=" ">
<path fill="none" stroke="#63b8ff" d="M407.15,-120.95C385.21,-110.7 358.94,-98.43 339.57,-89.38"/>
<polygon fill="#63b8ff" stroke="#63b8ff" points="340.93,-86.15 330.39,-85.09 337.97,-92.5 340.93,-86.15"/>
</a>
</g>
</g>
<!-- Node8 -->
<g id="Node000008" class="node">
<title>Node8</title>
<g id="a_Node000008"><a xlink:title=" ">
<polygon fill="#e0e0e0" stroke="#999999" points="406.5,-85 359.5,-85 359.5,-66 406.5,-66 406.5,-85"/>
<text text-anchor="middle" x="383" y="-73" font-family="Helvetica,sans-Serif" font-size="10.00">queue</text>
</a>
</g>
</g>
<!-- Node1&#45;&gt;Node8 -->
<g id="edge7_Node000001_Node000008" class="edge">
<title>Node1&#45;&gt;Node8</title>
<g id="a_edge7_Node000001_Node000008"><a xlink:title=" ">
<path fill="none" stroke="#63b8ff" d="M428.84,-120.95C419.34,-111.74 408.16,-100.9 399.22,-92.23"/>
<polygon fill="#63b8ff" stroke="#63b8ff" points="401.65,-89.71 392.03,-85.26 396.78,-94.73 401.65,-89.71"/>
</a>
</g>
</g>
<!-- Node9 -->
<g id="Node000009" class="node">
<title>Node9</title>
<g id="a_Node000009"><a xlink:title=" ">
<polygon fill="#e0e0e0" stroke="#999999" points="473,-85 425,-85 425,-66 473,-66 473,-85"/>
<text text-anchor="middle" x="449" y="-73" font-family="Helvetica,sans-Serif" font-size="10.00">mutex</text>
</a>
</g>
</g>
<!-- Node1&#45;&gt;Node9 -->
<g id="edge8_Node000001_Node000009" class="edge">
<title>Node1&#45;&gt;Node9</title>
<g id="a_edge8_Node000001_Node000009"><a xlink:title=" ">
<path fill="none" stroke="#63b8ff" d="M449,-120.95C449,-112.85 449,-103.5 449,-95.47"/>
<polygon fill="#63b8ff" stroke="#63b8ff" points="452.5,-95.26 449,-85.26 445.5,-95.26 452.5,-95.26"/>
</a>
</g>
</g>
<!-- Node10 -->
<g id="Node000010" class="node">
<title>Node10</title>
<g id="a_Node000010"><a xlink:title=" ">
<polygon fill="#e0e0e0" stroke="#999999" points="598.5,-85 491.5,-85 491.5,-66 598.5,-66 598.5,-85"/>
<text text-anchor="middle" x="545" y="-73" font-family="Helvetica,sans-Serif" font-size="10.00">condition_variable</text>
</a>
</g>
</g>
<!-- Node1&#45;&gt;Node10 -->
<g id="edge9_Node000001_Node000010" class="edge">
<title>Node1&#45;&gt;Node10</title>
<g id="a_edge9_Node000001_Node000010"><a xlink:title=" ">
<path fill="none" stroke="#63b8ff" d="M478.32,-120.95C492.93,-111.21 510.27,-99.65 523.6,-90.76"/>
<polygon fill="#63b8ff" stroke="#63b8ff" points="525.73,-93.55 532.11,-85.09 521.85,-87.73 525.73,-93.55"/>
</a>
</g>
</g>
<!-- Node11 -->
<g id="Node000011" class="node">
<title>Node11</title>
<g id="a_Node000011"><a xlink:title=" ">
<polygon fill="#e0e0e0" stroke="#999999" points="667,-85 617,-85 617,-66 667,-66 667,-85"/>
<text text-anchor="middle" x="642" y="-73" font-family="Helvetica,sans-Serif" font-size="10.00">chrono</text>
</a>
</g>
</g>
<!-- Node1&#45;&gt;Node11 -->
<g id="edge10_Node000001_Node000011" class="edge">
<title>Node1&#45;&gt;Node11</title>
<g id="a_edge10_Node000001_Node000011"><a xlink:title=" ">
<path fill="none" stroke="#63b8ff" d="M507.96,-120.95C540.34,-110.21 579.41,-97.26 606.99,-88.11"/>
<polygon fill="#63b8ff" stroke="#63b8ff" points="608.2,-91.39 616.59,-84.92 606,-84.75 608.2,-91.39"/>
</a>
</g>
</g>
<!-- Node12 -->
<g id="Node000012" class="node">
<title>Node12</title>
<g id="a_Node000012"><a xlink:title=" ">
<polygon fill="#e0e0e0" stroke="#999999" points="735,-85 685,-85 685,-66 735,-66 735,-85"/>
<text text-anchor="middle" x="710" y="-73" font-family="Helvetica,sans-Serif" font-size="10.00">atomic</text>
</a>
</g>
</g>
<!-- Node1&#45;&gt;Node12 -->
<g id="edge11_Node000001_Node000012" class="edge">
<title>Node1&#45;&gt;Node12</title>
<g id="a_edge11_Node000001_Node000012"><a xlink:title=" ">
<path fill="none" stroke="#63b8ff" d="M529.39,-120.95C570.36,-110.96 621.22,-98.53 675.03,-85.23"/>
<polygon fill="#63b8ff" stroke="#63b8ff" points="675.89,-88.63 684.75,-82.83 674.2,-81.83 675.89,-88.63"/>
</a>
</g>
</g>
<!-- Node13 -->
<g id="Node000013" class="node">
<title>Node13</title>
<g id="a_Node000013"><a xlink:title=" ">
<polygon fill="#e0e0e0" stroke="#999999" points="818.5,-85 753.5,-85 753.5,-66 818.5,-66 818.5,-85"/>
<text text-anchor="middle" x="786" y="-73" font-family="Helvetica,sans-Serif" font-size="10.00">functional</text>
</a>
</g>
</g>
<!-- Node1&#45;&gt;Node13 -->
<g id="edge12_Node000001_Node000013" class="edge">
<title>Node1&#45;&gt;Node13</title>
<g id="a_edge12_Node000001_Node000013"><a xlink:title=" ">
<path fill="none" stroke="#63b8ff" d="M535.55,-124.54C591.84,-114.08 667.13,-99.96 743.2,-85.13"/>
<polygon fill="#63b8ff" stroke="#63b8ff" points="744.31,-88.48 753.45,-83.13 742.96,-81.61 744.31,-88.48"/>
</a>
</g>
</g>
<!-- Node14 -->
<g id="Node000014" class="node">
<title>Node14</title>
<g id="a_Node000014"><a xlink:title=" ">
<polygon fill="#e0e0e0" stroke="#999999" points="993.5,-85 836.5,-85 836.5,-66 993.5,-66 993.5,-85"/>
<text text-anchor="middle" x="915" y="-73" font-family="Helvetica,sans-Serif" font-size="10.00">interfaces/logger_interface.h</text>
</a>
</g>
</g>
<!-- Node1&#45;&gt;Node14 -->
<g id="edge15_Node000001_Node000014" class="edge">
<title>Node1&#45;&gt;Node14</title>
<g id="a_edge15_Node000001_Node000014"><a xlink:title=" ">
<path fill="none" stroke="#63b8ff" d="M535.56,-128.61C624.12,-116.45 760.15,-97.77 843.01,-86.39"/>
<polygon fill="#63b8ff" stroke="#63b8ff" points="843.66,-89.83 853.1,-85 842.71,-82.9 843.66,-89.83"/>
</a>
</g>
</g>
<!-- Node2&#45;&gt;Node3 -->
<g id="edge2_Node000002_Node000003" class="edge">
<title>Node2&#45;&gt;Node3</title>
<g id="a_edge2_Node000002_Node000003"><a xlink:title=" ">
<path fill="none" stroke="#63b8ff" d="M154.27,-65.98C128.19,-57.49 87.53,-43.77 53,-30 51.83,-29.53 50.63,-29.05 49.43,-28.55"/>
<polygon fill="#63b8ff" stroke="#63b8ff" points="50.81,-25.33 40.24,-24.57 48.03,-31.75 50.81,-25.33"/>
</a>
</g>
</g>
<!-- Node4 -->
<g id="Node000004" class="node">
<title>Node4</title>
<g id="a_Node000004"><a xlink:title=" ">
<polygon fill="#e0e0e0" stroke="#999999" points="127.5,-24.5 62.5,-24.5 62.5,-5.5 127.5,-5.5 127.5,-24.5"/>
<text text-anchor="middle" x="95" y="-12.5" font-family="Helvetica,sans-Serif" font-size="10.00">stdexcept</text>
</a>
</g>
</g>
<!-- Node2&#45;&gt;Node4 -->
<g id="edge3_Node000002_Node000004" class="edge">
<title>Node2&#45;&gt;Node4</title>
<g id="a_edge3_Node000002_Node000004"><a xlink:title=" ">
<path fill="none" stroke="#63b8ff" d="M168.31,-65.87C154.59,-56.54 132.5,-41.51 116.15,-30.38"/>
<polygon fill="#63b8ff" stroke="#63b8ff" points="117.98,-27.4 107.74,-24.67 114.04,-33.19 117.98,-27.4"/>
</a>
</g>
</g>
<!-- Node2&#45;&gt;Node5 -->
<g id="edge4_Node000002_Node000005" class="edge">
<title>Node2&#45;&gt;Node5</title>
<g id="a_edge4_Node000002_Node000005"><a xlink:title=" ">
<path fill="none" stroke="#63b8ff" d="M200.56,-65.98C221.09,-57.02 254.32,-42.53 283,-30 284,-29.56 285.02,-29.12 286.05,-28.67"/>
<polygon fill="#63b8ff" stroke="#63b8ff" points="287.61,-31.8 295.37,-24.59 284.81,-25.39 287.61,-31.8"/>
</a>
</g>
</g>
<!-- Node6 -->
<g id="Node000006" class="node">
<title>Node6</title>
<g id="a_Node000006"><a xlink:title=" ">
<polygon fill="#e0e0e0" stroke="#999999" points="274,-30 146,-30 146,0 274,0 274,-30"/>
<text text-anchor="start" x="154" y="-18" font-family="Helvetica,sans-Serif" font-size="10.00">thread_base/sync/error</text>
<text text-anchor="middle" x="210" y="-7" font-family="Helvetica,sans-Serif" font-size="10.00">_handling.h</text>
</a>
</g>
</g>
<!-- Node2&#45;&gt;Node6 -->
<g id="edge5_Node000002_Node000006" class="edge">
<title>Node2&#45;&gt;Node6</title>
<g id="a_edge5_Node000002_Node000006"><a xlink:title=" ">
<path fill="none" stroke="#63b8ff" d="M185.28,-65.87C188.78,-58.81 193.89,-48.5 198.56,-39.08"/>
<polygon fill="#63b8ff" stroke="#63b8ff" points="201.7,-40.63 203,-30.11 195.43,-37.52 201.7,-40.63"/>
</a>
</g>
</g>
</g>
</svg>
