<?xml version="1.0" encoding="UTF-8" standalone="no"?>
<!DOCTYPE svg PUBLIC "-//W3C//DTD SVG 1.1//EN"
 "http://www.w3.org/Graphics/SVG/1.1/DTD/svg11.dtd">
<!-- Generated by graphviz version 2.43.0 (0)
 -->
<!-- Title: rotating_file_writer.cpp Pages: 1 -->
<svg width="1037pt" height="368pt"
 viewBox="0.00 0.00 1037.00 368.00" xmlns="http://www.w3.org/2000/svg" xmlns:xlink="http://www.w3.org/1999/xlink">
<g id="graph0" class="graph" transform="scale(1 1) rotate(0) translate(4 364)">
<title>rotating_file_writer.cpp</title>
<!-- Node1 -->
<g id="Node000001" class="node">
<title>Node1</title>
<g id="a_Node000001"><a xlink:title=" ">
<polygon fill="#999999" stroke="#666666" points="894,-360 766,-360 766,-341 894,-341 894,-360"/>
<text text-anchor="middle" x="830" y="-348" font-family="Helvetica,sans-Serif" font-size="10.00">rotating_file_writer.cpp</text>
</a>
</g>
</g>
<!-- Node2 -->
<g id="Node000002" class="node">
<title>Node2</title>
<g id="a_Node000002"><a xlink:href="rotating__file__writer_8h.html" target="_top" xlink:title=" ">
<polygon fill="white" stroke="#666666" points="740.5,-305 623.5,-305 623.5,-286 740.5,-286 740.5,-305"/>
<text text-anchor="middle" x="682" y="-293" font-family="Helvetica,sans-Serif" font-size="10.00">rotating_file_writer.h</text>
</a>
</g>
</g>
<!-- Node1&#45;&gt;Node2 -->
<g id="edge1_Node000001_Node000002" class="edge">
<title>Node1&#45;&gt;Node2</title>
<g id="a_edge1_Node000001_Node000002"><a xlink:title=" ">
<path fill="none" stroke="#63b8ff" d="M806.22,-340.98C781.77,-332.23 743.47,-318.51 715.85,-308.62"/>
<polygon fill="#63b8ff" stroke="#63b8ff" points="716.81,-305.25 706.21,-305.17 714.45,-311.84 716.81,-305.25"/>
</a>
</g>
</g>
<!-- Node20 -->
<g id="Node000020" class="node">
<title>Node20</title>
<g id="a_Node000020"><a xlink:title=" ">
<polygon fill="#e0e0e0" stroke="#999999" points="64,-19 0,-19 0,0 64,0 64,-19"/>
<text text-anchor="middle" x="32" y="-7" font-family="Helvetica,sans-Serif" font-size="10.00">algorithm</text>
</a>
</g>
</g>
<!-- Node1&#45;&gt;Node20 -->
<g id="edge40_Node000001_Node000020" class="edge">
<title>Node1&#45;&gt;Node20</title>
<g id="a_edge40_Node000001_Node000020"><a xlink:title=" ">
<path fill="none" stroke="#63b8ff" d="M765.72,-347.58C575.41,-341.04 28,-315.79 28,-241.5 28,-241.5 28,-241.5 28,-124 28,-90.59 29.75,-51.68 30.94,-29.19"/>
<polygon fill="#63b8ff" stroke="#63b8ff" points="34.44,-29.22 31.49,-19.04 27.45,-28.83 34.44,-29.22"/>
</a>
</g>
</g>
<!-- Node25 -->
<g id="Node000025" class="node">
<title>Node25</title>
<g id="a_Node000025"><a xlink:title=" ">
<polygon fill="#e0e0e0" stroke="#999999" points="827,-305 759,-305 759,-286 827,-286 827,-305"/>
<text text-anchor="middle" x="793" y="-293" font-family="Helvetica,sans-Serif" font-size="10.00">filesystem</text>
</a>
</g>
</g>
<!-- Node1&#45;&gt;Node25 -->
<g id="edge39_Node000001_Node000025" class="edge">
<title>Node1&#45;&gt;Node25</title>
<g id="a_edge39_Node000001_Node000025"><a xlink:title=" ">
<path fill="none" stroke="#63b8ff" d="M823.89,-340.75C818.72,-333.34 811.15,-322.5 804.81,-313.41"/>
<polygon fill="#63b8ff" stroke="#63b8ff" points="807.59,-311.29 799,-305.09 801.85,-315.29 807.59,-311.29"/>
</a>
</g>
</g>
<!-- Node26 -->
<g id="Node000026" class="node">
<title>Node26</title>
<g id="a_Node000026"><a xlink:title=" ">
<polygon fill="#e0e0e0" stroke="#999999" points="889,-305 845,-305 845,-286 889,-286 889,-305"/>
<text text-anchor="middle" x="867" y="-293" font-family="Helvetica,sans-Serif" font-size="10.00">regex</text>
</a>
</g>
</g>
<!-- Node1&#45;&gt;Node26 -->
<g id="edge41_Node000001_Node000026" class="edge">
<title>Node1&#45;&gt;Node26</title>
<g id="a_edge41_Node000001_Node000026"><a xlink:title=" ">
<path fill="none" stroke="#63b8ff" d="M836.11,-340.75C841.28,-333.34 848.85,-322.5 855.19,-313.41"/>
<polygon fill="#63b8ff" stroke="#63b8ff" points="858.15,-315.29 861,-305.09 852.41,-311.29 858.15,-315.29"/>
</a>
</g>
</g>
<!-- Node27 -->
<g id="Node000027" class="node">
<title>Node27</title>
<g id="a_Node000027"><a xlink:title=" ">
<polygon fill="#e0e0e0" stroke="#999999" points="951,-305 907,-305 907,-286 951,-286 951,-305"/>
<text text-anchor="middle" x="929" y="-293" font-family="Helvetica,sans-Serif" font-size="10.00">ctime</text>
</a>
</g>
</g>
<!-- Node1&#45;&gt;Node27 -->
<g id="edge42_Node000001_Node000027" class="edge">
<title>Node1&#45;&gt;Node27</title>
<g id="a_edge42_Node000001_Node000027"><a xlink:title=" ">
<path fill="none" stroke="#63b8ff" d="M845.91,-340.98C861.55,-332.61 885.66,-319.7 903.88,-309.95"/>
<polygon fill="#63b8ff" stroke="#63b8ff" points="905.64,-312.98 912.8,-305.17 902.34,-306.8 905.64,-312.98"/>
</a>
</g>
</g>
<!-- Node28 -->
<g id="Node000028" class="node">
<title>Node28</title>
<g id="a_Node000028"><a xlink:title=" ">
<polygon fill="#e0e0e0" stroke="#999999" points="1029,-305 969,-305 969,-286 1029,-286 1029,-305"/>
<text text-anchor="middle" x="999" y="-293" font-family="Helvetica,sans-Serif" font-size="10.00">iostream</text>
</a>
</g>
</g>
<!-- Node1&#45;&gt;Node28 -->
<g id="edge43_Node000001_Node000028" class="edge">
<title>Node1&#45;&gt;Node28</title>
<g id="a_edge43_Node000001_Node000028"><a xlink:title=" ">
<path fill="none" stroke="#63b8ff" d="M857.15,-340.98C885.53,-332.09 930.23,-318.07 961.86,-308.15"/>
<polygon fill="#63b8ff" stroke="#63b8ff" points="963.14,-311.41 971.63,-305.08 961.05,-304.73 963.14,-311.41"/>
</a>
</g>
</g>
<!-- Node3 -->
<g id="Node000003" class="node">
<title>Node3</title>
<g id="a_Node000003"><a xlink:href="file__writer_8h.html" target="_top" xlink:title=" ">
<polygon fill="white" stroke="#666666" points="449,-250 375,-250 375,-231 449,-231 449,-250"/>
<text text-anchor="middle" x="412" y="-238" font-family="Helvetica,sans-Serif" font-size="10.00">file_writer.h</text>
</a>
</g>
</g>
<!-- Node2&#45;&gt;Node3 -->
<g id="edge2_Node000002_Node000003" class="edge">
<title>Node2&#45;&gt;Node3</title>
<g id="a_edge2_Node000002_Node000003"><a xlink:title=" ">
<path fill="none" stroke="#63b8ff" d="M638.62,-285.98C589.53,-276.35 509.84,-260.71 459.22,-250.77"/>
<polygon fill="#63b8ff" stroke="#63b8ff" points="459.68,-247.29 449.19,-248.8 458.33,-254.16 459.68,-247.29"/>
</a>
</g>
</g>
<!-- Node6 -->
<g id="Node000006" class="node">
<title>Node6</title>
<g id="a_Node000006"><a xlink:title=" ">
<polygon fill="#e0e0e0" stroke="#999999" points="714,-74 664,-74 664,-55 714,-55 714,-74"/>
<text text-anchor="middle" x="689" y="-62" font-family="Helvetica,sans-Serif" font-size="10.00">chrono</text>
</a>
</g>
</g>
<!-- Node2&#45;&gt;Node6 -->
<g id="edge36_Node000002_Node000006" class="edge">
<title>Node2&#45;&gt;Node6</title>
<g id="a_edge36_Node000002_Node000006"><a xlink:title=" ">
<path fill="none" stroke="#63b8ff" d="M682.27,-285.8C683.29,-252.36 686.98,-131.59 688.42,-84.49"/>
<polygon fill="#63b8ff" stroke="#63b8ff" points="691.93,-84.31 688.73,-74.21 684.93,-84.09 691.93,-84.31"/>
</a>
</g>
</g>
<!-- Node23 -->
<g id="Node000023" class="node">
<title>Node23</title>
<g id="a_Node000023"><a xlink:title=" ">
<polygon fill="#e0e0e0" stroke="#999999" points="840,-250 784,-250 784,-231 840,-231 840,-250"/>
<text text-anchor="middle" x="812" y="-238" font-family="Helvetica,sans-Serif" font-size="10.00">iomanip</text>
</a>
</g>
</g>
<!-- Node2&#45;&gt;Node23 -->
<g id="edge37_Node000002_Node000023" class="edge">
<title>Node2&#45;&gt;Node23</title>
<g id="a_edge37_Node000002_Node000023"><a xlink:title=" ">
<path fill="none" stroke="#63b8ff" d="M702.89,-285.98C724.08,-277.34 757.13,-263.87 781.3,-254.02"/>
<polygon fill="#63b8ff" stroke="#63b8ff" points="782.79,-257.19 790.73,-250.17 780.15,-250.7 782.79,-257.19"/>
</a>
</g>
</g>
<!-- Node24 -->
<g id="Node000024" class="node">
<title>Node24</title>
<g id="a_Node000024"><a xlink:title=" ">
<polygon fill="#e0e0e0" stroke="#999999" points="766,-250 710,-250 710,-231 766,-231 766,-250"/>
<text text-anchor="middle" x="738" y="-238" font-family="Helvetica,sans-Serif" font-size="10.00">sstream</text>
</a>
</g>
</g>
<!-- Node2&#45;&gt;Node24 -->
<g id="edge38_Node000002_Node000024" class="edge">
<title>Node2&#45;&gt;Node24</title>
<g id="a_edge38_Node000002_Node000024"><a xlink:title=" ">
<path fill="none" stroke="#63b8ff" d="M691,-285.98C699.19,-278.23 711.51,-266.58 721.47,-257.14"/>
<polygon fill="#63b8ff" stroke="#63b8ff" points="723.98,-259.59 728.84,-250.17 719.17,-254.5 723.98,-259.59"/>
</a>
</g>
</g>
<!-- Node4 -->
<g id="Node000004" class="node">
<title>Node4</title>
<g id="a_Node000004"><a xlink:href="base__writer_8h.html" target="_top" xlink:title=" ">
<polygon fill="white" stroke="#666666" points="409,-195 327,-195 327,-176 409,-176 409,-195"/>
<text text-anchor="middle" x="368" y="-183" font-family="Helvetica,sans-Serif" font-size="10.00">base_writer.h</text>
</a>
</g>
</g>
<!-- Node3&#45;&gt;Node4 -->
<g id="edge3_Node000003_Node000004" class="edge">
<title>Node3&#45;&gt;Node4</title>
<g id="a_edge3_Node000003_Node000004"><a xlink:title=" ">
<path fill="none" stroke="#63b8ff" d="M404.73,-230.75C398.46,-223.18 389.21,-212.05 381.57,-202.84"/>
<polygon fill="#63b8ff" stroke="#63b8ff" points="384.21,-200.55 375.13,-195.09 378.83,-205.02 384.21,-200.55"/>
</a>
</g>
</g>
<!-- Node8 -->
<g id="Node000008" class="node">
<title>Node8</title>
<g id="a_Node000008"><a xlink:title=" ">
<polygon fill="#e0e0e0" stroke="#999999" points="218,-19 160,-19 160,0 218,0 218,-19"/>
<text text-anchor="middle" x="189" y="-7" font-family="Helvetica,sans-Serif" font-size="10.00">memory</text>
</a>
</g>
</g>
<!-- Node3&#45;&gt;Node8 -->
<g id="edge35_Node000003_Node000008" class="edge">
<title>Node3&#45;&gt;Node8</title>
<g id="a_edge35_Node000003_Node000008"><a xlink:title=" ">
<path fill="none" stroke="#63b8ff" d="M374.87,-231.55C309.27,-215.22 174.9,-170.98 123,-74 111.84,-53.15 135.93,-35.09 158.08,-23.62"/>
<polygon fill="#63b8ff" stroke="#63b8ff" points="159.88,-26.63 167.34,-19.12 156.82,-20.34 159.88,-26.63"/>
</a>
</g>
</g>
<!-- Node9 -->
<g id="Node000009" class="node">
<title>Node9</title>
<g id="a_Node000009"><a xlink:title=" ">
<polygon fill="#e0e0e0" stroke="#999999" points="138,-19 90,-19 90,0 138,0 138,-19"/>
<text text-anchor="middle" x="114" y="-7" font-family="Helvetica,sans-Serif" font-size="10.00">mutex</text>
</a>
</g>
</g>
<!-- Node3&#45;&gt;Node9 -->
<g id="edge33_Node000003_Node000009" class="edge">
<title>Node3&#45;&gt;Node9</title>
<g id="a_edge33_Node000003_Node000009"><a xlink:title=" ">
<path fill="none" stroke="#63b8ff" d="M374.75,-236.96C316.11,-230.84 202.91,-210.1 144,-140 123.5,-115.61 122.84,-105.12 116,-74 112.77,-59.32 112.42,-42.27 112.79,-29.54"/>
<polygon fill="#63b8ff" stroke="#63b8ff" points="116.3,-29.41 113.27,-19.25 109.3,-29.08 116.3,-29.41"/>
</a>
</g>
</g>
<!-- Node21 -->
<g id="Node000021" class="node">
<title>Node21</title>
<g id="a_Node000021"><a xlink:title=" ">
<polygon fill="#e0e0e0" stroke="#999999" points="482.5,-195 427.5,-195 427.5,-176 482.5,-176 482.5,-195"/>
<text text-anchor="middle" x="455" y="-183" font-family="Helvetica,sans-Serif" font-size="10.00">fstream</text>
</a>
</g>
</g>
<!-- Node3&#45;&gt;Node21 -->
<g id="edge32_Node000003_Node000021" class="edge">
<title>Node3&#45;&gt;Node21</title>
<g id="a_edge32_Node000003_Node000021"><a xlink:title=" ">
<path fill="none" stroke="#63b8ff" d="M419.1,-230.75C425.17,-223.26 434.09,-212.28 441.51,-203.13"/>
<polygon fill="#63b8ff" stroke="#63b8ff" points="444.45,-205.06 448.03,-195.09 439.01,-200.65 444.45,-205.06"/>
</a>
</g>
</g>
<!-- Node22 -->
<g id="Node000022" class="node">
<title>Node22</title>
<g id="a_Node000022"><a xlink:title=" ">
<polygon fill="#e0e0e0" stroke="#999999" points="551,-195 501,-195 501,-176 551,-176 551,-195"/>
<text text-anchor="middle" x="526" y="-183" font-family="Helvetica,sans-Serif" font-size="10.00">atomic</text>
</a>
</g>
</g>
<!-- Node3&#45;&gt;Node22 -->
<g id="edge34_Node000003_Node000022" class="edge">
<title>Node3&#45;&gt;Node22</title>
<g id="a_edge34_Node000003_Node000022"><a xlink:title=" ">
<path fill="none" stroke="#63b8ff" d="M430.32,-230.98C448.66,-222.46 477.11,-209.23 498.23,-199.41"/>
<polygon fill="#63b8ff" stroke="#63b8ff" points="499.76,-202.56 507.35,-195.17 496.81,-196.21 499.76,-202.56"/>
</a>
</g>
</g>
<!-- Node5 -->
<g id="Node000005" class="node">
<title>Node5</title>
<g id="a_Node000005"><a xlink:title=" ">
<polygon fill="#e0e0e0" stroke="#999999" points="292,-19 248,-19 248,0 292,0 292,-19"/>
<text text-anchor="middle" x="270" y="-7" font-family="Helvetica,sans-Serif" font-size="10.00">string</text>
</a>
</g>
</g>
<!-- Node4&#45;&gt;Node5 -->
<g id="edge4_Node000004_Node000005" class="edge">
<title>Node4&#45;&gt;Node5</title>
<g id="a_edge4_Node000004_Node000005"><a xlink:title=" ">
<path fill="none" stroke="#63b8ff" d="M343.55,-175.99C326.97,-168.94 305.96,-157.25 294,-140 270.63,-106.3 268.23,-56.24 268.88,-29.3"/>
<polygon fill="#63b8ff" stroke="#63b8ff" points="272.38,-29.42 269.3,-19.28 265.39,-29.13 272.38,-29.42"/>
</a>
</g>
</g>
<!-- Node4&#45;&gt;Node6 -->
<g id="edge5_Node000004_Node000006" class="edge">
<title>Node4&#45;&gt;Node6</title>
<g id="a_edge5_Node000004_Node000006"><a xlink:title=" ">
<path fill="none" stroke="#63b8ff" d="M409.15,-177.28C474.19,-165.79 594.31,-144.2 603,-140 632.34,-125.81 659.59,-98.96 675.25,-81.67"/>
<polygon fill="#63b8ff" stroke="#63b8ff" points="677.98,-83.86 681.96,-74.04 672.73,-79.23 677.98,-83.86"/>
</a>
</g>
</g>
<!-- Node7 -->
<g id="Node000007" class="node">
<title>Node7</title>
<g id="a_Node000007"><a xlink:href="logger__interface_8h.html" target="_top" xlink:title=" ">
<polygon fill="white" stroke="#666666" points="246,-74 132,-74 132,-55 246,-55 246,-74"/>
<text text-anchor="middle" x="189" y="-62" font-family="Helvetica,sans-Serif" font-size="10.00">../logger_interface.h</text>
</a>
</g>
</g>
<!-- Node4&#45;&gt;Node7 -->
<g id="edge6_Node000004_Node000007" class="edge">
<title>Node4&#45;&gt;Node7</title>
<g id="a_edge6_Node000004_Node000007"><a xlink:title=" ">
<path fill="none" stroke="#63b8ff" d="M337.91,-175.87C315.26,-168.51 284.1,-156.49 260,-140 236.61,-123.99 214.95,-99.22 201.85,-82.69"/>
<polygon fill="#63b8ff" stroke="#63b8ff" points="204.38,-80.24 195.5,-74.46 198.84,-84.52 204.38,-80.24"/>
</a>
</g>
</g>
<!-- Node10 -->
<g id="Node000010" class="node">
<title>Node10</title>
<g id="a_Node000010"><a xlink:href="error__codes_8h.html" target="_top" xlink:title=" ">
<polygon fill="white" stroke="#666666" points="608,-74 516,-74 516,-55 608,-55 608,-74"/>
<text text-anchor="middle" x="562" y="-62" font-family="Helvetica,sans-Serif" font-size="10.00">../error_codes.h</text>
</a>
</g>
</g>
<!-- Node4&#45;&gt;Node10 -->
<g id="edge10_Node000004_Node000010" class="edge">
<title>Node4&#45;&gt;Node10</title>
<g id="a_edge10_Node000004_Node000010"><a xlink:title=" ">
<path fill="none" stroke="#63b8ff" d="M409.14,-177.52C470.99,-166.82 581.36,-146.9 587,-140 600.69,-123.24 587.82,-98.65 576.04,-82.36"/>
<polygon fill="#63b8ff" stroke="#63b8ff" points="578.68,-80.04 569.79,-74.27 573.14,-84.33 578.68,-80.04"/>
</a>
</g>
</g>
<!-- Node15 -->
<g id="Node000015" class="node">
<title>Node15</title>
<g id="a_Node000015"><a xlink:href="log__writer__interface_8h.html" target="_top" xlink:title=" ">
<polygon fill="white" stroke="#666666" points="578,-140 452,-140 452,-110 578,-110 578,-140"/>
<text text-anchor="start" x="460" y="-128" font-family="Helvetica,sans-Serif" font-size="10.00">../interfaces/log_writer</text>
<text text-anchor="middle" x="515" y="-117" font-family="Helvetica,sans-Serif" font-size="10.00">_interface.h</text>
</a>
</g>
</g>
<!-- Node4&#45;&gt;Node15 -->
<g id="edge16_Node000004_Node000015" class="edge">
<title>Node4&#45;&gt;Node15</title>
<g id="a_edge16_Node000004_Node000015"><a xlink:title=" ">
<path fill="none" stroke="#63b8ff" d="M389.38,-175.99C410.44,-167.61 443.27,-154.55 470.08,-143.87"/>
<polygon fill="#63b8ff" stroke="#63b8ff" points="471.66,-147.01 479.66,-140.06 469.07,-140.51 471.66,-147.01"/>
</a>
</g>
</g>
<!-- Node16 -->
<g id="Node000016" class="node">
<title>Node16</title>
<g id="a_Node000016"><a xlink:href="log__entry_8h.html" target="_top" xlink:title=" ">
<polygon fill="white" stroke="#666666" points="433.5,-134.5 302.5,-134.5 302.5,-115.5 433.5,-115.5 433.5,-134.5"/>
<text text-anchor="middle" x="368" y="-122.5" font-family="Helvetica,sans-Serif" font-size="10.00">../interfaces/log_entry.h</text>
</a>
</g>
</g>
<!-- Node4&#45;&gt;Node16 -->
<g id="edge20_Node000004_Node000016" class="edge">
<title>Node4&#45;&gt;Node16</title>
<g id="a_edge20_Node000004_Node000016"><a xlink:title=" ">
<path fill="none" stroke="#63b8ff" d="M368,-175.87C368,-167.75 368,-155.31 368,-144.89"/>
<polygon fill="#63b8ff" stroke="#63b8ff" points="371.5,-144.67 368,-134.67 364.5,-144.67 371.5,-144.67"/>
</a>
</g>
</g>
<!-- Node7&#45;&gt;Node5 -->
<g id="edge9_Node000007_Node000005" class="edge">
<title>Node7&#45;&gt;Node5</title>
<g id="a_edge9_Node000007_Node000005"><a xlink:title=" ">
<path fill="none" stroke="#63b8ff" d="M202.01,-54.98C214.46,-46.84 233.46,-34.41 248.21,-24.76"/>
<polygon fill="#63b8ff" stroke="#63b8ff" points="250.3,-27.57 256.75,-19.17 246.46,-21.72 250.3,-27.57"/>
</a>
</g>
</g>
<!-- Node7&#45;&gt;Node8 -->
<g id="edge7_Node000007_Node000008" class="edge">
<title>Node7&#45;&gt;Node8</title>
<g id="a_edge7_Node000007_Node000008"><a xlink:title=" ">
<path fill="none" stroke="#63b8ff" d="M189,-54.75C189,-47.8 189,-37.85 189,-29.13"/>
<polygon fill="#63b8ff" stroke="#63b8ff" points="192.5,-29.09 189,-19.09 185.5,-29.09 192.5,-29.09"/>
</a>
</g>
</g>
<!-- Node7&#45;&gt;Node9 -->
<g id="edge8_Node000007_Node000009" class="edge">
<title>Node7&#45;&gt;Node9</title>
<g id="a_edge8_Node000007_Node000009"><a xlink:title=" ">
<path fill="none" stroke="#63b8ff" d="M176.95,-54.98C165.54,-46.92 148.17,-34.65 134.57,-25.03"/>
<polygon fill="#63b8ff" stroke="#63b8ff" points="136.46,-22.08 126.27,-19.17 132.42,-27.8 136.46,-22.08"/>
</a>
</g>
</g>
<!-- Node10&#45;&gt;Node5 -->
<g id="edge11_Node000010_Node000005" class="edge">
<title>Node10&#45;&gt;Node5</title>
<g id="a_edge11_Node000010_Node000005"><a xlink:title=" ">
<path fill="none" stroke="#63b8ff" d="M515.53,-56.99C465.17,-49.63 382.29,-36.59 302.05,-19.05"/>
<polygon fill="#63b8ff" stroke="#63b8ff" points="302.81,-15.64 292.29,-16.89 301.29,-22.47 302.81,-15.64"/>
</a>
</g>
</g>
<!-- Node11 -->
<g id="Node000011" class="node">
<title>Node11</title>
<g id="a_Node000011"><a xlink:title=" ">
<polygon fill="#e0e0e0" stroke="#999999" points="597.5,-19 532.5,-19 532.5,0 597.5,0 597.5,-19"/>
<text text-anchor="middle" x="565" y="-7" font-family="Helvetica,sans-Serif" font-size="10.00">stdexcept</text>
</a>
</g>
</g>
<!-- Node10&#45;&gt;Node11 -->
<g id="edge12_Node000010_Node000011" class="edge">
<title>Node10&#45;&gt;Node11</title>
<g id="a_edge12_Node000010_Node000011"><a xlink:title=" ">
<path fill="none" stroke="#63b8ff" d="M562.5,-54.75C562.89,-47.8 563.45,-37.85 563.95,-29.13"/>
<polygon fill="#63b8ff" stroke="#63b8ff" points="567.44,-29.27 564.51,-19.09 560.45,-28.88 567.44,-29.27"/>
</a>
</g>
</g>
<!-- Node12 -->
<g id="Node000012" class="node">
<title>Node12</title>
<g id="a_Node000012"><a xlink:title=" ">
<polygon fill="#e0e0e0" stroke="#999999" points="514.5,-19 469.5,-19 469.5,0 514.5,0 514.5,-19"/>
<text text-anchor="middle" x="492" y="-7" font-family="Helvetica,sans-Serif" font-size="10.00">utility</text>
</a>
</g>
</g>
<!-- Node10&#45;&gt;Node12 -->
<g id="edge13_Node000010_Node000012" class="edge">
<title>Node10&#45;&gt;Node12</title>
<g id="a_edge13_Node000010_Node000012"><a xlink:title=" ">
<path fill="none" stroke="#63b8ff" d="M550.75,-54.98C540.2,-47 524.2,-34.88 511.56,-25.31"/>
<polygon fill="#63b8ff" stroke="#63b8ff" points="513.54,-22.42 503.45,-19.17 509.31,-28 513.54,-22.42"/>
</a>
</g>
</g>
<!-- Node13 -->
<g id="Node000013" class="node">
<title>Node13</title>
<g id="a_Node000013"><a xlink:title=" ">
<polygon fill="#e0e0e0" stroke="#999999" points="741,-19 685,-19 685,0 741,0 741,-19"/>
<text text-anchor="middle" x="713" y="-7" font-family="Helvetica,sans-Serif" font-size="10.00">optional</text>
</a>
</g>
</g>
<!-- Node10&#45;&gt;Node13 -->
<g id="edge14_Node000010_Node000013" class="edge">
<title>Node10&#45;&gt;Node13</title>
<g id="a_edge14_Node000010_Node000013"><a xlink:title=" ">
<path fill="none" stroke="#63b8ff" d="M586.26,-54.98C611.32,-46.19 650.63,-32.39 678.83,-22.49"/>
<polygon fill="#63b8ff" stroke="#63b8ff" points="680.02,-25.78 688.3,-19.17 677.7,-19.18 680.02,-25.78"/>
</a>
</g>
</g>
<!-- Node14 -->
<g id="Node000014" class="node">
<title>Node14</title>
<g id="a_Node000014"><a xlink:title=" ">
<polygon fill="#e0e0e0" stroke="#999999" points="666.5,-19 615.5,-19 615.5,0 666.5,0 666.5,-19"/>
<text text-anchor="middle" x="641" y="-7" font-family="Helvetica,sans-Serif" font-size="10.00">variant</text>
</a>
</g>
</g>
<!-- Node10&#45;&gt;Node14 -->
<g id="edge15_Node000010_Node000014" class="edge">
<title>Node10&#45;&gt;Node14</title>
<g id="a_edge15_Node000010_Node000014"><a xlink:title=" ">
<path fill="none" stroke="#63b8ff" d="M574.69,-54.98C586.83,-46.84 605.36,-34.41 619.75,-24.76"/>
<polygon fill="#63b8ff" stroke="#63b8ff" points="621.72,-27.65 628.08,-19.17 617.82,-21.84 621.72,-27.65"/>
</a>
</g>
</g>
<!-- Node15&#45;&gt;Node5 -->
<g id="edge17_Node000015_Node000005" class="edge">
<title>Node15&#45;&gt;Node5</title>
<g id="a_edge17_Node000015_Node000005"><a xlink:title=" ">
<path fill="none" stroke="#63b8ff" d="M509.52,-109.97C502.56,-94.06 489,-68.6 469,-55 408.43,-13.84 377.75,-35.16 302.25,-19.06"/>
<polygon fill="#63b8ff" stroke="#63b8ff" points="302.84,-15.6 292.31,-16.78 301.28,-22.43 302.84,-15.6"/>
</a>
</g>
</g>
<!-- Node15&#45;&gt;Node6 -->
<g id="edge18_Node000015_Node000006" class="edge">
<title>Node15&#45;&gt;Node6</title>
<g id="a_edge18_Node000015_Node000006"><a xlink:title=" ">
<path fill="none" stroke="#63b8ff" d="M556.68,-109.99C586.41,-99.99 625.93,-86.7 654.02,-77.26"/>
<polygon fill="#63b8ff" stroke="#63b8ff" points="655.45,-80.47 663.81,-73.97 653.22,-73.84 655.45,-80.47"/>
</a>
</g>
</g>
<!-- Node15&#45;&gt;Node10 -->
<g id="edge19_Node000015_Node000010" class="edge">
<title>Node15&#45;&gt;Node10</title>
<g id="a_edge19_Node000015_Node000010"><a xlink:title=" ">
<path fill="none" stroke="#63b8ff" d="M526.38,-109.84C533.06,-101.52 541.55,-90.96 548.56,-82.23"/>
<polygon fill="#63b8ff" stroke="#63b8ff" points="551.42,-84.25 554.96,-74.27 545.97,-79.87 551.42,-84.25"/>
</a>
</g>
</g>
<!-- Node16&#45;&gt;Node5 -->
<g id="edge21_Node000016_Node000005" class="edge">
<title>Node16&#45;&gt;Node5</title>
<g id="a_edge21_Node000016_Node000005"><a xlink:title=" ">
<path fill="none" stroke="#63b8ff" d="M360.63,-115.47C344.39,-96.65 305.25,-51.32 284.11,-26.84"/>
<polygon fill="#63b8ff" stroke="#63b8ff" points="286.64,-24.41 277.45,-19.13 281.34,-28.99 286.64,-24.41"/>
</a>
</g>
</g>
<!-- Node16&#45;&gt;Node6 -->
<g id="edge22_Node000016_Node000006" class="edge">
<title>Node16&#45;&gt;Node6</title>
<g id="a_edge22_Node000016_Node000006"><a xlink:title=" ">
<path fill="none" stroke="#63b8ff" d="M413.2,-115.47C423.02,-113.64 433.35,-111.74 443,-110 534.9,-93.43 558.36,-91.95 650,-74 651.26,-73.75 652.55,-73.5 653.84,-73.23"/>
<polygon fill="#63b8ff" stroke="#63b8ff" points="654.78,-76.61 663.86,-71.14 653.35,-69.76 654.78,-76.61"/>
</a>
</g>
</g>
<!-- Node16&#45;&gt;Node7 -->
<g id="edge31_Node000016_Node000007" class="edge">
<title>Node16&#45;&gt;Node7</title>
<g id="a_edge31_Node000016_Node000007"><a xlink:title=" ">
<path fill="none" stroke="#63b8ff" d="M341.97,-115.49C311.08,-105.4 259.42,-88.51 224.78,-77.19"/>
<polygon fill="#63b8ff" stroke="#63b8ff" points="225.65,-73.8 215.06,-74.02 223.48,-80.45 225.65,-73.8"/>
</a>
</g>
</g>
<!-- Node16&#45;&gt;Node13 -->
<g id="edge23_Node000016_Node000013" class="edge">
<title>Node16&#45;&gt;Node13</title>
<g id="a_edge23_Node000016_Node000013"><a xlink:title=" ">
<path fill="none" stroke="#63b8ff" d="M412.66,-115.49C481.74,-102.27 607.57,-77.89 617,-74 646.5,-61.83 676.56,-40.13 694.99,-25.53"/>
<polygon fill="#63b8ff" stroke="#63b8ff" points="697.25,-28.2 702.83,-19.19 692.85,-22.76 697.25,-28.2"/>
</a>
</g>
</g>
<!-- Node17 -->
<g id="Node000017" class="node">
<title>Node17</title>
<g id="a_Node000017"><a xlink:href="small__string_8h.html" target="_top" xlink:title=" ">
<polygon fill="white" stroke="#666666" points="459.5,-74 340.5,-74 340.5,-55 459.5,-55 459.5,-74"/>
<text text-anchor="middle" x="400" y="-62" font-family="Helvetica,sans-Serif" font-size="10.00">../core/small_string.h</text>
</a>
</g>
</g>
<!-- Node16&#45;&gt;Node17 -->
<g id="edge24_Node000016_Node000017" class="edge">
<title>Node16&#45;&gt;Node17</title>
<g id="a_edge24_Node000016_Node000017"><a xlink:title=" ">
<path fill="none" stroke="#63b8ff" d="M372.72,-115.37C377.35,-106.9 384.55,-93.74 390.39,-83.07"/>
<polygon fill="#63b8ff" stroke="#63b8ff" points="393.53,-84.62 395.26,-74.17 387.39,-81.26 393.53,-84.62"/>
</a>
</g>
</g>
<!-- Node17&#45;&gt;Node5 -->
<g id="edge26_Node000017_Node000005" class="edge">
<title>Node17&#45;&gt;Node5</title>
<g id="a_edge26_Node000017_Node000005"><a xlink:title=" ">
<path fill="none" stroke="#63b8ff" d="M379.11,-54.98C357.92,-46.34 324.87,-32.87 300.7,-23.02"/>
<polygon fill="#63b8ff" stroke="#63b8ff" points="301.85,-19.7 291.27,-19.17 299.21,-26.19 301.85,-19.7"/>
</a>
</g>
</g>
<!-- Node17&#45;&gt;Node8 -->
<g id="edge29_Node000017_Node000008" class="edge">
<title>Node17&#45;&gt;Node8</title>
<g id="a_edge29_Node000017_Node000008"><a xlink:title=" ">
<path fill="none" stroke="#63b8ff" d="M366.1,-54.98C328.38,-45.51 267.53,-30.23 227.9,-20.27"/>
<polygon fill="#63b8ff" stroke="#63b8ff" points="228.61,-16.84 218.06,-17.8 226.91,-23.63 228.61,-16.84"/>
</a>
</g>
</g>
<!-- Node17&#45;&gt;Node12 -->
<g id="edge30_Node000017_Node000012" class="edge">
<title>Node17&#45;&gt;Node12</title>
<g id="a_edge30_Node000017_Node000012"><a xlink:title=" ">
<path fill="none" stroke="#63b8ff" d="M414.78,-54.98C429.18,-46.69 451.31,-33.94 468.19,-24.22"/>
<polygon fill="#63b8ff" stroke="#63b8ff" points="470.03,-27.19 476.95,-19.17 466.54,-21.13 470.03,-27.19"/>
</a>
</g>
</g>
<!-- Node18 -->
<g id="Node000018" class="node">
<title>Node18</title>
<g id="a_Node000018"><a xlink:title=" ">
<polygon fill="#e0e0e0" stroke="#999999" points="360,-19 310,-19 310,0 360,0 360,-19"/>
<text text-anchor="middle" x="335" y="-7" font-family="Helvetica,sans-Serif" font-size="10.00">cstring</text>
</a>
</g>
</g>
<!-- Node17&#45;&gt;Node18 -->
<g id="edge25_Node000017_Node000018" class="edge">
<title>Node17&#45;&gt;Node18</title>
<g id="a_edge25_Node000017_Node000018"><a xlink:title=" ">
<path fill="none" stroke="#63b8ff" d="M389.56,-54.98C379.85,-47.07 365.18,-35.11 353.5,-25.58"/>
<polygon fill="#63b8ff" stroke="#63b8ff" points="355.6,-22.78 345.63,-19.17 351.17,-28.2 355.6,-22.78"/>
</a>
</g>
</g>
<!-- Node19 -->
<g id="Node000019" class="node">
<title>Node19</title>
<g id="a_Node000019"><a xlink:title=" ">
<polygon fill="#e0e0e0" stroke="#999999" points="451.5,-19 378.5,-19 378.5,0 451.5,0 451.5,-19"/>
<text text-anchor="middle" x="415" y="-7" font-family="Helvetica,sans-Serif" font-size="10.00">string_view</text>
</a>
</g>
</g>
<!-- Node17&#45;&gt;Node19 -->
<g id="edge27_Node000017_Node000019" class="edge">
<title>Node17&#45;&gt;Node19</title>
<g id="a_edge27_Node000017_Node000019"><a xlink:title=" ">
<path fill="none" stroke="#63b8ff" d="M402.48,-54.75C404.46,-47.72 407.32,-37.62 409.81,-28.84"/>
<polygon fill="#63b8ff" stroke="#63b8ff" points="413.21,-29.66 412.57,-19.09 406.48,-27.76 413.21,-29.66"/>
</a>
</g>
</g>
<!-- Node17&#45;&gt;Node20 -->
<g id="edge28_Node000017_Node000020" class="edge">
<title>Node17&#45;&gt;Node20</title>
<g id="a_edge28_Node000017_Node000020"><a xlink:title=" ">
<path fill="none" stroke="#63b8ff" d="M340.24,-55.76C276.08,-47.32 171.19,-33.11 81,-19 78.78,-18.65 76.51,-18.29 74.22,-17.91"/>
<polygon fill="#63b8ff" stroke="#63b8ff" points="74.57,-14.43 64.13,-16.23 73.42,-21.33 74.57,-14.43"/>
</a>
</g>
</g>
</g>
</svg>
