<?xml version="1.0" encoding="UTF-8" standalone="no"?>
<!DOCTYPE svg PUBLIC "-//W3C//DTD SVG 1.1//EN"
 "http://www.w3.org/Graphics/SVG/1.1/DTD/svg11.dtd">
<!-- Generated by graphviz version 2.43.0 (0)
 -->
<!-- Title: rotating_file_writer.h Pages: 1 -->
<svg width="733pt" height="313pt"
 viewBox="0.00 0.00 732.50 313.00" xmlns="http://www.w3.org/2000/svg" xmlns:xlink="http://www.w3.org/1999/xlink">
<g id="graph0" class="graph" transform="scale(1 1) rotate(0) translate(4 309)">
<title>rotating_file_writer.h</title>
<!-- Node1 -->
<g id="Node000001" class="node">
<title>Node1</title>
<g id="a_Node000001"><a xlink:title=" ">
<polygon fill="#999999" stroke="#666666" points="455.5,-305 338.5,-305 338.5,-286 455.5,-286 455.5,-305"/>
<text text-anchor="middle" x="397" y="-293" font-family="Helvetica,sans-Serif" font-size="10.00">rotating_file_writer.h</text>
</a>
</g>
</g>
<!-- Node2 -->
<g id="Node000002" class="node">
<title>Node2</title>
<g id="a_Node000002"><a xlink:href="file__writer_8h.html" target="_top" xlink:title=" ">
<polygon fill="white" stroke="#666666" points="203,-250 129,-250 129,-231 203,-231 203,-250"/>
<text text-anchor="middle" x="166" y="-238" font-family="Helvetica,sans-Serif" font-size="10.00">file_writer.h</text>
</a>
</g>
</g>
<!-- Node1&#45;&gt;Node2 -->
<g id="edge1_Node000001_Node000002" class="edge">
<title>Node1&#45;&gt;Node2</title>
<g id="a_edge1_Node000001_Node000002"><a xlink:title=" ">
<path fill="none" stroke="#63b8ff" d="M359.89,-285.98C319.89,-276.81 256.16,-262.19 212.77,-252.23"/>
<polygon fill="#63b8ff" stroke="#63b8ff" points="213.55,-248.82 203.02,-249.99 211.99,-255.64 213.55,-248.82"/>
</a>
</g>
</g>
<!-- Node5 -->
<g id="Node000005" class="node">
<title>Node5</title>
<g id="a_Node000005"><a xlink:title=" ">
<polygon fill="#e0e0e0" stroke="#999999" points="465,-74 415,-74 415,-55 465,-55 465,-74"/>
<text text-anchor="middle" x="440" y="-62" font-family="Helvetica,sans-Serif" font-size="10.00">chrono</text>
</a>
</g>
</g>
<!-- Node1&#45;&gt;Node5 -->
<g id="edge35_Node000001_Node000005" class="edge">
<title>Node1&#45;&gt;Node5</title>
<g id="a_edge35_Node000001_Node000005"><a xlink:title=" ">
<path fill="none" stroke="#63b8ff" d="M393.91,-285.88C384.63,-258.57 359.43,-172.05 388,-110 393.75,-97.52 404.91,-87.24 415.42,-79.71"/>
<polygon fill="#63b8ff" stroke="#63b8ff" points="417.57,-82.49 423.97,-74.05 413.7,-76.65 417.57,-82.49"/>
</a>
</g>
</g>
<!-- Node22 -->
<g id="Node000022" class="node">
<title>Node22</title>
<g id="a_Node000022"><a xlink:title=" ">
<polygon fill="#e0e0e0" stroke="#999999" points="453,-250 397,-250 397,-231 453,-231 453,-250"/>
<text text-anchor="middle" x="425" y="-238" font-family="Helvetica,sans-Serif" font-size="10.00">iomanip</text>
</a>
</g>
</g>
<!-- Node1&#45;&gt;Node22 -->
<g id="edge36_Node000001_Node000022" class="edge">
<title>Node1&#45;&gt;Node22</title>
<g id="a_edge36_Node000001_Node000022"><a xlink:title=" ">
<path fill="none" stroke="#63b8ff" d="M401.62,-285.75C405.46,-278.49 411.02,-267.95 415.76,-258.98"/>
<polygon fill="#63b8ff" stroke="#63b8ff" points="418.89,-260.57 420.46,-250.09 412.7,-257.3 418.89,-260.57"/>
</a>
</g>
</g>
<!-- Node23 -->
<g id="Node000023" class="node">
<title>Node23</title>
<g id="a_Node000023"><a xlink:title=" ">
<polygon fill="#e0e0e0" stroke="#999999" points="527,-250 471,-250 471,-231 527,-231 527,-250"/>
<text text-anchor="middle" x="499" y="-238" font-family="Helvetica,sans-Serif" font-size="10.00">sstream</text>
</a>
</g>
</g>
<!-- Node1&#45;&gt;Node23 -->
<g id="edge37_Node000001_Node000023" class="edge">
<title>Node1&#45;&gt;Node23</title>
<g id="a_edge37_Node000001_Node000023"><a xlink:title=" ">
<path fill="none" stroke="#63b8ff" d="M413.39,-285.98C429.57,-277.57 454.57,-264.59 473.38,-254.81"/>
<polygon fill="#63b8ff" stroke="#63b8ff" points="475.05,-257.89 482.31,-250.17 471.83,-251.68 475.05,-257.89"/>
</a>
</g>
</g>
<!-- Node3 -->
<g id="Node000003" class="node">
<title>Node3</title>
<g id="a_Node000003"><a xlink:href="base__writer_8h.html" target="_top" xlink:title=" ">
<polygon fill="white" stroke="#666666" points="341,-195 259,-195 259,-176 341,-176 341,-195"/>
<text text-anchor="middle" x="300" y="-183" font-family="Helvetica,sans-Serif" font-size="10.00">base_writer.h</text>
</a>
</g>
</g>
<!-- Node2&#45;&gt;Node3 -->
<g id="edge2_Node000002_Node000003" class="edge">
<title>Node2&#45;&gt;Node3</title>
<g id="a_edge2_Node000002_Node000003"><a xlink:title=" ">
<path fill="none" stroke="#63b8ff" d="M187.53,-230.98C209.47,-222.3 243.74,-208.75 268.69,-198.88"/>
<polygon fill="#63b8ff" stroke="#63b8ff" points="270.07,-202.1 278.08,-195.17 267.49,-195.59 270.07,-202.1"/>
</a>
</g>
</g>
<!-- Node7 -->
<g id="Node000007" class="node">
<title>Node7</title>
<g id="a_Node000007"><a xlink:title=" ">
<polygon fill="#e0e0e0" stroke="#999999" points="130,-19 72,-19 72,0 130,0 130,-19"/>
<text text-anchor="middle" x="101" y="-7" font-family="Helvetica,sans-Serif" font-size="10.00">memory</text>
</a>
</g>
</g>
<!-- Node2&#45;&gt;Node7 -->
<g id="edge34_Node000002_Node000007" class="edge">
<title>Node2&#45;&gt;Node7</title>
<g id="a_edge34_Node000002_Node000007"><a xlink:title=" ">
<path fill="none" stroke="#63b8ff" d="M143.69,-230.95C127.63,-223.7 106.64,-211.78 94,-195 55.48,-143.85 36.71,-114.65 60,-55 64.4,-43.73 73.14,-33.59 81.43,-25.85"/>
<polygon fill="#63b8ff" stroke="#63b8ff" points="83.82,-28.4 89.07,-19.2 79.23,-23.12 83.82,-28.4"/>
</a>
</g>
</g>
<!-- Node8 -->
<g id="Node000008" class="node">
<title>Node8</title>
<g id="a_Node000008"><a xlink:title=" ">
<polygon fill="#e0e0e0" stroke="#999999" points="48,-19 0,-19 0,0 48,0 48,-19"/>
<text text-anchor="middle" x="24" y="-7" font-family="Helvetica,sans-Serif" font-size="10.00">mutex</text>
</a>
</g>
</g>
<!-- Node2&#45;&gt;Node8 -->
<g id="edge32_Node000002_Node000008" class="edge">
<title>Node2&#45;&gt;Node8</title>
<g id="a_edge32_Node000002_Node000008"><a xlink:title=" ">
<path fill="none" stroke="#63b8ff" d="M138.56,-230.94C119.23,-223.8 93.72,-212.03 76,-195 29.44,-150.27 23.59,-67.38 23.48,-29.85"/>
<polygon fill="#63b8ff" stroke="#63b8ff" points="26.99,-29.41 23.6,-19.37 19.99,-29.33 26.99,-29.41"/>
</a>
</g>
</g>
<!-- Node20 -->
<g id="Node000020" class="node">
<title>Node20</title>
<g id="a_Node000020"><a xlink:title=" ">
<polygon fill="#e0e0e0" stroke="#999999" points="157.5,-195 102.5,-195 102.5,-176 157.5,-176 157.5,-195"/>
<text text-anchor="middle" x="130" y="-183" font-family="Helvetica,sans-Serif" font-size="10.00">fstream</text>
</a>
</g>
</g>
<!-- Node2&#45;&gt;Node20 -->
<g id="edge31_Node000002_Node000020" class="edge">
<title>Node2&#45;&gt;Node20</title>
<g id="a_edge31_Node000002_Node000020"><a xlink:title=" ">
<path fill="none" stroke="#63b8ff" d="M160.06,-230.75C155.02,-223.34 147.66,-212.5 141.49,-203.41"/>
<polygon fill="#63b8ff" stroke="#63b8ff" points="144.35,-201.39 135.83,-195.09 138.56,-205.33 144.35,-201.39"/>
</a>
</g>
</g>
<!-- Node21 -->
<g id="Node000021" class="node">
<title>Node21</title>
<g id="a_Node000021"><a xlink:title=" ">
<polygon fill="#e0e0e0" stroke="#999999" points="226,-195 176,-195 176,-176 226,-176 226,-195"/>
<text text-anchor="middle" x="201" y="-183" font-family="Helvetica,sans-Serif" font-size="10.00">atomic</text>
</a>
</g>
</g>
<!-- Node2&#45;&gt;Node21 -->
<g id="edge33_Node000002_Node000021" class="edge">
<title>Node2&#45;&gt;Node21</title>
<g id="a_edge33_Node000002_Node000021"><a xlink:title=" ">
<path fill="none" stroke="#63b8ff" d="M171.78,-230.75C176.62,-223.42 183.68,-212.73 189.64,-203.7"/>
<polygon fill="#63b8ff" stroke="#63b8ff" points="192.74,-205.36 195.33,-195.09 186.9,-201.5 192.74,-205.36"/>
</a>
</g>
</g>
<!-- Node4 -->
<g id="Node000004" class="node">
<title>Node4</title>
<g id="a_Node000004"><a xlink:title=" ">
<polygon fill="#e0e0e0" stroke="#999999" points="434,-19 390,-19 390,0 434,0 434,-19"/>
<text text-anchor="middle" x="412" y="-7" font-family="Helvetica,sans-Serif" font-size="10.00">string</text>
</a>
</g>
</g>
<!-- Node3&#45;&gt;Node4 -->
<g id="edge3_Node000003_Node000004" class="edge">
<title>Node3&#45;&gt;Node4</title>
<g id="a_edge3_Node000003_Node000004"><a xlink:title=" ">
<path fill="none" stroke="#63b8ff" d="M341.48,-182.68C401.58,-179.07 508.29,-168.69 532,-140 568.73,-95.55 486.68,-46.5 440.58,-23.61"/>
<polygon fill="#63b8ff" stroke="#63b8ff" points="441.88,-20.35 431.35,-19.14 438.82,-26.65 441.88,-20.35"/>
</a>
</g>
</g>
<!-- Node3&#45;&gt;Node5 -->
<g id="edge4_Node000003_Node000005" class="edge">
<title>Node3&#45;&gt;Node5</title>
<g id="a_edge4_Node000003_Node000005"><a xlink:title=" ">
<path fill="none" stroke="#63b8ff" d="M304.72,-175.69C313.15,-160.63 332.05,-129.67 355,-110 370.65,-96.59 391.02,-85.75 407.9,-78.12"/>
<polygon fill="#63b8ff" stroke="#63b8ff" points="409.6,-81.2 417.37,-74.01 406.81,-74.78 409.6,-81.2"/>
</a>
</g>
</g>
<!-- Node6 -->
<g id="Node000006" class="node">
<title>Node6</title>
<g id="a_Node000006"><a xlink:href="logger__interface_8h.html" target="_top" xlink:title=" ">
<polygon fill="white" stroke="#666666" points="183,-74 69,-74 69,-55 183,-55 183,-74"/>
<text text-anchor="middle" x="126" y="-62" font-family="Helvetica,sans-Serif" font-size="10.00">../logger_interface.h</text>
</a>
</g>
</g>
<!-- Node3&#45;&gt;Node6 -->
<g id="edge5_Node000003_Node000006" class="edge">
<title>Node3&#45;&gt;Node6</title>
<g id="a_edge5_Node000003_Node000006"><a xlink:title=" ">
<path fill="none" stroke="#63b8ff" d="M259,-179.74C229.37,-174.43 189.98,-163.28 163,-140 145.96,-125.3 135.95,-100.88 130.73,-84.03"/>
<polygon fill="#63b8ff" stroke="#63b8ff" points="134.05,-82.9 127.97,-74.23 127.31,-84.8 134.05,-82.9"/>
</a>
</g>
</g>
<!-- Node9 -->
<g id="Node000009" class="node">
<title>Node9</title>
<g id="a_Node000009"><a xlink:href="error__codes_8h.html" target="_top" xlink:title=" ">
<polygon fill="white" stroke="#666666" points="662,-74 570,-74 570,-55 662,-55 662,-74"/>
<text text-anchor="middle" x="616" y="-62" font-family="Helvetica,sans-Serif" font-size="10.00">../error_codes.h</text>
</a>
</g>
</g>
<!-- Node3&#45;&gt;Node9 -->
<g id="edge9_Node000003_Node000009" class="edge">
<title>Node3&#45;&gt;Node9</title>
<g id="a_edge9_Node000003_Node000009"><a xlink:title=" ">
<path fill="none" stroke="#63b8ff" d="M341.19,-181.51C406.11,-176.16 528.58,-163.26 565,-140 586,-126.58 600.59,-101.09 608.63,-83.7"/>
<polygon fill="#63b8ff" stroke="#63b8ff" points="612.02,-84.67 612.79,-74.1 605.6,-81.89 612.02,-84.67"/>
</a>
</g>
</g>
<!-- Node14 -->
<g id="Node000014" class="node">
<title>Node14</title>
<g id="a_Node000014"><a xlink:href="log__writer__interface_8h.html" target="_top" xlink:title=" ">
<polygon fill="white" stroke="#666666" points="523,-140 397,-140 397,-110 523,-110 523,-140"/>
<text text-anchor="start" x="405" y="-128" font-family="Helvetica,sans-Serif" font-size="10.00">../interfaces/log_writer</text>
<text text-anchor="middle" x="460" y="-117" font-family="Helvetica,sans-Serif" font-size="10.00">_interface.h</text>
</a>
</g>
</g>
<!-- Node3&#45;&gt;Node14 -->
<g id="edge15_Node000003_Node000014" class="edge">
<title>Node3&#45;&gt;Node14</title>
<g id="a_edge15_Node000003_Node000014"><a xlink:title=" ">
<path fill="none" stroke="#63b8ff" d="M323.27,-175.99C346.39,-167.54 382.55,-154.32 411.88,-143.59"/>
<polygon fill="#63b8ff" stroke="#63b8ff" points="413.34,-146.79 421.53,-140.06 410.94,-140.21 413.34,-146.79"/>
</a>
</g>
</g>
<!-- Node15 -->
<g id="Node000015" class="node">
<title>Node15</title>
<g id="a_Node000015"><a xlink:href="log__entry_8h.html" target="_top" xlink:title=" ">
<polygon fill="white" stroke="#666666" points="302.5,-134.5 171.5,-134.5 171.5,-115.5 302.5,-115.5 302.5,-134.5"/>
<text text-anchor="middle" x="237" y="-122.5" font-family="Helvetica,sans-Serif" font-size="10.00">../interfaces/log_entry.h</text>
</a>
</g>
</g>
<!-- Node3&#45;&gt;Node15 -->
<g id="edge19_Node000003_Node000015" class="edge">
<title>Node3&#45;&gt;Node15</title>
<g id="a_edge19_Node000003_Node000015"><a xlink:title=" ">
<path fill="none" stroke="#63b8ff" d="M290.7,-175.87C281.03,-166.88 265.66,-152.61 253.84,-141.64"/>
<polygon fill="#63b8ff" stroke="#63b8ff" points="256.04,-138.91 246.33,-134.67 251.28,-144.04 256.04,-138.91"/>
</a>
</g>
</g>
<!-- Node6&#45;&gt;Node4 -->
<g id="edge8_Node000006_Node000004" class="edge">
<title>Node6&#45;&gt;Node4</title>
<g id="a_edge8_Node000006_Node000004"><a xlink:title=" ">
<path fill="none" stroke="#63b8ff" d="M183.02,-55.14C232.67,-47.49 306.76,-35.23 379.87,-19.08"/>
<polygon fill="#63b8ff" stroke="#63b8ff" points="380.72,-22.48 389.71,-16.88 379.19,-15.65 380.72,-22.48"/>
</a>
</g>
</g>
<!-- Node6&#45;&gt;Node7 -->
<g id="edge6_Node000006_Node000007" class="edge">
<title>Node6&#45;&gt;Node7</title>
<g id="a_edge6_Node000006_Node000007"><a xlink:title=" ">
<path fill="none" stroke="#63b8ff" d="M121.87,-54.75C118.49,-47.57 113.58,-37.18 109.38,-28.27"/>
<polygon fill="#63b8ff" stroke="#63b8ff" points="112.48,-26.64 105.05,-19.09 106.15,-29.63 112.48,-26.64"/>
</a>
</g>
</g>
<!-- Node6&#45;&gt;Node8 -->
<g id="edge7_Node000006_Node000008" class="edge">
<title>Node6&#45;&gt;Node8</title>
<g id="a_edge7_Node000006_Node000008"><a xlink:title=" ">
<path fill="none" stroke="#63b8ff" d="M109.61,-54.98C93.43,-46.57 68.43,-33.59 49.62,-23.81"/>
<polygon fill="#63b8ff" stroke="#63b8ff" points="51.17,-20.68 40.69,-19.17 47.95,-26.89 51.17,-20.68"/>
</a>
</g>
</g>
<!-- Node9&#45;&gt;Node4 -->
<g id="edge10_Node000009_Node000004" class="edge">
<title>Node9&#45;&gt;Node4</title>
<g id="a_edge10_Node000009_Node000004"><a xlink:title=" ">
<path fill="none" stroke="#63b8ff" d="M582.69,-54.95C548.03,-46.04 492.19,-31.63 444,-19 443.9,-18.97 443.8,-18.95 443.7,-18.92"/>
<polygon fill="#63b8ff" stroke="#63b8ff" points="444.59,-15.54 434.03,-16.37 442.81,-22.31 444.59,-15.54"/>
</a>
</g>
</g>
<!-- Node10 -->
<g id="Node000010" class="node">
<title>Node10</title>
<g id="a_Node000010"><a xlink:title=" ">
<polygon fill="#e0e0e0" stroke="#999999" points="655.5,-19 590.5,-19 590.5,0 655.5,0 655.5,-19"/>
<text text-anchor="middle" x="623" y="-7" font-family="Helvetica,sans-Serif" font-size="10.00">stdexcept</text>
</a>
</g>
</g>
<!-- Node9&#45;&gt;Node10 -->
<g id="edge11_Node000009_Node000010" class="edge">
<title>Node9&#45;&gt;Node10</title>
<g id="a_edge11_Node000009_Node000010"><a xlink:title=" ">
<path fill="none" stroke="#63b8ff" d="M617.16,-54.75C618.07,-47.8 619.39,-37.85 620.54,-29.13"/>
<polygon fill="#63b8ff" stroke="#63b8ff" points="624.03,-29.46 621.87,-19.09 617.09,-28.54 624.03,-29.46"/>
</a>
</g>
</g>
<!-- Node11 -->
<g id="Node000011" class="node">
<title>Node11</title>
<g id="a_Node000011"><a xlink:title=" ">
<polygon fill="#e0e0e0" stroke="#999999" points="497.5,-19 452.5,-19 452.5,0 497.5,0 497.5,-19"/>
<text text-anchor="middle" x="475" y="-7" font-family="Helvetica,sans-Serif" font-size="10.00">utility</text>
</a>
</g>
</g>
<!-- Node9&#45;&gt;Node11 -->
<g id="edge12_Node000009_Node000011" class="edge">
<title>Node9&#45;&gt;Node11</title>
<g id="a_edge12_Node000009_Node000011"><a xlink:title=" ">
<path fill="none" stroke="#63b8ff" d="M593.35,-54.98C570.01,-46.21 533.45,-32.47 507.13,-22.58"/>
<polygon fill="#63b8ff" stroke="#63b8ff" points="508.19,-19.24 497.6,-18.99 505.73,-25.79 508.19,-19.24"/>
</a>
</g>
</g>
<!-- Node12 -->
<g id="Node000012" class="node">
<title>Node12</title>
<g id="a_Node000012"><a xlink:title=" ">
<polygon fill="#e0e0e0" stroke="#999999" points="572,-19 516,-19 516,0 572,0 572,-19"/>
<text text-anchor="middle" x="544" y="-7" font-family="Helvetica,sans-Serif" font-size="10.00">optional</text>
</a>
</g>
</g>
<!-- Node9&#45;&gt;Node12 -->
<g id="edge13_Node000009_Node000012" class="edge">
<title>Node9&#45;&gt;Node12</title>
<g id="a_edge13_Node000009_Node000012"><a xlink:title=" ">
<path fill="none" stroke="#63b8ff" d="M604.43,-54.98C593.58,-47 577.12,-34.88 564.12,-25.31"/>
<polygon fill="#63b8ff" stroke="#63b8ff" points="565.91,-22.28 555.78,-19.17 561.76,-27.92 565.91,-22.28"/>
</a>
</g>
</g>
<!-- Node13 -->
<g id="Node000013" class="node">
<title>Node13</title>
<g id="a_Node000013"><a xlink:title=" ">
<polygon fill="#e0e0e0" stroke="#999999" points="724.5,-19 673.5,-19 673.5,0 724.5,0 724.5,-19"/>
<text text-anchor="middle" x="699" y="-7" font-family="Helvetica,sans-Serif" font-size="10.00">variant</text>
</a>
</g>
</g>
<!-- Node9&#45;&gt;Node13 -->
<g id="edge14_Node000009_Node000013" class="edge">
<title>Node9&#45;&gt;Node13</title>
<g id="a_edge14_Node000009_Node000013"><a xlink:title=" ">
<path fill="none" stroke="#63b8ff" d="M629.34,-54.98C642.09,-46.84 661.55,-34.41 676.67,-24.76"/>
<polygon fill="#63b8ff" stroke="#63b8ff" points="678.88,-27.5 685.42,-19.17 675.11,-21.6 678.88,-27.5"/>
</a>
</g>
</g>
<!-- Node14&#45;&gt;Node4 -->
<g id="edge16_Node000014_Node000004" class="edge">
<title>Node14&#45;&gt;Node4</title>
<g id="a_edge16_Node000014_Node000004"><a xlink:title=" ">
<path fill="none" stroke="#63b8ff" d="M468.06,-109.78C475.13,-95.29 482.98,-72.51 474,-55 467.04,-41.44 453.81,-31.07 441.35,-23.78"/>
<polygon fill="#63b8ff" stroke="#63b8ff" points="442.98,-20.68 432.52,-19 439.65,-26.84 442.98,-20.68"/>
</a>
</g>
</g>
<!-- Node14&#45;&gt;Node5 -->
<g id="edge17_Node000014_Node000005" class="edge">
<title>Node14&#45;&gt;Node5</title>
<g id="a_edge17_Node000014_Node000005"><a xlink:title=" ">
<path fill="none" stroke="#63b8ff" d="M455.16,-109.84C452.49,-102.04 449.15,-92.27 446.29,-83.89"/>
<polygon fill="#63b8ff" stroke="#63b8ff" points="449.54,-82.6 443,-74.27 442.92,-84.86 449.54,-82.6"/>
</a>
</g>
</g>
<!-- Node14&#45;&gt;Node9 -->
<g id="edge18_Node000014_Node000009" class="edge">
<title>Node14&#45;&gt;Node9</title>
<g id="a_edge18_Node000014_Node000009"><a xlink:title=" ">
<path fill="none" stroke="#63b8ff" d="M497.37,-109.99C523.63,-100.14 558.41,-87.1 583.52,-77.68"/>
<polygon fill="#63b8ff" stroke="#63b8ff" points="584.83,-80.93 592.96,-74.14 582.37,-74.37 584.83,-80.93"/>
</a>
</g>
</g>
<!-- Node15&#45;&gt;Node4 -->
<g id="edge20_Node000015_Node000004" class="edge">
<title>Node15&#45;&gt;Node4</title>
<g id="a_edge20_Node000015_Node000004"><a xlink:title=" ">
<path fill="none" stroke="#63b8ff" d="M254.98,-115.44C274.09,-106.1 304.94,-90.28 330,-74 352.93,-59.1 377.52,-39.53 393.72,-26.08"/>
<polygon fill="#63b8ff" stroke="#63b8ff" points="396.39,-28.41 401.8,-19.3 391.89,-23.05 396.39,-28.41"/>
</a>
</g>
</g>
<!-- Node15&#45;&gt;Node5 -->
<g id="edge21_Node000015_Node000005" class="edge">
<title>Node15&#45;&gt;Node5</title>
<g id="a_edge21_Node000015_Node000005"><a xlink:title=" ">
<path fill="none" stroke="#63b8ff" d="M266.52,-115.49C303.34,-104.88 366.2,-86.77 405.29,-75.5"/>
<polygon fill="#63b8ff" stroke="#63b8ff" points="406.29,-78.86 414.93,-72.73 404.35,-72.13 406.29,-78.86"/>
</a>
</g>
</g>
<!-- Node15&#45;&gt;Node6 -->
<g id="edge30_Node000015_Node000006" class="edge">
<title>Node15&#45;&gt;Node6</title>
<g id="a_edge30_Node000015_Node000006"><a xlink:title=" ">
<path fill="none" stroke="#63b8ff" d="M220.62,-115.37C202.42,-105.78 172.8,-90.17 151.55,-78.97"/>
<polygon fill="#63b8ff" stroke="#63b8ff" points="152.92,-75.73 142.45,-74.17 149.66,-81.93 152.92,-75.73"/>
</a>
</g>
</g>
<!-- Node15&#45;&gt;Node12 -->
<g id="edge22_Node000015_Node000012" class="edge">
<title>Node15&#45;&gt;Node12</title>
<g id="a_edge22_Node000015_Node000012"><a xlink:title=" ">
<path fill="none" stroke="#63b8ff" d="M256.59,-115.44C287.88,-101.89 351.22,-74.98 406,-55 439.49,-42.78 478.15,-30.47 506.02,-21.9"/>
<polygon fill="#63b8ff" stroke="#63b8ff" points="507.23,-25.19 515.77,-18.92 505.19,-18.49 507.23,-25.19"/>
</a>
</g>
</g>
<!-- Node16 -->
<g id="Node000016" class="node">
<title>Node16</title>
<g id="a_Node000016"><a xlink:href="small__string_8h.html" target="_top" xlink:title=" ">
<polygon fill="white" stroke="#666666" points="320.5,-74 201.5,-74 201.5,-55 320.5,-55 320.5,-74"/>
<text text-anchor="middle" x="261" y="-62" font-family="Helvetica,sans-Serif" font-size="10.00">../core/small_string.h</text>
</a>
</g>
</g>
<!-- Node15&#45;&gt;Node16 -->
<g id="edge23_Node000015_Node000016" class="edge">
<title>Node15&#45;&gt;Node16</title>
<g id="a_edge23_Node000015_Node000016"><a xlink:title=" ">
<path fill="none" stroke="#63b8ff" d="M240.54,-115.37C243.94,-107.07 249.19,-94.28 253.52,-83.72"/>
<polygon fill="#63b8ff" stroke="#63b8ff" points="256.89,-84.75 257.44,-74.17 250.41,-82.09 256.89,-84.75"/>
</a>
</g>
</g>
<!-- Node16&#45;&gt;Node4 -->
<g id="edge25_Node000016_Node000004" class="edge">
<title>Node16&#45;&gt;Node4</title>
<g id="a_edge25_Node000016_Node000004"><a xlink:title=" ">
<path fill="none" stroke="#63b8ff" d="M285.26,-54.98C311.06,-45.93 351.98,-31.56 380.32,-21.62"/>
<polygon fill="#63b8ff" stroke="#63b8ff" points="381.49,-24.92 389.77,-18.3 379.17,-18.31 381.49,-24.92"/>
</a>
</g>
</g>
<!-- Node16&#45;&gt;Node7 -->
<g id="edge28_Node000016_Node000007" class="edge">
<title>Node16&#45;&gt;Node7</title>
<g id="a_edge28_Node000016_Node000007"><a xlink:title=" ">
<path fill="none" stroke="#63b8ff" d="M235.29,-54.98C208.55,-46.13 166.47,-32.19 136.55,-22.28"/>
<polygon fill="#63b8ff" stroke="#63b8ff" points="137.5,-18.9 126.91,-19.08 135.3,-25.55 137.5,-18.9"/>
</a>
</g>
</g>
<!-- Node16&#45;&gt;Node11 -->
<g id="edge29_Node000016_Node000011" class="edge">
<title>Node16&#45;&gt;Node11</title>
<g id="a_edge29_Node000016_Node000011"><a xlink:title=" ">
<path fill="none" stroke="#63b8ff" d="M296.97,-54.93C331.71,-46.6 386.06,-33.44 442.48,-19.09"/>
<polygon fill="#63b8ff" stroke="#63b8ff" points="443.46,-22.45 452.29,-16.59 441.73,-15.67 443.46,-22.45"/>
</a>
</g>
</g>
<!-- Node17 -->
<g id="Node000017" class="node">
<title>Node17</title>
<g id="a_Node000017"><a xlink:title=" ">
<polygon fill="#e0e0e0" stroke="#999999" points="198,-19 148,-19 148,0 198,0 198,-19"/>
<text text-anchor="middle" x="173" y="-7" font-family="Helvetica,sans-Serif" font-size="10.00">cstring</text>
</a>
</g>
</g>
<!-- Node16&#45;&gt;Node17 -->
<g id="edge24_Node000016_Node000017" class="edge">
<title>Node16&#45;&gt;Node17</title>
<g id="a_edge24_Node000016_Node000017"><a xlink:title=" ">
<path fill="none" stroke="#63b8ff" d="M246.86,-54.98C233.21,-46.77 212.31,-34.18 196.22,-24.49"/>
<polygon fill="#63b8ff" stroke="#63b8ff" points="197.77,-21.33 187.4,-19.17 194.16,-27.33 197.77,-21.33"/>
</a>
</g>
</g>
<!-- Node18 -->
<g id="Node000018" class="node">
<title>Node18</title>
<g id="a_Node000018"><a xlink:title=" ">
<polygon fill="#e0e0e0" stroke="#999999" points="289.5,-19 216.5,-19 216.5,0 289.5,0 289.5,-19"/>
<text text-anchor="middle" x="253" y="-7" font-family="Helvetica,sans-Serif" font-size="10.00">string_view</text>
</a>
</g>
</g>
<!-- Node16&#45;&gt;Node18 -->
<g id="edge26_Node000016_Node000018" class="edge">
<title>Node16&#45;&gt;Node18</title>
<g id="a_edge26_Node000016_Node000018"><a xlink:title=" ">
<path fill="none" stroke="#63b8ff" d="M259.68,-54.75C258.63,-47.8 257.13,-37.85 255.81,-29.13"/>
<polygon fill="#63b8ff" stroke="#63b8ff" points="259.25,-28.45 254.3,-19.09 252.33,-29.5 259.25,-28.45"/>
</a>
</g>
</g>
<!-- Node19 -->
<g id="Node000019" class="node">
<title>Node19</title>
<g id="a_Node000019"><a xlink:title=" ">
<polygon fill="#e0e0e0" stroke="#999999" points="372,-19 308,-19 308,0 372,0 372,-19"/>
<text text-anchor="middle" x="340" y="-7" font-family="Helvetica,sans-Serif" font-size="10.00">algorithm</text>
</a>
</g>
</g>
<!-- Node16&#45;&gt;Node19 -->
<g id="edge27_Node000016_Node000019" class="edge">
<title>Node16&#45;&gt;Node19</title>
<g id="a_edge27_Node000016_Node000019"><a xlink:title=" ">
<path fill="none" stroke="#63b8ff" d="M273.69,-54.98C285.83,-46.84 304.36,-34.41 318.75,-24.76"/>
<polygon fill="#63b8ff" stroke="#63b8ff" points="320.72,-27.65 327.08,-19.17 316.82,-21.84 320.72,-27.65"/>
</a>
</g>
</g>
</g>
</svg>
