<?xml version="1.0" encoding="UTF-8" standalone="no"?>
<!DOCTYPE svg PUBLIC "-//W3C//DTD SVG 1.1//EN"
 "http://www.w3.org/Graphics/SVG/1.1/DTD/svg11.dtd">
<!-- Generated by graphviz version 2.43.0 (0)
 -->
<!-- Title: rotating_file_writer.h Pages: 1 -->
<svg width="583pt" height="313pt"
 viewBox="0.00 0.00 582.50 313.00" xmlns="http://www.w3.org/2000/svg" xmlns:xlink="http://www.w3.org/1999/xlink">
<g id="graph0" class="graph" transform="scale(1 1) rotate(0) translate(4 309)">
<title>rotating_file_writer.h</title>
<!-- Node1 -->
<g id="Node000001" class="node">
<title>Node1</title>
<g id="a_Node000001"><a xlink:title=" ">
<polygon fill="#999999" stroke="#666666" points="487.5,-305 370.5,-305 370.5,-286 487.5,-286 487.5,-305"/>
<text text-anchor="middle" x="429" y="-293" font-family="Helvetica,sans-Serif" font-size="10.00">rotating_file_writer.h</text>
</a>
</g>
</g>
<!-- Node2 -->
<g id="Node000002" class="node">
<title>Node2</title>
<g id="a_Node000002"><a xlink:href="file__writer_8h.html" target="_top" xlink:title=" ">
<polygon fill="white" stroke="#666666" points="186,-250 112,-250 112,-231 186,-231 186,-250"/>
<text text-anchor="middle" x="149" y="-238" font-family="Helvetica,sans-Serif" font-size="10.00">file_writer.h</text>
</a>
</g>
</g>
<!-- Node1&#45;&gt;Node2 -->
<g id="edge1_Node000001_Node000002" class="edge">
<title>Node1&#45;&gt;Node2</title>
<g id="a_edge1_Node000001_Node000002"><a xlink:title=" ">
<path fill="none" stroke="#63b8ff" d="M384.01,-285.98C332.56,-276.25 248.7,-260.37 196.3,-250.45"/>
<polygon fill="#63b8ff" stroke="#63b8ff" points="196.74,-246.97 186.26,-248.55 195.44,-253.85 196.74,-246.97"/>
</a>
</g>
</g>
<!-- Node5 -->
<g id="Node000005" class="node">
<title>Node5</title>
<g id="a_Node000005"><a xlink:title=" ">
<polygon fill="#e0e0e0" stroke="#999999" points="389,-74 339,-74 339,-55 389,-55 389,-74"/>
<text text-anchor="middle" x="364" y="-62" font-family="Helvetica,sans-Serif" font-size="10.00">chrono</text>
</a>
</g>
</g>
<!-- Node1&#45;&gt;Node5 -->
<g id="edge27_Node000001_Node000005" class="edge">
<title>Node1&#45;&gt;Node5</title>
<g id="a_edge27_Node000001_Node000005"><a xlink:title=" ">
<path fill="none" stroke="#63b8ff" d="M426.53,-285.8C417,-252.22 382.47,-130.57 369.22,-83.9"/>
<polygon fill="#63b8ff" stroke="#63b8ff" points="372.57,-82.87 366.47,-74.21 365.83,-84.78 372.57,-82.87"/>
</a>
</g>
</g>
<!-- Node17 -->
<g id="Node000017" class="node">
<title>Node17</title>
<g id="a_Node000017"><a xlink:title=" ">
<polygon fill="#e0e0e0" stroke="#999999" points="485,-250 429,-250 429,-231 485,-231 485,-250"/>
<text text-anchor="middle" x="457" y="-238" font-family="Helvetica,sans-Serif" font-size="10.00">iomanip</text>
</a>
</g>
</g>
<!-- Node1&#45;&gt;Node17 -->
<g id="edge28_Node000001_Node000017" class="edge">
<title>Node1&#45;&gt;Node17</title>
<g id="a_edge28_Node000001_Node000017"><a xlink:title=" ">
<path fill="none" stroke="#63b8ff" d="M433.62,-285.75C437.46,-278.49 443.02,-267.95 447.76,-258.98"/>
<polygon fill="#63b8ff" stroke="#63b8ff" points="450.89,-260.57 452.46,-250.09 444.7,-257.3 450.89,-260.57"/>
</a>
</g>
</g>
<!-- Node18 -->
<g id="Node000018" class="node">
<title>Node18</title>
<g id="a_Node000018"><a xlink:title=" ">
<polygon fill="#e0e0e0" stroke="#999999" points="559,-250 503,-250 503,-231 559,-231 559,-250"/>
<text text-anchor="middle" x="531" y="-238" font-family="Helvetica,sans-Serif" font-size="10.00">sstream</text>
</a>
</g>
</g>
<!-- Node1&#45;&gt;Node18 -->
<g id="edge29_Node000001_Node000018" class="edge">
<title>Node1&#45;&gt;Node18</title>
<g id="a_edge29_Node000001_Node000018"><a xlink:title=" ">
<path fill="none" stroke="#63b8ff" d="M445.39,-285.98C461.57,-277.57 486.57,-264.59 505.38,-254.81"/>
<polygon fill="#63b8ff" stroke="#63b8ff" points="507.05,-257.89 514.31,-250.17 503.83,-251.68 507.05,-257.89"/>
</a>
</g>
</g>
<!-- Node3 -->
<g id="Node000003" class="node">
<title>Node3</title>
<g id="a_Node000003"><a xlink:href="base__writer_8h.html" target="_top" xlink:title=" ">
<polygon fill="white" stroke="#666666" points="310,-195 228,-195 228,-176 310,-176 310,-195"/>
<text text-anchor="middle" x="269" y="-183" font-family="Helvetica,sans-Serif" font-size="10.00">base_writer.h</text>
</a>
</g>
</g>
<!-- Node2&#45;&gt;Node3 -->
<g id="edge2_Node000002_Node000003" class="edge">
<title>Node2&#45;&gt;Node3</title>
<g id="a_edge2_Node000002_Node000003"><a xlink:title=" ">
<path fill="none" stroke="#63b8ff" d="M168.28,-230.98C187.67,-222.42 217.81,-209.11 240.07,-199.28"/>
<polygon fill="#63b8ff" stroke="#63b8ff" points="241.64,-202.41 249.37,-195.17 238.81,-196.01 241.64,-202.41"/>
</a>
</g>
</g>
<!-- Node7 -->
<g id="Node000007" class="node">
<title>Node7</title>
<g id="a_Node000007"><a xlink:title=" ">
<polygon fill="#e0e0e0" stroke="#999999" points="58,-19 0,-19 0,0 58,0 58,-19"/>
<text text-anchor="middle" x="29" y="-7" font-family="Helvetica,sans-Serif" font-size="10.00">memory</text>
</a>
</g>
</g>
<!-- Node2&#45;&gt;Node7 -->
<g id="edge26_Node000002_Node000007" class="edge">
<title>Node2&#45;&gt;Node7</title>
<g id="a_edge26_Node000002_Node000007"><a xlink:title=" ">
<path fill="none" stroke="#63b8ff" d="M118.36,-230.99C99.63,-224.23 76.71,-212.88 63,-195 24.73,-145.09 24.85,-65.5 27.22,-29.4"/>
<polygon fill="#63b8ff" stroke="#63b8ff" points="30.72,-29.55 28.02,-19.3 23.74,-28.99 30.72,-29.55"/>
</a>
</g>
</g>
<!-- Node8 -->
<g id="Node000008" class="node">
<title>Node8</title>
<g id="a_Node000008"><a xlink:title=" ">
<polygon fill="#e0e0e0" stroke="#999999" points="137,-19 89,-19 89,0 137,0 137,-19"/>
<text text-anchor="middle" x="113" y="-7" font-family="Helvetica,sans-Serif" font-size="10.00">mutex</text>
</a>
</g>
</g>
<!-- Node2&#45;&gt;Node8 -->
<g id="edge24_Node000002_Node000008" class="edge">
<title>Node2&#45;&gt;Node8</title>
<g id="a_edge24_Node000002_Node000008"><a xlink:title=" ">
<path fill="none" stroke="#63b8ff" d="M122.58,-230.85C106.07,-223.94 86.1,-212.48 76,-195 44.86,-141.12 50.72,-113.11 73,-55 77.24,-43.94 85.64,-33.91 93.64,-26.18"/>
<polygon fill="#63b8ff" stroke="#63b8ff" points="96.25,-28.55 101.36,-19.27 91.58,-23.33 96.25,-28.55"/>
</a>
</g>
</g>
<!-- Node15 -->
<g id="Node000015" class="node">
<title>Node15</title>
<g id="a_Node000015"><a xlink:title=" ">
<polygon fill="#e0e0e0" stroke="#999999" points="140.5,-195 85.5,-195 85.5,-176 140.5,-176 140.5,-195"/>
<text text-anchor="middle" x="113" y="-183" font-family="Helvetica,sans-Serif" font-size="10.00">fstream</text>
</a>
</g>
</g>
<!-- Node2&#45;&gt;Node15 -->
<g id="edge23_Node000002_Node000015" class="edge">
<title>Node2&#45;&gt;Node15</title>
<g id="a_edge23_Node000002_Node000015"><a xlink:title=" ">
<path fill="none" stroke="#63b8ff" d="M143.06,-230.75C138.02,-223.34 130.66,-212.5 124.49,-203.41"/>
<polygon fill="#63b8ff" stroke="#63b8ff" points="127.35,-201.39 118.83,-195.09 121.56,-205.33 127.35,-201.39"/>
</a>
</g>
</g>
<!-- Node16 -->
<g id="Node000016" class="node">
<title>Node16</title>
<g id="a_Node000016"><a xlink:title=" ">
<polygon fill="#e0e0e0" stroke="#999999" points="209,-195 159,-195 159,-176 209,-176 209,-195"/>
<text text-anchor="middle" x="184" y="-183" font-family="Helvetica,sans-Serif" font-size="10.00">atomic</text>
</a>
</g>
</g>
<!-- Node2&#45;&gt;Node16 -->
<g id="edge25_Node000002_Node000016" class="edge">
<title>Node2&#45;&gt;Node16</title>
<g id="a_edge25_Node000002_Node000016"><a xlink:title=" ">
<path fill="none" stroke="#63b8ff" d="M154.78,-230.75C159.62,-223.42 166.68,-212.73 172.64,-203.7"/>
<polygon fill="#63b8ff" stroke="#63b8ff" points="175.74,-205.36 178.33,-195.09 169.9,-201.5 175.74,-205.36"/>
</a>
</g>
</g>
<!-- Node4 -->
<g id="Node000004" class="node">
<title>Node4</title>
<g id="a_Node000004"><a xlink:title=" ">
<polygon fill="#e0e0e0" stroke="#999999" points="291,-19 247,-19 247,0 291,0 291,-19"/>
<text text-anchor="middle" x="269" y="-7" font-family="Helvetica,sans-Serif" font-size="10.00">string</text>
</a>
</g>
</g>
<!-- Node3&#45;&gt;Node4 -->
<g id="edge3_Node000003_Node000004" class="edge">
<title>Node3&#45;&gt;Node4</title>
<g id="a_edge3_Node000003_Node000004"><a xlink:title=" ">
<path fill="none" stroke="#63b8ff" d="M241.35,-175.98C224.42,-169.17 204.11,-157.76 194,-140 187.4,-128.41 189.77,-122.64 194,-110 205.31,-76.2 233.13,-44.69 251.52,-26.53"/>
<polygon fill="#63b8ff" stroke="#63b8ff" points="254.41,-28.6 259.22,-19.16 249.57,-23.55 254.41,-28.6"/>
</a>
</g>
</g>
<!-- Node3&#45;&gt;Node5 -->
<g id="edge4_Node000003_Node000005" class="edge">
<title>Node3&#45;&gt;Node5</title>
<g id="a_edge4_Node000003_Node000005"><a xlink:title=" ">
<path fill="none" stroke="#63b8ff" d="M293,-175.93C309.66,-168.78 331.1,-157.01 344,-140 356.24,-123.86 361,-100.78 362.84,-84.6"/>
<polygon fill="#63b8ff" stroke="#63b8ff" points="366.36,-84.49 363.74,-74.23 359.39,-83.89 366.36,-84.49"/>
</a>
</g>
</g>
<!-- Node6 -->
<g id="Node000006" class="node">
<title>Node6</title>
<g id="a_Node000006"><a xlink:href="logger__interface_8h.html" target="_top" xlink:title=" ">
<polygon fill="white" stroke="#666666" points="196,-74 82,-74 82,-55 196,-55 196,-74"/>
<text text-anchor="middle" x="139" y="-62" font-family="Helvetica,sans-Serif" font-size="10.00">../logger_interface.h</text>
</a>
</g>
</g>
<!-- Node3&#45;&gt;Node6 -->
<g id="edge5_Node000003_Node000006" class="edge">
<title>Node3&#45;&gt;Node6</title>
<g id="a_edge5_Node000003_Node000006"><a xlink:title=" ">
<path fill="none" stroke="#63b8ff" d="M227.77,-176.64C205.17,-170.32 178.31,-159.21 161,-140 147.06,-124.54 141.93,-100.63 140.06,-84.09"/>
<polygon fill="#63b8ff" stroke="#63b8ff" points="143.54,-83.68 139.21,-74.01 136.56,-84.26 143.54,-83.68"/>
</a>
</g>
</g>
<!-- Node9 -->
<g id="Node000009" class="node">
<title>Node9</title>
<g id="a_Node000009"><a xlink:href="error__codes_8h.html" target="_top" xlink:title=" ">
<polygon fill="white" stroke="#666666" points="538,-74 446,-74 446,-55 538,-55 538,-74"/>
<text text-anchor="middle" x="492" y="-62" font-family="Helvetica,sans-Serif" font-size="10.00">../error_codes.h</text>
</a>
</g>
</g>
<!-- Node3&#45;&gt;Node9 -->
<g id="edge9_Node000003_Node000009" class="edge">
<title>Node3&#45;&gt;Node9</title>
<g id="a_edge9_Node000003_Node000009"><a xlink:title=" ">
<path fill="none" stroke="#63b8ff" d="M310.16,-184.6C383.4,-183.81 531.74,-177.49 564,-140 572.7,-129.89 570.49,-121.65 564,-110 555.96,-95.58 541.1,-85.24 526.96,-78.18"/>
<polygon fill="#63b8ff" stroke="#63b8ff" points="528.4,-74.99 517.85,-74.01 525.49,-81.36 528.4,-74.99"/>
</a>
</g>
</g>
<!-- Node13 -->
<g id="Node000013" class="node">
<title>Node13</title>
<g id="a_Node000013"><a xlink:href="log__writer__interface_8h.html" target="_top" xlink:title=" ">
<polygon fill="white" stroke="#666666" points="555,-140 429,-140 429,-110 555,-110 555,-140"/>
<text text-anchor="start" x="437" y="-128" font-family="Helvetica,sans-Serif" font-size="10.00">../interfaces/log_writer</text>
<text text-anchor="middle" x="492" y="-117" font-family="Helvetica,sans-Serif" font-size="10.00">_interface.h</text>
</a>
</g>
</g>
<!-- Node3&#45;&gt;Node13 -->
<g id="edge14_Node000003_Node000013" class="edge">
<title>Node3&#45;&gt;Node13</title>
<g id="a_edge14_Node000003_Node000013"><a xlink:title=" ">
<path fill="none" stroke="#63b8ff" d="M301.43,-175.99C334.64,-167.28 387.14,-153.51 428.64,-142.62"/>
<polygon fill="#63b8ff" stroke="#63b8ff" points="429.6,-145.99 438.39,-140.06 427.83,-139.22 429.6,-145.99"/>
</a>
</g>
</g>
<!-- Node14 -->
<g id="Node000014" class="node">
<title>Node14</title>
<g id="a_Node000014"><a xlink:href="log__entry_8h.html" target="_top" xlink:title=" ">
<polygon fill="white" stroke="#666666" points="334.5,-134.5 203.5,-134.5 203.5,-115.5 334.5,-115.5 334.5,-134.5"/>
<text text-anchor="middle" x="269" y="-122.5" font-family="Helvetica,sans-Serif" font-size="10.00">../interfaces/log_entry.h</text>
</a>
</g>
</g>
<!-- Node3&#45;&gt;Node14 -->
<g id="edge18_Node000003_Node000014" class="edge">
<title>Node3&#45;&gt;Node14</title>
<g id="a_edge18_Node000003_Node000014"><a xlink:title=" ">
<path fill="none" stroke="#63b8ff" d="M269,-175.87C269,-167.75 269,-155.31 269,-144.89"/>
<polygon fill="#63b8ff" stroke="#63b8ff" points="272.5,-144.67 269,-134.67 265.5,-144.67 272.5,-144.67"/>
</a>
</g>
</g>
<!-- Node6&#45;&gt;Node4 -->
<g id="edge8_Node000006_Node000004" class="edge">
<title>Node6&#45;&gt;Node4</title>
<g id="a_edge8_Node000006_Node000004"><a xlink:title=" ">
<path fill="none" stroke="#63b8ff" d="M159.89,-54.98C181.08,-46.34 214.13,-32.87 238.3,-23.02"/>
<polygon fill="#63b8ff" stroke="#63b8ff" points="239.79,-26.19 247.73,-19.17 237.15,-19.7 239.79,-26.19"/>
</a>
</g>
</g>
<!-- Node6&#45;&gt;Node7 -->
<g id="edge6_Node000006_Node000007" class="edge">
<title>Node6&#45;&gt;Node7</title>
<g id="a_edge6_Node000006_Node000007"><a xlink:title=" ">
<path fill="none" stroke="#63b8ff" d="M121.33,-54.98C103.71,-46.5 76.42,-33.35 56.07,-23.54"/>
<polygon fill="#63b8ff" stroke="#63b8ff" points="57.52,-20.36 46.99,-19.17 54.48,-26.66 57.52,-20.36"/>
</a>
</g>
</g>
<!-- Node6&#45;&gt;Node8 -->
<g id="edge7_Node000006_Node000008" class="edge">
<title>Node6&#45;&gt;Node8</title>
<g id="a_edge7_Node000006_Node000008"><a xlink:title=" ">
<path fill="none" stroke="#63b8ff" d="M134.71,-54.75C131.19,-47.57 126.09,-37.18 121.72,-28.27"/>
<polygon fill="#63b8ff" stroke="#63b8ff" points="124.76,-26.53 117.21,-19.09 118.48,-29.61 124.76,-26.53"/>
</a>
</g>
</g>
<!-- Node9&#45;&gt;Node4 -->
<g id="edge10_Node000009_Node000004" class="edge">
<title>Node9&#45;&gt;Node4</title>
<g id="a_edge10_Node000009_Node000004"><a xlink:title=" ">
<path fill="none" stroke="#63b8ff" d="M456.17,-54.98C413.27,-44.79 342.06,-27.86 300.96,-18.09"/>
<polygon fill="#63b8ff" stroke="#63b8ff" points="301.73,-14.68 291.19,-15.77 300.11,-21.49 301.73,-14.68"/>
</a>
</g>
</g>
<!-- Node10 -->
<g id="Node000010" class="node">
<title>Node10</title>
<g id="a_Node000010"><a xlink:title=" ">
<polygon fill="#e0e0e0" stroke="#999999" points="505.5,-19 440.5,-19 440.5,0 505.5,0 505.5,-19"/>
<text text-anchor="middle" x="473" y="-7" font-family="Helvetica,sans-Serif" font-size="10.00">stdexcept</text>
</a>
</g>
</g>
<!-- Node9&#45;&gt;Node10 -->
<g id="edge11_Node000009_Node000010" class="edge">
<title>Node9&#45;&gt;Node10</title>
<g id="a_edge11_Node000009_Node000010"><a xlink:title=" ">
<path fill="none" stroke="#63b8ff" d="M488.86,-54.75C486.32,-47.65 482.64,-37.4 479.47,-28.56"/>
<polygon fill="#63b8ff" stroke="#63b8ff" points="482.75,-27.32 476.08,-19.09 476.16,-29.68 482.75,-27.32"/>
</a>
</g>
</g>
<!-- Node11 -->
<g id="Node000011" class="node">
<title>Node11</title>
<g id="a_Node000011"><a xlink:title=" ">
<polygon fill="#e0e0e0" stroke="#999999" points="403,-19 347,-19 347,0 403,0 403,-19"/>
<text text-anchor="middle" x="375" y="-7" font-family="Helvetica,sans-Serif" font-size="10.00">optional</text>
</a>
</g>
</g>
<!-- Node9&#45;&gt;Node11 -->
<g id="edge12_Node000009_Node000011" class="edge">
<title>Node9&#45;&gt;Node11</title>
<g id="a_edge12_Node000009_Node000011"><a xlink:title=" ">
<path fill="none" stroke="#63b8ff" d="M473.2,-54.98C454.38,-46.46 425.18,-33.23 403.5,-23.41"/>
<polygon fill="#63b8ff" stroke="#63b8ff" points="404.69,-20.11 394.14,-19.17 401.8,-26.48 404.69,-20.11"/>
</a>
</g>
</g>
<!-- Node12 -->
<g id="Node000012" class="node">
<title>Node12</title>
<g id="a_Node000012"><a xlink:title=" ">
<polygon fill="#e0e0e0" stroke="#999999" points="574.5,-19 523.5,-19 523.5,0 574.5,0 574.5,-19"/>
<text text-anchor="middle" x="549" y="-7" font-family="Helvetica,sans-Serif" font-size="10.00">variant</text>
</a>
</g>
</g>
<!-- Node9&#45;&gt;Node12 -->
<g id="edge13_Node000009_Node000012" class="edge">
<title>Node9&#45;&gt;Node12</title>
<g id="a_edge13_Node000009_Node000012"><a xlink:title=" ">
<path fill="none" stroke="#63b8ff" d="M501.16,-54.98C509.5,-47.23 522.03,-35.58 532.18,-26.14"/>
<polygon fill="#63b8ff" stroke="#63b8ff" points="534.74,-28.54 539.68,-19.17 529.97,-23.42 534.74,-28.54"/>
</a>
</g>
</g>
<!-- Node13&#45;&gt;Node4 -->
<g id="edge15_Node000013_Node000004" class="edge">
<title>Node13&#45;&gt;Node4</title>
<g id="a_edge15_Node000013_Node000004"><a xlink:title=" ">
<path fill="none" stroke="#63b8ff" d="M476.03,-109.92C458.08,-94.69 427.59,-70.5 398,-55 366.69,-38.59 328.06,-26.2 301.28,-18.71"/>
<polygon fill="#63b8ff" stroke="#63b8ff" points="301.85,-15.24 291.28,-15.99 300.01,-21.99 301.85,-15.24"/>
</a>
</g>
</g>
<!-- Node13&#45;&gt;Node5 -->
<g id="edge16_Node000013_Node000005" class="edge">
<title>Node13&#45;&gt;Node5</title>
<g id="a_edge16_Node000013_Node000005"><a xlink:title=" ">
<path fill="none" stroke="#63b8ff" d="M461.34,-109.99C440.27,-100.36 412.51,-87.67 392.03,-78.31"/>
<polygon fill="#63b8ff" stroke="#63b8ff" points="393.45,-75.11 382.9,-74.14 390.54,-81.48 393.45,-75.11"/>
</a>
</g>
</g>
<!-- Node13&#45;&gt;Node9 -->
<g id="edge17_Node000013_Node000009" class="edge">
<title>Node13&#45;&gt;Node9</title>
<g id="a_edge17_Node000013_Node000009"><a xlink:title=" ">
<path fill="none" stroke="#63b8ff" d="M492,-109.84C492,-102.21 492,-92.7 492,-84.45"/>
<polygon fill="#63b8ff" stroke="#63b8ff" points="495.5,-84.27 492,-74.27 488.5,-84.27 495.5,-84.27"/>
</a>
</g>
</g>
<!-- Node14&#45;&gt;Node4 -->
<g id="edge19_Node000014_Node000004" class="edge">
<title>Node14&#45;&gt;Node4</title>
<g id="a_edge19_Node000014_Node000004"><a xlink:title=" ">
<path fill="none" stroke="#63b8ff" d="M269,-115.47C269,-97.23 269,-54.07 269,-29.14"/>
<polygon fill="#63b8ff" stroke="#63b8ff" points="272.5,-29.13 269,-19.13 265.5,-29.13 272.5,-29.13"/>
</a>
</g>
</g>
<!-- Node14&#45;&gt;Node5 -->
<g id="edge20_Node000014_Node000005" class="edge">
<title>Node14&#45;&gt;Node5</title>
<g id="a_edge20_Node000014_Node000005"><a xlink:title=" ">
<path fill="none" stroke="#63b8ff" d="M283.02,-115.37C298.31,-105.95 323.03,-90.73 341.14,-79.58"/>
<polygon fill="#63b8ff" stroke="#63b8ff" points="343.25,-82.39 349.92,-74.17 339.57,-76.43 343.25,-82.39"/>
</a>
</g>
</g>
<!-- Node14&#45;&gt;Node6 -->
<g id="edge22_Node000014_Node000006" class="edge">
<title>Node14&#45;&gt;Node6</title>
<g id="a_edge22_Node000014_Node000006"><a xlink:title=" ">
<path fill="none" stroke="#63b8ff" d="M250.1,-115.49C228.34,-105.7 192.38,-89.52 167.29,-78.23"/>
<polygon fill="#63b8ff" stroke="#63b8ff" points="168.48,-74.93 157.93,-74.02 165.61,-81.31 168.48,-74.93"/>
</a>
</g>
</g>
<!-- Node14&#45;&gt;Node11 -->
<g id="edge21_Node000014_Node000011" class="edge">
<title>Node14&#45;&gt;Node11</title>
<g id="a_edge21_Node000014_Node000011"><a xlink:title=" ">
<path fill="none" stroke="#63b8ff" d="M276.33,-115.34C287.61,-102.1 310.01,-76.14 330,-55 339.25,-45.22 349.95,-34.61 358.6,-26.2"/>
<polygon fill="#63b8ff" stroke="#63b8ff" points="361.1,-28.66 365.86,-19.19 356.23,-23.62 361.1,-28.66"/>
</a>
</g>
</g>
</g>
</svg>
