<?xml version="1.0" encoding="UTF-8" standalone="no"?>
<!DOCTYPE svg PUBLIC "-//W3C//DTD SVG 1.1//EN"
 "http://www.w3.org/Graphics/SVG/1.1/DTD/svg11.dtd">
<!-- Generated by graphviz version 2.43.0 (0)
 -->
<!-- Title: rotating_file_writer.cpp Pages: 1 -->
<svg width="929pt" height="368pt"
 viewBox="0.00 0.00 928.84 368.00" xmlns="http://www.w3.org/2000/svg" xmlns:xlink="http://www.w3.org/1999/xlink">
<g id="graph0" class="graph" transform="scale(1 1) rotate(0) translate(4 364)">
<title>rotating_file_writer.cpp</title>
<!-- Node1 -->
<g id="Node000001" class="node">
<title>Node1</title>
<g id="a_Node000001"><a xlink:title=" ">
<polygon fill="#999999" stroke="#666666" points="812.84,-360 684.84,-360 684.84,-341 812.84,-341 812.84,-360"/>
<text text-anchor="middle" x="748.84" y="-348" font-family="Helvetica,sans-Serif" font-size="10.00">rotating_file_writer.cpp</text>
</a>
</g>
</g>
<!-- Node2 -->
<g id="Node000002" class="node">
<title>Node2</title>
<g id="a_Node000002"><a xlink:href="rotating__file__writer_8h.html" target="_top" xlink:title=" ">
<polygon fill="white" stroke="#666666" points="612.34,-305 495.34,-305 495.34,-286 612.34,-286 612.34,-305"/>
<text text-anchor="middle" x="553.84" y="-293" font-family="Helvetica,sans-Serif" font-size="10.00">rotating_file_writer.h</text>
</a>
</g>
</g>
<!-- Node1&#45;&gt;Node2 -->
<g id="edge1_Node000001_Node000002" class="edge">
<title>Node1&#45;&gt;Node2</title>
<g id="a_edge1_Node000001_Node000002"><a xlink:title=" ">
<path fill="none" stroke="#63b8ff" d="M717.51,-340.98C684.35,-331.97 631.85,-317.7 595.28,-307.76"/>
<polygon fill="#63b8ff" stroke="#63b8ff" points="595.99,-304.33 585.42,-305.08 594.15,-311.08 595.99,-304.33"/>
</a>
</g>
</g>
<!-- Node19 -->
<g id="Node000019" class="node">
<title>Node19</title>
<g id="a_Node000019"><a xlink:title=" ">
<polygon fill="#e0e0e0" stroke="#999999" points="698.84,-305 630.84,-305 630.84,-286 698.84,-286 698.84,-305"/>
<text text-anchor="middle" x="664.84" y="-293" font-family="Helvetica,sans-Serif" font-size="10.00">filesystem</text>
</a>
</g>
</g>
<!-- Node1&#45;&gt;Node19 -->
<g id="edge29_Node000001_Node000019" class="edge">
<title>Node1&#45;&gt;Node19</title>
<g id="a_edge29_Node000001_Node000019"><a xlink:title=" ">
<path fill="none" stroke="#63b8ff" d="M735.35,-340.98C722.44,-332.84 702.74,-320.41 687.44,-310.76"/>
<polygon fill="#63b8ff" stroke="#63b8ff" points="688.91,-307.55 678.59,-305.17 685.18,-313.47 688.91,-307.55"/>
</a>
</g>
</g>
<!-- Node20 -->
<g id="Node000020" class="node">
<title>Node20</title>
<g id="a_Node000020"><a xlink:title=" ">
<polygon fill="#e0e0e0" stroke="#999999" points="780.84,-305 716.84,-305 716.84,-286 780.84,-286 780.84,-305"/>
<text text-anchor="middle" x="748.84" y="-293" font-family="Helvetica,sans-Serif" font-size="10.00">algorithm</text>
</a>
</g>
</g>
<!-- Node1&#45;&gt;Node20 -->
<g id="edge30_Node000001_Node000020" class="edge">
<title>Node1&#45;&gt;Node20</title>
<g id="a_edge30_Node000001_Node000020"><a xlink:title=" ">
<path fill="none" stroke="#63b8ff" d="M748.84,-340.75C748.84,-333.8 748.84,-323.85 748.84,-315.13"/>
<polygon fill="#63b8ff" stroke="#63b8ff" points="752.35,-315.09 748.84,-305.09 745.35,-315.09 752.35,-315.09"/>
</a>
</g>
</g>
<!-- Node21 -->
<g id="Node000021" class="node">
<title>Node21</title>
<g id="a_Node000021"><a xlink:title=" ">
<polygon fill="#e0e0e0" stroke="#999999" points="842.84,-305 798.84,-305 798.84,-286 842.84,-286 842.84,-305"/>
<text text-anchor="middle" x="820.84" y="-293" font-family="Helvetica,sans-Serif" font-size="10.00">regex</text>
</a>
</g>
</g>
<!-- Node1&#45;&gt;Node21 -->
<g id="edge31_Node000001_Node000021" class="edge">
<title>Node1&#45;&gt;Node21</title>
<g id="a_edge31_Node000001_Node000021"><a xlink:title=" ">
<path fill="none" stroke="#63b8ff" d="M760.41,-340.98C771.27,-333 787.73,-320.88 800.73,-311.31"/>
<polygon fill="#63b8ff" stroke="#63b8ff" points="803.09,-313.92 809.07,-305.17 798.94,-308.28 803.09,-313.92"/>
</a>
</g>
</g>
<!-- Node22 -->
<g id="Node000022" class="node">
<title>Node22</title>
<g id="a_Node000022"><a xlink:title=" ">
<polygon fill="#e0e0e0" stroke="#999999" points="920.84,-305 860.84,-305 860.84,-286 920.84,-286 920.84,-305"/>
<text text-anchor="middle" x="890.84" y="-293" font-family="Helvetica,sans-Serif" font-size="10.00">iostream</text>
</a>
</g>
</g>
<!-- Node1&#45;&gt;Node22 -->
<g id="edge32_Node000001_Node000022" class="edge">
<title>Node1&#45;&gt;Node22</title>
<g id="a_edge32_Node000001_Node000022"><a xlink:title=" ">
<path fill="none" stroke="#63b8ff" d="M771.66,-340.98C795.02,-332.27 831.55,-318.63 858.01,-308.75"/>
<polygon fill="#63b8ff" stroke="#63b8ff" points="859.47,-311.95 867.62,-305.17 857.02,-305.39 859.47,-311.95"/>
</a>
</g>
</g>
<!-- Node3 -->
<g id="Node000003" class="node">
<title>Node3</title>
<g id="a_Node000003"><a xlink:href="file__writer_8h.html" target="_top" xlink:title=" ">
<polygon fill="white" stroke="#666666" points="549.84,-250 475.84,-250 475.84,-231 549.84,-231 549.84,-250"/>
<text text-anchor="middle" x="512.84" y="-238" font-family="Helvetica,sans-Serif" font-size="10.00">file_writer.h</text>
</a>
</g>
</g>
<!-- Node2&#45;&gt;Node3 -->
<g id="edge2_Node000002_Node000003" class="edge">
<title>Node2&#45;&gt;Node3</title>
<g id="a_edge2_Node000002_Node000003"><a xlink:title=" ">
<path fill="none" stroke="#63b8ff" d="M547.07,-285.75C541.28,-278.26 532.79,-267.28 525.71,-258.13"/>
<polygon fill="#63b8ff" stroke="#63b8ff" points="528.38,-255.86 519.49,-250.09 522.84,-260.14 528.38,-255.86"/>
</a>
</g>
</g>
<!-- Node6 -->
<g id="Node000006" class="node">
<title>Node6</title>
<g id="a_Node000006"><a xlink:title=" ">
<polygon fill="#e0e0e0" stroke="#999999" points="230.84,-74 180.84,-74 180.84,-55 230.84,-55 230.84,-74"/>
<text text-anchor="middle" x="205.84" y="-62" font-family="Helvetica,sans-Serif" font-size="10.00">chrono</text>
</a>
</g>
</g>
<!-- Node2&#45;&gt;Node6 -->
<g id="edge26_Node000002_Node000006" class="edge">
<title>Node2&#45;&gt;Node6</title>
<g id="a_edge26_Node000002_Node000006"><a xlink:title=" ">
<path fill="none" stroke="#63b8ff" d="M495.6,-286C430.92,-274.28 325.76,-248.25 250.84,-195 225.78,-177.18 219.28,-168.93 208.84,-140 202.33,-121.95 202.36,-99.83 203.53,-84.4"/>
<polygon fill="#63b8ff" stroke="#63b8ff" points="207.05,-84.38 204.56,-74.08 200.08,-83.69 207.05,-84.38"/>
</a>
</g>
</g>
<!-- Node17 -->
<g id="Node000017" class="node">
<title>Node17</title>
<g id="a_Node000017"><a xlink:title=" ">
<polygon fill="#e0e0e0" stroke="#999999" points="623.84,-250 567.84,-250 567.84,-231 623.84,-231 623.84,-250"/>
<text text-anchor="middle" x="595.84" y="-238" font-family="Helvetica,sans-Serif" font-size="10.00">iomanip</text>
</a>
</g>
</g>
<!-- Node2&#45;&gt;Node17 -->
<g id="edge27_Node000002_Node000017" class="edge">
<title>Node2&#45;&gt;Node17</title>
<g id="a_edge27_Node000002_Node000017"><a xlink:title=" ">
<path fill="none" stroke="#63b8ff" d="M560.78,-285.75C566.71,-278.26 575.42,-267.28 582.67,-258.13"/>
<polygon fill="#63b8ff" stroke="#63b8ff" points="585.57,-260.1 589.04,-250.09 580.08,-255.75 585.57,-260.1"/>
</a>
</g>
</g>
<!-- Node18 -->
<g id="Node000018" class="node">
<title>Node18</title>
<g id="a_Node000018"><a xlink:title=" ">
<polygon fill="#e0e0e0" stroke="#999999" points="697.84,-250 641.84,-250 641.84,-231 697.84,-231 697.84,-250"/>
<text text-anchor="middle" x="669.84" y="-238" font-family="Helvetica,sans-Serif" font-size="10.00">sstream</text>
</a>
</g>
</g>
<!-- Node2&#45;&gt;Node18 -->
<g id="edge28_Node000002_Node000018" class="edge">
<title>Node2&#45;&gt;Node18</title>
<g id="a_edge28_Node000002_Node000018"><a xlink:title=" ">
<path fill="none" stroke="#63b8ff" d="M572.48,-285.98C591.14,-277.46 620.1,-264.23 641.58,-254.41"/>
<polygon fill="#63b8ff" stroke="#63b8ff" points="643.23,-257.51 650.87,-250.17 640.32,-251.14 643.23,-257.51"/>
</a>
</g>
</g>
<!-- Node4 -->
<g id="Node000004" class="node">
<title>Node4</title>
<g id="a_Node000004"><a xlink:href="base__writer_8h.html" target="_top" xlink:title=" ">
<polygon fill="white" stroke="#666666" points="341.84,-195 259.84,-195 259.84,-176 341.84,-176 341.84,-195"/>
<text text-anchor="middle" x="300.84" y="-183" font-family="Helvetica,sans-Serif" font-size="10.00">base_writer.h</text>
</a>
</g>
</g>
<!-- Node3&#45;&gt;Node4 -->
<g id="edge3_Node000003_Node000004" class="edge">
<title>Node3&#45;&gt;Node4</title>
<g id="a_edge3_Node000003_Node000004"><a xlink:title=" ">
<path fill="none" stroke="#63b8ff" d="M478.78,-230.98C442.42,-221.89 384.67,-207.46 344.88,-197.51"/>
<polygon fill="#63b8ff" stroke="#63b8ff" points="345.72,-194.11 335.17,-195.08 344.03,-200.9 345.72,-194.11"/>
</a>
</g>
</g>
<!-- Node9 -->
<g id="Node000009" class="node">
<title>Node9</title>
<g id="a_Node000009"><a xlink:title=" ">
<polygon fill="#e0e0e0" stroke="#999999" points="529.84,-19 481.84,-19 481.84,0 529.84,0 529.84,-19"/>
<text text-anchor="middle" x="505.84" y="-7" font-family="Helvetica,sans-Serif" font-size="10.00">mutex</text>
</a>
</g>
</g>
<!-- Node3&#45;&gt;Node9 -->
<g id="edge24_Node000003_Node000009" class="edge">
<title>Node3&#45;&gt;Node9</title>
<g id="a_edge24_Node000003_Node000009"><a xlink:title=" ">
<path fill="none" stroke="#63b8ff" d="M512.58,-230.8C511.56,-197.36 507.87,-76.59 506.43,-29.49"/>
<polygon fill="#63b8ff" stroke="#63b8ff" points="509.92,-29.09 506.11,-19.21 502.92,-29.31 509.92,-29.09"/>
</a>
</g>
</g>
<!-- Node15 -->
<g id="Node000015" class="node">
<title>Node15</title>
<g id="a_Node000015"><a xlink:title=" ">
<polygon fill="#e0e0e0" stroke="#999999" points="596.34,-195 541.34,-195 541.34,-176 596.34,-176 596.34,-195"/>
<text text-anchor="middle" x="568.84" y="-183" font-family="Helvetica,sans-Serif" font-size="10.00">fstream</text>
</a>
</g>
</g>
<!-- Node3&#45;&gt;Node15 -->
<g id="edge23_Node000003_Node000015" class="edge">
<title>Node3&#45;&gt;Node15</title>
<g id="a_edge23_Node000003_Node000015"><a xlink:title=" ">
<path fill="none" stroke="#63b8ff" d="M521.84,-230.98C530.04,-223.23 542.35,-211.58 552.32,-202.14"/>
<polygon fill="#63b8ff" stroke="#63b8ff" points="554.83,-204.59 559.68,-195.17 550.02,-199.5 554.83,-204.59"/>
</a>
</g>
</g>
<!-- Node16 -->
<g id="Node000016" class="node">
<title>Node16</title>
<g id="a_Node000016"><a xlink:title=" ">
<polygon fill="#e0e0e0" stroke="#999999" points="664.84,-195 614.84,-195 614.84,-176 664.84,-176 664.84,-195"/>
<text text-anchor="middle" x="639.84" y="-183" font-family="Helvetica,sans-Serif" font-size="10.00">atomic</text>
</a>
</g>
</g>
<!-- Node3&#45;&gt;Node16 -->
<g id="edge25_Node000003_Node000016" class="edge">
<title>Node3&#45;&gt;Node16</title>
<g id="a_edge25_Node000003_Node000016"><a xlink:title=" ">
<path fill="none" stroke="#63b8ff" d="M533.25,-230.98C553.86,-222.38 585.95,-208.99 609.54,-199.15"/>
<polygon fill="#63b8ff" stroke="#63b8ff" points="611.19,-202.25 619.07,-195.17 608.49,-195.79 611.19,-202.25"/>
</a>
</g>
</g>
<!-- Node5 -->
<g id="Node000005" class="node">
<title>Node5</title>
<g id="a_Node000005"><a xlink:title=" ">
<polygon fill="#e0e0e0" stroke="#999999" points="322.84,-19 278.84,-19 278.84,0 322.84,0 322.84,-19"/>
<text text-anchor="middle" x="300.84" y="-7" font-family="Helvetica,sans-Serif" font-size="10.00">string</text>
</a>
</g>
</g>
<!-- Node4&#45;&gt;Node5 -->
<g id="edge4_Node000004_Node000005" class="edge">
<title>Node4&#45;&gt;Node5</title>
<g id="a_edge4_Node000004_Node000005"><a xlink:title=" ">
<path fill="none" stroke="#63b8ff" d="M328.49,-175.98C345.43,-169.17 365.73,-157.76 375.84,-140 382.44,-128.41 380.08,-122.64 375.84,-110 364.53,-76.2 336.71,-44.69 318.32,-26.53"/>
<polygon fill="#63b8ff" stroke="#63b8ff" points="320.27,-23.55 310.63,-19.16 315.43,-28.6 320.27,-23.55"/>
</a>
</g>
</g>
<!-- Node4&#45;&gt;Node6 -->
<g id="edge5_Node000004_Node000006" class="edge">
<title>Node4&#45;&gt;Node6</title>
<g id="a_edge5_Node000004_Node000006"><a xlink:title=" ">
<path fill="none" stroke="#63b8ff" d="M277.58,-175.95C261.12,-168.76 239.76,-156.92 226.84,-140 214.51,-123.84 209.42,-100.76 207.32,-84.59"/>
<polygon fill="#63b8ff" stroke="#63b8ff" points="210.76,-83.82 206.26,-74.23 203.8,-84.53 210.76,-83.82"/>
</a>
</g>
</g>
<!-- Node7 -->
<g id="Node000007" class="node">
<title>Node7</title>
<g id="a_Node000007"><a xlink:href="logger__interface_8h.html" target="_top" xlink:title=" ">
<polygon fill="white" stroke="#666666" points="484.84,-74 370.84,-74 370.84,-55 484.84,-55 484.84,-74"/>
<text text-anchor="middle" x="427.84" y="-62" font-family="Helvetica,sans-Serif" font-size="10.00">../logger_interface.h</text>
</a>
</g>
</g>
<!-- Node4&#45;&gt;Node7 -->
<g id="edge6_Node000004_Node000007" class="edge">
<title>Node4&#45;&gt;Node7</title>
<g id="a_edge6_Node000004_Node000007"><a xlink:title=" ">
<path fill="none" stroke="#63b8ff" d="M342.08,-176.95C364.83,-170.73 391.83,-159.6 408.84,-140 422.21,-124.6 426.39,-101.06 427.59,-84.57"/>
<polygon fill="#63b8ff" stroke="#63b8ff" points="431.09,-84.61 428.02,-74.47 424.1,-84.31 431.09,-84.61"/>
</a>
</g>
</g>
<!-- Node10 -->
<g id="Node000010" class="node">
<title>Node10</title>
<g id="a_Node000010"><a xlink:href="error__codes_8h.html" target="_top" xlink:title=" ">
<polygon fill="white" stroke="#666666" points="124.84,-74 32.84,-74 32.84,-55 124.84,-55 124.84,-74"/>
<text text-anchor="middle" x="78.84" y="-62" font-family="Helvetica,sans-Serif" font-size="10.00">../error_codes.h</text>
</a>
</g>
</g>
<!-- Node4&#45;&gt;Node10 -->
<g id="edge10_Node000004_Node000010" class="edge">
<title>Node4&#45;&gt;Node10</title>
<g id="a_edge10_Node000004_Node000010"><a xlink:title=" ">
<path fill="none" stroke="#63b8ff" d="M259.69,-184.6C186.44,-183.81 38.11,-177.49 5.84,-140 -2.85,-129.89 -0.68,-121.63 5.84,-110 13.95,-95.56 28.86,-85.26 43.1,-78.22"/>
<polygon fill="#63b8ff" stroke="#63b8ff" points="44.61,-81.38 52.28,-74.06 41.72,-75 44.61,-81.38"/>
</a>
</g>
</g>
<!-- Node13 -->
<g id="Node000013" class="node">
<title>Node13</title>
<g id="a_Node000013"><a xlink:href="log__writer__interface_8h.html" target="_top" xlink:title=" ">
<polygon fill="white" stroke="#666666" points="140.84,-140 14.84,-140 14.84,-110 140.84,-110 140.84,-140"/>
<text text-anchor="start" x="22.84" y="-128" font-family="Helvetica,sans-Serif" font-size="10.00">../interfaces/log_writer</text>
<text text-anchor="middle" x="77.84" y="-117" font-family="Helvetica,sans-Serif" font-size="10.00">_interface.h</text>
</a>
</g>
</g>
<!-- Node4&#45;&gt;Node13 -->
<g id="edge14_Node000004_Node000013" class="edge">
<title>Node4&#45;&gt;Node13</title>
<g id="a_edge14_Node000004_Node000013"><a xlink:title=" ">
<path fill="none" stroke="#63b8ff" d="M268.42,-175.99C235.2,-167.28 182.7,-153.51 141.21,-142.62"/>
<polygon fill="#63b8ff" stroke="#63b8ff" points="142.02,-139.22 131.46,-140.06 140.24,-145.99 142.02,-139.22"/>
</a>
</g>
</g>
<!-- Node14 -->
<g id="Node000014" class="node">
<title>Node14</title>
<g id="a_Node000014"><a xlink:href="log__entry_8h.html" target="_top" xlink:title=" ">
<polygon fill="white" stroke="#666666" points="366.34,-134.5 235.34,-134.5 235.34,-115.5 366.34,-115.5 366.34,-134.5"/>
<text text-anchor="middle" x="300.84" y="-122.5" font-family="Helvetica,sans-Serif" font-size="10.00">../interfaces/log_entry.h</text>
</a>
</g>
</g>
<!-- Node4&#45;&gt;Node14 -->
<g id="edge18_Node000004_Node000014" class="edge">
<title>Node4&#45;&gt;Node14</title>
<g id="a_edge18_Node000004_Node000014"><a xlink:title=" ">
<path fill="none" stroke="#63b8ff" d="M300.84,-175.87C300.84,-167.75 300.84,-155.31 300.84,-144.89"/>
<polygon fill="#63b8ff" stroke="#63b8ff" points="304.35,-144.67 300.84,-134.67 297.35,-144.67 304.35,-144.67"/>
</a>
</g>
</g>
<!-- Node7&#45;&gt;Node5 -->
<g id="edge9_Node000007_Node000005" class="edge">
<title>Node7&#45;&gt;Node5</title>
<g id="a_edge9_Node000007_Node000005"><a xlink:title=" ">
<path fill="none" stroke="#63b8ff" d="M407.44,-54.98C386.83,-46.38 354.74,-32.99 331.15,-23.15"/>
<polygon fill="#63b8ff" stroke="#63b8ff" points="332.2,-19.79 321.62,-19.17 329.5,-26.25 332.2,-19.79"/>
</a>
</g>
</g>
<!-- Node8 -->
<g id="Node000008" class="node">
<title>Node8</title>
<g id="a_Node000008"><a xlink:title=" ">
<polygon fill="#e0e0e0" stroke="#999999" points="456.84,-19 398.84,-19 398.84,0 456.84,0 456.84,-19"/>
<text text-anchor="middle" x="427.84" y="-7" font-family="Helvetica,sans-Serif" font-size="10.00">memory</text>
</a>
</g>
</g>
<!-- Node7&#45;&gt;Node8 -->
<g id="edge7_Node000007_Node000008" class="edge">
<title>Node7&#45;&gt;Node8</title>
<g id="a_edge7_Node000007_Node000008"><a xlink:title=" ">
<path fill="none" stroke="#63b8ff" d="M427.84,-54.75C427.84,-47.8 427.84,-37.85 427.84,-29.13"/>
<polygon fill="#63b8ff" stroke="#63b8ff" points="431.35,-29.09 427.84,-19.09 424.35,-29.09 431.35,-29.09"/>
</a>
</g>
</g>
<!-- Node7&#45;&gt;Node9 -->
<g id="edge8_Node000007_Node000009" class="edge">
<title>Node7&#45;&gt;Node9</title>
<g id="a_edge8_Node000007_Node000009"><a xlink:title=" ">
<path fill="none" stroke="#63b8ff" d="M440.38,-54.98C452.25,-46.92 470.31,-34.65 484.46,-25.03"/>
<polygon fill="#63b8ff" stroke="#63b8ff" points="486.78,-27.69 493.08,-19.17 482.85,-21.9 486.78,-27.69"/>
</a>
</g>
</g>
<!-- Node10&#45;&gt;Node5 -->
<g id="edge11_Node000010_Node000005" class="edge">
<title>Node10&#45;&gt;Node5</title>
<g id="a_edge11_Node000010_Node000005"><a xlink:title=" ">
<path fill="none" stroke="#63b8ff" d="M114.51,-54.98C157.13,-44.81 227.81,-27.94 268.77,-18.16"/>
<polygon fill="#63b8ff" stroke="#63b8ff" points="269.84,-21.5 278.76,-15.77 268.22,-14.69 269.84,-21.5"/>
</a>
</g>
</g>
<!-- Node11 -->
<g id="Node000011" class="node">
<title>Node11</title>
<g id="a_Node000011"><a xlink:title=" ">
<polygon fill="#e0e0e0" stroke="#999999" points="219.84,-19 163.84,-19 163.84,0 219.84,0 219.84,-19"/>
<text text-anchor="middle" x="191.84" y="-7" font-family="Helvetica,sans-Serif" font-size="10.00">optional</text>
</a>
</g>
</g>
<!-- Node10&#45;&gt;Node11 -->
<g id="edge12_Node000010_Node000011" class="edge">
<title>Node10&#45;&gt;Node11</title>
<g id="a_edge12_Node000010_Node000011"><a xlink:title=" ">
<path fill="none" stroke="#63b8ff" d="M97,-54.98C115.1,-46.5 143.13,-33.35 164.03,-23.54"/>
<polygon fill="#63b8ff" stroke="#63b8ff" points="165.79,-26.59 173.36,-19.17 162.82,-20.25 165.79,-26.59"/>
</a>
</g>
</g>
<!-- Node12 -->
<g id="Node000012" class="node">
<title>Node12</title>
<g id="a_Node000012"><a xlink:title=" ">
<polygon fill="#e0e0e0" stroke="#999999" points="104.34,-19 53.34,-19 53.34,0 104.34,0 104.34,-19"/>
<text text-anchor="middle" x="78.84" y="-7" font-family="Helvetica,sans-Serif" font-size="10.00">variant</text>
</a>
</g>
</g>
<!-- Node10&#45;&gt;Node12 -->
<g id="edge13_Node000010_Node000012" class="edge">
<title>Node10&#45;&gt;Node12</title>
<g id="a_edge13_Node000010_Node000012"><a xlink:title=" ">
<path fill="none" stroke="#63b8ff" d="M78.84,-54.75C78.84,-47.8 78.84,-37.85 78.84,-29.13"/>
<polygon fill="#63b8ff" stroke="#63b8ff" points="82.35,-29.09 78.84,-19.09 75.35,-29.09 82.35,-29.09"/>
</a>
</g>
</g>
<!-- Node13&#45;&gt;Node5 -->
<g id="edge15_Node000013_Node000005" class="edge">
<title>Node13&#45;&gt;Node5</title>
<g id="a_edge15_Node000013_Node000005"><a xlink:title=" ">
<path fill="none" stroke="#63b8ff" d="M93.82,-109.92C111.76,-94.69 142.26,-70.5 171.84,-55 203.15,-38.59 241.78,-26.2 268.57,-18.71"/>
<polygon fill="#63b8ff" stroke="#63b8ff" points="269.83,-21.99 278.56,-15.99 267.99,-15.24 269.83,-21.99"/>
</a>
</g>
</g>
<!-- Node13&#45;&gt;Node6 -->
<g id="edge16_Node000013_Node000006" class="edge">
<title>Node13&#45;&gt;Node6</title>
<g id="a_edge16_Node000013_Node000006"><a xlink:title=" ">
<path fill="none" stroke="#63b8ff" d="M108.5,-109.99C129.57,-100.36 157.33,-87.67 177.81,-78.31"/>
<polygon fill="#63b8ff" stroke="#63b8ff" points="179.3,-81.48 186.94,-74.14 176.39,-75.11 179.3,-81.48"/>
</a>
</g>
</g>
<!-- Node13&#45;&gt;Node10 -->
<g id="edge17_Node000013_Node000010" class="edge">
<title>Node13&#45;&gt;Node10</title>
<g id="a_edge17_Node000013_Node000010"><a xlink:title=" ">
<path fill="none" stroke="#63b8ff" d="M78.09,-109.84C78.22,-102.21 78.38,-92.7 78.52,-84.45"/>
<polygon fill="#63b8ff" stroke="#63b8ff" points="82.02,-84.32 78.7,-74.27 75.02,-84.2 82.02,-84.32"/>
</a>
</g>
</g>
<!-- Node14&#45;&gt;Node5 -->
<g id="edge19_Node000014_Node000005" class="edge">
<title>Node14&#45;&gt;Node5</title>
<g id="a_edge19_Node000014_Node000005"><a xlink:title=" ">
<path fill="none" stroke="#63b8ff" d="M300.84,-115.47C300.84,-97.23 300.84,-54.07 300.84,-29.14"/>
<polygon fill="#63b8ff" stroke="#63b8ff" points="304.35,-29.13 300.84,-19.13 297.35,-29.13 304.35,-29.13"/>
</a>
</g>
</g>
<!-- Node14&#45;&gt;Node6 -->
<g id="edge20_Node000014_Node000006" class="edge">
<title>Node14&#45;&gt;Node6</title>
<g id="a_edge20_Node000014_Node000006"><a xlink:title=" ">
<path fill="none" stroke="#63b8ff" d="M286.83,-115.37C271.53,-105.95 246.81,-90.73 228.7,-79.58"/>
<polygon fill="#63b8ff" stroke="#63b8ff" points="230.27,-76.43 219.92,-74.17 226.6,-82.39 230.27,-76.43"/>
</a>
</g>
</g>
<!-- Node14&#45;&gt;Node7 -->
<g id="edge22_Node000014_Node000007" class="edge">
<title>Node14&#45;&gt;Node7</title>
<g id="a_edge22_Node000014_Node000007"><a xlink:title=" ">
<path fill="none" stroke="#63b8ff" d="M319.31,-115.49C340.57,-105.7 375.7,-89.52 400.21,-78.23"/>
<polygon fill="#63b8ff" stroke="#63b8ff" points="401.74,-81.38 409.36,-74.02 398.81,-75.02 401.74,-81.38"/>
</a>
</g>
</g>
<!-- Node14&#45;&gt;Node11 -->
<g id="edge21_Node000014_Node000011" class="edge">
<title>Node14&#45;&gt;Node11</title>
<g id="a_edge21_Node000014_Node000011"><a xlink:title=" ">
<path fill="none" stroke="#63b8ff" d="M293.6,-115.26C282.43,-101.91 260.18,-75.82 239.84,-55 230.02,-44.94 218.48,-34.21 209.17,-25.8"/>
<polygon fill="#63b8ff" stroke="#63b8ff" points="211.46,-23.15 201.67,-19.09 206.79,-28.37 211.46,-23.15"/>
</a>
</g>
</g>
</g>
</svg>
