<?xml version="1.0" encoding="UTF-8" standalone="no"?>
<!DOCTYPE svg PUBLIC "-//W3C//DTD SVG 1.1//EN"
 "http://www.w3.org/Graphics/SVG/1.1/DTD/svg11.dtd">
<!-- Generated by graphviz version 2.43.0 (0)
 -->
<!-- Title: /home/runner/work/logger_system/logger_system/sources/logger/writers/rotating_file_writer.h Pages: 1 -->
<svg width="790pt" height="357pt"
 viewBox="0.00 0.00 790.26 357.00" xmlns="http://www.w3.org/2000/svg" xmlns:xlink="http://www.w3.org/1999/xlink">
<g id="graph0" class="graph" transform="scale(1 1) rotate(0) translate(4 353)">
<title>/home/runner/work/logger_system/logger_system/sources/logger/writers/rotating_file_writer.h</title>
<!-- Node1 -->
<g id="Node000001" class="node">
<title>Node1</title>
<g id="a_Node000001"><a xlink:title=" ">
<polygon fill="#999999" stroke="#666666" points="688,-349 515,-349 515,-297 688,-297 688,-349"/>
<text text-anchor="start" x="523" y="-337" font-family="Helvetica,sans-Serif" font-size="10.00">/home/runner/work/logger</text>
<text text-anchor="start" x="523" y="-326" font-family="Helvetica,sans-Serif" font-size="10.00">_system/logger_system/sources</text>
<text text-anchor="start" x="523" y="-315" font-family="Helvetica,sans-Serif" font-size="10.00">/logger/writers/rotating_file</text>
<text text-anchor="middle" x="601.5" y="-304" font-family="Helvetica,sans-Serif" font-size="10.00">_writer.h</text>
</a>
</g>
</g>
<!-- Node2 -->
<g id="Node000002" class="node">
<title>Node2</title>
<g id="a_Node000002"><a xlink:href="file__writer_8h.html" target="_top" xlink:title=" ">
<polygon fill="white" stroke="#666666" points="597.5,-261 523.5,-261 523.5,-242 597.5,-242 597.5,-261"/>
<text text-anchor="middle" x="560.5" y="-249" font-family="Helvetica,sans-Serif" font-size="10.00">file_writer.h</text>
</a>
</g>
</g>
<!-- Node1&#45;&gt;Node2 -->
<g id="edge1_Node000001_Node000002" class="edge">
<title>Node1&#45;&gt;Node2</title>
<g id="a_edge1_Node000001_Node000002"><a xlink:title=" ">
<path fill="none" stroke="#63b8ff" d="M586.7,-296.91C581.42,-287.97 575.6,-278.1 570.79,-269.94"/>
<polygon fill="#63b8ff" stroke="#63b8ff" points="573.79,-268.14 565.69,-261.3 567.76,-271.69 573.79,-268.14"/>
</a>
</g>
</g>
<!-- Node5 -->
<g id="Node000005" class="node">
<title>Node5</title>
<g id="a_Node000005"><a xlink:title=" ">
<polygon fill="#e0e0e0" stroke="#999999" points="341.5,-85 291.5,-85 291.5,-66 341.5,-66 341.5,-85"/>
<text text-anchor="middle" x="316.5" y="-73" font-family="Helvetica,sans-Serif" font-size="10.00">chrono</text>
</a>
</g>
</g>
<!-- Node1&#45;&gt;Node5 -->
<g id="edge31_Node000001_Node000005" class="edge">
<title>Node1&#45;&gt;Node5</title>
<g id="a_edge31_Node000001_Node000005"><a xlink:title=" ">
<path fill="none" stroke="#63b8ff" d="M544.47,-296.88C504.82,-277.01 453.07,-245.97 418.5,-206 391.43,-174.7 406.9,-152.87 380.5,-121 370.08,-108.42 355.26,-97.81 342.5,-90.11"/>
<polygon fill="#63b8ff" stroke="#63b8ff" points="344.08,-86.98 333.67,-85.03 340.59,-93.05 344.08,-86.98"/>
</a>
</g>
</g>
<!-- Node22 -->
<g id="Node000022" class="node">
<title>Node22</title>
<g id="a_Node000022"><a xlink:title=" ">
<polygon fill="#e0e0e0" stroke="#999999" points="671.5,-261 615.5,-261 615.5,-242 671.5,-242 671.5,-261"/>
<text text-anchor="middle" x="643.5" y="-249" font-family="Helvetica,sans-Serif" font-size="10.00">iomanip</text>
</a>
</g>
</g>
<!-- Node1&#45;&gt;Node22 -->
<g id="edge32_Node000001_Node000022" class="edge">
<title>Node1&#45;&gt;Node22</title>
<g id="a_edge32_Node000001_Node000022"><a xlink:title=" ">
<path fill="none" stroke="#63b8ff" d="M616.66,-296.91C622.07,-287.97 628.03,-278.1 632.96,-269.94"/>
<polygon fill="#63b8ff" stroke="#63b8ff" points="636,-271.67 638.18,-261.3 630.01,-268.05 636,-271.67"/>
</a>
</g>
</g>
<!-- Node23 -->
<g id="Node000023" class="node">
<title>Node23</title>
<g id="a_Node000023"><a xlink:title=" ">
<polygon fill="#e0e0e0" stroke="#999999" points="745.5,-261 689.5,-261 689.5,-242 745.5,-242 745.5,-261"/>
<text text-anchor="middle" x="717.5" y="-249" font-family="Helvetica,sans-Serif" font-size="10.00">sstream</text>
</a>
</g>
</g>
<!-- Node1&#45;&gt;Node23 -->
<g id="edge33_Node000001_Node000023" class="edge">
<title>Node1&#45;&gt;Node23</title>
<g id="a_edge33_Node000001_Node000023"><a xlink:title=" ">
<path fill="none" stroke="#63b8ff" d="M643.38,-296.91C660.52,-286.64 679.7,-275.15 694.26,-266.43"/>
<polygon fill="#63b8ff" stroke="#63b8ff" points="696.31,-269.28 703.09,-261.14 692.71,-263.27 696.31,-269.28"/>
</a>
</g>
</g>
<!-- Node3 -->
<g id="Node000003" class="node">
<title>Node3</title>
<g id="a_Node000003"><a xlink:href="base__writer_8h.html" target="_top" xlink:title="Abstract base class for all log output writers.">
<polygon fill="white" stroke="#666666" points="643.5,-206 561.5,-206 561.5,-187 643.5,-187 643.5,-206"/>
<text text-anchor="middle" x="602.5" y="-194" font-family="Helvetica,sans-Serif" font-size="10.00">base_writer.h</text>
</a>
</g>
</g>
<!-- Node2&#45;&gt;Node3 -->
<g id="edge2_Node000002_Node000003" class="edge">
<title>Node2&#45;&gt;Node3</title>
<g id="a_edge2_Node000002_Node000003"><a xlink:title=" ">
<path fill="none" stroke="#63b8ff" d="M567.44,-241.75C573.37,-234.26 582.07,-223.28 589.32,-214.13"/>
<polygon fill="#63b8ff" stroke="#63b8ff" points="592.23,-216.1 595.69,-206.09 586.74,-211.75 592.23,-216.1"/>
</a>
</g>
</g>
<!-- Node18 -->
<g id="Node000018" class="node">
<title>Node18</title>
<g id="a_Node000018"><a xlink:title=" ">
<polygon fill="#e0e0e0" stroke="#999999" points="774.5,-24.5 716.5,-24.5 716.5,-5.5 774.5,-5.5 774.5,-24.5"/>
<text text-anchor="middle" x="745.5" y="-12.5" font-family="Helvetica,sans-Serif" font-size="10.00">memory</text>
</a>
</g>
</g>
<!-- Node2&#45;&gt;Node18 -->
<g id="edge30_Node000002_Node000018" class="edge">
<title>Node2&#45;&gt;Node18</title>
<g id="a_edge30_Node000002_Node000018"><a xlink:title=" ">
<path fill="none" stroke="#63b8ff" d="M597.69,-242.37C643.58,-232.07 716.78,-214.6 726.5,-206 775.89,-162.33 793.1,-129.53 775.5,-66 772.18,-54 765.12,-41.99 758.69,-32.75"/>
<polygon fill="#63b8ff" stroke="#63b8ff" points="761.38,-30.5 752.62,-24.53 755.75,-34.66 761.38,-30.5"/>
</a>
</g>
</g>
<!-- Node19 -->
<g id="Node000019" class="node">
<title>Node19</title>
<g id="a_Node000019"><a xlink:title=" ">
<polygon fill="#e0e0e0" stroke="#999999" points="717,-206 662,-206 662,-187 717,-187 717,-206"/>
<text text-anchor="middle" x="689.5" y="-194" font-family="Helvetica,sans-Serif" font-size="10.00">fstream</text>
</a>
</g>
</g>
<!-- Node2&#45;&gt;Node19 -->
<g id="edge27_Node000002_Node000019" class="edge">
<title>Node2&#45;&gt;Node19</title>
<g id="a_edge27_Node000002_Node000019"><a xlink:title=" ">
<path fill="none" stroke="#63b8ff" d="M581.23,-241.98C602.26,-233.34 635.05,-219.87 659.04,-210.02"/>
<polygon fill="#63b8ff" stroke="#63b8ff" points="660.48,-213.21 668.4,-206.17 657.82,-206.73 660.48,-213.21"/>
</a>
</g>
</g>
<!-- Node20 -->
<g id="Node000020" class="node">
<title>Node20</title>
<g id="a_Node000020"><a xlink:title=" ">
<polygon fill="#e0e0e0" stroke="#999999" points="475.5,-206 427.5,-206 427.5,-187 475.5,-187 475.5,-206"/>
<text text-anchor="middle" x="451.5" y="-194" font-family="Helvetica,sans-Serif" font-size="10.00">mutex</text>
</a>
</g>
</g>
<!-- Node2&#45;&gt;Node20 -->
<g id="edge28_Node000002_Node000020" class="edge">
<title>Node2&#45;&gt;Node20</title>
<g id="a_edge28_Node000002_Node000020"><a xlink:title=" ">
<path fill="none" stroke="#63b8ff" d="M542.99,-241.98C525.53,-233.5 498.49,-220.35 478.33,-210.54"/>
<polygon fill="#63b8ff" stroke="#63b8ff" points="479.86,-207.4 469.33,-206.17 476.79,-213.69 479.86,-207.4"/>
</a>
</g>
</g>
<!-- Node21 -->
<g id="Node000021" class="node">
<title>Node21</title>
<g id="a_Node000021"><a xlink:title=" ">
<polygon fill="#e0e0e0" stroke="#999999" points="543.5,-206 493.5,-206 493.5,-187 543.5,-187 543.5,-206"/>
<text text-anchor="middle" x="518.5" y="-194" font-family="Helvetica,sans-Serif" font-size="10.00">atomic</text>
</a>
</g>
</g>
<!-- Node2&#45;&gt;Node21 -->
<g id="edge29_Node000002_Node000021" class="edge">
<title>Node2&#45;&gt;Node21</title>
<g id="a_edge29_Node000002_Node000021"><a xlink:title=" ">
<path fill="none" stroke="#63b8ff" d="M553.56,-241.75C547.63,-234.26 538.93,-223.28 531.68,-214.13"/>
<polygon fill="#63b8ff" stroke="#63b8ff" points="534.26,-211.75 525.31,-206.09 528.77,-216.1 534.26,-211.75"/>
</a>
</g>
</g>
<!-- Node4 -->
<g id="Node000004" class="node">
<title>Node4</title>
<g id="a_Node000004"><a xlink:title=" ">
<polygon fill="#e0e0e0" stroke="#999999" points="337.5,-24.5 293.5,-24.5 293.5,-5.5 337.5,-5.5 337.5,-24.5"/>
<text text-anchor="middle" x="315.5" y="-12.5" font-family="Helvetica,sans-Serif" font-size="10.00">string</text>
</a>
</g>
</g>
<!-- Node3&#45;&gt;Node4 -->
<g id="edge3_Node000003_Node000004" class="edge">
<title>Node3&#45;&gt;Node4</title>
<g id="a_edge3_Node000003_Node000004"><a xlink:title=" ">
<path fill="none" stroke="#63b8ff" d="M561.33,-188.32C558.34,-187.85 555.38,-187.41 552.5,-187 482.52,-177.07 283.56,-203.73 236.5,-151 202.31,-112.69 261.73,-57.31 295.13,-30.99"/>
<polygon fill="#63b8ff" stroke="#63b8ff" points="297.57,-33.53 303.37,-24.66 293.31,-27.97 297.57,-33.53"/>
</a>
</g>
</g>
<!-- Node3&#45;&gt;Node5 -->
<g id="edge4_Node000003_Node000005" class="edge">
<title>Node3&#45;&gt;Node5</title>
<g id="a_edge4_Node000003_Node000005"><a xlink:title=" ">
<path fill="none" stroke="#63b8ff" d="M562.82,-186.98C532.72,-179.68 490.82,-167.68 456.5,-151 435.54,-140.81 433.73,-132.57 413.5,-121 392.18,-108.8 366.92,-97.3 347.52,-89.05"/>
<polygon fill="#63b8ff" stroke="#63b8ff" points="348.82,-85.8 338.24,-85.16 346.11,-92.25 348.82,-85.8"/>
</a>
</g>
</g>
<!-- Node6 -->
<g id="Node000006" class="node">
<title>Node6</title>
<g id="a_Node000006"><a xlink:title=" ">
<polygon fill="#e0e0e0" stroke="#999999" points="766,-85 609,-85 609,-66 766,-66 766,-85"/>
<text text-anchor="middle" x="687.5" y="-73" font-family="Helvetica,sans-Serif" font-size="10.00">interfaces/logger_interface.h</text>
</a>
</g>
</g>
<!-- Node3&#45;&gt;Node6 -->
<g id="edge5_Node000003_Node000006" class="edge">
<title>Node3&#45;&gt;Node6</title>
<g id="a_edge5_Node000003_Node000006"><a xlink:title=" ">
<path fill="none" stroke="#63b8ff" d="M608.61,-186.94C622.51,-167.48 656.71,-119.6 675.19,-93.74"/>
<polygon fill="#63b8ff" stroke="#63b8ff" points="678.25,-95.47 681.21,-85.3 672.55,-91.4 678.25,-95.47"/>
</a>
</g>
</g>
<!-- Node7 -->
<g id="Node000007" class="node">
<title>Node7</title>
<g id="a_Node000007"><a xlink:href="error__codes_8h.html" target="_top" xlink:title=" ">
<polygon fill="white" stroke="#666666" points="193.5,-85 101.5,-85 101.5,-66 193.5,-66 193.5,-85"/>
<text text-anchor="middle" x="147.5" y="-73" font-family="Helvetica,sans-Serif" font-size="10.00">../error_codes.h</text>
</a>
</g>
</g>
<!-- Node3&#45;&gt;Node7 -->
<g id="edge6_Node000003_Node000007" class="edge">
<title>Node3&#45;&gt;Node7</title>
<g id="a_edge6_Node000003_Node000007"><a xlink:title=" ">
<path fill="none" stroke="#63b8ff" d="M561.33,-188.28C558.35,-187.83 555.38,-187.39 552.5,-187 475.25,-176.46 271.37,-189.37 203.5,-151 180.89,-138.22 164.62,-112.18 155.63,-94.53"/>
<polygon fill="#63b8ff" stroke="#63b8ff" points="158.66,-92.77 151.18,-85.27 152.35,-95.8 158.66,-92.77"/>
</a>
</g>
</g>
<!-- Node11 -->
<g id="Node000011" class="node">
<title>Node11</title>
<g id="a_Node000011"><a xlink:href="log__writer__interface_8h.html" target="_top" xlink:title=" ">
<polygon fill="white" stroke="#666666" points="371.5,-151 245.5,-151 245.5,-121 371.5,-121 371.5,-151"/>
<text text-anchor="start" x="253.5" y="-139" font-family="Helvetica,sans-Serif" font-size="10.00">../interfaces/log_writer</text>
<text text-anchor="middle" x="308.5" y="-128" font-family="Helvetica,sans-Serif" font-size="10.00">_interface.h</text>
</a>
</g>
</g>
<!-- Node3&#45;&gt;Node11 -->
<g id="edge11_Node000003_Node000011" class="edge">
<title>Node3&#45;&gt;Node11</title>
<g id="a_edge11_Node000003_Node000011"><a xlink:title=" ">
<path fill="none" stroke="#63b8ff" d="M561.31,-187.3C514.8,-178.05 438.22,-162.81 381.51,-151.53"/>
<polygon fill="#63b8ff" stroke="#63b8ff" points="382.01,-148.06 371.52,-149.54 380.64,-154.92 382.01,-148.06"/>
</a>
</g>
</g>
<!-- Node12 -->
<g id="Node000012" class="node">
<title>Node12</title>
<g id="a_Node000012"><a xlink:href="log__entry_8h.html" target="_top" xlink:title="Data structures for representing log entries and source locations.">
<polygon fill="white" stroke="#666666" points="597,-145.5 466,-145.5 466,-126.5 597,-126.5 597,-145.5"/>
<text text-anchor="middle" x="531.5" y="-133.5" font-family="Helvetica,sans-Serif" font-size="10.00">../interfaces/log_entry.h</text>
</a>
</g>
</g>
<!-- Node3&#45;&gt;Node12 -->
<g id="edge15_Node000003_Node000012" class="edge">
<title>Node3&#45;&gt;Node12</title>
<g id="a_edge15_Node000003_Node000012"><a xlink:title=" ">
<path fill="none" stroke="#63b8ff" d="M592.02,-186.87C581.01,-177.8 563.46,-163.34 550.09,-152.32"/>
<polygon fill="#63b8ff" stroke="#63b8ff" points="551.96,-149.33 542.02,-145.67 547.51,-154.73 551.96,-149.33"/>
</a>
</g>
</g>
<!-- Node7&#45;&gt;Node4 -->
<g id="edge7_Node000007_Node000004" class="edge">
<title>Node7&#45;&gt;Node4</title>
<g id="a_edge7_Node000007_Node000004"><a xlink:title=" ">
<path fill="none" stroke="#63b8ff" d="M176.17,-66C203.89,-57.57 246.94,-43.94 283.5,-30 284.71,-29.54 285.94,-29.06 287.18,-28.56"/>
<polygon fill="#63b8ff" stroke="#63b8ff" points="288.8,-31.68 296.67,-24.6 286.1,-25.22 288.8,-31.68"/>
</a>
</g>
</g>
<!-- Node8 -->
<g id="Node000008" class="node">
<title>Node8</title>
<g id="a_Node000008"><a xlink:title=" ">
<polygon fill="#e0e0e0" stroke="#999999" points="65,-24.5 0,-24.5 0,-5.5 65,-5.5 65,-24.5"/>
<text text-anchor="middle" x="32.5" y="-12.5" font-family="Helvetica,sans-Serif" font-size="10.00">stdexcept</text>
</a>
</g>
</g>
<!-- Node7&#45;&gt;Node8 -->
<g id="edge8_Node000007_Node000008" class="edge">
<title>Node7&#45;&gt;Node8</title>
<g id="a_edge8_Node000007_Node000008"><a xlink:title=" ">
<path fill="none" stroke="#63b8ff" d="M130.53,-65.87C111.59,-56.23 80.71,-40.53 58.67,-29.31"/>
<polygon fill="#63b8ff" stroke="#63b8ff" points="60.04,-26.08 49.54,-24.67 56.86,-32.32 60.04,-26.08"/>
</a>
</g>
</g>
<!-- Node9 -->
<g id="Node000009" class="node">
<title>Node9</title>
<g id="a_Node000009"><a xlink:title=" ">
<polygon fill="#e0e0e0" stroke="#999999" points="275,-24.5 230,-24.5 230,-5.5 275,-5.5 275,-24.5"/>
<text text-anchor="middle" x="252.5" y="-12.5" font-family="Helvetica,sans-Serif" font-size="10.00">utility</text>
</a>
</g>
</g>
<!-- Node7&#45;&gt;Node9 -->
<g id="edge9_Node000007_Node000009" class="edge">
<title>Node7&#45;&gt;Node9</title>
<g id="a_edge9_Node000007_Node000009"><a xlink:title=" ">
<path fill="none" stroke="#63b8ff" d="M162.99,-65.87C180.13,-56.32 207.97,-40.81 228.06,-29.62"/>
<polygon fill="#63b8ff" stroke="#63b8ff" points="229.91,-32.59 236.94,-24.67 226.5,-26.48 229.91,-32.59"/>
</a>
</g>
</g>
<!-- Node10 -->
<g id="Node000010" class="node">
<title>Node10</title>
<g id="a_Node000010"><a xlink:title=" ">
<polygon fill="#e0e0e0" stroke="#999999" points="211.5,-30 83.5,-30 83.5,0 211.5,0 211.5,-30"/>
<text text-anchor="start" x="91.5" y="-18" font-family="Helvetica,sans-Serif" font-size="10.00">thread_base/sync/error</text>
<text text-anchor="middle" x="147.5" y="-7" font-family="Helvetica,sans-Serif" font-size="10.00">_handling.h</text>
</a>
</g>
</g>
<!-- Node7&#45;&gt;Node10 -->
<g id="edge10_Node000007_Node000010" class="edge">
<title>Node7&#45;&gt;Node10</title>
<g id="a_edge10_Node000007_Node000010"><a xlink:title=" ">
<path fill="none" stroke="#63b8ff" d="M147.5,-65.87C147.5,-59.11 147.5,-49.35 147.5,-40.26"/>
<polygon fill="#63b8ff" stroke="#63b8ff" points="151,-40.11 147.5,-30.11 144,-40.11 151,-40.11"/>
</a>
</g>
</g>
<!-- Node11&#45;&gt;Node4 -->
<g id="edge12_Node000011_Node000004" class="edge">
<title>Node11&#45;&gt;Node4</title>
<g id="a_edge12_Node000011_Node000004"><a xlink:title=" ">
<path fill="none" stroke="#63b8ff" d="M297.43,-120.92C287.95,-107.12 276.68,-85.37 282.5,-66 286.17,-53.77 293.91,-41.77 300.97,-32.6"/>
<polygon fill="#63b8ff" stroke="#63b8ff" points="303.77,-34.71 307.38,-24.75 298.34,-30.28 303.77,-34.71"/>
</a>
</g>
</g>
<!-- Node11&#45;&gt;Node5 -->
<g id="edge13_Node000011_Node000005" class="edge">
<title>Node11&#45;&gt;Node5</title>
<g id="a_edge13_Node000011_Node000005"><a xlink:title=" ">
<path fill="none" stroke="#63b8ff" d="M310.44,-120.84C311.48,-113.21 312.78,-103.7 313.91,-95.45"/>
<polygon fill="#63b8ff" stroke="#63b8ff" points="317.41,-95.65 315.3,-85.27 310.48,-94.7 317.41,-95.65"/>
</a>
</g>
</g>
<!-- Node11&#45;&gt;Node7 -->
<g id="edge14_Node000011_Node000007" class="edge">
<title>Node11&#45;&gt;Node7</title>
<g id="a_edge14_Node000011_Node000007"><a xlink:title=" ">
<path fill="none" stroke="#63b8ff" d="M269.94,-120.99C242.71,-111.1 206.62,-97.98 180.68,-88.56"/>
<polygon fill="#63b8ff" stroke="#63b8ff" points="181.87,-85.26 171.28,-85.14 179.48,-91.84 181.87,-85.26"/>
</a>
</g>
</g>
<!-- Node12&#45;&gt;Node4 -->
<g id="edge16_Node000012_Node000004" class="edge">
<title>Node12&#45;&gt;Node4</title>
<g id="a_edge16_Node000012_Node000004"><a xlink:title=" ">
<path fill="none" stroke="#63b8ff" d="M493.76,-126.46C463.77,-118.6 421.52,-105.1 388.5,-85 365.12,-70.77 342.97,-48.06 329.33,-32.61"/>
<polygon fill="#63b8ff" stroke="#63b8ff" points="331.85,-30.17 322.67,-24.87 326.54,-34.74 331.85,-30.17"/>
</a>
</g>
</g>
<!-- Node12&#45;&gt;Node5 -->
<g id="edge17_Node000012_Node000005" class="edge">
<title>Node12&#45;&gt;Node5</title>
<g id="a_edge17_Node000012_Node000005"><a xlink:title=" ">
<path fill="none" stroke="#63b8ff" d="M500.24,-126.49C460.73,-115.74 392.91,-97.29 351.64,-86.06"/>
<polygon fill="#63b8ff" stroke="#63b8ff" points="352.32,-82.62 341.76,-83.37 350.49,-89.37 352.32,-82.62"/>
</a>
</g>
</g>
<!-- Node12&#45;&gt;Node6 -->
<g id="edge26_Node000012_Node000006" class="edge">
<title>Node12&#45;&gt;Node6</title>
<g id="a_edge26_Node000012_Node000006"><a xlink:title=" ">
<path fill="none" stroke="#63b8ff" d="M554.18,-126.49C580.76,-116.53 624.98,-99.95 655.14,-88.63"/>
<polygon fill="#63b8ff" stroke="#63b8ff" points="656.65,-91.81 664.79,-85.02 654.2,-85.25 656.65,-91.81"/>
</a>
</g>
</g>
<!-- Node13 -->
<g id="Node000013" class="node">
<title>Node13</title>
<g id="a_Node000013"><a xlink:title=" ">
<polygon fill="#e0e0e0" stroke="#999999" points="453.5,-85 397.5,-85 397.5,-66 453.5,-66 453.5,-85"/>
<text text-anchor="middle" x="425.5" y="-73" font-family="Helvetica,sans-Serif" font-size="10.00">optional</text>
</a>
</g>
</g>
<!-- Node12&#45;&gt;Node13 -->
<g id="edge18_Node000012_Node000013" class="edge">
<title>Node12&#45;&gt;Node13</title>
<g id="a_edge18_Node000012_Node000013"><a xlink:title=" ">
<path fill="none" stroke="#63b8ff" d="M515.86,-126.37C498.56,-116.82 470.45,-101.31 450.17,-90.12"/>
<polygon fill="#63b8ff" stroke="#63b8ff" points="451.65,-86.93 441.2,-85.17 448.27,-93.06 451.65,-86.93"/>
</a>
</g>
</g>
<!-- Node14 -->
<g id="Node000014" class="node">
<title>Node14</title>
<g id="a_Node000014"><a xlink:href="small__string_8h.html" target="_top" xlink:title=" ">
<polygon fill="white" stroke="#666666" points="591,-85 472,-85 472,-66 591,-66 591,-85"/>
<text text-anchor="middle" x="531.5" y="-73" font-family="Helvetica,sans-Serif" font-size="10.00">../core/small_string.h</text>
</a>
</g>
</g>
<!-- Node12&#45;&gt;Node14 -->
<g id="edge19_Node000012_Node000014" class="edge">
<title>Node12&#45;&gt;Node14</title>
<g id="a_edge19_Node000012_Node000014"><a xlink:title=" ">
<path fill="none" stroke="#63b8ff" d="M531.5,-126.37C531.5,-118.25 531.5,-105.81 531.5,-95.39"/>
<polygon fill="#63b8ff" stroke="#63b8ff" points="535,-95.17 531.5,-85.17 528,-95.17 535,-95.17"/>
</a>
</g>
</g>
<!-- Node14&#45;&gt;Node4 -->
<g id="edge21_Node000014_Node000004" class="edge">
<title>Node14&#45;&gt;Node4</title>
<g id="a_edge21_Node000014_Node000004"><a xlink:title=" ">
<path fill="none" stroke="#63b8ff" d="M500.09,-65.99C459.32,-54.95 388.54,-35.78 347.49,-24.66"/>
<polygon fill="#63b8ff" stroke="#63b8ff" points="348.29,-21.26 337.72,-22.02 346.46,-28.01 348.29,-21.26"/>
</a>
</g>
</g>
<!-- Node14&#45;&gt;Node9 -->
<g id="edge25_Node000014_Node000009" class="edge">
<title>Node14&#45;&gt;Node9</title>
<g id="a_edge25_Node000014_Node000009"><a xlink:title=" ">
<path fill="none" stroke="#63b8ff" d="M475.59,-65.99C414.1,-56.35 319.36,-40.61 284.5,-30 282.86,-29.5 281.2,-28.94 279.54,-28.35"/>
<polygon fill="#63b8ff" stroke="#63b8ff" points="280.75,-25.06 270.16,-24.61 278.15,-31.56 280.75,-25.06"/>
</a>
</g>
</g>
<!-- Node15 -->
<g id="Node000015" class="node">
<title>Node15</title>
<g id="a_Node000015"><a xlink:title=" ">
<polygon fill="#e0e0e0" stroke="#999999" points="476.5,-24.5 426.5,-24.5 426.5,-5.5 476.5,-5.5 476.5,-24.5"/>
<text text-anchor="middle" x="451.5" y="-12.5" font-family="Helvetica,sans-Serif" font-size="10.00">cstring</text>
</a>
</g>
</g>
<!-- Node14&#45;&gt;Node15 -->
<g id="edge20_Node000014_Node000015" class="edge">
<title>Node14&#45;&gt;Node15</title>
<g id="a_edge20_Node000014_Node000015"><a xlink:title=" ">
<path fill="none" stroke="#63b8ff" d="M519.7,-65.87C507.05,-56.62 486.76,-41.78 471.59,-30.69"/>
<polygon fill="#63b8ff" stroke="#63b8ff" points="473.49,-27.74 463.35,-24.67 469.36,-33.4 473.49,-27.74"/>
</a>
</g>
</g>
<!-- Node16 -->
<g id="Node000016" class="node">
<title>Node16</title>
<g id="a_Node000016"><a xlink:title=" ">
<polygon fill="#e0e0e0" stroke="#999999" points="568,-24.5 495,-24.5 495,-5.5 568,-5.5 568,-24.5"/>
<text text-anchor="middle" x="531.5" y="-12.5" font-family="Helvetica,sans-Serif" font-size="10.00">string_view</text>
</a>
</g>
</g>
<!-- Node14&#45;&gt;Node16 -->
<g id="edge22_Node000014_Node000016" class="edge">
<title>Node14&#45;&gt;Node16</title>
<g id="a_edge22_Node000014_Node000016"><a xlink:title=" ">
<path fill="none" stroke="#63b8ff" d="M531.5,-65.87C531.5,-57.75 531.5,-45.31 531.5,-34.89"/>
<polygon fill="#63b8ff" stroke="#63b8ff" points="535,-34.67 531.5,-24.67 528,-34.67 535,-34.67"/>
</a>
</g>
</g>
<!-- Node17 -->
<g id="Node000017" class="node">
<title>Node17</title>
<g id="a_Node000017"><a xlink:title=" ">
<polygon fill="#e0e0e0" stroke="#999999" points="650.5,-24.5 586.5,-24.5 586.5,-5.5 650.5,-5.5 650.5,-24.5"/>
<text text-anchor="middle" x="618.5" y="-12.5" font-family="Helvetica,sans-Serif" font-size="10.00">algorithm</text>
</a>
</g>
</g>
<!-- Node14&#45;&gt;Node17 -->
<g id="edge23_Node000014_Node000017" class="edge">
<title>Node14&#45;&gt;Node17</title>
<g id="a_edge23_Node000014_Node000017"><a xlink:title=" ">
<path fill="none" stroke="#63b8ff" d="M544.34,-65.87C558.22,-56.54 580.57,-41.51 597.11,-30.38"/>
<polygon fill="#63b8ff" stroke="#63b8ff" points="599.26,-33.15 605.61,-24.67 595.36,-27.34 599.26,-33.15"/>
</a>
</g>
</g>
<!-- Node14&#45;&gt;Node18 -->
<g id="edge24_Node000014_Node000018" class="edge">
<title>Node14&#45;&gt;Node18</title>
<g id="a_edge24_Node000014_Node000018"><a xlink:title=" ">
<path fill="none" stroke="#63b8ff" d="M562.62,-65.99C600.74,-55.57 665.35,-37.91 706.68,-26.61"/>
<polygon fill="#63b8ff" stroke="#63b8ff" points="707.68,-29.97 716.41,-23.95 705.84,-23.21 707.68,-29.97"/>
</a>
</g>
</g>
</g>
</svg>
