<?xml version="1.0" encoding="UTF-8" standalone="no"?>
<!DOCTYPE svg PUBLIC "-//W3C//DTD SVG 1.1//EN"
 "http://www.w3.org/Graphics/SVG/1.1/DTD/svg11.dtd">
<!-- Generated by graphviz version 2.43.0 (0)
 -->
<!-- Title: rotating_file_writer.cpp Pages: 1 -->
<svg width="866pt" height="368pt"
 viewBox="0.00 0.00 866.00 368.00" xmlns="http://www.w3.org/2000/svg" xmlns:xlink="http://www.w3.org/1999/xlink">
<g id="graph0" class="graph" transform="scale(1 1) rotate(0) translate(4 364)">
<title>rotating_file_writer.cpp</title>
<!-- Node1 -->
<g id="Node000001" class="node">
<title>Node1</title>
<g id="a_Node000001"><a xlink:title=" ">
<polygon fill="#999999" stroke="#666666" points="724,-360 596,-360 596,-341 724,-341 724,-360"/>
<text text-anchor="middle" x="660" y="-348" font-family="Helvetica,sans-Serif" font-size="10.00">rotating_file_writer.cpp</text>
</a>
</g>
</g>
<!-- Node2 -->
<g id="Node000002" class="node">
<title>Node2</title>
<g id="a_Node000002"><a xlink:href="rotating__file__writer_8h.html" target="_top" xlink:title=" ">
<polygon fill="white" stroke="#666666" points="487.5,-305 370.5,-305 370.5,-286 487.5,-286 487.5,-305"/>
<text text-anchor="middle" x="429" y="-293" font-family="Helvetica,sans-Serif" font-size="10.00">rotating_file_writer.h</text>
</a>
</g>
</g>
<!-- Node1&#45;&gt;Node2 -->
<g id="edge1_Node000001_Node000002" class="edge">
<title>Node1&#45;&gt;Node2</title>
<g id="a_edge1_Node000001_Node000002"><a xlink:title=" ">
<path fill="none" stroke="#63b8ff" d="M622.89,-340.98C583.01,-331.84 519.54,-317.27 476.16,-307.32"/>
<polygon fill="#63b8ff" stroke="#63b8ff" points="476.93,-303.91 466.41,-305.08 475.37,-310.73 476.93,-303.91"/>
</a>
</g>
</g>
<!-- Node21 -->
<g id="Node000021" class="node">
<title>Node21</title>
<g id="a_Node000021"><a xlink:title=" ">
<polygon fill="#e0e0e0" stroke="#999999" points="574,-305 506,-305 506,-286 574,-286 574,-305"/>
<text text-anchor="middle" x="540" y="-293" font-family="Helvetica,sans-Serif" font-size="10.00">filesystem</text>
</a>
</g>
</g>
<!-- Node1&#45;&gt;Node21 -->
<g id="edge32_Node000001_Node000021" class="edge">
<title>Node1&#45;&gt;Node21</title>
<g id="a_edge32_Node000001_Node000021"><a xlink:title=" ">
<path fill="none" stroke="#63b8ff" d="M640.72,-340.98C621.33,-332.42 591.19,-319.11 568.93,-309.28"/>
<polygon fill="#63b8ff" stroke="#63b8ff" points="570.19,-306.01 559.63,-305.17 567.36,-312.41 570.19,-306.01"/>
</a>
</g>
</g>
<!-- Node22 -->
<g id="Node000022" class="node">
<title>Node22</title>
<g id="a_Node000022"><a xlink:title=" ">
<polygon fill="#e0e0e0" stroke="#999999" points="656,-305 592,-305 592,-286 656,-286 656,-305"/>
<text text-anchor="middle" x="624" y="-293" font-family="Helvetica,sans-Serif" font-size="10.00">algorithm</text>
</a>
</g>
</g>
<!-- Node1&#45;&gt;Node22 -->
<g id="edge33_Node000001_Node000022" class="edge">
<title>Node1&#45;&gt;Node22</title>
<g id="a_edge33_Node000001_Node000022"><a xlink:title=" ">
<path fill="none" stroke="#63b8ff" d="M654.06,-340.75C649.02,-333.34 641.66,-322.5 635.49,-313.41"/>
<polygon fill="#63b8ff" stroke="#63b8ff" points="638.35,-311.39 629.83,-305.09 632.56,-315.33 638.35,-311.39"/>
</a>
</g>
</g>
<!-- Node23 -->
<g id="Node000023" class="node">
<title>Node23</title>
<g id="a_Node000023"><a xlink:title=" ">
<polygon fill="#e0e0e0" stroke="#999999" points="718,-305 674,-305 674,-286 718,-286 718,-305"/>
<text text-anchor="middle" x="696" y="-293" font-family="Helvetica,sans-Serif" font-size="10.00">regex</text>
</a>
</g>
</g>
<!-- Node1&#45;&gt;Node23 -->
<g id="edge34_Node000001_Node000023" class="edge">
<title>Node1&#45;&gt;Node23</title>
<g id="a_edge34_Node000001_Node000023"><a xlink:title=" ">
<path fill="none" stroke="#63b8ff" d="M665.94,-340.75C670.98,-333.34 678.34,-322.5 684.51,-313.41"/>
<polygon fill="#63b8ff" stroke="#63b8ff" points="687.44,-315.33 690.17,-305.09 681.65,-311.39 687.44,-315.33"/>
</a>
</g>
</g>
<!-- Node24 -->
<g id="Node000024" class="node">
<title>Node24</title>
<g id="a_Node000024"><a xlink:title=" ">
<polygon fill="#e0e0e0" stroke="#999999" points="780,-305 736,-305 736,-286 780,-286 780,-305"/>
<text text-anchor="middle" x="758" y="-293" font-family="Helvetica,sans-Serif" font-size="10.00">ctime</text>
</a>
</g>
</g>
<!-- Node1&#45;&gt;Node24 -->
<g id="edge35_Node000001_Node000024" class="edge">
<title>Node1&#45;&gt;Node24</title>
<g id="a_edge35_Node000001_Node000024"><a xlink:title=" ">
<path fill="none" stroke="#63b8ff" d="M675.75,-340.98C691.23,-332.61 715.09,-319.7 733.14,-309.95"/>
<polygon fill="#63b8ff" stroke="#63b8ff" points="734.84,-313.01 741.97,-305.17 731.51,-306.85 734.84,-313.01"/>
</a>
</g>
</g>
<!-- Node25 -->
<g id="Node000025" class="node">
<title>Node25</title>
<g id="a_Node000025"><a xlink:title=" ">
<polygon fill="#e0e0e0" stroke="#999999" points="858,-305 798,-305 798,-286 858,-286 858,-305"/>
<text text-anchor="middle" x="828" y="-293" font-family="Helvetica,sans-Serif" font-size="10.00">iostream</text>
</a>
</g>
</g>
<!-- Node1&#45;&gt;Node25 -->
<g id="edge36_Node000001_Node000025" class="edge">
<title>Node1&#45;&gt;Node25</title>
<g id="a_edge36_Node000001_Node000025"><a xlink:title=" ">
<path fill="none" stroke="#63b8ff" d="M686.99,-340.98C715.2,-332.09 759.64,-318.07 791.08,-308.15"/>
<polygon fill="#63b8ff" stroke="#63b8ff" points="792.31,-311.43 800.8,-305.08 790.21,-304.75 792.31,-311.43"/>
</a>
</g>
</g>
<!-- Node3 -->
<g id="Node000003" class="node">
<title>Node3</title>
<g id="a_Node000003"><a xlink:href="file__writer_8h.html" target="_top" xlink:title=" ">
<polygon fill="white" stroke="#666666" points="186,-250 112,-250 112,-231 186,-231 186,-250"/>
<text text-anchor="middle" x="149" y="-238" font-family="Helvetica,sans-Serif" font-size="10.00">file_writer.h</text>
</a>
</g>
</g>
<!-- Node2&#45;&gt;Node3 -->
<g id="edge2_Node000002_Node000003" class="edge">
<title>Node2&#45;&gt;Node3</title>
<g id="a_edge2_Node000002_Node000003"><a xlink:title=" ">
<path fill="none" stroke="#63b8ff" d="M384.01,-285.98C332.56,-276.25 248.7,-260.37 196.3,-250.45"/>
<polygon fill="#63b8ff" stroke="#63b8ff" points="196.74,-246.97 186.26,-248.55 195.44,-253.85 196.74,-246.97"/>
</a>
</g>
</g>
<!-- Node6 -->
<g id="Node000006" class="node">
<title>Node6</title>
<g id="a_Node000006"><a xlink:title=" ">
<polygon fill="#e0e0e0" stroke="#999999" points="389,-74 339,-74 339,-55 389,-55 389,-74"/>
<text text-anchor="middle" x="364" y="-62" font-family="Helvetica,sans-Serif" font-size="10.00">chrono</text>
</a>
</g>
</g>
<!-- Node2&#45;&gt;Node6 -->
<g id="edge29_Node000002_Node000006" class="edge">
<title>Node2&#45;&gt;Node6</title>
<g id="a_edge29_Node000002_Node000006"><a xlink:title=" ">
<path fill="none" stroke="#63b8ff" d="M426.53,-285.8C417,-252.22 382.47,-130.57 369.22,-83.9"/>
<polygon fill="#63b8ff" stroke="#63b8ff" points="372.57,-82.87 366.47,-74.21 365.83,-84.78 372.57,-82.87"/>
</a>
</g>
</g>
<!-- Node19 -->
<g id="Node000019" class="node">
<title>Node19</title>
<g id="a_Node000019"><a xlink:title=" ">
<polygon fill="#e0e0e0" stroke="#999999" points="485,-250 429,-250 429,-231 485,-231 485,-250"/>
<text text-anchor="middle" x="457" y="-238" font-family="Helvetica,sans-Serif" font-size="10.00">iomanip</text>
</a>
</g>
</g>
<!-- Node2&#45;&gt;Node19 -->
<g id="edge30_Node000002_Node000019" class="edge">
<title>Node2&#45;&gt;Node19</title>
<g id="a_edge30_Node000002_Node000019"><a xlink:title=" ">
<path fill="none" stroke="#63b8ff" d="M433.62,-285.75C437.46,-278.49 443.02,-267.95 447.76,-258.98"/>
<polygon fill="#63b8ff" stroke="#63b8ff" points="450.89,-260.57 452.46,-250.09 444.7,-257.3 450.89,-260.57"/>
</a>
</g>
</g>
<!-- Node20 -->
<g id="Node000020" class="node">
<title>Node20</title>
<g id="a_Node000020"><a xlink:title=" ">
<polygon fill="#e0e0e0" stroke="#999999" points="559,-250 503,-250 503,-231 559,-231 559,-250"/>
<text text-anchor="middle" x="531" y="-238" font-family="Helvetica,sans-Serif" font-size="10.00">sstream</text>
</a>
</g>
</g>
<!-- Node2&#45;&gt;Node20 -->
<g id="edge31_Node000002_Node000020" class="edge">
<title>Node2&#45;&gt;Node20</title>
<g id="a_edge31_Node000002_Node000020"><a xlink:title=" ">
<path fill="none" stroke="#63b8ff" d="M445.39,-285.98C461.57,-277.57 486.57,-264.59 505.38,-254.81"/>
<polygon fill="#63b8ff" stroke="#63b8ff" points="507.05,-257.89 514.31,-250.17 503.83,-251.68 507.05,-257.89"/>
</a>
</g>
</g>
<!-- Node4 -->
<g id="Node000004" class="node">
<title>Node4</title>
<g id="a_Node000004"><a xlink:href="base__writer_8h.html" target="_top" xlink:title=" ">
<polygon fill="white" stroke="#666666" points="310,-195 228,-195 228,-176 310,-176 310,-195"/>
<text text-anchor="middle" x="269" y="-183" font-family="Helvetica,sans-Serif" font-size="10.00">base_writer.h</text>
</a>
</g>
</g>
<!-- Node3&#45;&gt;Node4 -->
<g id="edge3_Node000003_Node000004" class="edge">
<title>Node3&#45;&gt;Node4</title>
<g id="a_edge3_Node000003_Node000004"><a xlink:title=" ">
<path fill="none" stroke="#63b8ff" d="M168.28,-230.98C187.67,-222.42 217.81,-209.11 240.07,-199.28"/>
<polygon fill="#63b8ff" stroke="#63b8ff" points="241.64,-202.41 249.37,-195.17 238.81,-196.01 241.64,-202.41"/>
</a>
</g>
</g>
<!-- Node8 -->
<g id="Node000008" class="node">
<title>Node8</title>
<g id="a_Node000008"><a xlink:title=" ">
<polygon fill="#e0e0e0" stroke="#999999" points="58,-19 0,-19 0,0 58,0 58,-19"/>
<text text-anchor="middle" x="29" y="-7" font-family="Helvetica,sans-Serif" font-size="10.00">memory</text>
</a>
</g>
</g>
<!-- Node3&#45;&gt;Node8 -->
<g id="edge28_Node000003_Node000008" class="edge">
<title>Node3&#45;&gt;Node8</title>
<g id="a_edge28_Node000003_Node000008"><a xlink:title=" ">
<path fill="none" stroke="#63b8ff" d="M118.98,-230.98C100.26,-224.17 77.12,-212.77 63,-195 23.88,-145.75 24.43,-65.82 27.06,-29.52"/>
<polygon fill="#63b8ff" stroke="#63b8ff" points="30.57,-29.63 27.94,-19.36 23.59,-29.02 30.57,-29.63"/>
</a>
</g>
</g>
<!-- Node9 -->
<g id="Node000009" class="node">
<title>Node9</title>
<g id="a_Node000009"><a xlink:title=" ">
<polygon fill="#e0e0e0" stroke="#999999" points="150,-19 102,-19 102,0 150,0 150,-19"/>
<text text-anchor="middle" x="126" y="-7" font-family="Helvetica,sans-Serif" font-size="10.00">mutex</text>
</a>
</g>
</g>
<!-- Node3&#45;&gt;Node9 -->
<g id="edge26_Node000003_Node000009" class="edge">
<title>Node3&#45;&gt;Node9</title>
<g id="a_edge26_Node000003_Node000009"><a xlink:title=" ">
<path fill="none" stroke="#63b8ff" d="M122.58,-230.85C106.07,-223.94 86.1,-212.48 76,-195 44.86,-141.12 46.71,-111.41 73,-55 78.83,-42.49 90.09,-32.25 100.75,-24.76"/>
<polygon fill="#63b8ff" stroke="#63b8ff" points="102.94,-27.51 109.42,-19.13 99.12,-21.64 102.94,-27.51"/>
</a>
</g>
</g>
<!-- Node17 -->
<g id="Node000017" class="node">
<title>Node17</title>
<g id="a_Node000017"><a xlink:title=" ">
<polygon fill="#e0e0e0" stroke="#999999" points="140.5,-195 85.5,-195 85.5,-176 140.5,-176 140.5,-195"/>
<text text-anchor="middle" x="113" y="-183" font-family="Helvetica,sans-Serif" font-size="10.00">fstream</text>
</a>
</g>
</g>
<!-- Node3&#45;&gt;Node17 -->
<g id="edge25_Node000003_Node000017" class="edge">
<title>Node3&#45;&gt;Node17</title>
<g id="a_edge25_Node000003_Node000017"><a xlink:title=" ">
<path fill="none" stroke="#63b8ff" d="M143.06,-230.75C138.02,-223.34 130.66,-212.5 124.49,-203.41"/>
<polygon fill="#63b8ff" stroke="#63b8ff" points="127.35,-201.39 118.83,-195.09 121.56,-205.33 127.35,-201.39"/>
</a>
</g>
</g>
<!-- Node18 -->
<g id="Node000018" class="node">
<title>Node18</title>
<g id="a_Node000018"><a xlink:title=" ">
<polygon fill="#e0e0e0" stroke="#999999" points="209,-195 159,-195 159,-176 209,-176 209,-195"/>
<text text-anchor="middle" x="184" y="-183" font-family="Helvetica,sans-Serif" font-size="10.00">atomic</text>
</a>
</g>
</g>
<!-- Node3&#45;&gt;Node18 -->
<g id="edge27_Node000003_Node000018" class="edge">
<title>Node3&#45;&gt;Node18</title>
<g id="a_edge27_Node000003_Node000018"><a xlink:title=" ">
<path fill="none" stroke="#63b8ff" d="M154.78,-230.75C159.62,-223.42 166.68,-212.73 172.64,-203.7"/>
<polygon fill="#63b8ff" stroke="#63b8ff" points="175.74,-205.36 178.33,-195.09 169.9,-201.5 175.74,-205.36"/>
</a>
</g>
</g>
<!-- Node5 -->
<g id="Node000005" class="node">
<title>Node5</title>
<g id="a_Node000005"><a xlink:title=" ">
<polygon fill="#e0e0e0" stroke="#999999" points="291,-19 247,-19 247,0 291,0 291,-19"/>
<text text-anchor="middle" x="269" y="-7" font-family="Helvetica,sans-Serif" font-size="10.00">string</text>
</a>
</g>
</g>
<!-- Node4&#45;&gt;Node5 -->
<g id="edge4_Node000004_Node000005" class="edge">
<title>Node4&#45;&gt;Node5</title>
<g id="a_edge4_Node000004_Node000005"><a xlink:title=" ">
<path fill="none" stroke="#63b8ff" d="M241.35,-175.98C224.42,-169.17 204.11,-157.76 194,-140 187.4,-128.41 189.77,-122.64 194,-110 205.31,-76.2 233.13,-44.69 251.52,-26.53"/>
<polygon fill="#63b8ff" stroke="#63b8ff" points="254.41,-28.6 259.22,-19.16 249.57,-23.55 254.41,-28.6"/>
</a>
</g>
</g>
<!-- Node4&#45;&gt;Node6 -->
<g id="edge5_Node000004_Node000006" class="edge">
<title>Node4&#45;&gt;Node6</title>
<g id="a_edge5_Node000004_Node000006"><a xlink:title=" ">
<path fill="none" stroke="#63b8ff" d="M293,-175.93C309.66,-168.78 331.1,-157.01 344,-140 356.24,-123.86 361,-100.78 362.84,-84.6"/>
<polygon fill="#63b8ff" stroke="#63b8ff" points="366.36,-84.49 363.74,-74.23 359.39,-83.89 366.36,-84.49"/>
</a>
</g>
</g>
<!-- Node7 -->
<g id="Node000007" class="node">
<title>Node7</title>
<g id="a_Node000007"><a xlink:href="logger__interface_8h.html" target="_top" xlink:title=" ">
<polygon fill="white" stroke="#666666" points="196,-74 82,-74 82,-55 196,-55 196,-74"/>
<text text-anchor="middle" x="139" y="-62" font-family="Helvetica,sans-Serif" font-size="10.00">../logger_interface.h</text>
</a>
</g>
</g>
<!-- Node4&#45;&gt;Node7 -->
<g id="edge6_Node000004_Node000007" class="edge">
<title>Node4&#45;&gt;Node7</title>
<g id="a_edge6_Node000004_Node000007"><a xlink:title=" ">
<path fill="none" stroke="#63b8ff" d="M227.77,-176.64C205.17,-170.32 178.31,-159.21 161,-140 147.06,-124.54 141.93,-100.63 140.06,-84.09"/>
<polygon fill="#63b8ff" stroke="#63b8ff" points="143.54,-83.68 139.21,-74.01 136.56,-84.26 143.54,-83.68"/>
</a>
</g>
</g>
<!-- Node10 -->
<g id="Node000010" class="node">
<title>Node10</title>
<g id="a_Node000010"><a xlink:href="error__codes_8h.html" target="_top" xlink:title=" ">
<polygon fill="white" stroke="#666666" points="538,-74 446,-74 446,-55 538,-55 538,-74"/>
<text text-anchor="middle" x="492" y="-62" font-family="Helvetica,sans-Serif" font-size="10.00">../error_codes.h</text>
</a>
</g>
</g>
<!-- Node4&#45;&gt;Node10 -->
<g id="edge10_Node000004_Node000010" class="edge">
<title>Node4&#45;&gt;Node10</title>
<g id="a_edge10_Node000004_Node000010"><a xlink:title=" ">
<path fill="none" stroke="#63b8ff" d="M310.16,-184.6C383.4,-183.81 531.74,-177.49 564,-140 572.7,-129.89 570.49,-121.65 564,-110 555.96,-95.58 541.1,-85.24 526.96,-78.18"/>
<polygon fill="#63b8ff" stroke="#63b8ff" points="528.4,-74.99 517.85,-74.01 525.49,-81.36 528.4,-74.99"/>
</a>
</g>
</g>
<!-- Node15 -->
<g id="Node000015" class="node">
<title>Node15</title>
<g id="a_Node000015"><a xlink:href="log__writer__interface_8h.html" target="_top" xlink:title=" ">
<polygon fill="white" stroke="#666666" points="555,-140 429,-140 429,-110 555,-110 555,-140"/>
<text text-anchor="start" x="437" y="-128" font-family="Helvetica,sans-Serif" font-size="10.00">../interfaces/log_writer</text>
<text text-anchor="middle" x="492" y="-117" font-family="Helvetica,sans-Serif" font-size="10.00">_interface.h</text>
</a>
</g>
</g>
<!-- Node4&#45;&gt;Node15 -->
<g id="edge16_Node000004_Node000015" class="edge">
<title>Node4&#45;&gt;Node15</title>
<g id="a_edge16_Node000004_Node000015"><a xlink:title=" ">
<path fill="none" stroke="#63b8ff" d="M301.43,-175.99C334.64,-167.28 387.14,-153.51 428.64,-142.62"/>
<polygon fill="#63b8ff" stroke="#63b8ff" points="429.6,-145.99 438.39,-140.06 427.83,-139.22 429.6,-145.99"/>
</a>
</g>
</g>
<!-- Node16 -->
<g id="Node000016" class="node">
<title>Node16</title>
<g id="a_Node000016"><a xlink:href="log__entry_8h.html" target="_top" xlink:title=" ">
<polygon fill="white" stroke="#666666" points="334.5,-134.5 203.5,-134.5 203.5,-115.5 334.5,-115.5 334.5,-134.5"/>
<text text-anchor="middle" x="269" y="-122.5" font-family="Helvetica,sans-Serif" font-size="10.00">../interfaces/log_entry.h</text>
</a>
</g>
</g>
<!-- Node4&#45;&gt;Node16 -->
<g id="edge20_Node000004_Node000016" class="edge">
<title>Node4&#45;&gt;Node16</title>
<g id="a_edge20_Node000004_Node000016"><a xlink:title=" ">
<path fill="none" stroke="#63b8ff" d="M269,-175.87C269,-167.75 269,-155.31 269,-144.89"/>
<polygon fill="#63b8ff" stroke="#63b8ff" points="272.5,-144.67 269,-134.67 265.5,-144.67 272.5,-144.67"/>
</a>
</g>
</g>
<!-- Node7&#45;&gt;Node5 -->
<g id="edge9_Node000007_Node000005" class="edge">
<title>Node7&#45;&gt;Node5</title>
<g id="a_edge9_Node000007_Node000005"><a xlink:title=" ">
<path fill="none" stroke="#63b8ff" d="M159.89,-54.98C181.08,-46.34 214.13,-32.87 238.3,-23.02"/>
<polygon fill="#63b8ff" stroke="#63b8ff" points="239.79,-26.19 247.73,-19.17 237.15,-19.7 239.79,-26.19"/>
</a>
</g>
</g>
<!-- Node7&#45;&gt;Node8 -->
<g id="edge7_Node000007_Node000008" class="edge">
<title>Node7&#45;&gt;Node8</title>
<g id="a_edge7_Node000007_Node000008"><a xlink:title=" ">
<path fill="none" stroke="#63b8ff" d="M121.33,-54.98C103.71,-46.5 76.42,-33.35 56.07,-23.54"/>
<polygon fill="#63b8ff" stroke="#63b8ff" points="57.52,-20.36 46.99,-19.17 54.48,-26.66 57.52,-20.36"/>
</a>
</g>
</g>
<!-- Node7&#45;&gt;Node9 -->
<g id="edge8_Node000007_Node000009" class="edge">
<title>Node7&#45;&gt;Node9</title>
<g id="a_edge8_Node000007_Node000009"><a xlink:title=" ">
<path fill="none" stroke="#63b8ff" d="M136.85,-54.75C135.13,-47.72 132.65,-37.62 130.5,-28.84"/>
<polygon fill="#63b8ff" stroke="#63b8ff" points="133.89,-27.97 128.11,-19.09 127.09,-29.63 133.89,-27.97"/>
</a>
</g>
</g>
<!-- Node10&#45;&gt;Node5 -->
<g id="edge11_Node000010_Node000005" class="edge">
<title>Node10&#45;&gt;Node5</title>
<g id="a_edge11_Node000010_Node000005"><a xlink:title=" ">
<path fill="none" stroke="#63b8ff" d="M456.17,-54.98C413.27,-44.79 342.06,-27.86 300.96,-18.09"/>
<polygon fill="#63b8ff" stroke="#63b8ff" points="301.73,-14.68 291.19,-15.77 300.11,-21.49 301.73,-14.68"/>
</a>
</g>
</g>
<!-- Node11 -->
<g id="Node000011" class="node">
<title>Node11</title>
<g id="a_Node000011"><a xlink:title=" ">
<polygon fill="#e0e0e0" stroke="#999999" points="600.5,-19 535.5,-19 535.5,0 600.5,0 600.5,-19"/>
<text text-anchor="middle" x="568" y="-7" font-family="Helvetica,sans-Serif" font-size="10.00">stdexcept</text>
</a>
</g>
</g>
<!-- Node10&#45;&gt;Node11 -->
<g id="edge12_Node000010_Node000011" class="edge">
<title>Node10&#45;&gt;Node11</title>
<g id="a_edge12_Node000010_Node000011"><a xlink:title=" ">
<path fill="none" stroke="#63b8ff" d="M504.21,-54.98C515.78,-46.92 533.38,-34.65 547.16,-25.03"/>
<polygon fill="#63b8ff" stroke="#63b8ff" points="549.37,-27.76 555.57,-19.17 545.36,-22.02 549.37,-27.76"/>
</a>
</g>
</g>
<!-- Node12 -->
<g id="Node000012" class="node">
<title>Node12</title>
<g id="a_Node000012"><a xlink:title=" ">
<polygon fill="#e0e0e0" stroke="#999999" points="448.5,-19 403.5,-19 403.5,0 448.5,0 448.5,-19"/>
<text text-anchor="middle" x="426" y="-7" font-family="Helvetica,sans-Serif" font-size="10.00">utility</text>
</a>
</g>
</g>
<!-- Node10&#45;&gt;Node12 -->
<g id="edge13_Node000010_Node000012" class="edge">
<title>Node10&#45;&gt;Node12</title>
<g id="a_edge13_Node000010_Node000012"><a xlink:title=" ">
<path fill="none" stroke="#63b8ff" d="M481.4,-54.98C471.54,-47.07 456.65,-35.11 444.78,-25.58"/>
<polygon fill="#63b8ff" stroke="#63b8ff" points="446.79,-22.7 436.8,-19.17 442.4,-28.16 446.79,-22.7"/>
</a>
</g>
</g>
<!-- Node13 -->
<g id="Node000013" class="node">
<title>Node13</title>
<g id="a_Node000013"><a xlink:title=" ">
<polygon fill="#e0e0e0" stroke="#999999" points="375,-19 319,-19 319,0 375,0 375,-19"/>
<text text-anchor="middle" x="347" y="-7" font-family="Helvetica,sans-Serif" font-size="10.00">optional</text>
</a>
</g>
</g>
<!-- Node10&#45;&gt;Node13 -->
<g id="edge14_Node000010_Node000013" class="edge">
<title>Node10&#45;&gt;Node13</title>
<g id="a_edge14_Node000010_Node000013"><a xlink:title=" ">
<path fill="none" stroke="#63b8ff" d="M468.7,-54.98C444.75,-46.23 407.22,-32.51 380.17,-22.62"/>
<polygon fill="#63b8ff" stroke="#63b8ff" points="381.31,-19.32 370.72,-19.17 378.91,-25.89 381.31,-19.32"/>
</a>
</g>
</g>
<!-- Node14 -->
<g id="Node000014" class="node">
<title>Node14</title>
<g id="a_Node000014"><a xlink:title=" ">
<polygon fill="#e0e0e0" stroke="#999999" points="517.5,-19 466.5,-19 466.5,0 517.5,0 517.5,-19"/>
<text text-anchor="middle" x="492" y="-7" font-family="Helvetica,sans-Serif" font-size="10.00">variant</text>
</a>
</g>
</g>
<!-- Node10&#45;&gt;Node14 -->
<g id="edge15_Node000010_Node000014" class="edge">
<title>Node10&#45;&gt;Node14</title>
<g id="a_edge15_Node000010_Node000014"><a xlink:title=" ">
<path fill="none" stroke="#63b8ff" d="M492,-54.75C492,-47.8 492,-37.85 492,-29.13"/>
<polygon fill="#63b8ff" stroke="#63b8ff" points="495.5,-29.09 492,-19.09 488.5,-29.09 495.5,-29.09"/>
</a>
</g>
</g>
<!-- Node15&#45;&gt;Node5 -->
<g id="edge17_Node000015_Node000005" class="edge">
<title>Node15&#45;&gt;Node5</title>
<g id="a_edge17_Node000015_Node000005"><a xlink:title=" ">
<path fill="none" stroke="#63b8ff" d="M476.03,-109.92C458.08,-94.69 427.59,-70.5 398,-55 366.69,-38.59 328.06,-26.2 301.28,-18.71"/>
<polygon fill="#63b8ff" stroke="#63b8ff" points="301.85,-15.24 291.28,-15.99 300.01,-21.99 301.85,-15.24"/>
</a>
</g>
</g>
<!-- Node15&#45;&gt;Node6 -->
<g id="edge18_Node000015_Node000006" class="edge">
<title>Node15&#45;&gt;Node6</title>
<g id="a_edge18_Node000015_Node000006"><a xlink:title=" ">
<path fill="none" stroke="#63b8ff" d="M461.34,-109.99C440.27,-100.36 412.51,-87.67 392.03,-78.31"/>
<polygon fill="#63b8ff" stroke="#63b8ff" points="393.45,-75.11 382.9,-74.14 390.54,-81.48 393.45,-75.11"/>
</a>
</g>
</g>
<!-- Node15&#45;&gt;Node10 -->
<g id="edge19_Node000015_Node000010" class="edge">
<title>Node15&#45;&gt;Node10</title>
<g id="a_edge19_Node000015_Node000010"><a xlink:title=" ">
<path fill="none" stroke="#63b8ff" d="M492,-109.84C492,-102.21 492,-92.7 492,-84.45"/>
<polygon fill="#63b8ff" stroke="#63b8ff" points="495.5,-84.27 492,-74.27 488.5,-84.27 495.5,-84.27"/>
</a>
</g>
</g>
<!-- Node16&#45;&gt;Node5 -->
<g id="edge21_Node000016_Node000005" class="edge">
<title>Node16&#45;&gt;Node5</title>
<g id="a_edge21_Node000016_Node000005"><a xlink:title=" ">
<path fill="none" stroke="#63b8ff" d="M269,-115.47C269,-97.23 269,-54.07 269,-29.14"/>
<polygon fill="#63b8ff" stroke="#63b8ff" points="272.5,-29.13 269,-19.13 265.5,-29.13 272.5,-29.13"/>
</a>
</g>
</g>
<!-- Node16&#45;&gt;Node6 -->
<g id="edge22_Node000016_Node000006" class="edge">
<title>Node16&#45;&gt;Node6</title>
<g id="a_edge22_Node000016_Node000006"><a xlink:title=" ">
<path fill="none" stroke="#63b8ff" d="M283.02,-115.37C298.31,-105.95 323.03,-90.73 341.14,-79.58"/>
<polygon fill="#63b8ff" stroke="#63b8ff" points="343.25,-82.39 349.92,-74.17 339.57,-76.43 343.25,-82.39"/>
</a>
</g>
</g>
<!-- Node16&#45;&gt;Node7 -->
<g id="edge24_Node000016_Node000007" class="edge">
<title>Node16&#45;&gt;Node7</title>
<g id="a_edge24_Node000016_Node000007"><a xlink:title=" ">
<path fill="none" stroke="#63b8ff" d="M250.1,-115.49C228.34,-105.7 192.38,-89.52 167.29,-78.23"/>
<polygon fill="#63b8ff" stroke="#63b8ff" points="168.48,-74.93 157.93,-74.02 165.61,-81.31 168.48,-74.93"/>
</a>
</g>
</g>
<!-- Node16&#45;&gt;Node13 -->
<g id="edge23_Node000016_Node000013" class="edge">
<title>Node16&#45;&gt;Node13</title>
<g id="a_edge23_Node000016_Node000013"><a xlink:title=" ">
<path fill="none" stroke="#63b8ff" d="M274.86,-115.47C287.68,-96.82 318.4,-52.11 335.32,-27.49"/>
<polygon fill="#63b8ff" stroke="#63b8ff" points="338.29,-29.35 341.07,-19.13 332.52,-25.39 338.29,-29.35"/>
</a>
</g>
</g>
</g>
</svg>
