<?xml version="1.0" encoding="UTF-8" standalone="no"?>
<!DOCTYPE svg PUBLIC "-//W3C//DTD SVG 1.1//EN"
 "http://www.w3.org/Graphics/SVG/1.1/DTD/svg11.dtd">
<!-- Generated by graphviz version 2.43.0 (0)
 -->
<!-- Title: /home/runner/work/logger_system/logger_system/sources/logger/writers/rotating_file_writer.cpp Pages: 1 -->
<svg width="1151pt" height="412pt"
 viewBox="0.00 0.00 1151.00 412.00" xmlns="http://www.w3.org/2000/svg" xmlns:xlink="http://www.w3.org/1999/xlink">
<g id="graph0" class="graph" transform="scale(1 1) rotate(0) translate(4 408)">
<title>/home/runner/work/logger_system/logger_system/sources/logger/writers/rotating_file_writer.cpp</title>
<!-- Node1 -->
<g id="Node000001" class="node">
<title>Node1</title>
<g id="a_Node000001"><a xlink:title=" ">
<polygon fill="#999999" stroke="#666666" points="1030.5,-404 857.5,-404 857.5,-352 1030.5,-352 1030.5,-404"/>
<text text-anchor="start" x="865.5" y="-392" font-family="Helvetica,sans-Serif" font-size="10.00">/home/runner/work/logger</text>
<text text-anchor="start" x="865.5" y="-381" font-family="Helvetica,sans-Serif" font-size="10.00">_system/logger_system/sources</text>
<text text-anchor="start" x="865.5" y="-370" font-family="Helvetica,sans-Serif" font-size="10.00">/logger/writers/rotating_file</text>
<text text-anchor="middle" x="944" y="-359" font-family="Helvetica,sans-Serif" font-size="10.00">_writer.cpp</text>
</a>
</g>
</g>
<!-- Node2 -->
<g id="Node000002" class="node">
<title>Node2</title>
<g id="a_Node000002"><a xlink:href="rotating__file__writer_8h.html" target="_top" xlink:title=" ">
<polygon fill="white" stroke="#666666" points="216.5,-316 99.5,-316 99.5,-297 216.5,-297 216.5,-316"/>
<text text-anchor="middle" x="158" y="-304" font-family="Helvetica,sans-Serif" font-size="10.00">rotating_file_writer.h</text>
</a>
</g>
</g>
<!-- Node1&#45;&gt;Node2 -->
<g id="edge1_Node000001_Node000002" class="edge">
<title>Node1&#45;&gt;Node2</title>
<g id="a_edge1_Node000001_Node000002"><a xlink:title=" ">
<path fill="none" stroke="#63b8ff" d="M857.26,-369.33C699.74,-355.4 369.78,-326.23 226.66,-313.57"/>
<polygon fill="#63b8ff" stroke="#63b8ff" points="226.95,-310.08 216.68,-312.69 226.34,-317.06 226.95,-310.08"/>
</a>
</g>
</g>
<!-- Node18 -->
<g id="Node000018" class="node">
<title>Node18</title>
<g id="a_Node000018"><a xlink:title=" ">
<polygon fill="#e0e0e0" stroke="#999999" points="936,-24.5 872,-24.5 872,-5.5 936,-5.5 936,-24.5"/>
<text text-anchor="middle" x="904" y="-12.5" font-family="Helvetica,sans-Serif" font-size="10.00">algorithm</text>
</a>
</g>
</g>
<!-- Node1&#45;&gt;Node18 -->
<g id="edge36_Node000001_Node000018" class="edge">
<title>Node1&#45;&gt;Node18</title>
<g id="a_edge36_Node000001_Node000018"><a xlink:title=" ">
<path fill="none" stroke="#63b8ff" d="M900.9,-351.76C887.46,-342.07 873.64,-329.93 864,-316 847.24,-291.77 845,-281.96 845,-252.5 845,-252.5 845,-252.5 845,-135 845,-94.87 872.26,-54.31 889.72,-32.45"/>
<polygon fill="#63b8ff" stroke="#63b8ff" points="892.6,-34.46 896.29,-24.53 887.21,-29.99 892.6,-34.46"/>
</a>
</g>
</g>
<!-- Node25 -->
<g id="Node000025" class="node">
<title>Node25</title>
<g id="a_Node000025"><a xlink:title=" ">
<polygon fill="#e0e0e0" stroke="#999999" points="941,-316 873,-316 873,-297 941,-297 941,-316"/>
<text text-anchor="middle" x="907" y="-304" font-family="Helvetica,sans-Serif" font-size="10.00">filesystem</text>
</a>
</g>
</g>
<!-- Node1&#45;&gt;Node25 -->
<g id="edge35_Node000001_Node000025" class="edge">
<title>Node1&#45;&gt;Node25</title>
<g id="a_edge35_Node000001_Node000025"><a xlink:title=" ">
<path fill="none" stroke="#63b8ff" d="M930.64,-351.91C925.93,-343.06 920.74,-333.31 916.42,-325.2"/>
<polygon fill="#63b8ff" stroke="#63b8ff" points="919.47,-323.48 911.69,-316.3 913.3,-326.77 919.47,-323.48"/>
</a>
</g>
</g>
<!-- Node26 -->
<g id="Node000026" class="node">
<title>Node26</title>
<g id="a_Node000026"><a xlink:title=" ">
<polygon fill="#e0e0e0" stroke="#999999" points="1003,-316 959,-316 959,-297 1003,-297 1003,-316"/>
<text text-anchor="middle" x="981" y="-304" font-family="Helvetica,sans-Serif" font-size="10.00">regex</text>
</a>
</g>
</g>
<!-- Node1&#45;&gt;Node26 -->
<g id="edge37_Node000001_Node000026" class="edge">
<title>Node1&#45;&gt;Node26</title>
<g id="a_edge37_Node000001_Node000026"><a xlink:title=" ">
<path fill="none" stroke="#63b8ff" d="M957.36,-351.91C962.07,-343.06 967.26,-333.31 971.58,-325.2"/>
<polygon fill="#63b8ff" stroke="#63b8ff" points="974.7,-326.77 976.31,-316.3 968.53,-323.48 974.7,-326.77"/>
</a>
</g>
</g>
<!-- Node27 -->
<g id="Node000027" class="node">
<title>Node27</title>
<g id="a_Node000027"><a xlink:title=" ">
<polygon fill="#e0e0e0" stroke="#999999" points="1065,-316 1021,-316 1021,-297 1065,-297 1065,-316"/>
<text text-anchor="middle" x="1043" y="-304" font-family="Helvetica,sans-Serif" font-size="10.00">ctime</text>
</a>
</g>
</g>
<!-- Node1&#45;&gt;Node27 -->
<g id="edge38_Node000001_Node000027" class="edge">
<title>Node1&#45;&gt;Node27</title>
<g id="a_edge38_Node000001_Node000027"><a xlink:title=" ">
<path fill="none" stroke="#63b8ff" d="M979.74,-351.91C994,-341.9 1009.92,-330.72 1022.22,-322.09"/>
<polygon fill="#63b8ff" stroke="#63b8ff" points="1024.29,-324.91 1030.46,-316.3 1020.27,-319.18 1024.29,-324.91"/>
</a>
</g>
</g>
<!-- Node28 -->
<g id="Node000028" class="node">
<title>Node28</title>
<g id="a_Node000028"><a xlink:title=" ">
<polygon fill="#e0e0e0" stroke="#999999" points="1143,-316 1083,-316 1083,-297 1143,-297 1143,-316"/>
<text text-anchor="middle" x="1113" y="-304" font-family="Helvetica,sans-Serif" font-size="10.00">iostream</text>
</a>
</g>
</g>
<!-- Node1&#45;&gt;Node28 -->
<g id="edge39_Node000001_Node000028" class="edge">
<title>Node1&#45;&gt;Node28</title>
<g id="a_edge39_Node000001_Node000028"><a xlink:title=" ">
<path fill="none" stroke="#63b8ff" d="M1005.01,-351.91C1031.41,-341.05 1061.14,-328.83 1082.71,-319.96"/>
<polygon fill="#63b8ff" stroke="#63b8ff" points="1084.08,-323.18 1092,-316.14 1081.42,-316.7 1084.08,-323.18"/>
</a>
</g>
</g>
<!-- Node3 -->
<g id="Node000003" class="node">
<title>Node3</title>
<g id="a_Node000003"><a xlink:href="file__writer_8h.html" target="_top" xlink:title=" ">
<polygon fill="white" stroke="#666666" points="356,-261 282,-261 282,-242 356,-242 356,-261"/>
<text text-anchor="middle" x="319" y="-249" font-family="Helvetica,sans-Serif" font-size="10.00">file_writer.h</text>
</a>
</g>
</g>
<!-- Node2&#45;&gt;Node3 -->
<g id="edge2_Node000002_Node000003" class="edge">
<title>Node2&#45;&gt;Node3</title>
<g id="a_edge2_Node000002_Node000003"><a xlink:title=" ">
<path fill="none" stroke="#63b8ff" d="M183.87,-296.98C210.78,-288.13 253.12,-274.19 283.23,-264.28"/>
<polygon fill="#63b8ff" stroke="#63b8ff" points="284.53,-267.53 292.93,-261.08 282.34,-260.88 284.53,-267.53"/>
</a>
</g>
</g>
<!-- Node6 -->
<g id="Node000006" class="node">
<title>Node6</title>
<g id="a_Node000006"><a xlink:title=" ">
<polygon fill="#e0e0e0" stroke="#999999" points="300,-85 250,-85 250,-66 300,-66 300,-85"/>
<text text-anchor="middle" x="275" y="-73" font-family="Helvetica,sans-Serif" font-size="10.00">chrono</text>
</a>
</g>
</g>
<!-- Node2&#45;&gt;Node6 -->
<g id="edge32_Node000002_Node000006" class="edge">
<title>Node2&#45;&gt;Node6</title>
<g id="a_edge32_Node000002_Node000006"><a xlink:title=" ">
<path fill="none" stroke="#63b8ff" d="M157.78,-296.98C157.57,-276.83 158.99,-225.04 177,-187 195.78,-147.34 233.25,-111.32 256.02,-91.8"/>
<polygon fill="#63b8ff" stroke="#63b8ff" points="258.54,-94.26 263.96,-85.16 254.05,-88.89 258.54,-94.26"/>
</a>
</g>
</g>
<!-- Node23 -->
<g id="Node000023" class="node">
<title>Node23</title>
<g id="a_Node000023"><a xlink:title=" ">
<polygon fill="#e0e0e0" stroke="#999999" points="56,-261 0,-261 0,-242 56,-242 56,-261"/>
<text text-anchor="middle" x="28" y="-249" font-family="Helvetica,sans-Serif" font-size="10.00">iomanip</text>
</a>
</g>
</g>
<!-- Node2&#45;&gt;Node23 -->
<g id="edge33_Node000002_Node000023" class="edge">
<title>Node2&#45;&gt;Node23</title>
<g id="a_edge33_Node000002_Node000023"><a xlink:title=" ">
<path fill="none" stroke="#63b8ff" d="M137.11,-296.98C115.92,-288.34 82.87,-274.87 58.7,-265.02"/>
<polygon fill="#63b8ff" stroke="#63b8ff" points="59.85,-261.7 49.27,-261.17 57.21,-268.19 59.85,-261.7"/>
</a>
</g>
</g>
<!-- Node24 -->
<g id="Node000024" class="node">
<title>Node24</title>
<g id="a_Node000024"><a xlink:title=" ">
<polygon fill="#e0e0e0" stroke="#999999" points="130,-261 74,-261 74,-242 130,-242 130,-261"/>
<text text-anchor="middle" x="102" y="-249" font-family="Helvetica,sans-Serif" font-size="10.00">sstream</text>
</a>
</g>
</g>
<!-- Node2&#45;&gt;Node24 -->
<g id="edge34_Node000002_Node000024" class="edge">
<title>Node2&#45;&gt;Node24</title>
<g id="a_edge34_Node000002_Node000024"><a xlink:title=" ">
<path fill="none" stroke="#63b8ff" d="M149,-296.98C140.81,-289.23 128.49,-277.58 118.53,-268.14"/>
<polygon fill="#63b8ff" stroke="#63b8ff" points="120.83,-265.5 111.16,-261.17 116.02,-270.59 120.83,-265.5"/>
</a>
</g>
</g>
<!-- Node4 -->
<g id="Node000004" class="node">
<title>Node4</title>
<g id="a_Node000004"><a xlink:href="base__writer_8h.html" target="_top" xlink:title="Abstract base class for all log output writers.">
<polygon fill="white" stroke="#666666" points="402,-206 320,-206 320,-187 402,-187 402,-206"/>
<text text-anchor="middle" x="361" y="-194" font-family="Helvetica,sans-Serif" font-size="10.00">base_writer.h</text>
</a>
</g>
</g>
<!-- Node3&#45;&gt;Node4 -->
<g id="edge3_Node000003_Node000004" class="edge">
<title>Node3&#45;&gt;Node4</title>
<g id="a_edge3_Node000003_Node000004"><a xlink:title=" ">
<path fill="none" stroke="#63b8ff" d="M325.94,-241.75C331.87,-234.26 340.57,-223.28 347.82,-214.13"/>
<polygon fill="#63b8ff" stroke="#63b8ff" points="350.73,-216.1 354.19,-206.09 345.24,-211.75 350.73,-216.1"/>
</a>
</g>
</g>
<!-- Node19 -->
<g id="Node000019" class="node">
<title>Node19</title>
<g id="a_Node000019"><a xlink:title=" ">
<polygon fill="#e0e0e0" stroke="#999999" points="854,-24.5 796,-24.5 796,-5.5 854,-5.5 854,-24.5"/>
<text text-anchor="middle" x="825" y="-12.5" font-family="Helvetica,sans-Serif" font-size="10.00">memory</text>
</a>
</g>
</g>
<!-- Node3&#45;&gt;Node19 -->
<g id="edge31_Node000003_Node000019" class="edge">
<title>Node3&#45;&gt;Node19</title>
<g id="a_edge31_Node000003_Node000019"><a xlink:title=" ">
<path fill="none" stroke="#63b8ff" d="M356.25,-242.73C390.33,-235.1 441.86,-222.25 485,-206 598.65,-163.18 626.05,-147.8 730,-85 757.71,-68.26 787.61,-45.73 806.31,-31.04"/>
<polygon fill="#63b8ff" stroke="#63b8ff" points="808.64,-33.66 814.3,-24.7 804.29,-28.17 808.64,-33.66"/>
</a>
</g>
</g>
<!-- Node20 -->
<g id="Node000020" class="node">
<title>Node20</title>
<g id="a_Node000020"><a xlink:title=" ">
<polygon fill="#e0e0e0" stroke="#999999" points="475.5,-206 420.5,-206 420.5,-187 475.5,-187 475.5,-206"/>
<text text-anchor="middle" x="448" y="-194" font-family="Helvetica,sans-Serif" font-size="10.00">fstream</text>
</a>
</g>
</g>
<!-- Node3&#45;&gt;Node20 -->
<g id="edge28_Node000003_Node000020" class="edge">
<title>Node3&#45;&gt;Node20</title>
<g id="a_edge28_Node000003_Node000020"><a xlink:title=" ">
<path fill="none" stroke="#63b8ff" d="M339.73,-241.98C360.76,-233.34 393.55,-219.87 417.54,-210.02"/>
<polygon fill="#63b8ff" stroke="#63b8ff" points="418.98,-213.21 426.9,-206.17 416.32,-206.73 418.98,-213.21"/>
</a>
</g>
</g>
<!-- Node21 -->
<g id="Node000021" class="node">
<title>Node21</title>
<g id="a_Node000021"><a xlink:title=" ">
<polygon fill="#e0e0e0" stroke="#999999" points="234,-206 186,-206 186,-187 234,-187 234,-206"/>
<text text-anchor="middle" x="210" y="-194" font-family="Helvetica,sans-Serif" font-size="10.00">mutex</text>
</a>
</g>
</g>
<!-- Node3&#45;&gt;Node21 -->
<g id="edge29_Node000003_Node000021" class="edge">
<title>Node3&#45;&gt;Node21</title>
<g id="a_edge29_Node000003_Node000021"><a xlink:title=" ">
<path fill="none" stroke="#63b8ff" d="M301.49,-241.98C284.03,-233.5 256.99,-220.35 236.83,-210.54"/>
<polygon fill="#63b8ff" stroke="#63b8ff" points="238.36,-207.4 227.83,-206.17 235.29,-213.69 238.36,-207.4"/>
</a>
</g>
</g>
<!-- Node22 -->
<g id="Node000022" class="node">
<title>Node22</title>
<g id="a_Node000022"><a xlink:title=" ">
<polygon fill="#e0e0e0" stroke="#999999" points="302,-206 252,-206 252,-187 302,-187 302,-206"/>
<text text-anchor="middle" x="277" y="-194" font-family="Helvetica,sans-Serif" font-size="10.00">atomic</text>
</a>
</g>
</g>
<!-- Node3&#45;&gt;Node22 -->
<g id="edge30_Node000003_Node000022" class="edge">
<title>Node3&#45;&gt;Node22</title>
<g id="a_edge30_Node000003_Node000022"><a xlink:title=" ">
<path fill="none" stroke="#63b8ff" d="M312.06,-241.75C306.13,-234.26 297.43,-223.28 290.18,-214.13"/>
<polygon fill="#63b8ff" stroke="#63b8ff" points="292.76,-211.75 283.81,-206.09 287.27,-216.1 292.76,-211.75"/>
</a>
</g>
</g>
<!-- Node5 -->
<g id="Node000005" class="node">
<title>Node5</title>
<g id="a_Node000005"><a xlink:title=" ">
<polygon fill="#e0e0e0" stroke="#999999" points="324,-24.5 280,-24.5 280,-5.5 324,-5.5 324,-24.5"/>
<text text-anchor="middle" x="302" y="-12.5" font-family="Helvetica,sans-Serif" font-size="10.00">string</text>
</a>
</g>
</g>
<!-- Node4&#45;&gt;Node5 -->
<g id="edge4_Node000004_Node000005" class="edge">
<title>Node4&#45;&gt;Node5</title>
<g id="a_edge4_Node000004_Node000005"><a xlink:title=" ">
<path fill="none" stroke="#63b8ff" d="M321.39,-186.96C247.34,-170.07 92.86,-130.09 65,-85 60.56,-77.82 59.68,-72.56 65,-66 90.44,-34.64 211.09,-22.19 269.78,-17.93"/>
<polygon fill="#63b8ff" stroke="#63b8ff" points="270.25,-21.41 279.98,-17.23 269.76,-14.42 270.25,-21.41"/>
</a>
</g>
</g>
<!-- Node4&#45;&gt;Node6 -->
<g id="edge5_Node000004_Node000006" class="edge">
<title>Node4&#45;&gt;Node6</title>
<g id="a_edge5_Node000004_Node000006"><a xlink:title=" ">
<path fill="none" stroke="#63b8ff" d="M330.65,-186.99C302.25,-178.34 262.9,-164.35 254,-151 242.28,-133.43 252.86,-109.36 262.78,-93.39"/>
<polygon fill="#63b8ff" stroke="#63b8ff" points="265.72,-95.29 268.37,-85.03 259.9,-91.39 265.72,-95.29"/>
</a>
</g>
</g>
<!-- Node7 -->
<g id="Node000007" class="node">
<title>Node7</title>
<g id="a_Node000007"><a xlink:title=" ">
<polygon fill="#e0e0e0" stroke="#999999" points="231.5,-85 74.5,-85 74.5,-66 231.5,-66 231.5,-85"/>
<text text-anchor="middle" x="153" y="-73" font-family="Helvetica,sans-Serif" font-size="10.00">interfaces/logger_interface.h</text>
</a>
</g>
</g>
<!-- Node4&#45;&gt;Node7 -->
<g id="edge6_Node000004_Node000007" class="edge">
<title>Node4&#45;&gt;Node7</title>
<g id="a_edge6_Node000004_Node000007"><a xlink:title=" ">
<path fill="none" stroke="#63b8ff" d="M330.47,-186.87C306.12,-179.3 271.65,-167 244,-151 215.45,-134.47 186.69,-109.13 169.36,-92.69"/>
<polygon fill="#63b8ff" stroke="#63b8ff" points="171.44,-89.84 161.82,-85.41 166.58,-94.87 171.44,-89.84"/>
</a>
</g>
</g>
<!-- Node8 -->
<g id="Node000008" class="node">
<title>Node8</title>
<g id="a_Node000008"><a xlink:href="error__codes_8h.html" target="_top" xlink:title=" ">
<polygon fill="white" stroke="#666666" points="560,-85 468,-85 468,-66 560,-66 560,-85"/>
<text text-anchor="middle" x="514" y="-73" font-family="Helvetica,sans-Serif" font-size="10.00">../error_codes.h</text>
</a>
</g>
</g>
<!-- Node4&#45;&gt;Node8 -->
<g id="edge7_Node000004_Node000008" class="edge">
<title>Node4&#45;&gt;Node8</title>
<g id="a_edge7_Node000004_Node000008"><a xlink:title=" ">
<path fill="none" stroke="#63b8ff" d="M402.38,-188.38C454.39,-179.01 538,-162.4 547,-151 561.03,-133.22 544.6,-108.54 530.33,-92.55"/>
<polygon fill="#63b8ff" stroke="#63b8ff" points="532.65,-89.91 523.23,-85.06 527.57,-94.72 532.65,-89.91"/>
</a>
</g>
</g>
<!-- Node12 -->
<g id="Node000012" class="node">
<title>Node12</title>
<g id="a_Node000012"><a xlink:href="log__writer__interface_8h.html" target="_top" xlink:title=" ">
<polygon fill="white" stroke="#666666" points="538,-151 412,-151 412,-121 538,-121 538,-151"/>
<text text-anchor="start" x="420" y="-139" font-family="Helvetica,sans-Serif" font-size="10.00">../interfaces/log_writer</text>
<text text-anchor="middle" x="475" y="-128" font-family="Helvetica,sans-Serif" font-size="10.00">_interface.h</text>
</a>
</g>
</g>
<!-- Node4&#45;&gt;Node12 -->
<g id="edge12_Node000004_Node000012" class="edge">
<title>Node4&#45;&gt;Node12</title>
<g id="a_edge12_Node000004_Node000012"><a xlink:title=" ">
<path fill="none" stroke="#63b8ff" d="M377.82,-186.87C393.72,-178.71 418.1,-166.2 438.47,-155.75"/>
<polygon fill="#63b8ff" stroke="#63b8ff" points="440.2,-158.79 447.49,-151.11 437,-152.57 440.2,-158.79"/>
</a>
</g>
</g>
<!-- Node13 -->
<g id="Node000013" class="node">
<title>Node13</title>
<g id="a_Node000013"><a xlink:href="log__entry_8h.html" target="_top" xlink:title="Data structures for representing log entries and source locations.">
<polygon fill="white" stroke="#666666" points="393.5,-145.5 262.5,-145.5 262.5,-126.5 393.5,-126.5 393.5,-145.5"/>
<text text-anchor="middle" x="328" y="-133.5" font-family="Helvetica,sans-Serif" font-size="10.00">../interfaces/log_entry.h</text>
</a>
</g>
</g>
<!-- Node4&#45;&gt;Node13 -->
<g id="edge16_Node000004_Node000013" class="edge">
<title>Node4&#45;&gt;Node13</title>
<g id="a_edge16_Node000004_Node000013"><a xlink:title=" ">
<path fill="none" stroke="#63b8ff" d="M356.13,-186.87C351.35,-178.4 343.93,-165.24 337.91,-154.57"/>
<polygon fill="#63b8ff" stroke="#63b8ff" points="340.85,-152.66 332.89,-145.67 334.75,-156.1 340.85,-152.66"/>
</a>
</g>
</g>
<!-- Node8&#45;&gt;Node5 -->
<g id="edge8_Node000008_Node000005" class="edge">
<title>Node8&#45;&gt;Node5</title>
<g id="a_edge8_Node000008_Node000005"><a xlink:title=" ">
<path fill="none" stroke="#63b8ff" d="M470.86,-65.99C434.02,-58.22 379.87,-45.58 334,-30 332.56,-29.51 331.1,-28.99 329.64,-28.43"/>
<polygon fill="#63b8ff" stroke="#63b8ff" points="330.65,-25.07 320.06,-24.54 328.01,-31.55 330.65,-25.07"/>
</a>
</g>
</g>
<!-- Node9 -->
<g id="Node000009" class="node">
<title>Node9</title>
<g id="a_Node000009"><a xlink:title=" ">
<polygon fill="#e0e0e0" stroke="#999999" points="407.5,-24.5 342.5,-24.5 342.5,-5.5 407.5,-5.5 407.5,-24.5"/>
<text text-anchor="middle" x="375" y="-12.5" font-family="Helvetica,sans-Serif" font-size="10.00">stdexcept</text>
</a>
</g>
</g>
<!-- Node8&#45;&gt;Node9 -->
<g id="edge9_Node000008_Node000009" class="edge">
<title>Node8&#45;&gt;Node9</title>
<g id="a_edge9_Node000008_Node000009"><a xlink:title=" ">
<path fill="none" stroke="#63b8ff" d="M493.79,-65.99C470.32,-56.12 431.39,-39.73 404.54,-28.43"/>
<polygon fill="#63b8ff" stroke="#63b8ff" points="405.81,-25.17 395.24,-24.52 403.1,-31.62 405.81,-25.17"/>
</a>
</g>
</g>
<!-- Node10 -->
<g id="Node000010" class="node">
<title>Node10</title>
<g id="a_Node000010"><a xlink:title=" ">
<polygon fill="#e0e0e0" stroke="#999999" points="617.5,-24.5 572.5,-24.5 572.5,-5.5 617.5,-5.5 617.5,-24.5"/>
<text text-anchor="middle" x="595" y="-12.5" font-family="Helvetica,sans-Serif" font-size="10.00">utility</text>
</a>
</g>
</g>
<!-- Node8&#45;&gt;Node10 -->
<g id="edge10_Node000008_Node000010" class="edge">
<title>Node8&#45;&gt;Node10</title>
<g id="a_edge10_Node000008_Node000010"><a xlink:title=" ">
<path fill="none" stroke="#63b8ff" d="M525.95,-65.87C538.75,-56.62 559.3,-41.78 574.65,-30.69"/>
<polygon fill="#63b8ff" stroke="#63b8ff" points="576.94,-33.36 583,-24.67 572.84,-27.68 576.94,-33.36"/>
</a>
</g>
</g>
<!-- Node11 -->
<g id="Node000011" class="node">
<title>Node11</title>
<g id="a_Node000011"><a xlink:title=" ">
<polygon fill="#e0e0e0" stroke="#999999" points="554,-30 426,-30 426,0 554,0 554,-30"/>
<text text-anchor="start" x="434" y="-18" font-family="Helvetica,sans-Serif" font-size="10.00">thread_base/sync/error</text>
<text text-anchor="middle" x="490" y="-7" font-family="Helvetica,sans-Serif" font-size="10.00">_handling.h</text>
</a>
</g>
</g>
<!-- Node8&#45;&gt;Node11 -->
<g id="edge11_Node000008_Node000011" class="edge">
<title>Node8&#45;&gt;Node11</title>
<g id="a_edge11_Node000008_Node000011"><a xlink:title=" ">
<path fill="none" stroke="#63b8ff" d="M510.46,-65.87C507.59,-58.89 503.42,-48.71 499.59,-39.38"/>
<polygon fill="#63b8ff" stroke="#63b8ff" points="502.82,-38.04 495.79,-30.11 496.35,-40.69 502.82,-38.04"/>
</a>
</g>
</g>
<!-- Node12&#45;&gt;Node5 -->
<g id="edge13_Node000012_Node000005" class="edge">
<title>Node12&#45;&gt;Node5</title>
<g id="a_edge13_Node000012_Node000005"><a xlink:title=" ">
<path fill="none" stroke="#63b8ff" d="M466.96,-120.8C457.64,-105.46 440.99,-81.18 421,-66 387.68,-40.69 372.5,-46.39 334,-30 332.84,-29.51 331.65,-29 330.46,-28.49"/>
<polygon fill="#63b8ff" stroke="#63b8ff" points="331.83,-25.27 321.26,-24.5 329.05,-31.69 331.83,-25.27"/>
</a>
</g>
</g>
<!-- Node12&#45;&gt;Node6 -->
<g id="edge14_Node000012_Node000006" class="edge">
<title>Node12&#45;&gt;Node6</title>
<g id="a_edge14_Node000012_Node000006"><a xlink:title=" ">
<path fill="none" stroke="#63b8ff" d="M427.1,-120.99C391.12,-110.46 342.66,-96.29 310.2,-86.8"/>
<polygon fill="#63b8ff" stroke="#63b8ff" points="310.84,-83.34 300.26,-83.89 308.88,-90.06 310.84,-83.34"/>
</a>
</g>
</g>
<!-- Node12&#45;&gt;Node8 -->
<g id="edge15_Node000012_Node000008" class="edge">
<title>Node12&#45;&gt;Node8</title>
<g id="a_edge15_Node000012_Node000008"><a xlink:title=" ">
<path fill="none" stroke="#63b8ff" d="M484.44,-120.84C489.87,-112.69 496.73,-102.4 502.48,-93.78"/>
<polygon fill="#63b8ff" stroke="#63b8ff" points="505.52,-95.53 508.16,-85.27 499.7,-91.65 505.52,-95.53"/>
</a>
</g>
</g>
<!-- Node13&#45;&gt;Node5 -->
<g id="edge17_Node000013_Node000005" class="edge">
<title>Node13&#45;&gt;Node5</title>
<g id="a_edge17_Node000013_Node000005"><a xlink:title=" ">
<path fill="none" stroke="#63b8ff" d="M326.13,-126.44C321.95,-107.32 311.78,-60.77 306.07,-34.62"/>
<polygon fill="#63b8ff" stroke="#63b8ff" points="309.48,-33.82 303.92,-24.8 302.64,-35.32 309.48,-33.82"/>
</a>
</g>
</g>
<!-- Node13&#45;&gt;Node6 -->
<g id="edge18_Node000013_Node000006" class="edge">
<title>Node13&#45;&gt;Node6</title>
<g id="a_edge18_Node000013_Node000006"><a xlink:title=" ">
<path fill="none" stroke="#63b8ff" d="M320.18,-126.37C312.19,-117.55 299.61,-103.66 289.74,-92.77"/>
<polygon fill="#63b8ff" stroke="#63b8ff" points="292.16,-90.23 282.85,-85.17 286.97,-94.93 292.16,-90.23"/>
</a>
</g>
</g>
<!-- Node13&#45;&gt;Node7 -->
<g id="edge27_Node000013_Node000007" class="edge">
<title>Node13&#45;&gt;Node7</title>
<g id="a_edge27_Node000013_Node000007"><a xlink:title=" ">
<path fill="none" stroke="#63b8ff" d="M302.55,-126.49C272.36,-116.4 221.84,-99.51 187.98,-88.19"/>
<polygon fill="#63b8ff" stroke="#63b8ff" points="189.07,-84.87 178.48,-85.02 186.85,-91.51 189.07,-84.87"/>
</a>
</g>
</g>
<!-- Node14 -->
<g id="Node000014" class="node">
<title>Node14</title>
<g id="a_Node000014"><a xlink:title=" ">
<polygon fill="#e0e0e0" stroke="#999999" points="412,-85 356,-85 356,-66 412,-66 412,-85"/>
<text text-anchor="middle" x="384" y="-73" font-family="Helvetica,sans-Serif" font-size="10.00">optional</text>
</a>
</g>
</g>
<!-- Node13&#45;&gt;Node14 -->
<g id="edge19_Node000013_Node000014" class="edge">
<title>Node13&#45;&gt;Node14</title>
<g id="a_edge19_Node000013_Node000014"><a xlink:title=" ">
<path fill="none" stroke="#63b8ff" d="M336.26,-126.37C344.78,-117.47 358.26,-103.39 368.73,-92.45"/>
<polygon fill="#63b8ff" stroke="#63b8ff" points="371.32,-94.81 375.7,-85.17 366.26,-89.97 371.32,-94.81"/>
</a>
</g>
</g>
<!-- Node15 -->
<g id="Node000015" class="node">
<title>Node15</title>
<g id="a_Node000015"><a xlink:href="small__string_8h.html" target="_top" xlink:title=" ">
<polygon fill="white" stroke="#666666" points="720.5,-85 601.5,-85 601.5,-66 720.5,-66 720.5,-85"/>
<text text-anchor="middle" x="661" y="-73" font-family="Helvetica,sans-Serif" font-size="10.00">../core/small_string.h</text>
</a>
</g>
</g>
<!-- Node13&#45;&gt;Node15 -->
<g id="edge20_Node000013_Node000015" class="edge">
<title>Node13&#45;&gt;Node15</title>
<g id="a_edge20_Node000013_Node000015"><a xlink:title=" ">
<path fill="none" stroke="#63b8ff" d="M373.19,-126.46C383.02,-124.63 393.35,-122.73 403,-121 470.32,-108.91 547.63,-95.66 599.94,-86.79"/>
<polygon fill="#63b8ff" stroke="#63b8ff" points="600.78,-90.2 610.05,-85.08 599.61,-83.29 600.78,-90.2"/>
</a>
</g>
</g>
<!-- Node15&#45;&gt;Node5 -->
<g id="edge22_Node000015_Node000005" class="edge">
<title>Node15&#45;&gt;Node5</title>
<g id="a_edge22_Node000015_Node000005"><a xlink:title=" ">
<path fill="none" stroke="#63b8ff" d="M601.42,-68.39C521.23,-59.83 382.95,-43.75 334,-30 332.31,-29.53 330.6,-28.98 328.89,-28.39"/>
<polygon fill="#63b8ff" stroke="#63b8ff" points="329.87,-25.01 319.28,-24.6 327.3,-31.52 329.87,-25.01"/>
</a>
</g>
</g>
<!-- Node15&#45;&gt;Node10 -->
<g id="edge26_Node000015_Node000010" class="edge">
<title>Node15&#45;&gt;Node10</title>
<g id="a_edge26_Node000015_Node000010"><a xlink:title=" ">
<path fill="none" stroke="#63b8ff" d="M651.26,-65.87C641.03,-56.8 624.71,-42.34 612.28,-31.32"/>
<polygon fill="#63b8ff" stroke="#63b8ff" points="614.58,-28.68 604.78,-24.67 609.94,-33.92 614.58,-28.68"/>
</a>
</g>
</g>
<!-- Node16 -->
<g id="Node000016" class="node">
<title>Node16</title>
<g id="a_Node000016"><a xlink:title=" ">
<polygon fill="#e0e0e0" stroke="#999999" points="686,-24.5 636,-24.5 636,-5.5 686,-5.5 686,-24.5"/>
<text text-anchor="middle" x="661" y="-12.5" font-family="Helvetica,sans-Serif" font-size="10.00">cstring</text>
</a>
</g>
</g>
<!-- Node15&#45;&gt;Node16 -->
<g id="edge21_Node000015_Node000016" class="edge">
<title>Node15&#45;&gt;Node16</title>
<g id="a_edge21_Node000015_Node000016"><a xlink:title=" ">
<path fill="none" stroke="#63b8ff" d="M661,-65.87C661,-57.75 661,-45.31 661,-34.89"/>
<polygon fill="#63b8ff" stroke="#63b8ff" points="664.5,-34.67 661,-24.67 657.5,-34.67 664.5,-34.67"/>
</a>
</g>
</g>
<!-- Node17 -->
<g id="Node000017" class="node">
<title>Node17</title>
<g id="a_Node000017"><a xlink:title=" ">
<polygon fill="#e0e0e0" stroke="#999999" points="777.5,-24.5 704.5,-24.5 704.5,-5.5 777.5,-5.5 777.5,-24.5"/>
<text text-anchor="middle" x="741" y="-12.5" font-family="Helvetica,sans-Serif" font-size="10.00">string_view</text>
</a>
</g>
</g>
<!-- Node15&#45;&gt;Node17 -->
<g id="edge23_Node000015_Node000017" class="edge">
<title>Node15&#45;&gt;Node17</title>
<g id="a_edge23_Node000015_Node000017"><a xlink:title=" ">
<path fill="none" stroke="#63b8ff" d="M672.8,-65.87C685.45,-56.62 705.74,-41.78 720.91,-30.69"/>
<polygon fill="#63b8ff" stroke="#63b8ff" points="723.14,-33.4 729.15,-24.67 719.01,-27.74 723.14,-33.4"/>
</a>
</g>
</g>
<!-- Node15&#45;&gt;Node18 -->
<g id="edge24_Node000015_Node000018" class="edge">
<title>Node15&#45;&gt;Node18</title>
<g id="a_edge24_Node000015_Node000018"><a xlink:title=" ">
<path fill="none" stroke="#63b8ff" d="M706.69,-65.96C747.87,-57.9 809.92,-44.86 863,-30 865.47,-29.31 868.01,-28.55 870.56,-27.76"/>
<polygon fill="#63b8ff" stroke="#63b8ff" points="871.86,-31.02 880.29,-24.6 869.7,-24.36 871.86,-31.02"/>
</a>
</g>
</g>
<!-- Node15&#45;&gt;Node19 -->
<g id="edge25_Node000015_Node000019" class="edge">
<title>Node15&#45;&gt;Node19</title>
<g id="a_edge25_Node000015_Node000019"><a xlink:title=" ">
<path fill="none" stroke="#63b8ff" d="M685.66,-65.9C711.09,-57.01 751.87,-42.68 787,-30 788.64,-29.41 790.31,-28.8 792,-28.19"/>
<polygon fill="#63b8ff" stroke="#63b8ff" points="793.52,-31.36 801.71,-24.64 791.11,-24.79 793.52,-31.36"/>
</a>
</g>
</g>
</g>
</svg>
