<?xml version="1.0" encoding="UTF-8" standalone="no"?>
<!DOCTYPE svg PUBLIC "-//W3C//DTD SVG 1.1//EN"
 "http://www.w3.org/Graphics/SVG/1.1/DTD/svg11.dtd">
<!-- Generated by graphviz version 2.43.0 (0)
 -->
<!-- Title: rotating_file_writer.h Pages: 1 -->
<svg width="720pt" height="313pt"
 viewBox="0.00 0.00 720.00 313.00" xmlns="http://www.w3.org/2000/svg" xmlns:xlink="http://www.w3.org/1999/xlink">
<g id="graph0" class="graph" transform="scale(1 1) rotate(0) translate(4 309)">
<title>rotating_file_writer.h</title>
<!-- Node1 -->
<g id="Node000001" class="node">
<title>Node1</title>
<g id="a_Node000001"><a xlink:title=" ">
<polygon fill="#999999" stroke="#666666" points="640.5,-305 523.5,-305 523.5,-286 640.5,-286 640.5,-305"/>
<text text-anchor="middle" x="582" y="-293" font-family="Helvetica,sans-Serif" font-size="10.00">rotating_file_writer.h</text>
</a>
</g>
</g>
<!-- Node2 -->
<g id="Node000002" class="node">
<title>Node2</title>
<g id="a_Node000002"><a xlink:href="file__writer_8h.html" target="_top" xlink:title=" ">
<polygon fill="white" stroke="#666666" points="183,-250 109,-250 109,-231 183,-231 183,-250"/>
<text text-anchor="middle" x="146" y="-238" font-family="Helvetica,sans-Serif" font-size="10.00">file_writer.h</text>
</a>
</g>
</g>
<!-- Node1&#45;&gt;Node2 -->
<g id="edge1_Node000001_Node000002" class="edge">
<title>Node1&#45;&gt;Node2</title>
<g id="a_edge1_Node000001_Node000002"><a xlink:title=" ">
<path fill="none" stroke="#63b8ff" d="M523.2,-287.35C435.89,-276.74 273.66,-257.02 193.44,-247.27"/>
<polygon fill="#63b8ff" stroke="#63b8ff" points="193.49,-243.75 183.14,-246.01 192.65,-250.7 193.49,-243.75"/>
</a>
</g>
</g>
<!-- Node5 -->
<g id="Node000005" class="node">
<title>Node5</title>
<g id="a_Node000005"><a xlink:title=" ">
<polygon fill="#e0e0e0" stroke="#999999" points="488,-74 438,-74 438,-55 488,-55 488,-74"/>
<text text-anchor="middle" x="463" y="-62" font-family="Helvetica,sans-Serif" font-size="10.00">chrono</text>
</a>
</g>
</g>
<!-- Node1&#45;&gt;Node5 -->
<g id="edge26_Node000001_Node000005" class="edge">
<title>Node1&#45;&gt;Node5</title>
<g id="a_edge26_Node000001_Node000005"><a xlink:title=" ">
<path fill="none" stroke="#63b8ff" d="M577.48,-285.8C559.96,-252.08 496.28,-129.54 472.26,-83.31"/>
<polygon fill="#63b8ff" stroke="#63b8ff" points="475.24,-81.47 467.52,-74.21 469.03,-84.69 475.24,-81.47"/>
</a>
</g>
</g>
<!-- Node16 -->
<g id="Node000016" class="node">
<title>Node16</title>
<g id="a_Node000016"><a xlink:title=" ">
<polygon fill="#e0e0e0" stroke="#999999" points="638,-250 582,-250 582,-231 638,-231 638,-250"/>
<text text-anchor="middle" x="610" y="-238" font-family="Helvetica,sans-Serif" font-size="10.00">iomanip</text>
</a>
</g>
</g>
<!-- Node1&#45;&gt;Node16 -->
<g id="edge27_Node000001_Node000016" class="edge">
<title>Node1&#45;&gt;Node16</title>
<g id="a_edge27_Node000001_Node000016"><a xlink:title=" ">
<path fill="none" stroke="#63b8ff" d="M586.62,-285.75C590.46,-278.49 596.02,-267.95 600.76,-258.98"/>
<polygon fill="#63b8ff" stroke="#63b8ff" points="603.89,-260.57 605.46,-250.09 597.7,-257.3 603.89,-260.57"/>
</a>
</g>
</g>
<!-- Node17 -->
<g id="Node000017" class="node">
<title>Node17</title>
<g id="a_Node000017"><a xlink:title=" ">
<polygon fill="#e0e0e0" stroke="#999999" points="712,-250 656,-250 656,-231 712,-231 712,-250"/>
<text text-anchor="middle" x="684" y="-238" font-family="Helvetica,sans-Serif" font-size="10.00">sstream</text>
</a>
</g>
</g>
<!-- Node1&#45;&gt;Node17 -->
<g id="edge28_Node000001_Node000017" class="edge">
<title>Node1&#45;&gt;Node17</title>
<g id="a_edge28_Node000001_Node000017"><a xlink:title=" ">
<path fill="none" stroke="#63b8ff" d="M598.39,-285.98C614.57,-277.57 639.57,-264.59 658.38,-254.81"/>
<polygon fill="#63b8ff" stroke="#63b8ff" points="660.05,-257.89 667.31,-250.17 656.83,-251.68 660.05,-257.89"/>
</a>
</g>
</g>
<!-- Node3 -->
<g id="Node000003" class="node">
<title>Node3</title>
<g id="a_Node000003"><a xlink:href="base__writer_8h.html" target="_top" xlink:title=" ">
<polygon fill="white" stroke="#666666" points="306,-195 224,-195 224,-176 306,-176 306,-195"/>
<text text-anchor="middle" x="265" y="-183" font-family="Helvetica,sans-Serif" font-size="10.00">base_writer.h</text>
</a>
</g>
</g>
<!-- Node2&#45;&gt;Node3 -->
<g id="edge2_Node000002_Node000003" class="edge">
<title>Node2&#45;&gt;Node3</title>
<g id="a_edge2_Node000002_Node000003"><a xlink:title=" ">
<path fill="none" stroke="#63b8ff" d="M165.12,-230.98C184.35,-222.42 214.23,-209.11 236.31,-199.28"/>
<polygon fill="#63b8ff" stroke="#63b8ff" points="237.82,-202.44 245.53,-195.17 234.97,-196.04 237.82,-202.44"/>
</a>
</g>
</g>
<!-- Node7 -->
<g id="Node000007" class="node">
<title>Node7</title>
<g id="a_Node000007"><a xlink:title=" ">
<polygon fill="#e0e0e0" stroke="#999999" points="58,-19 0,-19 0,0 58,0 58,-19"/>
<text text-anchor="middle" x="29" y="-7" font-family="Helvetica,sans-Serif" font-size="10.00">memory</text>
</a>
</g>
</g>
<!-- Node2&#45;&gt;Node7 -->
<g id="edge25_Node000002_Node000007" class="edge">
<title>Node2&#45;&gt;Node7</title>
<g id="a_edge25_Node000002_Node000007"><a xlink:title=" ">
<path fill="none" stroke="#63b8ff" d="M115.36,-230.99C96.63,-224.23 73.71,-212.88 60,-195 21.84,-145.22 23.61,-65.56 26.78,-29.43"/>
<polygon fill="#63b8ff" stroke="#63b8ff" points="30.28,-29.62 27.81,-19.31 23.32,-28.91 30.28,-29.62"/>
</a>
</g>
</g>
<!-- Node8 -->
<g id="Node000008" class="node">
<title>Node8</title>
<g id="a_Node000008"><a xlink:title=" ">
<polygon fill="#e0e0e0" stroke="#999999" points="150,-19 102,-19 102,0 150,0 150,-19"/>
<text text-anchor="middle" x="126" y="-7" font-family="Helvetica,sans-Serif" font-size="10.00">mutex</text>
</a>
</g>
</g>
<!-- Node2&#45;&gt;Node8 -->
<g id="edge23_Node000002_Node000008" class="edge">
<title>Node2&#45;&gt;Node8</title>
<g id="a_edge23_Node000002_Node000008"><a xlink:title=" ">
<path fill="none" stroke="#63b8ff" d="M119.43,-230.94C102.87,-224.06 82.88,-212.6 73,-195 42.53,-140.75 46.71,-111.4 73,-55 78.83,-42.49 90.09,-32.25 100.75,-24.76"/>
<polygon fill="#63b8ff" stroke="#63b8ff" points="102.94,-27.51 109.42,-19.13 99.12,-21.64 102.94,-27.51"/>
</a>
</g>
</g>
<!-- Node14 -->
<g id="Node000014" class="node">
<title>Node14</title>
<g id="a_Node000014"><a xlink:title=" ">
<polygon fill="#e0e0e0" stroke="#999999" points="137.5,-195 82.5,-195 82.5,-176 137.5,-176 137.5,-195"/>
<text text-anchor="middle" x="110" y="-183" font-family="Helvetica,sans-Serif" font-size="10.00">fstream</text>
</a>
</g>
</g>
<!-- Node2&#45;&gt;Node14 -->
<g id="edge22_Node000002_Node000014" class="edge">
<title>Node2&#45;&gt;Node14</title>
<g id="a_edge22_Node000002_Node000014"><a xlink:title=" ">
<path fill="none" stroke="#63b8ff" d="M140.06,-230.75C135.02,-223.34 127.66,-212.5 121.49,-203.41"/>
<polygon fill="#63b8ff" stroke="#63b8ff" points="124.35,-201.39 115.83,-195.09 118.56,-205.33 124.35,-201.39"/>
</a>
</g>
</g>
<!-- Node15 -->
<g id="Node000015" class="node">
<title>Node15</title>
<g id="a_Node000015"><a xlink:title=" ">
<polygon fill="#e0e0e0" stroke="#999999" points="206,-195 156,-195 156,-176 206,-176 206,-195"/>
<text text-anchor="middle" x="181" y="-183" font-family="Helvetica,sans-Serif" font-size="10.00">atomic</text>
</a>
</g>
</g>
<!-- Node2&#45;&gt;Node15 -->
<g id="edge24_Node000002_Node000015" class="edge">
<title>Node2&#45;&gt;Node15</title>
<g id="a_edge24_Node000002_Node000015"><a xlink:title=" ">
<path fill="none" stroke="#63b8ff" d="M151.78,-230.75C156.62,-223.42 163.68,-212.73 169.64,-203.7"/>
<polygon fill="#63b8ff" stroke="#63b8ff" points="172.74,-205.36 175.33,-195.09 166.9,-201.5 172.74,-205.36"/>
</a>
</g>
</g>
<!-- Node4 -->
<g id="Node000004" class="node">
<title>Node4</title>
<g id="a_Node000004"><a xlink:title=" ">
<polygon fill="#e0e0e0" stroke="#999999" points="394,-19 350,-19 350,0 394,0 394,-19"/>
<text text-anchor="middle" x="372" y="-7" font-family="Helvetica,sans-Serif" font-size="10.00">string</text>
</a>
</g>
</g>
<!-- Node3&#45;&gt;Node4 -->
<g id="edge3_Node000003_Node000004" class="edge">
<title>Node3&#45;&gt;Node4</title>
<g id="a_edge3_Node000003_Node000004"><a xlink:title=" ">
<path fill="none" stroke="#63b8ff" d="M306.33,-180.9C361.05,-175.31 453.5,-162.75 478,-140 506.37,-113.66 519.31,-86.63 497,-55 476.18,-25.5 434,-15.44 404.41,-12.08"/>
<polygon fill="#63b8ff" stroke="#63b8ff" points="404.43,-8.56 394.14,-11.12 403.78,-15.53 404.43,-8.56"/>
</a>
</g>
</g>
<!-- Node3&#45;&gt;Node5 -->
<g id="edge4_Node000003_Node000005" class="edge">
<title>Node3&#45;&gt;Node5</title>
<g id="a_edge4_Node000003_Node000005"><a xlink:title=" ">
<path fill="none" stroke="#63b8ff" d="M306,-180.81C356.98,-175.29 439.64,-163 459,-140 471.87,-124.7 470.68,-100.76 467.7,-84.17"/>
<polygon fill="#63b8ff" stroke="#63b8ff" points="471.04,-83.08 465.5,-74.05 464.2,-84.56 471.04,-83.08"/>
</a>
</g>
</g>
<!-- Node6 -->
<g id="Node000006" class="node">
<title>Node6</title>
<g id="a_Node000006"><a xlink:href="logger__interface_8h.html" target="_top" xlink:title=" ">
<polygon fill="white" stroke="#666666" points="196,-74 82,-74 82,-55 196,-55 196,-74"/>
<text text-anchor="middle" x="139" y="-62" font-family="Helvetica,sans-Serif" font-size="10.00">../logger_interface.h</text>
</a>
</g>
</g>
<!-- Node3&#45;&gt;Node6 -->
<g id="edge5_Node000003_Node000006" class="edge">
<title>Node3&#45;&gt;Node6</title>
<g id="a_edge5_Node000003_Node000006"><a xlink:title=" ">
<path fill="none" stroke="#63b8ff" d="M223.74,-177.35C200.61,-171.25 173.06,-160.1 156,-140 142.89,-124.55 139.37,-101.01 138.67,-84.54"/>
<polygon fill="#63b8ff" stroke="#63b8ff" points="142.16,-84.41 138.54,-74.45 135.17,-84.49 142.16,-84.41"/>
</a>
</g>
</g>
<!-- Node9 -->
<g id="Node000009" class="node">
<title>Node9</title>
<g id="a_Node000009"><a xlink:href="error__codes_8h.html" target="_top" xlink:title=" ">
<polygon fill="white" stroke="#666666" points="344,-74 252,-74 252,-55 344,-55 344,-74"/>
<text text-anchor="middle" x="298" y="-62" font-family="Helvetica,sans-Serif" font-size="10.00">../error_codes.h</text>
</a>
</g>
</g>
<!-- Node3&#45;&gt;Node9 -->
<g id="edge9_Node000003_Node000009" class="edge">
<title>Node3&#45;&gt;Node9</title>
<g id="a_edge9_Node000003_Node000009"><a xlink:title=" ">
<path fill="none" stroke="#63b8ff" d="M223.92,-177.26C202.47,-171.17 178.04,-160.08 165,-140 157.74,-128.82 157.21,-120.82 165,-110 182.48,-85.71 213.84,-74.49 241.71,-69.38"/>
<polygon fill="#63b8ff" stroke="#63b8ff" points="242.47,-72.81 251.79,-67.77 241.36,-65.89 242.47,-72.81"/>
</a>
</g>
</g>
<!-- Node12 -->
<g id="Node000012" class="node">
<title>Node12</title>
<g id="a_Node000012"><a xlink:href="log__writer__interface_8h.html" target="_top" xlink:title=" ">
<polygon fill="white" stroke="#666666" points="450,-140 324,-140 324,-110 450,-110 450,-140"/>
<text text-anchor="start" x="332" y="-128" font-family="Helvetica,sans-Serif" font-size="10.00">../interfaces/log_writer</text>
<text text-anchor="middle" x="387" y="-117" font-family="Helvetica,sans-Serif" font-size="10.00">_interface.h</text>
</a>
</g>
</g>
<!-- Node3&#45;&gt;Node12 -->
<g id="edge13_Node000003_Node000012" class="edge">
<title>Node3&#45;&gt;Node12</title>
<g id="a_edge13_Node000003_Node000012"><a xlink:title=" ">
<path fill="none" stroke="#63b8ff" d="M282.74,-175.99C299.86,-167.79 326.34,-155.09 348.32,-144.55"/>
<polygon fill="#63b8ff" stroke="#63b8ff" points="349.93,-147.66 357.43,-140.18 346.9,-141.35 349.93,-147.66"/>
</a>
</g>
</g>
<!-- Node13 -->
<g id="Node000013" class="node">
<title>Node13</title>
<g id="a_Node000013"><a xlink:href="log__entry_8h.html" target="_top" xlink:title=" ">
<polygon fill="white" stroke="#666666" points="305.5,-134.5 174.5,-134.5 174.5,-115.5 305.5,-115.5 305.5,-134.5"/>
<text text-anchor="middle" x="240" y="-122.5" font-family="Helvetica,sans-Serif" font-size="10.00">../interfaces/log_entry.h</text>
</a>
</g>
</g>
<!-- Node3&#45;&gt;Node13 -->
<g id="edge17_Node000003_Node000013" class="edge">
<title>Node3&#45;&gt;Node13</title>
<g id="a_edge17_Node000003_Node000013"><a xlink:title=" ">
<path fill="none" stroke="#63b8ff" d="M261.31,-175.87C257.73,-167.49 252.18,-154.51 247.65,-143.89"/>
<polygon fill="#63b8ff" stroke="#63b8ff" points="250.85,-142.49 243.7,-134.67 244.42,-145.24 250.85,-142.49"/>
</a>
</g>
</g>
<!-- Node6&#45;&gt;Node4 -->
<g id="edge8_Node000006_Node000004" class="edge">
<title>Node6&#45;&gt;Node4</title>
<g id="a_edge8_Node000006_Node000004"><a xlink:title=" ">
<path fill="none" stroke="#63b8ff" d="M176.44,-54.98C221.71,-44.69 297.16,-27.52 339.9,-17.8"/>
<polygon fill="#63b8ff" stroke="#63b8ff" points="340.79,-21.19 349.77,-15.56 339.24,-14.36 340.79,-21.19"/>
</a>
</g>
</g>
<!-- Node6&#45;&gt;Node7 -->
<g id="edge6_Node000006_Node000007" class="edge">
<title>Node6&#45;&gt;Node7</title>
<g id="a_edge6_Node000006_Node000007"><a xlink:title=" ">
<path fill="none" stroke="#63b8ff" d="M121.33,-54.98C103.71,-46.5 76.42,-33.35 56.07,-23.54"/>
<polygon fill="#63b8ff" stroke="#63b8ff" points="57.52,-20.36 46.99,-19.17 54.48,-26.66 57.52,-20.36"/>
</a>
</g>
</g>
<!-- Node6&#45;&gt;Node8 -->
<g id="edge7_Node000006_Node000008" class="edge">
<title>Node6&#45;&gt;Node8</title>
<g id="a_edge7_Node000006_Node000008"><a xlink:title=" ">
<path fill="none" stroke="#63b8ff" d="M136.85,-54.75C135.13,-47.72 132.65,-37.62 130.5,-28.84"/>
<polygon fill="#63b8ff" stroke="#63b8ff" points="133.89,-27.97 128.11,-19.09 127.09,-29.63 133.89,-27.97"/>
</a>
</g>
</g>
<!-- Node9&#45;&gt;Node4 -->
<g id="edge10_Node000009_Node000004" class="edge">
<title>Node9&#45;&gt;Node4</title>
<g id="a_edge10_Node000009_Node000004"><a xlink:title=" ">
<path fill="none" stroke="#63b8ff" d="M309.89,-54.98C321.15,-46.92 338.29,-34.65 351.71,-25.03"/>
<polygon fill="#63b8ff" stroke="#63b8ff" points="353.8,-27.84 359.89,-19.17 349.73,-22.15 353.8,-27.84"/>
</a>
</g>
</g>
<!-- Node10 -->
<g id="Node000010" class="node">
<title>Node10</title>
<g id="a_Node000010"><a xlink:title=" ">
<polygon fill="#e0e0e0" stroke="#999999" points="253,-19 197,-19 197,0 253,0 253,-19"/>
<text text-anchor="middle" x="225" y="-7" font-family="Helvetica,sans-Serif" font-size="10.00">optional</text>
</a>
</g>
</g>
<!-- Node9&#45;&gt;Node10 -->
<g id="edge11_Node000009_Node000010" class="edge">
<title>Node9&#45;&gt;Node10</title>
<g id="a_edge11_Node000009_Node000010"><a xlink:title=" ">
<path fill="none" stroke="#63b8ff" d="M286.27,-54.98C275.27,-47 258.58,-34.88 245.4,-25.31"/>
<polygon fill="#63b8ff" stroke="#63b8ff" points="247.09,-22.21 236.94,-19.17 242.98,-27.88 247.09,-22.21"/>
</a>
</g>
</g>
<!-- Node11 -->
<g id="Node000011" class="node">
<title>Node11</title>
<g id="a_Node000011"><a xlink:title=" ">
<polygon fill="#e0e0e0" stroke="#999999" points="323.5,-19 272.5,-19 272.5,0 323.5,0 323.5,-19"/>
<text text-anchor="middle" x="298" y="-7" font-family="Helvetica,sans-Serif" font-size="10.00">variant</text>
</a>
</g>
</g>
<!-- Node9&#45;&gt;Node11 -->
<g id="edge12_Node000009_Node000011" class="edge">
<title>Node9&#45;&gt;Node11</title>
<g id="a_edge12_Node000009_Node000011"><a xlink:title=" ">
<path fill="none" stroke="#63b8ff" d="M298,-54.75C298,-47.8 298,-37.85 298,-29.13"/>
<polygon fill="#63b8ff" stroke="#63b8ff" points="301.5,-29.09 298,-19.09 294.5,-29.09 301.5,-29.09"/>
</a>
</g>
</g>
<!-- Node12&#45;&gt;Node4 -->
<g id="edge14_Node000012_Node000004" class="edge">
<title>Node12&#45;&gt;Node4</title>
<g id="a_edge14_Node000012_Node000004"><a xlink:title=" ">
<path fill="none" stroke="#63b8ff" d="M387.98,-109.89C388.68,-95.87 389.03,-73.81 386,-55 384.58,-46.2 381.8,-36.75 379.08,-28.83"/>
<polygon fill="#63b8ff" stroke="#63b8ff" points="382.28,-27.37 375.56,-19.18 375.7,-29.78 382.28,-27.37"/>
</a>
</g>
</g>
<!-- Node12&#45;&gt;Node5 -->
<g id="edge15_Node000012_Node000005" class="edge">
<title>Node12&#45;&gt;Node5</title>
<g id="a_edge15_Node000012_Node000005"><a xlink:title=" ">
<path fill="none" stroke="#63b8ff" d="M405.4,-109.84C416.88,-101 431.65,-89.63 443.36,-80.62"/>
<polygon fill="#63b8ff" stroke="#63b8ff" points="445.82,-83.14 451.61,-74.27 441.55,-77.59 445.82,-83.14"/>
</a>
</g>
</g>
<!-- Node12&#45;&gt;Node9 -->
<g id="edge16_Node000012_Node000009" class="edge">
<title>Node12&#45;&gt;Node9</title>
<g id="a_edge16_Node000012_Node000009"><a xlink:title=" ">
<path fill="none" stroke="#63b8ff" d="M365.46,-109.84C351.53,-100.68 333.47,-88.82 319.55,-79.66"/>
<polygon fill="#63b8ff" stroke="#63b8ff" points="321.35,-76.66 311.08,-74.09 317.51,-82.51 321.35,-76.66"/>
</a>
</g>
</g>
<!-- Node13&#45;&gt;Node4 -->
<g id="edge18_Node000013_Node000004" class="edge">
<title>Node13&#45;&gt;Node4</title>
<g id="a_edge18_Node000013_Node000004"><a xlink:title=" ">
<path fill="none" stroke="#63b8ff" d="M279.58,-115.45C303.92,-108.25 333.99,-95.56 353,-74 363.82,-61.73 368.48,-43.5 370.49,-29.71"/>
<polygon fill="#63b8ff" stroke="#63b8ff" points="374.01,-29.74 371.63,-19.41 367.05,-28.97 374.01,-29.74"/>
</a>
</g>
</g>
<!-- Node13&#45;&gt;Node5 -->
<g id="edge19_Node000013_Node000005" class="edge">
<title>Node13&#45;&gt;Node5</title>
<g id="a_edge19_Node000013_Node000005"><a xlink:title=" ">
<path fill="none" stroke="#63b8ff" d="M272.43,-115.49C313.83,-104.63 385.2,-85.91 427.86,-74.72"/>
<polygon fill="#63b8ff" stroke="#63b8ff" points="429.01,-78.03 437.8,-72.11 427.24,-71.26 429.01,-78.03"/>
</a>
</g>
</g>
<!-- Node13&#45;&gt;Node6 -->
<g id="edge21_Node000013_Node000006" class="edge">
<title>Node13&#45;&gt;Node6</title>
<g id="a_edge21_Node000013_Node000006"><a xlink:title=" ">
<path fill="none" stroke="#63b8ff" d="M225.1,-115.37C208.69,-105.86 182.07,-90.45 162.77,-79.27"/>
<polygon fill="#63b8ff" stroke="#63b8ff" points="164.37,-76.15 153.96,-74.17 160.86,-82.21 164.37,-76.15"/>
</a>
</g>
</g>
<!-- Node13&#45;&gt;Node10 -->
<g id="edge20_Node000013_Node000010" class="edge">
<title>Node13&#45;&gt;Node10</title>
<g id="a_edge20_Node000013_Node000010"><a xlink:title=" ">
<path fill="none" stroke="#63b8ff" d="M238.87,-115.47C236.46,-97.23 230.76,-54.07 227.46,-29.14"/>
<polygon fill="#63b8ff" stroke="#63b8ff" points="230.92,-28.59 226.14,-19.13 223.98,-29.5 230.92,-28.59"/>
</a>
</g>
</g>
</g>
</svg>
