<?xml version="1.0" encoding="UTF-8" standalone="no"?>
<!DOCTYPE svg PUBLIC "-//W3C//DTD SVG 1.1//EN"
 "http://www.w3.org/Graphics/SVG/1.1/DTD/svg11.dtd">
<!-- Generated by graphviz version 2.43.0 (0)
 -->
<!-- Title: /home/runner/work/logger_system/logger_system/sources/logger/structured/structured_logger.h Pages: 1 -->
<svg width="831pt" height="115pt"
 viewBox="0.00 0.00 830.50 115.00" xmlns="http://www.w3.org/2000/svg" xmlns:xlink="http://www.w3.org/1999/xlink">
<g id="graph0" class="graph" transform="scale(1 1) rotate(0) translate(4 111)">
<title>/home/runner/work/logger_system/logger_system/sources/logger/structured/structured_logger.h</title>
<!-- Node1 -->
<g id="Node000001" class="node">
<title>Node1</title>
<g id="a_Node000001"><a xlink:title=" ">
<polygon fill="#999999" stroke="#666666" points="533,-107 360,-107 360,-55 533,-55 533,-107"/>
<text text-anchor="start" x="368" y="-95" font-family="Helvetica,sans-Serif" font-size="10.00">/home/runner/work/logger</text>
<text text-anchor="start" x="368" y="-84" font-family="Helvetica,sans-Serif" font-size="10.00">_system/logger_system/sources</text>
<text text-anchor="start" x="368" y="-73" font-family="Helvetica,sans-Serif" font-size="10.00">/logger/structured/structured</text>
<text text-anchor="middle" x="446.5" y="-62" font-family="Helvetica,sans-Serif" font-size="10.00">_logger.h</text>
</a>
</g>
</g>
<!-- Node2 -->
<g id="Node000002" class="node">
<title>Node2</title>
<g id="a_Node000002"><a xlink:title=" ">
<polygon fill="#e0e0e0" stroke="#999999" points="157,-19 0,-19 0,0 157,0 157,-19"/>
<text text-anchor="middle" x="78.5" y="-7" font-family="Helvetica,sans-Serif" font-size="10.00">interfaces/logger_interface.h</text>
</a>
</g>
</g>
<!-- Node1&#45;&gt;Node2 -->
<g id="edge1_Node000001_Node000002" class="edge">
<title>Node1&#45;&gt;Node2</title>
<g id="a_edge1_Node000001_Node000002"><a xlink:title=" ">
<path fill="none" stroke="#63b8ff" d="M359.76,-63.62C289.75,-50.4 193.39,-32.2 133.57,-20.9"/>
<polygon fill="#63b8ff" stroke="#63b8ff" points="134.05,-17.43 123.57,-19.01 132.75,-24.31 134.05,-17.43"/>
</a>
</g>
</g>
<!-- Node3 -->
<g id="Node000003" class="node">
<title>Node3</title>
<g id="a_Node000003"><a xlink:title=" ">
<polygon fill="#e0e0e0" stroke="#999999" points="210,-19 175,-19 175,0 210,0 210,-19"/>
<text text-anchor="middle" x="192.5" y="-7" font-family="Helvetica,sans-Serif" font-size="10.00">any</text>
</a>
</g>
</g>
<!-- Node1&#45;&gt;Node3 -->
<g id="edge2_Node000001_Node000003" class="edge">
<title>Node1&#45;&gt;Node3</title>
<g id="a_edge2_Node000001_Node000003"><a xlink:title=" ">
<path fill="none" stroke="#63b8ff" d="M359.76,-57.61C319.83,-47.09 271.66,-34.08 219.89,-19.02"/>
<polygon fill="#63b8ff" stroke="#63b8ff" points="220.77,-15.63 210.19,-16.19 218.8,-22.35 220.77,-15.63"/>
</a>
</g>
</g>
<!-- Node4 -->
<g id="Node000004" class="node">
<title>Node4</title>
<g id="a_Node000004"><a xlink:title=" ">
<polygon fill="#e0e0e0" stroke="#999999" points="278.5,-19 228.5,-19 228.5,0 278.5,0 278.5,-19"/>
<text text-anchor="middle" x="253.5" y="-7" font-family="Helvetica,sans-Serif" font-size="10.00">chrono</text>
</a>
</g>
</g>
<!-- Node1&#45;&gt;Node4 -->
<g id="edge3_Node000001_Node000004" class="edge">
<title>Node1&#45;&gt;Node4</title>
<g id="a_edge3_Node000001_Node000004"><a xlink:title=" ">
<path fill="none" stroke="#63b8ff" d="M376.82,-54.91C346.27,-43.91 311.81,-31.5 287.1,-22.6"/>
<polygon fill="#63b8ff" stroke="#63b8ff" points="288.07,-19.23 277.48,-19.14 285.7,-25.82 288.07,-19.23"/>
</a>
</g>
</g>
<!-- Node5 -->
<g id="Node000005" class="node">
<title>Node5</title>
<g id="a_Node000005"><a xlink:title=" ">
<polygon fill="#e0e0e0" stroke="#999999" points="354.5,-19 296.5,-19 296.5,0 354.5,0 354.5,-19"/>
<text text-anchor="middle" x="325.5" y="-7" font-family="Helvetica,sans-Serif" font-size="10.00">memory</text>
</a>
</g>
</g>
<!-- Node1&#45;&gt;Node5 -->
<g id="edge4_Node000001_Node000005" class="edge">
<title>Node1&#45;&gt;Node5</title>
<g id="a_edge4_Node000001_Node000005"><a xlink:title=" ">
<path fill="none" stroke="#63b8ff" d="M402.82,-54.91C384.77,-44.54 364.55,-32.93 349.31,-24.18"/>
<polygon fill="#63b8ff" stroke="#63b8ff" points="350.95,-21.08 340.53,-19.14 347.46,-27.15 350.95,-21.08"/>
</a>
</g>
</g>
<!-- Node6 -->
<g id="Node000006" class="node">
<title>Node6</title>
<g id="a_Node000006"><a xlink:title=" ">
<polygon fill="#e0e0e0" stroke="#999999" points="428.5,-19 372.5,-19 372.5,0 428.5,0 428.5,-19"/>
<text text-anchor="middle" x="400.5" y="-7" font-family="Helvetica,sans-Serif" font-size="10.00">sstream</text>
</a>
</g>
</g>
<!-- Node1&#45;&gt;Node6 -->
<g id="edge5_Node000001_Node000006" class="edge">
<title>Node1&#45;&gt;Node6</title>
<g id="a_edge5_Node000001_Node000006"><a xlink:title=" ">
<path fill="none" stroke="#63b8ff" d="M429.89,-54.91C423.91,-45.87 417.3,-35.88 411.87,-27.67"/>
<polygon fill="#63b8ff" stroke="#63b8ff" points="414.76,-25.71 406.33,-19.3 408.93,-29.57 414.76,-25.71"/>
</a>
</g>
</g>
<!-- Node7 -->
<g id="Node000007" class="node">
<title>Node7</title>
<g id="a_Node000007"><a xlink:title=" ">
<polygon fill="#e0e0e0" stroke="#999999" points="540,-19 447,-19 447,0 540,0 540,-19"/>
<text text-anchor="middle" x="493.5" y="-7" font-family="Helvetica,sans-Serif" font-size="10.00">unordered_map</text>
</a>
</g>
</g>
<!-- Node1&#45;&gt;Node7 -->
<g id="edge6_Node000001_Node000007" class="edge">
<title>Node1&#45;&gt;Node7</title>
<g id="a_edge6_Node000001_Node000007"><a xlink:title=" ">
<path fill="none" stroke="#63b8ff" d="M463.47,-54.91C469.58,-45.87 476.34,-35.88 481.89,-27.67"/>
<polygon fill="#63b8ff" stroke="#63b8ff" points="484.84,-29.55 487.55,-19.3 479.05,-25.63 484.84,-29.55"/>
</a>
</g>
</g>
<!-- Node8 -->
<g id="Node000008" class="node">
<title>Node8</title>
<g id="a_Node000008"><a xlink:title=" ">
<polygon fill="#e0e0e0" stroke="#999999" points="614.5,-19 558.5,-19 558.5,0 614.5,0 614.5,-19"/>
<text text-anchor="middle" x="586.5" y="-7" font-family="Helvetica,sans-Serif" font-size="10.00">iomanip</text>
</a>
</g>
</g>
<!-- Node1&#45;&gt;Node8 -->
<g id="edge7_Node000001_Node000008" class="edge">
<title>Node1&#45;&gt;Node8</title>
<g id="a_edge7_Node000001_Node000008"><a xlink:title=" ">
<path fill="none" stroke="#63b8ff" d="M497.04,-54.91C518.32,-44.35 542.21,-32.49 559.94,-23.68"/>
<polygon fill="#63b8ff" stroke="#63b8ff" points="561.7,-26.72 569.1,-19.14 558.59,-20.45 561.7,-26.72"/>
</a>
</g>
</g>
<!-- Node9 -->
<g id="Node000009" class="node">
<title>Node9</title>
<g id="a_Node000009"><a xlink:title=" ">
<polygon fill="#e0e0e0" stroke="#999999" points="680.5,-19 632.5,-19 632.5,0 680.5,0 680.5,-19"/>
<text text-anchor="middle" x="656.5" y="-7" font-family="Helvetica,sans-Serif" font-size="10.00">thread</text>
</a>
</g>
</g>
<!-- Node1&#45;&gt;Node9 -->
<g id="edge8_Node000001_Node000009" class="edge">
<title>Node1&#45;&gt;Node9</title>
<g id="a_edge8_Node000001_Node000009"><a xlink:title=" ">
<path fill="none" stroke="#63b8ff" d="M522.31,-54.91C556.69,-43.53 595.6,-30.65 622.64,-21.71"/>
<polygon fill="#63b8ff" stroke="#63b8ff" points="623.99,-24.95 632.38,-18.48 621.79,-18.3 623.99,-24.95"/>
</a>
</g>
</g>
<!-- Node10 -->
<g id="Node000010" class="node">
<title>Node10</title>
<g id="a_Node000010"><a xlink:title=" ">
<polygon fill="#e0e0e0" stroke="#999999" points="748,-19 699,-19 699,0 748,0 748,-19"/>
<text text-anchor="middle" x="723.5" y="-7" font-family="Helvetica,sans-Serif" font-size="10.00">cstdlib</text>
</a>
</g>
</g>
<!-- Node1&#45;&gt;Node10 -->
<g id="edge9_Node000001_Node000010" class="edge">
<title>Node1&#45;&gt;Node10</title>
<g id="a_edge9_Node000001_Node000010"><a xlink:title=" ">
<path fill="none" stroke="#63b8ff" d="M533.01,-58.3C585.76,-45.06 650.28,-28.87 689.07,-19.14"/>
<polygon fill="#63b8ff" stroke="#63b8ff" points="689.98,-22.52 698.83,-16.69 688.27,-15.73 689.98,-22.52"/>
</a>
</g>
</g>
<!-- Node11 -->
<g id="Node000011" class="node">
<title>Node11</title>
<g id="a_Node000011"><a xlink:title=" ">
<polygon fill="#e0e0e0" stroke="#999999" points="822.5,-19 766.5,-19 766.5,0 822.5,0 822.5,-19"/>
<text text-anchor="middle" x="794.5" y="-7" font-family="Helvetica,sans-Serif" font-size="10.00">unistd.h</text>
</a>
</g>
</g>
<!-- Node1&#45;&gt;Node11 -->
<g id="edge10_Node000001_Node000011" class="edge">
<title>Node1&#45;&gt;Node11</title>
<g id="a_edge10_Node000001_Node000011"><a xlink:title=" ">
<path fill="none" stroke="#63b8ff" d="M533.12,-63.78C593.16,-52.36 675.18,-36.4 756.35,-19.2"/>
<polygon fill="#63b8ff" stroke="#63b8ff" points="757.19,-22.59 766.24,-17.09 755.73,-15.75 757.19,-22.59"/>
</a>
</g>
</g>
</g>
</svg>
