<?xml version="1.0" encoding="UTF-8" standalone="no"?>
<!DOCTYPE svg PUBLIC "-//W3C//DTD SVG 1.1//EN"
 "http://www.w3.org/Graphics/SVG/1.1/DTD/svg11.dtd">
<!-- Generated by graphviz version 2.43.0 (0)
 -->
<!-- Title: logger_module::log_entry Pages: 1 -->
<svg width="210pt" height="115pt"
 viewBox="0.00 0.00 209.50 115.00" xmlns="http://www.w3.org/2000/svg" xmlns:xlink="http://www.w3.org/1999/xlink">
<g id="graph0" class="graph" transform="scale(1 1) rotate(0) translate(4 111)">
<title>logger_module::log_entry</title>
<!-- Node1 -->
<g id="Node000001" class="node">
<title>Node1</title>
<g id="a_Node000001"><a xlink:title="Represents a single log entry.">
<polygon fill="#999999" stroke="#666666" points="140.5,-30 30.5,-30 30.5,0 140.5,0 140.5,-30"/>
<text text-anchor="start" x="38.5" y="-18" font-family="Helvetica,sans-Serif" font-size="10.00">logger_module::log</text>
<text text-anchor="middle" x="85.5" y="-7" font-family="Helvetica,sans-Serif" font-size="10.00">_entry</text>
</a>
</g>
</g>
<!-- Node2 -->
<g id="Node000002" class="node">
<title>Node2</title>
<g id="a_Node000002"><a xlink:title=" ">
<polygon fill="white" stroke="#666666" points="61,-101.5 0,-101.5 0,-82.5 61,-82.5 61,-101.5"/>
<text text-anchor="middle" x="30.5" y="-89.5" font-family="Helvetica,sans-Serif" font-size="10.00">log_level</text>
</a>
</g>
</g>
<!-- Node2&#45;&gt;Node1 -->
<g id="edge1_Node000001_Node000002" class="edge">
<title>Node2&#45;&gt;Node1</title>
<g id="a_edge1_Node000001_Node000002"><a xlink:title=" ">
<path fill="none" stroke="#9a32cd" stroke-dasharray="5,2" d="M42.86,-74.15C52.59,-60.88 65.98,-42.61 75.15,-30.11"/>
<polygon fill="#9a32cd" stroke="#9a32cd" points="39.9,-72.26 36.81,-82.4 45.55,-76.4 39.9,-72.26"/>
</a>
</g>
<text text-anchor="middle" x="75.5" y="-51" font-family="Helvetica,sans-Serif" font-size="10.00" fill="grey"> level</text>
</g>
<!-- Node3 -->
<g id="Node000003" class="node">
<title>Node3</title>
<g id="a_Node000003"><a xlink:href="classlogger__module_1_1small__string.html" target="_top" xlink:title=" ">
<polygon fill="white" stroke="#666666" points="201.5,-107 79.5,-107 79.5,-77 201.5,-77 201.5,-107"/>
<text text-anchor="start" x="87.5" y="-95" font-family="Helvetica,sans-Serif" font-size="10.00">logger_module::small</text>
<text text-anchor="middle" x="140.5" y="-84" font-family="Helvetica,sans-Serif" font-size="10.00">_string&lt; 256 &gt;</text>
</a>
</g>
</g>
<!-- Node3&#45;&gt;Node1 -->
<g id="edge2_Node000001_Node000003" class="edge">
<title>Node3&#45;&gt;Node1</title>
<g id="a_edge2_Node000001_Node000003"><a xlink:title=" ">
<path fill="none" stroke="#9a32cd" stroke-dasharray="5,2" d="M124.17,-68.74C114.98,-56.2 103.78,-40.92 95.8,-30.04"/>
<polygon fill="#9a32cd" stroke="#9a32cd" points="121.42,-70.9 130.15,-76.89 127.06,-66.76 121.42,-70.9"/>
</a>
</g>
<text text-anchor="middle" x="139.5" y="-51" font-family="Helvetica,sans-Serif" font-size="10.00" fill="grey"> message</text>
</g>
</g>
</svg>
