<?xml version="1.0" encoding="UTF-8" standalone="no"?>
<!DOCTYPE svg PUBLIC "-//W3C//DTD SVG 1.1//EN"
 "http://www.w3.org/Graphics/SVG/1.1/DTD/svg11.dtd">
<!-- Generated by graphviz version 2.43.0 (0)
 -->
<!-- Title: logger_module::log_server::network_log_entry Pages: 1 -->
<svg width="275pt" height="270pt"
 viewBox="0.00 0.00 274.50 270.00" xmlns="http://www.w3.org/2000/svg" xmlns:xlink="http://www.w3.org/1999/xlink">
<g id="graph0" class="graph" transform="scale(1 1) rotate(0) translate(4 266)">
<title>logger_module::log_server::network_log_entry</title>
<!-- Node1 -->
<g id="Node000001" class="node">
<title>Node1</title>
<g id="a_Node000001"><a xlink:title="Log entry received from network.">
<polygon fill="#999999" stroke="#666666" points="149,-30 0,-30 0,0 149,0 149,-30"/>
<text text-anchor="start" x="8" y="-18" font-family="Helvetica,sans-Serif" font-size="10.00">logger_module::log</text>
<text text-anchor="middle" x="74.5" y="-7" font-family="Helvetica,sans-Serif" font-size="10.00">_server::network_log_entry</text>
</a>
</g>
</g>
<!-- Node2 -->
<g id="Node000002" class="node">
<title>Node2</title>
<g id="a_Node000002"><a xlink:title=" ">
<polygon fill="white" stroke="#666666" points="107,-195 42,-195 42,-176 107,-176 107,-195"/>
<text text-anchor="middle" x="74.5" y="-183" font-family="Helvetica,sans-Serif" font-size="10.00">std::string</text>
</a>
</g>
</g>
<!-- Node2&#45;&gt;Node1 -->
<g id="edge1_Node000001_Node000002" class="edge">
<title>Node2&#45;&gt;Node1</title>
<g id="a_edge1_Node000001_Node000002"><a xlink:title=" ">
<path fill="none" stroke="#9a32cd" stroke-dasharray="5,2" d="M71.99,-165.69C70.34,-152.39 68.35,-134.14 67.5,-118 66.54,-99.8 66.46,-95.19 67.5,-77 68.43,-60.82 70.72,-42.35 72.43,-30.01"/>
<polygon fill="#9a32cd" stroke="#9a32cd" points="68.56,-166.44 73.31,-175.91 75.5,-165.55 68.56,-166.44"/>
</a>
</g>
<text text-anchor="middle" x="105.5" y="-100.5" font-family="Helvetica,sans-Serif" font-size="10.00" fill="grey"> raw_data</text>
<text text-anchor="middle" x="105.5" y="-89.5" font-family="Helvetica,sans-Serif" font-size="10.00" fill="grey">source_address</text>
</g>
<!-- Node4 -->
<g id="Node000004" class="node">
<title>Node4</title>
<g id="a_Node000004"><a xlink:title=" ">
<polygon fill="white" stroke="#666666" points="266.5,-118 152.5,-118 152.5,-77 266.5,-77 266.5,-118"/>
<text text-anchor="start" x="160.5" y="-106" font-family="Helvetica,sans-Serif" font-size="10.00">std::unordered_map</text>
<text text-anchor="start" x="160.5" y="-95" font-family="Helvetica,sans-Serif" font-size="10.00">&lt; std::string, std::</text>
<text text-anchor="middle" x="209.5" y="-84" font-family="Helvetica,sans-Serif" font-size="10.00">string &gt;</text>
</a>
</g>
</g>
<!-- Node2&#45;&gt;Node4 -->
<g id="edge4_Node000004_Node000002" class="edge">
<title>Node2&#45;&gt;Node4</title>
<g id="a_edge4_Node000004_Node000002"><a xlink:title=" ">
<path fill="none" stroke="#9a32cd" stroke-dasharray="5,2" d="M96.4,-170.55C118.73,-156.32 153.58,-134.12 178.69,-118.13"/>
<polygon fill="#9a32cd" stroke="#9a32cd" points="94.49,-167.61 87.94,-175.94 98.25,-173.52 94.49,-167.61"/>
</a>
</g>
<text text-anchor="middle" x="174" y="-150" font-family="Helvetica,sans-Serif" font-size="10.00" fill="grey"> elements</text>
<text text-anchor="middle" x="174" y="-139" font-family="Helvetica,sans-Serif" font-size="10.00" fill="grey">keys</text>
</g>
<!-- Node3 -->
<g id="Node000003" class="node">
<title>Node3</title>
<g id="a_Node000003"><a xlink:title=" ">
<polygon fill="white" stroke="#666666" points="126.5,-262 22.5,-262 22.5,-232 126.5,-232 126.5,-262"/>
<text text-anchor="start" x="30.5" y="-250" font-family="Helvetica,sans-Serif" font-size="10.00">std::basic_string&lt;</text>
<text text-anchor="middle" x="74.5" y="-239" font-family="Helvetica,sans-Serif" font-size="10.00"> Char &gt;</text>
</a>
</g>
</g>
<!-- Node3&#45;&gt;Node2 -->
<g id="edge2_Node000002_Node000003" class="edge">
<title>Node3&#45;&gt;Node2</title>
<g id="a_edge2_Node000002_Node000003"><a xlink:title=" ">
<path fill="none" stroke="#63b8ff" d="M74.5,-221.79C74.5,-212.36 74.5,-202.15 74.5,-195.16"/>
<polygon fill="#63b8ff" stroke="#63b8ff" points="71,-221.9 74.5,-231.9 78,-221.9 71,-221.9"/>
</a>
</g>
</g>
<!-- Node4&#45;&gt;Node1 -->
<g id="edge3_Node000001_Node000004" class="edge">
<title>Node4&#45;&gt;Node1</title>
<g id="a_edge3_Node000001_Node000004"><a xlink:title=" ">
<path fill="none" stroke="#9a32cd" stroke-dasharray="5,2" d="M167.67,-71.55C144.86,-57.95 117.45,-41.61 98.29,-30.19"/>
<polygon fill="#9a32cd" stroke="#9a32cd" points="166.09,-74.69 176.48,-76.81 169.68,-68.68 166.09,-74.69"/>
</a>
</g>
<text text-anchor="middle" x="179.5" y="-51" font-family="Helvetica,sans-Serif" font-size="10.00" fill="grey"> parsed_fields</text>
</g>
</g>
</svg>
