<?xml version="1.0" encoding="UTF-8" standalone="no"?>
<!DOCTYPE svg PUBLIC "-//W3C//DTD SVG 1.1//EN"
 "http://www.w3.org/Graphics/SVG/1.1/DTD/svg11.dtd">
<!-- Generated by graphviz version 2.43.0 (0)
 -->
<!-- Title: logger_module::logger_config Pages: 1 -->
<svg width="140pt" height="193pt"
 viewBox="0.00 0.00 140.00 193.00" xmlns="http://www.w3.org/2000/svg" xmlns:xlink="http://www.w3.org/1999/xlink">
<g id="graph0" class="graph" transform="scale(1 1) rotate(0) translate(4 189)">
<title>logger_module::logger_config</title>
<!-- Node1 -->
<g id="Node000001" class="node">
<title>Node1</title>
<g id="a_Node000001"><a xlink:title="Configuration structure for logger with validation.">
<polygon fill="#999999" stroke="#666666" points="126,-30 0,-30 0,0 126,0 126,-30"/>
<text text-anchor="start" x="8" y="-18" font-family="Helvetica,sans-Serif" font-size="10.00">logger_module::logger</text>
<text text-anchor="middle" x="63" y="-7" font-family="Helvetica,sans-Serif" font-size="10.00">_config</text>
</a>
</g>
</g>
<!-- Node2 -->
<g id="Node000002" class="node">
<title>Node2</title>
<g id="a_Node000002"><a xlink:title=" ">
<polygon fill="white" stroke="#666666" points="95.5,-118 30.5,-118 30.5,-99 95.5,-99 95.5,-118"/>
<text text-anchor="middle" x="63" y="-106" font-family="Helvetica,sans-Serif" font-size="10.00">std::string</text>
</a>
</g>
</g>
<!-- Node2&#45;&gt;Node1 -->
<g id="edge1_Node000001_Node000002" class="edge">
<title>Node2&#45;&gt;Node1</title>
<g id="a_edge1_Node000001_Node000002"><a xlink:title=" ">
<path fill="none" stroke="#9a32cd" stroke-dasharray="5,2" d="M63,-88.67C63,-71.32 63,-45.96 63,-30.25"/>
<polygon fill="#9a32cd" stroke="#9a32cd" points="59.5,-88.73 63,-98.73 66.5,-88.73 59.5,-88.73"/>
</a>
</g>
<text text-anchor="middle" x="97.5" y="-73" font-family="Helvetica,sans-Serif" font-size="10.00" fill="grey"> log_directory</text>
<text text-anchor="middle" x="97.5" y="-62" font-family="Helvetica,sans-Serif" font-size="10.00" fill="grey">log_file_prefix</text>
<text text-anchor="middle" x="97.5" y="-51" font-family="Helvetica,sans-Serif" font-size="10.00" fill="grey">remote_host</text>
</g>
<!-- Node3 -->
<g id="Node000003" class="node">
<title>Node3</title>
<g id="a_Node000003"><a xlink:title=" ">
<polygon fill="white" stroke="#666666" points="115,-185 11,-185 11,-155 115,-155 115,-185"/>
<text text-anchor="start" x="19" y="-173" font-family="Helvetica,sans-Serif" font-size="10.00">std::basic_string&lt;</text>
<text text-anchor="middle" x="63" y="-162" font-family="Helvetica,sans-Serif" font-size="10.00"> Char &gt;</text>
</a>
</g>
</g>
<!-- Node3&#45;&gt;Node2 -->
<g id="edge2_Node000002_Node000003" class="edge">
<title>Node3&#45;&gt;Node2</title>
<g id="a_edge2_Node000002_Node000003"><a xlink:title=" ">
<path fill="none" stroke="#63b8ff" d="M63,-144.79C63,-135.36 63,-125.15 63,-118.16"/>
<polygon fill="#63b8ff" stroke="#63b8ff" points="59.5,-144.9 63,-154.9 66.5,-144.9 59.5,-144.9"/>
</a>
</g>
</g>
</g>
</svg>
