<?xml version="1.0" encoding="UTF-8" standalone="no"?>
<!DOCTYPE svg PUBLIC "-//W3C//DTD SVG 1.1//EN"
 "http://www.w3.org/Graphics/SVG/1.1/DTD/svg11.dtd">
<!-- Generated by graphviz version 2.43.0 (0)
 -->
<!-- Title: logger_module::performance_metrics Pages: 1 -->
<svg width="1001pt" height="257pt"
 viewBox="0.00 0.00 1001.00 256.50" xmlns="http://www.w3.org/2000/svg" xmlns:xlink="http://www.w3.org/1999/xlink">
<g id="graph0" class="graph" transform="scale(1 1) rotate(0) translate(4 252.5)">
<title>logger_module::performance_metrics</title>
<!-- Node1 -->
<g id="Node000001" class="node">
<title>Node1</title>
<g id="a_Node000001"><a xlink:title="Comprehensive performance metrics for the logger.">
<polygon fill="#999999" stroke="#666666" points="993,-85.5 835,-85.5 835,-55.5 993,-55.5 993,-85.5"/>
<text text-anchor="start" x="843" y="-73.5" font-family="Helvetica,sans-Serif" font-size="10.00">logger_module::performance</text>
<text text-anchor="middle" x="914" y="-62.5" font-family="Helvetica,sans-Serif" font-size="10.00">_metrics</text>
</a>
</g>
</g>
<!-- Node2 -->
<g id="Node000002" class="node">
<title>Node2</title>
<g id="a_Node000002"><a xlink:title=" ">
<polygon fill="white" stroke="#666666" points="134,-139 0,-139 0,-120 134,-120 134,-139"/>
<text text-anchor="middle" x="67" y="-127" font-family="Helvetica,sans-Serif" font-size="10.00">std::atomic&lt; uint64_t &gt;</text>
</a>
</g>
</g>
<!-- Node2&#45;&gt;Node1 -->
<g id="edge1_Node000001_Node000002" class="edge">
<title>Node2&#45;&gt;Node1</title>
<g id="a_edge1_Node000001_Node000002"><a xlink:title=" ">
<path fill="none" stroke="#9a32cd" stroke-dasharray="5,2" d="M100.6,-142.59C115.93,-148.06 134.62,-153.78 152,-156.5 194.59,-163.18 205.92,-158.07 249,-156.5 444.5,-149.38 493.89,-148.81 688,-124.5 745.79,-117.26 760.49,-115.59 817,-101.5 834.67,-97.09 853.83,-91.15 870.35,-85.65"/>
<polygon fill="#9a32cd" stroke="#9a32cd" points="101.65,-139.25 91.06,-139.06 99.23,-145.81 101.65,-139.25"/>
</a>
</g>
<text text-anchor="middle" x="466.5" y="-240.5" font-family="Helvetica,sans-Serif" font-size="10.00" fill="grey"> bytes_enqueued</text>
<text text-anchor="middle" x="466.5" y="-229.5" font-family="Helvetica,sans-Serif" font-size="10.00" fill="grey">bytes_processed</text>
<text text-anchor="start" x="409" y="-218.5" font-family="Helvetica,sans-Serif" font-size="10.00" fill="grey">max_enqueue_time</text>
<text text-anchor="middle" x="466.5" y="-207.5" font-family="Helvetica,sans-Serif" font-size="10.00" fill="grey">_ns</text>
<text text-anchor="middle" x="466.5" y="-196.5" font-family="Helvetica,sans-Serif" font-size="10.00" fill="grey">messages_dropped</text>
<text text-anchor="middle" x="466.5" y="-185.5" font-family="Helvetica,sans-Serif" font-size="10.00" fill="grey">messages_enqueued</text>
<text text-anchor="middle" x="466.5" y="-174.5" font-family="Helvetica,sans-Serif" font-size="10.00" fill="grey">messages_processed</text>
<text text-anchor="middle" x="466.5" y="-163.5" font-family="Helvetica,sans-Serif" font-size="10.00" fill="grey">min_enqueue_time_ns</text>
<text text-anchor="middle" x="466.5" y="-152.5" font-family="Helvetica,sans-Serif" font-size="10.00" fill="grey">total_enqueue_time_ns</text>
</g>
<!-- Node8 -->
<g id="Node000008" class="node">
<title>Node8</title>
<g id="a_Node000008"><a xlink:href="structlogger__module_1_1writer__metrics.html" target="_top" xlink:title="Performance metrics for a specific log writer.">
<polygon fill="white" stroke="#666666" points="391,-109.5 267,-109.5 267,-79.5 391,-79.5 391,-109.5"/>
<text text-anchor="start" x="275" y="-97.5" font-family="Helvetica,sans-Serif" font-size="10.00">logger_module::writer</text>
<text text-anchor="middle" x="329" y="-86.5" font-family="Helvetica,sans-Serif" font-size="10.00">_metrics</text>
</a>
</g>
</g>
<!-- Node2&#45;&gt;Node8 -->
<g id="edge8_Node000008_Node000002" class="edge">
<title>Node2&#45;&gt;Node8</title>
<g id="a_edge8_Node000008_Node000002"><a xlink:title=" ">
<path fill="none" stroke="#9a32cd" stroke-dasharray="5,2" d="M92.2,-114.82C108.47,-105.84 130.74,-95.2 152,-90.5 189.45,-82.23 232.48,-83.03 266.62,-85.99"/>
<polygon fill="#9a32cd" stroke="#9a32cd" points="90.32,-111.86 83.37,-119.86 93.79,-117.94 90.32,-111.86"/>
</a>
</g>
<text text-anchor="middle" x="200.5" y="-148.5" font-family="Helvetica,sans-Serif" font-size="10.00" fill="grey"> bytes_written</text>
<text text-anchor="middle" x="200.5" y="-137.5" font-family="Helvetica,sans-Serif" font-size="10.00" fill="grey">max_write_time_us</text>
<text text-anchor="middle" x="200.5" y="-126.5" font-family="Helvetica,sans-Serif" font-size="10.00" fill="grey">messages_written</text>
<text text-anchor="middle" x="200.5" y="-115.5" font-family="Helvetica,sans-Serif" font-size="10.00" fill="grey">min_write_time_us</text>
<text text-anchor="middle" x="200.5" y="-104.5" font-family="Helvetica,sans-Serif" font-size="10.00" fill="grey">total_write_time_us</text>
<text text-anchor="middle" x="200.5" y="-93.5" font-family="Helvetica,sans-Serif" font-size="10.00" fill="grey">write_failures</text>
</g>
<!-- Node3 -->
<g id="Node000003" class="node">
<title>Node3</title>
<g id="a_Node000003"><a xlink:title=" ">
<polygon fill="white" stroke="#666666" points="676,-56 554,-56 554,-37 676,-37 676,-56"/>
<text text-anchor="middle" x="615" y="-44" font-family="Helvetica,sans-Serif" font-size="10.00">std::atomic&lt; size_t &gt;</text>
</a>
</g>
</g>
<!-- Node3&#45;&gt;Node1 -->
<g id="edge2_Node000001_Node000003" class="edge">
<title>Node3&#45;&gt;Node1</title>
<g id="a_edge2_Node000001_Node000003"><a xlink:title=" ">
<path fill="none" stroke="#9a32cd" stroke-dasharray="5,2" d="M686.13,-44.11C724.85,-43.66 773.72,-44.49 817,-49.5 828.78,-50.86 841.24,-53.03 853.14,-55.47"/>
<polygon fill="#9a32cd" stroke="#9a32cd" points="685.96,-40.62 676.01,-44.27 686.06,-47.62 685.96,-40.62"/>
</a>
</g>
<text text-anchor="middle" x="761.5" y="-63.5" font-family="Helvetica,sans-Serif" font-size="10.00" fill="grey"> current_queue_size</text>
<text text-anchor="middle" x="761.5" y="-52.5" font-family="Helvetica,sans-Serif" font-size="10.00" fill="grey">max_queue_size</text>
</g>
<!-- Node4 -->
<g id="Node000004" class="node">
<title>Node4</title>
<g id="a_Node000004"><a xlink:title=" ">
<polygon fill="white" stroke="#666666" points="649.5,-19 580.5,-19 580.5,0 649.5,0 649.5,-19"/>
<text text-anchor="middle" x="615" y="-7" font-family="Helvetica,sans-Serif" font-size="10.00">std::mutex</text>
</a>
</g>
</g>
<!-- Node4&#45;&gt;Node1 -->
<g id="edge3_Node000001_Node000004" class="edge">
<title>Node4&#45;&gt;Node1</title>
<g id="a_edge3_Node000001_Node000004"><a xlink:title=" ">
<path fill="none" stroke="#9a32cd" stroke-dasharray="5,2" d="M659.88,-9.66C701.06,-10.74 764.09,-14.8 817,-28.5 840.78,-34.66 866.17,-46 884.87,-55.35"/>
<polygon fill="#9a32cd" stroke="#9a32cd" points="659.71,-6.16 649.64,-9.44 659.56,-13.15 659.71,-6.16"/>
</a>
</g>
<text text-anchor="middle" x="761.5" y="-31.5" font-family="Helvetica,sans-Serif" font-size="10.00" fill="grey"> writer_metrics_mutex</text>
</g>
<!-- Node5 -->
<g id="Node000005" class="node">
<title>Node5</title>
<g id="a_Node000005"><a xlink:title=" ">
<polygon fill="white" stroke="#666666" points="688,-115 542,-115 542,-74 688,-74 688,-115"/>
<text text-anchor="start" x="550" y="-103" font-family="Helvetica,sans-Serif" font-size="10.00">std::unordered_map</text>
<text text-anchor="start" x="550" y="-92" font-family="Helvetica,sans-Serif" font-size="10.00">&lt; std::string, logger</text>
<text text-anchor="middle" x="615" y="-81" font-family="Helvetica,sans-Serif" font-size="10.00">_module::writer_metrics &gt;</text>
</a>
</g>
</g>
<!-- Node5&#45;&gt;Node1 -->
<g id="edge4_Node000001_Node000005" class="edge">
<title>Node5&#45;&gt;Node1</title>
<g id="a_edge4_Node000001_Node000005"><a xlink:title=" ">
<path fill="none" stroke="#9a32cd" stroke-dasharray="5,2" d="M698.35,-87.85C741.04,-84.4 792.88,-80.21 834.93,-76.81"/>
<polygon fill="#9a32cd" stroke="#9a32cd" points="697.96,-84.37 688.27,-88.66 698.52,-91.34 697.96,-84.37"/>
</a>
</g>
<text text-anchor="middle" x="761.5" y="-89.5" font-family="Helvetica,sans-Serif" font-size="10.00" fill="grey"> writer_stats</text>
</g>
<!-- Node6 -->
<g id="Node000006" class="node">
<title>Node6</title>
<g id="a_Node000006"><a xlink:title=" ">
<polygon fill="white" stroke="#666666" points="361.5,-61 296.5,-61 296.5,-42 361.5,-42 361.5,-61"/>
<text text-anchor="middle" x="329" y="-49" font-family="Helvetica,sans-Serif" font-size="10.00">std::string</text>
</a>
</g>
</g>
<!-- Node6&#45;&gt;Node5 -->
<g id="edge5_Node000005_Node000006" class="edge">
<title>Node6&#45;&gt;Node5</title>
<g id="a_edge5_Node000005_Node000006"><a xlink:title=" ">
<path fill="none" stroke="#9a32cd" stroke-dasharray="5,2" d="M371.63,-57.24C410.94,-62.72 471.53,-71.34 524,-79.5 529.79,-80.4 535.79,-81.35 541.81,-82.33"/>
<polygon fill="#9a32cd" stroke="#9a32cd" points="372,-53.76 361.62,-55.85 371.04,-60.69 372,-53.76"/>
</a>
</g>
<text text-anchor="middle" x="466.5" y="-82.5" font-family="Helvetica,sans-Serif" font-size="10.00" fill="grey"> keys</text>
</g>
<!-- Node7 -->
<g id="Node000007" class="node">
<title>Node7</title>
<g id="a_Node000007"><a xlink:title=" ">
<polygon fill="white" stroke="#666666" points="119,-66.5 15,-66.5 15,-36.5 119,-36.5 119,-66.5"/>
<text text-anchor="start" x="23" y="-54.5" font-family="Helvetica,sans-Serif" font-size="10.00">std::basic_string&lt;</text>
<text text-anchor="middle" x="67" y="-43.5" font-family="Helvetica,sans-Serif" font-size="10.00"> Char &gt;</text>
</a>
</g>
</g>
<!-- Node7&#45;&gt;Node6 -->
<g id="edge6_Node000006_Node000007" class="edge">
<title>Node7&#45;&gt;Node6</title>
<g id="a_edge6_Node000006_Node000007"><a xlink:title=" ">
<path fill="none" stroke="#63b8ff" d="M129.24,-51.5C181.62,-51.5 254.91,-51.5 296.29,-51.5"/>
<polygon fill="#63b8ff" stroke="#63b8ff" points="129.06,-48 119.06,-51.5 129.06,-55 129.06,-48"/>
</a>
</g>
</g>
<!-- Node8&#45;&gt;Node5 -->
<g id="edge7_Node000005_Node000008" class="edge">
<title>Node8&#45;&gt;Node5</title>
<g id="a_edge7_Node000005_Node000008"><a xlink:title=" ">
<path fill="none" stroke="#9a32cd" stroke-dasharray="5,2" d="M401.36,-94.5C444.27,-94.5 498.72,-94.5 541.79,-94.5"/>
<polygon fill="#9a32cd" stroke="#9a32cd" points="401.27,-91 391.27,-94.5 401.27,-98 401.27,-91"/>
</a>
</g>
<text text-anchor="middle" x="466.5" y="-97.5" font-family="Helvetica,sans-Serif" font-size="10.00" fill="grey"> elements</text>
</g>
</g>
</svg>
