<?xml version="1.0" encoding="UTF-8" standalone="no"?>
<!DOCTYPE svg PUBLIC "-//W3C//DTD SVG 1.1//EN"
 "http://www.w3.org/Graphics/SVG/1.1/DTD/svg11.dtd">
<!-- Generated by graphviz version 2.43.0 (0)
 -->
<!-- Title: logger_module::source_location Pages: 1 -->
<svg width="270pt" height="115pt"
 viewBox="0.00 0.00 270.00 115.00" xmlns="http://www.w3.org/2000/svg" xmlns:xlink="http://www.w3.org/1999/xlink">
<g id="graph0" class="graph" transform="scale(1 1) rotate(0) translate(4 111)">
<title>logger_module::source_location</title>
<!-- Node1 -->
<g id="Node000001" class="node">
<title>Node1</title>
<g id="a_Node000001"><a xlink:title="Source code location information for debugging.">
<polygon fill="#999999" stroke="#666666" points="195,-30 67,-30 67,0 195,0 195,-30"/>
<text text-anchor="start" x="75" y="-18" font-family="Helvetica,sans-Serif" font-size="10.00">logger_module::source</text>
<text text-anchor="middle" x="131" y="-7" font-family="Helvetica,sans-Serif" font-size="10.00">_location</text>
</a>
</g>
</g>
<!-- Node2 -->
<g id="Node000002" class="node">
<title>Node2</title>
<g id="a_Node000002"><a xlink:href="classlogger__module_1_1small__string.html" target="_top" xlink:title=" ">
<polygon fill="white" stroke="#666666" points="122,-107 0,-107 0,-77 122,-77 122,-107"/>
<text text-anchor="start" x="8" y="-95" font-family="Helvetica,sans-Serif" font-size="10.00">logger_module::small</text>
<text text-anchor="middle" x="61" y="-84" font-family="Helvetica,sans-Serif" font-size="10.00">_string&lt; 256 &gt;</text>
</a>
</g>
</g>
<!-- Node2&#45;&gt;Node1 -->
<g id="edge1_Node000001_Node000002" class="edge">
<title>Node2&#45;&gt;Node1</title>
<g id="a_edge1_Node000001_Node000002"><a xlink:title=" ">
<path fill="none" stroke="#9a32cd" stroke-dasharray="5,2" d="M81.11,-69.46C92.93,-56.79 107.54,-41.13 117.89,-30.04"/>
<polygon fill="#9a32cd" stroke="#9a32cd" points="78.43,-67.19 74.17,-76.89 83.55,-71.97 78.43,-67.19"/>
</a>
</g>
<text text-anchor="middle" x="110.5" y="-51" font-family="Helvetica,sans-Serif" font-size="10.00" fill="grey"> file</text>
</g>
<!-- Node3 -->
<g id="Node000003" class="node">
<title>Node3</title>
<g id="a_Node000003"><a xlink:href="classlogger__module_1_1small__string.html" target="_top" xlink:title=" ">
<polygon fill="white" stroke="#666666" points="262,-107 140,-107 140,-77 262,-77 262,-107"/>
<text text-anchor="start" x="148" y="-95" font-family="Helvetica,sans-Serif" font-size="10.00">logger_module::small</text>
<text text-anchor="middle" x="201" y="-84" font-family="Helvetica,sans-Serif" font-size="10.00">_string&lt; 128 &gt;</text>
</a>
</g>
</g>
<!-- Node3&#45;&gt;Node1 -->
<g id="edge2_Node000001_Node000003" class="edge">
<title>Node3&#45;&gt;Node1</title>
<g id="a_edge2_Node000001_Node000003"><a xlink:title=" ">
<path fill="none" stroke="#9a32cd" stroke-dasharray="5,2" d="M180.89,-69.46C169.07,-56.79 154.46,-41.13 144.11,-30.04"/>
<polygon fill="#9a32cd" stroke="#9a32cd" points="178.45,-71.97 187.83,-76.89 183.57,-67.19 178.45,-71.97"/>
</a>
</g>
<text text-anchor="middle" x="191.5" y="-51" font-family="Helvetica,sans-Serif" font-size="10.00" fill="grey"> function</text>
</g>
</g>
</svg>
