<?xml version="1.0" encoding="UTF-8" standalone="no"?>
<!DOCTYPE svg PUBLIC "-//W3C//DTD SVG 1.1//EN"
 "http://www.w3.org/Graphics/SVG/1.1/DTD/svg11.dtd">
<!-- Generated by graphviz version 2.43.0 (0)
 -->
<!-- Title: logger_module::metric_value Pages: 1 -->
<svg width="219pt" height="270pt"
 viewBox="0.00 0.00 218.50 270.00" xmlns="http://www.w3.org/2000/svg" xmlns:xlink="http://www.w3.org/1999/xlink">
<g id="graph0" class="graph" transform="scale(1 1) rotate(0) translate(4 266)">
<title>logger_module::metric_value</title>
<!-- Node1 -->
<g id="Node000001" class="node">
<title>Node1</title>
<g id="a_Node000001"><a xlink:title="Single metric value with metadata.">
<polygon fill="#999999" stroke="#666666" points="127,-30 0,-30 0,0 127,0 127,-30"/>
<text text-anchor="start" x="8" y="-18" font-family="Helvetica,sans-Serif" font-size="10.00">logger_module::metric</text>
<text text-anchor="middle" x="63.5" y="-7" font-family="Helvetica,sans-Serif" font-size="10.00">_value</text>
</a>
</g>
</g>
<!-- Node2 -->
<g id="Node000002" class="node">
<title>Node2</title>
<g id="a_Node000002"><a xlink:title=" ">
<polygon fill="white" stroke="#666666" points="96,-195 31,-195 31,-176 96,-176 96,-195"/>
<text text-anchor="middle" x="63.5" y="-183" font-family="Helvetica,sans-Serif" font-size="10.00">std::string</text>
</a>
</g>
</g>
<!-- Node2&#45;&gt;Node1 -->
<g id="edge1_Node000001_Node000002" class="edge">
<title>Node2&#45;&gt;Node1</title>
<g id="a_edge1_Node000001_Node000002"><a xlink:title=" ">
<path fill="none" stroke="#9a32cd" stroke-dasharray="5,2" d="M60.99,-165.69C59.34,-152.39 57.35,-134.14 56.5,-118 55.54,-99.8 55.46,-95.19 56.5,-77 57.43,-60.82 59.72,-42.35 61.43,-30.01"/>
<polygon fill="#9a32cd" stroke="#9a32cd" points="57.56,-166.44 62.31,-175.91 64.5,-165.55 57.56,-166.44"/>
</a>
</g>
<text text-anchor="middle" x="72" y="-95" font-family="Helvetica,sans-Serif" font-size="10.00" fill="grey"> name</text>
</g>
<!-- Node4 -->
<g id="Node000004" class="node">
<title>Node4</title>
<g id="a_Node000004"><a xlink:title=" ">
<polygon fill="white" stroke="#666666" points="210.5,-118 96.5,-118 96.5,-77 210.5,-77 210.5,-118"/>
<text text-anchor="start" x="104.5" y="-106" font-family="Helvetica,sans-Serif" font-size="10.00">std::unordered_map</text>
<text text-anchor="start" x="104.5" y="-95" font-family="Helvetica,sans-Serif" font-size="10.00">&lt; std::string, std::</text>
<text text-anchor="middle" x="153.5" y="-84" font-family="Helvetica,sans-Serif" font-size="10.00">string &gt;</text>
</a>
</g>
</g>
<!-- Node2&#45;&gt;Node4 -->
<g id="edge4_Node000004_Node000002" class="edge">
<title>Node2&#45;&gt;Node4</title>
<g id="a_edge4_Node000004_Node000002"><a xlink:title=" ">
<path fill="none" stroke="#9a32cd" stroke-dasharray="5,2" d="M79.9,-168.83C94.75,-154.63 116.71,-133.65 132.78,-118.3"/>
<polygon fill="#9a32cd" stroke="#9a32cd" points="77.27,-166.5 72.46,-175.94 82.11,-171.56 77.27,-166.5"/>
</a>
</g>
<text text-anchor="middle" x="138" y="-150" font-family="Helvetica,sans-Serif" font-size="10.00" fill="grey"> elements</text>
<text text-anchor="middle" x="138" y="-139" font-family="Helvetica,sans-Serif" font-size="10.00" fill="grey">keys</text>
</g>
<!-- Node3 -->
<g id="Node000003" class="node">
<title>Node3</title>
<g id="a_Node000003"><a xlink:title=" ">
<polygon fill="white" stroke="#666666" points="115.5,-262 11.5,-262 11.5,-232 115.5,-232 115.5,-262"/>
<text text-anchor="start" x="19.5" y="-250" font-family="Helvetica,sans-Serif" font-size="10.00">std::basic_string&lt;</text>
<text text-anchor="middle" x="63.5" y="-239" font-family="Helvetica,sans-Serif" font-size="10.00"> Char &gt;</text>
</a>
</g>
</g>
<!-- Node3&#45;&gt;Node2 -->
<g id="edge2_Node000002_Node000003" class="edge">
<title>Node3&#45;&gt;Node2</title>
<g id="a_edge2_Node000002_Node000003"><a xlink:title=" ">
<path fill="none" stroke="#63b8ff" d="M63.5,-221.79C63.5,-212.36 63.5,-202.15 63.5,-195.16"/>
<polygon fill="#63b8ff" stroke="#63b8ff" points="60,-221.9 63.5,-231.9 67,-221.9 60,-221.9"/>
</a>
</g>
</g>
<!-- Node4&#45;&gt;Node1 -->
<g id="edge3_Node000001_Node000004" class="edge">
<title>Node4&#45;&gt;Node1</title>
<g id="a_edge3_Node000001_Node000004"><a xlink:title=" ">
<path fill="none" stroke="#9a32cd" stroke-dasharray="5,2" d="M123.76,-69.9C108.91,-56.61 91.54,-41.08 79.28,-30.12"/>
<polygon fill="#9a32cd" stroke="#9a32cd" points="121.47,-72.54 131.25,-76.6 126.13,-67.33 121.47,-72.54"/>
</a>
</g>
<text text-anchor="middle" x="127" y="-51" font-family="Helvetica,sans-Serif" font-size="10.00" fill="grey"> labels</text>
</g>
</g>
</svg>
