<?xml version="1.0" encoding="UTF-8" standalone="no"?>
<!DOCTYPE svg PUBLIC "-//W3C//DTD SVG 1.1//EN"
 "http://www.w3.org/Graphics/SVG/1.1/DTD/svg11.dtd">
<!-- Generated by graphviz version 2.43.0 (0)
 -->
<!-- Title: logger_module::v1_compat::logger_config_v1 Pages: 1 -->
<svg width="183pt" height="171pt"
 viewBox="0.00 0.00 182.50 171.00" xmlns="http://www.w3.org/2000/svg" xmlns:xlink="http://www.w3.org/1999/xlink">
<g id="graph0" class="graph" transform="scale(1 1) rotate(0) translate(4 167)">
<title>logger_module::v1_compat::logger_config_v1</title>
<!-- Node1 -->
<g id="Node000001" class="node">
<title>Node1</title>
<g id="a_Node000001"><a xlink:title="Legacy logger configuration structure.">
<polygon fill="#999999" stroke="#666666" points="149,-30 0,-30 0,0 149,0 149,-30"/>
<text text-anchor="start" x="8" y="-18" font-family="Helvetica,sans-Serif" font-size="10.00">logger_module::v1_compat</text>
<text text-anchor="middle" x="74.5" y="-7" font-family="Helvetica,sans-Serif" font-size="10.00">::logger_config_v1</text>
</a>
</g>
</g>
<!-- Node2 -->
<g id="Node000002" class="node">
<title>Node2</title>
<g id="a_Node000002"><a xlink:title=" ">
<polygon fill="white" stroke="#666666" points="72,-96 11,-96 11,-77 72,-77 72,-96"/>
<text text-anchor="middle" x="41.5" y="-84" font-family="Helvetica,sans-Serif" font-size="10.00">log_level</text>
</a>
</g>
</g>
<!-- Node2&#45;&gt;Node1 -->
<g id="edge1_Node000001_Node000002" class="edge">
<title>Node2&#45;&gt;Node1</title>
<g id="a_edge1_Node000001_Node000002"><a xlink:title=" ">
<path fill="none" stroke="#9a32cd" stroke-dasharray="5,2" d="M48.89,-67.31C51.5,-61.13 54.53,-54.22 57.5,-48 60.32,-42.1 63.66,-35.71 66.62,-30.2"/>
<polygon fill="#9a32cd" stroke="#9a32cd" points="45.57,-66.19 44.98,-76.77 52.04,-68.87 45.57,-66.19"/>
</a>
</g>
<text text-anchor="middle" x="71.5" y="-51" font-family="Helvetica,sans-Serif" font-size="10.00" fill="grey"> level</text>
</g>
<!-- Node3 -->
<g id="Node000003" class="node">
<title>Node3</title>
<g id="a_Node000003"><a xlink:title=" ">
<polygon fill="white" stroke="#666666" points="155,-96 90,-96 90,-77 155,-77 155,-96"/>
<text text-anchor="middle" x="122.5" y="-84" font-family="Helvetica,sans-Serif" font-size="10.00">std::string</text>
</a>
</g>
</g>
<!-- Node3&#45;&gt;Node1 -->
<g id="edge2_Node000001_Node000003" class="edge">
<title>Node3&#45;&gt;Node1</title>
<g id="a_edge2_Node000001_Node000003"><a xlink:title=" ">
<path fill="none" stroke="#9a32cd" stroke-dasharray="5,2" d="M110.75,-68.49C102.62,-56.71 91.93,-41.23 84.26,-30.14"/>
<polygon fill="#9a32cd" stroke="#9a32cd" points="108.05,-70.74 116.61,-76.98 113.81,-66.76 108.05,-70.74"/>
</a>
</g>
<text text-anchor="middle" x="122" y="-51" font-family="Helvetica,sans-Serif" font-size="10.00" fill="grey"> pattern</text>
</g>
<!-- Node4 -->
<g id="Node000004" class="node">
<title>Node4</title>
<g id="a_Node000004"><a xlink:title=" ">
<polygon fill="white" stroke="#666666" points="174.5,-163 70.5,-163 70.5,-133 174.5,-133 174.5,-163"/>
<text text-anchor="start" x="78.5" y="-151" font-family="Helvetica,sans-Serif" font-size="10.00">std::basic_string&lt;</text>
<text text-anchor="middle" x="122.5" y="-140" font-family="Helvetica,sans-Serif" font-size="10.00"> Char &gt;</text>
</a>
</g>
</g>
<!-- Node4&#45;&gt;Node3 -->
<g id="edge3_Node000003_Node000004" class="edge">
<title>Node4&#45;&gt;Node3</title>
<g id="a_edge3_Node000003_Node000004"><a xlink:title=" ">
<path fill="none" stroke="#63b8ff" d="M122.5,-122.79C122.5,-113.36 122.5,-103.15 122.5,-96.16"/>
<polygon fill="#63b8ff" stroke="#63b8ff" points="119,-122.9 122.5,-132.9 126,-122.9 119,-122.9"/>
</a>
</g>
</g>
</g>
</svg>
