<?xml version="1.0" encoding="UTF-8" standalone="no"?>
<!DOCTYPE svg PUBLIC "-//W3C//DTD SVG 1.1//EN"
 "http://www.w3.org/Graphics/SVG/1.1/DTD/svg11.dtd">
<!-- Generated by graphviz version 2.43.0 (0)
 -->
<!-- Title: logger_module::log_route Pages: 1 -->
<svg width="298pt" height="259pt"
 viewBox="0.00 0.00 297.50 259.00" xmlns="http://www.w3.org/2000/svg" xmlns:xlink="http://www.w3.org/1999/xlink">
<g id="graph0" class="graph" transform="scale(1 1) rotate(0) translate(4 255)">
<title>logger_module::log_route</title>
<!-- Node1 -->
<g id="Node000001" class="node">
<title>Node1</title>
<g id="a_Node000001"><a xlink:title="Represents a routing rule.">
<polygon fill="#999999" stroke="#666666" points="196.5,-30 86.5,-30 86.5,0 196.5,0 196.5,-30"/>
<text text-anchor="start" x="94.5" y="-18" font-family="Helvetica,sans-Serif" font-size="10.00">logger_module::log</text>
<text text-anchor="middle" x="141.5" y="-7" font-family="Helvetica,sans-Serif" font-size="10.00">_route</text>
</a>
</g>
</g>
<!-- Node2 -->
<g id="Node000002" class="node">
<title>Node2</title>
<g id="a_Node000002"><a xlink:title=" ">
<polygon fill="white" stroke="#666666" points="131,-107 0,-107 0,-77 131,-77 131,-107"/>
<text text-anchor="start" x="8" y="-95" font-family="Helvetica,sans-Serif" font-size="10.00">std::unique_ptr&lt; logger</text>
<text text-anchor="middle" x="65.5" y="-84" font-family="Helvetica,sans-Serif" font-size="10.00">_module::log_filter &gt;</text>
</a>
</g>
</g>
<!-- Node2&#45;&gt;Node1 -->
<g id="edge1_Node000001_Node000002" class="edge">
<title>Node2&#45;&gt;Node1</title>
<g id="a_edge1_Node000001_Node000002"><a xlink:title=" ">
<path fill="none" stroke="#9a32cd" stroke-dasharray="5,2" d="M86.97,-69.82C99.87,-57.08 115.93,-41.24 127.27,-30.04"/>
<polygon fill="#9a32cd" stroke="#9a32cd" points="84.45,-67.38 79.8,-76.89 89.37,-72.36 84.45,-67.38"/>
</a>
</g>
<text text-anchor="middle" x="121.5" y="-51" font-family="Helvetica,sans-Serif" font-size="10.00" fill="grey"> filter</text>
</g>
<!-- Node3 -->
<g id="Node000003" class="node">
<title>Node3</title>
<g id="a_Node000003"><a xlink:href="classlogger__module_1_1log__filter.html" target="_top" xlink:title="Base class for log filtering.">
<polygon fill="white" stroke="#666666" points="120.5,-184 10.5,-184 10.5,-154 120.5,-154 120.5,-184"/>
<text text-anchor="start" x="18.5" y="-172" font-family="Helvetica,sans-Serif" font-size="10.00">logger_module::log</text>
<text text-anchor="middle" x="65.5" y="-161" font-family="Helvetica,sans-Serif" font-size="10.00">_filter</text>
</a>
</g>
</g>
<!-- Node3&#45;&gt;Node2 -->
<g id="edge2_Node000002_Node000003" class="edge">
<title>Node3&#45;&gt;Node2</title>
<g id="a_edge2_Node000002_Node000003"><a xlink:title=" ">
<path fill="none" stroke="#9a32cd" stroke-dasharray="5,2" d="M65.5,-143.54C65.5,-131.45 65.5,-117.29 65.5,-107.04"/>
<polygon fill="#9a32cd" stroke="#9a32cd" points="62,-143.89 65.5,-153.89 69,-143.89 62,-143.89"/>
</a>
</g>
<text text-anchor="middle" x="74" y="-128" font-family="Helvetica,sans-Serif" font-size="10.00" fill="grey"> ptr</text>
</g>
<!-- Node4 -->
<g id="Node000004" class="node">
<title>Node4</title>
<g id="a_Node000004"><a xlink:href="classlogger__module_1_1log__filter__interface.html" target="_top" xlink:title="Interface for log filters.">
<polygon fill="white" stroke="#666666" points="120.5,-251 10.5,-251 10.5,-221 120.5,-221 120.5,-251"/>
<text text-anchor="start" x="18.5" y="-239" font-family="Helvetica,sans-Serif" font-size="10.00">logger_module::log</text>
<text text-anchor="middle" x="65.5" y="-228" font-family="Helvetica,sans-Serif" font-size="10.00">_filter_interface</text>
</a>
</g>
</g>
<!-- Node4&#45;&gt;Node3 -->
<g id="edge3_Node000003_Node000004" class="edge">
<title>Node4&#45;&gt;Node3</title>
<g id="a_edge3_Node000003_Node000004"><a xlink:title=" ">
<path fill="none" stroke="#63b8ff" d="M65.5,-210.61C65.5,-201.65 65.5,-191.82 65.5,-184.08"/>
<polygon fill="#63b8ff" stroke="#63b8ff" points="62,-210.9 65.5,-220.9 69,-210.9 62,-210.9"/>
</a>
</g>
</g>
<!-- Node5 -->
<g id="Node000005" class="node">
<title>Node5</title>
<g id="a_Node000005"><a xlink:title=" ">
<polygon fill="white" stroke="#666666" points="289.5,-101.5 149.5,-101.5 149.5,-82.5 289.5,-82.5 289.5,-101.5"/>
<text text-anchor="middle" x="219.5" y="-89.5" font-family="Helvetica,sans-Serif" font-size="10.00">std::vector&lt; std::string &gt;</text>
</a>
</g>
</g>
<!-- Node5&#45;&gt;Node1 -->
<g id="edge4_Node000001_Node000005" class="edge">
<title>Node5&#45;&gt;Node1</title>
<g id="a_edge4_Node000001_Node000005"><a xlink:title=" ">
<path fill="none" stroke="#9a32cd" stroke-dasharray="5,2" d="M203.15,-75.28C189.28,-61.94 169.55,-42.97 156.18,-30.11"/>
<polygon fill="#9a32cd" stroke="#9a32cd" points="200.92,-77.99 210.55,-82.4 205.77,-72.94 200.92,-77.99"/>
</a>
</g>
<text text-anchor="middle" x="220.5" y="-51" font-family="Helvetica,sans-Serif" font-size="10.00" fill="grey"> writer_names</text>
</g>
<!-- Node6 -->
<g id="Node000006" class="node">
<title>Node6</title>
<g id="a_Node000006"><a xlink:title=" ">
<polygon fill="white" stroke="#666666" points="252,-178.5 187,-178.5 187,-159.5 252,-159.5 252,-178.5"/>
<text text-anchor="middle" x="219.5" y="-166.5" font-family="Helvetica,sans-Serif" font-size="10.00">std::string</text>
</a>
</g>
</g>
<!-- Node6&#45;&gt;Node5 -->
<g id="edge5_Node000005_Node000006" class="edge">
<title>Node6&#45;&gt;Node5</title>
<g id="a_edge5_Node000005_Node000006"><a xlink:title=" ">
<path fill="none" stroke="#9a32cd" stroke-dasharray="5,2" d="M219.5,-149.02C219.5,-133.74 219.5,-112.98 219.5,-101.5"/>
<polygon fill="#9a32cd" stroke="#9a32cd" points="216,-149.4 219.5,-159.4 223,-149.4 216,-149.4"/>
</a>
</g>
<text text-anchor="middle" x="244" y="-128" font-family="Helvetica,sans-Serif" font-size="10.00" fill="grey"> elements</text>
</g>
<!-- Node7 -->
<g id="Node000007" class="node">
<title>Node7</title>
<g id="a_Node000007"><a xlink:title=" ">
<polygon fill="white" stroke="#666666" points="271.5,-251 167.5,-251 167.5,-221 271.5,-221 271.5,-251"/>
<text text-anchor="start" x="175.5" y="-239" font-family="Helvetica,sans-Serif" font-size="10.00">std::basic_string&lt;</text>
<text text-anchor="middle" x="219.5" y="-228" font-family="Helvetica,sans-Serif" font-size="10.00"> Char &gt;</text>
</a>
</g>
</g>
<!-- Node7&#45;&gt;Node6 -->
<g id="edge6_Node000006_Node000007" class="edge">
<title>Node7&#45;&gt;Node6</title>
<g id="a_edge6_Node000006_Node000007"><a xlink:title=" ">
<path fill="none" stroke="#63b8ff" d="M219.5,-210.75C219.5,-199.52 219.5,-186.88 219.5,-178.69"/>
<polygon fill="#63b8ff" stroke="#63b8ff" points="216,-210.9 219.5,-220.9 223,-210.9 216,-210.9"/>
</a>
</g>
</g>
</g>
</svg>
