<?xml version="1.0" encoding="UTF-8" standalone="no"?>
<!DOCTYPE svg PUBLIC "-//W3C//DTD SVG 1.1//EN"
 "http://www.w3.org/Graphics/SVG/1.1/DTD/svg11.dtd">
<!-- Generated by graphviz version 2.43.0 (0)
 -->
<!-- Title: logger_module::writer_health_info Pages: 1 -->
<svg width="277pt" height="237pt"
 viewBox="0.00 0.00 277.00 237.00" xmlns="http://www.w3.org/2000/svg" xmlns:xlink="http://www.w3.org/1999/xlink">
<g id="graph0" class="graph" transform="scale(1 1) rotate(0) translate(4 233)">
<title>logger_module::writer_health_info</title>
<!-- Node1 -->
<g id="Node000001" class="node">
<title>Node1</title>
<g id="a_Node000001"><a xlink:title="Writer health information.">
<polygon fill="#999999" stroke="#666666" points="124,-30 0,-30 0,0 124,0 124,-30"/>
<text text-anchor="start" x="8" y="-18" font-family="Helvetica,sans-Serif" font-size="10.00">logger_module::writer</text>
<text text-anchor="middle" x="62" y="-7" font-family="Helvetica,sans-Serif" font-size="10.00">_health_info</text>
</a>
</g>
</g>
<!-- Node2 -->
<g id="Node000002" class="node">
<title>Node2</title>
<g id="a_Node000002"><a xlink:title=" ">
<polygon fill="white" stroke="#666666" points="94.5,-162 29.5,-162 29.5,-143 94.5,-143 94.5,-162"/>
<text text-anchor="middle" x="62" y="-150" font-family="Helvetica,sans-Serif" font-size="10.00">std::string</text>
</a>
</g>
</g>
<!-- Node2&#45;&gt;Node1 -->
<g id="edge1_Node000001_Node000002" class="edge">
<title>Node2&#45;&gt;Node1</title>
<g id="a_edge1_Node000001_Node000002"><a xlink:title=" ">
<path fill="none" stroke="#9a32cd" stroke-dasharray="5,2" d="M59.07,-132.97C57.52,-122.21 55.78,-108.37 55,-96 53.55,-72.9 56.92,-46.12 59.47,-30.15"/>
<polygon fill="#9a32cd" stroke="#9a32cd" points="55.61,-133.52 60.57,-142.88 62.54,-132.47 55.61,-133.52"/>
</a>
</g>
<text text-anchor="middle" x="87.5" y="-84" font-family="Helvetica,sans-Serif" font-size="10.00" fill="grey"> writer_name</text>
</g>
<!-- Node4 -->
<g id="Node000004" class="node">
<title>Node4</title>
<g id="a_Node000004"><a xlink:title=" ">
<polygon fill="white" stroke="#666666" points="269,-96 129,-96 129,-77 269,-77 269,-96"/>
<text text-anchor="middle" x="199" y="-84" font-family="Helvetica,sans-Serif" font-size="10.00">std::vector&lt; std::string &gt;</text>
</a>
</g>
</g>
<!-- Node2&#45;&gt;Node4 -->
<g id="edge4_Node000004_Node000002" class="edge">
<title>Node2&#45;&gt;Node4</title>
<g id="a_edge4_Node000004_Node000002"><a xlink:title=" ">
<path fill="none" stroke="#9a32cd" stroke-dasharray="5,2" d="M89.77,-138.53C116.77,-125.92 157.02,-107.11 180.38,-96.2"/>
<polygon fill="#9a32cd" stroke="#9a32cd" points="88.06,-135.47 80.48,-142.87 91.02,-141.81 88.06,-135.47"/>
</a>
</g>
<text text-anchor="middle" x="162.5" y="-117" font-family="Helvetica,sans-Serif" font-size="10.00" fill="grey"> elements</text>
</g>
<!-- Node3 -->
<g id="Node000003" class="node">
<title>Node3</title>
<g id="a_Node000003"><a xlink:title=" ">
<polygon fill="white" stroke="#666666" points="114,-229 10,-229 10,-199 114,-199 114,-229"/>
<text text-anchor="start" x="18" y="-217" font-family="Helvetica,sans-Serif" font-size="10.00">std::basic_string&lt;</text>
<text text-anchor="middle" x="62" y="-206" font-family="Helvetica,sans-Serif" font-size="10.00"> Char &gt;</text>
</a>
</g>
</g>
<!-- Node3&#45;&gt;Node2 -->
<g id="edge2_Node000002_Node000003" class="edge">
<title>Node3&#45;&gt;Node2</title>
<g id="a_edge2_Node000002_Node000003"><a xlink:title=" ">
<path fill="none" stroke="#63b8ff" d="M62,-188.79C62,-179.36 62,-169.15 62,-162.16"/>
<polygon fill="#63b8ff" stroke="#63b8ff" points="58.5,-188.9 62,-198.9 65.5,-188.9 58.5,-188.9"/>
</a>
</g>
</g>
<!-- Node4&#45;&gt;Node1 -->
<g id="edge3_Node000001_Node000004" class="edge">
<title>Node4&#45;&gt;Node1</title>
<g id="a_edge3_Node000001_Node000004"><a xlink:title=" ">
<path fill="none" stroke="#9a32cd" stroke-dasharray="5,2" d="M173.05,-72.34C149.21,-60.24 113.97,-42.36 89.61,-30.01"/>
<polygon fill="#9a32cd" stroke="#9a32cd" points="171.7,-75.58 182.2,-76.98 174.87,-69.33 171.7,-75.58"/>
</a>
</g>
<text text-anchor="middle" x="176" y="-51" font-family="Helvetica,sans-Serif" font-size="10.00" fill="grey"> recent_errors</text>
</g>
</g>
</svg>
