<?xml version="1.0" encoding="UTF-8" standalone="no"?>
<!DOCTYPE svg PUBLIC "-//W3C//DTD SVG 1.1//EN"
 "http://www.w3.org/Graphics/SVG/1.1/DTD/svg11.dtd">
<!-- Generated by graphviz version 2.43.0 (0)
 -->
<!-- Title: logger_module::log_aggregator::source_stats Pages: 1 -->
<svg width="233pt" height="203pt"
 viewBox="0.00 0.00 233.00 203.00" xmlns="http://www.w3.org/2000/svg" xmlns:xlink="http://www.w3.org/1999/xlink">
<g id="graph0" class="graph" transform="scale(1 1) rotate(0) translate(4 199)">
<title>logger_module::log_aggregator::source_stats</title>
<!-- Node1 -->
<g id="Node000001" class="node">
<title>Node1</title>
<g id="a_Node000001"><a xlink:title="Statistics per log source.">
<polygon fill="#999999" stroke="#666666" points="178.5,-30 35.5,-30 35.5,0 178.5,0 178.5,-30"/>
<text text-anchor="start" x="43.5" y="-18" font-family="Helvetica,sans-Serif" font-size="10.00">logger_module::log</text>
<text text-anchor="middle" x="107" y="-7" font-family="Helvetica,sans-Serif" font-size="10.00">_aggregator::source_stats</text>
</a>
</g>
</g>
<!-- Node2 -->
<g id="Node000002" class="node">
<title>Node2</title>
<g id="a_Node000002"><a xlink:title=" ">
<polygon fill="white" stroke="#666666" points="84.5,-107 19.5,-107 19.5,-88 84.5,-88 84.5,-107"/>
<text text-anchor="middle" x="52" y="-95" font-family="Helvetica,sans-Serif" font-size="10.00">std::string</text>
</a>
</g>
</g>
<!-- Node2&#45;&gt;Node1 -->
<g id="edge1_Node000001_Node000002" class="edge">
<title>Node2&#45;&gt;Node1</title>
<g id="a_edge1_Node000001_Node000002"><a xlink:title=" ">
<path fill="none" stroke="#9a32cd" stroke-dasharray="5,2" d="M62.21,-78.97C67.82,-69.62 75.03,-58.01 82,-48 86.19,-41.98 91.1,-35.58 95.46,-30.09"/>
<polygon fill="#9a32cd" stroke="#9a32cd" points="59.11,-77.34 57.03,-87.73 65.13,-80.9 59.11,-77.34"/>
</a>
</g>
<text text-anchor="middle" x="107" y="-51" font-family="Helvetica,sans-Serif" font-size="10.00" fill="grey"> source_id</text>
</g>
<!-- Node3 -->
<g id="Node000003" class="node">
<title>Node3</title>
<g id="a_Node000003"><a xlink:title=" ">
<polygon fill="white" stroke="#666666" points="104,-195 0,-195 0,-165 104,-165 104,-195"/>
<text text-anchor="start" x="8" y="-183" font-family="Helvetica,sans-Serif" font-size="10.00">std::basic_string&lt;</text>
<text text-anchor="middle" x="52" y="-172" font-family="Helvetica,sans-Serif" font-size="10.00"> Char &gt;</text>
</a>
</g>
</g>
<!-- Node3&#45;&gt;Node2 -->
<g id="edge2_Node000002_Node000003" class="edge">
<title>Node3&#45;&gt;Node2</title>
<g id="a_edge2_Node000002_Node000003"><a xlink:title=" ">
<path fill="none" stroke="#63b8ff" d="M52,-154.7C52,-138.7 52,-118.7 52,-107.38"/>
<polygon fill="#63b8ff" stroke="#63b8ff" points="48.5,-154.98 52,-164.98 55.5,-154.98 48.5,-154.98"/>
</a>
</g>
</g>
<!-- Node4 -->
<g id="Node000004" class="node">
<title>Node4</title>
<g id="a_Node000004"><a xlink:title=" ">
<polygon fill="white" stroke="#666666" points="225,-118 103,-118 103,-77 225,-77 225,-118"/>
<text text-anchor="start" x="111" y="-106" font-family="Helvetica,sans-Serif" font-size="10.00">std::unordered_map</text>
<text text-anchor="start" x="111" y="-95" font-family="Helvetica,sans-Serif" font-size="10.00">&lt; thread_module::log</text>
<text text-anchor="middle" x="164" y="-84" font-family="Helvetica,sans-Serif" font-size="10.00">_level, uint64_t &gt;</text>
</a>
</g>
</g>
<!-- Node4&#45;&gt;Node1 -->
<g id="edge3_Node000001_Node000004" class="edge">
<title>Node4&#45;&gt;Node1</title>
<g id="a_edge3_Node000001_Node000004"><a xlink:title=" ">
<path fill="none" stroke="#9a32cd" stroke-dasharray="5,2" d="M145.83,-68.13C141.4,-61.45 136.61,-54.42 132,-48 127.72,-42.05 122.79,-35.65 118.45,-30.15"/>
<polygon fill="#9a32cd" stroke="#9a32cd" points="143.17,-70.46 151.58,-76.91 149.03,-66.62 143.17,-70.46"/>
</a>
</g>
<text text-anchor="middle" x="172.5" y="-51" font-family="Helvetica,sans-Serif" font-size="10.00" fill="grey"> level_counts</text>
</g>
<!-- Node5 -->
<g id="Node000005" class="node">
<title>Node5</title>
<g id="a_Node000005"><a xlink:title=" ">
<polygon fill="white" stroke="#666666" points="194.5,-189.5 133.5,-189.5 133.5,-170.5 194.5,-170.5 194.5,-189.5"/>
<text text-anchor="middle" x="164" y="-177.5" font-family="Helvetica,sans-Serif" font-size="10.00">log_level</text>
</a>
</g>
</g>
<!-- Node5&#45;&gt;Node4 -->
<g id="edge4_Node000004_Node000005" class="edge">
<title>Node5&#45;&gt;Node4</title>
<g id="a_edge4_Node000004_Node000005"><a xlink:title=" ">
<path fill="none" stroke="#9a32cd" stroke-dasharray="5,2" d="M164,-160.1C164,-147.43 164,-130.81 164,-118.02"/>
<polygon fill="#9a32cd" stroke="#9a32cd" points="160.5,-160.39 164,-170.39 167.5,-160.39 160.5,-160.39"/>
</a>
</g>
<text text-anchor="middle" x="177" y="-139" font-family="Helvetica,sans-Serif" font-size="10.00" fill="grey"> keys</text>
</g>
</g>
</svg>
