<?xml version="1.0" encoding="UTF-8" standalone="no"?>
<!DOCTYPE svg PUBLIC "-//W3C//DTD SVG 1.1//EN"
 "http://www.w3.org/Graphics/SVG/1.1/DTD/svg11.dtd">
<!-- Generated by graphviz version 2.43.0 (0)
 -->
<!-- Title: logger_module::log_entry Pages: 1 -->
<svg width="233pt" height="182pt"
 viewBox="0.00 0.00 233.00 182.00" xmlns="http://www.w3.org/2000/svg" xmlns:xlink="http://www.w3.org/1999/xlink">
<g id="graph0" class="graph" transform="scale(1 1) rotate(0) translate(4 178)">
<title>logger_module::log_entry</title>
<!-- Node1 -->
<g id="Node000001" class="node">
<title>Node1</title>
<g id="a_Node000001"><a xlink:title="Represents a single log entry with all associated metadata.">
<polygon fill="#999999" stroke="#666666" points="163,-30 53,-30 53,0 163,0 163,-30"/>
<text text-anchor="start" x="61" y="-18" font-family="Helvetica,sans-Serif" font-size="10.00">logger_module::log</text>
<text text-anchor="middle" x="108" y="-7" font-family="Helvetica,sans-Serif" font-size="10.00">_entry</text>
</a>
</g>
</g>
<!-- Node2 -->
<g id="Node000002" class="node">
<title>Node2</title>
<g id="a_Node000002"><a xlink:title=" ">
<polygon fill="white" stroke="#666666" points="84.5,-101.5 19.5,-101.5 19.5,-82.5 84.5,-82.5 84.5,-101.5"/>
<text text-anchor="middle" x="52" y="-89.5" font-family="Helvetica,sans-Serif" font-size="10.00">std::string</text>
</a>
</g>
</g>
<!-- Node2&#45;&gt;Node1 -->
<g id="edge1_Node000001_Node000002" class="edge">
<title>Node2&#45;&gt;Node1</title>
<g id="a_edge1_Node000001_Node000002"><a xlink:title=" ">
<path fill="none" stroke="#9a32cd" stroke-dasharray="5,2" d="M64.58,-74.15C74.49,-60.88 88.13,-42.61 97.46,-30.11"/>
<polygon fill="#9a32cd" stroke="#9a32cd" points="61.6,-72.29 58.42,-82.4 67.21,-76.48 61.6,-72.29"/>
</a>
</g>
<text text-anchor="middle" x="108" y="-51" font-family="Helvetica,sans-Serif" font-size="10.00" fill="grey"> message</text>
</g>
<!-- Node3 -->
<g id="Node000003" class="node">
<title>Node3</title>
<g id="a_Node000003"><a xlink:title=" ">
<polygon fill="white" stroke="#666666" points="104,-174 0,-174 0,-144 104,-144 104,-174"/>
<text text-anchor="start" x="8" y="-162" font-family="Helvetica,sans-Serif" font-size="10.00">std::basic_string&lt;</text>
<text text-anchor="middle" x="52" y="-151" font-family="Helvetica,sans-Serif" font-size="10.00"> Char &gt;</text>
</a>
</g>
</g>
<!-- Node3&#45;&gt;Node2 -->
<g id="edge2_Node000002_Node000003" class="edge">
<title>Node3&#45;&gt;Node2</title>
<g id="a_edge2_Node000002_Node000003"><a xlink:title=" ">
<path fill="none" stroke="#63b8ff" d="M52,-133.75C52,-122.52 52,-109.88 52,-101.69"/>
<polygon fill="#63b8ff" stroke="#63b8ff" points="48.5,-133.9 52,-143.9 55.5,-133.9 48.5,-133.9"/>
</a>
</g>
</g>
<!-- Node4 -->
<g id="Node000004" class="node">
<title>Node4</title>
<g id="a_Node000004"><a xlink:href="classlogger__module_1_1small__string.html" target="_top" xlink:title=" ">
<polygon fill="white" stroke="#666666" points="225,-107 103,-107 103,-77 225,-77 225,-107"/>
<text text-anchor="start" x="111" y="-95" font-family="Helvetica,sans-Serif" font-size="10.00">logger_module::small</text>
<text text-anchor="middle" x="164" y="-84" font-family="Helvetica,sans-Serif" font-size="10.00">_string&lt; 256 &gt;</text>
</a>
</g>
</g>
<!-- Node4&#45;&gt;Node1 -->
<g id="edge3_Node000001_Node000004" class="edge">
<title>Node4&#45;&gt;Node1</title>
<g id="a_edge3_Node000001_Node000004"><a xlink:title=" ">
<path fill="none" stroke="#9a32cd" stroke-dasharray="5,2" d="M149.96,-68.13C145.67,-61.5 140.81,-54.35 136,-48 131.46,-42 126.09,-35.7 121.27,-30.29"/>
<polygon fill="#9a32cd" stroke="#9a32cd" points="147.1,-70.15 155.41,-76.71 153.01,-66.4 147.1,-70.15"/>
</a>
</g>
<text text-anchor="middle" x="167" y="-51" font-family="Helvetica,sans-Serif" font-size="10.00" fill="grey"> message</text>
</g>
</g>
</svg>
