<?xml version="1.0" encoding="UTF-8" standalone="no"?>
<!DOCTYPE svg PUBLIC "-//W3C//DTD SVG 1.1//EN"
 "http://www.w3.org/Graphics/SVG/1.1/DTD/svg11.dtd">
<!-- Generated by graphviz version 2.43.0 (0)
 -->
<!-- Title: logger_module::log_analyzer::time_window_stats Pages: 1 -->
<svg width="696pt" height="98pt"
 viewBox="0.00 0.00 696.00 97.50" xmlns="http://www.w3.org/2000/svg" xmlns:xlink="http://www.w3.org/1999/xlink">
<g id="graph0" class="graph" transform="scale(1 1) rotate(0) translate(4 93.5)">
<title>logger_module::log_analyzer::time_window_stats</title>
<!-- Node1 -->
<g id="Node000001" class="node">
<title>Node1</title>
<g id="a_Node000001"><a xlink:title="Statistics for a time window.">
<polygon fill="#999999" stroke="#666666" points="688,-56 524,-56 524,-26 688,-26 688,-56"/>
<text text-anchor="start" x="532" y="-44" font-family="Helvetica,sans-Serif" font-size="10.00">logger_module::log</text>
<text text-anchor="middle" x="606" y="-33" font-family="Helvetica,sans-Serif" font-size="10.00">_analyzer::time_window_stats</text>
</a>
</g>
</g>
<!-- Node2 -->
<g id="Node000002" class="node">
<title>Node2</title>
<g id="a_Node000002"><a xlink:title=" ">
<polygon fill="white" stroke="#666666" points="396,-89.5 274,-89.5 274,-48.5 396,-48.5 396,-89.5"/>
<text text-anchor="start" x="282" y="-77.5" font-family="Helvetica,sans-Serif" font-size="10.00">std::unordered_map</text>
<text text-anchor="start" x="282" y="-66.5" font-family="Helvetica,sans-Serif" font-size="10.00">&lt; thread_module::log</text>
<text text-anchor="middle" x="335" y="-55.5" font-family="Helvetica,sans-Serif" font-size="10.00">_level, uint64_t &gt;</text>
</a>
</g>
</g>
<!-- Node2&#45;&gt;Node1 -->
<g id="edge1_Node000001_Node000002" class="edge">
<title>Node2&#45;&gt;Node1</title>
<g id="a_edge1_Node000001_Node000002"><a xlink:title=" ">
<path fill="none" stroke="#9a32cd" stroke-dasharray="5,2" d="M406,-61.71C442.12,-57.95 486.38,-53.35 523.98,-49.43"/>
<polygon fill="#9a32cd" stroke="#9a32cd" points="405.62,-58.23 396.03,-62.75 406.34,-65.2 405.62,-58.23"/>
</a>
</g>
<text text-anchor="middle" x="463" y="-62" font-family="Helvetica,sans-Serif" font-size="10.00" fill="grey"> level_counts</text>
</g>
<!-- Node3 -->
<g id="Node000003" class="node">
<title>Node3</title>
<g id="a_Node000003"><a xlink:title=" ">
<polygon fill="white" stroke="#666666" points="204,-78.5 143,-78.5 143,-59.5 204,-59.5 204,-78.5"/>
<text text-anchor="middle" x="173.5" y="-66.5" font-family="Helvetica,sans-Serif" font-size="10.00">log_level</text>
</a>
</g>
</g>
<!-- Node3&#45;&gt;Node2 -->
<g id="edge2_Node000002_Node000003" class="edge">
<title>Node3&#45;&gt;Node2</title>
<g id="a_edge2_Node000002_Node000003"><a xlink:title=" ">
<path fill="none" stroke="#9a32cd" stroke-dasharray="5,2" d="M214.25,-69C232.24,-69 253.89,-69 273.81,-69"/>
<polygon fill="#9a32cd" stroke="#9a32cd" points="214.13,-65.5 204.13,-69 214.13,-72.5 214.13,-65.5"/>
</a>
</g>
<text text-anchor="middle" x="237" y="-72" font-family="Helvetica,sans-Serif" font-size="10.00" fill="grey"> keys</text>
</g>
<!-- Node4 -->
<g id="Node000004" class="node">
<title>Node4</title>
<g id="a_Node000004"><a xlink:title=" ">
<polygon fill="white" stroke="#666666" points="402,-30 268,-30 268,0 402,0 402,-30"/>
<text text-anchor="start" x="276" y="-18" font-family="Helvetica,sans-Serif" font-size="10.00">std::unordered_map</text>
<text text-anchor="middle" x="335" y="-7" font-family="Helvetica,sans-Serif" font-size="10.00">&lt; std::string, uint64_t &gt;</text>
</a>
</g>
</g>
<!-- Node4&#45;&gt;Node1 -->
<g id="edge3_Node000001_Node000004" class="edge">
<title>Node4&#45;&gt;Node1</title>
<g id="a_edge3_Node000001_Node000004"><a xlink:title=" ">
<path fill="none" stroke="#9a32cd" stroke-dasharray="5,2" d="M412.55,-15.74C441.86,-16.65 475.55,-18.47 506,-22 514.95,-23.04 524.31,-24.43 533.55,-25.98"/>
<polygon fill="#9a32cd" stroke="#9a32cd" points="412.47,-12.24 402.38,-15.45 412.28,-19.23 412.47,-12.24"/>
</a>
</g>
<text text-anchor="middle" x="463" y="-36" font-family="Helvetica,sans-Serif" font-size="10.00" fill="grey"> pattern_matches</text>
<text text-anchor="middle" x="463" y="-25" font-family="Helvetica,sans-Serif" font-size="10.00" fill="grey">source_counts</text>
</g>
<!-- Node5 -->
<g id="Node000005" class="node">
<title>Node5</title>
<g id="a_Node000005"><a xlink:title=" ">
<polygon fill="white" stroke="#666666" points="206,-24.5 141,-24.5 141,-5.5 206,-5.5 206,-24.5"/>
<text text-anchor="middle" x="173.5" y="-12.5" font-family="Helvetica,sans-Serif" font-size="10.00">std::string</text>
</a>
</g>
</g>
<!-- Node5&#45;&gt;Node4 -->
<g id="edge4_Node000004_Node000005" class="edge">
<title>Node5&#45;&gt;Node4</title>
<g id="a_edge4_Node000004_Node000005"><a xlink:title=" ">
<path fill="none" stroke="#9a32cd" stroke-dasharray="5,2" d="M216.46,-15C232.21,-15 250.52,-15 267.93,-15"/>
<polygon fill="#9a32cd" stroke="#9a32cd" points="216.01,-11.5 206.01,-15 216.01,-18.5 216.01,-11.5"/>
</a>
</g>
<text text-anchor="middle" x="237" y="-18" font-family="Helvetica,sans-Serif" font-size="10.00" fill="grey"> keys</text>
</g>
<!-- Node6 -->
<g id="Node000006" class="node">
<title>Node6</title>
<g id="a_Node000006"><a xlink:title=" ">
<polygon fill="white" stroke="#666666" points="104,-30 0,-30 0,0 104,0 104,-30"/>
<text text-anchor="start" x="8" y="-18" font-family="Helvetica,sans-Serif" font-size="10.00">std::basic_string&lt;</text>
<text text-anchor="middle" x="52" y="-7" font-family="Helvetica,sans-Serif" font-size="10.00"> Char &gt;</text>
</a>
</g>
</g>
<!-- Node6&#45;&gt;Node5 -->
<g id="edge5_Node000005_Node000006" class="edge">
<title>Node6&#45;&gt;Node5</title>
<g id="a_edge5_Node000005_Node000006"><a xlink:title=" ">
<path fill="none" stroke="#63b8ff" d="M114.1,-15C123.41,-15 132.68,-15 141,-15"/>
<polygon fill="#63b8ff" stroke="#63b8ff" points="114.03,-11.5 104.03,-15 114.03,-18.5 114.03,-11.5"/>
</a>
</g>
</g>
</g>
</svg>
