<?xml version="1.0" encoding="UTF-8" standalone="no"?>
<!DOCTYPE svg PUBLIC "-//W3C//DTD SVG 1.1//EN"
 "http://www.w3.org/Graphics/SVG/1.1/DTD/svg11.dtd">
<!-- Generated by graphviz version 2.43.0 (0)
 -->
<!-- Title: thread_system_monitor_adapter.h Pages: 1 -->
<svg width="578pt" height="258pt"
 viewBox="0.00 0.00 578.00 258.00" xmlns="http://www.w3.org/2000/svg" xmlns:xlink="http://www.w3.org/1999/xlink">
<g id="graph0" class="graph" transform="scale(1 1) rotate(0) translate(4 254)">
<title>thread_system_monitor_adapter.h</title>
<!-- Node1 -->
<g id="Node000001" class="node">
<title>Node1</title>
<g id="a_Node000001"><a xlink:title="Adapter for thread_system&#39;s monitoring capabilities.">
<polygon fill="#999999" stroke="#666666" points="291.5,-250 158.5,-250 158.5,-220 291.5,-220 291.5,-250"/>
<text text-anchor="start" x="166.5" y="-238" font-family="Helvetica,sans-Serif" font-size="10.00">thread_system_monitor</text>
<text text-anchor="middle" x="225" y="-227" font-family="Helvetica,sans-Serif" font-size="10.00">_adapter.h</text>
</a>
</g>
</g>
<!-- Node2 -->
<g id="Node000002" class="node">
<title>Node2</title>
<g id="a_Node000002"><a xlink:href="monitoring__interface_8h.html" target="_top" xlink:title="Abstract interface for monitoring and metrics collection.">
<polygon fill="white" stroke="#666666" points="162,-129 34,-129 34,-110 162,-110 162,-129"/>
<text text-anchor="middle" x="98" y="-117" font-family="Helvetica,sans-Serif" font-size="10.00">monitoring_interface.h</text>
</a>
</g>
</g>
<!-- Node1&#45;&gt;Node2 -->
<g id="edge1_Node000001_Node000002" class="edge">
<title>Node1&#45;&gt;Node2</title>
<g id="a_edge1_Node000001_Node000002"><a xlink:title=" ">
<path fill="none" stroke="#63b8ff" d="M209.17,-219.85C185.28,-198.5 140.15,-158.17 115.38,-136.03"/>
<polygon fill="#63b8ff" stroke="#63b8ff" points="117.6,-133.32 107.81,-129.27 112.94,-138.54 117.6,-133.32"/>
</a>
</g>
</g>
<!-- Node13 -->
<g id="Node000013" class="node">
<title>Node13</title>
<g id="a_Node000013"><a xlink:href="basic__monitor_8h.html" target="_top" xlink:title="Basic monitoring implementation with no external dependencies.">
<polygon fill="white" stroke="#666666" points="361,-184 267,-184 267,-165 361,-165 361,-184"/>
<text text-anchor="middle" x="314" y="-172" font-family="Helvetica,sans-Serif" font-size="10.00">basic_monitor.h</text>
</a>
</g>
</g>
<!-- Node1&#45;&gt;Node13 -->
<g id="edge13_Node000001_Node000013" class="edge">
<title>Node1&#45;&gt;Node13</title>
<g id="a_edge13_Node000001_Node000013"><a xlink:title=" ">
<path fill="none" stroke="#63b8ff" d="M246.54,-219.84C260.47,-210.68 278.53,-198.82 292.45,-189.66"/>
<polygon fill="#63b8ff" stroke="#63b8ff" points="294.49,-192.51 300.92,-184.09 290.65,-186.66 294.49,-192.51"/>
</a>
</g>
</g>
<!-- Node3 -->
<g id="Node000003" class="node">
<title>Node3</title>
<g id="a_Node000003"><a xlink:title=" ">
<polygon fill="#e0e0e0" stroke="#999999" points="94,-19 50,-19 50,0 94,0 94,-19"/>
<text text-anchor="middle" x="72" y="-7" font-family="Helvetica,sans-Serif" font-size="10.00">string</text>
</a>
</g>
</g>
<!-- Node2&#45;&gt;Node3 -->
<g id="edge2_Node000002_Node000003" class="edge">
<title>Node2&#45;&gt;Node3</title>
<g id="a_edge2_Node000002_Node000003"><a xlink:title=" ">
<path fill="none" stroke="#63b8ff" d="M95.87,-109.66C91.64,-92.09 82.1,-52.45 76.44,-28.95"/>
<polygon fill="#63b8ff" stroke="#63b8ff" points="79.83,-28.06 74.08,-19.16 73.02,-29.7 79.83,-28.06"/>
</a>
</g>
</g>
<!-- Node4 -->
<g id="Node000004" class="node">
<title>Node4</title>
<g id="a_Node000004"><a xlink:title=" ">
<polygon fill="#e0e0e0" stroke="#999999" points="400.5,-74 307.5,-74 307.5,-55 400.5,-55 400.5,-74"/>
<text text-anchor="middle" x="354" y="-62" font-family="Helvetica,sans-Serif" font-size="10.00">unordered_map</text>
</a>
</g>
</g>
<!-- Node2&#45;&gt;Node4 -->
<g id="edge3_Node000002_Node000004" class="edge">
<title>Node2&#45;&gt;Node4</title>
<g id="a_edge3_Node000002_Node000004"><a xlink:title=" ">
<path fill="none" stroke="#63b8ff" d="M139.13,-109.98C183.6,-100.78 254.55,-86.09 302.65,-76.13"/>
<polygon fill="#63b8ff" stroke="#63b8ff" points="303.46,-79.54 312.55,-74.08 302.04,-72.68 303.46,-79.54"/>
</a>
</g>
</g>
<!-- Node5 -->
<g id="Node000005" class="node">
<title>Node5</title>
<g id="a_Node000005"><a xlink:title=" ">
<polygon fill="#e0e0e0" stroke="#999999" points="489.5,-74 442.5,-74 442.5,-55 489.5,-55 489.5,-74"/>
<text text-anchor="middle" x="466" y="-62" font-family="Helvetica,sans-Serif" font-size="10.00">vector</text>
</a>
</g>
</g>
<!-- Node2&#45;&gt;Node5 -->
<g id="edge4_Node000002_Node000005" class="edge">
<title>Node2&#45;&gt;Node5</title>
<g id="a_edge4_Node000002_Node000005"><a xlink:title=" ">
<path fill="none" stroke="#63b8ff" d="M158.22,-109.99C220.88,-101.11 321.84,-86.73 409,-74 416.56,-72.9 424.67,-71.7 432.34,-70.55"/>
<polygon fill="#63b8ff" stroke="#63b8ff" points="433.06,-73.98 442.43,-69.05 432.02,-67.06 433.06,-73.98"/>
</a>
</g>
</g>
<!-- Node6 -->
<g id="Node000006" class="node">
<title>Node6</title>
<g id="a_Node000006"><a xlink:title=" ">
<polygon fill="#e0e0e0" stroke="#999999" points="570,-74 520,-74 520,-55 570,-55 570,-74"/>
<text text-anchor="middle" x="545" y="-62" font-family="Helvetica,sans-Serif" font-size="10.00">chrono</text>
</a>
</g>
</g>
<!-- Node2&#45;&gt;Node6 -->
<g id="edge5_Node000002_Node000006" class="edge">
<title>Node2&#45;&gt;Node6</title>
<g id="a_edge5_Node000002_Node000006"><a xlink:title=" ">
<path fill="none" stroke="#63b8ff" d="M162.09,-111.01C165.1,-110.67 168.08,-110.33 171,-110 316.72,-93.52 353.91,-95.34 499,-74 502.48,-73.49 506.1,-72.91 509.71,-72.29"/>
<polygon fill="#63b8ff" stroke="#63b8ff" points="510.51,-75.7 519.75,-70.51 509.29,-68.81 510.51,-75.7"/>
</a>
</g>
</g>
<!-- Node7 -->
<g id="Node000007" class="node">
<title>Node7</title>
<g id="a_Node000007"><a xlink:title=" ">
<polygon fill="#e0e0e0" stroke="#999999" points="50,-74 0,-74 0,-55 50,-55 50,-74"/>
<text text-anchor="middle" x="25" y="-62" font-family="Helvetica,sans-Serif" font-size="10.00">atomic</text>
</a>
</g>
</g>
<!-- Node2&#45;&gt;Node7 -->
<g id="edge6_Node000002_Node000007" class="edge">
<title>Node2&#45;&gt;Node7</title>
<g id="a_edge6_Node000002_Node000007"><a xlink:title=" ">
<path fill="none" stroke="#63b8ff" d="M86.27,-109.98C75.27,-102 58.58,-89.88 45.4,-80.31"/>
<polygon fill="#63b8ff" stroke="#63b8ff" points="47.09,-77.21 36.94,-74.17 42.98,-82.88 47.09,-77.21"/>
</a>
</g>
</g>
<!-- Node8 -->
<g id="Node000008" class="node">
<title>Node8</title>
<g id="a_Node000008"><a xlink:href="error__codes_8h.html" target="_top" xlink:title=" ">
<polygon fill="white" stroke="#666666" points="241,-74 149,-74 149,-55 241,-55 241,-74"/>
<text text-anchor="middle" x="195" y="-62" font-family="Helvetica,sans-Serif" font-size="10.00">../error_codes.h</text>
</a>
</g>
</g>
<!-- Node2&#45;&gt;Node8 -->
<g id="edge7_Node000002_Node000008" class="edge">
<title>Node2&#45;&gt;Node8</title>
<g id="a_edge7_Node000002_Node000008"><a xlink:title=" ">
<path fill="none" stroke="#63b8ff" d="M113.58,-109.98C128.77,-101.69 152.1,-88.94 169.9,-79.22"/>
<polygon fill="#63b8ff" stroke="#63b8ff" points="172.03,-82.04 179.13,-74.17 168.68,-75.89 172.03,-82.04"/>
</a>
</g>
</g>
<!-- Node8&#45;&gt;Node3 -->
<g id="edge8_Node000008_Node000003" class="edge">
<title>Node8&#45;&gt;Node3</title>
<g id="a_edge8_Node000008_Node000003"><a xlink:title=" ">
<path fill="none" stroke="#63b8ff" d="M175.24,-54.98C155.27,-46.38 124.2,-32.99 101.35,-23.15"/>
<polygon fill="#63b8ff" stroke="#63b8ff" points="102.69,-19.91 92.12,-19.17 99.92,-26.34 102.69,-19.91"/>
</a>
</g>
</g>
<!-- Node9 -->
<g id="Node000009" class="node">
<title>Node9</title>
<g id="a_Node000009"><a xlink:title=" ">
<polygon fill="#e0e0e0" stroke="#999999" points="320.5,-19 255.5,-19 255.5,0 320.5,0 320.5,-19"/>
<text text-anchor="middle" x="288" y="-7" font-family="Helvetica,sans-Serif" font-size="10.00">stdexcept</text>
</a>
</g>
</g>
<!-- Node8&#45;&gt;Node9 -->
<g id="edge9_Node000008_Node000009" class="edge">
<title>Node8&#45;&gt;Node9</title>
<g id="a_edge9_Node000008_Node000009"><a xlink:title=" ">
<path fill="none" stroke="#63b8ff" d="M209.94,-54.98C224.5,-46.69 246.87,-33.94 263.93,-24.22"/>
<polygon fill="#63b8ff" stroke="#63b8ff" points="265.83,-27.16 272.79,-19.17 262.36,-21.08 265.83,-27.16"/>
</a>
</g>
</g>
<!-- Node10 -->
<g id="Node000010" class="node">
<title>Node10</title>
<g id="a_Node000010"><a xlink:title=" ">
<polygon fill="#e0e0e0" stroke="#999999" points="383.5,-19 338.5,-19 338.5,0 383.5,0 383.5,-19"/>
<text text-anchor="middle" x="361" y="-7" font-family="Helvetica,sans-Serif" font-size="10.00">utility</text>
</a>
</g>
</g>
<!-- Node8&#45;&gt;Node10 -->
<g id="edge10_Node000008_Node000010" class="edge">
<title>Node8&#45;&gt;Node10</title>
<g id="a_edge10_Node000008_Node000010"><a xlink:title=" ">
<path fill="none" stroke="#63b8ff" d="M221.67,-54.98C250.86,-45.66 297.66,-30.72 328.86,-20.76"/>
<polygon fill="#63b8ff" stroke="#63b8ff" points="329.93,-24.09 338.4,-17.72 327.8,-17.42 329.93,-24.09"/>
</a>
</g>
</g>
<!-- Node11 -->
<g id="Node000011" class="node">
<title>Node11</title>
<g id="a_Node000011"><a xlink:title=" ">
<polygon fill="#e0e0e0" stroke="#999999" points="168,-19 112,-19 112,0 168,0 168,-19"/>
<text text-anchor="middle" x="140" y="-7" font-family="Helvetica,sans-Serif" font-size="10.00">optional</text>
</a>
</g>
</g>
<!-- Node8&#45;&gt;Node11 -->
<g id="edge11_Node000008_Node000011" class="edge">
<title>Node8&#45;&gt;Node11</title>
<g id="a_edge11_Node000008_Node000011"><a xlink:title=" ">
<path fill="none" stroke="#63b8ff" d="M185.92,-54.75C177.91,-47.03 166.04,-35.6 156.38,-26.28"/>
<polygon fill="#63b8ff" stroke="#63b8ff" points="158.54,-23.51 148.91,-19.09 153.69,-28.55 158.54,-23.51"/>
</a>
</g>
</g>
<!-- Node12 -->
<g id="Node000012" class="node">
<title>Node12</title>
<g id="a_Node000012"><a xlink:title=" ">
<polygon fill="#e0e0e0" stroke="#999999" points="237.5,-19 186.5,-19 186.5,0 237.5,0 237.5,-19"/>
<text text-anchor="middle" x="212" y="-7" font-family="Helvetica,sans-Serif" font-size="10.00">variant</text>
</a>
</g>
</g>
<!-- Node8&#45;&gt;Node12 -->
<g id="edge12_Node000008_Node000012" class="edge">
<title>Node8&#45;&gt;Node12</title>
<g id="a_edge12_Node000008_Node000012"><a xlink:title=" ">
<path fill="none" stroke="#63b8ff" d="M197.81,-54.75C200.06,-47.72 203.3,-37.62 206.12,-28.84"/>
<polygon fill="#63b8ff" stroke="#63b8ff" points="209.52,-29.68 209.25,-19.09 202.86,-27.54 209.52,-29.68"/>
</a>
</g>
</g>
<!-- Node13&#45;&gt;Node2 -->
<g id="edge14_Node000013_Node000002" class="edge">
<title>Node13&#45;&gt;Node2</title>
<g id="a_edge14_Node000013_Node000002"><a xlink:title=" ">
<path fill="none" stroke="#63b8ff" d="M279.3,-164.98C242.25,-155.89 183.41,-141.46 142.87,-131.51"/>
<polygon fill="#63b8ff" stroke="#63b8ff" points="143.52,-128.07 132.98,-129.08 141.85,-134.86 143.52,-128.07"/>
</a>
</g>
</g>
<!-- Node13&#45;&gt;Node4 -->
<g id="edge19_Node000013_Node000004" class="edge">
<title>Node13&#45;&gt;Node4</title>
<g id="a_edge19_Node000013_Node000004"><a xlink:title=" ">
<path fill="none" stroke="#63b8ff" d="M361.27,-173.3C395.53,-170.36 439.77,-160.18 463,-129 481.96,-103.56 444.55,-86.57 408.5,-76.62"/>
<polygon fill="#63b8ff" stroke="#63b8ff" points="408.97,-73.13 398.41,-74 407.21,-79.91 408.97,-73.13"/>
</a>
</g>
</g>
<!-- Node13&#45;&gt;Node5 -->
<g id="edge18_Node000013_Node000005" class="edge">
<title>Node13&#45;&gt;Node5</title>
<g id="a_edge18_Node000013_Node000005"><a xlink:title=" ">
<path fill="none" stroke="#63b8ff" d="M361.35,-167.17C404.86,-160.28 464.7,-147.67 479,-129 489.02,-115.92 483.32,-97.02 476.61,-83.24"/>
<polygon fill="#63b8ff" stroke="#63b8ff" points="479.59,-81.4 471.75,-74.27 473.44,-84.73 479.59,-81.4"/>
</a>
</g>
</g>
<!-- Node13&#45;&gt;Node6 -->
<g id="edge20_Node000013_Node000006" class="edge">
<title>Node13&#45;&gt;Node6</title>
<g id="a_edge20_Node000013_Node000006"><a xlink:title=" ">
<path fill="none" stroke="#63b8ff" d="M361.19,-170.36C399.8,-165.91 454.47,-155.12 495,-129 512.63,-117.64 526.72,-97.89 535.39,-83.43"/>
<polygon fill="#63b8ff" stroke="#63b8ff" points="538.61,-84.85 540.51,-74.42 532.53,-81.39 538.61,-84.85"/>
</a>
</g>
</g>
<!-- Node13&#45;&gt;Node7 -->
<g id="edge17_Node000013_Node000007" class="edge">
<title>Node13&#45;&gt;Node7</title>
<g id="a_edge17_Node000013_Node000007"><a xlink:title=" ">
<path fill="none" stroke="#63b8ff" d="M267,-173.36C193.25,-172.03 55.61,-164.69 25,-129 14.58,-116.85 15.98,-98.06 19.14,-84.06"/>
<polygon fill="#63b8ff" stroke="#63b8ff" points="22.61,-84.66 21.87,-74.09 15.86,-82.81 22.61,-84.66"/>
</a>
</g>
</g>
<!-- Node14 -->
<g id="Node000014" class="node">
<title>Node14</title>
<g id="a_Node000014"><a xlink:title=" ">
<polygon fill="#e0e0e0" stroke="#999999" points="228,-129 180,-129 180,-110 228,-110 228,-129"/>
<text text-anchor="middle" x="204" y="-117" font-family="Helvetica,sans-Serif" font-size="10.00">mutex</text>
</a>
</g>
</g>
<!-- Node13&#45;&gt;Node14 -->
<g id="edge15_Node000013_Node000014" class="edge">
<title>Node13&#45;&gt;Node14</title>
<g id="a_edge15_Node000013_Node000014"><a xlink:title=" ">
<path fill="none" stroke="#63b8ff" d="M296.33,-164.98C278.71,-156.5 251.42,-143.35 231.07,-133.54"/>
<polygon fill="#63b8ff" stroke="#63b8ff" points="232.52,-130.36 221.99,-129.17 229.48,-136.66 232.52,-130.36"/>
</a>
</g>
</g>
<!-- Node15 -->
<g id="Node000015" class="node">
<title>Node15</title>
<g id="a_Node000015"><a xlink:title=" ">
<polygon fill="#e0e0e0" stroke="#999999" points="304,-129 246,-129 246,-110 304,-110 304,-129"/>
<text text-anchor="middle" x="275" y="-117" font-family="Helvetica,sans-Serif" font-size="10.00">memory</text>
</a>
</g>
</g>
<!-- Node13&#45;&gt;Node15 -->
<g id="edge16_Node000013_Node000015" class="edge">
<title>Node13&#45;&gt;Node15</title>
<g id="a_edge16_Node000013_Node000015"><a xlink:title=" ">
<path fill="none" stroke="#63b8ff" d="M307.56,-164.75C302.11,-157.34 294.14,-146.5 287.44,-137.41"/>
<polygon fill="#63b8ff" stroke="#63b8ff" points="290.07,-135.07 281.32,-129.09 284.43,-139.22 290.07,-135.07"/>
</a>
</g>
</g>
<!-- Node16 -->
<g id="Node000016" class="node">
<title>Node16</title>
<g id="a_Node000016"><a xlink:title=" ">
<polygon fill="#e0e0e0" stroke="#999999" points="386,-129 322,-129 322,-110 386,-110 386,-129"/>
<text text-anchor="middle" x="354" y="-117" font-family="Helvetica,sans-Serif" font-size="10.00">algorithm</text>
</a>
</g>
</g>
<!-- Node13&#45;&gt;Node16 -->
<g id="edge21_Node000013_Node000016" class="edge">
<title>Node13&#45;&gt;Node16</title>
<g id="a_edge21_Node000013_Node000016"><a xlink:title=" ">
<path fill="none" stroke="#63b8ff" d="M320.61,-164.75C326.26,-157.26 334.54,-146.28 341.45,-137.13"/>
<polygon fill="#63b8ff" stroke="#63b8ff" points="344.29,-139.18 347.52,-129.09 338.7,-134.96 344.29,-139.18"/>
</a>
</g>
</g>
<!-- Node17 -->
<g id="Node000017" class="node">
<title>Node17</title>
<g id="a_Node000017"><a xlink:title=" ">
<polygon fill="#e0e0e0" stroke="#999999" points="454,-129 404,-129 404,-110 454,-110 454,-129"/>
<text text-anchor="middle" x="429" y="-117" font-family="Helvetica,sans-Serif" font-size="10.00">cstdint</text>
</a>
</g>
</g>
<!-- Node13&#45;&gt;Node17 -->
<g id="edge22_Node000013_Node000017" class="edge">
<title>Node13&#45;&gt;Node17</title>
<g id="a_edge22_Node000013_Node000017"><a xlink:title=" ">
<path fill="none" stroke="#63b8ff" d="M332.48,-164.98C350.98,-156.46 379.68,-143.23 400.98,-133.41"/>
<polygon fill="#63b8ff" stroke="#63b8ff" points="402.57,-136.53 410.19,-129.17 399.64,-130.18 402.57,-136.53"/>
</a>
</g>
</g>
</g>
</svg>
