<?xml version="1.0" encoding="UTF-8" standalone="no"?>
<!DOCTYPE svg PUBLIC "-//W3C//DTD SVG 1.1//EN"
 "http://www.w3.org/Graphics/SVG/1.1/DTD/svg11.dtd">
<!-- Generated by graphviz version 2.43.0 (0)
 -->
<!-- Title: /home/runner/work/logger_system/logger_system/sources/logger/monitoring/thread_system_monitor_adapter.h Pages: 1 -->
<svg width="563pt" height="302pt"
 viewBox="0.00 0.00 563.00 302.00" xmlns="http://www.w3.org/2000/svg" xmlns:xlink="http://www.w3.org/1999/xlink">
<g id="graph0" class="graph" transform="scale(1 1) rotate(0) translate(4 298)">
<title>/home/runner/work/logger_system/logger_system/sources/logger/monitoring/thread_system_monitor_adapter.h</title>
<!-- Node1 -->
<g id="Node000001" class="node">
<title>Node1</title>
<g id="a_Node000001"><a xlink:title="Adapter for thread_system&#39;s monitoring capabilities.">
<polygon fill="#999999" stroke="#666666" points="405,-294 223,-294 223,-242 405,-242 405,-294"/>
<text text-anchor="start" x="231" y="-282" font-family="Helvetica,sans-Serif" font-size="10.00">/home/runner/work/logger</text>
<text text-anchor="start" x="231" y="-271" font-family="Helvetica,sans-Serif" font-size="10.00">_system/logger_system/sources</text>
<text text-anchor="start" x="231" y="-260" font-family="Helvetica,sans-Serif" font-size="10.00">/logger/monitoring/thread_system</text>
<text text-anchor="middle" x="314" y="-249" font-family="Helvetica,sans-Serif" font-size="10.00">_monitor_adapter.h</text>
</a>
</g>
</g>
<!-- Node2 -->
<g id="Node000002" class="node">
<title>Node2</title>
<g id="a_Node000002"><a xlink:href="monitoring__interface_8h.html" target="_top" xlink:title="Abstract interface for monitoring and metrics collection.">
<polygon fill="white" stroke="#666666" points="162,-140 34,-140 34,-121 162,-121 162,-140"/>
<text text-anchor="middle" x="98" y="-128" font-family="Helvetica,sans-Serif" font-size="10.00">monitoring_interface.h</text>
</a>
</g>
</g>
<!-- Node1&#45;&gt;Node2 -->
<g id="edge1_Node000001_Node000002" class="edge">
<title>Node1&#45;&gt;Node2</title>
<g id="a_edge1_Node000001_Node000002"><a xlink:title=" ">
<path fill="none" stroke="#63b8ff" d="M274.13,-241.99C228.92,-213.63 156.8,-168.38 120.47,-145.59"/>
<polygon fill="#63b8ff" stroke="#63b8ff" points="121.96,-142.4 111.63,-140.05 118.24,-148.33 121.96,-142.4"/>
</a>
</g>
</g>
<!-- Node12 -->
<g id="Node000012" class="node">
<title>Node12</title>
<g id="a_Node000012"><a xlink:href="basic__monitor_8h.html" target="_top" xlink:title="Basic monitoring implementation with no external dependencies.">
<polygon fill="white" stroke="#666666" points="361,-200.5 267,-200.5 267,-181.5 361,-181.5 361,-200.5"/>
<text text-anchor="middle" x="314" y="-188.5" font-family="Helvetica,sans-Serif" font-size="10.00">basic_monitor.h</text>
</a>
</g>
</g>
<!-- Node1&#45;&gt;Node12 -->
<g id="edge12_Node000001_Node000012" class="edge">
<title>Node1&#45;&gt;Node12</title>
<g id="a_edge12_Node000001_Node000012"><a xlink:title=" ">
<path fill="none" stroke="#63b8ff" d="M314,-241.61C314,-231.58 314,-220.25 314,-210.96"/>
<polygon fill="#63b8ff" stroke="#63b8ff" points="317.5,-210.85 314,-200.85 310.5,-210.85 317.5,-210.85"/>
</a>
</g>
</g>
<!-- Node17 -->
<g id="Node000017" class="node">
<title>Node17</title>
<g id="a_Node000017"><a xlink:title=" ">
<polygon fill="#e0e0e0" stroke="#999999" points="507,-206 379,-206 379,-176 507,-176 507,-206"/>
<text text-anchor="start" x="387" y="-194" font-family="Helvetica,sans-Serif" font-size="10.00">interfaces/monitorable</text>
<text text-anchor="middle" x="443" y="-183" font-family="Helvetica,sans-Serif" font-size="10.00">_interface.h</text>
</a>
</g>
</g>
<!-- Node1&#45;&gt;Node17 -->
<g id="edge22_Node000001_Node000017" class="edge">
<title>Node1&#45;&gt;Node17</title>
<g id="a_edge22_Node000001_Node000017"><a xlink:title=" ">
<path fill="none" stroke="#63b8ff" d="M357.31,-241.82C374.45,-231.86 393.82,-220.59 409.81,-211.3"/>
<polygon fill="#63b8ff" stroke="#63b8ff" points="411.9,-214.13 418.79,-206.08 408.38,-208.08 411.9,-214.13"/>
</a>
</g>
</g>
<!-- Node3 -->
<g id="Node000003" class="node">
<title>Node3</title>
<g id="a_Node000003"><a xlink:title=" ">
<polygon fill="#e0e0e0" stroke="#999999" points="95,-24.5 51,-24.5 51,-5.5 95,-5.5 95,-24.5"/>
<text text-anchor="middle" x="73" y="-12.5" font-family="Helvetica,sans-Serif" font-size="10.00">string</text>
</a>
</g>
</g>
<!-- Node2&#45;&gt;Node3 -->
<g id="edge2_Node000002_Node000003" class="edge">
<title>Node2&#45;&gt;Node3</title>
<g id="a_edge2_Node000002_Node000003"><a xlink:title=" ">
<path fill="none" stroke="#63b8ff" d="M96.12,-120.97C92.1,-102.73 82.6,-59.57 77.11,-34.64"/>
<polygon fill="#63b8ff" stroke="#63b8ff" points="80.47,-33.64 74.9,-24.63 73.63,-35.15 80.47,-33.64"/>
</a>
</g>
</g>
<!-- Node4 -->
<g id="Node000004" class="node">
<title>Node4</title>
<g id="a_Node000004"><a xlink:title=" ">
<polygon fill="#e0e0e0" stroke="#999999" points="384.5,-85 291.5,-85 291.5,-66 384.5,-66 384.5,-85"/>
<text text-anchor="middle" x="338" y="-73" font-family="Helvetica,sans-Serif" font-size="10.00">unordered_map</text>
</a>
</g>
</g>
<!-- Node2&#45;&gt;Node4 -->
<g id="edge3_Node000002_Node000004" class="edge">
<title>Node2&#45;&gt;Node4</title>
<g id="a_edge3_Node000002_Node000004"><a xlink:title=" ">
<path fill="none" stroke="#63b8ff" d="M136.56,-120.98C178.07,-111.82 244.21,-97.21 289.29,-87.26"/>
<polygon fill="#63b8ff" stroke="#63b8ff" points="290.13,-90.66 299.14,-85.08 288.62,-83.82 290.13,-90.66"/>
</a>
</g>
</g>
<!-- Node5 -->
<g id="Node000005" class="node">
<title>Node5</title>
<g id="a_Node000005"><a xlink:title=" ">
<polygon fill="#e0e0e0" stroke="#999999" points="474.5,-85 427.5,-85 427.5,-66 474.5,-66 474.5,-85"/>
<text text-anchor="middle" x="451" y="-73" font-family="Helvetica,sans-Serif" font-size="10.00">vector</text>
</a>
</g>
</g>
<!-- Node2&#45;&gt;Node5 -->
<g id="edge4_Node000002_Node000005" class="edge">
<title>Node2&#45;&gt;Node5</title>
<g id="a_edge4_Node000002_Node000005"><a xlink:title=" ">
<path fill="none" stroke="#63b8ff" d="M154.72,-120.98C228.81,-109.86 356.22,-90.73 416.93,-81.62"/>
<polygon fill="#63b8ff" stroke="#63b8ff" points="417.74,-85.03 427.11,-80.09 416.7,-78.11 417.74,-85.03"/>
</a>
</g>
</g>
<!-- Node6 -->
<g id="Node000006" class="node">
<title>Node6</title>
<g id="a_Node000006"><a xlink:title=" ">
<polygon fill="#e0e0e0" stroke="#999999" points="555,-85 505,-85 505,-66 555,-66 555,-85"/>
<text text-anchor="middle" x="530" y="-73" font-family="Helvetica,sans-Serif" font-size="10.00">chrono</text>
</a>
</g>
</g>
<!-- Node2&#45;&gt;Node6 -->
<g id="edge5_Node000002_Node000006" class="edge">
<title>Node2&#45;&gt;Node6</title>
<g id="a_edge5_Node000002_Node000006"><a xlink:title=" ">
<path fill="none" stroke="#63b8ff" d="M162.09,-122.03C165.1,-121.68 168.08,-121.34 171,-121 310.1,-104.9 345.52,-105.73 484,-85 487.48,-84.48 491.1,-83.89 494.71,-83.27"/>
<polygon fill="#63b8ff" stroke="#63b8ff" points="495.51,-86.69 504.74,-81.49 494.29,-79.79 495.51,-86.69"/>
</a>
</g>
</g>
<!-- Node7 -->
<g id="Node000007" class="node">
<title>Node7</title>
<g id="a_Node000007"><a xlink:title=" ">
<polygon fill="#e0e0e0" stroke="#999999" points="50,-85 0,-85 0,-66 50,-66 50,-85"/>
<text text-anchor="middle" x="25" y="-73" font-family="Helvetica,sans-Serif" font-size="10.00">atomic</text>
</a>
</g>
</g>
<!-- Node2&#45;&gt;Node7 -->
<g id="edge6_Node000002_Node000007" class="edge">
<title>Node2&#45;&gt;Node7</title>
<g id="a_edge6_Node000002_Node000007"><a xlink:title=" ">
<path fill="none" stroke="#63b8ff" d="M86.27,-120.98C75.27,-113 58.58,-100.88 45.4,-91.31"/>
<polygon fill="#63b8ff" stroke="#63b8ff" points="47.09,-88.21 36.94,-85.17 42.98,-93.88 47.09,-88.21"/>
</a>
</g>
</g>
<!-- Node8 -->
<g id="Node000008" class="node">
<title>Node8</title>
<g id="a_Node000008"><a xlink:href="error__codes_8h.html" target="_top" xlink:title=" ">
<polygon fill="white" stroke="#666666" points="223,-85 131,-85 131,-66 223,-66 223,-85"/>
<text text-anchor="middle" x="177" y="-73" font-family="Helvetica,sans-Serif" font-size="10.00">../error_codes.h</text>
</a>
</g>
</g>
<!-- Node2&#45;&gt;Node8 -->
<g id="edge7_Node000002_Node000008" class="edge">
<title>Node2&#45;&gt;Node8</title>
<g id="a_edge7_Node000002_Node000008"><a xlink:title=" ">
<path fill="none" stroke="#63b8ff" d="M110.69,-120.98C122.83,-112.84 141.36,-100.41 155.75,-90.76"/>
<polygon fill="#63b8ff" stroke="#63b8ff" points="157.72,-93.65 164.08,-85.17 153.82,-87.84 157.72,-93.65"/>
</a>
</g>
</g>
<!-- Node8&#45;&gt;Node3 -->
<g id="edge8_Node000008_Node000003" class="edge">
<title>Node8&#45;&gt;Node3</title>
<g id="a_edge8_Node000008_Node000003"><a xlink:title=" ">
<path fill="none" stroke="#63b8ff" d="M161.65,-65.87C144.68,-56.32 117.1,-40.81 97.21,-29.62"/>
<polygon fill="#63b8ff" stroke="#63b8ff" points="98.84,-26.52 88.41,-24.67 95.41,-32.62 98.84,-26.52"/>
</a>
</g>
</g>
<!-- Node9 -->
<g id="Node000009" class="node">
<title>Node9</title>
<g id="a_Node000009"><a xlink:title=" ">
<polygon fill="#e0e0e0" stroke="#999999" points="324.5,-24.5 259.5,-24.5 259.5,-5.5 324.5,-5.5 324.5,-24.5"/>
<text text-anchor="middle" x="292" y="-12.5" font-family="Helvetica,sans-Serif" font-size="10.00">stdexcept</text>
</a>
</g>
</g>
<!-- Node8&#45;&gt;Node9 -->
<g id="edge9_Node000008_Node000009" class="edge">
<title>Node8&#45;&gt;Node9</title>
<g id="a_edge9_Node000008_Node000009"><a xlink:title=" ">
<path fill="none" stroke="#63b8ff" d="M193.97,-65.87C212.91,-56.23 243.79,-40.53 265.83,-29.31"/>
<polygon fill="#63b8ff" stroke="#63b8ff" points="267.64,-32.32 274.96,-24.67 264.46,-26.08 267.64,-32.32"/>
</a>
</g>
</g>
<!-- Node10 -->
<g id="Node000010" class="node">
<title>Node10</title>
<g id="a_Node000010"><a xlink:title=" ">
<polygon fill="#e0e0e0" stroke="#999999" points="387.5,-24.5 342.5,-24.5 342.5,-5.5 387.5,-5.5 387.5,-24.5"/>
<text text-anchor="middle" x="365" y="-12.5" font-family="Helvetica,sans-Serif" font-size="10.00">utility</text>
</a>
</g>
</g>
<!-- Node8&#45;&gt;Node10 -->
<g id="edge10_Node000008_Node000010" class="edge">
<title>Node8&#45;&gt;Node10</title>
<g id="a_edge10_Node000008_Node000010"><a xlink:title=" ">
<path fill="none" stroke="#63b8ff" d="M212.12,-65.92C244.02,-57.8 292.19,-44.67 333,-30 334.39,-29.5 335.81,-28.97 337.23,-28.42"/>
<polygon fill="#63b8ff" stroke="#63b8ff" points="338.65,-31.62 346.56,-24.57 335.98,-25.15 338.65,-31.62"/>
</a>
</g>
</g>
<!-- Node11 -->
<g id="Node000011" class="node">
<title>Node11</title>
<g id="a_Node000011"><a xlink:title=" ">
<polygon fill="#e0e0e0" stroke="#999999" points="241,-30 113,-30 113,0 241,0 241,-30"/>
<text text-anchor="start" x="121" y="-18" font-family="Helvetica,sans-Serif" font-size="10.00">thread_base/sync/error</text>
<text text-anchor="middle" x="177" y="-7" font-family="Helvetica,sans-Serif" font-size="10.00">_handling.h</text>
</a>
</g>
</g>
<!-- Node8&#45;&gt;Node11 -->
<g id="edge11_Node000008_Node000011" class="edge">
<title>Node8&#45;&gt;Node11</title>
<g id="a_edge11_Node000008_Node000011"><a xlink:title=" ">
<path fill="none" stroke="#63b8ff" d="M177,-65.87C177,-59.11 177,-49.35 177,-40.26"/>
<polygon fill="#63b8ff" stroke="#63b8ff" points="180.5,-40.11 177,-30.11 173.5,-40.11 180.5,-40.11"/>
</a>
</g>
</g>
<!-- Node12&#45;&gt;Node2 -->
<g id="edge13_Node000012_Node000002" class="edge">
<title>Node12&#45;&gt;Node2</title>
<g id="a_edge13_Node000012_Node000002"><a xlink:title=" ">
<path fill="none" stroke="#63b8ff" d="M282.59,-181.49C244.76,-171.25 181.09,-154 139.31,-142.69"/>
<polygon fill="#63b8ff" stroke="#63b8ff" points="140.01,-139.25 129.45,-140.02 138.18,-146.01 140.01,-139.25"/>
</a>
</g>
</g>
<!-- Node12&#45;&gt;Node4 -->
<g id="edge18_Node000012_Node000004" class="edge">
<title>Node12&#45;&gt;Node4</title>
<g id="a_edge18_Node000012_Node000004"><a xlink:title=" ">
<path fill="none" stroke="#63b8ff" d="M345.8,-181.45C387.42,-169.95 455.95,-149.8 463,-140 484.45,-110.18 437.18,-93.45 394.75,-84.74"/>
<polygon fill="#63b8ff" stroke="#63b8ff" points="395.16,-81.26 384.68,-82.8 393.83,-88.13 395.16,-81.26"/>
</a>
</g>
</g>
<!-- Node12&#45;&gt;Node5 -->
<g id="edge17_Node000012_Node000005" class="edge">
<title>Node12&#45;&gt;Node5</title>
<g id="a_edge17_Node000012_Node000005"><a xlink:title=" ">
<path fill="none" stroke="#63b8ff" d="M345.6,-181.46C392.36,-168.69 474.92,-145.5 479,-140 489.7,-125.58 478.45,-106.42 467.18,-92.93"/>
<polygon fill="#63b8ff" stroke="#63b8ff" points="469.65,-90.45 460.35,-85.36 464.45,-95.13 469.65,-90.45"/>
</a>
</g>
</g>
<!-- Node12&#45;&gt;Node6 -->
<g id="edge19_Node000012_Node000006" class="edge">
<title>Node12&#45;&gt;Node6</title>
<g id="a_edge19_Node000012_Node000006"><a xlink:title=" ">
<path fill="none" stroke="#63b8ff" d="M347.5,-181.46C398.18,-168.44 489.11,-144.65 495,-140 509.49,-128.56 518.86,-109.4 524.23,-95.11"/>
<polygon fill="#63b8ff" stroke="#63b8ff" points="527.64,-95.93 527.57,-85.34 521.02,-93.67 527.64,-95.93"/>
</a>
</g>
</g>
<!-- Node12&#45;&gt;Node7 -->
<g id="edge16_Node000012_Node000007" class="edge">
<title>Node12&#45;&gt;Node7</title>
<g id="a_edge16_Node000012_Node000007"><a xlink:title=" ">
<path fill="none" stroke="#63b8ff" d="M266.94,-188.92C193.12,-186.13 55.37,-176.08 25,-140 14.69,-127.76 16.08,-108.97 19.21,-95.01"/>
<polygon fill="#63b8ff" stroke="#63b8ff" points="22.66,-95.63 21.9,-85.06 15.91,-93.8 22.66,-95.63"/>
</a>
</g>
</g>
<!-- Node13 -->
<g id="Node000013" class="node">
<title>Node13</title>
<g id="a_Node000013"><a xlink:title=" ">
<polygon fill="#e0e0e0" stroke="#999999" points="228,-140 180,-140 180,-121 228,-121 228,-140"/>
<text text-anchor="middle" x="204" y="-128" font-family="Helvetica,sans-Serif" font-size="10.00">mutex</text>
</a>
</g>
</g>
<!-- Node12&#45;&gt;Node13 -->
<g id="edge14_Node000012_Node000013" class="edge">
<title>Node12&#45;&gt;Node13</title>
<g id="a_edge14_Node000012_Node000013"><a xlink:title=" ">
<path fill="none" stroke="#63b8ff" d="M297.77,-181.37C279.73,-171.78 250.38,-156.17 229.32,-144.97"/>
<polygon fill="#63b8ff" stroke="#63b8ff" points="230.77,-141.77 220.3,-140.17 227.48,-147.95 230.77,-141.77"/>
</a>
</g>
</g>
<!-- Node14 -->
<g id="Node000014" class="node">
<title>Node14</title>
<g id="a_Node000014"><a xlink:title=" ">
<polygon fill="#e0e0e0" stroke="#999999" points="304,-140 246,-140 246,-121 304,-121 304,-140"/>
<text text-anchor="middle" x="275" y="-128" font-family="Helvetica,sans-Serif" font-size="10.00">memory</text>
</a>
</g>
</g>
<!-- Node12&#45;&gt;Node14 -->
<g id="edge15_Node000012_Node000014" class="edge">
<title>Node12&#45;&gt;Node14</title>
<g id="a_edge15_Node000012_Node000014"><a xlink:title=" ">
<path fill="none" stroke="#63b8ff" d="M308.25,-181.37C302.54,-172.81 293.65,-159.47 286.49,-148.74"/>
<polygon fill="#63b8ff" stroke="#63b8ff" points="289.24,-146.55 280.78,-140.17 283.41,-150.43 289.24,-146.55"/>
</a>
</g>
</g>
<!-- Node15 -->
<g id="Node000015" class="node">
<title>Node15</title>
<g id="a_Node000015"><a xlink:title=" ">
<polygon fill="#e0e0e0" stroke="#999999" points="386,-140 322,-140 322,-121 386,-121 386,-140"/>
<text text-anchor="middle" x="354" y="-128" font-family="Helvetica,sans-Serif" font-size="10.00">algorithm</text>
</a>
</g>
</g>
<!-- Node12&#45;&gt;Node15 -->
<g id="edge20_Node000012_Node000015" class="edge">
<title>Node12&#45;&gt;Node15</title>
<g id="a_edge20_Node000012_Node000015"><a xlink:title=" ">
<path fill="none" stroke="#63b8ff" d="M319.9,-181.37C325.75,-172.81 334.87,-159.47 342.21,-148.74"/>
<polygon fill="#63b8ff" stroke="#63b8ff" points="345.32,-150.4 348.07,-140.17 339.54,-146.45 345.32,-150.4"/>
</a>
</g>
</g>
<!-- Node16 -->
<g id="Node000016" class="node">
<title>Node16</title>
<g id="a_Node000016"><a xlink:title=" ">
<polygon fill="#e0e0e0" stroke="#999999" points="454,-140 404,-140 404,-121 454,-121 454,-140"/>
<text text-anchor="middle" x="429" y="-128" font-family="Helvetica,sans-Serif" font-size="10.00">cstdint</text>
</a>
</g>
</g>
<!-- Node12&#45;&gt;Node16 -->
<g id="edge21_Node000012_Node000016" class="edge">
<title>Node12&#45;&gt;Node16</title>
<g id="a_edge21_Node000012_Node000016"><a xlink:title=" ">
<path fill="none" stroke="#63b8ff" d="M330.97,-181.37C349.91,-171.73 380.79,-156.03 402.83,-144.81"/>
<polygon fill="#63b8ff" stroke="#63b8ff" points="404.64,-147.82 411.96,-140.17 401.46,-141.58 404.64,-147.82"/>
</a>
</g>
</g>
</g>
</svg>
